<?xml version="1.0" encoding="UTF-8" standalone="no"?>
<!-- Created with Inkscape (http://www.inkscape.org/) -->
<svg
   xmlns:dc="http://purl.org/dc/elements/1.1/"
   xmlns:cc="http://web.resource.org/cc/"
   xmlns:rdf="http://www.w3.org/1999/02/22-rdf-syntax-ns#"
   xmlns:svg="http://www.w3.org/2000/svg"
   xmlns="http://www.w3.org/2000/svg"
   xmlns:xlink="http://www.w3.org/1999/xlink"
   xmlns:sodipodi="http://sodipodi.sourceforge.net/DTD/sodipodi-0.dtd"
   xmlns:inkscape="http://www.inkscape.org/namespaces/inkscape"
   width="16px"
   height="16px"
   id="svg3249"
   sodipodi:version="0.32"
   inkscape:version="0.44"
   inkscape:export-filename="C:\Mis documentos\Mis imágenes\clamwin\favicon"
   inkscape:export-xdpi="90"
   inkscape:export-ydpi="90"
   sodipodi:docbase="C:\Mis documentos\Mis imágenes\clamwin"
   sodipodi:docname="favicon.svg">
  <defs
     id="defs3251">
    <linearGradient
       inkscape:collect="always"
       id="linearGradient25166">
      <stop
         style="stop-color:#76ce3c;stop-opacity:1;"
         offset="0"
         id="stop25168" />
      <stop
         style="stop-color:#76ce3c;stop-opacity:0;"
         offset="1"
         id="stop25170" />
    </linearGradient>
    <linearGradient
       id="linearGradient24271">
      <stop
         style="stop-color:#76ce3c;stop-opacity:1;"
         offset="0"
         id="stop24273" />
      <stop
         style="stop-color:#296800;stop-opacity:1;"
         offset="1"
         id="stop24275" />
    </linearGradient>
    <linearGradient
       id="linearGradient7352">
      <stop
         style="stop-color:#feff00;stop-opacity:1;"
         offset="0"
         id="stop7354" />
      <stop
         style="stop-color:white;stop-opacity:1;"
         offset="1"
         id="stop7356" />
    </linearGradient>
    <linearGradient
       id="linearGradient6455">
      <stop
         style="stop-color:#76ffff;stop-opacity:1;"
         offset="0"
         id="stop6457" />
      <stop
         style="stop-color:#76ceff;stop-opacity:1;"
         offset="1"
         id="stop6459" />
    </linearGradient>
    <linearGradient
       inkscape:collect="always"
       id="linearGradient26063">
      <stop
         style="stop-color:white;stop-opacity:1;"
         offset="0"
         id="stop26065" />
      <stop
         style="stop-color:white;stop-opacity:0;"
         offset="1"
         id="stop26067" />
    </linearGradient>
    <linearGradient
       inkscape:collect="always"
       id="linearGradient4662">
      <stop
         style="stop-color:#76ceff;stop-opacity:1;"
         offset="0"
         id="stop4664" />
      <stop
         style="stop-color:#76ceff;stop-opacity:0;"
         offset="1"
         id="stop4666" />
    </linearGradient>
    <linearGradient
       id="linearGradient3771">
      <stop
         id="stop3773"
         offset="0"
         style="stop-color:#76ceff;stop-opacity:1;" />
      <stop
         id="stop3775"
         offset="1"
         style="stop-color:white;stop-opacity:1;" />
    </linearGradient>
    <linearGradient
       id="linearGradient10015">
      <stop
         style="stop-color:#3380b6;stop-opacity:1;"
         offset="0"
         id="stop10017" />
      <stop
         style="stop-color:#d6e8f4;stop-opacity:1;"
         offset="1"
         id="stop10019" />
    </linearGradient>
    <linearGradient
       inkscape:collect="always"
       xlink:href="#linearGradient24271"
       id="linearGradient3081"
       gradientUnits="userSpaceOnUse"
       x1="65.726944"
       y1="178.19977"
       x2="90.446602"
       y2="202.91943" />
    <radialGradient
       inkscape:collect="always"
       xlink:href="#linearGradient25166"
       id="radialGradient3083"
       gradientUnits="userSpaceOnUse"
       cx="78.448273"
       cy="189.94254"
       fx="78.448273"
       fy="189.94254"
       r="18.103449" />
    <radialGradient
       inkscape:collect="always"
       xlink:href="#linearGradient26063"
       id="radialGradient3085"
       gradientUnits="userSpaceOnUse"
       gradientTransform="matrix(2.529426,0,0,2.532122,13.0381,-290.1807)"
       cx="69.039253"
       cy="180.4156"
       fx="69.039253"
       fy="180.4156"
       r="14.65625" />
    <linearGradient
       inkscape:collect="always"
       xlink:href="#linearGradient10015"
       id="linearGradient3097"
       gradientUnits="userSpaceOnUse"
       x1="91.394043"
       y1="201.59889"
       x2="66.606262"
       y2="176.81111" />
    <linearGradient
       inkscape:collect="always"
       xlink:href="#linearGradient3771"
       id="linearGradient3099"
       gradientUnits="userSpaceOnUse"
       x1="65.726944"
       y1="178.19977"
       x2="90.446602"
       y2="202.91943" />
    <radialGradient
       inkscape:collect="always"
       xlink:href="#linearGradient4662"
       id="radialGradient3101"
       gradientUnits="userSpaceOnUse"
       cx="78.448273"
       cy="189.94254"
       fx="78.448273"
       fy="189.94254"
       r="18.103449" />
    <radialGradient
       inkscape:collect="always"
       xlink:href="#linearGradient26063"
       id="radialGradient3103"
       gradientUnits="userSpaceOnUse"
       gradientTransform="matrix(0.917347,0,0,0.918325,-63.04033,-165.3967)"
       cx="69.039253"
       cy="180.4156"
       fx="69.039253"
       fy="180.4156"
       r="14.65625" />
    <radialGradient
       inkscape:collect="always"
       xlink:href="#linearGradient6455"
       id="radialGradient3105"
       gradientUnits="userSpaceOnUse"
       gradientTransform="matrix(0.246154,0,0,0.24265,3.278e-6,0.113923)"
       cx="32.453125"
       cy="32.515625"
       fx="32.453125"
       fy="32.515625"
       r="30.734375" />
    <radialGradient
       inkscape:collect="always"
       xlink:href="#linearGradient7352"
       id="radialGradient3107"
       gradientUnits="userSpaceOnUse"
       gradientTransform="matrix(0.36267,0,0,0.325475,-67.76885,-53.1651)"
       cx="208.88785"
       cy="187.97722"
       fx="208.88785"
       fy="187.97722"
       r="21.26543" />
  </defs>
  <sodipodi:namedview
     id="base"
     pagecolor="#ffffff"
     bordercolor="#666666"
     borderopacity="1.0"
     inkscape:pageopacity="0.0"
     inkscape:pageshadow="2"
     inkscape:zoom="1"
     inkscape:cx="8"
     inkscape:cy="8"
     inkscape:current-layer="layer1"
     showgrid="true"
     inkscape:grid-bbox="true"
     inkscape:document-units="px"
     inkscape:window-width="1024"
     inkscape:window-height="742"
     inkscape:window-x="-4"
     inkscape:window-y="2" />
  <metadata
     id="metadata3254">
    <rdf:RDF>
      <cc:Work
         rdf:about="">
        <dc:format>image/svg+xml</dc:format>
        <dc:type
           rdf:resource="http://purl.org/dc/dcmitype/StillImage" />
      </cc:Work>
    </rdf:RDF>
  </metadata>
  <g
     id="layer1"
     inkscape:label="Layer 1"
     inkscape:groupmode="layer">
    <g
       id="g3089"
       transform="matrix(0.937499,0,0,0.937499,0.500014,0.500021)">
      <path
         sodipodi:type="arc"
         style="fill:url(#linearGradient3097);fill-opacity:1;stroke:none;stroke-width:4;stroke-linecap:round;stroke-linejoin:round;stroke-miterlimit:4;stroke-dasharray:none;stroke-dashoffset:0;stroke-opacity:0.55026455"
         id="path3201"
         sodipodi:cx="78.448273"
         sodipodi:cy="189.94254"
         sodipodi:rx="18.103449"
         sodipodi:ry="18.103449"
         d="M 96.551722 189.94254 A 18.103449 18.103449 0 1 1  60.344824,189.94254 A 18.103449 18.103449 0 1 1  96.551722 189.94254 z"
         transform="matrix(0.441905,0,0,0.441905,-26.66669,-75.93657)" />
      <path
         transform="matrix(0.425993,0,0,0.425993,-25.41841,-72.91421)"
         d="M 96.551722 189.94254 A 18.103449 18.103449 0 1 1  60.344824,189.94254 A 18.103449 18.103449 0 1 1  96.551722 189.94254 z"
         sodipodi:ry="18.103449"
         sodipodi:rx="18.103449"
         sodipodi:cy="189.94254"
         sodipodi:cx="78.448273"
         id="path3203"
         style="fill:url(#linearGradient3099);fill-opacity:1;stroke:none;stroke-width:4;stroke-linecap:round;stroke-linejoin:round;stroke-miterlimit:4;stroke-dasharray:none;stroke-dashoffset:0;stroke-opacity:0.55026455"
         sodipodi:type="arc" />
      <path
         sodipodi:type="arc"
         style="fill:url(#radialGradient3101);fill-opacity:1;stroke:none;stroke-width:4;stroke-linecap:round;stroke-linejoin:round;stroke-miterlimit:4;stroke-dasharray:none;stroke-dashoffset:0;stroke-opacity:0.55026455"
         id="path3205"
         sodipodi:cx="78.448273"
         sodipodi:cy="189.94254"
         sodipodi:rx="18.103449"
         sodipodi:ry="18.103449"
         d="M 96.551722 189.94254 A 18.103449 18.103449 0 1 1  60.344824,189.94254 A 18.103449 18.103449 0 1 1  96.551722 189.94254 z"
         transform="matrix(0.425993,0,0,0.425993,-25.41841,-72.91421)" />
      <path
         style="fill:url(#radialGradient3103);fill-opacity:1;stroke:none;stroke-width:4;stroke-linecap:round;stroke-linejoin:round;stroke-miterlimit:4;stroke-dasharray:none;stroke-dashoffset:0;stroke-opacity:0.55026455"
         d="M 7.9993466,0.28340182 C 3.7423515,0.28340182 0.29260906,3.7444777 0.29260906,8.0014728 C 0.29260906,8.9202573 0.45073681,9.8021039 0.74594656,10.619497 C 1.4387696,10.8154 2.166699,10.9255 2.9219666,10.9255 C 7.337967,10.9255 10.923373,7.3400932 10.923373,2.9240928 C 10.923373,2.1688289 10.813274,1.4408958 10.617371,0.74807276 C 9.7999777,0.45286301 8.9181311,0.28340182 7.9993466,0.28340182 z "
         id="path3207" />
      <path
         id="path3209"
         d="M 6.0230671,0.54615261 C 4.6663404,0.90601192 3.4548195,1.6275874 2.4999891,2.6 L 7.9692232,8.0076926 L 6.0230671,0.54615261 z M 0.68460456,5.5615378 C 0.57645999,5.8859751 0.4876276,6.2195844 0.42306509,6.5615387 L 7.9461465,8.0461537 L 0.68460456,5.5615378 z M 8.0538377,8.0692304 L 15.284607,10.538462 C 15.396523,10.217368 15.484805,9.8849523 15.553839,9.5461568 L 8.0538377,8.0692304 z M 8.030761,8.1076916 L 9.9538368,15.46154 C 11.292851,15.110893 12.494913,14.410113 13.446146,13.461542 L 8.030761,8.1076916 z "
         style="opacity:0.5;fill:url(#radialGradient3105);fill-opacity:1;stroke:none;stroke-width:2;stroke-linecap:round;stroke-linejoin:round;stroke-miterlimit:4;stroke-dasharray:none;stroke-dashoffset:0;stroke-opacity:1" />
      <path
         style="opacity:0.5;fill:url(#radialGradient3107);fill-opacity:1;stroke:none;stroke-width:2;stroke-linecap:round;stroke-linejoin:round;stroke-miterlimit:4;stroke-dasharray:none;stroke-dashoffset:0;stroke-opacity:1"
         d="M 0.27619462,7.9720675 C 0.27264408,9.3757056 0.65606605,10.732701 1.3482181,11.906674 L 7.9871899,8.0234179 L 0.27619462,7.9720675 z M 3.7389895,14.426705 C 4.0243782,14.615134 4.3236317,14.787286 4.6372252,14.938153 L 8.0183686,8.0556629 L 3.7389895,14.426705 z M 8.0685331,7.9576115 L 12.325089,1.6123081 C 12.0439,1.4211012 11.745659,1.2497941 11.436276,1.09542 L 8.0685331,7.9576115 z M 8.0997119,7.9898564 L 15.700713,8.0356218 C 15.708572,6.6514808 15.34279,5.3089998 14.672736,4.1446732 L 8.0997119,7.9898564 z "
         id="path3211" />
    </g>
    <g
       id="g3215"
       transform="matrix(0.17067,0,0,0.17067,-27.65626,-24.0741)">
      <path
         transform="matrix(1.218477,0,0,1.218477,113.3321,-43.5097)"
         d="M 96.551722 189.94254 A 18.103449 18.103449 0 1 1  60.344824,189.94254 A 18.103449 18.103449 0 1 1  96.551722 189.94254 z"
         sodipodi:ry="18.103449"
         sodipodi:rx="18.103449"
         sodipodi:cy="189.94254"
         sodipodi:cx="78.448273"
         id="path3217"
         style="opacity:1;fill:#338000;fill-opacity:1;stroke:none;stroke-width:4;stroke-linecap:round;stroke-linejoin:round;stroke-miterlimit:4;stroke-dasharray:none;stroke-dashoffset:0;stroke-opacity:0.55026455"
         sodipodi:type="arc" />
      <path
         sodipodi:type="arc"
         style="opacity:1;fill:url(#linearGradient3081);fill-opacity:1;stroke:none;stroke-width:4;stroke-linecap:round;stroke-linejoin:round;stroke-miterlimit:4;stroke-dasharray:none;stroke-dashoffset:0;stroke-opacity:0.55026455"
         id="path3219"
         sodipodi:cx="78.448273"
         sodipodi:cy="189.94254"
         sodipodi:rx="18.103449"
         sodipodi:ry="18.103449"
         d="M 96.551722 189.94254 A 18.103449 18.103449 0 1 1  60.344824,189.94254 A 18.103449 18.103449 0 1 1  96.551722 189.94254 z"
         transform="matrix(1.174603,0,0,1.174603,116.774,-35.17605)" />
      <path
         transform="matrix(1.174603,0,0,1.174603,116.774,-35.17605)"
         d="M 96.551722 189.94254 A 18.103449 18.103449 0 1 1  60.344824,189.94254 A 18.103449 18.103449 0 1 1  96.551722 189.94254 z"
         sodipodi:ry="18.103449"
         sodipodi:rx="18.103449"
         sodipodi:cy="189.94254"
         sodipodi:cx="78.448273"
         id="path3221"
         style="opacity:1;fill:url(#radialGradient3083);fill-opacity:1;stroke:none;stroke-width:4;stroke-linecap:round;stroke-linejoin:round;stroke-miterlimit:4;stroke-dasharray:none;stroke-dashoffset:0;stroke-opacity:0.55026455"
         sodipodi:type="arc" />
      <path
         id="path3223"
         d="M 208.91775,166.65374 C 197.17982,166.65374 187.66775,176.19706 187.66775,187.93499 C 187.66775,190.46838 188.10376,192.89992 188.91775,195.15374 C 190.82809,195.69391 192.83523,195.99749 194.91775,195.99749 C 207.09411,195.99749 216.98025,186.11135 216.98025,173.93499 C 216.98025,171.85248 216.67667,169.84533 216.1365,167.93499 C 213.88268,167.121 211.45114,166.65374 208.91775,166.65374 z "
         style="opacity:1;fill:url(#radialGradient3085);fill-opacity:1;stroke:none;stroke-width:4;stroke-linecap:round;stroke-linejoin:round;stroke-miterlimit:4;stroke-dasharray:none;stroke-dashoffset:0;stroke-opacity:0.55026455" />
    </g>
    <g
       id="g6659">
      <path
         sodipodi:nodetypes="cccccc"
         id="path3225"
         d="M 5.6548514,4.9704617 C 4.9151179,5.1131547 4.2255714,5.8769739 4.1120793,6.494175 C 5.2151177,7.2590007 6.9421574,9.6250503 8.1883004,11.820445 C 9.4297274,1.7576559 14.189501,0.34716228 14.189501,0.34716228 C 14.189501,0.34716228 9.7719995,1.2560165 7.5685853,8.0370186 C 7.0786713,6.9252397 6.4658191,5.9129366 5.6548514,4.9704617 z "
         style="fill:#338000;fill-opacity:1;fill-rule:evenodd;stroke:#338000;stroke-width:0.5;stroke-linecap:round;stroke-linejoin:round;stroke-miterlimit:4;stroke-dasharray:none;stroke-opacity:1" />
      <path
         style="fill:white;fill-opacity:1;fill-rule:evenodd;stroke:none;stroke-width:1.35745442;stroke-linecap:round;stroke-linejoin:round;stroke-miterlimit:4;stroke-dasharray:none;stroke-opacity:1"
         d="M 5.6548514,4.9704617 C 4.9151179,5.1131547 4.2255714,5.8769739 4.1120793,6.494175 C 5.2151177,7.2590007 6.9421574,9.6250503 8.1883004,11.820445 C 9.4297274,1.7576559 14.123583,0.37543689 14.123583,0.37543689 C 14.123583,0.37543689 9.7719995,1.2560165 7.5685853,8.0370186 C 7.0786713,6.9252397 6.4658191,5.9129366 5.6548514,4.9704617 z "
         id="path3227"
         sodipodi:nodetypes="cccccc" />
    </g>
  </g>
</svg>
