<svg xmlns="http://www.w3.org/2000/svg" width="205" height="105.87" viewBox="-699.1943 -349.5926 205.00302 105.86646">
  <path fill="none" stroke="#000" d="M-524.02-345.65c.66-.46 1.18-1.2 2.02-1.35.1.77-.08 1.54-.34 2.27.37.3.8.06 1.17-.12.5-.25 1.02-.46 1.58-.55 0 1.24-.8 2.28-.9 3.5-.1.64.4 1.18.9 1.53.6.48 1.4.67 2 1.16.6.7.8 1.7 1.3 2.5.3.5.7.9.8 1.4-.3.4-.9.4-1.4.5 0 .8.7 1.2 1.1 1.9 3 3.9 6.2 7.8 9 11.9.4.5.3 1.2.1 1.8-.4 1.1-.8 2.3-1.1 3.5-.1.6-.6 1-1.2 1.2-.6-.2-1.1-.6-1.7-.7-.3.7-.7 1.4-1 2.1-.1.4-.8.3-1.1.1-1-.5-2.1-1-3-1.7-.4-.6-.5-1.4-1-2-1.1-1.5-2.8-2.4-4.4-3.2-2.5-1.2-5.1-2.3-7.5-3.7-.5-.3-.8.3-1 .6-1.6 2.7-3.6 5.2-4.5 8.2-.3 1.5-1 2.9-1.3 4.4-.4 1.2-.6 2.4-1 3.6-.1.8-1 1.2-1.6 1.8-.7.6-1 1.5-1.2 2.3-.2.8-.1 1.7-.2 2.5s-.1 1.7-.1 2.5c0 1 0 2 .1 2.9.2 2.2-.1 4.4-.4 6.6 0 1.4-.7 2.7-.6 4.1.9.2 1.8.7 2.8.7h7.7c2.3-.2 4.6-.4 6.7.3.7.2 1.4.2 2.1.4 1.1.4 2.2.4 3.2 1 1.1 2.2.5 4.8.7 7.2.2.5.5.9.8 1.3 3.2 5.3 6.7 10.4 10.4 15.36 1.1 1.4 2.3 2.82 3.4 4.22.8.8 1.5 1.7 2.3 2.4.7.6 1.3 1.13 2.2 1.4.7.2 1.5.45 2 1 .3.4.2.9.2 1.36 0 .4-.5.44-.8.4-1.9 0-3.8.1-5.7 0-1.3-.3-2.9-.83-3.5-2.2-.4-1.2-.6-2.5-1.5-3.4-.8-1-2-1.64-3.2-2.05-.3-.17-.9-.2-.9-.7-.1-1.1-.7-2-1.2-2.9-1-1.7-2.1-3.3-3.3-4.8-.9-.97-1.5-2.1-2.52-2.86-.2-.2-.52-.3-.8-.2-.3.6-.5 1.26-.8 1.87-.2.3-.3.7-.2 1 .15.3.35.5.5.8-.1.9-.6 1.7-.93 2.5-1 2-2.2 4-3.9 5.4-1.2 1-2.7 1.5-4.15 1.9-1.4.2-2.83.54-4.3.4-.3-.1-.2-.4-.1-.6.3-.8.7-1.5 1.1-2.2.8-1.3 1.57-2.6 2.6-3.7.3-.3.6-.7 1.1-.6.9-.1 1.5.6 2.3.6.5 0 1.1.17 1.3-.4-.1-.82-1-1.5-.8-2.4.4-1.33 1.3-2.5 1.8-3.8.25-1.2-.2-2.5.4-3.6.1-.3.2-.6.2-.93-.7-.6-1.3-1.3-2.2-1.7-.8-.18-1.5.12-2.3.1l-3.7.3c-1.64 0-3.3.4-5 .5-1.1-.1-2.2.2-3.3.1-1.9.03-3.9-.05-5.8-.4-1.4-.27-2.8-.3-4.2-.25-.7 0-1.4.5-2.15.3-1.9-.3-3.7-1-5.5-1.5-1.7-.56-3.4-.77-5.1-.9-.3 0-.7.03-1 .1-.9.1-1.8 0-2.7.1-.9.2-1.9.03-2.8.1-1.8.3-3.6.07-5.4.2-1.3.2-2.6 0-3.9.2-.8.1-1.56 0-2.34.1-1.12.2-2.3.1-3.44.17-1.8.2-3.7.1-5.5.12-1.5.1-3-.4-4.4-.6-3.2-.9-6.3-2.1-9.3-3.6-3-1.5-6-3-9.1-4.2-2.3-.87-4.8-1.7-7.3-1.6-2.1.1-4.12.8-5.83 2-1.92 1.5-3.7 3.1-5.5 4.7-.62.7-1.3 1.3-2.1 1.7-2.3 1.35-4.9 1.8-7.5 2-.6 0-1.1-.3-1.7-.4-1-.15-2 0-3 .1-.9 0-1.8.2-2.7.3-1.4.1-2.8.5-4.2 1-2.4.83-4.5 2.7-5.9 4.9-.82 1.1-1.4 2.42-2.1 3.7l-3.3 6.13c-.3.6-.8 1.1-1.1 1.7-.2.5-.4 1-.8 1.4l-3.2 3.17c-1 1-2.2 2-3.6 2.37-.7.2-1.5.5-2.3.4-.9-.1-1.8 0-2.6-.1-1-.3-2-.6-2.7-1.3-.2-.46.3-.7.5-1.05 1.6-1.53 3-3.3 4.8-4.6.4-.24.86-.53 1.3-.34.7.4 1 1.2 1.7 1.5.6.1 1.3-.1 1.6-.6.1-1.2-.1-2.4.05-3.6.2-.7.8-1.1 1.3-1.6 1-.8 1.55-2 2.36-3 .93-1.3 1.73-2.7 2.6-4 .75-1.4 1.5-2.8 2-4.4.2-.6.2-1.3.1-2-.3-.9-1.4-.6-2.1-.56-2.33 1-4.25 2.7-6.1 4.4-2.26 2.16-4.5 4.4-6.6 6.7-1.7 1.8-3.4 3.7-5.2 5.5-1.23 1.2-2.46 2.48-3.9 3.48-1.04.8-2.1 1.7-3.4 2.1-.8.2-1.7 0-2.5-.1-1.25-.2-2.53-.3-3.8-.4-.24 0-.45-.2-.6-.37-.1-.83-.13-1.83.5-2.52.8-.9 1.7-1.8 2.64-2.5 1-.7 2.2-1.3 3.4-1.6.8-.1 1.2.8 1.8 1.2.24.3.7.3 1 .1.9-.5 1.3-1.5 1.6-2.4.3-1 .23-2 .54-2.9.1-.4.4-.6.65-.8 1.25-.86 2.38-1.85 3.47-2.86 1.7-1.55 3.5-3.08 4.9-4.9 3.2-3.6 6.03-7.58 8.2-11.9.2-.34.5-.65.83-.7 2.1-.18 4.1.36 6.2.3 1.9.02 3.77-.05 5.6-.44 1.35-.2 2.77-.6 3.84-1.5 1-1 1.3-2.5 1.5-3.9.2-1.2.3-2.5.4-3.7-.1-1.1.2-2.2.4-3.3.2-1.8.6-3.52 1.2-5.3.4-1.6 1.6-2.9 2.6-4.3 1.3-1.5 2.56-3.1 3.9-4.5.2-.3.55-.6.5-1-.5-.9-1.6-1.3-2.5-1.65-1.4-.4-2.8-.9-4.2-.73-2.4.3-4.7 1.33-6.7 2.65-1.5 1-3.02 1.8-4.72 2.3-.75.2-1.5.4-2.26.5-1 .1-2 0-3-.1-.7-.1-1.4-.1-2.1-.3 0-.8.6-1.3.6-2.1-1-.4-2 .2-3 .17-.8-.1-1.6-.37-2.3-.67-2.1-.7-4.1-1.6-6-2.5-.3-.1-.7-.3-.5-.7.35-.5 1-.73 1.6-.9.7-.04 1.3.3 2 .3.78.07 1.5-.2 2.2-.4 3.48-1.1 6.8-2.5 10.2-3.7 2.6-.9 5.2-1.86 8-2 1.03.1 2.1.2 3.1.56 4.4 1.22 8.23 3.8 12.55 5.2.8.1 1.6.1 2.4 0 1.3-.3 2.7-.5 4-.9 1.3-.2 2.6-.37 3.9-.5 1.1-.2 2.2 0 3.3-.2.9-.1 1.8 0 2.7-.06.8 0 1.6-.1 2.4.1 1.07.3 2.1.8 3.16 1.1 4.3.5 8.34 2 12.5 3 1.5.4 2.95.8 4.5 1 .7.1 1.3.36 2.04.4 1.1.1 2.2.26 3.32.45 1 0 2 .2 3 .2h5.8c2.86-.4 5.8-1 8.2-2.7.8-.6 1.1-1.6 1.5-2.4.2-.3.56-.8 1-.6.9.2 1.8.1 2.67.1.93 0 1.8-.43 2.7-.7-.35-.84-1.3-1.2-1.8-1.93.5-.1 1.04 0 1.55.16 1.9.5 4.1-.1 5.4-1.6.3-.26 0-.5-.2-.7-.6-.4-1.2-.8-1.9-1.2-.5-.4-1.2-.65-1.6-1.2l.2-.26c1.3-.02 2.5.3 3.8.3.8 0 1.6-.4 2.1-.93.1-.2.1-.6-.1-.7-.8-.6-1.6-1.1-2.4-1.7-.2-.1-.54-.3-.4-.6 1.32-.04 2.7.1 4 0 1.1-.2 2.2-.55 3.1-1.2.2-.2 0-.46-.2-.5-1.2-.56-2.7-.3-3.8-1.1-.3-.2-.3-.5-.4-.8.9-.13 1.9.26 2.8.04 1.76-.1 3.55-.45 5.16-1.24.3-.14.3-.6 0-.75-.9-.5-2-.5-2.9-.8-.57-.2-1.17-.56-1.2-1.2.45-.4 1.14-.1 1.7 0 1 .4 2-.2 3-.3 1.06-.2 2.1-.5 3.1-.8-.23-.7-.8-1.1-1.25-1.6-.42-.4-.9-.9-1.3-1.4.6-.1 1.1.2 1.7.4.9.4 1.84.6 2.83.6 1.5-.03 2.9-.54 4.34-.8.1-.4.1-.9-.2-1.2-.8-.7-1.9-1.3-2.1-2.5 1.1.3 2.2.8 3.4.9.3-.06.8-.2.7-.55 0-.2 0-.4-.2-.5-.86-.8-2.06-.93-3.1-1.33.4-.56 1.12-.6 1.74-.7 1-.2 2-.3 3 0 .6.2 1.1.5 1.7.4.4-.8.4-1.72.9-2.6.15.1.4.1.5.3.6.76.9 1.74 1.7 2.37 1.2 1 2.7 1.62 4.3 1.56 1.3-.2 2.6-.6 3.76-1.32 1.2-.8 2.2-1.8 3.33-2.6z"/>
</svg>
