<svg xmlns="http://www.w3.org/2000/svg" width="22" height="32">
  <path fill="#e30613" d="M21.3 12.9a10.1 10.1 0 0 0 .3-2v-.1-.2a10.6 10.6 0 0 0-21.2 0v.2C.4 17.8 11 32 11 32s8.3-11.4 10.2-18.6l.1-.4v-.1z"/>
  <path fill="#fff" d="M9.4 10.4L5.7 10c.6-3.2 2.4-4.7 5.5-4.7 1.6 0 2.8.4 3.7 1.2a4 4 0 0 1 1.4 3c0 .6-.1 1.1-.3 1.5-.2.5-.4.9-.7 1.1L14 13.3a6 6 0 0 0-1 .7l-.2.7H9.4l.2-1.7c.2-.4.5-.8 1-1.2.6-.6 1-1 1.2-1.4.2-.3.3-.6.3-1s-.1-.8-.4-1c-.2-.2-.5-.3-.8-.3-1 0-1.5.8-1.5 2.3zm3.8 5.2v3.7h-4v-3.7z"/>
</svg>
