<?xml version="1.0" encoding="UTF-8" ?>
<svg version="1.1" xmlns="http://www.w3.org/2000/svg"
    width="160" height="170" viewBox="-50 -40 160 170" style="background-color: white;" font-family="sans-serif">
    <rect x="0" y="0" width="6" height="6" stroke="none" fill="hwb(360 0% 0%)" />
    <rect x="0" y="5" width="6" height="6" stroke="none" fill="hwb(360 0% 5%)" />
    <rect x="0" y="10" width="6" height="6" stroke="none" fill="hwb(360 0% 10%)" />
    <rect x="0" y="15" width="6" height="6" stroke="none" fill="hwb(360 0% 15%)" />
    <rect x="0" y="20" width="6" height="6" stroke="none" fill="hwb(360 0% 20%)" />
    <rect x="0" y="25" width="6" height="6" stroke="none" fill="hwb(360 0% 25%)" />
    <rect x="0" y="30" width="6" height="6" stroke="none" fill="hwb(360 0% 30%)" />
    <rect x="0" y="35" width="6" height="6" stroke="none" fill="hwb(360 0% 35%)" />
    <rect x="0" y="40" width="6" height="6" stroke="none" fill="hwb(360 0% 40%)" />
    <rect x="0" y="45" width="6" height="6" stroke="none" fill="hwb(360 0% 45%)" />
    <rect x="0" y="50" width="6" height="6" stroke="none" fill="hwb(360 0% 50%)" />
    <rect x="0" y="55" width="6" height="6" stroke="none" fill="hwb(360 0% 55%)" />
    <rect x="0" y="60" width="6" height="6" stroke="none" fill="hwb(360 0% 60%)" />
    <rect x="0" y="65" width="6" height="6" stroke="none" fill="hwb(360 0% 65%)" />
    <rect x="0" y="70" width="6" height="6" stroke="none" fill="hwb(360 0% 70%)" />
    <rect x="0" y="75" width="6" height="6" stroke="none" fill="hwb(360 0% 75%)" />
    <rect x="0" y="80" width="6" height="6" stroke="none" fill="hwb(360 0% 80%)" />
    <rect x="0" y="85" width="6" height="6" stroke="none" fill="hwb(360 0% 85%)" />
    <rect x="0" y="90" width="6" height="6" stroke="none" fill="hwb(360 0% 90%)" />
    <rect x="0" y="95" width="6" height="6" stroke="none" fill="hwb(360 0% 95%)" />
    <rect x="0" y="100" width="6" height="6" stroke="none" fill="hwb(360 0% 100%)" />
    <rect x="5" y="0" width="6" height="6" stroke="none" fill="hwb(360 5% 0%)" />
    <rect x="5" y="5" width="6" height="6" stroke="none" fill="hwb(360 5% 5%)" />
    <rect x="5" y="10" width="6" height="6" stroke="none" fill="hwb(360 5% 10%)" />
    <rect x="5" y="15" width="6" height="6" stroke="none" fill="hwb(360 5% 15%)" />
    <rect x="5" y="20" width="6" height="6" stroke="none" fill="hwb(360 5% 20%)" />
    <rect x="5" y="25" width="6" height="6" stroke="none" fill="hwb(360 5% 25%)" />
    <rect x="5" y="30" width="6" height="6" stroke="none" fill="hwb(360 5% 30%)" />
    <rect x="5" y="35" width="6" height="6" stroke="none" fill="hwb(360 5% 35%)" />
    <rect x="5" y="40" width="6" height="6" stroke="none" fill="hwb(360 5% 40%)" />
    <rect x="5" y="45" width="6" height="6" stroke="none" fill="hwb(360 5% 45%)" />
    <rect x="5" y="50" width="6" height="6" stroke="none" fill="hwb(360 5% 50%)" />
    <rect x="5" y="55" width="6" height="6" stroke="none" fill="hwb(360 5% 55%)" />
    <rect x="5" y="60" width="6" height="6" stroke="none" fill="hwb(360 5% 60%)" />
    <rect x="5" y="65" width="6" height="6" stroke="none" fill="hwb(360 5% 65%)" />
    <rect x="5" y="70" width="6" height="6" stroke="none" fill="hwb(360 5% 70%)" />
    <rect x="5" y="75" width="6" height="6" stroke="none" fill="hwb(360 5% 75%)" />
    <rect x="5" y="80" width="6" height="6" stroke="none" fill="hwb(360 5% 80%)" />
    <rect x="5" y="85" width="6" height="6" stroke="none" fill="hwb(360 5% 85%)" />
    <rect x="5" y="90" width="6" height="6" stroke="none" fill="hwb(360 5% 90%)" />
    <rect x="5" y="95" width="6" height="6" stroke="none" fill="hwb(360 5% 95%)" />
    <rect x="5" y="100" width="6" height="6" stroke="none" fill="hwb(360 5% 100%)" />
    <rect x="10" y="0" width="6" height="6" stroke="none" fill="hwb(360 10% 0%)" />
    <rect x="10" y="5" width="6" height="6" stroke="none" fill="hwb(360 10% 5%)" />
    <rect x="10" y="10" width="6" height="6" stroke="none" fill="hwb(360 10% 10%)" />
    <rect x="10" y="15" width="6" height="6" stroke="none" fill="hwb(360 10% 15%)" />
    <rect x="10" y="20" width="6" height="6" stroke="none" fill="hwb(360 10% 20%)" />
    <rect x="10" y="25" width="6" height="6" stroke="none" fill="hwb(360 10% 25%)" />
    <rect x="10" y="30" width="6" height="6" stroke="none" fill="hwb(360 10% 30%)" />
    <rect x="10" y="35" width="6" height="6" stroke="none" fill="hwb(360 10% 35%)" />
    <rect x="10" y="40" width="6" height="6" stroke="none" fill="hwb(360 10% 40%)" />
    <rect x="10" y="45" width="6" height="6" stroke="none" fill="hwb(360 10% 45%)" />
    <rect x="10" y="50" width="6" height="6" stroke="none" fill="hwb(360 10% 50%)" />
    <rect x="10" y="55" width="6" height="6" stroke="none" fill="hwb(360 10% 55%)" />
    <rect x="10" y="60" width="6" height="6" stroke="none" fill="hwb(360 10% 60%)" />
    <rect x="10" y="65" width="6" height="6" stroke="none" fill="hwb(360 10% 65%)" />
    <rect x="10" y="70" width="6" height="6" stroke="none" fill="hwb(360 10% 70%)" />
    <rect x="10" y="75" width="6" height="6" stroke="none" fill="hwb(360 10% 75%)" />
    <rect x="10" y="80" width="6" height="6" stroke="none" fill="hwb(360 10% 80%)" />
    <rect x="10" y="85" width="6" height="6" stroke="none" fill="hwb(360 10% 85%)" />
    <rect x="10" y="90" width="6" height="6" stroke="none" fill="hwb(360 10% 90%)" />
    <rect x="10" y="95" width="6" height="6" stroke="none" fill="hwb(360 10% 95%)" />
    <rect x="10" y="100" width="6" height="6" stroke="none" fill="hwb(360 10% 100%)" />
    <rect x="15" y="0" width="6" height="6" stroke="none" fill="hwb(360 15% 0%)" />
    <rect x="15" y="5" width="6" height="6" stroke="none" fill="hwb(360 15% 5%)" />
    <rect x="15" y="10" width="6" height="6" stroke="none" fill="hwb(360 15% 10%)" />
    <rect x="15" y="15" width="6" height="6" stroke="none" fill="hwb(360 15% 15%)" />
    <rect x="15" y="20" width="6" height="6" stroke="none" fill="hwb(360 15% 20%)" />
    <rect x="15" y="25" width="6" height="6" stroke="none" fill="hwb(360 15% 25%)" />
    <rect x="15" y="30" width="6" height="6" stroke="none" fill="hwb(360 15% 30%)" />
    <rect x="15" y="35" width="6" height="6" stroke="none" fill="hwb(360 15% 35%)" />
    <rect x="15" y="40" width="6" height="6" stroke="none" fill="hwb(360 15% 40%)" />
    <rect x="15" y="45" width="6" height="6" stroke="none" fill="hwb(360 15% 45%)" />
    <rect x="15" y="50" width="6" height="6" stroke="none" fill="hwb(360 15% 50%)" />
    <rect x="15" y="55" width="6" height="6" stroke="none" fill="hwb(360 15% 55%)" />
    <rect x="15" y="60" width="6" height="6" stroke="none" fill="hwb(360 15% 60%)" />
    <rect x="15" y="65" width="6" height="6" stroke="none" fill="hwb(360 15% 65%)" />
    <rect x="15" y="70" width="6" height="6" stroke="none" fill="hwb(360 15% 70%)" />
    <rect x="15" y="75" width="6" height="6" stroke="none" fill="hwb(360 15% 75%)" />
    <rect x="15" y="80" width="6" height="6" stroke="none" fill="hwb(360 15% 80%)" />
    <rect x="15" y="85" width="6" height="6" stroke="none" fill="hwb(360 15% 85%)" />
    <rect x="15" y="90" width="6" height="6" stroke="none" fill="hwb(360 15% 90%)" />
    <rect x="15" y="95" width="6" height="6" stroke="none" fill="hwb(360 15% 95%)" />
    <rect x="15" y="100" width="6" height="6" stroke="none" fill="hwb(360 15% 100%)" />
    <rect x="20" y="0" width="6" height="6" stroke="none" fill="hwb(360 20% 0%)" />
    <rect x="20" y="5" width="6" height="6" stroke="none" fill="hwb(360 20% 5%)" />
    <rect x="20" y="10" width="6" height="6" stroke="none" fill="hwb(360 20% 10%)" />
    <rect x="20" y="15" width="6" height="6" stroke="none" fill="hwb(360 20% 15%)" />
    <rect x="20" y="20" width="6" height="6" stroke="none" fill="hwb(360 20% 20%)" />
    <rect x="20" y="25" width="6" height="6" stroke="none" fill="hwb(360 20% 25%)" />
    <rect x="20" y="30" width="6" height="6" stroke="none" fill="hwb(360 20% 30%)" />
    <rect x="20" y="35" width="6" height="6" stroke="none" fill="hwb(360 20% 35%)" />
    <rect x="20" y="40" width="6" height="6" stroke="none" fill="hwb(360 20% 40%)" />
    <rect x="20" y="45" width="6" height="6" stroke="none" fill="hwb(360 20% 45%)" />
    <rect x="20" y="50" width="6" height="6" stroke="none" fill="hwb(360 20% 50%)" />
    <rect x="20" y="55" width="6" height="6" stroke="none" fill="hwb(360 20% 55%)" />
    <rect x="20" y="60" width="6" height="6" stroke="none" fill="hwb(360 20% 60%)" />
    <rect x="20" y="65" width="6" height="6" stroke="none" fill="hwb(360 20% 65%)" />
    <rect x="20" y="70" width="6" height="6" stroke="none" fill="hwb(360 20% 70%)" />
    <rect x="20" y="75" width="6" height="6" stroke="none" fill="hwb(360 20% 75%)" />
    <rect x="20" y="80" width="6" height="6" stroke="none" fill="hwb(360 20% 80%)" />
    <rect x="20" y="85" width="6" height="6" stroke="none" fill="hwb(360 20% 85%)" />
    <rect x="20" y="90" width="6" height="6" stroke="none" fill="hwb(360 20% 90%)" />
    <rect x="20" y="95" width="6" height="6" stroke="none" fill="hwb(360 20% 95%)" />
    <rect x="20" y="100" width="6" height="6" stroke="none" fill="hwb(360 20% 100%)" />
    <rect x="25" y="0" width="6" height="6" stroke="none" fill="hwb(360 25% 0%)" />
    <rect x="25" y="5" width="6" height="6" stroke="none" fill="hwb(360 25% 5%)" />
    <rect x="25" y="10" width="6" height="6" stroke="none" fill="hwb(360 25% 10%)" />
    <rect x="25" y="15" width="6" height="6" stroke="none" fill="hwb(360 25% 15%)" />
    <rect x="25" y="20" width="6" height="6" stroke="none" fill="hwb(360 25% 20%)" />
    <rect x="25" y="25" width="6" height="6" stroke="none" fill="hwb(360 25% 25%)" />
    <rect x="25" y="30" width="6" height="6" stroke="none" fill="hwb(360 25% 30%)" />
    <rect x="25" y="35" width="6" height="6" stroke="none" fill="hwb(360 25% 35%)" />
    <rect x="25" y="40" width="6" height="6" stroke="none" fill="hwb(360 25% 40%)" />
    <rect x="25" y="45" width="6" height="6" stroke="none" fill="hwb(360 25% 45%)" />
    <rect x="25" y="50" width="6" height="6" stroke="none" fill="hwb(360 25% 50%)" />
    <rect x="25" y="55" width="6" height="6" stroke="none" fill="hwb(360 25% 55%)" />
    <rect x="25" y="60" width="6" height="6" stroke="none" fill="hwb(360 25% 60%)" />
    <rect x="25" y="65" width="6" height="6" stroke="none" fill="hwb(360 25% 65%)" />
    <rect x="25" y="70" width="6" height="6" stroke="none" fill="hwb(360 25% 70%)" />
    <rect x="25" y="75" width="6" height="6" stroke="none" fill="hwb(360 25% 75%)" />
    <rect x="25" y="80" width="6" height="6" stroke="none" fill="hwb(360 25% 80%)" />
    <rect x="25" y="85" width="6" height="6" stroke="none" fill="hwb(360 25% 85%)" />
    <rect x="25" y="90" width="6" height="6" stroke="none" fill="hwb(360 25% 90%)" />
    <rect x="25" y="95" width="6" height="6" stroke="none" fill="hwb(360 25% 95%)" />
    <rect x="25" y="100" width="6" height="6" stroke="none" fill="hwb(360 25% 100%)" />
    <rect x="30" y="0" width="6" height="6" stroke="none" fill="hwb(360 30% 0%)" />
    <rect x="30" y="5" width="6" height="6" stroke="none" fill="hwb(360 30% 5%)" />
    <rect x="30" y="10" width="6" height="6" stroke="none" fill="hwb(360 30% 10%)" />
    <rect x="30" y="15" width="6" height="6" stroke="none" fill="hwb(360 30% 15%)" />
    <rect x="30" y="20" width="6" height="6" stroke="none" fill="hwb(360 30% 20%)" />
    <rect x="30" y="25" width="6" height="6" stroke="none" fill="hwb(360 30% 25%)" />
    <rect x="30" y="30" width="6" height="6" stroke="none" fill="hwb(360 30% 30%)" />
    <rect x="30" y="35" width="6" height="6" stroke="none" fill="hwb(360 30% 35%)" />
    <rect x="30" y="40" width="6" height="6" stroke="none" fill="hwb(360 30% 40%)" />
    <rect x="30" y="45" width="6" height="6" stroke="none" fill="hwb(360 30% 45%)" />
    <rect x="30" y="50" width="6" height="6" stroke="none" fill="hwb(360 30% 50%)" />
    <rect x="30" y="55" width="6" height="6" stroke="none" fill="hwb(360 30% 55%)" />
    <rect x="30" y="60" width="6" height="6" stroke="none" fill="hwb(360 30% 60%)" />
    <rect x="30" y="65" width="6" height="6" stroke="none" fill="hwb(360 30% 65%)" />
    <rect x="30" y="70" width="6" height="6" stroke="none" fill="hwb(360 30% 70%)" />
    <rect x="30" y="75" width="6" height="6" stroke="none" fill="hwb(360 30% 75%)" />
    <rect x="30" y="80" width="6" height="6" stroke="none" fill="hwb(360 30% 80%)" />
    <rect x="30" y="85" width="6" height="6" stroke="none" fill="hwb(360 30% 85%)" />
    <rect x="30" y="90" width="6" height="6" stroke="none" fill="hwb(360 30% 90%)" />
    <rect x="30" y="95" width="6" height="6" stroke="none" fill="hwb(360 30% 95%)" />
    <rect x="30" y="100" width="6" height="6" stroke="none" fill="hwb(360 30% 100%)" />
    <rect x="35" y="0" width="6" height="6" stroke="none" fill="hwb(360 35% 0%)" />
    <rect x="35" y="5" width="6" height="6" stroke="none" fill="hwb(360 35% 5%)" />
    <rect x="35" y="10" width="6" height="6" stroke="none" fill="hwb(360 35% 10%)" />
    <rect x="35" y="15" width="6" height="6" stroke="none" fill="hwb(360 35% 15%)" />
    <rect x="35" y="20" width="6" height="6" stroke="none" fill="hwb(360 35% 20%)" />
    <rect x="35" y="25" width="6" height="6" stroke="none" fill="hwb(360 35% 25%)" />
    <rect x="35" y="30" width="6" height="6" stroke="none" fill="hwb(360 35% 30%)" />
    <rect x="35" y="35" width="6" height="6" stroke="none" fill="hwb(360 35% 35%)" />
    <rect x="35" y="40" width="6" height="6" stroke="none" fill="hwb(360 35% 40%)" />
    <rect x="35" y="45" width="6" height="6" stroke="none" fill="hwb(360 35% 45%)" />
    <rect x="35" y="50" width="6" height="6" stroke="none" fill="hwb(360 35% 50%)" />
    <rect x="35" y="55" width="6" height="6" stroke="none" fill="hwb(360 35% 55%)" />
    <rect x="35" y="60" width="6" height="6" stroke="none" fill="hwb(360 35% 60%)" />
    <rect x="35" y="65" width="6" height="6" stroke="none" fill="hwb(360 35% 65%)" />
    <rect x="35" y="70" width="6" height="6" stroke="none" fill="hwb(360 35% 70%)" />
    <rect x="35" y="75" width="6" height="6" stroke="none" fill="hwb(360 35% 75%)" />
    <rect x="35" y="80" width="6" height="6" stroke="none" fill="hwb(360 35% 80%)" />
    <rect x="35" y="85" width="6" height="6" stroke="none" fill="hwb(360 35% 85%)" />
    <rect x="35" y="90" width="6" height="6" stroke="none" fill="hwb(360 35% 90%)" />
    <rect x="35" y="95" width="6" height="6" stroke="none" fill="hwb(360 35% 95%)" />
    <rect x="35" y="100" width="6" height="6" stroke="none" fill="hwb(360 35% 100%)" />
    <rect x="40" y="0" width="6" height="6" stroke="none" fill="hwb(360 40% 0%)" />
    <rect x="40" y="5" width="6" height="6" stroke="none" fill="hwb(360 40% 5%)" />
    <rect x="40" y="10" width="6" height="6" stroke="none" fill="hwb(360 40% 10%)" />
    <rect x="40" y="15" width="6" height="6" stroke="none" fill="hwb(360 40% 15%)" />
    <rect x="40" y="20" width="6" height="6" stroke="none" fill="hwb(360 40% 20%)" />
    <rect x="40" y="25" width="6" height="6" stroke="none" fill="hwb(360 40% 25%)" />
    <rect x="40" y="30" width="6" height="6" stroke="none" fill="hwb(360 40% 30%)" />
    <rect x="40" y="35" width="6" height="6" stroke="none" fill="hwb(360 40% 35%)" />
    <rect x="40" y="40" width="6" height="6" stroke="none" fill="hwb(360 40% 40%)" />
    <rect x="40" y="45" width="6" height="6" stroke="none" fill="hwb(360 40% 45%)" />
    <rect x="40" y="50" width="6" height="6" stroke="none" fill="hwb(360 40% 50%)" />
    <rect x="40" y="55" width="6" height="6" stroke="none" fill="hwb(360 40% 55%)" />
    <rect x="40" y="60" width="6" height="6" stroke="none" fill="hwb(360 40% 60%)" />
    <rect x="40" y="65" width="6" height="6" stroke="none" fill="hwb(360 40% 65%)" />
    <rect x="40" y="70" width="6" height="6" stroke="none" fill="hwb(360 40% 70%)" />
    <rect x="40" y="75" width="6" height="6" stroke="none" fill="hwb(360 40% 75%)" />
    <rect x="40" y="80" width="6" height="6" stroke="none" fill="hwb(360 40% 80%)" />
    <rect x="40" y="85" width="6" height="6" stroke="none" fill="hwb(360 40% 85%)" />
    <rect x="40" y="90" width="6" height="6" stroke="none" fill="hwb(360 40% 90%)" />
    <rect x="40" y="95" width="6" height="6" stroke="none" fill="hwb(360 40% 95%)" />
    <rect x="40" y="100" width="6" height="6" stroke="none" fill="hwb(360 40% 100%)" />
    <rect x="45" y="0" width="6" height="6" stroke="none" fill="hwb(360 45% 0%)" />
    <rect x="45" y="5" width="6" height="6" stroke="none" fill="hwb(360 45% 5%)" />
    <rect x="45" y="10" width="6" height="6" stroke="none" fill="hwb(360 45% 10%)" />
    <rect x="45" y="15" width="6" height="6" stroke="none" fill="hwb(360 45% 15%)" />
    <rect x="45" y="20" width="6" height="6" stroke="none" fill="hwb(360 45% 20%)" />
    <rect x="45" y="25" width="6" height="6" stroke="none" fill="hwb(360 45% 25%)" />
    <rect x="45" y="30" width="6" height="6" stroke="none" fill="hwb(360 45% 30%)" />
    <rect x="45" y="35" width="6" height="6" stroke="none" fill="hwb(360 45% 35%)" />
    <rect x="45" y="40" width="6" height="6" stroke="none" fill="hwb(360 45% 40%)" />
    <rect x="45" y="45" width="6" height="6" stroke="none" fill="hwb(360 45% 45%)" />
    <rect x="45" y="50" width="6" height="6" stroke="none" fill="hwb(360 45% 50%)" />
    <rect x="45" y="55" width="6" height="6" stroke="none" fill="hwb(360 45% 55%)" />
    <rect x="45" y="60" width="6" height="6" stroke="none" fill="hwb(360 45% 60%)" />
    <rect x="45" y="65" width="6" height="6" stroke="none" fill="hwb(360 45% 65%)" />
    <rect x="45" y="70" width="6" height="6" stroke="none" fill="hwb(360 45% 70%)" />
    <rect x="45" y="75" width="6" height="6" stroke="none" fill="hwb(360 45% 75%)" />
    <rect x="45" y="80" width="6" height="6" stroke="none" fill="hwb(360 45% 80%)" />
    <rect x="45" y="85" width="6" height="6" stroke="none" fill="hwb(360 45% 85%)" />
    <rect x="45" y="90" width="6" height="6" stroke="none" fill="hwb(360 45% 90%)" />
    <rect x="45" y="95" width="6" height="6" stroke="none" fill="hwb(360 45% 95%)" />
    <rect x="45" y="100" width="6" height="6" stroke="none" fill="hwb(360 45% 100%)" />
    <rect x="50" y="0" width="6" height="6" stroke="none" fill="hwb(360 50% 0%)" />
    <rect x="50" y="5" width="6" height="6" stroke="none" fill="hwb(360 50% 5%)" />
    <rect x="50" y="10" width="6" height="6" stroke="none" fill="hwb(360 50% 10%)" />
    <rect x="50" y="15" width="6" height="6" stroke="none" fill="hwb(360 50% 15%)" />
    <rect x="50" y="20" width="6" height="6" stroke="none" fill="hwb(360 50% 20%)" />
    <rect x="50" y="25" width="6" height="6" stroke="none" fill="hwb(360 50% 25%)" />
    <rect x="50" y="30" width="6" height="6" stroke="none" fill="hwb(360 50% 30%)" />
    <rect x="50" y="35" width="6" height="6" stroke="none" fill="hwb(360 50% 35%)" />
    <rect x="50" y="40" width="6" height="6" stroke="none" fill="hwb(360 50% 40%)" />
    <rect x="50" y="45" width="6" height="6" stroke="none" fill="hwb(360 50% 45%)" />
    <rect x="50" y="50" width="6" height="6" stroke="none" fill="hwb(360 50% 50%)" />
    <rect x="50" y="55" width="6" height="6" stroke="none" fill="hwb(360 50% 55%)" />
    <rect x="50" y="60" width="6" height="6" stroke="none" fill="hwb(360 50% 60%)" />
    <rect x="50" y="65" width="6" height="6" stroke="none" fill="hwb(360 50% 65%)" />
    <rect x="50" y="70" width="6" height="6" stroke="none" fill="hwb(360 50% 70%)" />
    <rect x="50" y="75" width="6" height="6" stroke="none" fill="hwb(360 50% 75%)" />
    <rect x="50" y="80" width="6" height="6" stroke="none" fill="hwb(360 50% 80%)" />
    <rect x="50" y="85" width="6" height="6" stroke="none" fill="hwb(360 50% 85%)" />
    <rect x="50" y="90" width="6" height="6" stroke="none" fill="hwb(360 50% 90%)" />
    <rect x="50" y="95" width="6" height="6" stroke="none" fill="hwb(360 50% 95%)" />
    <rect x="50" y="100" width="6" height="6" stroke="none" fill="hwb(360 50% 100%)" />
    <rect x="55" y="0" width="6" height="6" stroke="none" fill="hwb(360 55% 0%)" />
    <rect x="55" y="5" width="6" height="6" stroke="none" fill="hwb(360 55% 5%)" />
    <rect x="55" y="10" width="6" height="6" stroke="none" fill="hwb(360 55% 10%)" />
    <rect x="55" y="15" width="6" height="6" stroke="none" fill="hwb(360 55% 15%)" />
    <rect x="55" y="20" width="6" height="6" stroke="none" fill="hwb(360 55% 20%)" />
    <rect x="55" y="25" width="6" height="6" stroke="none" fill="hwb(360 55% 25%)" />
    <rect x="55" y="30" width="6" height="6" stroke="none" fill="hwb(360 55% 30%)" />
    <rect x="55" y="35" width="6" height="6" stroke="none" fill="hwb(360 55% 35%)" />
    <rect x="55" y="40" width="6" height="6" stroke="none" fill="hwb(360 55% 40%)" />
    <rect x="55" y="45" width="6" height="6" stroke="none" fill="hwb(360 55% 45%)" />
    <rect x="55" y="50" width="6" height="6" stroke="none" fill="hwb(360 55% 50%)" />
    <rect x="55" y="55" width="6" height="6" stroke="none" fill="hwb(360 55% 55%)" />
    <rect x="55" y="60" width="6" height="6" stroke="none" fill="hwb(360 55% 60%)" />
    <rect x="55" y="65" width="6" height="6" stroke="none" fill="hwb(360 55% 65%)" />
    <rect x="55" y="70" width="6" height="6" stroke="none" fill="hwb(360 55% 70%)" />
    <rect x="55" y="75" width="6" height="6" stroke="none" fill="hwb(360 55% 75%)" />
    <rect x="55" y="80" width="6" height="6" stroke="none" fill="hwb(360 55% 80%)" />
    <rect x="55" y="85" width="6" height="6" stroke="none" fill="hwb(360 55% 85%)" />
    <rect x="55" y="90" width="6" height="6" stroke="none" fill="hwb(360 55% 90%)" />
    <rect x="55" y="95" width="6" height="6" stroke="none" fill="hwb(360 55% 95%)" />
    <rect x="55" y="100" width="6" height="6" stroke="none" fill="hwb(360 55% 100%)" />
    <rect x="60" y="0" width="6" height="6" stroke="none" fill="hwb(360 60% 0%)" />
    <rect x="60" y="5" width="6" height="6" stroke="none" fill="hwb(360 60% 5%)" />
    <rect x="60" y="10" width="6" height="6" stroke="none" fill="hwb(360 60% 10%)" />
    <rect x="60" y="15" width="6" height="6" stroke="none" fill="hwb(360 60% 15%)" />
    <rect x="60" y="20" width="6" height="6" stroke="none" fill="hwb(360 60% 20%)" />
    <rect x="60" y="25" width="6" height="6" stroke="none" fill="hwb(360 60% 25%)" />
    <rect x="60" y="30" width="6" height="6" stroke="none" fill="hwb(360 60% 30%)" />
    <rect x="60" y="35" width="6" height="6" stroke="none" fill="hwb(360 60% 35%)" />
    <rect x="60" y="40" width="6" height="6" stroke="none" fill="hwb(360 60% 40%)" />
    <rect x="60" y="45" width="6" height="6" stroke="none" fill="hwb(360 60% 45%)" />
    <rect x="60" y="50" width="6" height="6" stroke="none" fill="hwb(360 60% 50%)" />
    <rect x="60" y="55" width="6" height="6" stroke="none" fill="hwb(360 60% 55%)" />
    <rect x="60" y="60" width="6" height="6" stroke="none" fill="hwb(360 60% 60%)" />
    <rect x="60" y="65" width="6" height="6" stroke="none" fill="hwb(360 60% 65%)" />
    <rect x="60" y="70" width="6" height="6" stroke="none" fill="hwb(360 60% 70%)" />
    <rect x="60" y="75" width="6" height="6" stroke="none" fill="hwb(360 60% 75%)" />
    <rect x="60" y="80" width="6" height="6" stroke="none" fill="hwb(360 60% 80%)" />
    <rect x="60" y="85" width="6" height="6" stroke="none" fill="hwb(360 60% 85%)" />
    <rect x="60" y="90" width="6" height="6" stroke="none" fill="hwb(360 60% 90%)" />
    <rect x="60" y="95" width="6" height="6" stroke="none" fill="hwb(360 60% 95%)" />
    <rect x="60" y="100" width="6" height="6" stroke="none" fill="hwb(360 60% 100%)" />
    <rect x="65" y="0" width="6" height="6" stroke="none" fill="hwb(360 65% 0%)" />
    <rect x="65" y="5" width="6" height="6" stroke="none" fill="hwb(360 65% 5%)" />
    <rect x="65" y="10" width="6" height="6" stroke="none" fill="hwb(360 65% 10%)" />
    <rect x="65" y="15" width="6" height="6" stroke="none" fill="hwb(360 65% 15%)" />
    <rect x="65" y="20" width="6" height="6" stroke="none" fill="hwb(360 65% 20%)" />
    <rect x="65" y="25" width="6" height="6" stroke="none" fill="hwb(360 65% 25%)" />
    <rect x="65" y="30" width="6" height="6" stroke="none" fill="hwb(360 65% 30%)" />
    <rect x="65" y="35" width="6" height="6" stroke="none" fill="hwb(360 65% 35%)" />
    <rect x="65" y="40" width="6" height="6" stroke="none" fill="hwb(360 65% 40%)" />
    <rect x="65" y="45" width="6" height="6" stroke="none" fill="hwb(360 65% 45%)" />
    <rect x="65" y="50" width="6" height="6" stroke="none" fill="hwb(360 65% 50%)" />
    <rect x="65" y="55" width="6" height="6" stroke="none" fill="hwb(360 65% 55%)" />
    <rect x="65" y="60" width="6" height="6" stroke="none" fill="hwb(360 65% 60%)" />
    <rect x="65" y="65" width="6" height="6" stroke="none" fill="hwb(360 65% 65%)" />
    <rect x="65" y="70" width="6" height="6" stroke="none" fill="hwb(360 65% 70%)" />
    <rect x="65" y="75" width="6" height="6" stroke="none" fill="hwb(360 65% 75%)" />
    <rect x="65" y="80" width="6" height="6" stroke="none" fill="hwb(360 65% 80%)" />
    <rect x="65" y="85" width="6" height="6" stroke="none" fill="hwb(360 65% 85%)" />
    <rect x="65" y="90" width="6" height="6" stroke="none" fill="hwb(360 65% 90%)" />
    <rect x="65" y="95" width="6" height="6" stroke="none" fill="hwb(360 65% 95%)" />
    <rect x="65" y="100" width="6" height="6" stroke="none" fill="hwb(360 65% 100%)" />
    <rect x="70" y="0" width="6" height="6" stroke="none" fill="hwb(360 70% 0%)" />
    <rect x="70" y="5" width="6" height="6" stroke="none" fill="hwb(360 70% 5%)" />
    <rect x="70" y="10" width="6" height="6" stroke="none" fill="hwb(360 70% 10%)" />
    <rect x="70" y="15" width="6" height="6" stroke="none" fill="hwb(360 70% 15%)" />
    <rect x="70" y="20" width="6" height="6" stroke="none" fill="hwb(360 70% 20%)" />
    <rect x="70" y="25" width="6" height="6" stroke="none" fill="hwb(360 70% 25%)" />
    <rect x="70" y="30" width="6" height="6" stroke="none" fill="hwb(360 70% 30%)" />
    <rect x="70" y="35" width="6" height="6" stroke="none" fill="hwb(360 70% 35%)" />
    <rect x="70" y="40" width="6" height="6" stroke="none" fill="hwb(360 70% 40%)" />
    <rect x="70" y="45" width="6" height="6" stroke="none" fill="hwb(360 70% 45%)" />
    <rect x="70" y="50" width="6" height="6" stroke="none" fill="hwb(360 70% 50%)" />
    <rect x="70" y="55" width="6" height="6" stroke="none" fill="hwb(360 70% 55%)" />
    <rect x="70" y="60" width="6" height="6" stroke="none" fill="hwb(360 70% 60%)" />
    <rect x="70" y="65" width="6" height="6" stroke="none" fill="hwb(360 70% 65%)" />
    <rect x="70" y="70" width="6" height="6" stroke="none" fill="hwb(360 70% 70%)" />
    <rect x="70" y="75" width="6" height="6" stroke="none" fill="hwb(360 70% 75%)" />
    <rect x="70" y="80" width="6" height="6" stroke="none" fill="hwb(360 70% 80%)" />
    <rect x="70" y="85" width="6" height="6" stroke="none" fill="hwb(360 70% 85%)" />
    <rect x="70" y="90" width="6" height="6" stroke="none" fill="hwb(360 70% 90%)" />
    <rect x="70" y="95" width="6" height="6" stroke="none" fill="hwb(360 70% 95%)" />
    <rect x="70" y="100" width="6" height="6" stroke="none" fill="hwb(360 70% 100%)" />
    <rect x="75" y="0" width="6" height="6" stroke="none" fill="hwb(360 75% 0%)" />
    <rect x="75" y="5" width="6" height="6" stroke="none" fill="hwb(360 75% 5%)" />
    <rect x="75" y="10" width="6" height="6" stroke="none" fill="hwb(360 75% 10%)" />
    <rect x="75" y="15" width="6" height="6" stroke="none" fill="hwb(360 75% 15%)" />
    <rect x="75" y="20" width="6" height="6" stroke="none" fill="hwb(360 75% 20%)" />
    <rect x="75" y="25" width="6" height="6" stroke="none" fill="hwb(360 75% 25%)" />
    <rect x="75" y="30" width="6" height="6" stroke="none" fill="hwb(360 75% 30%)" />
    <rect x="75" y="35" width="6" height="6" stroke="none" fill="hwb(360 75% 35%)" />
    <rect x="75" y="40" width="6" height="6" stroke="none" fill="hwb(360 75% 40%)" />
    <rect x="75" y="45" width="6" height="6" stroke="none" fill="hwb(360 75% 45%)" />
    <rect x="75" y="50" width="6" height="6" stroke="none" fill="hwb(360 75% 50%)" />
    <rect x="75" y="55" width="6" height="6" stroke="none" fill="hwb(360 75% 55%)" />
    <rect x="75" y="60" width="6" height="6" stroke="none" fill="hwb(360 75% 60%)" />
    <rect x="75" y="65" width="6" height="6" stroke="none" fill="hwb(360 75% 65%)" />
    <rect x="75" y="70" width="6" height="6" stroke="none" fill="hwb(360 75% 70%)" />
    <rect x="75" y="75" width="6" height="6" stroke="none" fill="hwb(360 75% 75%)" />
    <rect x="75" y="80" width="6" height="6" stroke="none" fill="hwb(360 75% 80%)" />
    <rect x="75" y="85" width="6" height="6" stroke="none" fill="hwb(360 75% 85%)" />
    <rect x="75" y="90" width="6" height="6" stroke="none" fill="hwb(360 75% 90%)" />
    <rect x="75" y="95" width="6" height="6" stroke="none" fill="hwb(360 75% 95%)" />
    <rect x="75" y="100" width="6" height="6" stroke="none" fill="hwb(360 75% 100%)" />
    <rect x="80" y="0" width="6" height="6" stroke="none" fill="hwb(360 80% 0%)" />
    <rect x="80" y="5" width="6" height="6" stroke="none" fill="hwb(360 80% 5%)" />
    <rect x="80" y="10" width="6" height="6" stroke="none" fill="hwb(360 80% 10%)" />
    <rect x="80" y="15" width="6" height="6" stroke="none" fill="hwb(360 80% 15%)" />
    <rect x="80" y="20" width="6" height="6" stroke="none" fill="hwb(360 80% 20%)" />
    <rect x="80" y="25" width="6" height="6" stroke="none" fill="hwb(360 80% 25%)" />
    <rect x="80" y="30" width="6" height="6" stroke="none" fill="hwb(360 80% 30%)" />
    <rect x="80" y="35" width="6" height="6" stroke="none" fill="hwb(360 80% 35%)" />
    <rect x="80" y="40" width="6" height="6" stroke="none" fill="hwb(360 80% 40%)" />
    <rect x="80" y="45" width="6" height="6" stroke="none" fill="hwb(360 80% 45%)" />
    <rect x="80" y="50" width="6" height="6" stroke="none" fill="hwb(360 80% 50%)" />
    <rect x="80" y="55" width="6" height="6" stroke="none" fill="hwb(360 80% 55%)" />
    <rect x="80" y="60" width="6" height="6" stroke="none" fill="hwb(360 80% 60%)" />
    <rect x="80" y="65" width="6" height="6" stroke="none" fill="hwb(360 80% 65%)" />
    <rect x="80" y="70" width="6" height="6" stroke="none" fill="hwb(360 80% 70%)" />
    <rect x="80" y="75" width="6" height="6" stroke="none" fill="hwb(360 80% 75%)" />
    <rect x="80" y="80" width="6" height="6" stroke="none" fill="hwb(360 80% 80%)" />
    <rect x="80" y="85" width="6" height="6" stroke="none" fill="hwb(360 80% 85%)" />
    <rect x="80" y="90" width="6" height="6" stroke="none" fill="hwb(360 80% 90%)" />
    <rect x="80" y="95" width="6" height="6" stroke="none" fill="hwb(360 80% 95%)" />
    <rect x="80" y="100" width="6" height="6" stroke="none" fill="hwb(360 80% 100%)" />
    <rect x="85" y="0" width="6" height="6" stroke="none" fill="hwb(360 85% 0%)" />
    <rect x="85" y="5" width="6" height="6" stroke="none" fill="hwb(360 85% 5%)" />
    <rect x="85" y="10" width="6" height="6" stroke="none" fill="hwb(360 85% 10%)" />
    <rect x="85" y="15" width="6" height="6" stroke="none" fill="hwb(360 85% 15%)" />
    <rect x="85" y="20" width="6" height="6" stroke="none" fill="hwb(360 85% 20%)" />
    <rect x="85" y="25" width="6" height="6" stroke="none" fill="hwb(360 85% 25%)" />
    <rect x="85" y="30" width="6" height="6" stroke="none" fill="hwb(360 85% 30%)" />
    <rect x="85" y="35" width="6" height="6" stroke="none" fill="hwb(360 85% 35%)" />
    <rect x="85" y="40" width="6" height="6" stroke="none" fill="hwb(360 85% 40%)" />
    <rect x="85" y="45" width="6" height="6" stroke="none" fill="hwb(360 85% 45%)" />
    <rect x="85" y="50" width="6" height="6" stroke="none" fill="hwb(360 85% 50%)" />
    <rect x="85" y="55" width="6" height="6" stroke="none" fill="hwb(360 85% 55%)" />
    <rect x="85" y="60" width="6" height="6" stroke="none" fill="hwb(360 85% 60%)" />
    <rect x="85" y="65" width="6" height="6" stroke="none" fill="hwb(360 85% 65%)" />
    <rect x="85" y="70" width="6" height="6" stroke="none" fill="hwb(360 85% 70%)" />
    <rect x="85" y="75" width="6" height="6" stroke="none" fill="hwb(360 85% 75%)" />
    <rect x="85" y="80" width="6" height="6" stroke="none" fill="hwb(360 85% 80%)" />
    <rect x="85" y="85" width="6" height="6" stroke="none" fill="hwb(360 85% 85%)" />
    <rect x="85" y="90" width="6" height="6" stroke="none" fill="hwb(360 85% 90%)" />
    <rect x="85" y="95" width="6" height="6" stroke="none" fill="hwb(360 85% 95%)" />
    <rect x="85" y="100" width="6" height="6" stroke="none" fill="hwb(360 85% 100%)" />
    <rect x="90" y="0" width="6" height="6" stroke="none" fill="hwb(360 90% 0%)" />
    <rect x="90" y="5" width="6" height="6" stroke="none" fill="hwb(360 90% 5%)" />
    <rect x="90" y="10" width="6" height="6" stroke="none" fill="hwb(360 90% 10%)" />
    <rect x="90" y="15" width="6" height="6" stroke="none" fill="hwb(360 90% 15%)" />
    <rect x="90" y="20" width="6" height="6" stroke="none" fill="hwb(360 90% 20%)" />
    <rect x="90" y="25" width="6" height="6" stroke="none" fill="hwb(360 90% 25%)" />
    <rect x="90" y="30" width="6" height="6" stroke="none" fill="hwb(360 90% 30%)" />
    <rect x="90" y="35" width="6" height="6" stroke="none" fill="hwb(360 90% 35%)" />
    <rect x="90" y="40" width="6" height="6" stroke="none" fill="hwb(360 90% 40%)" />
    <rect x="90" y="45" width="6" height="6" stroke="none" fill="hwb(360 90% 45%)" />
    <rect x="90" y="50" width="6" height="6" stroke="none" fill="hwb(360 90% 50%)" />
    <rect x="90" y="55" width="6" height="6" stroke="none" fill="hwb(360 90% 55%)" />
    <rect x="90" y="60" width="6" height="6" stroke="none" fill="hwb(360 90% 60%)" />
    <rect x="90" y="65" width="6" height="6" stroke="none" fill="hwb(360 90% 65%)" />
    <rect x="90" y="70" width="6" height="6" stroke="none" fill="hwb(360 90% 70%)" />
    <rect x="90" y="75" width="6" height="6" stroke="none" fill="hwb(360 90% 75%)" />
    <rect x="90" y="80" width="6" height="6" stroke="none" fill="hwb(360 90% 80%)" />
    <rect x="90" y="85" width="6" height="6" stroke="none" fill="hwb(360 90% 85%)" />
    <rect x="90" y="90" width="6" height="6" stroke="none" fill="hwb(360 90% 90%)" />
    <rect x="90" y="95" width="6" height="6" stroke="none" fill="hwb(360 90% 95%)" />
    <rect x="90" y="100" width="6" height="6" stroke="none" fill="hwb(360 90% 100%)" />
    <rect x="95" y="0" width="6" height="6" stroke="none" fill="hwb(360 95% 0%)" />
    <rect x="95" y="5" width="6" height="6" stroke="none" fill="hwb(360 95% 5%)" />
    <rect x="95" y="10" width="6" height="6" stroke="none" fill="hwb(360 95% 10%)" />
    <rect x="95" y="15" width="6" height="6" stroke="none" fill="hwb(360 95% 15%)" />
    <rect x="95" y="20" width="6" height="6" stroke="none" fill="hwb(360 95% 20%)" />
    <rect x="95" y="25" width="6" height="6" stroke="none" fill="hwb(360 95% 25%)" />
    <rect x="95" y="30" width="6" height="6" stroke="none" fill="hwb(360 95% 30%)" />
    <rect x="95" y="35" width="6" height="6" stroke="none" fill="hwb(360 95% 35%)" />
    <rect x="95" y="40" width="6" height="6" stroke="none" fill="hwb(360 95% 40%)" />
    <rect x="95" y="45" width="6" height="6" stroke="none" fill="hwb(360 95% 45%)" />
    <rect x="95" y="50" width="6" height="6" stroke="none" fill="hwb(360 95% 50%)" />
    <rect x="95" y="55" width="6" height="6" stroke="none" fill="hwb(360 95% 55%)" />
    <rect x="95" y="60" width="6" height="6" stroke="none" fill="hwb(360 95% 60%)" />
    <rect x="95" y="65" width="6" height="6" stroke="none" fill="hwb(360 95% 65%)" />
    <rect x="95" y="70" width="6" height="6" stroke="none" fill="hwb(360 95% 70%)" />
    <rect x="95" y="75" width="6" height="6" stroke="none" fill="hwb(360 95% 75%)" />
    <rect x="95" y="80" width="6" height="6" stroke="none" fill="hwb(360 95% 80%)" />
    <rect x="95" y="85" width="6" height="6" stroke="none" fill="hwb(360 95% 85%)" />
    <rect x="95" y="90" width="6" height="6" stroke="none" fill="hwb(360 95% 90%)" />
    <rect x="95" y="95" width="6" height="6" stroke="none" fill="hwb(360 95% 95%)" />
    <rect x="95" y="100" width="6" height="6" stroke="none" fill="hwb(360 95% 100%)" />
    <rect x="100" y="0" width="6" height="6" stroke="none" fill="hwb(360 100% 0%)" />
    <rect x="100" y="5" width="6" height="6" stroke="none" fill="hwb(360 100% 5%)" />
    <rect x="100" y="10" width="6" height="6" stroke="none" fill="hwb(360 100% 10%)" />
    <rect x="100" y="15" width="6" height="6" stroke="none" fill="hwb(360 100% 15%)" />
    <rect x="100" y="20" width="6" height="6" stroke="none" fill="hwb(360 100% 20%)" />
    <rect x="100" y="25" width="6" height="6" stroke="none" fill="hwb(360 100% 25%)" />
    <rect x="100" y="30" width="6" height="6" stroke="none" fill="hwb(360 100% 30%)" />
    <rect x="100" y="35" width="6" height="6" stroke="none" fill="hwb(360 100% 35%)" />
    <rect x="100" y="40" width="6" height="6" stroke="none" fill="hwb(360 100% 40%)" />
    <rect x="100" y="45" width="6" height="6" stroke="none" fill="hwb(360 100% 45%)" />
    <rect x="100" y="50" width="6" height="6" stroke="none" fill="hwb(360 100% 50%)" />
    <rect x="100" y="55" width="6" height="6" stroke="none" fill="hwb(360 100% 55%)" />
    <rect x="100" y="60" width="6" height="6" stroke="none" fill="hwb(360 100% 60%)" />
    <rect x="100" y="65" width="6" height="6" stroke="none" fill="hwb(360 100% 65%)" />
    <rect x="100" y="70" width="6" height="6" stroke="none" fill="hwb(360 100% 70%)" />
    <rect x="100" y="75" width="6" height="6" stroke="none" fill="hwb(360 100% 75%)" />
    <rect x="100" y="80" width="6" height="6" stroke="none" fill="hwb(360 100% 80%)" />
    <rect x="100" y="85" width="6" height="6" stroke="none" fill="hwb(360 100% 85%)" />
    <rect x="100" y="90" width="6" height="6" stroke="none" fill="hwb(360 100% 90%)" />
    <rect x="100" y="95" width="6" height="6" stroke="none" fill="hwb(360 100% 95%)" />
    <rect x="100" y="100" width="6" height="6" stroke="none" fill="hwb(360 100% 100%)" />
    <rect x="0" y="0" width="105" height="105" stroke="black" fill="none" />
    <text x="50" y="125" font-size="18" text-anchor="middle">H = 360</text>
    <line x1="0" y1="-10" x2="95" y2="-10" stroke-width="2" stroke="black" />
    <polygon points="103,-10 93,-5 93,-15" fill="black" stroke-width="1" stroke="black" />
    <text x="45" y="-20" font-size="18" text-anchor="middle">W</text>
    <text x="0" y="-20" font-size="18" text-anchor="start">0</text>
    <text x="105" y="-20" font-size="18" text-anchor="end">100</text>
    <line x1="-10" y1="0" x2="-10" y2="95" stroke-width="2" stroke="black" />
    <polygon points="-10,103 -15,93 -5,93" fill="black" stroke-width="1" stroke="black" />
    <text x="-30" y="50" font-size="18" text-anchor="middle">B</text>
    <text x="-30" y="10" font-size="18" text-anchor="middle">0</text>
    <text x="-32" y="105" font-size="18" text-anchor="middle">100</text>
</svg>
