<?xml version="1.0" encoding="UTF-8" standalone="no"?>
<svg
   xmlns:dc="http://purl.org/dc/elements/1.1/"
   xmlns:cc="http://creativecommons.org/ns#"
   xmlns:rdf="http://www.w3.org/1999/02/22-rdf-syntax-ns#"
   xmlns:svg="http://www.w3.org/2000/svg"
   xmlns="http://www.w3.org/2000/svg"
   xmlns:sodipodi="http://sodipodi.sourceforge.net/DTD/sodipodi-0.dtd"
   xmlns:inkscape="http://www.inkscape.org/namespaces/inkscape"
   id="Layer_1"
   data-name="Layer 1"
   viewBox="0 0 100 100"
   version="1.1"
   inkscape:version="0.91 r13725"
   sodipodi:docname="home.svg"
   width="100"
   height="100">
  <metadata
     id="metadata17">
    <rdf:RDF>
      <cc:Work
         rdf:about="">
        <dc:format>image/svg+xml</dc:format>
        <dc:type
           rdf:resource="http://purl.org/dc/dcmitype/StillImage" />
        <dc:title>Icon_home_remixofdynamitt</dc:title>
      </cc:Work>
    </rdf:RDF>
  </metadata>
  <sodipodi:namedview
     pagecolor="#ffffff"
     bordercolor="#666666"
     borderopacity="1"
     objecttolerance="10"
     gridtolerance="10"
     guidetolerance="10"
     inkscape:pageopacity="0"
     inkscape:pageshadow="2"
     inkscape:window-width="1440"
     inkscape:window-height="838"
     id="namedview15"
     showgrid="false"
     fit-margin-top="0"
     fit-margin-left="0"
     fit-margin-right="0"
     fit-margin-bottom="0"
     inkscape:zoom="2.2662772"
     inkscape:cx="50"
     inkscape:cy="49.999999"
     inkscape:window-x="-8"
     inkscape:window-y="-8"
     inkscape:window-maximized="1"
     inkscape:current-layer="Layer_1" />
  <defs
     id="defs3">
    <style
       id="style5">.cls-1{fill:#fff;stroke:#666766;stroke-miterlimit:10;stroke-width:3px;}.cls-2{fill:#6c6d6d;}</style>
  </defs>
  <title
     id="title7">Icon_home_remixofdynamitt</title>
  <path
     style="fill:#ffffff"
     inkscape:connector-curvature="0"
     d="m 82.302856,50.726202 -32.292626,-28.59773 -32.31564,28.61052 0,40.8791 a 1.9024241,1.9024241 0 0 0 1.907538,1.90498 l 20.200471,0 0,-17.92472 a 1.9024241,1.9024241 0 0 1 1.904981,-1.90754 l 16.589957,0 a 1.9024241,1.9024241 0 0 1 1.904981,1.90754 l 0,17.92472 20.200471,0 a 1.8973101,1.8973101 0 0 0 1.904982,-1.90498 l 0,-40.89189 z"
     class="cls-2"
     id="rect2391" />
  <path
     style="fill:#ffffff"
     inkscape:connector-curvature="0"
     d="M 49.823567,6.4795017 3.9991819,47.054322 l 4.8276569,5.4439 41.1833912,-36.46824 41.168049,36.46824 4.817428,-5.4439 -45.806486,-40.5748203 -0.178991,0.20712 -0.186663,-0.20712 0,0 z"
     class="cls-2"
     id="path2399" />
  <path
     style="fill:#ffffff"
     inkscape:connector-curvature="0"
     d="m 17.69459,12.319742 11.616549,0 -0.10228,6.88094 -11.514269,10.40197 0,-17.28291 0,0 z"
     class="cls-2"
     id="rect2404" />
</svg>
