<?xml version="1.0" encoding="utf-8"?>
<!DOCTYPE svg PUBLIC "-//W3C//DTD SVG 1.1//EN" "http://www.w3.org/Graphics/SVG/1.1/DTD/svg11.dtd">
<svg version="1.1" id="Layer_1" xmlns="http://www.w3.org/2000/svg" xmlns:xlink="http://www.w3.org/1999/xlink" x="0px" y="0px"
	 viewBox="-699.1943 -349.5926 2676.1943 1348.4572" enable-background="new -699.1943 -349.5926 2676.1943 1348.4572"
	 xml:space="preserve">
<path d="M1569.1411-303.0459c8.4454-5.932,15.1217-15.182,25.7791-17.2733c1.4279,9.9135-1.0054,19.7466-4.2831,29.0569
	c4.7657,3.881,10.3358,0.7842,15.0011-1.5081c6.3743-3.1772,13.0505-5.9119,20.1489-7.0782
	c-0.3419,15.8858-10.8989,29.2178-12.4675,44.8422c-1.0859,8.1038,4.6855,15.0815,10.8185,19.5858
	c7.7618,6.1532,17.8162,8.6065,25.4777,14.8603c7.1787,9.7728,9.5718,22.0993,15.946,32.3547
	c3.3582,6.3543,8.8276,11.7233,10.4565,18.8619c-4.8462,5.2081-12.588,5.369-18.9827,7.3799
	c-0.7239,10.3559,9.0087,16.2679,14.1969,23.9896c38.4476,50.7139,79.2679,99.6783,115.0814,152.3427
	c5.3087,6.6157,3.901,15.5641,1.2668,22.9841c-5.4695,15.0211-10.175,30.3238-14.6593,45.6666
	c-2.1917,7.5407-8.7672,13.4124-16.0063,15.926c-7.7216-2.2321-14.1364-8.0434-22.3607-8.888
	c-4.6854,8.9685-8.8881,18.1581-13.1511,27.3276c-2.0712,6.0125-10.0543,3.6598-14.4982,1.8902
	c-13.2516-5.9723-26.9054-11.8842-38.4275-20.8325c-5.1681-8.4255-7.2192-18.6005-13.6136-26.3825
	c-14.5989-18.6206-35.8535-30.3238-56.646-40.7199c-32.4352-15.2423-65.373-29.4993-96.8428-46.6117
	c-6.2137-3.1973-10.1952,3.6798-13.0105,8.0233c-20.5308,34.4259-45.6866,66.841-57.8723,105.53
	c-4.1827,19.1233-12.4272,37.0601-16.7506,56.1633c-5.2283,14.9608-7.7015,30.6455-12.3467,45.7873
	c-1.7294,10.9592-13.0103,15.6445-20.1488,22.7026c-9.1494,7.3396-12.8092,19.0027-15.6445,29.9216
	c-2.9962,10.4565-0.9652,21.4558-2.6141,32.0933c-1.7897,10.6978-1.2064,21.5765-1.307,32.3748
	c0.1406,12.7488-0.5833,25.5782,1.4276,38.2265c2.0713,28.333-1.4478,56.6258-5.1477,84.6773
	c0.3619,18.0977-8.9282,34.6873-8.5261,52.765c11.7435,3.2577,23.145,8.9886,35.5923,8.7071
	c32.8777,0.4424,65.7551,0.1206,98.6327-0.1609c28.4739-2.0712,57.9529-4.2027,85.6022,4.6049
	c8.7676,2.3728,17.9973,2.8152,26.6439,5.7913c13.3722,4.625,28.2527,5.1076,40.5591,12.6483
	c14.7999,28.5341,6.2538,61.5725,9.0288,92.1979c2.5135,6.0527,6.8973,11.1201,10.3157,16.6901
	c41.7253,67.2833,86.4469,132.6967,133.5211,196.3202c14.0358,18.7011,28.9163,36.7183,43.9373,54.6151
	c9.4512,10.7179,18.8015,21.5966,29.62,31.0074c8.3048,7.1184,16.7506,14.7195,27.3878,18.138
	c9.049,3.0766,18.7616,6.0728,25.4375,13.3923c4.464,4.5446,3.0162,11.5022,2.775,17.2532
	c-0.6233,4.9668-6.4347,5.5901-10.3962,5.3087c-24.1503-0.3619-48.3409,0.6435-72.4512-0.4224
	c-17.5348-3.72-37.3418-11.1-45.3047-28.5542c-5.892-14.6994-8.4257-31.4096-19.5657-43.3943
	c-10.5771-12.8896-25.5981-20.9331-41.1622-26.1815c-4.5848-2.3125-12.2665-2.8755-12.3668-9.4309
	c-1.2467-13.8951-9.2499-25.6183-15.5439-37.6634c-12.608-21.2147-26.9858-41.3433-42.188-60.7481
	c-10.7983-12.1255-18.8818-26.825-32.4752-36.2156c-2.936-2.6945-7.2594-3.5592-10.9392-1.9907
	c-3.9009,7.782-6.696,16.0869-10.6376,23.8689c-2.2722,4.1424-3.3579,9.0892-1.89,13.7141
	c1.8501,3.4586,4.4841,6.4549,6.9172,9.5516c-1.7495,11.3614-7.6411,21.3553-12.427,31.6308
	c-12.4675,25.558-27.7097,50.4927-49.5275,69.1736c-15.363,12.1254-34.3054,18.6407-53.0667,23.3661
	c-18.1984,2.4332-36.3965,7.1587-54.8765,5.0874c-3.5189-0.9853-2.3324-4.7053-1.5481-7.1988
	c3.7802-9.813,9.0287-18.9424,14.1563-28.0917c9.7325-16.6499,19.9076-33.2194,32.8174-47.6574
	c3.6798-3.8206,8.0032-8.3651,13.8549-7.6614c10.5769-0.8848,18.8616,7.6011,29.1774,8.325
	c5.6909,0.2615,13.5533,1.7696,15.906-5.188c-1.126-10.8183-12.7689-19.0428-9.9336-30.7661
	c5.5299-17.2331,16.6899-32.0933,23.3864-48.8639c2.7549-15.2222-2.9962-31.7917,4.5446-46.0688
	c1.7894-3.7201,2.413-7.8423,2.8351-11.9042c-9.109-7.3598-16.9514-16.831-27.9108-21.4761
	c-9.853-1.7896-19.6461,2.1315-29.5594,1.4278c-15.6245,1.106-31.2086,2.6342-46.813,3.9011
	c-21.516-0.181-42.6503,4.7657-64.0458,6.113c-14.2369-0.5027-28.2526,2.6342-42.4895,1.9908
	c-24.8944,0.5228-49.8894-0.4424-74.422-4.806c-17.8162-3.5592-35.9943-3.6799-54.072-3.2978
	c-9.3503,0.1608-17.9569,5.8918-27.4481,4.0417c-24.0701-4.7455-47.0743-13.5129-70.7219-19.8069
	c-20.9934-6.8972-43.0325-9.5516-64.9106-11.7836c-4.062-0.4222-8.0636,0.5027-12.045,0.9451
	c-11.3413,1.2869-22.8234-0.3619-34.1243,1.488c-11.9846,2.031-24.1705,0.4424-36.2155,1.5082
	c-22.6826,3.2576-45.6868,0.3821-68.4497,2.2924c-16.6299,2.7347-33.6215-0.2816-50.2111,2.6945
	c-10.0142,1.2668-20.1489-0.0201-30.1428,1.2065c-14.6392,2.4935-29.5195,0.925-44.2792,1.669
	c-23.4266,2.8152-47.0944,1.4277-70.6415,1.8098c-19.2842,0.8044-37.8243-5.0272-56.5454-8.6467
	c-41.3835-10.7179-81.3192-26.5434-119.7668-45.1237c-38.2265-18.4798-76.1311-37.8041-115.9261-52.765
	c-29.9618-11.1804-61.2307-22.0994-93.686-20.37c-26.6238,0.7038-52.8051,9.9135-74.6632,25.0352
	c-24.6934,18.6005-47.5568,39.4732-70.4404,60.2051c-7.9429,8.325-16.3885,16.3684-26.7042,21.7173
	c-28.8357,17.2531-62.6383,23.0243-95.6365,25.7189c-7.5809-0.4625-14.6591-3.5994-22.0591-4.9869
	c-12.7086-2.1516-25.5178,0.1608-38.2063,1.0657c-11.4619-0.2413-22.6825,2.2522-33.9835,3.6598
	c-18.4597,1.0457-36.3966,6.2739-53.7905,12.226c-31.7716,11.2005-57.5307,35.0895-76.0507,62.7188
	c-10.8385,14.6793-18.0777,31.5101-26.9656,47.3557c-13.9554,26.3019-27.77,52.6846-41.8259,78.9263
	c-4.2429,7.5809-10.4967,13.895-14.0157,21.9183c-2.8353,6.2739-5.6304,12.8092-10.8788,17.4945
	c-13.7342,13.0706-27.0461,26.5836-40.5591,39.8754c-13.4124,12.7288-28.1922,25.4173-46.5112,30.1025
	c-9.7326,2.6143-19.4249,6.2338-29.6602,5.731c-11.2608-0.2413-22.6825,0.9249-33.8428-0.925
	c-12.3467-3.6195-25.6184-7.3597-34.9688-16.7102c-1.8701-5.6103,4.2228-9.2902,7.219-13.1912
	c20.5108-19.7064,38.7292-42.0873,62.1758-58.496c5.007-3.4586,11.1804-7.1587,17.4342-4.7858
	c8.1239,5.4293,12.2863,15.6847,21.6972,19.3243c7.1989,1.5082,15.8456-1.5685,19.5858-8.0033
	c1.5283-15.6243-0.6636-31.4096,0.8244-47.0339c2.413-8.7874,10.738-13.7543,16.9113-19.7668
	c12.7086-10.5771,19.9276-25.7994,30.3439-38.327c12.1858-16.4287,22.3809-34.2048,33.1189-51.5585
	c9.9538-17.7961,19.6863-35.8938,25.9602-55.359c2.4532-8.2445,2.7549-17.1325,1.5282-25.6183
	c-3.5391-11.5222-17.6956-7.9831-26.7645-7.2994c-29.8211,12.4271-54.4139,34.1846-77.961,55.7612
	c-29.1374,27.8705-57.4905,56.5454-84.5768,86.3866c-22.0792,23.4869-43.3541,47.7579-66.479,70.2593
	c-15.9461,15.6043-31.6509,31.7113-50.0101,44.5205c-13.332,10.5972-26.9656,21.5363-43.1531,27.408
	c-10.738,2.6946-21.7776-0.3821-32.5357-1.4277c-16.0869-2.8956-32.3547-4.5646-48.6226-5.8516
	c-3.1369-0.0201-5.8113-2.031-7.601-4.4441c-1.3674-11.0999-1.8299-23.909,6.2136-32.777
	c10.557-11.4619,21.6569-22.5819,33.8629-32.3345c13.1711-9.4109,27.8504-17.2935,43.8167-20.5913
	c10.4766-1.5885,15.2423,10.4163,22.8434,15.3831c3.5391,3.9212,9.1092,3.0364,13.0706,0.3017
	c11.5021-5.9119,16.2679-18.7412,20.2092-30.2233c4.1424-11.9647,3.338-24.9547,7.3195-36.9194
	c1.2668-4.3436,4.806-7.3598,8.3652-9.8533c15.7451-10.7581,30.1227-23.3461,44.0781-36.2557
	c21.6972-19.7668,43.8569-39.3727,61.7535-62.759c41.5846-45.7873,77.6393-96.8832,105.1077-152.3629
	c2.3326-4.1625,6.0527-8.1842,10.9592-8.9282c26.5836-2.1516,52.8052,4.7456,79.3887,3.7804
	c24.0499,0.4223,48.2405-0.4424,71.848-5.3892c17.4945-2.5136,35.6928-7.3597,49.3264-19.1635
	c12.7488-13.0103,16.9315-31.8721,19.1032-49.3867c2.8756-15.745,4.2831-31.6911,5.4293-47.6172
	c-0.6636-14.3173,2.775-28.2727,5.2684-42.2682c2.8554-22.7428,8.2244-45.1438,15.1216-66.9617
	c5.8919-21.114,21.1543-37.583,33.6216-55.0171c16.2679-19.8673,32.6564-39.6743,49.8492-58.7573
	c2.8555-3.6598,6.9978-7.2793,6.9375-12.2863c-6.1935-12.0451-20.2092-16.6097-31.9526-21.476
	c-17.3939-5.4092-35.2504-11.6228-53.7704-9.4913c-30.6857,4.0217-59.5818,17.0521-85.2605,34.0036
	c-18.9222,12.2461-38.9705,23.1048-60.6878,29.5194c-9.5315,2.2924-19.1434,4.3434-28.8156,6.0929
	c-12.95,1.4881-26.0205,0.362-38.8297-1.9103c-8.9885-1.85-18.3189-1.1462-27.2471-3.3783
	c-0.4424-9.6119,7.8424-16.7304,7.2592-26.3624c-12.5679-4.7657-25.1157,2.3728-37.7841,1.8098
	c-10.3157-1.8299-20.4706-4.7255-30.2836-8.4456c-26.0406-9.4913-51.4981-20.5309-76.6339-32.214
	c-3.9011-1.669-8.2445-4.5244-6.7163-9.451c5.007-6.5755,13.332-9.6923,21.1542-11.5222c8.9886-0.8647,17.4744,3.5793,26.4428,3.7
	c9.7728,0.7038,19.2439-2.2522,28.5542-4.7456c44.1786-14.1363,87.0702-31.8118,130.4847-48.0595
	c33.2194-11.2608,66.7404-23.9091,102.1114-25.6184c13.332,1.5685,26.9254,2.6744,39.6944,7.1788
	c56.0628,16.0064,105.5299,48.522,160.8487,66.479c10.1348,1.3473,20.5711,1.1261,30.7058-0.2011
	c16.9113-4.3233,34.2249-6.7967,51.0558-11.482c16.3483-2.9157,32.958-4.4641,49.4068-6.857
	c13.9956-2.1516,28.2324-0.1609,42.2884-1.8299c11.301-1.7092,22.7629-0.8848,34.1645-1.106
	c9.9135,0.1609,20.0483-0.9451,29.7607,1.6891c13.8147,3.519,26.7645,9.8934,40.559,13.4929
	c54.816,6.1734,106.9576,25.3167,160.1852,38.8096c18.9222,4.9869,37.7639,10.7179,57.2693,13.0505
	c8.8277,1.5685,17.3537,4.7858,26.3623,5.3489c14.4984,1.1462,28.876,3.2174,43.1732,5.7109
	c12.9902-0.1206,25.7793,2.6141,38.7693,2.1918c24.5526-0.1206,49.1053,0.3418,73.6578-0.2815
	c36.7384-5.0875,74.3214-13.5532,105.3691-34.8884c10.2554-7.4402,13.7945-20.1287,19.5455-30.7863
	c2.5538-4.3435,6.7163-10.0744,12.5277-7.9429c11.0999,2.5538,22.5217,1.7494,33.8026,1.6891
	c12.1657,0.0201,23.2254-5.7309,34.6873-9.0086c-4.4239-11.0195-16.5896-15.4635-23.1852-24.8743
	c6.7365-1.1864,13.5532-0.4022,20.0483,1.6288c24.4119,6.6559,52.2824-1.0658,69.1334-20.0885
	c3.0967-2.7348-0.6033-6.1532-2.6744-8.0434c-7.8021-5.731-16.2679-10.4565-24.1707-16.0266
	c-6.8569-4.9869-15.3629-8.0837-20.571-15.0412c0.4424-0.8044,1.3071-2.413,1.7293-3.2174
	c16.1271-0.4022,31.9929,4.0619,48.1199,4.1223c10.3157,0.2212,19.8472-5.4293,26.9657-12.4874
	c0.6434-3.1772,1.0455-7.4-2.2522-9.25c-9.7728-7.8423-20.0685-15.0211-30.4847-21.9586c-2.7949-2.0712-7.2189-4.4641-5.5901-8.6266
	c17.1727-0.9652,34.446,0.7038,51.6188-0.6435c13.9755-2.1717,28.333-6.5755,39.5737-15.4434
	c3.6396-2.1114,0.3619-5.369-2.2522-6.2739c-15.5439-6.8369-34.4662-3.3581-48.5221-13.8347
	c-3.4586-2.0913-4.0819-6.2538-5.2483-9.7326c12.2261-1.7897,24.3514,3.2174,36.5172,0.4424
	c22.7831-1.3674,45.6868-5.7712,66.2981-15.8858c3.901-2.1516,4.0217-7.9228-0.0604-9.9336
	c-11.4015-6.0527-24.6129-6.3342-36.839-9.5918c-6.5553-2.3929-14.277-6.9978-14.6188-14.7597
	c5.932-6.1331,14.7797-1.4478,21.7976-0.2413c13.1713,4.4038,26.0004-2.4332,38.87-4.444
	c13.4325-2.0109,26.6438-5.4494,39.453-9.9538c-2.8553-8.3451-9.9537-13.9152-15.9259-19.9478
	c-5.9724-5.7711-11.5826-11.9043-16.4087-18.6407c7.6212-0.8446,14.2368,3.3782,21.0336,6.113
	c11.3815,5.2282,23.9293,8.2244,36.4972,8.0836c19.1232-0.744,37.3215-7.2391,56.1029-10.2554
	c2.1718-5.3489,1.9907-11.5826-2.6945-15.5641c-10.0543-9.069-23.9896-16.5293-25.9805-31.3694
	c14.4783,3.6195,28.5342,9.6722,43.5553,10.6777c3.5995-0.7842,10.1951-2.1717,9.25-7.0983
	c0.0603-2.4331-0.4222-4.9668-2.5537-6.4146c-11.0598-10.1348-26.463-12.2864-40.0162-17.414
	c5.3087-6.9174,14.3977-7.581,22.3206-9.0891c12.3265-2.2723,25.3971-3.519,37.4824,0.6435
	c7.1788,2.0109,14.1364,5.7913,21.7977,5.3489c4.9869-10.5369,5.1478-22.7629,10.557-33.2596
	c2.2321,0.8445,5.0272,1.0255,6.6157,3.1168c7.943,9.4913,12.0249,21.9988,21.7777,30.0423
	c15.3831,12.8494,35.4313,20.9733,55.6405,20.0885c16.9111-2.413,33.7823-7.4402,48.1198-17.0119
	C1541.0293-279.9612,1554.5624-292.2073,1569.1411-303.0459z"
	fill="hsl(244, 20%, 20%)"/>
</svg>
