<svg xmlns="http://www.w3.org/2000/svg" viewBox="0 0 401 341" version="1">
  <g>
    <path fill="maroon" d="M110.95 0c-40.2-.1-82.2 12.37-98.1 44.12C-.2 70.2-4.05 106.2 4.8 141.18c8.86 35 31.28 69.12 71.1 88.1 63.85 30.4 106.64 86.27 115.2 98.2l9.68 13.52 7.95-14.6c19.42-35.64 73.26-71.45 117.23-97.57 39.28-19.05 61.46-52.92 70.26-87.65 8.86-35 5-70.98-8.06-97.06-8.36-16.7-24.5-27.87-43.1-34.86-18.6-7-40.07-9.93-61.14-9.13-21.08.8-41.78 5.27-58.83 14.2-9.7 5.04-18.3 11.8-24.6 20.1-6.9-9-16.4-16.15-27.1-21.36-18.2-8.9-40.3-13-62.5-13.07zm-.04 20.9c19.6.06 39 3.9 53.4 10.96 12.1 5.88 20.4 13.46 24.2 22.83 5 17.9-1.5 47.6-19.3 52.7-14 4-30.2-3.5-33.9-17.8-2.6-10.3 3.1-22.1 13.4-24.2 3.2-.66 7 .02 9.8 1.7 2.78 1.64 4.77 4.4 5.07 7.5.3 3.24.3 3.7-1.27 7.7-.74 1.73-3.2 2.83-3.63 3-3.75 1.3-9.06-4.8-5.1-12.47-2.5 1.1-5.3 3.85-5.83 7.06-.53 3.2.58 5.6 1.64 7.23 2.1 3.3 4.1 5.33 8.8 6.1 6.3 1.02 12.13-2.38 15.17-6.54 3.04-4.16 4.38-9.04 3.9-14.06-.76-7.82-5.55-14.1-11.43-17.64-5.86-3.5-12.92-4.8-19.75-3.4-19.03 3.8-28.65 24-24.22 41.48 5.7 22.63 30.17 33.95 51.4 27.83 4.9-1.4 9.38-3.6 13.3-6.34 16.24-11.33 30.16-39.47 26.08-59.7 3.6-8.96 11.2-16.28 22.37-22.1 13.37-7 31.4-11.15 49.97-11.84 7.52-.3 15.2 0 22.6.85-9.55 7.83-16.15 19-17.64 31.4-.6 4.8-.4 9.74.65 14.76 4.6 21.67 26.06 38 48.7 32.44 17.48-4.3 30.73-22.28 25.14-40.9-2-6.7-6.46-12.35-12.35-15.9-5.87-3.54-13.65-4.8-20.93-1.8-4.63 1.92-8.3 5.37-10.53 10-2.22 4.65-2.5 11.4 1.36 16.5 2.9 3.82 5.64 4.6 9.55 4.94 1.98.18 4.6 0 7.17-1.96 2.55-2 3.7-5.72 3.45-8.43-4.9 7.1-12.72 5.24-13.35 1.3-.1-.45-.3-3.1.94-4.6 2.73-3.24 3.14-3.47 6.16-4.75 2.9-1.2 6.2-.7 8.96.97s5.17 4.73 6.1 7.84c3.03 10.1-4.74 20.6-15 23.14-14.3 3.5-28.52-7.33-31.55-21.65-3.66-17.3 8.26-34.1 24.83-39.1 3.03.84 5.96 1.8 8.76 2.84 15.4 5.8 26.67 14.46 31.77 24.65 10.26 20.4 14.1 52.4 6.5 82.5-3.26 12.9-8.5 25.46-16.1 36.85-.25-5.88-1.54-11.7-4-17.1-1.97-4.4-4.7-8.6-8.2-12.3-15.1-16.2-41.9-19.06-58.43-2.56-12.77 12.72-14.8 35-.4 48.04 5.14 4.7 11.9 7.2 18.72 7.2 6.86 0 14.2-2.9 18.86-9.25 3-4.06 4.35-8.9 3.87-14.05-.5-5.2-3.72-11.1-9.66-13.4-4.46-1.8-7.2-1.1-10.7.7-1.77.82-3.94 2.3-5.1 5.32-1.18 3.07-.2 6.87 1.4 9.08.5-8.6 8.2-11.1 10.75-8.05.3.37 1.84 2.58 1.55 4.48-.65 4.2-.9 4.6-2.82 7.28-1.86 2.5-4.94 3.83-8.16 3.84-3.2 0-6.83-1.38-9.23-3.56-7.8-7.08-6.6-20.1.86-27.58 10.43-10.4 28.2-8.52 38.2 2.16 10.97 11.75 10.73 29.8 1.9 42.6-6.73 5.6-14.4 10.5-23.1 14.68l-.46.2-.4.2c-40 23.77-89.44 54.45-116.53 92.4-9.4-11.8-24.74-29.35-45.32-47.24-6.64-14.63-3.2-33.05 10.35-42.42 12.04-8.3 29.8-6.34 37.8 6.06 5.7 8.9 4.13 21.9-5 27.13-2.8 1.6-6.65 2.17-9.78 1.47s-5.9-2.63-7.16-5.5c-1.3-3-1.47-3.44-1.24-7.7.14-1.9 2.13-3.7 2.5-4 3.16-2.4 10.13 1.68 8.8 10.2 2.03-1.82 3.8-5.33 3.3-8.55-.5-3.22-2.33-5.12-3.86-6.35-3.08-2.45-5.58-3.76-10.3-2.98-6.3 1-10.76 6.1-12.3 11-1.58 4.9-1.3 9.94.8 14.54 3.2 7.2 9.72 11.63 16.42 13.1 6.7 1.5 13.8.42 19.86-3.05 16.85-9.64 19.57-31.83 9.83-47-12.63-19.62-39.43-22.55-57.63-10-4.2 2.9-7.72 6.4-10.6 10.3-6.35 8.6-9.4 19.1-9.12 29.66-15-11.38-32.1-22.34-51.14-31.4-27.64-13.25-44.94-34.4-54.5-58.1 7.13 3 14.93 4.32 22.77 3.55 4.8-.45 9.6-1.7 14.26-3.8 20.1-9.2 31.4-33.7 21.07-54.66-8-16.1-28.43-25.2-45.4-15.7-6.07 3.4-10.6 8.94-12.8 15.46-2.17 6.55-1.75 14.4 2.75 20.9 2.88 4.14 7.05 7 12.05 8.18 5 1.2 11.65 0 15.8-4.9 3.1-3.65 3.26-6.5 2.74-10.36-.26-1.95-.95-4.5-3.45-6.56s-6.42-2.4-9-1.6c7.96 3.22 7.87 11.3 4.16 12.8-.4.14-3 .92-4.7.04-3.73-2-4.04-2.35-5.94-5-1.8-2.58-2.06-5.94-1-9s3.5-6 6.33-7.6c9.2-5.13 21.1.2 25.8 9.67 6.5 13.2-1 29.5-14.3 35.54-13 5.9-27.9 1.8-37.57-8-6.06-28.7-2.1-58.38 7.6-77.7 9.45-19.4 43.7-32.7 79.1-32.6z"/>
  </g>
</svg>
