<svg xmlns="http://www.w3.org/2000/svg" id="svg2" width="19441.4" height="15936.13" fill-rule="evenodd" viewBox="0 0 19441.404 15936.125" clip-rule="evenodd" image-rendering="optimizeQuality" shape-rendering="geometricPrecision" text-rendering="geometricPrecision">
  <defs id="defs4">
    <style id="style6">
      .fil2 {fill:#B7225C;fill-rule:nonzero} .fil1 {fill:#E09EAC;fill-rule:nonzero} .fil0 {fill:#E3417A;fill-rule:nonzero}
    </style>
  </defs>
  <g id="Plan_x0020_1" fill-rule="nonzero">
    <path id="path10" fill="#e3417a" d="M9922.33 6335.13c122 161 144 402 69 722-53 223-146 462-279 718-22-45-47-86-75-123-71-94-165-156-282-188-102-20-204-39-306-58-116-30-207-89-274-178-66-87-90-181-74-282s68-184 156-250c60-45 128-71 203-79 82-8 151 10 208 54-29-167 16-296 136-386 81-61 171-88 271-81 105 7 187 51 247 130z" class="fil0"/>
    <path id="path12" fill="#e3417a" d="M8526.33 7335.13c116 165 130 407 44 724-61 221-162 457-304 708-21-46-44-88-70-125-67-96-159-162-275-198l-303-69c-115-34-204-96-268-187-63-90-84-184-64-284s75-181 165-244c62-43 130-67 205-72 82-5 150 15 206 61-24-168 26-295 149-381 83-58 174-82 274-71 105 11 186 57 243 139z" class="fil0"/>
    <path id="path14" fill="#e3417a" d="M9721.33 8215.13c165 116 262 338 289 666 19 228 4 485-44 769-35-36-72-67-109-94-96-67-205-98-326-92-103 13-206 26-308 39-119 8-225-21-315-84s-142-144-158-245c-15-101 8-196 71-286 43-62 99-107 168-138 75-33 147-37 214-13-80-150-76-286 10-409 58-83 136-136 233-161 102-26 194-10 275 47z" class="fil0"/>
    <path id="path16" fill="#e3417a" d="M11617.33 8599.13c32 200-61 423-278 670-151 172-346 339-584 503 1-51-1-98-8-143-18-116-72-215-161-299l-243-195c-88-81-141-176-158-285-17-108 5-202 67-284 62-81 147-130 255-147 74-12 146-3 216 25 76 32 128 80 158 145 52-161 153-254 301-277 100-16 192 3 278 56 89 56 142 133 157 231z" class="fil0"/>
    <path id="path18" fill="#e3417a" d="M11557.33 6483.13c61 189 6 421-167 694-120 190-284 383-490 579-6-49-16-95-30-138-36-110-103-198-202-266-89-51-177-102-266-152-98-65-164-149-198-253-33-102-26-198 21-286 48-88 122-149 225-183 71-23 142-26 214-9 78 19 137 58 176 116 26-165 110-270 250-316 95-31 187-27 278 12 95 40 158 107 189 200z" class="fil0"/>
    <path id="path20" fill="#e09eac" d="M8613.33 5392.13c93 176 79 413-44 713-86 208-213 427-382 655-15-48-33-91-54-131-54-102-136-177-245-226-96-35-192-69-288-103-108-47-188-119-239-215-50-95-60-190-29-285s95-168 190-219c65-35 135-50 209-46 81 5 145 33 194 84-3-167 61-285 191-354 88-47 180-59 276-37 101 23 174 78 220 165z" class="fil1"/>
    <path id="path22" fill="#e09eac" d="M7121.33 6286.13c122 157 149 393 80 710-48 220-136 457-263 711-23-44-48-84-76-119-71-91-165-151-281-180-101-18-201-35-302-52-115-27-205-84-273-170-66-85-92-177-78-276s64-182 149-249c58-46 124-72 198-81 80-9 149 7 205 49-32-164 11-291 127-382 78-61 167-89 266-84 103 5 185 47 246 124z" class="fil1"/>
    <path id="path24" fill="#e3417a" d="M7119.33 8346.13c117 161 135 398 55 712-56 218-152 452-287 702-21-45-45-86-71-122-68-93-159-157-274-190-100-21-200-42-300-62-114-31-202-91-267-180-63-87-86-180-68-278 18-99 70-180 158-243 60-44 127-68 201-74 80-6 148 13 203 56-26-165 21-291 140-378 81-59 170-83 268-75 103 9 184 53 241 132z" class="fil0"/>
    <path id="path26" fill="#b7225c" d="M8324.33 9219.13c161 117 252 337 273 660 14 225-4 477-56 756-34-36-69-68-106-94-93-68-200-100-320-96-102 11-203 22-304 33-118 5-221-24-309-88-87-63-137-145-151-244-13-99 11-193 75-280 44-60 99-104 168-133 75-31 145-34 211-9-76-149-70-283 17-402 59-81 136-132 232-154 101-23 191-6 270 51z" class="fil2"/>
    <path id="path28" fill="#e3417a" d="M12810.33 9333.13c108 167 114 405 18 714-67 215-175 444-324 686-19-46-40-88-65-126-63-97-151-165-264-204-99-27-198-52-296-78-112-37-197-102-257-193-59-90-76-184-54-282 23-98 80-176 170-235 62-40 130-61 204-64 81-2 148 20 200 67-17-166 36-289 160-370 84-54 174-74 272-61 103 14 181 63 234 145z" class="fil0"/>
    <path id="path30" fill="#e3417a" d="M12699.33 4294.13c133 148 176 382 129 703-33 223-103 466-212 728-26-43-54-81-84-114-77-86-175-139-293-160-102-11-203-21-305-31-116-19-211-70-284-151-72-80-104-170-97-270 8-100 51-186 132-258 55-50 119-81 192-95 79-15 149-3 208 35-43-161-10-291 100-390 74-67 160-101 259-103 104-2 188 34 254 106z" class="fil0"/>
    <path id="path32" fill="#e09eac" d="M12870.33 7570.13c37 189-44 405-243 648-138 169-318 335-539 498 0-48-4-94-13-136-21-110-76-203-163-279-79-60-158-119-238-177-87-74-140-163-160-267-20-102-2-193 54-272s135-129 238-149c70-14 139-8 207 17 73 28 125 72 155 133 45-155 137-247 278-274 95-18 183-4 266 44 87 50 139 122 158 215z" class="fil1"/>
    <path id="path34" fill="#e3417a" d="M11165.33 4358.13c141 131 202 354 184 667-13 218-61 458-143 720-29-39-59-73-90-103-82-76-181-119-296-130-99-2-198-3-296-4-114-9-209-49-287-121-76-71-115-155-116-252s34-184 105-260c49-53 108-88 177-108 75-21 143-15 204 16-55-152-34-280 64-385 66-71 146-111 241-121 100-11 184 16 254 81z" class="fil0"/>
    <path id="path36" fill="#b7225c" d="M9940.33 4428.13c113 156 131 386 54 690-54 211-147 438-278 680-21-44-44-83-69-118-66-90-154-152-266-184-97-21-194-41-290-60-110-30-196-88-258-174-61-84-83-174-66-270s68-174 153-236c58-42 123-66 194-72 78-6 144 12 197 55-25-160 20-282 136-366 78-57 165-81 260-73 100 9 178 51 234 128z" class="fil2"/>
    <path id="path38" fill="#e09eac" d="M7463.33 4750.13c10 192-100 395-331 608-160 148-362 287-603 418 6-48 9-93 6-137-6-112-47-211-122-299-70-70-140-140-211-209-76-85-116-181-122-286-5-104 25-191 91-262 67-71 152-109 257-114 72-4 139 12 202 46 69 37 114 88 135 153 66-148 170-225 313-233 96-5 182 22 258 81 79 62 121 140 126 235z" class="fil1"/>
    <path id="path40" fill="#b7225c" d="M5945.33 5507.13c75 177 41 405-103 684-100 194-242 394-424 600-10-47-24-91-41-131-44-103-116-183-217-239-90-42-180-83-269-124-100-54-171-130-212-227-41-96-42-188-4-278 38-89 106-154 202-195 66-28 134-37 206-26 77 12 137 44 180 97 11-161 83-270 215-326 89-38 178-42 270-12 95 31 162 90 199 177z" class="fil2"/>
    <path id="path42" fill="#e3417a" d="M5688.33 8677.13c-193 0-389-121-589-362-139-168-268-376-386-624 47 9 93 14 136 14 112 0 214-36 305-107 74-66 147-133 219-199 89-71 187-107 292-107 104 0 190 35 257 105s101 157 101 262c0 72-19 138-56 200-41 67-94 109-160 127 144 73 216 182 216 325 0 96-31 181-94 253-66 76-146 114-241 114z" class="fil0"/>
    <path id="path44" fill="#e09eac" d="M5617.33 9187.13c156 113 244 326 264 639 14 218-4 462-55 732-33-35-67-65-102-91-90-66-194-97-309-93-99 10-197 21-295 32-114 5-214-24-299-86-84-61-133-140-146-236s11-187 73-271c42-58 96-101 163-129 72-30 140-33 204-9-73-144-68-274 16-390 57-78 132-128 225-149 98-23 185-6 262 50z" class="fil1"/>
    <path id="path46" fill="#b7225c" d="M9702.33 10085.13c157 106 251 313 281 619 21 214 12 454-28 722-34-33-68-62-104-86-91-62-194-88-307-81-96 14-193 28-289 42-112 9-211-16-297-74-85-57-135-133-152-227-16-94 4-184 62-269 39-59 91-102 156-132 70-32 137-37 200-16-77-139-76-267 3-384 53-79 125-130 216-155 95-26 182-12 259 40z" class="fil2"/>
    <path id="path48" fill="#e3417a" d="M13964.33 10262.13c119 147 149 372 88 675-42 210-122 438-238 682-23-42-47-79-74-112-69-85-159-141-270-167-96-15-192-30-288-44-110-24-197-77-262-158-64-80-91-167-79-261 12-95 58-174 138-239 55-44 117-71 187-81 76-10 142 5 196 43-33-155 5-278 115-366 74-60 157-88 252-85 99 3 177 41 236 114z" class="fil0"/>
    <path id="path50" fill="#e09eac" d="M13792.33 5426.13c136 132 193 351 170 659-16 214-67 449-153 706-27-39-56-73-87-103-79-76-175-121-289-133l-291-9c-112-10-205-52-280-124-74-71-110-155-110-250 0-96 36-180 108-254 49-51 108-85 176-103 74-19 141-13 200 19-52-150-29-276 69-377 66-68 146-106 239-115 98-9 181 19 248 84z" class="fil1"/>
    <path id="path52" fill="#b7225c" d="M5823.33 3538.13c139 129 199 348 181 656-12 214-60 450-141 708-28-38-58-72-89-101-80-75-178-118-291-128-97-2-195-3-292-4-112-9-206-49-282-119-75-70-113-153-114-248-1-96 33-181 103-256 48-52 106-87 174-106 74-20 141-15 200 16-54-149-33-276 62-378 65-69 144-109 237-119 98-11 181 16 250 80z" class="fil2"/>
    <path id="path54" fill="#e09eac" d="M4309.33 3385.13c147 119 223 333 226 642 3 215-28 453-91 717-31-36-62-68-96-95-85-69-185-105-299-107-97 5-194 11-291 17-112-1-209-34-289-99-80-64-123-144-131-239s20-183 85-263c44-55 100-94 166-118 73-26 140-25 201 2-65-145-53-273 36-382 60-74 136-119 228-135 97-17 182 3 255 62z" class="fil1"/>
    <path id="path56" fill="#e3417a" d="M8583.33 3500.13c103 159 109 386 17 680-64 205-167 423-308 653-18-44-38-84-62-120-60-92-144-157-251-195-94-25-188-50-282-74-106-35-188-97-245-184-56-86-73-175-51-268s76-167 162-224c59-38 124-58 195-61 77-2 140 19 191 64-17-158 34-276 152-352 80-52 166-71 259-58 98 14 172 60 223 138z" class="fil0"/>
    <path id="path58" fill="#b7225c" d="M14222.33 8533.13c39 185-37 399-228 641-133 168-307 335-522 499-1-47-6-92-15-134-23-108-78-198-165-272-79-57-158-114-237-170-87-71-141-158-162-259-21-100-5-190 49-269s131-129 232-151c69-15 137-10 204 13 72 26 124 68 155 128 41-153 131-245 268-274 93-20 180-7 263 39 86 48 139 117 159 209z" class="fil2"/>
    <path id="path60" fill="#e3417a" d="M4425.33 8210.13c153 107 241 312 266 614 17 210 4 447-40 709-33-33-66-62-100-86-89-62-189-90-301-85-95 12-190 24-284 36-110 7-207-19-291-78-83-58-131-133-145-226s8-181 66-264c40-57 91-99 155-127 69-30 135-34 197-12-73-138-70-264 9-377 53-76 125-126 215-148 94-24 179-9 254 44z" class="fil0"/>
    <path id="path62" fill="#e09eac" d="M4676.33 6483.13c93 161 87 384-18 669-73 198-185 406-336 626-15-44-33-84-55-121-54-94-133-162-237-204-91-30-182-59-273-87-103-40-180-105-231-193-50-87-62-176-36-266s83-161 171-211c60-35 125-51 194-50 76 2 137 26 184 72-8-156 48-269 168-338 81-47 166-61 257-44 95 18 166 67 212 147z" class="fil1"/>
    <path id="path64" fill="#e3417a" d="M7453.33 11307.13c51 179-9 394-179 644-119 174-278 349-478 526-4-46-12-90-24-130-30-104-90-189-180-255-81-51-163-101-244-151-90-64-149-145-177-243-28-97-18-186 29-267s120-136 217-164c67-19 133-19 201-1 73 20 127 59 161 115 30-153 111-249 244-287 90-26 176-19 260 20 88 41 145 105 170 194z" class="fil0"/>
    <path id="path66" fill="#e09eac" d="M11315.33 11138.13c67 174 26 393-123 658-103 184-247 372-430 565-8-46-20-88-35-128-39-101-106-180-202-238-85-44-171-86-256-129-95-56-161-132-198-227-36-94-34-184 6-268 40-85 107-146 202-182 65-25 131-31 200-19 74 14 131 47 170 100 16-155 89-258 218-308 87-33 174-34 261-3 91 33 153 92 186 178z" class="fil1"/>
    <path id="path68" fill="#e3417a" d="M15031.33 6341.13c149 112 230 320 245 623 10 211-12 447-65 707-31-35-64-64-97-90-86-65-186-97-298-95-95 8-191 17-285 26-110 3-206-26-288-88-80-61-126-138-137-231s14-180 75-261c42-55 95-96 160-122 70-28 136-29 198-5-68-140-61-266 22-377 56-74 129-121 220-141 95-20 179-3 252 52z" class="fil0"/>
    <path id="path70" fill="#e09eac" d="M15326.33 9324.13c85 166 67 388-53 667-84 194-206 396-369 607-13-45-29-86-48-123-49-96-125-168-226-216-89-34-179-68-268-102-100-45-174-114-220-205-46-90-53-179-22-268s91-156 182-202c62-32 127-44 197-39 75 6 135 33 180 82 0-156 62-266 185-329 83-42 169-52 259-30 94 23 162 76 204 158z" class="fil1"/>
    <path id="path72" fill="#e3417a" d="M15472.33 4870.13c10 186-97 382-320 588-155 143-350 278-584 405 6-46 8-90 6-132-6-108-45-204-118-289-68-68-136-135-204-202-73-82-112-175-118-277-5-101 24-185 88-253s147-105 248-111c69-4 134 11 196 44 66 36 110 86 131 148 64-143 165-218 303-225 93-5 176 21 249 78 77 60 117 135 122 227z" class="fil0"/>
    <path id="path74" fill="#e09eac" d="M15031.33 2590.13c147 115 225 324 234 627 6 211-20 446-77 706-31-35-63-66-96-91-85-67-184-100-296-100-96 7-191 14-286 21-110 1-206-30-286-93-79-62-124-140-133-233-9-94 17-180 79-260 43-55 97-94 162-119 71-26 137-27 198-2-66-142-56-267 29-376 57-73 131-119 222-137 95-19 179 0 251 57z" class="fil1"/>
    <path id="path76" fill="#e09eac" d="M13800.33 2880.13c93 154 91 370-6 646-67 192-172 396-314 610-16-42-34-81-55-116-54-90-131-154-232-193-89-27-177-54-265-80-100-37-175-98-226-183-50-83-63-169-40-256 24-88 78-156 162-207 58-35 120-51 187-51 73 1 133 23 179 67-11-151 42-260 156-329 77-46 160-62 248-46 92 16 161 62 207 138z" class="fil1"/>
    <path id="path78" fill="#e09eac" d="M7361.33 2834.13c101 149 110 365 28 646-57 196-151 404-282 626-18-41-38-79-61-113-58-87-139-147-242-181-90-22-180-44-269-66-102-32-180-89-235-171-54-81-72-165-53-254s69-160 150-215c56-38 117-58 184-61 73-3 134 16 182 57-18-150 28-262 139-337 75-50 156-70 245-59 93 11 164 54 214 127z" class="fil1"/>
    <path id="path80" fill="#b7225c" d="M11142.33 2815.13c116 138 147 351 95 639-37 201-108 418-215 652-22-39-46-75-72-106-67-80-154-131-260-154-92-13-183-25-274-37-104-21-188-70-252-145-63-75-89-157-79-247s52-167 127-230c51-43 110-69 177-80 72-11 135 2 187 38-34-147 0-264 103-350 69-58 148-86 238-85 94 1 169 36 226 104z" class="fil2"/>
    <path id="path82" fill="#b7225c" d="M3576.33 5640.13c87 157 78 373-29 646-74 190-186 389-335 599-14-43-31-82-51-117-51-91-126-158-225-201-87-30-175-60-262-89-98-41-172-104-220-191-47-85-57-171-31-258 27-87 83-154 169-201 59-33 121-47 189-45 73 3 132 28 176 73-5-151 51-259 168-324 79-44 162-56 249-38 92 19 159 68 202 145z" class="fil2"/>
    <path id="path84" fill="#e09eac" d="M8746.33 12051.13c70 166 38 379-96 639-94 181-226 368-396 560-10-44-22-85-38-122-41-96-109-171-203-223-84-39-168-78-252-116-94-51-160-122-198-213-38-90-39-176-3-259s99-144 189-182c62-26 126-34 192-25 72 11 128 41 168 91 11-151 78-252 200-304 83-35 167-39 252-12 89 29 151 84 186 166z" class="fil1"/>
    <path id="path86" fill="#e3417a" d="M12557.33 12026.13c79 162 58 376-63 643-84 186-206 379-366 580-12-44-27-83-44-120-46-94-117-165-214-212-86-35-172-69-257-103-96-46-166-113-209-202-43-87-48-174-17-259s91-149 179-192c60-29 124-41 191-35 73 7 130 35 172 82 3-151 64-256 184-314 81-40 165-48 251-25 91 24 155 76 194 156z" class="fil0"/>
    <path id="path88" fill="#b7225c" d="M16111.33 7309.13c144 108 222 309 236 602 10 204-12 431-63 683-30-33-62-62-94-87-83-63-179-93-288-92-92 8-184 17-276 25-106 3-199-25-278-85-78-59-122-133-133-223s13-174 72-252c40-54 92-92 154-117 68-27 132-28 191-5-66-136-59-257 21-364 54-72 125-117 212-136 92-20 173-3 244 51z" class="fil2"/>
    <path id="path90" fill="#e09eac" d="M16440.33 5740.13c50 173-8 381-173 623-115 168-269 338-461 508-4-45-12-87-23-126-29-100-87-183-174-247-78-49-157-98-236-146-87-62-144-140-171-235-27-94-17-180 28-258 46-78 115-131 210-158 64-18 129-19 194-1 70 20 122 57 155 111 29-148 108-241 236-278 87-25 170-18 251 19 85 39 140 102 164 187z" class="fil1"/>
    <path id="path92" fill="#e3417a" d="M16486.33 2107.13c43 172-21 373-192 605-119 161-276 322-470 483-3-44-9-86-18-124-25-100-79-182-163-248-75-51-151-101-226-151-83-64-136-143-160-237-23-93-11-177 37-252s118-125 211-148c64-16 127-14 190 6 68 22 118 60 149 114 33-144 114-233 241-265 86-21 168-12 246 28 82 42 134 105 155 189z" class="fil0"/>
    <path id="path94" fill="#e09eac" d="M4814.33 2063.13c125 125 174 331 148 618-19 199-70 418-155 656-25-37-51-69-80-97-73-73-162-115-267-129-91-5-181-9-272-13-104-12-190-52-259-121-68-68-100-146-99-235 2-89 37-168 105-236 47-47 102-77 166-93 70-17 132-10 186 21-46-141-22-258 71-351 63-63 138-97 225-103 92-7 169 21 230 83z" class="fil1"/>
    <path id="path96" fill="#e3417a" d="M2311.33 2023.13c135 114 202 315 201 602-1 200-33 423-97 667-28-34-57-64-88-90-79-66-171-101-277-105-91 3-181 7-272 11-105-2-194-35-269-98-73-61-113-137-119-226s22-170 84-244c42-50 95-86 157-107 68-23 131-21 188 5-58-136-45-255 40-356 57-68 129-108 215-122 91-15 170 6 237 62z" class="fil0"/>
    <path id="path98" fill="#e3417a" d="M12605.33 2342.13c28 175-54 370-244 586-132 150-303 297-511 440 1-44-1-86-7-125-16-101-63-188-140-261-71-57-141-114-212-170-77-71-123-154-139-250-15-94 5-177 58-248 54-71 128-114 223-129 65-10 128-3 189 22 66 28 112 70 138 127 46-141 134-222 263-242 87-14 168 3 243 49 78 49 124 116 138 202z" class="fil0"/>
    <path id="path100" fill="#e3417a" d="M2597.33 3971.13c66 164 31 373-105 626-95 176-228 358-399 544-9-43-20-84-35-121-38-95-104-169-196-223-82-40-163-79-245-118-91-51-155-122-191-212-36-89-35-174 1-255 37-81 99-140 189-176 61-25 124-31 189-21 71 12 125 43 163 92 13-148 80-246 202-296 82-33 164-35 248-7 87 30 147 85 180 166z" class="fil0"/>
    <path id="path102" fill="#e3417a" d="M2283.33 7289.13c137 111 208 311 211 599 2 200-26 423-85 669-29-34-58-63-89-88-80-65-173-98-279-100-91 5-181 10-272 15-105-1-195-32-270-93-74-60-115-135-123-223-7-89 19-171 80-245 41-51 93-88 155-110 68-24 130-23 188 2-60-135-49-254 34-356 56-69 127-111 213-126 91-16 170 3 238 58z" class="fil0"/>
    <path id="path104" fill="#e3417a" d="M9978.33 12934.13c72 161 44 371-84 629-89 179-215 365-379 557-10-43-23-83-39-119-42-94-110-166-203-216-83-37-166-73-249-110-93-48-159-117-199-205-39-87-41-172-8-255 34-83 94-143 182-182 60-27 123-36 188-28 71 10 127 38 166 87 8-148 72-249 192-302 81-36 163-41 247-16 88 27 150 80 185 160z" class="fil0"/>
    <path id="path106" fill="#e09eac" d="M17435.33 4005.13c68 160 37 365-93 617-90 175-218 355-382 541-9-43-21-82-37-118-39-93-105-165-196-216-81-38-162-75-243-112-90-49-154-117-191-205-37-86-38-170-3-250s95-139 182-176c60-25 121-33 185-24 70 11 124 40 162 88 10-145 75-243 193-294 80-34 161-38 243-11 86 28 146 81 179 160z" class="fil1"/>
    <path id="path108" fill="#e09eac" d="M17512.33 6693.13c39 169-27 366-198 591-119 156-276 312-470 466-2-43-7-84-16-122-23-98-75-180-156-246-73-51-146-102-220-152-81-64-132-142-153-235-21-91-8-174 40-247s118-120 210-142c63-15 125-11 187 9 67 23 115 61 144 115 35-141 116-227 241-256 85-20 165-9 241 31 80 42 129 105 149 189z" class="fil1"/>
    <path id="path110" fill="#b7225c" d="M15083.33 1521.13c18 173-72 360-269 563-137 141-312 276-524 405 4-43 3-84-1-123-11-100-52-188-124-263-66-60-133-119-199-178-72-73-113-157-123-252-10-93 14-173 70-240 57-67 132-105 226-115 64-7 126 4 184 31 64 30 107 74 129 131 52-136 143-211 271-224 86-9 165 11 236 60 74 52 116 120 125 205z" class="fil2"/>
    <path id="path112" fill="#e09eac" d="M7292.33 1203.13c125 121 177 322 156 604-15 196-62 412-141 647-25-36-52-67-80-94-73-70-161-111-265-122-89-3-178-6-267-8-102-10-188-48-256-114-68-65-101-142-101-229 0-88 33-165 99-233 45-47 99-78 161-94 68-17 129-12 183 18-47-138-26-253 63-346 60-63 133-97 219-105 90-8 166 18 227 77z" class="fil1"/>
    <path id="path114" fill="#b7225c" d="M3945.33 1534.13c9 173-90 356-298 548-145 133-326 259-544 377 6-43 8-84 6-123-5-101-42-191-110-270-63-63-126-126-190-188-68-77-105-163-110-258-5-94 23-173 82-236 60-64 137-98 231-103 65-3 125 10 182 41 62 34 103 80 122 138 59-133 153-203 282-210 87-5 164 20 232 73 71 56 109 126 114 212z" class="fil2"/>
    <path id="path116" fill="#e09eac" d="M1221.33 4768.13c102 140 118 348 48 622-49 191-132 395-251 613-19-39-39-75-62-107-59-82-139-137-239-166-87-19-175-37-262-54-99-27-177-80-233-157-55-76-75-157-60-243 16-86 61-157 138-212 52-38 111-59 175-65 70-5 130 11 178 49-23-144 18-254 122-330 70-51 148-73 234-66 90 8 160 46 211 115z" class="fil1"/>
    <path id="path118" fill="#e09eac" d="M1421.33 6693.13c39 169-27 366-198 591-119 156-276 312-470 466-2-43-7-84-16-122-23-98-75-180-156-246-73-51-146-102-220-152-81-64-132-142-153-235-21-91-8-174 40-247s118-120 210-142c63-15 125-11 187 9 67 23 115 61 144 115 35-141 116-227 241-256 85-20 165-9 241 31 80 42 129 105 149 189z" class="fil1"/>
    <path id="path120" fill="#e3417a" d="M18092.33 7324.13c133 112 199 309 197 592-1 197-33 415-95 655-28-34-56-63-86-88-77-65-168-99-272-103-89 3-178 7-267 11-103-2-191-35-264-96-72-60-111-134-117-221s22-167 82-239c42-50 93-84 154-105 67-22 128-21 184 5-57-134-44-251 39-349 56-67 126-106 211-120 89-14 167 6 232 61z" class="fil0"/>
    <path id="path122" fill="#b7225c" d="M17231.33 9275.13c46 161-8 354-161 579-107 157-250 314-429 472-4-42-11-81-21-117-27-93-81-170-162-229-73-46-146-91-219-135-81-57-134-130-159-219-25-87-16-167 26-240 43-73 107-122 195-147 60-17 120-17 180-1 65 18 114 53 145 103 27-138 100-224 219-258 81-23 158-17 234 18 79 37 130 95 153 174z" class="fil2"/>
    <path id="path124" fill="#e3417a" d="M18386.33 2458.13c54 158 11 354-131 587-99 162-233 327-404 494-6-42-15-80-27-116-32-92-90-165-174-220-75-42-151-83-226-124-84-53-140-123-170-210-29-86-25-166 14-241s101-127 187-157c59-20 119-24 180-10 66 15 116 47 150 95 20-139 88-229 206-269 79-27 157-25 234 6 81 32 135 88 162 166z" class="fil0"/>
    <path id="path126" fill="#e09eac" d="M18062.33 4784.13c135 98 212 284 229 555 12 189-4 401-47 636-29-31-58-57-89-79-79-57-168-84-269-81-86 9-171 18-256 28-99 5-186-20-260-74-73-53-115-122-127-205-11-84 10-162 63-236 37-50 84-87 141-112 63-26 122-29 177-8-64-125-59-238 14-339 49-68 114-111 195-130 85-20 161-5 227 43z" class="fil1"/>
    <path id="path128" fill="#e3417a" d="M13423.33 632.13c105 130 131 329 78 596-37 186-107 387-210 602-20-37-42-70-65-99-61-76-141-125-239-148l-255-39c-97-21-174-68-232-139-57-70-80-147-70-231 11-84 51-154 122-211 48-39 103-63 165-71 67-9 125 4 173 38-29-137 5-245 101-323 65-53 139-78 222-75 87 3 157 36 208 101z" class="fil0"/>
    <path id="path130" fill="#e3417a" d="M4934.33 582.13c132 103 202 291 210 563 6 189-18 401-70 634-28-32-56-59-86-82-77-60-165-90-266-90-86 6-171 12-257 19-99 1-185-27-257-83-71-56-111-126-120-209-8-84 15-162 71-233 38-49 87-84 145-107 64-24 123-24 178-2-59-127-51-240 26-338 52-66 118-107 200-123 85-17 161 0 226 51z" class="fil0"/>
    <path id="path132" fill="#e09eac" d="M11115.33 13404.13c81 146 72 347-27 600-69 177-173 362-312 557-13-40-29-76-47-109-47-85-117-147-209-187-81-28-163-56-244-83-92-38-160-97-204-177-44-79-53-159-28-240s77-143 157-187c55-30 113-44 175-41 68 3 123 26 164 68-5-140 47-241 156-301 73-41 150-52 232-35 85 18 148 63 188 135z" class="fil1"/>
    <path id="path134" fill="#e09eac" d="M6435.33 780.13c52 159 5 354-141 584-101 160-239 322-412 487-5-42-14-80-25-116-30-92-87-167-170-223-75-43-149-86-224-128-83-54-138-126-167-213-28-86-22-166 18-241 40-74 103-126 190-154 59-19 119-22 180-7 66 16 115 49 148 98 22-139 92-227 210-266 80-26 158-23 234 10 80 34 133 90 159 169z" class="fil1"/>
    <path id="path136" fill="#e09eac" d="M4335.33 10146.13c6 164-91 335-291 513-139 124-313 240-521 348 6-41 9-79 7-116-3-95-37-181-100-257-59-61-117-121-176-181-63-74-96-156-100-246-3-89 24-163 82-222s131-91 220-94c61-2 118 12 172 42 58 33 96 77 113 132 58-125 148-189 270-194 82-3 155 21 218 73 67 54 101 121 104 202z" class="fil1"/>
    <path id="path138" fill="#e09eac" d="M2846.33 9007.13c120 112 172 302 157 568-11 186-52 390-122 614-24-33-50-62-77-88-70-65-154-102-252-111-84-2-169-2-253-3-97-7-178-42-244-104-65-61-98-132-99-215s29-157 90-222c42-45 92-75 151-92 64-18 122-13 174 14-47-129-29-239 54-328 56-60 125-94 206-103 85-9 157 14 216 69z" class="fil1"/>
    <path id="path140" fill="#e3417a" d="M5376.33 10824.13c56 154 17 347-118 578-94 161-223 324-388 492-7-41-16-78-29-113-33-90-91-161-174-213-75-40-149-79-224-118-83-51-140-118-171-203-30-83-27-162 9-236 37-74 97-127 181-157 58-21 116-25 176-13 65 13 115 44 149 91 17-137 83-226 197-268 77-28 154-27 230 2 80 30 134 84 161 160z" class="fil0"/>
    <path id="path142" fill="#e09eac" d="M18832.33 3607.13c68 146 46 338-66 574-78 165-190 336-337 513-10-39-22-75-38-108-40-85-103-149-189-193-76-32-152-64-229-96-85-42-147-104-184-184-37-79-40-156-11-232 30-76 84-132 163-169 54-25 111-35 171-28 65 8 116 33 153 76 5-135 61-228 170-278 73-34 148-40 225-18 81 23 138 70 171 142z" class="fil1"/>
    <path id="path144" fill="#e09eac" d="M1229.33 4195.13c-92 132-269 209-531 230-182 15-386 3-613-35 29-28 54-57 75-87 54-77 78-163 73-260-10-82-21-164-31-246-6-95 17-179 67-251 50-71 115-113 195-126 80-12 156 7 228 57 49 34 86 79 110 134 26 60 29 117 10 171 119-63 228-61 326 8 66 46 109 108 128 186 20 81 8 155-38 220z" class="fil1"/>
    <path id="path146" fill="#e09eac" d="M18879.33 5713.13c133 90 213 266 239 526 18 181 10 386-24 613-29-28-58-53-88-73-78-52-165-75-261-69-82 11-164 23-245 36-95 8-179-13-252-63-72-49-115-113-129-193s4-156 53-229c34-50 78-87 132-112 60-27 116-32 170-13-65-118-65-227 2-326 45-67 106-110 183-131 81-22 154-11 220 34z" class="fil1"/>
    <path id="path148" fill="#e3417a" d="M9925.33 14625.13c60 142 33 326-83 549-80 156-194 316-341 482-8-38-19-73-33-105-35-83-93-147-175-192-72-34-144-67-216-100-81-43-137-105-171-183-33-77-34-151-3-223s85-124 162-157c53-23 108-29 165-21 62 9 110 35 144 78 9-129 67-217 172-262 71-30 143-33 217-10 77 25 130 72 160 142z" class="fil0"/>
    <path id="path150" fill="#e3417a" d="M16418.33 886.13c11 151-73 312-252 482-124 119-281 231-469 338 4-38 6-74 3-108-6-88-40-166-100-234-56-54-112-108-169-161-61-66-94-141-100-224-6-82 17-151 68-207 51-57 118-88 200-93 56-4 109 7 160 33 54 29 91 68 109 119 50-117 131-180 243-187 76-5 143 15 204 60 63 47 97 108 102 183z" class="fil0"/>
    <path id="path152" fill="#b7225c" d="M3702.33 8001.13c-62 138-211 241-449 308-165 46-356 72-573 78 22-31 39-62 53-94 36-80 43-165 21-253-24-74-49-148-73-221-23-87-17-168 17-244 33-75 86-125 158-151s145-22 221 11c52 23 93 58 126 104 35 51 48 103 40 156 99-80 200-97 303-51 69 31 120 80 152 149 33 71 35 141 5 210z" class="fil2"/>
    <path id="path154" fill="#e09eac" d="M17599.33 1828.13c-32 148-157 280-375 394-152 80-333 145-544 195 15-35 26-69 33-103 18-86 7-170-32-252-39-68-78-135-118-201-40-80-52-161-34-242 17-80 58-140 123-181 65-40 138-52 218-35 55 12 103 37 144 76 45 42 69 90 72 144 80-99 175-136 285-113 74 16 134 54 179 114 48 63 64 131 48 204z" class="fil1"/>
    <path id="path156" fill="#b7225c" d="M15217.33 705.13c-58 137-203 240-434 309-161 48-347 77-559 86 21-31 38-62 51-93 34-79 39-162 16-248l-75-216c-24-85-19-165 12-239s82-124 152-151c70-26 142-24 216 7 51 22 92 55 125 100 35 49 49 100 42 152 95-80 194-98 295-55 68 29 119 77 151 143 34 69 37 138 8 205z" class="fil2"/>
    <path id="path158" fill="#e3417a" d="M10095.33 12170.13c-53 132-190 233-410 303-153 49-331 79-534 92 19-30 35-60 47-89 31-76 35-156 11-238-25-69-50-137-76-205-24-81-21-157 8-229 29-71 76-120 143-147s136-25 207 4c49 20 89 51 121 94 34 46 49 95 43 145 90-78 184-97 282-58 66 27 115 71 147 134 34 66 37 131 11 196z" class="fil0"/>
    <path id="path160" fill="#b7225c" d="M8983.33 3135.13c-104 97-271 131-500 101-160-21-334-68-523-143 30-19 57-39 80-61 60-56 97-127 111-211 6-73 12-145 18-218 12-83 47-151 104-205 56-52 120-77 191-73 72 4 134 34 186 91 36 39 59 84 70 136 11 57 4 106-22 149 115-33 208-11 280 67 49 52 74 113 77 184 3 74-22 135-73 183z" class="fil2"/>
    <path id="path162" fill="#b7225c" d="M6108.33 2298.13c-24 137-135 261-331 373-137 78-301 143-492 196 12-33 21-64 27-95 14-79 1-156-38-230-38-61-76-121-114-181-39-72-52-146-39-221 13-74 49-130 107-169s124-52 199-39c51 9 96 31 135 65 42 37 66 81 70 130 70-93 156-131 258-113 69 12 124 45 168 98 46 56 62 118 51 185z" class="fil2"/>
    <path id="path164" fill="#e3417a" d="M7215.33 10745.13c-70 109-211 175-420 200-146 17-310 13-493-11 22-23 42-47 57-72 41-63 58-133 52-211-10-66-21-131-32-197-8-76 8-144 47-204 38-59 89-94 153-106s126 1 185 39c40 26 71 61 92 105 23 47 27 93 13 137 94-54 182-55 262-3 54 35 90 84 108 146 19 65 11 124-24 177z" class="fil0"/>
    <path id="path166" fill="#e09eac" d="M13799.33 12021.13c-57 116-188 199-392 249-142 35-306 51-491 49 19-26 36-52 48-78 33-68 41-140 25-216-18-64-37-128-56-191-17-75-9-144 22-208 31-63 77-104 139-124s125-14 188 16c43 21 78 52 104 93 28 44 38 89 30 134 87-65 173-77 260-35 58 28 100 72 125 131 26 62 26 122-2 179z" class="fil1"/>
    <path id="path168" fill="#e09eac" d="M4482.33 5094.13c53 118 32 272-61 461-65 131-158 267-278 408-7-32-17-61-29-87-31-69-80-121-149-158-61-27-122-54-182-80-68-35-116-86-145-150-28-64-30-126-6-186 25-60 69-105 133-134 44-20 90-26 138-20 52 7 93 28 122 63 6-108 53-182 140-221 59-26 119-30 181-11 64 20 110 59 136 117z" class="fil1"/>
    <path id="path170" fill="#b7225c" d="M12667.33 6891.13c-93 90-245 123-454 100-146-16-305-57-478-122 27-18 51-37 72-57 54-52 87-117 98-194 5-66 9-133 13-199 10-76 41-139 92-188 50-49 108-72 173-69s122 29 171 80c34 35 55 76 66 123 11 51 5 97-18 136 104-32 189-13 256 56 45 47 69 102 73 166 4 67-18 123-63 167z" class="fil2"/>
    <path id="path172" fill="#e09eac" d="M16078.33 3751.13c61 110 54 262-20 453-52 133-131 273-235 420-10-30-22-57-36-82-36-64-88-111-158-141-61-21-123-42-184-62-69-28-120-73-154-134-33-60-40-120-21-181s58-108 118-141c41-23 85-33 132-31 51 2 93 19 124 51-4-106 36-182 118-227 55-31 114-39 175-27 64 14 112 48 142 102z" class="fil1"/>
    <path id="path174" fill="#b7225c" d="M9089.33 14146.13c-4 126-88 252-251 378-113 87-253 167-418 239 7-31 11-60 12-89 3-73-19-141-63-202-42-50-84-99-126-148-45-60-66-125-63-194 2-68 27-124 75-166s105-62 174-60c47 2 90 15 130 41 43 28 69 64 80 108 51-93 124-137 218-134 63 2 118 25 164 67 48 45 71 98 69 160z" class="fil2"/>
    <path id="path176" fill="#e09eac" d="M12707.33 11193.13c-62 107-191 177-389 211-137 23-294 28-469 14 20-23 37-47 51-71 36-62 48-130 38-203-13-62-27-124-40-185-11-72 1-137 34-196 33-58 80-94 140-109s119-5 177 28c40 23 70 55 93 95 24 44 30 87 19 129 87-56 170-61 249-16 53 31 90 75 110 133 21 61 16 117-14 170z" class="fil1"/>
    <path id="path178" fill="#e3417a" d="M2124.33 5799.13c56 110 44 257-35 441-55 128-136 262-244 401-9-30-19-57-32-82-32-64-82-111-149-143-59-23-118-45-177-67-66-30-115-75-146-136-30-59-35-118-15-177 21-59 60-103 120-133 41-21 84-29 130-26 50 4 89 22 119 54 0-103 41-176 122-217 55-28 112-35 171-20 62 15 107 50 135 104z" class="fil0"/>
    <path id="path180" fill="#b7225c" d="M3669.33 219.13c101 71 160 206 176 406 11 139 2 295-27 469-22-22-44-41-66-57-59-41-125-60-199-56-63 8-126 16-188 24-73 5-137-13-192-51s-87-88-96-149 5-119 43-174c26-38 60-65 103-84 46-20 89-23 130-8-48-91-46-174 6-249 35-51 83-83 142-98 62-16 118-6 168 29z" class="fil2"/>
    <path id="path182" fill="#b7225c" d="M13791.33 6972.13c80 85 107 223 83 411-17 131-56 275-117 430-16-25-32-47-50-66-46-50-104-80-173-91-60-5-120-10-179-15-68-10-125-39-168-86-43-46-63-99-60-157 3-59 28-110 75-153 32-30 69-49 112-58 46-9 87-3 123 18-27-94-9-171 55-230 43-40 93-61 151-63 61-2 111 18 150 60z" class="fil2"/>
    <path id="path184" fill="#e3417a" d="M3395.33 3078.13c32 112-5 247-113 404-75 109-175 219-300 330-3-29-8-56-15-82-19-65-57-119-113-160-51-32-102-63-153-95-56-40-93-91-111-153-17-61-11-117 18-167 30-51 75-85 136-103 42-12 84-12 126-1 46 13 79 37 101 72 19-96 70-156 153-180 56-16 111-12 163 13 55 26 91 66 107 121z" class="fil0"/>
    <path id="path186" fill="#e3417a" d="M12393.33 1608.13c-34 112-139 204-315 278-122 51-266 89-431 113 14-26 24-51 32-77 20-65 17-130-8-196-25-54-51-109-77-163-26-64-29-127-10-189 18-60 54-104 107-130 53-27 109-31 170-12 42 13 77 35 106 68 31 36 47 74 45 115 68-70 144-93 227-68 56 17 99 50 130 99 32 52 40 105 23 160z" class="fil0"/>
    <path id="path188" fill="#e3417a" d="M10746.33 8157.13c-80 80-213 112-397 95-128-12-269-45-422-99 24-16 44-33 62-51 47-47 74-104 83-172 3-58 6-117 8-175 7-67 33-122 78-166 43-43 94-65 151-63 57 1 108 24 151 67 30 30 50 65 60 107 11 45 6 85-14 120 91-29 166-14 226 45 40 40 62 88 66 145 4 59-14 108-53 148z" class="fil0"/>
    <path id="path190" fill="#e3417a" d="M17250.33 3455.13c-62 95-185 154-369 175-128 15-272 12-433-10 20-21 37-42 50-63 36-55 51-117 45-185-9-58-19-115-28-173-7-67 7-127 41-179 33-52 78-83 135-93 56-11 110 1 162 34 36 23 62 54 81 92 20 42 24 82 12 120 83-48 159-48 230-3 48 31 79 74 95 128 16 57 9 109-21 156z" class="fil0"/>
    <path id="path192" fill="#e09eac" d="M12333.33 3748.13c6 113-59 233-195 359-95 87-213 170-356 247 4-28 5-55 4-81-3-66-28-125-72-176-41-41-83-82-124-123-45-50-69-107-72-169-3-61 15-113 54-155s90-64 151-67c42-2 82 7 119 27 40 22 67 52 80 90 39-87 100-133 185-137 57-3 107 13 152 48 47 36 72 83 74 138z" class="fil1"/>
    <path id="path194" fill="#e09eac" d="M13203.33 4272.13c110 2 222 73 334 214 78 98 150 218 215 362-27-6-53-9-78-9-64-1-123 18-176 58-43 37-85 75-128 112-52 40-108 59-169 58-60-1-109-22-146-63-38-41-56-91-55-151 1-41 12-79 34-114 24-38 55-62 93-71-82-44-122-106-121-188 1-55 20-103 56-144 38-43 85-64 139-63z" class="fil1"/>
    <path id="path196" fill="#b7225c" d="M5795.33 11346.13c87 68 133 192 139 372 4 125-12 265-46 419-18-21-37-39-57-54-51-40-109-59-176-60-57 4-113 8-170 13-65 1-122-18-170-55-47-37-73-83-79-138s10-107 47-154c25-32 57-56 96-70 42-16 81-16 117-1-39-84-33-158 17-223 34-44 78-71 132-81 56-11 106 0 149 34z" class="fil2"/>
    <path id="path198" fill="#b7225c" d="M19082.33 7231.13c4 104-58 213-185 325-88 78-198 152-330 221 4-26 6-50 5-74-2-60-23-115-63-163-37-39-75-77-112-115-40-47-61-99-63-156-2-56 15-103 52-141s83-57 140-59c39-1 75 8 109 27 37 21 61 49 72 84 37-79 94-120 171-123 52-2 98 14 139 46 42 34 64 77 66 128z" class="fil2"/>
    <path id="path200" fill="#e3417a" d="M8386.33 2060.13c-66 81-183 122-353 125-118 1-249-15-394-50 20-17 37-34 52-53 38-47 58-102 59-165-3-54-6-107-9-160 0-62 19-115 55-159 35-44 79-68 132-72 52-4 100 11 145 47 30 24 52 55 65 92 14 40 14 77-1 111 80-36 150-29 210 20 41 33 65 75 74 126 10 53-2 100-34 140z" class="fil0"/>
    <path id="path202" fill="#e09eac" d="M8400.33 11190.13c-32 99-127 180-285 243-110 44-238 75-386 94 13-23 22-45 30-68 19-58 17-116-4-175-22-49-44-98-66-146-22-58-24-114-6-168 17-54 50-92 97-115s98-26 152-8c37 12 68 33 93 62 27 32 40 67 39 104 62-62 130-81 203-57 50 16 88 46 114 91 28 46 34 94 18 143z" class="fil1"/>
    <path id="path204" fill="#e09eac" d="M1764.33 8669.13c52 90 49 215-10 374-41 111-104 227-188 350-9-25-19-47-30-67-30-52-74-90-132-114-51-17-102-33-153-49-57-22-100-59-129-108-28-49-35-98-20-149 15-50 47-90 96-118 34-19 70-29 109-28 42 1 77 15 103 40-5-87 27-150 94-189 45-26 93-34 144-24 53 10 93 38 118 82z" class="fil1"/>
    <path id="path206" fill="#e09eac" d="M15016.33 11100.13c-47 93-154 158-319 195-115 26-247 37-396 33 16-21 29-41 40-62 27-54 35-112 24-173-14-52-28-103-42-155-12-60-6-116 20-167 26-50 64-83 114-98s101-10 151 16c35 18 62 43 82 76 22 36 29 72 22 108 71-51 141-59 210-24 46 24 79 59 99 107 20 50 19 98-4 144z" class="fil1"/>
    <path id="path208" fill="#e3417a" d="M13561.33 2346.13c-51 91-159 152-326 184-116 22-248 28-397 19 17-20 31-40 42-61 29-53 39-110 30-172-12-52-24-104-37-156-10-61-1-116 26-166 27-49 66-81 117-94s101-6 150 21c34 19 60 45 80 79 21 37 27 73 18 109 72-49 143-55 210-17 46 25 77 62 95 111 19 51 15 99-9 144z" class="fil0"/>
    <path id="path210" fill="#e09eac" d="M2434.33 918.13c71 71 100 189 84 353-11 114-40 239-88 375-14-21-29-39-45-56-41-41-92-66-153-74-52-3-104-5-155-7-59-7-109-30-148-69s-57-83-56-134 21-96 60-135c27-27 58-44 95-53 40-9 75-5 107 12-26-81-13-148 40-201 36-36 79-55 129-59 52-4 96 12 132 47z" class="fil1"/>
    <path id="path212" fill="#e3417a" d="M11350.33 10692.13c-66 76-182 112-346 109-114-3-241-23-380-62 20-16 37-32 52-49 38-44 59-97 63-157-1-52-2-104-3-155 2-60 22-111 58-152s79-63 130-66c51-2 97 14 138 50 28 25 48 55 60 91 12 39 11 75-5 107 79-32 146-23 203 26 38 33 61 75 68 124 7 52-5 97-38 135z" class="fil0"/>
    <path id="path214" fill="#b7225c" d="M19078.33 4487.13c82 59 128 171 139 335 7 114-2 242-29 384-17-18-35-34-54-48-47-34-102-51-162-49-52 5-103 11-155 17-60 3-112-12-157-45-44-32-70-73-77-124s6-98 38-142c22-30 51-53 85-67 38-16 74-17 107-5-38-75-36-144 8-204 30-41 69-67 118-78 51-12 97-3 137 26z" class="fil2"/>
    <path id="path216" fill="#e3417a" d="M8468.33 13637.13c-36 94-132 168-288 221-108 37-235 61-378 72 13-22 24-43 32-64 21-55 23-111 5-169-19-49-37-97-56-145-18-57-17-111 3-163 20-51 53-86 100-106s96-20 147 0c35 13 64 35 87 65 25 33 36 67 32 102 63-57 130-72 200-45 47 18 83 49 106 94 25 46 28 93 10 139z" class="fil0"/>
    <path id="path218" fill="#b7225c" d="M18138.33 8960.13c-40 89-137 156-290 199-107 30-230 47-370 50 14-20 25-40 34-60 23-52 28-107 14-164-16-48-31-96-47-143-15-56-11-109 11-158 22-48 56-81 102-98s94-14 143 7c33 15 60 37 81 67 22 33 31 66 26 101 64-52 129-63 195-33 45 20 77 52 98 96 22 46 23 91 3 135z" class="fil2"/>
    <path id="path220" fill="#e3417a" d="M16019.33 8766.13c12 97-37 204-146 320-76 81-173 158-291 234 2-24 1-48-2-70-7-56-31-105-73-147-38-33-76-66-114-98-41-40-65-88-72-141-6-53 6-98 37-136s73-61 126-67c36-4 71 1 104 16 36 17 61 41 74 73 28-77 78-120 150-129 49-6 93 5 133 32 42 28 66 67 72 114z" class="fil0"/>
    <path id="path222" fill="#b7225c" d="M11265.33 12755.13c-19 90-95 169-227 238-92 48-201 87-329 118 9-21 15-42 20-62 11-52 4-103-19-152-24-41-47-81-71-122-24-48-31-97-21-146 10-48 35-85 74-109s83-31 132-21c33 7 62 22 87 46 27 26 41 55 43 87 48-60 106-82 172-68 45 10 81 32 108 69 29 38 38 79 29 123z" class="fil2"/>
    <path id="path224" fill="#e3417a" d="M15030.33 8814.13c-22 89-100 166-235 230-93 45-204 80-332 106 10-21 17-41 22-61 13-52 8-103-14-153-22-42-44-83-67-124-23-49-28-98-16-147 12-48 38-84 78-106 40-23 84-28 133-16 33 8 62 25 86 49 26 27 39 56 40 88 50-58 109-79 175-62 44 11 80 35 106 72 27 39 36 80 25 124z" class="fil0"/>
    <path id="path226" fill="#e09eac" d="M15988.33 10565.13c-73 55-182 65-327 31-101-24-209-66-325-127 21-10 39-21 56-34 42-32 71-75 85-128 9-46 18-92 26-138 13-52 40-94 81-124 40-30 82-41 128-34s83 31 113 71c21 27 32 58 36 92 3 37-5 68-24 94 76-13 134 7 175 62 28 37 40 78 37 123-3 48-23 85-59 112z" class="fil1"/>
    <path id="path228" fill="#b7225c" d="M9896.33 3901.13c-46 79-142 131-289 157-102 17-219 21-349 11 15-17 28-35 38-53 27-46 36-96 29-151l-30-138c-8-54 0-102 26-146 25-43 60-70 104-81 45-11 89-4 132 21 30 17 52 41 69 71 18 33 23 65 14 96 64-42 126-46 185-12 40 23 67 56 82 99 16 45 12 87-10 126z" class="fil2"/>
    <path id="path230" fill="#b7225c" d="M14989.33 7978.13c-39 83-130 143-274 181-100 26-216 40-347 41 13-19 24-37 33-56 22-48 28-99 15-153l-42-135c-13-53-8-102 13-147s53-75 97-90 88-12 133 9c31 14 56 36 75 64 20 31 28 63 23 94 61-47 122-57 183-28 42 19 71 50 90 91 19 43 20 86 1 127z" class="fil2"/>
    <path id="path232" fill="#e09eac" d="M3156.33 4763.13c35 81 19 186-47 314-46 89-111 181-195 275-5-22-11-42-19-60-20-47-53-84-100-110-41-19-82-38-124-57-46-25-79-60-97-104-19-44-19-87-2-127 18-41 48-71 93-90 30-13 62-17 94-12 35 5 63 20 82 45 5-74 38-124 98-150 41-17 82-19 124-6 44 14 74 41 91 81z" class="fil1"/>
    <path id="path234" fill="#b7225c" d="M6655.33 8006.13c-43 77-135 129-276 156-98 19-211 24-337 16 14-17 26-34 36-52 25-45 33-94 25-146-10-44-21-88-31-132-9-52-1-99 22-141s56-68 99-80c43-11 86-5 128 18 29 16 51 38 68 67 18 31 23 62 16 93 61-41 121-46 178-14 39 21 65 53 81 94 16 43 13 84-8 122z" class="fil2"/>
    <path id="path236" fill="#e3417a" d="M10803.33 5719.13c50 61 62 155 37 281-18 88-51 182-99 284-9-17-20-33-31-47-29-36-66-59-113-70l-120-18c-46-10-82-32-109-66-27-33-38-70-33-109 5-40 24-73 58-100 23-19 49-30 78-34 32-4 59 2 82 18-14-65 2-116 48-153 31-25 66-37 105-35 41 1 74 17 98 47z" class="fil0"/>
    <path id="path238" fill="#e09eac" d="M11998.33 5821.13c19 77-9 167-86 270-53 72-123 144-210 216-1-20-4-38-8-55-11-44-35-81-73-111-34-23-67-45-101-67-37-28-61-64-71-106-10-41-5-79 16-113s53-56 94-66c29-7 57-6 85 3 31 10 53 27 66 51 15-64 51-104 108-118 38-10 75-5 110 12 37 19 60 47 69 85z" class="fil1"/>
    <path id="path240" fill="#e09eac" d="M11984.33 13296.13c16 77-15 166-95 267-55 70-128 140-217 208 0-20-2-38-6-56-10-45-33-83-69-113-33-24-66-47-99-71-36-30-59-66-68-108s-2-79 20-112 55-54 97-63c29-6 57-4 85 5 30 11 52 28 65 53 17-64 54-102 112-114 39-8 75-3 109 16 36 20 58 49 66 87z" class="fil1"/>
    <path id="path242" fill="#b7225c" d="M17031.33 8869.13c-51 60-140 90-269 90-89-1-189-15-298-43 15-13 29-26 40-39 29-35 45-76 47-124-1-41-3-81-5-121 1-47 16-87 44-120 27-33 61-50 101-53s76 10 109 37c23 19 38 42 48 70 10 30 9 58-2 84 61-26 114-20 159 18 30 25 48 57 55 96 7 41-3 76-28 106z" class="fil2"/>
    <path id="path244" fill="#e3417a" d="M7551.33 12886.13c27 74 8 167-57 278-45 77-107 156-186 236-3-20-8-38-14-54-16-43-44-77-84-103l-108-57c-40-24-67-57-82-98-15-40-13-78 4-114 18-36 47-61 87-76 28-10 56-12 85-6 31 6 55 21 71 44 8-66 40-109 95-129 37-14 74-13 111 1 38 15 64 40 78 77z" class="fil0"/>
    <path id="path246" fill="#e3417a" d="M1946.33 3406.13c31 73 17 166-42 280-41 79-99 161-174 246-4-19-10-37-17-54-18-42-48-75-89-98-37-17-74-34-110-51-41-22-70-53-87-93-17-39-17-77-2-114 16-37 43-63 83-80 27-12 55-15 84-11 32 5 56 18 74 40 5-66 34-111 88-133 36-15 73-17 110-5 39 13 66 37 81 73z" class="fil0"/>
    <path id="path248" fill="#e09eac" d="M14570.33 4010.13c3 79-44 161-140 247-67 59-150 115-250 167 3-20 4-38 4-56-2-46-18-87-48-123-28-29-56-58-85-87-30-35-46-75-48-118-1-43 12-78 39-107 28-29 63-44 106-45 29-1 57 6 83 20 28 16 46 37 54 64 28-60 71-91 130-93 39-1 74 10 105 35 32 26 49 58 50 97z" class="fil1"/>
    <path id="path250" fill="#e09eac" d="M3119.33 7302.13c-57 50-147 65-268 45-85-14-177-43-276-86 16-10 31-20 44-31 33-29 54-66 63-110 5-39 9-77 14-116 8-44 28-80 59-107s65-39 103-35 71 21 98 52c19 21 30 46 35 74 5 30 0 57-15 79 62-15 111-2 148 41 25 29 37 62 37 99 0 39-14 71-42 96z" class="fil1"/>
    <path id="path252" fill="#e09eac" d="M9267.33 7889.13c-13 75-73 143-181 204-75 42-164 78-268 107 7-18 12-35 15-52 8-43 1-85-20-125-21-33-41-66-62-99-21-39-29-80-21-121 7-40 27-71 58-92 32-21 68-28 108-21 28 5 52 17 74 35 23 20 36 44 38 71 38-51 85-71 141-61 37 7 68 25 92 54 25 31 34 64 28 101z" class="fil1"/>
    <path id="path254" fill="#e3417a" d="M11338.33 2005.13c1 76-45 154-138 234-65 56-146 108-243 156 3-19 5-37 4-54-1-44-16-84-44-119-27-29-53-57-80-85-29-35-43-73-44-114s13-75 40-102 61-41 102-41c28 0 54 6 79 21 26 16 44 36 51 62 28-57 70-86 126-87 38-1 71 11 100 35 30 25 46 57 46 94z" class="fil0"/>
    <path id="path256" fill="#e3417a" d="M1529.33 1971.13c17 74-12 160-87 258-52 68-120 136-205 203-1-19-3-37-7-53-10-43-33-79-68-107l-96-66c-35-28-57-62-67-103-9-40-3-76 18-108s51-53 92-62c28-6 55-5 81 4 29 10 50 26 63 50 15-62 51-99 105-112 37-9 72-4 105 14 35 18 57 46 65 82z" class="fil0"/>
    <path id="path258" fill="#e3417a" d="M1028.33 2710.13c20 73-6 160-78 261-50 70-116 140-198 210-1-19-4-37-9-53-11-43-35-77-72-105-33-21-65-42-98-63-36-27-60-60-70-100-11-40-6-76 14-108 20-33 50-54 89-65 27-7 54-7 82 1 29 9 51 25 65 48 13-62 47-101 101-115 37-10 72-6 106 10 35 17 58 44 68 80z" class="fil0"/>
    <path id="path260" fill="#e3417a" d="M371.33 5842.13c61 45 96 128 104 252 6 86-2 182-21 288-13-14-26-26-40-36-36-26-76-38-122-37-39 4-77 8-116 13-45 2-84-9-118-34-33-24-52-55-57-93s4-73 29-107c17-23 38-40 64-51 28-12 55-13 80-4-29-57-27-108 6-153 22-31 52-50 88-59 38-9 73-2 103 20z" class="fil0"/>
    <path id="path262" fill="#e09eac" d="M948.33 8083.13c41 64 44 154 7 272-26 82-67 169-123 261-7-18-15-33-25-48-24-37-58-63-101-78-38-10-75-20-113-30-43-14-75-39-98-74-22-34-29-70-20-107s30-67 65-89c24-15 50-23 78-24 31-1 56 8 76 25-7-63 14-110 61-141 32-21 66-28 104-23 39 5 69 24 89 55z" class="fil1"/>
    <path id="path264" fill="#b7225c" d="M16313.33 4798.13c47 56 59 142 38 258-15 81-44 169-87 263-9-16-19-30-29-43-27-32-62-53-105-62l-111-15c-42-8-76-28-102-59-25-30-36-63-32-100 4-36 21-67 51-93 21-17 44-28 71-32 29-4 54 1 76 15-14-59 0-106 41-141 28-23 60-35 96-34 38 1 68 15 91 42z" class="fil2"/>
    <path id="path266" fill="#e09eac" d="M5481.33 57.13c57 45 88 126 91 244 2 82-8 174-30 275-12-14-24-26-37-36-33-26-72-39-115-39-37 3-74 5-111 8-43 0-80-12-112-36-31-24-48-54-52-91-4-36 7-70 31-101 17-21 38-37 63-46 28-10 53-11 77-1-26-55-22-104 11-147 22-29 51-46 87-53 37-7 70 0 98 22z" class="fil1"/>
    <path id="path268" fill="#e3417a" d="M2089.33 5515.13c-49 54-132 79-250 74-82-3-173-20-272-49 14-11 27-23 38-35 28-31 44-69 47-112 0-37 0-75-1-112 3-43 17-79 44-109 26-29 58-44 94-45 37-1 70 11 99 38 20 18 34 40 42 66 8 28 7 54-5 77 57-22 105-15 145 21 27 24 43 54 47 90 5 38-5 70-29 96z" class="fil0"/>
    <path id="path270" fill="#b7225c" d="M7899.33 7039.13c-36 56-108 90-215 102-75 9-159 7-253-6 11-12 21-24 29-37 21-32 30-68 26-108-5-34-11-67-16-101-4-39 4-74 24-104s46-48 79-54 64 0 95 20c21 13 36 31 47 54 12 24 14 48 7 70 48-28 93-28 134-1 28 18 46 43 55 75 10 33 5 63-12 91z" class="fil2"/>
    <path id="path272" fill="#e09eac" d="M4537.33 162.13c17 64-5 140-68 228-43 61-101 123-173 184-1-17-4-32-8-46-10-37-31-68-63-92-29-19-57-37-86-55-32-23-52-53-61-88s-5-66 12-95 43-48 78-57c24-6 48-6 71 1 26 8 45 22 57 42 12-54 41-88 89-101 32-9 63-6 92 9 31 15 51 38 59 70z" class="fil1"/>
    <path id="path274" fill="#e09eac" d="M7887.33 8915.13c-15 65-71 121-167 170-67 34-147 61-239 81 7-15 12-30 15-45 9-38 5-74-12-111-17-30-33-59-50-89-17-35-21-71-13-106s26-61 55-78 61-22 96-13c24 6 45 17 63 34 19 19 29 40 30 63 36-43 78-58 126-47 32 7 58 25 78 51 20 28 27 58 19 90z" class="fil1"/>
    <path id="path276" fill="#e09eac" d="M5501.33 4863.13c1 66-39 135-121 205-57 49-128 95-213 137 3-16 4-32 4-47-1-38-14-73-39-104-23-25-47-50-70-74-25-30-38-64-38-100-1-36 11-66 35-89 24-24 54-36 90-36 25 0 48 6 69 18 23 14 38 32 45 54 24-50 61-75 110-76 33-1 62 10 88 31 26 22 40 50 41 82z" class="fil1"/>
    <path id="path278" fill="#e09eac" d="M12144.33 9018.13c-34 57-105 93-211 110-74 11-159 12-253 3 11-12 20-25 28-38 20-33 27-69 23-109-6-33-13-67-20-100-5-39 2-74 20-105s44-50 77-57 64-2 95 17c21 13 37 30 49 52 12 24 15 47 9 70 47-29 92-31 134-6 28 17 48 41 58 73 11 33 8 63-9 91z" class="fil1"/>
    <path id="path280" fill="#e3417a" d="M9285.33 6032.13c-41 52-115 80-223 83-75 2-159-7-251-28 12-11 23-22 33-34 24-30 36-65 36-105-2-34-5-68-8-102 0-39 11-73 33-102 22-28 50-44 83-47s64 6 92 28c19 15 33 34 42 58 9 25 10 49 1 70 50-24 95-20 134 10 26 20 42 47 49 79 7 34 0 64-20 89z" class="fil0"/>
    <path id="path282" fill="#e09eac" d="M3655.33 9722.13c-48 46-125 63-233 51-75-8-156-29-245-62 14-9 26-19 37-29 28-27 44-60 50-99 2-34 5-68 7-102 5-39 21-71 47-96s55-37 89-35c33 1 63 15 88 41 17 18 28 39 34 63 6 26 3 50-9 70 53-16 97-7 131 29 23 24 35 52 37 85 2 34-9 63-32 86z" class="fil1"/>
    <path id="path284" fill="#e09eac" d="M6019.33 11020.13c-37 55-109 88-217 99-75 7-159 4-253-10 12-12 22-24 30-36 22-32 31-68 28-108-5-34-10-67-15-101-3-39 6-74 26-104s47-47 79-53c33-6 64 2 94 22 20 14 36 32 46 54 11 25 13 48 6 70 49-27 93-27 134 1 28 19 45 44 54 76 9 33 4 64-14 91z" class="fil1"/>
    <path id="path286" fill="#b7225c" d="M17257.33 6104.13c-54 39-133 45-237 18-73-19-151-51-234-96 15-7 29-15 41-24 31-23 52-53 63-91 7-33 14-67 21-100 10-38 30-67 60-89 29-21 60-29 93-23s60 23 81 53c15 20 23 42 25 67 2 27-4 49-19 68 55-9 97 7 126 47 20 27 28 57 25 89-3 34-18 61-44 80z" class="fil2"/>
    <path id="path288" fill="#e3417a" d="M18197.33 2065.13c-48 45-126 61-233 47-74-10-156-32-244-67 14-9 27-18 37-29 28-26 45-59 52-98 3-34 6-68 8-102 6-39 22-71 49-95 26-24 56-36 89-34s62 16 87 42c17 18 28 39 33 63 5 26 2 50-10 70 53-15 97-5 131 31 23 24 34 53 36 86 1 34-10 63-34 85z" class="fil0"/>
    <path id="path290" fill="#b7225c" d="M17068.33 942.13c-13 62-65 117-156 164-63 33-139 60-227 81 6-15 11-29 14-43 8-36 3-71-13-105-16-28-33-56-49-84-17-33-21-67-14-101 7-33 24-58 51-75s57-22 91-14c23 5 43 15 60 32 19 18 29 38 30 60 33-41 73-57 119-47 31 7 56 22 75 47 20 26 27 55 20 85z" class="fil2"/>
    <path id="path292" fill="#e3417a" d="M10571.33 9941.13c12 62-15 133-80 212-45 55-104 110-177 163 0-16-1-31-4-45-7-36-25-66-53-92-26-20-52-39-78-58-28-24-46-53-53-87s-1-63 18-89c18-26 44-42 78-49 23-4 46-3 68 6 24 9 41 24 51 43 15-51 45-81 91-90 31-6 60-1 87 14 29 16 46 40 52 70z" class="fil0"/>
    <path id="path294" fill="#b7225c" d="M10480.33 14693.13c41 48 54 122 37 224-12 71-35 147-71 230-8-14-17-26-26-37-24-28-55-45-92-53-32-4-64-8-97-11-37-7-67-23-89-49s-32-55-29-86c3-32 17-59 43-81 18-15 38-25 61-29 25-4 47 0 66 12-13-51-1-93 34-123 24-21 51-31 83-31 33 0 60 12 80 35z" class="fil2"/>
    <path id="path296" fill="#b7225c" d="M10540.33 4145.13c22 59 6 133-45 222-36 62-86 125-149 189-3-16-6-30-11-43-13-34-35-62-67-82-29-15-57-30-86-45-32-19-54-46-66-78s-10-62 4-91 37-49 69-60c22-8 45-10 68-5 25 5 44 17 57 35 6-53 32-87 76-103 30-11 59-11 88 1 31 12 51 32 62 61z" class="fil2"/>
    <path id="path298" fill="#e09eac" d="M7876.33 2739.13c-50 39-125 47-225 25-70-15-145-43-226-83 14-7 27-15 38-24 29-23 48-52 57-89 6-32 11-64 16-96 9-36 27-65 54-87 27-21 56-29 88-25 32 5 58 20 79 47 14 19 23 39 26 63 3 25-2 47-16 65 52-10 92 3 121 40 19 25 28 53 27 84-2 33-15 59-39 78z" class="fil1"/>
    <path id="path300" fill="#e09eac" d="M1761.33 1703.13c-42 47-115 68-218 64-71-3-150-17-237-43 13-10 24-20 33-30 25-27 38-60 41-98v-97c2-37 15-69 38-95 23-25 50-39 82-40s60 10 86 33c17 16 30 35 36 57 7 25 6 47-4 67 49-19 92-13 126 19 24 21 37 47 41 78 4 33-4 61-25 84z" class="fil1"/>
    <path id="path302" fill="#e3417a" d="M3311.33 8717.13c16 58-5 127-61 206-39 55-92 111-157 167-1-15-3-29-7-42-9-34-28-61-57-83-26-17-52-33-78-50-29-21-47-48-56-79-8-31-5-60 11-86s39-43 71-51c22-6 43-5 65 1 23 7 40 20 51 38 10-49 37-80 80-91 29-8 57-5 84 8 28 14 46 35 54 63z" class="fil0"/>
    <path id="path304" fill="#b7225c" d="M3789.33 4860.13c-9 59-56 114-140 164-58 35-129 64-211 88 5-14 9-28 11-41 5-34-1-67-18-99-17-26-34-52-51-77-18-31-24-63-19-95s20-57 45-74 53-23 86-18c22 4 42 13 59 27 18 16 29 34 31 55 30-41 66-58 110-51 30 5 54 18 73 41 20 24 28 50 23 80z" class="fil2"/>
    <path id="path306" fill="#e09eac" d="M10421.33 12432.13c21 56 8 127-39 212-33 59-79 120-138 182-3-15-6-28-11-41-12-33-34-58-65-77-27-14-55-28-82-42-31-18-52-42-64-73-12-30-11-59 2-86s35-47 65-59c21-8 42-10 64-6 24 4 42 15 55 32 5-50 29-83 70-99 28-11 56-11 84-1 29 11 49 30 60 57z" class="fil1"/>
    <path id="path308" fill="#b7225c" d="M14010.33 259.13c4 60-29 124-100 191-49 47-111 91-186 134 2-15 2-29 1-43-2-35-16-66-40-92-22-21-44-43-67-64-24-26-37-56-39-89-2-32 7-60 27-82s47-35 79-37c22-2 43 3 63 13 22 11 36 27 43 47 20-46 52-71 96-74 30-2 57 6 81 24 25 19 39 43 41 72z" class="fil2"/>
    <path id="path310" fill="#e3417a" d="M6647.33 4031.13c6 53-22 111-83 174-42 43-96 85-162 125 1-13 1-26 0-38-3-31-16-58-38-81-21-18-41-37-62-55-22-23-35-49-38-78s4-54 22-74c18-21 41-33 70-36 20-2 39 1 57 10 20 9 33 23 40 41 16-42 44-65 84-69 27-3 51 3 73 19 23 16 36 37 39 63z" class="fil0"/>
    <path id="path312" fill="#b7225c" d="M15354.33 10747.13c42 33 65 93 67 181 2 61-6 129-22 203-9-10-18-19-28-26-25-19-53-29-85-29-28 2-55 4-82 6-32 0-59-9-83-27-23-18-36-40-38-67-3-27 5-52 23-75 12-16 28-27 47-34 20-8 39-8 57-1-19-41-16-77 8-108 17-21 38-34 64-39 27-5 52 0 72 16z" class="fil2"/>
    <path id="path314" fill="#e09eac" d="M6584.33 12434.13c31 44 35 108 12 192-16 59-43 121-81 188-6-12-12-23-19-33-18-26-42-43-73-53l-81-18c-30-9-54-26-71-50s-22-49-17-75c5-27 20-48 44-65 16-11 35-18 55-19 22-1 40 4 55 16-6-45 7-78 40-101 22-15 46-22 73-19 28 3 49 15 64 37z" class="fil1"/>
    <path id="path316" fill="#e09eac" d="M18872.33 2938.13c14 52-4 113-55 185-35 50-82 99-140 149-1-13-3-26-6-38-8-30-25-55-51-74l-69-45c-26-19-42-43-50-71s-4-54 10-77 35-38 63-46c19-5 39-5 58 1 21 6 36 18 46 34 9-44 33-71 72-82 26-7 51-5 75 7 25 12 41 31 48 57z" class="fil1"/>
    <path id="path318" fill="#e09eac" d="M7057.33 900.13c-26 47-82 79-168 95-60 11-128 15-204 10 9-10 16-21 22-31 15-27 20-57 15-89-6-27-13-54-19-80-5-31-1-60 14-86 14-25 34-42 60-48 26-7 52-3 78 11 17 10 31 23 41 41 11 19 14 38 9 56 37-25 73-28 108-9 24 13 40 32 49 57 10 26 8 51-5 74z" class="fil1"/>
    <path id="path320" fill="#e3417a" d="M2449.33 6896.13c-28 46-86 74-173 86-60 8-128 8-205-1 9-10 17-20 23-30 17-26 23-56 20-88l-15-81c-4-32 2-60 18-85 15-25 36-40 63-45 27-6 52-1 77 15 17 11 30 25 39 43 10 20 12 38 6 57 39-23 75-24 109-3 23 14 38 34 46 60 8 27 5 51-9 74z" class="fil0"/>
    <path id="path322" fill="#b7225c" d="M6680.33 9935.13c-35 41-95 61-183 61-61 0-128-10-203-29 10-9 20-17 27-27 20-24 31-52 32-84-1-28-2-55-3-83 1-32 11-59 30-82 19-22 41-34 68-36s52 7 74 25c15 13 26 29 33 48 7 21 6 40-1 57 41-18 78-14 108 12 21 17 33 39 37 65 4 28-2 52-19 72z" class="fil2"/>
    <path id="path324" fill="#e3417a" d="M3119.33 4246.13c22 49 13 113-25 191-27 54-65 111-115 169-3-13-7-25-12-36-13-28-33-50-62-66-25-11-50-22-76-33-28-15-48-35-60-62s-13-52-2-77c10-25 29-44 55-55 18-8 37-11 57-8 22 3 38 12 51 26 2-45 22-76 58-92 25-11 50-12 75-5 27 8 45 24 56 48z" class="fil0"/>
    <path id="path326" fill="#e09eac" d="M5131.33 3561.13c-10 53-54 100-130 142-53 29-117 53-191 72 5-13 9-25 11-37 6-31 2-60-13-89-14-24-29-47-43-71-15-28-19-57-14-86 6-28 20-50 42-65 23-15 48-19 77-14 20 4 37 12 52 26 16 15 25 32 26 51 28-35 61-49 100-42 26 5 48 18 64 39 17 22 23 46 18 72z" class="fil1"/>
    <path id="path328" fill="#e3417a" d="M1140.33 3126.13c38 38 53 100 45 187-6 61-21 127-47 199-8-11-16-21-24-30-22-22-49-35-81-39-28-1-55-3-83-4-32-4-58-16-79-37s-30-44-30-71c1-27 11-51 32-72 14-14 31-23 50-28 21-5 40-3 57 6-14-43-7-78 21-107 19-19 42-29 68-31 28-2 51 6 70 25z" class="fil0"/>
    <path id="path330" fill="#e3417a" d="M5809.33 2916.13c19 47 9 106-30 179-27 50-65 102-114 155-2-12-6-24-10-34-11-27-30-48-56-64-23-11-47-23-70-34-26-15-44-35-55-61-10-25-10-50 0-73s28-40 54-50c17-7 35-9 54-6 20 3 36 12 47 26 4-42 23-70 58-84 23-9 47-10 71-2 25 9 42 24 51 47z" class="fil0"/>
    <path id="path332" fill="#e3417a" d="M10513.33 9592.13c-21 46-72 79-151 100-55 14-119 22-191 23 7-10 13-21 18-31 12-27 15-55 8-84-8-25-15-50-23-74-7-29-5-56 7-81s29-41 53-49 49-7 73 5c17 8 31 20 41 35 11 17 15 34 13 52 33-26 67-31 101-15 23 11 39 27 50 50 11 24 11 47 0 70z" class="fil0"/>
    <path id="path334" fill="#b7225c" d="M6522.33 2816.13c-51 0-102-32-155-95-37-44-70-99-101-164 12 2 24 4 36 4 29 0 56-9 80-28 19-17 38-35 58-52 23-19 49-28 77-28 27 0 50 9 67 28 18 18 26 41 26 69 0 19-5 36-15 52-11 17-25 29-42 33 38 19 57 48 57 85 0 25-8 47-25 66-17 20-38 30-63 30z" class="fil2"/>
    <path id="path336" fill="#e09eac" d="M5136.33 6806.13c40 31 61 88 63 170 2 57-5 121-21 191-8-10-17-18-26-25-23-18-50-27-80-27l-78 6c-30 0-56-8-78-25s-34-38-36-63c-3-25 5-49 22-70 12-15 26-26 44-32 19-7 37-7 54 0-18-38-15-72 8-102 16-20 36-32 60-37 26-5 49 0 68 15z" class="fil1"/>
    <path id="path338" fill="#e3417a" d="M17915.33 6174.13c1 50-30 103-92 156-43 37-97 72-162 104 2-12 3-24 3-36-1-29-10-56-29-79-18-19-35-38-53-57-19-23-29-48-29-76 0-27 8-50 26-68s41-27 68-28c19 0 36 4 53 14 18 10 29 24 34 41 19-38 47-57 84-58 25 0 47 7 67 23 20 17 30 38 31 63z" class="fil0"/>
    <path id="path340" fill="#b7225c" d="M2838.33 599.13c4 50-23 104-81 162-41 40-92 79-154 115 1-13 1-25 0-36-3-29-14-55-35-77-19-18-38-35-57-53-21-22-32-46-35-74-2-27 5-50 22-70 17-19 39-30 66-32 19-2 37 2 53 10 18 9 31 22 37 39 16-39 43-61 80-64 25-2 48 4 68 19 21 15 33 36 35 60z" class="fil2"/>
    <path id="path342" fill="#e09eac" d="M13481.33 8226.13c-27 43-81 70-162 81-57 8-121 7-193-1 9-9 16-19 22-28 16-25 22-52 19-83-5-26-9-51-14-77-3-30 2-56 17-80 14-23 34-37 59-43 25-5 49-1 72 14 16 10 28 23 37 40 9 18 11 36 6 53 36-22 70-23 102-3 21 13 36 32 43 56 8 25 5 48-8 69z" class="fil1"/>
    <path id="path344" fill="#b7225c" d="M11297.33 9725.13c37 34 53 93 48 175-3 57-16 120-38 189-8-10-15-19-24-27-21-20-47-31-78-34-26 0-52-1-78-1-30-2-55-13-75-32s-30-41-31-66c0-25 9-48 28-68 13-14 28-23 46-28 20-5 38-4 53 4-14-40-9-74 17-101 17-18 38-29 63-32 26-3 48 4 67 21z" class="fil2"/>
    <path id="path346" fill="#b7225c" d="M16936.33 8240.13c-25 44-78 73-160 86-56 10-121 12-193 6 8-10 15-19 21-29 15-25 20-53 16-83-5-25-11-51-17-76-4-30 0-56 14-80s33-39 58-45 49-2 73 12c16 9 29 22 38 39 10 18 12 36 8 53 36-23 70-25 102-6 22 13 37 31 45 55 9 25 7 48-6 70z" class="fil2"/>
    <path id="path348" fill="#e09eac" d="M19296.33 5535.13c-16 48-62 87-138 118-53 21-116 36-187 46 6-11 11-22 14-33 9-28 8-56-2-85-11-24-21-47-32-71-11-28-11-55-3-82 8-26 24-45 47-56s47-12 74-4c18 6 33 16 45 30 13 16 20 32 19 50 30-30 63-39 99-28 24 8 42 22 55 44 14 23 17 46 9 69z" class="fil1"/>
    <path id="path350" fill="#e3417a" d="M15872.33 444.13c-16 48-62 87-138 118-53 21-116 36-187 46 6-11 11-22 14-33 9-28 8-56-2-85-11-24-21-47-32-71-11-28-11-55-3-82 8-26 24-45 47-56s47-12 74-4c18 6 33 16 45 30 13 16 20 32 19 50 30-30 63-39 99-28 24 8 42 22 55 44 14 23 17 46 9 69z" class="fil0"/>
    <path id="path352" fill="#e09eac" d="M11348.33 7820.13c20 46 11 106-27 179-26 51-63 103-111 157-3-12-6-24-11-34-11-27-31-48-57-63-24-11-47-22-71-33-26-14-45-34-56-60-11-25-11-49-1-73 10-23 28-40 53-51 17-7 35-10 54-7 20 3 36 12 47 26 3-42 22-71 56-85 23-10 47-11 71-3 25 8 42 24 52 47z" class="fil1"/>
    <path id="path354" fill="#e09eac" d="M13180.33 6873.13c-22 45-73 78-153 97-56 14-119 20-192 19 8-10 14-20 19-31 13-26 16-54 10-84-7-25-14-50-22-75-7-29-4-56 8-81s30-41 54-49 49-6 73 6c17 8 30 20 41 36 11 17 15 35 12 52 34-25 68-30 101-14 23 11 39 28 49 51 10 24 10 47-1 70z" class="fil1"/>
    <path id="path356" fill="#e09eac" d="M14503.33 6093.13c-31 40-88 61-170 63-57 2-121-5-191-21 10-8 18-17 25-26 18-23 27-50 27-80l-6-78c0-30 8-56 25-78s38-34 63-36c25-3 49 5 70 22 15 12 26 26 32 44 7 19 7 37 0 54 38-18 72-15 102 8 20 16 32 36 37 60 5 26 0 49-15 68z" class="fil1"/>
    <path id="path358" fill="#e09eac" d="M14541.33 11612.13c-17 47-65 85-142 113-54 19-117 32-189 39 6-11 12-22 16-32 10-28 10-56 1-85-10-24-20-48-29-72-10-28-10-56 0-82 9-26 26-44 49-54s48-11 74-1c18 6 32 17 44 32 13 16 18 33 17 51 31-29 64-37 99-24 24 9 42 24 54 46 13 23 15 46 6 70z" class="fil1"/>
    <path id="path360" fill="#e09eac" d="M461.33 7579.13c7 50-17 105-73 166-39 42-88 83-148 123 1-13 0-25-1-36-4-29-17-54-39-75-20-17-40-33-60-50-22-21-35-45-38-72-4-27 2-51 18-71s37-32 64-36c19-3 37 0 54 7 19 8 32 21 39 37 14-40 39-63 76-68 25-4 48 2 69 15 22 14 35 34 38 58z" class="fil1"/>
    <path id="path362" fill="#b7225c" d="M17020.33 5570.13c-30 40-87 62-169 66-57 3-121-3-192-18 9-9 17-17 24-26 18-23 26-50 26-81-2-26-5-52-7-77-1-30 7-56 24-78 16-22 37-34 63-37 25-3 49 4 71 20 15 11 26 26 33 43 7 19 8 37 1 54 38-19 72-17 102 6 20 15 33 35 38 60 6 26 1 49-14 68z" class="fil2"/>
    <path id="path364" fill="#b7225c" d="M8956.33 11556.13c-32 39-89 59-171 60-57 1-121-7-191-24 10-8 18-17 25-26 18-23 28-49 29-80-1-26-3-52-4-78 0-30 9-56 27-77 17-21 38-33 64-35 25-2 49 5 70 23 15 12 25 27 31 44 7 19 7 37 0 54 39-17 73-14 102 10 20 16 32 36 36 61 5 26-1 49-17 68z" class="fil2"/>
    <path id="path366" fill="#e09eac" d="M7986.33 4935.13c6 47-18 99-71 155-37 39-84 77-141 113 1-12 1-23-1-34-3-27-15-51-35-71-18-16-37-32-55-48-20-20-32-42-35-68-3-25 3-47 18-66s35-29 61-32c18-2 34 0 50 8 17 8 29 20 36 35 14-37 38-58 73-62 24-3 45 2 65 15 20 14 32 32 35 55z" class="fil1"/>
    <path id="path368" fill="#b7225c" d="M14061.33 758.13c33 33 47 89 40 165-5 53-19 112-41 176-7-10-14-18-21-26-19-19-43-31-72-35-24-1-49-2-73-3-28-3-51-14-69-32s-27-39-26-63 10-45 28-63c12-12 27-21 44-25 19-4 35-3 50 6-12-38-6-69 19-94 17-17 37-26 60-28 25-2 45 6 62 22z" class="fil2"/>
    <path id="path370" fill="#e3417a" d="M15874.33 9668.13c-15 45-59 81-131 108-50 19-109 32-176 40 6-10 11-20 14-31 9-26 9-53 0-79-10-22-19-45-29-67-9-26-10-52-1-77 8-24 23-41 45-51s45-11 69-2c17 6 31 15 42 29 12 15 18 31 17 47 29-28 60-36 93-24 22 8 39 22 51 42 12 21 15 43 7 65z" class="fil0"/>
    <path id="path372" fill="#b7225c" d="M5237.33 8827.13c4 47-21 98-76 152-38 38-86 74-145 108 1-12 1-23 0-34-2-27-13-52-33-72-18-17-36-33-54-49-19-20-30-43-32-69s5-47 20-65c16-18 36-28 62-30 18-2 34 2 50 9 17 9 29 21 35 36 15-37 40-57 75-60 24-2 45 4 64 18 20 14 31 33 33 57z" class="fil2"/>
    <path id="path374" fill="#e3417a" d="M10750.33 2436.13c-28 38-80 60-157 65-54 3-114-1-180-13 9-8 16-17 22-25 16-22 24-48 23-76-3-24-5-48-8-72-1-28 6-53 21-74s34-33 58-36 46 3 67 18c14 10 25 24 32 40 7 18 8 35 2 50 35-18 67-17 96 4 19 14 31 32 37 55 6 24 2 45-12 64z" class="fil0"/>
    <path id="path376" fill="#e09eac" d="M2517.33 5479.13c-5 47-40 92-104 135-45 30-99 56-163 78 3-11 6-22 7-33 3-27-3-53-18-77-14-20-29-39-43-59-15-24-21-48-19-74 3-25 13-46 32-60 19-15 41-21 67-18 18 2 33 8 47 19 15 12 24 26 27 42 22-33 50-48 85-44 24 2 43 12 59 29 17 18 24 39 22 62z" class="fil1"/>
    <path id="path378" fill="#b7225c" d="M7829.33 3123.13c27 39 31 95 10 170-14 52-38 107-71 166-5-11-10-21-16-29-16-23-37-38-64-46-24-5-47-11-71-16-27-8-48-23-63-44s-20-43-15-67c5-23 17-43 39-57 14-10 30-16 48-17 19-1 35 4 48 14-6-39 6-69 35-89 19-14 41-19 64-17 25 3 44 13 57 32z" class="fil2"/>
    <path id="path380" fill="#e09eac" d="M9120.33 9866.13c-20 43-67 74-142 94-52 14-112 21-179 21 7-10 13-19 17-29 12-25 14-51 8-79-7-23-14-46-22-70-7-27-4-53 7-76s28-39 50-46c23-8 46-6 69 5 16 7 29 19 39 33 11 16 15 32 12 49 31-24 63-29 95-14 21 10 37 26 47 47 10 23 10 44 0 66z" class="fil1"/>
    <path id="path382" fill="#b7225c" d="M8948.33 4163.13c39 26 63 78 70 155 5 53 3 114-7 180-8-8-17-16-26-21-23-15-48-22-77-20-24 3-48 7-72 10-28 2-53-4-74-18s-34-33-38-57 1-46 16-67c10-15 23-26 39-33 18-8 34-9 50-4-19-35-19-67 1-96 13-20 31-32 54-39 24-6 45-3 65 10z" class="fil2"/>
    <path id="path384" fill="#e09eac" d="M3671.33 2547.13c13 46-2 100-46 164-30 44-71 89-121 134-1-12-3-23-6-33-8-26-23-48-46-65-21-13-41-26-62-38-23-16-38-37-45-62s-5-47 7-68 30-34 55-42c17-5 34-5 51 0 19 5 32 15 41 29 8-39 28-63 62-73 23-7 45-5 66 5 22 10 37 27 43 49z" class="fil1"/>
    <path id="path386" fill="#b7225c" d="M18056.33 6928.13c-26 40-77 64-154 73-53 6-113 5-181-4 8-9 15-17 21-26 15-23 21-49 19-77l-12-72c-3-28 3-53 17-75 14-21 33-34 56-39 23-4 46 0 68 14 15 10 26 22 34 38 8 17 10 34 5 50 34-20 66-20 96-1 20 13 33 31 40 53 7 24 4 45-9 65z" class="fil2"/>
    <path id="path388" fill="#e09eac" d="M11811.33 11830.13c-28 38-80 60-157 65-54 3-114-1-180-13 9-8 16-17 22-25 16-22 24-48 23-76-3-24-5-48-8-72-1-28 6-53 21-74s34-33 58-36 46 3 67 18c14 10 25 24 32 40 7 18 8 35 2 50 35-18 67-17 96 4 19 14 31 32 37 55 6 24 2 45-12 64z" class="fil1"/>
    <path id="path390" fill="#e3417a" d="M3048.33 10390.13c23 34 25 83 6 147-13 45-35 92-64 143-4-9-9-18-14-26-13-20-32-33-55-41-20-5-41-10-61-15-23-7-41-20-54-39-12-18-16-38-12-58s16-37 34-49c13-9 27-13 42-14 17-1 31 4 42 13-4-34 6-60 32-77 17-11 36-16 56-14 21 3 37 12 49 29z" class="fil0"/>
    <path id="path392" fill="#e09eac" d="M4251.33 9560.13c3 41-20 85-68 131-34 32-76 63-127 91 1-10 1-20 1-29-2-24-11-45-27-63-15-15-30-29-46-44-16-18-25-38-27-61-2-22 5-41 19-56s32-24 54-25c15-1 30 2 43 9 15 8 25 18 29 32 13-32 35-49 66-51 21-1 39 4 55 16 17 13 26 29 28 50z" class="fil1"/>
    <path id="path394" fill="#b7225c" d="M7562.33 9339.13c12 39 0 87-37 143-26 39-60 78-103 118-1-10-3-20-6-29-7-23-21-41-41-56-18-11-36-22-54-32-20-14-33-31-40-53-6-21-5-41 5-59s26-30 47-37c15-4 29-5 44-1 16 4 28 12 36 25 6-34 24-55 53-64 20-6 39-5 57 3 20 9 32 23 38 42z" class="fil2"/>
    <path id="path396" fill="#e3417a" d="M17709.33 9354.13c2 41-21 84-70 129-34 32-77 61-129 89 1-10 2-20 1-29-1-24-10-45-26-64-15-15-30-30-45-44-16-18-25-39-26-61s5-41 20-56c14-15 32-23 55-24 15-1 30 2 43 10 15 8 24 19 29 33 14-31 36-48 67-50 21-1 39 5 55 17 17 13 26 30 27 50z" class="fil0"/>
    <path id="path398" fill="#e09eac" d="M15614.33 3425.13c9 40-8 86-49 139-29 36-67 73-113 108 0-10-1-20-3-29-5-23-17-43-36-59-17-12-34-25-51-37-19-15-31-34-35-56-5-22-1-41 11-58s28-28 50-33c15-3 30-2 44 3 16 6 27 15 34 28 9-33 28-53 58-59 20-4 39-1 57 8 19 10 30 25 34 45z" class="fil1"/>
    <path id="path400" fill="#e09eac" d="M14079.33 2314.13c26 32 32 81 19 146-9 46-26 95-52 148-5-9-10-17-16-24-15-19-35-31-59-36-21-3-42-6-62-10-24-5-43-17-57-34s-20-36-17-57 13-38 30-52c12-10 25-15 41-17 17-2 31 1 43 9-7-34 1-60 25-79 16-13 34-19 55-18s38 9 51 25z" class="fil1"/>
    <path id="path402" fill="#e09eac" d="M406.33 4811.13c-29 30-76 42-143 37-46-4-97-15-153-33 8-6 16-12 22-19 17-17 26-38 29-63 1-21 1-42 2-63 2-24 11-44 27-61 15-16 33-24 54-24s39 8 55 23c11 11 18 23 22 38 4 16 3 31-4 43 33-11 60-6 82 15 15 14 23 32 25 52 2 21-4 39-18 54z" class="fil1"/>
    <path id="path404" fill="#b7225c" d="M15104.33 4095.13c-6 41-38 78-96 112-40 24-88 44-144 61 3-10 6-19 7-28 4-24 0-46-12-68-11-18-23-35-35-53-12-21-16-43-13-65s14-39 31-51 37-16 59-12c15 2 28 9 40 18 13 11 20 23 21 38 20-28 45-39 76-35 20 3 37 13 50 28 14 16 19 35 16 55z" class="fil2"/>
    <path id="path406" fill="#e3417a" d="M6319.33 6135.13c20 36 18 85-7 147-17 43-42 89-76 137-3-10-7-19-12-27-12-21-29-36-51-46-20-7-40-14-60-20-22-9-39-24-50-43s-13-39-7-59 19-35 38-46c13-7 28-11 43-10 17 1 30 6 40 17-1-34 12-59 38-74 18-10 37-13 57-9 21 4 36 15 46 33z" class="fil0"/>
    <path id="path408" fill="#e09eac" d="M12311.33 818.13c17 37 12 86-17 146-20 42-49 86-86 131-3-10-6-19-10-28-10-22-26-38-48-49-19-8-39-16-58-24-22-11-37-26-47-47-9-20-10-40-3-59 8-19 21-34 42-43 14-6 28-9 44-7 17 2 30 8 39 19 1-34 16-58 43-71 19-9 38-10 57-5 21 6 35 18 44 36z" class="fil1"/>
    <path id="path410" fill="#b7225c" d="M15645.33 6840.13c-5 41-36 79-92 115-39 25-87 47-142 66 3-10 5-19 6-28 3-24-2-46-15-67-12-17-24-34-36-52-13-21-18-42-15-65 3-22 12-39 29-52 17-12 36-17 58-15 15 2 29 8 41 17 13 10 21 23 23 37 19-29 44-41 74-37 20 3 37 11 51 26 14 16 20 34 18 54z" class="fil2"/>
    <path id="path412" fill="#e3417a" d="M8790.33 8349.13c29 24 43 67 43 129 0 43-7 91-21 143-6-7-12-14-19-19-17-14-37-22-59-23-19 1-39 1-58 2-22-1-42-8-58-21s-24-29-25-48 5-36 18-52c9-11 20-18 34-23 15-5 28-5 40 1-12-29-10-55 9-76 12-15 28-23 46-26 19-3 36 1 51 13z" class="fil0"/>
    <path id="path414" fill="#e3417a" d="M9108.33 3684.13c12 36 2 80-30 133-22 37-53 74-91 112-1-9-3-18-6-26-7-21-20-37-39-50-17-9-34-19-51-28-19-12-32-28-39-48-7-19-6-38 3-55s23-29 42-36c13-5 27-5 41-2 15 3 26 11 34 22 4-31 20-52 47-61 18-6 36-6 53 1 18 7 30 20 37 38z" class="fil0"/>
    <path id="path416" fill="#e3417a" d="M13201.33 10055.13c7 37-9 80-48 127-27 33-63 66-106 98 0-10-1-18-2-27-4-22-15-40-32-55-16-12-31-23-47-35-17-15-28-32-32-52s0-38 11-54 27-25 47-29c14-3 27-2 41 3s25 14 31 26c9-31 27-49 55-54 19-4 36-1 52 9 17 10 27 24 31 42z" class="fil0"/>
    <path id="path418" fill="#e3417a" d="M9639.33 9681.13c5 38-14 79-57 124-29 31-67 61-113 90 1-9 0-18-1-27-3-22-12-41-28-57-15-13-29-25-44-38-16-16-25-34-28-55-3-20 2-38 14-53s28-23 49-26c14-2 27 0 40 6 14 6 24 16 29 28 11-30 30-47 58-50 19-2 36 2 52 12 16 11 26 26 28 44z" class="fil0"/>
    <path id="path420" fill="#e3417a" d="M2944.33 2557.13c18 33 15 79-8 136-16 40-41 81-73 125-3-9-6-17-10-25-10-19-26-34-47-43-18-7-37-13-55-20-21-9-36-23-46-41s-11-36-5-54 18-32 36-42c12-7 26-9 40-9 15 1 28 6 37 16-1-32 12-54 36-67 17-9 34-11 53-7s33 15 42 31z" class="fil0"/>
    <path id="path422" fill="#b7225c" d="M12637.33 8732.13c24 29 31 74 20 135-8 42-23 88-45 137-5-8-10-16-15-22-14-17-32-28-55-32-19-3-39-5-58-8-22-4-40-15-53-31s-19-33-17-52 11-35 27-48c11-9 23-15 37-17 15-2 28 0 39 8-7-31 0-56 22-74 15-12 31-18 50-18 20 0 36 8 48 22z" class="fil2"/>
    <path id="path424" fill="#e09eac" d="M10080.33 5818.13c25 28 34 73 25 134-6 42-20 89-40 139-5-8-10-15-16-22-15-16-33-27-56-31-19-2-39-4-58-6-22-4-40-13-54-29-14-15-20-32-18-51 1-19 10-35 25-49 10-9 23-15 37-18 15-3 28-1 40 7-8-31-2-55 19-74 14-13 31-19 49-20 20 0 36 6 48 20z" class="fil1"/>
    <path id="path426" fill="#e09eac" d="M14984.33 5846.13c20 32 20 78 1 136-14 41-35 84-64 130-3-9-7-17-12-24-12-19-28-32-50-40-19-5-37-11-56-16-21-7-37-20-48-38-11-17-14-35-9-54s16-33 33-44c12-7 25-11 39-11 15 0 28 4 38 13-3-32 8-55 32-70 16-10 33-14 52-11s34 13 44 28z" class="fil1"/>
    <path id="path428" fill="#e09eac" d="M3969.33 6031.13c10 36-2 80-36 131-24 35-57 71-97 107-1-9-2-18-5-26-6-21-18-38-37-52-17-10-33-21-50-31-18-13-30-30-36-50s-4-38 6-54c10-17 24-28 44-33 14-4 27-4 41 0 15 4 26 12 33 23 6-31 23-51 50-58 18-5 36-4 53 4 18 8 29 21 35 39z" class="fil1"/>
    <path id="path430" fill="#e3417a" d="M18828.33 8015.13c17 34 14 79-11 136-17 39-42 81-75 123-3-9-6-17-10-25-10-20-25-34-46-44-18-7-36-14-55-21-20-9-35-23-45-42-9-18-11-36-5-54s19-32 37-41c13-6 26-9 40-8 15 1 28 7 37 17 0-32 13-54 38-67 17-9 34-11 53-6s33 15 41 32z" class="fil0"/>
    <path id="path432" fill="#e09eac" d="M10293.33 10558.13c30 23 46 66 48 127 1 43-4 91-16 144-6-7-13-13-19-19-17-14-37-20-60-20-19 1-39 3-58 4-22 0-42-6-58-19s-25-28-27-47 3-37 16-53c9-11 20-19 33-24 14-5 28-5 40 0-13-29-11-54 6-76 12-15 27-24 45-28 19-4 36 0 51 12z" class="fil1"/>
    <path id="path434" fill="#b7225c" d="M16239.33 3265.13c27 26 39 70 34 132-3 43-13 90-31 141-5-8-11-15-17-21-16-15-35-24-58-27-19-1-39-1-58-2-22-2-41-10-56-25-15-14-22-31-22-50s7-36 22-51c10-10 22-17 35-21 15-4 28-3 40 4-10-30-6-55 14-75 13-14 29-21 48-23 20-2 36 4 50 17z" class="fil2"/>
    <path id="path436" fill="#b7225c" d="M7057.33 7883.13c6 37-12 79-52 126-28 32-65 64-109 94 0-10 0-18-2-27-3-22-14-40-30-56l-45-36c-17-15-26-33-30-54-3-20 1-38 13-53s27-24 48-28c14-2 27-1 41 5s24 15 30 27c10-30 29-48 56-52 19-3 36 1 52 10 17 10 27 25 30 43z" class="fil2"/>
    <path id="path438" fill="#e09eac" d="M11240.33 5984.13c-21 31-63 50-124 56-43 4-91 2-144-6 7-7 12-14 17-21 12-18 18-39 16-61-3-19-6-39-8-58-2-22 3-42 15-59 11-17 27-27 45-30 19-3 37 1 54 12 12 8 20 18 26 31 6 14 7 27 3 40 28-15 53-15 77 0 16 11 26 25 31 43 5 19 2 36-8 52z" class="fil1"/>
    <path id="path440" fill="#e3417a" d="M13994.33 4239.13c15 35 9 80-18 135-19 38-46 78-81 119-2-9-5-18-8-26-9-20-24-36-44-46-18-8-36-16-53-23-20-10-34-25-43-44-8-19-9-37-2-55s20-31 39-39c13-6 26-8 40-6 15 2 27 8 36 19 2-32 15-53 41-65 17-8 35-9 53-3 19 6 32 17 40 34z" class="fil0"/>
    <path id="path442" fill="#b7225c" d="M7077.33 12611.13c2 38-20 78-65 120-32 29-71 57-119 82 1-9 2-18 1-27-1-22-9-42-24-59-14-14-28-27-41-41-15-17-23-36-24-56s5-38 18-52 30-21 50-22c14-1 27 2 40 9s22 17 27 30c13-29 33-44 62-46 19-1 36 4 51 16 16 12 24 28 25 46z" class="fil2"/>
    <path id="path444" fill="#e09eac" d="M14212.33 7826.13c18 33 16 78-6 136-16 40-39 82-71 126-3-9-7-17-11-25-11-19-27-33-47-42-18-6-37-13-55-19-21-9-36-22-46-40s-12-36-6-54 17-32 36-42c12-7 26-10 40-9 15 1 28 6 37 15-1-32 11-54 35-68 17-9 34-12 52-8 19 4 33 14 43 31z" class="fil1"/>
    <path id="path446" fill="#b7225c" d="M12753.33 3996.13c-22 31-64 48-126 52-43 3-91-1-144-11 7-7 13-13 18-20 13-18 19-38 18-61-2-19-4-39-6-58-1-22 5-42 17-59s28-26 46-29c19-3 37 2 53 14 11 8 20 19 25 32 6 14 6 28 2 40 28-14 54-13 77 3 15 11 25 26 29 44 4 19 1 36-10 51z" class="fil2"/>
    <path id="path448" fill="#e3417a" d="M15462.33 1632.13c26 27 36 72 29 133-5 43-17 89-36 140-5-8-11-15-17-21-15-16-34-25-57-29-19-1-39-3-58-4-22-3-41-12-55-27s-21-32-20-51 9-36 23-50c10-10 22-16 36-19 15-3 28-2 40 5-9-30-4-55 16-75 14-13 30-20 49-21 20-1 36 5 49 19z" class="fil0"/>
    <path id="path450" fill="#b7225c" d="M12892.33 12544.13c26 28 35 72 27 133-5 43-18 89-38 139-5-8-10-15-16-21-15-16-34-26-56-30-19-2-39-3-58-5-22-3-40-13-55-28-14-15-20-32-19-51s9-36 24-50c10-10 22-16 36-19 15-3 28-1 40 6-9-31-3-55 18-75 14-13 30-20 49-20 20-1 36 6 49 19z" class="fil2"/>
    <path id="path452" fill="#e09eac" d="M17374.33 1268.13c-27 26-72 36-133 29-43-5-89-17-140-36 8-5 15-11 21-17 16-15 25-34 29-57 1-19 3-39 4-58 3-22 12-41 27-55s32-21 51-20 36 9 50 23c10 10 16 22 19 36 3 15 2 28-5 40 30-9 55-4 75 16 13 14 20 30 21 49 1 20-5 36-19 49z" class="fil1"/>
    <path id="path454" fill="#e3417a" d="M2234.33 8622.13c1 38-22 77-69 117-33 28-73 54-122 78 2-9 2-18 2-27 0-22-8-42-22-60-13-14-27-28-40-42-14-17-22-36-22-57 0-20 6-37 20-51 14-13 31-20 51-21 14 0 27 3 39 10 13 8 22 18 26 31 14-29 35-43 63-44 19 0 36 6 50 18 15 13 23 28 23 47z" class="fil0"/>
    <path id="path456" fill="#e09eac" d="M860.33 6010.13c23 30 28 75 15 135-9 42-26 87-50 136-4-8-9-16-14-23-14-17-31-29-53-34-19-3-38-7-57-10-22-5-39-16-52-32s-18-34-15-53 12-35 28-47c11-9 24-14 38-15 15-2 28 1 39 9-6-31 2-55 24-73 15-12 32-17 51-16 20 1 35 9 47 24z" class="fil1"/>
    <path id="path458" fill="#e09eac" d="M10416.33 13167.13c1 38-22 77-69 117-33 28-73 54-122 78 2-9 2-18 2-27 0-22-8-42-22-60-13-14-27-28-40-42-14-17-22-36-22-57 0-20 6-37 20-51 14-13 31-20 51-21 14 0 27 3 39 10 13 8 22 18 26 31 14-29 35-43 63-44 19 0 36 6 50 18 15 13 23 28 23 47z" class="fil1"/>
    <path id="path460" fill="#e09eac" d="M11735.33 10911.13c-28 26-72 35-133 27-43-5-89-18-139-38 8-5 15-10 21-16 16-15 26-34 30-56 2-19 3-39 5-58 3-22 13-40 28-55 15-14 32-20 51-19s36 9 50 24c10 10 16 22 19 36 3 15 1 28-6 40 31-9 55-3 75 18 13 14 20 30 20 49 1 20-6 36-19 49z" class="fil1"/>
    <path id="path462" fill="#e09eac" d="M16843.33 2669.13c-23 30-65 47-127 50-43 2-91-2-144-13 7-6 13-13 18-20 13-18 20-38 19-61-2-19-4-39-5-58-1-22 5-42 18-59 12-16 28-26 47-28s37 3 53 15c11 9 19 19 25 32 6 14 6 28 1 40 29-14 54-12 77 5 15 11 25 26 29 45s1 36-11 51z" class="fil1"/>
    <path id="path464" fill="#e09eac" d="M9061.33 10316.13c-15 35-53 60-112 77-41 12-89 18-143 19 5-8 10-16 13-23 9-20 11-41 5-63-6-19-12-37-18-55-6-22-4-42 4-61s22-31 39-38c18-6 36-6 55 3 13 6 23 14 31 26 9 13 12 26 10 39 25-20 50-24 76-13 17 8 30 20 38 37 8 18 9 35 1 52z" class="fil1"/>
    <path id="path466" fill="#e3417a" d="M6040.33 237.13c3 38-17 78-61 122-31 30-69 59-116 86 1-9 1-18 0-27-2-22-11-41-26-58-14-13-29-26-43-40-15-16-24-35-26-55s4-38 16-52c13-14 29-22 50-24 14-1 27 1 40 8 14 7 23 17 28 29 12-29 32-45 60-48 19-2 36 3 51 14 16 12 25 27 26 45z" class="fil0"/>
    <path id="path468" fill="#b7225c" d="M1904.33 6873.13c-10 36-44 67-100 92-39 17-86 30-139 39 4-8 8-17 10-25 6-21 5-42-4-63-9-18-17-35-26-52-9-21-10-41-4-61s17-34 34-43 35-11 55-5c14 4 25 11 35 21 10 11 16 24 15 37 22-23 46-31 73-23 18 5 32 16 43 31 11 17 14 34 8 52z" class="fil2"/>
    <path id="path470" fill="#b7225c" d="M6385.33 5794.13c-9 37-40 69-95 97-38 19-84 35-137 46 4-9 7-17 9-25 5-21 3-43-7-63-9-17-19-34-29-51-10-20-12-41-8-61 5-20 15-35 32-45 16-10 35-12 55-8 14 3 26 10 36 20 11 11 17 23 17 36 20-24 44-33 72-27 18 4 33 14 44 29 12 16 15 33 11 51z" class="fil2"/>
    <path id="path472" fill="#b7225c" d="M15801.33 5333.13c3 38-18 78-63 121-31 30-70 58-117 84 1-9 1-18 1-27-2-22-10-41-25-58-14-14-28-27-42-40-15-16-23-35-25-56-1-20 4-38 17-52s30-22 50-23c14-1 27 2 40 8 14 7 23 17 27 30 12-29 33-45 61-47 19-1 36 4 51 15 16 12 24 27 26 46z" class="fil2"/>
    <path id="path474" fill="#e3417a" d="M4973.33 26.13c18 30 17 71-1 125-13 37-33 76-61 118-3-8-7-16-11-22-10-17-25-30-45-37l-51-15c-19-7-34-19-44-35s-12-33-8-49c5-17 15-30 31-40 11-7 23-10 36-10 14 0 26 4 35 13-2-29 8-50 30-64 15-9 31-12 48-9 18 3 31 12 40 27z" class="fil0"/>
    <path id="path476" fill="#e09eac" d="M17613.33 3638.13c-26 23-67 30-123 20-39-6-81-19-126-39 8-4 14-9 20-14 15-13 25-30 29-51 2-18 4-35 6-53 4-20 13-37 27-49s30-18 47-16 32 10 45 24c8 10 14 21 16 34 2 14 0 26-7 36 28-7 51-1 68 19 11 13 17 28 17 46s-6 33-19 44z" class="fil1"/>
    <path id="path478" fill="#e3417a" d="M17865.33 4551.13c-24 25-64 35-121 31-39-3-82-12-129-28 7-5 13-10 19-16 14-15 22-32 24-53 1-18 1-36 2-53 2-20 10-38 23-51 13-14 28-20 46-20s33 7 47 20c9 9 16 20 19 32 3 14 2 26-4 37 28-9 51-5 69 13 13 12 19 27 21 44 2 18-4 33-15 45z" class="fil0"/>
    <path id="path480" fill="#e09eac" d="M5721.33 6913.13c22 27 27 68 16 124-8 39-22 80-44 125-4-8-9-15-14-21-13-16-29-26-50-31-18-3-35-5-53-8-20-4-36-14-48-29s-17-31-14-48c2-17 11-32 25-44 10-8 21-13 34-15 14-2 26 1 36 8-6-28 1-51 21-67 14-11 29-16 46-16 18 1 33 8 43 21z" class="fil1"/>
    <path id="path482" fill="#e09eac" d="M11430.33 1510.13c5 34-12 73-50 114-26 29-60 57-102 85 0-9 0-17-1-25-3-20-12-37-27-52-14-11-27-23-41-34-15-14-24-31-26-50-3-19 2-35 12-49 11-14 26-22 44-25 13-2 25 0 37 5 13 6 22 14 27 25 9-28 27-43 53-47 17-2 33 1 48 10 15 10 24 23 26 40z" class="fil1"/>
    <path id="path484" fill="#e3417a" d="M12373.33 5829.13c28 21 43 60 46 116 2 39-2 83-12 132-6-6-12-12-18-17-16-12-35-18-55-18-18 2-36 3-53 5-21 1-38-5-54-16-15-11-24-26-26-43s3-34 14-49c8-10 18-18 30-23 13-5 25-5 37-1-13-26-11-50 4-70 10-14 24-23 41-26 18-4 33-1 47 10z" class="fil0"/>
    <path id="path486" fill="#e09eac" d="M2274.33 1783.13c-15 31-50 54-105 67-38 9-82 14-132 13 5-7 10-14 13-21 9-18 11-37 7-58l-15-51c-5-20-3-39 6-56 8-17 21-28 37-33 17-5 33-4 50 4 12 6 21 14 28 25 8 12 10 24 8 36 23-18 47-21 70-9 16 8 27 19 34 35 7 17 7 33-1 48z" class="fil1"/>
    <path id="path488" fill="#e3417a" d="M1635.33 7310.13c21 27 26 69 14 124-8 38-24 80-46 124-4-8-8-15-13-21-12-16-29-26-49-32-18-3-35-6-53-9-20-5-36-15-48-30s-16-31-14-48c3-17 11-32 26-43 10-8 22-13 35-14 14-2 26 1 36 9-6-29 2-51 22-67 14-11 29-16 46-15 18 1 32 8 43 22z" class="fil0"/>
    <path id="path490" fill="#e09eac" d="M18854.33 5329.13c5 34-12 73-50 114-26 29-60 57-102 85 0-9 0-17-1-25-3-20-12-37-27-52-14-11-27-23-41-34-15-14-24-31-26-50-3-19 2-35 12-49 11-14 26-22 44-25 13-2 25 0 37 5 13 6 22 14 27 25 9-28 27-43 53-47 17-2 33 1 48 10 15 10 24 23 26 40z" class="fil1"/>
    <path id="path492" fill="#b7225c" d="M8538.33 8916.13c7 34-7 73-42 118-24 31-56 61-96 92 0-9-1-17-3-25-4-20-14-36-30-50-14-11-29-21-43-31-16-13-26-29-30-48-4-18-1-35 9-49s24-24 42-28c13-3 25-2 37 2 13 5 23 13 28 23 8-28 24-45 49-50 17-4 33-1 48 7 16 9 26 21 29 38z" class="fil2"/>
    <path id="path494" fill="#e09eac" d="M19434.33 5902.13c14 32 7 73-19 123-18 35-44 71-76 108-2-9-4-16-7-24-8-19-21-33-39-43-16-8-32-15-49-22-18-10-31-23-38-41-7-17-8-34-1-50s19-28 36-35c12-5 24-7 37-5 14 2 25 8 32 18 2-29 15-49 39-59 16-7 32-8 49-2s29 16 36 32z" class="fil1"/>
    <path id="path496" fill="#e3417a" d="M6187.33 10443.13c14 32 9 73-16 124-17 35-42 72-75 109-2-8-5-16-8-23-8-18-22-33-40-42-16-7-33-14-49-22-18-9-31-23-39-40s-8-34-2-50c7-16 19-28 36-36 12-5 24-7 37-5 14 2 25 8 33 17 2-29 14-49 38-59 16-7 32-8 49-3s29 16 36 31z" class="fil0"/>
    <path id="path498" fill="#e09eac" d="M14246.33 6464.13c28 20 44 59 48 115 3 39-1 83-10 132-6-6-12-12-18-16-16-12-35-17-56-17-18 2-35 4-53 6-21 1-39-4-54-15s-24-25-26-43c-2-17 2-34 13-49 8-10 17-18 29-23 13-5 25-6 37-2-13-26-12-49 3-70 10-14 24-23 41-27 18-4 33-1 47 9z" class="fil1"/>
    <path id="path500" fill="#b7225c" d="M7443.33 10699.13c22 27 28 68 18 123-7 39-21 81-41 126-4-8-9-14-14-20-13-15-30-25-50-30-18-3-35-5-53-7-20-4-36-13-49-28-12-14-17-30-15-48 2-17 10-32 25-44 10-8 21-13 34-15 14-2 26 0 36 7-7-28 0-51 20-67 13-11 29-17 46-16 18 0 33 7 44 20z" class="fil2"/>
    <path id="path502" fill="#b7225c" d="M6212.33 3017.13c-27 21-69 26-124 14-38-8-80-24-124-46 8-4 15-8 21-13 16-12 26-29 32-49 3-18 6-35 9-53 5-20 15-36 30-48s31-16 48-14c17 3 32 11 43 26 8 10 13 22 14 35 2 14-1 26-9 36 29-6 51 2 67 22 11 14 16 29 15 46-1 18-8 32-22 43z" class="fil2"/>
    <path id="path504" fill="#b7225c" d="M19164.33 4049.13c25 24 36 64 33 120-2 39-11 83-26 130-5-7-11-13-16-19-15-14-33-22-53-23-18 0-36-1-53-1-21-2-38-9-52-22s-21-28-21-45c0-18 6-33 19-47 9-9 19-16 32-19 14-4 26-3 37 3-10-27-6-51 11-69 12-13 26-20 44-22s33 3 46 15z" class="fil2"/>
    <path id="path506" fill="#b7225c" d="M5317.33 3136.13c20 28 22 70 7 125-10 38-28 79-52 122-4-8-8-15-12-22-12-17-27-28-47-34-17-4-35-8-52-12-20-6-35-17-46-32s-14-32-11-49 13-31 28-42c11-7 22-12 35-12 14-1 26 3 35 10-4-29 5-51 26-65 14-10 30-14 47-12 18 2 32 10 42 24z" class="fil2"/>
    <path id="path508" fill="#e3417a" d="M12656.33 1977.13c-29 19-70 21-125 5-38-11-78-29-121-54 8-3 15-7 22-12 17-11 28-27 35-47 4-17 9-35 13-52 6-20 17-35 33-45 16-11 32-14 49-10s31 13 41 29c7 11 11 23 12 36 1 14-3 26-11 35 29-4 51 5 65 27 10 14 14 30 11 47-2 18-10 32-25 41z" class="fil0"/>
    <path id="path510" fill="#b7225c" d="M7566.33 7305.13c-7 34-35 65-84 92-35 19-76 35-124 47 3-8 6-16 7-24 4-20 1-39-8-58-9-15-18-31-28-46-10-18-12-37-9-55 4-18 13-32 27-42 15-9 31-12 50-9 13 2 24 8 33 17 10 10 16 20 17 33 18-23 40-32 65-27 17 3 31 12 42 25 11 14 15 30 12 47z" class="fil2"/>
    <path id="path512" fill="#b7225c" d="M10389.33 2650.13c27 22 40 62 39 118 0 39-7 83-19 131-6-7-11-13-17-18-15-13-34-20-54-21-18 1-36 1-53 2-21 0-38-7-53-19-14-12-22-27-23-44s4-33 16-48c8-10 19-17 31-21 13-4 26-4 37 1-11-27-9-50 8-70 11-13 25-21 42-24 18-3 33 1 46 12z" class="fil2"/>
    <path id="path514" fill="#b7225c" d="M2327.33 3486.13c12 26 8 60-12 101-14 29-34 59-59 91-2-7-4-13-7-19-7-15-18-26-33-34-13-6-27-11-40-17-15-7-26-18-32-32s-7-28-2-41 15-23 29-30c10-4 20-6 30-5 11 1 20 6 27 13 1-24 11-40 30-49 13-6 26-7 40-3s24 12 30 25z" class="fil2"/>
    <path id="path516" fill="#e3417a" d="M4739.33 4740.13c-1 28-21 56-58 84-26 19-58 37-95 52 2-7 3-14 3-20 1-16-4-32-13-46-9-11-18-23-28-34-10-14-14-28-13-44 1-15 7-28 17-37 11-9 24-14 39-13 11 1 20 4 29 10 9 7 15 15 18 25 12-21 28-30 50-29 14 1 26 6 37 16s16 22 15 36z" class="fil0"/>
    <path id="path518" fill="#e09eac" d="M10276.33 14511.13c-12 26-41 44-86 55-31 8-67 11-108 11 4-6 8-11 11-17 7-15 9-31 6-47l-12-42c-4-16-2-32 5-46s17-23 31-27 27-3 41 4c10 5 17 11 23 20 6 10 8 20 7 29 19-14 38-17 57-8 13 6 22 16 27 29 6 14 6 27-1 39z" class="fil1"/>
    <path id="path520" fill="#e09eac" d="M9259.33 3150.13c28 0 57 19 86 55 20 25 39 56 55 93-7-1-14-2-20-2-17 0-32 5-45 15-11 10-22 19-33 29-13 10-28 15-43 15s-28-6-38-16c-10-11-14-23-14-39 0-11 3-20 9-29 6-10 14-16 24-18-21-11-31-27-31-48 0-14 5-27 15-37 10-11 22-16 36-16z" class="fil1"/>
    <path id="path522" fill="#e09eac" d="M1274.33 8318.13c15 24 14 58-1 102-11 30-27 62-50 96-2-7-5-13-9-18-9-14-21-24-37-30-14-4-28-8-42-13-16-6-28-16-36-29s-10-27-6-40c4-14 12-25 26-33 9-5 19-8 30-8 12 0 21 4 28 11-2-24 7-41 25-52 12-7 25-10 39-7 15 3 25 10 33 22z" class="fil1"/>
    <path id="path524" fill="#e3417a" d="M1247.33 7737.13c11 26 5 60-17 101-15 28-37 57-64 87-1-7-3-13-6-19-6-15-17-27-31-36-13-6-26-13-39-19-15-8-25-20-31-34s-6-28 0-41 16-22 30-28c10-4 20-5 30-3 11 2 20 7 26 15 2-24 13-40 32-47 13-5 26-6 40-1s24 14 29 27z" class="fil0"/>
    <path id="path526" fill="#e09eac" d="M8502.33 6780.13c19 21 25 55 19 100-5 32-15 67-30 104-4-6-8-12-12-16-11-12-25-20-42-23-15-2-29-3-44-4-17-3-30-10-41-22-10-11-15-24-14-39 1-14 7-27 19-37 8-7 17-12 27-14 11-2 21 0 30 5-6-23-1-42 14-56 11-10 23-14 37-15 15 0 27 5 36 15z" class="fil1"/>
    <path id="path528" fill="#b7225c" d="M15108.33 8295.13c19 21 25 55 19 100-5 32-15 67-30 104-4-6-8-12-12-16-11-12-25-20-42-23-15-2-29-3-44-4-17-3-30-10-41-22-10-11-15-24-14-39 1-14 7-27 19-37 8-7 17-12 27-14 11-2 21 0 30 5-6-23-1-42 14-56 11-10 23-14 37-15 15 0 27 5 36 15z" class="fil2"/>
    <path id="path530" fill="#e3417a" d="M4306.33 723.13c-12 26-41 44-86 55-31 8-67 11-108 11 4-6 8-11 11-17 7-15 9-31 6-47l-12-42c-4-16-2-32 5-46s17-23 31-27 27-3 41 4c10 5 17 11 23 20 6 10 8 20 7 29 19-14 38-17 57-8 13 6 22 16 27 29 6 14 6 27-1 39z" class="fil0"/>
    <path id="path532" fill="#b7225c" d="M5972.33 5121.13c-23 17-57 19-102 8-31-8-65-22-100-41 6-3 12-6 17-10 13-10 22-23 27-39 3-14 6-29 9-43 4-16 13-29 26-38 12-9 26-12 40-10 14 3 26 10 35 23 6 9 10 18 11 29 1 12-2 21-8 29 24-4 42 3 54 20 8 12 12 24 11 38-1 15-8 26-19 34z" class="fil2"/>
    <path id="path534" fill="#b7225c" d="M13245.33 4212.13c-23 17-57 19-102 8-31-8-65-22-100-41 6-3 12-6 17-10 13-10 22-23 27-39 3-14 6-29 9-43 4-16 13-29 26-38 12-9 26-12 40-10 14 3 26 10 35 23 6 9 10 18 11 29 1 12-2 21-8 29 24-4 42 3 54 20 8 12 12 24 11 38-1 15-8 26-19 34z" class="fil2"/>
    <path id="path536" fill="#b7225c" d="M9778.33 15735.13c16 24 17 58 4 102-9 31-24 64-45 99-3-7-6-12-10-18-9-14-22-23-38-29-14-4-28-7-42-10-16-5-28-14-37-27s-11-26-8-40 11-25 24-34c9-6 18-9 29-10 12 0 21 3 29 9-3-24 4-41 22-53 12-8 25-11 39-9 15 2 26 8 34 20z" class="fil2"/>
    <path id="path538" fill="#e3417a" d="M13627.33 1812.13c19 21 24 55 17 101-5 32-16 66-32 103-4-6-7-12-12-16-11-12-25-20-41-24-15-2-29-3-43-5-17-3-30-10-40-22s-14-25-13-39 8-26 19-37c8-7 17-11 28-13s21 0 30 5c-6-23-1-42 15-55 11-9 23-14 37-14 15 0 27 5 36 16z" class="fil0"/>
  </g>
</svg>
