<svg xmlns="http://www.w3.org/2000/svg" width="64" height="64" xmlns:xlink="http://www.w3.org/1999/xlink">
  <defs>
    <linearGradient id="a">
      <stop offset="0" stop-color="#f2e916"/>
      <stop offset=".31" stop-color="#f11e25"/>
      <stop offset=".73" stop-color="#f2e916"/>
      <stop offset="1" stop-color="#f11e25"/>
    </linearGradient>
    <linearGradient id="b">
      <stop offset="0" stop-color="#faff00"/>
      <stop offset="1" stop-color="#ff713f"/>
    </linearGradient>
    <radialGradient id="c" cx="71.84" cy="47.72" r="25.13" xlink:href="#a" gradientUnits="userSpaceOnUse" gradientTransform="matrix(-.00903 -2.77172 2.07943 -.0041 -67.416 1235.69)" fx="71.84" fy="47.72"/>
    <radialGradient id="d" cx="32.21" cy="49.87" r="16.7" xlink:href="#b" gradientUnits="userSpaceOnUse" gradientTransform="matrix(2.1889 -.3504 .62278 4.09782 -71.12 844.638)" fx="32.21" fy="49.87"/>
  </defs>
  <g>
    <path fill="url(#c)" d="M4.27 1016.5c10.67-2.7 12.73-1.86 11.2 5.08 2.38-8.1-1.7-19.6-8.6-29.84 8.88.3 16.2 9.47 15.78 26.2-.82-12.02 6.53-21.6 12.35-27.95-.33 4.45-.17 10.22-1.24 17.3-1.24 8.2-.6 10.3-.6 10.3-1.58-8.67 2.07-12.94 12.88-24.94-4.63 7.1-.88 21.02-2.27 31.4-1.33-15.97 9.75-11.1 8.3-18.78 1.92 8.1-3.54 19-2.26 25.3 3.74-5.06 3.58-9.35 3.3-14.88 1.97 3 1.8 2.8 2.56 4.74 4.08 16-.5 27.4-19.87 28.8-10.7 1.3-40.68-5.06-26.48-20.97 2-2.24 6.67-10.13-5.02-11.8z" transform="translate(0 -988.362)"/>
    <path fill="url(#d)" d="M17.04 1016.7c-4.88 12.45-36.75 16.84 15.13 33.6 18.12-2.66 32.74-2.82 29.77-30.9-2.53 17.08-6.23 11.97-10.72 17.4 4.55-3.64.14-17.28 7.04-25.84-6.48 1.26-11.96 19.2-19.18 22.54 16.96-16.8 3.67-22.84 9.26-35.96-1.23 10-12.38 9-12.92 25.25-.25-5.74.05.4.16-5.5.15-8.2-2.22-16.54 2.78-25.64-4.7-.2-18.3 34.57-13.75 42.72-5.4-9.33 3.7-27.27-8.3-45.9 4.54 20.96 2.54 21.82.76 28.2z" transform="matrix(.81593 -.10258 .10857 .86357 -107.088 -843.32)"/>
  </g>
</svg>
