<svg xmlns="http://www.w3.org/2000/svg" width="535" height="523"><path fill="#fff" d="m91.5 309-28.31 6.3 16.7-25.94L99 246l-57.2-24.94-35.14-55.38L2.31 95.6l26.56-55.15L84.24 6.38l68.91-3.63 42.01 21.16 23.8 1.57-18.06 16.78-55-5.56-48.85 13.16-27.46 31.48-8.9 44.11 18.14 33.26 24.86 2.97 88.37-87.89 46.41-6.42 45.96 26.04 20.68-15.87 30.7-10.46 37.62 12.75 62.87 75.89 22.8 4.23 18.9-25.47L476.23 88l-25.41-36.27L415.2 39.7l-28.82 5-35.98-2.85-5.1-11.35 29.8-11.7L399 6.7l36.6-2.48 53.9 20.98 37.9 52.5 4.9 74.5-32.7 60.6-46 23.1 1.2 17.7 12.8 1.6-5.3 11.9-29.9 1.1-57.6-25.5 8.3 34.6h28.3l8.4 29.3-28.3 33.1 15.3 18.2-19.5 18.2-3 27.7-39.4 11.6 9.6 31-61.1 54.8-41.95-52.2-30.22-2.6 8.61-31-34.5-15.84.6-23.4-23.88-23.73-18.87-65.33L91.5 309z"/><path d="M113 304.37c-3.64.25-8.37 1.88-11.55 7.57-2.59 4.64-8.66 5.38-11.5 4.45-4.71-1.56-10.75-2.64-16.6 1.52-5.84 4.16-12.15 1.02-11.04-6.58 1.1-7.59 3.85-14.35 11.13-18.53 15.9-9.15 4.84-15.51 13.57-24.69 8.74-9.2 6.8-12 6.52-24.5-29.55-4.43-46.29-12.95-64.99-36.3C9.84 183.93 2.6 164.7.66 135.41c-1.94-29.28-.26-48.27 12.4-72.58s25.97-36 49.06-48.13C85.21 2.55 107.83-.35 128.74 0c20.91.35 34.84 1.89 46.66 8.63 11.81 6.74 22.62 15.22 29.51 15.28 6.9.06 11.58-1.74 14.93-4.3.9 22.7-19.54 24.67-37.82 25.15-18.28.48-29.51-7.09-46.35-4.27s-44.4 10.47-57.83 33.85-13.89 31.63-12.77 51.24c1.12 19.6 17.99 34.22 27.51 34.38 9.52.16 11.65-2.6 19.99-8.03 8.33-5.44 50.9-58.13 65.41-69.96 14.53-11.83 28.86-15.49 44.33-15.68 15.48-.19 19.43.34 31.91 5.45 12.48 5.12 20.15 14.54 30.21 20.3 5.14-3.03 8.34-7.55 13.06-11 16.88-12.34 25.64-15.66 45.7-13.7 11.53 1.11 26.07 7.7 34.74 15.24 15.45 13.43 28.2 32.13 38.52 46.33 8.03 11.06 17.48 24.3 30.96 28.43 14.73 4.52 25.81-14.56 27.44-25.14.92-6 2.13-11.25 2.13-17.85.01-6.6-.66-14.6-2.56-21.48s-5.16-13.72-8.69-19.4c-5.74-9.23-15.14-18.9-24.91-23.86-5.49-2.8-18.4-7.87-26.53-8.05-9.97-.21-17.56 3.14-26.78 3.77-11.16.76-31.08 3.26-39.83-5.35-5.57-5.49-6.27-9.15-7.22-16.3a17.04 17.04 0 0 0 8.96 3.62c6.99.59 13.53-5.12 19.17-8.42 4.64-2.73 11.22-7.6 17.32-10.05 15.68-6.32 34.93-6.14 51.48-4.45 13.27 1.36 30.46 7.26 42.1 13.84 11.68 6.62 22.95 17.77 31.2 28.28 10.38 13.22 16.05 24.57 19.8 41.06 4.81 21.06 6.15 52.7.34 73.47-4.58 16.36-19.78 41.5-32.72 53.82-12.76 12.16-27.5 18.03-44.26 21.24.66 3.38.77 6.53 1.63 9.3 1.23 3.94 3.59 8.33 8.43 6.94 1.93-.55 2.96-1.03 5.5 1.2 2.55 2.22 1.23 10.82-5.93 14.68-3.63 1.96-7.46 2.38-13.27 2.5s-14.88.14-21.2-.97c-6.3-1.1-10.07-6.1-17.06-6.9-10.8-1.2-19.07-9-27.73-14.58-3.61-2.33-4.83-2.36-6.91-3.53 1.12 3.44 2.62 7.02 3.37 10.33.75 3.31.43 6.38.83 9.03.4 2.65 1.13 4.7 1.56 6.85 1.73 1.55 2.28 3.9 5.19 4.64 2.9.74 7.46-.4 10.43-.8s4.97-2.03 7.3-1.59c2.34.45 4.56 2.12 6.51 3.69s3.64 1.8 5.23 5.7 3.03 11.92 3.25 17.27-.38 10.18-1.97 14.43-2.98 6.13-7.27 10.34c-4.3 4.2-11.3 10.38-18.27 14.68 1.28 1.9 1.85 3.64 3.86 5.7 2 2.07 6.18 4.39 8.04 6.57 1.86 2.18 2.8 3.74 2.82 6.18.03 2.45-.09 5.62-2.07 8.29-4.94 6.63-10.78 7.82-17.9 10.94 1.2 7.46 2.18 12.79.45 20.24-.7 3.04-2.27 9.92-6.01 11.69-3.75 1.76-10.97.9-15.54 1.63-4.58.73-7.14 1.42-10.7 2.13-2.17 3.13-5.4 6.58-6.5 9.4-1.1 2.8-.77 3.8.16 6.67s4.1 7.04 4.99 10.4 1.07 6.96.23 10.33c-.84 3.36-2.27 5.8-5.14 8.8-2.86 2.98-8.5 5.33-11.31 7.75-2.82 2.42-5.62 2.72-4.85 6.72 1.06 5.51 9.1 14.44 14.92 16.57 3.49 1.27 8.17.87 12.4-.92-.28 4.7-4.35 7.87-7 11 7.2-2.06 14.18-6 19-11.23-1.5 4.54-6.65 11.82-14.36 18.22-7.7 6.4-7.66 5.09-11.49 7.63 7 1.41 13.5 1.03 18.91.06a37.4 37.4 0 0 1-14.28 4.61c-6.45.68-10.42.2-16.23-1.21-5.82-1.41-11.12-6.7-18.16-10.34.69 2.62 1.17 5.76 4.13 8.44 2.97 2.69 7.45 4.06 12.2 6.38-6.05-.69-12.42-.9-18.38-2.21-4.41-.97-7.37-2-10.6-3.6-3.23-1.6-5.72-3.93-8.57-5.9 1.37 2.62 1.77 5.7 4.1 7.85s6.12 2.96 9.18 4.44c-3.2-.07-6.27.62-9.58-.2-3.31-.84-6.42-2.15-9.87-4.69s-7-5.66-9.93-8.86c-2.94-3.2-6.57-7.33-7.67-10.28-1.1-2.95.66-5 1-7.5-2.04 1.32-4.53 2.06-6.1 4s-2.93 3.7-2.24 7.07 3.8 7.5 6 11.25c-6.57-5.37-10.23-7.44-11.8-13.92-1.46-6.07 2.33-11.57 5.2-16.16 1.43-2.28 3.57-4.4 4.9-6.6-2.96-2.9-6.35-5.4-8.9-8.7-2.54-3.32-3.6-7.8-6.2-10.96-2.6-3.17-6.09-5.18-9.13-7.76 2.67 5.74 7.07 12.79 8.02 17.23.95 4.44-1.07 7.16-2.65 9.56-1.57 2.4-4.12 2.94-6.53 4.41-2.42 1.48-6.18.31-7.61 2.5-1.44 2.19-1.83 5.48-.45 7.65l5.64 8.9c-2.08-1.05-5.66-4.1-7.28-6.26s-4.09-4.17-4.42-7.1c-.34-2.92-.5-5.46 1.39-8.06 1.9-2.6 7.08-3.48 9.4-5.48 2.33-2 3.63-3.3 3.5-5.9-.13-2.59-2.66-4.44-4.84-6.07-6.63-4.98-15.15-9.57-20.78-15.57-3.19-3.39-4.72-6.12-5.36-8.46-.63-2.34.04-4.16 1.62-7.04 1.59-2.88 7.01-6.72 7.67-9.84.66-3.13-2.08-3.8-4.55-4.9s-7.17.57-9.47-1.35c-2.3-1.92.68-5.95-1.9-8.16-2.6-2.2-8.5-.97-11.56-3.35-3.05-2.37-4.32-5.32-5.37-8.77s-1.17-7.23-.46-9.72 2.86-2.94 4.15-4.23 2.41-2.37.7-4.3c-1.73-1.93-7.37.1-10.62-2.37-3.24-2.48-1.25-8.4-3.55-10.91-2.3-2.5-6.4-1.52-8.58-2.32-2.17-.8-3.02 2.02-4.35-2.44-1.34-4.46-1.37-17.75-3.16-22.7s-5.32-.34-6.95-5.27-.08-12.82-.82-20.26l-3.34-20.26c-11.63 7.82-19.31 10.27-31.8 12.48-1.05 30.58-3.92 48.59 6.46 82.52 10.38 33.93 31.38 53.92 59.72 82.65-37.4-28.02-55.25-50.8-66.42-79.97-11.18-29.18-9.03-53.59-7.9-81.69zm198.7-12.29c2.88.13 6.37.86 8.4 2.17 2.02 1.31 4.16 2.38 6 4.25 4.57 4.66 8 10.28 9.52 16.74.97 4.12 1.11 9.4 1.46 14.23-1.38-4.47-2.31-9.13-4.29-13.13-3.1-6.31-8.4-12.47-14.96-15.3a7.97 7.97 0 0 0-4.8-.6c.53.89 1.43 1.64 1.47 2.95s-.26 3.87-2.48 4.95c-3.58 1.74-7.57.52-10.34-1.93a9.15 9.15 0 0 1-2.28-10.22c1.74-4.27 8.38-4.28 12.3-4.11zM275.63 286c.36-7.34 3.01-13.54 9.6-17.14 3.4-1.86 8.64-4.27 13.46-4.84 4.63-.54 15.89-.14 22.66 2.95 5.2 2.37 8.75 6.07 13.31 8.77 4.57 2.7 7.82 4.51 12.16 7.54 6.68 4.65 10.6 9.77 15.22 12.84 2.22 1.48 5.35 1.26 8.3 2.16-2.29.68-5.3 1.44-7.77.64-3.09-.98-7.41-3.8-9.8-5.83-4.24-3.58-6.44-5.33-11.06-8.03-2.76-1.6-7.3-3.5-10.34-5.48-3.04-1.98-8.3-6.32-11.22-7.79-3.7-1.86-10.38-2.9-14.5-2.78-5.7.17-13.92 1.1-18.32 5.1-4.37 3.97-6.03 7.46-5.05 12.61 1.65-1.9 2.74-4.28 4.4-5.69 3.4-2.92 7.33-3.06 11.58-2.5 4.78.62 7.18 3.38 8.76 7.91-1.06-.78-3.01-2.5-4.55-3.02-3.62-1.25-6.36-.87-9.74.95-4 2.15-2.92 5.32-3.5 8.85-.26 1.63-.87 2.95-1.31 4.42a8.69 8.69 0 0 1-4.03-2.16c.04 1.65-.2 3.1.14 4.95.34 1.86 1.24 4.06 1.86 6.1-2.78-2.8-5.63-5.39-7.43-8.98-1.8-3.6-3.02-7.6-2.83-11.55zm4.82-53.46c2.05-3.05 2.65-7.72 3.92-11.52-.5 4.81.47 10.1-1.88 13.6-2.35 3.48-6.48 2.87-9.9 3.88 2.66-2.03 5.8-2.91 7.86-5.96zm-49.15 71.37c2.63-2.14 9.75-.43 15.07-.05l-11.47 2.94c-.36 1.3-.2 2.8-1.07 3.9-.88 1.11-2.54 1.52-3.8 2.28.12-3.42-1.37-6.94 1.27-9.07zm37.49-148.22c3.17 1.7 7.2 3.97 10.01 4.04s3.54-1.84 5.19-2.93c2.6 8.46 5.58 17.76 10 25.44 1.85 3.22 3.03 1.72 4.44 4.96 1.4 3.23 2.03 9.81 3.36 13.94 1.34 4.13 3.08 7.17 4.62 10.76-3.9-5.54-8.96-12.6-11.14-17.2-2.17-4.61-.78-5.02-2.54-9.4s-5.33-11.23-7.99-16.85c-1.9.26-4.26.6-5.71.16-1.45-.45-1.16-1.99-2.47-2.99-1.31-1-3.51-.6-5.35-2.2-1.84-1.58-2.25-4.85-2.42-7.73zm-17.1 41.77c2.99-.27 6.7.54 9.5.38s4.8-.89 7.2-1.33c-.45-4.22-.03-11.96-3.92-14.78-2.52-1.82-12.84-.45-15.6.15-6.2 1.34-13.43 5.04-19.43 7.36 5.75-4.02 10.72-7.75 17.62-9.82 4.14-1.25 13.82-2.87 18.1-1.71 1.96.52 2.35 1.33 3.54 2.99 4.07 5.69 4.06 10.6 5.11 17.23 1.04 1.62 2.15 2.7 3 4.37.83 1.67 1.3 4.3 1.54 6.44-1.06-1.54-.41-3.48-3.36-4.63-2.96-1.15-7.48-.08-11.46.34 2.9 2.1 4.34 4.11 4.45 8.54.13 5.2-4.27 8.94-8.86 9.3-6.38.49-9.67-.91-12.25-6.37-1.13-2.38-.31-5.26-.4-7.59-7.67.54-7.55.29-13.15 4.96 3.05 4.46 4.96 7.02 10 9.7 2.82 1.5 6.01 2.95 9.51 3.54 3.5.6 9.23 1.17 12.9.6 3.68-.56 5.77-1.6 8.49-4.12 2.72-2.52 2.97-6.13 4.04-8.98-.24 2.74-.56 6.24-1.58 8.23-3.1 6.05-8.46 7.85-14.86 7.87a54.4 54.4 0 0 1-19.46-3.77c-4.57-1.9-12.15-7.26-13.94-11.92-1.23-3.18-.26-7.09-.39-10.64 6.33-4.2 7.9-3.17 15.38-4.4 3.13-.52 5.29-1.68 8.28-1.94zm-36.86-28.5c.17-2.53.45-2.47.68-3.7-5.76-1.55-8.07 2.2-11.45 9.14-1.27 2.6-.02 4.14-1.37 5.86-1.36 1.7-3.54 1.47-5.74 3.11s-4.39 4.79-6.44 6.49c-4.23 3.49-9.93 5.62-14.83 7.97 3.34-2.47 9.83-6.21 11.93-9.8 1.12-1.9.95-5.48 2.69-7.2 1.73-1.7 2.34-2.89 4.57-3.32 2.24-.44 1.34-3.03 2.06-5.1.73-2.06 2.16-3.52 3.7-5.58s3.45-5.15 6.47-6.28c3.03-1.12 7.74.1 10.02-.55 2.29-.65.98-2.31 2.64-3.3 1.66-1 4.9-.57 7.11-1.63 3.94-1.9 5.82-5.06 8.2-8.44.34 7.28.25 12.52-2.36 19.38-2.95 7.7-5.94 12.25-14.3 17-2.88 1.62-5.75 2.2-8.14 3.05 1.4-1.9 3.39-2.73 4.18-5.7.79-2.98.2-8.88.38-11.4zm135.03 35.5c-3.97.26-4.92-.26-8.1 1.98l5.18 8.05c-.16-5.3.36-6.36 2.93-10.03zm-10.42-3.85c5.51-2.34 10.31-4.24 16.3-4.62 2.4-.15 6.13.22 8.56.33 2.07-3.04 4.7-5.44 5.66-8.9.64-2.31.33-13-.8-15.78-3.3-8.07-6.5-8.41-11.04-13.04-3.29-3.35-3.42-8.46-4.4-14.19-.36-2.1-1.4-4.76-1.88-6.93-5.93-1-12.3-1.33-19.12-.99 3.3-3.17 6.5-6.07 7.45-10.83.95-4.76.18-10.62-2.53-14.89-2.7-4.27-7.03-7.99-11-11.47-3.97-3.47-9.66-6.35-13.42-9.2 4.89-1.74 9.89-4.32 14.68-5.25 12.48-2.42 23.24 1.28 35.29 8.57 7 4.23 12.79 8.25 20.1 15.92 7.33 7.66 16.4 21.71 23.49 30.05s12.8 14.93 18.98 19.9c6.19 4.97 11.78 6.38 17.67 9.58l9.17 9.74 7.43-9.19 11.95 1.35 2.47-13.4 10.97-3.01-1.8-18.08 7.9-5.6-5.93-11.25 6.02-12.3-7.85-14.04 3.02-13.53-9.08-7.75-1.19-14.37-12.68-4.84-5.08-12.5-14.26-.17-6.99-9.28-9.6.67-10.7-1.16-6.04-4.47-8.78 5.83-10.62-5.54L370.64 34l13.76-11.98 14.27-2.27 10.92-2.79 14.76 4.85 12.99-3.3 12.52 7.4 13.25-.72 6.51 11.68 13.2 1.52 7.14 12.99 8.3 4.53 2.2 16.64 7.39 7-3.25 14.56 8.7 11.03-8.16 11.8 8.73 7.4-11.16 9.88 11.3 11.77-13.65 4.4 8.9 12.63-11.15 1.92 7.3 13.89-12.56-.17 6.33 10.4-13.78-1.66 3.3 14.96-10.42-9.17-3.57 18.13-7.19-13.01-3.89 16.23-8.87-11.97.24 17.03-9.8-15.31c2.06 8.68 1.65 18.2 7.35 26.38 17.68-2.39 29.23-6.84 42.77-19.87 12.34-11.87 27.08-36.62 31.07-52.31 4.56-17.91 4.7-50.85.21-69.09-4.32-17.55-9.93-25.94-19.96-40.26-9.58-10.18-19-20.94-31.17-28.2C457.6 10.3 434.72 7.42 414.37 7.7a72.54 72.54 0 0 0-25.56 4.77c-11.78 4.29-21.2 13.63-33.18 18.25-3.9 1.5-7.03 1.55-10.1-.1 3 6.03 6.28 8.74 13.8 10.93 5.43 1.59 18.4.58 27.32-.24 9.58-.89 14.58-3.73 27.62-3.56 12.74.18 22.83 5.02 28.35 8.17 11.38 6.51 19.54 13.73 26.64 25.17 3.9 6.29 6.62 13.37 8.55 20.6 1.92 7.24 2.76 15.34 2.88 22.42.13 7.08-.42 13.4-2.15 19.78-4.05 14.91-12.99 30.1-31.34 27.75-11.24-1.44-28.17-22.52-33.85-30.26-11.44-15.61-23.22-32.89-37.6-45.9-8.77-7.92-20.77-13.37-32.56-14.45-22.12-2.02-28.68 2.18-45.32 15.9 3.38 1.08 6.69 1.68 10.16 3.24a75.85 75.85 0 0 1 20.9 13.71c6.43 6.03 9.32 9.85 9.55 18.49.15 5.73-4.57 10.33-8.9 14.46-2.64 2.54-6.14 4.86-8.28 6.82-2.84 2.61-6.36 5.47-2.8 9.62 1.35 1.56 3.68 2.74 5.65 4.2 3.12 2.32 1.69 10.92-2.42 13.2-5.26 2.92-11.54 2.6-15.88-1.31 5.47-.82 8.95-1.55 8.8-6.02-.07-2.6-3.37-4.76-6.61-6.23-7.81-3.56-13.7-3.04-21.48-8.63-7.85-5.65-8.02-8.74-10.14-17.62-3.79.4-7.27.49-12.34 2.16-5.06 1.68-10.65 5.67-15.24 6.65-11.58 2.5-13.88 1.76-20.22.12-11.15-2.89-25.66 2.05-40.09 6.66-2.4.77-12.1.03-18.62 2.32-10.09 3.54-24.23 12.1-32.4 18.99-12.39 10.43-28.66 41.64-37.85 77.46-.97 10.9 2.13 18.23-4.73 23.55s-6.67 18.95-9 22.77c-2.33 3.82-5.02 2.13-10.03 7.5-5 5.36-7.55 4.47-7.43 14.61 4.32-2.83 10.61-6.13 16.13-6.33 4.9-.18 4.95 6.26 17.5-6.15 6.72-6.64 19.62-6.84 28.57-9.77 8.95-2.93 25.08-8.97 41.24-27.03 16.16-18.06 23.89-37.08 27.02-64.57.5 4.88 1.37 10.38-.72 23.82s-6.59 28.55 2.89 46.63l5.9 11.27c-3.51-4.8-10.38-12.62-12.44-18.2l-4.77-12.86c-10.67 16.75-13.12 19.75-27.94 31.75-.59 7.44-.73 15.2 1.7 22.33 2.43 7.12-1.45 15.33.4 20.02s6.14 2.02 7.53 6.77-.73 14.14 1.44 18.77c2.17 4.63 7.49 1.82 10.07 3.31 2.58 1.5 3.42 3.55 4.8 5.51 1.38 1.97-.54 6.62 2.26 8.13 2.8 1.5 7.18.23 10.1 1.68 2.91 1.45 3.36 4.93 2.66 8.05-.7 3.12-3.82 4.55-5.19 7.73-1.37 3.17-1.21 5.38.43 8.3 1.64 2.9 5.28 4.51 8.91 5.98 3.63 1.48 8.73.65 12.47 2.68 3.75 2.04 7.11 6.09 9.09 9.04 1.97 2.94 2.52 5.02 2.42 8.12-.1 3.1-1.36 6.66-3 9.65s-5.3 6.63.39 12.34c5.69 5.71 5.48 3.25 8.74 6.96-.35-6.41-3-11.63-1.07-16.46 1.94-4.82 7.76-5.66 10.82-7.83 3.07-2.17 4.83-5.15 7.25-7.73-.04 3.31.32 6.88-.06 9.37-.77 5.08-2.27 9.58 5.3 10.4 3.4.36 6.64-1.84 10.22-3.17-1.87 3.36-5.14 6.07-5.63 10.1-.5 4.01.1 8.43 2.88 12.43 2.8 3.99 7.6 6.95 11.13 9.3 3.52 2.35 5.41 2.53 8.12 3.8.14 3.96-.64 8.15-.2 11.87s1.63 7.03 3.79 10.1c2.15 3.09 5.6 4.85 8.87 7.13-1.79-4.16-5.41-8.1-5.36-12.47.05-4.37 1.36-7.47 5.62-11.34 4.26-3.88 14.24-7.24 18.94-11.01 4.7-3.78 6.23-6.09 7.92-9.75s1.22-9.56 1.53-12.85c1.55 4.61 1.77 6.05 2.27 10.87.5 4.82-2.81 11.59-4.21 15.16a23.17 23.17 0 0 0 11.37-11.7c1.25.75.62 2.77 1.08 6.68 2.08-2.06 4.43-3.65 6.52-5.6 2.1-1.94 4.38-3.65 5.42-6.37 1.03-2.72.6-5.6-.16-8.76s-4.3-6.82-6.2-10.27c-1.9-3.46.34-6.85.2-11-3.8-.66-7.02-2.6-11.4-1.97-4.36.63-9.37 5.54-13.84 5.6s-6.97-4.13-10.63-5.28-7.37-1.03-11.05-1.54c4.66-4.47 22.76-6.6 35.15-8.61a221.6 221.6 0 0 1 32.74-2.96c4.93-.07 11.27 1.55 14.7.57 3.42-.98 2.69-3.31 3.7-5.86 2.84-7.1 1.44-13.44-.1-20.6-9.91-1.16-20.24-2.58-30.22-1.81-9.77.75-21.33 5.4-31.4 5.7-8.75.28-21.71-1.67-29.23-6.25-9.18-5.6-16.3-17.63-18.81-21.49-4.11-6.29-9.3-18.63-12.45-24.27-3.15-5.64-3.85-7.22-6.47-9.57-2.62-2.36-6.22-2.54-9.32-3.8 3.58.36 7.49-.77 10.74 1.1 4.9 2.8 10.36 14.42 13.4 19.48 3.23-10.8 2.48-15.05 11.8-21.14-7.51 8.42-7.7 14.8-9.53 24.72 6.25 10.26 14.94 26.6 26.3 31.13 4.11 1.64 11.17 2.67 15.6 3.22 13.83 1.71 27.15-2.67 40.72-6.02 9.92-2.45 19.99-1.46 32.06-.75 4.1.24 13.75-2.23 15.75-6.37a7.33 7.33 0 0 0-.55-7.3c-1.55-2.39-5.7-3.54-7.9-5.68s-3.5-4.7-5.25-7.04a143.3 143.3 0 0 1-23.63 2.64c4.9-2.02 9.61-3.18 14.72-5.17s10.9-5.28 15.02-8c4.12-2.72 6.76-4.3 9.74-7.46 2.98-3.17 6.8-6.44 9-10.3 2.2-3.88 2.54-8.21 2.66-13 .12-4.8-.08-11.52-1.93-15.38-1.85-3.86-5.4-5.03-8.27-5.94-2.86-.91-4.82 1.4-7.8 1.7-2.97.32-5.75 2.2-10.06.17s-9.4-6.14-13.75-12.26c-4.35-6.11-7.46-16.1-11.9-23.8-7.64-13.25-17.17-25.64-26.28-37.92-.75-3.03-1.88-7.22-2.25-11.32-.66-7.16-.78-14.6 1.44-21.58 1.7-5.35 4.18-11 9.78-13.19 2.24-.88 5.07-1.23 7.07-.48 2 .74 3.97 3 3.19 5.61-.87 2.87-2.86 2.95-4.21 4.4a15.5 15.5 0 0 0-4.08 7.33c2.48-.04 5.83-.23 7.87.3 2.66.7 5.13 2.47 6.48 6.24-3.17-2.82-4.75-4.1-8.7-4.2-1.82-.05-4.02.6-6.03.9-.75 2.44-1.2 5.43-2.25 7.32s-3.12 1.43-3.9 3.64c-.77 2.2-.81 5.79-.43 8.68zm27.72-3.3c1.22.48 1.68.58 3.22 1.75s3.66 2.34 4.88 5.14c1.22 2.8 1.16 7.13.9 8.89-1.07-.32-2.53-.1-3.64-1.05-1.1-.95-1.76-3.1-3.18-4.02-1.43-.92-2.61-.72-4.18-.92.8 2.3 1.2 4.6.82 6.68-.81 4.54-3.48 6.85-7.81 7.39-1.89.24-4.89-.39-6.53-.68.76 1.7 2.05 3.19 2.81 4.89 3.66-.53 6.37-.45 8.34-1.37s4.07-2.98 6.6-3.86c2.52-.87 4.78-.86 7.54-1.29-2.18 1.88-3.6 3.75-5.78 5.63l4.78 13.9c3.38 2.1 6.55 3.22 10.8 5.83 4.27 2.61 9.38 7.28 14.92 9.83s8.85 3.93 14.65 5.03c5.8 1.09 10.4 5.78 16.1 6.55s16.36.91 20.76.49c4.99-.5 11.47-3.07 12.05-8.54-4.18 1.03-10.57.1-13.8-7.76-1.43-3.5-.73-9.93-2.92-14.06-2.2-4.14-5.25-5.47-8.9-10.56s-9.62-13.13-12.97-19.95c-3.35-6.83-4.14-14.56-6.97-20.67-2.84-6.12-7.11-11.06-10.42-15.77-7.24-10.3-13.07-17.34-25-22.53-5.72-2.5-12.25-3.17-18.38-4.75-2.5 1.11-5.91 2.35-6.52 5.27-.6 2.91.56 7.22 2.68 9.41 3.54 3.66 8.79 7.62 10.85 13.44 1.33 3.73 1.71 16.25.57 19.65-1.2 3.52-3.97 5.66-6.27 8zm1.15 29.63c-1.1.95-1.95 1.93-3.73 2.72-1.78.8-4.2 1-6.57 1.6 3.31 5.15 6.8 10.35 9.96 15.77 3.18 5.42 5.93 11.35 8.96 17.03-.15-3.25.04-6.72-.43-9.76s-1.85-5.7-3.21-10.26c-1.37-4.56-3.04-10.76-4.98-17.1zM279.23 113.6c-.47 5.07.39 13 1.44 17.96 1.26 5.94 2.47 9.02 7.3 12.6 8.82 6.56 14.46 5.45 21.25 9.26 3.23 1.8 7.33 4.84 8.52 8.04 1.2 3.2-.79 6.69-3.24 8.05 4.3.64 9.1-4.2 7.1-9.15-1-2.45-5.7-3.53-7.14-6-1.44-2.46-1.44-5-.76-7.5 1.23-4.5 10.15-8.6 13.3-12.17 4.85-5.49 6.72-10.08 3.97-17.14-3.86-9.93-18.77-17.89-27.7-21.79-4.08-1.78-6.37-1.9-9.56-2.86 6.53 3.82 13.4 6.87 16.7 15.42 2.76 7.14.38 9.83.47 16.04.04 2.88 3.84 4.33 5.52 6.15 1.47 1.58 1.35 2.75.18 4.94a5.68 5.68 0 0 0-2.48-4.51c-2.5-1.77-5.2-1.4-6.52-5.02-2.02-5.52 1.98-10.75-2.52-16.95-3.37-4.64-7.85-9.83-13.9-9.96-2.86-.07-5.01.36-8.07 1.27l-4.07-4.9-.1-.07c-8.28-7.56-13.95-13.8-25.58-19-11.62-5.19-17.35-5.98-30.68-5.68-13.33.3-26.56 1.4-42 14.72-15.43 13.31-55.22 64.3-64.87 70.75-9.64 6.45-11.78 8.63-23.84 8.64-12.05 0-30.87-17.05-31.6-38.37-.74-21.3-1.04-28.88 13.77-54.56 14.82-25.67 41.66-33.56 61.57-36.22 19.92-2.66 31.89 4.35 46.62 4.38 14.73.04 29.28-2.5 33.58-14.22-2.1 1.25-4.92 2.66-12.83 2.25-7.92-.42-18.9-9.58-31.24-15.72-12.35-6.14-26.09-6.86-43.71-7.2S88.49 6.11 66.7 17.87 30.05 42.1 17.4 65.13C4.78 88.15 2.9 106.94 4.93 134.8c2.04 27.87 10.63 48.6 27.18 69s33.1 30.38 62.92 34.09l6.28-27.7L90.1 226.3l.28-17.9-10.14 12.59-4.45-17.06-8.21 13.68-4.08-19.05-11.9 9.62 3.76-15.71-15.75 1.74 7.24-10.93-14.36.18 8.35-14.59-12.74-2.02 10.16-13.27-15.6-4.63 12.92-12.36-12.76-10.4 9.98-7.75L23.47 106l9.95-11.58-3.71-15.3 8.45-7.36 2.51-17.48 9.48-4.76 8.16-13.65 15.08-1.6L80.83 22l15.14.77L110.3 15l14.84 3.45L142 13.36l12.49 2.93 16.3 2.4 15.72 12.57-24.13-8.42-12.14 5.82-10.03-6.12-6.91 4.69-12.23 1.22-10.96-.7-8 9.75-16.28.17L80 50.8l-14.48 5.1L64.17 71l-10.4 8.14 3.47 14.22-8.97 14.76 6.88 12.91-6.77 11.82 9 5.88-2.04 19 12.53 3.16L70.7 175l13.65-1.43 8.49 9.66 10.48-10.24c19.12-9.53 27-14.86 41.89-30.98 16.96-18.34 26.68-35.3 49.27-47.86 16.2-9 29.42-12.25 47.62-9.1 17.08 2.95 22.8 13.2 35.4 24 1.32-2.42 1.6-3.06 3.8-4.83-.7 3.13-1.8 6.39-2.07 9.4z"/></svg>