<?xml version="1.0" encoding="UTF-8" standalone="no"?>
<!DOCTYPE svg PUBLIC "-//W3C//DTD SVG 1.1//EN" "http://www.w3.org/Graphics/SVG/1.1/DTD/svg11.dtd">
<svg xmlns="http://www.w3.org/2000/svg" width="53.7" height="48.1" xmlns:xlink="http://www.w3.org/1999/xlink" viewBox="0 0 53.674631 48.102777" overflow="visible">
  <title>
    Firefox Logo
  </title>
  <desc>
    Firefox logo in SVG, authored by Jon Hicks, made in Adobe Illustrator (file format cleaned up and slightly modified by Doug Schepers)
  </desc>
  <ellipse cx="63.8" cy="59.4" fill="#110070" rx="59.3" ry="59.4" transform="matrix(.4 0 0 .4 3.3 .5)"/>
  <radialGradient id="a" cx="64.6" cy="7.2" r="104.2" fx="64.6" fy="7.2" gradientUnits="userSpaceOnUse">
    <stop offset="0" stop-color="#67c5d5"/>
    <stop offset=".2" stop-color="#66c2d3"/>
    <stop offset=".3" stop-color="#62b9ce"/>
    <stop offset=".4" stop-color="#5ca8c6"/>
    <stop offset=".5" stop-color="#5392ba"/>
    <stop offset=".6" stop-color="#4874aa"/>
    <stop offset=".7" stop-color="#3a5097"/>
    <stop offset=".7" stop-color="#2a2781"/>
    <stop offset=".8" stop-color="#1b006d"/>
    <stop offset="1" stop-color="#596aad"/>
  </radialGradient>
  <ellipse cx="63.8" cy="59.4" fill="url(#a)" rx="58.2" ry="58.3" transform="matrix(.4 0 0 .4 3.3 .5)"/>
  <radialGradient id="b" cx="64.6" cy="14.2" r="52.2" fx="64.6" fy="14.2" gradientUnits="userSpaceOnUse" gradientTransform="matrix(.4 0 0 .4 3.3 .5)">
    <stop offset="0" stop-color="#0f80bc"/>
    <stop offset=".3" stop-color="#0a5f9e"/>
    <stop offset="1" stop-color="#00145a"/>
  </radialGradient>
  <path fill="url(#b)" d="M23.5 33l-.5-.5c-.4 0-.7.4-.7-.3-.8.3-.8 0-.8 0s-.7 0-.7.5c-.4.3-1 1.4-.7.3 1-1 0 0 0 .4v-2.8l1-.2v-.8s1-1 1-.3.8 0 .8-.4v-1c-.2-1 0-1 0-1h1c.3-1 .7 0 .7 0 0 1 .7 0 .5 0 1 0 1 0 1 1 1 0 0 1 0 1 1 0 1 1 1 1s1 0 .3 1 .4 0 .8 0 .6.2.6.2 0 1 .5 1 1 1 0 1c-.2 0-.2 0-.4.4 0 .5-1 .5-1 0-.6.3-1 0-1-.3-.6.6-1 0-.6 0 0-.7-.5-1-.5-.7 0 .5-1 1-.6 0 0 0 0-.2 0 0z"/>
  <radialGradient id="c" cx="64.6" cy="14.2" r="52.2" fx="64.6" fy="14.2" gradientUnits="userSpaceOnUse" gradientTransform="matrix(.4 0 0 .4 3.3 .5)">
    <stop offset="0" stop-color="#0f80bc"/>
    <stop offset=".3" stop-color="#0a5f9e"/>
    <stop offset="1" stop-color="#00145a"/>
  </radialGradient>
  <path fill="url(#c)" d="M41 16.5h.5l.3-.2s.5.2.3.6h-1v-1z"/>
  <radialGradient id="d" cx="64.5" cy="14.2" r="52.2" fx="64.5" fy="14.2" gradientUnits="userSpaceOnUse" gradientTransform="matrix(.4 0 0 .4 3.3 .5)">
    <stop offset="0" stop-color="#0f80bc"/>
    <stop offset=".3" stop-color="#0a5f9e"/>
    <stop offset="1" stop-color="#00145a"/>
  </radialGradient>
  <path fill="url(#d)" d="M39.5 17.4c0 .2 0 .5.2.5l.3-1s.2 0 0 0c0 0-.4 0 0 0h.7l.3-1c0-1-.3-1 0-1h-1.4z"/>
  <radialGradient id="e" cx="65.4" cy="19.1" r="57.4" fx="65.4" fy="19.1" gradientUnits="userSpaceOnUse" gradientTransform="matrix(.4 0 0 .4 3.3 .5)">
    <stop offset="0" stop-color="#0f80bc"/>
    <stop offset=".3" stop-color="#0b629b"/>
    <stop offset=".8" stop-color="#031747"/>
    <stop offset="1" stop-color="#00022f"/>
  </radialGradient>
  <path fill="url(#e)" d="M36.2 17.7s0-.2 0 0 .5.4.6 0c.4-.5-.7-.8-1-.5-.4.3-.8-.3-.4-.4.3 0 .3-1 0-1 .3 0-.4-.7-.8-.8-.3-.8-1-1-1.4-1-.4.3-.4.3-1 0-.8-.4-1.2.7-.5 1 .4.5 0 1.3 0 1.2l-.3.4c-.8 0-.8-.5-1-.7h-1v-1l-1.7-1c-.7 0-.7 1-.3 1 .4 0-.7 0 .4 1 1 1 2 1 2 1h.2c.4 0-.7.3-.7 1s0 2 .7 2c.2-1 1.3-.4.7 0-.5.3 0 .7 0 .7s0 1 .8.7c-.2 0-.7-.5-1 .3 0 .5-1-.2-1.4 0 0 .5-1 1-1 1.6 1-.6 1 .5 0 .5 0-.7 0 0 0 0v3h1c1-.4 2 .3 1 .3h1l1.4.5c.3 0 1 1 1 1 0 .5.7 1 1 .3 0 .5 1.7 0 2-.5 1.5.4 1.5 0 1 0-.6 0-2-1-.6-.6 1.4 0 0-.8-.4-1-1-.6-1-1-1-1s.3-.7 0-1c1 0 .2-1 .2-1s.6-.7 1-.7c0 0 .2 0 0 0-.3 0 0 .6 0 .6.7.3.7-1 0-1s0-1 .4 0c.5 0 1-.5 1-1 .4.2.6-1 .4-1 1-1 .7-2 0-2 0 0-.2 0-.2-.6h1c.7.3 1 0 1-1 1 0 1-1 1-1.7.5-1.3.3-1.5 0-1.3-.7.7-2 1.4-1 .4s-.3-.4-.6 0c-.5.5-1 .2-1 .2h-1c0-1-.4-1-.5-1-.3-.4-.4-1-.3-1z"/>
  <radialGradient id="f" cx="64.6" cy="14.2" r="52.2" fx="64.6" fy="14.2" gradientUnits="userSpaceOnUse" gradientTransform="matrix(.4 0 0 .4 3.3 .5)">
    <stop offset="0" stop-color="#0f80bc"/>
    <stop offset=".3" stop-color="#0a5f9e"/>
    <stop offset="1" stop-color="#00145a"/>
  </radialGradient>
  <path fill="url(#f)" d="M25.2 9c0 .4.4 1 .7.8v-.6.6c0 .2-1 .5 0 .4 0 0 1-.3 1-.5v-1c0-.3-1-.3-1-.7V7l-1 .8c0 .4-1 .2-1 .3v1l-1 1z"/>
  <radialGradient id="g" cx="64.6" cy="14.2" r="52.2" fx="64.6" fy="14.2" gradientUnits="userSpaceOnUse" gradientTransform="matrix(.4 0 0 .4 3.3 .5)">
    <stop offset="0" stop-color="#0f80bc"/>
    <stop offset=".3" stop-color="#0a5f9e"/>
    <stop offset="1" stop-color="#00145a"/>
  </radialGradient>
  <path fill="url(#g)" d="M27 27c-.2.2 0 .5 0 .5h.8s.4.2 0 .3c0 0-.4 0 0 .2h.7l.4-.4v-1l-1 .5c0 1 0 0-1 0v1s-1 0-1 1z"/>
  <defs>
    <ellipse id="h" cx="63.8" cy="59.4" rx="58.2" ry="58.3"/>
  </defs>
  <clipPath id="j">
    <use width="132.7" height="127.2" xlink:href="#h"/>
  </clipPath>
  <linearGradient id="i" x1="76.4" x2="93.2" y1="16.6" y2="18" gradientUnits="userSpaceOnUse">
    <stop offset="0" stop-color="#0f80bc"/>
    <stop offset=".3" stop-color="#0a5f9e"/>
    <stop offset="1" stop-color="#00145a"/>
  </linearGradient>
  <path fill="url(#i)" d="M65 1c-1 .2.7 3.5.7 3.5s0 2.2.3 2.3c.4 0 2.8.8 4 2.4 1.4 1.6.8 2.4-.3 2-1-.5-.8 1-.8 1s3 1 0 1 1 1.7 1 2c-1 0-1 1-1 1s-2 .3-1 1c6 2.7-1 2-1 2l-1 1 1 2.3 1 1 3-1.2c1 0 3-1.8 3-1.8s1 .5 0-.5 1-.5 2 .2l4 2v.2c1 .6-1 1.6-1 2.6s1 2.7 2 2.5c-1-1 1-1 1 0-1 1 0 1 0 1s0 1.6 2 .8c0 .4 0 1.4 1 1.4 0 0-1 .5 0 1 0 1.6 0 1.7 1-1 0 1.2 1-.4 1-1.2 0-.8 1-2.5 1-1-1 1.5 4 2 5 .3 0-2 2-2.8 2-3 0-.4-5-.8-4-.6 0 .2 1-1 1-2 1 .2 1-2.3 0-3 1-2.3 1-2.4 0-2 0 1.3-3 3-1 1 1-2.4-1-.4-2 0-1 1.4-2 1.2-2 1.2s0-1-2-.6c0-1.6 0-1-1-1.2l-.3-1c1 .5 2 1 2 0 0-.4 2 .8 2 .5h3l3-2C85 1 65 1 65 1z" transform="matrix(.4 0 0 .4 3.3 .5)" clip-path="url(#j)"/>
  <linearGradient id="k" x1="38.5" x2="29.2" y1="19.1" y2="32.8" gradientUnits="userSpaceOnUse">
    <stop offset="0" stop-color="#0f80bc"/>
    <stop offset=".3" stop-color="#0a5f9e"/>
    <stop offset="1" stop-color="#00145a"/>
  </linearGradient>
  <path fill="url(#k)" d="M38.8 6c-10.6 5-18.6 14.7-18.6 14.7s1 2.2 1.3 2c.3 0-2.4 5.6-.4 6 2 .3 8-3.6 7-3.3-1 .4 1-2 1-2s3-1.4 1 0c-2 1.6 2 .3 2 .6l1 1s-1 1.6 1 1c6-2 1 1.8 1 1.8V29l3 .5h1l2-3.2c1-.7 1-3.3 1-3.3s1 0 0-.5c-1-.4 1-1.6 2-1.4l4-1h1c1 0 1 2 2 3s3 2 3 1c0 0 1-2 1-1 0 2 1 1 1 1l2-4s3-3 2-5 1-3 1-3c-1 0-1 1-1 0 0 0-2 1-2-2s-1 0-1 1c1 2 5-6 5-6l5-2S52 0 39 6z" transform="matrix(.4 0 0 .4 3.3 .5)" clip-path="url(#j)"/>
  <linearGradient id="l" x1="62.7" x2="62.7" y1="34.5" y2="11.9" gradientUnits="userSpaceOnUse">
    <stop offset="0" stop-opacity="0"/>
    <stop offset=".7" stop-color="#c4e0e3" stop-opacity=".2"/>
    <stop offset=".8" stop-color="#c4e0e3"/>
    <stop offset=".8" stop-color="#cde5e8"/>
    <stop offset=".9" stop-color="#e8f4f7"/>
    <stop offset="1" stop-color="#f2fafc"/>
  </linearGradient>
  <ellipse cx="62.7" cy="23.3" fill="url(#l)" rx="30.8" ry="20" transform="matrix(.4 0 0 .4 3.3 .5)" opacity=".5"/>
  <filter id="m" width="1.5" height="1.5" x="-.3" y="-.3" color-interpolation-filters="sRGB">
    <feGaussianBlur result="blur" stdDeviation="1.5" in="SourceAlpha"/>
    <feOffset result="shift" in="blur" dy="1" dx="1"/>
    <feMerge>
      <feMergeNode in="shift"/>
      <feMergeNode in="SourceGraphic"/>
    </feMerge>
  </filter>
  <g transform="matrix(.4 0 0 .4 3.3 .5)" filter="url(#m)">
    <linearGradient id="n" x1="64.5" x2="78.5" y1="56.3" y2="48.1" gradientUnits="userSpaceOnUse">
      <stop offset="0" stop-color="#df731b"/>
      <stop offset=".5" stop-color="#df731b"/>
      <stop offset=".7" stop-color="#ec8811"/>
      <stop offset=".9" stop-color="#f4950b"/>
      <stop offset="1" stop-color="#f79a09"/>
    </linearGradient>
    <path fill="url(#n)" d="M125.3 43l-1.4 9.2s-2-17-5-23.2c-4-9.7-6-9.7-6-9.7 2 6.6 2 10 2 10S111 17 99 13c-14-4.6-21-3-21-3 0 .2 14.6 2.7 17.2 6.3 0 0-6.2 0-12.4 1.7-.3 0 22.8 3 27.5 26 0 0-2.5-5.3-5.6-6.2 2 6.3 1.5 18-.5 24-.2.8-.5-3.2-4.3-5 1 9-1 23-7 26.8-1 .3 4-14 1-8.4-18 27.3-39 11-48 5.3C54 82 61 81 65 78c4.3-3 6.8-5 9-4.5s4-1.8 2-3.8c-1.7-2-6-4.8-11.7-3.3-4 1-9.2 5.6-17 1-6.5-4-6.5-7-6.5-9s2-5.2 5-4.7 1.7-1.3 4.8 0c1 .4 0-4-1.3-7 2.4-5 10-6.4 10.6-6.8 1-1 0-2 1-3 0-1 0-4-8-4-4 0-7-5-8-6 0-2 0-3 1-5 0-2 1-3 1-3v-1c1-2 3-3 4-4s-11 0-16 7h-5c-3 0-5 0-7 1h-1c-2-2-7-7-7-13 0 0-7 6-6 21 0 8-3 6-4 11-1 2 1 4 1 4l2-2s-11 20 3 45c14 23 35 32 57 30 4 0 7-1 11-2 51-12 45-74 45-74z"/>
    <linearGradient id="o" x1="41.8" x2="52.7" y1="37" y2="37.9" gradientUnits="userSpaceOnUse">
      <stop offset="0" stop-color="#941403"/>
      <stop offset=".9" stop-color="#e85c0a"/>
    </linearGradient>
    <path fill="url(#o)" d="M45.5 27.6s2.2 6 7 6c9.6 0 9.8 0 9.8 1.3.2 3-1.5 4-2.2 5 0 0-9 5-10 7 0 1-10-14-10-14l6-6z"/>
    <linearGradient id="p" x1="24.5" x2="63.6" y1="34" y2="38.9" gradientUnits="userSpaceOnUse">
      <stop offset="0" stop-color="#941403"/>
      <stop offset=".1" stop-color="#a32104"/>
      <stop offset=".5" stop-color="#c84107"/>
      <stop offset=".8" stop-color="#df5509"/>
      <stop offset="1" stop-color="#e85c0a"/>
    </linearGradient>
    <path fill="url(#p)" d="M50.5 34s3 4 .8 5.6c-3 2 4 2.3 6.4 1 2.4-1.3 4-3.5 4-3.8 0-.3 1-3-4-2-3.4.5-4.6.7-7.2-.7z"/>
    <linearGradient id="q" x1="48.7" x2="51.9" y1="44.3" y2="42.9" gradientUnits="userSpaceOnUse">
      <stop offset="0" stop-color="#f2c8a9"/>
      <stop offset="1" stop-color="#ffc"/>
    </linearGradient>
    <path fill="url(#q)" d="M60 40c.6-.4 1.8-1 2.2-3-.3 0-.4-.2-.7 0-7 7.2-7.2 2-11 3-3.5 1-4.3 2.4-4.4 2.5 0 0 1 0 1 .2 1 .5 2 2 3 3.6 1 .8 1 1.2 1 1 1-1.6 10-6.8 10-7.3z"/>
    <linearGradient id="r" x1="38.8" x2="91.3" y1="82.6" y2="84.7" gradientUnits="userSpaceOnUse">
      <stop offset="0" stop-color="#b30000"/>
      <stop offset="1" stop-color="#df731b"/>
    </linearGradient>
    <path fill="url(#r)" d="M8.2 45.8c-1.4 3-10.6 18.4 4.3 44C27 114.8 52.3 123 78 117.5c7.3-1.6 15.8-7.3 21.2-11.5-3.5-8.8-1.4-8.5-3.3-7.3-21 12.8-38 .2-50-1.5-47-6-38-51.5-38-51.5z"/>
    <linearGradient id="s" x1="51.3" x2="78.7" y1="74.4" y2="84.2" gradientUnits="userSpaceOnUse">
      <stop offset="0" stop-color="#941403"/>
      <stop offset="1" stop-color="#df731b"/>
    </linearGradient>
    <path fill="url(#s)" d="M47.2 81c4.4 1.3 14 0 18.2-3 2.8-2 5-3.6 6.7-4.3-3-2-3 1-9 2.5-13 3-20-3.7-20-3.7 1 5.4 5 8 6 9l-1-.5z"/>
    <linearGradient id="t" x1="6.1" x2="32.8" y1="87.1" y2="87.1" gradientUnits="userSpaceOnUse" gradientTransform="rotate(2.8 27.6 95.6)">
      <stop offset=".1" stop-color="#b30000"/>
      <stop offset="1" stop-color="#de5c01"/>
    </linearGradient>
    <path fill="url(#t)" d="M32.3 105.8S21 92.8 17.7 78.5c-4.7-4.5-8-8.2-10.2-11 1.2 10.3 6.5 26.3 24.8 38.3z"/>
    <linearGradient id="u" x1="209.7" x2="224.3" y1="-130.7" y2="-85.6" gradientUnits="userSpaceOnUse" gradientTransform="rotate(6.8 -1627.4 -1650.2)">
      <stop offset=".1" stop-color="#de7210"/>
      <stop offset="1" stop-color="#f6c08f"/>
    </linearGradient>
    <path fill="url(#u)" d="M22.8 94s-8-11-5-20.7c2.7-8.6-.5-3.5-2.4-1.6-2 1.8-2.8-5.5-2.8-6.3 0 0-3.7 17.5 10.2 28.7z"/>
    <linearGradient id="v" x1="12.5" x2="12.5" y1="61.1" y2="111.5" gradientUnits="userSpaceOnUse" gradientTransform="rotate(2.6 17.2 71.8)">
      <stop offset=".1" stop-color="#de7210"/>
      <stop offset="1" stop-color="#f6c08f"/>
    </linearGradient>
    <path fill="url(#v)" d="M11 84.3s-1.7-22.8 4-26c9-5 .8-4-2-2.5-2.5 1.4-2.3-8-2-9 .5-.8-9.2 9 0 37.5z"/>
    <path fill="#a40000" d="M50.6 17.2l-7 7.3s0 9.3.3 12c0 1 3 7.6 1 6-2-1.4-1-1.4-1-.7 0 0-6-11 5-24.6z"/>
    <linearGradient id="w" x1="18.3" x2="12.9" y1="30.8" y2="16.8" gradientUnits="userSpaceOnUse">
      <stop offset="0" stop-color="#941403"/>
      <stop offset=".5" stop-color="#e85c0a"/>
      <stop offset="1" stop-color="#f9bd5f"/>
    </linearGradient>
    <path fill="url(#w)" d="M16.6 11.6s-7.6 6-6 22c5.7-5.4 14-9.4 14-9.4-1.3-.8-7.7-6-8-12.6z"/>
    <linearGradient id="x" x1="41.7" x2="54.8" y1="34.1" y2="16.9" gradientUnits="userSpaceOnUse">
      <stop offset=".2" stop-color="#de7210"/>
      <stop offset=".8" stop-color="#f9bd5f"/>
      <stop offset="1" stop-color="#fffccf"/>
    </linearGradient>
    <path fill="url(#x)" d="M35.3 29l11.4 14.3C43.4 29.3 46 21 54 16.5c1.3-.7-17 .2-18.7 12.6z"/>
    <linearGradient id="y" x1="34.8" x2="48.1" y1="57.5" y2="84.1" gradientUnits="userSpaceOnUse">
      <stop offset="0" stop-color="#941403"/>
      <stop offset=".5" stop-color="#e35100"/>
      <stop offset="1" stop-color="#df731b"/>
    </linearGradient>
    <path fill="url(#y)" d="M27.3 64.2c2-12.3 19-10.5 19-10.5-.8.6-3.7 1-4.5 3.3-2.8 7.7-.2 24.5 17 31.6 2 .8-34.4-6.3-31.5-24.4z"/>
    <linearGradient id="z" x1="54.8" x2="58.1" y1="41.3" y2="44.3" gradientUnits="userSpaceOnUse">
      <stop offset="0" stop-color="#eea272"/>
      <stop offset=".2" stop-color="#efa777"/>
      <stop offset=".4" stop-color="#f2b585"/>
      <stop offset=".6" stop-color="#f6cd9c"/>
      <stop offset=".9" stop-color="#fceebb"/>
      <stop offset="1" stop-color="#ffc"/>
    </linearGradient>
    <path fill="url(#z)" d="M62 37.3c-.3.4-1 1.3-3 3-3.6 2.8-5.2 2-7.8 2.7-1.2.2-2.4 1-3.2 1.7l1 1.6c.6.8 1 1.2 1 1 .5-1.6 9.5-6.8 10-7.3.6-.3 1.6-1 2-2.7z"/>
    <linearGradient id="A" x1="35.5" x2="50.7" y1="48.4" y2="63.9" gradientUnits="userSpaceOnUse">
      <stop offset=".2" stop-color="#df731b"/>
      <stop offset=".8" stop-color="#f9bd5f"/>
      <stop offset="1" stop-color="#fffccf"/>
    </linearGradient>
    <path fill="url(#A)" d="M51 56c.2-2.7 0-9-2.7-11.7-2-2-2.5-4.5-2.8-7.2C23 46 20 57 22.2 56c18-3 23-3.2 29 0z"/>
    <linearGradient id="B" x1="847.5" x2="847.5" y1="-1065" y2="-1008" gradientUnits="userSpaceOnUse" gradientTransform="rotate(14.7 -3854 -3747.1)">
      <stop offset=".1" stop-color="#de7210"/>
      <stop offset="1" stop-color="#f6c08f"/>
    </linearGradient>
    <path fill="url(#B)" d="M3.4 71.2S5 51 15 43.6c8-5.8 2-3.6-1-3.6-3.3.4-5 2.4-4.4 1.6 0 0-7.5 6-6 29.6z"/>
    <linearGradient id="C" x1="15.9" x2="-3.4" y1="36.4" y2="67.8" gradientUnits="userSpaceOnUse" gradientTransform="matrix(1 -.1 .1 1.2 -3.8 -4.9)">
      <stop offset=".1" stop-color="#de7210"/>
      <stop offset="1" stop-color="#f2c06e"/>
    </linearGradient>
    <path fill="url(#C)" d="M2.3 55.7s5.5-17.2 16.4-17c7.3 0 1.5-6.2-.7-7.2-2.3-1-2.8-1-3.4-.4-.8 1-8 1-12.3 25z"/>
    <linearGradient id="D" x1="80.9" x2="60.4" y1="67.8" y2="71.8" gradientUnits="userSpaceOnUse">
      <stop offset="0" stop-color="#fffaee"/>
      <stop offset=".3" stop-color="#f5f89b"/>
      <stop offset=".3" stop-color="#f3ed91"/>
      <stop offset=".5" stop-color="#ecc267"/>
      <stop offset=".6" stop-color="#e6a046"/>
      <stop offset=".8" stop-color="#e2872e"/>
      <stop offset=".9" stop-color="#e07820"/>
      <stop offset="1" stop-color="#df731b"/>
    </linearGradient>
    <path fill="url(#D)" d="M76.2 72.5c.8-.8.2-4-5-5.8-4.6-1.7-12 2.6-14 3.5 0 0 8.2-1.6 11.3-1 4.2.7 5.7 5.3 7.7 3.3z"/>
    <linearGradient id="E" x1="-411.3" x2="-411.3" y1="427.6" y2="475.3" gradientUnits="userSpaceOnUse" gradientTransform="rotate(7.3 2864.4 3601.5)">
      <stop offset=".1" stop-color="#de7210"/>
      <stop offset="1" stop-color="#f2c06e"/>
    </linearGradient>
    <path fill="url(#E)" d="M10.3 66.8s-1-17 6.7-24c6-5.8 1-3.4-1.4-2.8-2.7.5-4 2.4-3.5 1.7h1c0-.2-5 6-2 25z"/>
    <linearGradient id="F" x1="-414.4" x2="-414.4" y1="422.7" y2="470.4" gradientUnits="userSpaceOnUse" gradientTransform="rotate(21.2 832.2 1379)">
      <stop offset=".1" stop-color="#de7210"/>
      <stop offset="1" stop-color="#f2c06e"/>
    </linearGradient>
    <path fill="url(#F)" d="M4.5 61.5s3.2-16.7 12.3-21.8c7-4 1.8-3-.7-3-2 0-4 1.3-3 .8 0-.2-7 4.3-8 24z"/>
    <linearGradient id="G" x1="13.8" x2=".6" y1="55.8" y2="75.7" gradientUnits="userSpaceOnUse" gradientTransform="rotate(-35.9 17.1 54.3)">
      <stop offset=".1" stop-color="#de7210"/>
      <stop offset="1" stop-color="#f2c072"/>
    </linearGradient>
    <path fill="url(#G)" d="M15.3 68.3s-1.7-10 2-15c3-4 .4-2-1-1.5-1.5.6-2 1.8-1.8 1.3.2 0-6.5 5 .8 16z"/>
    <linearGradient id="H" x1="21" x2="7.8" y1="49.3" y2="69.2" gradientUnits="userSpaceOnUse" gradientTransform="rotate(-35.9 17.1 54.3)">
      <stop offset=".1" stop-color="#de7210"/>
      <stop offset="1" stop-color="#f2c072"/>
    </linearGradient>
    <path fill="url(#H)" d="M17.3 58.8s-1.7-10 2-15c3-4 .4-2-1-1.5-1.5.6-2 1.8-1.8 1.3.2-.4-6.5 4.8.8 15.2z"/>
    <linearGradient id="I" x1="12.3" x2="6.5" y1="37.9" y2="48.7" gradientUnits="userSpaceOnUse">
      <stop offset=".1" stop-color="#de7210"/>
      <stop offset="1" stop-color="#eed8a5"/>
    </linearGradient>
    <path fill="url(#I)" d="M6.7 45s4-8.4 9.5-10c4.4-1.3 1.4-1.3 0-1.6-1.3-.4-2.4.2-2 0 .4-.2-7.3 0-7.5 11.6z"/>
    <linearGradient id="J" x1="11.7" x2="5.9" y1="44.5" y2="55.3" gradientUnits="userSpaceOnUse">
      <stop offset=".1" stop-color="#de7210"/>
      <stop offset="1" stop-color="#eed8a5"/>
    </linearGradient>
    <path fill="url(#J)" d="M6 51.6s4.2-8.3 9.7-10c4.3-1.3 1.3-1.3 0-1.6-1.4-.4-2.5.2-2 0 .3-.2-7.4 0-7.6 11.6z"/>
    <linearGradient id="K" x1="18.3" x2="12.7" y1="39.9" y2="53.8" gradientUnits="userSpaceOnUse">
      <stop offset=".1" stop-color="#de7210"/>
      <stop offset="1" stop-color="#f2c072"/>
    </linearGradient>
    <path fill="url(#K)" d="M9 49.8S16.4 35 26 32c7.6-2.2 2.3-2.2 0-2.7-2.5-.6-4.4.4-3.7 0 .7-.4-13 0-13.2 20.5z"/>
    <linearGradient id="L" x1="20.4" x2="7.2" y1="33.1" y2="53" gradientUnits="userSpaceOnUse">
      <stop offset=".1" stop-color="#de7210"/>
      <stop offset="1" stop-color="#f2c072"/>
    </linearGradient>
    <path fill="url(#L)" d="M14 41.8s4.5-9 10.5-11c4.7-1.4 1.5-1.4 0-1.7-1.5 0-2.7 1-2.3 0 .4 0-8 0-8.2 13z"/>
    <linearGradient id="M" x1="21.3" x2="9.2" y1="37.1" y2="55.3" gradientUnits="userSpaceOnUse">
      <stop offset=".1" stop-color="#de7210"/>
      <stop offset="1" stop-color="#f2c072"/>
    </linearGradient>
    <path fill="url(#M)" d="M15.5 45s4-8.3 9.5-10c4.4-1.2 1.4-1.2 0-1.6-1.4-.3-2.4.3-2 0 .3 0-7.4 0-7.5 11.7z"/>
    <linearGradient id="N" x1="60.3" x2="61.2" y1="34.3" y2="36" gradientUnits="userSpaceOnUse">
      <stop offset="0" stop-color="#8b8b89"/>
      <stop offset="1" stop-color="#120500"/>
    </linearGradient>
    <path fill="url(#N)" d="M62.3 35c0-1 0-1.3-4.3-1.4.5.3 1.3.7 2.2 1.4 1.2 1 1.4 2 1.5 3.3.4-.8.7-2 .6-3.4z"/>
    <linearGradient id="O" x1="22.6" x2="22.6" y1="28.5" y2="23.2" gradientUnits="userSpaceOnUse">
      <stop offset=".1" stop-color="#de7210"/>
      <stop offset="1" stop-color="#f6c08f"/>
    </linearGradient>
    <path fill="url(#O)" d="M37.8 23.2L34.2 29s-14.5-2.2-26.8 9.7c-1 1 8-21 30.4-15.5z"/>
    <linearGradient id="P" x1="23" x2="34" y1="34.8" y2="21.9" gradientUnits="userSpaceOnUse" gradientTransform="rotate(2.3 34 24.3)">
      <stop offset=".1" stop-color="#de7210"/>
      <stop offset="1" stop-color="#f6c08f"/>
    </linearGradient>
    <path fill="url(#P)" d="M24.8 33.6s3.8-7 9-9.3c-2.7 0-8.5 2-9 9.3z"/>
    <linearGradient id="Q" x1="15.5" x2="9.7" y1="33.5" y2="44.4" gradientUnits="userSpaceOnUse">
      <stop offset=".1" stop-color="#de7210"/>
      <stop offset="1" stop-color="#eed8a5"/>
    </linearGradient>
    <path fill="url(#Q)" d="M10 40.6s4-8.3 9.4-10c4.4-1.3 1.4-1.3 0-1.6-1.3-.3-2.4.2-2 0 .4-.2-7.3 0-7.5 11.6z"/>
    <linearGradient id="R" x1="16.3" x2="27.1" y1="35.8" y2="23.3" gradientUnits="userSpaceOnUse" gradientTransform="rotate(6 21.6 35.3)">
      <stop offset=".1" stop-color="#de7210"/>
      <stop offset="1" stop-color="#f6c08f"/>
    </linearGradient>
    <path fill="url(#R)" d="M18.5 34.7s4.2-6.7 9.2-8.5c-2.5 0-8.3 1.5-9.2 8.5z"/>
    <linearGradient id="S" x1="13.4" x2="26.3" y1="22.9" y2="24.6" gradientUnits="userSpaceOnUse" gradientTransform="rotate(5.2 27.1 24.7)">
      <stop offset=".1" stop-color="#de7210"/>
      <stop offset="1" stop-color="#f6c08f"/>
    </linearGradient>
    <path fill="url(#S)" d="M25.7 23.2s-3.2 1.4-8.8-1l5 2.6 3-1.6z"/>
    <linearGradient id="T" x1="7" x2="25.2" y1="23.1" y2="25.6" gradientUnits="userSpaceOnUse">
      <stop offset=".1" stop-color="#de7210"/>
      <stop offset="1" stop-color="#f6c08f"/>
    </linearGradient>
    <path fill="url(#T)" d="M24.2 24s-4.3 1.7-12.4-.7l7 2.8 5.4-2z"/>
    <linearGradient id="U" x1="15.9" x2="27.7" y1="22.2" y2="23.9" gradientUnits="userSpaceOnUse" gradientTransform="rotate(5.2 27.1 24.7)">
      <stop offset=".1" stop-color="#de7210"/>
      <stop offset="1" stop-color="#f6c08f"/>
    </linearGradient>
    <path fill="url(#U)" d="M27.3 22.8s-2.8.8-8-1.2l5 2.5 3-1z"/>
    <linearGradient id="V" x1="15.2" x2="4.5" y1="26.9" y2="25.8" gradientUnits="userSpaceOnUse">
      <stop offset=".1" stop-color="#de7210"/>
      <stop offset="1" stop-color="#f6c08f"/>
    </linearGradient>
    <path fill="url(#V)" d="M18.5 26s-2 1.7-7.4 1.8h5l3-1.8z"/>
    <linearGradient id="W" x1="10.9" x2="25.7" y1="37.1" y2="19.8" gradientUnits="userSpaceOnUse" gradientTransform="rotate(6 21.6 35.3)">
      <stop offset=".1" stop-color="#de7210"/>
      <stop offset="1" stop-color="#f6c08f"/>
    </linearGradient>
    <path fill="url(#W)" d="M13.4 35s7.2-9.4 13-11.6c-3 0-12 3.2-13 11.5z"/>
  </g>
  <linearGradient id="X" x1="88.3" x2="117.3" y1="117.4" y2="72.7" gradientUnits="userSpaceOnUse" gradientTransform="matrix(.4 0 0 .4 3.3 .5)">
    <stop offset="0" stop-color="#de5c01"/>
    <stop offset=".7" stop-color="#fefd00"/>
    <stop offset=".8" stop-color="#fefe26"/>
    <stop offset=".8" stop-color="#fffe54"/>
    <stop offset=".9" stop-color="#ffff76"/>
    <stop offset=".9" stop-color="#ffff8b"/>
    <stop offset="1" stop-color="#ffff92"/>
  </linearGradient>
  <path fill="url(#X)" d="M48.6 19s.3 6.2-8.5 15c0 1-6 6-6 7.4 0 .5 14-2 15-22.4z"/>
  <linearGradient id="Y" x1="105.2" x2="86.2" y1="22.7" y2="14.4" gradientUnits="userSpaceOnUse" gradientTransform="matrix(.4 0 0 .4 3.3 .5)">
    <stop offset="0" stop-color="#f79a09"/>
    <stop offset=".7" stop-color="#fefd00"/>
    <stop offset=".8" stop-color="#fefe26"/>
    <stop offset=".8" stop-color="#fffe54"/>
    <stop offset=".9" stop-color="#ffff76"/>
    <stop offset=".9" stop-color="#ffff8b"/>
    <stop offset="1" stop-color="#ffff92"/>
  </linearGradient>
  <path fill="url(#Y)" d="M31.6 4c10.6 1 12.6 8.5 12.6 8 0-7.3-10-8-12.6-8z"/>
  <linearGradient id="Z" x1="117.9" x2="91.4" y1="41.7" y2="17.1" gradientUnits="userSpaceOnUse" gradientTransform="matrix(.4 0 0 .4 3.3 .5)">
    <stop offset="0" stop-color="#de5c01"/>
    <stop offset=".7" stop-color="#fefd00"/>
    <stop offset=".8" stop-color="#fefe26"/>
    <stop offset=".8" stop-color="#fffe54"/>
    <stop offset=".9" stop-color="#ffff76"/>
    <stop offset=".9" stop-color="#ffff8b"/>
    <stop offset="1" stop-color="#ffff92"/>
  </linearGradient>
  <path fill="url(#Z)" d="M34.8 7s7.3 1.5 9.4 9.3c.3 1-1-6.3-.5-5.6.3.7-3-3.5-9-3.7z"/>
  <linearGradient id="aa" x1="1.1" x2="-10" y1="145.4" y2="134" gradientUnits="userSpaceOnUse" gradientTransform="matrix(.4 0 0 .4 41.2 -37.3)">
    <stop offset="0" stop-color="#f79a09"/>
    <stop offset=".7" stop-color="#fefd00"/>
    <stop offset=".8" stop-color="#fefe26"/>
    <stop offset=".8" stop-color="#fffe54"/>
    <stop offset=".9" stop-color="#ffff76"/>
    <stop offset=".9" stop-color="#ffff8b"/>
    <stop offset="1" stop-color="#ffff92"/>
  </linearGradient>
  <path fill="url(#aa)" d="M37.8 6.8s6.5 1.4 6.6 12c0 7.3 1 2.7 2.2 1 1-1.5.4-3.2.3-3.2l-1-.6-1-1s0-7-8-8.5z"/>
  <linearGradient id="ab" x1="113.4" x2="119.7" y1="55.8" y2="34.3" gradientUnits="userSpaceOnUse" gradientTransform="matrix(.4 0 0 .4 3.3 .5)">
    <stop offset="0" stop-color="#f79a09"/>
    <stop offset=".7" stop-color="#fefd00"/>
    <stop offset=".8" stop-color="#fefe26"/>
    <stop offset=".8" stop-color="#fffe54"/>
    <stop offset=".9" stop-color="#ffff76"/>
    <stop offset=".9" stop-color="#ffff8b"/>
    <stop offset="1" stop-color="#ffff92"/>
  </linearGradient>
  <path fill="url(#ab)" d="M45.3 8.3s2.3 6.2-.2 9.2v5.7c2-.5 1 2.7 1 3 0 0 5-7.8 0-18z"/>
  <linearGradient id="ac" x1="-52" x2="-52.2" y1="212.8" y2="196.4" gradientUnits="userSpaceOnUse" gradientTransform="matrix(.4 0 0 .4 58.7 -55.6)">
    <stop offset="0" stop-color="#f79a09"/>
    <stop offset=".7" stop-color="#fefd00"/>
    <stop offset=".8" stop-color="#fefe26"/>
    <stop offset=".8" stop-color="#fffe54"/>
    <stop offset=".9" stop-color="#ffff76"/>
    <stop offset=".9" stop-color="#ffff8b"/>
    <stop offset="1" stop-color="#ffff92"/>
  </linearGradient>
  <path fill="url(#ac)" d="M42 14.7s1.4 4.4-.2 7.6L43 25c1-2.2 2-6.8-1-10.3z"/>
  <linearGradient id="ad" x1="-172.7" x2="-161.5" y1="332.1" y2="309.9" gradientUnits="userSpaceOnUse" gradientTransform="matrix(.4 0 0 .4 96.1 -97.4)">
    <stop offset="0" stop-color="#f79a09"/>
    <stop offset=".7" stop-color="#fefd00"/>
    <stop offset=".8" stop-color="#fefe26"/>
    <stop offset=".8" stop-color="#fffe54"/>
    <stop offset=".9" stop-color="#ffff76"/>
    <stop offset=".9" stop-color="#ffff8b"/>
    <stop offset="1" stop-color="#ffff92"/>
  </linearGradient>
  <path fill="url(#ad)" d="M44.5 14.2s1 7-2.7 13.2c0 1.5-.2 2.8-.5 4l.7.2-.4.4-.7.3v.3-.6l1-.6c0 .3-1 .3-1 .3 3-2.7 7-8.5 2-17.5zM40 32.7c0 .2-.4.3-.4.5l.5-.2v-.4z"/>
  <linearGradient id="ae" x1="99.2" x2="100.7" y1="87.7" y2="63.2" gradientUnits="userSpaceOnUse" gradientTransform="matrix(.4 0 0 .4 -.7 5.5)">
    <stop offset="0" stop-color="#de5c01"/>
    <stop offset=".7" stop-color="#fefd00"/>
    <stop offset=".8" stop-color="#fefe26"/>
    <stop offset=".8" stop-color="#fffe54"/>
    <stop offset=".9" stop-color="#ffff76"/>
    <stop offset=".9" stop-color="#ffff8b"/>
    <stop offset="1" stop-color="#ffff92"/>
  </linearGradient>
  <path fill="url(#ae)" d="M40 21.6s2.8 8.4-6.5 16.2c-.6.5 3.8.3 4.2 0 1-.4 2.4-3.8 2.3-3.4-.2.7 4.3-5.8 0-12.8z"/>
  <linearGradient id="af" x1="58.4" x2="105.9" y1="113.9" y2="85.5" gradientUnits="userSpaceOnUse" gradientTransform="matrix(.4 0 0 .4 3.3 .5)">
    <stop offset="0" stop-color="#b9120d"/>
    <stop offset=".1" stop-color="#bb180d"/>
    <stop offset=".2" stop-color="#c0290c"/>
    <stop offset=".3" stop-color="#c8450a"/>
    <stop offset=".4" stop-color="#d36c08"/>
    <stop offset=".6" stop-color="#e29e05"/>
    <stop offset=".7" stop-color="#f4da02"/>
    <stop offset=".8" stop-color="#fefd00"/>
    <stop offset=".8" stop-color="#fefd07"/>
    <stop offset=".8" stop-color="#fefd1b"/>
    <stop offset=".9" stop-color="#fefe3c"/>
    <stop offset=".9" stop-color="#fffe69"/>
    <stop offset="1" stop-color="#ffffa3"/>
    <stop offset="1" stop-color="#ffffc7"/>
  </linearGradient>
  <path fill="url(#af)" d="M44 27s-1.8 10.8-14 11.6c-4.7.3-11.6-.8-11 1 .2.7 1 3 3 3.6 5.7 1.4 20.5 1 22-16.3z"/>
  <linearGradient id="ag" x1="54.2" x2="102.9" y1="93.6" y2="100.2" gradientUnits="userSpaceOnUse" gradientTransform="matrix(.4 0 0 .4 7.1 -1.8)">
    <stop offset=".1" stop-color="#de7210"/>
    <stop offset="1" stop-color="#f6c08f"/>
  </linearGradient>
  <path fill="url(#ag)" d="M33.8 35s-7.5 1.8-12.3-2.3c-4.4-3.8-2.2-.6-1.6 1 0 1.8-3 .7-4 .3-1 0 8 5.5 17 1.5z"/>
  <linearGradient id="ah" x1="39" x2="95.5" y1="89.9" y2="107.6" gradientUnits="userSpaceOnUse" gradientTransform="matrix(.4 0 0 .4 8.5 -1.7)">
    <stop offset=".1" stop-color="#de7210"/>
    <stop offset="1" stop-color="#f6c08f"/>
  </linearGradient>
  <path fill="url(#ah)" d="M29 39.2s-9-1.8-11.8-7.8c-2.4-5.2-1.8-1.4-1.8.3-.2 1.8-2.7-.6-3-1 0 0 4.6 7.3 16.6 8.5z"/>
  <linearGradient id="ai" x1="-601.5" x2="-574.6" y1="629" y2="680.4" gradientUnits="userSpaceOnUse" gradientTransform="matrix(.4 0 0 .4 186.4 -235)">
    <stop offset=".1" stop-color="#de7210"/>
    <stop offset="1" stop-color="#f6c08f"/>
  </linearGradient>
  <path fill="url(#ai)" d="M19.2 38.4S15 35.2 13 30.6c-1.6-.6-3.7-1.8-3.8-2 .7 3.5 4.3 7.6 10 9.8z"/>
</svg>
