<?xml version="1.0" encoding="UTF-8"?>
<!DOCTYPE svg PUBLIC "-//W3C//DTD SVG 1.1//EN" "http://www.w3.org/Graphics/SVG/1.1/DTD/svg11.dtd">
<svg width="159mm" height="119mm" viewBox="0 0 15900 11900" version="1.1" xmlns="http://www.w3.org/2000/svg" stroke-width="28.222" stroke-linejoin="round" xml:space="preserve">
 <path fill="rgb(255,255,255)" stroke="none" d="M 7937,11930 L 12,11930 12,0 15862,0 15862,11930 7937,11930 Z"/>
 <path fill="none" stroke="rgb(0,0,0)" stroke-width="50" stroke-linejoin="round" d="M 7997,10699 L 1378,10699 1378,1096 14616,1096 14616,10699 7997,10699 Z"/>
 <path fill="none" stroke="rgb(179,179,179)" stroke-linejoin="round" d="M 14616,10698 L 1378,10698"/>
 <path fill="none" stroke="rgb(179,179,179)" stroke-linejoin="round" d="M 14616,9737 L 1378,9737"/>
 <path fill="none" stroke="rgb(179,179,179)" stroke-linejoin="round" d="M 14616,8777 L 1378,8777"/>
 <path fill="none" stroke="rgb(179,179,179)" stroke-linejoin="round" d="M 14616,7816 L 1378,7816"/>
 <path fill="none" stroke="rgb(179,179,179)" stroke-linejoin="round" d="M 14616,6856 L 1378,6856"/>
 <path fill="none" stroke="rgb(179,179,179)" stroke-linejoin="round" d="M 14616,5897 L 1378,5897"/>
 <path fill="none" stroke="rgb(179,179,179)" stroke-linejoin="round" d="M 14616,4936 L 1378,4936"/>
 <path fill="none" stroke="rgb(179,179,179)" stroke-linejoin="round" d="M 14616,3976 L 1378,3976"/>
 <path fill="none" stroke="rgb(179,179,179)" stroke-linejoin="round" d="M 14616,3015 L 1378,3015"/>
 <path fill="none" stroke="rgb(179,179,179)" stroke-linejoin="round" d="M 14616,2055 L 1378,2055"/>
 <path fill="none" stroke="rgb(179,179,179)" stroke-linejoin="round" d="M 14616,1095 L 1378,1095"/>
 <path fill="none" stroke="rgb(0,0,0)" stroke-width="30" stroke-linejoin="round" d="M 1378,10848 L 1378,10698"/>
 <path fill="none" stroke="rgb(0,0,0)" stroke-width="30" stroke-linejoin="round" d="M 1378,10848 L 1378,10698"/>
 <path fill="none" stroke="rgb(0,0,0)" stroke-width="30" stroke-linejoin="round" d="M 1490,10848 L 1490,10698"/>
 <path fill="none" stroke="rgb(0,0,0)" stroke-width="30" stroke-linejoin="round" d="M 1490,10848 L 1490,10698"/>
 <path fill="none" stroke="rgb(0,0,0)" stroke-width="30" stroke-linejoin="round" d="M 1602,10848 L 1602,10698"/>
 <path fill="none" stroke="rgb(0,0,0)" stroke-width="30" stroke-linejoin="round" d="M 1602,10848 L 1602,10698"/>
 <path fill="none" stroke="rgb(0,0,0)" stroke-width="30" stroke-linejoin="round" d="M 1714,10848 L 1714,10698"/>
 <path fill="none" stroke="rgb(0,0,0)" stroke-width="30" stroke-linejoin="round" d="M 1714,10848 L 1714,10698"/>
 <path fill="none" stroke="rgb(0,0,0)" stroke-width="30" stroke-linejoin="round" d="M 1826,10848 L 1826,10698"/>
 <path fill="none" stroke="rgb(0,0,0)" stroke-width="30" stroke-linejoin="round" d="M 1826,10848 L 1826,10698"/>
 <path fill="none" stroke="rgb(0,0,0)" stroke-width="30" stroke-linejoin="round" d="M 1938,10848 L 1938,10698"/>
 <path fill="none" stroke="rgb(0,0,0)" stroke-width="30" stroke-linejoin="round" d="M 1938,10848 L 1938,10698"/>
 <path fill="none" stroke="rgb(0,0,0)" stroke-width="30" stroke-linejoin="round" d="M 2051,10848 L 2051,10698"/>
 <path fill="none" stroke="rgb(0,0,0)" stroke-width="30" stroke-linejoin="round" d="M 2051,10848 L 2051,10698"/>
 <path fill="none" stroke="rgb(0,0,0)" stroke-width="30" stroke-linejoin="round" d="M 2163,10848 L 2163,10698"/>
 <path fill="none" stroke="rgb(0,0,0)" stroke-width="30" stroke-linejoin="round" d="M 2163,10848 L 2163,10698"/>
 <path fill="none" stroke="rgb(0,0,0)" stroke-width="30" stroke-linejoin="round" d="M 2275,10848 L 2275,10698"/>
 <path fill="none" stroke="rgb(0,0,0)" stroke-width="30" stroke-linejoin="round" d="M 2275,10848 L 2275,10698"/>
 <path fill="none" stroke="rgb(0,0,0)" stroke-width="30" stroke-linejoin="round" d="M 2387,10848 L 2387,10698"/>
 <path fill="none" stroke="rgb(0,0,0)" stroke-width="30" stroke-linejoin="round" d="M 2387,10848 L 2387,10698"/>
 <path fill="none" stroke="rgb(0,0,0)" stroke-width="30" stroke-linejoin="round" d="M 2499,10848 L 2499,10698"/>
 <path fill="none" stroke="rgb(0,0,0)" stroke-width="30" stroke-linejoin="round" d="M 2499,10848 L 2499,10698"/>
 <path fill="none" stroke="rgb(0,0,0)" stroke-width="30" stroke-linejoin="round" d="M 2612,10848 L 2612,10698"/>
 <path fill="none" stroke="rgb(0,0,0)" stroke-width="30" stroke-linejoin="round" d="M 2612,10848 L 2612,10698"/>
 <path fill="none" stroke="rgb(0,0,0)" stroke-width="30" stroke-linejoin="round" d="M 2724,10848 L 2724,10698"/>
 <path fill="none" stroke="rgb(0,0,0)" stroke-width="30" stroke-linejoin="round" d="M 2724,10848 L 2724,10698"/>
 <path fill="none" stroke="rgb(0,0,0)" stroke-width="30" stroke-linejoin="round" d="M 2836,10848 L 2836,10698"/>
 <path fill="none" stroke="rgb(0,0,0)" stroke-width="30" stroke-linejoin="round" d="M 2836,10848 L 2836,10698"/>
 <path fill="none" stroke="rgb(0,0,0)" stroke-width="30" stroke-linejoin="round" d="M 2948,10848 L 2948,10698"/>
 <path fill="none" stroke="rgb(0,0,0)" stroke-width="30" stroke-linejoin="round" d="M 2948,10848 L 2948,10698"/>
 <path fill="none" stroke="rgb(0,0,0)" stroke-width="30" stroke-linejoin="round" d="M 3060,10848 L 3060,10698"/>
 <path fill="none" stroke="rgb(0,0,0)" stroke-width="30" stroke-linejoin="round" d="M 3060,10848 L 3060,10698"/>
 <path fill="none" stroke="rgb(0,0,0)" stroke-width="30" stroke-linejoin="round" d="M 3173,10848 L 3173,10698"/>
 <path fill="none" stroke="rgb(0,0,0)" stroke-width="30" stroke-linejoin="round" d="M 3173,10848 L 3173,10698"/>
 <path fill="none" stroke="rgb(0,0,0)" stroke-width="30" stroke-linejoin="round" d="M 3285,10848 L 3285,10698"/>
 <path fill="none" stroke="rgb(0,0,0)" stroke-width="30" stroke-linejoin="round" d="M 3285,10848 L 3285,10698"/>
 <path fill="none" stroke="rgb(0,0,0)" stroke-width="30" stroke-linejoin="round" d="M 3397,10848 L 3397,10698"/>
 <path fill="none" stroke="rgb(0,0,0)" stroke-width="30" stroke-linejoin="round" d="M 3397,10848 L 3397,10698"/>
 <path fill="none" stroke="rgb(0,0,0)" stroke-width="30" stroke-linejoin="round" d="M 3509,10848 L 3509,10698"/>
 <path fill="none" stroke="rgb(0,0,0)" stroke-width="30" stroke-linejoin="round" d="M 3509,10848 L 3509,10698"/>
 <path fill="none" stroke="rgb(0,0,0)" stroke-width="30" stroke-linejoin="round" d="M 3621,10848 L 3621,10698"/>
 <path fill="none" stroke="rgb(0,0,0)" stroke-width="30" stroke-linejoin="round" d="M 3621,10848 L 3621,10698"/>
 <path fill="none" stroke="rgb(0,0,0)" stroke-width="30" stroke-linejoin="round" d="M 3734,10848 L 3734,10698"/>
 <path fill="none" stroke="rgb(0,0,0)" stroke-width="30" stroke-linejoin="round" d="M 3734,10848 L 3734,10698"/>
 <path fill="none" stroke="rgb(0,0,0)" stroke-width="30" stroke-linejoin="round" d="M 3846,10848 L 3846,10698"/>
 <path fill="none" stroke="rgb(0,0,0)" stroke-width="30" stroke-linejoin="round" d="M 3846,10848 L 3846,10698"/>
 <path fill="none" stroke="rgb(0,0,0)" stroke-width="30" stroke-linejoin="round" d="M 3958,10848 L 3958,10698"/>
 <path fill="none" stroke="rgb(0,0,0)" stroke-width="30" stroke-linejoin="round" d="M 3958,10848 L 3958,10698"/>
 <path fill="none" stroke="rgb(0,0,0)" stroke-width="30" stroke-linejoin="round" d="M 4070,10848 L 4070,10698"/>
 <path fill="none" stroke="rgb(0,0,0)" stroke-width="30" stroke-linejoin="round" d="M 4070,10848 L 4070,10698"/>
 <path fill="none" stroke="rgb(0,0,0)" stroke-width="30" stroke-linejoin="round" d="M 4182,10848 L 4182,10698"/>
 <path fill="none" stroke="rgb(0,0,0)" stroke-width="30" stroke-linejoin="round" d="M 4182,10848 L 4182,10698"/>
 <path fill="none" stroke="rgb(0,0,0)" stroke-width="30" stroke-linejoin="round" d="M 4295,10848 L 4295,10698"/>
 <path fill="none" stroke="rgb(0,0,0)" stroke-width="30" stroke-linejoin="round" d="M 4295,10848 L 4295,10698"/>
 <path fill="none" stroke="rgb(0,0,0)" stroke-width="30" stroke-linejoin="round" d="M 4407,10848 L 4407,10698"/>
 <path fill="none" stroke="rgb(0,0,0)" stroke-width="30" stroke-linejoin="round" d="M 4407,10848 L 4407,10698"/>
 <path fill="none" stroke="rgb(0,0,0)" stroke-width="30" stroke-linejoin="round" d="M 4519,10848 L 4519,10698"/>
 <path fill="none" stroke="rgb(0,0,0)" stroke-width="30" stroke-linejoin="round" d="M 4519,10848 L 4519,10698"/>
 <path fill="none" stroke="rgb(0,0,0)" stroke-width="30" stroke-linejoin="round" d="M 4631,10848 L 4631,10698"/>
 <path fill="none" stroke="rgb(0,0,0)" stroke-width="30" stroke-linejoin="round" d="M 4631,10848 L 4631,10698"/>
 <path fill="none" stroke="rgb(0,0,0)" stroke-width="30" stroke-linejoin="round" d="M 4743,10848 L 4743,10698"/>
 <path fill="none" stroke="rgb(0,0,0)" stroke-width="30" stroke-linejoin="round" d="M 4743,10848 L 4743,10698"/>
 <path fill="none" stroke="rgb(0,0,0)" stroke-width="30" stroke-linejoin="round" d="M 4856,10848 L 4856,10698"/>
 <path fill="none" stroke="rgb(0,0,0)" stroke-width="30" stroke-linejoin="round" d="M 4856,10848 L 4856,10698"/>
 <path fill="none" stroke="rgb(0,0,0)" stroke-width="30" stroke-linejoin="round" d="M 4968,10848 L 4968,10698"/>
 <path fill="none" stroke="rgb(0,0,0)" stroke-width="30" stroke-linejoin="round" d="M 4968,10848 L 4968,10698"/>
 <path fill="none" stroke="rgb(0,0,0)" stroke-width="30" stroke-linejoin="round" d="M 5080,10848 L 5080,10698"/>
 <path fill="none" stroke="rgb(0,0,0)" stroke-width="30" stroke-linejoin="round" d="M 5080,10848 L 5080,10698"/>
 <path fill="none" stroke="rgb(0,0,0)" stroke-width="30" stroke-linejoin="round" d="M 5192,10848 L 5192,10698"/>
 <path fill="none" stroke="rgb(0,0,0)" stroke-width="30" stroke-linejoin="round" d="M 5192,10848 L 5192,10698"/>
 <path fill="none" stroke="rgb(0,0,0)" stroke-width="30" stroke-linejoin="round" d="M 5304,10848 L 5304,10698"/>
 <path fill="none" stroke="rgb(0,0,0)" stroke-width="30" stroke-linejoin="round" d="M 5304,10848 L 5304,10698"/>
 <path fill="none" stroke="rgb(0,0,0)" stroke-width="30" stroke-linejoin="round" d="M 5417,10848 L 5417,10698"/>
 <path fill="none" stroke="rgb(0,0,0)" stroke-width="30" stroke-linejoin="round" d="M 5417,10848 L 5417,10698"/>
 <path fill="none" stroke="rgb(0,0,0)" stroke-width="30" stroke-linejoin="round" d="M 5529,10848 L 5529,10698"/>
 <path fill="none" stroke="rgb(0,0,0)" stroke-width="30" stroke-linejoin="round" d="M 5529,10848 L 5529,10698"/>
 <path fill="none" stroke="rgb(0,0,0)" stroke-width="30" stroke-linejoin="round" d="M 5641,10848 L 5641,10698"/>
 <path fill="none" stroke="rgb(0,0,0)" stroke-width="30" stroke-linejoin="round" d="M 5641,10848 L 5641,10698"/>
 <path fill="none" stroke="rgb(0,0,0)" stroke-width="30" stroke-linejoin="round" d="M 5753,10848 L 5753,10698"/>
 <path fill="none" stroke="rgb(0,0,0)" stroke-width="30" stroke-linejoin="round" d="M 5753,10848 L 5753,10698"/>
 <path fill="none" stroke="rgb(0,0,0)" stroke-width="30" stroke-linejoin="round" d="M 5865,10848 L 5865,10698"/>
 <path fill="none" stroke="rgb(0,0,0)" stroke-width="30" stroke-linejoin="round" d="M 5865,10848 L 5865,10698"/>
 <path fill="none" stroke="rgb(0,0,0)" stroke-width="30" stroke-linejoin="round" d="M 5977,10848 L 5977,10698"/>
 <path fill="none" stroke="rgb(0,0,0)" stroke-width="30" stroke-linejoin="round" d="M 5977,10848 L 5977,10698"/>
 <path fill="none" stroke="rgb(0,0,0)" stroke-width="30" stroke-linejoin="round" d="M 6090,10848 L 6090,10698"/>
 <path fill="none" stroke="rgb(0,0,0)" stroke-width="30" stroke-linejoin="round" d="M 6090,10848 L 6090,10698"/>
 <path fill="none" stroke="rgb(0,0,0)" stroke-width="30" stroke-linejoin="round" d="M 6202,10848 L 6202,10698"/>
 <path fill="none" stroke="rgb(0,0,0)" stroke-width="30" stroke-linejoin="round" d="M 6202,10848 L 6202,10698"/>
 <path fill="none" stroke="rgb(0,0,0)" stroke-width="30" stroke-linejoin="round" d="M 6314,10848 L 6314,10698"/>
 <path fill="none" stroke="rgb(0,0,0)" stroke-width="30" stroke-linejoin="round" d="M 6314,10848 L 6314,10698"/>
 <path fill="none" stroke="rgb(0,0,0)" stroke-width="30" stroke-linejoin="round" d="M 6426,10848 L 6426,10698"/>
 <path fill="none" stroke="rgb(0,0,0)" stroke-width="30" stroke-linejoin="round" d="M 6426,10848 L 6426,10698"/>
 <path fill="none" stroke="rgb(0,0,0)" stroke-width="30" stroke-linejoin="round" d="M 6538,10848 L 6538,10698"/>
 <path fill="none" stroke="rgb(0,0,0)" stroke-width="30" stroke-linejoin="round" d="M 6538,10848 L 6538,10698"/>
 <path fill="none" stroke="rgb(0,0,0)" stroke-width="30" stroke-linejoin="round" d="M 6651,10848 L 6651,10698"/>
 <path fill="none" stroke="rgb(0,0,0)" stroke-width="30" stroke-linejoin="round" d="M 6651,10848 L 6651,10698"/>
 <path fill="none" stroke="rgb(0,0,0)" stroke-width="30" stroke-linejoin="round" d="M 6763,10848 L 6763,10698"/>
 <path fill="none" stroke="rgb(0,0,0)" stroke-width="30" stroke-linejoin="round" d="M 6763,10848 L 6763,10698"/>
 <path fill="none" stroke="rgb(0,0,0)" stroke-width="30" stroke-linejoin="round" d="M 6875,10848 L 6875,10698"/>
 <path fill="none" stroke="rgb(0,0,0)" stroke-width="30" stroke-linejoin="round" d="M 6875,10848 L 6875,10698"/>
 <path fill="none" stroke="rgb(0,0,0)" stroke-width="30" stroke-linejoin="round" d="M 6987,10848 L 6987,10698"/>
 <path fill="none" stroke="rgb(0,0,0)" stroke-width="30" stroke-linejoin="round" d="M 6987,10848 L 6987,10698"/>
 <path fill="none" stroke="rgb(0,0,0)" stroke-width="30" stroke-linejoin="round" d="M 7099,10848 L 7099,10698"/>
 <path fill="none" stroke="rgb(0,0,0)" stroke-width="30" stroke-linejoin="round" d="M 7099,10848 L 7099,10698"/>
 <path fill="none" stroke="rgb(0,0,0)" stroke-width="30" stroke-linejoin="round" d="M 7212,10848 L 7212,10698"/>
 <path fill="none" stroke="rgb(0,0,0)" stroke-width="30" stroke-linejoin="round" d="M 7212,10848 L 7212,10698"/>
 <path fill="none" stroke="rgb(0,0,0)" stroke-width="30" stroke-linejoin="round" d="M 7324,10848 L 7324,10698"/>
 <path fill="none" stroke="rgb(0,0,0)" stroke-width="30" stroke-linejoin="round" d="M 7324,10848 L 7324,10698"/>
 <path fill="none" stroke="rgb(0,0,0)" stroke-width="30" stroke-linejoin="round" d="M 7436,10848 L 7436,10698"/>
 <path fill="none" stroke="rgb(0,0,0)" stroke-width="30" stroke-linejoin="round" d="M 7436,10848 L 7436,10698"/>
 <path fill="none" stroke="rgb(0,0,0)" stroke-width="30" stroke-linejoin="round" d="M 7548,10848 L 7548,10698"/>
 <path fill="none" stroke="rgb(0,0,0)" stroke-width="30" stroke-linejoin="round" d="M 7548,10848 L 7548,10698"/>
 <path fill="none" stroke="rgb(0,0,0)" stroke-width="30" stroke-linejoin="round" d="M 7660,10848 L 7660,10698"/>
 <path fill="none" stroke="rgb(0,0,0)" stroke-width="30" stroke-linejoin="round" d="M 7660,10848 L 7660,10698"/>
 <path fill="none" stroke="rgb(0,0,0)" stroke-width="30" stroke-linejoin="round" d="M 7773,10848 L 7773,10698"/>
 <path fill="none" stroke="rgb(0,0,0)" stroke-width="30" stroke-linejoin="round" d="M 7773,10848 L 7773,10698"/>
 <path fill="none" stroke="rgb(0,0,0)" stroke-width="30" stroke-linejoin="round" d="M 7885,10848 L 7885,10698"/>
 <path fill="none" stroke="rgb(0,0,0)" stroke-width="30" stroke-linejoin="round" d="M 7885,10848 L 7885,10698"/>
 <path fill="none" stroke="rgb(0,0,0)" stroke-width="30" stroke-linejoin="round" d="M 7996,10848 L 7996,10698"/>
 <path fill="none" stroke="rgb(0,0,0)" stroke-width="30" stroke-linejoin="round" d="M 7996,10848 L 7996,10698"/>
 <path fill="none" stroke="rgb(0,0,0)" stroke-width="30" stroke-linejoin="round" d="M 8108,10848 L 8108,10698"/>
 <path fill="none" stroke="rgb(0,0,0)" stroke-width="30" stroke-linejoin="round" d="M 8108,10848 L 8108,10698"/>
 <path fill="none" stroke="rgb(0,0,0)" stroke-width="30" stroke-linejoin="round" d="M 8220,10848 L 8220,10698"/>
 <path fill="none" stroke="rgb(0,0,0)" stroke-width="30" stroke-linejoin="round" d="M 8220,10848 L 8220,10698"/>
 <path fill="none" stroke="rgb(0,0,0)" stroke-width="30" stroke-linejoin="round" d="M 8333,10848 L 8333,10698"/>
 <path fill="none" stroke="rgb(0,0,0)" stroke-width="30" stroke-linejoin="round" d="M 8333,10848 L 8333,10698"/>
 <path fill="none" stroke="rgb(0,0,0)" stroke-width="30" stroke-linejoin="round" d="M 8445,10848 L 8445,10698"/>
 <path fill="none" stroke="rgb(0,0,0)" stroke-width="30" stroke-linejoin="round" d="M 8445,10848 L 8445,10698"/>
 <path fill="none" stroke="rgb(0,0,0)" stroke-width="30" stroke-linejoin="round" d="M 8557,10848 L 8557,10698"/>
 <path fill="none" stroke="rgb(0,0,0)" stroke-width="30" stroke-linejoin="round" d="M 8557,10848 L 8557,10698"/>
 <path fill="none" stroke="rgb(0,0,0)" stroke-width="30" stroke-linejoin="round" d="M 8669,10848 L 8669,10698"/>
 <path fill="none" stroke="rgb(0,0,0)" stroke-width="30" stroke-linejoin="round" d="M 8669,10848 L 8669,10698"/>
 <path fill="none" stroke="rgb(0,0,0)" stroke-width="30" stroke-linejoin="round" d="M 8781,10848 L 8781,10698"/>
 <path fill="none" stroke="rgb(0,0,0)" stroke-width="30" stroke-linejoin="round" d="M 8781,10848 L 8781,10698"/>
 <path fill="none" stroke="rgb(0,0,0)" stroke-width="30" stroke-linejoin="round" d="M 8894,10848 L 8894,10698"/>
 <path fill="none" stroke="rgb(0,0,0)" stroke-width="30" stroke-linejoin="round" d="M 8894,10848 L 8894,10698"/>
 <path fill="none" stroke="rgb(0,0,0)" stroke-width="30" stroke-linejoin="round" d="M 9006,10848 L 9006,10698"/>
 <path fill="none" stroke="rgb(0,0,0)" stroke-width="30" stroke-linejoin="round" d="M 9006,10848 L 9006,10698"/>
 <path fill="none" stroke="rgb(0,0,0)" stroke-width="30" stroke-linejoin="round" d="M 9118,10848 L 9118,10698"/>
 <path fill="none" stroke="rgb(0,0,0)" stroke-width="30" stroke-linejoin="round" d="M 9118,10848 L 9118,10698"/>
 <path fill="none" stroke="rgb(0,0,0)" stroke-width="30" stroke-linejoin="round" d="M 9230,10848 L 9230,10698"/>
 <path fill="none" stroke="rgb(0,0,0)" stroke-width="30" stroke-linejoin="round" d="M 9230,10848 L 9230,10698"/>
 <path fill="none" stroke="rgb(0,0,0)" stroke-width="30" stroke-linejoin="round" d="M 9342,10848 L 9342,10698"/>
 <path fill="none" stroke="rgb(0,0,0)" stroke-width="30" stroke-linejoin="round" d="M 9342,10848 L 9342,10698"/>
 <path fill="none" stroke="rgb(0,0,0)" stroke-width="30" stroke-linejoin="round" d="M 9455,10848 L 9455,10698"/>
 <path fill="none" stroke="rgb(0,0,0)" stroke-width="30" stroke-linejoin="round" d="M 9455,10848 L 9455,10698"/>
 <path fill="none" stroke="rgb(0,0,0)" stroke-width="30" stroke-linejoin="round" d="M 9567,10848 L 9567,10698"/>
 <path fill="none" stroke="rgb(0,0,0)" stroke-width="30" stroke-linejoin="round" d="M 9567,10848 L 9567,10698"/>
 <path fill="none" stroke="rgb(0,0,0)" stroke-width="30" stroke-linejoin="round" d="M 9679,10848 L 9679,10698"/>
 <path fill="none" stroke="rgb(0,0,0)" stroke-width="30" stroke-linejoin="round" d="M 9679,10848 L 9679,10698"/>
 <path fill="none" stroke="rgb(0,0,0)" stroke-width="30" stroke-linejoin="round" d="M 9791,10848 L 9791,10698"/>
 <path fill="none" stroke="rgb(0,0,0)" stroke-width="30" stroke-linejoin="round" d="M 9791,10848 L 9791,10698"/>
 <path fill="none" stroke="rgb(0,0,0)" stroke-width="30" stroke-linejoin="round" d="M 9903,10848 L 9903,10698"/>
 <path fill="none" stroke="rgb(0,0,0)" stroke-width="30" stroke-linejoin="round" d="M 9903,10848 L 9903,10698"/>
 <path fill="none" stroke="rgb(0,0,0)" stroke-width="30" stroke-linejoin="round" d="M 10016,10848 L 10016,10698"/>
 <path fill="none" stroke="rgb(0,0,0)" stroke-width="30" stroke-linejoin="round" d="M 10016,10848 L 10016,10698"/>
 <path fill="none" stroke="rgb(0,0,0)" stroke-width="30" stroke-linejoin="round" d="M 10128,10848 L 10128,10698"/>
 <path fill="none" stroke="rgb(0,0,0)" stroke-width="30" stroke-linejoin="round" d="M 10128,10848 L 10128,10698"/>
 <path fill="none" stroke="rgb(0,0,0)" stroke-width="30" stroke-linejoin="round" d="M 10240,10848 L 10240,10698"/>
 <path fill="none" stroke="rgb(0,0,0)" stroke-width="30" stroke-linejoin="round" d="M 10240,10848 L 10240,10698"/>
 <path fill="none" stroke="rgb(0,0,0)" stroke-width="30" stroke-linejoin="round" d="M 10352,10848 L 10352,10698"/>
 <path fill="none" stroke="rgb(0,0,0)" stroke-width="30" stroke-linejoin="round" d="M 10352,10848 L 10352,10698"/>
 <path fill="none" stroke="rgb(0,0,0)" stroke-width="30" stroke-linejoin="round" d="M 10464,10848 L 10464,10698"/>
 <path fill="none" stroke="rgb(0,0,0)" stroke-width="30" stroke-linejoin="round" d="M 10464,10848 L 10464,10698"/>
 <path fill="none" stroke="rgb(0,0,0)" stroke-width="30" stroke-linejoin="round" d="M 10576,10848 L 10576,10698"/>
 <path fill="none" stroke="rgb(0,0,0)" stroke-width="30" stroke-linejoin="round" d="M 10576,10848 L 10576,10698"/>
 <path fill="none" stroke="rgb(0,0,0)" stroke-width="30" stroke-linejoin="round" d="M 10689,10848 L 10689,10698"/>
 <path fill="none" stroke="rgb(0,0,0)" stroke-width="30" stroke-linejoin="round" d="M 10689,10848 L 10689,10698"/>
 <path fill="none" stroke="rgb(0,0,0)" stroke-width="30" stroke-linejoin="round" d="M 10801,10848 L 10801,10698"/>
 <path fill="none" stroke="rgb(0,0,0)" stroke-width="30" stroke-linejoin="round" d="M 10801,10848 L 10801,10698"/>
 <path fill="none" stroke="rgb(0,0,0)" stroke-width="30" stroke-linejoin="round" d="M 10913,10848 L 10913,10698"/>
 <path fill="none" stroke="rgb(0,0,0)" stroke-width="30" stroke-linejoin="round" d="M 10913,10848 L 10913,10698"/>
 <path fill="none" stroke="rgb(0,0,0)" stroke-width="30" stroke-linejoin="round" d="M 11025,10848 L 11025,10698"/>
 <path fill="none" stroke="rgb(0,0,0)" stroke-width="30" stroke-linejoin="round" d="M 11025,10848 L 11025,10698"/>
 <path fill="none" stroke="rgb(0,0,0)" stroke-width="30" stroke-linejoin="round" d="M 11137,10848 L 11137,10698"/>
 <path fill="none" stroke="rgb(0,0,0)" stroke-width="30" stroke-linejoin="round" d="M 11137,10848 L 11137,10698"/>
 <path fill="none" stroke="rgb(0,0,0)" stroke-width="30" stroke-linejoin="round" d="M 11250,10848 L 11250,10698"/>
 <path fill="none" stroke="rgb(0,0,0)" stroke-width="30" stroke-linejoin="round" d="M 11250,10848 L 11250,10698"/>
 <path fill="none" stroke="rgb(0,0,0)" stroke-width="30" stroke-linejoin="round" d="M 11362,10848 L 11362,10698"/>
 <path fill="none" stroke="rgb(0,0,0)" stroke-width="30" stroke-linejoin="round" d="M 11362,10848 L 11362,10698"/>
 <path fill="none" stroke="rgb(0,0,0)" stroke-width="30" stroke-linejoin="round" d="M 11474,10848 L 11474,10698"/>
 <path fill="none" stroke="rgb(0,0,0)" stroke-width="30" stroke-linejoin="round" d="M 11474,10848 L 11474,10698"/>
 <path fill="none" stroke="rgb(0,0,0)" stroke-width="30" stroke-linejoin="round" d="M 11586,10848 L 11586,10698"/>
 <path fill="none" stroke="rgb(0,0,0)" stroke-width="30" stroke-linejoin="round" d="M 11586,10848 L 11586,10698"/>
 <path fill="none" stroke="rgb(0,0,0)" stroke-width="30" stroke-linejoin="round" d="M 11698,10848 L 11698,10698"/>
 <path fill="none" stroke="rgb(0,0,0)" stroke-width="30" stroke-linejoin="round" d="M 11698,10848 L 11698,10698"/>
 <path fill="none" stroke="rgb(0,0,0)" stroke-width="30" stroke-linejoin="round" d="M 11811,10848 L 11811,10698"/>
 <path fill="none" stroke="rgb(0,0,0)" stroke-width="30" stroke-linejoin="round" d="M 11811,10848 L 11811,10698"/>
 <path fill="none" stroke="rgb(0,0,0)" stroke-width="30" stroke-linejoin="round" d="M 11923,10848 L 11923,10698"/>
 <path fill="none" stroke="rgb(0,0,0)" stroke-width="30" stroke-linejoin="round" d="M 11923,10848 L 11923,10698"/>
 <path fill="none" stroke="rgb(0,0,0)" stroke-width="30" stroke-linejoin="round" d="M 12035,10848 L 12035,10698"/>
 <path fill="none" stroke="rgb(0,0,0)" stroke-width="30" stroke-linejoin="round" d="M 12035,10848 L 12035,10698"/>
 <path fill="none" stroke="rgb(0,0,0)" stroke-width="30" stroke-linejoin="round" d="M 12147,10848 L 12147,10698"/>
 <path fill="none" stroke="rgb(0,0,0)" stroke-width="30" stroke-linejoin="round" d="M 12147,10848 L 12147,10698"/>
 <path fill="none" stroke="rgb(0,0,0)" stroke-width="30" stroke-linejoin="round" d="M 12259,10848 L 12259,10698"/>
 <path fill="none" stroke="rgb(0,0,0)" stroke-width="30" stroke-linejoin="round" d="M 12259,10848 L 12259,10698"/>
 <path fill="none" stroke="rgb(0,0,0)" stroke-width="30" stroke-linejoin="round" d="M 12372,10848 L 12372,10698"/>
 <path fill="none" stroke="rgb(0,0,0)" stroke-width="30" stroke-linejoin="round" d="M 12372,10848 L 12372,10698"/>
 <path fill="none" stroke="rgb(0,0,0)" stroke-width="30" stroke-linejoin="round" d="M 12484,10848 L 12484,10698"/>
 <path fill="none" stroke="rgb(0,0,0)" stroke-width="30" stroke-linejoin="round" d="M 12484,10848 L 12484,10698"/>
 <path fill="none" stroke="rgb(0,0,0)" stroke-width="30" stroke-linejoin="round" d="M 12596,10848 L 12596,10698"/>
 <path fill="none" stroke="rgb(0,0,0)" stroke-width="30" stroke-linejoin="round" d="M 12596,10848 L 12596,10698"/>
 <path fill="none" stroke="rgb(0,0,0)" stroke-width="30" stroke-linejoin="round" d="M 12708,10848 L 12708,10698"/>
 <path fill="none" stroke="rgb(0,0,0)" stroke-width="30" stroke-linejoin="round" d="M 12708,10848 L 12708,10698"/>
 <path fill="none" stroke="rgb(0,0,0)" stroke-width="30" stroke-linejoin="round" d="M 12820,10848 L 12820,10698"/>
 <path fill="none" stroke="rgb(0,0,0)" stroke-width="30" stroke-linejoin="round" d="M 12820,10848 L 12820,10698"/>
 <path fill="none" stroke="rgb(0,0,0)" stroke-width="30" stroke-linejoin="round" d="M 12933,10848 L 12933,10698"/>
 <path fill="none" stroke="rgb(0,0,0)" stroke-width="30" stroke-linejoin="round" d="M 12933,10848 L 12933,10698"/>
 <path fill="none" stroke="rgb(0,0,0)" stroke-width="30" stroke-linejoin="round" d="M 13045,10848 L 13045,10698"/>
 <path fill="none" stroke="rgb(0,0,0)" stroke-width="30" stroke-linejoin="round" d="M 13045,10848 L 13045,10698"/>
 <path fill="none" stroke="rgb(0,0,0)" stroke-width="30" stroke-linejoin="round" d="M 13157,10848 L 13157,10698"/>
 <path fill="none" stroke="rgb(0,0,0)" stroke-width="30" stroke-linejoin="round" d="M 13157,10848 L 13157,10698"/>
 <path fill="none" stroke="rgb(0,0,0)" stroke-width="30" stroke-linejoin="round" d="M 13269,10848 L 13269,10698"/>
 <path fill="none" stroke="rgb(0,0,0)" stroke-width="30" stroke-linejoin="round" d="M 13269,10848 L 13269,10698"/>
 <path fill="none" stroke="rgb(0,0,0)" stroke-width="30" stroke-linejoin="round" d="M 13381,10848 L 13381,10698"/>
 <path fill="none" stroke="rgb(0,0,0)" stroke-width="30" stroke-linejoin="round" d="M 13381,10848 L 13381,10698"/>
 <path fill="none" stroke="rgb(0,0,0)" stroke-width="30" stroke-linejoin="round" d="M 13494,10848 L 13494,10698"/>
 <path fill="none" stroke="rgb(0,0,0)" stroke-width="30" stroke-linejoin="round" d="M 13494,10848 L 13494,10698"/>
 <path fill="none" stroke="rgb(0,0,0)" stroke-width="30" stroke-linejoin="round" d="M 13606,10848 L 13606,10698"/>
 <path fill="none" stroke="rgb(0,0,0)" stroke-width="30" stroke-linejoin="round" d="M 13606,10848 L 13606,10698"/>
 <path fill="none" stroke="rgb(0,0,0)" stroke-width="30" stroke-linejoin="round" d="M 13718,10848 L 13718,10698"/>
 <path fill="none" stroke="rgb(0,0,0)" stroke-width="30" stroke-linejoin="round" d="M 13718,10848 L 13718,10698"/>
 <path fill="none" stroke="rgb(0,0,0)" stroke-width="30" stroke-linejoin="round" d="M 13830,10848 L 13830,10698"/>
 <path fill="none" stroke="rgb(0,0,0)" stroke-width="30" stroke-linejoin="round" d="M 13830,10848 L 13830,10698"/>
 <path fill="none" stroke="rgb(0,0,0)" stroke-width="30" stroke-linejoin="round" d="M 13942,10848 L 13942,10698"/>
 <path fill="none" stroke="rgb(0,0,0)" stroke-width="30" stroke-linejoin="round" d="M 13942,10848 L 13942,10698"/>
 <path fill="none" stroke="rgb(0,0,0)" stroke-width="30" stroke-linejoin="round" d="M 14055,10848 L 14055,10698"/>
 <path fill="none" stroke="rgb(0,0,0)" stroke-width="30" stroke-linejoin="round" d="M 14055,10848 L 14055,10698"/>
 <path fill="none" stroke="rgb(0,0,0)" stroke-width="30" stroke-linejoin="round" d="M 14167,10848 L 14167,10698"/>
 <path fill="none" stroke="rgb(0,0,0)" stroke-width="30" stroke-linejoin="round" d="M 14167,10848 L 14167,10698"/>
 <path fill="none" stroke="rgb(0,0,0)" stroke-width="30" stroke-linejoin="round" d="M 14279,10848 L 14279,10698"/>
 <path fill="none" stroke="rgb(0,0,0)" stroke-width="30" stroke-linejoin="round" d="M 14279,10848 L 14279,10698"/>
 <path fill="none" stroke="rgb(0,0,0)" stroke-width="30" stroke-linejoin="round" d="M 14391,10848 L 14391,10698"/>
 <path fill="none" stroke="rgb(0,0,0)" stroke-width="30" stroke-linejoin="round" d="M 14391,10848 L 14391,10698"/>
 <path fill="none" stroke="rgb(0,0,0)" stroke-width="30" stroke-linejoin="round" d="M 14503,10848 L 14503,10698"/>
 <path fill="none" stroke="rgb(0,0,0)" stroke-width="30" stroke-linejoin="round" d="M 14503,10848 L 14503,10698"/>
 <path fill="none" stroke="rgb(0,0,0)" stroke-width="30" stroke-linejoin="round" d="M 14616,10848 L 14616,10698"/>
 <path fill="none" stroke="rgb(0,0,0)" stroke-width="30" stroke-linejoin="round" d="M 14616,10848 L 14616,10698"/>
 <path fill="none" stroke="rgb(0,0,0)" stroke-width="30" stroke-linejoin="round" d="M 1378,10698 L 14616,10698"/>
 <path fill="none" stroke="rgb(0,0,0)" stroke-width="30" stroke-linejoin="round" d="M 1228,10698 L 1528,10698"/>
 <path fill="none" stroke="rgb(0,0,0)" stroke-width="30" stroke-linejoin="round" d="M 1228,10698 L 1528,10698"/>
 <path fill="none" stroke="rgb(0,0,0)" stroke-width="30" stroke-linejoin="round" d="M 1228,9737 L 1528,9737"/>
 <path fill="none" stroke="rgb(0,0,0)" stroke-width="30" stroke-linejoin="round" d="M 1228,9737 L 1528,9737"/>
 <path fill="none" stroke="rgb(0,0,0)" stroke-width="30" stroke-linejoin="round" d="M 1228,8777 L 1528,8777"/>
 <path fill="none" stroke="rgb(0,0,0)" stroke-width="30" stroke-linejoin="round" d="M 1228,8777 L 1528,8777"/>
 <path fill="none" stroke="rgb(0,0,0)" stroke-width="30" stroke-linejoin="round" d="M 1228,7816 L 1528,7816"/>
 <path fill="none" stroke="rgb(0,0,0)" stroke-width="30" stroke-linejoin="round" d="M 1228,7816 L 1528,7816"/>
 <path fill="none" stroke="rgb(0,0,0)" stroke-width="30" stroke-linejoin="round" d="M 1228,6856 L 1528,6856"/>
 <path fill="none" stroke="rgb(0,0,0)" stroke-width="30" stroke-linejoin="round" d="M 1228,6856 L 1528,6856"/>
 <path fill="none" stroke="rgb(0,0,0)" stroke-width="30" stroke-linejoin="round" d="M 1228,5897 L 1528,5897"/>
 <path fill="none" stroke="rgb(0,0,0)" stroke-width="30" stroke-linejoin="round" d="M 1228,5897 L 1528,5897"/>
 <path fill="none" stroke="rgb(0,0,0)" stroke-width="30" stroke-linejoin="round" d="M 1228,4936 L 1528,4936"/>
 <path fill="none" stroke="rgb(0,0,0)" stroke-width="30" stroke-linejoin="round" d="M 1228,4936 L 1528,4936"/>
 <path fill="none" stroke="rgb(0,0,0)" stroke-width="30" stroke-linejoin="round" d="M 1228,3976 L 1528,3976"/>
 <path fill="none" stroke="rgb(0,0,0)" stroke-width="30" stroke-linejoin="round" d="M 1228,3976 L 1528,3976"/>
 <path fill="none" stroke="rgb(0,0,0)" stroke-width="30" stroke-linejoin="round" d="M 1228,3015 L 1528,3015"/>
 <path fill="none" stroke="rgb(0,0,0)" stroke-width="30" stroke-linejoin="round" d="M 1228,3015 L 1528,3015"/>
 <path fill="none" stroke="rgb(0,0,0)" stroke-width="30" stroke-linejoin="round" d="M 1228,2055 L 1528,2055"/>
 <path fill="none" stroke="rgb(0,0,0)" stroke-width="30" stroke-linejoin="round" d="M 1228,2055 L 1528,2055"/>
 <path fill="none" stroke="rgb(0,0,0)" stroke-width="30" stroke-linejoin="round" d="M 1228,1095 L 1528,1095"/>
 <path fill="none" stroke="rgb(0,0,0)" stroke-width="30" stroke-linejoin="round" d="M 1228,1095 L 1528,1095"/>
 <path fill="none" stroke="rgb(0,0,0)" stroke-width="30" stroke-linejoin="round" d="M 1378,10698 L 1378,1095"/>
 <path fill="none" stroke="rgb(0,0,0)" stroke-width="30" stroke-linejoin="round" d="M 14766,10698 L 14616,10698"/>
 <path fill="none" stroke="rgb(0,0,0)" stroke-width="30" stroke-linejoin="round" d="M 14766,10698 L 14616,10698"/>
 <path fill="none" stroke="rgb(0,0,0)" stroke-width="30" stroke-linejoin="round" d="M 14766,9737 L 14616,9737"/>
 <path fill="none" stroke="rgb(0,0,0)" stroke-width="30" stroke-linejoin="round" d="M 14766,9737 L 14616,9737"/>
 <path fill="none" stroke="rgb(0,0,0)" stroke-width="30" stroke-linejoin="round" d="M 14766,8777 L 14616,8777"/>
 <path fill="none" stroke="rgb(0,0,0)" stroke-width="30" stroke-linejoin="round" d="M 14766,8777 L 14616,8777"/>
 <path fill="none" stroke="rgb(0,0,0)" stroke-width="30" stroke-linejoin="round" d="M 14766,7816 L 14616,7816"/>
 <path fill="none" stroke="rgb(0,0,0)" stroke-width="30" stroke-linejoin="round" d="M 14766,7816 L 14616,7816"/>
 <path fill="none" stroke="rgb(0,0,0)" stroke-width="30" stroke-linejoin="round" d="M 14766,6856 L 14616,6856"/>
 <path fill="none" stroke="rgb(0,0,0)" stroke-width="30" stroke-linejoin="round" d="M 14766,6856 L 14616,6856"/>
 <path fill="none" stroke="rgb(0,0,0)" stroke-width="30" stroke-linejoin="round" d="M 14766,5897 L 14616,5897"/>
 <path fill="none" stroke="rgb(0,0,0)" stroke-width="30" stroke-linejoin="round" d="M 14766,5897 L 14616,5897"/>
 <path fill="none" stroke="rgb(0,0,0)" stroke-width="30" stroke-linejoin="round" d="M 14766,4936 L 14616,4936"/>
 <path fill="none" stroke="rgb(0,0,0)" stroke-width="30" stroke-linejoin="round" d="M 14766,4936 L 14616,4936"/>
 <path fill="none" stroke="rgb(0,0,0)" stroke-width="30" stroke-linejoin="round" d="M 14766,3976 L 14616,3976"/>
 <path fill="none" stroke="rgb(0,0,0)" stroke-width="30" stroke-linejoin="round" d="M 14766,3976 L 14616,3976"/>
 <path fill="none" stroke="rgb(0,0,0)" stroke-width="30" stroke-linejoin="round" d="M 14766,3015 L 14616,3015"/>
 <path fill="none" stroke="rgb(0,0,0)" stroke-width="30" stroke-linejoin="round" d="M 14766,3015 L 14616,3015"/>
 <path fill="none" stroke="rgb(0,0,0)" stroke-width="30" stroke-linejoin="round" d="M 14766,2055 L 14616,2055"/>
 <path fill="none" stroke="rgb(0,0,0)" stroke-width="30" stroke-linejoin="round" d="M 14766,2055 L 14616,2055"/>
 <path fill="none" stroke="rgb(0,0,0)" stroke-width="30" stroke-linejoin="round" d="M 14766,1095 L 14616,1095"/>
 <path fill="none" stroke="rgb(0,0,0)" stroke-width="30" stroke-linejoin="round" d="M 14766,1095 L 14616,1095"/>
 <path fill="none" stroke="rgb(0,0,0)" stroke-width="30" stroke-linejoin="round" d="M 14616,10698 L 14616,1095"/>
 <path fill="rgb(255,211,32)" stroke="none" d="M 1378,10698 L 1490,10698 1602,10698 1714,10698 1826,10698 1938,10698 2051,10698 2163,10698 2275,10698 2387,10698 2499,10592 2612,10601 2724,10590 2836,10564 2948,10551 3060,10550 3173,10544 3285,10526 3397,10490 3509,10469 3621,10452 3734,10427 3846,10395 3958,10356 4070,10322 4182,10258 4295,10203 4407,10161 4519,10112 4631,10054 4743,10030 4856,10009 4968,10016 5080,9985 5192,9936 5304,9897 5417,9818 5529,9748 5641,9680 5753,9655 5865,9597 5977,9570 6090,9512 6202,9461 6314,9443 6426,9227 6538,9165 6651,9019 6763,8995 6875,8916 6987,8936 7099,8946 7212,8983 7324,8945 7436,8859 7548,8898 7660,8946 7773,8888 7885,8923 7996,8897 8108,9017 8220,9001 8333,9052 8445,9118 8557,9135 8669,9123 8781,9179 8894,9055 9006,8995 9118,9097 9230,9103 9342,9127 9455,9074 9567,8982 9679,8950 9791,8869 9903,8815 10016,8893 10128,8736 10240,8591 10352,8507 10464,8596 10576,8556 10689,8482 10801,8460 10913,8349 11025,8166 11137,8120 11250,8088 11362,7843 11474,7900 11586,7815 11698,7751 11811,7612 11923,7504 12035,7412 12147,7335 12259,7258 12372,7042 12484,6930 12596,6643 12708,6439 12820,5855 12933,5916 13045,5755 13157,5510 13269,5413 13381,5443 13494,5371 13606,5388 13718,5316 13830,5191 13942,5295 14055,5236 14167,5126 14279,5126 14391,5104 14503,5113 14616,5135 14616,10698 1378,10698 Z"/>
 <path fill="none" stroke="rgb(0,0,0)" stroke-linejoin="round" d="M 1378,10698 L 1490,10698 1602,10698 1714,10698 1826,10698 1938,10698 2051,10698 2163,10698 2275,10698 2387,10698 2499,10592 2612,10601 2724,10590 2836,10564 2948,10551 3060,10550 3173,10544 3285,10526 3397,10490 3509,10469 3621,10452 3734,10427 3846,10395 3958,10356 4070,10322 4182,10258 4295,10203 4407,10161 4519,10112 4631,10054 4743,10030 4856,10009 4968,10016 5080,9985 5192,9936 5304,9897 5417,9818 5529,9748 5641,9680 5753,9655 5865,9597 5977,9570 6090,9512 6202,9461 6314,9443 6426,9227 6538,9165 6651,9019 6763,8995 6875,8916 6987,8936 7099,8946 7212,8983 7324,8945 7436,8859 7548,8898 7660,8946 7773,8888 7885,8923 7996,8897 8108,9017 8220,9001 8333,9052 8445,9118 8557,9135 8669,9123 8781,9179 8894,9055 9006,8995 9118,9097 9230,9103 9342,9127 9455,9074 9567,8982 9679,8950 9791,8869 9903,8815 10016,8893 10128,8736 10240,8591 10352,8507 10464,8596 10576,8556 10689,8482 10801,8460 10913,8349 11025,8166 11137,8120 11250,8088 11362,7843 11474,7900 11586,7815 11698,7751 11811,7612 11923,7504 12035,7412 12147,7335 12259,7258 12372,7042 12484,6930 12596,6643 12708,6439 12820,5855 12933,5916 13045,5755 13157,5510 13269,5413 13381,5443 13494,5371 13606,5388 13718,5316 13830,5191 13942,5295 14055,5236 14167,5126 14279,5126 14391,5104 14503,5113 14616,5135 14616,10698 1378,10698 Z"/>
 <path fill="rgb(0,69,134)" stroke="none" d="M 1378,3062 L 1490,3127 1602,3182 1714,3225 1826,3263 1938,3242 2051,3404 2163,3459 2275,3446 2387,3481 2499,3468 2612,3529 2724,3714 2836,3794 2948,3858 3060,3903 3173,3970 3285,4018 3397,3952 3509,3912 3621,3960 3734,4005 3846,4094 3958,4155 4070,4221 4182,4247 4295,4242 4407,4261 4519,4300 4631,4309 4743,4311 4856,4228 4968,4196 5080,4203 5192,4227 5304,4227 5417,4221 5529,4280 5641,4317 5753,4217 5865,4242 5977,4293 6090,4315 6202,4319 6314,4394 6426,4288 6538,4280 6651,4275 6763,4312 6875,4349 6987,4329 7099,4278 7212,4230 7324,4167 7436,4113 7548,4179 7660,4281 7773,4249 7885,4273 7996,4262 8108,4332 8220,4336 8333,4410 8445,4495 8557,4510 8669,4377 8781,4438 8894,4306 9006,4261 9118,4345 9230,4211 9342,4259 9455,4243 9567,4203 9679,4243 9791,4240 9903,4126 10016,4264 10128,4157 10240,3962 10352,3946 10464,3948 10576,3852 10689,3817 10801,3803 10913,3637 11025,3729 11137,3636 11250,3675 11362,3685 11474,3613 11586,3658 11698,3680 11811,3574 11923,3674 12035,3672 12147,3560 12259,3674 12372,3680 12484,3721 12596,3656 12708,3642 12820,3270 12933,3314 13045,3301 13157,3246 13269,3396 13381,3497 13494,3544 13606,3659 13718,3655 13830,3592 13942,3805 14055,3740 14167,3528 14279,3671 14391,3607 14503,3723 14616,3903 14616,5135 14503,5113 14391,5104 14279,5126 14167,5126 14055,5236 13942,5295 13830,5191 13718,5316 13606,5388 13494,5371 13381,5443 13269,5413 13157,5510 13045,5755 12933,5916 12820,5855 12708,6439 12596,6643 12484,6930 12372,7042 12259,7258 12147,7335 12035,7412 11923,7504 11811,7612 11698,7751 11586,7815 11474,7900 11362,7843 11250,8088 11137,8120 11025,8166 10913,8349 10801,8460 10689,8482 10576,8556 10464,8596 10352,8507 10240,8591 10128,8736 10016,8893 9903,8815 9791,8869 9679,8950 9567,8982 9455,9074 9342,9127 9230,9103 9118,9097 9006,8995 8894,9055 8781,9179 8669,9123 8557,9135 8445,9118 8333,9052 8220,9001 8108,9017 7996,8897 7885,8923 7773,8888 7660,8946 7548,8898 7436,8859 7324,8945 7212,8983 7099,8946 6987,8936 6875,8916 6763,8995 6651,9019 6538,9165 6426,9227 6314,9443 6202,9461 6090,9512 5977,9570 5865,9597 5753,9655 5641,9680 5529,9748 5417,9818 5304,9897 5192,9936 5080,9985 4968,10016 4856,10009 4743,10030 4631,10054 4519,10112 4407,10161 4295,10203 4182,10258 4070,10322 3958,10356 3846,10395 3734,10427 3621,10452 3509,10469 3397,10490 3285,10526 3173,10544 3060,10550 2948,10551 2836,10564 2724,10590 2612,10601 2499,10592 2387,10698 2275,10698 2163,10698 2051,10698 1938,10698 1826,10698 1714,10698 1602,10698 1490,10698 1378,10698 1378,3062 Z"/>
 <path fill="none" stroke="rgb(0,0,0)" stroke-linejoin="round" d="M 1378,3062 L 1490,3127 1602,3182 1714,3225 1826,3263 1938,3242 2051,3404 2163,3459 2275,3446 2387,3481 2499,3468 2612,3529 2724,3714 2836,3794 2948,3858 3060,3903 3173,3970 3285,4018 3397,3952 3509,3912 3621,3960 3734,4005 3846,4094 3958,4155 4070,4221 4182,4247 4295,4242 4407,4261 4519,4300 4631,4309 4743,4311 4856,4228 4968,4196 5080,4203 5192,4227 5304,4227 5417,4221 5529,4280 5641,4317 5753,4217 5865,4242 5977,4293 6090,4315 6202,4319 6314,4394 6426,4288 6538,4280 6651,4275 6763,4312 6875,4349 6987,4329 7099,4278 7212,4230 7324,4167 7436,4113 7548,4179 7660,4281 7773,4249 7885,4273 7996,4262 8108,4332 8220,4336 8333,4410 8445,4495 8557,4510 8669,4377 8781,4438 8894,4306 9006,4261 9118,4345 9230,4211 9342,4259 9455,4243 9567,4203 9679,4243 9791,4240 9903,4126 10016,4264 10128,4157 10240,3962 10352,3946 10464,3948 10576,3852 10689,3817 10801,3803 10913,3637 11025,3729 11137,3636 11250,3675 11362,3685 11474,3613 11586,3658 11698,3680 11811,3574 11923,3674 12035,3672 12147,3560 12259,3674 12372,3680 12484,3721 12596,3656 12708,3642 12820,3270 12933,3314 13045,3301 13157,3246 13269,3396 13381,3497 13494,3544 13606,3659 13718,3655 13830,3592 13942,3805 14055,3740 14167,3528 14279,3671 14391,3607 14503,3723 14616,3903 14616,5135 14503,5113 14391,5104 14279,5126 14167,5126 14055,5236 13942,5295 13830,5191 13718,5316 13606,5388 13494,5371 13381,5443 13269,5413 13157,5510 13045,5755 12933,5916 12820,5855 12708,6439 12596,6643 12484,6930 12372,7042 12259,7258 12147,7335 12035,7412 11923,7504 11811,7612 11698,7751 11586,7815 11474,7900 11362,7843 11250,8088 11137,8120 11025,8166 10913,8349 10801,8460 10689,8482 10576,8556 10464,8596 10352,8507 10240,8591 10128,8736 10016,8893 9903,8815 9791,8869 9679,8950 9567,8982 9455,9074 9342,9127 9230,9103 9118,9097 9006,8995 8894,9055 8781,9179 8669,9123 8557,9135 8445,9118 8333,9052 8220,9001 8108,9017 7996,8897 7885,8923 7773,8888 7660,8946 7548,8898 7436,8859 7324,8945 7212,8983 7099,8946 6987,8936 6875,8916 6763,8995 6651,9019 6538,9165 6426,9227 6314,9443 6202,9461 6090,9512 5977,9570 5865,9597 5753,9655 5641,9680 5529,9748 5417,9818 5304,9897 5192,9936 5080,9985 4968,10016 4856,10009 4743,10030 4631,10054 4519,10112 4407,10161 4295,10203 4182,10258 4070,10322 3958,10356 3846,10395 3734,10427 3621,10452 3509,10469 3397,10490 3285,10526 3173,10544 3060,10550 2948,10551 2836,10564 2724,10590 2612,10601 2499,10592 2387,10698 2275,10698 2163,10698 2051,10698 1938,10698 1826,10698 1714,10698 1602,10698 1490,10698 1378,10698 1378,3062 Z"/>
 <path fill="rgb(87,157,28)" stroke="none" d="M 1378,2841 L 1490,2890 1602,2931 1714,2972 1826,3005 1938,2996 2051,3130 2163,3195 2275,3193 2387,3223 2499,3199 2612,3255 2724,3420 2836,3470 2948,3512 3060,3574 3173,3622 3285,3683 3397,3600 3509,3551 3621,3576 3734,3620 3846,3691 3958,3740 4070,3811 4182,3828 4295,3818 4407,3840 4519,3860 4631,3862 4743,3865 4856,3770 4968,3721 5080,3719 5192,3739 5304,3733 5417,3704 5529,3733 5641,3729 5753,3625 5865,3626 5977,3626 6090,3637 6202,3628 6314,3648 6426,3562 6538,3515 6651,3461 6763,3518 6875,3521 6987,3443 7099,3392 7212,3376 7324,3298 7436,3240 7548,3254 7660,3350 7773,3224 7885,3269 7996,3241 8108,3278 8220,3269 8333,3280 8445,3365 8557,3378 8669,3312 8781,3348 8894,3220 9006,3125 9118,3187 9230,3154 9342,3128 9455,3065 9567,3032 9679,2989 9791,2963 9903,2892 10016,2981 10128,2887 10240,2806 10352,2798 10464,2780 10576,2795 10689,2710 10801,2591 10913,2569 11025,2539 11137,2525 11250,2558 11362,2496 11474,2543 11586,2508 11698,2473 11811,2430 11923,2459 12035,2388 12147,2520 12259,2554 12372,2559 12484,2600 12596,2482 12708,2543 12820,2331 12933,2326 13045,2299 13157,2262 13269,2406 13381,2579 13494,2620 13606,2604 13718,2530 13830,2512 13942,2482 14055,2499 14167,2543 14279,2397 14391,2408 14503,2415 14616,2500 14616,3903 14503,3723 14391,3607 14279,3671 14167,3528 14055,3740 13942,3805 13830,3592 13718,3655 13606,3659 13494,3544 13381,3497 13269,3396 13157,3246 13045,3301 12933,3314 12820,3270 12708,3642 12596,3656 12484,3721 12372,3680 12259,3674 12147,3560 12035,3672 11923,3674 11811,3574 11698,3680 11586,3658 11474,3613 11362,3685 11250,3675 11137,3636 11025,3729 10913,3637 10801,3803 10689,3817 10576,3852 10464,3948 10352,3946 10240,3962 10128,4157 10016,4264 9903,4126 9791,4240 9679,4243 9567,4203 9455,4243 9342,4259 9230,4211 9118,4345 9006,4261 8894,4306 8781,4438 8669,4377 8557,4510 8445,4495 8333,4410 8220,4336 8108,4332 7996,4262 7885,4273 7773,4249 7660,4281 7548,4179 7436,4113 7324,4167 7212,4230 7099,4278 6987,4329 6875,4349 6763,4312 6651,4275 6538,4280 6426,4288 6314,4394 6202,4319 6090,4315 5977,4293 5865,4242 5753,4217 5641,4317 5529,4280 5417,4221 5304,4227 5192,4227 5080,4203 4968,4196 4856,4228 4743,4311 4631,4309 4519,4300 4407,4261 4295,4242 4182,4247 4070,4221 3958,4155 3846,4094 3734,4005 3621,3960 3509,3912 3397,3952 3285,4018 3173,3970 3060,3903 2948,3858 2836,3794 2724,3714 2612,3529 2499,3468 2387,3481 2275,3446 2163,3459 2051,3404 1938,3242 1826,3263 1714,3225 1602,3182 1490,3127 1378,3062 1378,2841 Z"/>
 <path fill="none" stroke="rgb(0,0,0)" stroke-linejoin="round" d="M 1378,2841 L 1490,2890 1602,2931 1714,2972 1826,3005 1938,2996 2051,3130 2163,3195 2275,3193 2387,3223 2499,3199 2612,3255 2724,3420 2836,3470 2948,3512 3060,3574 3173,3622 3285,3683 3397,3600 3509,3551 3621,3576 3734,3620 3846,3691 3958,3740 4070,3811 4182,3828 4295,3818 4407,3840 4519,3860 4631,3862 4743,3865 4856,3770 4968,3721 5080,3719 5192,3739 5304,3733 5417,3704 5529,3733 5641,3729 5753,3625 5865,3626 5977,3626 6090,3637 6202,3628 6314,3648 6426,3562 6538,3515 6651,3461 6763,3518 6875,3521 6987,3443 7099,3392 7212,3376 7324,3298 7436,3240 7548,3254 7660,3350 7773,3224 7885,3269 7996,3241 8108,3278 8220,3269 8333,3280 8445,3365 8557,3378 8669,3312 8781,3348 8894,3220 9006,3125 9118,3187 9230,3154 9342,3128 9455,3065 9567,3032 9679,2989 9791,2963 9903,2892 10016,2981 10128,2887 10240,2806 10352,2798 10464,2780 10576,2795 10689,2710 10801,2591 10913,2569 11025,2539 11137,2525 11250,2558 11362,2496 11474,2543 11586,2508 11698,2473 11811,2430 11923,2459 12035,2388 12147,2520 12259,2554 12372,2559 12484,2600 12596,2482 12708,2543 12820,2331 12933,2326 13045,2299 13157,2262 13269,2406 13381,2579 13494,2620 13606,2604 13718,2530 13830,2512 13942,2482 14055,2499 14167,2543 14279,2397 14391,2408 14503,2415 14616,2500 14616,3903 14503,3723 14391,3607 14279,3671 14167,3528 14055,3740 13942,3805 13830,3592 13718,3655 13606,3659 13494,3544 13381,3497 13269,3396 13157,3246 13045,3301 12933,3314 12820,3270 12708,3642 12596,3656 12484,3721 12372,3680 12259,3674 12147,3560 12035,3672 11923,3674 11811,3574 11698,3680 11586,3658 11474,3613 11362,3685 11250,3675 11137,3636 11025,3729 10913,3637 10801,3803 10689,3817 10576,3852 10464,3948 10352,3946 10240,3962 10128,4157 10016,4264 9903,4126 9791,4240 9679,4243 9567,4203 9455,4243 9342,4259 9230,4211 9118,4345 9006,4261 8894,4306 8781,4438 8669,4377 8557,4510 8445,4495 8333,4410 8220,4336 8108,4332 7996,4262 7885,4273 7773,4249 7660,4281 7548,4179 7436,4113 7324,4167 7212,4230 7099,4278 6987,4329 6875,4349 6763,4312 6651,4275 6538,4280 6426,4288 6314,4394 6202,4319 6090,4315 5977,4293 5865,4242 5753,4217 5641,4317 5529,4280 5417,4221 5304,4227 5192,4227 5080,4203 4968,4196 4856,4228 4743,4311 4631,4309 4519,4300 4407,4261 4295,4242 4182,4247 4070,4221 3958,4155 3846,4094 3734,4005 3621,3960 3509,3912 3397,3952 3285,4018 3173,3970 3060,3903 2948,3858 2836,3794 2724,3714 2612,3529 2499,3468 2387,3481 2275,3446 2163,3459 2051,3404 1938,3242 1826,3263 1714,3225 1602,3182 1490,3127 1378,3062 1378,2841 Z"/>
 <path fill="rgb(255,66,14)" stroke="none" d="M 1378,1349 L 1490,1323 1602,1335 1714,1339 1826,1343 1938,1346 2051,1367 2163,1373 2275,1370 2387,1373 2499,1362 2612,1370 2724,1378 2836,1384 2948,1386 3060,1403 3173,1382 3285,1391 3397,1412 3509,1399 3621,1415 3734,1408 3846,1405 3958,1423 4070,1433 4182,1458 4295,1465 4407,1508 4519,1498 4631,1494 4743,1525 4856,1490 4968,1528 5080,1523 5192,1544 5304,1553 5417,1523 5529,1549 5641,1551 5753,1543 5865,1539 5977,1555 6090,1565 6202,1552 6314,1592 6426,1546 6538,1500 6651,1432 6763,1547 6875,1603 6987,1627 7099,1542 7212,1556 7324,1515 7436,1498 7548,1495 7660,1614 7773,1491 7885,1529 7996,1535 8108,1539 8220,1589 8333,1608 8445,1706 8557,1714 8669,1600 8781,1624 8894,1643 9006,1626 9118,1677 9230,1641 9342,1625 9455,1597 9567,1578 9679,1602 9791,1630 9903,1582 10016,1701 10128,1649 10240,1683 10352,1719 10464,1675 10576,1783 10689,1749 10801,1635 10913,1724 11025,1710 11137,1704 11250,1727 11362,1718 11474,1724 11586,1670 11698,1670 11811,1635 11923,1725 12035,1670 12147,1741 12259,1803 12372,1882 12484,1906 12596,1897 12708,2040 12820,1876 12933,1896 13045,1857 13157,1832 13269,1911 13381,1924 13494,1938 13606,1905 13718,1841 13830,1854 13942,1871 14055,1869 14167,1876 14279,1731 14391,1680 14503,1739 14616,1815 14616,2500 14503,2415 14391,2408 14279,2397 14167,2543 14055,2499 13942,2482 13830,2512 13718,2530 13606,2604 13494,2620 13381,2579 13269,2406 13157,2262 13045,2299 12933,2326 12820,2331 12708,2543 12596,2482 12484,2600 12372,2559 12259,2554 12147,2520 12035,2388 11923,2459 11811,2430 11698,2473 11586,2508 11474,2543 11362,2496 11250,2558 11137,2525 11025,2539 10913,2569 10801,2591 10689,2710 10576,2795 10464,2780 10352,2798 10240,2806 10128,2887 10016,2981 9903,2892 9791,2963 9679,2989 9567,3032 9455,3065 9342,3128 9230,3154 9118,3187 9006,3125 8894,3220 8781,3348 8669,3312 8557,3378 8445,3365 8333,3280 8220,3269 8108,3278 7996,3241 7885,3269 7773,3224 7660,3350 7548,3254 7436,3240 7324,3298 7212,3376 7099,3392 6987,3443 6875,3521 6763,3518 6651,3461 6538,3515 6426,3562 6314,3648 6202,3628 6090,3637 5977,3626 5865,3626 5753,3625 5641,3729 5529,3733 5417,3704 5304,3733 5192,3739 5080,3719 4968,3721 4856,3770 4743,3865 4631,3862 4519,3860 4407,3840 4295,3818 4182,3828 4070,3811 3958,3740 3846,3691 3734,3620 3621,3576 3509,3551 3397,3600 3285,3683 3173,3622 3060,3574 2948,3512 2836,3470 2724,3420 2612,3255 2499,3199 2387,3223 2275,3193 2163,3195 2051,3130 1938,2996 1826,3005 1714,2972 1602,2931 1490,2890 1378,2841 1378,1349 Z"/>
 <path fill="none" stroke="rgb(0,0,0)" stroke-linejoin="round" d="M 1378,1349 L 1490,1323 1602,1335 1714,1339 1826,1343 1938,1346 2051,1367 2163,1373 2275,1370 2387,1373 2499,1362 2612,1370 2724,1378 2836,1384 2948,1386 3060,1403 3173,1382 3285,1391 3397,1412 3509,1399 3621,1415 3734,1408 3846,1405 3958,1423 4070,1433 4182,1458 4295,1465 4407,1508 4519,1498 4631,1494 4743,1525 4856,1490 4968,1528 5080,1523 5192,1544 5304,1553 5417,1523 5529,1549 5641,1551 5753,1543 5865,1539 5977,1555 6090,1565 6202,1552 6314,1592 6426,1546 6538,1500 6651,1432 6763,1547 6875,1603 6987,1627 7099,1542 7212,1556 7324,1515 7436,1498 7548,1495 7660,1614 7773,1491 7885,1529 7996,1535 8108,1539 8220,1589 8333,1608 8445,1706 8557,1714 8669,1600 8781,1624 8894,1643 9006,1626 9118,1677 9230,1641 9342,1625 9455,1597 9567,1578 9679,1602 9791,1630 9903,1582 10016,1701 10128,1649 10240,1683 10352,1719 10464,1675 10576,1783 10689,1749 10801,1635 10913,1724 11025,1710 11137,1704 11250,1727 11362,1718 11474,1724 11586,1670 11698,1670 11811,1635 11923,1725 12035,1670 12147,1741 12259,1803 12372,1882 12484,1906 12596,1897 12708,2040 12820,1876 12933,1896 13045,1857 13157,1832 13269,1911 13381,1924 13494,1938 13606,1905 13718,1841 13830,1854 13942,1871 14055,1869 14167,1876 14279,1731 14391,1680 14503,1739 14616,1815 14616,2500 14503,2415 14391,2408 14279,2397 14167,2543 14055,2499 13942,2482 13830,2512 13718,2530 13606,2604 13494,2620 13381,2579 13269,2406 13157,2262 13045,2299 12933,2326 12820,2331 12708,2543 12596,2482 12484,2600 12372,2559 12259,2554 12147,2520 12035,2388 11923,2459 11811,2430 11698,2473 11586,2508 11474,2543 11362,2496 11250,2558 11137,2525 11025,2539 10913,2569 10801,2591 10689,2710 10576,2795 10464,2780 10352,2798 10240,2806 10128,2887 10016,2981 9903,2892 9791,2963 9679,2989 9567,3032 9455,3065 9342,3128 9230,3154 9118,3187 9006,3125 8894,3220 8781,3348 8669,3312 8557,3378 8445,3365 8333,3280 8220,3269 8108,3278 7996,3241 7885,3269 7773,3224 7660,3350 7548,3254 7436,3240 7324,3298 7212,3376 7099,3392 6987,3443 6875,3521 6763,3518 6651,3461 6538,3515 6426,3562 6314,3648 6202,3628 6090,3637 5977,3626 5865,3626 5753,3625 5641,3729 5529,3733 5417,3704 5304,3733 5192,3739 5080,3719 4968,3721 4856,3770 4743,3865 4631,3862 4519,3860 4407,3840 4295,3818 4182,3828 4070,3811 3958,3740 3846,3691 3734,3620 3621,3576 3509,3551 3397,3600 3285,3683 3173,3622 3060,3574 2948,3512 2836,3470 2724,3420 2612,3255 2499,3199 2387,3223 2275,3193 2163,3195 2051,3130 1938,2996 1826,3005 1714,2972 1602,2931 1490,2890 1378,2841 1378,1349 Z"/>
 <path fill="rgb(126,0,33)" stroke="none" d="M 1378,1153 L 1490,1156 1602,1146 1714,1144 1826,1148 1938,1153 2051,1160 2163,1153 2275,1151 2387,1150 2499,1150 2612,1147 2724,1148 2836,1152 2948,1151 3060,1172 3173,1158 3285,1172 3397,1192 3509,1189 3621,1206 3734,1192 3846,1174 3958,1190 4070,1173 4182,1181 4295,1187 4407,1227 4519,1201 4631,1203 4743,1228 4856,1215 4968,1226 5080,1217 5192,1227 5304,1253 5417,1228 5529,1245 5641,1255 5753,1240 5865,1242 5977,1256 6090,1274 6202,1281 6314,1337 6426,1274 6538,1241 6651,1221 6763,1284 6875,1301 6987,1320 7099,1288 7212,1323 7324,1291 7436,1270 7548,1273 7660,1411 7773,1284 7885,1311 7996,1318 8108,1329 8220,1334 8333,1350 8445,1395 8557,1475 8669,1354 8781,1367 8894,1398 9006,1400 9118,1447 9230,1442 9342,1445 9455,1437 9567,1430 9679,1448 9791,1479 9903,1452 10016,1501 10128,1461 10240,1497 10352,1515 10464,1477 10576,1623 10689,1580 10801,1454 10913,1528 11025,1520 11137,1507 11250,1525 11362,1530 11474,1504 11586,1463 11698,1484 11811,1466 11923,1546 12035,1494 12147,1563 12259,1593 12372,1629 12484,1641 12596,1659 12708,1797 12820,1689 12933,1678 13045,1673 13157,1642 13269,1712 13381,1752 13494,1766 13606,1725 13718,1697 13830,1708 13942,1714 14055,1733 14167,1703 14279,1623 14391,1581 14503,1643 14616,1732 14616,1815 14503,1739 14391,1680 14279,1731 14167,1876 14055,1869 13942,1871 13830,1854 13718,1841 13606,1905 13494,1938 13381,1924 13269,1911 13157,1832 13045,1857 12933,1896 12820,1876 12708,2040 12596,1897 12484,1906 12372,1882 12259,1803 12147,1741 12035,1670 11923,1725 11811,1635 11698,1670 11586,1670 11474,1724 11362,1718 11250,1727 11137,1704 11025,1710 10913,1724 10801,1635 10689,1749 10576,1783 10464,1675 10352,1719 10240,1683 10128,1649 10016,1701 9903,1582 9791,1630 9679,1602 9567,1578 9455,1597 9342,1625 9230,1641 9118,1677 9006,1626 8894,1643 8781,1624 8669,1600 8557,1714 8445,1706 8333,1608 8220,1589 8108,1539 7996,1535 7885,1529 7773,1491 7660,1614 7548,1495 7436,1498 7324,1515 7212,1556 7099,1542 6987,1627 6875,1603 6763,1547 6651,1432 6538,1500 6426,1546 6314,1592 6202,1552 6090,1565 5977,1555 5865,1539 5753,1543 5641,1551 5529,1549 5417,1523 5304,1553 5192,1544 5080,1523 4968,1528 4856,1490 4743,1525 4631,1494 4519,1498 4407,1508 4295,1465 4182,1458 4070,1433 3958,1423 3846,1405 3734,1408 3621,1415 3509,1399 3397,1412 3285,1391 3173,1382 3060,1403 2948,1386 2836,1384 2724,1378 2612,1370 2499,1362 2387,1373 2275,1370 2163,1373 2051,1367 1938,1346 1826,1343 1714,1339 1602,1335 1490,1323 1378,1349 1378,1153 Z"/>
 <path fill="none" stroke="rgb(0,0,0)" stroke-linejoin="round" d="M 1378,1153 L 1490,1156 1602,1146 1714,1144 1826,1148 1938,1153 2051,1160 2163,1153 2275,1151 2387,1150 2499,1150 2612,1147 2724,1148 2836,1152 2948,1151 3060,1172 3173,1158 3285,1172 3397,1192 3509,1189 3621,1206 3734,1192 3846,1174 3958,1190 4070,1173 4182,1181 4295,1187 4407,1227 4519,1201 4631,1203 4743,1228 4856,1215 4968,1226 5080,1217 5192,1227 5304,1253 5417,1228 5529,1245 5641,1255 5753,1240 5865,1242 5977,1256 6090,1274 6202,1281 6314,1337 6426,1274 6538,1241 6651,1221 6763,1284 6875,1301 6987,1320 7099,1288 7212,1323 7324,1291 7436,1270 7548,1273 7660,1411 7773,1284 7885,1311 7996,1318 8108,1329 8220,1334 8333,1350 8445,1395 8557,1475 8669,1354 8781,1367 8894,1398 9006,1400 9118,1447 9230,1442 9342,1445 9455,1437 9567,1430 9679,1448 9791,1479 9903,1452 10016,1501 10128,1461 10240,1497 10352,1515 10464,1477 10576,1623 10689,1580 10801,1454 10913,1528 11025,1520 11137,1507 11250,1525 11362,1530 11474,1504 11586,1463 11698,1484 11811,1466 11923,1546 12035,1494 12147,1563 12259,1593 12372,1629 12484,1641 12596,1659 12708,1797 12820,1689 12933,1678 13045,1673 13157,1642 13269,1712 13381,1752 13494,1766 13606,1725 13718,1697 13830,1708 13942,1714 14055,1733 14167,1703 14279,1623 14391,1581 14503,1643 14616,1732 14616,1815 14503,1739 14391,1680 14279,1731 14167,1876 14055,1869 13942,1871 13830,1854 13718,1841 13606,1905 13494,1938 13381,1924 13269,1911 13157,1832 13045,1857 12933,1896 12820,1876 12708,2040 12596,1897 12484,1906 12372,1882 12259,1803 12147,1741 12035,1670 11923,1725 11811,1635 11698,1670 11586,1670 11474,1724 11362,1718 11250,1727 11137,1704 11025,1710 10913,1724 10801,1635 10689,1749 10576,1783 10464,1675 10352,1719 10240,1683 10128,1649 10016,1701 9903,1582 9791,1630 9679,1602 9567,1578 9455,1597 9342,1625 9230,1641 9118,1677 9006,1626 8894,1643 8781,1624 8669,1600 8557,1714 8445,1706 8333,1608 8220,1589 8108,1539 7996,1535 7885,1529 7773,1491 7660,1614 7548,1495 7436,1498 7324,1515 7212,1556 7099,1542 6987,1627 6875,1603 6763,1547 6651,1432 6538,1500 6426,1546 6314,1592 6202,1552 6090,1565 5977,1555 5865,1539 5753,1543 5641,1551 5529,1549 5417,1523 5304,1553 5192,1544 5080,1523 4968,1528 4856,1490 4743,1525 4631,1494 4519,1498 4407,1508 4295,1465 4182,1458 4070,1433 3958,1423 3846,1405 3734,1408 3621,1415 3509,1399 3397,1412 3285,1391 3173,1382 3060,1403 2948,1386 2836,1384 2724,1378 2612,1370 2499,1362 2387,1373 2275,1370 2163,1373 2051,1367 1938,1346 1826,1343 1714,1339 1602,1335 1490,1323 1378,1349 1378,1153 Z"/>
 <path fill="rgb(131,202,255)" stroke="none" d="M 1378,1095 L 1490,1095 1602,1095 1714,1095 1826,1095 1938,1095 2051,1095 2163,1095 2275,1095 2387,1095 2499,1095 2612,1095 2724,1095 2836,1095 2948,1095 3060,1095 3173,1095 3285,1095 3397,1095 3509,1095 3621,1095 3734,1095 3846,1095 4070,1095 4182,1095 4295,1095 4407,1095 4519,1095 4743,1095 4968,1095 5080,1095 5192,1095 5304,1095 5417,1095 5529,1095 5641,1095 5753,1095 5865,1095 5977,1095 6090,1095 6202,1095 6314,1095 6426,1095 6538,1095 6651,1095 6763,1095 6875,1095 6987,1095 7099,1095 7324,1095 7436,1095 7548,1095 7660,1095 7773,1095 7885,1095 7996,1095 8033,1095 8220,1095 8333,1095 8445,1095 8557,1095 8669,1095 8781,1095 8894,1095 9006,1095 9118,1095 9230,1095 9342,1095 9455,1095 9567,1095 9679,1095 9791,1095 9903,1095 10016,1095 10128,1095 10240,1095 10352,1095 10464,1095 10576,1095 10614,1095 10801,1095 10913,1095 10950,1095 11137,1095 11250,1095 11362,1095 11474,1095 11586,1095 11811,1095 11923,1095 12035,1095 12147,1095 12372,1095 12596,1095 12708,1095 12895,1095 12933,1095 13045,1095 13157,1095 13269,1095 13381,1095 13494,1095 13606,1095 13718,1095 13942,1095 14055,1095 14167,1095 14279,1095 14503,1095 14616,1095 14616,1732 14503,1643 14391,1581 14279,1623 14167,1703 14055,1733 13942,1714 13830,1708 13718,1697 13606,1725 13494,1766 13381,1752 13269,1712 13157,1642 13045,1673 12933,1678 12820,1689 12708,1797 12596,1659 12484,1641 12372,1629 12259,1593 12147,1563 12035,1494 11923,1546 11811,1466 11698,1484 11586,1463 11474,1504 11362,1530 11250,1525 11137,1507 11025,1520 10913,1528 10801,1454 10689,1580 10576,1623 10464,1477 10352,1515 10240,1497 10128,1461 10016,1501 9903,1452 9791,1479 9679,1448 9567,1430 9455,1437 9342,1445 9230,1442 9118,1447 9006,1400 8894,1398 8781,1367 8669,1354 8557,1475 8445,1395 8333,1350 8220,1334 8108,1329 7996,1318 7885,1311 7773,1284 7660,1411 7548,1273 7436,1270 7324,1291 7212,1323 7099,1288 6987,1320 6875,1301 6763,1284 6651,1221 6538,1241 6426,1274 6314,1337 6202,1281 6090,1274 5977,1256 5865,1242 5753,1240 5641,1255 5529,1245 5417,1228 5304,1253 5192,1227 5080,1217 4968,1226 4856,1215 4743,1228 4631,1203 4519,1201 4407,1227 4295,1187 4182,1181 4070,1173 3958,1190 3846,1174 3734,1192 3621,1206 3509,1189 3397,1192 3285,1172 3173,1158 3060,1172 2948,1151 2836,1152 2724,1148 2612,1147 2499,1150 2387,1150 2275,1151 2163,1153 2051,1160 1938,1153 1826,1148 1714,1144 1602,1146 1490,1156 1378,1153 1378,1095 Z"/>
 <path fill="none" stroke="rgb(0,0,0)" stroke-linejoin="round" d="M 1378,1095 L 1490,1095 1602,1095 1714,1095 1826,1095 1938,1095 2051,1095 2163,1095 2275,1095 2387,1095 2499,1095 2612,1095 2724,1095 2836,1095 2948,1095 3060,1095 3173,1095 3285,1095 3397,1095 3509,1095 3621,1095 3734,1095 3846,1095 4070,1095 4182,1095 4295,1095 4407,1095 4519,1095 4743,1095 4968,1095 5080,1095 5192,1095 5304,1095 5417,1095 5529,1095 5641,1095 5753,1095 5865,1095 5977,1095 6090,1095 6202,1095 6314,1095 6426,1095 6538,1095 6651,1095 6763,1095 6875,1095 6987,1095 7099,1095 7324,1095 7436,1095 7548,1095 7660,1095 7773,1095 7885,1095 7996,1095 8033,1095 8220,1095 8333,1095 8445,1095 8557,1095 8669,1095 8781,1095 8894,1095 9006,1095 9118,1095 9230,1095 9342,1095 9455,1095 9567,1095 9679,1095 9791,1095 9903,1095 10016,1095 10128,1095 10240,1095 10352,1095 10464,1095 10576,1095 10614,1095 10801,1095 10913,1095 10950,1095 11137,1095 11250,1095 11362,1095 11474,1095 11586,1095 11811,1095 11923,1095 12035,1095 12147,1095 12372,1095 12596,1095 12708,1095 12895,1095 12933,1095 13045,1095 13157,1095 13269,1095 13381,1095 13494,1095 13606,1095 13718,1095 13942,1095 14055,1095 14167,1095 14279,1095 14503,1095 14616,1095 14616,1732 14503,1643 14391,1581 14279,1623 14167,1703 14055,1733 13942,1714 13830,1708 13718,1697 13606,1725 13494,1766 13381,1752 13269,1712 13157,1642 13045,1673 12933,1678 12820,1689 12708,1797 12596,1659 12484,1641 12372,1629 12259,1593 12147,1563 12035,1494 11923,1546 11811,1466 11698,1484 11586,1463 11474,1504 11362,1530 11250,1525 11137,1507 11025,1520 10913,1528 10801,1454 10689,1580 10576,1623 10464,1477 10352,1515 10240,1497 10128,1461 10016,1501 9903,1452 9791,1479 9679,1448 9567,1430 9455,1437 9342,1445 9230,1442 9118,1447 9006,1400 8894,1398 8781,1367 8669,1354 8557,1475 8445,1395 8333,1350 8220,1334 8108,1329 7996,1318 7885,1311 7773,1284 7660,1411 7548,1273 7436,1270 7324,1291 7212,1323 7099,1288 6987,1320 6875,1301 6763,1284 6651,1221 6538,1241 6426,1274 6314,1337 6202,1281 6090,1274 5977,1256 5865,1242 5753,1240 5641,1255 5529,1245 5417,1228 5304,1253 5192,1227 5080,1217 4968,1226 4856,1215 4743,1228 4631,1203 4519,1201 4407,1227 4295,1187 4182,1181 4070,1173 3958,1190 3846,1174 3734,1192 3621,1206 3509,1189 3397,1192 3285,1172 3173,1158 3060,1172 2948,1151 2836,1152 2724,1148 2612,1147 2499,1150 2387,1150 2275,1151 2163,1153 2051,1160 1938,1153 1826,1148 1714,1144 1602,1146 1490,1156 1378,1153 1378,1095 Z"/>
 <text class="TextShape"><tspan class="TextParagraph" font-family="Liberation Sans, sans-serif" font-size="388px" font-weight="700"><tspan class="TextPosition" x="1178" y="11292"><tspan fill="rgb(0,0,0)" stroke="none">2008</tspan></tspan></tspan></text>
 <text class="TextShape"><tspan class="TextParagraph" font-family="Liberation Sans, sans-serif" font-size="388px" font-weight="700"><tspan class="TextPosition" x="2524" y="11292"><tspan fill="rgb(0,0,0)" stroke="none">2009</tspan></tspan></tspan></text>
 <text class="TextShape"><tspan class="TextParagraph" font-family="Liberation Sans, sans-serif" font-size="388px" font-weight="700"><tspan class="TextPosition" x="3871" y="11292"><tspan fill="rgb(0,0,0)" stroke="none">2010</tspan></tspan></tspan></text>
 <text class="TextShape"><tspan class="TextParagraph" font-family="Liberation Sans, sans-serif" font-size="388px" font-weight="700"><tspan class="TextPosition" x="5217" y="11292"><tspan fill="rgb(0,0,0)" stroke="none">2011</tspan></tspan></tspan></text>
 <text class="TextShape"><tspan class="TextParagraph" font-family="Liberation Sans, sans-serif" font-size="388px" font-weight="700"><tspan class="TextPosition" x="6563" y="11292"><tspan fill="rgb(0,0,0)" stroke="none">2012</tspan></tspan></tspan></text>
 <text class="TextShape"><tspan class="TextParagraph" font-family="Liberation Sans, sans-serif" font-size="388px" font-weight="700"><tspan class="TextPosition" x="7910" y="11292"><tspan fill="rgb(0,0,0)" stroke="none">2013</tspan></tspan></tspan></text>
 <text class="TextShape"><tspan class="TextParagraph" font-family="Liberation Sans, sans-serif" font-size="388px" font-weight="700"><tspan class="TextPosition" x="9256" y="11292"><tspan fill="rgb(0,0,0)" stroke="none">2014</tspan></tspan></tspan></text>
 <text class="TextShape"><tspan class="TextParagraph" font-family="Liberation Sans, sans-serif" font-size="388px" font-weight="700"><tspan class="TextPosition" x="10602" y="11292"><tspan fill="rgb(0,0,0)" stroke="none">2015</tspan></tspan></tspan></text>
 <text class="TextShape"><tspan class="TextParagraph" font-family="Liberation Sans, sans-serif" font-size="388px" font-weight="700"><tspan class="TextPosition" x="11949" y="11292"><tspan fill="rgb(0,0,0)" stroke="none">2016</tspan></tspan></tspan></text>
 <text class="TextShape"><tspan class="TextParagraph" font-family="Liberation Sans, sans-serif" font-size="388px" font-weight="700"><tspan class="TextPosition" x="13295" y="11292"><tspan fill="rgb(0,0,0)" stroke="none">2017</tspan></tspan></tspan></text>
 <text class="TextShape"><tspan class="TextParagraph" font-family="Liberation Sans, sans-serif" font-size="388px" font-weight="700"><tspan class="TextPosition" x="572" y="10832"><tspan fill="rgb(0,0,0)" stroke="none">0%</tspan></tspan></tspan></text>
 <text class="TextShape"><tspan class="TextParagraph" font-family="Liberation Sans, sans-serif" font-size="388px" font-weight="700"><tspan class="TextPosition" x="361" y="9871"><tspan fill="rgb(0,0,0)" stroke="none">10%</tspan></tspan></tspan></text>
 <text class="TextShape"><tspan class="TextParagraph" font-family="Liberation Sans, sans-serif" font-size="388px" font-weight="700"><tspan class="TextPosition" x="361" y="8911"><tspan fill="rgb(0,0,0)" stroke="none">20%</tspan></tspan></tspan></text>
 <text class="TextShape"><tspan class="TextParagraph" font-family="Liberation Sans, sans-serif" font-size="388px" font-weight="700"><tspan class="TextPosition" x="361" y="7950"><tspan fill="rgb(0,0,0)" stroke="none">30%</tspan></tspan></tspan></text>
 <text class="TextShape"><tspan class="TextParagraph" font-family="Liberation Sans, sans-serif" font-size="388px" font-weight="700"><tspan class="TextPosition" x="361" y="6990"><tspan fill="rgb(0,0,0)" stroke="none">40%</tspan></tspan></tspan></text>
 <text class="TextShape"><tspan class="TextParagraph" font-family="Liberation Sans, sans-serif" font-size="388px" font-weight="700"><tspan class="TextPosition" x="361" y="6030"><tspan fill="rgb(0,0,0)" stroke="none">50%</tspan></tspan></tspan></text>
 <text class="TextShape"><tspan class="TextParagraph" font-family="Liberation Sans, sans-serif" font-size="388px" font-weight="700"><tspan class="TextPosition" x="361" y="5069"><tspan fill="rgb(0,0,0)" stroke="none">60%</tspan></tspan></tspan></text>
 <text class="TextShape"><tspan class="TextParagraph" font-family="Liberation Sans, sans-serif" font-size="388px" font-weight="700"><tspan class="TextPosition" x="361" y="4109"><tspan fill="rgb(0,0,0)" stroke="none">70%</tspan></tspan></tspan></text>
 <text class="TextShape"><tspan class="TextParagraph" font-family="Liberation Sans, sans-serif" font-size="388px" font-weight="700"><tspan class="TextPosition" x="361" y="3148"><tspan fill="rgb(0,0,0)" stroke="none">80%</tspan></tspan></tspan></text>
 <text class="TextShape"><tspan class="TextParagraph" font-family="Liberation Sans, sans-serif" font-size="388px" font-weight="700"><tspan class="TextPosition" x="361" y="2188"><tspan fill="rgb(0,0,0)" stroke="none">90%</tspan></tspan></tspan></text>
 <text class="TextShape"><tspan class="TextParagraph" font-family="Liberation Sans, sans-serif" font-size="388px" font-weight="700"><tspan class="TextPosition" x="149" y="1228"><tspan fill="rgb(0,0,0)" stroke="none">100%</tspan></tspan></tspan></text>
 <text class="TextShape"><tspan class="TextParagraph" font-family="Liberation Sans, sans-serif" font-size="388px" font-weight="700"><tspan class="TextPosition" x="14866" y="10832"><tspan fill="rgb(0,0,0)" stroke="none">0%</tspan></tspan></tspan></text>
 <text class="TextShape"><tspan class="TextParagraph" font-family="Liberation Sans, sans-serif" font-size="388px" font-weight="700"><tspan class="TextPosition" x="14866" y="9871"><tspan fill="rgb(0,0,0)" stroke="none">10%</tspan></tspan></tspan></text>
 <text class="TextShape"><tspan class="TextParagraph" font-family="Liberation Sans, sans-serif" font-size="388px" font-weight="700"><tspan class="TextPosition" x="14866" y="8911"><tspan fill="rgb(0,0,0)" stroke="none">20%</tspan></tspan></tspan></text>
 <text class="TextShape"><tspan class="TextParagraph" font-family="Liberation Sans, sans-serif" font-size="388px" font-weight="700"><tspan class="TextPosition" x="14866" y="7950"><tspan fill="rgb(0,0,0)" stroke="none">30%</tspan></tspan></tspan></text>
 <text class="TextShape"><tspan class="TextParagraph" font-family="Liberation Sans, sans-serif" font-size="388px" font-weight="700"><tspan class="TextPosition" x="14866" y="6990"><tspan fill="rgb(0,0,0)" stroke="none">40%</tspan></tspan></tspan></text>
 <text class="TextShape"><tspan class="TextParagraph" font-family="Liberation Sans, sans-serif" font-size="388px" font-weight="700"><tspan class="TextPosition" x="14866" y="6030"><tspan fill="rgb(0,0,0)" stroke="none">50%</tspan></tspan></tspan></text>
 <text class="TextShape"><tspan class="TextParagraph" font-family="Liberation Sans, sans-serif" font-size="388px" font-weight="700"><tspan class="TextPosition" x="14866" y="5069"><tspan fill="rgb(0,0,0)" stroke="none">60%</tspan></tspan></tspan></text>
 <text class="TextShape"><tspan class="TextParagraph" font-family="Liberation Sans, sans-serif" font-size="388px" font-weight="700"><tspan class="TextPosition" x="14866" y="4109"><tspan fill="rgb(0,0,0)" stroke="none">70%</tspan></tspan></tspan></text>
 <text class="TextShape"><tspan class="TextParagraph" font-family="Liberation Sans, sans-serif" font-size="388px" font-weight="700"><tspan class="TextPosition" x="14866" y="3148"><tspan fill="rgb(0,0,0)" stroke="none">80%</tspan></tspan></tspan></text>
 <text class="TextShape"><tspan class="TextParagraph" font-family="Liberation Sans, sans-serif" font-size="388px" font-weight="700"><tspan class="TextPosition" x="14866" y="2188"><tspan fill="rgb(0,0,0)" stroke="none">90%</tspan></tspan></tspan></text>
 <text class="TextShape"><tspan class="TextParagraph" font-family="Liberation Sans, sans-serif" font-size="388px" font-weight="700"><tspan class="TextPosition" x="14866" y="1228"><tspan fill="rgb(0,0,0)" stroke="none">100%</tspan></tspan></tspan></text>
 <text class="TextShape"><tspan class="TextParagraph" font-family="Arial, sans-serif" font-size="635px" font-weight="400"><tspan class="TextPosition" x="4321" y="759"><tspan fill="rgb(0,0,0)" stroke="none">Utilizacin de navegadores</tspan></tspan></tspan></text>
 <path fill="rgb(255,211,32)" stroke="none" d="M 10799,11722 L 10693,11722 10693,11511 10904,11511 10904,11722 10799,11722 Z"/>
 <path fill="none" stroke="rgb(0,0,0)" stroke-linejoin="round" d="M 10799,11722 L 10693,11722 10693,11511 10904,11511 10904,11722 10799,11722 Z"/>
 <path fill="rgb(0,69,134)" stroke="none" d="M 9892,11722 L 9786,11722 9786,11511 9997,11511 9997,11722 9892,11722 Z"/>
 <path fill="none" stroke="rgb(0,0,0)" stroke-linejoin="round" d="M 9892,11722 L 9786,11722 9786,11511 9997,11511 9997,11722 9892,11722 Z"/>
 <path fill="rgb(87,157,28)" stroke="none" d="M 8376,11722 L 8270,11722 8270,11511 8481,11511 8481,11722 8376,11722 Z"/>
 <path fill="none" stroke="rgb(0,0,0)" stroke-linejoin="round" d="M 8376,11722 L 8270,11722 8270,11511 8481,11511 8481,11722 8376,11722 Z"/>
 <path fill="rgb(255,66,14)" stroke="none" d="M 6675,11722 L 6570,11722 6570,11511 6781,11511 6781,11722 6675,11722 Z"/>
 <path fill="none" stroke="rgb(0,0,0)" stroke-linejoin="round" d="M 6675,11722 L 6570,11722 6570,11511 6781,11511 6781,11722 6675,11722 Z"/>
 <path fill="rgb(126,0,33)" stroke="none" d="M 5133,11722 L 5028,11722 5028,11511 5239,11511 5239,11722 5133,11722 Z"/>
 <path fill="none" stroke="rgb(0,0,0)" stroke-linejoin="round" d="M 5133,11722 L 5028,11722 5028,11511 5239,11511 5239,11722 5133,11722 Z"/>
 <path fill="rgb(131,202,255)" stroke="none" d="M 3670,11722 L 3565,11722 3565,11511 3776,11511 3776,11722 3670,11722 Z"/>
 <path fill="none" stroke="rgb(0,0,0)" stroke-linejoin="round" d="M 3670,11722 L 3565,11722 3565,11511 3776,11511 3776,11722 3670,11722 Z"/>
 <text class="TextShape"><tspan class="TextParagraph" font-family="Arial, sans-serif" font-size="353px" font-weight="700"><tspan class="TextPosition" x="3876" y="11735"><tspan fill="rgb(0,0,0)" stroke="none">Otros</tspan></tspan></tspan></text>
 <text class="TextShape"><tspan class="TextParagraph" font-family="Arial, sans-serif" font-size="353px" font-weight="700"><tspan class="TextPosition" x="5339" y="11735"><tspan fill="rgb(0,0,0)" stroke="none">Opera</tspan></tspan></tspan></text>
 <text class="TextShape"><tspan class="TextParagraph" font-family="Arial, sans-serif" font-size="353px" font-weight="700"><tspan class="TextPosition" x="6881" y="11735"><tspan fill="rgb(0,0,0)" stroke="none">Firefox</tspan></tspan></tspan></text>
 <text class="TextShape"><tspan class="TextParagraph" font-family="Arial, sans-serif" font-size="353px" font-weight="700"><tspan class="TextPosition" x="8581" y="11735"><tspan fill="rgb(0,0,0)" stroke="none">Safari</tspan></tspan></tspan></text>
 <text class="TextShape"><tspan class="TextParagraph" font-family="Arial, sans-serif" font-size="353px" font-weight="700"><tspan class="TextPosition" x="10097" y="11735"><tspan fill="rgb(0,0,0)" stroke="none">IE</tspan></tspan></tspan></text>
 <text class="TextShape"><tspan class="TextParagraph" font-family="Arial, sans-serif" font-size="353px" font-weight="700"><tspan class="TextPosition" x="11004" y="11735"><tspan fill="rgb(0,0,0)" stroke="none">Chrome</tspan></tspan></tspan></text>
</svg>
