<?xml version="1.0" encoding="UTF-8"?>
<!DOCTYPE svg PUBLIC "-//W3C//DTD SVG 1.1//EN" "http://www.w3.org/Graphics/SVG/1.1/DTD/svg11.dtd">
<svg width="164mm" height="122mm" viewBox="0 0 16400 12200" version="1.1" xmlns="http://www.w3.org/2000/svg" stroke-width="28.222" stroke-linejoin="round" xml:space="preserve">
 <path fill="rgb(255,255,255)" stroke="none" d="M 8187,12235 L 12,12235 12,0 16362,0 16362,12235 8187,12235 Z"/>
 <path fill="none" stroke="rgb(179,179,179)" stroke-linejoin="round" d="M 8164,10292 L 1307,10292 1307,952 15021,952 15021,10292 8164,10292 Z"/>
 <path fill="none" stroke="rgb(0,0,0)" stroke-width="20" stroke-linejoin="round" d="M 15020,10291 L 1307,10291"/>
 <path fill="none" stroke="rgb(0,0,0)" stroke-width="20" stroke-linejoin="round" d="M 15020,9356 L 1307,9356"/>
 <path fill="none" stroke="rgb(0,0,0)" stroke-width="20" stroke-linejoin="round" d="M 15020,8422 L 1307,8422"/>
 <path fill="none" stroke="rgb(0,0,0)" stroke-width="20" stroke-linejoin="round" d="M 15020,7488 L 1307,7488"/>
 <path fill="none" stroke="rgb(0,0,0)" stroke-width="20" stroke-linejoin="round" d="M 15020,6554 L 1307,6554"/>
 <path fill="none" stroke="rgb(0,0,0)" stroke-width="20" stroke-linejoin="round" d="M 15020,5621 L 1307,5621"/>
 <path fill="none" stroke="rgb(0,0,0)" stroke-width="20" stroke-linejoin="round" d="M 15020,4687 L 1307,4687"/>
 <path fill="none" stroke="rgb(0,0,0)" stroke-width="20" stroke-linejoin="round" d="M 15020,3753 L 1307,3753"/>
 <path fill="none" stroke="rgb(0,0,0)" stroke-width="20" stroke-linejoin="round" d="M 15020,2819 L 1307,2819"/>
 <path fill="none" stroke="rgb(0,0,0)" stroke-width="20" stroke-linejoin="round" d="M 15020,1885 L 1307,1885"/>
 <path fill="none" stroke="rgb(0,0,0)" stroke-width="20" stroke-linejoin="round" d="M 15020,951 L 1307,951"/>
 <path fill="none" stroke="rgb(0,0,0)" stroke-width="30" stroke-linejoin="round" d="M 1307,10441 L 1307,10291"/>
 <path fill="none" stroke="rgb(0,0,0)" stroke-width="30" stroke-linejoin="round" d="M 1307,10441 L 1307,10291"/>
 <path fill="none" stroke="rgb(0,0,0)" stroke-width="30" stroke-linejoin="round" d="M 1422,10441 L 1422,10291"/>
 <path fill="none" stroke="rgb(0,0,0)" stroke-width="30" stroke-linejoin="round" d="M 1422,10441 L 1422,10291"/>
 <path fill="none" stroke="rgb(0,0,0)" stroke-width="30" stroke-linejoin="round" d="M 1537,10441 L 1537,10291"/>
 <path fill="none" stroke="rgb(0,0,0)" stroke-width="30" stroke-linejoin="round" d="M 1537,10441 L 1537,10291"/>
 <path fill="none" stroke="rgb(0,0,0)" stroke-width="30" stroke-linejoin="round" d="M 1652,10441 L 1652,10291"/>
 <path fill="none" stroke="rgb(0,0,0)" stroke-width="30" stroke-linejoin="round" d="M 1652,10441 L 1652,10291"/>
 <path fill="none" stroke="rgb(0,0,0)" stroke-width="30" stroke-linejoin="round" d="M 1768,10441 L 1768,10291"/>
 <path fill="none" stroke="rgb(0,0,0)" stroke-width="30" stroke-linejoin="round" d="M 1768,10441 L 1768,10291"/>
 <path fill="none" stroke="rgb(0,0,0)" stroke-width="30" stroke-linejoin="round" d="M 1883,10441 L 1883,10291"/>
 <path fill="none" stroke="rgb(0,0,0)" stroke-width="30" stroke-linejoin="round" d="M 1883,10441 L 1883,10291"/>
 <path fill="none" stroke="rgb(0,0,0)" stroke-width="30" stroke-linejoin="round" d="M 1998,10441 L 1998,10291"/>
 <path fill="none" stroke="rgb(0,0,0)" stroke-width="30" stroke-linejoin="round" d="M 1998,10441 L 1998,10291"/>
 <path fill="none" stroke="rgb(0,0,0)" stroke-width="30" stroke-linejoin="round" d="M 2113,10441 L 2113,10291"/>
 <path fill="none" stroke="rgb(0,0,0)" stroke-width="30" stroke-linejoin="round" d="M 2113,10441 L 2113,10291"/>
 <path fill="none" stroke="rgb(0,0,0)" stroke-width="30" stroke-linejoin="round" d="M 2229,10441 L 2229,10291"/>
 <path fill="none" stroke="rgb(0,0,0)" stroke-width="30" stroke-linejoin="round" d="M 2229,10441 L 2229,10291"/>
 <path fill="none" stroke="rgb(0,0,0)" stroke-width="30" stroke-linejoin="round" d="M 2344,10441 L 2344,10291"/>
 <path fill="none" stroke="rgb(0,0,0)" stroke-width="30" stroke-linejoin="round" d="M 2344,10441 L 2344,10291"/>
 <path fill="none" stroke="rgb(0,0,0)" stroke-width="30" stroke-linejoin="round" d="M 2459,10441 L 2459,10291"/>
 <path fill="none" stroke="rgb(0,0,0)" stroke-width="30" stroke-linejoin="round" d="M 2459,10441 L 2459,10291"/>
 <path fill="none" stroke="rgb(0,0,0)" stroke-width="30" stroke-linejoin="round" d="M 2574,10441 L 2574,10291"/>
 <path fill="none" stroke="rgb(0,0,0)" stroke-width="30" stroke-linejoin="round" d="M 2574,10441 L 2574,10291"/>
 <path fill="none" stroke="rgb(0,0,0)" stroke-width="30" stroke-linejoin="round" d="M 2690,10441 L 2690,10291"/>
 <path fill="none" stroke="rgb(0,0,0)" stroke-width="30" stroke-linejoin="round" d="M 2690,10441 L 2690,10291"/>
 <path fill="none" stroke="rgb(0,0,0)" stroke-width="30" stroke-linejoin="round" d="M 2805,10441 L 2805,10291"/>
 <path fill="none" stroke="rgb(0,0,0)" stroke-width="30" stroke-linejoin="round" d="M 2805,10441 L 2805,10291"/>
 <path fill="none" stroke="rgb(0,0,0)" stroke-width="30" stroke-linejoin="round" d="M 2920,10441 L 2920,10291"/>
 <path fill="none" stroke="rgb(0,0,0)" stroke-width="30" stroke-linejoin="round" d="M 2920,10441 L 2920,10291"/>
 <path fill="none" stroke="rgb(0,0,0)" stroke-width="30" stroke-linejoin="round" d="M 3035,10441 L 3035,10291"/>
 <path fill="none" stroke="rgb(0,0,0)" stroke-width="30" stroke-linejoin="round" d="M 3035,10441 L 3035,10291"/>
 <path fill="none" stroke="rgb(0,0,0)" stroke-width="30" stroke-linejoin="round" d="M 3151,10441 L 3151,10291"/>
 <path fill="none" stroke="rgb(0,0,0)" stroke-width="30" stroke-linejoin="round" d="M 3151,10441 L 3151,10291"/>
 <path fill="none" stroke="rgb(0,0,0)" stroke-width="30" stroke-linejoin="round" d="M 3266,10441 L 3266,10291"/>
 <path fill="none" stroke="rgb(0,0,0)" stroke-width="30" stroke-linejoin="round" d="M 3266,10441 L 3266,10291"/>
 <path fill="none" stroke="rgb(0,0,0)" stroke-width="30" stroke-linejoin="round" d="M 3381,10441 L 3381,10291"/>
 <path fill="none" stroke="rgb(0,0,0)" stroke-width="30" stroke-linejoin="round" d="M 3381,10441 L 3381,10291"/>
 <path fill="none" stroke="rgb(0,0,0)" stroke-width="30" stroke-linejoin="round" d="M 3496,10441 L 3496,10291"/>
 <path fill="none" stroke="rgb(0,0,0)" stroke-width="30" stroke-linejoin="round" d="M 3496,10441 L 3496,10291"/>
 <path fill="none" stroke="rgb(0,0,0)" stroke-width="30" stroke-linejoin="round" d="M 3612,10441 L 3612,10291"/>
 <path fill="none" stroke="rgb(0,0,0)" stroke-width="30" stroke-linejoin="round" d="M 3612,10441 L 3612,10291"/>
 <path fill="none" stroke="rgb(0,0,0)" stroke-width="30" stroke-linejoin="round" d="M 3727,10441 L 3727,10291"/>
 <path fill="none" stroke="rgb(0,0,0)" stroke-width="30" stroke-linejoin="round" d="M 3727,10441 L 3727,10291"/>
 <path fill="none" stroke="rgb(0,0,0)" stroke-width="30" stroke-linejoin="round" d="M 3842,10441 L 3842,10291"/>
 <path fill="none" stroke="rgb(0,0,0)" stroke-width="30" stroke-linejoin="round" d="M 3842,10441 L 3842,10291"/>
 <path fill="none" stroke="rgb(0,0,0)" stroke-width="30" stroke-linejoin="round" d="M 3957,10441 L 3957,10291"/>
 <path fill="none" stroke="rgb(0,0,0)" stroke-width="30" stroke-linejoin="round" d="M 3957,10441 L 3957,10291"/>
 <path fill="none" stroke="rgb(0,0,0)" stroke-width="30" stroke-linejoin="round" d="M 4073,10441 L 4073,10291"/>
 <path fill="none" stroke="rgb(0,0,0)" stroke-width="30" stroke-linejoin="round" d="M 4073,10441 L 4073,10291"/>
 <path fill="none" stroke="rgb(0,0,0)" stroke-width="30" stroke-linejoin="round" d="M 4188,10441 L 4188,10291"/>
 <path fill="none" stroke="rgb(0,0,0)" stroke-width="30" stroke-linejoin="round" d="M 4188,10441 L 4188,10291"/>
 <path fill="none" stroke="rgb(0,0,0)" stroke-width="30" stroke-linejoin="round" d="M 4303,10441 L 4303,10291"/>
 <path fill="none" stroke="rgb(0,0,0)" stroke-width="30" stroke-linejoin="round" d="M 4303,10441 L 4303,10291"/>
 <path fill="none" stroke="rgb(0,0,0)" stroke-width="30" stroke-linejoin="round" d="M 4418,10441 L 4418,10291"/>
 <path fill="none" stroke="rgb(0,0,0)" stroke-width="30" stroke-linejoin="round" d="M 4418,10441 L 4418,10291"/>
 <path fill="none" stroke="rgb(0,0,0)" stroke-width="30" stroke-linejoin="round" d="M 4534,10441 L 4534,10291"/>
 <path fill="none" stroke="rgb(0,0,0)" stroke-width="30" stroke-linejoin="round" d="M 4534,10441 L 4534,10291"/>
 <path fill="none" stroke="rgb(0,0,0)" stroke-width="30" stroke-linejoin="round" d="M 4649,10441 L 4649,10291"/>
 <path fill="none" stroke="rgb(0,0,0)" stroke-width="30" stroke-linejoin="round" d="M 4649,10441 L 4649,10291"/>
 <path fill="none" stroke="rgb(0,0,0)" stroke-width="30" stroke-linejoin="round" d="M 4764,10441 L 4764,10291"/>
 <path fill="none" stroke="rgb(0,0,0)" stroke-width="30" stroke-linejoin="round" d="M 4764,10441 L 4764,10291"/>
 <path fill="none" stroke="rgb(0,0,0)" stroke-width="30" stroke-linejoin="round" d="M 4879,10441 L 4879,10291"/>
 <path fill="none" stroke="rgb(0,0,0)" stroke-width="30" stroke-linejoin="round" d="M 4879,10441 L 4879,10291"/>
 <path fill="none" stroke="rgb(0,0,0)" stroke-width="30" stroke-linejoin="round" d="M 4995,10441 L 4995,10291"/>
 <path fill="none" stroke="rgb(0,0,0)" stroke-width="30" stroke-linejoin="round" d="M 4995,10441 L 4995,10291"/>
 <path fill="none" stroke="rgb(0,0,0)" stroke-width="30" stroke-linejoin="round" d="M 5110,10441 L 5110,10291"/>
 <path fill="none" stroke="rgb(0,0,0)" stroke-width="30" stroke-linejoin="round" d="M 5110,10441 L 5110,10291"/>
 <path fill="none" stroke="rgb(0,0,0)" stroke-width="30" stroke-linejoin="round" d="M 5225,10441 L 5225,10291"/>
 <path fill="none" stroke="rgb(0,0,0)" stroke-width="30" stroke-linejoin="round" d="M 5225,10441 L 5225,10291"/>
 <path fill="none" stroke="rgb(0,0,0)" stroke-width="30" stroke-linejoin="round" d="M 5340,10441 L 5340,10291"/>
 <path fill="none" stroke="rgb(0,0,0)" stroke-width="30" stroke-linejoin="round" d="M 5340,10441 L 5340,10291"/>
 <path fill="none" stroke="rgb(0,0,0)" stroke-width="30" stroke-linejoin="round" d="M 5456,10441 L 5456,10291"/>
 <path fill="none" stroke="rgb(0,0,0)" stroke-width="30" stroke-linejoin="round" d="M 5456,10441 L 5456,10291"/>
 <path fill="none" stroke="rgb(0,0,0)" stroke-width="30" stroke-linejoin="round" d="M 5571,10441 L 5571,10291"/>
 <path fill="none" stroke="rgb(0,0,0)" stroke-width="30" stroke-linejoin="round" d="M 5571,10441 L 5571,10291"/>
 <path fill="none" stroke="rgb(0,0,0)" stroke-width="30" stroke-linejoin="round" d="M 5686,10441 L 5686,10291"/>
 <path fill="none" stroke="rgb(0,0,0)" stroke-width="30" stroke-linejoin="round" d="M 5686,10441 L 5686,10291"/>
 <path fill="none" stroke="rgb(0,0,0)" stroke-width="30" stroke-linejoin="round" d="M 5801,10441 L 5801,10291"/>
 <path fill="none" stroke="rgb(0,0,0)" stroke-width="30" stroke-linejoin="round" d="M 5801,10441 L 5801,10291"/>
 <path fill="none" stroke="rgb(0,0,0)" stroke-width="30" stroke-linejoin="round" d="M 5917,10441 L 5917,10291"/>
 <path fill="none" stroke="rgb(0,0,0)" stroke-width="30" stroke-linejoin="round" d="M 5917,10441 L 5917,10291"/>
 <path fill="none" stroke="rgb(0,0,0)" stroke-width="30" stroke-linejoin="round" d="M 6032,10441 L 6032,10291"/>
 <path fill="none" stroke="rgb(0,0,0)" stroke-width="30" stroke-linejoin="round" d="M 6032,10441 L 6032,10291"/>
 <path fill="none" stroke="rgb(0,0,0)" stroke-width="30" stroke-linejoin="round" d="M 6147,10441 L 6147,10291"/>
 <path fill="none" stroke="rgb(0,0,0)" stroke-width="30" stroke-linejoin="round" d="M 6147,10441 L 6147,10291"/>
 <path fill="none" stroke="rgb(0,0,0)" stroke-width="30" stroke-linejoin="round" d="M 6262,10441 L 6262,10291"/>
 <path fill="none" stroke="rgb(0,0,0)" stroke-width="30" stroke-linejoin="round" d="M 6262,10441 L 6262,10291"/>
 <path fill="none" stroke="rgb(0,0,0)" stroke-width="30" stroke-linejoin="round" d="M 6378,10441 L 6378,10291"/>
 <path fill="none" stroke="rgb(0,0,0)" stroke-width="30" stroke-linejoin="round" d="M 6378,10441 L 6378,10291"/>
 <path fill="none" stroke="rgb(0,0,0)" stroke-width="30" stroke-linejoin="round" d="M 6493,10441 L 6493,10291"/>
 <path fill="none" stroke="rgb(0,0,0)" stroke-width="30" stroke-linejoin="round" d="M 6493,10441 L 6493,10291"/>
 <path fill="none" stroke="rgb(0,0,0)" stroke-width="30" stroke-linejoin="round" d="M 6608,10441 L 6608,10291"/>
 <path fill="none" stroke="rgb(0,0,0)" stroke-width="30" stroke-linejoin="round" d="M 6608,10441 L 6608,10291"/>
 <path fill="none" stroke="rgb(0,0,0)" stroke-width="30" stroke-linejoin="round" d="M 6723,10441 L 6723,10291"/>
 <path fill="none" stroke="rgb(0,0,0)" stroke-width="30" stroke-linejoin="round" d="M 6723,10441 L 6723,10291"/>
 <path fill="none" stroke="rgb(0,0,0)" stroke-width="30" stroke-linejoin="round" d="M 6839,10441 L 6839,10291"/>
 <path fill="none" stroke="rgb(0,0,0)" stroke-width="30" stroke-linejoin="round" d="M 6839,10441 L 6839,10291"/>
 <path fill="none" stroke="rgb(0,0,0)" stroke-width="30" stroke-linejoin="round" d="M 6954,10441 L 6954,10291"/>
 <path fill="none" stroke="rgb(0,0,0)" stroke-width="30" stroke-linejoin="round" d="M 6954,10441 L 6954,10291"/>
 <path fill="none" stroke="rgb(0,0,0)" stroke-width="30" stroke-linejoin="round" d="M 7069,10441 L 7069,10291"/>
 <path fill="none" stroke="rgb(0,0,0)" stroke-width="30" stroke-linejoin="round" d="M 7069,10441 L 7069,10291"/>
 <path fill="none" stroke="rgb(0,0,0)" stroke-width="30" stroke-linejoin="round" d="M 7184,10441 L 7184,10291"/>
 <path fill="none" stroke="rgb(0,0,0)" stroke-width="30" stroke-linejoin="round" d="M 7184,10441 L 7184,10291"/>
 <path fill="none" stroke="rgb(0,0,0)" stroke-width="30" stroke-linejoin="round" d="M 7300,10441 L 7300,10291"/>
 <path fill="none" stroke="rgb(0,0,0)" stroke-width="30" stroke-linejoin="round" d="M 7300,10441 L 7300,10291"/>
 <path fill="none" stroke="rgb(0,0,0)" stroke-width="30" stroke-linejoin="round" d="M 7415,10441 L 7415,10291"/>
 <path fill="none" stroke="rgb(0,0,0)" stroke-width="30" stroke-linejoin="round" d="M 7415,10441 L 7415,10291"/>
 <path fill="none" stroke="rgb(0,0,0)" stroke-width="30" stroke-linejoin="round" d="M 7530,10441 L 7530,10291"/>
 <path fill="none" stroke="rgb(0,0,0)" stroke-width="30" stroke-linejoin="round" d="M 7530,10441 L 7530,10291"/>
 <path fill="none" stroke="rgb(0,0,0)" stroke-width="30" stroke-linejoin="round" d="M 7645,10441 L 7645,10291"/>
 <path fill="none" stroke="rgb(0,0,0)" stroke-width="30" stroke-linejoin="round" d="M 7645,10441 L 7645,10291"/>
 <path fill="none" stroke="rgb(0,0,0)" stroke-width="30" stroke-linejoin="round" d="M 7761,10441 L 7761,10291"/>
 <path fill="none" stroke="rgb(0,0,0)" stroke-width="30" stroke-linejoin="round" d="M 7761,10441 L 7761,10291"/>
 <path fill="none" stroke="rgb(0,0,0)" stroke-width="30" stroke-linejoin="round" d="M 7876,10441 L 7876,10291"/>
 <path fill="none" stroke="rgb(0,0,0)" stroke-width="30" stroke-linejoin="round" d="M 7876,10441 L 7876,10291"/>
 <path fill="none" stroke="rgb(0,0,0)" stroke-width="30" stroke-linejoin="round" d="M 7991,10441 L 7991,10291"/>
 <path fill="none" stroke="rgb(0,0,0)" stroke-width="30" stroke-linejoin="round" d="M 7991,10441 L 7991,10291"/>
 <path fill="none" stroke="rgb(0,0,0)" stroke-width="30" stroke-linejoin="round" d="M 8106,10441 L 8106,10291"/>
 <path fill="none" stroke="rgb(0,0,0)" stroke-width="30" stroke-linejoin="round" d="M 8106,10441 L 8106,10291"/>
 <path fill="none" stroke="rgb(0,0,0)" stroke-width="30" stroke-linejoin="round" d="M 8221,10441 L 8221,10291"/>
 <path fill="none" stroke="rgb(0,0,0)" stroke-width="30" stroke-linejoin="round" d="M 8221,10441 L 8221,10291"/>
 <path fill="none" stroke="rgb(0,0,0)" stroke-width="30" stroke-linejoin="round" d="M 8336,10441 L 8336,10291"/>
 <path fill="none" stroke="rgb(0,0,0)" stroke-width="30" stroke-linejoin="round" d="M 8336,10441 L 8336,10291"/>
 <path fill="none" stroke="rgb(0,0,0)" stroke-width="30" stroke-linejoin="round" d="M 8451,10441 L 8451,10291"/>
 <path fill="none" stroke="rgb(0,0,0)" stroke-width="30" stroke-linejoin="round" d="M 8451,10441 L 8451,10291"/>
 <path fill="none" stroke="rgb(0,0,0)" stroke-width="30" stroke-linejoin="round" d="M 8566,10441 L 8566,10291"/>
 <path fill="none" stroke="rgb(0,0,0)" stroke-width="30" stroke-linejoin="round" d="M 8566,10441 L 8566,10291"/>
 <path fill="none" stroke="rgb(0,0,0)" stroke-width="30" stroke-linejoin="round" d="M 8682,10441 L 8682,10291"/>
 <path fill="none" stroke="rgb(0,0,0)" stroke-width="30" stroke-linejoin="round" d="M 8682,10441 L 8682,10291"/>
 <path fill="none" stroke="rgb(0,0,0)" stroke-width="30" stroke-linejoin="round" d="M 8797,10441 L 8797,10291"/>
 <path fill="none" stroke="rgb(0,0,0)" stroke-width="30" stroke-linejoin="round" d="M 8797,10441 L 8797,10291"/>
 <path fill="none" stroke="rgb(0,0,0)" stroke-width="30" stroke-linejoin="round" d="M 8912,10441 L 8912,10291"/>
 <path fill="none" stroke="rgb(0,0,0)" stroke-width="30" stroke-linejoin="round" d="M 8912,10441 L 8912,10291"/>
 <path fill="none" stroke="rgb(0,0,0)" stroke-width="30" stroke-linejoin="round" d="M 9027,10441 L 9027,10291"/>
 <path fill="none" stroke="rgb(0,0,0)" stroke-width="30" stroke-linejoin="round" d="M 9027,10441 L 9027,10291"/>
 <path fill="none" stroke="rgb(0,0,0)" stroke-width="30" stroke-linejoin="round" d="M 9143,10441 L 9143,10291"/>
 <path fill="none" stroke="rgb(0,0,0)" stroke-width="30" stroke-linejoin="round" d="M 9143,10441 L 9143,10291"/>
 <path fill="none" stroke="rgb(0,0,0)" stroke-width="30" stroke-linejoin="round" d="M 9258,10441 L 9258,10291"/>
 <path fill="none" stroke="rgb(0,0,0)" stroke-width="30" stroke-linejoin="round" d="M 9258,10441 L 9258,10291"/>
 <path fill="none" stroke="rgb(0,0,0)" stroke-width="30" stroke-linejoin="round" d="M 9373,10441 L 9373,10291"/>
 <path fill="none" stroke="rgb(0,0,0)" stroke-width="30" stroke-linejoin="round" d="M 9373,10441 L 9373,10291"/>
 <path fill="none" stroke="rgb(0,0,0)" stroke-width="30" stroke-linejoin="round" d="M 9488,10441 L 9488,10291"/>
 <path fill="none" stroke="rgb(0,0,0)" stroke-width="30" stroke-linejoin="round" d="M 9488,10441 L 9488,10291"/>
 <path fill="none" stroke="rgb(0,0,0)" stroke-width="30" stroke-linejoin="round" d="M 9604,10441 L 9604,10291"/>
 <path fill="none" stroke="rgb(0,0,0)" stroke-width="30" stroke-linejoin="round" d="M 9604,10441 L 9604,10291"/>
 <path fill="none" stroke="rgb(0,0,0)" stroke-width="30" stroke-linejoin="round" d="M 9719,10441 L 9719,10291"/>
 <path fill="none" stroke="rgb(0,0,0)" stroke-width="30" stroke-linejoin="round" d="M 9719,10441 L 9719,10291"/>
 <path fill="none" stroke="rgb(0,0,0)" stroke-width="30" stroke-linejoin="round" d="M 9834,10441 L 9834,10291"/>
 <path fill="none" stroke="rgb(0,0,0)" stroke-width="30" stroke-linejoin="round" d="M 9834,10441 L 9834,10291"/>
 <path fill="none" stroke="rgb(0,0,0)" stroke-width="30" stroke-linejoin="round" d="M 9949,10441 L 9949,10291"/>
 <path fill="none" stroke="rgb(0,0,0)" stroke-width="30" stroke-linejoin="round" d="M 9949,10441 L 9949,10291"/>
 <path fill="none" stroke="rgb(0,0,0)" stroke-width="30" stroke-linejoin="round" d="M 10065,10441 L 10065,10291"/>
 <path fill="none" stroke="rgb(0,0,0)" stroke-width="30" stroke-linejoin="round" d="M 10065,10441 L 10065,10291"/>
 <path fill="none" stroke="rgb(0,0,0)" stroke-width="30" stroke-linejoin="round" d="M 10180,10441 L 10180,10291"/>
 <path fill="none" stroke="rgb(0,0,0)" stroke-width="30" stroke-linejoin="round" d="M 10180,10441 L 10180,10291"/>
 <path fill="none" stroke="rgb(0,0,0)" stroke-width="30" stroke-linejoin="round" d="M 10295,10441 L 10295,10291"/>
 <path fill="none" stroke="rgb(0,0,0)" stroke-width="30" stroke-linejoin="round" d="M 10295,10441 L 10295,10291"/>
 <path fill="none" stroke="rgb(0,0,0)" stroke-width="30" stroke-linejoin="round" d="M 10410,10441 L 10410,10291"/>
 <path fill="none" stroke="rgb(0,0,0)" stroke-width="30" stroke-linejoin="round" d="M 10410,10441 L 10410,10291"/>
 <path fill="none" stroke="rgb(0,0,0)" stroke-width="30" stroke-linejoin="round" d="M 10526,10441 L 10526,10291"/>
 <path fill="none" stroke="rgb(0,0,0)" stroke-width="30" stroke-linejoin="round" d="M 10526,10441 L 10526,10291"/>
 <path fill="none" stroke="rgb(0,0,0)" stroke-width="30" stroke-linejoin="round" d="M 10641,10441 L 10641,10291"/>
 <path fill="none" stroke="rgb(0,0,0)" stroke-width="30" stroke-linejoin="round" d="M 10641,10441 L 10641,10291"/>
 <path fill="none" stroke="rgb(0,0,0)" stroke-width="30" stroke-linejoin="round" d="M 10756,10441 L 10756,10291"/>
 <path fill="none" stroke="rgb(0,0,0)" stroke-width="30" stroke-linejoin="round" d="M 10756,10441 L 10756,10291"/>
 <path fill="none" stroke="rgb(0,0,0)" stroke-width="30" stroke-linejoin="round" d="M 10871,10441 L 10871,10291"/>
 <path fill="none" stroke="rgb(0,0,0)" stroke-width="30" stroke-linejoin="round" d="M 10871,10441 L 10871,10291"/>
 <path fill="none" stroke="rgb(0,0,0)" stroke-width="30" stroke-linejoin="round" d="M 10987,10441 L 10987,10291"/>
 <path fill="none" stroke="rgb(0,0,0)" stroke-width="30" stroke-linejoin="round" d="M 10987,10441 L 10987,10291"/>
 <path fill="none" stroke="rgb(0,0,0)" stroke-width="30" stroke-linejoin="round" d="M 11102,10441 L 11102,10291"/>
 <path fill="none" stroke="rgb(0,0,0)" stroke-width="30" stroke-linejoin="round" d="M 11102,10441 L 11102,10291"/>
 <path fill="none" stroke="rgb(0,0,0)" stroke-width="30" stroke-linejoin="round" d="M 11217,10441 L 11217,10291"/>
 <path fill="none" stroke="rgb(0,0,0)" stroke-width="30" stroke-linejoin="round" d="M 11217,10441 L 11217,10291"/>
 <path fill="none" stroke="rgb(0,0,0)" stroke-width="30" stroke-linejoin="round" d="M 11332,10441 L 11332,10291"/>
 <path fill="none" stroke="rgb(0,0,0)" stroke-width="30" stroke-linejoin="round" d="M 11332,10441 L 11332,10291"/>
 <path fill="none" stroke="rgb(0,0,0)" stroke-width="30" stroke-linejoin="round" d="M 11448,10441 L 11448,10291"/>
 <path fill="none" stroke="rgb(0,0,0)" stroke-width="30" stroke-linejoin="round" d="M 11448,10441 L 11448,10291"/>
 <path fill="none" stroke="rgb(0,0,0)" stroke-width="30" stroke-linejoin="round" d="M 11563,10441 L 11563,10291"/>
 <path fill="none" stroke="rgb(0,0,0)" stroke-width="30" stroke-linejoin="round" d="M 11563,10441 L 11563,10291"/>
 <path fill="none" stroke="rgb(0,0,0)" stroke-width="30" stroke-linejoin="round" d="M 11678,10441 L 11678,10291"/>
 <path fill="none" stroke="rgb(0,0,0)" stroke-width="30" stroke-linejoin="round" d="M 11678,10441 L 11678,10291"/>
 <path fill="none" stroke="rgb(0,0,0)" stroke-width="30" stroke-linejoin="round" d="M 11793,10441 L 11793,10291"/>
 <path fill="none" stroke="rgb(0,0,0)" stroke-width="30" stroke-linejoin="round" d="M 11793,10441 L 11793,10291"/>
 <path fill="none" stroke="rgb(0,0,0)" stroke-width="30" stroke-linejoin="round" d="M 11909,10441 L 11909,10291"/>
 <path fill="none" stroke="rgb(0,0,0)" stroke-width="30" stroke-linejoin="round" d="M 11909,10441 L 11909,10291"/>
 <path fill="none" stroke="rgb(0,0,0)" stroke-width="30" stroke-linejoin="round" d="M 12024,10441 L 12024,10291"/>
 <path fill="none" stroke="rgb(0,0,0)" stroke-width="30" stroke-linejoin="round" d="M 12024,10441 L 12024,10291"/>
 <path fill="none" stroke="rgb(0,0,0)" stroke-width="30" stroke-linejoin="round" d="M 12139,10441 L 12139,10291"/>
 <path fill="none" stroke="rgb(0,0,0)" stroke-width="30" stroke-linejoin="round" d="M 12139,10441 L 12139,10291"/>
 <path fill="none" stroke="rgb(0,0,0)" stroke-width="30" stroke-linejoin="round" d="M 12254,10441 L 12254,10291"/>
 <path fill="none" stroke="rgb(0,0,0)" stroke-width="30" stroke-linejoin="round" d="M 12254,10441 L 12254,10291"/>
 <path fill="none" stroke="rgb(0,0,0)" stroke-width="30" stroke-linejoin="round" d="M 12370,10441 L 12370,10291"/>
 <path fill="none" stroke="rgb(0,0,0)" stroke-width="30" stroke-linejoin="round" d="M 12370,10441 L 12370,10291"/>
 <path fill="none" stroke="rgb(0,0,0)" stroke-width="30" stroke-linejoin="round" d="M 12485,10441 L 12485,10291"/>
 <path fill="none" stroke="rgb(0,0,0)" stroke-width="30" stroke-linejoin="round" d="M 12485,10441 L 12485,10291"/>
 <path fill="none" stroke="rgb(0,0,0)" stroke-width="30" stroke-linejoin="round" d="M 12600,10441 L 12600,10291"/>
 <path fill="none" stroke="rgb(0,0,0)" stroke-width="30" stroke-linejoin="round" d="M 12600,10441 L 12600,10291"/>
 <path fill="none" stroke="rgb(0,0,0)" stroke-width="30" stroke-linejoin="round" d="M 12715,10441 L 12715,10291"/>
 <path fill="none" stroke="rgb(0,0,0)" stroke-width="30" stroke-linejoin="round" d="M 12715,10441 L 12715,10291"/>
 <path fill="none" stroke="rgb(0,0,0)" stroke-width="30" stroke-linejoin="round" d="M 12831,10441 L 12831,10291"/>
 <path fill="none" stroke="rgb(0,0,0)" stroke-width="30" stroke-linejoin="round" d="M 12831,10441 L 12831,10291"/>
 <path fill="none" stroke="rgb(0,0,0)" stroke-width="30" stroke-linejoin="round" d="M 12946,10441 L 12946,10291"/>
 <path fill="none" stroke="rgb(0,0,0)" stroke-width="30" stroke-linejoin="round" d="M 12946,10441 L 12946,10291"/>
 <path fill="none" stroke="rgb(0,0,0)" stroke-width="30" stroke-linejoin="round" d="M 13061,10441 L 13061,10291"/>
 <path fill="none" stroke="rgb(0,0,0)" stroke-width="30" stroke-linejoin="round" d="M 13061,10441 L 13061,10291"/>
 <path fill="none" stroke="rgb(0,0,0)" stroke-width="30" stroke-linejoin="round" d="M 13176,10441 L 13176,10291"/>
 <path fill="none" stroke="rgb(0,0,0)" stroke-width="30" stroke-linejoin="round" d="M 13176,10441 L 13176,10291"/>
 <path fill="none" stroke="rgb(0,0,0)" stroke-width="30" stroke-linejoin="round" d="M 13292,10441 L 13292,10291"/>
 <path fill="none" stroke="rgb(0,0,0)" stroke-width="30" stroke-linejoin="round" d="M 13292,10441 L 13292,10291"/>
 <path fill="none" stroke="rgb(0,0,0)" stroke-width="30" stroke-linejoin="round" d="M 13407,10441 L 13407,10291"/>
 <path fill="none" stroke="rgb(0,0,0)" stroke-width="30" stroke-linejoin="round" d="M 13407,10441 L 13407,10291"/>
 <path fill="none" stroke="rgb(0,0,0)" stroke-width="30" stroke-linejoin="round" d="M 13522,10441 L 13522,10291"/>
 <path fill="none" stroke="rgb(0,0,0)" stroke-width="30" stroke-linejoin="round" d="M 13522,10441 L 13522,10291"/>
 <path fill="none" stroke="rgb(0,0,0)" stroke-width="30" stroke-linejoin="round" d="M 13637,10441 L 13637,10291"/>
 <path fill="none" stroke="rgb(0,0,0)" stroke-width="30" stroke-linejoin="round" d="M 13637,10441 L 13637,10291"/>
 <path fill="none" stroke="rgb(0,0,0)" stroke-width="30" stroke-linejoin="round" d="M 13753,10441 L 13753,10291"/>
 <path fill="none" stroke="rgb(0,0,0)" stroke-width="30" stroke-linejoin="round" d="M 13753,10441 L 13753,10291"/>
 <path fill="none" stroke="rgb(0,0,0)" stroke-width="30" stroke-linejoin="round" d="M 13868,10441 L 13868,10291"/>
 <path fill="none" stroke="rgb(0,0,0)" stroke-width="30" stroke-linejoin="round" d="M 13868,10441 L 13868,10291"/>
 <path fill="none" stroke="rgb(0,0,0)" stroke-width="30" stroke-linejoin="round" d="M 13983,10441 L 13983,10291"/>
 <path fill="none" stroke="rgb(0,0,0)" stroke-width="30" stroke-linejoin="round" d="M 13983,10441 L 13983,10291"/>
 <path fill="none" stroke="rgb(0,0,0)" stroke-width="30" stroke-linejoin="round" d="M 14098,10441 L 14098,10291"/>
 <path fill="none" stroke="rgb(0,0,0)" stroke-width="30" stroke-linejoin="round" d="M 14098,10441 L 14098,10291"/>
 <path fill="none" stroke="rgb(0,0,0)" stroke-width="30" stroke-linejoin="round" d="M 14214,10441 L 14214,10291"/>
 <path fill="none" stroke="rgb(0,0,0)" stroke-width="30" stroke-linejoin="round" d="M 14214,10441 L 14214,10291"/>
 <path fill="none" stroke="rgb(0,0,0)" stroke-width="30" stroke-linejoin="round" d="M 14329,10441 L 14329,10291"/>
 <path fill="none" stroke="rgb(0,0,0)" stroke-width="30" stroke-linejoin="round" d="M 14329,10441 L 14329,10291"/>
 <path fill="none" stroke="rgb(0,0,0)" stroke-width="30" stroke-linejoin="round" d="M 14444,10441 L 14444,10291"/>
 <path fill="none" stroke="rgb(0,0,0)" stroke-width="30" stroke-linejoin="round" d="M 14444,10441 L 14444,10291"/>
 <path fill="none" stroke="rgb(0,0,0)" stroke-width="30" stroke-linejoin="round" d="M 14559,10441 L 14559,10291"/>
 <path fill="none" stroke="rgb(0,0,0)" stroke-width="30" stroke-linejoin="round" d="M 14559,10441 L 14559,10291"/>
 <path fill="none" stroke="rgb(0,0,0)" stroke-width="30" stroke-linejoin="round" d="M 14675,10441 L 14675,10291"/>
 <path fill="none" stroke="rgb(0,0,0)" stroke-width="30" stroke-linejoin="round" d="M 14675,10441 L 14675,10291"/>
 <path fill="none" stroke="rgb(0,0,0)" stroke-width="30" stroke-linejoin="round" d="M 14790,10441 L 14790,10291"/>
 <path fill="none" stroke="rgb(0,0,0)" stroke-width="30" stroke-linejoin="round" d="M 14790,10441 L 14790,10291"/>
 <path fill="none" stroke="rgb(0,0,0)" stroke-width="30" stroke-linejoin="round" d="M 14905,10441 L 14905,10291"/>
 <path fill="none" stroke="rgb(0,0,0)" stroke-width="30" stroke-linejoin="round" d="M 14905,10441 L 14905,10291"/>
 <path fill="none" stroke="rgb(0,0,0)" stroke-width="30" stroke-linejoin="round" d="M 15020,10441 L 15020,10291"/>
 <path fill="none" stroke="rgb(0,0,0)" stroke-width="30" stroke-linejoin="round" d="M 15020,10441 L 15020,10291"/>
 <path fill="none" stroke="rgb(0,0,0)" stroke-width="30" stroke-linejoin="round" d="M 1307,10291 L 15020,10291"/>
 <path fill="none" stroke="rgb(0,0,0)" stroke-width="30" stroke-linejoin="round" d="M 1157,10291 L 1307,10291"/>
 <path fill="none" stroke="rgb(0,0,0)" stroke-width="30" stroke-linejoin="round" d="M 1157,10291 L 1307,10291"/>
 <path fill="none" stroke="rgb(0,0,0)" stroke-width="30" stroke-linejoin="round" d="M 1157,9356 L 1307,9356"/>
 <path fill="none" stroke="rgb(0,0,0)" stroke-width="30" stroke-linejoin="round" d="M 1157,9356 L 1307,9356"/>
 <path fill="none" stroke="rgb(0,0,0)" stroke-width="30" stroke-linejoin="round" d="M 1157,8422 L 1307,8422"/>
 <path fill="none" stroke="rgb(0,0,0)" stroke-width="30" stroke-linejoin="round" d="M 1157,8422 L 1307,8422"/>
 <path fill="none" stroke="rgb(0,0,0)" stroke-width="30" stroke-linejoin="round" d="M 1157,7488 L 1307,7488"/>
 <path fill="none" stroke="rgb(0,0,0)" stroke-width="30" stroke-linejoin="round" d="M 1157,7488 L 1307,7488"/>
 <path fill="none" stroke="rgb(0,0,0)" stroke-width="30" stroke-linejoin="round" d="M 1157,6554 L 1307,6554"/>
 <path fill="none" stroke="rgb(0,0,0)" stroke-width="30" stroke-linejoin="round" d="M 1157,6554 L 1307,6554"/>
 <path fill="none" stroke="rgb(0,0,0)" stroke-width="30" stroke-linejoin="round" d="M 1157,5621 L 1307,5621"/>
 <path fill="none" stroke="rgb(0,0,0)" stroke-width="30" stroke-linejoin="round" d="M 1157,5621 L 1307,5621"/>
 <path fill="none" stroke="rgb(0,0,0)" stroke-width="30" stroke-linejoin="round" d="M 1157,4687 L 1307,4687"/>
 <path fill="none" stroke="rgb(0,0,0)" stroke-width="30" stroke-linejoin="round" d="M 1157,4687 L 1307,4687"/>
 <path fill="none" stroke="rgb(0,0,0)" stroke-width="30" stroke-linejoin="round" d="M 1157,3753 L 1307,3753"/>
 <path fill="none" stroke="rgb(0,0,0)" stroke-width="30" stroke-linejoin="round" d="M 1157,3753 L 1307,3753"/>
 <path fill="none" stroke="rgb(0,0,0)" stroke-width="30" stroke-linejoin="round" d="M 1157,2819 L 1307,2819"/>
 <path fill="none" stroke="rgb(0,0,0)" stroke-width="30" stroke-linejoin="round" d="M 1157,2819 L 1307,2819"/>
 <path fill="none" stroke="rgb(0,0,0)" stroke-width="30" stroke-linejoin="round" d="M 1157,1885 L 1307,1885"/>
 <path fill="none" stroke="rgb(0,0,0)" stroke-width="30" stroke-linejoin="round" d="M 1157,1885 L 1307,1885"/>
 <path fill="none" stroke="rgb(0,0,0)" stroke-width="30" stroke-linejoin="round" d="M 1157,951 L 1307,951"/>
 <path fill="none" stroke="rgb(0,0,0)" stroke-width="30" stroke-linejoin="round" d="M 1157,951 L 1307,951"/>
 <path fill="none" stroke="rgb(0,0,0)" stroke-width="30" stroke-linejoin="round" d="M 1307,10291 L 1307,951"/>
 <path fill="none" stroke="rgb(0,0,0)" stroke-width="30" stroke-linejoin="round" d="M 15170,10291 L 15020,10291"/>
 <path fill="none" stroke="rgb(0,0,0)" stroke-width="30" stroke-linejoin="round" d="M 15170,10291 L 15020,10291"/>
 <path fill="none" stroke="rgb(0,0,0)" stroke-width="30" stroke-linejoin="round" d="M 15170,9356 L 15020,9356"/>
 <path fill="none" stroke="rgb(0,0,0)" stroke-width="30" stroke-linejoin="round" d="M 15170,9356 L 15020,9356"/>
 <path fill="none" stroke="rgb(0,0,0)" stroke-width="30" stroke-linejoin="round" d="M 15170,8422 L 15020,8422"/>
 <path fill="none" stroke="rgb(0,0,0)" stroke-width="30" stroke-linejoin="round" d="M 15170,8422 L 15020,8422"/>
 <path fill="none" stroke="rgb(0,0,0)" stroke-width="30" stroke-linejoin="round" d="M 15170,7488 L 15020,7488"/>
 <path fill="none" stroke="rgb(0,0,0)" stroke-width="30" stroke-linejoin="round" d="M 15170,7488 L 15020,7488"/>
 <path fill="none" stroke="rgb(0,0,0)" stroke-width="30" stroke-linejoin="round" d="M 15170,6554 L 15020,6554"/>
 <path fill="none" stroke="rgb(0,0,0)" stroke-width="30" stroke-linejoin="round" d="M 15170,6554 L 15020,6554"/>
 <path fill="none" stroke="rgb(0,0,0)" stroke-width="30" stroke-linejoin="round" d="M 15170,5621 L 15020,5621"/>
 <path fill="none" stroke="rgb(0,0,0)" stroke-width="30" stroke-linejoin="round" d="M 15170,5621 L 15020,5621"/>
 <path fill="none" stroke="rgb(0,0,0)" stroke-width="30" stroke-linejoin="round" d="M 15170,4687 L 15020,4687"/>
 <path fill="none" stroke="rgb(0,0,0)" stroke-width="30" stroke-linejoin="round" d="M 15170,4687 L 15020,4687"/>
 <path fill="none" stroke="rgb(0,0,0)" stroke-width="30" stroke-linejoin="round" d="M 15170,3753 L 15020,3753"/>
 <path fill="none" stroke="rgb(0,0,0)" stroke-width="30" stroke-linejoin="round" d="M 15170,3753 L 15020,3753"/>
 <path fill="none" stroke="rgb(0,0,0)" stroke-width="30" stroke-linejoin="round" d="M 15170,2819 L 15020,2819"/>
 <path fill="none" stroke="rgb(0,0,0)" stroke-width="30" stroke-linejoin="round" d="M 15170,2819 L 15020,2819"/>
 <path fill="none" stroke="rgb(0,0,0)" stroke-width="30" stroke-linejoin="round" d="M 15170,1885 L 15020,1885"/>
 <path fill="none" stroke="rgb(0,0,0)" stroke-width="30" stroke-linejoin="round" d="M 15170,1885 L 15020,1885"/>
 <path fill="none" stroke="rgb(0,0,0)" stroke-width="30" stroke-linejoin="round" d="M 15170,951 L 15020,951"/>
 <path fill="none" stroke="rgb(0,0,0)" stroke-width="30" stroke-linejoin="round" d="M 15170,951 L 15020,951"/>
 <path fill="none" stroke="rgb(0,0,0)" stroke-width="30" stroke-linejoin="round" d="M 15020,10291 L 15020,951"/>
 <path fill="rgb(255,66,14)" stroke="none" d="M 1307,10291 L 1422,10291 1537,10291 1652,10291 1768,10291 1883,10291 1998,10291 2113,10291 2229,10291 2344,10291 2459,10291 2574,10291 2690,10291 2805,10291 2920,10291 3035,10291 3151,10291 3266,10291 3381,10291 3496,10291 3612,10291 3727,10291 3842,10291 3957,10291 4073,10291 4188,10291 4303,10291 4418,10291 4534,10291 4649,10291 4764,10291 4879,10291 4995,10291 5110,10291 5225,10291 5340,10291 5456,10291 5571,10291 5686,10291 5801,10291 5917,10291 6032,10291 6147,10291 6262,10291 6378,10291 6493,10291 6608,10291 6723,10291 6839,10291 6954,10291 7069,10291 7184,10291 7300,10291 7415,10291 7530,10291 7645,10291 7761,10291 7876,10291 7991,10291 8106,10291 8221,10291 8336,10291 8451,10291 8566,10291 8682,10291 8797,10291 8912,10291 9027,10291 9143,10291 9258,10291 9373,10249 9488,10238 9604,10219 9719,10180 9834,10162 9949,10139 10065,10106 10180,10092 10295,10099 10410,10105 10526,10102 10641,10072 10756,10061 10871,9979 10987,9919 11102,9874 11217,9816 11332,9806 11448,9786 11563,9757 11678,9693 11793,9650 11909,9587 12024,9563 12139,9504 12254,9498 12370,9440 12485,9390 12600,9345 12715,9411 12831,9313 12946,9307 13061,9215 13176,9086 13292,8971 13407,8921 13522,8868 13637,8876 13753,8787 13868,8731 13983,8730 14098,8782 14214,8737 14329,8720 14444,8714 14559,8683 14675,8654 14790,8650 14905,8766 15020,8887 15020,10291 1307,10291 Z"/>
 <path fill="rgb(255,211,32)" stroke="none" d="M 1307,10291 L 1422,10291 1537,10291 1652,10291 1768,10291 1883,10291 1998,10291 2113,10291 2229,10291 2344,10291 2459,10291 2574,10291 2690,10291 2805,10291 2920,10291 3035,10291 3151,10291 3266,10291 3381,10291 3496,10291 3612,10291 3727,10291 3842,10291 3957,10291 4073,10291 4188,10291 4303,10291 4418,10291 4534,10291 4649,10291 4764,10291 4879,10291 4995,10291 5110,10291 5225,10291 5340,10291 5456,10291 5571,10291 5686,10291 5801,10291 5917,10291 6032,10291 6147,10291 6262,10291 6378,10291 6493,10291 6608,10291 6723,10291 6839,10291 6954,10291 7069,10291 7184,10291 7300,10291 7415,10291 7530,10291 7645,10291 7761,10291 7876,10291 7991,10291 8106,10291 8221,10291 8336,10291 8451,10291 8566,10291 8682,10291 8797,10291 8912,10291 9027,10291 9143,10291 9258,10291 9373,10249 9488,10238 9604,10219 9719,10180 9834,10162 9949,10139 10065,10106 10180,10092 10295,10099 10410,10105 10526,10102 10641,10072 10756,10055 10871,9941 10987,9849 11102,9764 11217,9671 11332,9637 11448,9593 11563,9539 11678,9440 11793,9369 11909,9273 12024,9233 12139,9157 12254,9112 12370,8995 12485,8901 12600,8795 12715,8878 12831,8758 12946,8721 13061,8604 13176,8473 13292,8300 13407,8215 13522,8167 13637,8158 13753,8045 13868,7890 13983,7819 14098,7915 14214,7836 14329,7823 14444,7769 14559,7705 14675,7648 14790,7649 14905,7813 15020,7920 15020,8887 14905,8766 14790,8650 14675,8654 14559,8683 14444,8714 14329,8720 14214,8737 14098,8782 13983,8730 13868,8731 13753,8787 13637,8876 13522,8868 13407,8921 13292,8971 13176,9086 13061,9215 12946,9307 12831,9313 12715,9411 12600,9345 12485,9390 12370,9440 12254,9498 12139,9504 12024,9563 11909,9587 11793,9650 11678,9693 11563,9757 11448,9786 11332,9806 11217,9816 11102,9874 10987,9919 10871,9979 10756,10061 10641,10072 10526,10102 10410,10105 10295,10099 10180,10092 10065,10106 9949,10139 9834,10162 9719,10180 9604,10219 9488,10238 9373,10249 9258,10291 9143,10291 9027,10291 8912,10291 8797,10291 8682,10291 8566,10291 8451,10291 8336,10291 8221,10291 8106,10291 7991,10291 7876,10291 7761,10291 7645,10291 7530,10291 7415,10291 7300,10291 7184,10291 7069,10291 6954,10291 6839,10291 6723,10291 6608,10291 6493,10291 6378,10291 6262,10291 6147,10291 6032,10291 5917,10291 5801,10291 5686,10291 5571,10291 5456,10291 5340,10291 5225,10291 5110,10291 4995,10291 4879,10291 4764,10291 4649,10291 4534,10291 4418,10291 4303,10291 4188,10291 4073,10291 3957,10291 3842,10291 3727,10291 3612,10291 3496,10291 3381,10291 3266,10291 3151,10291 3035,10291 2920,10291 2805,10291 2690,10291 2574,10291 2459,10291 2344,10291 2229,10291 2113,10291 1998,10291 1883,10291 1768,10291 1652,10291 1537,10291 1422,10291 1307,10291 Z"/>
 <path fill="rgb(0,69,134)" stroke="none" d="M 1307,10291 L 1422,10291 1537,10291 1652,10291 1768,10291 1883,10291 1998,10291 2113,10291 2229,10291 2344,10291 2459,10291 2574,10291 2690,10291 2805,10291 2920,10253 3035,10238 3151,10224 3266,10209 3381,10193 3496,10173 3612,10149 3727,10111 3842,10077 3957,10045 4073,10004 4188,9952 4303,9875 4418,9827 4534,9780 4649,9738 4764,9711 4879,9703 4995,9667 5110,9619 5225,9586 5340,9528 5456,9464 5571,9423 5686,9333 5801,9336 5917,9315 6032,9282 6147,9259 6262,9226 6378,9208 6493,9202 6608,9175 6723,9127 6839,9092 6954,9063 7069,9038 7184,9030 7300,9025 7415,9004 7530,8975 7645,8930 7761,8932 7876,8916 7991,8870 8106,8843 8221,8841 8336,8831 8451,8786 8566,8760 8682,8728 8797,8742 8912,8770 9027,8709 9143,8701 9258,8740 9373,8685 9488,8694 9604,8639 9719,8681 9834,8668 9949,8676 10065,8689 10180,8678 10295,8641 10410,8637 10526,8582 10641,8462 10756,8419 10871,8311 10987,8326 11102,8277 11217,8246 11332,8178 11448,8168 11563,8102 11678,8019 11793,7995 11909,7923 12024,7854 12139,7755 12254,7711 12370,7673 12485,7657 12600,7587 12715,7612 12831,7507 12946,7454 13061,7414 13176,7340 13292,7214 13407,7088 13522,7026 13637,7023 13753,6962 13868,6903 13983,6851 14098,6859 14214,6846 14329,6876 14444,6827 14559,6802 14675,6759 14790,6781 14905,6887 15020,6971 15020,7920 14905,7813 14790,7649 14675,7648 14559,7705 14444,7769 14329,7823 14214,7836 14098,7915 13983,7819 13868,7890 13753,8045 13637,8158 13522,8167 13407,8215 13292,8300 13176,8473 13061,8604 12946,8721 12831,8758 12715,8878 12600,8795 12485,8901 12370,8995 12254,9112 12139,9157 12024,9233 11909,9273 11793,9369 11678,9440 11563,9539 11448,9593 11332,9637 11217,9671 11102,9764 10987,9849 10871,9941 10756,10055 10641,10072 10526,10102 10410,10105 10295,10099 10180,10092 10065,10106 9949,10139 9834,10162 9719,10180 9604,10219 9488,10238 9373,10249 9258,10291 9143,10291 9027,10291 8912,10291 8797,10291 8682,10291 8566,10291 8451,10291 8336,10291 8221,10291 8106,10291 7991,10291 7876,10291 7761,10291 7645,10291 7530,10291 7415,10291 7300,10291 7184,10291 7069,10291 6954,10291 6839,10291 6723,10291 6608,10291 6493,10291 6378,10291 6262,10291 6147,10291 6032,10291 5917,10291 5801,10291 5686,10291 5571,10291 5456,10291 5340,10291 5225,10291 5110,10291 4995,10291 4879,10291 4764,10291 4649,10291 4534,10291 4418,10291 4303,10291 4188,10291 4073,10291 3957,10291 3842,10291 3727,10291 3612,10291 3496,10291 3381,10291 3266,10291 3151,10291 3035,10291 2920,10291 2805,10291 2690,10291 2574,10291 2459,10291 2344,10291 2229,10291 2113,10291 1998,10291 1883,10291 1768,10291 1652,10291 1537,10291 1422,10291 1307,10291 Z"/>
 <path fill="rgb(131,202,255)" stroke="none" d="M 1307,10291 L 1422,10291 1537,10291 1652,10291 1768,10291 1883,10291 1998,10291 2113,10291 2229,10291 2344,10291 2459,10291 2574,10291 2690,10291 2805,10291 2920,10253 3035,10238 3151,10224 3266,10209 3381,10193 3496,10173 3612,10105 3727,10059 3842,10016 3957,9977 4073,9921 4188,9850 4303,9752 4418,9690 4534,9626 4649,9567 4764,9524 4879,9496 4995,9454 5110,9392 5225,9338 5340,9269 5456,9198 5571,9140 5686,9049 5801,9034 5917,8999 6032,8949 6147,8911 6262,8861 6378,8843 6493,8819 6608,8777 6723,8711 6839,8679 6954,8657 7069,8621 7184,8596 7300,8573 7415,8555 7530,8506 7645,8449 7761,8435 7876,8383 7991,8349 8106,8314 8221,8298 8336,8315 8451,8252 8566,8231 8682,8180 8797,8173 8912,8178 9027,8124 9143,8154 9258,8213 9373,8136 9488,8099 9604,8038 9719,8095 9834,8064 9949,8052 10065,8050 10180,8008 10295,7931 10410,7888 10526,7833 10641,7723 10756,7657 10871,7558 10987,7549 11102,7486 11217,7475 11332,7381 11448,7359 11563,7293 11678,7233 11793,7180 11909,7101 12024,7032 12139,6917 12254,6864 12370,6818 12485,6799 12600,6733 12715,6678 12831,6597 12946,6565 13061,6520 13176,6442 13292,6375 13407,6221 13522,6161 13637,6183 13753,6204 13868,6191 13983,6130 14098,6101 14214,6088 14329,6150 14444,6077 14559,6054 14675,6050 14790,6048 14905,6121 15020,6177 15020,6971 14905,6887 14790,6781 14675,6759 14559,6802 14444,6827 14329,6876 14214,6846 14098,6859 13983,6851 13868,6903 13753,6962 13637,7023 13522,7026 13407,7088 13292,7214 13176,7340 13061,7414 12946,7454 12831,7507 12715,7612 12600,7587 12485,7657 12370,7673 12254,7711 12139,7755 12024,7854 11909,7923 11793,7995 11678,8019 11563,8102 11448,8168 11332,8178 11217,8246 11102,8277 10987,8326 10871,8311 10756,8419 10641,8462 10526,8582 10410,8637 10295,8641 10180,8678 10065,8689 9949,8676 9834,8668 9719,8681 9604,8639 9488,8694 9373,8685 9258,8740 9143,8701 9027,8709 8912,8770 8797,8742 8682,8728 8566,8760 8451,8786 8336,8831 8221,8841 8106,8843 7991,8870 7876,8916 7761,8932 7645,8930 7530,8975 7415,9004 7300,9025 7184,9030 7069,9038 6954,9063 6839,9092 6723,9127 6608,9175 6493,9202 6378,9208 6262,9226 6147,9259 6032,9282 5917,9315 5801,9336 5686,9333 5571,9423 5456,9464 5340,9528 5225,9586 5110,9619 4995,9667 4879,9703 4764,9711 4649,9738 4534,9780 4418,9827 4303,9875 4188,9952 4073,10004 3957,10045 3842,10077 3727,10111 3612,10149 3496,10173 3381,10193 3266,10209 3151,10224 3035,10238 2920,10253 2805,10291 2690,10291 2574,10291 2459,10291 2344,10291 2229,10291 2113,10291 1998,10291 1883,10291 1768,10291 1652,10291 1537,10291 1422,10291 1307,10291 Z"/>
 <path fill="rgb(49,64,4)" stroke="none" d="M 1307,9992 L 1422,9992 1537,9997 1652,9997 1768,9998 1883,9993 1998,10001 2113,10005 2229,10004 2344,10007 2459,10012 2574,10011 2690,10020 2805,10021 2920,9992 3035,9978 3151,9966 3266,9953 3381,9940 3496,9920 3612,9854 3727,9814 3842,9777 3957,9739 4073,9690 4188,9624 4303,9539 4418,9479 4534,9421 4649,9368 4764,9327 4879,9297 4995,9251 5110,9194 5225,9145 5340,9078 5456,9009 5571,8963 5686,8876 5801,8859 5917,8822 6032,8779 6147,8743 6262,8701 6378,8691 6493,8671 6608,8636 6723,8582 6839,8549 6954,8526 7069,8491 7184,8300 7300,8251 7415,8197 7530,8132 7645,8021 7761,7952 7876,7915 7991,7863 8106,7860 8221,7795 8336,7735 8451,7646 8566,7671 8682,7563 8797,7537 8912,7521 9027,7437 9143,7427 9258,7523 9373,7475 9488,7423 9604,7328 9719,7298 9834,7229 9949,7243 10065,7229 10180,7223 10295,7292 10410,7323 10526,7326 10641,7173 10756,7144 10871,7019 10987,6956 11102,6885 11217,6836 11332,6750 11448,6718 11563,6647 11678,6555 11793,6468 11909,6365 12024,6295 12139,6259 12254,6178 12370,6080 12485,6034 12600,5989 12715,6003 12831,5954 12946,5920 13061,5866 13176,5821 13292,5708 13407,5627 13522,5609 13637,5637 13753,5637 13868,5535 13983,5455 14098,5479 14214,5451 14329,5465 14444,5455 14559,5441 14675,5399 14790,5433 14905,5513 15020,5565 15020,6177 14905,6121 14790,6048 14675,6050 14559,6054 14444,6077 14329,6150 14214,6088 14098,6101 13983,6130 13868,6191 13753,6204 13637,6183 13522,6161 13407,6221 13292,6375 13176,6442 13061,6520 12946,6565 12831,6597 12715,6678 12600,6733 12485,6799 12370,6818 12254,6864 12139,6917 12024,7032 11909,7101 11793,7180 11678,7233 11563,7293 11448,7359 11332,7381 11217,7475 11102,7486 10987,7549 10871,7558 10756,7657 10641,7723 10526,7833 10410,7888 10295,7931 10180,8008 10065,8050 9949,8052 9834,8064 9719,8095 9604,8038 9488,8099 9373,8136 9258,8213 9143,8154 9027,8124 8912,8178 8797,8173 8682,8180 8566,8231 8451,8252 8336,8315 8221,8298 8106,8314 7991,8349 7876,8383 7761,8435 7645,8449 7530,8506 7415,8555 7300,8573 7184,8596 7069,8621 6954,8657 6839,8679 6723,8711 6608,8777 6493,8819 6378,8843 6262,8861 6147,8911 6032,8949 5917,8999 5801,9034 5686,9049 5571,9140 5456,9198 5340,9269 5225,9338 5110,9392 4995,9454 4879,9496 4764,9524 4649,9567 4534,9626 4418,9690 4303,9752 4188,9850 4073,9921 3957,9977 3842,10016 3727,10059 3612,10105 3496,10173 3381,10193 3266,10209 3151,10224 3035,10238 2920,10253 2805,10291 2690,10291 2574,10291 2459,10291 2344,10291 2229,10291 2113,10291 1998,10291 1883,10291 1768,10291 1652,10291 1537,10291 1422,10291 1307,10291 1307,9992 Z"/>
 <path fill="rgb(126,0,33)" stroke="none" d="M 1307,9992 L 1422,9992 1537,9997 1652,9997 1768,9998 1883,9993 1998,10001 2113,10005 2229,10004 2344,10007 2459,10012 2574,10011 2690,10020 2805,10021 2920,9992 3035,9978 3151,9966 3266,9953 3381,9940 3496,9920 3612,9854 3727,9814 3842,9777 3957,9739 4073,9690 4188,9624 4303,9539 4418,9479 4534,9421 4649,9368 4764,9327 4879,9297 4995,9251 5110,9194 5225,9145 5340,9078 5456,9009 5571,8963 5686,8876 5801,8859 5917,8822 6032,8779 6147,8743 6262,8701 6378,8691 6493,8671 6608,8636 6723,8582 6839,8549 6954,8526 7069,8491 7184,8300 7300,8251 7415,8197 7530,8132 7645,8021 7761,7952 7876,7915 7991,7863 8106,7828 8221,7739 8336,7653 8451,7543 8566,7566 8682,7441 8797,7393 8912,7353 9027,7263 9143,7241 9258,7274 9373,7217 9488,7130 9604,7007 9719,6899 9834,6819 9949,6789 10065,6727 10180,6713 10295,6832 10410,6902 10526,6933 10641,6735 10756,6737 10871,6570 10987,6479 11102,6392 11217,6335 11332,6244 11448,6210 11563,6141 11678,6014 11793,5908 11909,5782 12024,5730 12139,5708 12254,5652 12370,5544 12485,5505 12600,5447 12715,5519 12831,5472 12946,5429 13061,5367 13176,5342 13292,5193 13407,5082 13522,5099 13637,5133 13753,5141 13868,4996 13983,4902 14098,4966 14214,4925 14329,4948 14444,4930 14559,4911 14675,4861 14790,4901 14905,5022 15020,5089 15020,5565 14905,5513 14790,5433 14675,5399 14559,5441 14444,5455 14329,5465 14214,5451 14098,5479 13983,5455 13868,5535 13753,5637 13637,5637 13522,5609 13407,5627 13292,5708 13176,5821 13061,5866 12946,5920 12831,5954 12715,6003 12600,5989 12485,6034 12370,6080 12254,6178 12139,6259 12024,6295 11909,6365 11793,6468 11678,6555 11563,6647 11448,6718 11332,6750 11217,6836 11102,6885 10987,6956 10871,7019 10756,7144 10641,7173 10526,7326 10410,7323 10295,7292 10180,7223 10065,7229 9949,7243 9834,7229 9719,7298 9604,7328 9488,7423 9373,7475 9258,7523 9143,7427 9027,7437 8912,7521 8797,7537 8682,7563 8566,7671 8451,7646 8336,7735 8221,7795 8106,7860 7991,7863 7876,7915 7761,7952 7645,8021 7530,8132 7415,8197 7300,8251 7184,8300 7069,8491 6954,8526 6839,8549 6723,8582 6608,8636 6493,8671 6378,8691 6262,8701 6147,8743 6032,8779 5917,8822 5801,8859 5686,8876 5571,8963 5456,9009 5340,9078 5225,9145 5110,9194 4995,9251 4879,9297 4764,9327 4649,9368 4534,9421 4418,9479 4303,9539 4188,9624 4073,9690 3957,9739 3842,9777 3727,9814 3612,9854 3496,9920 3381,9940 3266,9953 3151,9966 3035,9978 2920,9992 2805,10021 2690,10020 2574,10011 2459,10012 2344,10007 2229,10004 2113,10005 1998,10001 1883,9993 1768,9998 1652,9997 1537,9997 1422,9992 1307,9992 Z"/>
 <path fill="rgb(75,31,111)" stroke="none" d="M 1307,9512 L 1422,9488 1537,9467 1652,9450 1768,9414 1883,9417 1998,9383 2113,9360 2229,9342 2344,9325 2459,9314 2574,9306 2690,9272 2805,9246 2920,9195 3035,9172 3151,9147 3266,9131 3381,9116 3496,9097 3612,9011 3727,8969 3842,8930 3957,8901 4073,8851 4188,8791 4303,8711 4418,8661 4534,8605 4649,8561 4764,8541 4879,8535 4995,8505 5110,8451 5225,8420 5340,8362 5456,8296 5571,8254 5686,8158 5801,8155 5917,8132 6032,8098 6147,8068 6262,8033 6378,8036 6493,8020 6608,7988 6723,7937 6839,7918 6954,7922 7069,7889 7184,7707 7300,7659 7415,7619 7530,7557 7645,7441 7761,7369 7876,7307 7991,7255 8106,7234 8221,7151 8336,7088 8451,6989 8566,7024 8682,6890 8797,6840 8912,6796 9027,6719 9143,6704 9258,6808 9373,6737 9488,6629 9604,6506 9719,6416 9834,6342 9949,6308 10065,6243 10180,6224 10295,6324 10410,6378 10526,6409 10641,6223 10756,6237 10871,6081 10987,5994 11102,5917 11217,5879 11332,5778 11448,5703 11563,5599 11678,5472 11793,5456 11909,5339 12024,5286 12139,5268 12254,5203 12370,5087 12485,5065 12600,5018 12715,5075 12831,5043 12946,5004 13061,4943 13176,4938 13292,4821 13407,4733 13522,4744 13637,4786 13753,4802 13868,4677 13983,4581 14098,4633 14214,4597 14329,4634 14444,4608 14559,4600 14675,4559 14790,4601 14905,4695 15020,4741 15020,5089 14905,5022 14790,4901 14675,4861 14559,4911 14444,4930 14329,4948 14214,4925 14098,4966 13983,4902 13868,4996 13753,5141 13637,5133 13522,5099 13407,5082 13292,5193 13176,5342 13061,5367 12946,5429 12831,5472 12715,5519 12600,5447 12485,5505 12370,5544 12254,5652 12139,5708 12024,5730 11909,5782 11793,5908 11678,6014 11563,6141 11448,6210 11332,6244 11217,6335 11102,6392 10987,6479 10871,6570 10756,6737 10641,6735 10526,6933 10410,6902 10295,6832 10180,6713 10065,6727 9949,6789 9834,6819 9719,6899 9604,7007 9488,7130 9373,7217 9258,7274 9143,7241 9027,7263 8912,7353 8797,7393 8682,7441 8566,7566 8451,7543 8336,7653 8221,7739 8106,7828 7991,7863 7876,7915 7761,7952 7645,8021 7530,8132 7415,8197 7300,8251 7184,8300 7069,8491 6954,8526 6839,8549 6723,8582 6608,8636 6493,8671 6378,8691 6262,8701 6147,8743 6032,8779 5917,8822 5801,8859 5686,8876 5571,8963 5456,9009 5340,9078 5225,9145 5110,9194 4995,9251 4879,9297 4764,9327 4649,9368 4534,9421 4418,9479 4303,9539 4188,9624 4073,9690 3957,9739 3842,9777 3727,9814 3612,9854 3496,9920 3381,9940 3266,9953 3151,9966 3035,9978 2920,9992 2805,10021 2690,10020 2574,10011 2459,10012 2344,10007 2229,10004 2113,10005 1998,10001 1883,9993 1768,9998 1652,9997 1537,9997 1422,9992 1307,9992 1307,9512 Z"/>
 <path fill="rgb(87,157,28)" stroke="none" d="M 1307,8235 L 1422,8162 1537,8070 1652,8022 1768,7923 1883,7953 1998,7852 2113,7774 2229,7733 2344,7662 2459,7614 2574,7553 2690,7448 2805,7413 2920,7289 3035,7278 3151,7248 3266,7233 3381,7205 3496,7152 3612,7114 3727,7063 3842,7053 3957,7017 4073,6944 4188,6916 4303,6821 4418,6820 4534,6799 4649,6767 4764,6800 4879,6856 4995,6878 5110,6850 5225,6856 5340,6802 5456,6743 5571,6718 5686,6630 5801,6688 5917,6691 6032,6663 6147,6666 6262,6676 6378,6691 6493,6713 6608,6693 6723,6633 6839,6639 6954,6681 7069,6686 7184,6519 7300,6499 7415,6478 7530,6454 7645,6338 7761,6277 7876,6231 7991,6197 8106,6222 8221,6160 8336,6135 8451,6058 8566,6138 8682,5990 8797,5968 8912,5954 9027,5899 9143,5908 9258,6063 9373,5982 9488,5869 9604,5731 9719,5680 9834,5619 9949,5603 10065,5549 10180,5549 10295,5654 10410,5714 10526,5775 10641,5566 10756,5646 10871,5485 10987,5418 11102,5361 11217,5330 11332,5220 11448,5157 11563,5064 11678,4939 11793,4933 11909,4832 12024,4771 12139,4776 12254,4700 12370,4590 12485,4591 12600,4544 12715,4607 12831,4599 12946,4573 13061,4516 13176,4535 13292,4435 13407,4391 13522,4401 13637,4445 13753,4469 13868,4363 13983,4264 14098,4309 14214,4293 14329,4325 14444,4311 14559,4317 14675,4282 14790,4339 14905,4412 15020,4446 15020,4741 14905,4695 14790,4601 14675,4559 14559,4600 14444,4608 14329,4634 14214,4597 14098,4633 13983,4581 13868,4677 13753,4802 13637,4786 13522,4744 13407,4733 13292,4821 13176,4938 13061,4943 12946,5004 12831,5043 12715,5075 12600,5018 12485,5065 12370,5087 12254,5203 12139,5268 12024,5286 11909,5339 11793,5456 11678,5472 11563,5599 11448,5703 11332,5778 11217,5879 11102,5917 10987,5994 10871,6081 10756,6237 10641,6223 10526,6409 10410,6378 10295,6324 10180,6224 10065,6243 9949,6308 9834,6342 9719,6416 9604,6506 9488,6629 9373,6737 9258,6808 9143,6704 9027,6719 8912,6796 8797,6840 8682,6890 8566,7024 8451,6989 8336,7088 8221,7151 8106,7234 7991,7255 7876,7307 7761,7369 7645,7441 7530,7557 7415,7619 7300,7659 7184,7707 7069,7889 6954,7922 6839,7918 6723,7937 6608,7988 6493,8020 6378,8036 6262,8033 6147,8068 6032,8098 5917,8132 5801,8155 5686,8158 5571,8254 5456,8296 5340,8362 5225,8420 5110,8451 4995,8505 4879,8535 4764,8541 4649,8561 4534,8605 4418,8661 4303,8711 4188,8791 4073,8851 3957,8901 3842,8930 3727,8969 3612,9011 3496,9097 3381,9116 3266,9131 3151,9147 3035,9172 2920,9195 2805,9246 2690,9272 2574,9306 2459,9314 2344,9325 2229,9342 2113,9360 1998,9383 1883,9417 1768,9414 1652,9450 1537,9467 1422,9488 1307,9512 1307,8235 Z"/>
 <path fill="rgb(255,149,14)" stroke="none" d="M 1307,6993 L 1422,6963 1537,6848 1652,6806 1768,6720 1883,6733 1998,6633 2113,6556 2229,6516 2344,6449 2459,6387 2574,6325 2690,6253 2805,6229 2920,6126 3035,6110 3151,6090 3266,6083 3381,6074 3496,6033 3612,6016 3727,6003 3842,5981 3957,5972 4073,5926 4188,5924 4303,5851 4418,5839 4534,5831 4649,5805 4764,5819 4879,5845 4995,5865 5110,5833 5225,5822 5340,5787 5456,5748 5571,5756 5686,5713 5801,5739 5917,5699 6032,5699 6147,5702 6262,5735 6378,5823 6493,5841 6608,5815 6723,5777 6839,5801 6954,5890 7069,5900 7184,5732 7300,5735 7415,5737 7530,5699 7645,5595 7761,5540 7876,5505 7991,5494 8106,5528 8221,5485 8336,5528 8451,5433 8566,5515 8682,5367 8797,5329 8912,5295 9027,5266 9143,5309 9258,5531 9373,5438 9488,5299 9604,5168 9719,5161 9834,5085 9949,5067 10065,5026 10180,5004 10295,5065 10410,5089 10526,5145 10641,4967 10756,5033 10871,4910 10987,4874 11102,4831 11217,4834 11332,4720 11448,4667 11563,4579 11678,4482 11793,4476 11909,4393 12024,4345 12139,4345 12254,4271 12370,4207 12485,4234 12600,4200 12715,4247 12831,4254 12946,4245 13061,4194 13176,4218 13292,4135 13407,4094 13522,4111 13637,4163 13753,4213 13868,4131 13983,4034 14098,4067 14214,4054 14329,4096 14444,4078 14559,4092 14675,4072 14790,4126 14905,4193 15020,4224 15020,4446 14905,4412 14790,4339 14675,4282 14559,4317 14444,4311 14329,4325 14214,4293 14098,4309 13983,4264 13868,4363 13753,4469 13637,4445 13522,4401 13407,4391 13292,4435 13176,4535 13061,4516 12946,4573 12831,4599 12715,4607 12600,4544 12485,4591 12370,4590 12254,4700 12139,4776 12024,4771 11909,4832 11793,4933 11678,4939 11563,5064 11448,5157 11332,5220 11217,5330 11102,5361 10987,5418 10871,5485 10756,5646 10641,5566 10526,5775 10410,5714 10295,5654 10180,5549 10065,5549 9949,5603 9834,5619 9719,5680 9604,5731 9488,5869 9373,5982 9258,6063 9143,5908 9027,5899 8912,5954 8797,5968 8682,5990 8566,6138 8451,6058 8336,6135 8221,6160 8106,6222 7991,6197 7876,6231 7761,6277 7645,6338 7530,6454 7415,6478 7300,6499 7184,6519 7069,6686 6954,6681 6839,6639 6723,6633 6608,6693 6493,6713 6378,6691 6262,6676 6147,6666 6032,6663 5917,6691 5801,6688 5686,6630 5571,6718 5456,6743 5340,6802 5225,6856 5110,6850 4995,6878 4879,6856 4764,6800 4649,6767 4534,6799 4418,6820 4303,6821 4188,6916 4073,6944 3957,7017 3842,7053 3727,7063 3612,7114 3496,7152 3381,7205 3266,7233 3151,7248 3035,7278 2920,7289 2805,7413 2690,7448 2574,7553 2459,7614 2344,7662 2229,7733 2113,7774 1998,7852 1883,7953 1768,7923 1652,8022 1537,8070 1422,8162 1307,8235 1307,6993 Z"/>
 <path fill="rgb(174,207,0)" stroke="none" d="M 1307,2690 L 1422,2706 1537,2707 1652,2726 1768,2688 1883,2663 1998,2718 2113,2710 2229,2711 2344,2729 2459,2734 2574,2700 2690,2743 2805,2806 2920,2805 3035,2818 3151,2862 3266,2924 3381,2950 3496,2970 3612,3019 3727,3080 3842,3122 3957,3147 4073,3194 4188,3276 4303,3332 4418,3360 4534,3428 4649,3488 4764,3516 4879,3578 4995,3658 5110,3702 5225,3726 5340,3710 5456,3653 5571,3741 5686,3787 5801,3836 5917,3810 6032,3867 6147,3902 6262,3980 6378,4136 6493,4217 6608,4226 6723,4288 6839,4272 6954,4285 7069,4346 7184,4217 7300,4262 7415,4253 7530,4307 7645,4344 7761,4362 7876,4337 7991,4304 8106,4381 8221,4367 8336,4331 8451,4365 8566,4346 8682,4260 8797,4295 8912,4307 9027,4299 9143,4361 9258,4700 9373,4621 9488,4531 9604,4412 9719,4475 9834,4432 9949,4439 10065,4431 10180,4402 10295,4381 10410,4351 10526,4213 10641,4177 10756,4306 10871,4217 10987,4218 11102,4173 11217,4075 11332,4037 11448,4110 11563,4088 11678,4029 11793,4066 11909,4012 12024,3967 12139,3991 12254,3935 12370,3913 12485,3957 12600,3942 12715,3981 12831,3986 12946,3936 13061,3927 13176,3941 13292,3878 13407,3864 13522,3883 13637,3899 13753,3997 13868,3925 13983,3852 14098,3852 14214,3842 14329,3893 14444,3882 14559,3900 14675,3876 14790,3929 14905,3986 15020,4012 15020,4224 14905,4193 14790,4126 14675,4072 14559,4092 14444,4078 14329,4096 14214,4054 14098,4067 13983,4034 13868,4131 13753,4213 13637,4163 13522,4111 13407,4094 13292,4135 13176,4218 13061,4194 12946,4245 12831,4254 12715,4247 12600,4200 12485,4234 12370,4207 12254,4271 12139,4345 12024,4345 11909,4393 11793,4476 11678,4482 11563,4579 11448,4667 11332,4720 11217,4834 11102,4831 10987,4874 10871,4910 10756,5033 10641,4967 10526,5145 10410,5089 10295,5065 10180,5004 10065,5026 9949,5067 9834,5085 9719,5161 9604,5168 9488,5299 9373,5438 9258,5531 9143,5309 9027,5266 8912,5295 8797,5329 8682,5367 8566,5515 8451,5433 8336,5528 8221,5485 8106,5528 7991,5494 7876,5505 7761,5540 7645,5595 7530,5699 7415,5737 7300,5735 7184,5732 7069,5900 6954,5890 6839,5801 6723,5777 6608,5815 6493,5841 6378,5823 6262,5735 6147,5702 6032,5699 5917,5699 5801,5739 5686,5713 5571,5756 5456,5748 5340,5787 5225,5822 5110,5833 4995,5865 4879,5845 4764,5819 4649,5805 4534,5831 4418,5839 4303,5851 4188,5924 4073,5926 3957,5972 3842,5981 3727,6003 3612,6016 3496,6033 3381,6074 3266,6083 3151,6090 3035,6110 2920,6126 2805,6229 2690,6253 2574,6325 2459,6387 2344,6449 2229,6516 2113,6556 1998,6633 1883,6733 1768,6720 1652,6806 1537,6848 1422,6963 1307,6993 1307,2690 Z"/>
 <path fill="rgb(197,0,11)" stroke="none" d="M 1307,2393 L 1422,2393 1537,2368 1652,2376 1768,2317 1883,2297 1998,2312 2113,2288 2229,2281 2344,2281 2459,2265 2574,2240 2690,2255 2805,2294 2920,2281 3035,2290 3151,2325 3266,2385 3381,2412 3496,2445 3612,2476 3727,2543 3842,2581 3957,2616 4073,2664 4188,2751 4303,2811 4418,2848 4534,2913 4649,2975 4764,3007 4879,3064 4995,3149 5110,3194 5225,3218 5340,3219 5456,3182 5571,3277 5686,3332 5801,3369 5917,3335 6032,3398 6147,3437 6262,3523 6378,3693 6493,3775 6608,3782 6723,3849 6839,3849 6954,3889 7069,3954 7184,3828 7300,3875 7415,3880 7530,3932 7645,3970 7761,3984 7876,3954 7991,3942 8106,4031 8221,4018 8336,4012 8451,4041 8566,4038 8682,3950 8797,3974 8912,3978 9027,3984 9143,4065 9258,4430 9373,4343 9488,4235 9604,4119 9719,4197 9834,4149 9949,4154 10065,4145 10180,4105 10295,4049 10410,3990 10526,3869 10641,3852 10756,3983 10871,3921 10987,3924 11102,3885 11217,3805 11332,3769 11448,3844 11563,3825 11678,3779 11793,3807 11909,3759 12024,3719 12139,3749 12254,3694 12370,3677 12485,3729 12600,3720 12715,3747 12831,3763 12946,3721 13061,3715 13176,3732 13292,3687 13407,3678 13522,3700 13637,3730 13753,3840 13868,3779 13983,3701 14098,3697 14214,3687 14329,3749 14444,3732 14559,3752 14675,3736 14790,3785 14905,3837 15020,3860 15020,4012 14905,3986 14790,3929 14675,3876 14559,3900 14444,3882 14329,3893 14214,3842 14098,3852 13983,3852 13868,3925 13753,3997 13637,3899 13522,3883 13407,3864 13292,3878 13176,3941 13061,3927 12946,3936 12831,3986 12715,3981 12600,3942 12485,3957 12370,3913 12254,3935 12139,3991 12024,3967 11909,4012 11793,4066 11678,4029 11563,4088 11448,4110 11332,4037 11217,4075 11102,4173 10987,4218 10871,4217 10756,4306 10641,4177 10526,4213 10410,4351 10295,4381 10180,4402 10065,4431 9949,4439 9834,4432 9719,4475 9604,4412 9488,4531 9373,4621 9258,4700 9143,4361 9027,4299 8912,4307 8797,4295 8682,4260 8566,4346 8451,4365 8336,4331 8221,4367 8106,4381 7991,4304 7876,4337 7761,4362 7645,4344 7530,4307 7415,4253 7300,4262 7184,4217 7069,4346 6954,4285 6839,4272 6723,4288 6608,4226 6493,4217 6378,4136 6262,3980 6147,3902 6032,3867 5917,3810 5801,3836 5686,3787 5571,3741 5456,3653 5340,3710 5225,3726 5110,3702 4995,3658 4879,3578 4764,3516 4649,3488 4534,3428 4418,3360 4303,3332 4188,3276 4073,3194 3957,3147 3842,3122 3727,3080 3612,3019 3496,2970 3381,2950 3266,2924 3151,2862 3035,2818 2920,2805 2805,2806 2690,2743 2574,2700 2459,2734 2344,2729 2229,2711 2113,2710 1998,2718 1883,2663 1768,2688 1652,2726 1537,2707 1422,2706 1307,2690 1307,2393 Z"/>
 <path fill="rgb(0,132,209)" stroke="none" d="M 1307,1681 L 1422,1692 1537,1721 1652,1755 1768,1705 1883,1699 1998,1742 2113,1744 2229,1752 2344,1783 2459,1795 2574,1778 2690,1817 2805,1874 2920,1884 3035,1897 3151,1929 3266,1994 3381,2034 3496,2084 3612,2123 3727,2184 3842,2236 3957,2282 4073,2349 4188,2444 4303,2527 4418,2577 4534,2651 4649,2711 4764,2765 4879,2836 4995,2930 5110,2992 5225,3022 5340,3039 5456,3006 5571,3101 5686,3180 5801,3207 5917,3190 6032,3261 6147,3304 6262,3394 6378,3568 6493,3663 6608,3673 6723,3756 6839,3753 6954,3787 7069,3858 7184,3683 7300,3735 7415,3738 7530,3793 7645,3832 7761,3851 7876,3828 7991,3814 8106,3898 8221,3882 8336,3875 8451,3899 8566,3893 8682,3816 8797,3854 8912,3870 9027,3868 9143,3948 9258,4310 9373,4230 9488,4130 9604,4014 9719,4101 9834,4055 9949,4069 10065,4069 10180,4030 10295,3982 10410,3922 10526,3800 10641,3779 10756,3899 10871,3844 10987,3859 11102,3826 11217,3747 11332,3713 11448,3791 11563,3771 11678,3729 11793,3757 11909,3714 12024,3670 12139,3706 12254,3649 12370,3637 12485,3689 12600,3682 12715,3713 12831,3726 12946,3687 13061,3680 13176,3699 13292,3652 13407,3647 13522,3669 13637,3699 13753,3810 13868,3752 13983,3674 14098,3668 14214,3660 14329,3715 14444,3704 14559,3726 14675,3710 14790,3757 14905,3807 15020,3831 15020,3860 14905,3837 14790,3785 14675,3736 14559,3752 14444,3732 14329,3749 14214,3687 14098,3697 13983,3701 13868,3779 13753,3840 13637,3730 13522,3700 13407,3678 13292,3687 13176,3732 13061,3715 12946,3721 12831,3763 12715,3747 12600,3720 12485,3729 12370,3677 12254,3694 12139,3749 12024,3719 11909,3759 11793,3807 11678,3779 11563,3825 11448,3844 11332,3769 11217,3805 11102,3885 10987,3924 10871,3921 10756,3983 10641,3852 10526,3869 10410,3990 10295,4049 10180,4105 10065,4145 9949,4154 9834,4149 9719,4197 9604,4119 9488,4235 9373,4343 9258,4430 9143,4065 9027,3984 8912,3978 8797,3974 8682,3950 8566,4038 8451,4041 8336,4012 8221,4018 8106,4031 7991,3942 7876,3954 7761,3984 7645,3970 7530,3932 7415,3880 7300,3875 7184,3828 7069,3954 6954,3889 6839,3849 6723,3849 6608,3782 6493,3775 6378,3693 6262,3523 6147,3437 6032,3398 5917,3335 5801,3369 5686,3332 5571,3277 5456,3182 5340,3219 5225,3218 5110,3194 4995,3149 4879,3064 4764,3007 4649,2975 4534,2913 4418,2848 4303,2811 4188,2751 4073,2664 3957,2616 3842,2581 3727,2543 3612,2476 3496,2445 3381,2412 3266,2385 3151,2325 3035,2290 2920,2281 2805,2294 2690,2255 2574,2240 2459,2265 2344,2281 2229,2281 2113,2288 1998,2312 1883,2297 1768,2317 1652,2376 1537,2368 1422,2393 1307,2393 1307,1681 Z"/>
 <text class="TextShape"><tspan class="TextParagraph" font-family="Arial, sans-serif" font-size="388px" font-weight="400"><tspan class="TextPosition" x="1113" y="10885"><tspan fill="rgb(0,0,0)" stroke="none">2008</tspan></tspan></tspan></text>
 <text class="TextShape"><tspan class="TextParagraph" font-family="Arial, sans-serif" font-size="388px" font-weight="400"><tspan class="TextPosition" x="2496" y="10885"><tspan fill="rgb(0,0,0)" stroke="none">2009</tspan></tspan></tspan></text>
 <text class="TextShape"><tspan class="TextParagraph" font-family="Arial, sans-serif" font-size="388px" font-weight="400"><tspan class="TextPosition" x="3879" y="10885"><tspan fill="rgb(0,0,0)" stroke="none">2010</tspan></tspan></tspan></text>
 <text class="TextShape"><tspan class="TextParagraph" font-family="Arial, sans-serif" font-size="388px" font-weight="400"><tspan class="TextPosition" x="5262" y="10885"><tspan fill="rgb(0,0,0)" stroke="none">2011</tspan></tspan></tspan></text>
 <text class="TextShape"><tspan class="TextParagraph" font-family="Arial, sans-serif" font-size="388px" font-weight="400"><tspan class="TextPosition" x="6645" y="10885"><tspan fill="rgb(0,0,0)" stroke="none">2012</tspan></tspan></tspan></text>
 <text class="TextShape"><tspan class="TextParagraph" font-family="Arial, sans-serif" font-size="388px" font-weight="400"><tspan class="TextPosition" x="8028" y="10885"><tspan fill="rgb(0,0,0)" stroke="none">2013</tspan></tspan></tspan></text>
 <text class="TextShape"><tspan class="TextParagraph" font-family="Arial, sans-serif" font-size="388px" font-weight="400"><tspan class="TextPosition" x="9411" y="10885"><tspan fill="rgb(0,0,0)" stroke="none">2014</tspan></tspan></tspan></text>
 <text class="TextShape"><tspan class="TextParagraph" font-family="Arial, sans-serif" font-size="388px" font-weight="400"><tspan class="TextPosition" x="10794" y="10885"><tspan fill="rgb(0,0,0)" stroke="none">2015</tspan></tspan></tspan></text>
 <text class="TextShape"><tspan class="TextParagraph" font-family="Arial, sans-serif" font-size="388px" font-weight="400"><tspan class="TextPosition" x="12177" y="10885"><tspan fill="rgb(0,0,0)" stroke="none">2016</tspan></tspan></tspan></text>
 <text class="TextShape"><tspan class="TextParagraph" font-family="Arial, sans-serif" font-size="388px" font-weight="400"><tspan class="TextPosition" x="13560" y="10885"><tspan fill="rgb(0,0,0)" stroke="none">2017</tspan></tspan></tspan></text>
 <text class="TextShape"><tspan class="TextParagraph" font-family="Arial, sans-serif" font-size="388px" font-weight="400"><tspan class="TextPosition" x="501" y="10425"><tspan fill="rgb(0,0,0)" stroke="none">0%</tspan></tspan></tspan></text>
 <text class="TextShape"><tspan class="TextParagraph" font-family="Arial, sans-serif" font-size="388px" font-weight="400"><tspan class="TextPosition" x="290" y="9490"><tspan fill="rgb(0,0,0)" stroke="none">10%</tspan></tspan></tspan></text>
 <text class="TextShape"><tspan class="TextParagraph" font-family="Arial, sans-serif" font-size="388px" font-weight="400"><tspan class="TextPosition" x="290" y="8556"><tspan fill="rgb(0,0,0)" stroke="none">20%</tspan></tspan></tspan></text>
 <text class="TextShape"><tspan class="TextParagraph" font-family="Arial, sans-serif" font-size="388px" font-weight="400"><tspan class="TextPosition" x="290" y="7622"><tspan fill="rgb(0,0,0)" stroke="none">30%</tspan></tspan></tspan></text>
 <text class="TextShape"><tspan class="TextParagraph" font-family="Arial, sans-serif" font-size="388px" font-weight="400"><tspan class="TextPosition" x="290" y="6688"><tspan fill="rgb(0,0,0)" stroke="none">40%</tspan></tspan></tspan></text>
 <text class="TextShape"><tspan class="TextParagraph" font-family="Arial, sans-serif" font-size="388px" font-weight="400"><tspan class="TextPosition" x="290" y="5754"><tspan fill="rgb(0,0,0)" stroke="none">50%</tspan></tspan></tspan></text>
 <text class="TextShape"><tspan class="TextParagraph" font-family="Arial, sans-serif" font-size="388px" font-weight="400"><tspan class="TextPosition" x="290" y="4820"><tspan fill="rgb(0,0,0)" stroke="none">60%</tspan></tspan></tspan></text>
 <text class="TextShape"><tspan class="TextParagraph" font-family="Arial, sans-serif" font-size="388px" font-weight="400"><tspan class="TextPosition" x="290" y="3886"><tspan fill="rgb(0,0,0)" stroke="none">70%</tspan></tspan></tspan></text>
 <text class="TextShape"><tspan class="TextParagraph" font-family="Arial, sans-serif" font-size="388px" font-weight="400"><tspan class="TextPosition" x="290" y="2952"><tspan fill="rgb(0,0,0)" stroke="none">80%</tspan></tspan></tspan></text>
 <text class="TextShape"><tspan class="TextParagraph" font-family="Arial, sans-serif" font-size="388px" font-weight="400"><tspan class="TextPosition" x="290" y="2018"><tspan fill="rgb(0,0,0)" stroke="none">90%</tspan></tspan></tspan></text>
 <text class="TextShape"><tspan class="TextParagraph" font-family="Arial, sans-serif" font-size="388px" font-weight="400"><tspan class="TextPosition" x="78" y="1084"><tspan fill="rgb(0,0,0)" stroke="none">100%</tspan></tspan></tspan></text>
 <text class="TextShape"><tspan class="TextParagraph" font-family="Arial, sans-serif" font-size="388px" font-weight="400"><tspan class="TextPosition" x="15270" y="10425"><tspan fill="rgb(0,0,0)" stroke="none">0%</tspan></tspan></tspan></text>
 <text class="TextShape"><tspan class="TextParagraph" font-family="Arial, sans-serif" font-size="388px" font-weight="400"><tspan class="TextPosition" x="15270" y="9490"><tspan fill="rgb(0,0,0)" stroke="none">10%</tspan></tspan></tspan></text>
 <text class="TextShape"><tspan class="TextParagraph" font-family="Arial, sans-serif" font-size="388px" font-weight="400"><tspan class="TextPosition" x="15270" y="8556"><tspan fill="rgb(0,0,0)" stroke="none">20%</tspan></tspan></tspan></text>
 <text class="TextShape"><tspan class="TextParagraph" font-family="Arial, sans-serif" font-size="388px" font-weight="400"><tspan class="TextPosition" x="15270" y="7622"><tspan fill="rgb(0,0,0)" stroke="none">30%</tspan></tspan></tspan></text>
 <text class="TextShape"><tspan class="TextParagraph" font-family="Arial, sans-serif" font-size="388px" font-weight="400"><tspan class="TextPosition" x="15270" y="6688"><tspan fill="rgb(0,0,0)" stroke="none">40%</tspan></tspan></tspan></text>
 <text class="TextShape"><tspan class="TextParagraph" font-family="Arial, sans-serif" font-size="388px" font-weight="400"><tspan class="TextPosition" x="15270" y="5754"><tspan fill="rgb(0,0,0)" stroke="none">50%</tspan></tspan></tspan></text>
 <text class="TextShape"><tspan class="TextParagraph" font-family="Arial, sans-serif" font-size="388px" font-weight="400"><tspan class="TextPosition" x="15270" y="4820"><tspan fill="rgb(0,0,0)" stroke="none">60%</tspan></tspan></tspan></text>
 <text class="TextShape"><tspan class="TextParagraph" font-family="Arial, sans-serif" font-size="388px" font-weight="400"><tspan class="TextPosition" x="15270" y="3886"><tspan fill="rgb(0,0,0)" stroke="none">70%</tspan></tspan></tspan></text>
 <text class="TextShape"><tspan class="TextParagraph" font-family="Arial, sans-serif" font-size="388px" font-weight="400"><tspan class="TextPosition" x="15270" y="2952"><tspan fill="rgb(0,0,0)" stroke="none">80%</tspan></tspan></tspan></text>
 <text class="TextShape"><tspan class="TextParagraph" font-family="Arial, sans-serif" font-size="388px" font-weight="400"><tspan class="TextPosition" x="15270" y="2018"><tspan fill="rgb(0,0,0)" stroke="none">90%</tspan></tspan></tspan></text>
 <text class="TextShape"><tspan class="TextParagraph" font-family="Arial, sans-serif" font-size="388px" font-weight="400"><tspan class="TextPosition" x="15270" y="1084"><tspan fill="rgb(0,0,0)" stroke="none">100%</tspan></tspan></tspan></text>
 <text class="TextShape"><tspan class="TextParagraph" font-family="Liberation Sans, sans-serif" font-size="635px" font-weight="400"><tspan class="TextPosition" x="4204" y="747"><tspan fill="rgb(0,0,0)" stroke="none">Resoluciones ms frecuentes</tspan></tspan></tspan></text>
 <path fill="rgb(255,66,14)" stroke="none" d="M 1764,11650 L 1669,11650 1669,11460 1859,11460 1859,11650 1764,11650 Z"/>
 <path fill="rgb(255,211,32)" stroke="none" d="M 3879,11650 L 3784,11650 3784,11460 3974,11460 3974,11650 3879,11650 Z"/>
 <path fill="rgb(0,69,134)" stroke="none" d="M 5994,11650 L 5899,11650 5899,11460 6089,11460 6089,11650 5994,11650 Z"/>
 <path fill="rgb(131,202,255)" stroke="none" d="M 8293,11650 L 8198,11650 8198,11460 8388,11460 8388,11650 8293,11650 Z"/>
 <path fill="rgb(49,64,4)" stroke="none" d="M 10593,11650 L 10498,11650 10498,11460 10688,11460 10688,11650 10593,11650 Z"/>
 <path fill="rgb(126,0,33)" stroke="none" d="M 12893,11650 L 12798,11650 12798,11460 12988,11460 12988,11650 12893,11650 Z"/>
 <path fill="rgb(75,31,111)" stroke="none" d="M 1764,12069 L 1669,12069 1669,11879 1859,11879 1859,12069 1764,12069 Z"/>
 <path fill="rgb(87,157,28)" stroke="none" d="M 3879,12069 L 3784,12069 3784,11879 3974,11879 3974,12069 3879,12069 Z"/>
 <path fill="rgb(255,149,14)" stroke="none" d="M 5994,12069 L 5899,12069 5899,11879 6089,11879 6089,12069 5994,12069 Z"/>
 <path fill="rgb(174,207,0)" stroke="none" d="M 8293,12069 L 8198,12069 8198,11879 8388,11879 8388,12069 8293,12069 Z"/>
 <path fill="rgb(197,0,11)" stroke="none" d="M 10593,12069 L 10498,12069 10498,11879 10688,11879 10688,12069 10593,12069 Z"/>
 <path fill="rgb(0,132,209)" stroke="none" d="M 12893,12069 L 12798,12069 12798,11879 12988,11879 12988,12069 12893,12069 Z"/>
 <text class="TextShape"><tspan class="TextParagraph" font-family="Arial, sans-serif" font-size="318px" font-weight="400"><tspan class="TextPosition" x="1959" y="11661"><tspan fill="rgb(0,0,0)" stroke="none">360 x 640</tspan></tspan></tspan></text>
 <text class="TextShape"><tspan class="TextParagraph" font-family="Arial, sans-serif" font-size="318px" font-weight="400"><tspan class="TextPosition" x="4074" y="11661"><tspan fill="rgb(0,0,0)" stroke="none">375 x 667</tspan></tspan></tspan></text>
 <text class="TextShape"><tspan class="TextParagraph" font-family="Arial, sans-serif" font-size="318px" font-weight="400"><tspan class="TextPosition" x="6189" y="11661"><tspan fill="rgb(0,0,0)" stroke="none">1366 x 768</tspan></tspan></tspan></text>
 <text class="TextShape"><tspan class="TextParagraph" font-family="Arial, sans-serif" font-size="318px" font-weight="400"><tspan class="TextPosition" x="8488" y="11661"><tspan fill="rgb(0,0,0)" stroke="none">1920 x 1080</tspan></tspan></tspan></text>
 <text class="TextShape"><tspan class="TextParagraph" font-family="Arial, sans-serif" font-size="318px" font-weight="400"><tspan class="TextPosition" x="10788" y="11661"><tspan fill="rgb(0,0,0)" stroke="none">768 x 1024</tspan></tspan></tspan></text>
 <text class="TextShape"><tspan class="TextParagraph" font-family="Arial, sans-serif" font-size="318px" font-weight="400"><tspan class="TextPosition" x="13088" y="11661"><tspan fill="rgb(0,0,0)" stroke="none">320 x 568</tspan></tspan></tspan></text>
 <text class="TextShape"><tspan class="TextParagraph" font-family="Arial, sans-serif" font-size="318px" font-weight="400"><tspan class="TextPosition" x="1959" y="12080"><tspan fill="rgb(0,0,0)" stroke="none">1440 x 900</tspan></tspan></tspan></text>
 <text class="TextShape"><tspan class="TextParagraph" font-family="Arial, sans-serif" font-size="318px" font-weight="400"><tspan class="TextPosition" x="4074" y="12080"><tspan fill="rgb(0,0,0)" stroke="none">1280 x 800</tspan></tspan></tspan></text>
 <text class="TextShape"><tspan class="TextParagraph" font-family="Arial, sans-serif" font-size="318px" font-weight="400"><tspan class="TextPosition" x="6189" y="12080"><tspan fill="rgb(0,0,0)" stroke="none">1280 x 1024</tspan></tspan></tspan></text>
 <text class="TextShape"><tspan class="TextParagraph" font-family="Arial, sans-serif" font-size="318px" font-weight="400"><tspan class="TextPosition" x="8488" y="12080"><tspan fill="rgb(0,0,0)" stroke="none">1024 x 768</tspan></tspan></tspan></text>
 <text class="TextShape"><tspan class="TextParagraph" font-family="Arial, sans-serif" font-size="318px" font-weight="400"><tspan class="TextPosition" x="10788" y="12080"><tspan fill="rgb(0,0,0)" stroke="none">1680 x 1050</tspan></tspan></tspan></text>
 <text class="TextShape"><tspan class="TextParagraph" font-family="Arial, sans-serif" font-size="318px" font-weight="400"><tspan class="TextPosition" x="13088" y="12080"><tspan fill="rgb(0,0,0)" stroke="none">1024 x 600</tspan></tspan></tspan></text>
</svg>
