<?xml version="1.0" encoding="UTF-8"?>
<!DOCTYPE svg PUBLIC "-//W3C//DTD SVG 1.1//EN" "http://www.w3.org/Graphics/SVG/1.1/DTD/svg11.dtd">
<svg width="164mm" height="123mm" viewBox="0 0 16400 12300" version="1.1" xmlns="http://www.w3.org/2000/svg" stroke-width="28.222" stroke-linejoin="round" xml:space="preserve">
 <path fill="rgb(255,255,255)" stroke="none" d="M 8197,12255 L 0,12255 0,0 16393,0 16393,12255 8197,12255 Z"/>
 <path fill="none" stroke="rgb(179,179,179)" stroke-linejoin="round" d="M 8236,10818 L 1184,10818 1184,1092 15288,1092 15288,10818 8236,10818 Z"/>
 <path fill="none" stroke="rgb(0,0,0)" stroke-width="20" stroke-linejoin="round" d="M 15288,10817 L 1184,10817"/>
 <path fill="none" stroke="rgb(0,0,0)" stroke-width="20" stroke-linejoin="round" d="M 15288,9195 L 1184,9195"/>
 <path fill="none" stroke="rgb(0,0,0)" stroke-width="20" stroke-linejoin="round" d="M 15288,7574 L 1184,7574"/>
 <path fill="none" stroke="rgb(0,0,0)" stroke-width="20" stroke-linejoin="round" d="M 15288,5954 L 1184,5954"/>
 <path fill="none" stroke="rgb(0,0,0)" stroke-width="20" stroke-linejoin="round" d="M 15288,4333 L 1184,4333"/>
 <path fill="none" stroke="rgb(0,0,0)" stroke-width="20" stroke-linejoin="round" d="M 15288,2712 L 1184,2712"/>
 <path fill="none" stroke="rgb(0,0,0)" stroke-width="20" stroke-linejoin="round" d="M 15288,1090 L 1184,1090"/>
 <path fill="none" stroke="rgb(0,0,0)" stroke-width="30" stroke-linejoin="round" d="M 1184,10967 L 1184,10817"/>
 <path fill="none" stroke="rgb(0,0,0)" stroke-width="30" stroke-linejoin="round" d="M 1184,10967 L 1184,10817"/>
 <path fill="none" stroke="rgb(0,0,0)" stroke-width="30" stroke-linejoin="round" d="M 1303,10967 L 1303,10817"/>
 <path fill="none" stroke="rgb(0,0,0)" stroke-width="30" stroke-linejoin="round" d="M 1303,10967 L 1303,10817"/>
 <path fill="none" stroke="rgb(0,0,0)" stroke-width="30" stroke-linejoin="round" d="M 1423,10967 L 1423,10817"/>
 <path fill="none" stroke="rgb(0,0,0)" stroke-width="30" stroke-linejoin="round" d="M 1423,10967 L 1423,10817"/>
 <path fill="none" stroke="rgb(0,0,0)" stroke-width="30" stroke-linejoin="round" d="M 1542,10967 L 1542,10817"/>
 <path fill="none" stroke="rgb(0,0,0)" stroke-width="30" stroke-linejoin="round" d="M 1542,10967 L 1542,10817"/>
 <path fill="none" stroke="rgb(0,0,0)" stroke-width="30" stroke-linejoin="round" d="M 1662,10967 L 1662,10817"/>
 <path fill="none" stroke="rgb(0,0,0)" stroke-width="30" stroke-linejoin="round" d="M 1662,10967 L 1662,10817"/>
 <path fill="none" stroke="rgb(0,0,0)" stroke-width="30" stroke-linejoin="round" d="M 1781,10967 L 1781,10817"/>
 <path fill="none" stroke="rgb(0,0,0)" stroke-width="30" stroke-linejoin="round" d="M 1781,10967 L 1781,10817"/>
 <path fill="none" stroke="rgb(0,0,0)" stroke-width="30" stroke-linejoin="round" d="M 1901,10967 L 1901,10817"/>
 <path fill="none" stroke="rgb(0,0,0)" stroke-width="30" stroke-linejoin="round" d="M 1901,10967 L 1901,10817"/>
 <path fill="none" stroke="rgb(0,0,0)" stroke-width="30" stroke-linejoin="round" d="M 2020,10967 L 2020,10817"/>
 <path fill="none" stroke="rgb(0,0,0)" stroke-width="30" stroke-linejoin="round" d="M 2020,10967 L 2020,10817"/>
 <path fill="none" stroke="rgb(0,0,0)" stroke-width="30" stroke-linejoin="round" d="M 2140,10967 L 2140,10817"/>
 <path fill="none" stroke="rgb(0,0,0)" stroke-width="30" stroke-linejoin="round" d="M 2140,10967 L 2140,10817"/>
 <path fill="none" stroke="rgb(0,0,0)" stroke-width="30" stroke-linejoin="round" d="M 2259,10967 L 2259,10817"/>
 <path fill="none" stroke="rgb(0,0,0)" stroke-width="30" stroke-linejoin="round" d="M 2259,10967 L 2259,10817"/>
 <path fill="none" stroke="rgb(0,0,0)" stroke-width="30" stroke-linejoin="round" d="M 2379,10967 L 2379,10817"/>
 <path fill="none" stroke="rgb(0,0,0)" stroke-width="30" stroke-linejoin="round" d="M 2379,10967 L 2379,10817"/>
 <path fill="none" stroke="rgb(0,0,0)" stroke-width="30" stroke-linejoin="round" d="M 2498,10967 L 2498,10817"/>
 <path fill="none" stroke="rgb(0,0,0)" stroke-width="30" stroke-linejoin="round" d="M 2498,10967 L 2498,10817"/>
 <path fill="none" stroke="rgb(0,0,0)" stroke-width="30" stroke-linejoin="round" d="M 2618,10967 L 2618,10817"/>
 <path fill="none" stroke="rgb(0,0,0)" stroke-width="30" stroke-linejoin="round" d="M 2618,10967 L 2618,10817"/>
 <path fill="none" stroke="rgb(0,0,0)" stroke-width="30" stroke-linejoin="round" d="M 2737,10967 L 2737,10817"/>
 <path fill="none" stroke="rgb(0,0,0)" stroke-width="30" stroke-linejoin="round" d="M 2737,10967 L 2737,10817"/>
 <path fill="none" stroke="rgb(0,0,0)" stroke-width="30" stroke-linejoin="round" d="M 2857,10967 L 2857,10817"/>
 <path fill="none" stroke="rgb(0,0,0)" stroke-width="30" stroke-linejoin="round" d="M 2857,10967 L 2857,10817"/>
 <path fill="none" stroke="rgb(0,0,0)" stroke-width="30" stroke-linejoin="round" d="M 2977,10967 L 2977,10817"/>
 <path fill="none" stroke="rgb(0,0,0)" stroke-width="30" stroke-linejoin="round" d="M 2977,10967 L 2977,10817"/>
 <path fill="none" stroke="rgb(0,0,0)" stroke-width="30" stroke-linejoin="round" d="M 3096,10967 L 3096,10817"/>
 <path fill="none" stroke="rgb(0,0,0)" stroke-width="30" stroke-linejoin="round" d="M 3096,10967 L 3096,10817"/>
 <path fill="none" stroke="rgb(0,0,0)" stroke-width="30" stroke-linejoin="round" d="M 3216,10967 L 3216,10817"/>
 <path fill="none" stroke="rgb(0,0,0)" stroke-width="30" stroke-linejoin="round" d="M 3216,10967 L 3216,10817"/>
 <path fill="none" stroke="rgb(0,0,0)" stroke-width="30" stroke-linejoin="round" d="M 3335,10967 L 3335,10817"/>
 <path fill="none" stroke="rgb(0,0,0)" stroke-width="30" stroke-linejoin="round" d="M 3335,10967 L 3335,10817"/>
 <path fill="none" stroke="rgb(0,0,0)" stroke-width="30" stroke-linejoin="round" d="M 3455,10967 L 3455,10817"/>
 <path fill="none" stroke="rgb(0,0,0)" stroke-width="30" stroke-linejoin="round" d="M 3455,10967 L 3455,10817"/>
 <path fill="none" stroke="rgb(0,0,0)" stroke-width="30" stroke-linejoin="round" d="M 3574,10967 L 3574,10817"/>
 <path fill="none" stroke="rgb(0,0,0)" stroke-width="30" stroke-linejoin="round" d="M 3574,10967 L 3574,10817"/>
 <path fill="none" stroke="rgb(0,0,0)" stroke-width="30" stroke-linejoin="round" d="M 3694,10967 L 3694,10817"/>
 <path fill="none" stroke="rgb(0,0,0)" stroke-width="30" stroke-linejoin="round" d="M 3694,10967 L 3694,10817"/>
 <path fill="none" stroke="rgb(0,0,0)" stroke-width="30" stroke-linejoin="round" d="M 3813,10967 L 3813,10817"/>
 <path fill="none" stroke="rgb(0,0,0)" stroke-width="30" stroke-linejoin="round" d="M 3813,10967 L 3813,10817"/>
 <path fill="none" stroke="rgb(0,0,0)" stroke-width="30" stroke-linejoin="round" d="M 3933,10967 L 3933,10817"/>
 <path fill="none" stroke="rgb(0,0,0)" stroke-width="30" stroke-linejoin="round" d="M 3933,10967 L 3933,10817"/>
 <path fill="none" stroke="rgb(0,0,0)" stroke-width="30" stroke-linejoin="round" d="M 4052,10967 L 4052,10817"/>
 <path fill="none" stroke="rgb(0,0,0)" stroke-width="30" stroke-linejoin="round" d="M 4052,10967 L 4052,10817"/>
 <path fill="none" stroke="rgb(0,0,0)" stroke-width="30" stroke-linejoin="round" d="M 4172,10967 L 4172,10817"/>
 <path fill="none" stroke="rgb(0,0,0)" stroke-width="30" stroke-linejoin="round" d="M 4172,10967 L 4172,10817"/>
 <path fill="none" stroke="rgb(0,0,0)" stroke-width="30" stroke-linejoin="round" d="M 4291,10967 L 4291,10817"/>
 <path fill="none" stroke="rgb(0,0,0)" stroke-width="30" stroke-linejoin="round" d="M 4291,10967 L 4291,10817"/>
 <path fill="none" stroke="rgb(0,0,0)" stroke-width="30" stroke-linejoin="round" d="M 4411,10967 L 4411,10817"/>
 <path fill="none" stroke="rgb(0,0,0)" stroke-width="30" stroke-linejoin="round" d="M 4411,10967 L 4411,10817"/>
 <path fill="none" stroke="rgb(0,0,0)" stroke-width="30" stroke-linejoin="round" d="M 4530,10967 L 4530,10817"/>
 <path fill="none" stroke="rgb(0,0,0)" stroke-width="30" stroke-linejoin="round" d="M 4530,10967 L 4530,10817"/>
 <path fill="none" stroke="rgb(0,0,0)" stroke-width="30" stroke-linejoin="round" d="M 4650,10967 L 4650,10817"/>
 <path fill="none" stroke="rgb(0,0,0)" stroke-width="30" stroke-linejoin="round" d="M 4650,10967 L 4650,10817"/>
 <path fill="none" stroke="rgb(0,0,0)" stroke-width="30" stroke-linejoin="round" d="M 4770,10967 L 4770,10817"/>
 <path fill="none" stroke="rgb(0,0,0)" stroke-width="30" stroke-linejoin="round" d="M 4770,10967 L 4770,10817"/>
 <path fill="none" stroke="rgb(0,0,0)" stroke-width="30" stroke-linejoin="round" d="M 4889,10967 L 4889,10817"/>
 <path fill="none" stroke="rgb(0,0,0)" stroke-width="30" stroke-linejoin="round" d="M 4889,10967 L 4889,10817"/>
 <path fill="none" stroke="rgb(0,0,0)" stroke-width="30" stroke-linejoin="round" d="M 5009,10967 L 5009,10817"/>
 <path fill="none" stroke="rgb(0,0,0)" stroke-width="30" stroke-linejoin="round" d="M 5009,10967 L 5009,10817"/>
 <path fill="none" stroke="rgb(0,0,0)" stroke-width="30" stroke-linejoin="round" d="M 5128,10967 L 5128,10817"/>
 <path fill="none" stroke="rgb(0,0,0)" stroke-width="30" stroke-linejoin="round" d="M 5128,10967 L 5128,10817"/>
 <path fill="none" stroke="rgb(0,0,0)" stroke-width="30" stroke-linejoin="round" d="M 5248,10967 L 5248,10817"/>
 <path fill="none" stroke="rgb(0,0,0)" stroke-width="30" stroke-linejoin="round" d="M 5248,10967 L 5248,10817"/>
 <path fill="none" stroke="rgb(0,0,0)" stroke-width="30" stroke-linejoin="round" d="M 5367,10967 L 5367,10817"/>
 <path fill="none" stroke="rgb(0,0,0)" stroke-width="30" stroke-linejoin="round" d="M 5367,10967 L 5367,10817"/>
 <path fill="none" stroke="rgb(0,0,0)" stroke-width="30" stroke-linejoin="round" d="M 5487,10967 L 5487,10817"/>
 <path fill="none" stroke="rgb(0,0,0)" stroke-width="30" stroke-linejoin="round" d="M 5487,10967 L 5487,10817"/>
 <path fill="none" stroke="rgb(0,0,0)" stroke-width="30" stroke-linejoin="round" d="M 5606,10967 L 5606,10817"/>
 <path fill="none" stroke="rgb(0,0,0)" stroke-width="30" stroke-linejoin="round" d="M 5606,10967 L 5606,10817"/>
 <path fill="none" stroke="rgb(0,0,0)" stroke-width="30" stroke-linejoin="round" d="M 5726,10967 L 5726,10817"/>
 <path fill="none" stroke="rgb(0,0,0)" stroke-width="30" stroke-linejoin="round" d="M 5726,10967 L 5726,10817"/>
 <path fill="none" stroke="rgb(0,0,0)" stroke-width="30" stroke-linejoin="round" d="M 5845,10967 L 5845,10817"/>
 <path fill="none" stroke="rgb(0,0,0)" stroke-width="30" stroke-linejoin="round" d="M 5845,10967 L 5845,10817"/>
 <path fill="none" stroke="rgb(0,0,0)" stroke-width="30" stroke-linejoin="round" d="M 5965,10967 L 5965,10817"/>
 <path fill="none" stroke="rgb(0,0,0)" stroke-width="30" stroke-linejoin="round" d="M 5965,10967 L 5965,10817"/>
 <path fill="none" stroke="rgb(0,0,0)" stroke-width="30" stroke-linejoin="round" d="M 6084,10967 L 6084,10817"/>
 <path fill="none" stroke="rgb(0,0,0)" stroke-width="30" stroke-linejoin="round" d="M 6084,10967 L 6084,10817"/>
 <path fill="none" stroke="rgb(0,0,0)" stroke-width="30" stroke-linejoin="round" d="M 6204,10967 L 6204,10817"/>
 <path fill="none" stroke="rgb(0,0,0)" stroke-width="30" stroke-linejoin="round" d="M 6204,10967 L 6204,10817"/>
 <path fill="none" stroke="rgb(0,0,0)" stroke-width="30" stroke-linejoin="round" d="M 6323,10967 L 6323,10817"/>
 <path fill="none" stroke="rgb(0,0,0)" stroke-width="30" stroke-linejoin="round" d="M 6323,10967 L 6323,10817"/>
 <path fill="none" stroke="rgb(0,0,0)" stroke-width="30" stroke-linejoin="round" d="M 6443,10967 L 6443,10817"/>
 <path fill="none" stroke="rgb(0,0,0)" stroke-width="30" stroke-linejoin="round" d="M 6443,10967 L 6443,10817"/>
 <path fill="none" stroke="rgb(0,0,0)" stroke-width="30" stroke-linejoin="round" d="M 6563,10967 L 6563,10817"/>
 <path fill="none" stroke="rgb(0,0,0)" stroke-width="30" stroke-linejoin="round" d="M 6563,10967 L 6563,10817"/>
 <path fill="none" stroke="rgb(0,0,0)" stroke-width="30" stroke-linejoin="round" d="M 6682,10967 L 6682,10817"/>
 <path fill="none" stroke="rgb(0,0,0)" stroke-width="30" stroke-linejoin="round" d="M 6682,10967 L 6682,10817"/>
 <path fill="none" stroke="rgb(0,0,0)" stroke-width="30" stroke-linejoin="round" d="M 6802,10967 L 6802,10817"/>
 <path fill="none" stroke="rgb(0,0,0)" stroke-width="30" stroke-linejoin="round" d="M 6802,10967 L 6802,10817"/>
 <path fill="none" stroke="rgb(0,0,0)" stroke-width="30" stroke-linejoin="round" d="M 6921,10967 L 6921,10817"/>
 <path fill="none" stroke="rgb(0,0,0)" stroke-width="30" stroke-linejoin="round" d="M 6921,10967 L 6921,10817"/>
 <path fill="none" stroke="rgb(0,0,0)" stroke-width="30" stroke-linejoin="round" d="M 7041,10967 L 7041,10817"/>
 <path fill="none" stroke="rgb(0,0,0)" stroke-width="30" stroke-linejoin="round" d="M 7041,10967 L 7041,10817"/>
 <path fill="none" stroke="rgb(0,0,0)" stroke-width="30" stroke-linejoin="round" d="M 7160,10967 L 7160,10817"/>
 <path fill="none" stroke="rgb(0,0,0)" stroke-width="30" stroke-linejoin="round" d="M 7160,10967 L 7160,10817"/>
 <path fill="none" stroke="rgb(0,0,0)" stroke-width="30" stroke-linejoin="round" d="M 7280,10967 L 7280,10817"/>
 <path fill="none" stroke="rgb(0,0,0)" stroke-width="30" stroke-linejoin="round" d="M 7280,10967 L 7280,10817"/>
 <path fill="none" stroke="rgb(0,0,0)" stroke-width="30" stroke-linejoin="round" d="M 7399,10967 L 7399,10817"/>
 <path fill="none" stroke="rgb(0,0,0)" stroke-width="30" stroke-linejoin="round" d="M 7399,10967 L 7399,10817"/>
 <path fill="none" stroke="rgb(0,0,0)" stroke-width="30" stroke-linejoin="round" d="M 7519,10967 L 7519,10817"/>
 <path fill="none" stroke="rgb(0,0,0)" stroke-width="30" stroke-linejoin="round" d="M 7519,10967 L 7519,10817"/>
 <path fill="none" stroke="rgb(0,0,0)" stroke-width="30" stroke-linejoin="round" d="M 7638,10967 L 7638,10817"/>
 <path fill="none" stroke="rgb(0,0,0)" stroke-width="30" stroke-linejoin="round" d="M 7638,10967 L 7638,10817"/>
 <path fill="none" stroke="rgb(0,0,0)" stroke-width="30" stroke-linejoin="round" d="M 7758,10967 L 7758,10817"/>
 <path fill="none" stroke="rgb(0,0,0)" stroke-width="30" stroke-linejoin="round" d="M 7758,10967 L 7758,10817"/>
 <path fill="none" stroke="rgb(0,0,0)" stroke-width="30" stroke-linejoin="round" d="M 7877,10967 L 7877,10817"/>
 <path fill="none" stroke="rgb(0,0,0)" stroke-width="30" stroke-linejoin="round" d="M 7877,10967 L 7877,10817"/>
 <path fill="none" stroke="rgb(0,0,0)" stroke-width="30" stroke-linejoin="round" d="M 7997,10967 L 7997,10817"/>
 <path fill="none" stroke="rgb(0,0,0)" stroke-width="30" stroke-linejoin="round" d="M 7997,10967 L 7997,10817"/>
 <path fill="none" stroke="rgb(0,0,0)" stroke-width="30" stroke-linejoin="round" d="M 8116,10967 L 8116,10817"/>
 <path fill="none" stroke="rgb(0,0,0)" stroke-width="30" stroke-linejoin="round" d="M 8116,10967 L 8116,10817"/>
 <path fill="none" stroke="rgb(0,0,0)" stroke-width="30" stroke-linejoin="round" d="M 8235,10967 L 8235,10817"/>
 <path fill="none" stroke="rgb(0,0,0)" stroke-width="30" stroke-linejoin="round" d="M 8235,10967 L 8235,10817"/>
 <path fill="none" stroke="rgb(0,0,0)" stroke-width="30" stroke-linejoin="round" d="M 8355,10967 L 8355,10817"/>
 <path fill="none" stroke="rgb(0,0,0)" stroke-width="30" stroke-linejoin="round" d="M 8355,10967 L 8355,10817"/>
 <path fill="none" stroke="rgb(0,0,0)" stroke-width="30" stroke-linejoin="round" d="M 8474,10967 L 8474,10817"/>
 <path fill="none" stroke="rgb(0,0,0)" stroke-width="30" stroke-linejoin="round" d="M 8474,10967 L 8474,10817"/>
 <path fill="none" stroke="rgb(0,0,0)" stroke-width="30" stroke-linejoin="round" d="M 8594,10967 L 8594,10817"/>
 <path fill="none" stroke="rgb(0,0,0)" stroke-width="30" stroke-linejoin="round" d="M 8594,10967 L 8594,10817"/>
 <path fill="none" stroke="rgb(0,0,0)" stroke-width="30" stroke-linejoin="round" d="M 8713,10967 L 8713,10817"/>
 <path fill="none" stroke="rgb(0,0,0)" stroke-width="30" stroke-linejoin="round" d="M 8713,10967 L 8713,10817"/>
 <path fill="none" stroke="rgb(0,0,0)" stroke-width="30" stroke-linejoin="round" d="M 8833,10967 L 8833,10817"/>
 <path fill="none" stroke="rgb(0,0,0)" stroke-width="30" stroke-linejoin="round" d="M 8833,10967 L 8833,10817"/>
 <path fill="none" stroke="rgb(0,0,0)" stroke-width="30" stroke-linejoin="round" d="M 8952,10967 L 8952,10817"/>
 <path fill="none" stroke="rgb(0,0,0)" stroke-width="30" stroke-linejoin="round" d="M 8952,10967 L 8952,10817"/>
 <path fill="none" stroke="rgb(0,0,0)" stroke-width="30" stroke-linejoin="round" d="M 9072,10967 L 9072,10817"/>
 <path fill="none" stroke="rgb(0,0,0)" stroke-width="30" stroke-linejoin="round" d="M 9072,10967 L 9072,10817"/>
 <path fill="none" stroke="rgb(0,0,0)" stroke-width="30" stroke-linejoin="round" d="M 9191,10967 L 9191,10817"/>
 <path fill="none" stroke="rgb(0,0,0)" stroke-width="30" stroke-linejoin="round" d="M 9191,10967 L 9191,10817"/>
 <path fill="none" stroke="rgb(0,0,0)" stroke-width="30" stroke-linejoin="round" d="M 9311,10967 L 9311,10817"/>
 <path fill="none" stroke="rgb(0,0,0)" stroke-width="30" stroke-linejoin="round" d="M 9311,10967 L 9311,10817"/>
 <path fill="none" stroke="rgb(0,0,0)" stroke-width="30" stroke-linejoin="round" d="M 9430,10967 L 9430,10817"/>
 <path fill="none" stroke="rgb(0,0,0)" stroke-width="30" stroke-linejoin="round" d="M 9430,10967 L 9430,10817"/>
 <path fill="none" stroke="rgb(0,0,0)" stroke-width="30" stroke-linejoin="round" d="M 9550,10967 L 9550,10817"/>
 <path fill="none" stroke="rgb(0,0,0)" stroke-width="30" stroke-linejoin="round" d="M 9550,10967 L 9550,10817"/>
 <path fill="none" stroke="rgb(0,0,0)" stroke-width="30" stroke-linejoin="round" d="M 9669,10967 L 9669,10817"/>
 <path fill="none" stroke="rgb(0,0,0)" stroke-width="30" stroke-linejoin="round" d="M 9669,10967 L 9669,10817"/>
 <path fill="none" stroke="rgb(0,0,0)" stroke-width="30" stroke-linejoin="round" d="M 9789,10967 L 9789,10817"/>
 <path fill="none" stroke="rgb(0,0,0)" stroke-width="30" stroke-linejoin="round" d="M 9789,10967 L 9789,10817"/>
 <path fill="none" stroke="rgb(0,0,0)" stroke-width="30" stroke-linejoin="round" d="M 9908,10967 L 9908,10817"/>
 <path fill="none" stroke="rgb(0,0,0)" stroke-width="30" stroke-linejoin="round" d="M 9908,10967 L 9908,10817"/>
 <path fill="none" stroke="rgb(0,0,0)" stroke-width="30" stroke-linejoin="round" d="M 10028,10967 L 10028,10817"/>
 <path fill="none" stroke="rgb(0,0,0)" stroke-width="30" stroke-linejoin="round" d="M 10028,10967 L 10028,10817"/>
 <path fill="none" stroke="rgb(0,0,0)" stroke-width="30" stroke-linejoin="round" d="M 10148,10967 L 10148,10817"/>
 <path fill="none" stroke="rgb(0,0,0)" stroke-width="30" stroke-linejoin="round" d="M 10148,10967 L 10148,10817"/>
 <path fill="none" stroke="rgb(0,0,0)" stroke-width="30" stroke-linejoin="round" d="M 10267,10967 L 10267,10817"/>
 <path fill="none" stroke="rgb(0,0,0)" stroke-width="30" stroke-linejoin="round" d="M 10267,10967 L 10267,10817"/>
 <path fill="none" stroke="rgb(0,0,0)" stroke-width="30" stroke-linejoin="round" d="M 10387,10967 L 10387,10817"/>
 <path fill="none" stroke="rgb(0,0,0)" stroke-width="30" stroke-linejoin="round" d="M 10387,10967 L 10387,10817"/>
 <path fill="none" stroke="rgb(0,0,0)" stroke-width="30" stroke-linejoin="round" d="M 10506,10967 L 10506,10817"/>
 <path fill="none" stroke="rgb(0,0,0)" stroke-width="30" stroke-linejoin="round" d="M 10506,10967 L 10506,10817"/>
 <path fill="none" stroke="rgb(0,0,0)" stroke-width="30" stroke-linejoin="round" d="M 10626,10967 L 10626,10817"/>
 <path fill="none" stroke="rgb(0,0,0)" stroke-width="30" stroke-linejoin="round" d="M 10626,10967 L 10626,10817"/>
 <path fill="none" stroke="rgb(0,0,0)" stroke-width="30" stroke-linejoin="round" d="M 10745,10967 L 10745,10817"/>
 <path fill="none" stroke="rgb(0,0,0)" stroke-width="30" stroke-linejoin="round" d="M 10745,10967 L 10745,10817"/>
 <path fill="none" stroke="rgb(0,0,0)" stroke-width="30" stroke-linejoin="round" d="M 10865,10967 L 10865,10817"/>
 <path fill="none" stroke="rgb(0,0,0)" stroke-width="30" stroke-linejoin="round" d="M 10865,10967 L 10865,10817"/>
 <path fill="none" stroke="rgb(0,0,0)" stroke-width="30" stroke-linejoin="round" d="M 10984,10967 L 10984,10817"/>
 <path fill="none" stroke="rgb(0,0,0)" stroke-width="30" stroke-linejoin="round" d="M 10984,10967 L 10984,10817"/>
 <path fill="none" stroke="rgb(0,0,0)" stroke-width="30" stroke-linejoin="round" d="M 11104,10967 L 11104,10817"/>
 <path fill="none" stroke="rgb(0,0,0)" stroke-width="30" stroke-linejoin="round" d="M 11104,10967 L 11104,10817"/>
 <path fill="none" stroke="rgb(0,0,0)" stroke-width="30" stroke-linejoin="round" d="M 11223,10967 L 11223,10817"/>
 <path fill="none" stroke="rgb(0,0,0)" stroke-width="30" stroke-linejoin="round" d="M 11223,10967 L 11223,10817"/>
 <path fill="none" stroke="rgb(0,0,0)" stroke-width="30" stroke-linejoin="round" d="M 11343,10967 L 11343,10817"/>
 <path fill="none" stroke="rgb(0,0,0)" stroke-width="30" stroke-linejoin="round" d="M 11343,10967 L 11343,10817"/>
 <path fill="none" stroke="rgb(0,0,0)" stroke-width="30" stroke-linejoin="round" d="M 11462,10967 L 11462,10817"/>
 <path fill="none" stroke="rgb(0,0,0)" stroke-width="30" stroke-linejoin="round" d="M 11462,10967 L 11462,10817"/>
 <path fill="none" stroke="rgb(0,0,0)" stroke-width="30" stroke-linejoin="round" d="M 11582,10967 L 11582,10817"/>
 <path fill="none" stroke="rgb(0,0,0)" stroke-width="30" stroke-linejoin="round" d="M 11582,10967 L 11582,10817"/>
 <path fill="none" stroke="rgb(0,0,0)" stroke-width="30" stroke-linejoin="round" d="M 11701,10967 L 11701,10817"/>
 <path fill="none" stroke="rgb(0,0,0)" stroke-width="30" stroke-linejoin="round" d="M 11701,10967 L 11701,10817"/>
 <path fill="none" stroke="rgb(0,0,0)" stroke-width="30" stroke-linejoin="round" d="M 11821,10967 L 11821,10817"/>
 <path fill="none" stroke="rgb(0,0,0)" stroke-width="30" stroke-linejoin="round" d="M 11821,10967 L 11821,10817"/>
 <path fill="none" stroke="rgb(0,0,0)" stroke-width="30" stroke-linejoin="round" d="M 11941,10967 L 11941,10817"/>
 <path fill="none" stroke="rgb(0,0,0)" stroke-width="30" stroke-linejoin="round" d="M 11941,10967 L 11941,10817"/>
 <path fill="none" stroke="rgb(0,0,0)" stroke-width="30" stroke-linejoin="round" d="M 12060,10967 L 12060,10817"/>
 <path fill="none" stroke="rgb(0,0,0)" stroke-width="30" stroke-linejoin="round" d="M 12060,10967 L 12060,10817"/>
 <path fill="none" stroke="rgb(0,0,0)" stroke-width="30" stroke-linejoin="round" d="M 12180,10967 L 12180,10817"/>
 <path fill="none" stroke="rgb(0,0,0)" stroke-width="30" stroke-linejoin="round" d="M 12180,10967 L 12180,10817"/>
 <path fill="none" stroke="rgb(0,0,0)" stroke-width="30" stroke-linejoin="round" d="M 12299,10967 L 12299,10817"/>
 <path fill="none" stroke="rgb(0,0,0)" stroke-width="30" stroke-linejoin="round" d="M 12299,10967 L 12299,10817"/>
 <path fill="none" stroke="rgb(0,0,0)" stroke-width="30" stroke-linejoin="round" d="M 12419,10967 L 12419,10817"/>
 <path fill="none" stroke="rgb(0,0,0)" stroke-width="30" stroke-linejoin="round" d="M 12419,10967 L 12419,10817"/>
 <path fill="none" stroke="rgb(0,0,0)" stroke-width="30" stroke-linejoin="round" d="M 12538,10967 L 12538,10817"/>
 <path fill="none" stroke="rgb(0,0,0)" stroke-width="30" stroke-linejoin="round" d="M 12538,10967 L 12538,10817"/>
 <path fill="none" stroke="rgb(0,0,0)" stroke-width="30" stroke-linejoin="round" d="M 12658,10967 L 12658,10817"/>
 <path fill="none" stroke="rgb(0,0,0)" stroke-width="30" stroke-linejoin="round" d="M 12658,10967 L 12658,10817"/>
 <path fill="none" stroke="rgb(0,0,0)" stroke-width="30" stroke-linejoin="round" d="M 12777,10967 L 12777,10817"/>
 <path fill="none" stroke="rgb(0,0,0)" stroke-width="30" stroke-linejoin="round" d="M 12777,10967 L 12777,10817"/>
 <path fill="none" stroke="rgb(0,0,0)" stroke-width="30" stroke-linejoin="round" d="M 12897,10967 L 12897,10817"/>
 <path fill="none" stroke="rgb(0,0,0)" stroke-width="30" stroke-linejoin="round" d="M 12897,10967 L 12897,10817"/>
 <path fill="none" stroke="rgb(0,0,0)" stroke-width="30" stroke-linejoin="round" d="M 13016,10967 L 13016,10817"/>
 <path fill="none" stroke="rgb(0,0,0)" stroke-width="30" stroke-linejoin="round" d="M 13016,10967 L 13016,10817"/>
 <path fill="none" stroke="rgb(0,0,0)" stroke-width="30" stroke-linejoin="round" d="M 13136,10967 L 13136,10817"/>
 <path fill="none" stroke="rgb(0,0,0)" stroke-width="30" stroke-linejoin="round" d="M 13136,10967 L 13136,10817"/>
 <path fill="none" stroke="rgb(0,0,0)" stroke-width="30" stroke-linejoin="round" d="M 13255,10967 L 13255,10817"/>
 <path fill="none" stroke="rgb(0,0,0)" stroke-width="30" stroke-linejoin="round" d="M 13255,10967 L 13255,10817"/>
 <path fill="none" stroke="rgb(0,0,0)" stroke-width="30" stroke-linejoin="round" d="M 13375,10967 L 13375,10817"/>
 <path fill="none" stroke="rgb(0,0,0)" stroke-width="30" stroke-linejoin="round" d="M 13375,10967 L 13375,10817"/>
 <path fill="none" stroke="rgb(0,0,0)" stroke-width="30" stroke-linejoin="round" d="M 13494,10967 L 13494,10817"/>
 <path fill="none" stroke="rgb(0,0,0)" stroke-width="30" stroke-linejoin="round" d="M 13494,10967 L 13494,10817"/>
 <path fill="none" stroke="rgb(0,0,0)" stroke-width="30" stroke-linejoin="round" d="M 13614,10967 L 13614,10817"/>
 <path fill="none" stroke="rgb(0,0,0)" stroke-width="30" stroke-linejoin="round" d="M 13614,10967 L 13614,10817"/>
 <path fill="none" stroke="rgb(0,0,0)" stroke-width="30" stroke-linejoin="round" d="M 13734,10967 L 13734,10817"/>
 <path fill="none" stroke="rgb(0,0,0)" stroke-width="30" stroke-linejoin="round" d="M 13734,10967 L 13734,10817"/>
 <path fill="none" stroke="rgb(0,0,0)" stroke-width="30" stroke-linejoin="round" d="M 13853,10967 L 13853,10817"/>
 <path fill="none" stroke="rgb(0,0,0)" stroke-width="30" stroke-linejoin="round" d="M 13853,10967 L 13853,10817"/>
 <path fill="none" stroke="rgb(0,0,0)" stroke-width="30" stroke-linejoin="round" d="M 13973,10967 L 13973,10817"/>
 <path fill="none" stroke="rgb(0,0,0)" stroke-width="30" stroke-linejoin="round" d="M 13973,10967 L 13973,10817"/>
 <path fill="none" stroke="rgb(0,0,0)" stroke-width="30" stroke-linejoin="round" d="M 14092,10967 L 14092,10817"/>
 <path fill="none" stroke="rgb(0,0,0)" stroke-width="30" stroke-linejoin="round" d="M 14092,10967 L 14092,10817"/>
 <path fill="none" stroke="rgb(0,0,0)" stroke-width="30" stroke-linejoin="round" d="M 14212,10967 L 14212,10817"/>
 <path fill="none" stroke="rgb(0,0,0)" stroke-width="30" stroke-linejoin="round" d="M 14212,10967 L 14212,10817"/>
 <path fill="none" stroke="rgb(0,0,0)" stroke-width="30" stroke-linejoin="round" d="M 14331,10967 L 14331,10817"/>
 <path fill="none" stroke="rgb(0,0,0)" stroke-width="30" stroke-linejoin="round" d="M 14331,10967 L 14331,10817"/>
 <path fill="none" stroke="rgb(0,0,0)" stroke-width="30" stroke-linejoin="round" d="M 14451,10967 L 14451,10817"/>
 <path fill="none" stroke="rgb(0,0,0)" stroke-width="30" stroke-linejoin="round" d="M 14451,10967 L 14451,10817"/>
 <path fill="none" stroke="rgb(0,0,0)" stroke-width="30" stroke-linejoin="round" d="M 14570,10967 L 14570,10817"/>
 <path fill="none" stroke="rgb(0,0,0)" stroke-width="30" stroke-linejoin="round" d="M 14570,10967 L 14570,10817"/>
 <path fill="none" stroke="rgb(0,0,0)" stroke-width="30" stroke-linejoin="round" d="M 14690,10967 L 14690,10817"/>
 <path fill="none" stroke="rgb(0,0,0)" stroke-width="30" stroke-linejoin="round" d="M 14690,10967 L 14690,10817"/>
 <path fill="none" stroke="rgb(0,0,0)" stroke-width="30" stroke-linejoin="round" d="M 14809,10967 L 14809,10817"/>
 <path fill="none" stroke="rgb(0,0,0)" stroke-width="30" stroke-linejoin="round" d="M 14809,10967 L 14809,10817"/>
 <path fill="none" stroke="rgb(0,0,0)" stroke-width="30" stroke-linejoin="round" d="M 14929,10967 L 14929,10817"/>
 <path fill="none" stroke="rgb(0,0,0)" stroke-width="30" stroke-linejoin="round" d="M 14929,10967 L 14929,10817"/>
 <path fill="none" stroke="rgb(0,0,0)" stroke-width="30" stroke-linejoin="round" d="M 15048,10967 L 15048,10817"/>
 <path fill="none" stroke="rgb(0,0,0)" stroke-width="30" stroke-linejoin="round" d="M 15048,10967 L 15048,10817"/>
 <path fill="none" stroke="rgb(0,0,0)" stroke-width="30" stroke-linejoin="round" d="M 15168,10967 L 15168,10817"/>
 <path fill="none" stroke="rgb(0,0,0)" stroke-width="30" stroke-linejoin="round" d="M 15168,10967 L 15168,10817"/>
 <path fill="none" stroke="rgb(0,0,0)" stroke-width="30" stroke-linejoin="round" d="M 15288,10967 L 15288,10817"/>
 <path fill="none" stroke="rgb(0,0,0)" stroke-width="30" stroke-linejoin="round" d="M 15288,10967 L 15288,10817"/>
 <path fill="none" stroke="rgb(0,0,0)" stroke-width="30" stroke-linejoin="round" d="M 1184,10817 L 15288,10817"/>
 <path fill="none" stroke="rgb(0,0,0)" stroke-width="30" stroke-linejoin="round" d="M 1034,10817 L 1184,10817"/>
 <path fill="none" stroke="rgb(0,0,0)" stroke-width="30" stroke-linejoin="round" d="M 1034,10817 L 1184,10817"/>
 <path fill="none" stroke="rgb(0,0,0)" stroke-width="30" stroke-linejoin="round" d="M 1034,9195 L 1184,9195"/>
 <path fill="none" stroke="rgb(0,0,0)" stroke-width="30" stroke-linejoin="round" d="M 1034,9195 L 1184,9195"/>
 <path fill="none" stroke="rgb(0,0,0)" stroke-width="30" stroke-linejoin="round" d="M 1034,7574 L 1184,7574"/>
 <path fill="none" stroke="rgb(0,0,0)" stroke-width="30" stroke-linejoin="round" d="M 1034,7574 L 1184,7574"/>
 <path fill="none" stroke="rgb(0,0,0)" stroke-width="30" stroke-linejoin="round" d="M 1034,5954 L 1184,5954"/>
 <path fill="none" stroke="rgb(0,0,0)" stroke-width="30" stroke-linejoin="round" d="M 1034,5954 L 1184,5954"/>
 <path fill="none" stroke="rgb(0,0,0)" stroke-width="30" stroke-linejoin="round" d="M 1034,4333 L 1184,4333"/>
 <path fill="none" stroke="rgb(0,0,0)" stroke-width="30" stroke-linejoin="round" d="M 1034,4333 L 1184,4333"/>
 <path fill="none" stroke="rgb(0,0,0)" stroke-width="30" stroke-linejoin="round" d="M 1034,2712 L 1184,2712"/>
 <path fill="none" stroke="rgb(0,0,0)" stroke-width="30" stroke-linejoin="round" d="M 1034,2712 L 1184,2712"/>
 <path fill="none" stroke="rgb(0,0,0)" stroke-width="30" stroke-linejoin="round" d="M 1034,1090 L 1184,1090"/>
 <path fill="none" stroke="rgb(0,0,0)" stroke-width="30" stroke-linejoin="round" d="M 1034,1090 L 1184,1090"/>
 <path fill="none" stroke="rgb(0,0,0)" stroke-width="30" stroke-linejoin="round" d="M 1184,10817 L 1184,1091"/>
 <path fill="none" stroke="rgb(0,0,0)" stroke-width="30" stroke-linejoin="round" d="M 15438,10817 L 15288,10817"/>
 <path fill="none" stroke="rgb(0,0,0)" stroke-width="30" stroke-linejoin="round" d="M 15438,10817 L 15288,10817"/>
 <path fill="none" stroke="rgb(0,0,0)" stroke-width="30" stroke-linejoin="round" d="M 15438,9195 L 15288,9195"/>
 <path fill="none" stroke="rgb(0,0,0)" stroke-width="30" stroke-linejoin="round" d="M 15438,9195 L 15288,9195"/>
 <path fill="none" stroke="rgb(0,0,0)" stroke-width="30" stroke-linejoin="round" d="M 15438,7574 L 15288,7574"/>
 <path fill="none" stroke="rgb(0,0,0)" stroke-width="30" stroke-linejoin="round" d="M 15438,7574 L 15288,7574"/>
 <path fill="none" stroke="rgb(0,0,0)" stroke-width="30" stroke-linejoin="round" d="M 15438,5954 L 15288,5954"/>
 <path fill="none" stroke="rgb(0,0,0)" stroke-width="30" stroke-linejoin="round" d="M 15438,5954 L 15288,5954"/>
 <path fill="none" stroke="rgb(0,0,0)" stroke-width="30" stroke-linejoin="round" d="M 15438,4333 L 15288,4333"/>
 <path fill="none" stroke="rgb(0,0,0)" stroke-width="30" stroke-linejoin="round" d="M 15438,4333 L 15288,4333"/>
 <path fill="none" stroke="rgb(0,0,0)" stroke-width="30" stroke-linejoin="round" d="M 15438,2712 L 15288,2712"/>
 <path fill="none" stroke="rgb(0,0,0)" stroke-width="30" stroke-linejoin="round" d="M 15438,2712 L 15288,2712"/>
 <path fill="none" stroke="rgb(0,0,0)" stroke-width="30" stroke-linejoin="round" d="M 15438,1090 L 15288,1090"/>
 <path fill="none" stroke="rgb(0,0,0)" stroke-width="30" stroke-linejoin="round" d="M 15438,1090 L 15288,1090"/>
 <path fill="none" stroke="rgb(0,0,0)" stroke-width="30" stroke-linejoin="round" d="M 15288,10817 L 15288,1091"/>
 <path fill="none" stroke="rgb(0,69,134)" stroke-width="80" stroke-linejoin="round" d="M 1184,9524 L 1303,9539 1423,9630 1542,9675 1662,9685 1781,9711 1901,9756 2020,9798 2140,9818 2259,9852 2379,9901 2498,9912 2618,9941 2737,9952 2857,9980 2977,9985 3096,9969 3216,9965 3335,9969 3455,9993 3574,9980 3694,9951 3813,9967 3933,9975 4052,9983 4172,9949 4291,9973 4411,9983 4530,9988 4650,9948 4770,9957 4889,9978 5009,9928 5128,9956 5248,9973 5367,9999 5487,10033 5606,9962 5726,10016 5845,9959 5965,10019 6084,9972 6204,9969 6323,9952 6443,9868 6563,9875 6682,9905 6802,9949 6921,9917 7041,9854 7160,9868 7280,9897 7399,9863 7519,9834 7638,9826 7758,9790 7877,9743 7997,9789 8116,9759 8235,9696 8355,9646 8474,9547 8594,9495 8713,9523 8833,9575 8952,9463 9072,9370 9191,9328 9311,9244 9430,8743 9550,8798 9669,8863 9789,8892 9908,8571 10028,8589 10148,8448 10267,8283 10387,8289 10506,8555 10626,8735 10745,8837 10865,8644 10984,8712 11104,8435 11223,8253 11343,8080 11462,7861 11582,7775 11701,7715 11821,7621 11941,7344 12060,7141 12180,6861 12299,6824 12419,6624 12538,6674 12658,6422 12777,6193 12897,5946 13016,6227 13136,5902 13255,5774 13375,5528 13494,5205 13614,4819 13734,4534 13853,4467 13973,4474 14092,4151 14212,3809 14331,3718 14451,4077 14570,3898 14690,3864 14809,3684 14929,3451 15048,3268 15168,3240 15288,3652"/>
 <path fill="none" stroke="rgb(255,66,14)" stroke-width="80" stroke-linejoin="round" d="M 1184,2412 L 1303,2477 1423,2691 1542,2798 1662,2875 1781,2814 1901,3088 2020,3208 2140,3269 2259,3418 2379,3542 2498,3581 2618,3770 2737,3906 2857,4077 2977,4124 3096,4227 3216,4310 3335,4341 3455,4393 3574,4438 3694,4519 3813,4615 3933,4634 4052,4774 4172,4873 4291,5036 4411,5088 4530,5166 4650,5309 4770,5294 4889,5291 5009,5328 5128,5432 5248,5482 5367,5500 5487,5513 5606,5638 5726,5693 5845,5764 5965,5790 6084,5876 6204,5943 6323,5960 6443,5977 6563,6037 6682,6105 6802,6246 6921,6173 7041,6033 7160,6025 7280,6071 7399,6093 7519,5993 7638,6130 7758,6266 7877,6352 7997,6418 8116,6327 8235,6357 8355,6313 8474,6045 8594,6242 8713,6116 8833,6126 8952,6290 9072,6405 9191,6428 9311,6349 9430,6527 9550,6623 9669,6705 9789,6653 9908,6611 10028,6632 10148,6751 10267,6812 10387,6916 10506,7222 10626,7310 10745,7080 10865,7167 10984,7222 11104,7328 11223,7266 11343,7289 11462,7099 11582,7284 11701,7419 11821,7595 11941,7603 12060,7608 12180,7697 12299,7718 12419,7942 12538,7945 12658,7965 12777,7954 12897,8046 13016,8197 13136,8252 13255,8211 13375,8286 13494,8347 13614,8281 13734,8527 13853,8631 13973,8584 14092,8536 14212,8409 14331,8432 14451,8461 14570,8459 14690,8286 14809,8510 14929,8565 15048,8518 15168,8566 15288,8489"/>
 <path fill="none" stroke="rgb(255,211,32)" stroke-width="80" stroke-linejoin="round" d="M 1184,5195 L 1303,5140 1423,4933 1542,4869 1662,4720 1781,4762 1901,4571 2020,4432 2140,4364 2259,4240 2379,4124 2498,4023 2618,3866 2737,3803 2857,3650 2977,3624 3096,3582 3216,3560 3335,3524 3455,3436 3574,3449 3694,3420 3813,3362 3933,3349 4052,3253 4172,3232 4291,3086 4411,3055 4530,3028 4650,2986 4770,3008 4889,3054 5009,3080 5128,3010 5248,2999 5367,2932 5487,2846 5606,2841 5726,2725 5845,2809 5965,2736 6084,2746 6204,2742 6323,2793 6443,2884 6563,2911 6682,2866 6802,2729 6921,2794 7041,2918 7160,2943 7280,2952 7399,3034 7519,3130 7638,3086 7758,3002 7877,3020 7997,2976 8116,2986 8235,3046 8355,3120 8474,3349 8594,3242 8713,3308 8833,3208 8952,3239 9072,3329 9191,3344 9311,3436 9430,3848 9550,3751 9669,3704 9789,3608 9908,3937 10028,3958 10148,4007 10267,4125 10387,4099 10506,3846 10626,3629 10745,3534 10865,3461 10984,3433 11104,3634 11223,3913 11343,4067 11462,4390 11582,4274 11701,4330 11821,4255 11941,4407 12060,4655 12180,4796 12299,4748 12419,4777 12538,4740 12658,4973 12777,5200 12897,5346 13016,5163 13136,5293 13255,5403 13375,5563 13494,5784 13614,6017 13734,6040 13853,6029 13973,5990 14092,6116 14212,6423 14331,6469 14451,6186 14570,6365 14690,6516 14809,6516 14929,6663 15048,6788 15168,6832 15288,6590"/>
 <path fill="none" stroke="rgb(87,157,28)" stroke-width="80" stroke-linejoin="round" d="M 1184,10168 L 1303,10147 1423,10063 1542,9986 1662,10051 1781,10051 1901,9951 2020,9943 2140,9925 2259,9886 2379,9855 2498,9894 2618,9847 2737,9802 2857,9782 2977,9779 3096,9766 3216,9761 3335,9768 3455,9790 3574,9758 3694,9769 3813,9763 3933,9782 4052,9785 4172,9798 4291,9808 4411,9819 4530,9819 4650,9823 4770,9831 4889,9815 5009,9828 5128,9831 5248,9834 5367,9868 5487,9905 5606,9917 5726,9943 5845,9914 5965,9901 6084,9918 6204,9922 6323,9928 6443,9956 6563,9962 6682,9948 6802,9956 6921,9988 7041,10048 7160,10051 7280,10045 7399,10045 7519,10069 7638,10066 7758,10079 7877,10069 7997,10046 8116,10087 8235,10102 8355,10115 8474,10175 8594,10163 8713,10200 8833,10209 8952,10197 9072,10171 9191,10199 9311,10239 9430,10296 9550,10273 9669,10239 9789,10236 9908,10272 10028,10257 10148,10247 10267,10231 10387,10218 10506,10103 10626,10051 10745,10098 10865,10166 10984,10163 11104,10212 11223,10205 11343,10223 11462,10252 11582,10269 11701,10260 11821,10260 11941,10309 12060,10273 12180,10288 12299,10303 12419,10307 12538,10307 12658,10319 12777,10332 12897,10343 13016,10317 13136,10333 13255,10350 13375,10359 13494,10374 13614,10413 13734,10424 13853,10423 13973,10458 14092,10473 14212,10499 14331,10484 14451,10476 14570,10473 14690,10499 14809,10478 14929,10483 15048,10504 15168,10499 15288,10484"/>
 <path fill="none" stroke="rgb(126,0,33)" stroke-width="80" stroke-linejoin="round" d="M 1184,10640 L 1303,10633 1423,10615 1542,10611 1662,10603 1781,10606 1901,10578 2020,10564 2140,10562 2259,10551 2379,10531 2498,10546 2618,10525 2737,10499 2857,10486 2977,10481 3096,10461 3216,10445 3335,10432 3455,10429 3574,10392 3694,10376 3813,10348 3933,10337 4052,10304 4172,10267 4291,10238 4411,10222 4530,10187 4650,10158 4770,10132 4889,10098 5009,10111 5128,10095 5248,10058 5367,10055 5487,10055 5606,10024 5726,10032 5845,10003 5965,9990 6084,9964 6204,9933 6323,9907 6443,9907 6563,9875 6682,9841 6802,9803 6921,9826 7041,9866 7160,9854 7280,9807 7399,9772 7519,9785 7638,9756 7758,9732 7877,9693 7997,9615 8116,9664 8235,9649 8355,9623 8474,9693 8594,9664 8713,9690 8833,9649 8952,9601 9072,9544 9191,9541 9311,9623 9430,9622 9550,9565 9669,9453 9789,9460 9908,9487 10028,9456 10148,9427 10267,9396 10387,9348 10506,9246 10626,9171 10745,9246 10865,9288 10984,9259 11104,9255 11223,9203 11343,9184 11462,9226 11582,9187 11701,9173 11821,9165 11941,9212 12060,9147 12180,9142 12299,9142 12419,9092 12538,9092 12658,9074 12777,9075 12897,9090 13016,8941 13136,8994 13255,9023 13375,9002 13494,9012 13614,9147 13734,9114 13853,9126 13973,9186 14092,9332 14212,9426 14331,9403 14451,9333 14570,9328 14690,9396 14809,9341 14929,9348 15048,9419 15168,9372 15288,9310"/>
 <path fill="none" stroke="rgb(131,202,255)" stroke-width="80" stroke-linejoin="round" d="M 1184,10750 L 1303,10753 1423,10758 1542,10750 1662,10755 1781,10745 1901,10745 2020,10745 2140,10752 2259,10742 2379,10737 2498,10734 2618,10740 2737,10727 2857,10714 2977,10697 3096,10684 3216,10648 3335,10656 3455,10648 3574,10672 3694,10654 3813,10635 3933,10612 4052,10590 4172,10570 4291,10547 4411,10521 4530,10500 4650,10466 4770,10466 4889,10453 5009,10414 5128,10366 5248,10343 5367,10335 5487,10337 5606,10307 5726,10282 5845,10241 5965,10254 6084,10213 6204,10181 6323,10149 6443,10098 6563,10030 6682,10025 6802,10004 6921,9990 7041,9970 7160,9948 7280,9918 7399,9881 7519,9878 7638,9824 7758,9819 7877,9811 7997,9844 8116,9865 8235,9839 8355,9871 8474,9881 8594,9883 8713,9852 8833,9923 8952,9899 9072,9868 9191,9849 9311,9797 9430,9653 9550,9678 9669,9724 9789,9839 9908,9810 10028,9795 10148,9808 10267,9841 10387,9818 10506,9716 10626,9792 10745,9894 10865,9962 10984,9899 11104,9824 11223,9847 11343,9845 11462,9860 11582,9899 11701,9792 11821,9792 11941,9813 12060,9863 12180,9904 12299,9954 12419,9946 12538,9930 12658,9936 12777,9935 12897,9918 13016,9844 13136,9915 13255,9928 13375,9951 13494,9967 13614,10012 13734,10050 13853,10014 13973,9998 14092,10082 14212,10123 14331,10183 14451,10155 14570,10165 14690,10128 14809,10160 14929,10179 15048,10192 15168,10179 15288,10163"/>
 <text class="TextShape"><tspan class="TextParagraph" font-family="Arial, sans-serif" font-size="388px" font-weight="400"><tspan class="TextPosition" x="999" y="11411"><tspan fill="rgb(0,0,0)" stroke="none">2008</tspan></tspan></tspan></text>
 <text class="TextShape"><tspan class="TextParagraph" font-family="Arial, sans-serif" font-size="388px" font-weight="400"><tspan class="TextPosition" x="2433" y="11411"><tspan fill="rgb(0,0,0)" stroke="none">2009</tspan></tspan></tspan></text>
 <text class="TextShape"><tspan class="TextParagraph" font-family="Arial, sans-serif" font-size="388px" font-weight="400"><tspan class="TextPosition" x="3867" y="11411"><tspan fill="rgb(0,0,0)" stroke="none">2010</tspan></tspan></tspan></text>
 <text class="TextShape"><tspan class="TextParagraph" font-family="Arial, sans-serif" font-size="388px" font-weight="400"><tspan class="TextPosition" x="5302" y="11411"><tspan fill="rgb(0,0,0)" stroke="none">2011</tspan></tspan></tspan></text>
 <text class="TextShape"><tspan class="TextParagraph" font-family="Arial, sans-serif" font-size="388px" font-weight="400"><tspan class="TextPosition" x="6736" y="11411"><tspan fill="rgb(0,0,0)" stroke="none">2012</tspan></tspan></tspan></text>
 <text class="TextShape"><tspan class="TextParagraph" font-family="Arial, sans-serif" font-size="388px" font-weight="400"><tspan class="TextPosition" x="8171" y="11411"><tspan fill="rgb(0,0,0)" stroke="none">2013</tspan></tspan></tspan></text>
 <text class="TextShape"><tspan class="TextParagraph" font-family="Arial, sans-serif" font-size="388px" font-weight="400"><tspan class="TextPosition" x="9605" y="11411"><tspan fill="rgb(0,0,0)" stroke="none">2014</tspan></tspan></tspan></text>
 <text class="TextShape"><tspan class="TextParagraph" font-family="Arial, sans-serif" font-size="388px" font-weight="400"><tspan class="TextPosition" x="11039" y="11411"><tspan fill="rgb(0,0,0)" stroke="none">2015</tspan></tspan></tspan></text>
 <text class="TextShape"><tspan class="TextParagraph" font-family="Arial, sans-serif" font-size="388px" font-weight="400"><tspan class="TextPosition" x="12474" y="11411"><tspan fill="rgb(0,0,0)" stroke="none">2016</tspan></tspan></tspan></text>
 <text class="TextShape"><tspan class="TextParagraph" font-family="Arial, sans-serif" font-size="388px" font-weight="400"><tspan class="TextPosition" x="13908" y="11411"><tspan fill="rgb(0,0,0)" stroke="none">2017</tspan></tspan></tspan></text>
 <text class="TextShape"><tspan class="TextParagraph" font-family="Arial, sans-serif" font-size="388px" font-weight="400"><tspan class="TextPosition" x="378" y="10951"><tspan fill="rgb(0,0,0)" stroke="none">0%</tspan></tspan></tspan></text>
 <text class="TextShape"><tspan class="TextParagraph" font-family="Arial, sans-serif" font-size="388px" font-weight="400"><tspan class="TextPosition" x="167" y="9329"><tspan fill="rgb(0,0,0)" stroke="none">10%</tspan></tspan></tspan></text>
 <text class="TextShape"><tspan class="TextParagraph" font-family="Arial, sans-serif" font-size="388px" font-weight="400"><tspan class="TextPosition" x="167" y="7708"><tspan fill="rgb(0,0,0)" stroke="none">20%</tspan></tspan></tspan></text>
 <text class="TextShape"><tspan class="TextParagraph" font-family="Arial, sans-serif" font-size="388px" font-weight="400"><tspan class="TextPosition" x="167" y="6087"><tspan fill="rgb(0,0,0)" stroke="none">30%</tspan></tspan></tspan></text>
 <text class="TextShape"><tspan class="TextParagraph" font-family="Arial, sans-serif" font-size="388px" font-weight="400"><tspan class="TextPosition" x="167" y="4466"><tspan fill="rgb(0,0,0)" stroke="none">40%</tspan></tspan></tspan></text>
 <text class="TextShape"><tspan class="TextParagraph" font-family="Arial, sans-serif" font-size="388px" font-weight="400"><tspan class="TextPosition" x="167" y="2845"><tspan fill="rgb(0,0,0)" stroke="none">50%</tspan></tspan></tspan></text>
 <text class="TextShape"><tspan class="TextParagraph" font-family="Arial, sans-serif" font-size="388px" font-weight="400"><tspan class="TextPosition" x="167" y="1223"><tspan fill="rgb(0,0,0)" stroke="none">60%</tspan></tspan></tspan></text>
 <text class="TextShape"><tspan class="TextParagraph" font-family="Arial, sans-serif" font-size="388px" font-weight="400"><tspan class="TextPosition" x="15538" y="10951"><tspan fill="rgb(0,0,0)" stroke="none">0%</tspan></tspan></tspan></text>
 <text class="TextShape"><tspan class="TextParagraph" font-family="Arial, sans-serif" font-size="388px" font-weight="400"><tspan class="TextPosition" x="15538" y="9329"><tspan fill="rgb(0,0,0)" stroke="none">10%</tspan></tspan></tspan></text>
 <text class="TextShape"><tspan class="TextParagraph" font-family="Arial, sans-serif" font-size="388px" font-weight="400"><tspan class="TextPosition" x="15538" y="7708"><tspan fill="rgb(0,0,0)" stroke="none">20%</tspan></tspan></tspan></text>
 <text class="TextShape"><tspan class="TextParagraph" font-family="Arial, sans-serif" font-size="388px" font-weight="400"><tspan class="TextPosition" x="15538" y="6087"><tspan fill="rgb(0,0,0)" stroke="none">30%</tspan></tspan></tspan></text>
 <text class="TextShape"><tspan class="TextParagraph" font-family="Arial, sans-serif" font-size="388px" font-weight="400"><tspan class="TextPosition" x="15538" y="4466"><tspan fill="rgb(0,0,0)" stroke="none">40%</tspan></tspan></tspan></text>
 <text class="TextShape"><tspan class="TextParagraph" font-family="Arial, sans-serif" font-size="388px" font-weight="400"><tspan class="TextPosition" x="15538" y="2845"><tspan fill="rgb(0,0,0)" stroke="none">50%</tspan></tspan></tspan></text>
 <text class="TextShape"><tspan class="TextParagraph" font-family="Arial, sans-serif" font-size="388px" font-weight="400"><tspan class="TextPosition" x="15538" y="1223"><tspan fill="rgb(0,0,0)" stroke="none">60%</tspan></tspan></tspan></text>
 <text class="TextShape"><tspan class="TextParagraph" font-family="Liberation Sans, sans-serif" font-size="635px" font-weight="400"><tspan class="TextPosition" x="5646" y="747"><tspan fill="rgb(0,0,0)" stroke="none">Número de píxeles </tspan></tspan></tspan></text>
 <path fill="none" stroke="rgb(0,69,134)" stroke-width="80" stroke-linejoin="round" d="M 1247,11981 L 2047,11981"/>
 <path fill="none" stroke="rgb(255,66,14)" stroke-width="80" stroke-linejoin="round" d="M 3677,11981 L 4477,11981"/>
 <path fill="none" stroke="rgb(255,211,32)" stroke-width="80" stroke-linejoin="round" d="M 6107,11981 L 6907,11981"/>
 <path fill="none" stroke="rgb(87,157,28)" stroke-width="80" stroke-linejoin="round" d="M 8536,11981 L 9336,11981"/>
 <path fill="none" stroke="rgb(126,0,33)" stroke-width="80" stroke-linejoin="round" d="M 10966,11981 L 11766,11981"/>
 <path fill="none" stroke="rgb(131,202,255)" stroke-width="80" stroke-linejoin="round" d="M 13396,11981 L 14196,11981"/>
 <text class="TextShape"><tspan class="TextParagraph" font-family="Arial, sans-serif" font-size="353px" font-weight="400"><tspan class="TextPosition" x="2147" y="12100"><tspan fill="rgb(0,0,0)" stroke="none">0,5 MPx</tspan></tspan></tspan></text>
 <text class="TextShape"><tspan class="TextParagraph" font-family="Arial, sans-serif" font-size="353px" font-weight="400"><tspan class="TextPosition" x="4577" y="12100"><tspan fill="rgb(0,0,0)" stroke="none">1,0 MPx</tspan></tspan></tspan></text>
 <text class="TextShape"><tspan class="TextParagraph" font-family="Arial, sans-serif" font-size="353px" font-weight="400"><tspan class="TextPosition" x="7007" y="12100"><tspan fill="rgb(0,0,0)" stroke="none">1,5 MPx</tspan></tspan></tspan></text>
 <text class="TextShape"><tspan class="TextParagraph" font-family="Arial, sans-serif" font-size="353px" font-weight="400"><tspan class="TextPosition" x="9436" y="12100"><tspan fill="rgb(0,0,0)" stroke="none">2,0 MPx</tspan></tspan></tspan></text>
 <text class="TextShape"><tspan class="TextParagraph" font-family="Arial, sans-serif" font-size="353px" font-weight="400"><tspan class="TextPosition" x="11866" y="12100"><tspan fill="rgb(0,0,0)" stroke="none">2,5 MPx</tspan></tspan></tspan></text>
 <text class="TextShape"><tspan class="TextParagraph" font-family="Arial, sans-serif" font-size="353px" font-weight="400"><tspan class="TextPosition" x="14296" y="12100"><tspan fill="rgb(0,0,0)" stroke="none">Otros</tspan></tspan></tspan></text>
</svg>
