<?xml version="1.0" encoding="UTF-8"?>
<!DOCTYPE svg PUBLIC "-//W3C//DTD SVG 1.1//EN" "http://www.w3.org/Graphics/SVG/1.1/DTD/svg11.dtd">
<svg width="159mm" height="119mm" viewBox="0 0 15900 11900" version="1.1" xmlns="http://www.w3.org/2000/svg" stroke-width="28.222" stroke-linejoin="round" xml:space="preserve">
 <path fill="rgb(255,255,255)" stroke="none" d="M 7937,11930 L 12,11930 12,0 15862,0 15862,11930 7937,11930 Z"/>
 <path fill="none" stroke="rgb(0,0,0)" stroke-width="50" stroke-linejoin="round" d="M 7997,10699 L 1378,10699 1378,1096 14616,1096 14616,10699 7997,10699 Z"/>
 <path fill="none" stroke="rgb(179,179,179)" stroke-linejoin="round" d="M 14616,10698 L 1378,10698"/>
 <path fill="none" stroke="rgb(179,179,179)" stroke-linejoin="round" d="M 14616,9737 L 1378,9737"/>
 <path fill="none" stroke="rgb(179,179,179)" stroke-linejoin="round" d="M 14616,8777 L 1378,8777"/>
 <path fill="none" stroke="rgb(179,179,179)" stroke-linejoin="round" d="M 14616,7816 L 1378,7816"/>
 <path fill="none" stroke="rgb(179,179,179)" stroke-linejoin="round" d="M 14616,6856 L 1378,6856"/>
 <path fill="none" stroke="rgb(179,179,179)" stroke-linejoin="round" d="M 14616,5897 L 1378,5897"/>
 <path fill="none" stroke="rgb(179,179,179)" stroke-linejoin="round" d="M 14616,4936 L 1378,4936"/>
 <path fill="none" stroke="rgb(179,179,179)" stroke-linejoin="round" d="M 14616,3976 L 1378,3976"/>
 <path fill="none" stroke="rgb(179,179,179)" stroke-linejoin="round" d="M 14616,3015 L 1378,3015"/>
 <path fill="none" stroke="rgb(179,179,179)" stroke-linejoin="round" d="M 14616,2055 L 1378,2055"/>
 <path fill="none" stroke="rgb(179,179,179)" stroke-linejoin="round" d="M 14616,1095 L 1378,1095"/>
 <path fill="none" stroke="rgb(0,0,0)" stroke-width="30" stroke-linejoin="round" d="M 1378,10848 L 1378,10698"/>
 <path fill="none" stroke="rgb(0,0,0)" stroke-width="30" stroke-linejoin="round" d="M 1378,10848 L 1378,10698"/>
 <path fill="none" stroke="rgb(0,0,0)" stroke-width="30" stroke-linejoin="round" d="M 1489,10848 L 1489,10698"/>
 <path fill="none" stroke="rgb(0,0,0)" stroke-width="30" stroke-linejoin="round" d="M 1489,10848 L 1489,10698"/>
 <path fill="none" stroke="rgb(0,0,0)" stroke-width="30" stroke-linejoin="round" d="M 1600,10848 L 1600,10698"/>
 <path fill="none" stroke="rgb(0,0,0)" stroke-width="30" stroke-linejoin="round" d="M 1600,10848 L 1600,10698"/>
 <path fill="none" stroke="rgb(0,0,0)" stroke-width="30" stroke-linejoin="round" d="M 1711,10848 L 1711,10698"/>
 <path fill="none" stroke="rgb(0,0,0)" stroke-width="30" stroke-linejoin="round" d="M 1711,10848 L 1711,10698"/>
 <path fill="none" stroke="rgb(0,0,0)" stroke-width="30" stroke-linejoin="round" d="M 1823,10848 L 1823,10698"/>
 <path fill="none" stroke="rgb(0,0,0)" stroke-width="30" stroke-linejoin="round" d="M 1823,10848 L 1823,10698"/>
 <path fill="none" stroke="rgb(0,0,0)" stroke-width="30" stroke-linejoin="round" d="M 1934,10848 L 1934,10698"/>
 <path fill="none" stroke="rgb(0,0,0)" stroke-width="30" stroke-linejoin="round" d="M 1934,10848 L 1934,10698"/>
 <path fill="none" stroke="rgb(0,0,0)" stroke-width="30" stroke-linejoin="round" d="M 2045,10848 L 2045,10698"/>
 <path fill="none" stroke="rgb(0,0,0)" stroke-width="30" stroke-linejoin="round" d="M 2045,10848 L 2045,10698"/>
 <path fill="none" stroke="rgb(0,0,0)" stroke-width="30" stroke-linejoin="round" d="M 2156,10848 L 2156,10698"/>
 <path fill="none" stroke="rgb(0,0,0)" stroke-width="30" stroke-linejoin="round" d="M 2156,10848 L 2156,10698"/>
 <path fill="none" stroke="rgb(0,0,0)" stroke-width="30" stroke-linejoin="round" d="M 2268,10848 L 2268,10698"/>
 <path fill="none" stroke="rgb(0,0,0)" stroke-width="30" stroke-linejoin="round" d="M 2268,10848 L 2268,10698"/>
 <path fill="none" stroke="rgb(0,0,0)" stroke-width="30" stroke-linejoin="round" d="M 2379,10848 L 2379,10698"/>
 <path fill="none" stroke="rgb(0,0,0)" stroke-width="30" stroke-linejoin="round" d="M 2379,10848 L 2379,10698"/>
 <path fill="none" stroke="rgb(0,0,0)" stroke-width="30" stroke-linejoin="round" d="M 2490,10848 L 2490,10698"/>
 <path fill="none" stroke="rgb(0,0,0)" stroke-width="30" stroke-linejoin="round" d="M 2490,10848 L 2490,10698"/>
 <path fill="none" stroke="rgb(0,0,0)" stroke-width="30" stroke-linejoin="round" d="M 2601,10848 L 2601,10698"/>
 <path fill="none" stroke="rgb(0,0,0)" stroke-width="30" stroke-linejoin="round" d="M 2601,10848 L 2601,10698"/>
 <path fill="none" stroke="rgb(0,0,0)" stroke-width="30" stroke-linejoin="round" d="M 2713,10848 L 2713,10698"/>
 <path fill="none" stroke="rgb(0,0,0)" stroke-width="30" stroke-linejoin="round" d="M 2713,10848 L 2713,10698"/>
 <path fill="none" stroke="rgb(0,0,0)" stroke-width="30" stroke-linejoin="round" d="M 2824,10848 L 2824,10698"/>
 <path fill="none" stroke="rgb(0,0,0)" stroke-width="30" stroke-linejoin="round" d="M 2824,10848 L 2824,10698"/>
 <path fill="none" stroke="rgb(0,0,0)" stroke-width="30" stroke-linejoin="round" d="M 2935,10848 L 2935,10698"/>
 <path fill="none" stroke="rgb(0,0,0)" stroke-width="30" stroke-linejoin="round" d="M 2935,10848 L 2935,10698"/>
 <path fill="none" stroke="rgb(0,0,0)" stroke-width="30" stroke-linejoin="round" d="M 3046,10848 L 3046,10698"/>
 <path fill="none" stroke="rgb(0,0,0)" stroke-width="30" stroke-linejoin="round" d="M 3046,10848 L 3046,10698"/>
 <path fill="none" stroke="rgb(0,0,0)" stroke-width="30" stroke-linejoin="round" d="M 3158,10848 L 3158,10698"/>
 <path fill="none" stroke="rgb(0,0,0)" stroke-width="30" stroke-linejoin="round" d="M 3158,10848 L 3158,10698"/>
 <path fill="none" stroke="rgb(0,0,0)" stroke-width="30" stroke-linejoin="round" d="M 3269,10848 L 3269,10698"/>
 <path fill="none" stroke="rgb(0,0,0)" stroke-width="30" stroke-linejoin="round" d="M 3269,10848 L 3269,10698"/>
 <path fill="none" stroke="rgb(0,0,0)" stroke-width="30" stroke-linejoin="round" d="M 3380,10848 L 3380,10698"/>
 <path fill="none" stroke="rgb(0,0,0)" stroke-width="30" stroke-linejoin="round" d="M 3380,10848 L 3380,10698"/>
 <path fill="none" stroke="rgb(0,0,0)" stroke-width="30" stroke-linejoin="round" d="M 3491,10848 L 3491,10698"/>
 <path fill="none" stroke="rgb(0,0,0)" stroke-width="30" stroke-linejoin="round" d="M 3491,10848 L 3491,10698"/>
 <path fill="none" stroke="rgb(0,0,0)" stroke-width="30" stroke-linejoin="round" d="M 3603,10848 L 3603,10698"/>
 <path fill="none" stroke="rgb(0,0,0)" stroke-width="30" stroke-linejoin="round" d="M 3603,10848 L 3603,10698"/>
 <path fill="none" stroke="rgb(0,0,0)" stroke-width="30" stroke-linejoin="round" d="M 3714,10848 L 3714,10698"/>
 <path fill="none" stroke="rgb(0,0,0)" stroke-width="30" stroke-linejoin="round" d="M 3714,10848 L 3714,10698"/>
 <path fill="none" stroke="rgb(0,0,0)" stroke-width="30" stroke-linejoin="round" d="M 3825,10848 L 3825,10698"/>
 <path fill="none" stroke="rgb(0,0,0)" stroke-width="30" stroke-linejoin="round" d="M 3825,10848 L 3825,10698"/>
 <path fill="none" stroke="rgb(0,0,0)" stroke-width="30" stroke-linejoin="round" d="M 3936,10848 L 3936,10698"/>
 <path fill="none" stroke="rgb(0,0,0)" stroke-width="30" stroke-linejoin="round" d="M 3936,10848 L 3936,10698"/>
 <path fill="none" stroke="rgb(0,0,0)" stroke-width="30" stroke-linejoin="round" d="M 4048,10848 L 4048,10698"/>
 <path fill="none" stroke="rgb(0,0,0)" stroke-width="30" stroke-linejoin="round" d="M 4048,10848 L 4048,10698"/>
 <path fill="none" stroke="rgb(0,0,0)" stroke-width="30" stroke-linejoin="round" d="M 4159,10848 L 4159,10698"/>
 <path fill="none" stroke="rgb(0,0,0)" stroke-width="30" stroke-linejoin="round" d="M 4159,10848 L 4159,10698"/>
 <path fill="none" stroke="rgb(0,0,0)" stroke-width="30" stroke-linejoin="round" d="M 4270,10848 L 4270,10698"/>
 <path fill="none" stroke="rgb(0,0,0)" stroke-width="30" stroke-linejoin="round" d="M 4270,10848 L 4270,10698"/>
 <path fill="none" stroke="rgb(0,0,0)" stroke-width="30" stroke-linejoin="round" d="M 4381,10848 L 4381,10698"/>
 <path fill="none" stroke="rgb(0,0,0)" stroke-width="30" stroke-linejoin="round" d="M 4381,10848 L 4381,10698"/>
 <path fill="none" stroke="rgb(0,0,0)" stroke-width="30" stroke-linejoin="round" d="M 4493,10848 L 4493,10698"/>
 <path fill="none" stroke="rgb(0,0,0)" stroke-width="30" stroke-linejoin="round" d="M 4493,10848 L 4493,10698"/>
 <path fill="none" stroke="rgb(0,0,0)" stroke-width="30" stroke-linejoin="round" d="M 4604,10848 L 4604,10698"/>
 <path fill="none" stroke="rgb(0,0,0)" stroke-width="30" stroke-linejoin="round" d="M 4604,10848 L 4604,10698"/>
 <path fill="none" stroke="rgb(0,0,0)" stroke-width="30" stroke-linejoin="round" d="M 4715,10848 L 4715,10698"/>
 <path fill="none" stroke="rgb(0,0,0)" stroke-width="30" stroke-linejoin="round" d="M 4715,10848 L 4715,10698"/>
 <path fill="none" stroke="rgb(0,0,0)" stroke-width="30" stroke-linejoin="round" d="M 4826,10848 L 4826,10698"/>
 <path fill="none" stroke="rgb(0,0,0)" stroke-width="30" stroke-linejoin="round" d="M 4826,10848 L 4826,10698"/>
 <path fill="none" stroke="rgb(0,0,0)" stroke-width="30" stroke-linejoin="round" d="M 4938,10848 L 4938,10698"/>
 <path fill="none" stroke="rgb(0,0,0)" stroke-width="30" stroke-linejoin="round" d="M 4938,10848 L 4938,10698"/>
 <path fill="none" stroke="rgb(0,0,0)" stroke-width="30" stroke-linejoin="round" d="M 5049,10848 L 5049,10698"/>
 <path fill="none" stroke="rgb(0,0,0)" stroke-width="30" stroke-linejoin="round" d="M 5049,10848 L 5049,10698"/>
 <path fill="none" stroke="rgb(0,0,0)" stroke-width="30" stroke-linejoin="round" d="M 5160,10848 L 5160,10698"/>
 <path fill="none" stroke="rgb(0,0,0)" stroke-width="30" stroke-linejoin="round" d="M 5160,10848 L 5160,10698"/>
 <path fill="none" stroke="rgb(0,0,0)" stroke-width="30" stroke-linejoin="round" d="M 5271,10848 L 5271,10698"/>
 <path fill="none" stroke="rgb(0,0,0)" stroke-width="30" stroke-linejoin="round" d="M 5271,10848 L 5271,10698"/>
 <path fill="none" stroke="rgb(0,0,0)" stroke-width="30" stroke-linejoin="round" d="M 5383,10848 L 5383,10698"/>
 <path fill="none" stroke="rgb(0,0,0)" stroke-width="30" stroke-linejoin="round" d="M 5383,10848 L 5383,10698"/>
 <path fill="none" stroke="rgb(0,0,0)" stroke-width="30" stroke-linejoin="round" d="M 5494,10848 L 5494,10698"/>
 <path fill="none" stroke="rgb(0,0,0)" stroke-width="30" stroke-linejoin="round" d="M 5494,10848 L 5494,10698"/>
 <path fill="none" stroke="rgb(0,0,0)" stroke-width="30" stroke-linejoin="round" d="M 5605,10848 L 5605,10698"/>
 <path fill="none" stroke="rgb(0,0,0)" stroke-width="30" stroke-linejoin="round" d="M 5605,10848 L 5605,10698"/>
 <path fill="none" stroke="rgb(0,0,0)" stroke-width="30" stroke-linejoin="round" d="M 5716,10848 L 5716,10698"/>
 <path fill="none" stroke="rgb(0,0,0)" stroke-width="30" stroke-linejoin="round" d="M 5716,10848 L 5716,10698"/>
 <path fill="none" stroke="rgb(0,0,0)" stroke-width="30" stroke-linejoin="round" d="M 5828,10848 L 5828,10698"/>
 <path fill="none" stroke="rgb(0,0,0)" stroke-width="30" stroke-linejoin="round" d="M 5828,10848 L 5828,10698"/>
 <path fill="none" stroke="rgb(0,0,0)" stroke-width="30" stroke-linejoin="round" d="M 5939,10848 L 5939,10698"/>
 <path fill="none" stroke="rgb(0,0,0)" stroke-width="30" stroke-linejoin="round" d="M 5939,10848 L 5939,10698"/>
 <path fill="none" stroke="rgb(0,0,0)" stroke-width="30" stroke-linejoin="round" d="M 6050,10848 L 6050,10698"/>
 <path fill="none" stroke="rgb(0,0,0)" stroke-width="30" stroke-linejoin="round" d="M 6050,10848 L 6050,10698"/>
 <path fill="none" stroke="rgb(0,0,0)" stroke-width="30" stroke-linejoin="round" d="M 6161,10848 L 6161,10698"/>
 <path fill="none" stroke="rgb(0,0,0)" stroke-width="30" stroke-linejoin="round" d="M 6161,10848 L 6161,10698"/>
 <path fill="none" stroke="rgb(0,0,0)" stroke-width="30" stroke-linejoin="round" d="M 6273,10848 L 6273,10698"/>
 <path fill="none" stroke="rgb(0,0,0)" stroke-width="30" stroke-linejoin="round" d="M 6273,10848 L 6273,10698"/>
 <path fill="none" stroke="rgb(0,0,0)" stroke-width="30" stroke-linejoin="round" d="M 6384,10848 L 6384,10698"/>
 <path fill="none" stroke="rgb(0,0,0)" stroke-width="30" stroke-linejoin="round" d="M 6384,10848 L 6384,10698"/>
 <path fill="none" stroke="rgb(0,0,0)" stroke-width="30" stroke-linejoin="round" d="M 6495,10848 L 6495,10698"/>
 <path fill="none" stroke="rgb(0,0,0)" stroke-width="30" stroke-linejoin="round" d="M 6495,10848 L 6495,10698"/>
 <path fill="none" stroke="rgb(0,0,0)" stroke-width="30" stroke-linejoin="round" d="M 6606,10848 L 6606,10698"/>
 <path fill="none" stroke="rgb(0,0,0)" stroke-width="30" stroke-linejoin="round" d="M 6606,10848 L 6606,10698"/>
 <path fill="none" stroke="rgb(0,0,0)" stroke-width="30" stroke-linejoin="round" d="M 6718,10848 L 6718,10698"/>
 <path fill="none" stroke="rgb(0,0,0)" stroke-width="30" stroke-linejoin="round" d="M 6718,10848 L 6718,10698"/>
 <path fill="none" stroke="rgb(0,0,0)" stroke-width="30" stroke-linejoin="round" d="M 6829,10848 L 6829,10698"/>
 <path fill="none" stroke="rgb(0,0,0)" stroke-width="30" stroke-linejoin="round" d="M 6829,10848 L 6829,10698"/>
 <path fill="none" stroke="rgb(0,0,0)" stroke-width="30" stroke-linejoin="round" d="M 6940,10848 L 6940,10698"/>
 <path fill="none" stroke="rgb(0,0,0)" stroke-width="30" stroke-linejoin="round" d="M 6940,10848 L 6940,10698"/>
 <path fill="none" stroke="rgb(0,0,0)" stroke-width="30" stroke-linejoin="round" d="M 7051,10848 L 7051,10698"/>
 <path fill="none" stroke="rgb(0,0,0)" stroke-width="30" stroke-linejoin="round" d="M 7051,10848 L 7051,10698"/>
 <path fill="none" stroke="rgb(0,0,0)" stroke-width="30" stroke-linejoin="round" d="M 7163,10848 L 7163,10698"/>
 <path fill="none" stroke="rgb(0,0,0)" stroke-width="30" stroke-linejoin="round" d="M 7163,10848 L 7163,10698"/>
 <path fill="none" stroke="rgb(0,0,0)" stroke-width="30" stroke-linejoin="round" d="M 7274,10848 L 7274,10698"/>
 <path fill="none" stroke="rgb(0,0,0)" stroke-width="30" stroke-linejoin="round" d="M 7274,10848 L 7274,10698"/>
 <path fill="none" stroke="rgb(0,0,0)" stroke-width="30" stroke-linejoin="round" d="M 7385,10848 L 7385,10698"/>
 <path fill="none" stroke="rgb(0,0,0)" stroke-width="30" stroke-linejoin="round" d="M 7385,10848 L 7385,10698"/>
 <path fill="none" stroke="rgb(0,0,0)" stroke-width="30" stroke-linejoin="round" d="M 7496,10848 L 7496,10698"/>
 <path fill="none" stroke="rgb(0,0,0)" stroke-width="30" stroke-linejoin="round" d="M 7496,10848 L 7496,10698"/>
 <path fill="none" stroke="rgb(0,0,0)" stroke-width="30" stroke-linejoin="round" d="M 7608,10848 L 7608,10698"/>
 <path fill="none" stroke="rgb(0,0,0)" stroke-width="30" stroke-linejoin="round" d="M 7608,10848 L 7608,10698"/>
 <path fill="none" stroke="rgb(0,0,0)" stroke-width="30" stroke-linejoin="round" d="M 7719,10848 L 7719,10698"/>
 <path fill="none" stroke="rgb(0,0,0)" stroke-width="30" stroke-linejoin="round" d="M 7719,10848 L 7719,10698"/>
 <path fill="none" stroke="rgb(0,0,0)" stroke-width="30" stroke-linejoin="round" d="M 7830,10848 L 7830,10698"/>
 <path fill="none" stroke="rgb(0,0,0)" stroke-width="30" stroke-linejoin="round" d="M 7830,10848 L 7830,10698"/>
 <path fill="none" stroke="rgb(0,0,0)" stroke-width="30" stroke-linejoin="round" d="M 7940,10848 L 7940,10698"/>
 <path fill="none" stroke="rgb(0,0,0)" stroke-width="30" stroke-linejoin="round" d="M 7940,10848 L 7940,10698"/>
 <path fill="none" stroke="rgb(0,0,0)" stroke-width="30" stroke-linejoin="round" d="M 8052,10848 L 8052,10698"/>
 <path fill="none" stroke="rgb(0,0,0)" stroke-width="30" stroke-linejoin="round" d="M 8052,10848 L 8052,10698"/>
 <path fill="none" stroke="rgb(0,0,0)" stroke-width="30" stroke-linejoin="round" d="M 8163,10848 L 8163,10698"/>
 <path fill="none" stroke="rgb(0,0,0)" stroke-width="30" stroke-linejoin="round" d="M 8163,10848 L 8163,10698"/>
 <path fill="none" stroke="rgb(0,0,0)" stroke-width="30" stroke-linejoin="round" d="M 8274,10848 L 8274,10698"/>
 <path fill="none" stroke="rgb(0,0,0)" stroke-width="30" stroke-linejoin="round" d="M 8274,10848 L 8274,10698"/>
 <path fill="none" stroke="rgb(0,0,0)" stroke-width="30" stroke-linejoin="round" d="M 8385,10848 L 8385,10698"/>
 <path fill="none" stroke="rgb(0,0,0)" stroke-width="30" stroke-linejoin="round" d="M 8385,10848 L 8385,10698"/>
 <path fill="none" stroke="rgb(0,0,0)" stroke-width="30" stroke-linejoin="round" d="M 8497,10848 L 8497,10698"/>
 <path fill="none" stroke="rgb(0,0,0)" stroke-width="30" stroke-linejoin="round" d="M 8497,10848 L 8497,10698"/>
 <path fill="none" stroke="rgb(0,0,0)" stroke-width="30" stroke-linejoin="round" d="M 8608,10848 L 8608,10698"/>
 <path fill="none" stroke="rgb(0,0,0)" stroke-width="30" stroke-linejoin="round" d="M 8608,10848 L 8608,10698"/>
 <path fill="none" stroke="rgb(0,0,0)" stroke-width="30" stroke-linejoin="round" d="M 8719,10848 L 8719,10698"/>
 <path fill="none" stroke="rgb(0,0,0)" stroke-width="30" stroke-linejoin="round" d="M 8719,10848 L 8719,10698"/>
 <path fill="none" stroke="rgb(0,0,0)" stroke-width="30" stroke-linejoin="round" d="M 8830,10848 L 8830,10698"/>
 <path fill="none" stroke="rgb(0,0,0)" stroke-width="30" stroke-linejoin="round" d="M 8830,10848 L 8830,10698"/>
 <path fill="none" stroke="rgb(0,0,0)" stroke-width="30" stroke-linejoin="round" d="M 8942,10848 L 8942,10698"/>
 <path fill="none" stroke="rgb(0,0,0)" stroke-width="30" stroke-linejoin="round" d="M 8942,10848 L 8942,10698"/>
 <path fill="none" stroke="rgb(0,0,0)" stroke-width="30" stroke-linejoin="round" d="M 9053,10848 L 9053,10698"/>
 <path fill="none" stroke="rgb(0,0,0)" stroke-width="30" stroke-linejoin="round" d="M 9053,10848 L 9053,10698"/>
 <path fill="none" stroke="rgb(0,0,0)" stroke-width="30" stroke-linejoin="round" d="M 9164,10848 L 9164,10698"/>
 <path fill="none" stroke="rgb(0,0,0)" stroke-width="30" stroke-linejoin="round" d="M 9164,10848 L 9164,10698"/>
 <path fill="none" stroke="rgb(0,0,0)" stroke-width="30" stroke-linejoin="round" d="M 9275,10848 L 9275,10698"/>
 <path fill="none" stroke="rgb(0,0,0)" stroke-width="30" stroke-linejoin="round" d="M 9275,10848 L 9275,10698"/>
 <path fill="none" stroke="rgb(0,0,0)" stroke-width="30" stroke-linejoin="round" d="M 9387,10848 L 9387,10698"/>
 <path fill="none" stroke="rgb(0,0,0)" stroke-width="30" stroke-linejoin="round" d="M 9387,10848 L 9387,10698"/>
 <path fill="none" stroke="rgb(0,0,0)" stroke-width="30" stroke-linejoin="round" d="M 9498,10848 L 9498,10698"/>
 <path fill="none" stroke="rgb(0,0,0)" stroke-width="30" stroke-linejoin="round" d="M 9498,10848 L 9498,10698"/>
 <path fill="none" stroke="rgb(0,0,0)" stroke-width="30" stroke-linejoin="round" d="M 9609,10848 L 9609,10698"/>
 <path fill="none" stroke="rgb(0,0,0)" stroke-width="30" stroke-linejoin="round" d="M 9609,10848 L 9609,10698"/>
 <path fill="none" stroke="rgb(0,0,0)" stroke-width="30" stroke-linejoin="round" d="M 9720,10848 L 9720,10698"/>
 <path fill="none" stroke="rgb(0,0,0)" stroke-width="30" stroke-linejoin="round" d="M 9720,10848 L 9720,10698"/>
 <path fill="none" stroke="rgb(0,0,0)" stroke-width="30" stroke-linejoin="round" d="M 9832,10848 L 9832,10698"/>
 <path fill="none" stroke="rgb(0,0,0)" stroke-width="30" stroke-linejoin="round" d="M 9832,10848 L 9832,10698"/>
 <path fill="none" stroke="rgb(0,0,0)" stroke-width="30" stroke-linejoin="round" d="M 9943,10848 L 9943,10698"/>
 <path fill="none" stroke="rgb(0,0,0)" stroke-width="30" stroke-linejoin="round" d="M 9943,10848 L 9943,10698"/>
 <path fill="none" stroke="rgb(0,0,0)" stroke-width="30" stroke-linejoin="round" d="M 10054,10848 L 10054,10698"/>
 <path fill="none" stroke="rgb(0,0,0)" stroke-width="30" stroke-linejoin="round" d="M 10054,10848 L 10054,10698"/>
 <path fill="none" stroke="rgb(0,0,0)" stroke-width="30" stroke-linejoin="round" d="M 10165,10848 L 10165,10698"/>
 <path fill="none" stroke="rgb(0,0,0)" stroke-width="30" stroke-linejoin="round" d="M 10165,10848 L 10165,10698"/>
 <path fill="none" stroke="rgb(0,0,0)" stroke-width="30" stroke-linejoin="round" d="M 10277,10848 L 10277,10698"/>
 <path fill="none" stroke="rgb(0,0,0)" stroke-width="30" stroke-linejoin="round" d="M 10277,10848 L 10277,10698"/>
 <path fill="none" stroke="rgb(0,0,0)" stroke-width="30" stroke-linejoin="round" d="M 10388,10848 L 10388,10698"/>
 <path fill="none" stroke="rgb(0,0,0)" stroke-width="30" stroke-linejoin="round" d="M 10388,10848 L 10388,10698"/>
 <path fill="none" stroke="rgb(0,0,0)" stroke-width="30" stroke-linejoin="round" d="M 10499,10848 L 10499,10698"/>
 <path fill="none" stroke="rgb(0,0,0)" stroke-width="30" stroke-linejoin="round" d="M 10499,10848 L 10499,10698"/>
 <path fill="none" stroke="rgb(0,0,0)" stroke-width="30" stroke-linejoin="round" d="M 10610,10848 L 10610,10698"/>
 <path fill="none" stroke="rgb(0,0,0)" stroke-width="30" stroke-linejoin="round" d="M 10610,10848 L 10610,10698"/>
 <path fill="none" stroke="rgb(0,0,0)" stroke-width="30" stroke-linejoin="round" d="M 10722,10848 L 10722,10698"/>
 <path fill="none" stroke="rgb(0,0,0)" stroke-width="30" stroke-linejoin="round" d="M 10722,10848 L 10722,10698"/>
 <path fill="none" stroke="rgb(0,0,0)" stroke-width="30" stroke-linejoin="round" d="M 10833,10848 L 10833,10698"/>
 <path fill="none" stroke="rgb(0,0,0)" stroke-width="30" stroke-linejoin="round" d="M 10833,10848 L 10833,10698"/>
 <path fill="none" stroke="rgb(0,0,0)" stroke-width="30" stroke-linejoin="round" d="M 10944,10848 L 10944,10698"/>
 <path fill="none" stroke="rgb(0,0,0)" stroke-width="30" stroke-linejoin="round" d="M 10944,10848 L 10944,10698"/>
 <path fill="none" stroke="rgb(0,0,0)" stroke-width="30" stroke-linejoin="round" d="M 11055,10848 L 11055,10698"/>
 <path fill="none" stroke="rgb(0,0,0)" stroke-width="30" stroke-linejoin="round" d="M 11055,10848 L 11055,10698"/>
 <path fill="none" stroke="rgb(0,0,0)" stroke-width="30" stroke-linejoin="round" d="M 11167,10848 L 11167,10698"/>
 <path fill="none" stroke="rgb(0,0,0)" stroke-width="30" stroke-linejoin="round" d="M 11167,10848 L 11167,10698"/>
 <path fill="none" stroke="rgb(0,0,0)" stroke-width="30" stroke-linejoin="round" d="M 11278,10848 L 11278,10698"/>
 <path fill="none" stroke="rgb(0,0,0)" stroke-width="30" stroke-linejoin="round" d="M 11278,10848 L 11278,10698"/>
 <path fill="none" stroke="rgb(0,0,0)" stroke-width="30" stroke-linejoin="round" d="M 11389,10848 L 11389,10698"/>
 <path fill="none" stroke="rgb(0,0,0)" stroke-width="30" stroke-linejoin="round" d="M 11389,10848 L 11389,10698"/>
 <path fill="none" stroke="rgb(0,0,0)" stroke-width="30" stroke-linejoin="round" d="M 11500,10848 L 11500,10698"/>
 <path fill="none" stroke="rgb(0,0,0)" stroke-width="30" stroke-linejoin="round" d="M 11500,10848 L 11500,10698"/>
 <path fill="none" stroke="rgb(0,0,0)" stroke-width="30" stroke-linejoin="round" d="M 11612,10848 L 11612,10698"/>
 <path fill="none" stroke="rgb(0,0,0)" stroke-width="30" stroke-linejoin="round" d="M 11612,10848 L 11612,10698"/>
 <path fill="none" stroke="rgb(0,0,0)" stroke-width="30" stroke-linejoin="round" d="M 11723,10848 L 11723,10698"/>
 <path fill="none" stroke="rgb(0,0,0)" stroke-width="30" stroke-linejoin="round" d="M 11723,10848 L 11723,10698"/>
 <path fill="none" stroke="rgb(0,0,0)" stroke-width="30" stroke-linejoin="round" d="M 11834,10848 L 11834,10698"/>
 <path fill="none" stroke="rgb(0,0,0)" stroke-width="30" stroke-linejoin="round" d="M 11834,10848 L 11834,10698"/>
 <path fill="none" stroke="rgb(0,0,0)" stroke-width="30" stroke-linejoin="round" d="M 11945,10848 L 11945,10698"/>
 <path fill="none" stroke="rgb(0,0,0)" stroke-width="30" stroke-linejoin="round" d="M 11945,10848 L 11945,10698"/>
 <path fill="none" stroke="rgb(0,0,0)" stroke-width="30" stroke-linejoin="round" d="M 12057,10848 L 12057,10698"/>
 <path fill="none" stroke="rgb(0,0,0)" stroke-width="30" stroke-linejoin="round" d="M 12057,10848 L 12057,10698"/>
 <path fill="none" stroke="rgb(0,0,0)" stroke-width="30" stroke-linejoin="round" d="M 12168,10848 L 12168,10698"/>
 <path fill="none" stroke="rgb(0,0,0)" stroke-width="30" stroke-linejoin="round" d="M 12168,10848 L 12168,10698"/>
 <path fill="none" stroke="rgb(0,0,0)" stroke-width="30" stroke-linejoin="round" d="M 12279,10848 L 12279,10698"/>
 <path fill="none" stroke="rgb(0,0,0)" stroke-width="30" stroke-linejoin="round" d="M 12279,10848 L 12279,10698"/>
 <path fill="none" stroke="rgb(0,0,0)" stroke-width="30" stroke-linejoin="round" d="M 12390,10848 L 12390,10698"/>
 <path fill="none" stroke="rgb(0,0,0)" stroke-width="30" stroke-linejoin="round" d="M 12390,10848 L 12390,10698"/>
 <path fill="none" stroke="rgb(0,0,0)" stroke-width="30" stroke-linejoin="round" d="M 12502,10848 L 12502,10698"/>
 <path fill="none" stroke="rgb(0,0,0)" stroke-width="30" stroke-linejoin="round" d="M 12502,10848 L 12502,10698"/>
 <path fill="none" stroke="rgb(0,0,0)" stroke-width="30" stroke-linejoin="round" d="M 12613,10848 L 12613,10698"/>
 <path fill="none" stroke="rgb(0,0,0)" stroke-width="30" stroke-linejoin="round" d="M 12613,10848 L 12613,10698"/>
 <path fill="none" stroke="rgb(0,0,0)" stroke-width="30" stroke-linejoin="round" d="M 12724,10848 L 12724,10698"/>
 <path fill="none" stroke="rgb(0,0,0)" stroke-width="30" stroke-linejoin="round" d="M 12724,10848 L 12724,10698"/>
 <path fill="none" stroke="rgb(0,0,0)" stroke-width="30" stroke-linejoin="round" d="M 12835,10848 L 12835,10698"/>
 <path fill="none" stroke="rgb(0,0,0)" stroke-width="30" stroke-linejoin="round" d="M 12835,10848 L 12835,10698"/>
 <path fill="none" stroke="rgb(0,0,0)" stroke-width="30" stroke-linejoin="round" d="M 12947,10848 L 12947,10698"/>
 <path fill="none" stroke="rgb(0,0,0)" stroke-width="30" stroke-linejoin="round" d="M 12947,10848 L 12947,10698"/>
 <path fill="none" stroke="rgb(0,0,0)" stroke-width="30" stroke-linejoin="round" d="M 13058,10848 L 13058,10698"/>
 <path fill="none" stroke="rgb(0,0,0)" stroke-width="30" stroke-linejoin="round" d="M 13058,10848 L 13058,10698"/>
 <path fill="none" stroke="rgb(0,0,0)" stroke-width="30" stroke-linejoin="round" d="M 13169,10848 L 13169,10698"/>
 <path fill="none" stroke="rgb(0,0,0)" stroke-width="30" stroke-linejoin="round" d="M 13169,10848 L 13169,10698"/>
 <path fill="none" stroke="rgb(0,0,0)" stroke-width="30" stroke-linejoin="round" d="M 13280,10848 L 13280,10698"/>
 <path fill="none" stroke="rgb(0,0,0)" stroke-width="30" stroke-linejoin="round" d="M 13280,10848 L 13280,10698"/>
 <path fill="none" stroke="rgb(0,0,0)" stroke-width="30" stroke-linejoin="round" d="M 13392,10848 L 13392,10698"/>
 <path fill="none" stroke="rgb(0,0,0)" stroke-width="30" stroke-linejoin="round" d="M 13392,10848 L 13392,10698"/>
 <path fill="none" stroke="rgb(0,0,0)" stroke-width="30" stroke-linejoin="round" d="M 13503,10848 L 13503,10698"/>
 <path fill="none" stroke="rgb(0,0,0)" stroke-width="30" stroke-linejoin="round" d="M 13503,10848 L 13503,10698"/>
 <path fill="none" stroke="rgb(0,0,0)" stroke-width="30" stroke-linejoin="round" d="M 13614,10848 L 13614,10698"/>
 <path fill="none" stroke="rgb(0,0,0)" stroke-width="30" stroke-linejoin="round" d="M 13614,10848 L 13614,10698"/>
 <path fill="none" stroke="rgb(0,0,0)" stroke-width="30" stroke-linejoin="round" d="M 13725,10848 L 13725,10698"/>
 <path fill="none" stroke="rgb(0,0,0)" stroke-width="30" stroke-linejoin="round" d="M 13725,10848 L 13725,10698"/>
 <path fill="none" stroke="rgb(0,0,0)" stroke-width="30" stroke-linejoin="round" d="M 13837,10848 L 13837,10698"/>
 <path fill="none" stroke="rgb(0,0,0)" stroke-width="30" stroke-linejoin="round" d="M 13837,10848 L 13837,10698"/>
 <path fill="none" stroke="rgb(0,0,0)" stroke-width="30" stroke-linejoin="round" d="M 13948,10848 L 13948,10698"/>
 <path fill="none" stroke="rgb(0,0,0)" stroke-width="30" stroke-linejoin="round" d="M 13948,10848 L 13948,10698"/>
 <path fill="none" stroke="rgb(0,0,0)" stroke-width="30" stroke-linejoin="round" d="M 14059,10848 L 14059,10698"/>
 <path fill="none" stroke="rgb(0,0,0)" stroke-width="30" stroke-linejoin="round" d="M 14059,10848 L 14059,10698"/>
 <path fill="none" stroke="rgb(0,0,0)" stroke-width="30" stroke-linejoin="round" d="M 14170,10848 L 14170,10698"/>
 <path fill="none" stroke="rgb(0,0,0)" stroke-width="30" stroke-linejoin="round" d="M 14170,10848 L 14170,10698"/>
 <path fill="none" stroke="rgb(0,0,0)" stroke-width="30" stroke-linejoin="round" d="M 14282,10848 L 14282,10698"/>
 <path fill="none" stroke="rgb(0,0,0)" stroke-width="30" stroke-linejoin="round" d="M 14282,10848 L 14282,10698"/>
 <path fill="none" stroke="rgb(0,0,0)" stroke-width="30" stroke-linejoin="round" d="M 14393,10848 L 14393,10698"/>
 <path fill="none" stroke="rgb(0,0,0)" stroke-width="30" stroke-linejoin="round" d="M 14393,10848 L 14393,10698"/>
 <path fill="none" stroke="rgb(0,0,0)" stroke-width="30" stroke-linejoin="round" d="M 14504,10848 L 14504,10698"/>
 <path fill="none" stroke="rgb(0,0,0)" stroke-width="30" stroke-linejoin="round" d="M 14504,10848 L 14504,10698"/>
 <path fill="none" stroke="rgb(0,0,0)" stroke-width="30" stroke-linejoin="round" d="M 14616,10848 L 14616,10698"/>
 <path fill="none" stroke="rgb(0,0,0)" stroke-width="30" stroke-linejoin="round" d="M 14616,10848 L 14616,10698"/>
 <path fill="none" stroke="rgb(0,0,0)" stroke-width="30" stroke-linejoin="round" d="M 1378,10698 L 14616,10698"/>
 <path fill="none" stroke="rgb(0,0,0)" stroke-width="30" stroke-linejoin="round" d="M 1228,10698 L 1528,10698"/>
 <path fill="none" stroke="rgb(0,0,0)" stroke-width="30" stroke-linejoin="round" d="M 1228,10698 L 1528,10698"/>
 <path fill="none" stroke="rgb(0,0,0)" stroke-width="30" stroke-linejoin="round" d="M 1228,9737 L 1528,9737"/>
 <path fill="none" stroke="rgb(0,0,0)" stroke-width="30" stroke-linejoin="round" d="M 1228,9737 L 1528,9737"/>
 <path fill="none" stroke="rgb(0,0,0)" stroke-width="30" stroke-linejoin="round" d="M 1228,8777 L 1528,8777"/>
 <path fill="none" stroke="rgb(0,0,0)" stroke-width="30" stroke-linejoin="round" d="M 1228,8777 L 1528,8777"/>
 <path fill="none" stroke="rgb(0,0,0)" stroke-width="30" stroke-linejoin="round" d="M 1228,7816 L 1528,7816"/>
 <path fill="none" stroke="rgb(0,0,0)" stroke-width="30" stroke-linejoin="round" d="M 1228,7816 L 1528,7816"/>
 <path fill="none" stroke="rgb(0,0,0)" stroke-width="30" stroke-linejoin="round" d="M 1228,6856 L 1528,6856"/>
 <path fill="none" stroke="rgb(0,0,0)" stroke-width="30" stroke-linejoin="round" d="M 1228,6856 L 1528,6856"/>
 <path fill="none" stroke="rgb(0,0,0)" stroke-width="30" stroke-linejoin="round" d="M 1228,5897 L 1528,5897"/>
 <path fill="none" stroke="rgb(0,0,0)" stroke-width="30" stroke-linejoin="round" d="M 1228,5897 L 1528,5897"/>
 <path fill="none" stroke="rgb(0,0,0)" stroke-width="30" stroke-linejoin="round" d="M 1228,4936 L 1528,4936"/>
 <path fill="none" stroke="rgb(0,0,0)" stroke-width="30" stroke-linejoin="round" d="M 1228,4936 L 1528,4936"/>
 <path fill="none" stroke="rgb(0,0,0)" stroke-width="30" stroke-linejoin="round" d="M 1228,3976 L 1528,3976"/>
 <path fill="none" stroke="rgb(0,0,0)" stroke-width="30" stroke-linejoin="round" d="M 1228,3976 L 1528,3976"/>
 <path fill="none" stroke="rgb(0,0,0)" stroke-width="30" stroke-linejoin="round" d="M 1228,3015 L 1528,3015"/>
 <path fill="none" stroke="rgb(0,0,0)" stroke-width="30" stroke-linejoin="round" d="M 1228,3015 L 1528,3015"/>
 <path fill="none" stroke="rgb(0,0,0)" stroke-width="30" stroke-linejoin="round" d="M 1228,2055 L 1528,2055"/>
 <path fill="none" stroke="rgb(0,0,0)" stroke-width="30" stroke-linejoin="round" d="M 1228,2055 L 1528,2055"/>
 <path fill="none" stroke="rgb(0,0,0)" stroke-width="30" stroke-linejoin="round" d="M 1228,1095 L 1528,1095"/>
 <path fill="none" stroke="rgb(0,0,0)" stroke-width="30" stroke-linejoin="round" d="M 1228,1095 L 1528,1095"/>
 <path fill="none" stroke="rgb(0,0,0)" stroke-width="30" stroke-linejoin="round" d="M 1378,10698 L 1378,1095"/>
 <path fill="none" stroke="rgb(0,0,0)" stroke-width="30" stroke-linejoin="round" d="M 14766,10698 L 14616,10698"/>
 <path fill="none" stroke="rgb(0,0,0)" stroke-width="30" stroke-linejoin="round" d="M 14766,10698 L 14616,10698"/>
 <path fill="none" stroke="rgb(0,0,0)" stroke-width="30" stroke-linejoin="round" d="M 14766,9737 L 14616,9737"/>
 <path fill="none" stroke="rgb(0,0,0)" stroke-width="30" stroke-linejoin="round" d="M 14766,9737 L 14616,9737"/>
 <path fill="none" stroke="rgb(0,0,0)" stroke-width="30" stroke-linejoin="round" d="M 14766,8777 L 14616,8777"/>
 <path fill="none" stroke="rgb(0,0,0)" stroke-width="30" stroke-linejoin="round" d="M 14766,8777 L 14616,8777"/>
 <path fill="none" stroke="rgb(0,0,0)" stroke-width="30" stroke-linejoin="round" d="M 14766,7816 L 14616,7816"/>
 <path fill="none" stroke="rgb(0,0,0)" stroke-width="30" stroke-linejoin="round" d="M 14766,7816 L 14616,7816"/>
 <path fill="none" stroke="rgb(0,0,0)" stroke-width="30" stroke-linejoin="round" d="M 14766,6856 L 14616,6856"/>
 <path fill="none" stroke="rgb(0,0,0)" stroke-width="30" stroke-linejoin="round" d="M 14766,6856 L 14616,6856"/>
 <path fill="none" stroke="rgb(0,0,0)" stroke-width="30" stroke-linejoin="round" d="M 14766,5897 L 14616,5897"/>
 <path fill="none" stroke="rgb(0,0,0)" stroke-width="30" stroke-linejoin="round" d="M 14766,5897 L 14616,5897"/>
 <path fill="none" stroke="rgb(0,0,0)" stroke-width="30" stroke-linejoin="round" d="M 14766,4936 L 14616,4936"/>
 <path fill="none" stroke="rgb(0,0,0)" stroke-width="30" stroke-linejoin="round" d="M 14766,4936 L 14616,4936"/>
 <path fill="none" stroke="rgb(0,0,0)" stroke-width="30" stroke-linejoin="round" d="M 14766,3976 L 14616,3976"/>
 <path fill="none" stroke="rgb(0,0,0)" stroke-width="30" stroke-linejoin="round" d="M 14766,3976 L 14616,3976"/>
 <path fill="none" stroke="rgb(0,0,0)" stroke-width="30" stroke-linejoin="round" d="M 14766,3015 L 14616,3015"/>
 <path fill="none" stroke="rgb(0,0,0)" stroke-width="30" stroke-linejoin="round" d="M 14766,3015 L 14616,3015"/>
 <path fill="none" stroke="rgb(0,0,0)" stroke-width="30" stroke-linejoin="round" d="M 14766,2055 L 14616,2055"/>
 <path fill="none" stroke="rgb(0,0,0)" stroke-width="30" stroke-linejoin="round" d="M 14766,2055 L 14616,2055"/>
 <path fill="none" stroke="rgb(0,0,0)" stroke-width="30" stroke-linejoin="round" d="M 14766,1095 L 14616,1095"/>
 <path fill="none" stroke="rgb(0,0,0)" stroke-width="30" stroke-linejoin="round" d="M 14766,1095 L 14616,1095"/>
 <path fill="none" stroke="rgb(0,0,0)" stroke-width="30" stroke-linejoin="round" d="M 14616,10698 L 14616,1095"/>
 <path fill="rgb(255,211,32)" stroke="none" d="M 1378,10698 L 1489,10698 1600,10698 1711,10698 1823,10698 1934,10698 2045,10698 2156,10698 2268,10698 2379,10698 2490,10592 2601,10601 2713,10590 2824,10564 2935,10551 3046,10550 3158,10544 3269,10526 3380,10490 3491,10469 3603,10452 3714,10427 3825,10395 3936,10356 4048,10322 4159,10258 4270,10203 4381,10161 4493,10112 4604,10054 4715,10030 4826,10009 4938,10016 5049,9985 5160,9936 5271,9897 5383,9818 5494,9748 5605,9680 5716,9655 5828,9597 5939,9570 6050,9512 6161,9461 6273,9443 6384,9227 6495,9165 6606,9019 6718,8995 6829,8916 6940,8936 7051,8946 7163,8983 7274,8945 7385,8859 7496,8898 7608,8946 7719,8888 7830,8923 7940,8897 8052,9017 8163,9001 8274,9052 8385,9118 8497,9135 8608,9123 8719,9179 8830,9055 8942,8995 9053,9097 9164,9103 9275,9127 9387,9074 9498,8982 9609,8950 9720,8869 9832,8815 9943,8893 10054,8736 10165,8591 10277,8507 10388,8596 10499,8556 10610,8482 10722,8460 10833,8349 10944,8166 11055,8120 11167,8088 11278,7843 11389,7900 11500,7815 11612,7751 11723,7612 11834,7504 11945,7412 12057,7335 12168,7258 12279,7042 12390,6930 12502,6643 12613,6439 12724,5855 12835,5916 12947,5755 13058,5510 13169,5413 13280,5443 13392,5371 13503,5388 13614,5316 13725,5191 13837,5295 13948,5236 14059,5126 14170,5126 14282,5104 14393,5113 14504,5135 14616,5059 14616,10698 1378,10698 Z"/>
 <path fill="none" stroke="rgb(0,0,0)" stroke-linejoin="round" d="M 1378,10698 L 1489,10698 1600,10698 1711,10698 1823,10698 1934,10698 2045,10698 2156,10698 2268,10698 2379,10698 2490,10592 2601,10601 2713,10590 2824,10564 2935,10551 3046,10550 3158,10544 3269,10526 3380,10490 3491,10469 3603,10452 3714,10427 3825,10395 3936,10356 4048,10322 4159,10258 4270,10203 4381,10161 4493,10112 4604,10054 4715,10030 4826,10009 4938,10016 5049,9985 5160,9936 5271,9897 5383,9818 5494,9748 5605,9680 5716,9655 5828,9597 5939,9570 6050,9512 6161,9461 6273,9443 6384,9227 6495,9165 6606,9019 6718,8995 6829,8916 6940,8936 7051,8946 7163,8983 7274,8945 7385,8859 7496,8898 7608,8946 7719,8888 7830,8923 7940,8897 8052,9017 8163,9001 8274,9052 8385,9118 8497,9135 8608,9123 8719,9179 8830,9055 8942,8995 9053,9097 9164,9103 9275,9127 9387,9074 9498,8982 9609,8950 9720,8869 9832,8815 9943,8893 10054,8736 10165,8591 10277,8507 10388,8596 10499,8556 10610,8482 10722,8460 10833,8349 10944,8166 11055,8120 11167,8088 11278,7843 11389,7900 11500,7815 11612,7751 11723,7612 11834,7504 11945,7412 12057,7335 12168,7258 12279,7042 12390,6930 12502,6643 12613,6439 12724,5855 12835,5916 12947,5755 13058,5510 13169,5413 13280,5443 13392,5371 13503,5388 13614,5316 13725,5191 13837,5295 13948,5236 14059,5126 14170,5126 14282,5104 14393,5113 14504,5135 14616,5059 14616,10698 1378,10698 Z"/>
 <path fill="rgb(0,69,134)" stroke="none" d="M 1378,3062 L 1489,3127 1600,3182 1711,3225 1823,3263 1934,3242 2045,3404 2156,3459 2268,3446 2379,3481 2490,3468 2601,3529 2713,3714 2824,3794 2935,3858 3046,3903 3158,3970 3269,4018 3380,3952 3491,3912 3603,3960 3714,4005 3825,4094 3936,4155 4048,4221 4159,4247 4270,4242 4381,4261 4493,4300 4604,4309 4715,4311 4826,4228 4938,4196 5049,4203 5160,4227 5271,4227 5383,4221 5494,4280 5605,4317 5716,4217 5828,4242 5939,4293 6050,4315 6161,4319 6273,4394 6384,4288 6495,4280 6606,4275 6718,4312 6829,4349 6940,4329 7051,4278 7163,4230 7274,4167 7385,4113 7496,4179 7608,4281 7719,4249 7830,4273 7940,4262 8052,4332 8163,4336 8274,4410 8385,4495 8497,4510 8608,4377 8719,4438 8830,4306 8942,4261 9053,4345 9164,4211 9275,4259 9387,4243 9498,4203 9609,4243 9720,4240 9832,4126 9943,4264 10054,4157 10165,3962 10277,3946 10388,3948 10499,3852 10610,3817 10722,3803 10833,3637 10944,3729 11055,3636 11167,3675 11278,3685 11389,3613 11500,3658 11612,3680 11723,3574 11834,3674 11945,3672 12057,3560 12168,3674 12279,3680 12390,3721 12502,3656 12613,3642 12724,3270 12835,3314 12947,3301 13058,3246 13169,3396 13280,3497 13392,3544 13503,3659 13614,3655 13725,3592 13837,3805 13948,3740 14059,3528 14170,3671 14282,3607 14393,3723 14504,3903 14616,3702 14616,5059 14504,5135 14393,5113 14282,5104 14170,5126 14059,5126 13948,5236 13837,5295 13725,5191 13614,5316 13503,5388 13392,5371 13280,5443 13169,5413 13058,5510 12947,5755 12835,5916 12724,5855 12613,6439 12502,6643 12390,6930 12279,7042 12168,7258 12057,7335 11945,7412 11834,7504 11723,7612 11612,7751 11500,7815 11389,7900 11278,7843 11167,8088 11055,8120 10944,8166 10833,8349 10722,8460 10610,8482 10499,8556 10388,8596 10277,8507 10165,8591 10054,8736 9943,8893 9832,8815 9720,8869 9609,8950 9498,8982 9387,9074 9275,9127 9164,9103 9053,9097 8942,8995 8830,9055 8719,9179 8608,9123 8497,9135 8385,9118 8274,9052 8163,9001 8052,9017 7940,8897 7830,8923 7719,8888 7608,8946 7496,8898 7385,8859 7274,8945 7163,8983 7051,8946 6940,8936 6829,8916 6718,8995 6606,9019 6495,9165 6384,9227 6273,9443 6161,9461 6050,9512 5939,9570 5828,9597 5716,9655 5605,9680 5494,9748 5383,9818 5271,9897 5160,9936 5049,9985 4938,10016 4826,10009 4715,10030 4604,10054 4493,10112 4381,10161 4270,10203 4159,10258 4048,10322 3936,10356 3825,10395 3714,10427 3603,10452 3491,10469 3380,10490 3269,10526 3158,10544 3046,10550 2935,10551 2824,10564 2713,10590 2601,10601 2490,10592 2379,10698 2268,10698 2156,10698 2045,10698 1934,10698 1823,10698 1711,10698 1600,10698 1489,10698 1378,10698 1378,3062 Z"/>
 <path fill="none" stroke="rgb(0,0,0)" stroke-linejoin="round" d="M 1378,3062 L 1489,3127 1600,3182 1711,3225 1823,3263 1934,3242 2045,3404 2156,3459 2268,3446 2379,3481 2490,3468 2601,3529 2713,3714 2824,3794 2935,3858 3046,3903 3158,3970 3269,4018 3380,3952 3491,3912 3603,3960 3714,4005 3825,4094 3936,4155 4048,4221 4159,4247 4270,4242 4381,4261 4493,4300 4604,4309 4715,4311 4826,4228 4938,4196 5049,4203 5160,4227 5271,4227 5383,4221 5494,4280 5605,4317 5716,4217 5828,4242 5939,4293 6050,4315 6161,4319 6273,4394 6384,4288 6495,4280 6606,4275 6718,4312 6829,4349 6940,4329 7051,4278 7163,4230 7274,4167 7385,4113 7496,4179 7608,4281 7719,4249 7830,4273 7940,4262 8052,4332 8163,4336 8274,4410 8385,4495 8497,4510 8608,4377 8719,4438 8830,4306 8942,4261 9053,4345 9164,4211 9275,4259 9387,4243 9498,4203 9609,4243 9720,4240 9832,4126 9943,4264 10054,4157 10165,3962 10277,3946 10388,3948 10499,3852 10610,3817 10722,3803 10833,3637 10944,3729 11055,3636 11167,3675 11278,3685 11389,3613 11500,3658 11612,3680 11723,3574 11834,3674 11945,3672 12057,3560 12168,3674 12279,3680 12390,3721 12502,3656 12613,3642 12724,3270 12835,3314 12947,3301 13058,3246 13169,3396 13280,3497 13392,3544 13503,3659 13614,3655 13725,3592 13837,3805 13948,3740 14059,3528 14170,3671 14282,3607 14393,3723 14504,3903 14616,3702 14616,5059 14504,5135 14393,5113 14282,5104 14170,5126 14059,5126 13948,5236 13837,5295 13725,5191 13614,5316 13503,5388 13392,5371 13280,5443 13169,5413 13058,5510 12947,5755 12835,5916 12724,5855 12613,6439 12502,6643 12390,6930 12279,7042 12168,7258 12057,7335 11945,7412 11834,7504 11723,7612 11612,7751 11500,7815 11389,7900 11278,7843 11167,8088 11055,8120 10944,8166 10833,8349 10722,8460 10610,8482 10499,8556 10388,8596 10277,8507 10165,8591 10054,8736 9943,8893 9832,8815 9720,8869 9609,8950 9498,8982 9387,9074 9275,9127 9164,9103 9053,9097 8942,8995 8830,9055 8719,9179 8608,9123 8497,9135 8385,9118 8274,9052 8163,9001 8052,9017 7940,8897 7830,8923 7719,8888 7608,8946 7496,8898 7385,8859 7274,8945 7163,8983 7051,8946 6940,8936 6829,8916 6718,8995 6606,9019 6495,9165 6384,9227 6273,9443 6161,9461 6050,9512 5939,9570 5828,9597 5716,9655 5605,9680 5494,9748 5383,9818 5271,9897 5160,9936 5049,9985 4938,10016 4826,10009 4715,10030 4604,10054 4493,10112 4381,10161 4270,10203 4159,10258 4048,10322 3936,10356 3825,10395 3714,10427 3603,10452 3491,10469 3380,10490 3269,10526 3158,10544 3046,10550 2935,10551 2824,10564 2713,10590 2601,10601 2490,10592 2379,10698 2268,10698 2156,10698 2045,10698 1934,10698 1823,10698 1711,10698 1600,10698 1489,10698 1378,10698 1378,3062 Z"/>
 <path fill="rgb(87,157,28)" stroke="none" d="M 1378,2841 L 1489,2890 1600,2931 1711,2972 1823,3005 1934,2996 2045,3130 2156,3195 2268,3193 2379,3223 2490,3199 2601,3255 2713,3420 2824,3470 2935,3512 3046,3574 3158,3622 3269,3683 3380,3600 3491,3551 3603,3576 3714,3620 3825,3691 3936,3740 4048,3811 4159,3828 4270,3818 4381,3840 4493,3860 4604,3862 4715,3865 4826,3770 4938,3721 5049,3719 5160,3739 5271,3733 5383,3704 5494,3733 5605,3729 5716,3625 5828,3626 5939,3626 6050,3637 6161,3628 6273,3648 6384,3562 6495,3515 6606,3461 6718,3518 6829,3521 6940,3443 7051,3392 7163,3376 7274,3298 7385,3240 7496,3254 7608,3350 7719,3224 7830,3269 7940,3241 8052,3278 8163,3269 8274,3280 8385,3365 8497,3378 8608,3312 8719,3348 8830,3220 8942,3125 9053,3187 9164,3154 9275,3128 9387,3065 9498,3032 9609,2989 9720,2963 9832,2892 9943,2981 10054,2887 10165,2806 10277,2798 10388,2780 10499,2795 10610,2710 10722,2591 10833,2569 10944,2539 11055,2525 11167,2558 11278,2496 11389,2543 11500,2508 11612,2473 11723,2430 11834,2459 11945,2388 12057,2520 12168,2554 12279,2559 12390,2600 12502,2482 12613,2543 12724,2331 12835,2326 12947,2299 13058,2262 13169,2406 13280,2579 13392,2620 13503,2604 13614,2530 13725,2512 13837,2482 13948,2499 14059,2543 14170,2397 14282,2408 14393,2415 14504,2500 14616,2475 14616,3702 14504,3903 14393,3723 14282,3607 14170,3671 14059,3528 13948,3740 13837,3805 13725,3592 13614,3655 13503,3659 13392,3544 13280,3497 13169,3396 13058,3246 12947,3301 12835,3314 12724,3270 12613,3642 12502,3656 12390,3721 12279,3680 12168,3674 12057,3560 11945,3672 11834,3674 11723,3574 11612,3680 11500,3658 11389,3613 11278,3685 11167,3675 11055,3636 10944,3729 10833,3637 10722,3803 10610,3817 10499,3852 10388,3948 10277,3946 10165,3962 10054,4157 9943,4264 9832,4126 9720,4240 9609,4243 9498,4203 9387,4243 9275,4259 9164,4211 9053,4345 8942,4261 8830,4306 8719,4438 8608,4377 8497,4510 8385,4495 8274,4410 8163,4336 8052,4332 7940,4262 7830,4273 7719,4249 7608,4281 7496,4179 7385,4113 7274,4167 7163,4230 7051,4278 6940,4329 6829,4349 6718,4312 6606,4275 6495,4280 6384,4288 6273,4394 6161,4319 6050,4315 5939,4293 5828,4242 5716,4217 5605,4317 5494,4280 5383,4221 5271,4227 5160,4227 5049,4203 4938,4196 4826,4228 4715,4311 4604,4309 4493,4300 4381,4261 4270,4242 4159,4247 4048,4221 3936,4155 3825,4094 3714,4005 3603,3960 3491,3912 3380,3952 3269,4018 3158,3970 3046,3903 2935,3858 2824,3794 2713,3714 2601,3529 2490,3468 2379,3481 2268,3446 2156,3459 2045,3404 1934,3242 1823,3263 1711,3225 1600,3182 1489,3127 1378,3062 1378,2841 Z"/>
 <path fill="none" stroke="rgb(0,0,0)" stroke-linejoin="round" d="M 1378,2841 L 1489,2890 1600,2931 1711,2972 1823,3005 1934,2996 2045,3130 2156,3195 2268,3193 2379,3223 2490,3199 2601,3255 2713,3420 2824,3470 2935,3512 3046,3574 3158,3622 3269,3683 3380,3600 3491,3551 3603,3576 3714,3620 3825,3691 3936,3740 4048,3811 4159,3828 4270,3818 4381,3840 4493,3860 4604,3862 4715,3865 4826,3770 4938,3721 5049,3719 5160,3739 5271,3733 5383,3704 5494,3733 5605,3729 5716,3625 5828,3626 5939,3626 6050,3637 6161,3628 6273,3648 6384,3562 6495,3515 6606,3461 6718,3518 6829,3521 6940,3443 7051,3392 7163,3376 7274,3298 7385,3240 7496,3254 7608,3350 7719,3224 7830,3269 7940,3241 8052,3278 8163,3269 8274,3280 8385,3365 8497,3378 8608,3312 8719,3348 8830,3220 8942,3125 9053,3187 9164,3154 9275,3128 9387,3065 9498,3032 9609,2989 9720,2963 9832,2892 9943,2981 10054,2887 10165,2806 10277,2798 10388,2780 10499,2795 10610,2710 10722,2591 10833,2569 10944,2539 11055,2525 11167,2558 11278,2496 11389,2543 11500,2508 11612,2473 11723,2430 11834,2459 11945,2388 12057,2520 12168,2554 12279,2559 12390,2600 12502,2482 12613,2543 12724,2331 12835,2326 12947,2299 13058,2262 13169,2406 13280,2579 13392,2620 13503,2604 13614,2530 13725,2512 13837,2482 13948,2499 14059,2543 14170,2397 14282,2408 14393,2415 14504,2500 14616,2475 14616,3702 14504,3903 14393,3723 14282,3607 14170,3671 14059,3528 13948,3740 13837,3805 13725,3592 13614,3655 13503,3659 13392,3544 13280,3497 13169,3396 13058,3246 12947,3301 12835,3314 12724,3270 12613,3642 12502,3656 12390,3721 12279,3680 12168,3674 12057,3560 11945,3672 11834,3674 11723,3574 11612,3680 11500,3658 11389,3613 11278,3685 11167,3675 11055,3636 10944,3729 10833,3637 10722,3803 10610,3817 10499,3852 10388,3948 10277,3946 10165,3962 10054,4157 9943,4264 9832,4126 9720,4240 9609,4243 9498,4203 9387,4243 9275,4259 9164,4211 9053,4345 8942,4261 8830,4306 8719,4438 8608,4377 8497,4510 8385,4495 8274,4410 8163,4336 8052,4332 7940,4262 7830,4273 7719,4249 7608,4281 7496,4179 7385,4113 7274,4167 7163,4230 7051,4278 6940,4329 6829,4349 6718,4312 6606,4275 6495,4280 6384,4288 6273,4394 6161,4319 6050,4315 5939,4293 5828,4242 5716,4217 5605,4317 5494,4280 5383,4221 5271,4227 5160,4227 5049,4203 4938,4196 4826,4228 4715,4311 4604,4309 4493,4300 4381,4261 4270,4242 4159,4247 4048,4221 3936,4155 3825,4094 3714,4005 3603,3960 3491,3912 3380,3952 3269,4018 3158,3970 3046,3903 2935,3858 2824,3794 2713,3714 2601,3529 2490,3468 2379,3481 2268,3446 2156,3459 2045,3404 1934,3242 1823,3263 1711,3225 1600,3182 1489,3127 1378,3062 1378,2841 Z"/>
 <path fill="rgb(255,66,14)" stroke="none" d="M 1378,1349 L 1489,1323 1600,1335 1711,1339 1823,1343 1934,1346 2045,1367 2156,1373 2268,1370 2379,1373 2490,1362 2601,1370 2713,1378 2824,1384 2935,1386 3046,1403 3158,1382 3269,1391 3380,1412 3491,1399 3603,1415 3714,1408 3825,1405 3936,1423 4048,1433 4159,1458 4270,1465 4381,1508 4493,1498 4604,1494 4715,1525 4826,1490 4938,1528 5049,1523 5160,1544 5271,1553 5383,1523 5494,1549 5605,1551 5716,1543 5828,1539 5939,1555 6050,1565 6161,1552 6273,1592 6384,1546 6495,1500 6606,1432 6718,1547 6829,1603 6940,1627 7051,1542 7163,1556 7274,1515 7385,1498 7496,1495 7608,1614 7719,1491 7830,1529 7940,1535 8052,1539 8163,1589 8274,1608 8385,1706 8497,1714 8608,1600 8719,1624 8830,1643 8942,1626 9053,1677 9164,1641 9275,1625 9387,1597 9498,1578 9609,1602 9720,1630 9832,1582 9943,1701 10054,1649 10165,1683 10277,1719 10388,1675 10499,1783 10610,1749 10722,1635 10833,1724 10944,1710 11055,1704 11167,1727 11278,1718 11389,1724 11500,1670 11612,1670 11723,1635 11834,1725 11945,1670 12057,1741 12168,1803 12279,1882 12390,1906 12502,1897 12613,2040 12724,1876 12835,1896 12947,1857 13058,1832 13169,1911 13280,1924 13392,1938 13503,1905 13614,1841 13725,1854 13837,1871 13948,1869 14059,1876 14170,1731 14282,1680 14393,1739 14504,1815 14616,1717 14616,2475 14504,2500 14393,2415 14282,2408 14170,2397 14059,2543 13948,2499 13837,2482 13725,2512 13614,2530 13503,2604 13392,2620 13280,2579 13169,2406 13058,2262 12947,2299 12835,2326 12724,2331 12613,2543 12502,2482 12390,2600 12279,2559 12168,2554 12057,2520 11945,2388 11834,2459 11723,2430 11612,2473 11500,2508 11389,2543 11278,2496 11167,2558 11055,2525 10944,2539 10833,2569 10722,2591 10610,2710 10499,2795 10388,2780 10277,2798 10165,2806 10054,2887 9943,2981 9832,2892 9720,2963 9609,2989 9498,3032 9387,3065 9275,3128 9164,3154 9053,3187 8942,3125 8830,3220 8719,3348 8608,3312 8497,3378 8385,3365 8274,3280 8163,3269 8052,3278 7940,3241 7830,3269 7719,3224 7608,3350 7496,3254 7385,3240 7274,3298 7163,3376 7051,3392 6940,3443 6829,3521 6718,3518 6606,3461 6495,3515 6384,3562 6273,3648 6161,3628 6050,3637 5939,3626 5828,3626 5716,3625 5605,3729 5494,3733 5383,3704 5271,3733 5160,3739 5049,3719 4938,3721 4826,3770 4715,3865 4604,3862 4493,3860 4381,3840 4270,3818 4159,3828 4048,3811 3936,3740 3825,3691 3714,3620 3603,3576 3491,3551 3380,3600 3269,3683 3158,3622 3046,3574 2935,3512 2824,3470 2713,3420 2601,3255 2490,3199 2379,3223 2268,3193 2156,3195 2045,3130 1934,2996 1823,3005 1711,2972 1600,2931 1489,2890 1378,2841 1378,1349 Z"/>
 <path fill="none" stroke="rgb(0,0,0)" stroke-linejoin="round" d="M 1378,1349 L 1489,1323 1600,1335 1711,1339 1823,1343 1934,1346 2045,1367 2156,1373 2268,1370 2379,1373 2490,1362 2601,1370 2713,1378 2824,1384 2935,1386 3046,1403 3158,1382 3269,1391 3380,1412 3491,1399 3603,1415 3714,1408 3825,1405 3936,1423 4048,1433 4159,1458 4270,1465 4381,1508 4493,1498 4604,1494 4715,1525 4826,1490 4938,1528 5049,1523 5160,1544 5271,1553 5383,1523 5494,1549 5605,1551 5716,1543 5828,1539 5939,1555 6050,1565 6161,1552 6273,1592 6384,1546 6495,1500 6606,1432 6718,1547 6829,1603 6940,1627 7051,1542 7163,1556 7274,1515 7385,1498 7496,1495 7608,1614 7719,1491 7830,1529 7940,1535 8052,1539 8163,1589 8274,1608 8385,1706 8497,1714 8608,1600 8719,1624 8830,1643 8942,1626 9053,1677 9164,1641 9275,1625 9387,1597 9498,1578 9609,1602 9720,1630 9832,1582 9943,1701 10054,1649 10165,1683 10277,1719 10388,1675 10499,1783 10610,1749 10722,1635 10833,1724 10944,1710 11055,1704 11167,1727 11278,1718 11389,1724 11500,1670 11612,1670 11723,1635 11834,1725 11945,1670 12057,1741 12168,1803 12279,1882 12390,1906 12502,1897 12613,2040 12724,1876 12835,1896 12947,1857 13058,1832 13169,1911 13280,1924 13392,1938 13503,1905 13614,1841 13725,1854 13837,1871 13948,1869 14059,1876 14170,1731 14282,1680 14393,1739 14504,1815 14616,1717 14616,2475 14504,2500 14393,2415 14282,2408 14170,2397 14059,2543 13948,2499 13837,2482 13725,2512 13614,2530 13503,2604 13392,2620 13280,2579 13169,2406 13058,2262 12947,2299 12835,2326 12724,2331 12613,2543 12502,2482 12390,2600 12279,2559 12168,2554 12057,2520 11945,2388 11834,2459 11723,2430 11612,2473 11500,2508 11389,2543 11278,2496 11167,2558 11055,2525 10944,2539 10833,2569 10722,2591 10610,2710 10499,2795 10388,2780 10277,2798 10165,2806 10054,2887 9943,2981 9832,2892 9720,2963 9609,2989 9498,3032 9387,3065 9275,3128 9164,3154 9053,3187 8942,3125 8830,3220 8719,3348 8608,3312 8497,3378 8385,3365 8274,3280 8163,3269 8052,3278 7940,3241 7830,3269 7719,3224 7608,3350 7496,3254 7385,3240 7274,3298 7163,3376 7051,3392 6940,3443 6829,3521 6718,3518 6606,3461 6495,3515 6384,3562 6273,3648 6161,3628 6050,3637 5939,3626 5828,3626 5716,3625 5605,3729 5494,3733 5383,3704 5271,3733 5160,3739 5049,3719 4938,3721 4826,3770 4715,3865 4604,3862 4493,3860 4381,3840 4270,3818 4159,3828 4048,3811 3936,3740 3825,3691 3714,3620 3603,3576 3491,3551 3380,3600 3269,3683 3158,3622 3046,3574 2935,3512 2824,3470 2713,3420 2601,3255 2490,3199 2379,3223 2268,3193 2156,3195 2045,3130 1934,2996 1823,3005 1711,2972 1600,2931 1489,2890 1378,2841 1378,1349 Z"/>
 <path fill="rgb(126,0,33)" stroke="none" d="M 1378,1153 L 1489,1156 1600,1146 1711,1144 1823,1148 1934,1153 2045,1160 2156,1153 2268,1151 2379,1150 2490,1150 2601,1147 2713,1148 2824,1152 2935,1151 3046,1172 3158,1158 3269,1172 3380,1192 3491,1189 3603,1206 3714,1192 3825,1174 3936,1190 4048,1173 4159,1181 4270,1187 4381,1227 4493,1201 4604,1203 4715,1228 4826,1215 4938,1226 5049,1217 5160,1227 5271,1253 5383,1228 5494,1245 5605,1255 5716,1240 5828,1242 5939,1256 6050,1274 6161,1281 6273,1337 6384,1274 6495,1241 6606,1221 6718,1284 6829,1301 6940,1320 7051,1288 7163,1323 7274,1291 7385,1270 7496,1273 7608,1411 7719,1284 7830,1311 7940,1318 8052,1329 8163,1334 8274,1350 8385,1395 8497,1475 8608,1354 8719,1367 8830,1398 8942,1400 9053,1447 9164,1442 9275,1445 9387,1437 9498,1430 9609,1448 9720,1479 9832,1452 9943,1501 10054,1461 10165,1497 10277,1515 10388,1477 10499,1623 10610,1580 10722,1454 10833,1528 10944,1520 11055,1507 11167,1525 11278,1530 11389,1504 11500,1463 11612,1484 11723,1466 11834,1546 11945,1494 12057,1563 12168,1593 12279,1629 12390,1641 12502,1659 12613,1797 12724,1689 12835,1678 12947,1673 13058,1642 13169,1712 13280,1752 13392,1766 13503,1725 13614,1697 13725,1708 13837,1714 13948,1733 14059,1703 14170,1623 14282,1581 14393,1643 14504,1732 14616,1647 14616,1717 14504,1815 14393,1739 14282,1680 14170,1731 14059,1876 13948,1869 13837,1871 13725,1854 13614,1841 13503,1905 13392,1938 13280,1924 13169,1911 13058,1832 12947,1857 12835,1896 12724,1876 12613,2040 12502,1897 12390,1906 12279,1882 12168,1803 12057,1741 11945,1670 11834,1725 11723,1635 11612,1670 11500,1670 11389,1724 11278,1718 11167,1727 11055,1704 10944,1710 10833,1724 10722,1635 10610,1749 10499,1783 10388,1675 10277,1719 10165,1683 10054,1649 9943,1701 9832,1582 9720,1630 9609,1602 9498,1578 9387,1597 9275,1625 9164,1641 9053,1677 8942,1626 8830,1643 8719,1624 8608,1600 8497,1714 8385,1706 8274,1608 8163,1589 8052,1539 7940,1535 7830,1529 7719,1491 7608,1614 7496,1495 7385,1498 7274,1515 7163,1556 7051,1542 6940,1627 6829,1603 6718,1547 6606,1432 6495,1500 6384,1546 6273,1592 6161,1552 6050,1565 5939,1555 5828,1539 5716,1543 5605,1551 5494,1549 5383,1523 5271,1553 5160,1544 5049,1523 4938,1528 4826,1490 4715,1525 4604,1494 4493,1498 4381,1508 4270,1465 4159,1458 4048,1433 3936,1423 3825,1405 3714,1408 3603,1415 3491,1399 3380,1412 3269,1391 3158,1382 3046,1403 2935,1386 2824,1384 2713,1378 2601,1370 2490,1362 2379,1373 2268,1370 2156,1373 2045,1367 1934,1346 1823,1343 1711,1339 1600,1335 1489,1323 1378,1349 1378,1153 Z"/>
 <path fill="none" stroke="rgb(0,0,0)" stroke-linejoin="round" d="M 1378,1153 L 1489,1156 1600,1146 1711,1144 1823,1148 1934,1153 2045,1160 2156,1153 2268,1151 2379,1150 2490,1150 2601,1147 2713,1148 2824,1152 2935,1151 3046,1172 3158,1158 3269,1172 3380,1192 3491,1189 3603,1206 3714,1192 3825,1174 3936,1190 4048,1173 4159,1181 4270,1187 4381,1227 4493,1201 4604,1203 4715,1228 4826,1215 4938,1226 5049,1217 5160,1227 5271,1253 5383,1228 5494,1245 5605,1255 5716,1240 5828,1242 5939,1256 6050,1274 6161,1281 6273,1337 6384,1274 6495,1241 6606,1221 6718,1284 6829,1301 6940,1320 7051,1288 7163,1323 7274,1291 7385,1270 7496,1273 7608,1411 7719,1284 7830,1311 7940,1318 8052,1329 8163,1334 8274,1350 8385,1395 8497,1475 8608,1354 8719,1367 8830,1398 8942,1400 9053,1447 9164,1442 9275,1445 9387,1437 9498,1430 9609,1448 9720,1479 9832,1452 9943,1501 10054,1461 10165,1497 10277,1515 10388,1477 10499,1623 10610,1580 10722,1454 10833,1528 10944,1520 11055,1507 11167,1525 11278,1530 11389,1504 11500,1463 11612,1484 11723,1466 11834,1546 11945,1494 12057,1563 12168,1593 12279,1629 12390,1641 12502,1659 12613,1797 12724,1689 12835,1678 12947,1673 13058,1642 13169,1712 13280,1752 13392,1766 13503,1725 13614,1697 13725,1708 13837,1714 13948,1733 14059,1703 14170,1623 14282,1581 14393,1643 14504,1732 14616,1647 14616,1717 14504,1815 14393,1739 14282,1680 14170,1731 14059,1876 13948,1869 13837,1871 13725,1854 13614,1841 13503,1905 13392,1938 13280,1924 13169,1911 13058,1832 12947,1857 12835,1896 12724,1876 12613,2040 12502,1897 12390,1906 12279,1882 12168,1803 12057,1741 11945,1670 11834,1725 11723,1635 11612,1670 11500,1670 11389,1724 11278,1718 11167,1727 11055,1704 10944,1710 10833,1724 10722,1635 10610,1749 10499,1783 10388,1675 10277,1719 10165,1683 10054,1649 9943,1701 9832,1582 9720,1630 9609,1602 9498,1578 9387,1597 9275,1625 9164,1641 9053,1677 8942,1626 8830,1643 8719,1624 8608,1600 8497,1714 8385,1706 8274,1608 8163,1589 8052,1539 7940,1535 7830,1529 7719,1491 7608,1614 7496,1495 7385,1498 7274,1515 7163,1556 7051,1542 6940,1627 6829,1603 6718,1547 6606,1432 6495,1500 6384,1546 6273,1592 6161,1552 6050,1565 5939,1555 5828,1539 5716,1543 5605,1551 5494,1549 5383,1523 5271,1553 5160,1544 5049,1523 4938,1528 4826,1490 4715,1525 4604,1494 4493,1498 4381,1508 4270,1465 4159,1458 4048,1433 3936,1423 3825,1405 3714,1408 3603,1415 3491,1399 3380,1412 3269,1391 3158,1382 3046,1403 2935,1386 2824,1384 2713,1378 2601,1370 2490,1362 2379,1373 2268,1370 2156,1373 2045,1367 1934,1346 1823,1343 1711,1339 1600,1335 1489,1323 1378,1349 1378,1153 Z"/>
 <path fill="rgb(131,202,255)" stroke="none" d="M 1378,1095 L 1489,1095 1600,1095 1711,1095 1823,1095 2045,1095 2156,1095 2268,1095 2379,1095 2490,1095 2601,1095 2713,1095 2824,1095 2935,1095 3046,1095 3158,1095 3269,1095 3380,1095 3491,1095 3603,1095 3714,1095 3936,1095 4048,1095 4159,1095 4381,1095 4493,1095 4715,1095 5049,1095 5160,1095 5271,1095 5383,1095 5494,1095 5605,1095 5716,1095 5828,1095 5939,1095 6050,1095 6161,1095 6273,1095 6606,1095 6718,1095 6829,1095 6940,1095 7051,1095 7274,1095 7385,1095 7496,1095 7608,1095 7719,1095 7830,1095 7940,1095 8052,1095 8163,1095 8274,1095 8385,1095 8497,1095 8608,1095 8719,1095 8830,1095 8942,1095 9053,1095 9164,1095 9275,1095 9387,1095 9498,1095 9609,1095 9720,1095 9832,1095 10054,1095 10165,1095 10277,1095 10388,1095 10499,1095 10722,1095 10833,1095 10944,1095 11055,1095 11167,1095 11278,1095 11500,1095 11612,1095 11723,1095 11834,1095 12057,1095 12168,1095 12279,1095 12390,1095 12502,1095 12613,1095 12724,1095 12835,1095 12947,1095 13058,1095 13169,1095 13280,1095 13392,1095 13503,1095 13614,1095 13725,1095 13837,1095 13948,1095 14059,1095 14170,1095 14504,1095 14616,1095 14616,1647 14504,1732 14393,1643 14282,1581 14170,1623 14059,1703 13948,1733 13837,1714 13725,1708 13614,1697 13503,1725 13392,1766 13280,1752 13169,1712 13058,1642 12947,1673 12835,1678 12724,1689 12613,1797 12502,1659 12390,1641 12279,1629 12168,1593 12057,1563 11945,1494 11834,1546 11723,1466 11612,1484 11500,1463 11389,1504 11278,1530 11167,1525 11055,1507 10944,1520 10833,1528 10722,1454 10610,1580 10499,1623 10388,1477 10277,1515 10165,1497 10054,1461 9943,1501 9832,1452 9720,1479 9609,1448 9498,1430 9387,1437 9275,1445 9164,1442 9053,1447 8942,1400 8830,1398 8719,1367 8608,1354 8497,1475 8385,1395 8274,1350 8163,1334 8052,1329 7940,1318 7830,1311 7719,1284 7608,1411 7496,1273 7385,1270 7274,1291 7163,1323 7051,1288 6940,1320 6829,1301 6718,1284 6606,1221 6495,1241 6384,1274 6273,1337 6161,1281 6050,1274 5939,1256 5828,1242 5716,1240 5605,1255 5494,1245 5383,1228 5271,1253 5160,1227 5049,1217 4938,1226 4826,1215 4715,1228 4604,1203 4493,1201 4381,1227 4270,1187 4159,1181 4048,1173 3936,1190 3825,1174 3714,1192 3603,1206 3491,1189 3380,1192 3269,1172 3158,1158 3046,1172 2935,1151 2824,1152 2713,1148 2601,1147 2490,1150 2379,1150 2268,1151 2156,1153 2045,1160 1934,1153 1823,1148 1711,1144 1600,1146 1489,1156 1378,1153 1378,1095 Z"/>
 <path fill="none" stroke="rgb(0,0,0)" stroke-linejoin="round" d="M 1378,1095 L 1489,1095 1600,1095 1711,1095 1823,1095 2045,1095 2156,1095 2268,1095 2379,1095 2490,1095 2601,1095 2713,1095 2824,1095 2935,1095 3046,1095 3158,1095 3269,1095 3380,1095 3491,1095 3603,1095 3714,1095 3936,1095 4048,1095 4159,1095 4381,1095 4493,1095 4715,1095 5049,1095 5160,1095 5271,1095 5383,1095 5494,1095 5605,1095 5716,1095 5828,1095 5939,1095 6050,1095 6161,1095 6273,1095 6606,1095 6718,1095 6829,1095 6940,1095 7051,1095 7274,1095 7385,1095 7496,1095 7608,1095 7719,1095 7830,1095 7940,1095 8052,1095 8163,1095 8274,1095 8385,1095 8497,1095 8608,1095 8719,1095 8830,1095 8942,1095 9053,1095 9164,1095 9275,1095 9387,1095 9498,1095 9609,1095 9720,1095 9832,1095 10054,1095 10165,1095 10277,1095 10388,1095 10499,1095 10722,1095 10833,1095 10944,1095 11055,1095 11167,1095 11278,1095 11500,1095 11612,1095 11723,1095 11834,1095 12057,1095 12168,1095 12279,1095 12390,1095 12502,1095 12613,1095 12724,1095 12835,1095 12947,1095 13058,1095 13169,1095 13280,1095 13392,1095 13503,1095 13614,1095 13725,1095 13837,1095 13948,1095 14059,1095 14170,1095 14504,1095 14616,1095 14616,1647 14504,1732 14393,1643 14282,1581 14170,1623 14059,1703 13948,1733 13837,1714 13725,1708 13614,1697 13503,1725 13392,1766 13280,1752 13169,1712 13058,1642 12947,1673 12835,1678 12724,1689 12613,1797 12502,1659 12390,1641 12279,1629 12168,1593 12057,1563 11945,1494 11834,1546 11723,1466 11612,1484 11500,1463 11389,1504 11278,1530 11167,1525 11055,1507 10944,1520 10833,1528 10722,1454 10610,1580 10499,1623 10388,1477 10277,1515 10165,1497 10054,1461 9943,1501 9832,1452 9720,1479 9609,1448 9498,1430 9387,1437 9275,1445 9164,1442 9053,1447 8942,1400 8830,1398 8719,1367 8608,1354 8497,1475 8385,1395 8274,1350 8163,1334 8052,1329 7940,1318 7830,1311 7719,1284 7608,1411 7496,1273 7385,1270 7274,1291 7163,1323 7051,1288 6940,1320 6829,1301 6718,1284 6606,1221 6495,1241 6384,1274 6273,1337 6161,1281 6050,1274 5939,1256 5828,1242 5716,1240 5605,1255 5494,1245 5383,1228 5271,1253 5160,1227 5049,1217 4938,1226 4826,1215 4715,1228 4604,1203 4493,1201 4381,1227 4270,1187 4159,1181 4048,1173 3936,1190 3825,1174 3714,1192 3603,1206 3491,1189 3380,1192 3269,1172 3158,1158 3046,1172 2935,1151 2824,1152 2713,1148 2601,1147 2490,1150 2379,1150 2268,1151 2156,1153 2045,1160 1934,1153 1823,1148 1711,1144 1600,1146 1489,1156 1378,1153 1378,1095 Z"/>
 <text class="TextShape"><tspan class="TextParagraph" font-family="Liberation Sans, sans-serif" font-size="388px" font-weight="700"><tspan class="TextPosition" x="1176" y="11292"><tspan fill="rgb(0,0,0)" stroke="none">2008</tspan></tspan></tspan></text>
 <text class="TextShape"><tspan class="TextParagraph" font-family="Liberation Sans, sans-serif" font-size="388px" font-weight="700"><tspan class="TextPosition" x="2511" y="11292"><tspan fill="rgb(0,0,0)" stroke="none">2009</tspan></tspan></tspan></text>
 <text class="TextShape"><tspan class="TextParagraph" font-family="Liberation Sans, sans-serif" font-size="388px" font-weight="700"><tspan class="TextPosition" x="3846" y="11292"><tspan fill="rgb(0,0,0)" stroke="none">2010</tspan></tspan></tspan></text>
 <text class="TextShape"><tspan class="TextParagraph" font-family="Liberation Sans, sans-serif" font-size="388px" font-weight="700"><tspan class="TextPosition" x="5181" y="11292"><tspan fill="rgb(0,0,0)" stroke="none">2011</tspan></tspan></tspan></text>
 <text class="TextShape"><tspan class="TextParagraph" font-family="Liberation Sans, sans-serif" font-size="388px" font-weight="700"><tspan class="TextPosition" x="6516" y="11292"><tspan fill="rgb(0,0,0)" stroke="none">2012</tspan></tspan></tspan></text>
 <text class="TextShape"><tspan class="TextParagraph" font-family="Liberation Sans, sans-serif" font-size="388px" font-weight="700"><tspan class="TextPosition" x="7851" y="11292"><tspan fill="rgb(0,0,0)" stroke="none">2013</tspan></tspan></tspan></text>
 <text class="TextShape"><tspan class="TextParagraph" font-family="Liberation Sans, sans-serif" font-size="388px" font-weight="700"><tspan class="TextPosition" x="9186" y="11292"><tspan fill="rgb(0,0,0)" stroke="none">2014</tspan></tspan></tspan></text>
 <text class="TextShape"><tspan class="TextParagraph" font-family="Liberation Sans, sans-serif" font-size="388px" font-weight="700"><tspan class="TextPosition" x="10521" y="11292"><tspan fill="rgb(0,0,0)" stroke="none">2015</tspan></tspan></tspan></text>
 <text class="TextShape"><tspan class="TextParagraph" font-family="Liberation Sans, sans-serif" font-size="388px" font-weight="700"><tspan class="TextPosition" x="11856" y="11292"><tspan fill="rgb(0,0,0)" stroke="none">2016</tspan></tspan></tspan></text>
 <text class="TextShape"><tspan class="TextParagraph" font-family="Liberation Sans, sans-serif" font-size="388px" font-weight="700"><tspan class="TextPosition" x="13191" y="11292"><tspan fill="rgb(0,0,0)" stroke="none">2017</tspan></tspan></tspan></text>
 <text class="TextShape"><tspan class="TextParagraph" font-family="Liberation Sans, sans-serif" font-size="388px" font-weight="700"><tspan class="TextPosition" x="572" y="10832"><tspan fill="rgb(0,0,0)" stroke="none">0%</tspan></tspan></tspan></text>
 <text class="TextShape"><tspan class="TextParagraph" font-family="Liberation Sans, sans-serif" font-size="388px" font-weight="700"><tspan class="TextPosition" x="361" y="9871"><tspan fill="rgb(0,0,0)" stroke="none">10%</tspan></tspan></tspan></text>
 <text class="TextShape"><tspan class="TextParagraph" font-family="Liberation Sans, sans-serif" font-size="388px" font-weight="700"><tspan class="TextPosition" x="361" y="8911"><tspan fill="rgb(0,0,0)" stroke="none">20%</tspan></tspan></tspan></text>
 <text class="TextShape"><tspan class="TextParagraph" font-family="Liberation Sans, sans-serif" font-size="388px" font-weight="700"><tspan class="TextPosition" x="361" y="7950"><tspan fill="rgb(0,0,0)" stroke="none">30%</tspan></tspan></tspan></text>
 <text class="TextShape"><tspan class="TextParagraph" font-family="Liberation Sans, sans-serif" font-size="388px" font-weight="700"><tspan class="TextPosition" x="361" y="6990"><tspan fill="rgb(0,0,0)" stroke="none">40%</tspan></tspan></tspan></text>
 <text class="TextShape"><tspan class="TextParagraph" font-family="Liberation Sans, sans-serif" font-size="388px" font-weight="700"><tspan class="TextPosition" x="361" y="6030"><tspan fill="rgb(0,0,0)" stroke="none">50%</tspan></tspan></tspan></text>
 <text class="TextShape"><tspan class="TextParagraph" font-family="Liberation Sans, sans-serif" font-size="388px" font-weight="700"><tspan class="TextPosition" x="361" y="5069"><tspan fill="rgb(0,0,0)" stroke="none">60%</tspan></tspan></tspan></text>
 <text class="TextShape"><tspan class="TextParagraph" font-family="Liberation Sans, sans-serif" font-size="388px" font-weight="700"><tspan class="TextPosition" x="361" y="4109"><tspan fill="rgb(0,0,0)" stroke="none">70%</tspan></tspan></tspan></text>
 <text class="TextShape"><tspan class="TextParagraph" font-family="Liberation Sans, sans-serif" font-size="388px" font-weight="700"><tspan class="TextPosition" x="361" y="3148"><tspan fill="rgb(0,0,0)" stroke="none">80%</tspan></tspan></tspan></text>
 <text class="TextShape"><tspan class="TextParagraph" font-family="Liberation Sans, sans-serif" font-size="388px" font-weight="700"><tspan class="TextPosition" x="361" y="2188"><tspan fill="rgb(0,0,0)" stroke="none">90%</tspan></tspan></tspan></text>
 <text class="TextShape"><tspan class="TextParagraph" font-family="Liberation Sans, sans-serif" font-size="388px" font-weight="700"><tspan class="TextPosition" x="149" y="1228"><tspan fill="rgb(0,0,0)" stroke="none">100%</tspan></tspan></tspan></text>
 <text class="TextShape"><tspan class="TextParagraph" font-family="Liberation Sans, sans-serif" font-size="388px" font-weight="700"><tspan class="TextPosition" x="14866" y="10832"><tspan fill="rgb(0,0,0)" stroke="none">0%</tspan></tspan></tspan></text>
 <text class="TextShape"><tspan class="TextParagraph" font-family="Liberation Sans, sans-serif" font-size="388px" font-weight="700"><tspan class="TextPosition" x="14866" y="9871"><tspan fill="rgb(0,0,0)" stroke="none">10%</tspan></tspan></tspan></text>
 <text class="TextShape"><tspan class="TextParagraph" font-family="Liberation Sans, sans-serif" font-size="388px" font-weight="700"><tspan class="TextPosition" x="14866" y="8911"><tspan fill="rgb(0,0,0)" stroke="none">20%</tspan></tspan></tspan></text>
 <text class="TextShape"><tspan class="TextParagraph" font-family="Liberation Sans, sans-serif" font-size="388px" font-weight="700"><tspan class="TextPosition" x="14866" y="7950"><tspan fill="rgb(0,0,0)" stroke="none">30%</tspan></tspan></tspan></text>
 <text class="TextShape"><tspan class="TextParagraph" font-family="Liberation Sans, sans-serif" font-size="388px" font-weight="700"><tspan class="TextPosition" x="14866" y="6990"><tspan fill="rgb(0,0,0)" stroke="none">40%</tspan></tspan></tspan></text>
 <text class="TextShape"><tspan class="TextParagraph" font-family="Liberation Sans, sans-serif" font-size="388px" font-weight="700"><tspan class="TextPosition" x="14866" y="6030"><tspan fill="rgb(0,0,0)" stroke="none">50%</tspan></tspan></tspan></text>
 <text class="TextShape"><tspan class="TextParagraph" font-family="Liberation Sans, sans-serif" font-size="388px" font-weight="700"><tspan class="TextPosition" x="14866" y="5069"><tspan fill="rgb(0,0,0)" stroke="none">60%</tspan></tspan></tspan></text>
 <text class="TextShape"><tspan class="TextParagraph" font-family="Liberation Sans, sans-serif" font-size="388px" font-weight="700"><tspan class="TextPosition" x="14866" y="4109"><tspan fill="rgb(0,0,0)" stroke="none">70%</tspan></tspan></tspan></text>
 <text class="TextShape"><tspan class="TextParagraph" font-family="Liberation Sans, sans-serif" font-size="388px" font-weight="700"><tspan class="TextPosition" x="14866" y="3148"><tspan fill="rgb(0,0,0)" stroke="none">80%</tspan></tspan></tspan></text>
 <text class="TextShape"><tspan class="TextParagraph" font-family="Liberation Sans, sans-serif" font-size="388px" font-weight="700"><tspan class="TextPosition" x="14866" y="2188"><tspan fill="rgb(0,0,0)" stroke="none">90%</tspan></tspan></tspan></text>
 <text class="TextShape"><tspan class="TextParagraph" font-family="Liberation Sans, sans-serif" font-size="388px" font-weight="700"><tspan class="TextPosition" x="14866" y="1228"><tspan fill="rgb(0,0,0)" stroke="none">100%</tspan></tspan></tspan></text>
 <text class="TextShape"><tspan class="TextParagraph" font-family="Arial, sans-serif" font-size="635px" font-weight="400"><tspan class="TextPosition" x="4322" y="759"><tspan fill="rgb(0,0,0)" stroke="none">Utilizacin de navegadores</tspan></tspan></tspan></text>
 <path fill="rgb(255,211,32)" stroke="none" d="M 10799,11722 L 10693,11722 10693,11511 10904,11511 10904,11722 10799,11722 Z"/>
 <path fill="none" stroke="rgb(0,0,0)" stroke-linejoin="round" d="M 10799,11722 L 10693,11722 10693,11511 10904,11511 10904,11722 10799,11722 Z"/>
 <path fill="rgb(0,69,134)" stroke="none" d="M 9892,11722 L 9786,11722 9786,11511 9997,11511 9997,11722 9892,11722 Z"/>
 <path fill="none" stroke="rgb(0,0,0)" stroke-linejoin="round" d="M 9892,11722 L 9786,11722 9786,11511 9997,11511 9997,11722 9892,11722 Z"/>
 <path fill="rgb(87,157,28)" stroke="none" d="M 8376,11722 L 8270,11722 8270,11511 8481,11511 8481,11722 8376,11722 Z"/>
 <path fill="none" stroke="rgb(0,0,0)" stroke-linejoin="round" d="M 8376,11722 L 8270,11722 8270,11511 8481,11511 8481,11722 8376,11722 Z"/>
 <path fill="rgb(255,66,14)" stroke="none" d="M 6675,11722 L 6570,11722 6570,11511 6781,11511 6781,11722 6675,11722 Z"/>
 <path fill="none" stroke="rgb(0,0,0)" stroke-linejoin="round" d="M 6675,11722 L 6570,11722 6570,11511 6781,11511 6781,11722 6675,11722 Z"/>
 <path fill="rgb(126,0,33)" stroke="none" d="M 5133,11722 L 5028,11722 5028,11511 5239,11511 5239,11722 5133,11722 Z"/>
 <path fill="none" stroke="rgb(0,0,0)" stroke-linejoin="round" d="M 5133,11722 L 5028,11722 5028,11511 5239,11511 5239,11722 5133,11722 Z"/>
 <path fill="rgb(131,202,255)" stroke="none" d="M 3670,11722 L 3565,11722 3565,11511 3776,11511 3776,11722 3670,11722 Z"/>
 <path fill="none" stroke="rgb(0,0,0)" stroke-linejoin="round" d="M 3670,11722 L 3565,11722 3565,11511 3776,11511 3776,11722 3670,11722 Z"/>
 <text class="TextShape"><tspan class="TextParagraph" font-family="Arial, sans-serif" font-size="353px" font-weight="700"><tspan class="TextPosition" x="3876" y="11735"><tspan fill="rgb(0,0,0)" stroke="none">Otros</tspan></tspan></tspan></text>
 <text class="TextShape"><tspan class="TextParagraph" font-family="Arial, sans-serif" font-size="353px" font-weight="700"><tspan class="TextPosition" x="5339" y="11735"><tspan fill="rgb(0,0,0)" stroke="none">Opera</tspan></tspan></tspan></text>
 <text class="TextShape"><tspan class="TextParagraph" font-family="Arial, sans-serif" font-size="353px" font-weight="700"><tspan class="TextPosition" x="6881" y="11735"><tspan fill="rgb(0,0,0)" stroke="none">Firefox</tspan></tspan></tspan></text>
 <text class="TextShape"><tspan class="TextParagraph" font-family="Arial, sans-serif" font-size="353px" font-weight="700"><tspan class="TextPosition" x="8581" y="11735"><tspan fill="rgb(0,0,0)" stroke="none">Safari</tspan></tspan></tspan></text>
 <text class="TextShape"><tspan class="TextParagraph" font-family="Arial, sans-serif" font-size="353px" font-weight="700"><tspan class="TextPosition" x="10097" y="11735"><tspan fill="rgb(0,0,0)" stroke="none">IE</tspan></tspan></tspan></text>
 <text class="TextShape"><tspan class="TextParagraph" font-family="Arial, sans-serif" font-size="353px" font-weight="700"><tspan class="TextPosition" x="11004" y="11735"><tspan fill="rgb(0,0,0)" stroke="none">Chrome</tspan></tspan></tspan></text>
</svg>
