<?xml version="1.0" encoding="UTF-8"?>
<!DOCTYPE svg PUBLIC "-//W3C//DTD SVG 1.1//EN" "http://www.w3.org/Graphics/SVG/1.1/DTD/svg11.dtd">
<svg width="163mm" height="122mm" viewBox="0 0 16300 12200" version="1.1" xmlns="http://www.w3.org/2000/svg" stroke-width="28.222" stroke-linejoin="round" xml:space="preserve">
 <path fill="rgb(255,255,255)" stroke="none" d="M 8184,12221 L 12,12221 12,0 16356,0 16356,12221 8184,12221 Z"/>
 <path fill="none" stroke="rgb(179,179,179)" stroke-linejoin="round" d="M 8119,10762 L 1428,10762 1428,1093 14809,1093 14809,10762 8119,10762 Z"/>
 <path fill="none" stroke="rgb(179,179,179)" stroke-linejoin="round" d="M 14809,10761 L 1428,10761"/>
 <path fill="none" stroke="rgb(179,179,179)" stroke-linejoin="round" d="M 14809,9794 L 1428,9794"/>
 <path fill="none" stroke="rgb(179,179,179)" stroke-linejoin="round" d="M 14809,8827 L 1428,8827"/>
 <path fill="none" stroke="rgb(179,179,179)" stroke-linejoin="round" d="M 14809,7860 L 1428,7860"/>
 <path fill="none" stroke="rgb(179,179,179)" stroke-linejoin="round" d="M 14809,6893 L 1428,6893"/>
 <path fill="none" stroke="rgb(179,179,179)" stroke-linejoin="round" d="M 14809,5927 L 1428,5927"/>
 <path fill="none" stroke="rgb(179,179,179)" stroke-linejoin="round" d="M 14809,4959 L 1428,4959"/>
 <path fill="none" stroke="rgb(179,179,179)" stroke-linejoin="round" d="M 14809,3992 L 1428,3992"/>
 <path fill="none" stroke="rgb(179,179,179)" stroke-linejoin="round" d="M 14809,3026 L 1428,3026"/>
 <path fill="none" stroke="rgb(179,179,179)" stroke-linejoin="round" d="M 14809,2059 L 1428,2059"/>
 <path fill="none" stroke="rgb(179,179,179)" stroke-linejoin="round" d="M 14809,1092 L 1428,1092"/>
 <path fill="none" stroke="rgb(0,0,0)" stroke-width="30" stroke-linejoin="round" d="M 1428,10911 L 1428,10761"/>
 <path fill="none" stroke="rgb(0,0,0)" stroke-width="30" stroke-linejoin="round" d="M 1428,10911 L 1428,10761"/>
 <path fill="none" stroke="rgb(0,0,0)" stroke-width="30" stroke-linejoin="round" d="M 1540,10911 L 1540,10761"/>
 <path fill="none" stroke="rgb(0,0,0)" stroke-width="30" stroke-linejoin="round" d="M 1540,10911 L 1540,10761"/>
 <path fill="none" stroke="rgb(0,0,0)" stroke-width="30" stroke-linejoin="round" d="M 1652,10911 L 1652,10761"/>
 <path fill="none" stroke="rgb(0,0,0)" stroke-width="30" stroke-linejoin="round" d="M 1652,10911 L 1652,10761"/>
 <path fill="none" stroke="rgb(0,0,0)" stroke-width="30" stroke-linejoin="round" d="M 1765,10911 L 1765,10761"/>
 <path fill="none" stroke="rgb(0,0,0)" stroke-width="30" stroke-linejoin="round" d="M 1765,10911 L 1765,10761"/>
 <path fill="none" stroke="rgb(0,0,0)" stroke-width="30" stroke-linejoin="round" d="M 1877,10911 L 1877,10761"/>
 <path fill="none" stroke="rgb(0,0,0)" stroke-width="30" stroke-linejoin="round" d="M 1877,10911 L 1877,10761"/>
 <path fill="none" stroke="rgb(0,0,0)" stroke-width="30" stroke-linejoin="round" d="M 1990,10911 L 1990,10761"/>
 <path fill="none" stroke="rgb(0,0,0)" stroke-width="30" stroke-linejoin="round" d="M 1990,10911 L 1990,10761"/>
 <path fill="none" stroke="rgb(0,0,0)" stroke-width="30" stroke-linejoin="round" d="M 2102,10911 L 2102,10761"/>
 <path fill="none" stroke="rgb(0,0,0)" stroke-width="30" stroke-linejoin="round" d="M 2102,10911 L 2102,10761"/>
 <path fill="none" stroke="rgb(0,0,0)" stroke-width="30" stroke-linejoin="round" d="M 2215,10911 L 2215,10761"/>
 <path fill="none" stroke="rgb(0,0,0)" stroke-width="30" stroke-linejoin="round" d="M 2215,10911 L 2215,10761"/>
 <path fill="none" stroke="rgb(0,0,0)" stroke-width="30" stroke-linejoin="round" d="M 2327,10911 L 2327,10761"/>
 <path fill="none" stroke="rgb(0,0,0)" stroke-width="30" stroke-linejoin="round" d="M 2327,10911 L 2327,10761"/>
 <path fill="none" stroke="rgb(0,0,0)" stroke-width="30" stroke-linejoin="round" d="M 2440,10911 L 2440,10761"/>
 <path fill="none" stroke="rgb(0,0,0)" stroke-width="30" stroke-linejoin="round" d="M 2440,10911 L 2440,10761"/>
 <path fill="none" stroke="rgb(0,0,0)" stroke-width="30" stroke-linejoin="round" d="M 2552,10911 L 2552,10761"/>
 <path fill="none" stroke="rgb(0,0,0)" stroke-width="30" stroke-linejoin="round" d="M 2552,10911 L 2552,10761"/>
 <path fill="none" stroke="rgb(0,0,0)" stroke-width="30" stroke-linejoin="round" d="M 2664,10911 L 2664,10761"/>
 <path fill="none" stroke="rgb(0,0,0)" stroke-width="30" stroke-linejoin="round" d="M 2664,10911 L 2664,10761"/>
 <path fill="none" stroke="rgb(0,0,0)" stroke-width="30" stroke-linejoin="round" d="M 2777,10911 L 2777,10761"/>
 <path fill="none" stroke="rgb(0,0,0)" stroke-width="30" stroke-linejoin="round" d="M 2777,10911 L 2777,10761"/>
 <path fill="none" stroke="rgb(0,0,0)" stroke-width="30" stroke-linejoin="round" d="M 2889,10911 L 2889,10761"/>
 <path fill="none" stroke="rgb(0,0,0)" stroke-width="30" stroke-linejoin="round" d="M 2889,10911 L 2889,10761"/>
 <path fill="none" stroke="rgb(0,0,0)" stroke-width="30" stroke-linejoin="round" d="M 3002,10911 L 3002,10761"/>
 <path fill="none" stroke="rgb(0,0,0)" stroke-width="30" stroke-linejoin="round" d="M 3002,10911 L 3002,10761"/>
 <path fill="none" stroke="rgb(0,0,0)" stroke-width="30" stroke-linejoin="round" d="M 3114,10911 L 3114,10761"/>
 <path fill="none" stroke="rgb(0,0,0)" stroke-width="30" stroke-linejoin="round" d="M 3114,10911 L 3114,10761"/>
 <path fill="none" stroke="rgb(0,0,0)" stroke-width="30" stroke-linejoin="round" d="M 3227,10911 L 3227,10761"/>
 <path fill="none" stroke="rgb(0,0,0)" stroke-width="30" stroke-linejoin="round" d="M 3227,10911 L 3227,10761"/>
 <path fill="none" stroke="rgb(0,0,0)" stroke-width="30" stroke-linejoin="round" d="M 3339,10911 L 3339,10761"/>
 <path fill="none" stroke="rgb(0,0,0)" stroke-width="30" stroke-linejoin="round" d="M 3339,10911 L 3339,10761"/>
 <path fill="none" stroke="rgb(0,0,0)" stroke-width="30" stroke-linejoin="round" d="M 3452,10911 L 3452,10761"/>
 <path fill="none" stroke="rgb(0,0,0)" stroke-width="30" stroke-linejoin="round" d="M 3452,10911 L 3452,10761"/>
 <path fill="none" stroke="rgb(0,0,0)" stroke-width="30" stroke-linejoin="round" d="M 3564,10911 L 3564,10761"/>
 <path fill="none" stroke="rgb(0,0,0)" stroke-width="30" stroke-linejoin="round" d="M 3564,10911 L 3564,10761"/>
 <path fill="none" stroke="rgb(0,0,0)" stroke-width="30" stroke-linejoin="round" d="M 3677,10911 L 3677,10761"/>
 <path fill="none" stroke="rgb(0,0,0)" stroke-width="30" stroke-linejoin="round" d="M 3677,10911 L 3677,10761"/>
 <path fill="none" stroke="rgb(0,0,0)" stroke-width="30" stroke-linejoin="round" d="M 3789,10911 L 3789,10761"/>
 <path fill="none" stroke="rgb(0,0,0)" stroke-width="30" stroke-linejoin="round" d="M 3789,10911 L 3789,10761"/>
 <path fill="none" stroke="rgb(0,0,0)" stroke-width="30" stroke-linejoin="round" d="M 3901,10911 L 3901,10761"/>
 <path fill="none" stroke="rgb(0,0,0)" stroke-width="30" stroke-linejoin="round" d="M 3901,10911 L 3901,10761"/>
 <path fill="none" stroke="rgb(0,0,0)" stroke-width="30" stroke-linejoin="round" d="M 4014,10911 L 4014,10761"/>
 <path fill="none" stroke="rgb(0,0,0)" stroke-width="30" stroke-linejoin="round" d="M 4014,10911 L 4014,10761"/>
 <path fill="none" stroke="rgb(0,0,0)" stroke-width="30" stroke-linejoin="round" d="M 4126,10911 L 4126,10761"/>
 <path fill="none" stroke="rgb(0,0,0)" stroke-width="30" stroke-linejoin="round" d="M 4126,10911 L 4126,10761"/>
 <path fill="none" stroke="rgb(0,0,0)" stroke-width="30" stroke-linejoin="round" d="M 4239,10911 L 4239,10761"/>
 <path fill="none" stroke="rgb(0,0,0)" stroke-width="30" stroke-linejoin="round" d="M 4239,10911 L 4239,10761"/>
 <path fill="none" stroke="rgb(0,0,0)" stroke-width="30" stroke-linejoin="round" d="M 4351,10911 L 4351,10761"/>
 <path fill="none" stroke="rgb(0,0,0)" stroke-width="30" stroke-linejoin="round" d="M 4351,10911 L 4351,10761"/>
 <path fill="none" stroke="rgb(0,0,0)" stroke-width="30" stroke-linejoin="round" d="M 4464,10911 L 4464,10761"/>
 <path fill="none" stroke="rgb(0,0,0)" stroke-width="30" stroke-linejoin="round" d="M 4464,10911 L 4464,10761"/>
 <path fill="none" stroke="rgb(0,0,0)" stroke-width="30" stroke-linejoin="round" d="M 4576,10911 L 4576,10761"/>
 <path fill="none" stroke="rgb(0,0,0)" stroke-width="30" stroke-linejoin="round" d="M 4576,10911 L 4576,10761"/>
 <path fill="none" stroke="rgb(0,0,0)" stroke-width="30" stroke-linejoin="round" d="M 4689,10911 L 4689,10761"/>
 <path fill="none" stroke="rgb(0,0,0)" stroke-width="30" stroke-linejoin="round" d="M 4689,10911 L 4689,10761"/>
 <path fill="none" stroke="rgb(0,0,0)" stroke-width="30" stroke-linejoin="round" d="M 4801,10911 L 4801,10761"/>
 <path fill="none" stroke="rgb(0,0,0)" stroke-width="30" stroke-linejoin="round" d="M 4801,10911 L 4801,10761"/>
 <path fill="none" stroke="rgb(0,0,0)" stroke-width="30" stroke-linejoin="round" d="M 4914,10911 L 4914,10761"/>
 <path fill="none" stroke="rgb(0,0,0)" stroke-width="30" stroke-linejoin="round" d="M 4914,10911 L 4914,10761"/>
 <path fill="none" stroke="rgb(0,0,0)" stroke-width="30" stroke-linejoin="round" d="M 5026,10911 L 5026,10761"/>
 <path fill="none" stroke="rgb(0,0,0)" stroke-width="30" stroke-linejoin="round" d="M 5026,10911 L 5026,10761"/>
 <path fill="none" stroke="rgb(0,0,0)" stroke-width="30" stroke-linejoin="round" d="M 5138,10911 L 5138,10761"/>
 <path fill="none" stroke="rgb(0,0,0)" stroke-width="30" stroke-linejoin="round" d="M 5138,10911 L 5138,10761"/>
 <path fill="none" stroke="rgb(0,0,0)" stroke-width="30" stroke-linejoin="round" d="M 5251,10911 L 5251,10761"/>
 <path fill="none" stroke="rgb(0,0,0)" stroke-width="30" stroke-linejoin="round" d="M 5251,10911 L 5251,10761"/>
 <path fill="none" stroke="rgb(0,0,0)" stroke-width="30" stroke-linejoin="round" d="M 5363,10911 L 5363,10761"/>
 <path fill="none" stroke="rgb(0,0,0)" stroke-width="30" stroke-linejoin="round" d="M 5363,10911 L 5363,10761"/>
 <path fill="none" stroke="rgb(0,0,0)" stroke-width="30" stroke-linejoin="round" d="M 5476,10911 L 5476,10761"/>
 <path fill="none" stroke="rgb(0,0,0)" stroke-width="30" stroke-linejoin="round" d="M 5476,10911 L 5476,10761"/>
 <path fill="none" stroke="rgb(0,0,0)" stroke-width="30" stroke-linejoin="round" d="M 5588,10911 L 5588,10761"/>
 <path fill="none" stroke="rgb(0,0,0)" stroke-width="30" stroke-linejoin="round" d="M 5588,10911 L 5588,10761"/>
 <path fill="none" stroke="rgb(0,0,0)" stroke-width="30" stroke-linejoin="round" d="M 5701,10911 L 5701,10761"/>
 <path fill="none" stroke="rgb(0,0,0)" stroke-width="30" stroke-linejoin="round" d="M 5701,10911 L 5701,10761"/>
 <path fill="none" stroke="rgb(0,0,0)" stroke-width="30" stroke-linejoin="round" d="M 5813,10911 L 5813,10761"/>
 <path fill="none" stroke="rgb(0,0,0)" stroke-width="30" stroke-linejoin="round" d="M 5813,10911 L 5813,10761"/>
 <path fill="none" stroke="rgb(0,0,0)" stroke-width="30" stroke-linejoin="round" d="M 5926,10911 L 5926,10761"/>
 <path fill="none" stroke="rgb(0,0,0)" stroke-width="30" stroke-linejoin="round" d="M 5926,10911 L 5926,10761"/>
 <path fill="none" stroke="rgb(0,0,0)" stroke-width="30" stroke-linejoin="round" d="M 6038,10911 L 6038,10761"/>
 <path fill="none" stroke="rgb(0,0,0)" stroke-width="30" stroke-linejoin="round" d="M 6038,10911 L 6038,10761"/>
 <path fill="none" stroke="rgb(0,0,0)" stroke-width="30" stroke-linejoin="round" d="M 6151,10911 L 6151,10761"/>
 <path fill="none" stroke="rgb(0,0,0)" stroke-width="30" stroke-linejoin="round" d="M 6151,10911 L 6151,10761"/>
 <path fill="none" stroke="rgb(0,0,0)" stroke-width="30" stroke-linejoin="round" d="M 6263,10911 L 6263,10761"/>
 <path fill="none" stroke="rgb(0,0,0)" stroke-width="30" stroke-linejoin="round" d="M 6263,10911 L 6263,10761"/>
 <path fill="none" stroke="rgb(0,0,0)" stroke-width="30" stroke-linejoin="round" d="M 6375,10911 L 6375,10761"/>
 <path fill="none" stroke="rgb(0,0,0)" stroke-width="30" stroke-linejoin="round" d="M 6375,10911 L 6375,10761"/>
 <path fill="none" stroke="rgb(0,0,0)" stroke-width="30" stroke-linejoin="round" d="M 6488,10911 L 6488,10761"/>
 <path fill="none" stroke="rgb(0,0,0)" stroke-width="30" stroke-linejoin="round" d="M 6488,10911 L 6488,10761"/>
 <path fill="none" stroke="rgb(0,0,0)" stroke-width="30" stroke-linejoin="round" d="M 6600,10911 L 6600,10761"/>
 <path fill="none" stroke="rgb(0,0,0)" stroke-width="30" stroke-linejoin="round" d="M 6600,10911 L 6600,10761"/>
 <path fill="none" stroke="rgb(0,0,0)" stroke-width="30" stroke-linejoin="round" d="M 6713,10911 L 6713,10761"/>
 <path fill="none" stroke="rgb(0,0,0)" stroke-width="30" stroke-linejoin="round" d="M 6713,10911 L 6713,10761"/>
 <path fill="none" stroke="rgb(0,0,0)" stroke-width="30" stroke-linejoin="round" d="M 6825,10911 L 6825,10761"/>
 <path fill="none" stroke="rgb(0,0,0)" stroke-width="30" stroke-linejoin="round" d="M 6825,10911 L 6825,10761"/>
 <path fill="none" stroke="rgb(0,0,0)" stroke-width="30" stroke-linejoin="round" d="M 6938,10911 L 6938,10761"/>
 <path fill="none" stroke="rgb(0,0,0)" stroke-width="30" stroke-linejoin="round" d="M 6938,10911 L 6938,10761"/>
 <path fill="none" stroke="rgb(0,0,0)" stroke-width="30" stroke-linejoin="round" d="M 7050,10911 L 7050,10761"/>
 <path fill="none" stroke="rgb(0,0,0)" stroke-width="30" stroke-linejoin="round" d="M 7050,10911 L 7050,10761"/>
 <path fill="none" stroke="rgb(0,0,0)" stroke-width="30" stroke-linejoin="round" d="M 7163,10911 L 7163,10761"/>
 <path fill="none" stroke="rgb(0,0,0)" stroke-width="30" stroke-linejoin="round" d="M 7163,10911 L 7163,10761"/>
 <path fill="none" stroke="rgb(0,0,0)" stroke-width="30" stroke-linejoin="round" d="M 7275,10911 L 7275,10761"/>
 <path fill="none" stroke="rgb(0,0,0)" stroke-width="30" stroke-linejoin="round" d="M 7275,10911 L 7275,10761"/>
 <path fill="none" stroke="rgb(0,0,0)" stroke-width="30" stroke-linejoin="round" d="M 7388,10911 L 7388,10761"/>
 <path fill="none" stroke="rgb(0,0,0)" stroke-width="30" stroke-linejoin="round" d="M 7388,10911 L 7388,10761"/>
 <path fill="none" stroke="rgb(0,0,0)" stroke-width="30" stroke-linejoin="round" d="M 7500,10911 L 7500,10761"/>
 <path fill="none" stroke="rgb(0,0,0)" stroke-width="30" stroke-linejoin="round" d="M 7500,10911 L 7500,10761"/>
 <path fill="none" stroke="rgb(0,0,0)" stroke-width="30" stroke-linejoin="round" d="M 7612,10911 L 7612,10761"/>
 <path fill="none" stroke="rgb(0,0,0)" stroke-width="30" stroke-linejoin="round" d="M 7612,10911 L 7612,10761"/>
 <path fill="none" stroke="rgb(0,0,0)" stroke-width="30" stroke-linejoin="round" d="M 7725,10911 L 7725,10761"/>
 <path fill="none" stroke="rgb(0,0,0)" stroke-width="30" stroke-linejoin="round" d="M 7725,10911 L 7725,10761"/>
 <path fill="none" stroke="rgb(0,0,0)" stroke-width="30" stroke-linejoin="round" d="M 7837,10911 L 7837,10761"/>
 <path fill="none" stroke="rgb(0,0,0)" stroke-width="30" stroke-linejoin="round" d="M 7837,10911 L 7837,10761"/>
 <path fill="none" stroke="rgb(0,0,0)" stroke-width="30" stroke-linejoin="round" d="M 7950,10911 L 7950,10761"/>
 <path fill="none" stroke="rgb(0,0,0)" stroke-width="30" stroke-linejoin="round" d="M 7950,10911 L 7950,10761"/>
 <path fill="none" stroke="rgb(0,0,0)" stroke-width="30" stroke-linejoin="round" d="M 8062,10911 L 8062,10761"/>
 <path fill="none" stroke="rgb(0,0,0)" stroke-width="30" stroke-linejoin="round" d="M 8062,10911 L 8062,10761"/>
 <path fill="none" stroke="rgb(0,0,0)" stroke-width="30" stroke-linejoin="round" d="M 8175,10911 L 8175,10761"/>
 <path fill="none" stroke="rgb(0,0,0)" stroke-width="30" stroke-linejoin="round" d="M 8175,10911 L 8175,10761"/>
 <path fill="none" stroke="rgb(0,0,0)" stroke-width="30" stroke-linejoin="round" d="M 8286,10911 L 8286,10761"/>
 <path fill="none" stroke="rgb(0,0,0)" stroke-width="30" stroke-linejoin="round" d="M 8286,10911 L 8286,10761"/>
 <path fill="none" stroke="rgb(0,0,0)" stroke-width="30" stroke-linejoin="round" d="M 8399,10911 L 8399,10761"/>
 <path fill="none" stroke="rgb(0,0,0)" stroke-width="30" stroke-linejoin="round" d="M 8399,10911 L 8399,10761"/>
 <path fill="none" stroke="rgb(0,0,0)" stroke-width="30" stroke-linejoin="round" d="M 8511,10911 L 8511,10761"/>
 <path fill="none" stroke="rgb(0,0,0)" stroke-width="30" stroke-linejoin="round" d="M 8511,10911 L 8511,10761"/>
 <path fill="none" stroke="rgb(0,0,0)" stroke-width="30" stroke-linejoin="round" d="M 8624,10911 L 8624,10761"/>
 <path fill="none" stroke="rgb(0,0,0)" stroke-width="30" stroke-linejoin="round" d="M 8624,10911 L 8624,10761"/>
 <path fill="none" stroke="rgb(0,0,0)" stroke-width="30" stroke-linejoin="round" d="M 8736,10911 L 8736,10761"/>
 <path fill="none" stroke="rgb(0,0,0)" stroke-width="30" stroke-linejoin="round" d="M 8736,10911 L 8736,10761"/>
 <path fill="none" stroke="rgb(0,0,0)" stroke-width="30" stroke-linejoin="round" d="M 8848,10911 L 8848,10761"/>
 <path fill="none" stroke="rgb(0,0,0)" stroke-width="30" stroke-linejoin="round" d="M 8848,10911 L 8848,10761"/>
 <path fill="none" stroke="rgb(0,0,0)" stroke-width="30" stroke-linejoin="round" d="M 8961,10911 L 8961,10761"/>
 <path fill="none" stroke="rgb(0,0,0)" stroke-width="30" stroke-linejoin="round" d="M 8961,10911 L 8961,10761"/>
 <path fill="none" stroke="rgb(0,0,0)" stroke-width="30" stroke-linejoin="round" d="M 9073,10911 L 9073,10761"/>
 <path fill="none" stroke="rgb(0,0,0)" stroke-width="30" stroke-linejoin="round" d="M 9073,10911 L 9073,10761"/>
 <path fill="none" stroke="rgb(0,0,0)" stroke-width="30" stroke-linejoin="round" d="M 9186,10911 L 9186,10761"/>
 <path fill="none" stroke="rgb(0,0,0)" stroke-width="30" stroke-linejoin="round" d="M 9186,10911 L 9186,10761"/>
 <path fill="none" stroke="rgb(0,0,0)" stroke-width="30" stroke-linejoin="round" d="M 9298,10911 L 9298,10761"/>
 <path fill="none" stroke="rgb(0,0,0)" stroke-width="30" stroke-linejoin="round" d="M 9298,10911 L 9298,10761"/>
 <path fill="none" stroke="rgb(0,0,0)" stroke-width="30" stroke-linejoin="round" d="M 9411,10911 L 9411,10761"/>
 <path fill="none" stroke="rgb(0,0,0)" stroke-width="30" stroke-linejoin="round" d="M 9411,10911 L 9411,10761"/>
 <path fill="none" stroke="rgb(0,0,0)" stroke-width="30" stroke-linejoin="round" d="M 9523,10911 L 9523,10761"/>
 <path fill="none" stroke="rgb(0,0,0)" stroke-width="30" stroke-linejoin="round" d="M 9523,10911 L 9523,10761"/>
 <path fill="none" stroke="rgb(0,0,0)" stroke-width="30" stroke-linejoin="round" d="M 9636,10911 L 9636,10761"/>
 <path fill="none" stroke="rgb(0,0,0)" stroke-width="30" stroke-linejoin="round" d="M 9636,10911 L 9636,10761"/>
 <path fill="none" stroke="rgb(0,0,0)" stroke-width="30" stroke-linejoin="round" d="M 9748,10911 L 9748,10761"/>
 <path fill="none" stroke="rgb(0,0,0)" stroke-width="30" stroke-linejoin="round" d="M 9748,10911 L 9748,10761"/>
 <path fill="none" stroke="rgb(0,0,0)" stroke-width="30" stroke-linejoin="round" d="M 9861,10911 L 9861,10761"/>
 <path fill="none" stroke="rgb(0,0,0)" stroke-width="30" stroke-linejoin="round" d="M 9861,10911 L 9861,10761"/>
 <path fill="none" stroke="rgb(0,0,0)" stroke-width="30" stroke-linejoin="round" d="M 9973,10911 L 9973,10761"/>
 <path fill="none" stroke="rgb(0,0,0)" stroke-width="30" stroke-linejoin="round" d="M 9973,10911 L 9973,10761"/>
 <path fill="none" stroke="rgb(0,0,0)" stroke-width="30" stroke-linejoin="round" d="M 10085,10911 L 10085,10761"/>
 <path fill="none" stroke="rgb(0,0,0)" stroke-width="30" stroke-linejoin="round" d="M 10085,10911 L 10085,10761"/>
 <path fill="none" stroke="rgb(0,0,0)" stroke-width="30" stroke-linejoin="round" d="M 10198,10911 L 10198,10761"/>
 <path fill="none" stroke="rgb(0,0,0)" stroke-width="30" stroke-linejoin="round" d="M 10198,10911 L 10198,10761"/>
 <path fill="none" stroke="rgb(0,0,0)" stroke-width="30" stroke-linejoin="round" d="M 10310,10911 L 10310,10761"/>
 <path fill="none" stroke="rgb(0,0,0)" stroke-width="30" stroke-linejoin="round" d="M 10310,10911 L 10310,10761"/>
 <path fill="none" stroke="rgb(0,0,0)" stroke-width="30" stroke-linejoin="round" d="M 10423,10911 L 10423,10761"/>
 <path fill="none" stroke="rgb(0,0,0)" stroke-width="30" stroke-linejoin="round" d="M 10423,10911 L 10423,10761"/>
 <path fill="none" stroke="rgb(0,0,0)" stroke-width="30" stroke-linejoin="round" d="M 10535,10911 L 10535,10761"/>
 <path fill="none" stroke="rgb(0,0,0)" stroke-width="30" stroke-linejoin="round" d="M 10535,10911 L 10535,10761"/>
 <path fill="none" stroke="rgb(0,0,0)" stroke-width="30" stroke-linejoin="round" d="M 10648,10911 L 10648,10761"/>
 <path fill="none" stroke="rgb(0,0,0)" stroke-width="30" stroke-linejoin="round" d="M 10648,10911 L 10648,10761"/>
 <path fill="none" stroke="rgb(0,0,0)" stroke-width="30" stroke-linejoin="round" d="M 10760,10911 L 10760,10761"/>
 <path fill="none" stroke="rgb(0,0,0)" stroke-width="30" stroke-linejoin="round" d="M 10760,10911 L 10760,10761"/>
 <path fill="none" stroke="rgb(0,0,0)" stroke-width="30" stroke-linejoin="round" d="M 10873,10911 L 10873,10761"/>
 <path fill="none" stroke="rgb(0,0,0)" stroke-width="30" stroke-linejoin="round" d="M 10873,10911 L 10873,10761"/>
 <path fill="none" stroke="rgb(0,0,0)" stroke-width="30" stroke-linejoin="round" d="M 10985,10911 L 10985,10761"/>
 <path fill="none" stroke="rgb(0,0,0)" stroke-width="30" stroke-linejoin="round" d="M 10985,10911 L 10985,10761"/>
 <path fill="none" stroke="rgb(0,0,0)" stroke-width="30" stroke-linejoin="round" d="M 11098,10911 L 11098,10761"/>
 <path fill="none" stroke="rgb(0,0,0)" stroke-width="30" stroke-linejoin="round" d="M 11098,10911 L 11098,10761"/>
 <path fill="none" stroke="rgb(0,0,0)" stroke-width="30" stroke-linejoin="round" d="M 11210,10911 L 11210,10761"/>
 <path fill="none" stroke="rgb(0,0,0)" stroke-width="30" stroke-linejoin="round" d="M 11210,10911 L 11210,10761"/>
 <path fill="none" stroke="rgb(0,0,0)" stroke-width="30" stroke-linejoin="round" d="M 11322,10911 L 11322,10761"/>
 <path fill="none" stroke="rgb(0,0,0)" stroke-width="30" stroke-linejoin="round" d="M 11322,10911 L 11322,10761"/>
 <path fill="none" stroke="rgb(0,0,0)" stroke-width="30" stroke-linejoin="round" d="M 11435,10911 L 11435,10761"/>
 <path fill="none" stroke="rgb(0,0,0)" stroke-width="30" stroke-linejoin="round" d="M 11435,10911 L 11435,10761"/>
 <path fill="none" stroke="rgb(0,0,0)" stroke-width="30" stroke-linejoin="round" d="M 11547,10911 L 11547,10761"/>
 <path fill="none" stroke="rgb(0,0,0)" stroke-width="30" stroke-linejoin="round" d="M 11547,10911 L 11547,10761"/>
 <path fill="none" stroke="rgb(0,0,0)" stroke-width="30" stroke-linejoin="round" d="M 11660,10911 L 11660,10761"/>
 <path fill="none" stroke="rgb(0,0,0)" stroke-width="30" stroke-linejoin="round" d="M 11660,10911 L 11660,10761"/>
 <path fill="none" stroke="rgb(0,0,0)" stroke-width="30" stroke-linejoin="round" d="M 11772,10911 L 11772,10761"/>
 <path fill="none" stroke="rgb(0,0,0)" stroke-width="30" stroke-linejoin="round" d="M 11772,10911 L 11772,10761"/>
 <path fill="none" stroke="rgb(0,0,0)" stroke-width="30" stroke-linejoin="round" d="M 11885,10911 L 11885,10761"/>
 <path fill="none" stroke="rgb(0,0,0)" stroke-width="30" stroke-linejoin="round" d="M 11885,10911 L 11885,10761"/>
 <path fill="none" stroke="rgb(0,0,0)" stroke-width="30" stroke-linejoin="round" d="M 11997,10911 L 11997,10761"/>
 <path fill="none" stroke="rgb(0,0,0)" stroke-width="30" stroke-linejoin="round" d="M 11997,10911 L 11997,10761"/>
 <path fill="none" stroke="rgb(0,0,0)" stroke-width="30" stroke-linejoin="round" d="M 12110,10911 L 12110,10761"/>
 <path fill="none" stroke="rgb(0,0,0)" stroke-width="30" stroke-linejoin="round" d="M 12110,10911 L 12110,10761"/>
 <path fill="none" stroke="rgb(0,0,0)" stroke-width="30" stroke-linejoin="round" d="M 12222,10911 L 12222,10761"/>
 <path fill="none" stroke="rgb(0,0,0)" stroke-width="30" stroke-linejoin="round" d="M 12222,10911 L 12222,10761"/>
 <path fill="none" stroke="rgb(0,0,0)" stroke-width="30" stroke-linejoin="round" d="M 12335,10911 L 12335,10761"/>
 <path fill="none" stroke="rgb(0,0,0)" stroke-width="30" stroke-linejoin="round" d="M 12335,10911 L 12335,10761"/>
 <path fill="none" stroke="rgb(0,0,0)" stroke-width="30" stroke-linejoin="round" d="M 12447,10911 L 12447,10761"/>
 <path fill="none" stroke="rgb(0,0,0)" stroke-width="30" stroke-linejoin="round" d="M 12447,10911 L 12447,10761"/>
 <path fill="none" stroke="rgb(0,0,0)" stroke-width="30" stroke-linejoin="round" d="M 12559,10911 L 12559,10761"/>
 <path fill="none" stroke="rgb(0,0,0)" stroke-width="30" stroke-linejoin="round" d="M 12559,10911 L 12559,10761"/>
 <path fill="none" stroke="rgb(0,0,0)" stroke-width="30" stroke-linejoin="round" d="M 12672,10911 L 12672,10761"/>
 <path fill="none" stroke="rgb(0,0,0)" stroke-width="30" stroke-linejoin="round" d="M 12672,10911 L 12672,10761"/>
 <path fill="none" stroke="rgb(0,0,0)" stroke-width="30" stroke-linejoin="round" d="M 12784,10911 L 12784,10761"/>
 <path fill="none" stroke="rgb(0,0,0)" stroke-width="30" stroke-linejoin="round" d="M 12784,10911 L 12784,10761"/>
 <path fill="none" stroke="rgb(0,0,0)" stroke-width="30" stroke-linejoin="round" d="M 12897,10911 L 12897,10761"/>
 <path fill="none" stroke="rgb(0,0,0)" stroke-width="30" stroke-linejoin="round" d="M 12897,10911 L 12897,10761"/>
 <path fill="none" stroke="rgb(0,0,0)" stroke-width="30" stroke-linejoin="round" d="M 13009,10911 L 13009,10761"/>
 <path fill="none" stroke="rgb(0,0,0)" stroke-width="30" stroke-linejoin="round" d="M 13009,10911 L 13009,10761"/>
 <path fill="none" stroke="rgb(0,0,0)" stroke-width="30" stroke-linejoin="round" d="M 13122,10911 L 13122,10761"/>
 <path fill="none" stroke="rgb(0,0,0)" stroke-width="30" stroke-linejoin="round" d="M 13122,10911 L 13122,10761"/>
 <path fill="none" stroke="rgb(0,0,0)" stroke-width="30" stroke-linejoin="round" d="M 13234,10911 L 13234,10761"/>
 <path fill="none" stroke="rgb(0,0,0)" stroke-width="30" stroke-linejoin="round" d="M 13234,10911 L 13234,10761"/>
 <path fill="none" stroke="rgb(0,0,0)" stroke-width="30" stroke-linejoin="round" d="M 13347,10911 L 13347,10761"/>
 <path fill="none" stroke="rgb(0,0,0)" stroke-width="30" stroke-linejoin="round" d="M 13347,10911 L 13347,10761"/>
 <path fill="none" stroke="rgb(0,0,0)" stroke-width="30" stroke-linejoin="round" d="M 13459,10911 L 13459,10761"/>
 <path fill="none" stroke="rgb(0,0,0)" stroke-width="30" stroke-linejoin="round" d="M 13459,10911 L 13459,10761"/>
 <path fill="none" stroke="rgb(0,0,0)" stroke-width="30" stroke-linejoin="round" d="M 13572,10911 L 13572,10761"/>
 <path fill="none" stroke="rgb(0,0,0)" stroke-width="30" stroke-linejoin="round" d="M 13572,10911 L 13572,10761"/>
 <path fill="none" stroke="rgb(0,0,0)" stroke-width="30" stroke-linejoin="round" d="M 13684,10911 L 13684,10761"/>
 <path fill="none" stroke="rgb(0,0,0)" stroke-width="30" stroke-linejoin="round" d="M 13684,10911 L 13684,10761"/>
 <path fill="none" stroke="rgb(0,0,0)" stroke-width="30" stroke-linejoin="round" d="M 13796,10911 L 13796,10761"/>
 <path fill="none" stroke="rgb(0,0,0)" stroke-width="30" stroke-linejoin="round" d="M 13796,10911 L 13796,10761"/>
 <path fill="none" stroke="rgb(0,0,0)" stroke-width="30" stroke-linejoin="round" d="M 13909,10911 L 13909,10761"/>
 <path fill="none" stroke="rgb(0,0,0)" stroke-width="30" stroke-linejoin="round" d="M 13909,10911 L 13909,10761"/>
 <path fill="none" stroke="rgb(0,0,0)" stroke-width="30" stroke-linejoin="round" d="M 14021,10911 L 14021,10761"/>
 <path fill="none" stroke="rgb(0,0,0)" stroke-width="30" stroke-linejoin="round" d="M 14021,10911 L 14021,10761"/>
 <path fill="none" stroke="rgb(0,0,0)" stroke-width="30" stroke-linejoin="round" d="M 14134,10911 L 14134,10761"/>
 <path fill="none" stroke="rgb(0,0,0)" stroke-width="30" stroke-linejoin="round" d="M 14134,10911 L 14134,10761"/>
 <path fill="none" stroke="rgb(0,0,0)" stroke-width="30" stroke-linejoin="round" d="M 14246,10911 L 14246,10761"/>
 <path fill="none" stroke="rgb(0,0,0)" stroke-width="30" stroke-linejoin="round" d="M 14246,10911 L 14246,10761"/>
 <path fill="none" stroke="rgb(0,0,0)" stroke-width="30" stroke-linejoin="round" d="M 14359,10911 L 14359,10761"/>
 <path fill="none" stroke="rgb(0,0,0)" stroke-width="30" stroke-linejoin="round" d="M 14359,10911 L 14359,10761"/>
 <path fill="none" stroke="rgb(0,0,0)" stroke-width="30" stroke-linejoin="round" d="M 14471,10911 L 14471,10761"/>
 <path fill="none" stroke="rgb(0,0,0)" stroke-width="30" stroke-linejoin="round" d="M 14471,10911 L 14471,10761"/>
 <path fill="none" stroke="rgb(0,0,0)" stroke-width="30" stroke-linejoin="round" d="M 14584,10911 L 14584,10761"/>
 <path fill="none" stroke="rgb(0,0,0)" stroke-width="30" stroke-linejoin="round" d="M 14584,10911 L 14584,10761"/>
 <path fill="none" stroke="rgb(0,0,0)" stroke-width="30" stroke-linejoin="round" d="M 14696,10911 L 14696,10761"/>
 <path fill="none" stroke="rgb(0,0,0)" stroke-width="30" stroke-linejoin="round" d="M 14696,10911 L 14696,10761"/>
 <path fill="none" stroke="rgb(0,0,0)" stroke-width="30" stroke-linejoin="round" d="M 14809,10911 L 14809,10761"/>
 <path fill="none" stroke="rgb(0,0,0)" stroke-width="30" stroke-linejoin="round" d="M 14809,10911 L 14809,10761"/>
 <path fill="none" stroke="rgb(0,0,0)" stroke-width="30" stroke-linejoin="round" d="M 1428,10761 L 14809,10761"/>
 <path fill="none" stroke="rgb(0,0,0)" stroke-width="30" stroke-linejoin="round" d="M 1278,10761 L 1428,10761"/>
 <path fill="none" stroke="rgb(0,0,0)" stroke-width="30" stroke-linejoin="round" d="M 1278,10761 L 1428,10761"/>
 <path fill="none" stroke="rgb(0,0,0)" stroke-width="30" stroke-linejoin="round" d="M 1278,9794 L 1428,9794"/>
 <path fill="none" stroke="rgb(0,0,0)" stroke-width="30" stroke-linejoin="round" d="M 1278,9794 L 1428,9794"/>
 <path fill="none" stroke="rgb(0,0,0)" stroke-width="30" stroke-linejoin="round" d="M 1278,8827 L 1428,8827"/>
 <path fill="none" stroke="rgb(0,0,0)" stroke-width="30" stroke-linejoin="round" d="M 1278,8827 L 1428,8827"/>
 <path fill="none" stroke="rgb(0,0,0)" stroke-width="30" stroke-linejoin="round" d="M 1278,7860 L 1428,7860"/>
 <path fill="none" stroke="rgb(0,0,0)" stroke-width="30" stroke-linejoin="round" d="M 1278,7860 L 1428,7860"/>
 <path fill="none" stroke="rgb(0,0,0)" stroke-width="30" stroke-linejoin="round" d="M 1278,6893 L 1428,6893"/>
 <path fill="none" stroke="rgb(0,0,0)" stroke-width="30" stroke-linejoin="round" d="M 1278,6893 L 1428,6893"/>
 <path fill="none" stroke="rgb(0,0,0)" stroke-width="30" stroke-linejoin="round" d="M 1278,5927 L 1428,5927"/>
 <path fill="none" stroke="rgb(0,0,0)" stroke-width="30" stroke-linejoin="round" d="M 1278,5927 L 1428,5927"/>
 <path fill="none" stroke="rgb(0,0,0)" stroke-width="30" stroke-linejoin="round" d="M 1278,4959 L 1428,4959"/>
 <path fill="none" stroke="rgb(0,0,0)" stroke-width="30" stroke-linejoin="round" d="M 1278,4959 L 1428,4959"/>
 <path fill="none" stroke="rgb(0,0,0)" stroke-width="30" stroke-linejoin="round" d="M 1278,3992 L 1428,3992"/>
 <path fill="none" stroke="rgb(0,0,0)" stroke-width="30" stroke-linejoin="round" d="M 1278,3992 L 1428,3992"/>
 <path fill="none" stroke="rgb(0,0,0)" stroke-width="30" stroke-linejoin="round" d="M 1278,3026 L 1428,3026"/>
 <path fill="none" stroke="rgb(0,0,0)" stroke-width="30" stroke-linejoin="round" d="M 1278,3026 L 1428,3026"/>
 <path fill="none" stroke="rgb(0,0,0)" stroke-width="30" stroke-linejoin="round" d="M 1278,2059 L 1428,2059"/>
 <path fill="none" stroke="rgb(0,0,0)" stroke-width="30" stroke-linejoin="round" d="M 1278,2059 L 1428,2059"/>
 <path fill="none" stroke="rgb(0,0,0)" stroke-width="30" stroke-linejoin="round" d="M 1278,1092 L 1428,1092"/>
 <path fill="none" stroke="rgb(0,0,0)" stroke-width="30" stroke-linejoin="round" d="M 1278,1092 L 1428,1092"/>
 <path fill="none" stroke="rgb(0,0,0)" stroke-width="30" stroke-linejoin="round" d="M 1428,10761 L 1428,1092"/>
 <path fill="none" stroke="rgb(0,0,0)" stroke-width="30" stroke-linejoin="round" d="M 14959,10761 L 14809,10761"/>
 <path fill="none" stroke="rgb(0,0,0)" stroke-width="30" stroke-linejoin="round" d="M 14959,10761 L 14809,10761"/>
 <path fill="none" stroke="rgb(0,0,0)" stroke-width="30" stroke-linejoin="round" d="M 14959,9794 L 14809,9794"/>
 <path fill="none" stroke="rgb(0,0,0)" stroke-width="30" stroke-linejoin="round" d="M 14959,9794 L 14809,9794"/>
 <path fill="none" stroke="rgb(0,0,0)" stroke-width="30" stroke-linejoin="round" d="M 14959,8827 L 14809,8827"/>
 <path fill="none" stroke="rgb(0,0,0)" stroke-width="30" stroke-linejoin="round" d="M 14959,8827 L 14809,8827"/>
 <path fill="none" stroke="rgb(0,0,0)" stroke-width="30" stroke-linejoin="round" d="M 14959,7860 L 14809,7860"/>
 <path fill="none" stroke="rgb(0,0,0)" stroke-width="30" stroke-linejoin="round" d="M 14959,7860 L 14809,7860"/>
 <path fill="none" stroke="rgb(0,0,0)" stroke-width="30" stroke-linejoin="round" d="M 14959,6893 L 14809,6893"/>
 <path fill="none" stroke="rgb(0,0,0)" stroke-width="30" stroke-linejoin="round" d="M 14959,6893 L 14809,6893"/>
 <path fill="none" stroke="rgb(0,0,0)" stroke-width="30" stroke-linejoin="round" d="M 14959,5927 L 14809,5927"/>
 <path fill="none" stroke="rgb(0,0,0)" stroke-width="30" stroke-linejoin="round" d="M 14959,5927 L 14809,5927"/>
 <path fill="none" stroke="rgb(0,0,0)" stroke-width="30" stroke-linejoin="round" d="M 14959,4959 L 14809,4959"/>
 <path fill="none" stroke="rgb(0,0,0)" stroke-width="30" stroke-linejoin="round" d="M 14959,4959 L 14809,4959"/>
 <path fill="none" stroke="rgb(0,0,0)" stroke-width="30" stroke-linejoin="round" d="M 14959,3992 L 14809,3992"/>
 <path fill="none" stroke="rgb(0,0,0)" stroke-width="30" stroke-linejoin="round" d="M 14959,3992 L 14809,3992"/>
 <path fill="none" stroke="rgb(0,0,0)" stroke-width="30" stroke-linejoin="round" d="M 14959,3026 L 14809,3026"/>
 <path fill="none" stroke="rgb(0,0,0)" stroke-width="30" stroke-linejoin="round" d="M 14959,3026 L 14809,3026"/>
 <path fill="none" stroke="rgb(0,0,0)" stroke-width="30" stroke-linejoin="round" d="M 14959,2059 L 14809,2059"/>
 <path fill="none" stroke="rgb(0,0,0)" stroke-width="30" stroke-linejoin="round" d="M 14959,2059 L 14809,2059"/>
 <path fill="none" stroke="rgb(0,0,0)" stroke-width="30" stroke-linejoin="round" d="M 14959,1092 L 14809,1092"/>
 <path fill="none" stroke="rgb(0,0,0)" stroke-width="30" stroke-linejoin="round" d="M 14959,1092 L 14809,1092"/>
 <path fill="none" stroke="rgb(0,0,0)" stroke-width="30" stroke-linejoin="round" d="M 14809,10761 L 14809,1092"/>
 <path fill="rgb(0,69,134)" stroke="none" d="M 1428,9454 L 1540,9499 1652,9450 1765,9420 1877,9489 1990,9466 2102,9448 2215,9463 2327,9459 2440,9445 2552,9434 2664,9445 2777,9476 2889,9476 3002,9493 3114,9488 3227,9497 3339,9496 3452,9505 3564,9512 3677,9520 3789,9552 3901,9530 4014,9556 4126,9575 4239,9585 4351,9597 4464,9582 4576,9586 4689,9580 4801,9554 4914,9527 5026,9558 5138,9565 5251,9559 5363,9588 5476,9611 5588,9642 5701,9694 5813,9660 5926,9622 6038,9648 6151,9643 6263,9669 6375,9740 6488,9722 6600,9708 6713,9712 6825,9742 6938,9790 7050,9801 7163,9803 7275,9849 7388,9895 7500,9880 7612,9894 7725,9903 7837,9913 7950,9939 8062,9947 8175,9979 8286,10063 8399,10042 8511,10039 8624,10047 8736,10031 8848,10015 8961,10048 9073,10073 9186,10111 9298,10109 9411,10095 9523,10112 9636,10153 9748,10146 9861,10138 9973,10151 10085,10131 10198,10093 10310,10061 10423,10046 10535,10085 10648,10063 10760,10109 10873,10145 10985,10160 11098,10200 11210,10200 11322,10202 11435,10210 11547,10231 11660,10237 11772,10257 11885,10272 11997,10271 12110,10274 12222,10319 12335,10354 12447,10371 12559,10350 12672,10371 12784,10394 12897,10398 13009,10405 13122,10422 13234,10417 13347,10427 13459,10438 13572,10457 13684,10486 13796,10496 13909,10483 14021,10486 14134,10493 14246,10489 14359,10500 14471,10519 14584,10516 14696,10507 14809,10505 14809,10761 1428,10761 1428,9454 Z"/>
 <path fill="none" stroke="rgb(0,0,0)" stroke-linejoin="round" d="M 1428,9454 L 1540,9499 1652,9450 1765,9420 1877,9489 1990,9466 2102,9448 2215,9463 2327,9459 2440,9445 2552,9434 2664,9445 2777,9476 2889,9476 3002,9493 3114,9488 3227,9497 3339,9496 3452,9505 3564,9512 3677,9520 3789,9552 3901,9530 4014,9556 4126,9575 4239,9585 4351,9597 4464,9582 4576,9586 4689,9580 4801,9554 4914,9527 5026,9558 5138,9565 5251,9559 5363,9588 5476,9611 5588,9642 5701,9694 5813,9660 5926,9622 6038,9648 6151,9643 6263,9669 6375,9740 6488,9722 6600,9708 6713,9712 6825,9742 6938,9790 7050,9801 7163,9803 7275,9849 7388,9895 7500,9880 7612,9894 7725,9903 7837,9913 7950,9939 8062,9947 8175,9979 8286,10063 8399,10042 8511,10039 8624,10047 8736,10031 8848,10015 8961,10048 9073,10073 9186,10111 9298,10109 9411,10095 9523,10112 9636,10153 9748,10146 9861,10138 9973,10151 10085,10131 10198,10093 10310,10061 10423,10046 10535,10085 10648,10063 10760,10109 10873,10145 10985,10160 11098,10200 11210,10200 11322,10202 11435,10210 11547,10231 11660,10237 11772,10257 11885,10272 11997,10271 12110,10274 12222,10319 12335,10354 12447,10371 12559,10350 12672,10371 12784,10394 12897,10398 13009,10405 13122,10422 13234,10417 13347,10427 13459,10438 13572,10457 13684,10486 13796,10496 13909,10483 14021,10486 14134,10493 14246,10489 14359,10500 14471,10519 14584,10516 14696,10507 14809,10505 14809,10761 1428,10761 1428,9454 Z"/>
 <path fill="rgb(255,66,14)" stroke="none" d="M 1428,3687 L 1540,3793 1652,3927 1765,3993 1877,4124 1990,4074 2102,4255 2215,4373 2327,4428 2440,4537 2552,4630 2664,4679 2777,4862 2889,4973 3002,5131 3114,5165 3227,5242 3339,5317 3452,5378 3564,5462 3677,5535 3789,5639 3901,5707 4014,5773 4126,5912 4239,6016 4351,6214 4464,6254 4576,6352 4689,6431 4801,6422 4914,6428 5026,6520 5138,6629 5251,6664 5363,6727 5476,6754 5588,6856 5701,7017 5813,6990 5926,6988 6038,7074 6151,7101 6263,7169 6375,7293 6488,7346 6600,7378 6713,7511 6825,7479 6938,7420 7050,7465 7163,7532 7275,7596 7388,7595 7500,7675 7612,7798 7725,7845 7837,7887 7950,7868 8062,7952 8175,7968 8286,7891 8399,7973 8511,7878 8624,7935 8736,7981 8848,8001 8961,8023 9073,8026 9186,8214 9298,8256 9411,8324 9523,8341 9636,8386 9748,8385 9861,8431 9973,8482 10085,8494 10198,8511 10310,8482 10423,8314 10535,8473 10648,8530 10760,8607 10873,8651 10985,8668 11098,8588 11210,8588 11322,8807 11435,8881 11547,8920 11660,8950 11772,8976 11885,9008 11997,9101 12110,9108 12222,9159 12335,9173 12447,9230 12559,9263 12672,9325 12784,9273 12897,9324 13009,9385 13122,9383 13234,9469 13347,9525 13459,9489 13572,9561 13684,9516 13796,9541 13909,9543 14021,9535 14134,9504 14246,9570 14359,9595 14471,9565 14584,9597 14696,9577 14809,9546 14809,10505 14696,10507 14584,10516 14471,10519 14359,10500 14246,10489 14134,10493 14021,10486 13909,10483 13796,10496 13684,10486 13572,10457 13459,10438 13347,10427 13234,10417 13122,10422 13009,10405 12897,10398 12784,10394 12672,10371 12559,10350 12447,10371 12335,10354 12222,10319 12110,10274 11997,10271 11885,10272 11772,10257 11660,10237 11547,10231 11435,10210 11322,10202 11210,10200 11098,10200 10985,10160 10873,10145 10760,10109 10648,10063 10535,10085 10423,10046 10310,10061 10198,10093 10085,10131 9973,10151 9861,10138 9748,10146 9636,10153 9523,10112 9411,10095 9298,10109 9186,10111 9073,10073 8961,10048 8848,10015 8736,10031 8624,10047 8511,10039 8399,10042 8286,10063 8175,9979 8062,9947 7950,9939 7837,9913 7725,9903 7612,9894 7500,9880 7388,9895 7275,9849 7163,9803 7050,9801 6938,9790 6825,9742 6713,9712 6600,9708 6488,9722 6375,9740 6263,9669 6151,9643 6038,9648 5926,9622 5813,9660 5701,9694 5588,9642 5476,9611 5363,9588 5251,9559 5138,9565 5026,9558 4914,9527 4801,9554 4689,9580 4576,9586 4464,9582 4351,9597 4239,9585 4126,9575 4014,9556 3901,9530 3789,9552 3677,9520 3564,9512 3452,9505 3339,9496 3227,9497 3114,9488 3002,9493 2889,9476 2777,9476 2664,9445 2552,9434 2440,9445 2327,9459 2215,9463 2102,9448 1990,9466 1877,9489 1765,9420 1652,9450 1540,9499 1428,9454 1428,3687 Z"/>
 <path fill="none" stroke="rgb(0,0,0)" stroke-linejoin="round" d="M 1428,3687 L 1540,3793 1652,3927 1765,3993 1877,4124 1990,4074 2102,4255 2215,4373 2327,4428 2440,4537 2552,4630 2664,4679 2777,4862 2889,4973 3002,5131 3114,5165 3227,5242 3339,5317 3452,5378 3564,5462 3677,5535 3789,5639 3901,5707 4014,5773 4126,5912 4239,6016 4351,6214 4464,6254 4576,6352 4689,6431 4801,6422 4914,6428 5026,6520 5138,6629 5251,6664 5363,6727 5476,6754 5588,6856 5701,7017 5813,6990 5926,6988 6038,7074 6151,7101 6263,7169 6375,7293 6488,7346 6600,7378 6713,7511 6825,7479 6938,7420 7050,7465 7163,7532 7275,7596 7388,7595 7500,7675 7612,7798 7725,7845 7837,7887 7950,7868 8062,7952 8175,7968 8286,7891 8399,7973 8511,7878 8624,7935 8736,7981 8848,8001 8961,8023 9073,8026 9186,8214 9298,8256 9411,8324 9523,8341 9636,8386 9748,8385 9861,8431 9973,8482 10085,8494 10198,8511 10310,8482 10423,8314 10535,8473 10648,8530 10760,8607 10873,8651 10985,8668 11098,8588 11210,8588 11322,8807 11435,8881 11547,8920 11660,8950 11772,8976 11885,9008 11997,9101 12110,9108 12222,9159 12335,9173 12447,9230 12559,9263 12672,9325 12784,9273 12897,9324 13009,9385 13122,9383 13234,9469 13347,9525 13459,9489 13572,9561 13684,9516 13796,9541 13909,9543 14021,9535 14134,9504 14246,9570 14359,9595 14471,9565 14584,9597 14696,9577 14809,9546 14809,10505 14696,10507 14584,10516 14471,10519 14359,10500 14246,10489 14134,10493 14021,10486 13909,10483 13796,10496 13684,10486 13572,10457 13459,10438 13347,10427 13234,10417 13122,10422 13009,10405 12897,10398 12784,10394 12672,10371 12559,10350 12447,10371 12335,10354 12222,10319 12110,10274 11997,10271 11885,10272 11772,10257 11660,10237 11547,10231 11435,10210 11322,10202 11210,10200 11098,10200 10985,10160 10873,10145 10760,10109 10648,10063 10535,10085 10423,10046 10310,10061 10198,10093 10085,10131 9973,10151 9861,10138 9748,10146 9636,10153 9523,10112 9411,10095 9298,10109 9186,10111 9073,10073 8961,10048 8848,10015 8736,10031 8624,10047 8511,10039 8399,10042 8286,10063 8175,9979 8062,9947 7950,9939 7837,9913 7725,9903 7612,9894 7500,9880 7388,9895 7275,9849 7163,9803 7050,9801 6938,9790 6825,9742 6713,9712 6600,9708 6488,9722 6375,9740 6263,9669 6151,9643 6038,9648 5926,9622 5813,9660 5701,9694 5588,9642 5476,9611 5363,9588 5251,9559 5138,9565 5026,9558 4914,9527 4801,9554 4689,9580 4576,9586 4464,9582 4351,9597 4239,9585 4126,9575 4014,9556 3901,9530 3789,9552 3677,9520 3564,9512 3452,9505 3339,9496 3227,9497 3114,9488 3002,9493 2889,9476 2777,9476 2664,9445 2552,9434 2440,9445 2327,9459 2215,9463 2102,9448 1990,9466 1877,9489 1765,9420 1652,9450 1540,9499 1428,9454 1428,3687 Z"/>
 <path fill="rgb(255,211,32)" stroke="none" d="M 1428,1356 L 1540,1364 1652,1360 1765,1367 1877,1370 1990,1371 2102,1377 2215,1384 2327,1386 2440,1396 2552,1401 2664,1418 2777,1436 2889,1470 3002,1513 3114,1551 3227,1589 3339,1647 3452,1681 3564,1734 3677,1776 3789,1862 3901,1934 4014,2012 4126,2114 4239,2248 4351,2441 4464,2552 4576,2673 4689,2778 4801,2849 4914,2925 5026,3039 5138,3165 5251,3242 5363,3345 5476,3414 5588,3520 5701,3688 5813,3715 5926,3760 6038,3840 6151,3899 6263,4009 6375,4121 6488,4211 6600,4252 6713,4356 6825,4401 6938,4454 7050,4528 7163,4584 7275,4674 7388,4705 7500,4800 7612,4899 7725,4912 7837,4961 7950,5005 8062,5147 8175,5192 8286,5223 8399,5340 8511,5404 8624,5426 8736,5453 8848,5477 8961,5571 9073,5621 9186,5840 9298,5876 9411,5910 9523,5960 9636,6041 9748,6073 9861,6142 9973,6198 10085,6241 10198,6247 10310,6226 10423,6179 10535,6362 10648,6531 10760,6643 10873,6696 10985,6752 11098,6726 11210,6726 11322,6878 11435,6988 11547,7010 11660,7098 11772,7174 11885,7224 11997,7372 12110,7376 12222,7438 12335,7508 12447,7594 12559,7611 12672,7732 12784,7696 12897,7780 13009,7901 13122,7975 13234,8162 13347,8224 13459,8245 13572,8334 13684,8343 13796,8362 13909,8356 14021,8373 14134,8348 14246,8445 14359,8489 14471,8493 14584,8534 14696,8454 14809,8390 14809,9546 14696,9577 14584,9597 14471,9565 14359,9595 14246,9570 14134,9504 14021,9535 13909,9543 13796,9541 13684,9516 13572,9561 13459,9489 13347,9525 13234,9469 13122,9383 13009,9385 12897,9324 12784,9273 12672,9325 12559,9263 12447,9230 12335,9173 12222,9159 12110,9108 11997,9101 11885,9008 11772,8976 11660,8950 11547,8920 11435,8881 11322,8807 11210,8588 11098,8588 10985,8668 10873,8651 10760,8607 10648,8530 10535,8473 10423,8314 10310,8482 10198,8511 10085,8494 9973,8482 9861,8431 9748,8385 9636,8386 9523,8341 9411,8324 9298,8256 9186,8214 9073,8026 8961,8023 8848,8001 8736,7981 8624,7935 8511,7878 8399,7973 8286,7891 8175,7968 8062,7952 7950,7868 7837,7887 7725,7845 7612,7798 7500,7675 7388,7595 7275,7596 7163,7532 7050,7465 6938,7420 6825,7479 6713,7511 6600,7378 6488,7346 6375,7293 6263,7169 6151,7101 6038,7074 5926,6988 5813,6990 5701,7017 5588,6856 5476,6754 5363,6727 5251,6664 5138,6629 5026,6520 4914,6428 4801,6422 4689,6431 4576,6352 4464,6254 4351,6214 4239,6016 4126,5912 4014,5773 3901,5707 3789,5639 3677,5535 3564,5462 3452,5378 3339,5317 3227,5242 3114,5165 3002,5131 2889,4973 2777,4862 2664,4679 2552,4630 2440,4537 2327,4428 2215,4373 2102,4255 1990,4074 1877,4124 1765,3993 1652,3927 1540,3793 1428,3687 1428,1356 Z"/>
 <path fill="none" stroke="rgb(0,0,0)" stroke-linejoin="round" d="M 1428,1356 L 1540,1364 1652,1360 1765,1367 1877,1370 1990,1371 2102,1377 2215,1384 2327,1386 2440,1396 2552,1401 2664,1418 2777,1436 2889,1470 3002,1513 3114,1551 3227,1589 3339,1647 3452,1681 3564,1734 3677,1776 3789,1862 3901,1934 4014,2012 4126,2114 4239,2248 4351,2441 4464,2552 4576,2673 4689,2778 4801,2849 4914,2925 5026,3039 5138,3165 5251,3242 5363,3345 5476,3414 5588,3520 5701,3688 5813,3715 5926,3760 6038,3840 6151,3899 6263,4009 6375,4121 6488,4211 6600,4252 6713,4356 6825,4401 6938,4454 7050,4528 7163,4584 7275,4674 7388,4705 7500,4800 7612,4899 7725,4912 7837,4961 7950,5005 8062,5147 8175,5192 8286,5223 8399,5340 8511,5404 8624,5426 8736,5453 8848,5477 8961,5571 9073,5621 9186,5840 9298,5876 9411,5910 9523,5960 9636,6041 9748,6073 9861,6142 9973,6198 10085,6241 10198,6247 10310,6226 10423,6179 10535,6362 10648,6531 10760,6643 10873,6696 10985,6752 11098,6726 11210,6726 11322,6878 11435,6988 11547,7010 11660,7098 11772,7174 11885,7224 11997,7372 12110,7376 12222,7438 12335,7508 12447,7594 12559,7611 12672,7732 12784,7696 12897,7780 13009,7901 13122,7975 13234,8162 13347,8224 13459,8245 13572,8334 13684,8343 13796,8362 13909,8356 14021,8373 14134,8348 14246,8445 14359,8489 14471,8493 14584,8534 14696,8454 14809,8390 14809,9546 14696,9577 14584,9597 14471,9565 14359,9595 14246,9570 14134,9504 14021,9535 13909,9543 13796,9541 13684,9516 13572,9561 13459,9489 13347,9525 13234,9469 13122,9383 13009,9385 12897,9324 12784,9273 12672,9325 12559,9263 12447,9230 12335,9173 12222,9159 12110,9108 11997,9101 11885,9008 11772,8976 11660,8950 11547,8920 11435,8881 11322,8807 11210,8588 11098,8588 10985,8668 10873,8651 10760,8607 10648,8530 10535,8473 10423,8314 10310,8482 10198,8511 10085,8494 9973,8482 9861,8431 9748,8385 9636,8386 9523,8341 9411,8324 9298,8256 9186,8214 9073,8026 8961,8023 8848,8001 8736,7981 8624,7935 8511,7878 8399,7973 8286,7891 8175,7968 8062,7952 7950,7868 7837,7887 7725,7845 7612,7798 7500,7675 7388,7595 7275,7596 7163,7532 7050,7465 6938,7420 6825,7479 6713,7511 6600,7378 6488,7346 6375,7293 6263,7169 6151,7101 6038,7074 5926,6988 5813,6990 5701,7017 5588,6856 5476,6754 5363,6727 5251,6664 5138,6629 5026,6520 4914,6428 4801,6422 4689,6431 4576,6352 4464,6254 4351,6214 4239,6016 4126,5912 4014,5773 3901,5707 3789,5639 3677,5535 3564,5462 3452,5378 3339,5317 3227,5242 3114,5165 3002,5131 2889,4973 2777,4862 2664,4679 2552,4630 2440,4537 2327,4428 2215,4373 2102,4255 1990,4074 1877,4124 1765,3993 1652,3927 1540,3793 1428,3687 1428,1356 Z"/>
 <path fill="rgb(87,157,28)" stroke="none" d="M 1428,1127 L 1540,1125 1652,1121 1765,1125 1877,1123 1990,1128 2102,1128 2215,1128 2327,1124 2440,1130 2552,1132 2664,1136 2777,1131 2889,1139 3002,1142 3114,1149 3227,1152 3339,1164 3452,1171 3564,1179 3677,1172 3789,1182 3901,1193 4014,1206 4126,1215 4239,1222 4351,1233 4464,1248 4576,1258 4689,1275 4801,1274 4914,1281 5026,1305 5138,1330 5251,1342 5363,1347 5476,1345 5588,1362 5701,1373 5813,1397 5926,1390 6038,1411 6151,1428 6263,1446 6375,1476 6488,1515 6600,1513 6713,1518 6825,1529 6938,1549 7050,1559 7163,1571 7275,1592 7388,1594 7500,1623 7612,1625 7725,1619 7837,1599 7950,1591 8062,1605 8175,1583 8286,1580 8399,1577 8511,1600 8624,1554 8736,1562 8848,1579 8961,1592 9073,1625 9186,1707 9298,1689 9411,1651 9523,1587 9636,1600 9748,1606 9861,1597 9973,1576 10085,1583 10198,1630 10310,1574 10423,1558 10535,1531 10648,1560 10760,1586 10873,1589 10985,1585 11098,1576 11210,1576 11322,1625 11435,1629 11547,1619 11660,1596 11772,1574 11885,1555 11997,1550 12110,1560 12222,1548 12335,1558 12447,1576 12559,1619 12672,1619 12784,1614 12897,1628 13009,1648 13122,1645 13234,1660 13347,1696 13459,1701 13572,1723 13684,1675 13796,1627 13909,1613 14021,1597 14134,1631 14246,1633 14359,1650 14471,1663 14584,1699 14696,1717 14809,1704 14809,8390 14696,8454 14584,8534 14471,8493 14359,8489 14246,8445 14134,8348 14021,8373 13909,8356 13796,8362 13684,8343 13572,8334 13459,8245 13347,8224 13234,8162 13122,7975 13009,7901 12897,7780 12784,7696 12672,7732 12559,7611 12447,7594 12335,7508 12222,7438 12110,7376 11997,7372 11885,7224 11772,7174 11660,7098 11547,7010 11435,6988 11322,6878 11210,6726 11098,6726 10985,6752 10873,6696 10760,6643 10648,6531 10535,6362 10423,6179 10310,6226 10198,6247 10085,6241 9973,6198 9861,6142 9748,6073 9636,6041 9523,5960 9411,5910 9298,5876 9186,5840 9073,5621 8961,5571 8848,5477 8736,5453 8624,5426 8511,5404 8399,5340 8286,5223 8175,5192 8062,5147 7950,5005 7837,4961 7725,4912 7612,4899 7500,4800 7388,4705 7275,4674 7163,4584 7050,4528 6938,4454 6825,4401 6713,4356 6600,4252 6488,4211 6375,4121 6263,4009 6151,3899 6038,3840 5926,3760 5813,3715 5701,3688 5588,3520 5476,3414 5363,3345 5251,3242 5138,3165 5026,3039 4914,2925 4801,2849 4689,2778 4576,2673 4464,2552 4351,2441 4239,2248 4126,2114 4014,2012 3901,1934 3789,1862 3677,1776 3564,1734 3452,1681 3339,1647 3227,1589 3114,1551 3002,1513 2889,1470 2777,1436 2664,1418 2552,1401 2440,1396 2327,1386 2215,1384 2102,1377 1990,1371 1877,1370 1765,1367 1652,1360 1540,1364 1428,1356 1428,1127 Z"/>
 <path fill="none" stroke="rgb(0,0,0)" stroke-linejoin="round" d="M 1428,1127 L 1540,1125 1652,1121 1765,1125 1877,1123 1990,1128 2102,1128 2215,1128 2327,1124 2440,1130 2552,1132 2664,1136 2777,1131 2889,1139 3002,1142 3114,1149 3227,1152 3339,1164 3452,1171 3564,1179 3677,1172 3789,1182 3901,1193 4014,1206 4126,1215 4239,1222 4351,1233 4464,1248 4576,1258 4689,1275 4801,1274 4914,1281 5026,1305 5138,1330 5251,1342 5363,1347 5476,1345 5588,1362 5701,1373 5813,1397 5926,1390 6038,1411 6151,1428 6263,1446 6375,1476 6488,1515 6600,1513 6713,1518 6825,1529 6938,1549 7050,1559 7163,1571 7275,1592 7388,1594 7500,1623 7612,1625 7725,1619 7837,1599 7950,1591 8062,1605 8175,1583 8286,1580 8399,1577 8511,1600 8624,1554 8736,1562 8848,1579 8961,1592 9073,1625 9186,1707 9298,1689 9411,1651 9523,1587 9636,1600 9748,1606 9861,1597 9973,1576 10085,1583 10198,1630 10310,1574 10423,1558 10535,1531 10648,1560 10760,1586 10873,1589 10985,1585 11098,1576 11210,1576 11322,1625 11435,1629 11547,1619 11660,1596 11772,1574 11885,1555 11997,1550 12110,1560 12222,1548 12335,1558 12447,1576 12559,1619 12672,1619 12784,1614 12897,1628 13009,1648 13122,1645 13234,1660 13347,1696 13459,1701 13572,1723 13684,1675 13796,1627 13909,1613 14021,1597 14134,1631 14246,1633 14359,1650 14471,1663 14584,1699 14696,1717 14809,1704 14809,8390 14696,8454 14584,8534 14471,8493 14359,8489 14246,8445 14134,8348 14021,8373 13909,8356 13796,8362 13684,8343 13572,8334 13459,8245 13347,8224 13234,8162 13122,7975 13009,7901 12897,7780 12784,7696 12672,7732 12559,7611 12447,7594 12335,7508 12222,7438 12110,7376 11997,7372 11885,7224 11772,7174 11660,7098 11547,7010 11435,6988 11322,6878 11210,6726 11098,6726 10985,6752 10873,6696 10760,6643 10648,6531 10535,6362 10423,6179 10310,6226 10198,6247 10085,6241 9973,6198 9861,6142 9748,6073 9636,6041 9523,5960 9411,5910 9298,5876 9186,5840 9073,5621 8961,5571 8848,5477 8736,5453 8624,5426 8511,5404 8399,5340 8286,5223 8175,5192 8062,5147 7950,5005 7837,4961 7725,4912 7612,4899 7500,4800 7388,4705 7275,4674 7163,4584 7050,4528 6938,4454 6825,4401 6713,4356 6600,4252 6488,4211 6375,4121 6263,4009 6151,3899 6038,3840 5926,3760 5813,3715 5701,3688 5588,3520 5476,3414 5363,3345 5251,3242 5138,3165 5026,3039 4914,2925 4801,2849 4689,2778 4576,2673 4464,2552 4351,2441 4239,2248 4126,2114 4014,2012 3901,1934 3789,1862 3677,1776 3564,1734 3452,1681 3339,1647 3227,1589 3114,1551 3002,1513 2889,1470 2777,1436 2664,1418 2552,1401 2440,1396 2327,1386 2215,1384 2102,1377 1990,1371 1877,1370 1765,1367 1652,1360 1540,1364 1428,1356 1428,1127 Z"/>
 <path fill="rgb(126,0,33)" stroke="none" d="M 1428,1092 L 1540,1092 1652,1092 1765,1092 1877,1092 1990,1092 2102,1092 2215,1092 2327,1092 2440,1092 2552,1092 2664,1092 2777,1092 2889,1092 3002,1092 3114,1092 3227,1092 3339,1092 3452,1092 3564,1092 3677,1092 3789,1092 3901,1092 4014,1092 4126,1092 4239,1092 4351,1092 4464,1092 4576,1092 4689,1092 4801,1092 4914,1092 5026,1092 5138,1092 5251,1092 5363,1092 5476,1092 5588,1092 5701,1092 5813,1092 5926,1092 6038,1092 6151,1092 6263,1092 6375,1092 6488,1092 6600,1092 6713,1092 6825,1092 6938,1092 7050,1092 7163,1092 7275,1092 7388,1092 7500,1092 7612,1092 7725,1092 7837,1092 7950,1092 8062,1092 8175,1092 8286,1092 8399,1092 8511,1092 8624,1092 8736,1092 8848,1092 8961,1092 9073,1092 9186,1092 9298,1092 9411,1092 9523,1092 9636,1092 9748,1092 9861,1092 9973,1092 10085,1092 10198,1092 10310,1092 10423,1092 10535,1092 10648,1092 10760,1092 10873,1092 10985,1092 11098,1092 11210,1092 11322,1092 11435,1092 11547,1092 11660,1092 11772,1092 11885,1092 11997,1092 12110,1092 12222,1092 12335,1092 12447,1092 12559,1092 12672,1092 12784,1092 12897,1092 13009,1092 13122,1092 13234,1092 13347,1092 13459,1092 13572,1092 13684,1092 13796,1092 13909,1092 14021,1092 14134,1092 14246,1092 14359,1092 14471,1092 14584,1092 14696,1092 14809,1092 14809,1704 14696,1717 14584,1699 14471,1663 14359,1650 14246,1633 14134,1631 14021,1597 13909,1613 13796,1627 13684,1675 13572,1723 13459,1701 13347,1696 13234,1660 13122,1645 13009,1648 12897,1628 12784,1614 12672,1619 12559,1619 12447,1576 12335,1558 12222,1548 12110,1560 11997,1550 11885,1555 11772,1574 11660,1596 11547,1619 11435,1629 11322,1625 11210,1576 11098,1576 10985,1585 10873,1589 10760,1586 10648,1560 10535,1531 10423,1558 10310,1574 10198,1630 10085,1583 9973,1576 9861,1597 9748,1606 9636,1600 9523,1587 9411,1651 9298,1689 9186,1707 9073,1625 8961,1592 8848,1579 8736,1562 8624,1554 8511,1600 8399,1577 8286,1580 8175,1583 8062,1605 7950,1591 7837,1599 7725,1619 7612,1625 7500,1623 7388,1594 7275,1592 7163,1571 7050,1559 6938,1549 6825,1529 6713,1518 6600,1513 6488,1515 6375,1476 6263,1446 6151,1428 6038,1411 5926,1390 5813,1397 5701,1373 5588,1362 5476,1345 5363,1347 5251,1342 5138,1330 5026,1305 4914,1281 4801,1274 4689,1275 4576,1258 4464,1248 4351,1233 4239,1222 4126,1215 4014,1206 3901,1193 3789,1182 3677,1172 3564,1179 3452,1171 3339,1164 3227,1152 3114,1149 3002,1142 2889,1139 2777,1131 2664,1136 2552,1132 2440,1130 2327,1124 2215,1128 2102,1128 1990,1128 1877,1123 1765,1125 1652,1121 1540,1125 1428,1127 1428,1092 Z"/>
 <path fill="none" stroke="rgb(0,0,0)" stroke-linejoin="round" d="M 1428,1092 L 1540,1092 1652,1092 1765,1092 1877,1092 1990,1092 2102,1092 2215,1092 2327,1092 2440,1092 2552,1092 2664,1092 2777,1092 2889,1092 3002,1092 3114,1092 3227,1092 3339,1092 3452,1092 3564,1092 3677,1092 3789,1092 3901,1092 4014,1092 4126,1092 4239,1092 4351,1092 4464,1092 4576,1092 4689,1092 4801,1092 4914,1092 5026,1092 5138,1092 5251,1092 5363,1092 5476,1092 5588,1092 5701,1092 5813,1092 5926,1092 6038,1092 6151,1092 6263,1092 6375,1092 6488,1092 6600,1092 6713,1092 6825,1092 6938,1092 7050,1092 7163,1092 7275,1092 7388,1092 7500,1092 7612,1092 7725,1092 7837,1092 7950,1092 8062,1092 8175,1092 8286,1092 8399,1092 8511,1092 8624,1092 8736,1092 8848,1092 8961,1092 9073,1092 9186,1092 9298,1092 9411,1092 9523,1092 9636,1092 9748,1092 9861,1092 9973,1092 10085,1092 10198,1092 10310,1092 10423,1092 10535,1092 10648,1092 10760,1092 10873,1092 10985,1092 11098,1092 11210,1092 11322,1092 11435,1092 11547,1092 11660,1092 11772,1092 11885,1092 11997,1092 12110,1092 12222,1092 12335,1092 12447,1092 12559,1092 12672,1092 12784,1092 12897,1092 13009,1092 13122,1092 13234,1092 13347,1092 13459,1092 13572,1092 13684,1092 13796,1092 13909,1092 14021,1092 14134,1092 14246,1092 14359,1092 14471,1092 14584,1092 14696,1092 14809,1092 14809,1704 14696,1717 14584,1699 14471,1663 14359,1650 14246,1633 14134,1631 14021,1597 13909,1613 13796,1627 13684,1675 13572,1723 13459,1701 13347,1696 13234,1660 13122,1645 13009,1648 12897,1628 12784,1614 12672,1619 12559,1619 12447,1576 12335,1558 12222,1548 12110,1560 11997,1550 11885,1555 11772,1574 11660,1596 11547,1619 11435,1629 11322,1625 11210,1576 11098,1576 10985,1585 10873,1589 10760,1586 10648,1560 10535,1531 10423,1558 10310,1574 10198,1630 10085,1583 9973,1576 9861,1597 9748,1606 9636,1600 9523,1587 9411,1651 9298,1689 9186,1707 9073,1625 8961,1592 8848,1579 8736,1562 8624,1554 8511,1600 8399,1577 8286,1580 8175,1583 8062,1605 7950,1591 7837,1599 7725,1619 7612,1625 7500,1623 7388,1594 7275,1592 7163,1571 7050,1559 6938,1549 6825,1529 6713,1518 6600,1513 6488,1515 6375,1476 6263,1446 6151,1428 6038,1411 5926,1390 5813,1397 5701,1373 5588,1362 5476,1345 5363,1347 5251,1342 5138,1330 5026,1305 4914,1281 4801,1274 4689,1275 4576,1258 4464,1248 4351,1233 4239,1222 4126,1215 4014,1206 3901,1193 3789,1182 3677,1172 3564,1179 3452,1171 3339,1164 3227,1152 3114,1149 3002,1142 2889,1139 2777,1131 2664,1136 2552,1132 2440,1130 2327,1124 2215,1128 2102,1128 1990,1128 1877,1123 1765,1125 1652,1121 1540,1125 1428,1127 1428,1092 Z"/>
 <text class="TextShape"><tspan class="TextParagraph" font-family="Arial, sans-serif" font-size="388px" font-weight="400"><tspan class="TextPosition" x="1228" y="11355"><tspan fill="rgb(0,0,0)" stroke="none">2008</tspan></tspan></tspan></text>
 <text class="TextShape"><tspan class="TextParagraph" font-family="Arial, sans-serif" font-size="388px" font-weight="400"><tspan class="TextPosition" x="2578" y="11355"><tspan fill="rgb(0,0,0)" stroke="none">2009</tspan></tspan></tspan></text>
 <text class="TextShape"><tspan class="TextParagraph" font-family="Arial, sans-serif" font-size="388px" font-weight="400"><tspan class="TextPosition" x="3927" y="11355"><tspan fill="rgb(0,0,0)" stroke="none">2010</tspan></tspan></tspan></text>
 <text class="TextShape"><tspan class="TextParagraph" font-family="Arial, sans-serif" font-size="388px" font-weight="400"><tspan class="TextPosition" x="5277" y="11355"><tspan fill="rgb(0,0,0)" stroke="none">2011</tspan></tspan></tspan></text>
 <text class="TextShape"><tspan class="TextParagraph" font-family="Arial, sans-serif" font-size="388px" font-weight="400"><tspan class="TextPosition" x="6626" y="11355"><tspan fill="rgb(0,0,0)" stroke="none">2012</tspan></tspan></tspan></text>
 <text class="TextShape"><tspan class="TextParagraph" font-family="Arial, sans-serif" font-size="388px" font-weight="400"><tspan class="TextPosition" x="7976" y="11355"><tspan fill="rgb(0,0,0)" stroke="none">2013</tspan></tspan></tspan></text>
 <text class="TextShape"><tspan class="TextParagraph" font-family="Arial, sans-serif" font-size="388px" font-weight="400"><tspan class="TextPosition" x="9325" y="11355"><tspan fill="rgb(0,0,0)" stroke="none">2014</tspan></tspan></tspan></text>
 <text class="TextShape"><tspan class="TextParagraph" font-family="Arial, sans-serif" font-size="388px" font-weight="400"><tspan class="TextPosition" x="10675" y="11355"><tspan fill="rgb(0,0,0)" stroke="none">2015</tspan></tspan></tspan></text>
 <text class="TextShape"><tspan class="TextParagraph" font-family="Arial, sans-serif" font-size="388px" font-weight="400"><tspan class="TextPosition" x="12024" y="11355"><tspan fill="rgb(0,0,0)" stroke="none">2016</tspan></tspan></tspan></text>
 <text class="TextShape"><tspan class="TextParagraph" font-family="Arial, sans-serif" font-size="388px" font-weight="400"><tspan class="TextPosition" x="13373" y="11355"><tspan fill="rgb(0,0,0)" stroke="none">2017</tspan></tspan></tspan></text>
 <text class="TextShape"><tspan class="TextParagraph" font-family="Arial, sans-serif" font-size="388px" font-weight="400"><tspan class="TextPosition" x="622" y="10895"><tspan fill="rgb(0,0,0)" stroke="none">0%</tspan></tspan></tspan></text>
 <text class="TextShape"><tspan class="TextParagraph" font-family="Arial, sans-serif" font-size="388px" font-weight="400"><tspan class="TextPosition" x="411" y="9928"><tspan fill="rgb(0,0,0)" stroke="none">10%</tspan></tspan></tspan></text>
 <text class="TextShape"><tspan class="TextParagraph" font-family="Arial, sans-serif" font-size="388px" font-weight="400"><tspan class="TextPosition" x="411" y="8961"><tspan fill="rgb(0,0,0)" stroke="none">20%</tspan></tspan></tspan></text>
 <text class="TextShape"><tspan class="TextParagraph" font-family="Arial, sans-serif" font-size="388px" font-weight="400"><tspan class="TextPosition" x="411" y="7994"><tspan fill="rgb(0,0,0)" stroke="none">30%</tspan></tspan></tspan></text>
 <text class="TextShape"><tspan class="TextParagraph" font-family="Arial, sans-serif" font-size="388px" font-weight="400"><tspan class="TextPosition" x="411" y="7027"><tspan fill="rgb(0,0,0)" stroke="none">40%</tspan></tspan></tspan></text>
 <text class="TextShape"><tspan class="TextParagraph" font-family="Arial, sans-serif" font-size="388px" font-weight="400"><tspan class="TextPosition" x="411" y="6060"><tspan fill="rgb(0,0,0)" stroke="none">50%</tspan></tspan></tspan></text>
 <text class="TextShape"><tspan class="TextParagraph" font-family="Arial, sans-serif" font-size="388px" font-weight="400"><tspan class="TextPosition" x="411" y="5092"><tspan fill="rgb(0,0,0)" stroke="none">60%</tspan></tspan></tspan></text>
 <text class="TextShape"><tspan class="TextParagraph" font-family="Arial, sans-serif" font-size="388px" font-weight="400"><tspan class="TextPosition" x="411" y="4125"><tspan fill="rgb(0,0,0)" stroke="none">70%</tspan></tspan></tspan></text>
 <text class="TextShape"><tspan class="TextParagraph" font-family="Arial, sans-serif" font-size="388px" font-weight="400"><tspan class="TextPosition" x="411" y="3159"><tspan fill="rgb(0,0,0)" stroke="none">80%</tspan></tspan></tspan></text>
 <text class="TextShape"><tspan class="TextParagraph" font-family="Arial, sans-serif" font-size="388px" font-weight="400"><tspan class="TextPosition" x="411" y="2192"><tspan fill="rgb(0,0,0)" stroke="none">90%</tspan></tspan></tspan></text>
 <text class="TextShape"><tspan class="TextParagraph" font-family="Arial, sans-serif" font-size="388px" font-weight="400"><tspan class="TextPosition" x="199" y="1225"><tspan fill="rgb(0,0,0)" stroke="none">100%</tspan></tspan></tspan></text>
 <text class="TextShape"><tspan class="TextParagraph" font-family="Arial, sans-serif" font-size="388px" font-weight="400"><tspan class="TextPosition" x="15059" y="10895"><tspan fill="rgb(0,0,0)" stroke="none">0%</tspan></tspan></tspan></text>
 <text class="TextShape"><tspan class="TextParagraph" font-family="Arial, sans-serif" font-size="388px" font-weight="400"><tspan class="TextPosition" x="15059" y="9928"><tspan fill="rgb(0,0,0)" stroke="none">10%</tspan></tspan></tspan></text>
 <text class="TextShape"><tspan class="TextParagraph" font-family="Arial, sans-serif" font-size="388px" font-weight="400"><tspan class="TextPosition" x="15059" y="8961"><tspan fill="rgb(0,0,0)" stroke="none">20%</tspan></tspan></tspan></text>
 <text class="TextShape"><tspan class="TextParagraph" font-family="Arial, sans-serif" font-size="388px" font-weight="400"><tspan class="TextPosition" x="15059" y="7994"><tspan fill="rgb(0,0,0)" stroke="none">30%</tspan></tspan></tspan></text>
 <text class="TextShape"><tspan class="TextParagraph" font-family="Arial, sans-serif" font-size="388px" font-weight="400"><tspan class="TextPosition" x="15059" y="7027"><tspan fill="rgb(0,0,0)" stroke="none">40%</tspan></tspan></tspan></text>
 <text class="TextShape"><tspan class="TextParagraph" font-family="Arial, sans-serif" font-size="388px" font-weight="400"><tspan class="TextPosition" x="15059" y="6060"><tspan fill="rgb(0,0,0)" stroke="none">50%</tspan></tspan></tspan></text>
 <text class="TextShape"><tspan class="TextParagraph" font-family="Arial, sans-serif" font-size="388px" font-weight="400"><tspan class="TextPosition" x="15059" y="5092"><tspan fill="rgb(0,0,0)" stroke="none">60%</tspan></tspan></tspan></text>
 <text class="TextShape"><tspan class="TextParagraph" font-family="Arial, sans-serif" font-size="388px" font-weight="400"><tspan class="TextPosition" x="15059" y="4125"><tspan fill="rgb(0,0,0)" stroke="none">70%</tspan></tspan></tspan></text>
 <text class="TextShape"><tspan class="TextParagraph" font-family="Arial, sans-serif" font-size="388px" font-weight="400"><tspan class="TextPosition" x="15059" y="3159"><tspan fill="rgb(0,0,0)" stroke="none">80%</tspan></tspan></tspan></text>
 <text class="TextShape"><tspan class="TextParagraph" font-family="Arial, sans-serif" font-size="388px" font-weight="400"><tspan class="TextPosition" x="15059" y="2192"><tspan fill="rgb(0,0,0)" stroke="none">90%</tspan></tspan></tspan></text>
 <text class="TextShape"><tspan class="TextParagraph" font-family="Arial, sans-serif" font-size="388px" font-weight="400"><tspan class="TextPosition" x="15059" y="1225"><tspan fill="rgb(0,0,0)" stroke="none">100%</tspan></tspan></tspan></text>
 <text class="TextShape"><tspan class="TextParagraph" font-family="Liberation Sans, sans-serif" font-size="635px" font-weight="400"><tspan class="TextPosition" x="4943" y="747"><tspan fill="rgb(0,0,0)" stroke="none">Relacin de aspecto</tspan></tspan></tspan></text>
 <path fill="rgb(0,69,134)" stroke="none" d="M 4882,12019 L 4745,12019 4745,11744 5020,11744 5020,12019 4882,12019 Z"/>
 <path fill="none" stroke="rgb(0,0,0)" stroke-linejoin="round" d="M 4882,12019 L 4745,12019 4745,11744 5020,11744 5020,12019 4882,12019 Z"/>
 <path fill="rgb(255,66,14)" stroke="none" d="M 6170,12019 L 6033,12019 6033,11744 6308,11744 6308,12019 6170,12019 Z"/>
 <path fill="none" stroke="rgb(0,0,0)" stroke-linejoin="round" d="M 6170,12019 L 6033,12019 6033,11744 6308,11744 6308,12019 6170,12019 Z"/>
 <path fill="rgb(255,211,32)" stroke="none" d="M 7458,12019 L 7321,12019 7321,11744 7596,11744 7596,12019 7458,12019 Z"/>
 <path fill="none" stroke="rgb(0,0,0)" stroke-linejoin="round" d="M 7458,12019 L 7321,12019 7321,11744 7596,11744 7596,12019 7458,12019 Z"/>
 <path fill="rgb(87,157,28)" stroke="none" d="M 8746,12019 L 8608,12019 8608,11744 8883,11744 8883,12019 8746,12019 Z"/>
 <path fill="none" stroke="rgb(0,0,0)" stroke-linejoin="round" d="M 8746,12019 L 8608,12019 8608,11744 8883,11744 8883,12019 8746,12019 Z"/>
 <path fill="rgb(126,0,33)" stroke="none" d="M 10272,12019 L 10134,12019 10134,11744 10409,11744 10409,12019 10272,12019 Z"/>
 <path fill="none" stroke="rgb(0,0,0)" stroke-linejoin="round" d="M 10272,12019 L 10134,12019 10134,11744 10409,11744 10409,12019 10272,12019 Z"/>
 <text class="TextShape"><tspan class="TextParagraph" font-family="Arial, sans-serif" font-size="459px" font-weight="400"><tspan class="TextPosition" x="5120" y="12040"><tspan fill="rgb(0,0,0)" stroke="none">5:4</tspan></tspan></tspan></text>
 <text class="TextShape"><tspan class="TextParagraph" font-family="Arial, sans-serif" font-size="459px" font-weight="400"><tspan class="TextPosition" x="6408" y="12040"><tspan fill="rgb(0,0,0)" stroke="none">4:3</tspan></tspan></tspan></text>
 <text class="TextShape"><tspan class="TextParagraph" font-family="Arial, sans-serif" font-size="459px" font-weight="400"><tspan class="TextPosition" x="7696" y="12040"><tspan fill="rgb(0,0,0)" stroke="none">8:5</tspan></tspan></tspan></text>
 <text class="TextShape"><tspan class="TextParagraph" font-family="Arial, sans-serif" font-size="459px" font-weight="400"><tspan class="TextPosition" x="8983" y="12040"><tspan fill="rgb(0,0,0)" stroke="none">16:9</tspan></tspan></tspan></text>
 <text class="TextShape"><tspan class="TextParagraph" font-family="Arial, sans-serif" font-size="459px" font-weight="400"><tspan class="TextPosition" x="10509" y="12040"><tspan fill="rgb(0,0,0)" stroke="none">Otros</tspan></tspan></tspan></text>
</svg>
