<?xml version="1.0" encoding="UTF-8"?>
<!DOCTYPE svg PUBLIC "-//W3C//DTD SVG 1.1//EN" "http://www.w3.org/Graphics/SVG/1.1/DTD/svg11.dtd">
<svg width="165mm" height="123mm" viewBox="0 0 16500 12300" version="1.1" xmlns="http://www.w3.org/2000/svg" stroke-width="28.222" stroke-linejoin="round" xml:space="preserve">
 <path fill="rgb(255,255,255)" stroke="none" d="M 8256,12341 L 24,12341 24,0 16487,0 16487,12341 8256,12341 Z"/>
 <path fill="none" stroke="rgb(179,179,179)" stroke-linejoin="round" d="M 8231,10559 L 1371,10559 1371,931 15090,931 15090,10559 8231,10559 Z"/>
 <path fill="none" stroke="rgb(179,179,179)" stroke-linejoin="round" d="M 15090,10558 L 1371,10558"/>
 <path fill="none" stroke="rgb(179,179,179)" stroke-linejoin="round" d="M 15090,9595 L 1371,9595"/>
 <path fill="none" stroke="rgb(179,179,179)" stroke-linejoin="round" d="M 15090,8632 L 1371,8632"/>
 <path fill="none" stroke="rgb(179,179,179)" stroke-linejoin="round" d="M 15090,7669 L 1371,7669"/>
 <path fill="none" stroke="rgb(179,179,179)" stroke-linejoin="round" d="M 15090,6706 L 1371,6706"/>
 <path fill="none" stroke="rgb(179,179,179)" stroke-linejoin="round" d="M 15090,5744 L 1371,5744"/>
 <path fill="none" stroke="rgb(179,179,179)" stroke-linejoin="round" d="M 15090,4781 L 1371,4781"/>
 <path fill="none" stroke="rgb(179,179,179)" stroke-linejoin="round" d="M 15090,3818 L 1371,3818"/>
 <path fill="none" stroke="rgb(179,179,179)" stroke-linejoin="round" d="M 15090,2855 L 1371,2855"/>
 <path fill="none" stroke="rgb(179,179,179)" stroke-linejoin="round" d="M 15090,1892 L 1371,1892"/>
 <path fill="none" stroke="rgb(179,179,179)" stroke-linejoin="round" d="M 15090,930 L 1371,930"/>
 <path fill="none" stroke="rgb(0,0,0)" stroke-linejoin="round" d="M 1371,10708 L 1371,10558"/>
 <path fill="none" stroke="rgb(0,0,0)" stroke-linejoin="round" d="M 1371,10708 L 1371,10558"/>
 <path fill="none" stroke="rgb(0,0,0)" stroke-linejoin="round" d="M 1486,10708 L 1486,10558"/>
 <path fill="none" stroke="rgb(0,0,0)" stroke-linejoin="round" d="M 1486,10708 L 1486,10558"/>
 <path fill="none" stroke="rgb(0,0,0)" stroke-linejoin="round" d="M 1601,10708 L 1601,10558"/>
 <path fill="none" stroke="rgb(0,0,0)" stroke-linejoin="round" d="M 1601,10708 L 1601,10558"/>
 <path fill="none" stroke="rgb(0,0,0)" stroke-linejoin="round" d="M 1716,10708 L 1716,10558"/>
 <path fill="none" stroke="rgb(0,0,0)" stroke-linejoin="round" d="M 1716,10708 L 1716,10558"/>
 <path fill="none" stroke="rgb(0,0,0)" stroke-linejoin="round" d="M 1832,10708 L 1832,10558"/>
 <path fill="none" stroke="rgb(0,0,0)" stroke-linejoin="round" d="M 1832,10708 L 1832,10558"/>
 <path fill="none" stroke="rgb(0,0,0)" stroke-linejoin="round" d="M 1947,10708 L 1947,10558"/>
 <path fill="none" stroke="rgb(0,0,0)" stroke-linejoin="round" d="M 1947,10708 L 1947,10558"/>
 <path fill="none" stroke="rgb(0,0,0)" stroke-linejoin="round" d="M 2062,10708 L 2062,10558"/>
 <path fill="none" stroke="rgb(0,0,0)" stroke-linejoin="round" d="M 2062,10708 L 2062,10558"/>
 <path fill="none" stroke="rgb(0,0,0)" stroke-linejoin="round" d="M 2178,10708 L 2178,10558"/>
 <path fill="none" stroke="rgb(0,0,0)" stroke-linejoin="round" d="M 2178,10708 L 2178,10558"/>
 <path fill="none" stroke="rgb(0,0,0)" stroke-linejoin="round" d="M 2293,10708 L 2293,10558"/>
 <path fill="none" stroke="rgb(0,0,0)" stroke-linejoin="round" d="M 2293,10708 L 2293,10558"/>
 <path fill="none" stroke="rgb(0,0,0)" stroke-linejoin="round" d="M 2408,10708 L 2408,10558"/>
 <path fill="none" stroke="rgb(0,0,0)" stroke-linejoin="round" d="M 2408,10708 L 2408,10558"/>
 <path fill="none" stroke="rgb(0,0,0)" stroke-linejoin="round" d="M 2523,10708 L 2523,10558"/>
 <path fill="none" stroke="rgb(0,0,0)" stroke-linejoin="round" d="M 2523,10708 L 2523,10558"/>
 <path fill="none" stroke="rgb(0,0,0)" stroke-linejoin="round" d="M 2639,10708 L 2639,10558"/>
 <path fill="none" stroke="rgb(0,0,0)" stroke-linejoin="round" d="M 2639,10708 L 2639,10558"/>
 <path fill="none" stroke="rgb(0,0,0)" stroke-linejoin="round" d="M 2754,10708 L 2754,10558"/>
 <path fill="none" stroke="rgb(0,0,0)" stroke-linejoin="round" d="M 2754,10708 L 2754,10558"/>
 <path fill="none" stroke="rgb(0,0,0)" stroke-linejoin="round" d="M 2869,10708 L 2869,10558"/>
 <path fill="none" stroke="rgb(0,0,0)" stroke-linejoin="round" d="M 2869,10708 L 2869,10558"/>
 <path fill="none" stroke="rgb(0,0,0)" stroke-linejoin="round" d="M 2985,10708 L 2985,10558"/>
 <path fill="none" stroke="rgb(0,0,0)" stroke-linejoin="round" d="M 2985,10708 L 2985,10558"/>
 <path fill="none" stroke="rgb(0,0,0)" stroke-linejoin="round" d="M 3100,10708 L 3100,10558"/>
 <path fill="none" stroke="rgb(0,0,0)" stroke-linejoin="round" d="M 3100,10708 L 3100,10558"/>
 <path fill="none" stroke="rgb(0,0,0)" stroke-linejoin="round" d="M 3215,10708 L 3215,10558"/>
 <path fill="none" stroke="rgb(0,0,0)" stroke-linejoin="round" d="M 3215,10708 L 3215,10558"/>
 <path fill="none" stroke="rgb(0,0,0)" stroke-linejoin="round" d="M 3331,10708 L 3331,10558"/>
 <path fill="none" stroke="rgb(0,0,0)" stroke-linejoin="round" d="M 3331,10708 L 3331,10558"/>
 <path fill="none" stroke="rgb(0,0,0)" stroke-linejoin="round" d="M 3446,10708 L 3446,10558"/>
 <path fill="none" stroke="rgb(0,0,0)" stroke-linejoin="round" d="M 3446,10708 L 3446,10558"/>
 <path fill="none" stroke="rgb(0,0,0)" stroke-linejoin="round" d="M 3561,10708 L 3561,10558"/>
 <path fill="none" stroke="rgb(0,0,0)" stroke-linejoin="round" d="M 3561,10708 L 3561,10558"/>
 <path fill="none" stroke="rgb(0,0,0)" stroke-linejoin="round" d="M 3676,10708 L 3676,10558"/>
 <path fill="none" stroke="rgb(0,0,0)" stroke-linejoin="round" d="M 3676,10708 L 3676,10558"/>
 <path fill="none" stroke="rgb(0,0,0)" stroke-linejoin="round" d="M 3792,10708 L 3792,10558"/>
 <path fill="none" stroke="rgb(0,0,0)" stroke-linejoin="round" d="M 3792,10708 L 3792,10558"/>
 <path fill="none" stroke="rgb(0,0,0)" stroke-linejoin="round" d="M 3907,10708 L 3907,10558"/>
 <path fill="none" stroke="rgb(0,0,0)" stroke-linejoin="round" d="M 3907,10708 L 3907,10558"/>
 <path fill="none" stroke="rgb(0,0,0)" stroke-linejoin="round" d="M 4022,10708 L 4022,10558"/>
 <path fill="none" stroke="rgb(0,0,0)" stroke-linejoin="round" d="M 4022,10708 L 4022,10558"/>
 <path fill="none" stroke="rgb(0,0,0)" stroke-linejoin="round" d="M 4138,10708 L 4138,10558"/>
 <path fill="none" stroke="rgb(0,0,0)" stroke-linejoin="round" d="M 4138,10708 L 4138,10558"/>
 <path fill="none" stroke="rgb(0,0,0)" stroke-linejoin="round" d="M 4253,10708 L 4253,10558"/>
 <path fill="none" stroke="rgb(0,0,0)" stroke-linejoin="round" d="M 4253,10708 L 4253,10558"/>
 <path fill="none" stroke="rgb(0,0,0)" stroke-linejoin="round" d="M 4368,10708 L 4368,10558"/>
 <path fill="none" stroke="rgb(0,0,0)" stroke-linejoin="round" d="M 4368,10708 L 4368,10558"/>
 <path fill="none" stroke="rgb(0,0,0)" stroke-linejoin="round" d="M 4483,10708 L 4483,10558"/>
 <path fill="none" stroke="rgb(0,0,0)" stroke-linejoin="round" d="M 4483,10708 L 4483,10558"/>
 <path fill="none" stroke="rgb(0,0,0)" stroke-linejoin="round" d="M 4599,10708 L 4599,10558"/>
 <path fill="none" stroke="rgb(0,0,0)" stroke-linejoin="round" d="M 4599,10708 L 4599,10558"/>
 <path fill="none" stroke="rgb(0,0,0)" stroke-linejoin="round" d="M 4714,10708 L 4714,10558"/>
 <path fill="none" stroke="rgb(0,0,0)" stroke-linejoin="round" d="M 4714,10708 L 4714,10558"/>
 <path fill="none" stroke="rgb(0,0,0)" stroke-linejoin="round" d="M 4829,10708 L 4829,10558"/>
 <path fill="none" stroke="rgb(0,0,0)" stroke-linejoin="round" d="M 4829,10708 L 4829,10558"/>
 <path fill="none" stroke="rgb(0,0,0)" stroke-linejoin="round" d="M 4945,10708 L 4945,10558"/>
 <path fill="none" stroke="rgb(0,0,0)" stroke-linejoin="round" d="M 4945,10708 L 4945,10558"/>
 <path fill="none" stroke="rgb(0,0,0)" stroke-linejoin="round" d="M 5060,10708 L 5060,10558"/>
 <path fill="none" stroke="rgb(0,0,0)" stroke-linejoin="round" d="M 5060,10708 L 5060,10558"/>
 <path fill="none" stroke="rgb(0,0,0)" stroke-linejoin="round" d="M 5175,10708 L 5175,10558"/>
 <path fill="none" stroke="rgb(0,0,0)" stroke-linejoin="round" d="M 5175,10708 L 5175,10558"/>
 <path fill="none" stroke="rgb(0,0,0)" stroke-linejoin="round" d="M 5291,10708 L 5291,10558"/>
 <path fill="none" stroke="rgb(0,0,0)" stroke-linejoin="round" d="M 5291,10708 L 5291,10558"/>
 <path fill="none" stroke="rgb(0,0,0)" stroke-linejoin="round" d="M 5406,10708 L 5406,10558"/>
 <path fill="none" stroke="rgb(0,0,0)" stroke-linejoin="round" d="M 5406,10708 L 5406,10558"/>
 <path fill="none" stroke="rgb(0,0,0)" stroke-linejoin="round" d="M 5521,10708 L 5521,10558"/>
 <path fill="none" stroke="rgb(0,0,0)" stroke-linejoin="round" d="M 5521,10708 L 5521,10558"/>
 <path fill="none" stroke="rgb(0,0,0)" stroke-linejoin="round" d="M 5636,10708 L 5636,10558"/>
 <path fill="none" stroke="rgb(0,0,0)" stroke-linejoin="round" d="M 5636,10708 L 5636,10558"/>
 <path fill="none" stroke="rgb(0,0,0)" stroke-linejoin="round" d="M 5752,10708 L 5752,10558"/>
 <path fill="none" stroke="rgb(0,0,0)" stroke-linejoin="round" d="M 5752,10708 L 5752,10558"/>
 <path fill="none" stroke="rgb(0,0,0)" stroke-linejoin="round" d="M 5867,10708 L 5867,10558"/>
 <path fill="none" stroke="rgb(0,0,0)" stroke-linejoin="round" d="M 5867,10708 L 5867,10558"/>
 <path fill="none" stroke="rgb(0,0,0)" stroke-linejoin="round" d="M 5982,10708 L 5982,10558"/>
 <path fill="none" stroke="rgb(0,0,0)" stroke-linejoin="round" d="M 5982,10708 L 5982,10558"/>
 <path fill="none" stroke="rgb(0,0,0)" stroke-linejoin="round" d="M 6098,10708 L 6098,10558"/>
 <path fill="none" stroke="rgb(0,0,0)" stroke-linejoin="round" d="M 6098,10708 L 6098,10558"/>
 <path fill="none" stroke="rgb(0,0,0)" stroke-linejoin="round" d="M 6213,10708 L 6213,10558"/>
 <path fill="none" stroke="rgb(0,0,0)" stroke-linejoin="round" d="M 6213,10708 L 6213,10558"/>
 <path fill="none" stroke="rgb(0,0,0)" stroke-linejoin="round" d="M 6328,10708 L 6328,10558"/>
 <path fill="none" stroke="rgb(0,0,0)" stroke-linejoin="round" d="M 6328,10708 L 6328,10558"/>
 <path fill="none" stroke="rgb(0,0,0)" stroke-linejoin="round" d="M 6443,10708 L 6443,10558"/>
 <path fill="none" stroke="rgb(0,0,0)" stroke-linejoin="round" d="M 6443,10708 L 6443,10558"/>
 <path fill="none" stroke="rgb(0,0,0)" stroke-linejoin="round" d="M 6559,10708 L 6559,10558"/>
 <path fill="none" stroke="rgb(0,0,0)" stroke-linejoin="round" d="M 6559,10708 L 6559,10558"/>
 <path fill="none" stroke="rgb(0,0,0)" stroke-linejoin="round" d="M 6674,10708 L 6674,10558"/>
 <path fill="none" stroke="rgb(0,0,0)" stroke-linejoin="round" d="M 6674,10708 L 6674,10558"/>
 <path fill="none" stroke="rgb(0,0,0)" stroke-linejoin="round" d="M 6789,10708 L 6789,10558"/>
 <path fill="none" stroke="rgb(0,0,0)" stroke-linejoin="round" d="M 6789,10708 L 6789,10558"/>
 <path fill="none" stroke="rgb(0,0,0)" stroke-linejoin="round" d="M 6905,10708 L 6905,10558"/>
 <path fill="none" stroke="rgb(0,0,0)" stroke-linejoin="round" d="M 6905,10708 L 6905,10558"/>
 <path fill="none" stroke="rgb(0,0,0)" stroke-linejoin="round" d="M 7020,10708 L 7020,10558"/>
 <path fill="none" stroke="rgb(0,0,0)" stroke-linejoin="round" d="M 7020,10708 L 7020,10558"/>
 <path fill="none" stroke="rgb(0,0,0)" stroke-linejoin="round" d="M 7135,10708 L 7135,10558"/>
 <path fill="none" stroke="rgb(0,0,0)" stroke-linejoin="round" d="M 7135,10708 L 7135,10558"/>
 <path fill="none" stroke="rgb(0,0,0)" stroke-linejoin="round" d="M 7251,10708 L 7251,10558"/>
 <path fill="none" stroke="rgb(0,0,0)" stroke-linejoin="round" d="M 7251,10708 L 7251,10558"/>
 <path fill="none" stroke="rgb(0,0,0)" stroke-linejoin="round" d="M 7366,10708 L 7366,10558"/>
 <path fill="none" stroke="rgb(0,0,0)" stroke-linejoin="round" d="M 7366,10708 L 7366,10558"/>
 <path fill="none" stroke="rgb(0,0,0)" stroke-linejoin="round" d="M 7481,10708 L 7481,10558"/>
 <path fill="none" stroke="rgb(0,0,0)" stroke-linejoin="round" d="M 7481,10708 L 7481,10558"/>
 <path fill="none" stroke="rgb(0,0,0)" stroke-linejoin="round" d="M 7596,10708 L 7596,10558"/>
 <path fill="none" stroke="rgb(0,0,0)" stroke-linejoin="round" d="M 7596,10708 L 7596,10558"/>
 <path fill="none" stroke="rgb(0,0,0)" stroke-linejoin="round" d="M 7712,10708 L 7712,10558"/>
 <path fill="none" stroke="rgb(0,0,0)" stroke-linejoin="round" d="M 7712,10708 L 7712,10558"/>
 <path fill="none" stroke="rgb(0,0,0)" stroke-linejoin="round" d="M 7827,10708 L 7827,10558"/>
 <path fill="none" stroke="rgb(0,0,0)" stroke-linejoin="round" d="M 7827,10708 L 7827,10558"/>
 <path fill="none" stroke="rgb(0,0,0)" stroke-linejoin="round" d="M 7942,10708 L 7942,10558"/>
 <path fill="none" stroke="rgb(0,0,0)" stroke-linejoin="round" d="M 7942,10708 L 7942,10558"/>
 <path fill="none" stroke="rgb(0,0,0)" stroke-linejoin="round" d="M 8058,10708 L 8058,10558"/>
 <path fill="none" stroke="rgb(0,0,0)" stroke-linejoin="round" d="M 8058,10708 L 8058,10558"/>
 <path fill="none" stroke="rgb(0,0,0)" stroke-linejoin="round" d="M 8173,10708 L 8173,10558"/>
 <path fill="none" stroke="rgb(0,0,0)" stroke-linejoin="round" d="M 8173,10708 L 8173,10558"/>
 <path fill="none" stroke="rgb(0,0,0)" stroke-linejoin="round" d="M 8287,10708 L 8287,10558"/>
 <path fill="none" stroke="rgb(0,0,0)" stroke-linejoin="round" d="M 8287,10708 L 8287,10558"/>
 <path fill="none" stroke="rgb(0,0,0)" stroke-linejoin="round" d="M 8402,10708 L 8402,10558"/>
 <path fill="none" stroke="rgb(0,0,0)" stroke-linejoin="round" d="M 8402,10708 L 8402,10558"/>
 <path fill="none" stroke="rgb(0,0,0)" stroke-linejoin="round" d="M 8518,10708 L 8518,10558"/>
 <path fill="none" stroke="rgb(0,0,0)" stroke-linejoin="round" d="M 8518,10708 L 8518,10558"/>
 <path fill="none" stroke="rgb(0,0,0)" stroke-linejoin="round" d="M 8633,10708 L 8633,10558"/>
 <path fill="none" stroke="rgb(0,0,0)" stroke-linejoin="round" d="M 8633,10708 L 8633,10558"/>
 <path fill="none" stroke="rgb(0,0,0)" stroke-linejoin="round" d="M 8748,10708 L 8748,10558"/>
 <path fill="none" stroke="rgb(0,0,0)" stroke-linejoin="round" d="M 8748,10708 L 8748,10558"/>
 <path fill="none" stroke="rgb(0,0,0)" stroke-linejoin="round" d="M 8864,10708 L 8864,10558"/>
 <path fill="none" stroke="rgb(0,0,0)" stroke-linejoin="round" d="M 8864,10708 L 8864,10558"/>
 <path fill="none" stroke="rgb(0,0,0)" stroke-linejoin="round" d="M 8979,10708 L 8979,10558"/>
 <path fill="none" stroke="rgb(0,0,0)" stroke-linejoin="round" d="M 8979,10708 L 8979,10558"/>
 <path fill="none" stroke="rgb(0,0,0)" stroke-linejoin="round" d="M 9094,10708 L 9094,10558"/>
 <path fill="none" stroke="rgb(0,0,0)" stroke-linejoin="round" d="M 9094,10708 L 9094,10558"/>
 <path fill="none" stroke="rgb(0,0,0)" stroke-linejoin="round" d="M 9210,10708 L 9210,10558"/>
 <path fill="none" stroke="rgb(0,0,0)" stroke-linejoin="round" d="M 9210,10708 L 9210,10558"/>
 <path fill="none" stroke="rgb(0,0,0)" stroke-linejoin="round" d="M 9325,10708 L 9325,10558"/>
 <path fill="none" stroke="rgb(0,0,0)" stroke-linejoin="round" d="M 9325,10708 L 9325,10558"/>
 <path fill="none" stroke="rgb(0,0,0)" stroke-linejoin="round" d="M 9440,10708 L 9440,10558"/>
 <path fill="none" stroke="rgb(0,0,0)" stroke-linejoin="round" d="M 9440,10708 L 9440,10558"/>
 <path fill="none" stroke="rgb(0,0,0)" stroke-linejoin="round" d="M 9555,10708 L 9555,10558"/>
 <path fill="none" stroke="rgb(0,0,0)" stroke-linejoin="round" d="M 9555,10708 L 9555,10558"/>
 <path fill="none" stroke="rgb(0,0,0)" stroke-linejoin="round" d="M 9671,10708 L 9671,10558"/>
 <path fill="none" stroke="rgb(0,0,0)" stroke-linejoin="round" d="M 9671,10708 L 9671,10558"/>
 <path fill="none" stroke="rgb(0,0,0)" stroke-linejoin="round" d="M 9786,10708 L 9786,10558"/>
 <path fill="none" stroke="rgb(0,0,0)" stroke-linejoin="round" d="M 9786,10708 L 9786,10558"/>
 <path fill="none" stroke="rgb(0,0,0)" stroke-linejoin="round" d="M 9901,10708 L 9901,10558"/>
 <path fill="none" stroke="rgb(0,0,0)" stroke-linejoin="round" d="M 9901,10708 L 9901,10558"/>
 <path fill="none" stroke="rgb(0,0,0)" stroke-linejoin="round" d="M 10017,10708 L 10017,10558"/>
 <path fill="none" stroke="rgb(0,0,0)" stroke-linejoin="round" d="M 10017,10708 L 10017,10558"/>
 <path fill="none" stroke="rgb(0,0,0)" stroke-linejoin="round" d="M 10132,10708 L 10132,10558"/>
 <path fill="none" stroke="rgb(0,0,0)" stroke-linejoin="round" d="M 10132,10708 L 10132,10558"/>
 <path fill="none" stroke="rgb(0,0,0)" stroke-linejoin="round" d="M 10247,10708 L 10247,10558"/>
 <path fill="none" stroke="rgb(0,0,0)" stroke-linejoin="round" d="M 10247,10708 L 10247,10558"/>
 <path fill="none" stroke="rgb(0,0,0)" stroke-linejoin="round" d="M 10362,10708 L 10362,10558"/>
 <path fill="none" stroke="rgb(0,0,0)" stroke-linejoin="round" d="M 10362,10708 L 10362,10558"/>
 <path fill="none" stroke="rgb(0,0,0)" stroke-linejoin="round" d="M 10478,10708 L 10478,10558"/>
 <path fill="none" stroke="rgb(0,0,0)" stroke-linejoin="round" d="M 10478,10708 L 10478,10558"/>
 <path fill="none" stroke="rgb(0,0,0)" stroke-linejoin="round" d="M 10593,10708 L 10593,10558"/>
 <path fill="none" stroke="rgb(0,0,0)" stroke-linejoin="round" d="M 10593,10708 L 10593,10558"/>
 <path fill="none" stroke="rgb(0,0,0)" stroke-linejoin="round" d="M 10708,10708 L 10708,10558"/>
 <path fill="none" stroke="rgb(0,0,0)" stroke-linejoin="round" d="M 10708,10708 L 10708,10558"/>
 <path fill="none" stroke="rgb(0,0,0)" stroke-linejoin="round" d="M 10824,10708 L 10824,10558"/>
 <path fill="none" stroke="rgb(0,0,0)" stroke-linejoin="round" d="M 10824,10708 L 10824,10558"/>
 <path fill="none" stroke="rgb(0,0,0)" stroke-linejoin="round" d="M 10939,10708 L 10939,10558"/>
 <path fill="none" stroke="rgb(0,0,0)" stroke-linejoin="round" d="M 10939,10708 L 10939,10558"/>
 <path fill="none" stroke="rgb(0,0,0)" stroke-linejoin="round" d="M 11054,10708 L 11054,10558"/>
 <path fill="none" stroke="rgb(0,0,0)" stroke-linejoin="round" d="M 11054,10708 L 11054,10558"/>
 <path fill="none" stroke="rgb(0,0,0)" stroke-linejoin="round" d="M 11170,10708 L 11170,10558"/>
 <path fill="none" stroke="rgb(0,0,0)" stroke-linejoin="round" d="M 11170,10708 L 11170,10558"/>
 <path fill="none" stroke="rgb(0,0,0)" stroke-linejoin="round" d="M 11285,10708 L 11285,10558"/>
 <path fill="none" stroke="rgb(0,0,0)" stroke-linejoin="round" d="M 11285,10708 L 11285,10558"/>
 <path fill="none" stroke="rgb(0,0,0)" stroke-linejoin="round" d="M 11400,10708 L 11400,10558"/>
 <path fill="none" stroke="rgb(0,0,0)" stroke-linejoin="round" d="M 11400,10708 L 11400,10558"/>
 <path fill="none" stroke="rgb(0,0,0)" stroke-linejoin="round" d="M 11515,10708 L 11515,10558"/>
 <path fill="none" stroke="rgb(0,0,0)" stroke-linejoin="round" d="M 11515,10708 L 11515,10558"/>
 <path fill="none" stroke="rgb(0,0,0)" stroke-linejoin="round" d="M 11631,10708 L 11631,10558"/>
 <path fill="none" stroke="rgb(0,0,0)" stroke-linejoin="round" d="M 11631,10708 L 11631,10558"/>
 <path fill="none" stroke="rgb(0,0,0)" stroke-linejoin="round" d="M 11746,10708 L 11746,10558"/>
 <path fill="none" stroke="rgb(0,0,0)" stroke-linejoin="round" d="M 11746,10708 L 11746,10558"/>
 <path fill="none" stroke="rgb(0,0,0)" stroke-linejoin="round" d="M 11861,10708 L 11861,10558"/>
 <path fill="none" stroke="rgb(0,0,0)" stroke-linejoin="round" d="M 11861,10708 L 11861,10558"/>
 <path fill="none" stroke="rgb(0,0,0)" stroke-linejoin="round" d="M 11977,10708 L 11977,10558"/>
 <path fill="none" stroke="rgb(0,0,0)" stroke-linejoin="round" d="M 11977,10708 L 11977,10558"/>
 <path fill="none" stroke="rgb(0,0,0)" stroke-linejoin="round" d="M 12092,10708 L 12092,10558"/>
 <path fill="none" stroke="rgb(0,0,0)" stroke-linejoin="round" d="M 12092,10708 L 12092,10558"/>
 <path fill="none" stroke="rgb(0,0,0)" stroke-linejoin="round" d="M 12207,10708 L 12207,10558"/>
 <path fill="none" stroke="rgb(0,0,0)" stroke-linejoin="round" d="M 12207,10708 L 12207,10558"/>
 <path fill="none" stroke="rgb(0,0,0)" stroke-linejoin="round" d="M 12322,10708 L 12322,10558"/>
 <path fill="none" stroke="rgb(0,0,0)" stroke-linejoin="round" d="M 12322,10708 L 12322,10558"/>
 <path fill="none" stroke="rgb(0,0,0)" stroke-linejoin="round" d="M 12438,10708 L 12438,10558"/>
 <path fill="none" stroke="rgb(0,0,0)" stroke-linejoin="round" d="M 12438,10708 L 12438,10558"/>
 <path fill="none" stroke="rgb(0,0,0)" stroke-linejoin="round" d="M 12553,10708 L 12553,10558"/>
 <path fill="none" stroke="rgb(0,0,0)" stroke-linejoin="round" d="M 12553,10708 L 12553,10558"/>
 <path fill="none" stroke="rgb(0,0,0)" stroke-linejoin="round" d="M 12668,10708 L 12668,10558"/>
 <path fill="none" stroke="rgb(0,0,0)" stroke-linejoin="round" d="M 12668,10708 L 12668,10558"/>
 <path fill="none" stroke="rgb(0,0,0)" stroke-linejoin="round" d="M 12784,10708 L 12784,10558"/>
 <path fill="none" stroke="rgb(0,0,0)" stroke-linejoin="round" d="M 12784,10708 L 12784,10558"/>
 <path fill="none" stroke="rgb(0,0,0)" stroke-linejoin="round" d="M 12899,10708 L 12899,10558"/>
 <path fill="none" stroke="rgb(0,0,0)" stroke-linejoin="round" d="M 12899,10708 L 12899,10558"/>
 <path fill="none" stroke="rgb(0,0,0)" stroke-linejoin="round" d="M 13014,10708 L 13014,10558"/>
 <path fill="none" stroke="rgb(0,0,0)" stroke-linejoin="round" d="M 13014,10708 L 13014,10558"/>
 <path fill="none" stroke="rgb(0,0,0)" stroke-linejoin="round" d="M 13130,10708 L 13130,10558"/>
 <path fill="none" stroke="rgb(0,0,0)" stroke-linejoin="round" d="M 13130,10708 L 13130,10558"/>
 <path fill="none" stroke="rgb(0,0,0)" stroke-linejoin="round" d="M 13245,10708 L 13245,10558"/>
 <path fill="none" stroke="rgb(0,0,0)" stroke-linejoin="round" d="M 13245,10708 L 13245,10558"/>
 <path fill="none" stroke="rgb(0,0,0)" stroke-linejoin="round" d="M 13360,10708 L 13360,10558"/>
 <path fill="none" stroke="rgb(0,0,0)" stroke-linejoin="round" d="M 13360,10708 L 13360,10558"/>
 <path fill="none" stroke="rgb(0,0,0)" stroke-linejoin="round" d="M 13475,10708 L 13475,10558"/>
 <path fill="none" stroke="rgb(0,0,0)" stroke-linejoin="round" d="M 13475,10708 L 13475,10558"/>
 <path fill="none" stroke="rgb(0,0,0)" stroke-linejoin="round" d="M 13591,10708 L 13591,10558"/>
 <path fill="none" stroke="rgb(0,0,0)" stroke-linejoin="round" d="M 13591,10708 L 13591,10558"/>
 <path fill="none" stroke="rgb(0,0,0)" stroke-linejoin="round" d="M 13706,10708 L 13706,10558"/>
 <path fill="none" stroke="rgb(0,0,0)" stroke-linejoin="round" d="M 13706,10708 L 13706,10558"/>
 <path fill="none" stroke="rgb(0,0,0)" stroke-linejoin="round" d="M 13821,10708 L 13821,10558"/>
 <path fill="none" stroke="rgb(0,0,0)" stroke-linejoin="round" d="M 13821,10708 L 13821,10558"/>
 <path fill="none" stroke="rgb(0,0,0)" stroke-linejoin="round" d="M 13937,10708 L 13937,10558"/>
 <path fill="none" stroke="rgb(0,0,0)" stroke-linejoin="round" d="M 13937,10708 L 13937,10558"/>
 <path fill="none" stroke="rgb(0,0,0)" stroke-linejoin="round" d="M 14052,10708 L 14052,10558"/>
 <path fill="none" stroke="rgb(0,0,0)" stroke-linejoin="round" d="M 14052,10708 L 14052,10558"/>
 <path fill="none" stroke="rgb(0,0,0)" stroke-linejoin="round" d="M 14167,10708 L 14167,10558"/>
 <path fill="none" stroke="rgb(0,0,0)" stroke-linejoin="round" d="M 14167,10708 L 14167,10558"/>
 <path fill="none" stroke="rgb(0,0,0)" stroke-linejoin="round" d="M 14282,10708 L 14282,10558"/>
 <path fill="none" stroke="rgb(0,0,0)" stroke-linejoin="round" d="M 14282,10708 L 14282,10558"/>
 <path fill="none" stroke="rgb(0,0,0)" stroke-linejoin="round" d="M 14398,10708 L 14398,10558"/>
 <path fill="none" stroke="rgb(0,0,0)" stroke-linejoin="round" d="M 14398,10708 L 14398,10558"/>
 <path fill="none" stroke="rgb(0,0,0)" stroke-linejoin="round" d="M 14513,10708 L 14513,10558"/>
 <path fill="none" stroke="rgb(0,0,0)" stroke-linejoin="round" d="M 14513,10708 L 14513,10558"/>
 <path fill="none" stroke="rgb(0,0,0)" stroke-linejoin="round" d="M 14628,10708 L 14628,10558"/>
 <path fill="none" stroke="rgb(0,0,0)" stroke-linejoin="round" d="M 14628,10708 L 14628,10558"/>
 <path fill="none" stroke="rgb(0,0,0)" stroke-linejoin="round" d="M 14744,10708 L 14744,10558"/>
 <path fill="none" stroke="rgb(0,0,0)" stroke-linejoin="round" d="M 14744,10708 L 14744,10558"/>
 <path fill="none" stroke="rgb(0,0,0)" stroke-linejoin="round" d="M 14859,10708 L 14859,10558"/>
 <path fill="none" stroke="rgb(0,0,0)" stroke-linejoin="round" d="M 14859,10708 L 14859,10558"/>
 <path fill="none" stroke="rgb(0,0,0)" stroke-linejoin="round" d="M 14974,10708 L 14974,10558"/>
 <path fill="none" stroke="rgb(0,0,0)" stroke-linejoin="round" d="M 14974,10708 L 14974,10558"/>
 <path fill="none" stroke="rgb(0,0,0)" stroke-linejoin="round" d="M 15090,10708 L 15090,10558"/>
 <path fill="none" stroke="rgb(0,0,0)" stroke-linejoin="round" d="M 15090,10708 L 15090,10558"/>
 <path fill="none" stroke="rgb(0,0,0)" stroke-linejoin="round" d="M 1371,10558 L 15090,10558"/>
 <path fill="none" stroke="rgb(0,0,0)" stroke-linejoin="round" d="M 1221,10558 L 1371,10558"/>
 <path fill="none" stroke="rgb(0,0,0)" stroke-linejoin="round" d="M 1221,10558 L 1371,10558"/>
 <path fill="none" stroke="rgb(0,0,0)" stroke-linejoin="round" d="M 1221,9595 L 1371,9595"/>
 <path fill="none" stroke="rgb(0,0,0)" stroke-linejoin="round" d="M 1221,9595 L 1371,9595"/>
 <path fill="none" stroke="rgb(0,0,0)" stroke-linejoin="round" d="M 1221,8632 L 1371,8632"/>
 <path fill="none" stroke="rgb(0,0,0)" stroke-linejoin="round" d="M 1221,8632 L 1371,8632"/>
 <path fill="none" stroke="rgb(0,0,0)" stroke-linejoin="round" d="M 1221,7669 L 1371,7669"/>
 <path fill="none" stroke="rgb(0,0,0)" stroke-linejoin="round" d="M 1221,7669 L 1371,7669"/>
 <path fill="none" stroke="rgb(0,0,0)" stroke-linejoin="round" d="M 1221,6706 L 1371,6706"/>
 <path fill="none" stroke="rgb(0,0,0)" stroke-linejoin="round" d="M 1221,6706 L 1371,6706"/>
 <path fill="none" stroke="rgb(0,0,0)" stroke-linejoin="round" d="M 1221,5744 L 1371,5744"/>
 <path fill="none" stroke="rgb(0,0,0)" stroke-linejoin="round" d="M 1221,5744 L 1371,5744"/>
 <path fill="none" stroke="rgb(0,0,0)" stroke-linejoin="round" d="M 1221,4781 L 1371,4781"/>
 <path fill="none" stroke="rgb(0,0,0)" stroke-linejoin="round" d="M 1221,4781 L 1371,4781"/>
 <path fill="none" stroke="rgb(0,0,0)" stroke-linejoin="round" d="M 1221,3818 L 1371,3818"/>
 <path fill="none" stroke="rgb(0,0,0)" stroke-linejoin="round" d="M 1221,3818 L 1371,3818"/>
 <path fill="none" stroke="rgb(0,0,0)" stroke-linejoin="round" d="M 1221,2855 L 1371,2855"/>
 <path fill="none" stroke="rgb(0,0,0)" stroke-linejoin="round" d="M 1221,2855 L 1371,2855"/>
 <path fill="none" stroke="rgb(0,0,0)" stroke-linejoin="round" d="M 1221,1892 L 1371,1892"/>
 <path fill="none" stroke="rgb(0,0,0)" stroke-linejoin="round" d="M 1221,1892 L 1371,1892"/>
 <path fill="none" stroke="rgb(0,0,0)" stroke-linejoin="round" d="M 1221,930 L 1371,930"/>
 <path fill="none" stroke="rgb(0,0,0)" stroke-linejoin="round" d="M 1221,930 L 1371,930"/>
 <path fill="none" stroke="rgb(0,0,0)" stroke-linejoin="round" d="M 1371,10558 L 1371,930"/>
 <path fill="none" stroke="rgb(0,0,0)" stroke-linejoin="round" d="M 15240,10558 L 15090,10558"/>
 <path fill="none" stroke="rgb(0,0,0)" stroke-linejoin="round" d="M 15240,10558 L 15090,10558"/>
 <path fill="none" stroke="rgb(0,0,0)" stroke-linejoin="round" d="M 15240,9595 L 15090,9595"/>
 <path fill="none" stroke="rgb(0,0,0)" stroke-linejoin="round" d="M 15240,9595 L 15090,9595"/>
 <path fill="none" stroke="rgb(0,0,0)" stroke-linejoin="round" d="M 15240,8632 L 15090,8632"/>
 <path fill="none" stroke="rgb(0,0,0)" stroke-linejoin="round" d="M 15240,8632 L 15090,8632"/>
 <path fill="none" stroke="rgb(0,0,0)" stroke-linejoin="round" d="M 15240,7669 L 15090,7669"/>
 <path fill="none" stroke="rgb(0,0,0)" stroke-linejoin="round" d="M 15240,7669 L 15090,7669"/>
 <path fill="none" stroke="rgb(0,0,0)" stroke-linejoin="round" d="M 15240,6706 L 15090,6706"/>
 <path fill="none" stroke="rgb(0,0,0)" stroke-linejoin="round" d="M 15240,6706 L 15090,6706"/>
 <path fill="none" stroke="rgb(0,0,0)" stroke-linejoin="round" d="M 15240,5744 L 15090,5744"/>
 <path fill="none" stroke="rgb(0,0,0)" stroke-linejoin="round" d="M 15240,5744 L 15090,5744"/>
 <path fill="none" stroke="rgb(0,0,0)" stroke-linejoin="round" d="M 15240,4781 L 15090,4781"/>
 <path fill="none" stroke="rgb(0,0,0)" stroke-linejoin="round" d="M 15240,4781 L 15090,4781"/>
 <path fill="none" stroke="rgb(0,0,0)" stroke-linejoin="round" d="M 15240,3818 L 15090,3818"/>
 <path fill="none" stroke="rgb(0,0,0)" stroke-linejoin="round" d="M 15240,3818 L 15090,3818"/>
 <path fill="none" stroke="rgb(0,0,0)" stroke-linejoin="round" d="M 15240,2855 L 15090,2855"/>
 <path fill="none" stroke="rgb(0,0,0)" stroke-linejoin="round" d="M 15240,2855 L 15090,2855"/>
 <path fill="none" stroke="rgb(0,0,0)" stroke-linejoin="round" d="M 15240,1892 L 15090,1892"/>
 <path fill="none" stroke="rgb(0,0,0)" stroke-linejoin="round" d="M 15240,1892 L 15090,1892"/>
 <path fill="none" stroke="rgb(0,0,0)" stroke-linejoin="round" d="M 15240,930 L 15090,930"/>
 <path fill="none" stroke="rgb(0,0,0)" stroke-linejoin="round" d="M 15240,930 L 15090,930"/>
 <path fill="none" stroke="rgb(0,0,0)" stroke-linejoin="round" d="M 15090,10558 L 15090,930"/>
 <path fill="rgb(0,69,134)" stroke="none" d="M 1371,10435 L 1486,10447 1601,10457 1716,10467 1832,10468 1947,10438 2062,10470 2178,10491 2293,10498 2408,10502 2523,10506 2639,10510 2754,10558 2869,10558 2985,10558 3100,10558 3215,10558 3331,10558 3446,10558 3561,10558 3676,10558 3792,10558 3907,10558 4022,10558 4138,10558 4253,10558 4368,10558 4483,10558 4599,10558 4714,10558 4829,10558 4945,10558 5060,10558 5175,10558 5291,10558 5406,10558 5521,10558 5636,10558 5752,10558 5867,10558 5982,10558 6098,10558 6213,10558 6328,10558 6443,10558 6559,10558 6674,10558 6789,10558 6905,10558 7020,10558 7135,10558 7251,10558 7366,10558 7481,10558 7596,10558 7712,10558 7827,10558 7942,10558 8058,10558 8173,10558 8287,10558 8402,10558 8518,10558 8633,10558 8748,10558 8864,10558 8979,10558 9094,10558 9210,10558 9325,10558 9440,10558 9555,10558 9671,10558 9786,10558 9901,10558 10017,10558 10132,10558 10247,10558 10362,10558 10478,10558 10593,10558 10708,10558 10824,10558 10939,10558 11054,10558 11170,10558 11285,10558 11400,10558 11515,10558 11631,10558 11746,10558 11861,10558 11977,10558 12092,10558 12207,10558 12322,10558 12438,10558 12553,10558 12668,10558 12784,10558 12899,10558 13014,10558 13130,10558 13245,10558 13360,10558 13475,10558 13591,10558 13706,10558 13821,10558 13937,10558 14052,10558 14167,10558 14282,10558 14398,10558 14513,10558 14628,10558 14744,10558 14859,10558 14974,10558 15090,10558 15090,10558 1371,10558 1371,10435 Z"/>
 <path fill="none" stroke="rgb(0,0,0)" stroke-linejoin="round" d="M 1371,10435 L 1486,10447 1601,10457 1716,10467 1832,10468 1947,10438 2062,10470 2178,10491 2293,10498 2408,10502 2523,10506 2639,10510 2754,10558 2869,10558 2985,10558 3100,10558 3215,10558 3331,10558 3446,10558 3561,10558 3676,10558 3792,10558 3907,10558 4022,10558 4138,10558 4253,10558 4368,10558 4483,10558 4599,10558 4714,10558 4829,10558 4945,10558 5060,10558 5175,10558 5291,10558 5406,10558 5521,10558 5636,10558 5752,10558 5867,10558 5982,10558 6098,10558 6213,10558 6328,10558 6443,10558 6559,10558 6674,10558 6789,10558 6905,10558 7020,10558 7135,10558 7251,10558 7366,10558 7481,10558 7596,10558 7712,10558 7827,10558 7942,10558 8058,10558 8173,10558 8287,10558 8402,10558 8518,10558 8633,10558 8748,10558 8864,10558 8979,10558 9094,10558 9210,10558 9325,10558 9440,10558 9555,10558 9671,10558 9786,10558 9901,10558 10017,10558 10132,10558 10247,10558 10362,10558 10478,10558 10593,10558 10708,10558 10824,10558 10939,10558 11054,10558 11170,10558 11285,10558 11400,10558 11515,10558 11631,10558 11746,10558 11861,10558 11977,10558 12092,10558 12207,10558 12322,10558 12438,10558 12553,10558 12668,10558 12784,10558 12899,10558 13014,10558 13130,10558 13245,10558 13360,10558 13475,10558 13591,10558 13706,10558 13821,10558 13937,10558 14052,10558 14167,10558 14282,10558 14398,10558 14513,10558 14628,10558 14744,10558 14859,10558 14974,10558 15090,10558 15090,10558 1371,10558 1371,10435 Z"/>
 <path fill="rgb(51,153,102)" stroke="none" d="M 1371,10069 L 1486,10124 1601,10109 1716,10136 1832,10142 1947,10112 2062,10159 2178,10213 2293,10230 2408,10249 2523,10214 2639,10269 2754,10317 2869,10369 2985,10404 3100,10408 3215,10415 3331,10424 3446,10435 3561,10443 3676,10452 3792,10457 3907,10466 4022,10473 4138,10482 4253,10488 4368,10491 4483,10454 4599,10483 4714,10493 4829,10496 4945,10504 5060,10504 5175,10509 5291,10507 5406,10485 5521,10506 5636,10506 5752,10519 5867,10514 5982,10518 6098,10525 6213,10518 6328,10513 6443,10497 6559,10525 6674,10558 6789,10558 6905,10558 7020,10558 7135,10558 7251,10558 7366,10558 7481,10558 7596,10558 7712,10558 7827,10558 7942,10558 8058,10558 8173,10558 8287,10558 8402,10558 8518,10558 8633,10558 8748,10558 8864,10558 8979,10558 9094,10558 9210,10558 9325,10558 9440,10558 9555,10558 9671,10558 9786,10558 9901,10558 10017,10558 10132,10558 10247,10558 10362,10558 10478,10558 10593,10558 10708,10558 10824,10558 10939,10558 11054,10558 11170,10558 11285,10558 11400,10558 11515,10558 11631,10558 11746,10558 11861,10558 11977,10558 12092,10558 12207,10558 12322,10558 12438,10558 12553,10558 12668,10558 12784,10558 12899,10558 13014,10558 13130,10558 13245,10558 13360,10558 13475,10558 13591,10558 13706,10558 13821,10558 13937,10558 14052,10558 14167,10558 14282,10558 14398,10558 14513,10558 14628,10558 14744,10558 14859,10558 14974,10558 15090,10558 15090,10558 14974,10558 14859,10558 14744,10558 14628,10558 14513,10558 14398,10558 14282,10558 14167,10558 14052,10558 13937,10558 13821,10558 13706,10558 13591,10558 13475,10558 13360,10558 13245,10558 13130,10558 13014,10558 12899,10558 12784,10558 12668,10558 12553,10558 12438,10558 12322,10558 12207,10558 12092,10558 11977,10558 11861,10558 11746,10558 11631,10558 11515,10558 11400,10558 11285,10558 11170,10558 11054,10558 10939,10558 10824,10558 10708,10558 10593,10558 10478,10558 10362,10558 10247,10558 10132,10558 10017,10558 9901,10558 9786,10558 9671,10558 9555,10558 9440,10558 9325,10558 9210,10558 9094,10558 8979,10558 8864,10558 8748,10558 8633,10558 8518,10558 8402,10558 8287,10558 8173,10558 8058,10558 7942,10558 7827,10558 7712,10558 7596,10558 7481,10558 7366,10558 7251,10558 7135,10558 7020,10558 6905,10558 6789,10558 6674,10558 6559,10558 6443,10558 6328,10558 6213,10558 6098,10558 5982,10558 5867,10558 5752,10558 5636,10558 5521,10558 5406,10558 5291,10558 5175,10558 5060,10558 4945,10558 4829,10558 4714,10558 4599,10558 4483,10558 4368,10558 4253,10558 4138,10558 4022,10558 3907,10558 3792,10558 3676,10558 3561,10558 3446,10558 3331,10558 3215,10558 3100,10558 2985,10558 2869,10558 2754,10558 2639,10510 2523,10506 2408,10502 2293,10498 2178,10491 2062,10470 1947,10438 1832,10468 1716,10467 1601,10457 1486,10447 1371,10435 1371,10069 Z"/>
 <path fill="none" stroke="rgb(0,0,0)" stroke-linejoin="round" d="M 1371,10069 L 1486,10124 1601,10109 1716,10136 1832,10142 1947,10112 2062,10159 2178,10213 2293,10230 2408,10249 2523,10214 2639,10269 2754,10317 2869,10369 2985,10404 3100,10408 3215,10415 3331,10424 3446,10435 3561,10443 3676,10452 3792,10457 3907,10466 4022,10473 4138,10482 4253,10488 4368,10491 4483,10454 4599,10483 4714,10493 4829,10496 4945,10504 5060,10504 5175,10509 5291,10507 5406,10485 5521,10506 5636,10506 5752,10519 5867,10514 5982,10518 6098,10525 6213,10518 6328,10513 6443,10497 6559,10525 6674,10558 6789,10558 6905,10558 7020,10558 7135,10558 7251,10558 7366,10558 7481,10558 7596,10558 7712,10558 7827,10558 7942,10558 8058,10558 8173,10558 8287,10558 8402,10558 8518,10558 8633,10558 8748,10558 8864,10558 8979,10558 9094,10558 9210,10558 9325,10558 9440,10558 9555,10558 9671,10558 9786,10558 9901,10558 10017,10558 10132,10558 10247,10558 10362,10558 10478,10558 10593,10558 10708,10558 10824,10558 10939,10558 11054,10558 11170,10558 11285,10558 11400,10558 11515,10558 11631,10558 11746,10558 11861,10558 11977,10558 12092,10558 12207,10558 12322,10558 12438,10558 12553,10558 12668,10558 12784,10558 12899,10558 13014,10558 13130,10558 13245,10558 13360,10558 13475,10558 13591,10558 13706,10558 13821,10558 13937,10558 14052,10558 14167,10558 14282,10558 14398,10558 14513,10558 14628,10558 14744,10558 14859,10558 14974,10558 15090,10558 15090,10558 14974,10558 14859,10558 14744,10558 14628,10558 14513,10558 14398,10558 14282,10558 14167,10558 14052,10558 13937,10558 13821,10558 13706,10558 13591,10558 13475,10558 13360,10558 13245,10558 13130,10558 13014,10558 12899,10558 12784,10558 12668,10558 12553,10558 12438,10558 12322,10558 12207,10558 12092,10558 11977,10558 11861,10558 11746,10558 11631,10558 11515,10558 11400,10558 11285,10558 11170,10558 11054,10558 10939,10558 10824,10558 10708,10558 10593,10558 10478,10558 10362,10558 10247,10558 10132,10558 10017,10558 9901,10558 9786,10558 9671,10558 9555,10558 9440,10558 9325,10558 9210,10558 9094,10558 8979,10558 8864,10558 8748,10558 8633,10558 8518,10558 8402,10558 8287,10558 8173,10558 8058,10558 7942,10558 7827,10558 7712,10558 7596,10558 7481,10558 7366,10558 7251,10558 7135,10558 7020,10558 6905,10558 6789,10558 6674,10558 6559,10558 6443,10558 6328,10558 6213,10558 6098,10558 5982,10558 5867,10558 5752,10558 5636,10558 5521,10558 5406,10558 5291,10558 5175,10558 5060,10558 4945,10558 4829,10558 4714,10558 4599,10558 4483,10558 4368,10558 4253,10558 4138,10558 4022,10558 3907,10558 3792,10558 3676,10558 3561,10558 3446,10558 3331,10558 3215,10558 3100,10558 2985,10558 2869,10558 2754,10558 2639,10510 2523,10506 2408,10502 2293,10498 2178,10491 2062,10470 1947,10438 1832,10468 1716,10467 1601,10457 1486,10447 1371,10435 1371,10069 Z"/>
 <path fill="rgb(131,202,255)" stroke="none" d="M 1371,2020 L 1486,2149 1601,2140 1716,2205 1832,2278 1947,2275 2062,2388 2178,2482 2293,2517 2408,2592 2523,2651 2639,2728 2754,2886 2869,2991 2985,3101 3100,3122 3215,3192 3331,3254 3446,3338 3561,3355 3676,3430 3792,3546 3907,3581 4022,3687 4138,3836 4253,3960 4368,4107 4483,4148 4599,4278 4714,4391 4829,4476 4945,4493 5060,4547 5175,4647 5291,4728 5406,4798 5521,4933 5636,5046 5752,5199 5867,5211 5982,5282 6098,5405 6213,5472 6328,5591 6443,5713 6559,5818 6674,6005 6789,6202 6905,6184 7020,6437 7135,6430 7251,6515 7366,6384 7481,6456 7596,6586 7712,6713 7827,6813 7942,6851 8058,6954 8173,7058 8287,7135 8402,7217 8518,7219 8633,7323 8748,7292 8864,7290 8979,7349 9094,7408 9210,7443 9325,7775 9440,7892 9555,7938 9671,7967 9786,8158 9901,8187 10017,8208 10132,8321 10247,8458 10362,8571 10478,8552 10593,8612 10708,8677 10824,8638 10939,9189 11054,9484 11170,9099 11285,9115 11400,9066 11515,9242 11631,9374 11746,9425 11861,9640 11977,9669 12092,9624 12207,9657 12322,9708 12438,9769 12553,9769 12668,9751 12784,9764 12899,9821 13014,9928 13130,9897 13245,9879 13360,9842 13475,9920 13591,9969 13706,9998 13821,9975 13937,9965 14052,9953 14167,10012 14282,10109 14398,10128 14513,10192 14628,10122 14744,10158 14859,10182 14974,10229 15090,10142 15090,10558 14974,10558 14859,10558 14744,10558 14628,10558 14513,10558 14398,10558 14282,10558 14167,10558 14052,10558 13937,10558 13821,10558 13706,10558 13591,10558 13475,10558 13360,10558 13245,10558 13130,10558 13014,10558 12899,10558 12784,10558 12668,10558 12553,10558 12438,10558 12322,10558 12207,10558 12092,10558 11977,10558 11861,10558 11746,10558 11631,10558 11515,10558 11400,10558 11285,10558 11170,10558 11054,10558 10939,10558 10824,10558 10708,10558 10593,10558 10478,10558 10362,10558 10247,10558 10132,10558 10017,10558 9901,10558 9786,10558 9671,10558 9555,10558 9440,10558 9325,10558 9210,10558 9094,10558 8979,10558 8864,10558 8748,10558 8633,10558 8518,10558 8402,10558 8287,10558 8173,10558 8058,10558 7942,10558 7827,10558 7712,10558 7596,10558 7481,10558 7366,10558 7251,10558 7135,10558 7020,10558 6905,10558 6789,10558 6674,10558 6559,10525 6443,10497 6328,10513 6213,10518 6098,10525 5982,10518 5867,10514 5752,10519 5636,10506 5521,10506 5406,10485 5291,10507 5175,10509 5060,10504 4945,10504 4829,10496 4714,10493 4599,10483 4483,10454 4368,10491 4253,10488 4138,10482 4022,10473 3907,10466 3792,10457 3676,10452 3561,10443 3446,10435 3331,10424 3215,10415 3100,10408 2985,10404 2869,10369 2754,10317 2639,10269 2523,10214 2408,10249 2293,10230 2178,10213 2062,10159 1947,10112 1832,10142 1716,10136 1601,10109 1486,10124 1371,10069 1371,2020 Z"/>
 <path fill="rgb(0,204,255)" stroke="none" d="M 1371,1345 L 1486,1370 1601,1386 1716,1390 1832,1399 1947,1371 2062,1413 2178,1407 2293,1394 2408,1398 2523,1422 2639,1420 2754,1511 2869,1556 2985,1587 3100,1587 3215,1609 3331,1617 3446,1666 3561,1662 3676,1707 3792,1735 3907,1788 4022,1874 4138,2046 4253,2239 4368,2433 4483,2559 4599,2736 4714,2886 4829,3006 4945,3080 5060,3166 5175,3299 5291,3443 5406,3558 5521,3718 5636,3880 5752,4076 5867,4150 5982,4265 6098,4421 6213,4516 6328,4674 6443,4821 6559,4975 6674,5185 6789,5401 6905,5427 7020,5690 7135,5712 7251,5795 7366,5704 7481,5805 7596,5978 7712,6122 7827,6236 7942,6315 8058,6425 8173,6559 8287,6645 8402,6732 8518,6777 8633,6894 8748,6872 8864,6885 8979,6966 9094,7017 9210,7088 9325,7435 9440,7554 9555,7634 9671,7670 9786,7859 9901,7920 10017,7961 10132,8079 10247,8227 10362,8344 10478,8319 10593,8373 10708,8439 10824,8391 10939,8965 11054,9275 11170,8869 11285,8930 11400,8902 11515,9089 11631,9229 11746,9269 11861,9516 11977,9530 12092,9484 12207,9529 12322,9581 12438,9649 12553,9651 12668,9632 12784,9647 12899,9726 13014,9840 13130,9809 13245,9795 13360,9758 13475,9849 13591,9898 13706,9923 13821,9901 13937,9896 14052,9898 14167,9962 14282,10065 14398,10086 14513,10154 14628,10089 14744,10158 14859,10182 14974,10229 15090,10142 15090,10142 14974,10229 14859,10182 14744,10158 14628,10122 14513,10192 14398,10128 14282,10109 14167,10012 14052,9953 13937,9965 13821,9975 13706,9998 13591,9969 13475,9920 13360,9842 13245,9879 13130,9897 13014,9928 12899,9821 12784,9764 12668,9751 12553,9769 12438,9769 12322,9708 12207,9657 12092,9624 11977,9669 11861,9640 11746,9425 11631,9374 11515,9242 11400,9066 11285,9115 11170,9099 11054,9484 10939,9189 10824,8638 10708,8677 10593,8612 10478,8552 10362,8571 10247,8458 10132,8321 10017,8208 9901,8187 9786,8158 9671,7967 9555,7938 9440,7892 9325,7775 9210,7443 9094,7408 8979,7349 8864,7290 8748,7292 8633,7323 8518,7219 8402,7217 8287,7135 8173,7058 8058,6954 7942,6851 7827,6813 7712,6713 7596,6586 7481,6456 7366,6384 7251,6515 7135,6430 7020,6437 6905,6184 6789,6202 6674,6005 6559,5818 6443,5713 6328,5591 6213,5472 6098,5405 5982,5282 5867,5211 5752,5199 5636,5046 5521,4933 5406,4798 5291,4728 5175,4647 5060,4547 4945,4493 4829,4476 4714,4391 4599,4278 4483,4148 4368,4107 4253,3960 4138,3836 4022,3687 3907,3581 3792,3546 3676,3430 3561,3355 3446,3338 3331,3254 3215,3192 3100,3122 2985,3101 2869,2991 2754,2886 2639,2728 2523,2651 2408,2592 2293,2517 2178,2482 2062,2388 1947,2275 1832,2278 1716,2205 1601,2140 1486,2149 1371,2020 1371,1345 Z"/>
 <path fill="none" stroke="rgb(0,0,0)" stroke-linejoin="round" d="M 1371,1345 L 1486,1370 1601,1386 1716,1390 1832,1399 1947,1371 2062,1413 2178,1407 2293,1394 2408,1398 2523,1422 2639,1420 2754,1511 2869,1556 2985,1587 3100,1587 3215,1609 3331,1617 3446,1666 3561,1662 3676,1707 3792,1735 3907,1788 4022,1874 4138,2046 4253,2239 4368,2433 4483,2559 4599,2736 4714,2886 4829,3006 4945,3080 5060,3166 5175,3299 5291,3443 5406,3558 5521,3718 5636,3880 5752,4076 5867,4150 5982,4265 6098,4421 6213,4516 6328,4674 6443,4821 6559,4975 6674,5185 6789,5401 6905,5427 7020,5690 7135,5712 7251,5795 7366,5704 7481,5805 7596,5978 7712,6122 7827,6236 7942,6315 8058,6425 8173,6559 8287,6645 8402,6732 8518,6777 8633,6894 8748,6872 8864,6885 8979,6966 9094,7017 9210,7088 9325,7435 9440,7554 9555,7634 9671,7670 9786,7859 9901,7920 10017,7961 10132,8079 10247,8227 10362,8344 10478,8319 10593,8373 10708,8439 10824,8391 10939,8965 11054,9275 11170,8869 11285,8930 11400,8902 11515,9089 11631,9229 11746,9269 11861,9516 11977,9530 12092,9484 12207,9529 12322,9581 12438,9649 12553,9651 12668,9632 12784,9647 12899,9726 13014,9840 13130,9809 13245,9795 13360,9758 13475,9849 13591,9898 13706,9923 13821,9901 13937,9896 14052,9898 14167,9962 14282,10065 14398,10086 14513,10154 14628,10089 14744,10158 14859,10182 14974,10229 15090,10142 15090,10142 14974,10229 14859,10182 14744,10158 14628,10122 14513,10192 14398,10128 14282,10109 14167,10012 14052,9953 13937,9965 13821,9975 13706,9998 13591,9969 13475,9920 13360,9842 13245,9879 13130,9897 13014,9928 12899,9821 12784,9764 12668,9751 12553,9769 12438,9769 12322,9708 12207,9657 12092,9624 11977,9669 11861,9640 11746,9425 11631,9374 11515,9242 11400,9066 11285,9115 11170,9099 11054,9484 10939,9189 10824,8638 10708,8677 10593,8612 10478,8552 10362,8571 10247,8458 10132,8321 10017,8208 9901,8187 9786,8158 9671,7967 9555,7938 9440,7892 9325,7775 9210,7443 9094,7408 8979,7349 8864,7290 8748,7292 8633,7323 8518,7219 8402,7217 8287,7135 8173,7058 8058,6954 7942,6851 7827,6813 7712,6713 7596,6586 7481,6456 7366,6384 7251,6515 7135,6430 7020,6437 6905,6184 6789,6202 6674,6005 6559,5818 6443,5713 6328,5591 6213,5472 6098,5405 5982,5282 5867,5211 5752,5199 5636,5046 5521,4933 5406,4798 5291,4728 5175,4647 5060,4547 4945,4493 4829,4476 4714,4391 4599,4278 4483,4148 4368,4107 4253,3960 4138,3836 4022,3687 3907,3581 3792,3546 3676,3430 3561,3355 3446,3338 3331,3254 3215,3192 3100,3122 2985,3101 2869,2991 2754,2886 2639,2728 2523,2651 2408,2592 2293,2517 2178,2482 2062,2388 1947,2275 1832,2278 1716,2205 1601,2140 1486,2149 1371,2020 1371,1345 Z"/>
 <path fill="rgb(0,102,204)" stroke="none" d="M 1371,1345 L 1486,1370 1601,1386 1716,1390 1832,1399 1947,1371 2062,1413 2178,1407 2293,1394 2408,1398 2523,1422 2639,1420 2754,1511 2869,1556 2985,1587 3100,1587 3215,1609 3331,1587 3446,1612 3561,1590 3676,1621 3792,1622 3907,1642 4022,1667 4138,1662 4253,1692 4368,1709 4483,1700 4599,1751 4714,1762 4829,1786 4945,1760 5060,1774 5175,1771 5291,1796 5406,1802 5521,1822 5636,1870 5752,1928 5867,1928 5982,1938 6098,2003 6213,2023 6328,2062 6443,2132 6559,2229 6674,2261 6789,2262 6905,2331 7020,2414 7135,2528 7251,2401 7366,2360 7481,2363 7596,2391 7712,2456 7827,2549 7942,2588 8058,2577 8173,2714 8287,2803 8402,2877 8518,3019 8633,3199 8748,3102 8864,3072 8979,3155 9094,3259 9210,3364 9325,3665 9440,3619 9555,3744 9671,3800 9786,3924 9901,4082 10017,4197 10132,4142 10247,4293 10362,4409 10478,4314 10593,4360 10708,4410 10824,4155 10939,4747 11054,4827 11170,4391 11285,4677 11400,4545 11515,4584 11631,4892 11746,4790 11861,4844 11977,4933 12092,5053 12207,5360 12322,5530 12438,5472 12553,5631 12668,5929 12784,5951 12899,6222 13014,6662 13130,6633 13245,6391 13360,6508 13475,6630 13591,6778 13706,6647 13821,6719 13937,6742 14052,6787 14167,6837 14282,7086 14398,7128 14513,6955 14628,7012 14744,6958 14859,7184 14974,7469 15090,7149 15090,10142 14974,10229 14859,10182 14744,10158 14628,10089 14513,10154 14398,10086 14282,10065 14167,9962 14052,9898 13937,9896 13821,9901 13706,9923 13591,9898 13475,9849 13360,9758 13245,9795 13130,9809 13014,9840 12899,9726 12784,9647 12668,9632 12553,9651 12438,9649 12322,9581 12207,9529 12092,9484 11977,9530 11861,9516 11746,9269 11631,9229 11515,9089 11400,8902 11285,8930 11170,8869 11054,9275 10939,8965 10824,8391 10708,8439 10593,8373 10478,8319 10362,8344 10247,8227 10132,8079 10017,7961 9901,7920 9786,7859 9671,7670 9555,7634 9440,7554 9325,7435 9210,7088 9094,7017 8979,6966 8864,6885 8748,6872 8633,6894 8518,6777 8402,6732 8287,6645 8173,6559 8058,6425 7942,6315 7827,6236 7712,6122 7596,5978 7481,5805 7366,5704 7251,5795 7135,5712 7020,5690 6905,5427 6789,5401 6674,5185 6559,4975 6443,4821 6328,4674 6213,4516 6098,4421 5982,4265 5867,4150 5752,4076 5636,3880 5521,3718 5406,3558 5291,3443 5175,3299 5060,3166 4945,3080 4829,3006 4714,2886 4599,2736 4483,2559 4368,2433 4253,2239 4138,2046 4022,1874 3907,1788 3792,1735 3676,1707 3561,1662 3446,1666 3331,1617 3215,1609 3100,1587 2985,1587 2869,1556 2754,1511 2639,1420 2523,1422 2408,1398 2293,1394 2178,1407 2062,1413 1947,1371 1832,1399 1716,1390 1601,1386 1486,1370 1371,1345 Z"/>
 <path fill="none" stroke="rgb(0,0,0)" stroke-linejoin="round" d="M 1371,1345 L 1486,1370 1601,1386 1716,1390 1832,1399 1947,1371 2062,1413 2178,1407 2293,1394 2408,1398 2523,1422 2639,1420 2754,1511 2869,1556 2985,1587 3100,1587 3215,1609 3331,1587 3446,1612 3561,1590 3676,1621 3792,1622 3907,1642 4022,1667 4138,1662 4253,1692 4368,1709 4483,1700 4599,1751 4714,1762 4829,1786 4945,1760 5060,1774 5175,1771 5291,1796 5406,1802 5521,1822 5636,1870 5752,1928 5867,1928 5982,1938 6098,2003 6213,2023 6328,2062 6443,2132 6559,2229 6674,2261 6789,2262 6905,2331 7020,2414 7135,2528 7251,2401 7366,2360 7481,2363 7596,2391 7712,2456 7827,2549 7942,2588 8058,2577 8173,2714 8287,2803 8402,2877 8518,3019 8633,3199 8748,3102 8864,3072 8979,3155 9094,3259 9210,3364 9325,3665 9440,3619 9555,3744 9671,3800 9786,3924 9901,4082 10017,4197 10132,4142 10247,4293 10362,4409 10478,4314 10593,4360 10708,4410 10824,4155 10939,4747 11054,4827 11170,4391 11285,4677 11400,4545 11515,4584 11631,4892 11746,4790 11861,4844 11977,4933 12092,5053 12207,5360 12322,5530 12438,5472 12553,5631 12668,5929 12784,5951 12899,6222 13014,6662 13130,6633 13245,6391 13360,6508 13475,6630 13591,6778 13706,6647 13821,6719 13937,6742 14052,6787 14167,6837 14282,7086 14398,7128 14513,6955 14628,7012 14744,6958 14859,7184 14974,7469 15090,7149 15090,10142 14974,10229 14859,10182 14744,10158 14628,10089 14513,10154 14398,10086 14282,10065 14167,9962 14052,9898 13937,9896 13821,9901 13706,9923 13591,9898 13475,9849 13360,9758 13245,9795 13130,9809 13014,9840 12899,9726 12784,9647 12668,9632 12553,9651 12438,9649 12322,9581 12207,9529 12092,9484 11977,9530 11861,9516 11746,9269 11631,9229 11515,9089 11400,8902 11285,8930 11170,8869 11054,9275 10939,8965 10824,8391 10708,8439 10593,8373 10478,8319 10362,8344 10247,8227 10132,8079 10017,7961 9901,7920 9786,7859 9671,7670 9555,7634 9440,7554 9325,7435 9210,7088 9094,7017 8979,6966 8864,6885 8748,6872 8633,6894 8518,6777 8402,6732 8287,6645 8173,6559 8058,6425 7942,6315 7827,6236 7712,6122 7596,5978 7481,5805 7366,5704 7251,5795 7135,5712 7020,5690 6905,5427 6789,5401 6674,5185 6559,4975 6443,4821 6328,4674 6213,4516 6098,4421 5982,4265 5867,4150 5752,4076 5636,3880 5521,3718 5406,3558 5291,3443 5175,3299 5060,3166 4945,3080 4829,3006 4714,2886 4599,2736 4483,2559 4368,2433 4253,2239 4138,2046 4022,1874 3907,1788 3792,1735 3676,1707 3561,1662 3446,1666 3331,1617 3215,1609 3100,1587 2985,1587 2869,1556 2754,1511 2639,1420 2523,1422 2408,1398 2293,1394 2178,1407 2062,1413 1947,1371 1832,1399 1716,1390 1601,1386 1486,1370 1371,1345 Z"/>
 <path fill="rgb(0,132,209)" stroke="none" d="M 1371,1345 L 1486,1370 1601,1386 1716,1390 1832,1399 1947,1371 2062,1413 2178,1407 2293,1394 2408,1398 2523,1422 2639,1420 2754,1511 2869,1556 2985,1587 3100,1587 3215,1609 3331,1587 3446,1612 3561,1590 3676,1621 3792,1622 3907,1642 4022,1667 4138,1662 4253,1692 4368,1709 4483,1700 4599,1751 4714,1762 4829,1786 4945,1760 5060,1774 5175,1771 5291,1796 5406,1802 5521,1822 5636,1870 5752,1928 5867,1928 5982,1938 6098,2003 6213,2023 6328,2062 6443,2132 6559,2229 6674,2261 6789,2262 6905,2331 7020,2414 7135,2528 7251,2401 7366,2360 7481,2363 7596,2391 7712,2456 7827,2549 7942,2588 8058,2577 8173,2679 8287,2708 8402,2724 8518,2820 8633,2967 8748,2822 8864,2745 8979,2792 9094,2826 9210,2911 9325,3033 9440,2865 9555,2968 9671,3028 9786,3055 9901,3227 10017,3347 10132,3229 10247,3316 10362,3416 10478,3321 10593,3382 10708,3357 10824,3170 10939,3411 11054,3355 11170,3315 11285,3625 11400,3452 11515,3491 11631,3803 11746,3514 11861,3616 11977,3732 12092,3981 12207,4377 12322,4568 12438,4427 12553,4688 12668,5005 12784,5086 12899,5412 13014,5874 13130,5888 13245,5667 13360,5825 13475,5968 13591,6158 13706,5933 13821,6048 13937,6183 14052,6225 14167,6287 14282,6589 14398,6607 14513,6416 14628,6524 14744,6442 14859,6724 14974,7048 15090,6675 15090,7149 14974,7469 14859,7184 14744,6958 14628,7012 14513,6955 14398,7128 14282,7086 14167,6837 14052,6787 13937,6742 13821,6719 13706,6647 13591,6778 13475,6630 13360,6508 13245,6391 13130,6633 13014,6662 12899,6222 12784,5951 12668,5929 12553,5631 12438,5472 12322,5530 12207,5360 12092,5053 11977,4933 11861,4844 11746,4790 11631,4892 11515,4584 11400,4545 11285,4677 11170,4391 11054,4827 10939,4747 10824,4155 10708,4410 10593,4360 10478,4314 10362,4409 10247,4293 10132,4142 10017,4197 9901,4082 9786,3924 9671,3800 9555,3744 9440,3619 9325,3665 9210,3364 9094,3259 8979,3155 8864,3072 8748,3102 8633,3199 8518,3019 8402,2877 8287,2803 8173,2714 8058,2577 7942,2588 7827,2549 7712,2456 7596,2391 7481,2363 7366,2360 7251,2401 7135,2528 7020,2414 6905,2331 6789,2262 6674,2261 6559,2229 6443,2132 6328,2062 6213,2023 6098,2003 5982,1938 5867,1928 5752,1928 5636,1870 5521,1822 5406,1802 5291,1796 5175,1771 5060,1774 4945,1760 4829,1786 4714,1762 4599,1751 4483,1700 4368,1709 4253,1692 4138,1662 4022,1667 3907,1642 3792,1622 3676,1621 3561,1590 3446,1612 3331,1587 3215,1609 3100,1587 2985,1587 2869,1556 2754,1511 2639,1420 2523,1422 2408,1398 2293,1394 2178,1407 2062,1413 1947,1371 1832,1399 1716,1390 1601,1386 1486,1370 1371,1345 Z"/>
 <path fill="none" stroke="rgb(0,0,0)" stroke-linejoin="round" d="M 1371,1345 L 1486,1370 1601,1386 1716,1390 1832,1399 1947,1371 2062,1413 2178,1407 2293,1394 2408,1398 2523,1422 2639,1420 2754,1511 2869,1556 2985,1587 3100,1587 3215,1609 3331,1587 3446,1612 3561,1590 3676,1621 3792,1622 3907,1642 4022,1667 4138,1662 4253,1692 4368,1709 4483,1700 4599,1751 4714,1762 4829,1786 4945,1760 5060,1774 5175,1771 5291,1796 5406,1802 5521,1822 5636,1870 5752,1928 5867,1928 5982,1938 6098,2003 6213,2023 6328,2062 6443,2132 6559,2229 6674,2261 6789,2262 6905,2331 7020,2414 7135,2528 7251,2401 7366,2360 7481,2363 7596,2391 7712,2456 7827,2549 7942,2588 8058,2577 8173,2679 8287,2708 8402,2724 8518,2820 8633,2967 8748,2822 8864,2745 8979,2792 9094,2826 9210,2911 9325,3033 9440,2865 9555,2968 9671,3028 9786,3055 9901,3227 10017,3347 10132,3229 10247,3316 10362,3416 10478,3321 10593,3382 10708,3357 10824,3170 10939,3411 11054,3355 11170,3315 11285,3625 11400,3452 11515,3491 11631,3803 11746,3514 11861,3616 11977,3732 12092,3981 12207,4377 12322,4568 12438,4427 12553,4688 12668,5005 12784,5086 12899,5412 13014,5874 13130,5888 13245,5667 13360,5825 13475,5968 13591,6158 13706,5933 13821,6048 13937,6183 14052,6225 14167,6287 14282,6589 14398,6607 14513,6416 14628,6524 14744,6442 14859,6724 14974,7048 15090,6675 15090,7149 14974,7469 14859,7184 14744,6958 14628,7012 14513,6955 14398,7128 14282,7086 14167,6837 14052,6787 13937,6742 13821,6719 13706,6647 13591,6778 13475,6630 13360,6508 13245,6391 13130,6633 13014,6662 12899,6222 12784,5951 12668,5929 12553,5631 12438,5472 12322,5530 12207,5360 12092,5053 11977,4933 11861,4844 11746,4790 11631,4892 11515,4584 11400,4545 11285,4677 11170,4391 11054,4827 10939,4747 10824,4155 10708,4410 10593,4360 10478,4314 10362,4409 10247,4293 10132,4142 10017,4197 9901,4082 9786,3924 9671,3800 9555,3744 9440,3619 9325,3665 9210,3364 9094,3259 8979,3155 8864,3072 8748,3102 8633,3199 8518,3019 8402,2877 8287,2803 8173,2714 8058,2577 7942,2588 7827,2549 7712,2456 7596,2391 7481,2363 7366,2360 7251,2401 7135,2528 7020,2414 6905,2331 6789,2262 6674,2261 6559,2229 6443,2132 6328,2062 6213,2023 6098,2003 5982,1938 5867,1928 5752,1928 5636,1870 5521,1822 5406,1802 5291,1796 5175,1771 5060,1774 4945,1760 4829,1786 4714,1762 4599,1751 4483,1700 4368,1709 4253,1692 4138,1662 4022,1667 3907,1642 3792,1622 3676,1621 3561,1590 3446,1612 3331,1587 3215,1609 3100,1587 2985,1587 2869,1556 2754,1511 2639,1420 2523,1422 2408,1398 2293,1394 2178,1407 2062,1413 1947,1371 1832,1399 1716,1390 1601,1386 1486,1370 1371,1345 Z"/>
 <path fill="rgb(0,69,134)" stroke="none" d="M 1371,1345 L 1486,1370 1601,1386 1716,1390 1832,1399 1947,1371 2062,1413 2178,1407 2293,1394 2408,1398 2523,1422 2639,1420 2754,1511 2869,1556 2985,1587 3100,1587 3215,1609 3331,1587 3446,1612 3561,1590 3676,1621 3792,1622 3907,1642 4022,1667 4138,1662 4253,1692 4368,1709 4483,1700 4599,1751 4714,1762 4829,1786 4945,1760 5060,1774 5175,1771 5291,1796 5406,1802 5521,1822 5636,1870 5752,1928 5867,1928 5982,1938 6098,2003 6213,2023 6328,2062 6443,2132 6559,2229 6674,2261 6789,2262 6905,2331 7020,2414 7135,2528 7251,2401 7366,2360 7481,2363 7596,2391 7712,2456 7827,2549 7942,2588 8058,2577 8173,2679 8287,2708 8402,2724 8518,2820 8633,2967 8748,2822 8864,2745 8979,2792 9094,2826 9210,2911 9325,3033 9440,2865 9555,2968 9671,3028 9786,3055 9901,3227 10017,3347 10132,3229 10247,3316 10362,3416 10478,3321 10593,3382 10708,3357 10824,3170 10939,3411 11054,3355 11170,3315 11285,3625 11400,3452 11515,3491 11631,3803 11746,3514 11861,3616 11977,3703 12092,3580 12207,3887 12322,3991 12438,3756 12553,3969 12668,4169 12784,4180 12899,4456 13014,4939 13130,4748 13245,4339 13360,4365 13475,4402 13591,4701 13706,4403 13821,4448 13937,4595 14052,4558 14167,4661 14282,5061 14398,5005 14513,4685 14628,4843 14744,4635 14859,4993 14974,5338 15090,4798 15090,6675 14974,7048 14859,6724 14744,6442 14628,6524 14513,6416 14398,6607 14282,6589 14167,6287 14052,6225 13937,6183 13821,6048 13706,5933 13591,6158 13475,5968 13360,5825 13245,5667 13130,5888 13014,5874 12899,5412 12784,5086 12668,5005 12553,4688 12438,4427 12322,4568 12207,4377 12092,3981 11977,3732 11861,3616 11746,3514 11631,3803 11515,3491 11400,3452 11285,3625 11170,3315 11054,3355 10939,3411 10824,3170 10708,3357 10593,3382 10478,3321 10362,3416 10247,3316 10132,3229 10017,3347 9901,3227 9786,3055 9671,3028 9555,2968 9440,2865 9325,3033 9210,2911 9094,2826 8979,2792 8864,2745 8748,2822 8633,2967 8518,2820 8402,2724 8287,2708 8173,2679 8058,2577 7942,2588 7827,2549 7712,2456 7596,2391 7481,2363 7366,2360 7251,2401 7135,2528 7020,2414 6905,2331 6789,2262 6674,2261 6559,2229 6443,2132 6328,2062 6213,2023 6098,2003 5982,1938 5867,1928 5752,1928 5636,1870 5521,1822 5406,1802 5291,1796 5175,1771 5060,1774 4945,1760 4829,1786 4714,1762 4599,1751 4483,1700 4368,1709 4253,1692 4138,1662 4022,1667 3907,1642 3792,1622 3676,1621 3561,1590 3446,1612 3331,1587 3215,1609 3100,1587 2985,1587 2869,1556 2754,1511 2639,1420 2523,1422 2408,1398 2293,1394 2178,1407 2062,1413 1947,1371 1832,1399 1716,1390 1601,1386 1486,1370 1371,1345 Z"/>
 <path fill="none" stroke="rgb(0,0,0)" stroke-linejoin="round" d="M 1371,1345 L 1486,1370 1601,1386 1716,1390 1832,1399 1947,1371 2062,1413 2178,1407 2293,1394 2408,1398 2523,1422 2639,1420 2754,1511 2869,1556 2985,1587 3100,1587 3215,1609 3331,1587 3446,1612 3561,1590 3676,1621 3792,1622 3907,1642 4022,1667 4138,1662 4253,1692 4368,1709 4483,1700 4599,1751 4714,1762 4829,1786 4945,1760 5060,1774 5175,1771 5291,1796 5406,1802 5521,1822 5636,1870 5752,1928 5867,1928 5982,1938 6098,2003 6213,2023 6328,2062 6443,2132 6559,2229 6674,2261 6789,2262 6905,2331 7020,2414 7135,2528 7251,2401 7366,2360 7481,2363 7596,2391 7712,2456 7827,2549 7942,2588 8058,2577 8173,2679 8287,2708 8402,2724 8518,2820 8633,2967 8748,2822 8864,2745 8979,2792 9094,2826 9210,2911 9325,3033 9440,2865 9555,2968 9671,3028 9786,3055 9901,3227 10017,3347 10132,3229 10247,3316 10362,3416 10478,3321 10593,3382 10708,3357 10824,3170 10939,3411 11054,3355 11170,3315 11285,3625 11400,3452 11515,3491 11631,3803 11746,3514 11861,3616 11977,3703 12092,3580 12207,3887 12322,3991 12438,3756 12553,3969 12668,4169 12784,4180 12899,4456 13014,4939 13130,4748 13245,4339 13360,4365 13475,4402 13591,4701 13706,4403 13821,4448 13937,4595 14052,4558 14167,4661 14282,5061 14398,5005 14513,4685 14628,4843 14744,4635 14859,4993 14974,5338 15090,4798 15090,6675 14974,7048 14859,6724 14744,6442 14628,6524 14513,6416 14398,6607 14282,6589 14167,6287 14052,6225 13937,6183 13821,6048 13706,5933 13591,6158 13475,5968 13360,5825 13245,5667 13130,5888 13014,5874 12899,5412 12784,5086 12668,5005 12553,4688 12438,4427 12322,4568 12207,4377 12092,3981 11977,3732 11861,3616 11746,3514 11631,3803 11515,3491 11400,3452 11285,3625 11170,3315 11054,3355 10939,3411 10824,3170 10708,3357 10593,3382 10478,3321 10362,3416 10247,3316 10132,3229 10017,3347 9901,3227 9786,3055 9671,3028 9555,2968 9440,2865 9325,3033 9210,2911 9094,2826 8979,2792 8864,2745 8748,2822 8633,2967 8518,2820 8402,2724 8287,2708 8173,2679 8058,2577 7942,2588 7827,2549 7712,2456 7596,2391 7481,2363 7366,2360 7251,2401 7135,2528 7020,2414 6905,2331 6789,2262 6674,2261 6559,2229 6443,2132 6328,2062 6213,2023 6098,2003 5982,1938 5867,1928 5752,1928 5636,1870 5521,1822 5406,1802 5291,1796 5175,1771 5060,1774 4945,1760 4829,1786 4714,1762 4599,1751 4483,1700 4368,1709 4253,1692 4138,1662 4022,1667 3907,1642 3792,1622 3676,1621 3561,1590 3446,1612 3331,1587 3215,1609 3100,1587 2985,1587 2869,1556 2754,1511 2639,1420 2523,1422 2408,1398 2293,1394 2178,1407 2062,1413 1947,1371 1832,1399 1716,1390 1601,1386 1486,1370 1371,1345 Z"/>
 <path fill="rgb(0,102,0)" stroke="none" d="M 1371,1015 L 1486,1024 1601,1027 1716,1033 1832,1036 1947,1039 2062,1052 2178,1052 2293,1053 2408,1057 2523,1061 2639,1054 2754,1113 2869,1128 2985,1134 3100,1150 3215,1158 3331,1140 3446,1158 3561,1138 3676,1154 3792,1153 3907,1150 4022,1161 4138,1170 4253,1200 4368,1215 4483,1218 4599,1238 4714,1250 4829,1280 4945,1264 5060,1287 5175,1290 5291,1315 5406,1325 5521,1340 5636,1388 5752,1424 5867,1430 5982,1434 6098,1486 6213,1513 6328,1549 6443,1597 6559,1688 6674,1681 6789,1632 6905,1754 7020,1850 7135,1970 7251,1784 7366,1778 7481,1782 7596,1821 7712,1864 7827,1940 7942,1967 8058,1951 8173,2063 8287,2081 8402,2120 8518,2221 8633,2373 8748,2238 8864,2147 8979,2191 9094,2216 9210,2309 9325,2431 9440,2226 9555,2321 9671,2401 9786,2431 9901,2608 10017,2736 10132,2617 10247,2708 10362,2835 10478,2788 10593,2862 10708,2827 10824,2657 10939,2850 11054,2782 11170,2741 11285,3085 11400,2915 11515,2927 11631,3256 11746,2944 11861,3039 11977,3123 12092,3002 12207,3318 12322,3409 12438,3236 12553,3462 12668,3627 12784,3632 12899,3932 13014,4340 13130,4191 13245,3771 13360,3821 13475,3900 13591,4254 13706,3968 13821,3993 13937,4199 14052,4142 14167,4262 14282,4683 14398,4624 14513,4274 14628,4459 14744,4242 14859,4625 14974,4963 15090,4397 15090,4798 14974,5338 14859,4993 14744,4635 14628,4843 14513,4685 14398,5005 14282,5061 14167,4661 14052,4558 13937,4595 13821,4448 13706,4403 13591,4701 13475,4402 13360,4365 13245,4339 13130,4748 13014,4939 12899,4456 12784,4180 12668,4169 12553,3969 12438,3756 12322,3991 12207,3887 12092,3580 11977,3703 11861,3616 11746,3514 11631,3803 11515,3491 11400,3452 11285,3625 11170,3315 11054,3355 10939,3411 10824,3170 10708,3357 10593,3382 10478,3321 10362,3416 10247,3316 10132,3229 10017,3347 9901,3227 9786,3055 9671,3028 9555,2968 9440,2865 9325,3033 9210,2911 9094,2826 8979,2792 8864,2745 8748,2822 8633,2967 8518,2820 8402,2724 8287,2708 8173,2679 8058,2577 7942,2588 7827,2549 7712,2456 7596,2391 7481,2363 7366,2360 7251,2401 7135,2528 7020,2414 6905,2331 6789,2262 6674,2261 6559,2229 6443,2132 6328,2062 6213,2023 6098,2003 5982,1938 5867,1928 5752,1928 5636,1870 5521,1822 5406,1802 5291,1796 5175,1771 5060,1774 4945,1760 4829,1786 4714,1762 4599,1751 4483,1700 4368,1709 4253,1692 4138,1662 4022,1667 3907,1642 3792,1622 3676,1621 3561,1590 3446,1612 3331,1587 3215,1609 3100,1587 2985,1587 2869,1556 2754,1511 2639,1420 2523,1422 2408,1398 2293,1394 2178,1407 2062,1413 1947,1371 1832,1399 1716,1390 1601,1386 1486,1370 1371,1345 1371,1015 Z"/>
 <path fill="none" stroke="rgb(0,0,0)" stroke-linejoin="round" d="M 1371,1015 L 1486,1024 1601,1027 1716,1033 1832,1036 1947,1039 2062,1052 2178,1052 2293,1053 2408,1057 2523,1061 2639,1054 2754,1113 2869,1128 2985,1134 3100,1150 3215,1158 3331,1140 3446,1158 3561,1138 3676,1154 3792,1153 3907,1150 4022,1161 4138,1170 4253,1200 4368,1215 4483,1218 4599,1238 4714,1250 4829,1280 4945,1264 5060,1287 5175,1290 5291,1315 5406,1325 5521,1340 5636,1388 5752,1424 5867,1430 5982,1434 6098,1486 6213,1513 6328,1549 6443,1597 6559,1688 6674,1681 6789,1632 6905,1754 7020,1850 7135,1970 7251,1784 7366,1778 7481,1782 7596,1821 7712,1864 7827,1940 7942,1967 8058,1951 8173,2063 8287,2081 8402,2120 8518,2221 8633,2373 8748,2238 8864,2147 8979,2191 9094,2216 9210,2309 9325,2431 9440,2226 9555,2321 9671,2401 9786,2431 9901,2608 10017,2736 10132,2617 10247,2708 10362,2835 10478,2788 10593,2862 10708,2827 10824,2657 10939,2850 11054,2782 11170,2741 11285,3085 11400,2915 11515,2927 11631,3256 11746,2944 11861,3039 11977,3123 12092,3002 12207,3318 12322,3409 12438,3236 12553,3462 12668,3627 12784,3632 12899,3932 13014,4340 13130,4191 13245,3771 13360,3821 13475,3900 13591,4254 13706,3968 13821,3993 13937,4199 14052,4142 14167,4262 14282,4683 14398,4624 14513,4274 14628,4459 14744,4242 14859,4625 14974,4963 15090,4397 15090,4798 14974,5338 14859,4993 14744,4635 14628,4843 14513,4685 14398,5005 14282,5061 14167,4661 14052,4558 13937,4595 13821,4448 13706,4403 13591,4701 13475,4402 13360,4365 13245,4339 13130,4748 13014,4939 12899,4456 12784,4180 12668,4169 12553,3969 12438,3756 12322,3991 12207,3887 12092,3580 11977,3703 11861,3616 11746,3514 11631,3803 11515,3491 11400,3452 11285,3625 11170,3315 11054,3355 10939,3411 10824,3170 10708,3357 10593,3382 10478,3321 10362,3416 10247,3316 10132,3229 10017,3347 9901,3227 9786,3055 9671,3028 9555,2968 9440,2865 9325,3033 9210,2911 9094,2826 8979,2792 8864,2745 8748,2822 8633,2967 8518,2820 8402,2724 8287,2708 8173,2679 8058,2577 7942,2588 7827,2549 7712,2456 7596,2391 7481,2363 7366,2360 7251,2401 7135,2528 7020,2414 6905,2331 6789,2262 6674,2261 6559,2229 6443,2132 6328,2062 6213,2023 6098,2003 5982,1938 5867,1928 5752,1928 5636,1870 5521,1822 5406,1802 5291,1796 5175,1771 5060,1774 4945,1760 4829,1786 4714,1762 4599,1751 4483,1700 4368,1709 4253,1692 4138,1662 4022,1667 3907,1642 3792,1622 3676,1621 3561,1590 3446,1612 3331,1587 3215,1609 3100,1587 2985,1587 2869,1556 2754,1511 2639,1420 2523,1422 2408,1398 2293,1394 2178,1407 2062,1413 1947,1371 1832,1399 1716,1390 1601,1386 1486,1370 1371,1345 1371,1015 Z"/>
 <path fill="rgb(255,211,32)" stroke="none" d="M 1371,1015 L 1486,1024 1601,1027 1716,1033 1832,1036 1947,1039 2062,1052 2178,1052 2293,1053 2408,1057 2523,1061 2639,1054 2754,1086 2869,1094 2985,1079 3100,1092 3215,1094 3331,1071 3446,1085 3561,1062 3676,1069 3792,1061 3907,1058 4022,1060 4138,1058 4253,1067 4368,1066 4483,1063 4599,1068 4714,1072 4829,1096 4945,1071 5060,1058 5175,1047 5291,1049 5406,1059 5521,1060 5636,1061 5752,1064 5867,1061 5982,1060 6098,1063 6213,1055 6328,1070 6443,1069 6559,1076 6674,1105 6789,1101 6905,1110 7020,1207 7135,1127 7251,1089 7366,1085 7481,1080 7596,1074 7712,1077 7827,1153 7942,1084 8058,1091 8173,1073 8287,1079 8402,1078 8518,1087 8633,1107 8748,1084 8864,1095 8979,1118 9094,1118 9210,1113 9325,1140 9440,1141 9555,1141 9671,1136 9786,1149 9901,1149 10017,1161 10132,1141 10247,1149 10362,1107 10478,1124 10593,1116 10708,1092 10824,1102 10939,1296 11054,1083 11170,1165 11285,1150 11400,1151 11515,1142 11631,1131 11746,1136 11861,1129 11977,1106 12092,1094 12207,1108 12322,1100 12438,1099 12553,1114 12668,1131 12784,1143 12899,1139 13014,1321 13130,1182 13245,1154 13360,1159 13475,1144 13591,1162 13706,1183 13821,1174 13937,1182 14052,1180 14167,1171 14282,1161 14398,1165 14513,1183 14628,1155 14744,1186 14859,1217 14974,1340 15090,1233 15090,4397 14974,4963 14859,4625 14744,4242 14628,4459 14513,4274 14398,4624 14282,4683 14167,4262 14052,4142 13937,4199 13821,3993 13706,3968 13591,4254 13475,3900 13360,3821 13245,3771 13130,4191 13014,4340 12899,3932 12784,3632 12668,3627 12553,3462 12438,3236 12322,3409 12207,3318 12092,3002 11977,3123 11861,3039 11746,2944 11631,3256 11515,2927 11400,2915 11285,3085 11170,2741 11054,2782 10939,2850 10824,2657 10708,2827 10593,2862 10478,2788 10362,2835 10247,2708 10132,2617 10017,2736 9901,2608 9786,2431 9671,2401 9555,2321 9440,2226 9325,2431 9210,2309 9094,2216 8979,2191 8864,2147 8748,2238 8633,2373 8518,2221 8402,2120 8287,2081 8173,2063 8058,1951 7942,1967 7827,1940 7712,1864 7596,1821 7481,1782 7366,1778 7251,1784 7135,1970 7020,1850 6905,1754 6789,1632 6674,1681 6559,1688 6443,1597 6328,1549 6213,1513 6098,1486 5982,1434 5867,1430 5752,1424 5636,1388 5521,1340 5406,1325 5291,1315 5175,1290 5060,1287 4945,1264 4829,1280 4714,1250 4599,1238 4483,1218 4368,1215 4253,1200 4138,1170 4022,1161 3907,1150 3792,1153 3676,1154 3561,1138 3446,1158 3331,1140 3215,1158 3100,1150 2985,1134 2869,1128 2754,1113 2639,1054 2523,1061 2408,1057 2293,1053 2178,1052 2062,1052 1947,1039 1832,1036 1716,1033 1601,1027 1486,1024 1371,1015 Z"/>
 <path fill="none" stroke="rgb(0,0,0)" stroke-linejoin="round" d="M 1371,1015 L 1486,1024 1601,1027 1716,1033 1832,1036 1947,1039 2062,1052 2178,1052 2293,1053 2408,1057 2523,1061 2639,1054 2754,1086 2869,1094 2985,1079 3100,1092 3215,1094 3331,1071 3446,1085 3561,1062 3676,1069 3792,1061 3907,1058 4022,1060 4138,1058 4253,1067 4368,1066 4483,1063 4599,1068 4714,1072 4829,1096 4945,1071 5060,1058 5175,1047 5291,1049 5406,1059 5521,1060 5636,1061 5752,1064 5867,1061 5982,1060 6098,1063 6213,1055 6328,1070 6443,1069 6559,1076 6674,1105 6789,1101 6905,1110 7020,1207 7135,1127 7251,1089 7366,1085 7481,1080 7596,1074 7712,1077 7827,1153 7942,1084 8058,1091 8173,1073 8287,1079 8402,1078 8518,1087 8633,1107 8748,1084 8864,1095 8979,1118 9094,1118 9210,1113 9325,1140 9440,1141 9555,1141 9671,1136 9786,1149 9901,1149 10017,1161 10132,1141 10247,1149 10362,1107 10478,1124 10593,1116 10708,1092 10824,1102 10939,1296 11054,1083 11170,1165 11285,1150 11400,1151 11515,1142 11631,1131 11746,1136 11861,1129 11977,1106 12092,1094 12207,1108 12322,1100 12438,1099 12553,1114 12668,1131 12784,1143 12899,1139 13014,1321 13130,1182 13245,1154 13360,1159 13475,1144 13591,1162 13706,1183 13821,1174 13937,1182 14052,1180 14167,1171 14282,1161 14398,1165 14513,1183 14628,1155 14744,1186 14859,1217 14974,1340 15090,1233 15090,4397 14974,4963 14859,4625 14744,4242 14628,4459 14513,4274 14398,4624 14282,4683 14167,4262 14052,4142 13937,4199 13821,3993 13706,3968 13591,4254 13475,3900 13360,3821 13245,3771 13130,4191 13014,4340 12899,3932 12784,3632 12668,3627 12553,3462 12438,3236 12322,3409 12207,3318 12092,3002 11977,3123 11861,3039 11746,2944 11631,3256 11515,2927 11400,2915 11285,3085 11170,2741 11054,2782 10939,2850 10824,2657 10708,2827 10593,2862 10478,2788 10362,2835 10247,2708 10132,2617 10017,2736 9901,2608 9786,2431 9671,2401 9555,2321 9440,2226 9325,2431 9210,2309 9094,2216 8979,2191 8864,2147 8748,2238 8633,2373 8518,2221 8402,2120 8287,2081 8173,2063 8058,1951 7942,1967 7827,1940 7712,1864 7596,1821 7481,1782 7366,1778 7251,1784 7135,1970 7020,1850 6905,1754 6789,1632 6674,1681 6559,1688 6443,1597 6328,1549 6213,1513 6098,1486 5982,1434 5867,1430 5752,1424 5636,1388 5521,1340 5406,1325 5291,1315 5175,1290 5060,1287 4945,1264 4829,1280 4714,1250 4599,1238 4483,1218 4368,1215 4253,1200 4138,1170 4022,1161 3907,1150 3792,1153 3676,1154 3561,1138 3446,1158 3331,1140 3215,1158 3100,1150 2985,1134 2869,1128 2754,1113 2639,1054 2523,1061 2408,1057 2293,1053 2178,1052 2062,1052 1947,1039 1832,1036 1716,1033 1601,1027 1486,1024 1371,1015 Z"/>
 <path fill="rgb(255,51,51)" stroke="none" d="M 1371,952 L 1486,956 1601,956 1716,960 1832,965 1947,965 2062,965 2178,967 2293,972 2408,978 2523,978 2639,979 2754,998 2869,999 2985,991 3100,997 3215,996 3331,967 3446,971 3561,965 3676,968 3792,971 3907,966 4022,968 4138,960 4253,969 4368,968 4483,969 4599,969 4714,971 4829,987 4945,968 5060,968 5175,965 5291,967 5406,976 5521,971 5636,969 5752,973 5867,973 5982,968 6098,973 6213,967 6328,979 6443,981 6559,980 6674,1005 6789,993 6905,993 7020,1082 7135,991 7251,986 7366,998 7481,993 7596,983 7712,985 7827,1064 7942,988 8058,994 8173,973 8287,972 8402,977 8518,985 8633,1007 8748,986 8864,992 8979,1010 9094,1010 9210,1009 9325,1014 9440,1001 9555,1006 9671,1006 9786,1006 9901,1020 10017,1043 10132,1021 10247,1024 10362,980 10478,986 10593,985 10708,960 10824,971 10939,1183 11054,984 11170,1058 11285,1049 11400,1032 11515,1026 11631,1018 11746,1014 11861,1006 11977,979 12092,969 12207,979 12322,986 12438,978 12553,994 12668,1010 12784,1018 12899,1019 13014,1219 13130,1065 13245,1014 13360,998 13475,1001 13591,1018 13706,1035 13821,1018 13937,1038 14052,1030 14167,1039 14282,1033 14398,1038 14513,1054 14628,1007 14744,1020 14859,1009 14974,1052 15090,1041 15090,1233 14974,1340 14859,1217 14744,1186 14628,1155 14513,1183 14398,1165 14282,1161 14167,1171 14052,1180 13937,1182 13821,1174 13706,1183 13591,1162 13475,1144 13360,1159 13245,1154 13130,1182 13014,1321 12899,1139 12784,1143 12668,1131 12553,1114 12438,1099 12322,1100 12207,1108 12092,1094 11977,1106 11861,1129 11746,1136 11631,1131 11515,1142 11400,1151 11285,1150 11170,1165 11054,1083 10939,1296 10824,1102 10708,1092 10593,1116 10478,1124 10362,1107 10247,1149 10132,1141 10017,1161 9901,1149 9786,1149 9671,1136 9555,1141 9440,1141 9325,1140 9210,1113 9094,1118 8979,1118 8864,1095 8748,1084 8633,1107 8518,1087 8402,1078 8287,1079 8173,1073 8058,1091 7942,1084 7827,1153 7712,1077 7596,1074 7481,1080 7366,1085 7251,1089 7135,1127 7020,1207 6905,1110 6789,1101 6674,1105 6559,1076 6443,1069 6328,1070 6213,1055 6098,1063 5982,1060 5867,1061 5752,1064 5636,1061 5521,1060 5406,1059 5291,1049 5175,1047 5060,1058 4945,1071 4829,1096 4714,1072 4599,1068 4483,1063 4368,1066 4253,1067 4138,1058 4022,1060 3907,1058 3792,1061 3676,1069 3561,1062 3446,1085 3331,1071 3215,1094 3100,1092 2985,1079 2869,1094 2754,1086 2639,1054 2523,1061 2408,1057 2293,1053 2178,1052 2062,1052 1947,1039 1832,1036 1716,1033 1601,1027 1486,1024 1371,1015 1371,952 Z"/>
 <path fill="none" stroke="rgb(0,0,0)" stroke-linejoin="round" d="M 1371,952 L 1486,956 1601,956 1716,960 1832,965 1947,965 2062,965 2178,967 2293,972 2408,978 2523,978 2639,979 2754,998 2869,999 2985,991 3100,997 3215,996 3331,967 3446,971 3561,965 3676,968 3792,971 3907,966 4022,968 4138,960 4253,969 4368,968 4483,969 4599,969 4714,971 4829,987 4945,968 5060,968 5175,965 5291,967 5406,976 5521,971 5636,969 5752,973 5867,973 5982,968 6098,973 6213,967 6328,979 6443,981 6559,980 6674,1005 6789,993 6905,993 7020,1082 7135,991 7251,986 7366,998 7481,993 7596,983 7712,985 7827,1064 7942,988 8058,994 8173,973 8287,972 8402,977 8518,985 8633,1007 8748,986 8864,992 8979,1010 9094,1010 9210,1009 9325,1014 9440,1001 9555,1006 9671,1006 9786,1006 9901,1020 10017,1043 10132,1021 10247,1024 10362,980 10478,986 10593,985 10708,960 10824,971 10939,1183 11054,984 11170,1058 11285,1049 11400,1032 11515,1026 11631,1018 11746,1014 11861,1006 11977,979 12092,969 12207,979 12322,986 12438,978 12553,994 12668,1010 12784,1018 12899,1019 13014,1219 13130,1065 13245,1014 13360,998 13475,1001 13591,1018 13706,1035 13821,1018 13937,1038 14052,1030 14167,1039 14282,1033 14398,1038 14513,1054 14628,1007 14744,1020 14859,1009 14974,1052 15090,1041 15090,1233 14974,1340 14859,1217 14744,1186 14628,1155 14513,1183 14398,1165 14282,1161 14167,1171 14052,1180 13937,1182 13821,1174 13706,1183 13591,1162 13475,1144 13360,1159 13245,1154 13130,1182 13014,1321 12899,1139 12784,1143 12668,1131 12553,1114 12438,1099 12322,1100 12207,1108 12092,1094 11977,1106 11861,1129 11746,1136 11631,1131 11515,1142 11400,1151 11285,1150 11170,1165 11054,1083 10939,1296 10824,1102 10708,1092 10593,1116 10478,1124 10362,1107 10247,1149 10132,1141 10017,1161 9901,1149 9786,1149 9671,1136 9555,1141 9440,1141 9325,1140 9210,1113 9094,1118 8979,1118 8864,1095 8748,1084 8633,1107 8518,1087 8402,1078 8287,1079 8173,1073 8058,1091 7942,1084 7827,1153 7712,1077 7596,1074 7481,1080 7366,1085 7251,1089 7135,1127 7020,1207 6905,1110 6789,1101 6674,1105 6559,1076 6443,1069 6328,1070 6213,1055 6098,1063 5982,1060 5867,1061 5752,1064 5636,1061 5521,1060 5406,1059 5291,1049 5175,1047 5060,1058 4945,1071 4829,1096 4714,1072 4599,1068 4483,1063 4368,1066 4253,1067 4138,1058 4022,1060 3907,1058 3792,1061 3676,1069 3561,1062 3446,1085 3331,1071 3215,1094 3100,1092 2985,1079 2869,1094 2754,1086 2639,1054 2523,1061 2408,1057 2293,1053 2178,1052 2062,1052 1947,1039 1832,1036 1716,1033 1601,1027 1486,1024 1371,1015 1371,952 Z"/>
 <path fill="rgb(255,255,255)" stroke="none" d="M 1371,930 L 1486,930 1601,930 1716,930 1947,930 2178,930 2293,930 2408,930 2523,930 2639,930 2754,930 2869,930 2985,930 3100,930 3215,930 3331,930 3446,930 3561,930 3676,930 3792,930 3907,930 4022,930 4138,930 4253,930 4368,930 4483,930 4599,930 4714,930 4829,930 4945,930 5060,930 5175,930 5291,930 5521,930 5636,930 5752,930 5867,930 5982,930 6098,930 6213,930 6443,930 6559,930 6674,930 6789,930 6905,930 7020,930 7135,930 7251,930 7366,930 7481,930 7596,930 7712,930 7827,930 7885,930 8058,930 8173,930 8287,930 8402,930 8633,930 8748,930 8921,930 8979,930 9094,930 9440,930 9555,930 9671,930 9863,930 9901,930 10017,930 10132,930 10247,930 10362,930 10478,930 10593,930 10631,930 10824,930 10939,930 11170,930 11285,930 11400,930 11515,930 11631,930 11746,930 11861,930 11977,930 12169,930 12207,930 12322,930 12553,930 12668,930 12784,930 12899,930 13014,930 13206,930 13245,930 13360,930 13475,930 13591,930 13821,930 14013,930 14052,930 14167,930 14398,930 14513,930 14744,930 14859,930 14974,930 15090,930 15090,1041 14974,1052 14859,1009 14744,1020 14628,1007 14513,1054 14398,1038 14282,1033 14167,1039 14052,1030 13937,1038 13821,1018 13706,1035 13591,1018 13475,1001 13360,998 13245,1014 13130,1065 13014,1219 12899,1019 12784,1018 12668,1010 12553,994 12438,978 12322,986 12207,979 12092,969 11977,979 11861,1006 11746,1014 11631,1018 11515,1026 11400,1032 11285,1049 11170,1058 11054,984 10939,1183 10824,971 10708,960 10593,985 10478,986 10362,980 10247,1024 10132,1021 10017,1043 9901,1020 9786,1006 9671,1006 9555,1006 9440,1001 9325,1014 9210,1009 9094,1010 8979,1010 8864,992 8748,986 8633,1007 8518,985 8402,977 8287,972 8173,973 8058,994 7942,988 7827,1064 7712,985 7596,983 7481,993 7366,998 7251,986 7135,991 7020,1082 6905,993 6789,993 6674,1005 6559,980 6443,981 6328,979 6213,967 6098,973 5982,968 5867,973 5752,973 5636,969 5521,971 5406,976 5291,967 5175,965 5060,968 4945,968 4829,987 4714,971 4599,969 4483,969 4368,968 4253,969 4138,960 4022,968 3907,966 3792,971 3676,968 3561,965 3446,971 3331,967 3215,996 3100,997 2985,991 2869,999 2754,998 2639,979 2523,978 2408,978 2293,972 2178,967 2062,965 1947,965 1832,965 1716,960 1601,956 1486,956 1371,952 1371,930 Z"/>
 <text class="TextShape"><tspan class="TextParagraph" font-family="Arial, sans-serif" font-size="388px" font-weight="400"><tspan class="TextPosition" x="1177" y="11152"><tspan fill="rgb(0,0,0)" stroke="none">2008</tspan></tspan></tspan></text>
 <text class="TextShape"><tspan class="TextParagraph" font-family="Arial, sans-serif" font-size="388px" font-weight="400"><tspan class="TextPosition" x="2561" y="11152"><tspan fill="rgb(0,0,0)" stroke="none">2009</tspan></tspan></tspan></text>
 <text class="TextShape"><tspan class="TextParagraph" font-family="Arial, sans-serif" font-size="388px" font-weight="400"><tspan class="TextPosition" x="3944" y="11152"><tspan fill="rgb(0,0,0)" stroke="none">2010</tspan></tspan></tspan></text>
 <text class="TextShape"><tspan class="TextParagraph" font-family="Arial, sans-serif" font-size="388px" font-weight="400"><tspan class="TextPosition" x="5328" y="11152"><tspan fill="rgb(0,0,0)" stroke="none">2011</tspan></tspan></tspan></text>
 <text class="TextShape"><tspan class="TextParagraph" font-family="Arial, sans-serif" font-size="388px" font-weight="400"><tspan class="TextPosition" x="6711" y="11152"><tspan fill="rgb(0,0,0)" stroke="none">2012</tspan></tspan></tspan></text>
 <text class="TextShape"><tspan class="TextParagraph" font-family="Arial, sans-serif" font-size="388px" font-weight="400"><tspan class="TextPosition" x="8095" y="11152"><tspan fill="rgb(0,0,0)" stroke="none">2013</tspan></tspan></tspan></text>
 <text class="TextShape"><tspan class="TextParagraph" font-family="Arial, sans-serif" font-size="388px" font-weight="400"><tspan class="TextPosition" x="9478" y="11152"><tspan fill="rgb(0,0,0)" stroke="none">2014</tspan></tspan></tspan></text>
 <text class="TextShape"><tspan class="TextParagraph" font-family="Arial, sans-serif" font-size="388px" font-weight="400"><tspan class="TextPosition" x="10862" y="11152"><tspan fill="rgb(0,0,0)" stroke="none">2015</tspan></tspan></tspan></text>
 <text class="TextShape"><tspan class="TextParagraph" font-family="Arial, sans-serif" font-size="388px" font-weight="400"><tspan class="TextPosition" x="12245" y="11152"><tspan fill="rgb(0,0,0)" stroke="none">2016</tspan></tspan></tspan></text>
 <text class="TextShape"><tspan class="TextParagraph" font-family="Arial, sans-serif" font-size="388px" font-weight="400"><tspan class="TextPosition" x="13629" y="11152"><tspan fill="rgb(0,0,0)" stroke="none">2017</tspan></tspan></tspan></text>
 <text class="TextShape"><tspan class="TextParagraph" font-family="Arial, sans-serif" font-size="388px" font-weight="400"><tspan class="TextPosition" x="565" y="10692"><tspan fill="rgb(0,0,0)" stroke="none">0%</tspan></tspan></tspan></text>
 <text class="TextShape"><tspan class="TextParagraph" font-family="Arial, sans-serif" font-size="388px" font-weight="400"><tspan class="TextPosition" x="354" y="9729"><tspan fill="rgb(0,0,0)" stroke="none">10%</tspan></tspan></tspan></text>
 <text class="TextShape"><tspan class="TextParagraph" font-family="Arial, sans-serif" font-size="388px" font-weight="400"><tspan class="TextPosition" x="354" y="8766"><tspan fill="rgb(0,0,0)" stroke="none">20%</tspan></tspan></tspan></text>
 <text class="TextShape"><tspan class="TextParagraph" font-family="Arial, sans-serif" font-size="388px" font-weight="400"><tspan class="TextPosition" x="354" y="7803"><tspan fill="rgb(0,0,0)" stroke="none">30%</tspan></tspan></tspan></text>
 <text class="TextShape"><tspan class="TextParagraph" font-family="Arial, sans-serif" font-size="388px" font-weight="400"><tspan class="TextPosition" x="354" y="6840"><tspan fill="rgb(0,0,0)" stroke="none">40%</tspan></tspan></tspan></text>
 <text class="TextShape"><tspan class="TextParagraph" font-family="Arial, sans-serif" font-size="388px" font-weight="400"><tspan class="TextPosition" x="354" y="5877"><tspan fill="rgb(0,0,0)" stroke="none">50%</tspan></tspan></tspan></text>
 <text class="TextShape"><tspan class="TextParagraph" font-family="Arial, sans-serif" font-size="388px" font-weight="400"><tspan class="TextPosition" x="354" y="4914"><tspan fill="rgb(0,0,0)" stroke="none">60%</tspan></tspan></tspan></text>
 <text class="TextShape"><tspan class="TextParagraph" font-family="Arial, sans-serif" font-size="388px" font-weight="400"><tspan class="TextPosition" x="354" y="3951"><tspan fill="rgb(0,0,0)" stroke="none">70%</tspan></tspan></tspan></text>
 <text class="TextShape"><tspan class="TextParagraph" font-family="Arial, sans-serif" font-size="388px" font-weight="400"><tspan class="TextPosition" x="354" y="2988"><tspan fill="rgb(0,0,0)" stroke="none">80%</tspan></tspan></tspan></text>
 <text class="TextShape"><tspan class="TextParagraph" font-family="Arial, sans-serif" font-size="388px" font-weight="400"><tspan class="TextPosition" x="354" y="2025"><tspan fill="rgb(0,0,0)" stroke="none">90%</tspan></tspan></tspan></text>
 <text class="TextShape"><tspan class="TextParagraph" font-family="Arial, sans-serif" font-size="388px" font-weight="400"><tspan class="TextPosition" x="142" y="1063"><tspan fill="rgb(0,0,0)" stroke="none">100%</tspan></tspan></tspan></text>
 <text class="TextShape"><tspan class="TextParagraph" font-family="Arial, sans-serif" font-size="388px" font-weight="400"><tspan class="TextPosition" x="15340" y="10692"><tspan fill="rgb(0,0,0)" stroke="none">0%</tspan></tspan></tspan></text>
 <text class="TextShape"><tspan class="TextParagraph" font-family="Arial, sans-serif" font-size="388px" font-weight="400"><tspan class="TextPosition" x="15340" y="9729"><tspan fill="rgb(0,0,0)" stroke="none">10%</tspan></tspan></tspan></text>
 <text class="TextShape"><tspan class="TextParagraph" font-family="Arial, sans-serif" font-size="388px" font-weight="400"><tspan class="TextPosition" x="15340" y="8766"><tspan fill="rgb(0,0,0)" stroke="none">20%</tspan></tspan></tspan></text>
 <text class="TextShape"><tspan class="TextParagraph" font-family="Arial, sans-serif" font-size="388px" font-weight="400"><tspan class="TextPosition" x="15340" y="7803"><tspan fill="rgb(0,0,0)" stroke="none">30%</tspan></tspan></tspan></text>
 <text class="TextShape"><tspan class="TextParagraph" font-family="Arial, sans-serif" font-size="388px" font-weight="400"><tspan class="TextPosition" x="15340" y="6840"><tspan fill="rgb(0,0,0)" stroke="none">40%</tspan></tspan></tspan></text>
 <text class="TextShape"><tspan class="TextParagraph" font-family="Arial, sans-serif" font-size="388px" font-weight="400"><tspan class="TextPosition" x="15340" y="5877"><tspan fill="rgb(0,0,0)" stroke="none">50%</tspan></tspan></tspan></text>
 <text class="TextShape"><tspan class="TextParagraph" font-family="Arial, sans-serif" font-size="388px" font-weight="400"><tspan class="TextPosition" x="15340" y="4914"><tspan fill="rgb(0,0,0)" stroke="none">60%</tspan></tspan></tspan></text>
 <text class="TextShape"><tspan class="TextParagraph" font-family="Arial, sans-serif" font-size="388px" font-weight="400"><tspan class="TextPosition" x="15340" y="3951"><tspan fill="rgb(0,0,0)" stroke="none">70%</tspan></tspan></tspan></text>
 <text class="TextShape"><tspan class="TextParagraph" font-family="Arial, sans-serif" font-size="388px" font-weight="400"><tspan class="TextPosition" x="15340" y="2988"><tspan fill="rgb(0,0,0)" stroke="none">80%</tspan></tspan></tspan></text>
 <text class="TextShape"><tspan class="TextParagraph" font-family="Arial, sans-serif" font-size="388px" font-weight="400"><tspan class="TextPosition" x="15340" y="2025"><tspan fill="rgb(0,0,0)" stroke="none">90%</tspan></tspan></tspan></text>
 <text class="TextShape"><tspan class="TextParagraph" font-family="Arial, sans-serif" font-size="388px" font-weight="400"><tspan class="TextPosition" x="15340" y="1063"><tspan fill="rgb(0,0,0)" stroke="none">100%</tspan></tspan></tspan></text>
 <text class="TextShape"><tspan class="TextParagraph" font-family="Arial, sans-serif" font-size="635px" font-weight="700"><tspan class="TextPosition" x="3377" y="747"><tspan fill="rgb(0,0,0)" stroke="none">Utilizacin de sistemas operativos</tspan></tspan></tspan></text>
 <path fill="rgb(0,69,134)" stroke="none" d="M 10757,12057 L 10651,12057 10651,11846 10862,11846 10862,12057 10757,12057 Z"/>
 <path fill="none" stroke="rgb(0,0,0)" stroke-linejoin="round" d="M 10757,12057 L 10651,12057 10651,11846 10862,11846 10862,12057 10757,12057 Z"/>
 <path fill="rgb(51,153,102)" stroke="none" d="M 9123,12057 L 9017,12057 9017,11846 9228,11846 9228,12057 9123,12057 Z"/>
 <path fill="none" stroke="rgb(0,0,0)" stroke-linejoin="round" d="M 9123,12057 L 9017,12057 9017,11846 9228,11846 9228,12057 9123,12057 Z"/>
 <path fill="rgb(131,202,255)" stroke="none" d="M 7436,12057 L 7331,12057 7331,11846 7542,11846 7542,12057 7436,12057 Z"/>
 <path fill="rgb(0,204,255)" stroke="none" d="M 5458,12057 L 5353,12057 5353,11846 5564,11846 5564,12057 5458,12057 Z"/>
 <path fill="none" stroke="rgb(0,0,0)" stroke-linejoin="round" d="M 5458,12057 L 5353,12057 5353,11846 5564,11846 5564,12057 5458,12057 Z"/>
 <path fill="rgb(0,102,204)" stroke="none" d="M 4089,12057 L 3984,12057 3984,11846 4195,11846 4195,12057 4089,12057 Z"/>
 <path fill="none" stroke="rgb(0,0,0)" stroke-linejoin="round" d="M 4089,12057 L 3984,12057 3984,11846 4195,11846 4195,12057 4089,12057 Z"/>
 <path fill="rgb(0,132,209)" stroke="none" d="M 12364,11498 L 12258,11498 12258,11287 12469,11287 12469,11498 12364,11498 Z"/>
 <path fill="none" stroke="rgb(0,0,0)" stroke-linejoin="round" d="M 12364,11498 L 12258,11498 12258,11287 12469,11287 12469,11498 12364,11498 Z"/>
 <path fill="rgb(0,69,134)" stroke="none" d="M 10757,11498 L 10651,11498 10651,11287 10862,11287 10862,11498 10757,11498 Z"/>
 <path fill="none" stroke="rgb(0,0,0)" stroke-linejoin="round" d="M 10757,11498 L 10651,11498 10651,11287 10862,11287 10862,11498 10757,11498 Z"/>
 <path fill="rgb(0,102,0)" stroke="none" d="M 9123,11498 L 9017,11498 9017,11287 9228,11287 9228,11498 9123,11498 Z"/>
 <path fill="none" stroke="rgb(0,0,0)" stroke-linejoin="round" d="M 9123,11498 L 9017,11498 9017,11287 9228,11287 9228,11498 9123,11498 Z"/>
 <path fill="rgb(255,211,32)" stroke="none" d="M 7436,11498 L 7331,11498 7331,11287 7542,11287 7542,11498 7436,11498 Z"/>
 <path fill="none" stroke="rgb(0,0,0)" stroke-linejoin="round" d="M 7436,11498 L 7331,11498 7331,11287 7542,11287 7542,11498 7436,11498 Z"/>
 <path fill="rgb(255,51,51)" stroke="none" d="M 5458,11498 L 5353,11498 5353,11287 5564,11287 5564,11498 5458,11498 Z"/>
 <path fill="none" stroke="rgb(0,0,0)" stroke-linejoin="round" d="M 5458,11498 L 5353,11498 5353,11287 5564,11287 5564,11498 5458,11498 Z"/>
 <path fill="rgb(255,255,255)" stroke="none" d="M 4089,11498 L 3984,11498 3984,11287 4195,11287 4195,11498 4089,11498 Z"/>
 <text class="TextShape"><tspan class="TextParagraph" font-family="Arial, sans-serif" font-size="353px" font-weight="400"><tspan class="TextPosition" x="4295" y="11511"><tspan fill="rgb(0,0,0)" stroke="none">Otros</tspan></tspan></tspan></text>
 <text class="TextShape"><tspan class="TextParagraph" font-family="Arial, sans-serif" font-size="353px" font-weight="400"><tspan class="TextPosition" x="5664" y="11511"><tspan fill="rgb(0,0,0)" stroke="none">Linux</tspan></tspan></tspan></text>
 <text class="TextShape"><tspan class="TextParagraph" font-family="Arial, sans-serif" font-size="353px" font-weight="400"><tspan class="TextPosition" x="7642" y="11511"><tspan fill="rgb(0,0,0)" stroke="none">Mviles</tspan></tspan></tspan></text>
 <text class="TextShape"><tspan class="TextParagraph" font-family="Arial, sans-serif" font-size="353px" font-weight="400"><tspan class="TextPosition" x="9328" y="11511"><tspan fill="rgb(0,0,0)" stroke="none">Mac</tspan></tspan></tspan></text>
 <text class="TextShape"><tspan class="TextParagraph" font-family="Arial, sans-serif" font-size="353px" font-weight="400"><tspan class="TextPosition" x="10962" y="11511"><tspan fill="rgb(0,0,0)" stroke="none">Win 10</tspan></tspan></tspan></text>
 <text class="TextShape"><tspan class="TextParagraph" font-family="Arial, sans-serif" font-size="353px" font-weight="400"><tspan class="TextPosition" x="12569" y="11511"><tspan fill="rgb(0,0,0)" stroke="none">Win 8</tspan></tspan></tspan></text>
 <text class="TextShape"><tspan class="TextParagraph" font-family="Arial, sans-serif" font-size="353px" font-weight="400"><tspan class="TextPosition" x="4295" y="12070"><tspan fill="rgb(0,0,0)" stroke="none">Win 7</tspan></tspan></tspan></text>
 <text class="TextShape"><tspan class="TextParagraph" font-family="Arial, sans-serif" font-size="353px" font-weight="400"><tspan class="TextPosition" x="5664" y="12070"><tspan fill="rgb(0,0,0)" stroke="none">Win Vista</tspan></tspan></tspan></text>
 <text class="TextShape"><tspan class="TextParagraph" font-family="Arial, sans-serif" font-size="353px" font-weight="400"><tspan class="TextPosition" x="7642" y="12070"><tspan fill="rgb(0,0,0)" stroke="none">Win XP</tspan></tspan></tspan></text>
 <text class="TextShape"><tspan class="TextParagraph" font-family="Arial, sans-serif" font-size="353px" font-weight="400"><tspan class="TextPosition" x="9328" y="12070"><tspan fill="rgb(0,0,0)" stroke="none">Win NT</tspan></tspan></tspan></text>
 <text class="TextShape"><tspan class="TextParagraph" font-family="Arial, sans-serif" font-size="353px" font-weight="400"><tspan class="TextPosition" x="10962" y="12070"><tspan fill="rgb(0,0,0)" stroke="none">Win 9X</tspan></tspan></tspan></text>
</svg>
