<?xml version="1.0" encoding="UTF-8"?>
<!DOCTYPE svg PUBLIC "-//W3C//DTD SVG 1.1//EN" "http://www.w3.org/Graphics/SVG/1.1/DTD/svg11.dtd">
<svg width="164mm" height="122mm" viewBox="0 0 16400 12200" version="1.1" xmlns="http://www.w3.org/2000/svg" stroke-width="28.222" stroke-linejoin="round" xml:space="preserve">
 <path fill="rgb(255,255,255)" stroke="none" d="M 8187,12235 L 12,12235 12,0 16362,0 16362,12235 8187,12235 Z"/>
 <path fill="none" stroke="rgb(179,179,179)" stroke-linejoin="round" d="M 8164,10292 L 1307,10292 1307,952 15021,952 15021,10292 8164,10292 Z"/>
 <path fill="none" stroke="rgb(0,0,0)" stroke-width="20" stroke-linejoin="round" d="M 15020,10291 L 1307,10291"/>
 <path fill="none" stroke="rgb(0,0,0)" stroke-width="20" stroke-linejoin="round" d="M 15020,9356 L 1307,9356"/>
 <path fill="none" stroke="rgb(0,0,0)" stroke-width="20" stroke-linejoin="round" d="M 15020,8422 L 1307,8422"/>
 <path fill="none" stroke="rgb(0,0,0)" stroke-width="20" stroke-linejoin="round" d="M 15020,7488 L 1307,7488"/>
 <path fill="none" stroke="rgb(0,0,0)" stroke-width="20" stroke-linejoin="round" d="M 15020,6554 L 1307,6554"/>
 <path fill="none" stroke="rgb(0,0,0)" stroke-width="20" stroke-linejoin="round" d="M 15020,5621 L 1307,5621"/>
 <path fill="none" stroke="rgb(0,0,0)" stroke-width="20" stroke-linejoin="round" d="M 15020,4687 L 1307,4687"/>
 <path fill="none" stroke="rgb(0,0,0)" stroke-width="20" stroke-linejoin="round" d="M 15020,3753 L 1307,3753"/>
 <path fill="none" stroke="rgb(0,0,0)" stroke-width="20" stroke-linejoin="round" d="M 15020,2819 L 1307,2819"/>
 <path fill="none" stroke="rgb(0,0,0)" stroke-width="20" stroke-linejoin="round" d="M 15020,1885 L 1307,1885"/>
 <path fill="none" stroke="rgb(0,0,0)" stroke-width="20" stroke-linejoin="round" d="M 15020,951 L 1307,951"/>
 <path fill="none" stroke="rgb(0,0,0)" stroke-width="30" stroke-linejoin="round" d="M 1307,10441 L 1307,10291"/>
 <path fill="none" stroke="rgb(0,0,0)" stroke-width="30" stroke-linejoin="round" d="M 1307,10441 L 1307,10291"/>
 <path fill="none" stroke="rgb(0,0,0)" stroke-width="30" stroke-linejoin="round" d="M 1423,10441 L 1423,10291"/>
 <path fill="none" stroke="rgb(0,0,0)" stroke-width="30" stroke-linejoin="round" d="M 1423,10441 L 1423,10291"/>
 <path fill="none" stroke="rgb(0,0,0)" stroke-width="30" stroke-linejoin="round" d="M 1539,10441 L 1539,10291"/>
 <path fill="none" stroke="rgb(0,0,0)" stroke-width="30" stroke-linejoin="round" d="M 1539,10441 L 1539,10291"/>
 <path fill="none" stroke="rgb(0,0,0)" stroke-width="30" stroke-linejoin="round" d="M 1655,10441 L 1655,10291"/>
 <path fill="none" stroke="rgb(0,0,0)" stroke-width="30" stroke-linejoin="round" d="M 1655,10441 L 1655,10291"/>
 <path fill="none" stroke="rgb(0,0,0)" stroke-width="30" stroke-linejoin="round" d="M 1771,10441 L 1771,10291"/>
 <path fill="none" stroke="rgb(0,0,0)" stroke-width="30" stroke-linejoin="round" d="M 1771,10441 L 1771,10291"/>
 <path fill="none" stroke="rgb(0,0,0)" stroke-width="30" stroke-linejoin="round" d="M 1888,10441 L 1888,10291"/>
 <path fill="none" stroke="rgb(0,0,0)" stroke-width="30" stroke-linejoin="round" d="M 1888,10441 L 1888,10291"/>
 <path fill="none" stroke="rgb(0,0,0)" stroke-width="30" stroke-linejoin="round" d="M 2004,10441 L 2004,10291"/>
 <path fill="none" stroke="rgb(0,0,0)" stroke-width="30" stroke-linejoin="round" d="M 2004,10441 L 2004,10291"/>
 <path fill="none" stroke="rgb(0,0,0)" stroke-width="30" stroke-linejoin="round" d="M 2120,10441 L 2120,10291"/>
 <path fill="none" stroke="rgb(0,0,0)" stroke-width="30" stroke-linejoin="round" d="M 2120,10441 L 2120,10291"/>
 <path fill="none" stroke="rgb(0,0,0)" stroke-width="30" stroke-linejoin="round" d="M 2236,10441 L 2236,10291"/>
 <path fill="none" stroke="rgb(0,0,0)" stroke-width="30" stroke-linejoin="round" d="M 2236,10441 L 2236,10291"/>
 <path fill="none" stroke="rgb(0,0,0)" stroke-width="30" stroke-linejoin="round" d="M 2353,10441 L 2353,10291"/>
 <path fill="none" stroke="rgb(0,0,0)" stroke-width="30" stroke-linejoin="round" d="M 2353,10441 L 2353,10291"/>
 <path fill="none" stroke="rgb(0,0,0)" stroke-width="30" stroke-linejoin="round" d="M 2469,10441 L 2469,10291"/>
 <path fill="none" stroke="rgb(0,0,0)" stroke-width="30" stroke-linejoin="round" d="M 2469,10441 L 2469,10291"/>
 <path fill="none" stroke="rgb(0,0,0)" stroke-width="30" stroke-linejoin="round" d="M 2585,10441 L 2585,10291"/>
 <path fill="none" stroke="rgb(0,0,0)" stroke-width="30" stroke-linejoin="round" d="M 2585,10441 L 2585,10291"/>
 <path fill="none" stroke="rgb(0,0,0)" stroke-width="30" stroke-linejoin="round" d="M 2701,10441 L 2701,10291"/>
 <path fill="none" stroke="rgb(0,0,0)" stroke-width="30" stroke-linejoin="round" d="M 2701,10441 L 2701,10291"/>
 <path fill="none" stroke="rgb(0,0,0)" stroke-width="30" stroke-linejoin="round" d="M 2817,10441 L 2817,10291"/>
 <path fill="none" stroke="rgb(0,0,0)" stroke-width="30" stroke-linejoin="round" d="M 2817,10441 L 2817,10291"/>
 <path fill="none" stroke="rgb(0,0,0)" stroke-width="30" stroke-linejoin="round" d="M 2934,10441 L 2934,10291"/>
 <path fill="none" stroke="rgb(0,0,0)" stroke-width="30" stroke-linejoin="round" d="M 2934,10441 L 2934,10291"/>
 <path fill="none" stroke="rgb(0,0,0)" stroke-width="30" stroke-linejoin="round" d="M 3050,10441 L 3050,10291"/>
 <path fill="none" stroke="rgb(0,0,0)" stroke-width="30" stroke-linejoin="round" d="M 3050,10441 L 3050,10291"/>
 <path fill="none" stroke="rgb(0,0,0)" stroke-width="30" stroke-linejoin="round" d="M 3166,10441 L 3166,10291"/>
 <path fill="none" stroke="rgb(0,0,0)" stroke-width="30" stroke-linejoin="round" d="M 3166,10441 L 3166,10291"/>
 <path fill="none" stroke="rgb(0,0,0)" stroke-width="30" stroke-linejoin="round" d="M 3282,10441 L 3282,10291"/>
 <path fill="none" stroke="rgb(0,0,0)" stroke-width="30" stroke-linejoin="round" d="M 3282,10441 L 3282,10291"/>
 <path fill="none" stroke="rgb(0,0,0)" stroke-width="30" stroke-linejoin="round" d="M 3399,10441 L 3399,10291"/>
 <path fill="none" stroke="rgb(0,0,0)" stroke-width="30" stroke-linejoin="round" d="M 3399,10441 L 3399,10291"/>
 <path fill="none" stroke="rgb(0,0,0)" stroke-width="30" stroke-linejoin="round" d="M 3515,10441 L 3515,10291"/>
 <path fill="none" stroke="rgb(0,0,0)" stroke-width="30" stroke-linejoin="round" d="M 3515,10441 L 3515,10291"/>
 <path fill="none" stroke="rgb(0,0,0)" stroke-width="30" stroke-linejoin="round" d="M 3631,10441 L 3631,10291"/>
 <path fill="none" stroke="rgb(0,0,0)" stroke-width="30" stroke-linejoin="round" d="M 3631,10441 L 3631,10291"/>
 <path fill="none" stroke="rgb(0,0,0)" stroke-width="30" stroke-linejoin="round" d="M 3747,10441 L 3747,10291"/>
 <path fill="none" stroke="rgb(0,0,0)" stroke-width="30" stroke-linejoin="round" d="M 3747,10441 L 3747,10291"/>
 <path fill="none" stroke="rgb(0,0,0)" stroke-width="30" stroke-linejoin="round" d="M 3864,10441 L 3864,10291"/>
 <path fill="none" stroke="rgb(0,0,0)" stroke-width="30" stroke-linejoin="round" d="M 3864,10441 L 3864,10291"/>
 <path fill="none" stroke="rgb(0,0,0)" stroke-width="30" stroke-linejoin="round" d="M 3980,10441 L 3980,10291"/>
 <path fill="none" stroke="rgb(0,0,0)" stroke-width="30" stroke-linejoin="round" d="M 3980,10441 L 3980,10291"/>
 <path fill="none" stroke="rgb(0,0,0)" stroke-width="30" stroke-linejoin="round" d="M 4096,10441 L 4096,10291"/>
 <path fill="none" stroke="rgb(0,0,0)" stroke-width="30" stroke-linejoin="round" d="M 4096,10441 L 4096,10291"/>
 <path fill="none" stroke="rgb(0,0,0)" stroke-width="30" stroke-linejoin="round" d="M 4212,10441 L 4212,10291"/>
 <path fill="none" stroke="rgb(0,0,0)" stroke-width="30" stroke-linejoin="round" d="M 4212,10441 L 4212,10291"/>
 <path fill="none" stroke="rgb(0,0,0)" stroke-width="30" stroke-linejoin="round" d="M 4328,10441 L 4328,10291"/>
 <path fill="none" stroke="rgb(0,0,0)" stroke-width="30" stroke-linejoin="round" d="M 4328,10441 L 4328,10291"/>
 <path fill="none" stroke="rgb(0,0,0)" stroke-width="30" stroke-linejoin="round" d="M 4445,10441 L 4445,10291"/>
 <path fill="none" stroke="rgb(0,0,0)" stroke-width="30" stroke-linejoin="round" d="M 4445,10441 L 4445,10291"/>
 <path fill="none" stroke="rgb(0,0,0)" stroke-width="30" stroke-linejoin="round" d="M 4561,10441 L 4561,10291"/>
 <path fill="none" stroke="rgb(0,0,0)" stroke-width="30" stroke-linejoin="round" d="M 4561,10441 L 4561,10291"/>
 <path fill="none" stroke="rgb(0,0,0)" stroke-width="30" stroke-linejoin="round" d="M 4677,10441 L 4677,10291"/>
 <path fill="none" stroke="rgb(0,0,0)" stroke-width="30" stroke-linejoin="round" d="M 4677,10441 L 4677,10291"/>
 <path fill="none" stroke="rgb(0,0,0)" stroke-width="30" stroke-linejoin="round" d="M 4793,10441 L 4793,10291"/>
 <path fill="none" stroke="rgb(0,0,0)" stroke-width="30" stroke-linejoin="round" d="M 4793,10441 L 4793,10291"/>
 <path fill="none" stroke="rgb(0,0,0)" stroke-width="30" stroke-linejoin="round" d="M 4910,10441 L 4910,10291"/>
 <path fill="none" stroke="rgb(0,0,0)" stroke-width="30" stroke-linejoin="round" d="M 4910,10441 L 4910,10291"/>
 <path fill="none" stroke="rgb(0,0,0)" stroke-width="30" stroke-linejoin="round" d="M 5026,10441 L 5026,10291"/>
 <path fill="none" stroke="rgb(0,0,0)" stroke-width="30" stroke-linejoin="round" d="M 5026,10441 L 5026,10291"/>
 <path fill="none" stroke="rgb(0,0,0)" stroke-width="30" stroke-linejoin="round" d="M 5142,10441 L 5142,10291"/>
 <path fill="none" stroke="rgb(0,0,0)" stroke-width="30" stroke-linejoin="round" d="M 5142,10441 L 5142,10291"/>
 <path fill="none" stroke="rgb(0,0,0)" stroke-width="30" stroke-linejoin="round" d="M 5258,10441 L 5258,10291"/>
 <path fill="none" stroke="rgb(0,0,0)" stroke-width="30" stroke-linejoin="round" d="M 5258,10441 L 5258,10291"/>
 <path fill="none" stroke="rgb(0,0,0)" stroke-width="30" stroke-linejoin="round" d="M 5375,10441 L 5375,10291"/>
 <path fill="none" stroke="rgb(0,0,0)" stroke-width="30" stroke-linejoin="round" d="M 5375,10441 L 5375,10291"/>
 <path fill="none" stroke="rgb(0,0,0)" stroke-width="30" stroke-linejoin="round" d="M 5491,10441 L 5491,10291"/>
 <path fill="none" stroke="rgb(0,0,0)" stroke-width="30" stroke-linejoin="round" d="M 5491,10441 L 5491,10291"/>
 <path fill="none" stroke="rgb(0,0,0)" stroke-width="30" stroke-linejoin="round" d="M 5607,10441 L 5607,10291"/>
 <path fill="none" stroke="rgb(0,0,0)" stroke-width="30" stroke-linejoin="round" d="M 5607,10441 L 5607,10291"/>
 <path fill="none" stroke="rgb(0,0,0)" stroke-width="30" stroke-linejoin="round" d="M 5723,10441 L 5723,10291"/>
 <path fill="none" stroke="rgb(0,0,0)" stroke-width="30" stroke-linejoin="round" d="M 5723,10441 L 5723,10291"/>
 <path fill="none" stroke="rgb(0,0,0)" stroke-width="30" stroke-linejoin="round" d="M 5839,10441 L 5839,10291"/>
 <path fill="none" stroke="rgb(0,0,0)" stroke-width="30" stroke-linejoin="round" d="M 5839,10441 L 5839,10291"/>
 <path fill="none" stroke="rgb(0,0,0)" stroke-width="30" stroke-linejoin="round" d="M 5956,10441 L 5956,10291"/>
 <path fill="none" stroke="rgb(0,0,0)" stroke-width="30" stroke-linejoin="round" d="M 5956,10441 L 5956,10291"/>
 <path fill="none" stroke="rgb(0,0,0)" stroke-width="30" stroke-linejoin="round" d="M 6072,10441 L 6072,10291"/>
 <path fill="none" stroke="rgb(0,0,0)" stroke-width="30" stroke-linejoin="round" d="M 6072,10441 L 6072,10291"/>
 <path fill="none" stroke="rgb(0,0,0)" stroke-width="30" stroke-linejoin="round" d="M 6188,10441 L 6188,10291"/>
 <path fill="none" stroke="rgb(0,0,0)" stroke-width="30" stroke-linejoin="round" d="M 6188,10441 L 6188,10291"/>
 <path fill="none" stroke="rgb(0,0,0)" stroke-width="30" stroke-linejoin="round" d="M 6304,10441 L 6304,10291"/>
 <path fill="none" stroke="rgb(0,0,0)" stroke-width="30" stroke-linejoin="round" d="M 6304,10441 L 6304,10291"/>
 <path fill="none" stroke="rgb(0,0,0)" stroke-width="30" stroke-linejoin="round" d="M 6421,10441 L 6421,10291"/>
 <path fill="none" stroke="rgb(0,0,0)" stroke-width="30" stroke-linejoin="round" d="M 6421,10441 L 6421,10291"/>
 <path fill="none" stroke="rgb(0,0,0)" stroke-width="30" stroke-linejoin="round" d="M 6537,10441 L 6537,10291"/>
 <path fill="none" stroke="rgb(0,0,0)" stroke-width="30" stroke-linejoin="round" d="M 6537,10441 L 6537,10291"/>
 <path fill="none" stroke="rgb(0,0,0)" stroke-width="30" stroke-linejoin="round" d="M 6653,10441 L 6653,10291"/>
 <path fill="none" stroke="rgb(0,0,0)" stroke-width="30" stroke-linejoin="round" d="M 6653,10441 L 6653,10291"/>
 <path fill="none" stroke="rgb(0,0,0)" stroke-width="30" stroke-linejoin="round" d="M 6769,10441 L 6769,10291"/>
 <path fill="none" stroke="rgb(0,0,0)" stroke-width="30" stroke-linejoin="round" d="M 6769,10441 L 6769,10291"/>
 <path fill="none" stroke="rgb(0,0,0)" stroke-width="30" stroke-linejoin="round" d="M 6885,10441 L 6885,10291"/>
 <path fill="none" stroke="rgb(0,0,0)" stroke-width="30" stroke-linejoin="round" d="M 6885,10441 L 6885,10291"/>
 <path fill="none" stroke="rgb(0,0,0)" stroke-width="30" stroke-linejoin="round" d="M 7002,10441 L 7002,10291"/>
 <path fill="none" stroke="rgb(0,0,0)" stroke-width="30" stroke-linejoin="round" d="M 7002,10441 L 7002,10291"/>
 <path fill="none" stroke="rgb(0,0,0)" stroke-width="30" stroke-linejoin="round" d="M 7118,10441 L 7118,10291"/>
 <path fill="none" stroke="rgb(0,0,0)" stroke-width="30" stroke-linejoin="round" d="M 7118,10441 L 7118,10291"/>
 <path fill="none" stroke="rgb(0,0,0)" stroke-width="30" stroke-linejoin="round" d="M 7234,10441 L 7234,10291"/>
 <path fill="none" stroke="rgb(0,0,0)" stroke-width="30" stroke-linejoin="round" d="M 7234,10441 L 7234,10291"/>
 <path fill="none" stroke="rgb(0,0,0)" stroke-width="30" stroke-linejoin="round" d="M 7350,10441 L 7350,10291"/>
 <path fill="none" stroke="rgb(0,0,0)" stroke-width="30" stroke-linejoin="round" d="M 7350,10441 L 7350,10291"/>
 <path fill="none" stroke="rgb(0,0,0)" stroke-width="30" stroke-linejoin="round" d="M 7467,10441 L 7467,10291"/>
 <path fill="none" stroke="rgb(0,0,0)" stroke-width="30" stroke-linejoin="round" d="M 7467,10441 L 7467,10291"/>
 <path fill="none" stroke="rgb(0,0,0)" stroke-width="30" stroke-linejoin="round" d="M 7583,10441 L 7583,10291"/>
 <path fill="none" stroke="rgb(0,0,0)" stroke-width="30" stroke-linejoin="round" d="M 7583,10441 L 7583,10291"/>
 <path fill="none" stroke="rgb(0,0,0)" stroke-width="30" stroke-linejoin="round" d="M 7699,10441 L 7699,10291"/>
 <path fill="none" stroke="rgb(0,0,0)" stroke-width="30" stroke-linejoin="round" d="M 7699,10441 L 7699,10291"/>
 <path fill="none" stroke="rgb(0,0,0)" stroke-width="30" stroke-linejoin="round" d="M 7815,10441 L 7815,10291"/>
 <path fill="none" stroke="rgb(0,0,0)" stroke-width="30" stroke-linejoin="round" d="M 7815,10441 L 7815,10291"/>
 <path fill="none" stroke="rgb(0,0,0)" stroke-width="30" stroke-linejoin="round" d="M 7932,10441 L 7932,10291"/>
 <path fill="none" stroke="rgb(0,0,0)" stroke-width="30" stroke-linejoin="round" d="M 7932,10441 L 7932,10291"/>
 <path fill="none" stroke="rgb(0,0,0)" stroke-width="30" stroke-linejoin="round" d="M 8048,10441 L 8048,10291"/>
 <path fill="none" stroke="rgb(0,0,0)" stroke-width="30" stroke-linejoin="round" d="M 8048,10441 L 8048,10291"/>
 <path fill="none" stroke="rgb(0,0,0)" stroke-width="30" stroke-linejoin="round" d="M 8164,10441 L 8164,10291"/>
 <path fill="none" stroke="rgb(0,0,0)" stroke-width="30" stroke-linejoin="round" d="M 8164,10441 L 8164,10291"/>
 <path fill="none" stroke="rgb(0,0,0)" stroke-width="30" stroke-linejoin="round" d="M 8279,10441 L 8279,10291"/>
 <path fill="none" stroke="rgb(0,0,0)" stroke-width="30" stroke-linejoin="round" d="M 8279,10441 L 8279,10291"/>
 <path fill="none" stroke="rgb(0,0,0)" stroke-width="30" stroke-linejoin="round" d="M 8395,10441 L 8395,10291"/>
 <path fill="none" stroke="rgb(0,0,0)" stroke-width="30" stroke-linejoin="round" d="M 8395,10441 L 8395,10291"/>
 <path fill="none" stroke="rgb(0,0,0)" stroke-width="30" stroke-linejoin="round" d="M 8512,10441 L 8512,10291"/>
 <path fill="none" stroke="rgb(0,0,0)" stroke-width="30" stroke-linejoin="round" d="M 8512,10441 L 8512,10291"/>
 <path fill="none" stroke="rgb(0,0,0)" stroke-width="30" stroke-linejoin="round" d="M 8628,10441 L 8628,10291"/>
 <path fill="none" stroke="rgb(0,0,0)" stroke-width="30" stroke-linejoin="round" d="M 8628,10441 L 8628,10291"/>
 <path fill="none" stroke="rgb(0,0,0)" stroke-width="30" stroke-linejoin="round" d="M 8744,10441 L 8744,10291"/>
 <path fill="none" stroke="rgb(0,0,0)" stroke-width="30" stroke-linejoin="round" d="M 8744,10441 L 8744,10291"/>
 <path fill="none" stroke="rgb(0,0,0)" stroke-width="30" stroke-linejoin="round" d="M 8860,10441 L 8860,10291"/>
 <path fill="none" stroke="rgb(0,0,0)" stroke-width="30" stroke-linejoin="round" d="M 8860,10441 L 8860,10291"/>
 <path fill="none" stroke="rgb(0,0,0)" stroke-width="30" stroke-linejoin="round" d="M 8977,10441 L 8977,10291"/>
 <path fill="none" stroke="rgb(0,0,0)" stroke-width="30" stroke-linejoin="round" d="M 8977,10441 L 8977,10291"/>
 <path fill="none" stroke="rgb(0,0,0)" stroke-width="30" stroke-linejoin="round" d="M 9093,10441 L 9093,10291"/>
 <path fill="none" stroke="rgb(0,0,0)" stroke-width="30" stroke-linejoin="round" d="M 9093,10441 L 9093,10291"/>
 <path fill="none" stroke="rgb(0,0,0)" stroke-width="30" stroke-linejoin="round" d="M 9209,10441 L 9209,10291"/>
 <path fill="none" stroke="rgb(0,0,0)" stroke-width="30" stroke-linejoin="round" d="M 9209,10441 L 9209,10291"/>
 <path fill="none" stroke="rgb(0,0,0)" stroke-width="30" stroke-linejoin="round" d="M 9325,10441 L 9325,10291"/>
 <path fill="none" stroke="rgb(0,0,0)" stroke-width="30" stroke-linejoin="round" d="M 9325,10441 L 9325,10291"/>
 <path fill="none" stroke="rgb(0,0,0)" stroke-width="30" stroke-linejoin="round" d="M 9442,10441 L 9442,10291"/>
 <path fill="none" stroke="rgb(0,0,0)" stroke-width="30" stroke-linejoin="round" d="M 9442,10441 L 9442,10291"/>
 <path fill="none" stroke="rgb(0,0,0)" stroke-width="30" stroke-linejoin="round" d="M 9558,10441 L 9558,10291"/>
 <path fill="none" stroke="rgb(0,0,0)" stroke-width="30" stroke-linejoin="round" d="M 9558,10441 L 9558,10291"/>
 <path fill="none" stroke="rgb(0,0,0)" stroke-width="30" stroke-linejoin="round" d="M 9674,10441 L 9674,10291"/>
 <path fill="none" stroke="rgb(0,0,0)" stroke-width="30" stroke-linejoin="round" d="M 9674,10441 L 9674,10291"/>
 <path fill="none" stroke="rgb(0,0,0)" stroke-width="30" stroke-linejoin="round" d="M 9790,10441 L 9790,10291"/>
 <path fill="none" stroke="rgb(0,0,0)" stroke-width="30" stroke-linejoin="round" d="M 9790,10441 L 9790,10291"/>
 <path fill="none" stroke="rgb(0,0,0)" stroke-width="30" stroke-linejoin="round" d="M 9906,10441 L 9906,10291"/>
 <path fill="none" stroke="rgb(0,0,0)" stroke-width="30" stroke-linejoin="round" d="M 9906,10441 L 9906,10291"/>
 <path fill="none" stroke="rgb(0,0,0)" stroke-width="30" stroke-linejoin="round" d="M 10023,10441 L 10023,10291"/>
 <path fill="none" stroke="rgb(0,0,0)" stroke-width="30" stroke-linejoin="round" d="M 10023,10441 L 10023,10291"/>
 <path fill="none" stroke="rgb(0,0,0)" stroke-width="30" stroke-linejoin="round" d="M 10139,10441 L 10139,10291"/>
 <path fill="none" stroke="rgb(0,0,0)" stroke-width="30" stroke-linejoin="round" d="M 10139,10441 L 10139,10291"/>
 <path fill="none" stroke="rgb(0,0,0)" stroke-width="30" stroke-linejoin="round" d="M 10255,10441 L 10255,10291"/>
 <path fill="none" stroke="rgb(0,0,0)" stroke-width="30" stroke-linejoin="round" d="M 10255,10441 L 10255,10291"/>
 <path fill="none" stroke="rgb(0,0,0)" stroke-width="30" stroke-linejoin="round" d="M 10371,10441 L 10371,10291"/>
 <path fill="none" stroke="rgb(0,0,0)" stroke-width="30" stroke-linejoin="round" d="M 10371,10441 L 10371,10291"/>
 <path fill="none" stroke="rgb(0,0,0)" stroke-width="30" stroke-linejoin="round" d="M 10488,10441 L 10488,10291"/>
 <path fill="none" stroke="rgb(0,0,0)" stroke-width="30" stroke-linejoin="round" d="M 10488,10441 L 10488,10291"/>
 <path fill="none" stroke="rgb(0,0,0)" stroke-width="30" stroke-linejoin="round" d="M 10604,10441 L 10604,10291"/>
 <path fill="none" stroke="rgb(0,0,0)" stroke-width="30" stroke-linejoin="round" d="M 10604,10441 L 10604,10291"/>
 <path fill="none" stroke="rgb(0,0,0)" stroke-width="30" stroke-linejoin="round" d="M 10720,10441 L 10720,10291"/>
 <path fill="none" stroke="rgb(0,0,0)" stroke-width="30" stroke-linejoin="round" d="M 10720,10441 L 10720,10291"/>
 <path fill="none" stroke="rgb(0,0,0)" stroke-width="30" stroke-linejoin="round" d="M 10836,10441 L 10836,10291"/>
 <path fill="none" stroke="rgb(0,0,0)" stroke-width="30" stroke-linejoin="round" d="M 10836,10441 L 10836,10291"/>
 <path fill="none" stroke="rgb(0,0,0)" stroke-width="30" stroke-linejoin="round" d="M 10952,10441 L 10952,10291"/>
 <path fill="none" stroke="rgb(0,0,0)" stroke-width="30" stroke-linejoin="round" d="M 10952,10441 L 10952,10291"/>
 <path fill="none" stroke="rgb(0,0,0)" stroke-width="30" stroke-linejoin="round" d="M 11069,10441 L 11069,10291"/>
 <path fill="none" stroke="rgb(0,0,0)" stroke-width="30" stroke-linejoin="round" d="M 11069,10441 L 11069,10291"/>
 <path fill="none" stroke="rgb(0,0,0)" stroke-width="30" stroke-linejoin="round" d="M 11185,10441 L 11185,10291"/>
 <path fill="none" stroke="rgb(0,0,0)" stroke-width="30" stroke-linejoin="round" d="M 11185,10441 L 11185,10291"/>
 <path fill="none" stroke="rgb(0,0,0)" stroke-width="30" stroke-linejoin="round" d="M 11301,10441 L 11301,10291"/>
 <path fill="none" stroke="rgb(0,0,0)" stroke-width="30" stroke-linejoin="round" d="M 11301,10441 L 11301,10291"/>
 <path fill="none" stroke="rgb(0,0,0)" stroke-width="30" stroke-linejoin="round" d="M 11417,10441 L 11417,10291"/>
 <path fill="none" stroke="rgb(0,0,0)" stroke-width="30" stroke-linejoin="round" d="M 11417,10441 L 11417,10291"/>
 <path fill="none" stroke="rgb(0,0,0)" stroke-width="30" stroke-linejoin="round" d="M 11534,10441 L 11534,10291"/>
 <path fill="none" stroke="rgb(0,0,0)" stroke-width="30" stroke-linejoin="round" d="M 11534,10441 L 11534,10291"/>
 <path fill="none" stroke="rgb(0,0,0)" stroke-width="30" stroke-linejoin="round" d="M 11650,10441 L 11650,10291"/>
 <path fill="none" stroke="rgb(0,0,0)" stroke-width="30" stroke-linejoin="round" d="M 11650,10441 L 11650,10291"/>
 <path fill="none" stroke="rgb(0,0,0)" stroke-width="30" stroke-linejoin="round" d="M 11766,10441 L 11766,10291"/>
 <path fill="none" stroke="rgb(0,0,0)" stroke-width="30" stroke-linejoin="round" d="M 11766,10441 L 11766,10291"/>
 <path fill="none" stroke="rgb(0,0,0)" stroke-width="30" stroke-linejoin="round" d="M 11882,10441 L 11882,10291"/>
 <path fill="none" stroke="rgb(0,0,0)" stroke-width="30" stroke-linejoin="round" d="M 11882,10441 L 11882,10291"/>
 <path fill="none" stroke="rgb(0,0,0)" stroke-width="30" stroke-linejoin="round" d="M 11999,10441 L 11999,10291"/>
 <path fill="none" stroke="rgb(0,0,0)" stroke-width="30" stroke-linejoin="round" d="M 11999,10441 L 11999,10291"/>
 <path fill="none" stroke="rgb(0,0,0)" stroke-width="30" stroke-linejoin="round" d="M 12115,10441 L 12115,10291"/>
 <path fill="none" stroke="rgb(0,0,0)" stroke-width="30" stroke-linejoin="round" d="M 12115,10441 L 12115,10291"/>
 <path fill="none" stroke="rgb(0,0,0)" stroke-width="30" stroke-linejoin="round" d="M 12231,10441 L 12231,10291"/>
 <path fill="none" stroke="rgb(0,0,0)" stroke-width="30" stroke-linejoin="round" d="M 12231,10441 L 12231,10291"/>
 <path fill="none" stroke="rgb(0,0,0)" stroke-width="30" stroke-linejoin="round" d="M 12347,10441 L 12347,10291"/>
 <path fill="none" stroke="rgb(0,0,0)" stroke-width="30" stroke-linejoin="round" d="M 12347,10441 L 12347,10291"/>
 <path fill="none" stroke="rgb(0,0,0)" stroke-width="30" stroke-linejoin="round" d="M 12463,10441 L 12463,10291"/>
 <path fill="none" stroke="rgb(0,0,0)" stroke-width="30" stroke-linejoin="round" d="M 12463,10441 L 12463,10291"/>
 <path fill="none" stroke="rgb(0,0,0)" stroke-width="30" stroke-linejoin="round" d="M 12580,10441 L 12580,10291"/>
 <path fill="none" stroke="rgb(0,0,0)" stroke-width="30" stroke-linejoin="round" d="M 12580,10441 L 12580,10291"/>
 <path fill="none" stroke="rgb(0,0,0)" stroke-width="30" stroke-linejoin="round" d="M 12696,10441 L 12696,10291"/>
 <path fill="none" stroke="rgb(0,0,0)" stroke-width="30" stroke-linejoin="round" d="M 12696,10441 L 12696,10291"/>
 <path fill="none" stroke="rgb(0,0,0)" stroke-width="30" stroke-linejoin="round" d="M 12812,10441 L 12812,10291"/>
 <path fill="none" stroke="rgb(0,0,0)" stroke-width="30" stroke-linejoin="round" d="M 12812,10441 L 12812,10291"/>
 <path fill="none" stroke="rgb(0,0,0)" stroke-width="30" stroke-linejoin="round" d="M 12928,10441 L 12928,10291"/>
 <path fill="none" stroke="rgb(0,0,0)" stroke-width="30" stroke-linejoin="round" d="M 12928,10441 L 12928,10291"/>
 <path fill="none" stroke="rgb(0,0,0)" stroke-width="30" stroke-linejoin="round" d="M 13045,10441 L 13045,10291"/>
 <path fill="none" stroke="rgb(0,0,0)" stroke-width="30" stroke-linejoin="round" d="M 13045,10441 L 13045,10291"/>
 <path fill="none" stroke="rgb(0,0,0)" stroke-width="30" stroke-linejoin="round" d="M 13161,10441 L 13161,10291"/>
 <path fill="none" stroke="rgb(0,0,0)" stroke-width="30" stroke-linejoin="round" d="M 13161,10441 L 13161,10291"/>
 <path fill="none" stroke="rgb(0,0,0)" stroke-width="30" stroke-linejoin="round" d="M 13277,10441 L 13277,10291"/>
 <path fill="none" stroke="rgb(0,0,0)" stroke-width="30" stroke-linejoin="round" d="M 13277,10441 L 13277,10291"/>
 <path fill="none" stroke="rgb(0,0,0)" stroke-width="30" stroke-linejoin="round" d="M 13393,10441 L 13393,10291"/>
 <path fill="none" stroke="rgb(0,0,0)" stroke-width="30" stroke-linejoin="round" d="M 13393,10441 L 13393,10291"/>
 <path fill="none" stroke="rgb(0,0,0)" stroke-width="30" stroke-linejoin="round" d="M 13510,10441 L 13510,10291"/>
 <path fill="none" stroke="rgb(0,0,0)" stroke-width="30" stroke-linejoin="round" d="M 13510,10441 L 13510,10291"/>
 <path fill="none" stroke="rgb(0,0,0)" stroke-width="30" stroke-linejoin="round" d="M 13626,10441 L 13626,10291"/>
 <path fill="none" stroke="rgb(0,0,0)" stroke-width="30" stroke-linejoin="round" d="M 13626,10441 L 13626,10291"/>
 <path fill="none" stroke="rgb(0,0,0)" stroke-width="30" stroke-linejoin="round" d="M 13742,10441 L 13742,10291"/>
 <path fill="none" stroke="rgb(0,0,0)" stroke-width="30" stroke-linejoin="round" d="M 13742,10441 L 13742,10291"/>
 <path fill="none" stroke="rgb(0,0,0)" stroke-width="30" stroke-linejoin="round" d="M 13858,10441 L 13858,10291"/>
 <path fill="none" stroke="rgb(0,0,0)" stroke-width="30" stroke-linejoin="round" d="M 13858,10441 L 13858,10291"/>
 <path fill="none" stroke="rgb(0,0,0)" stroke-width="30" stroke-linejoin="round" d="M 13974,10441 L 13974,10291"/>
 <path fill="none" stroke="rgb(0,0,0)" stroke-width="30" stroke-linejoin="round" d="M 13974,10441 L 13974,10291"/>
 <path fill="none" stroke="rgb(0,0,0)" stroke-width="30" stroke-linejoin="round" d="M 14091,10441 L 14091,10291"/>
 <path fill="none" stroke="rgb(0,0,0)" stroke-width="30" stroke-linejoin="round" d="M 14091,10441 L 14091,10291"/>
 <path fill="none" stroke="rgb(0,0,0)" stroke-width="30" stroke-linejoin="round" d="M 14207,10441 L 14207,10291"/>
 <path fill="none" stroke="rgb(0,0,0)" stroke-width="30" stroke-linejoin="round" d="M 14207,10441 L 14207,10291"/>
 <path fill="none" stroke="rgb(0,0,0)" stroke-width="30" stroke-linejoin="round" d="M 14323,10441 L 14323,10291"/>
 <path fill="none" stroke="rgb(0,0,0)" stroke-width="30" stroke-linejoin="round" d="M 14323,10441 L 14323,10291"/>
 <path fill="none" stroke="rgb(0,0,0)" stroke-width="30" stroke-linejoin="round" d="M 14439,10441 L 14439,10291"/>
 <path fill="none" stroke="rgb(0,0,0)" stroke-width="30" stroke-linejoin="round" d="M 14439,10441 L 14439,10291"/>
 <path fill="none" stroke="rgb(0,0,0)" stroke-width="30" stroke-linejoin="round" d="M 14556,10441 L 14556,10291"/>
 <path fill="none" stroke="rgb(0,0,0)" stroke-width="30" stroke-linejoin="round" d="M 14556,10441 L 14556,10291"/>
 <path fill="none" stroke="rgb(0,0,0)" stroke-width="30" stroke-linejoin="round" d="M 14672,10441 L 14672,10291"/>
 <path fill="none" stroke="rgb(0,0,0)" stroke-width="30" stroke-linejoin="round" d="M 14672,10441 L 14672,10291"/>
 <path fill="none" stroke="rgb(0,0,0)" stroke-width="30" stroke-linejoin="round" d="M 14788,10441 L 14788,10291"/>
 <path fill="none" stroke="rgb(0,0,0)" stroke-width="30" stroke-linejoin="round" d="M 14788,10441 L 14788,10291"/>
 <path fill="none" stroke="rgb(0,0,0)" stroke-width="30" stroke-linejoin="round" d="M 14904,10441 L 14904,10291"/>
 <path fill="none" stroke="rgb(0,0,0)" stroke-width="30" stroke-linejoin="round" d="M 14904,10441 L 14904,10291"/>
 <path fill="none" stroke="rgb(0,0,0)" stroke-width="30" stroke-linejoin="round" d="M 15020,10441 L 15020,10291"/>
 <path fill="none" stroke="rgb(0,0,0)" stroke-width="30" stroke-linejoin="round" d="M 15020,10441 L 15020,10291"/>
 <path fill="none" stroke="rgb(0,0,0)" stroke-width="30" stroke-linejoin="round" d="M 1307,10291 L 15020,10291"/>
 <path fill="none" stroke="rgb(0,0,0)" stroke-width="30" stroke-linejoin="round" d="M 1157,10291 L 1307,10291"/>
 <path fill="none" stroke="rgb(0,0,0)" stroke-width="30" stroke-linejoin="round" d="M 1157,10291 L 1307,10291"/>
 <path fill="none" stroke="rgb(0,0,0)" stroke-width="30" stroke-linejoin="round" d="M 1157,9356 L 1307,9356"/>
 <path fill="none" stroke="rgb(0,0,0)" stroke-width="30" stroke-linejoin="round" d="M 1157,9356 L 1307,9356"/>
 <path fill="none" stroke="rgb(0,0,0)" stroke-width="30" stroke-linejoin="round" d="M 1157,8422 L 1307,8422"/>
 <path fill="none" stroke="rgb(0,0,0)" stroke-width="30" stroke-linejoin="round" d="M 1157,8422 L 1307,8422"/>
 <path fill="none" stroke="rgb(0,0,0)" stroke-width="30" stroke-linejoin="round" d="M 1157,7488 L 1307,7488"/>
 <path fill="none" stroke="rgb(0,0,0)" stroke-width="30" stroke-linejoin="round" d="M 1157,7488 L 1307,7488"/>
 <path fill="none" stroke="rgb(0,0,0)" stroke-width="30" stroke-linejoin="round" d="M 1157,6554 L 1307,6554"/>
 <path fill="none" stroke="rgb(0,0,0)" stroke-width="30" stroke-linejoin="round" d="M 1157,6554 L 1307,6554"/>
 <path fill="none" stroke="rgb(0,0,0)" stroke-width="30" stroke-linejoin="round" d="M 1157,5621 L 1307,5621"/>
 <path fill="none" stroke="rgb(0,0,0)" stroke-width="30" stroke-linejoin="round" d="M 1157,5621 L 1307,5621"/>
 <path fill="none" stroke="rgb(0,0,0)" stroke-width="30" stroke-linejoin="round" d="M 1157,4687 L 1307,4687"/>
 <path fill="none" stroke="rgb(0,0,0)" stroke-width="30" stroke-linejoin="round" d="M 1157,4687 L 1307,4687"/>
 <path fill="none" stroke="rgb(0,0,0)" stroke-width="30" stroke-linejoin="round" d="M 1157,3753 L 1307,3753"/>
 <path fill="none" stroke="rgb(0,0,0)" stroke-width="30" stroke-linejoin="round" d="M 1157,3753 L 1307,3753"/>
 <path fill="none" stroke="rgb(0,0,0)" stroke-width="30" stroke-linejoin="round" d="M 1157,2819 L 1307,2819"/>
 <path fill="none" stroke="rgb(0,0,0)" stroke-width="30" stroke-linejoin="round" d="M 1157,2819 L 1307,2819"/>
 <path fill="none" stroke="rgb(0,0,0)" stroke-width="30" stroke-linejoin="round" d="M 1157,1885 L 1307,1885"/>
 <path fill="none" stroke="rgb(0,0,0)" stroke-width="30" stroke-linejoin="round" d="M 1157,1885 L 1307,1885"/>
 <path fill="none" stroke="rgb(0,0,0)" stroke-width="30" stroke-linejoin="round" d="M 1157,951 L 1307,951"/>
 <path fill="none" stroke="rgb(0,0,0)" stroke-width="30" stroke-linejoin="round" d="M 1157,951 L 1307,951"/>
 <path fill="none" stroke="rgb(0,0,0)" stroke-width="30" stroke-linejoin="round" d="M 1307,10291 L 1307,951"/>
 <path fill="none" stroke="rgb(0,0,0)" stroke-width="30" stroke-linejoin="round" d="M 15170,10291 L 15020,10291"/>
 <path fill="none" stroke="rgb(0,0,0)" stroke-width="30" stroke-linejoin="round" d="M 15170,10291 L 15020,10291"/>
 <path fill="none" stroke="rgb(0,0,0)" stroke-width="30" stroke-linejoin="round" d="M 15170,9356 L 15020,9356"/>
 <path fill="none" stroke="rgb(0,0,0)" stroke-width="30" stroke-linejoin="round" d="M 15170,9356 L 15020,9356"/>
 <path fill="none" stroke="rgb(0,0,0)" stroke-width="30" stroke-linejoin="round" d="M 15170,8422 L 15020,8422"/>
 <path fill="none" stroke="rgb(0,0,0)" stroke-width="30" stroke-linejoin="round" d="M 15170,8422 L 15020,8422"/>
 <path fill="none" stroke="rgb(0,0,0)" stroke-width="30" stroke-linejoin="round" d="M 15170,7488 L 15020,7488"/>
 <path fill="none" stroke="rgb(0,0,0)" stroke-width="30" stroke-linejoin="round" d="M 15170,7488 L 15020,7488"/>
 <path fill="none" stroke="rgb(0,0,0)" stroke-width="30" stroke-linejoin="round" d="M 15170,6554 L 15020,6554"/>
 <path fill="none" stroke="rgb(0,0,0)" stroke-width="30" stroke-linejoin="round" d="M 15170,6554 L 15020,6554"/>
 <path fill="none" stroke="rgb(0,0,0)" stroke-width="30" stroke-linejoin="round" d="M 15170,5621 L 15020,5621"/>
 <path fill="none" stroke="rgb(0,0,0)" stroke-width="30" stroke-linejoin="round" d="M 15170,5621 L 15020,5621"/>
 <path fill="none" stroke="rgb(0,0,0)" stroke-width="30" stroke-linejoin="round" d="M 15170,4687 L 15020,4687"/>
 <path fill="none" stroke="rgb(0,0,0)" stroke-width="30" stroke-linejoin="round" d="M 15170,4687 L 15020,4687"/>
 <path fill="none" stroke="rgb(0,0,0)" stroke-width="30" stroke-linejoin="round" d="M 15170,3753 L 15020,3753"/>
 <path fill="none" stroke="rgb(0,0,0)" stroke-width="30" stroke-linejoin="round" d="M 15170,3753 L 15020,3753"/>
 <path fill="none" stroke="rgb(0,0,0)" stroke-width="30" stroke-linejoin="round" d="M 15170,2819 L 15020,2819"/>
 <path fill="none" stroke="rgb(0,0,0)" stroke-width="30" stroke-linejoin="round" d="M 15170,2819 L 15020,2819"/>
 <path fill="none" stroke="rgb(0,0,0)" stroke-width="30" stroke-linejoin="round" d="M 15170,1885 L 15020,1885"/>
 <path fill="none" stroke="rgb(0,0,0)" stroke-width="30" stroke-linejoin="round" d="M 15170,1885 L 15020,1885"/>
 <path fill="none" stroke="rgb(0,0,0)" stroke-width="30" stroke-linejoin="round" d="M 15170,951 L 15020,951"/>
 <path fill="none" stroke="rgb(0,0,0)" stroke-width="30" stroke-linejoin="round" d="M 15170,951 L 15020,951"/>
 <path fill="none" stroke="rgb(0,0,0)" stroke-width="30" stroke-linejoin="round" d="M 15020,10291 L 15020,951"/>
 <path fill="rgb(255,66,14)" stroke="none" d="M 1307,10291 L 1423,10291 1539,10291 1655,10291 1771,10291 1888,10291 2004,10291 2120,10291 2236,10291 2353,10291 2469,10291 2585,10291 2701,10291 2817,10291 2934,10291 3050,10291 3166,10291 3282,10291 3399,10291 3515,10291 3631,10291 3747,10291 3864,10291 3980,10291 4096,10291 4212,10291 4328,10291 4445,10291 4561,10291 4677,10291 4793,10291 4910,10291 5026,10291 5142,10291 5258,10291 5375,10291 5491,10291 5607,10291 5723,10291 5839,10291 5956,10291 6072,10291 6188,10291 6304,10291 6421,10291 6537,10291 6653,10291 6769,10291 6885,10291 7002,10291 7118,10291 7234,10291 7350,10291 7467,10291 7583,10291 7699,10291 7815,10291 7932,10291 8048,10291 8164,10291 8279,10291 8395,10291 8512,10291 8628,10291 8744,10291 8860,10291 8977,10291 9093,10291 9209,10291 9325,10291 9442,10249 9558,10238 9674,10219 9790,10180 9906,10162 10023,10139 10139,10106 10255,10092 10371,10099 10488,10105 10604,10102 10720,10072 10836,10061 10952,9979 11069,9919 11185,9874 11301,9816 11417,9806 11534,9786 11650,9757 11766,9693 11882,9650 11999,9587 12115,9563 12231,9504 12347,9498 12463,9440 12580,9390 12696,9345 12812,9411 12928,9313 13045,9307 13161,9215 13277,9086 13393,8971 13510,8921 13626,8868 13742,8876 13858,8787 13974,8731 14091,8730 14207,8782 14323,8737 14439,8720 14556,8714 14672,8683 14788,8654 14904,8650 15020,8766 15020,10291 1307,10291 Z"/>
 <path fill="rgb(255,211,32)" stroke="none" d="M 1307,10291 L 1423,10291 1539,10291 1655,10291 1771,10291 1888,10291 2004,10291 2120,10291 2236,10291 2353,10291 2469,10291 2585,10291 2701,10291 2817,10291 2934,10291 3050,10291 3166,10291 3282,10291 3399,10291 3515,10291 3631,10291 3747,10291 3864,10291 3980,10291 4096,10291 4212,10291 4328,10291 4445,10291 4561,10291 4677,10291 4793,10291 4910,10291 5026,10291 5142,10291 5258,10291 5375,10291 5491,10291 5607,10291 5723,10291 5839,10291 5956,10291 6072,10291 6188,10291 6304,10291 6421,10291 6537,10291 6653,10291 6769,10291 6885,10291 7002,10291 7118,10291 7234,10291 7350,10291 7467,10291 7583,10291 7699,10291 7815,10291 7932,10291 8048,10291 8164,10291 8279,10291 8395,10291 8512,10291 8628,10291 8744,10291 8860,10291 8977,10291 9093,10291 9209,10291 9325,10291 9442,10249 9558,10238 9674,10219 9790,10180 9906,10162 10023,10139 10139,10106 10255,10092 10371,10099 10488,10105 10604,10102 10720,10072 10836,10055 10952,9941 11069,9849 11185,9764 11301,9671 11417,9637 11534,9593 11650,9539 11766,9440 11882,9369 11999,9273 12115,9233 12231,9157 12347,9112 12463,8995 12580,8901 12696,8795 12812,8878 12928,8758 13045,8721 13161,8604 13277,8473 13393,8300 13510,8215 13626,8167 13742,8158 13858,8045 13974,7890 14091,7819 14207,7915 14323,7836 14439,7823 14556,7769 14672,7705 14788,7648 14904,7649 15020,7813 15020,8766 14904,8650 14788,8654 14672,8683 14556,8714 14439,8720 14323,8737 14207,8782 14091,8730 13974,8731 13858,8787 13742,8876 13626,8868 13510,8921 13393,8971 13277,9086 13161,9215 13045,9307 12928,9313 12812,9411 12696,9345 12580,9390 12463,9440 12347,9498 12231,9504 12115,9563 11999,9587 11882,9650 11766,9693 11650,9757 11534,9786 11417,9806 11301,9816 11185,9874 11069,9919 10952,9979 10836,10061 10720,10072 10604,10102 10488,10105 10371,10099 10255,10092 10139,10106 10023,10139 9906,10162 9790,10180 9674,10219 9558,10238 9442,10249 9325,10291 9209,10291 9093,10291 8977,10291 8860,10291 8744,10291 8628,10291 8512,10291 8395,10291 8279,10291 8164,10291 8048,10291 7932,10291 7815,10291 7699,10291 7583,10291 7467,10291 7350,10291 7234,10291 7118,10291 7002,10291 6885,10291 6769,10291 6653,10291 6537,10291 6421,10291 6304,10291 6188,10291 6072,10291 5956,10291 5839,10291 5723,10291 5607,10291 5491,10291 5375,10291 5258,10291 5142,10291 5026,10291 4910,10291 4793,10291 4677,10291 4561,10291 4445,10291 4328,10291 4212,10291 4096,10291 3980,10291 3864,10291 3747,10291 3631,10291 3515,10291 3399,10291 3282,10291 3166,10291 3050,10291 2934,10291 2817,10291 2701,10291 2585,10291 2469,10291 2353,10291 2236,10291 2120,10291 2004,10291 1888,10291 1771,10291 1655,10291 1539,10291 1423,10291 1307,10291 Z"/>
 <path fill="rgb(0,69,134)" stroke="none" d="M 1307,10291 L 1423,10291 1539,10291 1655,10291 1771,10291 1888,10291 2004,10291 2120,10291 2236,10291 2353,10291 2469,10291 2585,10291 2701,10291 2817,10291 2934,10253 3050,10238 3166,10224 3282,10209 3399,10193 3515,10173 3631,10149 3747,10111 3864,10077 3980,10045 4096,10004 4212,9952 4328,9875 4445,9827 4561,9780 4677,9738 4793,9711 4910,9703 5026,9667 5142,9619 5258,9586 5375,9528 5491,9464 5607,9423 5723,9333 5839,9336 5956,9315 6072,9282 6188,9259 6304,9226 6421,9208 6537,9202 6653,9175 6769,9127 6885,9092 7002,9063 7118,9038 7234,9030 7350,9025 7467,9004 7583,8975 7699,8930 7815,8932 7932,8916 8048,8870 8164,8843 8279,8841 8395,8831 8512,8786 8628,8760 8744,8728 8860,8742 8977,8770 9093,8709 9209,8701 9325,8740 9442,8685 9558,8694 9674,8639 9790,8681 9906,8668 10023,8676 10139,8689 10255,8678 10371,8641 10488,8637 10604,8582 10720,8462 10836,8419 10952,8311 11069,8326 11185,8277 11301,8246 11417,8178 11534,8168 11650,8102 11766,8019 11882,7995 11999,7923 12115,7854 12231,7755 12347,7711 12463,7673 12580,7657 12696,7587 12812,7612 12928,7507 13045,7454 13161,7414 13277,7340 13393,7214 13510,7088 13626,7026 13742,7023 13858,6962 13974,6903 14091,6851 14207,6859 14323,6846 14439,6876 14556,6827 14672,6802 14788,6759 14904,6781 15020,6887 15020,7813 14904,7649 14788,7648 14672,7705 14556,7769 14439,7823 14323,7836 14207,7915 14091,7819 13974,7890 13858,8045 13742,8158 13626,8167 13510,8215 13393,8300 13277,8473 13161,8604 13045,8721 12928,8758 12812,8878 12696,8795 12580,8901 12463,8995 12347,9112 12231,9157 12115,9233 11999,9273 11882,9369 11766,9440 11650,9539 11534,9593 11417,9637 11301,9671 11185,9764 11069,9849 10952,9941 10836,10055 10720,10072 10604,10102 10488,10105 10371,10099 10255,10092 10139,10106 10023,10139 9906,10162 9790,10180 9674,10219 9558,10238 9442,10249 9325,10291 9209,10291 9093,10291 8977,10291 8860,10291 8744,10291 8628,10291 8512,10291 8395,10291 8279,10291 8164,10291 8048,10291 7932,10291 7815,10291 7699,10291 7583,10291 7467,10291 7350,10291 7234,10291 7118,10291 7002,10291 6885,10291 6769,10291 6653,10291 6537,10291 6421,10291 6304,10291 6188,10291 6072,10291 5956,10291 5839,10291 5723,10291 5607,10291 5491,10291 5375,10291 5258,10291 5142,10291 5026,10291 4910,10291 4793,10291 4677,10291 4561,10291 4445,10291 4328,10291 4212,10291 4096,10291 3980,10291 3864,10291 3747,10291 3631,10291 3515,10291 3399,10291 3282,10291 3166,10291 3050,10291 2934,10291 2817,10291 2701,10291 2585,10291 2469,10291 2353,10291 2236,10291 2120,10291 2004,10291 1888,10291 1771,10291 1655,10291 1539,10291 1423,10291 1307,10291 Z"/>
 <path fill="rgb(131,202,255)" stroke="none" d="M 1307,10291 L 1423,10291 1539,10291 1655,10291 1771,10291 1888,10291 2004,10291 2120,10291 2236,10291 2353,10291 2469,10291 2585,10291 2701,10291 2817,10291 2934,10253 3050,10238 3166,10224 3282,10209 3399,10193 3515,10173 3631,10105 3747,10059 3864,10016 3980,9977 4096,9921 4212,9850 4328,9752 4445,9690 4561,9626 4677,9567 4793,9524 4910,9496 5026,9454 5142,9392 5258,9338 5375,9269 5491,9198 5607,9140 5723,9049 5839,9034 5956,8999 6072,8949 6188,8911 6304,8861 6421,8843 6537,8819 6653,8777 6769,8711 6885,8679 7002,8657 7118,8621 7234,8596 7350,8573 7467,8555 7583,8506 7699,8449 7815,8435 7932,8383 8048,8349 8164,8314 8279,8298 8395,8315 8512,8252 8628,8231 8744,8180 8860,8173 8977,8178 9093,8124 9209,8154 9325,8213 9442,8136 9558,8099 9674,8038 9790,8095 9906,8064 10023,8052 10139,8050 10255,8008 10371,7931 10488,7888 10604,7833 10720,7723 10836,7657 10952,7558 11069,7549 11185,7486 11301,7475 11417,7381 11534,7359 11650,7293 11766,7233 11882,7180 11999,7101 12115,7032 12231,6917 12347,6864 12463,6818 12580,6799 12696,6733 12812,6678 12928,6597 13045,6565 13161,6520 13277,6442 13393,6375 13510,6221 13626,6161 13742,6183 13858,6204 13974,6191 14091,6130 14207,6101 14323,6088 14439,6150 14556,6077 14672,6054 14788,6050 14904,6048 15020,6121 15020,6887 14904,6781 14788,6759 14672,6802 14556,6827 14439,6876 14323,6846 14207,6859 14091,6851 13974,6903 13858,6962 13742,7023 13626,7026 13510,7088 13393,7214 13277,7340 13161,7414 13045,7454 12928,7507 12812,7612 12696,7587 12580,7657 12463,7673 12347,7711 12231,7755 12115,7854 11999,7923 11882,7995 11766,8019 11650,8102 11534,8168 11417,8178 11301,8246 11185,8277 11069,8326 10952,8311 10836,8419 10720,8462 10604,8582 10488,8637 10371,8641 10255,8678 10139,8689 10023,8676 9906,8668 9790,8681 9674,8639 9558,8694 9442,8685 9325,8740 9209,8701 9093,8709 8977,8770 8860,8742 8744,8728 8628,8760 8512,8786 8395,8831 8279,8841 8164,8843 8048,8870 7932,8916 7815,8932 7699,8930 7583,8975 7467,9004 7350,9025 7234,9030 7118,9038 7002,9063 6885,9092 6769,9127 6653,9175 6537,9202 6421,9208 6304,9226 6188,9259 6072,9282 5956,9315 5839,9336 5723,9333 5607,9423 5491,9464 5375,9528 5258,9586 5142,9619 5026,9667 4910,9703 4793,9711 4677,9738 4561,9780 4445,9827 4328,9875 4212,9952 4096,10004 3980,10045 3864,10077 3747,10111 3631,10149 3515,10173 3399,10193 3282,10209 3166,10224 3050,10238 2934,10253 2817,10291 2701,10291 2585,10291 2469,10291 2353,10291 2236,10291 2120,10291 2004,10291 1888,10291 1771,10291 1655,10291 1539,10291 1423,10291 1307,10291 Z"/>
 <path fill="rgb(49,64,4)" stroke="none" d="M 1307,9992 L 1423,9992 1539,9997 1655,9997 1771,9998 1888,9993 2004,10001 2120,10005 2236,10004 2353,10007 2469,10012 2585,10011 2701,10020 2817,10021 2934,9992 3050,9978 3166,9966 3282,9953 3399,9940 3515,9920 3631,9854 3747,9814 3864,9777 3980,9739 4096,9690 4212,9624 4328,9539 4445,9479 4561,9421 4677,9368 4793,9327 4910,9297 5026,9251 5142,9194 5258,9145 5375,9078 5491,9009 5607,8963 5723,8876 5839,8859 5956,8822 6072,8779 6188,8743 6304,8701 6421,8691 6537,8671 6653,8636 6769,8582 6885,8549 7002,8526 7118,8491 7234,8300 7350,8251 7467,8197 7583,8132 7699,8021 7815,7952 7932,7915 8048,7863 8164,7860 8279,7795 8395,7735 8512,7646 8628,7671 8744,7563 8860,7537 8977,7521 9093,7437 9209,7427 9325,7523 9442,7475 9558,7423 9674,7328 9790,7298 9906,7229 10023,7243 10139,7229 10255,7223 10371,7292 10488,7323 10604,7326 10720,7173 10836,7144 10952,7019 11069,6956 11185,6885 11301,6836 11417,6750 11534,6718 11650,6647 11766,6555 11882,6468 11999,6365 12115,6295 12231,6259 12347,6178 12463,6080 12580,6034 12696,5989 12812,6003 12928,5954 13045,5920 13161,5866 13277,5821 13393,5708 13510,5627 13626,5609 13742,5637 13858,5637 13974,5535 14091,5455 14207,5479 14323,5451 14439,5465 14556,5455 14672,5441 14788,5399 14904,5433 15020,5513 15020,6121 14904,6048 14788,6050 14672,6054 14556,6077 14439,6150 14323,6088 14207,6101 14091,6130 13974,6191 13858,6204 13742,6183 13626,6161 13510,6221 13393,6375 13277,6442 13161,6520 13045,6565 12928,6597 12812,6678 12696,6733 12580,6799 12463,6818 12347,6864 12231,6917 12115,7032 11999,7101 11882,7180 11766,7233 11650,7293 11534,7359 11417,7381 11301,7475 11185,7486 11069,7549 10952,7558 10836,7657 10720,7723 10604,7833 10488,7888 10371,7931 10255,8008 10139,8050 10023,8052 9906,8064 9790,8095 9674,8038 9558,8099 9442,8136 9325,8213 9209,8154 9093,8124 8977,8178 8860,8173 8744,8180 8628,8231 8512,8252 8395,8315 8279,8298 8164,8314 8048,8349 7932,8383 7815,8435 7699,8449 7583,8506 7467,8555 7350,8573 7234,8596 7118,8621 7002,8657 6885,8679 6769,8711 6653,8777 6537,8819 6421,8843 6304,8861 6188,8911 6072,8949 5956,8999 5839,9034 5723,9049 5607,9140 5491,9198 5375,9269 5258,9338 5142,9392 5026,9454 4910,9496 4793,9524 4677,9567 4561,9626 4445,9690 4328,9752 4212,9850 4096,9921 3980,9977 3864,10016 3747,10059 3631,10105 3515,10173 3399,10193 3282,10209 3166,10224 3050,10238 2934,10253 2817,10291 2701,10291 2585,10291 2469,10291 2353,10291 2236,10291 2120,10291 2004,10291 1888,10291 1771,10291 1655,10291 1539,10291 1423,10291 1307,10291 1307,9992 Z"/>
 <path fill="rgb(126,0,33)" stroke="none" d="M 1307,9992 L 1423,9992 1539,9997 1655,9997 1771,9998 1888,9993 2004,10001 2120,10005 2236,10004 2353,10007 2469,10012 2585,10011 2701,10020 2817,10021 2934,9992 3050,9978 3166,9966 3282,9953 3399,9940 3515,9920 3631,9854 3747,9814 3864,9777 3980,9739 4096,9690 4212,9624 4328,9539 4445,9479 4561,9421 4677,9368 4793,9327 4910,9297 5026,9251 5142,9194 5258,9145 5375,9078 5491,9009 5607,8963 5723,8876 5839,8859 5956,8822 6072,8779 6188,8743 6304,8701 6421,8691 6537,8671 6653,8636 6769,8582 6885,8549 7002,8526 7118,8491 7234,8300 7350,8251 7467,8197 7583,8132 7699,8021 7815,7952 7932,7915 8048,7863 8164,7828 8279,7739 8395,7653 8512,7543 8628,7566 8744,7441 8860,7393 8977,7353 9093,7263 9209,7241 9325,7274 9442,7217 9558,7130 9674,7007 9790,6899 9906,6819 10023,6789 10139,6727 10255,6713 10371,6832 10488,6902 10604,6933 10720,6735 10836,6737 10952,6570 11069,6479 11185,6392 11301,6335 11417,6244 11534,6210 11650,6141 11766,6014 11882,5908 11999,5782 12115,5730 12231,5708 12347,5652 12463,5544 12580,5505 12696,5447 12812,5519 12928,5472 13045,5429 13161,5367 13277,5342 13393,5193 13510,5082 13626,5099 13742,5133 13858,5141 13974,4996 14091,4902 14207,4966 14323,4925 14439,4948 14556,4930 14672,4911 14788,4861 14904,4901 15020,5022 15020,5513 14904,5433 14788,5399 14672,5441 14556,5455 14439,5465 14323,5451 14207,5479 14091,5455 13974,5535 13858,5637 13742,5637 13626,5609 13510,5627 13393,5708 13277,5821 13161,5866 13045,5920 12928,5954 12812,6003 12696,5989 12580,6034 12463,6080 12347,6178 12231,6259 12115,6295 11999,6365 11882,6468 11766,6555 11650,6647 11534,6718 11417,6750 11301,6836 11185,6885 11069,6956 10952,7019 10836,7144 10720,7173 10604,7326 10488,7323 10371,7292 10255,7223 10139,7229 10023,7243 9906,7229 9790,7298 9674,7328 9558,7423 9442,7475 9325,7523 9209,7427 9093,7437 8977,7521 8860,7537 8744,7563 8628,7671 8512,7646 8395,7735 8279,7795 8164,7860 8048,7863 7932,7915 7815,7952 7699,8021 7583,8132 7467,8197 7350,8251 7234,8300 7118,8491 7002,8526 6885,8549 6769,8582 6653,8636 6537,8671 6421,8691 6304,8701 6188,8743 6072,8779 5956,8822 5839,8859 5723,8876 5607,8963 5491,9009 5375,9078 5258,9145 5142,9194 5026,9251 4910,9297 4793,9327 4677,9368 4561,9421 4445,9479 4328,9539 4212,9624 4096,9690 3980,9739 3864,9777 3747,9814 3631,9854 3515,9920 3399,9940 3282,9953 3166,9966 3050,9978 2934,9992 2817,10021 2701,10020 2585,10011 2469,10012 2353,10007 2236,10004 2120,10005 2004,10001 1888,9993 1771,9998 1655,9997 1539,9997 1423,9992 1307,9992 Z"/>
 <path fill="rgb(75,31,111)" stroke="none" d="M 1307,9512 L 1423,9488 1539,9467 1655,9450 1771,9414 1888,9417 2004,9383 2120,9360 2236,9342 2353,9325 2469,9314 2585,9306 2701,9272 2817,9246 2934,9195 3050,9172 3166,9147 3282,9131 3399,9116 3515,9097 3631,9011 3747,8969 3864,8930 3980,8901 4096,8851 4212,8791 4328,8711 4445,8661 4561,8605 4677,8561 4793,8541 4910,8535 5026,8505 5142,8451 5258,8420 5375,8362 5491,8296 5607,8254 5723,8158 5839,8155 5956,8132 6072,8098 6188,8068 6304,8033 6421,8036 6537,8020 6653,7988 6769,7937 6885,7918 7002,7922 7118,7889 7234,7707 7350,7659 7467,7619 7583,7557 7699,7441 7815,7369 7932,7307 8048,7255 8164,7234 8279,7151 8395,7088 8512,6989 8628,7024 8744,6890 8860,6840 8977,6796 9093,6719 9209,6704 9325,6808 9442,6737 9558,6629 9674,6506 9790,6416 9906,6342 10023,6308 10139,6243 10255,6224 10371,6324 10488,6378 10604,6409 10720,6223 10836,6237 10952,6081 11069,5994 11185,5917 11301,5879 11417,5778 11534,5703 11650,5599 11766,5472 11882,5456 11999,5339 12115,5286 12231,5268 12347,5203 12463,5087 12580,5065 12696,5018 12812,5075 12928,5043 13045,5004 13161,4943 13277,4938 13393,4821 13510,4733 13626,4744 13742,4786 13858,4802 13974,4677 14091,4581 14207,4633 14323,4597 14439,4634 14556,4608 14672,4600 14788,4559 14904,4601 15020,4695 15020,5022 14904,4901 14788,4861 14672,4911 14556,4930 14439,4948 14323,4925 14207,4966 14091,4902 13974,4996 13858,5141 13742,5133 13626,5099 13510,5082 13393,5193 13277,5342 13161,5367 13045,5429 12928,5472 12812,5519 12696,5447 12580,5505 12463,5544 12347,5652 12231,5708 12115,5730 11999,5782 11882,5908 11766,6014 11650,6141 11534,6210 11417,6244 11301,6335 11185,6392 11069,6479 10952,6570 10836,6737 10720,6735 10604,6933 10488,6902 10371,6832 10255,6713 10139,6727 10023,6789 9906,6819 9790,6899 9674,7007 9558,7130 9442,7217 9325,7274 9209,7241 9093,7263 8977,7353 8860,7393 8744,7441 8628,7566 8512,7543 8395,7653 8279,7739 8164,7828 8048,7863 7932,7915 7815,7952 7699,8021 7583,8132 7467,8197 7350,8251 7234,8300 7118,8491 7002,8526 6885,8549 6769,8582 6653,8636 6537,8671 6421,8691 6304,8701 6188,8743 6072,8779 5956,8822 5839,8859 5723,8876 5607,8963 5491,9009 5375,9078 5258,9145 5142,9194 5026,9251 4910,9297 4793,9327 4677,9368 4561,9421 4445,9479 4328,9539 4212,9624 4096,9690 3980,9739 3864,9777 3747,9814 3631,9854 3515,9920 3399,9940 3282,9953 3166,9966 3050,9978 2934,9992 2817,10021 2701,10020 2585,10011 2469,10012 2353,10007 2236,10004 2120,10005 2004,10001 1888,9993 1771,9998 1655,9997 1539,9997 1423,9992 1307,9992 1307,9512 Z"/>
 <path fill="rgb(87,157,28)" stroke="none" d="M 1307,8235 L 1423,8162 1539,8070 1655,8022 1771,7923 1888,7953 2004,7852 2120,7774 2236,7733 2353,7662 2469,7614 2585,7553 2701,7448 2817,7413 2934,7289 3050,7278 3166,7248 3282,7233 3399,7205 3515,7152 3631,7114 3747,7063 3864,7053 3980,7017 4096,6944 4212,6916 4328,6821 4445,6820 4561,6799 4677,6767 4793,6800 4910,6856 5026,6878 5142,6850 5258,6856 5375,6802 5491,6743 5607,6718 5723,6630 5839,6688 5956,6691 6072,6663 6188,6666 6304,6676 6421,6691 6537,6713 6653,6693 6769,6633 6885,6639 7002,6681 7118,6686 7234,6519 7350,6499 7467,6478 7583,6454 7699,6338 7815,6277 7932,6231 8048,6197 8164,6222 8279,6160 8395,6135 8512,6058 8628,6138 8744,5990 8860,5968 8977,5954 9093,5899 9209,5908 9325,6063 9442,5982 9558,5869 9674,5731 9790,5680 9906,5619 10023,5603 10139,5549 10255,5549 10371,5654 10488,5714 10604,5775 10720,5566 10836,5646 10952,5485 11069,5418 11185,5361 11301,5330 11417,5220 11534,5157 11650,5064 11766,4939 11882,4933 11999,4832 12115,4771 12231,4776 12347,4700 12463,4590 12580,4591 12696,4544 12812,4607 12928,4599 13045,4573 13161,4516 13277,4535 13393,4435 13510,4391 13626,4401 13742,4445 13858,4469 13974,4363 14091,4264 14207,4309 14323,4293 14439,4325 14556,4311 14672,4317 14788,4282 14904,4339 15020,4412 15020,4695 14904,4601 14788,4559 14672,4600 14556,4608 14439,4634 14323,4597 14207,4633 14091,4581 13974,4677 13858,4802 13742,4786 13626,4744 13510,4733 13393,4821 13277,4938 13161,4943 13045,5004 12928,5043 12812,5075 12696,5018 12580,5065 12463,5087 12347,5203 12231,5268 12115,5286 11999,5339 11882,5456 11766,5472 11650,5599 11534,5703 11417,5778 11301,5879 11185,5917 11069,5994 10952,6081 10836,6237 10720,6223 10604,6409 10488,6378 10371,6324 10255,6224 10139,6243 10023,6308 9906,6342 9790,6416 9674,6506 9558,6629 9442,6737 9325,6808 9209,6704 9093,6719 8977,6796 8860,6840 8744,6890 8628,7024 8512,6989 8395,7088 8279,7151 8164,7234 8048,7255 7932,7307 7815,7369 7699,7441 7583,7557 7467,7619 7350,7659 7234,7707 7118,7889 7002,7922 6885,7918 6769,7937 6653,7988 6537,8020 6421,8036 6304,8033 6188,8068 6072,8098 5956,8132 5839,8155 5723,8158 5607,8254 5491,8296 5375,8362 5258,8420 5142,8451 5026,8505 4910,8535 4793,8541 4677,8561 4561,8605 4445,8661 4328,8711 4212,8791 4096,8851 3980,8901 3864,8930 3747,8969 3631,9011 3515,9097 3399,9116 3282,9131 3166,9147 3050,9172 2934,9195 2817,9246 2701,9272 2585,9306 2469,9314 2353,9325 2236,9342 2120,9360 2004,9383 1888,9417 1771,9414 1655,9450 1539,9467 1423,9488 1307,9512 1307,8235 Z"/>
 <path fill="rgb(255,149,14)" stroke="none" d="M 1307,6993 L 1423,6963 1539,6848 1655,6806 1771,6720 1888,6733 2004,6633 2120,6556 2236,6516 2353,6449 2469,6387 2585,6325 2701,6253 2817,6229 2934,6126 3050,6110 3166,6090 3282,6083 3399,6074 3515,6033 3631,6016 3747,6003 3864,5981 3980,5972 4096,5926 4212,5924 4328,5851 4445,5839 4561,5831 4677,5805 4793,5819 4910,5845 5026,5865 5142,5833 5258,5822 5375,5787 5491,5748 5607,5756 5723,5713 5839,5739 5956,5699 6072,5699 6188,5702 6304,5735 6421,5823 6537,5841 6653,5815 6769,5777 6885,5801 7002,5890 7118,5900 7234,5732 7350,5735 7467,5737 7583,5699 7699,5595 7815,5540 7932,5505 8048,5494 8164,5528 8279,5485 8395,5528 8512,5433 8628,5515 8744,5367 8860,5329 8977,5295 9093,5266 9209,5309 9325,5531 9442,5438 9558,5299 9674,5168 9790,5161 9906,5085 10023,5067 10139,5026 10255,5004 10371,5065 10488,5089 10604,5145 10720,4967 10836,5033 10952,4910 11069,4874 11185,4831 11301,4834 11417,4720 11534,4667 11650,4579 11766,4482 11882,4476 11999,4393 12115,4345 12231,4345 12347,4271 12463,4207 12580,4234 12696,4200 12812,4247 12928,4254 13045,4245 13161,4194 13277,4218 13393,4135 13510,4094 13626,4111 13742,4163 13858,4213 13974,4131 14091,4034 14207,4067 14323,4054 14439,4096 14556,4078 14672,4092 14788,4072 14904,4126 15020,4193 15020,4412 14904,4339 14788,4282 14672,4317 14556,4311 14439,4325 14323,4293 14207,4309 14091,4264 13974,4363 13858,4469 13742,4445 13626,4401 13510,4391 13393,4435 13277,4535 13161,4516 13045,4573 12928,4599 12812,4607 12696,4544 12580,4591 12463,4590 12347,4700 12231,4776 12115,4771 11999,4832 11882,4933 11766,4939 11650,5064 11534,5157 11417,5220 11301,5330 11185,5361 11069,5418 10952,5485 10836,5646 10720,5566 10604,5775 10488,5714 10371,5654 10255,5549 10139,5549 10023,5603 9906,5619 9790,5680 9674,5731 9558,5869 9442,5982 9325,6063 9209,5908 9093,5899 8977,5954 8860,5968 8744,5990 8628,6138 8512,6058 8395,6135 8279,6160 8164,6222 8048,6197 7932,6231 7815,6277 7699,6338 7583,6454 7467,6478 7350,6499 7234,6519 7118,6686 7002,6681 6885,6639 6769,6633 6653,6693 6537,6713 6421,6691 6304,6676 6188,6666 6072,6663 5956,6691 5839,6688 5723,6630 5607,6718 5491,6743 5375,6802 5258,6856 5142,6850 5026,6878 4910,6856 4793,6800 4677,6767 4561,6799 4445,6820 4328,6821 4212,6916 4096,6944 3980,7017 3864,7053 3747,7063 3631,7114 3515,7152 3399,7205 3282,7233 3166,7248 3050,7278 2934,7289 2817,7413 2701,7448 2585,7553 2469,7614 2353,7662 2236,7733 2120,7774 2004,7852 1888,7953 1771,7923 1655,8022 1539,8070 1423,8162 1307,8235 1307,6993 Z"/>
 <path fill="rgb(174,207,0)" stroke="none" d="M 1307,2690 L 1423,2706 1539,2707 1655,2726 1771,2688 1888,2663 2004,2718 2120,2710 2236,2711 2353,2729 2469,2734 2585,2700 2701,2743 2817,2806 2934,2805 3050,2818 3166,2862 3282,2924 3399,2950 3515,2970 3631,3019 3747,3080 3864,3122 3980,3147 4096,3194 4212,3276 4328,3332 4445,3360 4561,3428 4677,3488 4793,3516 4910,3578 5026,3658 5142,3702 5258,3726 5375,3710 5491,3653 5607,3741 5723,3787 5839,3836 5956,3810 6072,3867 6188,3902 6304,3980 6421,4136 6537,4217 6653,4226 6769,4288 6885,4272 7002,4285 7118,4346 7234,4217 7350,4262 7467,4253 7583,4307 7699,4344 7815,4362 7932,4337 8048,4304 8164,4381 8279,4367 8395,4331 8512,4365 8628,4346 8744,4260 8860,4295 8977,4307 9093,4299 9209,4361 9325,4700 9442,4621 9558,4531 9674,4412 9790,4475 9906,4432 10023,4439 10139,4431 10255,4402 10371,4381 10488,4351 10604,4213 10720,4177 10836,4306 10952,4217 11069,4218 11185,4173 11301,4075 11417,4037 11534,4110 11650,4088 11766,4029 11882,4066 11999,4012 12115,3967 12231,3991 12347,3935 12463,3913 12580,3957 12696,3942 12812,3981 12928,3986 13045,3936 13161,3927 13277,3941 13393,3878 13510,3864 13626,3883 13742,3899 13858,3997 13974,3925 14091,3852 14207,3852 14323,3842 14439,3893 14556,3882 14672,3900 14788,3876 14904,3929 15020,3986 15020,4193 14904,4126 14788,4072 14672,4092 14556,4078 14439,4096 14323,4054 14207,4067 14091,4034 13974,4131 13858,4213 13742,4163 13626,4111 13510,4094 13393,4135 13277,4218 13161,4194 13045,4245 12928,4254 12812,4247 12696,4200 12580,4234 12463,4207 12347,4271 12231,4345 12115,4345 11999,4393 11882,4476 11766,4482 11650,4579 11534,4667 11417,4720 11301,4834 11185,4831 11069,4874 10952,4910 10836,5033 10720,4967 10604,5145 10488,5089 10371,5065 10255,5004 10139,5026 10023,5067 9906,5085 9790,5161 9674,5168 9558,5299 9442,5438 9325,5531 9209,5309 9093,5266 8977,5295 8860,5329 8744,5367 8628,5515 8512,5433 8395,5528 8279,5485 8164,5528 8048,5494 7932,5505 7815,5540 7699,5595 7583,5699 7467,5737 7350,5735 7234,5732 7118,5900 7002,5890 6885,5801 6769,5777 6653,5815 6537,5841 6421,5823 6304,5735 6188,5702 6072,5699 5956,5699 5839,5739 5723,5713 5607,5756 5491,5748 5375,5787 5258,5822 5142,5833 5026,5865 4910,5845 4793,5819 4677,5805 4561,5831 4445,5839 4328,5851 4212,5924 4096,5926 3980,5972 3864,5981 3747,6003 3631,6016 3515,6033 3399,6074 3282,6083 3166,6090 3050,6110 2934,6126 2817,6229 2701,6253 2585,6325 2469,6387 2353,6449 2236,6516 2120,6556 2004,6633 1888,6733 1771,6720 1655,6806 1539,6848 1423,6963 1307,6993 1307,2690 Z"/>
 <path fill="rgb(197,0,11)" stroke="none" d="M 1307,2393 L 1423,2393 1539,2368 1655,2376 1771,2317 1888,2297 2004,2312 2120,2288 2236,2281 2353,2281 2469,2265 2585,2240 2701,2255 2817,2294 2934,2281 3050,2290 3166,2325 3282,2385 3399,2412 3515,2445 3631,2476 3747,2543 3864,2581 3980,2616 4096,2664 4212,2751 4328,2811 4445,2848 4561,2913 4677,2975 4793,3007 4910,3064 5026,3149 5142,3194 5258,3218 5375,3219 5491,3182 5607,3277 5723,3332 5839,3369 5956,3335 6072,3398 6188,3437 6304,3523 6421,3693 6537,3775 6653,3782 6769,3849 6885,3849 7002,3889 7118,3954 7234,3828 7350,3875 7467,3880 7583,3932 7699,3970 7815,3984 7932,3954 8048,3942 8164,4031 8279,4018 8395,4012 8512,4041 8628,4038 8744,3950 8860,3974 8977,3978 9093,3984 9209,4065 9325,4430 9442,4343 9558,4235 9674,4119 9790,4197 9906,4149 10023,4154 10139,4145 10255,4105 10371,4049 10488,3990 10604,3869 10720,3852 10836,3983 10952,3921 11069,3924 11185,3885 11301,3805 11417,3769 11534,3844 11650,3825 11766,3779 11882,3807 11999,3759 12115,3719 12231,3749 12347,3694 12463,3677 12580,3729 12696,3720 12812,3747 12928,3763 13045,3721 13161,3715 13277,3732 13393,3687 13510,3678 13626,3700 13742,3730 13858,3840 13974,3779 14091,3701 14207,3697 14323,3687 14439,3749 14556,3732 14672,3752 14788,3736 14904,3785 15020,3837 15020,3986 14904,3929 14788,3876 14672,3900 14556,3882 14439,3893 14323,3842 14207,3852 14091,3852 13974,3925 13858,3997 13742,3899 13626,3883 13510,3864 13393,3878 13277,3941 13161,3927 13045,3936 12928,3986 12812,3981 12696,3942 12580,3957 12463,3913 12347,3935 12231,3991 12115,3967 11999,4012 11882,4066 11766,4029 11650,4088 11534,4110 11417,4037 11301,4075 11185,4173 11069,4218 10952,4217 10836,4306 10720,4177 10604,4213 10488,4351 10371,4381 10255,4402 10139,4431 10023,4439 9906,4432 9790,4475 9674,4412 9558,4531 9442,4621 9325,4700 9209,4361 9093,4299 8977,4307 8860,4295 8744,4260 8628,4346 8512,4365 8395,4331 8279,4367 8164,4381 8048,4304 7932,4337 7815,4362 7699,4344 7583,4307 7467,4253 7350,4262 7234,4217 7118,4346 7002,4285 6885,4272 6769,4288 6653,4226 6537,4217 6421,4136 6304,3980 6188,3902 6072,3867 5956,3810 5839,3836 5723,3787 5607,3741 5491,3653 5375,3710 5258,3726 5142,3702 5026,3658 4910,3578 4793,3516 4677,3488 4561,3428 4445,3360 4328,3332 4212,3276 4096,3194 3980,3147 3864,3122 3747,3080 3631,3019 3515,2970 3399,2950 3282,2924 3166,2862 3050,2818 2934,2805 2817,2806 2701,2743 2585,2700 2469,2734 2353,2729 2236,2711 2120,2710 2004,2718 1888,2663 1771,2688 1655,2726 1539,2707 1423,2706 1307,2690 1307,2393 Z"/>
 <path fill="rgb(0,132,209)" stroke="none" d="M 1307,1681 L 1423,1692 1539,1721 1655,1755 1771,1705 1888,1699 2004,1742 2120,1744 2236,1752 2353,1783 2469,1795 2585,1778 2701,1817 2817,1874 2934,1884 3050,1897 3166,1929 3282,1994 3399,2034 3515,2084 3631,2123 3747,2184 3864,2236 3980,2282 4096,2349 4212,2444 4328,2527 4445,2577 4561,2651 4677,2711 4793,2765 4910,2836 5026,2930 5142,2992 5258,3022 5375,3039 5491,3006 5607,3101 5723,3180 5839,3207 5956,3190 6072,3261 6188,3304 6304,3394 6421,3568 6537,3663 6653,3673 6769,3756 6885,3753 7002,3787 7118,3858 7234,3683 7350,3735 7467,3738 7583,3793 7699,3832 7815,3851 7932,3828 8048,3814 8164,3898 8279,3882 8395,3875 8512,3899 8628,3893 8744,3816 8860,3854 8977,3870 9093,3868 9209,3948 9325,4310 9442,4230 9558,4130 9674,4014 9790,4101 9906,4055 10023,4069 10139,4069 10255,4030 10371,3982 10488,3922 10604,3800 10720,3779 10836,3899 10952,3844 11069,3859 11185,3826 11301,3747 11417,3713 11534,3791 11650,3771 11766,3729 11882,3757 11999,3714 12115,3670 12231,3706 12347,3649 12463,3637 12580,3689 12696,3682 12812,3713 12928,3726 13045,3687 13161,3680 13277,3699 13393,3652 13510,3647 13626,3669 13742,3699 13858,3810 13974,3752 14091,3674 14207,3668 14323,3660 14439,3715 14556,3704 14672,3726 14788,3710 14904,3757 15020,3807 15020,3837 14904,3785 14788,3736 14672,3752 14556,3732 14439,3749 14323,3687 14207,3697 14091,3701 13974,3779 13858,3840 13742,3730 13626,3700 13510,3678 13393,3687 13277,3732 13161,3715 13045,3721 12928,3763 12812,3747 12696,3720 12580,3729 12463,3677 12347,3694 12231,3749 12115,3719 11999,3759 11882,3807 11766,3779 11650,3825 11534,3844 11417,3769 11301,3805 11185,3885 11069,3924 10952,3921 10836,3983 10720,3852 10604,3869 10488,3990 10371,4049 10255,4105 10139,4145 10023,4154 9906,4149 9790,4197 9674,4119 9558,4235 9442,4343 9325,4430 9209,4065 9093,3984 8977,3978 8860,3974 8744,3950 8628,4038 8512,4041 8395,4012 8279,4018 8164,4031 8048,3942 7932,3954 7815,3984 7699,3970 7583,3932 7467,3880 7350,3875 7234,3828 7118,3954 7002,3889 6885,3849 6769,3849 6653,3782 6537,3775 6421,3693 6304,3523 6188,3437 6072,3398 5956,3335 5839,3369 5723,3332 5607,3277 5491,3182 5375,3219 5258,3218 5142,3194 5026,3149 4910,3064 4793,3007 4677,2975 4561,2913 4445,2848 4328,2811 4212,2751 4096,2664 3980,2616 3864,2581 3747,2543 3631,2476 3515,2445 3399,2412 3282,2385 3166,2325 3050,2290 2934,2281 2817,2294 2701,2255 2585,2240 2469,2265 2353,2281 2236,2281 2120,2288 2004,2312 1888,2297 1771,2317 1655,2376 1539,2368 1423,2393 1307,2393 1307,1681 Z"/>
 <text class="TextShape"><tspan class="TextParagraph" font-family="Arial, sans-serif" font-size="388px" font-weight="400"><tspan class="TextPosition" x="1115" y="10885"><tspan fill="rgb(0,0,0)" stroke="none">2008</tspan></tspan></tspan></text>
 <text class="TextShape"><tspan class="TextParagraph" font-family="Arial, sans-serif" font-size="388px" font-weight="400"><tspan class="TextPosition" x="2510" y="10885"><tspan fill="rgb(0,0,0)" stroke="none">2009</tspan></tspan></tspan></text>
 <text class="TextShape"><tspan class="TextParagraph" font-family="Arial, sans-serif" font-size="388px" font-weight="400"><tspan class="TextPosition" x="3904" y="10885"><tspan fill="rgb(0,0,0)" stroke="none">2010</tspan></tspan></tspan></text>
 <text class="TextShape"><tspan class="TextParagraph" font-family="Arial, sans-serif" font-size="388px" font-weight="400"><tspan class="TextPosition" x="5299" y="10885"><tspan fill="rgb(0,0,0)" stroke="none">2011</tspan></tspan></tspan></text>
 <text class="TextShape"><tspan class="TextParagraph" font-family="Arial, sans-serif" font-size="388px" font-weight="400"><tspan class="TextPosition" x="6694" y="10885"><tspan fill="rgb(0,0,0)" stroke="none">2012</tspan></tspan></tspan></text>
 <text class="TextShape"><tspan class="TextParagraph" font-family="Arial, sans-serif" font-size="388px" font-weight="400"><tspan class="TextPosition" x="8089" y="10885"><tspan fill="rgb(0,0,0)" stroke="none">2013</tspan></tspan></tspan></text>
 <text class="TextShape"><tspan class="TextParagraph" font-family="Arial, sans-serif" font-size="388px" font-weight="400"><tspan class="TextPosition" x="9483" y="10885"><tspan fill="rgb(0,0,0)" stroke="none">2014</tspan></tspan></tspan></text>
 <text class="TextShape"><tspan class="TextParagraph" font-family="Arial, sans-serif" font-size="388px" font-weight="400"><tspan class="TextPosition" x="10878" y="10885"><tspan fill="rgb(0,0,0)" stroke="none">2015</tspan></tspan></tspan></text>
 <text class="TextShape"><tspan class="TextParagraph" font-family="Arial, sans-serif" font-size="388px" font-weight="400"><tspan class="TextPosition" x="12273" y="10885"><tspan fill="rgb(0,0,0)" stroke="none">2016</tspan></tspan></tspan></text>
 <text class="TextShape"><tspan class="TextParagraph" font-family="Arial, sans-serif" font-size="388px" font-weight="400"><tspan class="TextPosition" x="13668" y="10885"><tspan fill="rgb(0,0,0)" stroke="none">2017</tspan></tspan></tspan></text>
 <text class="TextShape"><tspan class="TextParagraph" font-family="Arial, sans-serif" font-size="388px" font-weight="400"><tspan class="TextPosition" x="501" y="10425"><tspan fill="rgb(0,0,0)" stroke="none">0%</tspan></tspan></tspan></text>
 <text class="TextShape"><tspan class="TextParagraph" font-family="Arial, sans-serif" font-size="388px" font-weight="400"><tspan class="TextPosition" x="290" y="9490"><tspan fill="rgb(0,0,0)" stroke="none">10%</tspan></tspan></tspan></text>
 <text class="TextShape"><tspan class="TextParagraph" font-family="Arial, sans-serif" font-size="388px" font-weight="400"><tspan class="TextPosition" x="290" y="8556"><tspan fill="rgb(0,0,0)" stroke="none">20%</tspan></tspan></tspan></text>
 <text class="TextShape"><tspan class="TextParagraph" font-family="Arial, sans-serif" font-size="388px" font-weight="400"><tspan class="TextPosition" x="290" y="7622"><tspan fill="rgb(0,0,0)" stroke="none">30%</tspan></tspan></tspan></text>
 <text class="TextShape"><tspan class="TextParagraph" font-family="Arial, sans-serif" font-size="388px" font-weight="400"><tspan class="TextPosition" x="290" y="6688"><tspan fill="rgb(0,0,0)" stroke="none">40%</tspan></tspan></tspan></text>
 <text class="TextShape"><tspan class="TextParagraph" font-family="Arial, sans-serif" font-size="388px" font-weight="400"><tspan class="TextPosition" x="290" y="5754"><tspan fill="rgb(0,0,0)" stroke="none">50%</tspan></tspan></tspan></text>
 <text class="TextShape"><tspan class="TextParagraph" font-family="Arial, sans-serif" font-size="388px" font-weight="400"><tspan class="TextPosition" x="290" y="4820"><tspan fill="rgb(0,0,0)" stroke="none">60%</tspan></tspan></tspan></text>
 <text class="TextShape"><tspan class="TextParagraph" font-family="Arial, sans-serif" font-size="388px" font-weight="400"><tspan class="TextPosition" x="290" y="3886"><tspan fill="rgb(0,0,0)" stroke="none">70%</tspan></tspan></tspan></text>
 <text class="TextShape"><tspan class="TextParagraph" font-family="Arial, sans-serif" font-size="388px" font-weight="400"><tspan class="TextPosition" x="290" y="2952"><tspan fill="rgb(0,0,0)" stroke="none">80%</tspan></tspan></tspan></text>
 <text class="TextShape"><tspan class="TextParagraph" font-family="Arial, sans-serif" font-size="388px" font-weight="400"><tspan class="TextPosition" x="290" y="2018"><tspan fill="rgb(0,0,0)" stroke="none">90%</tspan></tspan></tspan></text>
 <text class="TextShape"><tspan class="TextParagraph" font-family="Arial, sans-serif" font-size="388px" font-weight="400"><tspan class="TextPosition" x="78" y="1084"><tspan fill="rgb(0,0,0)" stroke="none">100%</tspan></tspan></tspan></text>
 <text class="TextShape"><tspan class="TextParagraph" font-family="Arial, sans-serif" font-size="388px" font-weight="400"><tspan class="TextPosition" x="15270" y="10425"><tspan fill="rgb(0,0,0)" stroke="none">0%</tspan></tspan></tspan></text>
 <text class="TextShape"><tspan class="TextParagraph" font-family="Arial, sans-serif" font-size="388px" font-weight="400"><tspan class="TextPosition" x="15270" y="9490"><tspan fill="rgb(0,0,0)" stroke="none">10%</tspan></tspan></tspan></text>
 <text class="TextShape"><tspan class="TextParagraph" font-family="Arial, sans-serif" font-size="388px" font-weight="400"><tspan class="TextPosition" x="15270" y="8556"><tspan fill="rgb(0,0,0)" stroke="none">20%</tspan></tspan></tspan></text>
 <text class="TextShape"><tspan class="TextParagraph" font-family="Arial, sans-serif" font-size="388px" font-weight="400"><tspan class="TextPosition" x="15270" y="7622"><tspan fill="rgb(0,0,0)" stroke="none">30%</tspan></tspan></tspan></text>
 <text class="TextShape"><tspan class="TextParagraph" font-family="Arial, sans-serif" font-size="388px" font-weight="400"><tspan class="TextPosition" x="15270" y="6688"><tspan fill="rgb(0,0,0)" stroke="none">40%</tspan></tspan></tspan></text>
 <text class="TextShape"><tspan class="TextParagraph" font-family="Arial, sans-serif" font-size="388px" font-weight="400"><tspan class="TextPosition" x="15270" y="5754"><tspan fill="rgb(0,0,0)" stroke="none">50%</tspan></tspan></tspan></text>
 <text class="TextShape"><tspan class="TextParagraph" font-family="Arial, sans-serif" font-size="388px" font-weight="400"><tspan class="TextPosition" x="15270" y="4820"><tspan fill="rgb(0,0,0)" stroke="none">60%</tspan></tspan></tspan></text>
 <text class="TextShape"><tspan class="TextParagraph" font-family="Arial, sans-serif" font-size="388px" font-weight="400"><tspan class="TextPosition" x="15270" y="3886"><tspan fill="rgb(0,0,0)" stroke="none">70%</tspan></tspan></tspan></text>
 <text class="TextShape"><tspan class="TextParagraph" font-family="Arial, sans-serif" font-size="388px" font-weight="400"><tspan class="TextPosition" x="15270" y="2952"><tspan fill="rgb(0,0,0)" stroke="none">80%</tspan></tspan></tspan></text>
 <text class="TextShape"><tspan class="TextParagraph" font-family="Arial, sans-serif" font-size="388px" font-weight="400"><tspan class="TextPosition" x="15270" y="2018"><tspan fill="rgb(0,0,0)" stroke="none">90%</tspan></tspan></tspan></text>
 <text class="TextShape"><tspan class="TextParagraph" font-family="Arial, sans-serif" font-size="388px" font-weight="400"><tspan class="TextPosition" x="15270" y="1084"><tspan fill="rgb(0,0,0)" stroke="none">100%</tspan></tspan></tspan></text>
 <text class="TextShape"><tspan class="TextParagraph" font-family="Liberation Sans, sans-serif" font-size="635px" font-weight="400"><tspan class="TextPosition" x="4204" y="747"><tspan fill="rgb(0,0,0)" stroke="none">Resoluciones ms frecuentes</tspan></tspan></tspan></text>
 <path fill="rgb(255,66,14)" stroke="none" d="M 1764,11650 L 1669,11650 1669,11460 1859,11460 1859,11650 1764,11650 Z"/>
 <path fill="rgb(255,211,32)" stroke="none" d="M 3879,11650 L 3784,11650 3784,11460 3974,11460 3974,11650 3879,11650 Z"/>
 <path fill="rgb(0,69,134)" stroke="none" d="M 5994,11650 L 5899,11650 5899,11460 6089,11460 6089,11650 5994,11650 Z"/>
 <path fill="rgb(131,202,255)" stroke="none" d="M 8293,11650 L 8198,11650 8198,11460 8388,11460 8388,11650 8293,11650 Z"/>
 <path fill="rgb(49,64,4)" stroke="none" d="M 10593,11650 L 10498,11650 10498,11460 10688,11460 10688,11650 10593,11650 Z"/>
 <path fill="rgb(126,0,33)" stroke="none" d="M 12893,11650 L 12798,11650 12798,11460 12988,11460 12988,11650 12893,11650 Z"/>
 <path fill="rgb(75,31,111)" stroke="none" d="M 1764,12069 L 1669,12069 1669,11879 1859,11879 1859,12069 1764,12069 Z"/>
 <path fill="rgb(87,157,28)" stroke="none" d="M 3879,12069 L 3784,12069 3784,11879 3974,11879 3974,12069 3879,12069 Z"/>
 <path fill="rgb(255,149,14)" stroke="none" d="M 5994,12069 L 5899,12069 5899,11879 6089,11879 6089,12069 5994,12069 Z"/>
 <path fill="rgb(174,207,0)" stroke="none" d="M 8293,12069 L 8198,12069 8198,11879 8388,11879 8388,12069 8293,12069 Z"/>
 <path fill="rgb(197,0,11)" stroke="none" d="M 10593,12069 L 10498,12069 10498,11879 10688,11879 10688,12069 10593,12069 Z"/>
 <path fill="rgb(0,132,209)" stroke="none" d="M 12893,12069 L 12798,12069 12798,11879 12988,11879 12988,12069 12893,12069 Z"/>
 <text class="TextShape"><tspan class="TextParagraph" font-family="Arial, sans-serif" font-size="318px" font-weight="400"><tspan class="TextPosition" x="1959" y="11661"><tspan fill="rgb(0,0,0)" stroke="none">360 x 640</tspan></tspan></tspan></text>
 <text class="TextShape"><tspan class="TextParagraph" font-family="Arial, sans-serif" font-size="318px" font-weight="400"><tspan class="TextPosition" x="4074" y="11661"><tspan fill="rgb(0,0,0)" stroke="none">375 x 667</tspan></tspan></tspan></text>
 <text class="TextShape"><tspan class="TextParagraph" font-family="Arial, sans-serif" font-size="318px" font-weight="400"><tspan class="TextPosition" x="6189" y="11661"><tspan fill="rgb(0,0,0)" stroke="none">1366 x 768</tspan></tspan></tspan></text>
 <text class="TextShape"><tspan class="TextParagraph" font-family="Arial, sans-serif" font-size="318px" font-weight="400"><tspan class="TextPosition" x="8488" y="11661"><tspan fill="rgb(0,0,0)" stroke="none">1920 x 1080</tspan></tspan></tspan></text>
 <text class="TextShape"><tspan class="TextParagraph" font-family="Arial, sans-serif" font-size="318px" font-weight="400"><tspan class="TextPosition" x="10788" y="11661"><tspan fill="rgb(0,0,0)" stroke="none">768 x 1024</tspan></tspan></tspan></text>
 <text class="TextShape"><tspan class="TextParagraph" font-family="Arial, sans-serif" font-size="318px" font-weight="400"><tspan class="TextPosition" x="13088" y="11661"><tspan fill="rgb(0,0,0)" stroke="none">320 x 568</tspan></tspan></tspan></text>
 <text class="TextShape"><tspan class="TextParagraph" font-family="Arial, sans-serif" font-size="318px" font-weight="400"><tspan class="TextPosition" x="1959" y="12080"><tspan fill="rgb(0,0,0)" stroke="none">1440 x 900</tspan></tspan></tspan></text>
 <text class="TextShape"><tspan class="TextParagraph" font-family="Arial, sans-serif" font-size="318px" font-weight="400"><tspan class="TextPosition" x="4074" y="12080"><tspan fill="rgb(0,0,0)" stroke="none">1280 x 800</tspan></tspan></tspan></text>
 <text class="TextShape"><tspan class="TextParagraph" font-family="Arial, sans-serif" font-size="318px" font-weight="400"><tspan class="TextPosition" x="6189" y="12080"><tspan fill="rgb(0,0,0)" stroke="none">1280 x 1024</tspan></tspan></tspan></text>
 <text class="TextShape"><tspan class="TextParagraph" font-family="Arial, sans-serif" font-size="318px" font-weight="400"><tspan class="TextPosition" x="8488" y="12080"><tspan fill="rgb(0,0,0)" stroke="none">1024 x 768</tspan></tspan></tspan></text>
 <text class="TextShape"><tspan class="TextParagraph" font-family="Arial, sans-serif" font-size="318px" font-weight="400"><tspan class="TextPosition" x="10788" y="12080"><tspan fill="rgb(0,0,0)" stroke="none">1680 x 1050</tspan></tspan></tspan></text>
 <text class="TextShape"><tspan class="TextParagraph" font-family="Arial, sans-serif" font-size="318px" font-weight="400"><tspan class="TextPosition" x="13088" y="12080"><tspan fill="rgb(0,0,0)" stroke="none">1024 x 600</tspan></tspan></tspan></text>
</svg>
