<?xml version="1.0" encoding="UTF-8"?>
<!DOCTYPE svg PUBLIC "-//W3C//DTD SVG 1.1//EN" "http://www.w3.org/Graphics/SVG/1.1/DTD/svg11.dtd">
<svg width="159mm" height="119mm" viewBox="0 0 15900 11900" version="1.1" xmlns="http://www.w3.org/2000/svg" stroke-width="28.222" stroke-linejoin="round" xml:space="preserve">
 <path fill="rgb(255,255,255)" stroke="none" d="M 7923,11897 L 0,11897 0,0 15846,0 15846,11897 7923,11897 Z"/>
 <path fill="none" stroke="rgb(0,0,0)" stroke-linejoin="round" d="M 7951,10587 L 1072,10587 1072,1152 14831,1152 14831,10587 7951,10587 Z"/>
 <path fill="none" stroke="rgb(0,0,0)" stroke-linejoin="round" d="M 14831,10586 L 1072,10586"/>
 <path fill="none" stroke="rgb(0,0,0)" stroke-linejoin="round" d="M 14831,9406 L 1072,9406"/>
 <path fill="none" stroke="rgb(0,0,0)" stroke-linejoin="round" d="M 14831,8227 L 1072,8227"/>
 <path fill="none" stroke="rgb(0,0,0)" stroke-linejoin="round" d="M 14831,7047 L 1072,7047"/>
 <path fill="none" stroke="rgb(0,0,0)" stroke-linejoin="round" d="M 14831,5869 L 1072,5869"/>
 <path fill="none" stroke="rgb(0,0,0)" stroke-linejoin="round" d="M 14831,4689 L 1072,4689"/>
 <path fill="none" stroke="rgb(0,0,0)" stroke-linejoin="round" d="M 14831,3509 L 1072,3509"/>
 <path fill="none" stroke="rgb(0,0,0)" stroke-linejoin="round" d="M 14831,2330 L 1072,2330"/>
 <path fill="none" stroke="rgb(0,0,0)" stroke-linejoin="round" d="M 14831,1151 L 1072,1151"/>
 <path fill="none" stroke="rgb(0,0,0)" stroke-width="30" stroke-linejoin="round" d="M 1072,10736 L 1072,10586"/>
 <path fill="none" stroke="rgb(0,0,0)" stroke-width="30" stroke-linejoin="round" d="M 1072,10736 L 1072,10586"/>
 <path fill="none" stroke="rgb(0,0,0)" stroke-width="30" stroke-linejoin="round" d="M 1188,10736 L 1188,10586"/>
 <path fill="none" stroke="rgb(0,0,0)" stroke-width="30" stroke-linejoin="round" d="M 1188,10736 L 1188,10586"/>
 <path fill="none" stroke="rgb(0,0,0)" stroke-width="30" stroke-linejoin="round" d="M 1305,10736 L 1305,10586"/>
 <path fill="none" stroke="rgb(0,0,0)" stroke-width="30" stroke-linejoin="round" d="M 1305,10736 L 1305,10586"/>
 <path fill="none" stroke="rgb(0,0,0)" stroke-width="30" stroke-linejoin="round" d="M 1421,10736 L 1421,10586"/>
 <path fill="none" stroke="rgb(0,0,0)" stroke-width="30" stroke-linejoin="round" d="M 1421,10736 L 1421,10586"/>
 <path fill="none" stroke="rgb(0,0,0)" stroke-width="30" stroke-linejoin="round" d="M 1538,10736 L 1538,10586"/>
 <path fill="none" stroke="rgb(0,0,0)" stroke-width="30" stroke-linejoin="round" d="M 1538,10736 L 1538,10586"/>
 <path fill="none" stroke="rgb(0,0,0)" stroke-width="30" stroke-linejoin="round" d="M 1654,10736 L 1654,10586"/>
 <path fill="none" stroke="rgb(0,0,0)" stroke-width="30" stroke-linejoin="round" d="M 1654,10736 L 1654,10586"/>
 <path fill="none" stroke="rgb(0,0,0)" stroke-width="30" stroke-linejoin="round" d="M 1770,10736 L 1770,10586"/>
 <path fill="none" stroke="rgb(0,0,0)" stroke-width="30" stroke-linejoin="round" d="M 1770,10736 L 1770,10586"/>
 <path fill="none" stroke="rgb(0,0,0)" stroke-width="30" stroke-linejoin="round" d="M 1887,10736 L 1887,10586"/>
 <path fill="none" stroke="rgb(0,0,0)" stroke-width="30" stroke-linejoin="round" d="M 1887,10736 L 1887,10586"/>
 <path fill="none" stroke="rgb(0,0,0)" stroke-width="30" stroke-linejoin="round" d="M 2004,10736 L 2004,10586"/>
 <path fill="none" stroke="rgb(0,0,0)" stroke-width="30" stroke-linejoin="round" d="M 2004,10736 L 2004,10586"/>
 <path fill="none" stroke="rgb(0,0,0)" stroke-width="30" stroke-linejoin="round" d="M 2120,10736 L 2120,10586"/>
 <path fill="none" stroke="rgb(0,0,0)" stroke-width="30" stroke-linejoin="round" d="M 2120,10736 L 2120,10586"/>
 <path fill="none" stroke="rgb(0,0,0)" stroke-width="30" stroke-linejoin="round" d="M 2237,10736 L 2237,10586"/>
 <path fill="none" stroke="rgb(0,0,0)" stroke-width="30" stroke-linejoin="round" d="M 2237,10736 L 2237,10586"/>
 <path fill="none" stroke="rgb(0,0,0)" stroke-width="30" stroke-linejoin="round" d="M 2354,10736 L 2354,10586"/>
 <path fill="none" stroke="rgb(0,0,0)" stroke-width="30" stroke-linejoin="round" d="M 2354,10736 L 2354,10586"/>
 <path fill="none" stroke="rgb(0,0,0)" stroke-width="30" stroke-linejoin="round" d="M 2470,10736 L 2470,10586"/>
 <path fill="none" stroke="rgb(0,0,0)" stroke-width="30" stroke-linejoin="round" d="M 2470,10736 L 2470,10586"/>
 <path fill="none" stroke="rgb(0,0,0)" stroke-width="30" stroke-linejoin="round" d="M 2587,10736 L 2587,10586"/>
 <path fill="none" stroke="rgb(0,0,0)" stroke-width="30" stroke-linejoin="round" d="M 2587,10736 L 2587,10586"/>
 <path fill="none" stroke="rgb(0,0,0)" stroke-width="30" stroke-linejoin="round" d="M 2704,10736 L 2704,10586"/>
 <path fill="none" stroke="rgb(0,0,0)" stroke-width="30" stroke-linejoin="round" d="M 2704,10736 L 2704,10586"/>
 <path fill="none" stroke="rgb(0,0,0)" stroke-width="30" stroke-linejoin="round" d="M 2820,10736 L 2820,10586"/>
 <path fill="none" stroke="rgb(0,0,0)" stroke-width="30" stroke-linejoin="round" d="M 2820,10736 L 2820,10586"/>
 <path fill="none" stroke="rgb(0,0,0)" stroke-width="30" stroke-linejoin="round" d="M 2937,10736 L 2937,10586"/>
 <path fill="none" stroke="rgb(0,0,0)" stroke-width="30" stroke-linejoin="round" d="M 2937,10736 L 2937,10586"/>
 <path fill="none" stroke="rgb(0,0,0)" stroke-width="30" stroke-linejoin="round" d="M 3053,10736 L 3053,10586"/>
 <path fill="none" stroke="rgb(0,0,0)" stroke-width="30" stroke-linejoin="round" d="M 3053,10736 L 3053,10586"/>
 <path fill="none" stroke="rgb(0,0,0)" stroke-width="30" stroke-linejoin="round" d="M 3170,10736 L 3170,10586"/>
 <path fill="none" stroke="rgb(0,0,0)" stroke-width="30" stroke-linejoin="round" d="M 3170,10736 L 3170,10586"/>
 <path fill="none" stroke="rgb(0,0,0)" stroke-width="30" stroke-linejoin="round" d="M 3287,10736 L 3287,10586"/>
 <path fill="none" stroke="rgb(0,0,0)" stroke-width="30" stroke-linejoin="round" d="M 3287,10736 L 3287,10586"/>
 <path fill="none" stroke="rgb(0,0,0)" stroke-width="30" stroke-linejoin="round" d="M 3403,10736 L 3403,10586"/>
 <path fill="none" stroke="rgb(0,0,0)" stroke-width="30" stroke-linejoin="round" d="M 3403,10736 L 3403,10586"/>
 <path fill="none" stroke="rgb(0,0,0)" stroke-width="30" stroke-linejoin="round" d="M 3520,10736 L 3520,10586"/>
 <path fill="none" stroke="rgb(0,0,0)" stroke-width="30" stroke-linejoin="round" d="M 3520,10736 L 3520,10586"/>
 <path fill="none" stroke="rgb(0,0,0)" stroke-width="30" stroke-linejoin="round" d="M 3637,10736 L 3637,10586"/>
 <path fill="none" stroke="rgb(0,0,0)" stroke-width="30" stroke-linejoin="round" d="M 3637,10736 L 3637,10586"/>
 <path fill="none" stroke="rgb(0,0,0)" stroke-width="30" stroke-linejoin="round" d="M 3753,10736 L 3753,10586"/>
 <path fill="none" stroke="rgb(0,0,0)" stroke-width="30" stroke-linejoin="round" d="M 3753,10736 L 3753,10586"/>
 <path fill="none" stroke="rgb(0,0,0)" stroke-width="30" stroke-linejoin="round" d="M 3870,10736 L 3870,10586"/>
 <path fill="none" stroke="rgb(0,0,0)" stroke-width="30" stroke-linejoin="round" d="M 3870,10736 L 3870,10586"/>
 <path fill="none" stroke="rgb(0,0,0)" stroke-width="30" stroke-linejoin="round" d="M 3987,10736 L 3987,10586"/>
 <path fill="none" stroke="rgb(0,0,0)" stroke-width="30" stroke-linejoin="round" d="M 3987,10736 L 3987,10586"/>
 <path fill="none" stroke="rgb(0,0,0)" stroke-width="30" stroke-linejoin="round" d="M 4103,10736 L 4103,10586"/>
 <path fill="none" stroke="rgb(0,0,0)" stroke-width="30" stroke-linejoin="round" d="M 4103,10736 L 4103,10586"/>
 <path fill="none" stroke="rgb(0,0,0)" stroke-width="30" stroke-linejoin="round" d="M 4220,10736 L 4220,10586"/>
 <path fill="none" stroke="rgb(0,0,0)" stroke-width="30" stroke-linejoin="round" d="M 4220,10736 L 4220,10586"/>
 <path fill="none" stroke="rgb(0,0,0)" stroke-width="30" stroke-linejoin="round" d="M 4337,10736 L 4337,10586"/>
 <path fill="none" stroke="rgb(0,0,0)" stroke-width="30" stroke-linejoin="round" d="M 4337,10736 L 4337,10586"/>
 <path fill="none" stroke="rgb(0,0,0)" stroke-width="30" stroke-linejoin="round" d="M 4453,10736 L 4453,10586"/>
 <path fill="none" stroke="rgb(0,0,0)" stroke-width="30" stroke-linejoin="round" d="M 4453,10736 L 4453,10586"/>
 <path fill="none" stroke="rgb(0,0,0)" stroke-width="30" stroke-linejoin="round" d="M 4570,10736 L 4570,10586"/>
 <path fill="none" stroke="rgb(0,0,0)" stroke-width="30" stroke-linejoin="round" d="M 4570,10736 L 4570,10586"/>
 <path fill="none" stroke="rgb(0,0,0)" stroke-width="30" stroke-linejoin="round" d="M 4686,10736 L 4686,10586"/>
 <path fill="none" stroke="rgb(0,0,0)" stroke-width="30" stroke-linejoin="round" d="M 4686,10736 L 4686,10586"/>
 <path fill="none" stroke="rgb(0,0,0)" stroke-width="30" stroke-linejoin="round" d="M 4802,10736 L 4802,10586"/>
 <path fill="none" stroke="rgb(0,0,0)" stroke-width="30" stroke-linejoin="round" d="M 4802,10736 L 4802,10586"/>
 <path fill="none" stroke="rgb(0,0,0)" stroke-width="30" stroke-linejoin="round" d="M 4919,10736 L 4919,10586"/>
 <path fill="none" stroke="rgb(0,0,0)" stroke-width="30" stroke-linejoin="round" d="M 4919,10736 L 4919,10586"/>
 <path fill="none" stroke="rgb(0,0,0)" stroke-width="30" stroke-linejoin="round" d="M 5035,10736 L 5035,10586"/>
 <path fill="none" stroke="rgb(0,0,0)" stroke-width="30" stroke-linejoin="round" d="M 5035,10736 L 5035,10586"/>
 <path fill="none" stroke="rgb(0,0,0)" stroke-width="30" stroke-linejoin="round" d="M 5152,10736 L 5152,10586"/>
 <path fill="none" stroke="rgb(0,0,0)" stroke-width="30" stroke-linejoin="round" d="M 5152,10736 L 5152,10586"/>
 <path fill="none" stroke="rgb(0,0,0)" stroke-width="30" stroke-linejoin="round" d="M 5269,10736 L 5269,10586"/>
 <path fill="none" stroke="rgb(0,0,0)" stroke-width="30" stroke-linejoin="round" d="M 5269,10736 L 5269,10586"/>
 <path fill="none" stroke="rgb(0,0,0)" stroke-width="30" stroke-linejoin="round" d="M 5385,10736 L 5385,10586"/>
 <path fill="none" stroke="rgb(0,0,0)" stroke-width="30" stroke-linejoin="round" d="M 5385,10736 L 5385,10586"/>
 <path fill="none" stroke="rgb(0,0,0)" stroke-width="30" stroke-linejoin="round" d="M 5502,10736 L 5502,10586"/>
 <path fill="none" stroke="rgb(0,0,0)" stroke-width="30" stroke-linejoin="round" d="M 5502,10736 L 5502,10586"/>
 <path fill="none" stroke="rgb(0,0,0)" stroke-width="30" stroke-linejoin="round" d="M 5619,10736 L 5619,10586"/>
 <path fill="none" stroke="rgb(0,0,0)" stroke-width="30" stroke-linejoin="round" d="M 5619,10736 L 5619,10586"/>
 <path fill="none" stroke="rgb(0,0,0)" stroke-width="30" stroke-linejoin="round" d="M 5735,10736 L 5735,10586"/>
 <path fill="none" stroke="rgb(0,0,0)" stroke-width="30" stroke-linejoin="round" d="M 5735,10736 L 5735,10586"/>
 <path fill="none" stroke="rgb(0,0,0)" stroke-width="30" stroke-linejoin="round" d="M 5852,10736 L 5852,10586"/>
 <path fill="none" stroke="rgb(0,0,0)" stroke-width="30" stroke-linejoin="round" d="M 5852,10736 L 5852,10586"/>
 <path fill="none" stroke="rgb(0,0,0)" stroke-width="30" stroke-linejoin="round" d="M 5969,10736 L 5969,10586"/>
 <path fill="none" stroke="rgb(0,0,0)" stroke-width="30" stroke-linejoin="round" d="M 5969,10736 L 5969,10586"/>
 <path fill="none" stroke="rgb(0,0,0)" stroke-width="30" stroke-linejoin="round" d="M 6085,10736 L 6085,10586"/>
 <path fill="none" stroke="rgb(0,0,0)" stroke-width="30" stroke-linejoin="round" d="M 6085,10736 L 6085,10586"/>
 <path fill="none" stroke="rgb(0,0,0)" stroke-width="30" stroke-linejoin="round" d="M 6202,10736 L 6202,10586"/>
 <path fill="none" stroke="rgb(0,0,0)" stroke-width="30" stroke-linejoin="round" d="M 6202,10736 L 6202,10586"/>
 <path fill="none" stroke="rgb(0,0,0)" stroke-width="30" stroke-linejoin="round" d="M 6318,10736 L 6318,10586"/>
 <path fill="none" stroke="rgb(0,0,0)" stroke-width="30" stroke-linejoin="round" d="M 6318,10736 L 6318,10586"/>
 <path fill="none" stroke="rgb(0,0,0)" stroke-width="30" stroke-linejoin="round" d="M 6435,10736 L 6435,10586"/>
 <path fill="none" stroke="rgb(0,0,0)" stroke-width="30" stroke-linejoin="round" d="M 6435,10736 L 6435,10586"/>
 <path fill="none" stroke="rgb(0,0,0)" stroke-width="30" stroke-linejoin="round" d="M 6552,10736 L 6552,10586"/>
 <path fill="none" stroke="rgb(0,0,0)" stroke-width="30" stroke-linejoin="round" d="M 6552,10736 L 6552,10586"/>
 <path fill="none" stroke="rgb(0,0,0)" stroke-width="30" stroke-linejoin="round" d="M 6668,10736 L 6668,10586"/>
 <path fill="none" stroke="rgb(0,0,0)" stroke-width="30" stroke-linejoin="round" d="M 6668,10736 L 6668,10586"/>
 <path fill="none" stroke="rgb(0,0,0)" stroke-width="30" stroke-linejoin="round" d="M 6785,10736 L 6785,10586"/>
 <path fill="none" stroke="rgb(0,0,0)" stroke-width="30" stroke-linejoin="round" d="M 6785,10736 L 6785,10586"/>
 <path fill="none" stroke="rgb(0,0,0)" stroke-width="30" stroke-linejoin="round" d="M 6902,10736 L 6902,10586"/>
 <path fill="none" stroke="rgb(0,0,0)" stroke-width="30" stroke-linejoin="round" d="M 6902,10736 L 6902,10586"/>
 <path fill="none" stroke="rgb(0,0,0)" stroke-width="30" stroke-linejoin="round" d="M 7018,10736 L 7018,10586"/>
 <path fill="none" stroke="rgb(0,0,0)" stroke-width="30" stroke-linejoin="round" d="M 7018,10736 L 7018,10586"/>
 <path fill="none" stroke="rgb(0,0,0)" stroke-width="30" stroke-linejoin="round" d="M 7135,10736 L 7135,10586"/>
 <path fill="none" stroke="rgb(0,0,0)" stroke-width="30" stroke-linejoin="round" d="M 7135,10736 L 7135,10586"/>
 <path fill="none" stroke="rgb(0,0,0)" stroke-width="30" stroke-linejoin="round" d="M 7252,10736 L 7252,10586"/>
 <path fill="none" stroke="rgb(0,0,0)" stroke-width="30" stroke-linejoin="round" d="M 7252,10736 L 7252,10586"/>
 <path fill="none" stroke="rgb(0,0,0)" stroke-width="30" stroke-linejoin="round" d="M 7368,10736 L 7368,10586"/>
 <path fill="none" stroke="rgb(0,0,0)" stroke-width="30" stroke-linejoin="round" d="M 7368,10736 L 7368,10586"/>
 <path fill="none" stroke="rgb(0,0,0)" stroke-width="30" stroke-linejoin="round" d="M 7485,10736 L 7485,10586"/>
 <path fill="none" stroke="rgb(0,0,0)" stroke-width="30" stroke-linejoin="round" d="M 7485,10736 L 7485,10586"/>
 <path fill="none" stroke="rgb(0,0,0)" stroke-width="30" stroke-linejoin="round" d="M 7602,10736 L 7602,10586"/>
 <path fill="none" stroke="rgb(0,0,0)" stroke-width="30" stroke-linejoin="round" d="M 7602,10736 L 7602,10586"/>
 <path fill="none" stroke="rgb(0,0,0)" stroke-width="30" stroke-linejoin="round" d="M 7718,10736 L 7718,10586"/>
 <path fill="none" stroke="rgb(0,0,0)" stroke-width="30" stroke-linejoin="round" d="M 7718,10736 L 7718,10586"/>
 <path fill="none" stroke="rgb(0,0,0)" stroke-width="30" stroke-linejoin="round" d="M 7835,10736 L 7835,10586"/>
 <path fill="none" stroke="rgb(0,0,0)" stroke-width="30" stroke-linejoin="round" d="M 7835,10736 L 7835,10586"/>
 <path fill="none" stroke="rgb(0,0,0)" stroke-width="30" stroke-linejoin="round" d="M 7951,10736 L 7951,10586"/>
 <path fill="none" stroke="rgb(0,0,0)" stroke-width="30" stroke-linejoin="round" d="M 7951,10736 L 7951,10586"/>
 <path fill="none" stroke="rgb(0,0,0)" stroke-width="30" stroke-linejoin="round" d="M 8067,10736 L 8067,10586"/>
 <path fill="none" stroke="rgb(0,0,0)" stroke-width="30" stroke-linejoin="round" d="M 8067,10736 L 8067,10586"/>
 <path fill="none" stroke="rgb(0,0,0)" stroke-width="30" stroke-linejoin="round" d="M 8184,10736 L 8184,10586"/>
 <path fill="none" stroke="rgb(0,0,0)" stroke-width="30" stroke-linejoin="round" d="M 8184,10736 L 8184,10586"/>
 <path fill="none" stroke="rgb(0,0,0)" stroke-width="30" stroke-linejoin="round" d="M 8300,10736 L 8300,10586"/>
 <path fill="none" stroke="rgb(0,0,0)" stroke-width="30" stroke-linejoin="round" d="M 8300,10736 L 8300,10586"/>
 <path fill="none" stroke="rgb(0,0,0)" stroke-width="30" stroke-linejoin="round" d="M 8417,10736 L 8417,10586"/>
 <path fill="none" stroke="rgb(0,0,0)" stroke-width="30" stroke-linejoin="round" d="M 8417,10736 L 8417,10586"/>
 <path fill="none" stroke="rgb(0,0,0)" stroke-width="30" stroke-linejoin="round" d="M 8534,10736 L 8534,10586"/>
 <path fill="none" stroke="rgb(0,0,0)" stroke-width="30" stroke-linejoin="round" d="M 8534,10736 L 8534,10586"/>
 <path fill="none" stroke="rgb(0,0,0)" stroke-width="30" stroke-linejoin="round" d="M 8650,10736 L 8650,10586"/>
 <path fill="none" stroke="rgb(0,0,0)" stroke-width="30" stroke-linejoin="round" d="M 8650,10736 L 8650,10586"/>
 <path fill="none" stroke="rgb(0,0,0)" stroke-width="30" stroke-linejoin="round" d="M 8767,10736 L 8767,10586"/>
 <path fill="none" stroke="rgb(0,0,0)" stroke-width="30" stroke-linejoin="round" d="M 8767,10736 L 8767,10586"/>
 <path fill="none" stroke="rgb(0,0,0)" stroke-width="30" stroke-linejoin="round" d="M 8884,10736 L 8884,10586"/>
 <path fill="none" stroke="rgb(0,0,0)" stroke-width="30" stroke-linejoin="round" d="M 8884,10736 L 8884,10586"/>
 <path fill="none" stroke="rgb(0,0,0)" stroke-width="30" stroke-linejoin="round" d="M 9000,10736 L 9000,10586"/>
 <path fill="none" stroke="rgb(0,0,0)" stroke-width="30" stroke-linejoin="round" d="M 9000,10736 L 9000,10586"/>
 <path fill="none" stroke="rgb(0,0,0)" stroke-width="30" stroke-linejoin="round" d="M 9117,10736 L 9117,10586"/>
 <path fill="none" stroke="rgb(0,0,0)" stroke-width="30" stroke-linejoin="round" d="M 9117,10736 L 9117,10586"/>
 <path fill="none" stroke="rgb(0,0,0)" stroke-width="30" stroke-linejoin="round" d="M 9234,10736 L 9234,10586"/>
 <path fill="none" stroke="rgb(0,0,0)" stroke-width="30" stroke-linejoin="round" d="M 9234,10736 L 9234,10586"/>
 <path fill="none" stroke="rgb(0,0,0)" stroke-width="30" stroke-linejoin="round" d="M 9350,10736 L 9350,10586"/>
 <path fill="none" stroke="rgb(0,0,0)" stroke-width="30" stroke-linejoin="round" d="M 9350,10736 L 9350,10586"/>
 <path fill="none" stroke="rgb(0,0,0)" stroke-width="30" stroke-linejoin="round" d="M 9467,10736 L 9467,10586"/>
 <path fill="none" stroke="rgb(0,0,0)" stroke-width="30" stroke-linejoin="round" d="M 9467,10736 L 9467,10586"/>
 <path fill="none" stroke="rgb(0,0,0)" stroke-width="30" stroke-linejoin="round" d="M 9584,10736 L 9584,10586"/>
 <path fill="none" stroke="rgb(0,0,0)" stroke-width="30" stroke-linejoin="round" d="M 9584,10736 L 9584,10586"/>
 <path fill="none" stroke="rgb(0,0,0)" stroke-width="30" stroke-linejoin="round" d="M 9700,10736 L 9700,10586"/>
 <path fill="none" stroke="rgb(0,0,0)" stroke-width="30" stroke-linejoin="round" d="M 9700,10736 L 9700,10586"/>
 <path fill="none" stroke="rgb(0,0,0)" stroke-width="30" stroke-linejoin="round" d="M 9817,10736 L 9817,10586"/>
 <path fill="none" stroke="rgb(0,0,0)" stroke-width="30" stroke-linejoin="round" d="M 9817,10736 L 9817,10586"/>
 <path fill="none" stroke="rgb(0,0,0)" stroke-width="30" stroke-linejoin="round" d="M 9933,10736 L 9933,10586"/>
 <path fill="none" stroke="rgb(0,0,0)" stroke-width="30" stroke-linejoin="round" d="M 9933,10736 L 9933,10586"/>
 <path fill="none" stroke="rgb(0,0,0)" stroke-width="30" stroke-linejoin="round" d="M 10050,10736 L 10050,10586"/>
 <path fill="none" stroke="rgb(0,0,0)" stroke-width="30" stroke-linejoin="round" d="M 10050,10736 L 10050,10586"/>
 <path fill="none" stroke="rgb(0,0,0)" stroke-width="30" stroke-linejoin="round" d="M 10167,10736 L 10167,10586"/>
 <path fill="none" stroke="rgb(0,0,0)" stroke-width="30" stroke-linejoin="round" d="M 10167,10736 L 10167,10586"/>
 <path fill="none" stroke="rgb(0,0,0)" stroke-width="30" stroke-linejoin="round" d="M 10283,10736 L 10283,10586"/>
 <path fill="none" stroke="rgb(0,0,0)" stroke-width="30" stroke-linejoin="round" d="M 10283,10736 L 10283,10586"/>
 <path fill="none" stroke="rgb(0,0,0)" stroke-width="30" stroke-linejoin="round" d="M 10400,10736 L 10400,10586"/>
 <path fill="none" stroke="rgb(0,0,0)" stroke-width="30" stroke-linejoin="round" d="M 10400,10736 L 10400,10586"/>
 <path fill="none" stroke="rgb(0,0,0)" stroke-width="30" stroke-linejoin="round" d="M 10517,10736 L 10517,10586"/>
 <path fill="none" stroke="rgb(0,0,0)" stroke-width="30" stroke-linejoin="round" d="M 10517,10736 L 10517,10586"/>
 <path fill="none" stroke="rgb(0,0,0)" stroke-width="30" stroke-linejoin="round" d="M 10633,10736 L 10633,10586"/>
 <path fill="none" stroke="rgb(0,0,0)" stroke-width="30" stroke-linejoin="round" d="M 10633,10736 L 10633,10586"/>
 <path fill="none" stroke="rgb(0,0,0)" stroke-width="30" stroke-linejoin="round" d="M 10750,10736 L 10750,10586"/>
 <path fill="none" stroke="rgb(0,0,0)" stroke-width="30" stroke-linejoin="round" d="M 10750,10736 L 10750,10586"/>
 <path fill="none" stroke="rgb(0,0,0)" stroke-width="30" stroke-linejoin="round" d="M 10867,10736 L 10867,10586"/>
 <path fill="none" stroke="rgb(0,0,0)" stroke-width="30" stroke-linejoin="round" d="M 10867,10736 L 10867,10586"/>
 <path fill="none" stroke="rgb(0,0,0)" stroke-width="30" stroke-linejoin="round" d="M 10983,10736 L 10983,10586"/>
 <path fill="none" stroke="rgb(0,0,0)" stroke-width="30" stroke-linejoin="round" d="M 10983,10736 L 10983,10586"/>
 <path fill="none" stroke="rgb(0,0,0)" stroke-width="30" stroke-linejoin="round" d="M 11099,10736 L 11099,10586"/>
 <path fill="none" stroke="rgb(0,0,0)" stroke-width="30" stroke-linejoin="round" d="M 11099,10736 L 11099,10586"/>
 <path fill="none" stroke="rgb(0,0,0)" stroke-width="30" stroke-linejoin="round" d="M 11216,10736 L 11216,10586"/>
 <path fill="none" stroke="rgb(0,0,0)" stroke-width="30" stroke-linejoin="round" d="M 11216,10736 L 11216,10586"/>
 <path fill="none" stroke="rgb(0,0,0)" stroke-width="30" stroke-linejoin="round" d="M 11332,10736 L 11332,10586"/>
 <path fill="none" stroke="rgb(0,0,0)" stroke-width="30" stroke-linejoin="round" d="M 11332,10736 L 11332,10586"/>
 <path fill="none" stroke="rgb(0,0,0)" stroke-width="30" stroke-linejoin="round" d="M 11449,10736 L 11449,10586"/>
 <path fill="none" stroke="rgb(0,0,0)" stroke-width="30" stroke-linejoin="round" d="M 11449,10736 L 11449,10586"/>
 <path fill="none" stroke="rgb(0,0,0)" stroke-width="30" stroke-linejoin="round" d="M 11565,10736 L 11565,10586"/>
 <path fill="none" stroke="rgb(0,0,0)" stroke-width="30" stroke-linejoin="round" d="M 11565,10736 L 11565,10586"/>
 <path fill="none" stroke="rgb(0,0,0)" stroke-width="30" stroke-linejoin="round" d="M 11682,10736 L 11682,10586"/>
 <path fill="none" stroke="rgb(0,0,0)" stroke-width="30" stroke-linejoin="round" d="M 11682,10736 L 11682,10586"/>
 <path fill="none" stroke="rgb(0,0,0)" stroke-width="30" stroke-linejoin="round" d="M 11799,10736 L 11799,10586"/>
 <path fill="none" stroke="rgb(0,0,0)" stroke-width="30" stroke-linejoin="round" d="M 11799,10736 L 11799,10586"/>
 <path fill="none" stroke="rgb(0,0,0)" stroke-width="30" stroke-linejoin="round" d="M 11915,10736 L 11915,10586"/>
 <path fill="none" stroke="rgb(0,0,0)" stroke-width="30" stroke-linejoin="round" d="M 11915,10736 L 11915,10586"/>
 <path fill="none" stroke="rgb(0,0,0)" stroke-width="30" stroke-linejoin="round" d="M 12032,10736 L 12032,10586"/>
 <path fill="none" stroke="rgb(0,0,0)" stroke-width="30" stroke-linejoin="round" d="M 12032,10736 L 12032,10586"/>
 <path fill="none" stroke="rgb(0,0,0)" stroke-width="30" stroke-linejoin="round" d="M 12149,10736 L 12149,10586"/>
 <path fill="none" stroke="rgb(0,0,0)" stroke-width="30" stroke-linejoin="round" d="M 12149,10736 L 12149,10586"/>
 <path fill="none" stroke="rgb(0,0,0)" stroke-width="30" stroke-linejoin="round" d="M 12265,10736 L 12265,10586"/>
 <path fill="none" stroke="rgb(0,0,0)" stroke-width="30" stroke-linejoin="round" d="M 12265,10736 L 12265,10586"/>
 <path fill="none" stroke="rgb(0,0,0)" stroke-width="30" stroke-linejoin="round" d="M 12382,10736 L 12382,10586"/>
 <path fill="none" stroke="rgb(0,0,0)" stroke-width="30" stroke-linejoin="round" d="M 12382,10736 L 12382,10586"/>
 <path fill="none" stroke="rgb(0,0,0)" stroke-width="30" stroke-linejoin="round" d="M 12499,10736 L 12499,10586"/>
 <path fill="none" stroke="rgb(0,0,0)" stroke-width="30" stroke-linejoin="round" d="M 12499,10736 L 12499,10586"/>
 <path fill="none" stroke="rgb(0,0,0)" stroke-width="30" stroke-linejoin="round" d="M 12615,10736 L 12615,10586"/>
 <path fill="none" stroke="rgb(0,0,0)" stroke-width="30" stroke-linejoin="round" d="M 12615,10736 L 12615,10586"/>
 <path fill="none" stroke="rgb(0,0,0)" stroke-width="30" stroke-linejoin="round" d="M 12732,10736 L 12732,10586"/>
 <path fill="none" stroke="rgb(0,0,0)" stroke-width="30" stroke-linejoin="round" d="M 12732,10736 L 12732,10586"/>
 <path fill="none" stroke="rgb(0,0,0)" stroke-width="30" stroke-linejoin="round" d="M 12849,10736 L 12849,10586"/>
 <path fill="none" stroke="rgb(0,0,0)" stroke-width="30" stroke-linejoin="round" d="M 12849,10736 L 12849,10586"/>
 <path fill="none" stroke="rgb(0,0,0)" stroke-width="30" stroke-linejoin="round" d="M 12965,10736 L 12965,10586"/>
 <path fill="none" stroke="rgb(0,0,0)" stroke-width="30" stroke-linejoin="round" d="M 12965,10736 L 12965,10586"/>
 <path fill="none" stroke="rgb(0,0,0)" stroke-width="30" stroke-linejoin="round" d="M 13082,10736 L 13082,10586"/>
 <path fill="none" stroke="rgb(0,0,0)" stroke-width="30" stroke-linejoin="round" d="M 13082,10736 L 13082,10586"/>
 <path fill="none" stroke="rgb(0,0,0)" stroke-width="30" stroke-linejoin="round" d="M 13198,10736 L 13198,10586"/>
 <path fill="none" stroke="rgb(0,0,0)" stroke-width="30" stroke-linejoin="round" d="M 13198,10736 L 13198,10586"/>
 <path fill="none" stroke="rgb(0,0,0)" stroke-width="30" stroke-linejoin="round" d="M 13315,10736 L 13315,10586"/>
 <path fill="none" stroke="rgb(0,0,0)" stroke-width="30" stroke-linejoin="round" d="M 13315,10736 L 13315,10586"/>
 <path fill="none" stroke="rgb(0,0,0)" stroke-width="30" stroke-linejoin="round" d="M 13432,10736 L 13432,10586"/>
 <path fill="none" stroke="rgb(0,0,0)" stroke-width="30" stroke-linejoin="round" d="M 13432,10736 L 13432,10586"/>
 <path fill="none" stroke="rgb(0,0,0)" stroke-width="30" stroke-linejoin="round" d="M 13548,10736 L 13548,10586"/>
 <path fill="none" stroke="rgb(0,0,0)" stroke-width="30" stroke-linejoin="round" d="M 13548,10736 L 13548,10586"/>
 <path fill="none" stroke="rgb(0,0,0)" stroke-width="30" stroke-linejoin="round" d="M 13665,10736 L 13665,10586"/>
 <path fill="none" stroke="rgb(0,0,0)" stroke-width="30" stroke-linejoin="round" d="M 13665,10736 L 13665,10586"/>
 <path fill="none" stroke="rgb(0,0,0)" stroke-width="30" stroke-linejoin="round" d="M 13782,10736 L 13782,10586"/>
 <path fill="none" stroke="rgb(0,0,0)" stroke-width="30" stroke-linejoin="round" d="M 13782,10736 L 13782,10586"/>
 <path fill="none" stroke="rgb(0,0,0)" stroke-width="30" stroke-linejoin="round" d="M 13898,10736 L 13898,10586"/>
 <path fill="none" stroke="rgb(0,0,0)" stroke-width="30" stroke-linejoin="round" d="M 13898,10736 L 13898,10586"/>
 <path fill="none" stroke="rgb(0,0,0)" stroke-width="30" stroke-linejoin="round" d="M 14015,10736 L 14015,10586"/>
 <path fill="none" stroke="rgb(0,0,0)" stroke-width="30" stroke-linejoin="round" d="M 14015,10736 L 14015,10586"/>
 <path fill="none" stroke="rgb(0,0,0)" stroke-width="30" stroke-linejoin="round" d="M 14132,10736 L 14132,10586"/>
 <path fill="none" stroke="rgb(0,0,0)" stroke-width="30" stroke-linejoin="round" d="M 14132,10736 L 14132,10586"/>
 <path fill="none" stroke="rgb(0,0,0)" stroke-width="30" stroke-linejoin="round" d="M 14248,10736 L 14248,10586"/>
 <path fill="none" stroke="rgb(0,0,0)" stroke-width="30" stroke-linejoin="round" d="M 14248,10736 L 14248,10586"/>
 <path fill="none" stroke="rgb(0,0,0)" stroke-width="30" stroke-linejoin="round" d="M 14364,10736 L 14364,10586"/>
 <path fill="none" stroke="rgb(0,0,0)" stroke-width="30" stroke-linejoin="round" d="M 14364,10736 L 14364,10586"/>
 <path fill="none" stroke="rgb(0,0,0)" stroke-width="30" stroke-linejoin="round" d="M 14481,10736 L 14481,10586"/>
 <path fill="none" stroke="rgb(0,0,0)" stroke-width="30" stroke-linejoin="round" d="M 14481,10736 L 14481,10586"/>
 <path fill="none" stroke="rgb(0,0,0)" stroke-width="30" stroke-linejoin="round" d="M 14597,10736 L 14597,10586"/>
 <path fill="none" stroke="rgb(0,0,0)" stroke-width="30" stroke-linejoin="round" d="M 14597,10736 L 14597,10586"/>
 <path fill="none" stroke="rgb(0,0,0)" stroke-width="30" stroke-linejoin="round" d="M 14714,10736 L 14714,10586"/>
 <path fill="none" stroke="rgb(0,0,0)" stroke-width="30" stroke-linejoin="round" d="M 14714,10736 L 14714,10586"/>
 <path fill="none" stroke="rgb(0,0,0)" stroke-width="30" stroke-linejoin="round" d="M 14831,10736 L 14831,10586"/>
 <path fill="none" stroke="rgb(0,0,0)" stroke-width="30" stroke-linejoin="round" d="M 14831,10736 L 14831,10586"/>
 <path fill="none" stroke="rgb(0,0,0)" stroke-width="30" stroke-linejoin="round" d="M 1072,10586 L 14831,10586"/>
 <path fill="none" stroke="rgb(0,0,0)" stroke-linejoin="round" d="M 922,10586 L 1222,10586"/>
 <path fill="none" stroke="rgb(0,0,0)" stroke-linejoin="round" d="M 922,10586 L 1222,10586"/>
 <path fill="none" stroke="rgb(0,0,0)" stroke-linejoin="round" d="M 922,9406 L 1222,9406"/>
 <path fill="none" stroke="rgb(0,0,0)" stroke-linejoin="round" d="M 922,9406 L 1222,9406"/>
 <path fill="none" stroke="rgb(0,0,0)" stroke-linejoin="round" d="M 922,8227 L 1222,8227"/>
 <path fill="none" stroke="rgb(0,0,0)" stroke-linejoin="round" d="M 922,8227 L 1222,8227"/>
 <path fill="none" stroke="rgb(0,0,0)" stroke-linejoin="round" d="M 922,7047 L 1222,7047"/>
 <path fill="none" stroke="rgb(0,0,0)" stroke-linejoin="round" d="M 922,7047 L 1222,7047"/>
 <path fill="none" stroke="rgb(0,0,0)" stroke-linejoin="round" d="M 922,5869 L 1222,5869"/>
 <path fill="none" stroke="rgb(0,0,0)" stroke-linejoin="round" d="M 922,5869 L 1222,5869"/>
 <path fill="none" stroke="rgb(0,0,0)" stroke-linejoin="round" d="M 922,4689 L 1222,4689"/>
 <path fill="none" stroke="rgb(0,0,0)" stroke-linejoin="round" d="M 922,4689 L 1222,4689"/>
 <path fill="none" stroke="rgb(0,0,0)" stroke-linejoin="round" d="M 922,3509 L 1222,3509"/>
 <path fill="none" stroke="rgb(0,0,0)" stroke-linejoin="round" d="M 922,3509 L 1222,3509"/>
 <path fill="none" stroke="rgb(0,0,0)" stroke-linejoin="round" d="M 922,2330 L 1222,2330"/>
 <path fill="none" stroke="rgb(0,0,0)" stroke-linejoin="round" d="M 922,2330 L 1222,2330"/>
 <path fill="none" stroke="rgb(0,0,0)" stroke-linejoin="round" d="M 922,1151 L 1222,1151"/>
 <path fill="none" stroke="rgb(0,0,0)" stroke-linejoin="round" d="M 922,1151 L 1222,1151"/>
 <path fill="none" stroke="rgb(0,0,0)" stroke-linejoin="round" d="M 1072,10586 L 1072,1151"/>
 <path fill="none" stroke="rgb(0,0,0)" stroke-linejoin="round" d="M 14981,10586 L 14831,10586"/>
 <path fill="none" stroke="rgb(0,0,0)" stroke-linejoin="round" d="M 14981,10586 L 14831,10586"/>
 <path fill="none" stroke="rgb(0,0,0)" stroke-linejoin="round" d="M 14981,9406 L 14831,9406"/>
 <path fill="none" stroke="rgb(0,0,0)" stroke-linejoin="round" d="M 14981,9406 L 14831,9406"/>
 <path fill="none" stroke="rgb(0,0,0)" stroke-linejoin="round" d="M 14981,8227 L 14831,8227"/>
 <path fill="none" stroke="rgb(0,0,0)" stroke-linejoin="round" d="M 14981,8227 L 14831,8227"/>
 <path fill="none" stroke="rgb(0,0,0)" stroke-linejoin="round" d="M 14981,7047 L 14831,7047"/>
 <path fill="none" stroke="rgb(0,0,0)" stroke-linejoin="round" d="M 14981,7047 L 14831,7047"/>
 <path fill="none" stroke="rgb(0,0,0)" stroke-linejoin="round" d="M 14981,5869 L 14831,5869"/>
 <path fill="none" stroke="rgb(0,0,0)" stroke-linejoin="round" d="M 14981,5869 L 14831,5869"/>
 <path fill="none" stroke="rgb(0,0,0)" stroke-linejoin="round" d="M 14981,4689 L 14831,4689"/>
 <path fill="none" stroke="rgb(0,0,0)" stroke-linejoin="round" d="M 14981,4689 L 14831,4689"/>
 <path fill="none" stroke="rgb(0,0,0)" stroke-linejoin="round" d="M 14981,3509 L 14831,3509"/>
 <path fill="none" stroke="rgb(0,0,0)" stroke-linejoin="round" d="M 14981,3509 L 14831,3509"/>
 <path fill="none" stroke="rgb(0,0,0)" stroke-linejoin="round" d="M 14981,2330 L 14831,2330"/>
 <path fill="none" stroke="rgb(0,0,0)" stroke-linejoin="round" d="M 14981,2330 L 14831,2330"/>
 <path fill="none" stroke="rgb(0,0,0)" stroke-linejoin="round" d="M 14981,1151 L 14831,1151"/>
 <path fill="none" stroke="rgb(0,0,0)" stroke-linejoin="round" d="M 14981,1151 L 14831,1151"/>
 <path fill="none" stroke="rgb(0,0,0)" stroke-linejoin="round" d="M 14831,10586 L 14831,1151"/>
 <path fill="none" stroke="rgb(255,211,32)" stroke-width="80" stroke-linejoin="round" d="M 2120,10586 L 2237,10456 2354,10468 2470,10453 2587,10422 2704,10405 2820,10404 2937,10397 3053,10374 3170,10331 3287,10305 3403,10284 3520,10253 3637,10214 3753,10166 3870,10124 3987,10045 4103,9978 4220,9926 4337,9866 4453,9795 4570,9766 4686,9740 4802,9748 4919,9710 5035,9650 5152,9602 5269,9505 5385,9419 5502,9336 5619,9306 5735,9234 5852,9201 5969,9130 6085,9066 6202,9045 6318,8780 6435,8703 6552,8524 6668,8495 6785,8398 6902,8423 7018,8434 7135,8479 7252,8433 7368,8328 7485,8376 7602,8434 7718,8364 7835,8406 7951,8375 8067,8522 8184,8502 8300,8565 8417,8645 8534,8666 8650,8652 8767,8720 8884,8568 9000,8495 9117,8620 9234,8627 9350,8657 9467,8592 9584,8479 9700,8439 9817,8340 9933,8274 10050,8369 10167,8176 10283,7998 10400,7895 10517,8005 10633,7955 10750,7864 10867,7837 10983,7701 11099,7477 11216,7420 11332,7381 11449,7080 11565,7150 11682,7046 11799,6967 11915,6796 12032,6663 12149,6550 12265,6456 12382,6361 12499,6096 12615,5959 12732,5607 12849,5357 12965,4639 13082,4713 13198,4516 13315,4214 13432,4095 13548,4132 13665,4043 13782,4064 13898,3976 14015,3822 14132,3951 14248,3877 14364,3743 14481,3742 14597,3716 14714,3727 14831,3754"/>
 <path fill="none" stroke="rgb(0,69,134)" stroke-width="80" stroke-linejoin="round" d="M 1072,1208 L 1188,1287 1305,1356 1421,1408 1538,1455 1654,1429 1770,1628 1887,1695 2004,1679 2120,1723 2237,1836 2354,1899 2470,2140 2587,2271 2704,2365 2820,2422 2937,2512 3053,2593 3170,2555 3287,2533 3403,2613 3520,2699 3637,2847 3753,2970 3870,3092 3987,3203 4103,3264 4220,3340 4337,3448 4453,3530 4570,3561 4686,3486 4802,3438 4919,3485 5035,3574 5152,3623 5269,3711 5385,3870 5502,3998 5619,3906 5735,4008 5852,4104 5969,4202 6085,4270 6202,4385 6318,4519 6435,4587 6552,4760 6668,4834 6785,4976 6902,4927 7018,4853 7135,4748 7252,4717 7368,4756 7485,4790 7602,4857 7718,4888 7835,4875 7951,4893 8067,4830 8184,4856 8300,4884 8417,4908 8534,4906 8650,4757 8767,4762 8884,4753 9000,4771 9117,4748 9234,4577 9350,4607 9467,4652 9584,4715 9700,4805 9817,4899 9933,4827 10050,4901 10167,4962 10283,4900 10400,4984 10517,4877 10633,4808 10750,4856 10867,4867 10983,4799 11099,5136 11216,5078 11332,5166 11449,5479 11565,5320 11682,5480 11799,5585 11915,5626 12032,5882 12149,5991 12265,5949 12382,6183 12499,6455 12615,6643 12732,6916 12849,7149 12965,7411 13082,7389 13198,7572 13315,7805 13432,8108 13548,8195 13665,8342 13782,8462 13898,8545 14015,8622 14132,8755 14248,8749 14364,8623 14481,8800 14597,8747 14714,8878 14831,9072"/>
 <path fill="none" stroke="rgb(87,157,28)" stroke-width="80" stroke-linejoin="round" d="M 1072,10313 L 1188,10295 1305,10276 1421,10275 1538,10268 1654,10284 1770,10248 1887,10261 2004,10275 2120,10268 2237,10255 2354,10249 2470,10225 2587,10187 2704,10161 2820,10182 2937,10159 3053,10174 3170,10154 3287,10142 3403,10114 3520,10113 3637,10091 3753,10076 3870,10082 3987,10071 4103,10065 4220,10069 4337,10045 4453,10037 4570,10038 4686,10023 4802,10003 4919,9991 5035,9986 5152,9978 5269,9951 5385,9913 5502,9864 5619,9859 5735,9829 5852,9767 5969,9753 6085,9737 6202,9669 6318,9694 6435,9646 6552,9585 6668,9610 6785,9570 6902,9498 7018,9497 7135,9537 7252,9519 7368,9514 7485,9449 7602,9441 7718,9326 7835,9353 7951,9332 8067,9292 8184,9276 8300,9198 8417,9197 8534,9194 8650,9277 8767,9248 8884,9252 9000,9190 9117,9164 9234,9288 9350,9196 9467,9139 9584,9148 9700,9046 9817,9018 9933,9069 10050,9009 10167,9026 10283,9166 10400,9176 10517,9151 10633,9287 10750,9226 10867,9097 10983,9274 11099,9124 11216,9222 11332,9213 11449,9125 11565,9272 11682,9172 11799,9102 11915,9180 12032,9093 12149,9009 12265,9309 12382,9211 12499,9209 12615,9210 12732,9144 12849,9236 12965,9432 13082,9373 13198,9355 13315,9378 13432,9370 13548,9458 13665,9451 13782,9290 13898,9205 14015,9259 14132,8960 14248,9062 14364,9375 14481,9021 14597,9113 14714,8980 14831,8862"/>
 <path fill="none" stroke="rgb(255,66,14)" stroke-width="80" stroke-linejoin="round" d="M 1072,8754 L 1188,8661 1305,8625 1421,8580 1538,8545 1654,8559 1770,8421 1887,8348 2004,8347 2120,8314 2237,8330 2354,8270 2470,8078 2587,8024 2704,7975 2820,7919 2937,7834 3053,7771 3170,7899 3287,7942 3403,7932 3520,7868 3637,7777 3753,7739 3870,7665 3987,7674 4103,7696 4220,7722 4337,7684 4453,7677 4570,7711 4686,7785 4802,7892 4919,7888 5035,7889 5152,7908 5269,7907 5385,7903 5502,7910 5619,8028 5735,8022 5852,8042 5969,8041 6085,8035 6202,8060 6318,8110 6435,8111 6552,8094 6668,8165 6785,8229 6902,8355 7018,8313 7135,8349 7252,8395 7368,8446 7485,8426 7602,8454 7718,8458 7835,8449 7951,8490 8067,8449 8184,8522 8300,8531 8417,8548 8534,8542 8650,8482 8767,8468 8884,8649 9000,8745 9117,8731 9234,8727 9350,8740 9467,8783 9584,8800 9700,8882 9817,8949 9933,8976 10050,9014 10167,9066 10283,9206 10400,9261 10517,9228 10633,9342 10750,9405 10867,9412 10983,9547 11099,9567 11216,9577 11332,9565 11449,9629 11565,9580 11682,9557 11799,9600 11915,9609 12032,9685 12149,9703 12265,9629 12382,9662 12499,9755 12615,9733 12732,9867 12849,9968 12965,10027 13082,10056 13198,10043 13315,10056 13432,9978 13548,9782 13665,9748 13782,9726 13898,9739 14015,9777 14132,9835 14248,9811 14364,9766 14481,9767 14597,9692 14714,9756 14831,9744"/>
 <path fill="none" stroke="rgb(126,0,33)" stroke-width="80" stroke-linejoin="round" d="M 1072,10345 L 1188,10380 1305,10354 1421,10346 1538,10346 1654,10348 1770,10331 1887,10315 2004,10317 2120,10312 2237,10325 2354,10312 2470,10304 2587,10301 2704,10297 2820,10302 2937,10311 3053,10317 3170,10315 3287,10327 3403,10328 3520,10320 3637,10302 3753,10299 3870,10267 3987,10246 4103,10243 4220,10240 4337,10221 4453,10228 4570,10221 4686,10247 4802,10215 4919,10210 5035,10196 5152,10217 5269,10223 5385,10213 5502,10222 5619,10214 5735,10221 5852,10217 5969,10228 6085,10253 6202,10272 6318,10252 6435,10266 6552,10326 6668,10263 6785,10215 6902,10209 7018,10274 7135,10300 7252,10311 7368,10306 7485,10313 7602,10335 7718,10331 7835,10318 7951,10319 8067,10327 8184,10272 8300,10269 8417,10204 8534,10293 8650,10284 8767,10270 8884,10285 9000,10307 9117,10303 9234,10342 9350,10365 9467,10389 9584,10404 9700,10397 9817,10399 9933,10426 10050,10340 10167,10355 10283,10357 10400,10335 10517,10343 10633,10389 10750,10378 10867,10363 10983,10346 11099,10352 11216,10344 11332,10337 11449,10355 11565,10315 11682,10331 11799,10358 11915,10379 12032,10365 12149,10369 12265,10367 12382,10328 12499,10275 12615,10260 12732,10293 12849,10286 12965,10355 13082,10318 13198,10359 13315,10352 13432,10340 13548,10374 13665,10375 13782,10365 13898,10408 14015,10406 14132,10393 14248,10418 14364,10373 14481,10453 14597,10464 14714,10467 14831,10484"/>
 <path fill="none" stroke="rgb(131,202,255)" stroke-width="80" stroke-linejoin="round" d="M 1072,10514 L 1188,10510 1305,10522 1421,10524 1538,10519 1654,10514 1770,10505 1887,10514 2004,10516 2120,10517 2237,10517 2354,10521 2470,10519 2587,10515 2704,10516 2820,10490 2937,10508 3053,10490 3170,10465 3287,10470 3403,10449 3520,10466 3637,10488 3753,10469 3870,10489 3987,10479 4103,10472 4220,10423 4337,10455 4453,10452 4570,10422 4686,10438 4802,10424 4919,10435 5035,10423 5152,10391 5269,10422 5385,10400 5502,10389 5619,10406 5735,10404 5852,10387 5969,10365 6085,10357 6202,10288 6318,10365 6435,10406 6552,10430 6668,10353 6785,10332 6902,10308 7018,10348 7135,10305 7252,10344 7368,10369 7485,10366 7602,10197 7718,10353 7835,10319 7951,10311 8067,10298 8184,10291 8300,10272 8417,10217 8534,10118 8650,10267 8767,10251 8884,10213 9000,10210 9117,10152 9234,10158 9350,10155 9467,10165 9584,10173 9700,10151 9817,10114 9933,10147 10050,10086 10167,10135 10283,10092 10400,10069 10517,10115 10633,9936 10750,9989 10867,10144 10983,10053 11099,10063 11216,10079 11332,10057 11449,10051 11565,10083 11682,10133 11799,10107 11915,10129 12032,10031 12149,10095 12265,10010 12382,9974 12499,9929 12615,9914 12732,9892 12849,9723 12965,9856 13082,9869 13198,9876 13315,9913 13432,9827 13548,9778 13665,9760 13782,9811 13898,9846 14015,9832 14132,9824 14248,9802 14364,9838 14481,9936 14597,9987 14714,9912 14831,9802"/>
 <text class="TextShape"><tspan class="TextParagraph" font-family="Liberation Sans, sans-serif" font-size="388px" font-weight="700"><tspan class="TextPosition" x="881" y="11180"><tspan fill="rgb(0,0,0)" stroke="none">2008</tspan></tspan></tspan></text>
 <text class="TextShape"><tspan class="TextParagraph" font-family="Liberation Sans, sans-serif" font-size="388px" font-weight="700"><tspan class="TextPosition" x="2281" y="11180"><tspan fill="rgb(0,0,0)" stroke="none">2009</tspan></tspan></tspan></text>
 <text class="TextShape"><tspan class="TextParagraph" font-family="Liberation Sans, sans-serif" font-size="388px" font-weight="700"><tspan class="TextPosition" x="3679" y="11180"><tspan fill="rgb(0,0,0)" stroke="none">2010</tspan></tspan></tspan></text>
 <text class="TextShape"><tspan class="TextParagraph" font-family="Liberation Sans, sans-serif" font-size="388px" font-weight="700"><tspan class="TextPosition" x="5079" y="11180"><tspan fill="rgb(0,0,0)" stroke="none">2011</tspan></tspan></tspan></text>
 <text class="TextShape"><tspan class="TextParagraph" font-family="Liberation Sans, sans-serif" font-size="388px" font-weight="700"><tspan class="TextPosition" x="6478" y="11180"><tspan fill="rgb(0,0,0)" stroke="none">2012</tspan></tspan></tspan></text>
 <text class="TextShape"><tspan class="TextParagraph" font-family="Liberation Sans, sans-serif" font-size="388px" font-weight="700"><tspan class="TextPosition" x="7877" y="11180"><tspan fill="rgb(0,0,0)" stroke="none">2013</tspan></tspan></tspan></text>
 <text class="TextShape"><tspan class="TextParagraph" font-family="Liberation Sans, sans-serif" font-size="388px" font-weight="700"><tspan class="TextPosition" x="9277" y="11180"><tspan fill="rgb(0,0,0)" stroke="none">2014</tspan></tspan></tspan></text>
 <text class="TextShape"><tspan class="TextParagraph" font-family="Liberation Sans, sans-serif" font-size="388px" font-weight="700"><tspan class="TextPosition" x="10676" y="11180"><tspan fill="rgb(0,0,0)" stroke="none">2015</tspan></tspan></tspan></text>
 <text class="TextShape"><tspan class="TextParagraph" font-family="Liberation Sans, sans-serif" font-size="388px" font-weight="700"><tspan class="TextPosition" x="12076" y="11180"><tspan fill="rgb(0,0,0)" stroke="none">2016</tspan></tspan></tspan></text>
 <text class="TextShape"><tspan class="TextParagraph" font-family="Liberation Sans, sans-serif" font-size="388px" font-weight="700"><tspan class="TextPosition" x="13474" y="11180"><tspan fill="rgb(0,0,0)" stroke="none">2017</tspan></tspan></tspan></text>
 <text class="TextShape"><tspan class="TextParagraph" font-family="Liberation Sans, sans-serif" font-size="388px" font-weight="700"><tspan class="TextPosition" x="266" y="10720"><tspan fill="rgb(0,0,0)" stroke="none">0%</tspan></tspan></tspan></text>
 <text class="TextShape"><tspan class="TextParagraph" font-family="Liberation Sans, sans-serif" font-size="388px" font-weight="700"><tspan class="TextPosition" x="55" y="9540"><tspan fill="rgb(0,0,0)" stroke="none">10%</tspan></tspan></tspan></text>
 <text class="TextShape"><tspan class="TextParagraph" font-family="Liberation Sans, sans-serif" font-size="388px" font-weight="700"><tspan class="TextPosition" x="55" y="8361"><tspan fill="rgb(0,0,0)" stroke="none">20%</tspan></tspan></tspan></text>
 <text class="TextShape"><tspan class="TextParagraph" font-family="Liberation Sans, sans-serif" font-size="388px" font-weight="700"><tspan class="TextPosition" x="55" y="7181"><tspan fill="rgb(0,0,0)" stroke="none">30%</tspan></tspan></tspan></text>
 <text class="TextShape"><tspan class="TextParagraph" font-family="Liberation Sans, sans-serif" font-size="388px" font-weight="700"><tspan class="TextPosition" x="55" y="6002"><tspan fill="rgb(0,0,0)" stroke="none">40%</tspan></tspan></tspan></text>
 <text class="TextShape"><tspan class="TextParagraph" font-family="Liberation Sans, sans-serif" font-size="388px" font-weight="700"><tspan class="TextPosition" x="55" y="4822"><tspan fill="rgb(0,0,0)" stroke="none">50%</tspan></tspan></tspan></text>
 <text class="TextShape"><tspan class="TextParagraph" font-family="Liberation Sans, sans-serif" font-size="388px" font-weight="700"><tspan class="TextPosition" x="55" y="3642"><tspan fill="rgb(0,0,0)" stroke="none">60%</tspan></tspan></tspan></text>
 <text class="TextShape"><tspan class="TextParagraph" font-family="Liberation Sans, sans-serif" font-size="388px" font-weight="700"><tspan class="TextPosition" x="55" y="2463"><tspan fill="rgb(0,0,0)" stroke="none">70%</tspan></tspan></tspan></text>
 <text class="TextShape"><tspan class="TextParagraph" font-family="Liberation Sans, sans-serif" font-size="388px" font-weight="700"><tspan class="TextPosition" x="55" y="1284"><tspan fill="rgb(0,0,0)" stroke="none">80%</tspan></tspan></tspan></text>
 <text class="TextShape"><tspan class="TextParagraph" font-family="Liberation Sans, sans-serif" font-size="388px" font-weight="700"><tspan class="TextPosition" x="15081" y="10720"><tspan fill="rgb(0,0,0)" stroke="none">0%</tspan></tspan></tspan></text>
 <text class="TextShape"><tspan class="TextParagraph" font-family="Liberation Sans, sans-serif" font-size="388px" font-weight="700"><tspan class="TextPosition" x="15081" y="9540"><tspan fill="rgb(0,0,0)" stroke="none">10%</tspan></tspan></tspan></text>
 <text class="TextShape"><tspan class="TextParagraph" font-family="Liberation Sans, sans-serif" font-size="388px" font-weight="700"><tspan class="TextPosition" x="15081" y="8361"><tspan fill="rgb(0,0,0)" stroke="none">20%</tspan></tspan></tspan></text>
 <text class="TextShape"><tspan class="TextParagraph" font-family="Liberation Sans, sans-serif" font-size="388px" font-weight="700"><tspan class="TextPosition" x="15081" y="7181"><tspan fill="rgb(0,0,0)" stroke="none">30%</tspan></tspan></tspan></text>
 <text class="TextShape"><tspan class="TextParagraph" font-family="Liberation Sans, sans-serif" font-size="388px" font-weight="700"><tspan class="TextPosition" x="15081" y="6002"><tspan fill="rgb(0,0,0)" stroke="none">40%</tspan></tspan></tspan></text>
 <text class="TextShape"><tspan class="TextParagraph" font-family="Liberation Sans, sans-serif" font-size="388px" font-weight="700"><tspan class="TextPosition" x="15081" y="4822"><tspan fill="rgb(0,0,0)" stroke="none">50%</tspan></tspan></tspan></text>
 <text class="TextShape"><tspan class="TextParagraph" font-family="Liberation Sans, sans-serif" font-size="388px" font-weight="700"><tspan class="TextPosition" x="15081" y="3642"><tspan fill="rgb(0,0,0)" stroke="none">60%</tspan></tspan></tspan></text>
 <text class="TextShape"><tspan class="TextParagraph" font-family="Liberation Sans, sans-serif" font-size="388px" font-weight="700"><tspan class="TextPosition" x="15081" y="2463"><tspan fill="rgb(0,0,0)" stroke="none">70%</tspan></tspan></tspan></text>
 <text class="TextShape"><tspan class="TextParagraph" font-family="Liberation Sans, sans-serif" font-size="388px" font-weight="700"><tspan class="TextPosition" x="15081" y="1284"><tspan fill="rgb(0,0,0)" stroke="none">80%</tspan></tspan></tspan></text>
 <text class="TextShape"><tspan class="TextParagraph" font-family="Arial, sans-serif" font-size="635px" font-weight="400"><tspan class="TextPosition" x="3963" y="775"><tspan fill="rgb(0,0,0)" stroke="none">Utilización de navegadores</tspan></tspan></tspan></text>
 <path fill="none" stroke="rgb(255,211,32)" stroke-width="80" stroke-linejoin="round" d="M 1783,11583 L 2583,11583"/>
 <path fill="none" stroke="rgb(0,69,134)" stroke-width="80" stroke-linejoin="round" d="M 4233,11583 L 5032,11583"/>
 <path fill="none" stroke="rgb(87,157,28)" stroke-width="80" stroke-linejoin="round" d="M 5730,11583 L 6530,11583"/>
 <path fill="none" stroke="rgb(255,66,14)" stroke-width="80" stroke-linejoin="round" d="M 7837,11583 L 8636,11583"/>
 <path fill="none" stroke="rgb(126,0,33)" stroke-width="80" stroke-linejoin="round" d="M 10128,11583 L 10928,11583"/>
 <path fill="none" stroke="rgb(131,202,255)" stroke-width="80" stroke-linejoin="round" d="M 12260,11583 L 13060,11583"/>
 <text class="TextShape"><tspan class="TextParagraph" font-family="Arial, sans-serif" font-size="353px" font-weight="700"><tspan class="TextPosition" x="2683" y="11702"><tspan fill="rgb(0,0,0)" stroke="none">Chrome</tspan></tspan></tspan></text>
 <text class="TextShape"><tspan class="TextParagraph" font-family="Arial, sans-serif" font-size="353px" font-weight="700"><tspan class="TextPosition" x="5132" y="11702"><tspan fill="rgb(0,0,0)" stroke="none">IE</tspan></tspan></tspan></text>
 <text class="TextShape"><tspan class="TextParagraph" font-family="Arial, sans-serif" font-size="353px" font-weight="700"><tspan class="TextPosition" x="6630" y="11702"><tspan fill="rgb(0,0,0)" stroke="none">Safari</tspan></tspan></tspan></text>
 <text class="TextShape"><tspan class="TextParagraph" font-family="Arial, sans-serif" font-size="353px" font-weight="700"><tspan class="TextPosition" x="8736" y="11702"><tspan fill="rgb(0,0,0)" stroke="none">Firefox</tspan></tspan></tspan></text>
 <text class="TextShape"><tspan class="TextParagraph" font-family="Arial, sans-serif" font-size="353px" font-weight="700"><tspan class="TextPosition" x="11028" y="11702"><tspan fill="rgb(0,0,0)" stroke="none">Opera</tspan></tspan></tspan></text>
 <text class="TextShape"><tspan class="TextParagraph" font-family="Arial, sans-serif" font-size="353px" font-weight="700"><tspan class="TextPosition" x="13160" y="11702"><tspan fill="rgb(0,0,0)" stroke="none">Otros</tspan></tspan></tspan></text>
</svg>
