<?xml version="1.0" encoding="UTF-8"?>
<!DOCTYPE svg PUBLIC "-//W3C//DTD SVG 1.1//EN" "http://www.w3.org/Graphics/SVG/1.1/DTD/svg11.dtd">
<svg width="166mm" height="124mm" viewBox="0 0 16600 12400" version="1.1" xmlns="http://www.w3.org/2000/svg" stroke-width="28.222" stroke-linejoin="round" xml:space="preserve">
 <path fill="rgb(255,255,255)" stroke="none" d="M 8298,12447 L 0,12447 0,27 16595,27 16595,12447 8298,12447 Z"/>
 <path fill="none" stroke="rgb(179,179,179)" stroke-linejoin="round" d="M 8346,10674 L 1229,10674 1229,1156 15463,1156 15463,10674 8346,10674 Z"/>
 <path fill="none" stroke="rgb(0,0,0)" stroke-linejoin="round" d="M 15463,10673 L 1229,10673"/>
 <path fill="none" stroke="rgb(0,0,0)" stroke-linejoin="round" d="M 15463,9615 L 1229,9615"/>
 <path fill="none" stroke="rgb(0,0,0)" stroke-linejoin="round" d="M 15463,8558 L 1229,8558"/>
 <path fill="none" stroke="rgb(0,0,0)" stroke-linejoin="round" d="M 15463,7500 L 1229,7500"/>
 <path fill="none" stroke="rgb(0,0,0)" stroke-linejoin="round" d="M 15463,6443 L 1229,6443"/>
 <path fill="none" stroke="rgb(0,0,0)" stroke-linejoin="round" d="M 15463,5385 L 1229,5385"/>
 <path fill="none" stroke="rgb(0,0,0)" stroke-linejoin="round" d="M 15463,4327 L 1229,4327"/>
 <path fill="none" stroke="rgb(0,0,0)" stroke-linejoin="round" d="M 15463,3270 L 1229,3270"/>
 <path fill="none" stroke="rgb(0,0,0)" stroke-linejoin="round" d="M 15463,2212 L 1229,2212"/>
 <path fill="none" stroke="rgb(0,0,0)" stroke-linejoin="round" d="M 15463,1155 L 1229,1155"/>
 <path fill="none" stroke="rgb(0,0,0)" stroke-linejoin="round" d="M 1229,10823 L 1229,10673"/>
 <path fill="none" stroke="rgb(0,0,0)" stroke-linejoin="round" d="M 1229,10823 L 1229,10673"/>
 <path fill="none" stroke="rgb(0,0,0)" stroke-linejoin="round" d="M 1348,10823 L 1348,10673"/>
 <path fill="none" stroke="rgb(0,0,0)" stroke-linejoin="round" d="M 1348,10823 L 1348,10673"/>
 <path fill="none" stroke="rgb(0,0,0)" stroke-linejoin="round" d="M 1468,10823 L 1468,10673"/>
 <path fill="none" stroke="rgb(0,0,0)" stroke-linejoin="round" d="M 1468,10823 L 1468,10673"/>
 <path fill="none" stroke="rgb(0,0,0)" stroke-linejoin="round" d="M 1587,10823 L 1587,10673"/>
 <path fill="none" stroke="rgb(0,0,0)" stroke-linejoin="round" d="M 1587,10823 L 1587,10673"/>
 <path fill="none" stroke="rgb(0,0,0)" stroke-linejoin="round" d="M 1707,10823 L 1707,10673"/>
 <path fill="none" stroke="rgb(0,0,0)" stroke-linejoin="round" d="M 1707,10823 L 1707,10673"/>
 <path fill="none" stroke="rgb(0,0,0)" stroke-linejoin="round" d="M 1827,10823 L 1827,10673"/>
 <path fill="none" stroke="rgb(0,0,0)" stroke-linejoin="round" d="M 1827,10823 L 1827,10673"/>
 <path fill="none" stroke="rgb(0,0,0)" stroke-linejoin="round" d="M 1946,10823 L 1946,10673"/>
 <path fill="none" stroke="rgb(0,0,0)" stroke-linejoin="round" d="M 1946,10823 L 1946,10673"/>
 <path fill="none" stroke="rgb(0,0,0)" stroke-linejoin="round" d="M 2066,10823 L 2066,10673"/>
 <path fill="none" stroke="rgb(0,0,0)" stroke-linejoin="round" d="M 2066,10823 L 2066,10673"/>
 <path fill="none" stroke="rgb(0,0,0)" stroke-linejoin="round" d="M 2185,10823 L 2185,10673"/>
 <path fill="none" stroke="rgb(0,0,0)" stroke-linejoin="round" d="M 2185,10823 L 2185,10673"/>
 <path fill="none" stroke="rgb(0,0,0)" stroke-linejoin="round" d="M 2305,10823 L 2305,10673"/>
 <path fill="none" stroke="rgb(0,0,0)" stroke-linejoin="round" d="M 2305,10823 L 2305,10673"/>
 <path fill="none" stroke="rgb(0,0,0)" stroke-linejoin="round" d="M 2425,10823 L 2425,10673"/>
 <path fill="none" stroke="rgb(0,0,0)" stroke-linejoin="round" d="M 2425,10823 L 2425,10673"/>
 <path fill="none" stroke="rgb(0,0,0)" stroke-linejoin="round" d="M 2544,10823 L 2544,10673"/>
 <path fill="none" stroke="rgb(0,0,0)" stroke-linejoin="round" d="M 2544,10823 L 2544,10673"/>
 <path fill="none" stroke="rgb(0,0,0)" stroke-linejoin="round" d="M 2664,10823 L 2664,10673"/>
 <path fill="none" stroke="rgb(0,0,0)" stroke-linejoin="round" d="M 2664,10823 L 2664,10673"/>
 <path fill="none" stroke="rgb(0,0,0)" stroke-linejoin="round" d="M 2784,10823 L 2784,10673"/>
 <path fill="none" stroke="rgb(0,0,0)" stroke-linejoin="round" d="M 2784,10823 L 2784,10673"/>
 <path fill="none" stroke="rgb(0,0,0)" stroke-linejoin="round" d="M 2903,10823 L 2903,10673"/>
 <path fill="none" stroke="rgb(0,0,0)" stroke-linejoin="round" d="M 2903,10823 L 2903,10673"/>
 <path fill="none" stroke="rgb(0,0,0)" stroke-linejoin="round" d="M 3023,10823 L 3023,10673"/>
 <path fill="none" stroke="rgb(0,0,0)" stroke-linejoin="round" d="M 3023,10823 L 3023,10673"/>
 <path fill="none" stroke="rgb(0,0,0)" stroke-linejoin="round" d="M 3142,10823 L 3142,10673"/>
 <path fill="none" stroke="rgb(0,0,0)" stroke-linejoin="round" d="M 3142,10823 L 3142,10673"/>
 <path fill="none" stroke="rgb(0,0,0)" stroke-linejoin="round" d="M 3262,10823 L 3262,10673"/>
 <path fill="none" stroke="rgb(0,0,0)" stroke-linejoin="round" d="M 3262,10823 L 3262,10673"/>
 <path fill="none" stroke="rgb(0,0,0)" stroke-linejoin="round" d="M 3382,10823 L 3382,10673"/>
 <path fill="none" stroke="rgb(0,0,0)" stroke-linejoin="round" d="M 3382,10823 L 3382,10673"/>
 <path fill="none" stroke="rgb(0,0,0)" stroke-linejoin="round" d="M 3501,10823 L 3501,10673"/>
 <path fill="none" stroke="rgb(0,0,0)" stroke-linejoin="round" d="M 3501,10823 L 3501,10673"/>
 <path fill="none" stroke="rgb(0,0,0)" stroke-linejoin="round" d="M 3621,10823 L 3621,10673"/>
 <path fill="none" stroke="rgb(0,0,0)" stroke-linejoin="round" d="M 3621,10823 L 3621,10673"/>
 <path fill="none" stroke="rgb(0,0,0)" stroke-linejoin="round" d="M 3741,10823 L 3741,10673"/>
 <path fill="none" stroke="rgb(0,0,0)" stroke-linejoin="round" d="M 3741,10823 L 3741,10673"/>
 <path fill="none" stroke="rgb(0,0,0)" stroke-linejoin="round" d="M 3860,10823 L 3860,10673"/>
 <path fill="none" stroke="rgb(0,0,0)" stroke-linejoin="round" d="M 3860,10823 L 3860,10673"/>
 <path fill="none" stroke="rgb(0,0,0)" stroke-linejoin="round" d="M 3980,10823 L 3980,10673"/>
 <path fill="none" stroke="rgb(0,0,0)" stroke-linejoin="round" d="M 3980,10823 L 3980,10673"/>
 <path fill="none" stroke="rgb(0,0,0)" stroke-linejoin="round" d="M 4099,10823 L 4099,10673"/>
 <path fill="none" stroke="rgb(0,0,0)" stroke-linejoin="round" d="M 4099,10823 L 4099,10673"/>
 <path fill="none" stroke="rgb(0,0,0)" stroke-linejoin="round" d="M 4219,10823 L 4219,10673"/>
 <path fill="none" stroke="rgb(0,0,0)" stroke-linejoin="round" d="M 4219,10823 L 4219,10673"/>
 <path fill="none" stroke="rgb(0,0,0)" stroke-linejoin="round" d="M 4339,10823 L 4339,10673"/>
 <path fill="none" stroke="rgb(0,0,0)" stroke-linejoin="round" d="M 4339,10823 L 4339,10673"/>
 <path fill="none" stroke="rgb(0,0,0)" stroke-linejoin="round" d="M 4458,10823 L 4458,10673"/>
 <path fill="none" stroke="rgb(0,0,0)" stroke-linejoin="round" d="M 4458,10823 L 4458,10673"/>
 <path fill="none" stroke="rgb(0,0,0)" stroke-linejoin="round" d="M 4578,10823 L 4578,10673"/>
 <path fill="none" stroke="rgb(0,0,0)" stroke-linejoin="round" d="M 4578,10823 L 4578,10673"/>
 <path fill="none" stroke="rgb(0,0,0)" stroke-linejoin="round" d="M 4698,10823 L 4698,10673"/>
 <path fill="none" stroke="rgb(0,0,0)" stroke-linejoin="round" d="M 4698,10823 L 4698,10673"/>
 <path fill="none" stroke="rgb(0,0,0)" stroke-linejoin="round" d="M 4817,10823 L 4817,10673"/>
 <path fill="none" stroke="rgb(0,0,0)" stroke-linejoin="round" d="M 4817,10823 L 4817,10673"/>
 <path fill="none" stroke="rgb(0,0,0)" stroke-linejoin="round" d="M 4937,10823 L 4937,10673"/>
 <path fill="none" stroke="rgb(0,0,0)" stroke-linejoin="round" d="M 4937,10823 L 4937,10673"/>
 <path fill="none" stroke="rgb(0,0,0)" stroke-linejoin="round" d="M 5056,10823 L 5056,10673"/>
 <path fill="none" stroke="rgb(0,0,0)" stroke-linejoin="round" d="M 5056,10823 L 5056,10673"/>
 <path fill="none" stroke="rgb(0,0,0)" stroke-linejoin="round" d="M 5176,10823 L 5176,10673"/>
 <path fill="none" stroke="rgb(0,0,0)" stroke-linejoin="round" d="M 5176,10823 L 5176,10673"/>
 <path fill="none" stroke="rgb(0,0,0)" stroke-linejoin="round" d="M 5296,10823 L 5296,10673"/>
 <path fill="none" stroke="rgb(0,0,0)" stroke-linejoin="round" d="M 5296,10823 L 5296,10673"/>
 <path fill="none" stroke="rgb(0,0,0)" stroke-linejoin="round" d="M 5415,10823 L 5415,10673"/>
 <path fill="none" stroke="rgb(0,0,0)" stroke-linejoin="round" d="M 5415,10823 L 5415,10673"/>
 <path fill="none" stroke="rgb(0,0,0)" stroke-linejoin="round" d="M 5535,10823 L 5535,10673"/>
 <path fill="none" stroke="rgb(0,0,0)" stroke-linejoin="round" d="M 5535,10823 L 5535,10673"/>
 <path fill="none" stroke="rgb(0,0,0)" stroke-linejoin="round" d="M 5655,10823 L 5655,10673"/>
 <path fill="none" stroke="rgb(0,0,0)" stroke-linejoin="round" d="M 5655,10823 L 5655,10673"/>
 <path fill="none" stroke="rgb(0,0,0)" stroke-linejoin="round" d="M 5774,10823 L 5774,10673"/>
 <path fill="none" stroke="rgb(0,0,0)" stroke-linejoin="round" d="M 5774,10823 L 5774,10673"/>
 <path fill="none" stroke="rgb(0,0,0)" stroke-linejoin="round" d="M 5894,10823 L 5894,10673"/>
 <path fill="none" stroke="rgb(0,0,0)" stroke-linejoin="round" d="M 5894,10823 L 5894,10673"/>
 <path fill="none" stroke="rgb(0,0,0)" stroke-linejoin="round" d="M 6013,10823 L 6013,10673"/>
 <path fill="none" stroke="rgb(0,0,0)" stroke-linejoin="round" d="M 6013,10823 L 6013,10673"/>
 <path fill="none" stroke="rgb(0,0,0)" stroke-linejoin="round" d="M 6133,10823 L 6133,10673"/>
 <path fill="none" stroke="rgb(0,0,0)" stroke-linejoin="round" d="M 6133,10823 L 6133,10673"/>
 <path fill="none" stroke="rgb(0,0,0)" stroke-linejoin="round" d="M 6253,10823 L 6253,10673"/>
 <path fill="none" stroke="rgb(0,0,0)" stroke-linejoin="round" d="M 6253,10823 L 6253,10673"/>
 <path fill="none" stroke="rgb(0,0,0)" stroke-linejoin="round" d="M 6372,10823 L 6372,10673"/>
 <path fill="none" stroke="rgb(0,0,0)" stroke-linejoin="round" d="M 6372,10823 L 6372,10673"/>
 <path fill="none" stroke="rgb(0,0,0)" stroke-linejoin="round" d="M 6492,10823 L 6492,10673"/>
 <path fill="none" stroke="rgb(0,0,0)" stroke-linejoin="round" d="M 6492,10823 L 6492,10673"/>
 <path fill="none" stroke="rgb(0,0,0)" stroke-linejoin="round" d="M 6611,10823 L 6611,10673"/>
 <path fill="none" stroke="rgb(0,0,0)" stroke-linejoin="round" d="M 6611,10823 L 6611,10673"/>
 <path fill="none" stroke="rgb(0,0,0)" stroke-linejoin="round" d="M 6731,10823 L 6731,10673"/>
 <path fill="none" stroke="rgb(0,0,0)" stroke-linejoin="round" d="M 6731,10823 L 6731,10673"/>
 <path fill="none" stroke="rgb(0,0,0)" stroke-linejoin="round" d="M 6851,10823 L 6851,10673"/>
 <path fill="none" stroke="rgb(0,0,0)" stroke-linejoin="round" d="M 6851,10823 L 6851,10673"/>
 <path fill="none" stroke="rgb(0,0,0)" stroke-linejoin="round" d="M 6970,10823 L 6970,10673"/>
 <path fill="none" stroke="rgb(0,0,0)" stroke-linejoin="round" d="M 6970,10823 L 6970,10673"/>
 <path fill="none" stroke="rgb(0,0,0)" stroke-linejoin="round" d="M 7090,10823 L 7090,10673"/>
 <path fill="none" stroke="rgb(0,0,0)" stroke-linejoin="round" d="M 7090,10823 L 7090,10673"/>
 <path fill="none" stroke="rgb(0,0,0)" stroke-linejoin="round" d="M 7210,10823 L 7210,10673"/>
 <path fill="none" stroke="rgb(0,0,0)" stroke-linejoin="round" d="M 7210,10823 L 7210,10673"/>
 <path fill="none" stroke="rgb(0,0,0)" stroke-linejoin="round" d="M 7329,10823 L 7329,10673"/>
 <path fill="none" stroke="rgb(0,0,0)" stroke-linejoin="round" d="M 7329,10823 L 7329,10673"/>
 <path fill="none" stroke="rgb(0,0,0)" stroke-linejoin="round" d="M 7449,10823 L 7449,10673"/>
 <path fill="none" stroke="rgb(0,0,0)" stroke-linejoin="round" d="M 7449,10823 L 7449,10673"/>
 <path fill="none" stroke="rgb(0,0,0)" stroke-linejoin="round" d="M 7568,10823 L 7568,10673"/>
 <path fill="none" stroke="rgb(0,0,0)" stroke-linejoin="round" d="M 7568,10823 L 7568,10673"/>
 <path fill="none" stroke="rgb(0,0,0)" stroke-linejoin="round" d="M 7688,10823 L 7688,10673"/>
 <path fill="none" stroke="rgb(0,0,0)" stroke-linejoin="round" d="M 7688,10823 L 7688,10673"/>
 <path fill="none" stroke="rgb(0,0,0)" stroke-linejoin="round" d="M 7808,10823 L 7808,10673"/>
 <path fill="none" stroke="rgb(0,0,0)" stroke-linejoin="round" d="M 7808,10823 L 7808,10673"/>
 <path fill="none" stroke="rgb(0,0,0)" stroke-linejoin="round" d="M 7927,10823 L 7927,10673"/>
 <path fill="none" stroke="rgb(0,0,0)" stroke-linejoin="round" d="M 7927,10823 L 7927,10673"/>
 <path fill="none" stroke="rgb(0,0,0)" stroke-linejoin="round" d="M 8047,10823 L 8047,10673"/>
 <path fill="none" stroke="rgb(0,0,0)" stroke-linejoin="round" d="M 8047,10823 L 8047,10673"/>
 <path fill="none" stroke="rgb(0,0,0)" stroke-linejoin="round" d="M 8167,10823 L 8167,10673"/>
 <path fill="none" stroke="rgb(0,0,0)" stroke-linejoin="round" d="M 8167,10823 L 8167,10673"/>
 <path fill="none" stroke="rgb(0,0,0)" stroke-linejoin="round" d="M 8286,10823 L 8286,10673"/>
 <path fill="none" stroke="rgb(0,0,0)" stroke-linejoin="round" d="M 8286,10823 L 8286,10673"/>
 <path fill="none" stroke="rgb(0,0,0)" stroke-linejoin="round" d="M 8405,10823 L 8405,10673"/>
 <path fill="none" stroke="rgb(0,0,0)" stroke-linejoin="round" d="M 8405,10823 L 8405,10673"/>
 <path fill="none" stroke="rgb(0,0,0)" stroke-linejoin="round" d="M 8524,10823 L 8524,10673"/>
 <path fill="none" stroke="rgb(0,0,0)" stroke-linejoin="round" d="M 8524,10823 L 8524,10673"/>
 <path fill="none" stroke="rgb(0,0,0)" stroke-linejoin="round" d="M 8644,10823 L 8644,10673"/>
 <path fill="none" stroke="rgb(0,0,0)" stroke-linejoin="round" d="M 8644,10823 L 8644,10673"/>
 <path fill="none" stroke="rgb(0,0,0)" stroke-linejoin="round" d="M 8764,10823 L 8764,10673"/>
 <path fill="none" stroke="rgb(0,0,0)" stroke-linejoin="round" d="M 8764,10823 L 8764,10673"/>
 <path fill="none" stroke="rgb(0,0,0)" stroke-linejoin="round" d="M 8883,10823 L 8883,10673"/>
 <path fill="none" stroke="rgb(0,0,0)" stroke-linejoin="round" d="M 8883,10823 L 8883,10673"/>
 <path fill="none" stroke="rgb(0,0,0)" stroke-linejoin="round" d="M 9003,10823 L 9003,10673"/>
 <path fill="none" stroke="rgb(0,0,0)" stroke-linejoin="round" d="M 9003,10823 L 9003,10673"/>
 <path fill="none" stroke="rgb(0,0,0)" stroke-linejoin="round" d="M 9123,10823 L 9123,10673"/>
 <path fill="none" stroke="rgb(0,0,0)" stroke-linejoin="round" d="M 9123,10823 L 9123,10673"/>
 <path fill="none" stroke="rgb(0,0,0)" stroke-linejoin="round" d="M 9242,10823 L 9242,10673"/>
 <path fill="none" stroke="rgb(0,0,0)" stroke-linejoin="round" d="M 9242,10823 L 9242,10673"/>
 <path fill="none" stroke="rgb(0,0,0)" stroke-linejoin="round" d="M 9362,10823 L 9362,10673"/>
 <path fill="none" stroke="rgb(0,0,0)" stroke-linejoin="round" d="M 9362,10823 L 9362,10673"/>
 <path fill="none" stroke="rgb(0,0,0)" stroke-linejoin="round" d="M 9481,10823 L 9481,10673"/>
 <path fill="none" stroke="rgb(0,0,0)" stroke-linejoin="round" d="M 9481,10823 L 9481,10673"/>
 <path fill="none" stroke="rgb(0,0,0)" stroke-linejoin="round" d="M 9601,10823 L 9601,10673"/>
 <path fill="none" stroke="rgb(0,0,0)" stroke-linejoin="round" d="M 9601,10823 L 9601,10673"/>
 <path fill="none" stroke="rgb(0,0,0)" stroke-linejoin="round" d="M 9721,10823 L 9721,10673"/>
 <path fill="none" stroke="rgb(0,0,0)" stroke-linejoin="round" d="M 9721,10823 L 9721,10673"/>
 <path fill="none" stroke="rgb(0,0,0)" stroke-linejoin="round" d="M 9840,10823 L 9840,10673"/>
 <path fill="none" stroke="rgb(0,0,0)" stroke-linejoin="round" d="M 9840,10823 L 9840,10673"/>
 <path fill="none" stroke="rgb(0,0,0)" stroke-linejoin="round" d="M 9960,10823 L 9960,10673"/>
 <path fill="none" stroke="rgb(0,0,0)" stroke-linejoin="round" d="M 9960,10823 L 9960,10673"/>
 <path fill="none" stroke="rgb(0,0,0)" stroke-linejoin="round" d="M 10080,10823 L 10080,10673"/>
 <path fill="none" stroke="rgb(0,0,0)" stroke-linejoin="round" d="M 10080,10823 L 10080,10673"/>
 <path fill="none" stroke="rgb(0,0,0)" stroke-linejoin="round" d="M 10199,10823 L 10199,10673"/>
 <path fill="none" stroke="rgb(0,0,0)" stroke-linejoin="round" d="M 10199,10823 L 10199,10673"/>
 <path fill="none" stroke="rgb(0,0,0)" stroke-linejoin="round" d="M 10319,10823 L 10319,10673"/>
 <path fill="none" stroke="rgb(0,0,0)" stroke-linejoin="round" d="M 10319,10823 L 10319,10673"/>
 <path fill="none" stroke="rgb(0,0,0)" stroke-linejoin="round" d="M 10438,10823 L 10438,10673"/>
 <path fill="none" stroke="rgb(0,0,0)" stroke-linejoin="round" d="M 10438,10823 L 10438,10673"/>
 <path fill="none" stroke="rgb(0,0,0)" stroke-linejoin="round" d="M 10558,10823 L 10558,10673"/>
 <path fill="none" stroke="rgb(0,0,0)" stroke-linejoin="round" d="M 10558,10823 L 10558,10673"/>
 <path fill="none" stroke="rgb(0,0,0)" stroke-linejoin="round" d="M 10678,10823 L 10678,10673"/>
 <path fill="none" stroke="rgb(0,0,0)" stroke-linejoin="round" d="M 10678,10823 L 10678,10673"/>
 <path fill="none" stroke="rgb(0,0,0)" stroke-linejoin="round" d="M 10797,10823 L 10797,10673"/>
 <path fill="none" stroke="rgb(0,0,0)" stroke-linejoin="round" d="M 10797,10823 L 10797,10673"/>
 <path fill="none" stroke="rgb(0,0,0)" stroke-linejoin="round" d="M 10917,10823 L 10917,10673"/>
 <path fill="none" stroke="rgb(0,0,0)" stroke-linejoin="round" d="M 10917,10823 L 10917,10673"/>
 <path fill="none" stroke="rgb(0,0,0)" stroke-linejoin="round" d="M 11036,10823 L 11036,10673"/>
 <path fill="none" stroke="rgb(0,0,0)" stroke-linejoin="round" d="M 11036,10823 L 11036,10673"/>
 <path fill="none" stroke="rgb(0,0,0)" stroke-linejoin="round" d="M 11156,10823 L 11156,10673"/>
 <path fill="none" stroke="rgb(0,0,0)" stroke-linejoin="round" d="M 11156,10823 L 11156,10673"/>
 <path fill="none" stroke="rgb(0,0,0)" stroke-linejoin="round" d="M 11276,10823 L 11276,10673"/>
 <path fill="none" stroke="rgb(0,0,0)" stroke-linejoin="round" d="M 11276,10823 L 11276,10673"/>
 <path fill="none" stroke="rgb(0,0,0)" stroke-linejoin="round" d="M 11395,10823 L 11395,10673"/>
 <path fill="none" stroke="rgb(0,0,0)" stroke-linejoin="round" d="M 11395,10823 L 11395,10673"/>
 <path fill="none" stroke="rgb(0,0,0)" stroke-linejoin="round" d="M 11515,10823 L 11515,10673"/>
 <path fill="none" stroke="rgb(0,0,0)" stroke-linejoin="round" d="M 11515,10823 L 11515,10673"/>
 <path fill="none" stroke="rgb(0,0,0)" stroke-linejoin="round" d="M 11635,10823 L 11635,10673"/>
 <path fill="none" stroke="rgb(0,0,0)" stroke-linejoin="round" d="M 11635,10823 L 11635,10673"/>
 <path fill="none" stroke="rgb(0,0,0)" stroke-linejoin="round" d="M 11754,10823 L 11754,10673"/>
 <path fill="none" stroke="rgb(0,0,0)" stroke-linejoin="round" d="M 11754,10823 L 11754,10673"/>
 <path fill="none" stroke="rgb(0,0,0)" stroke-linejoin="round" d="M 11874,10823 L 11874,10673"/>
 <path fill="none" stroke="rgb(0,0,0)" stroke-linejoin="round" d="M 11874,10823 L 11874,10673"/>
 <path fill="none" stroke="rgb(0,0,0)" stroke-linejoin="round" d="M 11993,10823 L 11993,10673"/>
 <path fill="none" stroke="rgb(0,0,0)" stroke-linejoin="round" d="M 11993,10823 L 11993,10673"/>
 <path fill="none" stroke="rgb(0,0,0)" stroke-linejoin="round" d="M 12113,10823 L 12113,10673"/>
 <path fill="none" stroke="rgb(0,0,0)" stroke-linejoin="round" d="M 12113,10823 L 12113,10673"/>
 <path fill="none" stroke="rgb(0,0,0)" stroke-linejoin="round" d="M 12233,10823 L 12233,10673"/>
 <path fill="none" stroke="rgb(0,0,0)" stroke-linejoin="round" d="M 12233,10823 L 12233,10673"/>
 <path fill="none" stroke="rgb(0,0,0)" stroke-linejoin="round" d="M 12352,10823 L 12352,10673"/>
 <path fill="none" stroke="rgb(0,0,0)" stroke-linejoin="round" d="M 12352,10823 L 12352,10673"/>
 <path fill="none" stroke="rgb(0,0,0)" stroke-linejoin="round" d="M 12472,10823 L 12472,10673"/>
 <path fill="none" stroke="rgb(0,0,0)" stroke-linejoin="round" d="M 12472,10823 L 12472,10673"/>
 <path fill="none" stroke="rgb(0,0,0)" stroke-linejoin="round" d="M 12592,10823 L 12592,10673"/>
 <path fill="none" stroke="rgb(0,0,0)" stroke-linejoin="round" d="M 12592,10823 L 12592,10673"/>
 <path fill="none" stroke="rgb(0,0,0)" stroke-linejoin="round" d="M 12711,10823 L 12711,10673"/>
 <path fill="none" stroke="rgb(0,0,0)" stroke-linejoin="round" d="M 12711,10823 L 12711,10673"/>
 <path fill="none" stroke="rgb(0,0,0)" stroke-linejoin="round" d="M 12831,10823 L 12831,10673"/>
 <path fill="none" stroke="rgb(0,0,0)" stroke-linejoin="round" d="M 12831,10823 L 12831,10673"/>
 <path fill="none" stroke="rgb(0,0,0)" stroke-linejoin="round" d="M 12950,10823 L 12950,10673"/>
 <path fill="none" stroke="rgb(0,0,0)" stroke-linejoin="round" d="M 12950,10823 L 12950,10673"/>
 <path fill="none" stroke="rgb(0,0,0)" stroke-linejoin="round" d="M 13070,10823 L 13070,10673"/>
 <path fill="none" stroke="rgb(0,0,0)" stroke-linejoin="round" d="M 13070,10823 L 13070,10673"/>
 <path fill="none" stroke="rgb(0,0,0)" stroke-linejoin="round" d="M 13190,10823 L 13190,10673"/>
 <path fill="none" stroke="rgb(0,0,0)" stroke-linejoin="round" d="M 13190,10823 L 13190,10673"/>
 <path fill="none" stroke="rgb(0,0,0)" stroke-linejoin="round" d="M 13309,10823 L 13309,10673"/>
 <path fill="none" stroke="rgb(0,0,0)" stroke-linejoin="round" d="M 13309,10823 L 13309,10673"/>
 <path fill="none" stroke="rgb(0,0,0)" stroke-linejoin="round" d="M 13429,10823 L 13429,10673"/>
 <path fill="none" stroke="rgb(0,0,0)" stroke-linejoin="round" d="M 13429,10823 L 13429,10673"/>
 <path fill="none" stroke="rgb(0,0,0)" stroke-linejoin="round" d="M 13549,10823 L 13549,10673"/>
 <path fill="none" stroke="rgb(0,0,0)" stroke-linejoin="round" d="M 13549,10823 L 13549,10673"/>
 <path fill="none" stroke="rgb(0,0,0)" stroke-linejoin="round" d="M 13668,10823 L 13668,10673"/>
 <path fill="none" stroke="rgb(0,0,0)" stroke-linejoin="round" d="M 13668,10823 L 13668,10673"/>
 <path fill="none" stroke="rgb(0,0,0)" stroke-linejoin="round" d="M 13788,10823 L 13788,10673"/>
 <path fill="none" stroke="rgb(0,0,0)" stroke-linejoin="round" d="M 13788,10823 L 13788,10673"/>
 <path fill="none" stroke="rgb(0,0,0)" stroke-linejoin="round" d="M 13907,10823 L 13907,10673"/>
 <path fill="none" stroke="rgb(0,0,0)" stroke-linejoin="round" d="M 13907,10823 L 13907,10673"/>
 <path fill="none" stroke="rgb(0,0,0)" stroke-linejoin="round" d="M 14027,10823 L 14027,10673"/>
 <path fill="none" stroke="rgb(0,0,0)" stroke-linejoin="round" d="M 14027,10823 L 14027,10673"/>
 <path fill="none" stroke="rgb(0,0,0)" stroke-linejoin="round" d="M 14147,10823 L 14147,10673"/>
 <path fill="none" stroke="rgb(0,0,0)" stroke-linejoin="round" d="M 14147,10823 L 14147,10673"/>
 <path fill="none" stroke="rgb(0,0,0)" stroke-linejoin="round" d="M 14266,10823 L 14266,10673"/>
 <path fill="none" stroke="rgb(0,0,0)" stroke-linejoin="round" d="M 14266,10823 L 14266,10673"/>
 <path fill="none" stroke="rgb(0,0,0)" stroke-linejoin="round" d="M 14386,10823 L 14386,10673"/>
 <path fill="none" stroke="rgb(0,0,0)" stroke-linejoin="round" d="M 14386,10823 L 14386,10673"/>
 <path fill="none" stroke="rgb(0,0,0)" stroke-linejoin="round" d="M 14506,10823 L 14506,10673"/>
 <path fill="none" stroke="rgb(0,0,0)" stroke-linejoin="round" d="M 14506,10823 L 14506,10673"/>
 <path fill="none" stroke="rgb(0,0,0)" stroke-linejoin="round" d="M 14625,10823 L 14625,10673"/>
 <path fill="none" stroke="rgb(0,0,0)" stroke-linejoin="round" d="M 14625,10823 L 14625,10673"/>
 <path fill="none" stroke="rgb(0,0,0)" stroke-linejoin="round" d="M 14745,10823 L 14745,10673"/>
 <path fill="none" stroke="rgb(0,0,0)" stroke-linejoin="round" d="M 14745,10823 L 14745,10673"/>
 <path fill="none" stroke="rgb(0,0,0)" stroke-linejoin="round" d="M 14864,10823 L 14864,10673"/>
 <path fill="none" stroke="rgb(0,0,0)" stroke-linejoin="round" d="M 14864,10823 L 14864,10673"/>
 <path fill="none" stroke="rgb(0,0,0)" stroke-linejoin="round" d="M 14984,10823 L 14984,10673"/>
 <path fill="none" stroke="rgb(0,0,0)" stroke-linejoin="round" d="M 14984,10823 L 14984,10673"/>
 <path fill="none" stroke="rgb(0,0,0)" stroke-linejoin="round" d="M 15104,10823 L 15104,10673"/>
 <path fill="none" stroke="rgb(0,0,0)" stroke-linejoin="round" d="M 15104,10823 L 15104,10673"/>
 <path fill="none" stroke="rgb(0,0,0)" stroke-linejoin="round" d="M 15223,10823 L 15223,10673"/>
 <path fill="none" stroke="rgb(0,0,0)" stroke-linejoin="round" d="M 15223,10823 L 15223,10673"/>
 <path fill="none" stroke="rgb(0,0,0)" stroke-linejoin="round" d="M 15343,10823 L 15343,10673"/>
 <path fill="none" stroke="rgb(0,0,0)" stroke-linejoin="round" d="M 15343,10823 L 15343,10673"/>
 <path fill="none" stroke="rgb(0,0,0)" stroke-linejoin="round" d="M 15463,10823 L 15463,10673"/>
 <path fill="none" stroke="rgb(0,0,0)" stroke-linejoin="round" d="M 15463,10823 L 15463,10673"/>
 <path fill="none" stroke="rgb(0,0,0)" stroke-linejoin="round" d="M 1229,10673 L 15463,10673"/>
 <path fill="none" stroke="rgb(0,0,0)" stroke-linejoin="round" d="M 1079,10673 L 1229,10673"/>
 <path fill="none" stroke="rgb(0,0,0)" stroke-linejoin="round" d="M 1079,10673 L 1229,10673"/>
 <path fill="none" stroke="rgb(0,0,0)" stroke-linejoin="round" d="M 1079,9615 L 1229,9615"/>
 <path fill="none" stroke="rgb(0,0,0)" stroke-linejoin="round" d="M 1079,9615 L 1229,9615"/>
 <path fill="none" stroke="rgb(0,0,0)" stroke-linejoin="round" d="M 1079,8558 L 1229,8558"/>
 <path fill="none" stroke="rgb(0,0,0)" stroke-linejoin="round" d="M 1079,8558 L 1229,8558"/>
 <path fill="none" stroke="rgb(0,0,0)" stroke-linejoin="round" d="M 1079,7500 L 1229,7500"/>
 <path fill="none" stroke="rgb(0,0,0)" stroke-linejoin="round" d="M 1079,7500 L 1229,7500"/>
 <path fill="none" stroke="rgb(0,0,0)" stroke-linejoin="round" d="M 1079,6443 L 1229,6443"/>
 <path fill="none" stroke="rgb(0,0,0)" stroke-linejoin="round" d="M 1079,6443 L 1229,6443"/>
 <path fill="none" stroke="rgb(0,0,0)" stroke-linejoin="round" d="M 1079,5385 L 1229,5385"/>
 <path fill="none" stroke="rgb(0,0,0)" stroke-linejoin="round" d="M 1079,5385 L 1229,5385"/>
 <path fill="none" stroke="rgb(0,0,0)" stroke-linejoin="round" d="M 1079,4327 L 1229,4327"/>
 <path fill="none" stroke="rgb(0,0,0)" stroke-linejoin="round" d="M 1079,4327 L 1229,4327"/>
 <path fill="none" stroke="rgb(0,0,0)" stroke-linejoin="round" d="M 1079,3270 L 1229,3270"/>
 <path fill="none" stroke="rgb(0,0,0)" stroke-linejoin="round" d="M 1079,3270 L 1229,3270"/>
 <path fill="none" stroke="rgb(0,0,0)" stroke-linejoin="round" d="M 1079,2212 L 1229,2212"/>
 <path fill="none" stroke="rgb(0,0,0)" stroke-linejoin="round" d="M 1079,2212 L 1229,2212"/>
 <path fill="none" stroke="rgb(0,0,0)" stroke-linejoin="round" d="M 1079,1155 L 1229,1155"/>
 <path fill="none" stroke="rgb(0,0,0)" stroke-linejoin="round" d="M 1079,1155 L 1229,1155"/>
 <path fill="none" stroke="rgb(0,0,0)" stroke-linejoin="round" d="M 1229,10673 L 1229,1155"/>
 <path fill="none" stroke="rgb(0,0,0)" stroke-linejoin="round" d="M 15613,10673 L 15463,10673"/>
 <path fill="none" stroke="rgb(0,0,0)" stroke-linejoin="round" d="M 15613,10673 L 15463,10673"/>
 <path fill="none" stroke="rgb(0,0,0)" stroke-linejoin="round" d="M 15613,9615 L 15463,9615"/>
 <path fill="none" stroke="rgb(0,0,0)" stroke-linejoin="round" d="M 15613,9615 L 15463,9615"/>
 <path fill="none" stroke="rgb(0,0,0)" stroke-linejoin="round" d="M 15613,8558 L 15463,8558"/>
 <path fill="none" stroke="rgb(0,0,0)" stroke-linejoin="round" d="M 15613,8558 L 15463,8558"/>
 <path fill="none" stroke="rgb(0,0,0)" stroke-linejoin="round" d="M 15613,7500 L 15463,7500"/>
 <path fill="none" stroke="rgb(0,0,0)" stroke-linejoin="round" d="M 15613,7500 L 15463,7500"/>
 <path fill="none" stroke="rgb(0,0,0)" stroke-linejoin="round" d="M 15613,6443 L 15463,6443"/>
 <path fill="none" stroke="rgb(0,0,0)" stroke-linejoin="round" d="M 15613,6443 L 15463,6443"/>
 <path fill="none" stroke="rgb(0,0,0)" stroke-linejoin="round" d="M 15613,5385 L 15463,5385"/>
 <path fill="none" stroke="rgb(0,0,0)" stroke-linejoin="round" d="M 15613,5385 L 15463,5385"/>
 <path fill="none" stroke="rgb(0,0,0)" stroke-linejoin="round" d="M 15613,4327 L 15463,4327"/>
 <path fill="none" stroke="rgb(0,0,0)" stroke-linejoin="round" d="M 15613,4327 L 15463,4327"/>
 <path fill="none" stroke="rgb(0,0,0)" stroke-linejoin="round" d="M 15613,3270 L 15463,3270"/>
 <path fill="none" stroke="rgb(0,0,0)" stroke-linejoin="round" d="M 15613,3270 L 15463,3270"/>
 <path fill="none" stroke="rgb(0,0,0)" stroke-linejoin="round" d="M 15613,2212 L 15463,2212"/>
 <path fill="none" stroke="rgb(0,0,0)" stroke-linejoin="round" d="M 15613,2212 L 15463,2212"/>
 <path fill="none" stroke="rgb(0,0,0)" stroke-linejoin="round" d="M 15613,1155 L 15463,1155"/>
 <path fill="none" stroke="rgb(0,0,0)" stroke-linejoin="round" d="M 15613,1155 L 15463,1155"/>
 <path fill="none" stroke="rgb(0,0,0)" stroke-linejoin="round" d="M 15463,10673 L 15463,1155"/>
 <path fill="none" stroke="rgb(131,202,255)" stroke-width="80" stroke-linejoin="round" d="M 1229,1832 L 1348,1912 1468,1920 1587,1962 1707,2033 1827,2064 1946,2137 2066,2181 2185,2201 2305,2262 2425,2366 2544,2390 2664,2510 2784,2569 2903,2650 3023,2669 3142,2739 3262,2798 3382,2877 3501,2888 3621,2960 3741,3081 3860,3110 3980,3219 4099,3372 4219,3501 4339,3660 4458,3747 4578,3855 4698,3970 4817,4060 4937,4071 5056,4130 5176,4233 5296,4324 5415,4426 5535,4552 5655,4674 5774,4829 5894,4847 6013,4921 6133,5049 6253,5130 6372,5265 6492,5418 6611,5502 6731,5671 6851,5890 6970,5870 7090,6147 7210,6139 7329,6233 7449,6088 7568,6168 7688,6311 7808,6450 7927,6559 8047,6602 8167,6715 8286,6830 8405,6913 8524,7003 8644,7006 8764,7120 8883,7087 9003,7084 9123,7149 9242,7214 9362,7253 9481,7616 9601,7745 9721,7795 9840,7827 9960,8037 10080,8069 10199,8092 10319,8217 10438,8366 10558,8491 10678,8470 10797,8536 10917,8594 11036,8565 11156,9170 11276,9494 11395,9071 11515,9089 11635,9035 11754,9227 11874,9373 11993,9429 12113,9664 12233,9697 12352,9647 12472,9683 12592,9739 12711,9806 12831,9806 12950,9787 13070,9801 13190,9864 13309,9982 13429,9948 13549,9927 13668,9887 13788,9973 13907,10025 14027,10057 14147,10032 14266,10022 14386,10008 14506,10073 14625,10180 14745,10201 14864,10271 14984,10194 15104,10234 15223,10260 15343,10311 15463,10216"/>
 <path fill="none" stroke="rgb(0,204,255)" stroke-width="80" stroke-linejoin="round" d="M 1229,9932 L 1348,9817 1468,9845 1587,9777 1707,9708 1827,9680 1946,9601 2066,9493 2185,9439 2305,9361 2425,9322 2544,9235 2664,9162 2784,9097 2903,9010 3023,8987 3142,8934 3262,8875 3382,8837 3501,8813 3621,8779 3741,8684 3860,8703 3980,8681 4099,8705 4219,8782 4339,8833 4458,8927 4578,8980 4698,9020 4817,9059 4937,9120 5056,9156 5176,9192 5296,9261 5415,9310 5535,9338 5655,9392 5774,9440 5894,9509 6013,9556 6133,9591 6253,9622 6372,9665 6492,9692 6611,9746 6731,9772 6851,9791 6970,9840 7090,9852 7210,9883 7329,9881 7449,9925 7568,9957 7688,10003 7808,10021 7927,10039 8047,10083 8167,10092 8286,10124 8405,10134 8524,10140 8644,10186 8764,10201 8883,10211 9003,10228 9123,10251 9242,10243 9362,10283 9481,10299 9601,10302 9721,10339 9840,10347 9960,10344 10080,10380 10199,10402 10319,10407 10438,10420 10558,10423 10678,10416 10797,10411 10917,10410 11036,10402 11156,10427 11276,10444 11395,10420 11515,10468 11635,10492 11754,10504 11874,10513 11993,10501 12113,10536 12233,10519 12352,10518 12472,10532 12592,10533 12711,10541 12831,10543 12950,10541 13070,10543 13190,10567 13309,10576 13429,10575 13549,10580 13668,10580 13788,10594 13907,10595 14027,10591 14147,10591 14266,10596 14386,10611 14506,10617 14625,10625 14745,10626 14864,10631 14984,10636"/>
 <path fill="none" stroke="rgb(0,132,209)" stroke-width="80" stroke-linejoin="round" d="M 3382,10613 L 3501,10593 3621,10578 3741,10547 3860,10511 3980,10446 4099,10252 4219,10071 4339,9879 4458,9729 4578,9590 4698,9439 4817,9333 4937,9223 5056,9143 5176,8994 5296,8864 5415,8743 5535,8591 5655,8466 5774,8313 5894,8231 6013,8117 6133,8017 6253,7934 6372,7803 6492,7720 6611,7657 6731,7462 6851,7225 6970,7274 7090,7074 7210,7176 7329,6944 7449,7000 7568,6892 7688,6733 7808,6646 7927,6622 8047,6578 8167,6445 8286,6448 8405,6452 8524,6437 8644,6544 8764,6613 8883,6531 9003,6484 9123,6485 9242,6544 9362,6581 9481,6530 9601,6351 9721,6399 9840,6422 9960,6350 10080,6455 10199,6538 10319,6347 10438,6351 10558,6351 10678,6274 10797,6264 10917,6217 11036,6018 11156,6038 11276,5786 11395,5754 11515,6001 11635,5887 11754,5724 11874,5909 11993,5751 12113,5541 12233,5622 12352,5804 12472,6092 12592,6222 12711,6083 12831,6257 12950,6605 13070,6613 13190,6825 13309,7182 13429,7184 13549,6934 13668,7103 13788,7138 13907,7246 14027,7075 14147,7179 14266,7209 14386,7256 14506,7240 14625,7400 14745,7424 14864,7159 14984,7294 15104,7158 15223,7380 15343,7642 15463,7385"/>
 <path fill="none" stroke="rgb(0,102,204)" stroke-width="80" stroke-linejoin="round" d="M 8286,10634 L 8405,10567 8524,10505 8644,10453 8764,10419 8883,10366 9003,10313 9123,10274 9242,10198 9362,10174 9481,9979 9601,9844 9721,9821 9840,9825 9960,9718 10080,9734 10199,9739 10319,9670 10438,9599 10558,9581 10678,9581 10797,9599 10917,9510 11036,9590 11156,9205 11276,9057 11395,9491 11515,9518 11635,9472 11754,9473 11874,9476 11993,9271 12113,9324 12233,9354 12352,9495 12472,9592 12592,9616 12711,9525 12831,9636 12950,9658 13070,9722 13190,9782 13309,9806 13429,9854 13549,9876 13668,9922 13788,9944 13907,9991 14027,9887 14147,9934 14266,10059 14386,10055 14506,10068 14625,10127 14745,10100 14864,10080 14984,10137 15104,10105 15223,10168 15343,10210 15463,10152"/>
 <path fill="none" stroke="rgb(0,69,134)" stroke-width="80" stroke-linejoin="round" d="M 12233,10640 L 12352,10233 12472,10135 12592,10038 12711,9936 12831,9883 12950,9754 13070,9678 13190,9623 13309,9645 13429,9421 13549,9214 13668,9069 13788,8953 13907,9073 14027,8993 14147,8916 14266,8927 14386,8841 14506,8887 14625,8993 14745,8912 14864,8770 14984,8825 15104,8687 15223,8770 15343,8794 15463,8610"/>
 <path fill="none" stroke="rgb(0,102,0)" stroke-width="80" stroke-linejoin="round" d="M 1229,10310 L 1348,10293 1468,10278 1587,10280 1707,10274 1827,10308 1946,10276 2066,10282 2185,10298 2305,10297 2425,10277 2544,10271 2664,10236 2784,10202 2903,10174 3023,10192 3142,10176 3262,10182 3382,10173 3501,10176 3621,10159 3741,10157 3860,10132 3980,10116 4099,10132 4219,10132 4339,10129 4458,10144 4578,10109 4698,10110 4817,10116 4937,10127 5056,10137 5176,10144 5296,10144 5415,10149 5535,10142 5655,10142 5774,10119 5894,10126 6013,10119 6133,10104 6253,10112 6372,10109 6492,10084 6611,10079 6731,10034 6851,9982 6970,10038 7090,10053 7210,10059 7329,9996 7449,10033 7568,10034 7688,10046 7808,10022 7927,10003 8047,9990 8167,9986 8286,9996 8405,9984 8524,10009 8644,10015 8764,10019 8883,10030 9003,10016 9123,10012 9242,10002 9362,10011 9481,10011 9601,9971 9721,9962 9840,9985 9960,9987 10080,9993 10199,10002 10319,10002 10438,10004 10558,10035 10678,10087 10797,10101 10917,10086 11036,10109 11156,10056 11276,10043 11395,10043 11515,10079 11635,10082 11754,10052 11874,10072 11993,10046 12113,10038 12233,10036 12352,10037 12472,10047 12592,10033 12711,10101 12831,10116 12950,10077 13070,10070 13190,10096 13309,10014 13429,10060 13549,10048 13668,10075 13788,10121 13907,10182 14027,10195 14147,10173 14266,10238 14386,10215 14506,10234 14625,10257 14745,10254 14864,10221 14984,10251 15104,10240 15223,10269 15343,10260 15463,10232"/>
 <path fill="none" stroke="rgb(255,211,32)" stroke-width="80" stroke-linejoin="round" d="M 2664,10643 L 2784,10635 2903,10612 3023,10609 3142,10603 3262,10596 3382,10593 3501,10589 3621,10579 3741,10572 3860,10571 3980,10562 4099,10548 4219,10526 4339,10509 4458,10502 4578,10486 4698,10476 4817,10470 4937,10461 5056,10421 5176,10406 5296,10381 5415,10380 5535,10366 5655,10314 5774,10277 5894,10268 6013,10262 6133,10208 6253,10169 6372,10147 6492,10093 6611,10000 6731,10040 6851,10089 6970,9965 7090,9966 7210,9747 7329,9909 7449,9912 7568,9902 7688,9853 7808,9808 7927,9808 8047,9703 8167,9728 8286,9585 8405,9571 8524,9529 8644,9427 8764,9282 8883,9406 9003,9517 9123,9494 9242,9467 9362,9360 9481,9255 9601,9482 9721,9378 9840,9282 9960,9265 10080,9071 10199,8943 10319,9051 10438,8961 10558,8774 10678,8845 10797,8755 10917,8755 11036,8965 11156,8965 11276,8806 11395,8941 11515,8548 11635,8735 11754,8712 11874,8339 11993,8687 12113,8575 12233,8457 12352,8577 12472,8245 12592,8140 12711,8325 12831,8094 12950,7932 13070,7940 13190,7607 13309,7358 13429,7368 13549,7800 13668,7750 13788,7647 13907,7278 14027,7614 14147,7576 14266,7359 14386,7419 14506,7278 14625,6805 14745,6874 14864,7279 14984,7043 15104,7317 15223,6929 15343,6694 15463,7198"/>
 <text class="TextShape"><tspan class="TextParagraph" font-family="Arial, sans-serif" font-size="387px" font-weight="400"><tspan class="TextPosition" x="1044" y="11266"><tspan fill="rgb(0,0,0)" stroke="none">2008</tspan></tspan></tspan></text>
 <text class="TextShape"><tspan class="TextParagraph" font-family="Arial, sans-serif" font-size="387px" font-weight="400"><tspan class="TextPosition" x="2479" y="11266"><tspan fill="rgb(0,0,0)" stroke="none">2009</tspan></tspan></tspan></text>
 <text class="TextShape"><tspan class="TextParagraph" font-family="Arial, sans-serif" font-size="387px" font-weight="400"><tspan class="TextPosition" x="3915" y="11266"><tspan fill="rgb(0,0,0)" stroke="none">2010</tspan></tspan></tspan></text>
 <text class="TextShape"><tspan class="TextParagraph" font-family="Arial, sans-serif" font-size="387px" font-weight="400"><tspan class="TextPosition" x="5350" y="11266"><tspan fill="rgb(0,0,0)" stroke="none">2011</tspan></tspan></tspan></text>
 <text class="TextShape"><tspan class="TextParagraph" font-family="Arial, sans-serif" font-size="387px" font-weight="400"><tspan class="TextPosition" x="6786" y="11266"><tspan fill="rgb(0,0,0)" stroke="none">2012</tspan></tspan></tspan></text>
 <text class="TextShape"><tspan class="TextParagraph" font-family="Arial, sans-serif" font-size="387px" font-weight="400"><tspan class="TextPosition" x="8221" y="11266"><tspan fill="rgb(0,0,0)" stroke="none">2013</tspan></tspan></tspan></text>
 <text class="TextShape"><tspan class="TextParagraph" font-family="Arial, sans-serif" font-size="387px" font-weight="400"><tspan class="TextPosition" x="9657" y="11266"><tspan fill="rgb(0,0,0)" stroke="none">2014</tspan></tspan></tspan></text>
 <text class="TextShape"><tspan class="TextParagraph" font-family="Arial, sans-serif" font-size="387px" font-weight="400"><tspan class="TextPosition" x="11092" y="11266"><tspan fill="rgb(0,0,0)" stroke="none">2015</tspan></tspan></tspan></text>
 <text class="TextShape"><tspan class="TextParagraph" font-family="Arial, sans-serif" font-size="387px" font-weight="400"><tspan class="TextPosition" x="12527" y="11266"><tspan fill="rgb(0,0,0)" stroke="none">2016</tspan></tspan></tspan></text>
 <text class="TextShape"><tspan class="TextParagraph" font-family="Arial, sans-serif" font-size="387px" font-weight="400"><tspan class="TextPosition" x="13963" y="11266"><tspan fill="rgb(0,0,0)" stroke="none">2017</tspan></tspan></tspan></text>
 <text class="TextShape"><tspan class="TextParagraph" font-family="Arial, sans-serif" font-size="387px" font-weight="400"><tspan class="TextPosition" x="423" y="10806"><tspan fill="rgb(0,0,0)" stroke="none">0%</tspan></tspan></tspan></text>
 <text class="TextShape"><tspan class="TextParagraph" font-family="Arial, sans-serif" font-size="387px" font-weight="400"><tspan class="TextPosition" x="212" y="9749"><tspan fill="rgb(0,0,0)" stroke="none">10%</tspan></tspan></tspan></text>
 <text class="TextShape"><tspan class="TextParagraph" font-family="Arial, sans-serif" font-size="387px" font-weight="400"><tspan class="TextPosition" x="212" y="8691"><tspan fill="rgb(0,0,0)" stroke="none">20%</tspan></tspan></tspan></text>
 <text class="TextShape"><tspan class="TextParagraph" font-family="Arial, sans-serif" font-size="387px" font-weight="400"><tspan class="TextPosition" x="212" y="7633"><tspan fill="rgb(0,0,0)" stroke="none">30%</tspan></tspan></tspan></text>
 <text class="TextShape"><tspan class="TextParagraph" font-family="Arial, sans-serif" font-size="387px" font-weight="400"><tspan class="TextPosition" x="212" y="6576"><tspan fill="rgb(0,0,0)" stroke="none">40%</tspan></tspan></tspan></text>
 <text class="TextShape"><tspan class="TextParagraph" font-family="Arial, sans-serif" font-size="387px" font-weight="400"><tspan class="TextPosition" x="212" y="5518"><tspan fill="rgb(0,0,0)" stroke="none">50%</tspan></tspan></tspan></text>
 <text class="TextShape"><tspan class="TextParagraph" font-family="Arial, sans-serif" font-size="387px" font-weight="400"><tspan class="TextPosition" x="212" y="4460"><tspan fill="rgb(0,0,0)" stroke="none">60%</tspan></tspan></tspan></text>
 <text class="TextShape"><tspan class="TextParagraph" font-family="Arial, sans-serif" font-size="387px" font-weight="400"><tspan class="TextPosition" x="212" y="3403"><tspan fill="rgb(0,0,0)" stroke="none">70%</tspan></tspan></tspan></text>
 <text class="TextShape"><tspan class="TextParagraph" font-family="Arial, sans-serif" font-size="387px" font-weight="400"><tspan class="TextPosition" x="212" y="2345"><tspan fill="rgb(0,0,0)" stroke="none">80%</tspan></tspan></tspan></text>
 <text class="TextShape"><tspan class="TextParagraph" font-family="Arial, sans-serif" font-size="387px" font-weight="400"><tspan class="TextPosition" x="212" y="1289"><tspan fill="rgb(0,0,0)" stroke="none">90%</tspan></tspan></tspan></text>
 <text class="TextShape"><tspan class="TextParagraph" font-family="Arial, sans-serif" font-size="387px" font-weight="400"><tspan class="TextPosition" x="15713" y="10806"><tspan fill="rgb(0,0,0)" stroke="none">0%</tspan></tspan></tspan></text>
 <text class="TextShape"><tspan class="TextParagraph" font-family="Arial, sans-serif" font-size="387px" font-weight="400"><tspan class="TextPosition" x="15713" y="9749"><tspan fill="rgb(0,0,0)" stroke="none">10%</tspan></tspan></tspan></text>
 <text class="TextShape"><tspan class="TextParagraph" font-family="Arial, sans-serif" font-size="387px" font-weight="400"><tspan class="TextPosition" x="15713" y="8691"><tspan fill="rgb(0,0,0)" stroke="none">20%</tspan></tspan></tspan></text>
 <text class="TextShape"><tspan class="TextParagraph" font-family="Arial, sans-serif" font-size="387px" font-weight="400"><tspan class="TextPosition" x="15713" y="7633"><tspan fill="rgb(0,0,0)" stroke="none">30%</tspan></tspan></tspan></text>
 <text class="TextShape"><tspan class="TextParagraph" font-family="Arial, sans-serif" font-size="387px" font-weight="400"><tspan class="TextPosition" x="15713" y="6576"><tspan fill="rgb(0,0,0)" stroke="none">40%</tspan></tspan></tspan></text>
 <text class="TextShape"><tspan class="TextParagraph" font-family="Arial, sans-serif" font-size="387px" font-weight="400"><tspan class="TextPosition" x="15713" y="5518"><tspan fill="rgb(0,0,0)" stroke="none">50%</tspan></tspan></tspan></text>
 <text class="TextShape"><tspan class="TextParagraph" font-family="Arial, sans-serif" font-size="387px" font-weight="400"><tspan class="TextPosition" x="15713" y="4460"><tspan fill="rgb(0,0,0)" stroke="none">60%</tspan></tspan></tspan></text>
 <text class="TextShape"><tspan class="TextParagraph" font-family="Arial, sans-serif" font-size="387px" font-weight="400"><tspan class="TextPosition" x="15713" y="3403"><tspan fill="rgb(0,0,0)" stroke="none">70%</tspan></tspan></tspan></text>
 <text class="TextShape"><tspan class="TextParagraph" font-family="Arial, sans-serif" font-size="387px" font-weight="400"><tspan class="TextPosition" x="15713" y="2345"><tspan fill="rgb(0,0,0)" stroke="none">80%</tspan></tspan></tspan></text>
 <text class="TextShape"><tspan class="TextParagraph" font-family="Arial, sans-serif" font-size="387px" font-weight="400"><tspan class="TextPosition" x="15713" y="1289"><tspan fill="rgb(0,0,0)" stroke="none">90%</tspan></tspan></tspan></text>
 <text class="TextShape"><tspan class="TextParagraph" font-family="Arial, sans-serif" font-size="634px" font-weight="700"><tspan class="TextPosition" x="3491" y="746"><tspan fill="rgb(0,0,0)" stroke="none">Utilización de sistemas operativos</tspan></tspan></tspan></text>
 <path fill="none" stroke="rgb(131,202,255)" stroke-width="80" stroke-linejoin="round" d="M 1077,11850 L 1877,11850"/>
 <path fill="none" stroke="rgb(0,204,255)" stroke-width="80" stroke-linejoin="round" d="M 3294,11850 L 4094,11850"/>
 <path fill="none" stroke="rgb(0,132,209)" stroke-width="80" stroke-linejoin="round" d="M 5855,11850 L 6655,11850"/>
 <path fill="none" stroke="rgb(0,102,204)" stroke-width="80" stroke-linejoin="round" d="M 7755,11850 L 8554,11850"/>
 <path fill="none" stroke="rgb(0,69,134)" stroke-width="80" stroke-linejoin="round" d="M 9654,11850 L 10454,11850"/>
 <path fill="none" stroke="rgb(0,102,0)" stroke-width="80" stroke-linejoin="round" d="M 11766,11850 L 12566,11850"/>
 <path fill="none" stroke="rgb(255,211,32)" stroke-width="80" stroke-linejoin="round" d="M 13428,11850 L 14228,11850"/>
 <text class="TextShape"><tspan class="TextParagraph" font-family="Arial, sans-serif" font-size="387px" font-weight="400"><tspan class="TextPosition" x="1977" y="11982"><tspan fill="rgb(0,0,0)" stroke="none">Win XP</tspan></tspan></tspan></text>
 <text class="TextShape"><tspan class="TextParagraph" font-family="Arial, sans-serif" font-size="387px" font-weight="400"><tspan class="TextPosition" x="4194" y="11982"><tspan fill="rgb(0,0,0)" stroke="none">Win Vista</tspan></tspan></tspan></text>
 <text class="TextShape"><tspan class="TextParagraph" font-family="Arial, sans-serif" font-size="387px" font-weight="400"><tspan class="TextPosition" x="6755" y="11982"><tspan fill="rgb(0,0,0)" stroke="none">Win 7</tspan></tspan></tspan></text>
 <text class="TextShape"><tspan class="TextParagraph" font-family="Arial, sans-serif" font-size="387px" font-weight="400"><tspan class="TextPosition" x="8654" y="11982"><tspan fill="rgb(0,0,0)" stroke="none">Win 8</tspan></tspan></tspan></text>
 <text class="TextShape"><tspan class="TextParagraph" font-family="Arial, sans-serif" font-size="387px" font-weight="400"><tspan class="TextPosition" x="10554" y="11982"><tspan fill="rgb(0,0,0)" stroke="none">Win 10</tspan></tspan></tspan></text>
 <text class="TextShape"><tspan class="TextParagraph" font-family="Arial, sans-serif" font-size="387px" font-weight="400"><tspan class="TextPosition" x="12666" y="11982"><tspan fill="rgb(0,0,0)" stroke="none">Mac</tspan></tspan></tspan></text>
 <text class="TextShape"><tspan class="TextParagraph" font-family="Arial, sans-serif" font-size="387px" font-weight="400"><tspan class="TextPosition" x="14328" y="11982"><tspan fill="rgb(0,0,0)" stroke="none">Móviles</tspan></tspan></tspan></text>
</svg>
