<?xml version="1.0" encoding="UTF-8"?>
<!DOCTYPE svg PUBLIC "-//W3C//DTD SVG 1.1//EN" "http://www.w3.org/Graphics/SVG/1.1/DTD/svg11.dtd">
<svg width="165mm" height="123mm" viewBox="0 0 16500 12300" version="1.1" xmlns="http://www.w3.org/2000/svg" stroke-width="28.222" stroke-linejoin="round" xml:space="preserve">
 <path fill="rgb(255,255,255)" stroke="none" d="M 8256,12341 L 24,12341 24,0 16487,0 16487,12341 8256,12341 Z"/>
 <path fill="none" stroke="rgb(179,179,179)" stroke-linejoin="round" d="M 8231,10559 L 1371,10559 1371,931 15090,931 15090,10559 8231,10559 Z"/>
 <path fill="none" stroke="rgb(179,179,179)" stroke-linejoin="round" d="M 15090,10558 L 1371,10558"/>
 <path fill="none" stroke="rgb(179,179,179)" stroke-linejoin="round" d="M 15090,9595 L 1371,9595"/>
 <path fill="none" stroke="rgb(179,179,179)" stroke-linejoin="round" d="M 15090,8632 L 1371,8632"/>
 <path fill="none" stroke="rgb(179,179,179)" stroke-linejoin="round" d="M 15090,7669 L 1371,7669"/>
 <path fill="none" stroke="rgb(179,179,179)" stroke-linejoin="round" d="M 15090,6706 L 1371,6706"/>
 <path fill="none" stroke="rgb(179,179,179)" stroke-linejoin="round" d="M 15090,5744 L 1371,5744"/>
 <path fill="none" stroke="rgb(179,179,179)" stroke-linejoin="round" d="M 15090,4781 L 1371,4781"/>
 <path fill="none" stroke="rgb(179,179,179)" stroke-linejoin="round" d="M 15090,3818 L 1371,3818"/>
 <path fill="none" stroke="rgb(179,179,179)" stroke-linejoin="round" d="M 15090,2855 L 1371,2855"/>
 <path fill="none" stroke="rgb(179,179,179)" stroke-linejoin="round" d="M 15090,1892 L 1371,1892"/>
 <path fill="none" stroke="rgb(179,179,179)" stroke-linejoin="round" d="M 15090,930 L 1371,930"/>
 <path fill="none" stroke="rgb(0,0,0)" stroke-linejoin="round" d="M 1371,10708 L 1371,10558"/>
 <path fill="none" stroke="rgb(0,0,0)" stroke-linejoin="round" d="M 1371,10708 L 1371,10558"/>
 <path fill="none" stroke="rgb(0,0,0)" stroke-linejoin="round" d="M 1488,10708 L 1488,10558"/>
 <path fill="none" stroke="rgb(0,0,0)" stroke-linejoin="round" d="M 1488,10708 L 1488,10558"/>
 <path fill="none" stroke="rgb(0,0,0)" stroke-linejoin="round" d="M 1605,10708 L 1605,10558"/>
 <path fill="none" stroke="rgb(0,0,0)" stroke-linejoin="round" d="M 1605,10708 L 1605,10558"/>
 <path fill="none" stroke="rgb(0,0,0)" stroke-linejoin="round" d="M 1722,10708 L 1722,10558"/>
 <path fill="none" stroke="rgb(0,0,0)" stroke-linejoin="round" d="M 1722,10708 L 1722,10558"/>
 <path fill="none" stroke="rgb(0,0,0)" stroke-linejoin="round" d="M 1840,10708 L 1840,10558"/>
 <path fill="none" stroke="rgb(0,0,0)" stroke-linejoin="round" d="M 1840,10708 L 1840,10558"/>
 <path fill="none" stroke="rgb(0,0,0)" stroke-linejoin="round" d="M 1957,10708 L 1957,10558"/>
 <path fill="none" stroke="rgb(0,0,0)" stroke-linejoin="round" d="M 1957,10708 L 1957,10558"/>
 <path fill="none" stroke="rgb(0,0,0)" stroke-linejoin="round" d="M 2074,10708 L 2074,10558"/>
 <path fill="none" stroke="rgb(0,0,0)" stroke-linejoin="round" d="M 2074,10708 L 2074,10558"/>
 <path fill="none" stroke="rgb(0,0,0)" stroke-linejoin="round" d="M 2191,10708 L 2191,10558"/>
 <path fill="none" stroke="rgb(0,0,0)" stroke-linejoin="round" d="M 2191,10708 L 2191,10558"/>
 <path fill="none" stroke="rgb(0,0,0)" stroke-linejoin="round" d="M 2309,10708 L 2309,10558"/>
 <path fill="none" stroke="rgb(0,0,0)" stroke-linejoin="round" d="M 2309,10708 L 2309,10558"/>
 <path fill="none" stroke="rgb(0,0,0)" stroke-linejoin="round" d="M 2426,10708 L 2426,10558"/>
 <path fill="none" stroke="rgb(0,0,0)" stroke-linejoin="round" d="M 2426,10708 L 2426,10558"/>
 <path fill="none" stroke="rgb(0,0,0)" stroke-linejoin="round" d="M 2543,10708 L 2543,10558"/>
 <path fill="none" stroke="rgb(0,0,0)" stroke-linejoin="round" d="M 2543,10708 L 2543,10558"/>
 <path fill="none" stroke="rgb(0,0,0)" stroke-linejoin="round" d="M 2660,10708 L 2660,10558"/>
 <path fill="none" stroke="rgb(0,0,0)" stroke-linejoin="round" d="M 2660,10708 L 2660,10558"/>
 <path fill="none" stroke="rgb(0,0,0)" stroke-linejoin="round" d="M 2778,10708 L 2778,10558"/>
 <path fill="none" stroke="rgb(0,0,0)" stroke-linejoin="round" d="M 2778,10708 L 2778,10558"/>
 <path fill="none" stroke="rgb(0,0,0)" stroke-linejoin="round" d="M 2895,10708 L 2895,10558"/>
 <path fill="none" stroke="rgb(0,0,0)" stroke-linejoin="round" d="M 2895,10708 L 2895,10558"/>
 <path fill="none" stroke="rgb(0,0,0)" stroke-linejoin="round" d="M 3012,10708 L 3012,10558"/>
 <path fill="none" stroke="rgb(0,0,0)" stroke-linejoin="round" d="M 3012,10708 L 3012,10558"/>
 <path fill="none" stroke="rgb(0,0,0)" stroke-linejoin="round" d="M 3129,10708 L 3129,10558"/>
 <path fill="none" stroke="rgb(0,0,0)" stroke-linejoin="round" d="M 3129,10708 L 3129,10558"/>
 <path fill="none" stroke="rgb(0,0,0)" stroke-linejoin="round" d="M 3247,10708 L 3247,10558"/>
 <path fill="none" stroke="rgb(0,0,0)" stroke-linejoin="round" d="M 3247,10708 L 3247,10558"/>
 <path fill="none" stroke="rgb(0,0,0)" stroke-linejoin="round" d="M 3364,10708 L 3364,10558"/>
 <path fill="none" stroke="rgb(0,0,0)" stroke-linejoin="round" d="M 3364,10708 L 3364,10558"/>
 <path fill="none" stroke="rgb(0,0,0)" stroke-linejoin="round" d="M 3481,10708 L 3481,10558"/>
 <path fill="none" stroke="rgb(0,0,0)" stroke-linejoin="round" d="M 3481,10708 L 3481,10558"/>
 <path fill="none" stroke="rgb(0,0,0)" stroke-linejoin="round" d="M 3599,10708 L 3599,10558"/>
 <path fill="none" stroke="rgb(0,0,0)" stroke-linejoin="round" d="M 3599,10708 L 3599,10558"/>
 <path fill="none" stroke="rgb(0,0,0)" stroke-linejoin="round" d="M 3716,10708 L 3716,10558"/>
 <path fill="none" stroke="rgb(0,0,0)" stroke-linejoin="round" d="M 3716,10708 L 3716,10558"/>
 <path fill="none" stroke="rgb(0,0,0)" stroke-linejoin="round" d="M 3833,10708 L 3833,10558"/>
 <path fill="none" stroke="rgb(0,0,0)" stroke-linejoin="round" d="M 3833,10708 L 3833,10558"/>
 <path fill="none" stroke="rgb(0,0,0)" stroke-linejoin="round" d="M 3950,10708 L 3950,10558"/>
 <path fill="none" stroke="rgb(0,0,0)" stroke-linejoin="round" d="M 3950,10708 L 3950,10558"/>
 <path fill="none" stroke="rgb(0,0,0)" stroke-linejoin="round" d="M 4068,10708 L 4068,10558"/>
 <path fill="none" stroke="rgb(0,0,0)" stroke-linejoin="round" d="M 4068,10708 L 4068,10558"/>
 <path fill="none" stroke="rgb(0,0,0)" stroke-linejoin="round" d="M 4185,10708 L 4185,10558"/>
 <path fill="none" stroke="rgb(0,0,0)" stroke-linejoin="round" d="M 4185,10708 L 4185,10558"/>
 <path fill="none" stroke="rgb(0,0,0)" stroke-linejoin="round" d="M 4302,10708 L 4302,10558"/>
 <path fill="none" stroke="rgb(0,0,0)" stroke-linejoin="round" d="M 4302,10708 L 4302,10558"/>
 <path fill="none" stroke="rgb(0,0,0)" stroke-linejoin="round" d="M 4419,10708 L 4419,10558"/>
 <path fill="none" stroke="rgb(0,0,0)" stroke-linejoin="round" d="M 4419,10708 L 4419,10558"/>
 <path fill="none" stroke="rgb(0,0,0)" stroke-linejoin="round" d="M 4537,10708 L 4537,10558"/>
 <path fill="none" stroke="rgb(0,0,0)" stroke-linejoin="round" d="M 4537,10708 L 4537,10558"/>
 <path fill="none" stroke="rgb(0,0,0)" stroke-linejoin="round" d="M 4654,10708 L 4654,10558"/>
 <path fill="none" stroke="rgb(0,0,0)" stroke-linejoin="round" d="M 4654,10708 L 4654,10558"/>
 <path fill="none" stroke="rgb(0,0,0)" stroke-linejoin="round" d="M 4771,10708 L 4771,10558"/>
 <path fill="none" stroke="rgb(0,0,0)" stroke-linejoin="round" d="M 4771,10708 L 4771,10558"/>
 <path fill="none" stroke="rgb(0,0,0)" stroke-linejoin="round" d="M 4888,10708 L 4888,10558"/>
 <path fill="none" stroke="rgb(0,0,0)" stroke-linejoin="round" d="M 4888,10708 L 4888,10558"/>
 <path fill="none" stroke="rgb(0,0,0)" stroke-linejoin="round" d="M 5006,10708 L 5006,10558"/>
 <path fill="none" stroke="rgb(0,0,0)" stroke-linejoin="round" d="M 5006,10708 L 5006,10558"/>
 <path fill="none" stroke="rgb(0,0,0)" stroke-linejoin="round" d="M 5123,10708 L 5123,10558"/>
 <path fill="none" stroke="rgb(0,0,0)" stroke-linejoin="round" d="M 5123,10708 L 5123,10558"/>
 <path fill="none" stroke="rgb(0,0,0)" stroke-linejoin="round" d="M 5240,10708 L 5240,10558"/>
 <path fill="none" stroke="rgb(0,0,0)" stroke-linejoin="round" d="M 5240,10708 L 5240,10558"/>
 <path fill="none" stroke="rgb(0,0,0)" stroke-linejoin="round" d="M 5358,10708 L 5358,10558"/>
 <path fill="none" stroke="rgb(0,0,0)" stroke-linejoin="round" d="M 5358,10708 L 5358,10558"/>
 <path fill="none" stroke="rgb(0,0,0)" stroke-linejoin="round" d="M 5475,10708 L 5475,10558"/>
 <path fill="none" stroke="rgb(0,0,0)" stroke-linejoin="round" d="M 5475,10708 L 5475,10558"/>
 <path fill="none" stroke="rgb(0,0,0)" stroke-linejoin="round" d="M 5592,10708 L 5592,10558"/>
 <path fill="none" stroke="rgb(0,0,0)" stroke-linejoin="round" d="M 5592,10708 L 5592,10558"/>
 <path fill="none" stroke="rgb(0,0,0)" stroke-linejoin="round" d="M 5709,10708 L 5709,10558"/>
 <path fill="none" stroke="rgb(0,0,0)" stroke-linejoin="round" d="M 5709,10708 L 5709,10558"/>
 <path fill="none" stroke="rgb(0,0,0)" stroke-linejoin="round" d="M 5827,10708 L 5827,10558"/>
 <path fill="none" stroke="rgb(0,0,0)" stroke-linejoin="round" d="M 5827,10708 L 5827,10558"/>
 <path fill="none" stroke="rgb(0,0,0)" stroke-linejoin="round" d="M 5944,10708 L 5944,10558"/>
 <path fill="none" stroke="rgb(0,0,0)" stroke-linejoin="round" d="M 5944,10708 L 5944,10558"/>
 <path fill="none" stroke="rgb(0,0,0)" stroke-linejoin="round" d="M 6061,10708 L 6061,10558"/>
 <path fill="none" stroke="rgb(0,0,0)" stroke-linejoin="round" d="M 6061,10708 L 6061,10558"/>
 <path fill="none" stroke="rgb(0,0,0)" stroke-linejoin="round" d="M 6178,10708 L 6178,10558"/>
 <path fill="none" stroke="rgb(0,0,0)" stroke-linejoin="round" d="M 6178,10708 L 6178,10558"/>
 <path fill="none" stroke="rgb(0,0,0)" stroke-linejoin="round" d="M 6296,10708 L 6296,10558"/>
 <path fill="none" stroke="rgb(0,0,0)" stroke-linejoin="round" d="M 6296,10708 L 6296,10558"/>
 <path fill="none" stroke="rgb(0,0,0)" stroke-linejoin="round" d="M 6413,10708 L 6413,10558"/>
 <path fill="none" stroke="rgb(0,0,0)" stroke-linejoin="round" d="M 6413,10708 L 6413,10558"/>
 <path fill="none" stroke="rgb(0,0,0)" stroke-linejoin="round" d="M 6530,10708 L 6530,10558"/>
 <path fill="none" stroke="rgb(0,0,0)" stroke-linejoin="round" d="M 6530,10708 L 6530,10558"/>
 <path fill="none" stroke="rgb(0,0,0)" stroke-linejoin="round" d="M 6647,10708 L 6647,10558"/>
 <path fill="none" stroke="rgb(0,0,0)" stroke-linejoin="round" d="M 6647,10708 L 6647,10558"/>
 <path fill="none" stroke="rgb(0,0,0)" stroke-linejoin="round" d="M 6765,10708 L 6765,10558"/>
 <path fill="none" stroke="rgb(0,0,0)" stroke-linejoin="round" d="M 6765,10708 L 6765,10558"/>
 <path fill="none" stroke="rgb(0,0,0)" stroke-linejoin="round" d="M 6882,10708 L 6882,10558"/>
 <path fill="none" stroke="rgb(0,0,0)" stroke-linejoin="round" d="M 6882,10708 L 6882,10558"/>
 <path fill="none" stroke="rgb(0,0,0)" stroke-linejoin="round" d="M 6999,10708 L 6999,10558"/>
 <path fill="none" stroke="rgb(0,0,0)" stroke-linejoin="round" d="M 6999,10708 L 6999,10558"/>
 <path fill="none" stroke="rgb(0,0,0)" stroke-linejoin="round" d="M 7116,10708 L 7116,10558"/>
 <path fill="none" stroke="rgb(0,0,0)" stroke-linejoin="round" d="M 7116,10708 L 7116,10558"/>
 <path fill="none" stroke="rgb(0,0,0)" stroke-linejoin="round" d="M 7234,10708 L 7234,10558"/>
 <path fill="none" stroke="rgb(0,0,0)" stroke-linejoin="round" d="M 7234,10708 L 7234,10558"/>
 <path fill="none" stroke="rgb(0,0,0)" stroke-linejoin="round" d="M 7351,10708 L 7351,10558"/>
 <path fill="none" stroke="rgb(0,0,0)" stroke-linejoin="round" d="M 7351,10708 L 7351,10558"/>
 <path fill="none" stroke="rgb(0,0,0)" stroke-linejoin="round" d="M 7468,10708 L 7468,10558"/>
 <path fill="none" stroke="rgb(0,0,0)" stroke-linejoin="round" d="M 7468,10708 L 7468,10558"/>
 <path fill="none" stroke="rgb(0,0,0)" stroke-linejoin="round" d="M 7586,10708 L 7586,10558"/>
 <path fill="none" stroke="rgb(0,0,0)" stroke-linejoin="round" d="M 7586,10708 L 7586,10558"/>
 <path fill="none" stroke="rgb(0,0,0)" stroke-linejoin="round" d="M 7703,10708 L 7703,10558"/>
 <path fill="none" stroke="rgb(0,0,0)" stroke-linejoin="round" d="M 7703,10708 L 7703,10558"/>
 <path fill="none" stroke="rgb(0,0,0)" stroke-linejoin="round" d="M 7820,10708 L 7820,10558"/>
 <path fill="none" stroke="rgb(0,0,0)" stroke-linejoin="round" d="M 7820,10708 L 7820,10558"/>
 <path fill="none" stroke="rgb(0,0,0)" stroke-linejoin="round" d="M 7937,10708 L 7937,10558"/>
 <path fill="none" stroke="rgb(0,0,0)" stroke-linejoin="round" d="M 7937,10708 L 7937,10558"/>
 <path fill="none" stroke="rgb(0,0,0)" stroke-linejoin="round" d="M 8055,10708 L 8055,10558"/>
 <path fill="none" stroke="rgb(0,0,0)" stroke-linejoin="round" d="M 8055,10708 L 8055,10558"/>
 <path fill="none" stroke="rgb(0,0,0)" stroke-linejoin="round" d="M 8172,10708 L 8172,10558"/>
 <path fill="none" stroke="rgb(0,0,0)" stroke-linejoin="round" d="M 8172,10708 L 8172,10558"/>
 <path fill="none" stroke="rgb(0,0,0)" stroke-linejoin="round" d="M 8288,10708 L 8288,10558"/>
 <path fill="none" stroke="rgb(0,0,0)" stroke-linejoin="round" d="M 8288,10708 L 8288,10558"/>
 <path fill="none" stroke="rgb(0,0,0)" stroke-linejoin="round" d="M 8405,10708 L 8405,10558"/>
 <path fill="none" stroke="rgb(0,0,0)" stroke-linejoin="round" d="M 8405,10708 L 8405,10558"/>
 <path fill="none" stroke="rgb(0,0,0)" stroke-linejoin="round" d="M 8523,10708 L 8523,10558"/>
 <path fill="none" stroke="rgb(0,0,0)" stroke-linejoin="round" d="M 8523,10708 L 8523,10558"/>
 <path fill="none" stroke="rgb(0,0,0)" stroke-linejoin="round" d="M 8640,10708 L 8640,10558"/>
 <path fill="none" stroke="rgb(0,0,0)" stroke-linejoin="round" d="M 8640,10708 L 8640,10558"/>
 <path fill="none" stroke="rgb(0,0,0)" stroke-linejoin="round" d="M 8757,10708 L 8757,10558"/>
 <path fill="none" stroke="rgb(0,0,0)" stroke-linejoin="round" d="M 8757,10708 L 8757,10558"/>
 <path fill="none" stroke="rgb(0,0,0)" stroke-linejoin="round" d="M 8874,10708 L 8874,10558"/>
 <path fill="none" stroke="rgb(0,0,0)" stroke-linejoin="round" d="M 8874,10708 L 8874,10558"/>
 <path fill="none" stroke="rgb(0,0,0)" stroke-linejoin="round" d="M 8992,10708 L 8992,10558"/>
 <path fill="none" stroke="rgb(0,0,0)" stroke-linejoin="round" d="M 8992,10708 L 8992,10558"/>
 <path fill="none" stroke="rgb(0,0,0)" stroke-linejoin="round" d="M 9109,10708 L 9109,10558"/>
 <path fill="none" stroke="rgb(0,0,0)" stroke-linejoin="round" d="M 9109,10708 L 9109,10558"/>
 <path fill="none" stroke="rgb(0,0,0)" stroke-linejoin="round" d="M 9226,10708 L 9226,10558"/>
 <path fill="none" stroke="rgb(0,0,0)" stroke-linejoin="round" d="M 9226,10708 L 9226,10558"/>
 <path fill="none" stroke="rgb(0,0,0)" stroke-linejoin="round" d="M 9344,10708 L 9344,10558"/>
 <path fill="none" stroke="rgb(0,0,0)" stroke-linejoin="round" d="M 9344,10708 L 9344,10558"/>
 <path fill="none" stroke="rgb(0,0,0)" stroke-linejoin="round" d="M 9461,10708 L 9461,10558"/>
 <path fill="none" stroke="rgb(0,0,0)" stroke-linejoin="round" d="M 9461,10708 L 9461,10558"/>
 <path fill="none" stroke="rgb(0,0,0)" stroke-linejoin="round" d="M 9578,10708 L 9578,10558"/>
 <path fill="none" stroke="rgb(0,0,0)" stroke-linejoin="round" d="M 9578,10708 L 9578,10558"/>
 <path fill="none" stroke="rgb(0,0,0)" stroke-linejoin="round" d="M 9695,10708 L 9695,10558"/>
 <path fill="none" stroke="rgb(0,0,0)" stroke-linejoin="round" d="M 9695,10708 L 9695,10558"/>
 <path fill="none" stroke="rgb(0,0,0)" stroke-linejoin="round" d="M 9813,10708 L 9813,10558"/>
 <path fill="none" stroke="rgb(0,0,0)" stroke-linejoin="round" d="M 9813,10708 L 9813,10558"/>
 <path fill="none" stroke="rgb(0,0,0)" stroke-linejoin="round" d="M 9930,10708 L 9930,10558"/>
 <path fill="none" stroke="rgb(0,0,0)" stroke-linejoin="round" d="M 9930,10708 L 9930,10558"/>
 <path fill="none" stroke="rgb(0,0,0)" stroke-linejoin="round" d="M 10047,10708 L 10047,10558"/>
 <path fill="none" stroke="rgb(0,0,0)" stroke-linejoin="round" d="M 10047,10708 L 10047,10558"/>
 <path fill="none" stroke="rgb(0,0,0)" stroke-linejoin="round" d="M 10164,10708 L 10164,10558"/>
 <path fill="none" stroke="rgb(0,0,0)" stroke-linejoin="round" d="M 10164,10708 L 10164,10558"/>
 <path fill="none" stroke="rgb(0,0,0)" stroke-linejoin="round" d="M 10282,10708 L 10282,10558"/>
 <path fill="none" stroke="rgb(0,0,0)" stroke-linejoin="round" d="M 10282,10708 L 10282,10558"/>
 <path fill="none" stroke="rgb(0,0,0)" stroke-linejoin="round" d="M 10399,10708 L 10399,10558"/>
 <path fill="none" stroke="rgb(0,0,0)" stroke-linejoin="round" d="M 10399,10708 L 10399,10558"/>
 <path fill="none" stroke="rgb(0,0,0)" stroke-linejoin="round" d="M 10516,10708 L 10516,10558"/>
 <path fill="none" stroke="rgb(0,0,0)" stroke-linejoin="round" d="M 10516,10708 L 10516,10558"/>
 <path fill="none" stroke="rgb(0,0,0)" stroke-linejoin="round" d="M 10633,10708 L 10633,10558"/>
 <path fill="none" stroke="rgb(0,0,0)" stroke-linejoin="round" d="M 10633,10708 L 10633,10558"/>
 <path fill="none" stroke="rgb(0,0,0)" stroke-linejoin="round" d="M 10751,10708 L 10751,10558"/>
 <path fill="none" stroke="rgb(0,0,0)" stroke-linejoin="round" d="M 10751,10708 L 10751,10558"/>
 <path fill="none" stroke="rgb(0,0,0)" stroke-linejoin="round" d="M 10868,10708 L 10868,10558"/>
 <path fill="none" stroke="rgb(0,0,0)" stroke-linejoin="round" d="M 10868,10708 L 10868,10558"/>
 <path fill="none" stroke="rgb(0,0,0)" stroke-linejoin="round" d="M 10985,10708 L 10985,10558"/>
 <path fill="none" stroke="rgb(0,0,0)" stroke-linejoin="round" d="M 10985,10708 L 10985,10558"/>
 <path fill="none" stroke="rgb(0,0,0)" stroke-linejoin="round" d="M 11102,10708 L 11102,10558"/>
 <path fill="none" stroke="rgb(0,0,0)" stroke-linejoin="round" d="M 11102,10708 L 11102,10558"/>
 <path fill="none" stroke="rgb(0,0,0)" stroke-linejoin="round" d="M 11220,10708 L 11220,10558"/>
 <path fill="none" stroke="rgb(0,0,0)" stroke-linejoin="round" d="M 11220,10708 L 11220,10558"/>
 <path fill="none" stroke="rgb(0,0,0)" stroke-linejoin="round" d="M 11337,10708 L 11337,10558"/>
 <path fill="none" stroke="rgb(0,0,0)" stroke-linejoin="round" d="M 11337,10708 L 11337,10558"/>
 <path fill="none" stroke="rgb(0,0,0)" stroke-linejoin="round" d="M 11454,10708 L 11454,10558"/>
 <path fill="none" stroke="rgb(0,0,0)" stroke-linejoin="round" d="M 11454,10708 L 11454,10558"/>
 <path fill="none" stroke="rgb(0,0,0)" stroke-linejoin="round" d="M 11572,10708 L 11572,10558"/>
 <path fill="none" stroke="rgb(0,0,0)" stroke-linejoin="round" d="M 11572,10708 L 11572,10558"/>
 <path fill="none" stroke="rgb(0,0,0)" stroke-linejoin="round" d="M 11689,10708 L 11689,10558"/>
 <path fill="none" stroke="rgb(0,0,0)" stroke-linejoin="round" d="M 11689,10708 L 11689,10558"/>
 <path fill="none" stroke="rgb(0,0,0)" stroke-linejoin="round" d="M 11806,10708 L 11806,10558"/>
 <path fill="none" stroke="rgb(0,0,0)" stroke-linejoin="round" d="M 11806,10708 L 11806,10558"/>
 <path fill="none" stroke="rgb(0,0,0)" stroke-linejoin="round" d="M 11923,10708 L 11923,10558"/>
 <path fill="none" stroke="rgb(0,0,0)" stroke-linejoin="round" d="M 11923,10708 L 11923,10558"/>
 <path fill="none" stroke="rgb(0,0,0)" stroke-linejoin="round" d="M 12041,10708 L 12041,10558"/>
 <path fill="none" stroke="rgb(0,0,0)" stroke-linejoin="round" d="M 12041,10708 L 12041,10558"/>
 <path fill="none" stroke="rgb(0,0,0)" stroke-linejoin="round" d="M 12158,10708 L 12158,10558"/>
 <path fill="none" stroke="rgb(0,0,0)" stroke-linejoin="round" d="M 12158,10708 L 12158,10558"/>
 <path fill="none" stroke="rgb(0,0,0)" stroke-linejoin="round" d="M 12275,10708 L 12275,10558"/>
 <path fill="none" stroke="rgb(0,0,0)" stroke-linejoin="round" d="M 12275,10708 L 12275,10558"/>
 <path fill="none" stroke="rgb(0,0,0)" stroke-linejoin="round" d="M 12392,10708 L 12392,10558"/>
 <path fill="none" stroke="rgb(0,0,0)" stroke-linejoin="round" d="M 12392,10708 L 12392,10558"/>
 <path fill="none" stroke="rgb(0,0,0)" stroke-linejoin="round" d="M 12510,10708 L 12510,10558"/>
 <path fill="none" stroke="rgb(0,0,0)" stroke-linejoin="round" d="M 12510,10708 L 12510,10558"/>
 <path fill="none" stroke="rgb(0,0,0)" stroke-linejoin="round" d="M 12627,10708 L 12627,10558"/>
 <path fill="none" stroke="rgb(0,0,0)" stroke-linejoin="round" d="M 12627,10708 L 12627,10558"/>
 <path fill="none" stroke="rgb(0,0,0)" stroke-linejoin="round" d="M 12744,10708 L 12744,10558"/>
 <path fill="none" stroke="rgb(0,0,0)" stroke-linejoin="round" d="M 12744,10708 L 12744,10558"/>
 <path fill="none" stroke="rgb(0,0,0)" stroke-linejoin="round" d="M 12861,10708 L 12861,10558"/>
 <path fill="none" stroke="rgb(0,0,0)" stroke-linejoin="round" d="M 12861,10708 L 12861,10558"/>
 <path fill="none" stroke="rgb(0,0,0)" stroke-linejoin="round" d="M 12979,10708 L 12979,10558"/>
 <path fill="none" stroke="rgb(0,0,0)" stroke-linejoin="round" d="M 12979,10708 L 12979,10558"/>
 <path fill="none" stroke="rgb(0,0,0)" stroke-linejoin="round" d="M 13096,10708 L 13096,10558"/>
 <path fill="none" stroke="rgb(0,0,0)" stroke-linejoin="round" d="M 13096,10708 L 13096,10558"/>
 <path fill="none" stroke="rgb(0,0,0)" stroke-linejoin="round" d="M 13213,10708 L 13213,10558"/>
 <path fill="none" stroke="rgb(0,0,0)" stroke-linejoin="round" d="M 13213,10708 L 13213,10558"/>
 <path fill="none" stroke="rgb(0,0,0)" stroke-linejoin="round" d="M 13331,10708 L 13331,10558"/>
 <path fill="none" stroke="rgb(0,0,0)" stroke-linejoin="round" d="M 13331,10708 L 13331,10558"/>
 <path fill="none" stroke="rgb(0,0,0)" stroke-linejoin="round" d="M 13448,10708 L 13448,10558"/>
 <path fill="none" stroke="rgb(0,0,0)" stroke-linejoin="round" d="M 13448,10708 L 13448,10558"/>
 <path fill="none" stroke="rgb(0,0,0)" stroke-linejoin="round" d="M 13565,10708 L 13565,10558"/>
 <path fill="none" stroke="rgb(0,0,0)" stroke-linejoin="round" d="M 13565,10708 L 13565,10558"/>
 <path fill="none" stroke="rgb(0,0,0)" stroke-linejoin="round" d="M 13682,10708 L 13682,10558"/>
 <path fill="none" stroke="rgb(0,0,0)" stroke-linejoin="round" d="M 13682,10708 L 13682,10558"/>
 <path fill="none" stroke="rgb(0,0,0)" stroke-linejoin="round" d="M 13800,10708 L 13800,10558"/>
 <path fill="none" stroke="rgb(0,0,0)" stroke-linejoin="round" d="M 13800,10708 L 13800,10558"/>
 <path fill="none" stroke="rgb(0,0,0)" stroke-linejoin="round" d="M 13917,10708 L 13917,10558"/>
 <path fill="none" stroke="rgb(0,0,0)" stroke-linejoin="round" d="M 13917,10708 L 13917,10558"/>
 <path fill="none" stroke="rgb(0,0,0)" stroke-linejoin="round" d="M 14034,10708 L 14034,10558"/>
 <path fill="none" stroke="rgb(0,0,0)" stroke-linejoin="round" d="M 14034,10708 L 14034,10558"/>
 <path fill="none" stroke="rgb(0,0,0)" stroke-linejoin="round" d="M 14151,10708 L 14151,10558"/>
 <path fill="none" stroke="rgb(0,0,0)" stroke-linejoin="round" d="M 14151,10708 L 14151,10558"/>
 <path fill="none" stroke="rgb(0,0,0)" stroke-linejoin="round" d="M 14269,10708 L 14269,10558"/>
 <path fill="none" stroke="rgb(0,0,0)" stroke-linejoin="round" d="M 14269,10708 L 14269,10558"/>
 <path fill="none" stroke="rgb(0,0,0)" stroke-linejoin="round" d="M 14386,10708 L 14386,10558"/>
 <path fill="none" stroke="rgb(0,0,0)" stroke-linejoin="round" d="M 14386,10708 L 14386,10558"/>
 <path fill="none" stroke="rgb(0,0,0)" stroke-linejoin="round" d="M 14503,10708 L 14503,10558"/>
 <path fill="none" stroke="rgb(0,0,0)" stroke-linejoin="round" d="M 14503,10708 L 14503,10558"/>
 <path fill="none" stroke="rgb(0,0,0)" stroke-linejoin="round" d="M 14620,10708 L 14620,10558"/>
 <path fill="none" stroke="rgb(0,0,0)" stroke-linejoin="round" d="M 14620,10708 L 14620,10558"/>
 <path fill="none" stroke="rgb(0,0,0)" stroke-linejoin="round" d="M 14738,10708 L 14738,10558"/>
 <path fill="none" stroke="rgb(0,0,0)" stroke-linejoin="round" d="M 14738,10708 L 14738,10558"/>
 <path fill="none" stroke="rgb(0,0,0)" stroke-linejoin="round" d="M 14855,10708 L 14855,10558"/>
 <path fill="none" stroke="rgb(0,0,0)" stroke-linejoin="round" d="M 14855,10708 L 14855,10558"/>
 <path fill="none" stroke="rgb(0,0,0)" stroke-linejoin="round" d="M 14972,10708 L 14972,10558"/>
 <path fill="none" stroke="rgb(0,0,0)" stroke-linejoin="round" d="M 14972,10708 L 14972,10558"/>
 <path fill="none" stroke="rgb(0,0,0)" stroke-linejoin="round" d="M 15090,10708 L 15090,10558"/>
 <path fill="none" stroke="rgb(0,0,0)" stroke-linejoin="round" d="M 15090,10708 L 15090,10558"/>
 <path fill="none" stroke="rgb(0,0,0)" stroke-linejoin="round" d="M 1371,10558 L 15090,10558"/>
 <path fill="none" stroke="rgb(0,0,0)" stroke-linejoin="round" d="M 1221,10558 L 1371,10558"/>
 <path fill="none" stroke="rgb(0,0,0)" stroke-linejoin="round" d="M 1221,10558 L 1371,10558"/>
 <path fill="none" stroke="rgb(0,0,0)" stroke-linejoin="round" d="M 1221,9595 L 1371,9595"/>
 <path fill="none" stroke="rgb(0,0,0)" stroke-linejoin="round" d="M 1221,9595 L 1371,9595"/>
 <path fill="none" stroke="rgb(0,0,0)" stroke-linejoin="round" d="M 1221,8632 L 1371,8632"/>
 <path fill="none" stroke="rgb(0,0,0)" stroke-linejoin="round" d="M 1221,8632 L 1371,8632"/>
 <path fill="none" stroke="rgb(0,0,0)" stroke-linejoin="round" d="M 1221,7669 L 1371,7669"/>
 <path fill="none" stroke="rgb(0,0,0)" stroke-linejoin="round" d="M 1221,7669 L 1371,7669"/>
 <path fill="none" stroke="rgb(0,0,0)" stroke-linejoin="round" d="M 1221,6706 L 1371,6706"/>
 <path fill="none" stroke="rgb(0,0,0)" stroke-linejoin="round" d="M 1221,6706 L 1371,6706"/>
 <path fill="none" stroke="rgb(0,0,0)" stroke-linejoin="round" d="M 1221,5744 L 1371,5744"/>
 <path fill="none" stroke="rgb(0,0,0)" stroke-linejoin="round" d="M 1221,5744 L 1371,5744"/>
 <path fill="none" stroke="rgb(0,0,0)" stroke-linejoin="round" d="M 1221,4781 L 1371,4781"/>
 <path fill="none" stroke="rgb(0,0,0)" stroke-linejoin="round" d="M 1221,4781 L 1371,4781"/>
 <path fill="none" stroke="rgb(0,0,0)" stroke-linejoin="round" d="M 1221,3818 L 1371,3818"/>
 <path fill="none" stroke="rgb(0,0,0)" stroke-linejoin="round" d="M 1221,3818 L 1371,3818"/>
 <path fill="none" stroke="rgb(0,0,0)" stroke-linejoin="round" d="M 1221,2855 L 1371,2855"/>
 <path fill="none" stroke="rgb(0,0,0)" stroke-linejoin="round" d="M 1221,2855 L 1371,2855"/>
 <path fill="none" stroke="rgb(0,0,0)" stroke-linejoin="round" d="M 1221,1892 L 1371,1892"/>
 <path fill="none" stroke="rgb(0,0,0)" stroke-linejoin="round" d="M 1221,1892 L 1371,1892"/>
 <path fill="none" stroke="rgb(0,0,0)" stroke-linejoin="round" d="M 1221,930 L 1371,930"/>
 <path fill="none" stroke="rgb(0,0,0)" stroke-linejoin="round" d="M 1221,930 L 1371,930"/>
 <path fill="none" stroke="rgb(0,0,0)" stroke-linejoin="round" d="M 1371,10558 L 1371,930"/>
 <path fill="none" stroke="rgb(0,0,0)" stroke-linejoin="round" d="M 15240,10558 L 15090,10558"/>
 <path fill="none" stroke="rgb(0,0,0)" stroke-linejoin="round" d="M 15240,10558 L 15090,10558"/>
 <path fill="none" stroke="rgb(0,0,0)" stroke-linejoin="round" d="M 15240,9595 L 15090,9595"/>
 <path fill="none" stroke="rgb(0,0,0)" stroke-linejoin="round" d="M 15240,9595 L 15090,9595"/>
 <path fill="none" stroke="rgb(0,0,0)" stroke-linejoin="round" d="M 15240,8632 L 15090,8632"/>
 <path fill="none" stroke="rgb(0,0,0)" stroke-linejoin="round" d="M 15240,8632 L 15090,8632"/>
 <path fill="none" stroke="rgb(0,0,0)" stroke-linejoin="round" d="M 15240,7669 L 15090,7669"/>
 <path fill="none" stroke="rgb(0,0,0)" stroke-linejoin="round" d="M 15240,7669 L 15090,7669"/>
 <path fill="none" stroke="rgb(0,0,0)" stroke-linejoin="round" d="M 15240,6706 L 15090,6706"/>
 <path fill="none" stroke="rgb(0,0,0)" stroke-linejoin="round" d="M 15240,6706 L 15090,6706"/>
 <path fill="none" stroke="rgb(0,0,0)" stroke-linejoin="round" d="M 15240,5744 L 15090,5744"/>
 <path fill="none" stroke="rgb(0,0,0)" stroke-linejoin="round" d="M 15240,5744 L 15090,5744"/>
 <path fill="none" stroke="rgb(0,0,0)" stroke-linejoin="round" d="M 15240,4781 L 15090,4781"/>
 <path fill="none" stroke="rgb(0,0,0)" stroke-linejoin="round" d="M 15240,4781 L 15090,4781"/>
 <path fill="none" stroke="rgb(0,0,0)" stroke-linejoin="round" d="M 15240,3818 L 15090,3818"/>
 <path fill="none" stroke="rgb(0,0,0)" stroke-linejoin="round" d="M 15240,3818 L 15090,3818"/>
 <path fill="none" stroke="rgb(0,0,0)" stroke-linejoin="round" d="M 15240,2855 L 15090,2855"/>
 <path fill="none" stroke="rgb(0,0,0)" stroke-linejoin="round" d="M 15240,2855 L 15090,2855"/>
 <path fill="none" stroke="rgb(0,0,0)" stroke-linejoin="round" d="M 15240,1892 L 15090,1892"/>
 <path fill="none" stroke="rgb(0,0,0)" stroke-linejoin="round" d="M 15240,1892 L 15090,1892"/>
 <path fill="none" stroke="rgb(0,0,0)" stroke-linejoin="round" d="M 15240,930 L 15090,930"/>
 <path fill="none" stroke="rgb(0,0,0)" stroke-linejoin="round" d="M 15240,930 L 15090,930"/>
 <path fill="none" stroke="rgb(0,0,0)" stroke-linejoin="round" d="M 15090,10558 L 15090,930"/>
 <path fill="rgb(0,69,134)" stroke="none" d="M 1371,10435 L 1488,10447 1605,10457 1722,10467 1840,10468 1957,10438 2074,10470 2191,10491 2309,10498 2426,10502 2543,10506 2660,10510 2778,10558 2895,10558 3012,10558 3129,10558 3247,10558 3364,10558 3481,10558 3599,10558 3716,10558 3833,10558 3950,10558 4068,10558 4185,10558 4302,10558 4419,10558 4537,10558 4654,10558 4771,10558 4888,10558 5006,10558 5123,10558 5240,10558 5358,10558 5475,10558 5592,10558 5709,10558 5827,10558 5944,10558 6061,10558 6178,10558 6296,10558 6413,10558 6530,10558 6647,10558 6765,10558 6882,10558 6999,10558 7116,10558 7234,10558 7351,10558 7468,10558 7586,10558 7703,10558 7820,10558 7937,10558 8055,10558 8172,10558 8288,10558 8405,10558 8523,10558 8640,10558 8757,10558 8874,10558 8992,10558 9109,10558 9226,10558 9344,10558 9461,10558 9578,10558 9695,10558 9813,10558 9930,10558 10047,10558 10164,10558 10282,10558 10399,10558 10516,10558 10633,10558 10751,10558 10868,10558 10985,10558 11102,10558 11220,10558 11337,10558 11454,10558 11572,10558 11689,10558 11806,10558 11923,10558 12041,10558 12158,10558 12275,10558 12392,10558 12510,10558 12627,10558 12744,10558 12861,10558 12979,10558 13096,10558 13213,10558 13331,10558 13448,10558 13565,10558 13682,10558 13800,10558 13917,10558 14034,10558 14151,10558 14269,10558 14386,10558 14503,10558 14620,10558 14738,10558 14855,10558 14972,10558 15090,10558 15090,10558 1371,10558 1371,10435 Z"/>
 <path fill="none" stroke="rgb(0,0,0)" stroke-linejoin="round" d="M 1371,10435 L 1488,10447 1605,10457 1722,10467 1840,10468 1957,10438 2074,10470 2191,10491 2309,10498 2426,10502 2543,10506 2660,10510 2778,10558 2895,10558 3012,10558 3129,10558 3247,10558 3364,10558 3481,10558 3599,10558 3716,10558 3833,10558 3950,10558 4068,10558 4185,10558 4302,10558 4419,10558 4537,10558 4654,10558 4771,10558 4888,10558 5006,10558 5123,10558 5240,10558 5358,10558 5475,10558 5592,10558 5709,10558 5827,10558 5944,10558 6061,10558 6178,10558 6296,10558 6413,10558 6530,10558 6647,10558 6765,10558 6882,10558 6999,10558 7116,10558 7234,10558 7351,10558 7468,10558 7586,10558 7703,10558 7820,10558 7937,10558 8055,10558 8172,10558 8288,10558 8405,10558 8523,10558 8640,10558 8757,10558 8874,10558 8992,10558 9109,10558 9226,10558 9344,10558 9461,10558 9578,10558 9695,10558 9813,10558 9930,10558 10047,10558 10164,10558 10282,10558 10399,10558 10516,10558 10633,10558 10751,10558 10868,10558 10985,10558 11102,10558 11220,10558 11337,10558 11454,10558 11572,10558 11689,10558 11806,10558 11923,10558 12041,10558 12158,10558 12275,10558 12392,10558 12510,10558 12627,10558 12744,10558 12861,10558 12979,10558 13096,10558 13213,10558 13331,10558 13448,10558 13565,10558 13682,10558 13800,10558 13917,10558 14034,10558 14151,10558 14269,10558 14386,10558 14503,10558 14620,10558 14738,10558 14855,10558 14972,10558 15090,10558 15090,10558 1371,10558 1371,10435 Z"/>
 <path fill="rgb(51,153,102)" stroke="none" d="M 1371,10069 L 1488,10124 1605,10109 1722,10136 1840,10142 1957,10112 2074,10159 2191,10213 2309,10230 2426,10249 2543,10214 2660,10269 2778,10317 2895,10369 3012,10404 3129,10408 3247,10415 3364,10424 3481,10435 3599,10443 3716,10452 3833,10457 3950,10466 4068,10473 4185,10482 4302,10488 4419,10491 4537,10454 4654,10483 4771,10493 4888,10496 5006,10504 5123,10504 5240,10509 5358,10507 5475,10485 5592,10506 5709,10506 5827,10519 5944,10514 6061,10518 6178,10525 6296,10518 6413,10513 6530,10497 6647,10525 6765,10558 6882,10558 6999,10558 7116,10558 7234,10558 7351,10558 7468,10558 7586,10558 7703,10558 7820,10558 7937,10558 8055,10558 8172,10558 8288,10558 8405,10558 8523,10558 8640,10558 8757,10558 8874,10558 8992,10558 9109,10558 9226,10558 9344,10558 9461,10558 9578,10558 9695,10558 9813,10558 9930,10558 10047,10558 10164,10558 10282,10558 10399,10558 10516,10558 10633,10558 10751,10558 10868,10558 10985,10558 11102,10558 11220,10558 11337,10558 11454,10558 11572,10558 11689,10558 11806,10558 11923,10558 12041,10558 12158,10558 12275,10558 12392,10558 12510,10558 12627,10558 12744,10558 12861,10558 12979,10558 13096,10558 13213,10558 13331,10558 13448,10558 13565,10558 13682,10558 13800,10558 13917,10558 14034,10558 14151,10558 14269,10558 14386,10558 14503,10558 14620,10558 14738,10558 14855,10558 14972,10558 15090,10558 15090,10558 14972,10558 14855,10558 14738,10558 14620,10558 14503,10558 14386,10558 14269,10558 14151,10558 14034,10558 13917,10558 13800,10558 13682,10558 13565,10558 13448,10558 13331,10558 13213,10558 13096,10558 12979,10558 12861,10558 12744,10558 12627,10558 12510,10558 12392,10558 12275,10558 12158,10558 12041,10558 11923,10558 11806,10558 11689,10558 11572,10558 11454,10558 11337,10558 11220,10558 11102,10558 10985,10558 10868,10558 10751,10558 10633,10558 10516,10558 10399,10558 10282,10558 10164,10558 10047,10558 9930,10558 9813,10558 9695,10558 9578,10558 9461,10558 9344,10558 9226,10558 9109,10558 8992,10558 8874,10558 8757,10558 8640,10558 8523,10558 8405,10558 8288,10558 8172,10558 8055,10558 7937,10558 7820,10558 7703,10558 7586,10558 7468,10558 7351,10558 7234,10558 7116,10558 6999,10558 6882,10558 6765,10558 6647,10558 6530,10558 6413,10558 6296,10558 6178,10558 6061,10558 5944,10558 5827,10558 5709,10558 5592,10558 5475,10558 5358,10558 5240,10558 5123,10558 5006,10558 4888,10558 4771,10558 4654,10558 4537,10558 4419,10558 4302,10558 4185,10558 4068,10558 3950,10558 3833,10558 3716,10558 3599,10558 3481,10558 3364,10558 3247,10558 3129,10558 3012,10558 2895,10558 2778,10558 2660,10510 2543,10506 2426,10502 2309,10498 2191,10491 2074,10470 1957,10438 1840,10468 1722,10467 1605,10457 1488,10447 1371,10435 1371,10069 Z"/>
 <path fill="none" stroke="rgb(0,0,0)" stroke-linejoin="round" d="M 1371,10069 L 1488,10124 1605,10109 1722,10136 1840,10142 1957,10112 2074,10159 2191,10213 2309,10230 2426,10249 2543,10214 2660,10269 2778,10317 2895,10369 3012,10404 3129,10408 3247,10415 3364,10424 3481,10435 3599,10443 3716,10452 3833,10457 3950,10466 4068,10473 4185,10482 4302,10488 4419,10491 4537,10454 4654,10483 4771,10493 4888,10496 5006,10504 5123,10504 5240,10509 5358,10507 5475,10485 5592,10506 5709,10506 5827,10519 5944,10514 6061,10518 6178,10525 6296,10518 6413,10513 6530,10497 6647,10525 6765,10558 6882,10558 6999,10558 7116,10558 7234,10558 7351,10558 7468,10558 7586,10558 7703,10558 7820,10558 7937,10558 8055,10558 8172,10558 8288,10558 8405,10558 8523,10558 8640,10558 8757,10558 8874,10558 8992,10558 9109,10558 9226,10558 9344,10558 9461,10558 9578,10558 9695,10558 9813,10558 9930,10558 10047,10558 10164,10558 10282,10558 10399,10558 10516,10558 10633,10558 10751,10558 10868,10558 10985,10558 11102,10558 11220,10558 11337,10558 11454,10558 11572,10558 11689,10558 11806,10558 11923,10558 12041,10558 12158,10558 12275,10558 12392,10558 12510,10558 12627,10558 12744,10558 12861,10558 12979,10558 13096,10558 13213,10558 13331,10558 13448,10558 13565,10558 13682,10558 13800,10558 13917,10558 14034,10558 14151,10558 14269,10558 14386,10558 14503,10558 14620,10558 14738,10558 14855,10558 14972,10558 15090,10558 15090,10558 14972,10558 14855,10558 14738,10558 14620,10558 14503,10558 14386,10558 14269,10558 14151,10558 14034,10558 13917,10558 13800,10558 13682,10558 13565,10558 13448,10558 13331,10558 13213,10558 13096,10558 12979,10558 12861,10558 12744,10558 12627,10558 12510,10558 12392,10558 12275,10558 12158,10558 12041,10558 11923,10558 11806,10558 11689,10558 11572,10558 11454,10558 11337,10558 11220,10558 11102,10558 10985,10558 10868,10558 10751,10558 10633,10558 10516,10558 10399,10558 10282,10558 10164,10558 10047,10558 9930,10558 9813,10558 9695,10558 9578,10558 9461,10558 9344,10558 9226,10558 9109,10558 8992,10558 8874,10558 8757,10558 8640,10558 8523,10558 8405,10558 8288,10558 8172,10558 8055,10558 7937,10558 7820,10558 7703,10558 7586,10558 7468,10558 7351,10558 7234,10558 7116,10558 6999,10558 6882,10558 6765,10558 6647,10558 6530,10558 6413,10558 6296,10558 6178,10558 6061,10558 5944,10558 5827,10558 5709,10558 5592,10558 5475,10558 5358,10558 5240,10558 5123,10558 5006,10558 4888,10558 4771,10558 4654,10558 4537,10558 4419,10558 4302,10558 4185,10558 4068,10558 3950,10558 3833,10558 3716,10558 3599,10558 3481,10558 3364,10558 3247,10558 3129,10558 3012,10558 2895,10558 2778,10558 2660,10510 2543,10506 2426,10502 2309,10498 2191,10491 2074,10470 1957,10438 1840,10468 1722,10467 1605,10457 1488,10447 1371,10435 1371,10069 Z"/>
 <path fill="rgb(131,202,255)" stroke="none" d="M 1371,2020 L 1488,2149 1605,2140 1722,2205 1840,2278 1957,2275 2074,2388 2191,2482 2309,2517 2426,2592 2543,2651 2660,2728 2778,2886 2895,2991 3012,3101 3129,3122 3247,3192 3364,3254 3481,3338 3599,3355 3716,3430 3833,3546 3950,3581 4068,3687 4185,3836 4302,3960 4419,4107 4537,4148 4654,4278 4771,4391 4888,4476 5006,4493 5123,4547 5240,4647 5358,4728 5475,4798 5592,4933 5709,5046 5827,5199 5944,5211 6061,5282 6178,5405 6296,5472 6413,5591 6530,5713 6647,5818 6765,6005 6882,6202 6999,6184 7116,6437 7234,6430 7351,6515 7468,6384 7586,6456 7703,6586 7820,6713 7937,6813 8055,6851 8172,6954 8288,7058 8405,7135 8523,7217 8640,7219 8757,7323 8874,7292 8992,7290 9109,7349 9226,7408 9344,7443 9461,7775 9578,7892 9695,7938 9813,7967 9930,8158 10047,8187 10164,8208 10282,8321 10399,8458 10516,8571 10633,8552 10751,8612 10868,8677 10985,8638 11102,9189 11220,9484 11337,9099 11454,9115 11572,9066 11689,9242 11806,9374 11923,9425 12041,9640 12158,9669 12275,9624 12392,9657 12510,9708 12627,9769 12744,9769 12861,9751 12979,9764 13096,9821 13213,9928 13331,9897 13448,9879 13565,9842 13682,9920 13800,9969 13917,9998 14034,9975 14151,9965 14269,9953 14386,10012 14503,10109 14620,10128 14738,10192 14855,10122 14972,10158 15090,10182 15090,10558 14972,10558 14855,10558 14738,10558 14620,10558 14503,10558 14386,10558 14269,10558 14151,10558 14034,10558 13917,10558 13800,10558 13682,10558 13565,10558 13448,10558 13331,10558 13213,10558 13096,10558 12979,10558 12861,10558 12744,10558 12627,10558 12510,10558 12392,10558 12275,10558 12158,10558 12041,10558 11923,10558 11806,10558 11689,10558 11572,10558 11454,10558 11337,10558 11220,10558 11102,10558 10985,10558 10868,10558 10751,10558 10633,10558 10516,10558 10399,10558 10282,10558 10164,10558 10047,10558 9930,10558 9813,10558 9695,10558 9578,10558 9461,10558 9344,10558 9226,10558 9109,10558 8992,10558 8874,10558 8757,10558 8640,10558 8523,10558 8405,10558 8288,10558 8172,10558 8055,10558 7937,10558 7820,10558 7703,10558 7586,10558 7468,10558 7351,10558 7234,10558 7116,10558 6999,10558 6882,10558 6765,10558 6647,10525 6530,10497 6413,10513 6296,10518 6178,10525 6061,10518 5944,10514 5827,10519 5709,10506 5592,10506 5475,10485 5358,10507 5240,10509 5123,10504 5006,10504 4888,10496 4771,10493 4654,10483 4537,10454 4419,10491 4302,10488 4185,10482 4068,10473 3950,10466 3833,10457 3716,10452 3599,10443 3481,10435 3364,10424 3247,10415 3129,10408 3012,10404 2895,10369 2778,10317 2660,10269 2543,10214 2426,10249 2309,10230 2191,10213 2074,10159 1957,10112 1840,10142 1722,10136 1605,10109 1488,10124 1371,10069 1371,2020 Z"/>
 <path fill="rgb(0,204,255)" stroke="none" d="M 1371,1345 L 1488,1370 1605,1386 1722,1390 1840,1399 1957,1371 2074,1413 2191,1407 2309,1394 2426,1398 2543,1422 2660,1420 2778,1511 2895,1556 3012,1587 3129,1587 3247,1609 3364,1617 3481,1666 3599,1662 3716,1707 3833,1735 3950,1788 4068,1874 4185,2046 4302,2239 4419,2433 4537,2559 4654,2736 4771,2886 4888,3006 5006,3080 5123,3166 5240,3299 5358,3443 5475,3558 5592,3718 5709,3880 5827,4076 5944,4150 6061,4265 6178,4421 6296,4516 6413,4674 6530,4821 6647,4975 6765,5185 6882,5401 6999,5427 7116,5690 7234,5712 7351,5795 7468,5704 7586,5805 7703,5978 7820,6122 7937,6236 8055,6315 8172,6425 8288,6559 8405,6645 8523,6732 8640,6777 8757,6894 8874,6872 8992,6885 9109,6966 9226,7017 9344,7088 9461,7435 9578,7554 9695,7634 9813,7670 9930,7859 10047,7920 10164,7961 10282,8079 10399,8227 10516,8344 10633,8319 10751,8373 10868,8439 10985,8391 11102,8965 11220,9275 11337,8869 11454,8930 11572,8902 11689,9089 11806,9229 11923,9269 12041,9516 12158,9530 12275,9484 12392,9529 12510,9581 12627,9649 12744,9651 12861,9632 12979,9647 13096,9726 13213,9840 13331,9809 13448,9795 13565,9758 13682,9849 13800,9898 13917,9923 14034,9901 14151,9896 14269,9898 14386,9962 14503,10065 14620,10086 14738,10154 14855,10089 14972,10125 15090,10153 15090,10182 14972,10158 14855,10122 14738,10192 14620,10128 14503,10109 14386,10012 14269,9953 14151,9965 14034,9975 13917,9998 13800,9969 13682,9920 13565,9842 13448,9879 13331,9897 13213,9928 13096,9821 12979,9764 12861,9751 12744,9769 12627,9769 12510,9708 12392,9657 12275,9624 12158,9669 12041,9640 11923,9425 11806,9374 11689,9242 11572,9066 11454,9115 11337,9099 11220,9484 11102,9189 10985,8638 10868,8677 10751,8612 10633,8552 10516,8571 10399,8458 10282,8321 10164,8208 10047,8187 9930,8158 9813,7967 9695,7938 9578,7892 9461,7775 9344,7443 9226,7408 9109,7349 8992,7290 8874,7292 8757,7323 8640,7219 8523,7217 8405,7135 8288,7058 8172,6954 8055,6851 7937,6813 7820,6713 7703,6586 7586,6456 7468,6384 7351,6515 7234,6430 7116,6437 6999,6184 6882,6202 6765,6005 6647,5818 6530,5713 6413,5591 6296,5472 6178,5405 6061,5282 5944,5211 5827,5199 5709,5046 5592,4933 5475,4798 5358,4728 5240,4647 5123,4547 5006,4493 4888,4476 4771,4391 4654,4278 4537,4148 4419,4107 4302,3960 4185,3836 4068,3687 3950,3581 3833,3546 3716,3430 3599,3355 3481,3338 3364,3254 3247,3192 3129,3122 3012,3101 2895,2991 2778,2886 2660,2728 2543,2651 2426,2592 2309,2517 2191,2482 2074,2388 1957,2275 1840,2278 1722,2205 1605,2140 1488,2149 1371,2020 1371,1345 Z"/>
 <path fill="none" stroke="rgb(0,0,0)" stroke-linejoin="round" d="M 1371,1345 L 1488,1370 1605,1386 1722,1390 1840,1399 1957,1371 2074,1413 2191,1407 2309,1394 2426,1398 2543,1422 2660,1420 2778,1511 2895,1556 3012,1587 3129,1587 3247,1609 3364,1617 3481,1666 3599,1662 3716,1707 3833,1735 3950,1788 4068,1874 4185,2046 4302,2239 4419,2433 4537,2559 4654,2736 4771,2886 4888,3006 5006,3080 5123,3166 5240,3299 5358,3443 5475,3558 5592,3718 5709,3880 5827,4076 5944,4150 6061,4265 6178,4421 6296,4516 6413,4674 6530,4821 6647,4975 6765,5185 6882,5401 6999,5427 7116,5690 7234,5712 7351,5795 7468,5704 7586,5805 7703,5978 7820,6122 7937,6236 8055,6315 8172,6425 8288,6559 8405,6645 8523,6732 8640,6777 8757,6894 8874,6872 8992,6885 9109,6966 9226,7017 9344,7088 9461,7435 9578,7554 9695,7634 9813,7670 9930,7859 10047,7920 10164,7961 10282,8079 10399,8227 10516,8344 10633,8319 10751,8373 10868,8439 10985,8391 11102,8965 11220,9275 11337,8869 11454,8930 11572,8902 11689,9089 11806,9229 11923,9269 12041,9516 12158,9530 12275,9484 12392,9529 12510,9581 12627,9649 12744,9651 12861,9632 12979,9647 13096,9726 13213,9840 13331,9809 13448,9795 13565,9758 13682,9849 13800,9898 13917,9923 14034,9901 14151,9896 14269,9898 14386,9962 14503,10065 14620,10086 14738,10154 14855,10089 14972,10125 15090,10153 15090,10182 14972,10158 14855,10122 14738,10192 14620,10128 14503,10109 14386,10012 14269,9953 14151,9965 14034,9975 13917,9998 13800,9969 13682,9920 13565,9842 13448,9879 13331,9897 13213,9928 13096,9821 12979,9764 12861,9751 12744,9769 12627,9769 12510,9708 12392,9657 12275,9624 12158,9669 12041,9640 11923,9425 11806,9374 11689,9242 11572,9066 11454,9115 11337,9099 11220,9484 11102,9189 10985,8638 10868,8677 10751,8612 10633,8552 10516,8571 10399,8458 10282,8321 10164,8208 10047,8187 9930,8158 9813,7967 9695,7938 9578,7892 9461,7775 9344,7443 9226,7408 9109,7349 8992,7290 8874,7292 8757,7323 8640,7219 8523,7217 8405,7135 8288,7058 8172,6954 8055,6851 7937,6813 7820,6713 7703,6586 7586,6456 7468,6384 7351,6515 7234,6430 7116,6437 6999,6184 6882,6202 6765,6005 6647,5818 6530,5713 6413,5591 6296,5472 6178,5405 6061,5282 5944,5211 5827,5199 5709,5046 5592,4933 5475,4798 5358,4728 5240,4647 5123,4547 5006,4493 4888,4476 4771,4391 4654,4278 4537,4148 4419,4107 4302,3960 4185,3836 4068,3687 3950,3581 3833,3546 3716,3430 3599,3355 3481,3338 3364,3254 3247,3192 3129,3122 3012,3101 2895,2991 2778,2886 2660,2728 2543,2651 2426,2592 2309,2517 2191,2482 2074,2388 1957,2275 1840,2278 1722,2205 1605,2140 1488,2149 1371,2020 1371,1345 Z"/>
 <path fill="rgb(0,102,204)" stroke="none" d="M 1371,1345 L 1488,1370 1605,1386 1722,1390 1840,1399 1957,1371 2074,1413 2191,1407 2309,1394 2426,1398 2543,1422 2660,1420 2778,1511 2895,1556 3012,1587 3129,1587 3247,1609 3364,1587 3481,1612 3599,1590 3716,1621 3833,1622 3950,1642 4068,1667 4185,1662 4302,1692 4419,1709 4537,1700 4654,1751 4771,1762 4888,1786 5006,1760 5123,1774 5240,1771 5358,1796 5475,1802 5592,1822 5709,1870 5827,1928 5944,1928 6061,1938 6178,2003 6296,2023 6413,2062 6530,2132 6647,2229 6765,2261 6882,2262 6999,2331 7116,2414 7234,2528 7351,2401 7468,2360 7586,2363 7703,2391 7820,2456 7937,2549 8055,2588 8172,2577 8288,2714 8405,2803 8523,2877 8640,3019 8757,3199 8874,3102 8992,3072 9109,3155 9226,3259 9344,3364 9461,3665 9578,3619 9695,3744 9813,3800 9930,3924 10047,4082 10164,4197 10282,4142 10399,4293 10516,4409 10633,4314 10751,4360 10868,4410 10985,4155 11102,4747 11220,4827 11337,4391 11454,4677 11572,4545 11689,4584 11806,4892 11923,4790 12041,4844 12158,4933 12275,5053 12392,5360 12510,5530 12627,5472 12744,5631 12861,5929 12979,5951 13096,6222 13213,6662 13331,6633 13448,6391 13565,6508 13682,6630 13800,6778 13917,6647 14034,6719 14151,6742 14269,6787 14386,6837 14503,7086 14620,7128 14738,6955 14855,7012 14972,6925 15090,7155 15090,10153 14972,10125 14855,10089 14738,10154 14620,10086 14503,10065 14386,9962 14269,9898 14151,9896 14034,9901 13917,9923 13800,9898 13682,9849 13565,9758 13448,9795 13331,9809 13213,9840 13096,9726 12979,9647 12861,9632 12744,9651 12627,9649 12510,9581 12392,9529 12275,9484 12158,9530 12041,9516 11923,9269 11806,9229 11689,9089 11572,8902 11454,8930 11337,8869 11220,9275 11102,8965 10985,8391 10868,8439 10751,8373 10633,8319 10516,8344 10399,8227 10282,8079 10164,7961 10047,7920 9930,7859 9813,7670 9695,7634 9578,7554 9461,7435 9344,7088 9226,7017 9109,6966 8992,6885 8874,6872 8757,6894 8640,6777 8523,6732 8405,6645 8288,6559 8172,6425 8055,6315 7937,6236 7820,6122 7703,5978 7586,5805 7468,5704 7351,5795 7234,5712 7116,5690 6999,5427 6882,5401 6765,5185 6647,4975 6530,4821 6413,4674 6296,4516 6178,4421 6061,4265 5944,4150 5827,4076 5709,3880 5592,3718 5475,3558 5358,3443 5240,3299 5123,3166 5006,3080 4888,3006 4771,2886 4654,2736 4537,2559 4419,2433 4302,2239 4185,2046 4068,1874 3950,1788 3833,1735 3716,1707 3599,1662 3481,1666 3364,1617 3247,1609 3129,1587 3012,1587 2895,1556 2778,1511 2660,1420 2543,1422 2426,1398 2309,1394 2191,1407 2074,1413 1957,1371 1840,1399 1722,1390 1605,1386 1488,1370 1371,1345 Z"/>
 <path fill="none" stroke="rgb(0,0,0)" stroke-linejoin="round" d="M 1371,1345 L 1488,1370 1605,1386 1722,1390 1840,1399 1957,1371 2074,1413 2191,1407 2309,1394 2426,1398 2543,1422 2660,1420 2778,1511 2895,1556 3012,1587 3129,1587 3247,1609 3364,1587 3481,1612 3599,1590 3716,1621 3833,1622 3950,1642 4068,1667 4185,1662 4302,1692 4419,1709 4537,1700 4654,1751 4771,1762 4888,1786 5006,1760 5123,1774 5240,1771 5358,1796 5475,1802 5592,1822 5709,1870 5827,1928 5944,1928 6061,1938 6178,2003 6296,2023 6413,2062 6530,2132 6647,2229 6765,2261 6882,2262 6999,2331 7116,2414 7234,2528 7351,2401 7468,2360 7586,2363 7703,2391 7820,2456 7937,2549 8055,2588 8172,2577 8288,2714 8405,2803 8523,2877 8640,3019 8757,3199 8874,3102 8992,3072 9109,3155 9226,3259 9344,3364 9461,3665 9578,3619 9695,3744 9813,3800 9930,3924 10047,4082 10164,4197 10282,4142 10399,4293 10516,4409 10633,4314 10751,4360 10868,4410 10985,4155 11102,4747 11220,4827 11337,4391 11454,4677 11572,4545 11689,4584 11806,4892 11923,4790 12041,4844 12158,4933 12275,5053 12392,5360 12510,5530 12627,5472 12744,5631 12861,5929 12979,5951 13096,6222 13213,6662 13331,6633 13448,6391 13565,6508 13682,6630 13800,6778 13917,6647 14034,6719 14151,6742 14269,6787 14386,6837 14503,7086 14620,7128 14738,6955 14855,7012 14972,6925 15090,7155 15090,10153 14972,10125 14855,10089 14738,10154 14620,10086 14503,10065 14386,9962 14269,9898 14151,9896 14034,9901 13917,9923 13800,9898 13682,9849 13565,9758 13448,9795 13331,9809 13213,9840 13096,9726 12979,9647 12861,9632 12744,9651 12627,9649 12510,9581 12392,9529 12275,9484 12158,9530 12041,9516 11923,9269 11806,9229 11689,9089 11572,8902 11454,8930 11337,8869 11220,9275 11102,8965 10985,8391 10868,8439 10751,8373 10633,8319 10516,8344 10399,8227 10282,8079 10164,7961 10047,7920 9930,7859 9813,7670 9695,7634 9578,7554 9461,7435 9344,7088 9226,7017 9109,6966 8992,6885 8874,6872 8757,6894 8640,6777 8523,6732 8405,6645 8288,6559 8172,6425 8055,6315 7937,6236 7820,6122 7703,5978 7586,5805 7468,5704 7351,5795 7234,5712 7116,5690 6999,5427 6882,5401 6765,5185 6647,4975 6530,4821 6413,4674 6296,4516 6178,4421 6061,4265 5944,4150 5827,4076 5709,3880 5592,3718 5475,3558 5358,3443 5240,3299 5123,3166 5006,3080 4888,3006 4771,2886 4654,2736 4537,2559 4419,2433 4302,2239 4185,2046 4068,1874 3950,1788 3833,1735 3716,1707 3599,1662 3481,1666 3364,1617 3247,1609 3129,1587 3012,1587 2895,1556 2778,1511 2660,1420 2543,1422 2426,1398 2309,1394 2191,1407 2074,1413 1957,1371 1840,1399 1722,1390 1605,1386 1488,1370 1371,1345 Z"/>
 <path fill="rgb(0,132,209)" stroke="none" d="M 1371,1345 L 1488,1370 1605,1386 1722,1390 1840,1399 1957,1371 2074,1413 2191,1407 2309,1394 2426,1398 2543,1422 2660,1420 2778,1511 2895,1556 3012,1587 3129,1587 3247,1609 3364,1587 3481,1612 3599,1590 3716,1621 3833,1622 3950,1642 4068,1667 4185,1662 4302,1692 4419,1709 4537,1700 4654,1751 4771,1762 4888,1786 5006,1760 5123,1774 5240,1771 5358,1796 5475,1802 5592,1822 5709,1870 5827,1928 5944,1928 6061,1938 6178,2003 6296,2023 6413,2062 6530,2132 6647,2229 6765,2261 6882,2262 6999,2331 7116,2414 7234,2528 7351,2401 7468,2360 7586,2363 7703,2391 7820,2456 7937,2549 8055,2588 8172,2577 8288,2679 8405,2708 8523,2724 8640,2820 8757,2967 8874,2822 8992,2745 9109,2792 9226,2826 9344,2911 9461,3033 9578,2865 9695,2968 9813,3028 9930,3055 10047,3227 10164,3347 10282,3229 10399,3316 10516,3416 10633,3321 10751,3382 10868,3357 10985,3170 11102,3411 11220,3355 11337,3315 11454,3625 11572,3452 11689,3491 11806,3803 11923,3514 12041,3616 12158,3732 12275,3981 12392,4377 12510,4568 12627,4427 12744,4688 12861,5005 12979,5086 13096,5412 13213,5874 13331,5888 13448,5667 13565,5825 13682,5968 13800,6158 13917,5933 14034,6048 14151,6183 14269,6225 14386,6287 14503,6589 14620,6607 14738,6416 14855,6524 14972,6408 15090,6696 15090,7155 14972,6925 14855,7012 14738,6955 14620,7128 14503,7086 14386,6837 14269,6787 14151,6742 14034,6719 13917,6647 13800,6778 13682,6630 13565,6508 13448,6391 13331,6633 13213,6662 13096,6222 12979,5951 12861,5929 12744,5631 12627,5472 12510,5530 12392,5360 12275,5053 12158,4933 12041,4844 11923,4790 11806,4892 11689,4584 11572,4545 11454,4677 11337,4391 11220,4827 11102,4747 10985,4155 10868,4410 10751,4360 10633,4314 10516,4409 10399,4293 10282,4142 10164,4197 10047,4082 9930,3924 9813,3800 9695,3744 9578,3619 9461,3665 9344,3364 9226,3259 9109,3155 8992,3072 8874,3102 8757,3199 8640,3019 8523,2877 8405,2803 8288,2714 8172,2577 8055,2588 7937,2549 7820,2456 7703,2391 7586,2363 7468,2360 7351,2401 7234,2528 7116,2414 6999,2331 6882,2262 6765,2261 6647,2229 6530,2132 6413,2062 6296,2023 6178,2003 6061,1938 5944,1928 5827,1928 5709,1870 5592,1822 5475,1802 5358,1796 5240,1771 5123,1774 5006,1760 4888,1786 4771,1762 4654,1751 4537,1700 4419,1709 4302,1692 4185,1662 4068,1667 3950,1642 3833,1622 3716,1621 3599,1590 3481,1612 3364,1587 3247,1609 3129,1587 3012,1587 2895,1556 2778,1511 2660,1420 2543,1422 2426,1398 2309,1394 2191,1407 2074,1413 1957,1371 1840,1399 1722,1390 1605,1386 1488,1370 1371,1345 Z"/>
 <path fill="none" stroke="rgb(0,0,0)" stroke-linejoin="round" d="M 1371,1345 L 1488,1370 1605,1386 1722,1390 1840,1399 1957,1371 2074,1413 2191,1407 2309,1394 2426,1398 2543,1422 2660,1420 2778,1511 2895,1556 3012,1587 3129,1587 3247,1609 3364,1587 3481,1612 3599,1590 3716,1621 3833,1622 3950,1642 4068,1667 4185,1662 4302,1692 4419,1709 4537,1700 4654,1751 4771,1762 4888,1786 5006,1760 5123,1774 5240,1771 5358,1796 5475,1802 5592,1822 5709,1870 5827,1928 5944,1928 6061,1938 6178,2003 6296,2023 6413,2062 6530,2132 6647,2229 6765,2261 6882,2262 6999,2331 7116,2414 7234,2528 7351,2401 7468,2360 7586,2363 7703,2391 7820,2456 7937,2549 8055,2588 8172,2577 8288,2679 8405,2708 8523,2724 8640,2820 8757,2967 8874,2822 8992,2745 9109,2792 9226,2826 9344,2911 9461,3033 9578,2865 9695,2968 9813,3028 9930,3055 10047,3227 10164,3347 10282,3229 10399,3316 10516,3416 10633,3321 10751,3382 10868,3357 10985,3170 11102,3411 11220,3355 11337,3315 11454,3625 11572,3452 11689,3491 11806,3803 11923,3514 12041,3616 12158,3732 12275,3981 12392,4377 12510,4568 12627,4427 12744,4688 12861,5005 12979,5086 13096,5412 13213,5874 13331,5888 13448,5667 13565,5825 13682,5968 13800,6158 13917,5933 14034,6048 14151,6183 14269,6225 14386,6287 14503,6589 14620,6607 14738,6416 14855,6524 14972,6408 15090,6696 15090,7155 14972,6925 14855,7012 14738,6955 14620,7128 14503,7086 14386,6837 14269,6787 14151,6742 14034,6719 13917,6647 13800,6778 13682,6630 13565,6508 13448,6391 13331,6633 13213,6662 13096,6222 12979,5951 12861,5929 12744,5631 12627,5472 12510,5530 12392,5360 12275,5053 12158,4933 12041,4844 11923,4790 11806,4892 11689,4584 11572,4545 11454,4677 11337,4391 11220,4827 11102,4747 10985,4155 10868,4410 10751,4360 10633,4314 10516,4409 10399,4293 10282,4142 10164,4197 10047,4082 9930,3924 9813,3800 9695,3744 9578,3619 9461,3665 9344,3364 9226,3259 9109,3155 8992,3072 8874,3102 8757,3199 8640,3019 8523,2877 8405,2803 8288,2714 8172,2577 8055,2588 7937,2549 7820,2456 7703,2391 7586,2363 7468,2360 7351,2401 7234,2528 7116,2414 6999,2331 6882,2262 6765,2261 6647,2229 6530,2132 6413,2062 6296,2023 6178,2003 6061,1938 5944,1928 5827,1928 5709,1870 5592,1822 5475,1802 5358,1796 5240,1771 5123,1774 5006,1760 4888,1786 4771,1762 4654,1751 4537,1700 4419,1709 4302,1692 4185,1662 4068,1667 3950,1642 3833,1622 3716,1621 3599,1590 3481,1612 3364,1587 3247,1609 3129,1587 3012,1587 2895,1556 2778,1511 2660,1420 2543,1422 2426,1398 2309,1394 2191,1407 2074,1413 1957,1371 1840,1399 1722,1390 1605,1386 1488,1370 1371,1345 Z"/>
 <path fill="rgb(0,69,134)" stroke="none" d="M 1371,1345 L 1488,1370 1605,1386 1722,1390 1840,1399 1957,1371 2074,1413 2191,1407 2309,1394 2426,1398 2543,1422 2660,1420 2778,1511 2895,1556 3012,1587 3129,1587 3247,1609 3364,1587 3481,1612 3599,1590 3716,1621 3833,1622 3950,1642 4068,1667 4185,1662 4302,1692 4419,1709 4537,1700 4654,1751 4771,1762 4888,1786 5006,1760 5123,1774 5240,1771 5358,1796 5475,1802 5592,1822 5709,1870 5827,1928 5944,1928 6061,1938 6178,2003 6296,2023 6413,2062 6530,2132 6647,2229 6765,2261 6882,2262 6999,2331 7116,2414 7234,2528 7351,2401 7468,2360 7586,2363 7703,2391 7820,2456 7937,2549 8055,2588 8172,2577 8288,2679 8405,2708 8523,2724 8640,2820 8757,2967 8874,2822 8992,2745 9109,2792 9226,2826 9344,2911 9461,3033 9578,2865 9695,2968 9813,3028 9930,3055 10047,3227 10164,3347 10282,3229 10399,3316 10516,3416 10633,3321 10751,3382 10868,3357 10985,3170 11102,3411 11220,3355 11337,3315 11454,3625 11572,3452 11689,3491 11806,3803 11923,3514 12041,3616 12158,3703 12275,3580 12392,3887 12510,3991 12627,3756 12744,3969 12861,4169 12979,4180 13096,4456 13213,4939 13331,4748 13448,4339 13565,4365 13682,4402 13800,4701 13917,4403 14034,4448 14151,4595 14269,4558 14386,4661 14503,5061 14620,5005 14738,4685 14855,4843 14972,4602 15090,4964 15090,6696 14972,6408 14855,6524 14738,6416 14620,6607 14503,6589 14386,6287 14269,6225 14151,6183 14034,6048 13917,5933 13800,6158 13682,5968 13565,5825 13448,5667 13331,5888 13213,5874 13096,5412 12979,5086 12861,5005 12744,4688 12627,4427 12510,4568 12392,4377 12275,3981 12158,3732 12041,3616 11923,3514 11806,3803 11689,3491 11572,3452 11454,3625 11337,3315 11220,3355 11102,3411 10985,3170 10868,3357 10751,3382 10633,3321 10516,3416 10399,3316 10282,3229 10164,3347 10047,3227 9930,3055 9813,3028 9695,2968 9578,2865 9461,3033 9344,2911 9226,2826 9109,2792 8992,2745 8874,2822 8757,2967 8640,2820 8523,2724 8405,2708 8288,2679 8172,2577 8055,2588 7937,2549 7820,2456 7703,2391 7586,2363 7468,2360 7351,2401 7234,2528 7116,2414 6999,2331 6882,2262 6765,2261 6647,2229 6530,2132 6413,2062 6296,2023 6178,2003 6061,1938 5944,1928 5827,1928 5709,1870 5592,1822 5475,1802 5358,1796 5240,1771 5123,1774 5006,1760 4888,1786 4771,1762 4654,1751 4537,1700 4419,1709 4302,1692 4185,1662 4068,1667 3950,1642 3833,1622 3716,1621 3599,1590 3481,1612 3364,1587 3247,1609 3129,1587 3012,1587 2895,1556 2778,1511 2660,1420 2543,1422 2426,1398 2309,1394 2191,1407 2074,1413 1957,1371 1840,1399 1722,1390 1605,1386 1488,1370 1371,1345 Z"/>
 <path fill="none" stroke="rgb(0,0,0)" stroke-linejoin="round" d="M 1371,1345 L 1488,1370 1605,1386 1722,1390 1840,1399 1957,1371 2074,1413 2191,1407 2309,1394 2426,1398 2543,1422 2660,1420 2778,1511 2895,1556 3012,1587 3129,1587 3247,1609 3364,1587 3481,1612 3599,1590 3716,1621 3833,1622 3950,1642 4068,1667 4185,1662 4302,1692 4419,1709 4537,1700 4654,1751 4771,1762 4888,1786 5006,1760 5123,1774 5240,1771 5358,1796 5475,1802 5592,1822 5709,1870 5827,1928 5944,1928 6061,1938 6178,2003 6296,2023 6413,2062 6530,2132 6647,2229 6765,2261 6882,2262 6999,2331 7116,2414 7234,2528 7351,2401 7468,2360 7586,2363 7703,2391 7820,2456 7937,2549 8055,2588 8172,2577 8288,2679 8405,2708 8523,2724 8640,2820 8757,2967 8874,2822 8992,2745 9109,2792 9226,2826 9344,2911 9461,3033 9578,2865 9695,2968 9813,3028 9930,3055 10047,3227 10164,3347 10282,3229 10399,3316 10516,3416 10633,3321 10751,3382 10868,3357 10985,3170 11102,3411 11220,3355 11337,3315 11454,3625 11572,3452 11689,3491 11806,3803 11923,3514 12041,3616 12158,3703 12275,3580 12392,3887 12510,3991 12627,3756 12744,3969 12861,4169 12979,4180 13096,4456 13213,4939 13331,4748 13448,4339 13565,4365 13682,4402 13800,4701 13917,4403 14034,4448 14151,4595 14269,4558 14386,4661 14503,5061 14620,5005 14738,4685 14855,4843 14972,4602 15090,4964 15090,6696 14972,6408 14855,6524 14738,6416 14620,6607 14503,6589 14386,6287 14269,6225 14151,6183 14034,6048 13917,5933 13800,6158 13682,5968 13565,5825 13448,5667 13331,5888 13213,5874 13096,5412 12979,5086 12861,5005 12744,4688 12627,4427 12510,4568 12392,4377 12275,3981 12158,3732 12041,3616 11923,3514 11806,3803 11689,3491 11572,3452 11454,3625 11337,3315 11220,3355 11102,3411 10985,3170 10868,3357 10751,3382 10633,3321 10516,3416 10399,3316 10282,3229 10164,3347 10047,3227 9930,3055 9813,3028 9695,2968 9578,2865 9461,3033 9344,2911 9226,2826 9109,2792 8992,2745 8874,2822 8757,2967 8640,2820 8523,2724 8405,2708 8288,2679 8172,2577 8055,2588 7937,2549 7820,2456 7703,2391 7586,2363 7468,2360 7351,2401 7234,2528 7116,2414 6999,2331 6882,2262 6765,2261 6647,2229 6530,2132 6413,2062 6296,2023 6178,2003 6061,1938 5944,1928 5827,1928 5709,1870 5592,1822 5475,1802 5358,1796 5240,1771 5123,1774 5006,1760 4888,1786 4771,1762 4654,1751 4537,1700 4419,1709 4302,1692 4185,1662 4068,1667 3950,1642 3833,1622 3716,1621 3599,1590 3481,1612 3364,1587 3247,1609 3129,1587 3012,1587 2895,1556 2778,1511 2660,1420 2543,1422 2426,1398 2309,1394 2191,1407 2074,1413 1957,1371 1840,1399 1722,1390 1605,1386 1488,1370 1371,1345 Z"/>
 <path fill="rgb(0,102,0)" stroke="none" d="M 1371,1015 L 1488,1024 1605,1027 1722,1033 1840,1036 1957,1039 2074,1052 2191,1052 2309,1053 2426,1057 2543,1061 2660,1054 2778,1113 2895,1128 3012,1134 3129,1150 3247,1158 3364,1140 3481,1158 3599,1138 3716,1154 3833,1153 3950,1150 4068,1161 4185,1170 4302,1200 4419,1215 4537,1218 4654,1238 4771,1250 4888,1280 5006,1264 5123,1287 5240,1290 5358,1315 5475,1325 5592,1340 5709,1388 5827,1424 5944,1430 6061,1434 6178,1486 6296,1513 6413,1549 6530,1597 6647,1688 6765,1681 6882,1632 6999,1754 7116,1850 7234,1970 7351,1784 7468,1778 7586,1782 7703,1821 7820,1864 7937,1940 8055,1967 8172,1951 8288,2063 8405,2081 8523,2120 8640,2221 8757,2373 8874,2238 8992,2147 9109,2191 9226,2216 9344,2309 9461,2431 9578,2226 9695,2321 9813,2401 9930,2431 10047,2608 10164,2736 10282,2617 10399,2708 10516,2835 10633,2788 10751,2862 10868,2827 10985,2657 11102,2850 11220,2782 11337,2741 11454,3085 11572,2915 11689,2927 11806,3256 11923,2944 12041,3039 12158,3123 12275,3002 12392,3318 12510,3409 12627,3236 12744,3462 12861,3627 12979,3632 13096,3932 13213,4340 13331,4191 13448,3771 13565,3821 13682,3900 13800,4254 13917,3968 14034,3993 14151,4199 14269,4142 14386,4262 14503,4683 14620,4624 14738,4274 14855,4459 14972,4208 15090,4597 15090,4964 14972,4602 14855,4843 14738,4685 14620,5005 14503,5061 14386,4661 14269,4558 14151,4595 14034,4448 13917,4403 13800,4701 13682,4402 13565,4365 13448,4339 13331,4748 13213,4939 13096,4456 12979,4180 12861,4169 12744,3969 12627,3756 12510,3991 12392,3887 12275,3580 12158,3703 12041,3616 11923,3514 11806,3803 11689,3491 11572,3452 11454,3625 11337,3315 11220,3355 11102,3411 10985,3170 10868,3357 10751,3382 10633,3321 10516,3416 10399,3316 10282,3229 10164,3347 10047,3227 9930,3055 9813,3028 9695,2968 9578,2865 9461,3033 9344,2911 9226,2826 9109,2792 8992,2745 8874,2822 8757,2967 8640,2820 8523,2724 8405,2708 8288,2679 8172,2577 8055,2588 7937,2549 7820,2456 7703,2391 7586,2363 7468,2360 7351,2401 7234,2528 7116,2414 6999,2331 6882,2262 6765,2261 6647,2229 6530,2132 6413,2062 6296,2023 6178,2003 6061,1938 5944,1928 5827,1928 5709,1870 5592,1822 5475,1802 5358,1796 5240,1771 5123,1774 5006,1760 4888,1786 4771,1762 4654,1751 4537,1700 4419,1709 4302,1692 4185,1662 4068,1667 3950,1642 3833,1622 3716,1621 3599,1590 3481,1612 3364,1587 3247,1609 3129,1587 3012,1587 2895,1556 2778,1511 2660,1420 2543,1422 2426,1398 2309,1394 2191,1407 2074,1413 1957,1371 1840,1399 1722,1390 1605,1386 1488,1370 1371,1345 1371,1015 Z"/>
 <path fill="none" stroke="rgb(0,0,0)" stroke-linejoin="round" d="M 1371,1015 L 1488,1024 1605,1027 1722,1033 1840,1036 1957,1039 2074,1052 2191,1052 2309,1053 2426,1057 2543,1061 2660,1054 2778,1113 2895,1128 3012,1134 3129,1150 3247,1158 3364,1140 3481,1158 3599,1138 3716,1154 3833,1153 3950,1150 4068,1161 4185,1170 4302,1200 4419,1215 4537,1218 4654,1238 4771,1250 4888,1280 5006,1264 5123,1287 5240,1290 5358,1315 5475,1325 5592,1340 5709,1388 5827,1424 5944,1430 6061,1434 6178,1486 6296,1513 6413,1549 6530,1597 6647,1688 6765,1681 6882,1632 6999,1754 7116,1850 7234,1970 7351,1784 7468,1778 7586,1782 7703,1821 7820,1864 7937,1940 8055,1967 8172,1951 8288,2063 8405,2081 8523,2120 8640,2221 8757,2373 8874,2238 8992,2147 9109,2191 9226,2216 9344,2309 9461,2431 9578,2226 9695,2321 9813,2401 9930,2431 10047,2608 10164,2736 10282,2617 10399,2708 10516,2835 10633,2788 10751,2862 10868,2827 10985,2657 11102,2850 11220,2782 11337,2741 11454,3085 11572,2915 11689,2927 11806,3256 11923,2944 12041,3039 12158,3123 12275,3002 12392,3318 12510,3409 12627,3236 12744,3462 12861,3627 12979,3632 13096,3932 13213,4340 13331,4191 13448,3771 13565,3821 13682,3900 13800,4254 13917,3968 14034,3993 14151,4199 14269,4142 14386,4262 14503,4683 14620,4624 14738,4274 14855,4459 14972,4208 15090,4597 15090,4964 14972,4602 14855,4843 14738,4685 14620,5005 14503,5061 14386,4661 14269,4558 14151,4595 14034,4448 13917,4403 13800,4701 13682,4402 13565,4365 13448,4339 13331,4748 13213,4939 13096,4456 12979,4180 12861,4169 12744,3969 12627,3756 12510,3991 12392,3887 12275,3580 12158,3703 12041,3616 11923,3514 11806,3803 11689,3491 11572,3452 11454,3625 11337,3315 11220,3355 11102,3411 10985,3170 10868,3357 10751,3382 10633,3321 10516,3416 10399,3316 10282,3229 10164,3347 10047,3227 9930,3055 9813,3028 9695,2968 9578,2865 9461,3033 9344,2911 9226,2826 9109,2792 8992,2745 8874,2822 8757,2967 8640,2820 8523,2724 8405,2708 8288,2679 8172,2577 8055,2588 7937,2549 7820,2456 7703,2391 7586,2363 7468,2360 7351,2401 7234,2528 7116,2414 6999,2331 6882,2262 6765,2261 6647,2229 6530,2132 6413,2062 6296,2023 6178,2003 6061,1938 5944,1928 5827,1928 5709,1870 5592,1822 5475,1802 5358,1796 5240,1771 5123,1774 5006,1760 4888,1786 4771,1762 4654,1751 4537,1700 4419,1709 4302,1692 4185,1662 4068,1667 3950,1642 3833,1622 3716,1621 3599,1590 3481,1612 3364,1587 3247,1609 3129,1587 3012,1587 2895,1556 2778,1511 2660,1420 2543,1422 2426,1398 2309,1394 2191,1407 2074,1413 1957,1371 1840,1399 1722,1390 1605,1386 1488,1370 1371,1345 1371,1015 Z"/>
 <path fill="rgb(255,211,32)" stroke="none" d="M 1371,1015 L 1488,1024 1605,1027 1722,1033 1840,1036 1957,1039 2074,1052 2191,1052 2309,1053 2426,1057 2543,1061 2660,1054 2778,1086 2895,1094 3012,1079 3129,1092 3247,1094 3364,1071 3481,1085 3599,1062 3716,1069 3833,1061 3950,1058 4068,1060 4185,1058 4302,1067 4419,1066 4537,1063 4654,1068 4771,1072 4888,1096 5006,1071 5123,1058 5240,1047 5358,1049 5475,1059 5592,1060 5709,1061 5827,1064 5944,1061 6061,1060 6178,1063 6296,1055 6413,1070 6530,1069 6647,1076 6765,1105 6882,1101 6999,1110 7116,1207 7234,1127 7351,1089 7468,1085 7586,1080 7703,1074 7820,1077 7937,1153 8055,1084 8172,1091 8288,1073 8405,1079 8523,1078 8640,1087 8757,1107 8874,1084 8992,1095 9109,1118 9226,1118 9344,1113 9461,1140 9578,1141 9695,1141 9813,1136 9930,1149 10047,1149 10164,1161 10282,1141 10399,1149 10516,1107 10633,1124 10751,1116 10868,1092 10985,1102 11102,1296 11220,1083 11337,1165 11454,1150 11572,1151 11689,1142 11806,1131 11923,1136 12041,1129 12158,1106 12275,1094 12392,1108 12510,1100 12627,1099 12744,1114 12861,1131 12979,1143 13096,1139 13213,1321 13331,1182 13448,1154 13565,1159 13682,1144 13800,1162 13917,1183 14034,1174 14151,1182 14269,1180 14386,1171 14503,1161 14620,1165 14738,1183 14855,1155 14972,1153 15090,1189 15090,4597 14972,4208 14855,4459 14738,4274 14620,4624 14503,4683 14386,4262 14269,4142 14151,4199 14034,3993 13917,3968 13800,4254 13682,3900 13565,3821 13448,3771 13331,4191 13213,4340 13096,3932 12979,3632 12861,3627 12744,3462 12627,3236 12510,3409 12392,3318 12275,3002 12158,3123 12041,3039 11923,2944 11806,3256 11689,2927 11572,2915 11454,3085 11337,2741 11220,2782 11102,2850 10985,2657 10868,2827 10751,2862 10633,2788 10516,2835 10399,2708 10282,2617 10164,2736 10047,2608 9930,2431 9813,2401 9695,2321 9578,2226 9461,2431 9344,2309 9226,2216 9109,2191 8992,2147 8874,2238 8757,2373 8640,2221 8523,2120 8405,2081 8288,2063 8172,1951 8055,1967 7937,1940 7820,1864 7703,1821 7586,1782 7468,1778 7351,1784 7234,1970 7116,1850 6999,1754 6882,1632 6765,1681 6647,1688 6530,1597 6413,1549 6296,1513 6178,1486 6061,1434 5944,1430 5827,1424 5709,1388 5592,1340 5475,1325 5358,1315 5240,1290 5123,1287 5006,1264 4888,1280 4771,1250 4654,1238 4537,1218 4419,1215 4302,1200 4185,1170 4068,1161 3950,1150 3833,1153 3716,1154 3599,1138 3481,1158 3364,1140 3247,1158 3129,1150 3012,1134 2895,1128 2778,1113 2660,1054 2543,1061 2426,1057 2309,1053 2191,1052 2074,1052 1957,1039 1840,1036 1722,1033 1605,1027 1488,1024 1371,1015 Z"/>
 <path fill="none" stroke="rgb(0,0,0)" stroke-linejoin="round" d="M 1371,1015 L 1488,1024 1605,1027 1722,1033 1840,1036 1957,1039 2074,1052 2191,1052 2309,1053 2426,1057 2543,1061 2660,1054 2778,1086 2895,1094 3012,1079 3129,1092 3247,1094 3364,1071 3481,1085 3599,1062 3716,1069 3833,1061 3950,1058 4068,1060 4185,1058 4302,1067 4419,1066 4537,1063 4654,1068 4771,1072 4888,1096 5006,1071 5123,1058 5240,1047 5358,1049 5475,1059 5592,1060 5709,1061 5827,1064 5944,1061 6061,1060 6178,1063 6296,1055 6413,1070 6530,1069 6647,1076 6765,1105 6882,1101 6999,1110 7116,1207 7234,1127 7351,1089 7468,1085 7586,1080 7703,1074 7820,1077 7937,1153 8055,1084 8172,1091 8288,1073 8405,1079 8523,1078 8640,1087 8757,1107 8874,1084 8992,1095 9109,1118 9226,1118 9344,1113 9461,1140 9578,1141 9695,1141 9813,1136 9930,1149 10047,1149 10164,1161 10282,1141 10399,1149 10516,1107 10633,1124 10751,1116 10868,1092 10985,1102 11102,1296 11220,1083 11337,1165 11454,1150 11572,1151 11689,1142 11806,1131 11923,1136 12041,1129 12158,1106 12275,1094 12392,1108 12510,1100 12627,1099 12744,1114 12861,1131 12979,1143 13096,1139 13213,1321 13331,1182 13448,1154 13565,1159 13682,1144 13800,1162 13917,1183 14034,1174 14151,1182 14269,1180 14386,1171 14503,1161 14620,1165 14738,1183 14855,1155 14972,1153 15090,1189 15090,4597 14972,4208 14855,4459 14738,4274 14620,4624 14503,4683 14386,4262 14269,4142 14151,4199 14034,3993 13917,3968 13800,4254 13682,3900 13565,3821 13448,3771 13331,4191 13213,4340 13096,3932 12979,3632 12861,3627 12744,3462 12627,3236 12510,3409 12392,3318 12275,3002 12158,3123 12041,3039 11923,2944 11806,3256 11689,2927 11572,2915 11454,3085 11337,2741 11220,2782 11102,2850 10985,2657 10868,2827 10751,2862 10633,2788 10516,2835 10399,2708 10282,2617 10164,2736 10047,2608 9930,2431 9813,2401 9695,2321 9578,2226 9461,2431 9344,2309 9226,2216 9109,2191 8992,2147 8874,2238 8757,2373 8640,2221 8523,2120 8405,2081 8288,2063 8172,1951 8055,1967 7937,1940 7820,1864 7703,1821 7586,1782 7468,1778 7351,1784 7234,1970 7116,1850 6999,1754 6882,1632 6765,1681 6647,1688 6530,1597 6413,1549 6296,1513 6178,1486 6061,1434 5944,1430 5827,1424 5709,1388 5592,1340 5475,1325 5358,1315 5240,1290 5123,1287 5006,1264 4888,1280 4771,1250 4654,1238 4537,1218 4419,1215 4302,1200 4185,1170 4068,1161 3950,1150 3833,1153 3716,1154 3599,1138 3481,1158 3364,1140 3247,1158 3129,1150 3012,1134 2895,1128 2778,1113 2660,1054 2543,1061 2426,1057 2309,1053 2191,1052 2074,1052 1957,1039 1840,1036 1722,1033 1605,1027 1488,1024 1371,1015 Z"/>
 <path fill="rgb(255,51,51)" stroke="none" d="M 1371,952 L 1488,956 1605,956 1722,960 1840,965 1957,965 2074,965 2191,967 2309,972 2426,978 2543,978 2660,979 2778,998 2895,999 3012,991 3129,997 3247,996 3364,967 3481,971 3599,965 3716,968 3833,971 3950,966 4068,968 4185,960 4302,969 4419,968 4537,969 4654,969 4771,971 4888,987 5006,968 5123,968 5240,965 5358,967 5475,976 5592,971 5709,969 5827,973 5944,973 6061,968 6178,973 6296,967 6413,979 6530,981 6647,980 6765,1005 6882,993 6999,993 7116,1082 7234,991 7351,986 7468,998 7586,993 7703,983 7820,985 7937,1064 8055,988 8172,994 8288,973 8405,972 8523,977 8640,985 8757,1007 8874,986 8992,992 9109,1010 9226,1010 9344,1009 9461,1014 9578,1001 9695,1006 9813,1006 9930,1006 10047,1020 10164,1043 10282,1021 10399,1024 10516,980 10633,986 10751,985 10868,960 10985,971 11102,1183 11220,984 11337,1058 11454,1049 11572,1032 11689,1026 11806,1018 11923,1014 12041,1006 12158,979 12275,969 12392,979 12510,986 12627,978 12744,994 12861,1010 12979,1018 13096,1019 13213,1219 13331,1065 13448,1014 13565,998 13682,1001 13800,1018 13917,1035 14034,1018 14151,1038 14269,1030 14386,1039 14503,1033 14620,1038 14738,1054 14855,1007 14972,987 15090,981 15090,1189 14972,1153 14855,1155 14738,1183 14620,1165 14503,1161 14386,1171 14269,1180 14151,1182 14034,1174 13917,1183 13800,1162 13682,1144 13565,1159 13448,1154 13331,1182 13213,1321 13096,1139 12979,1143 12861,1131 12744,1114 12627,1099 12510,1100 12392,1108 12275,1094 12158,1106 12041,1129 11923,1136 11806,1131 11689,1142 11572,1151 11454,1150 11337,1165 11220,1083 11102,1296 10985,1102 10868,1092 10751,1116 10633,1124 10516,1107 10399,1149 10282,1141 10164,1161 10047,1149 9930,1149 9813,1136 9695,1141 9578,1141 9461,1140 9344,1113 9226,1118 9109,1118 8992,1095 8874,1084 8757,1107 8640,1087 8523,1078 8405,1079 8288,1073 8172,1091 8055,1084 7937,1153 7820,1077 7703,1074 7586,1080 7468,1085 7351,1089 7234,1127 7116,1207 6999,1110 6882,1101 6765,1105 6647,1076 6530,1069 6413,1070 6296,1055 6178,1063 6061,1060 5944,1061 5827,1064 5709,1061 5592,1060 5475,1059 5358,1049 5240,1047 5123,1058 5006,1071 4888,1096 4771,1072 4654,1068 4537,1063 4419,1066 4302,1067 4185,1058 4068,1060 3950,1058 3833,1061 3716,1069 3599,1062 3481,1085 3364,1071 3247,1094 3129,1092 3012,1079 2895,1094 2778,1086 2660,1054 2543,1061 2426,1057 2309,1053 2191,1052 2074,1052 1957,1039 1840,1036 1722,1033 1605,1027 1488,1024 1371,1015 1371,952 Z"/>
 <path fill="none" stroke="rgb(0,0,0)" stroke-linejoin="round" d="M 1371,952 L 1488,956 1605,956 1722,960 1840,965 1957,965 2074,965 2191,967 2309,972 2426,978 2543,978 2660,979 2778,998 2895,999 3012,991 3129,997 3247,996 3364,967 3481,971 3599,965 3716,968 3833,971 3950,966 4068,968 4185,960 4302,969 4419,968 4537,969 4654,969 4771,971 4888,987 5006,968 5123,968 5240,965 5358,967 5475,976 5592,971 5709,969 5827,973 5944,973 6061,968 6178,973 6296,967 6413,979 6530,981 6647,980 6765,1005 6882,993 6999,993 7116,1082 7234,991 7351,986 7468,998 7586,993 7703,983 7820,985 7937,1064 8055,988 8172,994 8288,973 8405,972 8523,977 8640,985 8757,1007 8874,986 8992,992 9109,1010 9226,1010 9344,1009 9461,1014 9578,1001 9695,1006 9813,1006 9930,1006 10047,1020 10164,1043 10282,1021 10399,1024 10516,980 10633,986 10751,985 10868,960 10985,971 11102,1183 11220,984 11337,1058 11454,1049 11572,1032 11689,1026 11806,1018 11923,1014 12041,1006 12158,979 12275,969 12392,979 12510,986 12627,978 12744,994 12861,1010 12979,1018 13096,1019 13213,1219 13331,1065 13448,1014 13565,998 13682,1001 13800,1018 13917,1035 14034,1018 14151,1038 14269,1030 14386,1039 14503,1033 14620,1038 14738,1054 14855,1007 14972,987 15090,981 15090,1189 14972,1153 14855,1155 14738,1183 14620,1165 14503,1161 14386,1171 14269,1180 14151,1182 14034,1174 13917,1183 13800,1162 13682,1144 13565,1159 13448,1154 13331,1182 13213,1321 13096,1139 12979,1143 12861,1131 12744,1114 12627,1099 12510,1100 12392,1108 12275,1094 12158,1106 12041,1129 11923,1136 11806,1131 11689,1142 11572,1151 11454,1150 11337,1165 11220,1083 11102,1296 10985,1102 10868,1092 10751,1116 10633,1124 10516,1107 10399,1149 10282,1141 10164,1161 10047,1149 9930,1149 9813,1136 9695,1141 9578,1141 9461,1140 9344,1113 9226,1118 9109,1118 8992,1095 8874,1084 8757,1107 8640,1087 8523,1078 8405,1079 8288,1073 8172,1091 8055,1084 7937,1153 7820,1077 7703,1074 7586,1080 7468,1085 7351,1089 7234,1127 7116,1207 6999,1110 6882,1101 6765,1105 6647,1076 6530,1069 6413,1070 6296,1055 6178,1063 6061,1060 5944,1061 5827,1064 5709,1061 5592,1060 5475,1059 5358,1049 5240,1047 5123,1058 5006,1071 4888,1096 4771,1072 4654,1068 4537,1063 4419,1066 4302,1067 4185,1058 4068,1060 3950,1058 3833,1061 3716,1069 3599,1062 3481,1085 3364,1071 3247,1094 3129,1092 3012,1079 2895,1094 2778,1086 2660,1054 2543,1061 2426,1057 2309,1053 2191,1052 2074,1052 1957,1039 1840,1036 1722,1033 1605,1027 1488,1024 1371,1015 1371,952 Z"/>
 <path fill="rgb(255,255,255)" stroke="none" d="M 1371,930 L 1488,930 1605,930 1722,930 1957,930 2191,930 2309,930 2426,930 2543,930 2660,930 2778,930 2895,930 3012,930 3129,930 3247,930 3364,930 3481,930 3599,930 3716,930 3833,930 3950,930 4068,930 4185,930 4302,930 4419,930 4537,930 4654,930 4771,930 4888,930 5006,930 5123,930 5240,930 5358,930 5592,930 5709,930 5827,930 5944,930 6061,930 6178,930 6296,930 6530,930 6647,930 6765,930 6882,930 6999,930 7116,930 7234,930 7351,930 7468,930 7586,930 7820,930 7937,930 8172,930 8288,930 8405,930 8523,930 8640,930 8757,930 8874,930 8992,930 9109,930 9226,930 9344,930 9461,930 9578,930 9695,930 9930,930 10047,930 10164,930 10282,930 10399,930 10516,930 10633,930 10751,930 10985,930 11220,930 11337,930 11454,930 11572,930 11689,930 11806,930 11923,930 12158,930 12275,930 12392,930 12510,930 12627,930 12744,930 12979,930 13096,930 13213,930 13448,930 13565,930 13682,930 13800,930 13917,930 14269,930 14386,930 14503,930 14620,930 14738,930 14972,930 15090,930 15090,981 14972,987 14855,1007 14738,1054 14620,1038 14503,1033 14386,1039 14269,1030 14151,1038 14034,1018 13917,1035 13800,1018 13682,1001 13565,998 13448,1014 13331,1065 13213,1219 13096,1019 12979,1018 12861,1010 12744,994 12627,978 12510,986 12392,979 12275,969 12158,979 12041,1006 11923,1014 11806,1018 11689,1026 11572,1032 11454,1049 11337,1058 11220,984 11102,1183 10985,971 10868,960 10751,985 10633,986 10516,980 10399,1024 10282,1021 10164,1043 10047,1020 9930,1006 9813,1006 9695,1006 9578,1001 9461,1014 9344,1009 9226,1010 9109,1010 8992,992 8874,986 8757,1007 8640,985 8523,977 8405,972 8288,973 8172,994 8055,988 7937,1064 7820,985 7703,983 7586,993 7468,998 7351,986 7234,991 7116,1082 6999,993 6882,993 6765,1005 6647,980 6530,981 6413,979 6296,967 6178,973 6061,968 5944,973 5827,973 5709,969 5592,971 5475,976 5358,967 5240,965 5123,968 5006,968 4888,987 4771,971 4654,969 4537,969 4419,968 4302,969 4185,960 4068,968 3950,966 3833,971 3716,968 3599,965 3481,971 3364,967 3247,996 3129,997 3012,991 2895,999 2778,998 2660,979 2543,978 2426,978 2309,972 2191,967 2074,965 1957,965 1840,965 1722,960 1605,956 1488,956 1371,952 1371,930 Z"/>
 <text class="TextShape"><tspan class="TextParagraph" font-family="Arial, sans-serif" font-size="388px" font-weight="400"><tspan class="TextPosition" x="1181" y="11152"><tspan fill="rgb(0,0,0)" stroke="none">2008</tspan></tspan></tspan></text>
 <text class="TextShape"><tspan class="TextParagraph" font-family="Arial, sans-serif" font-size="388px" font-weight="400"><tspan class="TextPosition" x="2588" y="11152"><tspan fill="rgb(0,0,0)" stroke="none">2009</tspan></tspan></tspan></text>
 <text class="TextShape"><tspan class="TextParagraph" font-family="Arial, sans-serif" font-size="388px" font-weight="400"><tspan class="TextPosition" x="3995" y="11152"><tspan fill="rgb(0,0,0)" stroke="none">2010</tspan></tspan></tspan></text>
 <text class="TextShape"><tspan class="TextParagraph" font-family="Arial, sans-serif" font-size="388px" font-weight="400"><tspan class="TextPosition" x="5403" y="11152"><tspan fill="rgb(0,0,0)" stroke="none">2011</tspan></tspan></tspan></text>
 <text class="TextShape"><tspan class="TextParagraph" font-family="Arial, sans-serif" font-size="388px" font-weight="400"><tspan class="TextPosition" x="6810" y="11152"><tspan fill="rgb(0,0,0)" stroke="none">2012</tspan></tspan></tspan></text>
 <text class="TextShape"><tspan class="TextParagraph" font-family="Arial, sans-serif" font-size="388px" font-weight="400"><tspan class="TextPosition" x="8217" y="11152"><tspan fill="rgb(0,0,0)" stroke="none">2013</tspan></tspan></tspan></text>
 <text class="TextShape"><tspan class="TextParagraph" font-family="Arial, sans-serif" font-size="388px" font-weight="400"><tspan class="TextPosition" x="9624" y="11152"><tspan fill="rgb(0,0,0)" stroke="none">2014</tspan></tspan></tspan></text>
 <text class="TextShape"><tspan class="TextParagraph" font-family="Arial, sans-serif" font-size="388px" font-weight="400"><tspan class="TextPosition" x="11031" y="11152"><tspan fill="rgb(0,0,0)" stroke="none">2015</tspan></tspan></tspan></text>
 <text class="TextShape"><tspan class="TextParagraph" font-family="Arial, sans-serif" font-size="388px" font-weight="400"><tspan class="TextPosition" x="12438" y="11152"><tspan fill="rgb(0,0,0)" stroke="none">2016</tspan></tspan></tspan></text>
 <text class="TextShape"><tspan class="TextParagraph" font-family="Arial, sans-serif" font-size="388px" font-weight="400"><tspan class="TextPosition" x="13846" y="11152"><tspan fill="rgb(0,0,0)" stroke="none">2017</tspan></tspan></tspan></text>
 <text class="TextShape"><tspan class="TextParagraph" font-family="Arial, sans-serif" font-size="388px" font-weight="400"><tspan class="TextPosition" x="565" y="10692"><tspan fill="rgb(0,0,0)" stroke="none">0%</tspan></tspan></tspan></text>
 <text class="TextShape"><tspan class="TextParagraph" font-family="Arial, sans-serif" font-size="388px" font-weight="400"><tspan class="TextPosition" x="354" y="9729"><tspan fill="rgb(0,0,0)" stroke="none">10%</tspan></tspan></tspan></text>
 <text class="TextShape"><tspan class="TextParagraph" font-family="Arial, sans-serif" font-size="388px" font-weight="400"><tspan class="TextPosition" x="354" y="8766"><tspan fill="rgb(0,0,0)" stroke="none">20%</tspan></tspan></tspan></text>
 <text class="TextShape"><tspan class="TextParagraph" font-family="Arial, sans-serif" font-size="388px" font-weight="400"><tspan class="TextPosition" x="354" y="7803"><tspan fill="rgb(0,0,0)" stroke="none">30%</tspan></tspan></tspan></text>
 <text class="TextShape"><tspan class="TextParagraph" font-family="Arial, sans-serif" font-size="388px" font-weight="400"><tspan class="TextPosition" x="354" y="6840"><tspan fill="rgb(0,0,0)" stroke="none">40%</tspan></tspan></tspan></text>
 <text class="TextShape"><tspan class="TextParagraph" font-family="Arial, sans-serif" font-size="388px" font-weight="400"><tspan class="TextPosition" x="354" y="5877"><tspan fill="rgb(0,0,0)" stroke="none">50%</tspan></tspan></tspan></text>
 <text class="TextShape"><tspan class="TextParagraph" font-family="Arial, sans-serif" font-size="388px" font-weight="400"><tspan class="TextPosition" x="354" y="4914"><tspan fill="rgb(0,0,0)" stroke="none">60%</tspan></tspan></tspan></text>
 <text class="TextShape"><tspan class="TextParagraph" font-family="Arial, sans-serif" font-size="388px" font-weight="400"><tspan class="TextPosition" x="354" y="3951"><tspan fill="rgb(0,0,0)" stroke="none">70%</tspan></tspan></tspan></text>
 <text class="TextShape"><tspan class="TextParagraph" font-family="Arial, sans-serif" font-size="388px" font-weight="400"><tspan class="TextPosition" x="354" y="2988"><tspan fill="rgb(0,0,0)" stroke="none">80%</tspan></tspan></tspan></text>
 <text class="TextShape"><tspan class="TextParagraph" font-family="Arial, sans-serif" font-size="388px" font-weight="400"><tspan class="TextPosition" x="354" y="2025"><tspan fill="rgb(0,0,0)" stroke="none">90%</tspan></tspan></tspan></text>
 <text class="TextShape"><tspan class="TextParagraph" font-family="Arial, sans-serif" font-size="388px" font-weight="400"><tspan class="TextPosition" x="142" y="1063"><tspan fill="rgb(0,0,0)" stroke="none">100%</tspan></tspan></tspan></text>
 <text class="TextShape"><tspan class="TextParagraph" font-family="Arial, sans-serif" font-size="388px" font-weight="400"><tspan class="TextPosition" x="15340" y="10692"><tspan fill="rgb(0,0,0)" stroke="none">0%</tspan></tspan></tspan></text>
 <text class="TextShape"><tspan class="TextParagraph" font-family="Arial, sans-serif" font-size="388px" font-weight="400"><tspan class="TextPosition" x="15340" y="9729"><tspan fill="rgb(0,0,0)" stroke="none">10%</tspan></tspan></tspan></text>
 <text class="TextShape"><tspan class="TextParagraph" font-family="Arial, sans-serif" font-size="388px" font-weight="400"><tspan class="TextPosition" x="15340" y="8766"><tspan fill="rgb(0,0,0)" stroke="none">20%</tspan></tspan></tspan></text>
 <text class="TextShape"><tspan class="TextParagraph" font-family="Arial, sans-serif" font-size="388px" font-weight="400"><tspan class="TextPosition" x="15340" y="7803"><tspan fill="rgb(0,0,0)" stroke="none">30%</tspan></tspan></tspan></text>
 <text class="TextShape"><tspan class="TextParagraph" font-family="Arial, sans-serif" font-size="388px" font-weight="400"><tspan class="TextPosition" x="15340" y="6840"><tspan fill="rgb(0,0,0)" stroke="none">40%</tspan></tspan></tspan></text>
 <text class="TextShape"><tspan class="TextParagraph" font-family="Arial, sans-serif" font-size="388px" font-weight="400"><tspan class="TextPosition" x="15340" y="5877"><tspan fill="rgb(0,0,0)" stroke="none">50%</tspan></tspan></tspan></text>
 <text class="TextShape"><tspan class="TextParagraph" font-family="Arial, sans-serif" font-size="388px" font-weight="400"><tspan class="TextPosition" x="15340" y="4914"><tspan fill="rgb(0,0,0)" stroke="none">60%</tspan></tspan></tspan></text>
 <text class="TextShape"><tspan class="TextParagraph" font-family="Arial, sans-serif" font-size="388px" font-weight="400"><tspan class="TextPosition" x="15340" y="3951"><tspan fill="rgb(0,0,0)" stroke="none">70%</tspan></tspan></tspan></text>
 <text class="TextShape"><tspan class="TextParagraph" font-family="Arial, sans-serif" font-size="388px" font-weight="400"><tspan class="TextPosition" x="15340" y="2988"><tspan fill="rgb(0,0,0)" stroke="none">80%</tspan></tspan></tspan></text>
 <text class="TextShape"><tspan class="TextParagraph" font-family="Arial, sans-serif" font-size="388px" font-weight="400"><tspan class="TextPosition" x="15340" y="2025"><tspan fill="rgb(0,0,0)" stroke="none">90%</tspan></tspan></tspan></text>
 <text class="TextShape"><tspan class="TextParagraph" font-family="Arial, sans-serif" font-size="388px" font-weight="400"><tspan class="TextPosition" x="15340" y="1063"><tspan fill="rgb(0,0,0)" stroke="none">100%</tspan></tspan></tspan></text>
 <text class="TextShape"><tspan class="TextParagraph" font-family="Arial, sans-serif" font-size="635px" font-weight="700"><tspan class="TextPosition" x="3375" y="747"><tspan fill="rgb(0,0,0)" stroke="none">Utilizacin de sistemas operativos</tspan></tspan></tspan></text>
 <path fill="rgb(0,69,134)" stroke="none" d="M 10757,12057 L 10651,12057 10651,11846 10862,11846 10862,12057 10757,12057 Z"/>
 <path fill="none" stroke="rgb(0,0,0)" stroke-linejoin="round" d="M 10757,12057 L 10651,12057 10651,11846 10862,11846 10862,12057 10757,12057 Z"/>
 <path fill="rgb(51,153,102)" stroke="none" d="M 9123,12057 L 9017,12057 9017,11846 9228,11846 9228,12057 9123,12057 Z"/>
 <path fill="none" stroke="rgb(0,0,0)" stroke-linejoin="round" d="M 9123,12057 L 9017,12057 9017,11846 9228,11846 9228,12057 9123,12057 Z"/>
 <path fill="rgb(131,202,255)" stroke="none" d="M 7436,12057 L 7331,12057 7331,11846 7542,11846 7542,12057 7436,12057 Z"/>
 <path fill="rgb(0,204,255)" stroke="none" d="M 5458,12057 L 5353,12057 5353,11846 5564,11846 5564,12057 5458,12057 Z"/>
 <path fill="none" stroke="rgb(0,0,0)" stroke-linejoin="round" d="M 5458,12057 L 5353,12057 5353,11846 5564,11846 5564,12057 5458,12057 Z"/>
 <path fill="rgb(0,102,204)" stroke="none" d="M 4089,12057 L 3984,12057 3984,11846 4195,11846 4195,12057 4089,12057 Z"/>
 <path fill="none" stroke="rgb(0,0,0)" stroke-linejoin="round" d="M 4089,12057 L 3984,12057 3984,11846 4195,11846 4195,12057 4089,12057 Z"/>
 <path fill="rgb(0,132,209)" stroke="none" d="M 12364,11498 L 12258,11498 12258,11287 12469,11287 12469,11498 12364,11498 Z"/>
 <path fill="none" stroke="rgb(0,0,0)" stroke-linejoin="round" d="M 12364,11498 L 12258,11498 12258,11287 12469,11287 12469,11498 12364,11498 Z"/>
 <path fill="rgb(0,69,134)" stroke="none" d="M 10757,11498 L 10651,11498 10651,11287 10862,11287 10862,11498 10757,11498 Z"/>
 <path fill="none" stroke="rgb(0,0,0)" stroke-linejoin="round" d="M 10757,11498 L 10651,11498 10651,11287 10862,11287 10862,11498 10757,11498 Z"/>
 <path fill="rgb(0,102,0)" stroke="none" d="M 9123,11498 L 9017,11498 9017,11287 9228,11287 9228,11498 9123,11498 Z"/>
 <path fill="none" stroke="rgb(0,0,0)" stroke-linejoin="round" d="M 9123,11498 L 9017,11498 9017,11287 9228,11287 9228,11498 9123,11498 Z"/>
 <path fill="rgb(255,211,32)" stroke="none" d="M 7436,11498 L 7331,11498 7331,11287 7542,11287 7542,11498 7436,11498 Z"/>
 <path fill="none" stroke="rgb(0,0,0)" stroke-linejoin="round" d="M 7436,11498 L 7331,11498 7331,11287 7542,11287 7542,11498 7436,11498 Z"/>
 <path fill="rgb(255,51,51)" stroke="none" d="M 5458,11498 L 5353,11498 5353,11287 5564,11287 5564,11498 5458,11498 Z"/>
 <path fill="none" stroke="rgb(0,0,0)" stroke-linejoin="round" d="M 5458,11498 L 5353,11498 5353,11287 5564,11287 5564,11498 5458,11498 Z"/>
 <path fill="rgb(255,255,255)" stroke="none" d="M 4089,11498 L 3984,11498 3984,11287 4195,11287 4195,11498 4089,11498 Z"/>
 <text class="TextShape"><tspan class="TextParagraph" font-family="Arial, sans-serif" font-size="353px" font-weight="400"><tspan class="TextPosition" x="4295" y="11511"><tspan fill="rgb(0,0,0)" stroke="none">Otros</tspan></tspan></tspan></text>
 <text class="TextShape"><tspan class="TextParagraph" font-family="Arial, sans-serif" font-size="353px" font-weight="400"><tspan class="TextPosition" x="5664" y="11511"><tspan fill="rgb(0,0,0)" stroke="none">Linux</tspan></tspan></tspan></text>
 <text class="TextShape"><tspan class="TextParagraph" font-family="Arial, sans-serif" font-size="353px" font-weight="400"><tspan class="TextPosition" x="7642" y="11511"><tspan fill="rgb(0,0,0)" stroke="none">Mviles</tspan></tspan></tspan></text>
 <text class="TextShape"><tspan class="TextParagraph" font-family="Arial, sans-serif" font-size="353px" font-weight="400"><tspan class="TextPosition" x="9328" y="11511"><tspan fill="rgb(0,0,0)" stroke="none">Mac</tspan></tspan></tspan></text>
 <text class="TextShape"><tspan class="TextParagraph" font-family="Arial, sans-serif" font-size="353px" font-weight="400"><tspan class="TextPosition" x="10962" y="11511"><tspan fill="rgb(0,0,0)" stroke="none">Win 10</tspan></tspan></tspan></text>
 <text class="TextShape"><tspan class="TextParagraph" font-family="Arial, sans-serif" font-size="353px" font-weight="400"><tspan class="TextPosition" x="12569" y="11511"><tspan fill="rgb(0,0,0)" stroke="none">Win 8</tspan></tspan></tspan></text>
 <text class="TextShape"><tspan class="TextParagraph" font-family="Arial, sans-serif" font-size="353px" font-weight="400"><tspan class="TextPosition" x="4295" y="12070"><tspan fill="rgb(0,0,0)" stroke="none">Win 7</tspan></tspan></tspan></text>
 <text class="TextShape"><tspan class="TextParagraph" font-family="Arial, sans-serif" font-size="353px" font-weight="400"><tspan class="TextPosition" x="5664" y="12070"><tspan fill="rgb(0,0,0)" stroke="none">Win Vista</tspan></tspan></tspan></text>
 <text class="TextShape"><tspan class="TextParagraph" font-family="Arial, sans-serif" font-size="353px" font-weight="400"><tspan class="TextPosition" x="7642" y="12070"><tspan fill="rgb(0,0,0)" stroke="none">Win XP</tspan></tspan></tspan></text>
 <text class="TextShape"><tspan class="TextParagraph" font-family="Arial, sans-serif" font-size="353px" font-weight="400"><tspan class="TextPosition" x="9328" y="12070"><tspan fill="rgb(0,0,0)" stroke="none">Win NT</tspan></tspan></tspan></text>
 <text class="TextShape"><tspan class="TextParagraph" font-family="Arial, sans-serif" font-size="353px" font-weight="400"><tspan class="TextPosition" x="10962" y="12070"><tspan fill="rgb(0,0,0)" stroke="none">Win 9X</tspan></tspan></tspan></text>
</svg>
