<?xml version="1.0" encoding="UTF-8"?>
<!DOCTYPE svg PUBLIC "-//W3C//DTD SVG 1.1//EN" "http://www.w3.org/Graphics/SVG/1.1/DTD/svg11.dtd">
<svg width="166mm" height="124mm" viewBox="0 0 16600 12400" version="1.1" xmlns="http://www.w3.org/2000/svg" stroke-width="28.222" stroke-linejoin="round" xml:space="preserve">
 <path fill="rgb(255,255,255)" stroke="none" d="M 8298,12447 L 0,12447 0,27 16595,27 16595,12447 8298,12447 Z"/>
 <path fill="none" stroke="rgb(179,179,179)" stroke-linejoin="round" d="M 8346,10674 L 1229,10674 1229,1156 15463,1156 15463,10674 8346,10674 Z"/>
 <path fill="none" stroke="rgb(0,0,0)" stroke-linejoin="round" d="M 15463,10673 L 1229,10673"/>
 <path fill="none" stroke="rgb(0,0,0)" stroke-linejoin="round" d="M 15463,9615 L 1229,9615"/>
 <path fill="none" stroke="rgb(0,0,0)" stroke-linejoin="round" d="M 15463,8558 L 1229,8558"/>
 <path fill="none" stroke="rgb(0,0,0)" stroke-linejoin="round" d="M 15463,7500 L 1229,7500"/>
 <path fill="none" stroke="rgb(0,0,0)" stroke-linejoin="round" d="M 15463,6443 L 1229,6443"/>
 <path fill="none" stroke="rgb(0,0,0)" stroke-linejoin="round" d="M 15463,5385 L 1229,5385"/>
 <path fill="none" stroke="rgb(0,0,0)" stroke-linejoin="round" d="M 15463,4327 L 1229,4327"/>
 <path fill="none" stroke="rgb(0,0,0)" stroke-linejoin="round" d="M 15463,3270 L 1229,3270"/>
 <path fill="none" stroke="rgb(0,0,0)" stroke-linejoin="round" d="M 15463,2212 L 1229,2212"/>
 <path fill="none" stroke="rgb(0,0,0)" stroke-linejoin="round" d="M 15463,1155 L 1229,1155"/>
 <path fill="none" stroke="rgb(0,0,0)" stroke-linejoin="round" d="M 1229,10823 L 1229,10673"/>
 <path fill="none" stroke="rgb(0,0,0)" stroke-linejoin="round" d="M 1229,10823 L 1229,10673"/>
 <path fill="none" stroke="rgb(0,0,0)" stroke-linejoin="round" d="M 1351,10823 L 1351,10673"/>
 <path fill="none" stroke="rgb(0,0,0)" stroke-linejoin="round" d="M 1351,10823 L 1351,10673"/>
 <path fill="none" stroke="rgb(0,0,0)" stroke-linejoin="round" d="M 1474,10823 L 1474,10673"/>
 <path fill="none" stroke="rgb(0,0,0)" stroke-linejoin="round" d="M 1474,10823 L 1474,10673"/>
 <path fill="none" stroke="rgb(0,0,0)" stroke-linejoin="round" d="M 1597,10823 L 1597,10673"/>
 <path fill="none" stroke="rgb(0,0,0)" stroke-linejoin="round" d="M 1597,10823 L 1597,10673"/>
 <path fill="none" stroke="rgb(0,0,0)" stroke-linejoin="round" d="M 1719,10823 L 1719,10673"/>
 <path fill="none" stroke="rgb(0,0,0)" stroke-linejoin="round" d="M 1719,10823 L 1719,10673"/>
 <path fill="none" stroke="rgb(0,0,0)" stroke-linejoin="round" d="M 1842,10823 L 1842,10673"/>
 <path fill="none" stroke="rgb(0,0,0)" stroke-linejoin="round" d="M 1842,10823 L 1842,10673"/>
 <path fill="none" stroke="rgb(0,0,0)" stroke-linejoin="round" d="M 1965,10823 L 1965,10673"/>
 <path fill="none" stroke="rgb(0,0,0)" stroke-linejoin="round" d="M 1965,10823 L 1965,10673"/>
 <path fill="none" stroke="rgb(0,0,0)" stroke-linejoin="round" d="M 2088,10823 L 2088,10673"/>
 <path fill="none" stroke="rgb(0,0,0)" stroke-linejoin="round" d="M 2088,10823 L 2088,10673"/>
 <path fill="none" stroke="rgb(0,0,0)" stroke-linejoin="round" d="M 2210,10823 L 2210,10673"/>
 <path fill="none" stroke="rgb(0,0,0)" stroke-linejoin="round" d="M 2210,10823 L 2210,10673"/>
 <path fill="none" stroke="rgb(0,0,0)" stroke-linejoin="round" d="M 2333,10823 L 2333,10673"/>
 <path fill="none" stroke="rgb(0,0,0)" stroke-linejoin="round" d="M 2333,10823 L 2333,10673"/>
 <path fill="none" stroke="rgb(0,0,0)" stroke-linejoin="round" d="M 2456,10823 L 2456,10673"/>
 <path fill="none" stroke="rgb(0,0,0)" stroke-linejoin="round" d="M 2456,10823 L 2456,10673"/>
 <path fill="none" stroke="rgb(0,0,0)" stroke-linejoin="round" d="M 2578,10823 L 2578,10673"/>
 <path fill="none" stroke="rgb(0,0,0)" stroke-linejoin="round" d="M 2578,10823 L 2578,10673"/>
 <path fill="none" stroke="rgb(0,0,0)" stroke-linejoin="round" d="M 2701,10823 L 2701,10673"/>
 <path fill="none" stroke="rgb(0,0,0)" stroke-linejoin="round" d="M 2701,10823 L 2701,10673"/>
 <path fill="none" stroke="rgb(0,0,0)" stroke-linejoin="round" d="M 2824,10823 L 2824,10673"/>
 <path fill="none" stroke="rgb(0,0,0)" stroke-linejoin="round" d="M 2824,10823 L 2824,10673"/>
 <path fill="none" stroke="rgb(0,0,0)" stroke-linejoin="round" d="M 2947,10823 L 2947,10673"/>
 <path fill="none" stroke="rgb(0,0,0)" stroke-linejoin="round" d="M 2947,10823 L 2947,10673"/>
 <path fill="none" stroke="rgb(0,0,0)" stroke-linejoin="round" d="M 3069,10823 L 3069,10673"/>
 <path fill="none" stroke="rgb(0,0,0)" stroke-linejoin="round" d="M 3069,10823 L 3069,10673"/>
 <path fill="none" stroke="rgb(0,0,0)" stroke-linejoin="round" d="M 3192,10823 L 3192,10673"/>
 <path fill="none" stroke="rgb(0,0,0)" stroke-linejoin="round" d="M 3192,10823 L 3192,10673"/>
 <path fill="none" stroke="rgb(0,0,0)" stroke-linejoin="round" d="M 3315,10823 L 3315,10673"/>
 <path fill="none" stroke="rgb(0,0,0)" stroke-linejoin="round" d="M 3315,10823 L 3315,10673"/>
 <path fill="none" stroke="rgb(0,0,0)" stroke-linejoin="round" d="M 3437,10823 L 3437,10673"/>
 <path fill="none" stroke="rgb(0,0,0)" stroke-linejoin="round" d="M 3437,10823 L 3437,10673"/>
 <path fill="none" stroke="rgb(0,0,0)" stroke-linejoin="round" d="M 3560,10823 L 3560,10673"/>
 <path fill="none" stroke="rgb(0,0,0)" stroke-linejoin="round" d="M 3560,10823 L 3560,10673"/>
 <path fill="none" stroke="rgb(0,0,0)" stroke-linejoin="round" d="M 3683,10823 L 3683,10673"/>
 <path fill="none" stroke="rgb(0,0,0)" stroke-linejoin="round" d="M 3683,10823 L 3683,10673"/>
 <path fill="none" stroke="rgb(0,0,0)" stroke-linejoin="round" d="M 3806,10823 L 3806,10673"/>
 <path fill="none" stroke="rgb(0,0,0)" stroke-linejoin="round" d="M 3806,10823 L 3806,10673"/>
 <path fill="none" stroke="rgb(0,0,0)" stroke-linejoin="round" d="M 3928,10823 L 3928,10673"/>
 <path fill="none" stroke="rgb(0,0,0)" stroke-linejoin="round" d="M 3928,10823 L 3928,10673"/>
 <path fill="none" stroke="rgb(0,0,0)" stroke-linejoin="round" d="M 4051,10823 L 4051,10673"/>
 <path fill="none" stroke="rgb(0,0,0)" stroke-linejoin="round" d="M 4051,10823 L 4051,10673"/>
 <path fill="none" stroke="rgb(0,0,0)" stroke-linejoin="round" d="M 4174,10823 L 4174,10673"/>
 <path fill="none" stroke="rgb(0,0,0)" stroke-linejoin="round" d="M 4174,10823 L 4174,10673"/>
 <path fill="none" stroke="rgb(0,0,0)" stroke-linejoin="round" d="M 4296,10823 L 4296,10673"/>
 <path fill="none" stroke="rgb(0,0,0)" stroke-linejoin="round" d="M 4296,10823 L 4296,10673"/>
 <path fill="none" stroke="rgb(0,0,0)" stroke-linejoin="round" d="M 4419,10823 L 4419,10673"/>
 <path fill="none" stroke="rgb(0,0,0)" stroke-linejoin="round" d="M 4419,10823 L 4419,10673"/>
 <path fill="none" stroke="rgb(0,0,0)" stroke-linejoin="round" d="M 4542,10823 L 4542,10673"/>
 <path fill="none" stroke="rgb(0,0,0)" stroke-linejoin="round" d="M 4542,10823 L 4542,10673"/>
 <path fill="none" stroke="rgb(0,0,0)" stroke-linejoin="round" d="M 4665,10823 L 4665,10673"/>
 <path fill="none" stroke="rgb(0,0,0)" stroke-linejoin="round" d="M 4665,10823 L 4665,10673"/>
 <path fill="none" stroke="rgb(0,0,0)" stroke-linejoin="round" d="M 4787,10823 L 4787,10673"/>
 <path fill="none" stroke="rgb(0,0,0)" stroke-linejoin="round" d="M 4787,10823 L 4787,10673"/>
 <path fill="none" stroke="rgb(0,0,0)" stroke-linejoin="round" d="M 4910,10823 L 4910,10673"/>
 <path fill="none" stroke="rgb(0,0,0)" stroke-linejoin="round" d="M 4910,10823 L 4910,10673"/>
 <path fill="none" stroke="rgb(0,0,0)" stroke-linejoin="round" d="M 5033,10823 L 5033,10673"/>
 <path fill="none" stroke="rgb(0,0,0)" stroke-linejoin="round" d="M 5033,10823 L 5033,10673"/>
 <path fill="none" stroke="rgb(0,0,0)" stroke-linejoin="round" d="M 5155,10823 L 5155,10673"/>
 <path fill="none" stroke="rgb(0,0,0)" stroke-linejoin="round" d="M 5155,10823 L 5155,10673"/>
 <path fill="none" stroke="rgb(0,0,0)" stroke-linejoin="round" d="M 5278,10823 L 5278,10673"/>
 <path fill="none" stroke="rgb(0,0,0)" stroke-linejoin="round" d="M 5278,10823 L 5278,10673"/>
 <path fill="none" stroke="rgb(0,0,0)" stroke-linejoin="round" d="M 5401,10823 L 5401,10673"/>
 <path fill="none" stroke="rgb(0,0,0)" stroke-linejoin="round" d="M 5401,10823 L 5401,10673"/>
 <path fill="none" stroke="rgb(0,0,0)" stroke-linejoin="round" d="M 5524,10823 L 5524,10673"/>
 <path fill="none" stroke="rgb(0,0,0)" stroke-linejoin="round" d="M 5524,10823 L 5524,10673"/>
 <path fill="none" stroke="rgb(0,0,0)" stroke-linejoin="round" d="M 5646,10823 L 5646,10673"/>
 <path fill="none" stroke="rgb(0,0,0)" stroke-linejoin="round" d="M 5646,10823 L 5646,10673"/>
 <path fill="none" stroke="rgb(0,0,0)" stroke-linejoin="round" d="M 5769,10823 L 5769,10673"/>
 <path fill="none" stroke="rgb(0,0,0)" stroke-linejoin="round" d="M 5769,10823 L 5769,10673"/>
 <path fill="none" stroke="rgb(0,0,0)" stroke-linejoin="round" d="M 5892,10823 L 5892,10673"/>
 <path fill="none" stroke="rgb(0,0,0)" stroke-linejoin="round" d="M 5892,10823 L 5892,10673"/>
 <path fill="none" stroke="rgb(0,0,0)" stroke-linejoin="round" d="M 6014,10823 L 6014,10673"/>
 <path fill="none" stroke="rgb(0,0,0)" stroke-linejoin="round" d="M 6014,10823 L 6014,10673"/>
 <path fill="none" stroke="rgb(0,0,0)" stroke-linejoin="round" d="M 6137,10823 L 6137,10673"/>
 <path fill="none" stroke="rgb(0,0,0)" stroke-linejoin="round" d="M 6137,10823 L 6137,10673"/>
 <path fill="none" stroke="rgb(0,0,0)" stroke-linejoin="round" d="M 6260,10823 L 6260,10673"/>
 <path fill="none" stroke="rgb(0,0,0)" stroke-linejoin="round" d="M 6260,10823 L 6260,10673"/>
 <path fill="none" stroke="rgb(0,0,0)" stroke-linejoin="round" d="M 6383,10823 L 6383,10673"/>
 <path fill="none" stroke="rgb(0,0,0)" stroke-linejoin="round" d="M 6383,10823 L 6383,10673"/>
 <path fill="none" stroke="rgb(0,0,0)" stroke-linejoin="round" d="M 6505,10823 L 6505,10673"/>
 <path fill="none" stroke="rgb(0,0,0)" stroke-linejoin="round" d="M 6505,10823 L 6505,10673"/>
 <path fill="none" stroke="rgb(0,0,0)" stroke-linejoin="round" d="M 6628,10823 L 6628,10673"/>
 <path fill="none" stroke="rgb(0,0,0)" stroke-linejoin="round" d="M 6628,10823 L 6628,10673"/>
 <path fill="none" stroke="rgb(0,0,0)" stroke-linejoin="round" d="M 6751,10823 L 6751,10673"/>
 <path fill="none" stroke="rgb(0,0,0)" stroke-linejoin="round" d="M 6751,10823 L 6751,10673"/>
 <path fill="none" stroke="rgb(0,0,0)" stroke-linejoin="round" d="M 6873,10823 L 6873,10673"/>
 <path fill="none" stroke="rgb(0,0,0)" stroke-linejoin="round" d="M 6873,10823 L 6873,10673"/>
 <path fill="none" stroke="rgb(0,0,0)" stroke-linejoin="round" d="M 6996,10823 L 6996,10673"/>
 <path fill="none" stroke="rgb(0,0,0)" stroke-linejoin="round" d="M 6996,10823 L 6996,10673"/>
 <path fill="none" stroke="rgb(0,0,0)" stroke-linejoin="round" d="M 7119,10823 L 7119,10673"/>
 <path fill="none" stroke="rgb(0,0,0)" stroke-linejoin="round" d="M 7119,10823 L 7119,10673"/>
 <path fill="none" stroke="rgb(0,0,0)" stroke-linejoin="round" d="M 7242,10823 L 7242,10673"/>
 <path fill="none" stroke="rgb(0,0,0)" stroke-linejoin="round" d="M 7242,10823 L 7242,10673"/>
 <path fill="none" stroke="rgb(0,0,0)" stroke-linejoin="round" d="M 7364,10823 L 7364,10673"/>
 <path fill="none" stroke="rgb(0,0,0)" stroke-linejoin="round" d="M 7364,10823 L 7364,10673"/>
 <path fill="none" stroke="rgb(0,0,0)" stroke-linejoin="round" d="M 7487,10823 L 7487,10673"/>
 <path fill="none" stroke="rgb(0,0,0)" stroke-linejoin="round" d="M 7487,10823 L 7487,10673"/>
 <path fill="none" stroke="rgb(0,0,0)" stroke-linejoin="round" d="M 7610,10823 L 7610,10673"/>
 <path fill="none" stroke="rgb(0,0,0)" stroke-linejoin="round" d="M 7610,10823 L 7610,10673"/>
 <path fill="none" stroke="rgb(0,0,0)" stroke-linejoin="round" d="M 7732,10823 L 7732,10673"/>
 <path fill="none" stroke="rgb(0,0,0)" stroke-linejoin="round" d="M 7732,10823 L 7732,10673"/>
 <path fill="none" stroke="rgb(0,0,0)" stroke-linejoin="round" d="M 7855,10823 L 7855,10673"/>
 <path fill="none" stroke="rgb(0,0,0)" stroke-linejoin="round" d="M 7855,10823 L 7855,10673"/>
 <path fill="none" stroke="rgb(0,0,0)" stroke-linejoin="round" d="M 7978,10823 L 7978,10673"/>
 <path fill="none" stroke="rgb(0,0,0)" stroke-linejoin="round" d="M 7978,10823 L 7978,10673"/>
 <path fill="none" stroke="rgb(0,0,0)" stroke-linejoin="round" d="M 8101,10823 L 8101,10673"/>
 <path fill="none" stroke="rgb(0,0,0)" stroke-linejoin="round" d="M 8101,10823 L 8101,10673"/>
 <path fill="none" stroke="rgb(0,0,0)" stroke-linejoin="round" d="M 8223,10823 L 8223,10673"/>
 <path fill="none" stroke="rgb(0,0,0)" stroke-linejoin="round" d="M 8223,10823 L 8223,10673"/>
 <path fill="none" stroke="rgb(0,0,0)" stroke-linejoin="round" d="M 8345,10823 L 8345,10673"/>
 <path fill="none" stroke="rgb(0,0,0)" stroke-linejoin="round" d="M 8345,10823 L 8345,10673"/>
 <path fill="none" stroke="rgb(0,0,0)" stroke-linejoin="round" d="M 8468,10823 L 8468,10673"/>
 <path fill="none" stroke="rgb(0,0,0)" stroke-linejoin="round" d="M 8468,10823 L 8468,10673"/>
 <path fill="none" stroke="rgb(0,0,0)" stroke-linejoin="round" d="M 8590,10823 L 8590,10673"/>
 <path fill="none" stroke="rgb(0,0,0)" stroke-linejoin="round" d="M 8590,10823 L 8590,10673"/>
 <path fill="none" stroke="rgb(0,0,0)" stroke-linejoin="round" d="M 8713,10823 L 8713,10673"/>
 <path fill="none" stroke="rgb(0,0,0)" stroke-linejoin="round" d="M 8713,10823 L 8713,10673"/>
 <path fill="none" stroke="rgb(0,0,0)" stroke-linejoin="round" d="M 8836,10823 L 8836,10673"/>
 <path fill="none" stroke="rgb(0,0,0)" stroke-linejoin="round" d="M 8836,10823 L 8836,10673"/>
 <path fill="none" stroke="rgb(0,0,0)" stroke-linejoin="round" d="M 8959,10823 L 8959,10673"/>
 <path fill="none" stroke="rgb(0,0,0)" stroke-linejoin="round" d="M 8959,10823 L 8959,10673"/>
 <path fill="none" stroke="rgb(0,0,0)" stroke-linejoin="round" d="M 9081,10823 L 9081,10673"/>
 <path fill="none" stroke="rgb(0,0,0)" stroke-linejoin="round" d="M 9081,10823 L 9081,10673"/>
 <path fill="none" stroke="rgb(0,0,0)" stroke-linejoin="round" d="M 9204,10823 L 9204,10673"/>
 <path fill="none" stroke="rgb(0,0,0)" stroke-linejoin="round" d="M 9204,10823 L 9204,10673"/>
 <path fill="none" stroke="rgb(0,0,0)" stroke-linejoin="round" d="M 9327,10823 L 9327,10673"/>
 <path fill="none" stroke="rgb(0,0,0)" stroke-linejoin="round" d="M 9327,10823 L 9327,10673"/>
 <path fill="none" stroke="rgb(0,0,0)" stroke-linejoin="round" d="M 9449,10823 L 9449,10673"/>
 <path fill="none" stroke="rgb(0,0,0)" stroke-linejoin="round" d="M 9449,10823 L 9449,10673"/>
 <path fill="none" stroke="rgb(0,0,0)" stroke-linejoin="round" d="M 9572,10823 L 9572,10673"/>
 <path fill="none" stroke="rgb(0,0,0)" stroke-linejoin="round" d="M 9572,10823 L 9572,10673"/>
 <path fill="none" stroke="rgb(0,0,0)" stroke-linejoin="round" d="M 9695,10823 L 9695,10673"/>
 <path fill="none" stroke="rgb(0,0,0)" stroke-linejoin="round" d="M 9695,10823 L 9695,10673"/>
 <path fill="none" stroke="rgb(0,0,0)" stroke-linejoin="round" d="M 9818,10823 L 9818,10673"/>
 <path fill="none" stroke="rgb(0,0,0)" stroke-linejoin="round" d="M 9818,10823 L 9818,10673"/>
 <path fill="none" stroke="rgb(0,0,0)" stroke-linejoin="round" d="M 9940,10823 L 9940,10673"/>
 <path fill="none" stroke="rgb(0,0,0)" stroke-linejoin="round" d="M 9940,10823 L 9940,10673"/>
 <path fill="none" stroke="rgb(0,0,0)" stroke-linejoin="round" d="M 10063,10823 L 10063,10673"/>
 <path fill="none" stroke="rgb(0,0,0)" stroke-linejoin="round" d="M 10063,10823 L 10063,10673"/>
 <path fill="none" stroke="rgb(0,0,0)" stroke-linejoin="round" d="M 10186,10823 L 10186,10673"/>
 <path fill="none" stroke="rgb(0,0,0)" stroke-linejoin="round" d="M 10186,10823 L 10186,10673"/>
 <path fill="none" stroke="rgb(0,0,0)" stroke-linejoin="round" d="M 10308,10823 L 10308,10673"/>
 <path fill="none" stroke="rgb(0,0,0)" stroke-linejoin="round" d="M 10308,10823 L 10308,10673"/>
 <path fill="none" stroke="rgb(0,0,0)" stroke-linejoin="round" d="M 10431,10823 L 10431,10673"/>
 <path fill="none" stroke="rgb(0,0,0)" stroke-linejoin="round" d="M 10431,10823 L 10431,10673"/>
 <path fill="none" stroke="rgb(0,0,0)" stroke-linejoin="round" d="M 10554,10823 L 10554,10673"/>
 <path fill="none" stroke="rgb(0,0,0)" stroke-linejoin="round" d="M 10554,10823 L 10554,10673"/>
 <path fill="none" stroke="rgb(0,0,0)" stroke-linejoin="round" d="M 10677,10823 L 10677,10673"/>
 <path fill="none" stroke="rgb(0,0,0)" stroke-linejoin="round" d="M 10677,10823 L 10677,10673"/>
 <path fill="none" stroke="rgb(0,0,0)" stroke-linejoin="round" d="M 10799,10823 L 10799,10673"/>
 <path fill="none" stroke="rgb(0,0,0)" stroke-linejoin="round" d="M 10799,10823 L 10799,10673"/>
 <path fill="none" stroke="rgb(0,0,0)" stroke-linejoin="round" d="M 10922,10823 L 10922,10673"/>
 <path fill="none" stroke="rgb(0,0,0)" stroke-linejoin="round" d="M 10922,10823 L 10922,10673"/>
 <path fill="none" stroke="rgb(0,0,0)" stroke-linejoin="round" d="M 11045,10823 L 11045,10673"/>
 <path fill="none" stroke="rgb(0,0,0)" stroke-linejoin="round" d="M 11045,10823 L 11045,10673"/>
 <path fill="none" stroke="rgb(0,0,0)" stroke-linejoin="round" d="M 11167,10823 L 11167,10673"/>
 <path fill="none" stroke="rgb(0,0,0)" stroke-linejoin="round" d="M 11167,10823 L 11167,10673"/>
 <path fill="none" stroke="rgb(0,0,0)" stroke-linejoin="round" d="M 11290,10823 L 11290,10673"/>
 <path fill="none" stroke="rgb(0,0,0)" stroke-linejoin="round" d="M 11290,10823 L 11290,10673"/>
 <path fill="none" stroke="rgb(0,0,0)" stroke-linejoin="round" d="M 11413,10823 L 11413,10673"/>
 <path fill="none" stroke="rgb(0,0,0)" stroke-linejoin="round" d="M 11413,10823 L 11413,10673"/>
 <path fill="none" stroke="rgb(0,0,0)" stroke-linejoin="round" d="M 11536,10823 L 11536,10673"/>
 <path fill="none" stroke="rgb(0,0,0)" stroke-linejoin="round" d="M 11536,10823 L 11536,10673"/>
 <path fill="none" stroke="rgb(0,0,0)" stroke-linejoin="round" d="M 11658,10823 L 11658,10673"/>
 <path fill="none" stroke="rgb(0,0,0)" stroke-linejoin="round" d="M 11658,10823 L 11658,10673"/>
 <path fill="none" stroke="rgb(0,0,0)" stroke-linejoin="round" d="M 11781,10823 L 11781,10673"/>
 <path fill="none" stroke="rgb(0,0,0)" stroke-linejoin="round" d="M 11781,10823 L 11781,10673"/>
 <path fill="none" stroke="rgb(0,0,0)" stroke-linejoin="round" d="M 11904,10823 L 11904,10673"/>
 <path fill="none" stroke="rgb(0,0,0)" stroke-linejoin="round" d="M 11904,10823 L 11904,10673"/>
 <path fill="none" stroke="rgb(0,0,0)" stroke-linejoin="round" d="M 12026,10823 L 12026,10673"/>
 <path fill="none" stroke="rgb(0,0,0)" stroke-linejoin="round" d="M 12026,10823 L 12026,10673"/>
 <path fill="none" stroke="rgb(0,0,0)" stroke-linejoin="round" d="M 12149,10823 L 12149,10673"/>
 <path fill="none" stroke="rgb(0,0,0)" stroke-linejoin="round" d="M 12149,10823 L 12149,10673"/>
 <path fill="none" stroke="rgb(0,0,0)" stroke-linejoin="round" d="M 12272,10823 L 12272,10673"/>
 <path fill="none" stroke="rgb(0,0,0)" stroke-linejoin="round" d="M 12272,10823 L 12272,10673"/>
 <path fill="none" stroke="rgb(0,0,0)" stroke-linejoin="round" d="M 12395,10823 L 12395,10673"/>
 <path fill="none" stroke="rgb(0,0,0)" stroke-linejoin="round" d="M 12395,10823 L 12395,10673"/>
 <path fill="none" stroke="rgb(0,0,0)" stroke-linejoin="round" d="M 12517,10823 L 12517,10673"/>
 <path fill="none" stroke="rgb(0,0,0)" stroke-linejoin="round" d="M 12517,10823 L 12517,10673"/>
 <path fill="none" stroke="rgb(0,0,0)" stroke-linejoin="round" d="M 12640,10823 L 12640,10673"/>
 <path fill="none" stroke="rgb(0,0,0)" stroke-linejoin="round" d="M 12640,10823 L 12640,10673"/>
 <path fill="none" stroke="rgb(0,0,0)" stroke-linejoin="round" d="M 12763,10823 L 12763,10673"/>
 <path fill="none" stroke="rgb(0,0,0)" stroke-linejoin="round" d="M 12763,10823 L 12763,10673"/>
 <path fill="none" stroke="rgb(0,0,0)" stroke-linejoin="round" d="M 12885,10823 L 12885,10673"/>
 <path fill="none" stroke="rgb(0,0,0)" stroke-linejoin="round" d="M 12885,10823 L 12885,10673"/>
 <path fill="none" stroke="rgb(0,0,0)" stroke-linejoin="round" d="M 13008,10823 L 13008,10673"/>
 <path fill="none" stroke="rgb(0,0,0)" stroke-linejoin="round" d="M 13008,10823 L 13008,10673"/>
 <path fill="none" stroke="rgb(0,0,0)" stroke-linejoin="round" d="M 13131,10823 L 13131,10673"/>
 <path fill="none" stroke="rgb(0,0,0)" stroke-linejoin="round" d="M 13131,10823 L 13131,10673"/>
 <path fill="none" stroke="rgb(0,0,0)" stroke-linejoin="round" d="M 13254,10823 L 13254,10673"/>
 <path fill="none" stroke="rgb(0,0,0)" stroke-linejoin="round" d="M 13254,10823 L 13254,10673"/>
 <path fill="none" stroke="rgb(0,0,0)" stroke-linejoin="round" d="M 13376,10823 L 13376,10673"/>
 <path fill="none" stroke="rgb(0,0,0)" stroke-linejoin="round" d="M 13376,10823 L 13376,10673"/>
 <path fill="none" stroke="rgb(0,0,0)" stroke-linejoin="round" d="M 13499,10823 L 13499,10673"/>
 <path fill="none" stroke="rgb(0,0,0)" stroke-linejoin="round" d="M 13499,10823 L 13499,10673"/>
 <path fill="none" stroke="rgb(0,0,0)" stroke-linejoin="round" d="M 13622,10823 L 13622,10673"/>
 <path fill="none" stroke="rgb(0,0,0)" stroke-linejoin="round" d="M 13622,10823 L 13622,10673"/>
 <path fill="none" stroke="rgb(0,0,0)" stroke-linejoin="round" d="M 13744,10823 L 13744,10673"/>
 <path fill="none" stroke="rgb(0,0,0)" stroke-linejoin="round" d="M 13744,10823 L 13744,10673"/>
 <path fill="none" stroke="rgb(0,0,0)" stroke-linejoin="round" d="M 13867,10823 L 13867,10673"/>
 <path fill="none" stroke="rgb(0,0,0)" stroke-linejoin="round" d="M 13867,10823 L 13867,10673"/>
 <path fill="none" stroke="rgb(0,0,0)" stroke-linejoin="round" d="M 13990,10823 L 13990,10673"/>
 <path fill="none" stroke="rgb(0,0,0)" stroke-linejoin="round" d="M 13990,10823 L 13990,10673"/>
 <path fill="none" stroke="rgb(0,0,0)" stroke-linejoin="round" d="M 14113,10823 L 14113,10673"/>
 <path fill="none" stroke="rgb(0,0,0)" stroke-linejoin="round" d="M 14113,10823 L 14113,10673"/>
 <path fill="none" stroke="rgb(0,0,0)" stroke-linejoin="round" d="M 14235,10823 L 14235,10673"/>
 <path fill="none" stroke="rgb(0,0,0)" stroke-linejoin="round" d="M 14235,10823 L 14235,10673"/>
 <path fill="none" stroke="rgb(0,0,0)" stroke-linejoin="round" d="M 14358,10823 L 14358,10673"/>
 <path fill="none" stroke="rgb(0,0,0)" stroke-linejoin="round" d="M 14358,10823 L 14358,10673"/>
 <path fill="none" stroke="rgb(0,0,0)" stroke-linejoin="round" d="M 14481,10823 L 14481,10673"/>
 <path fill="none" stroke="rgb(0,0,0)" stroke-linejoin="round" d="M 14481,10823 L 14481,10673"/>
 <path fill="none" stroke="rgb(0,0,0)" stroke-linejoin="round" d="M 14603,10823 L 14603,10673"/>
 <path fill="none" stroke="rgb(0,0,0)" stroke-linejoin="round" d="M 14603,10823 L 14603,10673"/>
 <path fill="none" stroke="rgb(0,0,0)" stroke-linejoin="round" d="M 14726,10823 L 14726,10673"/>
 <path fill="none" stroke="rgb(0,0,0)" stroke-linejoin="round" d="M 14726,10823 L 14726,10673"/>
 <path fill="none" stroke="rgb(0,0,0)" stroke-linejoin="round" d="M 14849,10823 L 14849,10673"/>
 <path fill="none" stroke="rgb(0,0,0)" stroke-linejoin="round" d="M 14849,10823 L 14849,10673"/>
 <path fill="none" stroke="rgb(0,0,0)" stroke-linejoin="round" d="M 14972,10823 L 14972,10673"/>
 <path fill="none" stroke="rgb(0,0,0)" stroke-linejoin="round" d="M 14972,10823 L 14972,10673"/>
 <path fill="none" stroke="rgb(0,0,0)" stroke-linejoin="round" d="M 15094,10823 L 15094,10673"/>
 <path fill="none" stroke="rgb(0,0,0)" stroke-linejoin="round" d="M 15094,10823 L 15094,10673"/>
 <path fill="none" stroke="rgb(0,0,0)" stroke-linejoin="round" d="M 15217,10823 L 15217,10673"/>
 <path fill="none" stroke="rgb(0,0,0)" stroke-linejoin="round" d="M 15217,10823 L 15217,10673"/>
 <path fill="none" stroke="rgb(0,0,0)" stroke-linejoin="round" d="M 15340,10823 L 15340,10673"/>
 <path fill="none" stroke="rgb(0,0,0)" stroke-linejoin="round" d="M 15340,10823 L 15340,10673"/>
 <path fill="none" stroke="rgb(0,0,0)" stroke-linejoin="round" d="M 15463,10823 L 15463,10673"/>
 <path fill="none" stroke="rgb(0,0,0)" stroke-linejoin="round" d="M 15463,10823 L 15463,10673"/>
 <path fill="none" stroke="rgb(0,0,0)" stroke-linejoin="round" d="M 1229,10673 L 15463,10673"/>
 <path fill="none" stroke="rgb(0,0,0)" stroke-linejoin="round" d="M 1079,10673 L 1229,10673"/>
 <path fill="none" stroke="rgb(0,0,0)" stroke-linejoin="round" d="M 1079,10673 L 1229,10673"/>
 <path fill="none" stroke="rgb(0,0,0)" stroke-linejoin="round" d="M 1079,9615 L 1229,9615"/>
 <path fill="none" stroke="rgb(0,0,0)" stroke-linejoin="round" d="M 1079,9615 L 1229,9615"/>
 <path fill="none" stroke="rgb(0,0,0)" stroke-linejoin="round" d="M 1079,8558 L 1229,8558"/>
 <path fill="none" stroke="rgb(0,0,0)" stroke-linejoin="round" d="M 1079,8558 L 1229,8558"/>
 <path fill="none" stroke="rgb(0,0,0)" stroke-linejoin="round" d="M 1079,7500 L 1229,7500"/>
 <path fill="none" stroke="rgb(0,0,0)" stroke-linejoin="round" d="M 1079,7500 L 1229,7500"/>
 <path fill="none" stroke="rgb(0,0,0)" stroke-linejoin="round" d="M 1079,6443 L 1229,6443"/>
 <path fill="none" stroke="rgb(0,0,0)" stroke-linejoin="round" d="M 1079,6443 L 1229,6443"/>
 <path fill="none" stroke="rgb(0,0,0)" stroke-linejoin="round" d="M 1079,5385 L 1229,5385"/>
 <path fill="none" stroke="rgb(0,0,0)" stroke-linejoin="round" d="M 1079,5385 L 1229,5385"/>
 <path fill="none" stroke="rgb(0,0,0)" stroke-linejoin="round" d="M 1079,4327 L 1229,4327"/>
 <path fill="none" stroke="rgb(0,0,0)" stroke-linejoin="round" d="M 1079,4327 L 1229,4327"/>
 <path fill="none" stroke="rgb(0,0,0)" stroke-linejoin="round" d="M 1079,3270 L 1229,3270"/>
 <path fill="none" stroke="rgb(0,0,0)" stroke-linejoin="round" d="M 1079,3270 L 1229,3270"/>
 <path fill="none" stroke="rgb(0,0,0)" stroke-linejoin="round" d="M 1079,2212 L 1229,2212"/>
 <path fill="none" stroke="rgb(0,0,0)" stroke-linejoin="round" d="M 1079,2212 L 1229,2212"/>
 <path fill="none" stroke="rgb(0,0,0)" stroke-linejoin="round" d="M 1079,1155 L 1229,1155"/>
 <path fill="none" stroke="rgb(0,0,0)" stroke-linejoin="round" d="M 1079,1155 L 1229,1155"/>
 <path fill="none" stroke="rgb(0,0,0)" stroke-linejoin="round" d="M 1229,10673 L 1229,1155"/>
 <path fill="none" stroke="rgb(0,0,0)" stroke-linejoin="round" d="M 15613,10673 L 15463,10673"/>
 <path fill="none" stroke="rgb(0,0,0)" stroke-linejoin="round" d="M 15613,10673 L 15463,10673"/>
 <path fill="none" stroke="rgb(0,0,0)" stroke-linejoin="round" d="M 15613,9615 L 15463,9615"/>
 <path fill="none" stroke="rgb(0,0,0)" stroke-linejoin="round" d="M 15613,9615 L 15463,9615"/>
 <path fill="none" stroke="rgb(0,0,0)" stroke-linejoin="round" d="M 15613,8558 L 15463,8558"/>
 <path fill="none" stroke="rgb(0,0,0)" stroke-linejoin="round" d="M 15613,8558 L 15463,8558"/>
 <path fill="none" stroke="rgb(0,0,0)" stroke-linejoin="round" d="M 15613,7500 L 15463,7500"/>
 <path fill="none" stroke="rgb(0,0,0)" stroke-linejoin="round" d="M 15613,7500 L 15463,7500"/>
 <path fill="none" stroke="rgb(0,0,0)" stroke-linejoin="round" d="M 15613,6443 L 15463,6443"/>
 <path fill="none" stroke="rgb(0,0,0)" stroke-linejoin="round" d="M 15613,6443 L 15463,6443"/>
 <path fill="none" stroke="rgb(0,0,0)" stroke-linejoin="round" d="M 15613,5385 L 15463,5385"/>
 <path fill="none" stroke="rgb(0,0,0)" stroke-linejoin="round" d="M 15613,5385 L 15463,5385"/>
 <path fill="none" stroke="rgb(0,0,0)" stroke-linejoin="round" d="M 15613,4327 L 15463,4327"/>
 <path fill="none" stroke="rgb(0,0,0)" stroke-linejoin="round" d="M 15613,4327 L 15463,4327"/>
 <path fill="none" stroke="rgb(0,0,0)" stroke-linejoin="round" d="M 15613,3270 L 15463,3270"/>
 <path fill="none" stroke="rgb(0,0,0)" stroke-linejoin="round" d="M 15613,3270 L 15463,3270"/>
 <path fill="none" stroke="rgb(0,0,0)" stroke-linejoin="round" d="M 15613,2212 L 15463,2212"/>
 <path fill="none" stroke="rgb(0,0,0)" stroke-linejoin="round" d="M 15613,2212 L 15463,2212"/>
 <path fill="none" stroke="rgb(0,0,0)" stroke-linejoin="round" d="M 15613,1155 L 15463,1155"/>
 <path fill="none" stroke="rgb(0,0,0)" stroke-linejoin="round" d="M 15613,1155 L 15463,1155"/>
 <path fill="none" stroke="rgb(0,0,0)" stroke-linejoin="round" d="M 15463,10673 L 15463,1155"/>
 <path fill="none" stroke="rgb(131,202,255)" stroke-width="80" stroke-linejoin="round" d="M 1229,1832 L 1351,1912 1474,1920 1597,1962 1719,2033 1842,2064 1965,2137 2088,2181 2210,2201 2333,2262 2456,2366 2578,2390 2701,2510 2824,2569 2947,2650 3069,2669 3192,2739 3315,2798 3437,2877 3560,2888 3683,2960 3806,3081 3928,3110 4051,3219 4174,3372 4296,3501 4419,3660 4542,3747 4665,3855 4787,3970 4910,4060 5033,4071 5155,4130 5278,4233 5401,4324 5524,4426 5646,4552 5769,4674 5892,4829 6014,4847 6137,4921 6260,5049 6383,5130 6505,5265 6628,5418 6751,5502 6873,5671 6996,5890 7119,5870 7242,6147 7364,6139 7487,6233 7610,6088 7732,6168 7855,6311 7978,6450 8101,6559 8223,6602 8345,6715 8468,6830 8590,6913 8713,7003 8836,7006 8959,7120 9081,7087 9204,7084 9327,7149 9449,7214 9572,7253 9695,7616 9818,7745 9940,7795 10063,7827 10186,8037 10308,8069 10431,8092 10554,8217 10677,8366 10799,8491 10922,8470 11045,8536 11167,8594 11290,8565 11413,9170 11536,9494 11658,9071 11781,9089 11904,9035 12026,9227 12149,9373 12272,9429 12395,9664 12517,9697 12640,9647 12763,9683 12885,9739 13008,9806 13131,9806 13254,9787 13376,9801 13499,9864 13622,9982 13744,9948 13867,9927 13990,9887 14113,9973 14235,10025 14358,10057 14481,10032 14603,10022 14726,10008 14849,10073 14972,10180 15094,10201 15217,10271 15340,10194 15463,10234"/>
 <path fill="none" stroke="rgb(0,204,255)" stroke-width="80" stroke-linejoin="round" d="M 1229,9932 L 1351,9817 1474,9845 1597,9777 1719,9708 1842,9680 1965,9601 2088,9493 2210,9439 2333,9361 2456,9322 2578,9235 2701,9162 2824,9097 2947,9010 3069,8987 3192,8934 3315,8875 3437,8837 3560,8813 3683,8779 3806,8684 3928,8703 4051,8681 4174,8705 4296,8782 4419,8833 4542,8927 4665,8980 4787,9020 4910,9059 5033,9120 5155,9156 5278,9192 5401,9261 5524,9310 5646,9338 5769,9392 5892,9440 6014,9509 6137,9556 6260,9591 6383,9622 6505,9665 6628,9692 6751,9746 6873,9772 6996,9791 7119,9840 7242,9852 7364,9883 7487,9881 7610,9925 7732,9957 7855,10003 7978,10021 8101,10039 8223,10083 8345,10092 8468,10124 8590,10134 8713,10140 8836,10186 8959,10201 9081,10211 9204,10228 9327,10251 9449,10243 9572,10283 9695,10299 9818,10302 9940,10339 10063,10347 10186,10344 10308,10380 10431,10402 10554,10407 10677,10420 10799,10423 10922,10416 11045,10411 11167,10410 11290,10402 11413,10427 11536,10444 11658,10420 11781,10468 11904,10492 12026,10504 12149,10513 12272,10501 12395,10536 12517,10519 12640,10518 12763,10532 12885,10533 13008,10541 13131,10543 13254,10541 13376,10543 13499,10567 13622,10576 13744,10575 13867,10580 13990,10580 14113,10594 14235,10595 14358,10591 14481,10591 14603,10596 14726,10611 14849,10617 14972,10625 15094,10626 15217,10631 15340,10636 15463,10636"/>
 <path fill="none" stroke="rgb(0,132,209)" stroke-width="80" stroke-linejoin="round" d="M 3437,10613 L 3560,10593 3683,10578 3806,10547 3928,10511 4051,10446 4174,10252 4296,10071 4419,9879 4542,9729 4665,9590 4787,9439 4910,9333 5033,9223 5155,9143 5278,8994 5401,8864 5524,8743 5646,8591 5769,8466 5892,8313 6014,8231 6137,8117 6260,8017 6383,7934 6505,7803 6628,7720 6751,7657 6873,7462 6996,7225 7119,7274 7242,7074 7364,7176 7487,6944 7610,7000 7732,6892 7855,6733 7978,6646 8101,6622 8223,6578 8345,6445 8468,6448 8590,6452 8713,6437 8836,6544 8959,6613 9081,6531 9204,6484 9327,6485 9449,6544 9572,6581 9695,6530 9818,6351 9940,6399 10063,6422 10186,6350 10308,6455 10431,6538 10554,6347 10677,6351 10799,6351 10922,6274 11045,6264 11167,6217 11290,6018 11413,6038 11536,5786 11658,5754 11781,6001 11904,5887 12026,5724 12149,5909 12272,5751 12395,5541 12517,5622 12640,5804 12763,6092 12885,6222 13008,6083 13131,6257 13254,6605 13376,6613 13499,6825 13622,7182 13744,7184 13867,6934 13990,7103 14113,7138 14235,7246 14358,7075 14481,7179 14603,7209 14726,7256 14849,7240 14972,7400 15094,7424 15217,7159 15340,7294 15463,7158"/>
 <path fill="none" stroke="rgb(0,102,204)" stroke-width="80" stroke-linejoin="round" d="M 8468,10634 L 8590,10567 8713,10505 8836,10453 8959,10419 9081,10366 9204,10313 9327,10274 9449,10198 9572,10174 9695,9979 9818,9844 9940,9821 10063,9825 10186,9718 10308,9734 10431,9739 10554,9670 10677,9599 10799,9581 10922,9581 11045,9599 11167,9510 11290,9590 11413,9205 11536,9057 11658,9491 11781,9518 11904,9472 12026,9473 12149,9476 12272,9271 12395,9324 12517,9354 12640,9495 12763,9592 12885,9616 13008,9525 13131,9636 13254,9658 13376,9722 13499,9782 13622,9806 13744,9854 13867,9876 13990,9922 14113,9944 14235,9991 14358,9887 14481,9934 14603,10059 14726,10055 14849,10068 14972,10127 15094,10100 15217,10080 15340,10137 15463,10105"/>
 <path fill="none" stroke="rgb(0,69,134)" stroke-width="80" stroke-linejoin="round" d="M 12517,10640 L 12640,10233 12763,10135 12885,10038 13008,9936 13131,9883 13254,9754 13376,9678 13499,9623 13622,9645 13744,9421 13867,9214 13990,9069 14113,8953 14235,9073 14358,8993 14481,8916 14603,8927 14726,8841 14849,8887 14972,8993 15094,8912 15217,8770 15340,8825 15463,8687"/>
 <path fill="none" stroke="rgb(0,102,0)" stroke-width="80" stroke-linejoin="round" d="M 1229,10310 L 1351,10293 1474,10278 1597,10280 1719,10274 1842,10308 1965,10276 2088,10282 2210,10298 2333,10297 2456,10277 2578,10271 2701,10236 2824,10202 2947,10174 3069,10192 3192,10176 3315,10182 3437,10173 3560,10176 3683,10159 3806,10157 3928,10132 4051,10116 4174,10132 4296,10132 4419,10129 4542,10144 4665,10109 4787,10110 4910,10116 5033,10127 5155,10137 5278,10144 5401,10144 5524,10149 5646,10142 5769,10142 5892,10119 6014,10126 6137,10119 6260,10104 6383,10112 6505,10109 6628,10084 6751,10079 6873,10034 6996,9982 7119,10038 7242,10053 7364,10059 7487,9996 7610,10033 7732,10034 7855,10046 7978,10022 8101,10003 8223,9990 8345,9986 8468,9996 8590,9984 8713,10009 8836,10015 8959,10019 9081,10030 9204,10016 9327,10012 9449,10002 9572,10011 9695,10011 9818,9971 9940,9962 10063,9985 10186,9987 10308,9993 10431,10002 10554,10002 10677,10004 10799,10035 10922,10087 11045,10101 11167,10086 11290,10109 11413,10056 11536,10043 11658,10043 11781,10079 11904,10082 12026,10052 12149,10072 12272,10046 12395,10038 12517,10036 12640,10037 12763,10047 12885,10033 13008,10101 13131,10116 13254,10077 13376,10070 13499,10096 13622,10014 13744,10060 13867,10048 13990,10075 14113,10121 14235,10182 14358,10195 14481,10173 14603,10238 14726,10215 14849,10234 14972,10257 15094,10254 15217,10221 15340,10251 15463,10240"/>
 <path fill="none" stroke="rgb(255,211,32)" stroke-width="80" stroke-linejoin="round" d="M 2701,10643 L 2824,10635 2947,10612 3069,10609 3192,10603 3315,10596 3437,10593 3560,10589 3683,10579 3806,10572 3928,10571 4051,10562 4174,10548 4296,10526 4419,10509 4542,10502 4665,10486 4787,10476 4910,10470 5033,10461 5155,10421 5278,10406 5401,10381 5524,10380 5646,10366 5769,10314 5892,10277 6014,10268 6137,10262 6260,10208 6383,10169 6505,10147 6628,10093 6751,10000 6873,10040 6996,10089 7119,9965 7242,9966 7364,9747 7487,9909 7610,9912 7732,9902 7855,9853 7978,9808 8101,9808 8223,9703 8345,9728 8468,9585 8590,9571 8713,9529 8836,9427 8959,9282 9081,9406 9204,9517 9327,9494 9449,9467 9572,9360 9695,9255 9818,9482 9940,9378 10063,9282 10186,9265 10308,9071 10431,8943 10554,9051 10677,8961 10799,8774 10922,8845 11045,8755 11167,8755 11290,8965 11413,8965 11536,8806 11658,8941 11781,8548 11904,8735 12026,8712 12149,8339 12272,8687 12395,8575 12517,8457 12640,8577 12763,8245 12885,8140 13008,8325 13131,8094 13254,7932 13376,7940 13499,7607 13622,7358 13744,7368 13867,7800 13990,7750 14113,7647 14235,7278 14358,7614 14481,7576 14603,7359 14726,7419 14849,7278 14972,6805 15094,6874 15217,7279 15340,7043 15463,7317"/>
 <text class="TextShape"><tspan class="TextParagraph" font-family="Arial, sans-serif" font-size="387px" font-weight="400"><tspan class="TextPosition" x="1050" y="11266"><tspan fill="rgb(0,0,0)" stroke="none">2008</tspan></tspan></tspan></text>
 <text class="TextShape"><tspan class="TextParagraph" font-family="Arial, sans-serif" font-size="387px" font-weight="400"><tspan class="TextPosition" x="2523" y="11266"><tspan fill="rgb(0,0,0)" stroke="none">2009</tspan></tspan></tspan></text>
 <text class="TextShape"><tspan class="TextParagraph" font-family="Arial, sans-serif" font-size="387px" font-weight="400"><tspan class="TextPosition" x="3995" y="11266"><tspan fill="rgb(0,0,0)" stroke="none">2010</tspan></tspan></tspan></text>
 <text class="TextShape"><tspan class="TextParagraph" font-family="Arial, sans-serif" font-size="387px" font-weight="400"><tspan class="TextPosition" x="5468" y="11266"><tspan fill="rgb(0,0,0)" stroke="none">2011</tspan></tspan></tspan></text>
 <text class="TextShape"><tspan class="TextParagraph" font-family="Arial, sans-serif" font-size="387px" font-weight="400"><tspan class="TextPosition" x="6940" y="11266"><tspan fill="rgb(0,0,0)" stroke="none">2012</tspan></tspan></tspan></text>
 <text class="TextShape"><tspan class="TextParagraph" font-family="Arial, sans-serif" font-size="387px" font-weight="400"><tspan class="TextPosition" x="8413" y="11266"><tspan fill="rgb(0,0,0)" stroke="none">2013</tspan></tspan></tspan></text>
 <text class="TextShape"><tspan class="TextParagraph" font-family="Arial, sans-serif" font-size="387px" font-weight="400"><tspan class="TextPosition" x="9885" y="11266"><tspan fill="rgb(0,0,0)" stroke="none">2014</tspan></tspan></tspan></text>
 <text class="TextShape"><tspan class="TextParagraph" font-family="Arial, sans-serif" font-size="387px" font-weight="400"><tspan class="TextPosition" x="11358" y="11266"><tspan fill="rgb(0,0,0)" stroke="none">2015</tspan></tspan></tspan></text>
 <text class="TextShape"><tspan class="TextParagraph" font-family="Arial, sans-serif" font-size="387px" font-weight="400"><tspan class="TextPosition" x="12831" y="11266"><tspan fill="rgb(0,0,0)" stroke="none">2016</tspan></tspan></tspan></text>
 <text class="TextShape"><tspan class="TextParagraph" font-family="Arial, sans-serif" font-size="387px" font-weight="400"><tspan class="TextPosition" x="14303" y="11266"><tspan fill="rgb(0,0,0)" stroke="none">2017</tspan></tspan></tspan></text>
 <text class="TextShape"><tspan class="TextParagraph" font-family="Arial, sans-serif" font-size="387px" font-weight="400"><tspan class="TextPosition" x="423" y="10806"><tspan fill="rgb(0,0,0)" stroke="none">0%</tspan></tspan></tspan></text>
 <text class="TextShape"><tspan class="TextParagraph" font-family="Arial, sans-serif" font-size="387px" font-weight="400"><tspan class="TextPosition" x="212" y="9749"><tspan fill="rgb(0,0,0)" stroke="none">10%</tspan></tspan></tspan></text>
 <text class="TextShape"><tspan class="TextParagraph" font-family="Arial, sans-serif" font-size="387px" font-weight="400"><tspan class="TextPosition" x="212" y="8691"><tspan fill="rgb(0,0,0)" stroke="none">20%</tspan></tspan></tspan></text>
 <text class="TextShape"><tspan class="TextParagraph" font-family="Arial, sans-serif" font-size="387px" font-weight="400"><tspan class="TextPosition" x="212" y="7633"><tspan fill="rgb(0,0,0)" stroke="none">30%</tspan></tspan></tspan></text>
 <text class="TextShape"><tspan class="TextParagraph" font-family="Arial, sans-serif" font-size="387px" font-weight="400"><tspan class="TextPosition" x="212" y="6576"><tspan fill="rgb(0,0,0)" stroke="none">40%</tspan></tspan></tspan></text>
 <text class="TextShape"><tspan class="TextParagraph" font-family="Arial, sans-serif" font-size="387px" font-weight="400"><tspan class="TextPosition" x="212" y="5518"><tspan fill="rgb(0,0,0)" stroke="none">50%</tspan></tspan></tspan></text>
 <text class="TextShape"><tspan class="TextParagraph" font-family="Arial, sans-serif" font-size="387px" font-weight="400"><tspan class="TextPosition" x="212" y="4460"><tspan fill="rgb(0,0,0)" stroke="none">60%</tspan></tspan></tspan></text>
 <text class="TextShape"><tspan class="TextParagraph" font-family="Arial, sans-serif" font-size="387px" font-weight="400"><tspan class="TextPosition" x="212" y="3403"><tspan fill="rgb(0,0,0)" stroke="none">70%</tspan></tspan></tspan></text>
 <text class="TextShape"><tspan class="TextParagraph" font-family="Arial, sans-serif" font-size="387px" font-weight="400"><tspan class="TextPosition" x="212" y="2345"><tspan fill="rgb(0,0,0)" stroke="none">80%</tspan></tspan></tspan></text>
 <text class="TextShape"><tspan class="TextParagraph" font-family="Arial, sans-serif" font-size="387px" font-weight="400"><tspan class="TextPosition" x="212" y="1289"><tspan fill="rgb(0,0,0)" stroke="none">90%</tspan></tspan></tspan></text>
 <text class="TextShape"><tspan class="TextParagraph" font-family="Arial, sans-serif" font-size="387px" font-weight="400"><tspan class="TextPosition" x="15713" y="10806"><tspan fill="rgb(0,0,0)" stroke="none">0%</tspan></tspan></tspan></text>
 <text class="TextShape"><tspan class="TextParagraph" font-family="Arial, sans-serif" font-size="387px" font-weight="400"><tspan class="TextPosition" x="15713" y="9749"><tspan fill="rgb(0,0,0)" stroke="none">10%</tspan></tspan></tspan></text>
 <text class="TextShape"><tspan class="TextParagraph" font-family="Arial, sans-serif" font-size="387px" font-weight="400"><tspan class="TextPosition" x="15713" y="8691"><tspan fill="rgb(0,0,0)" stroke="none">20%</tspan></tspan></tspan></text>
 <text class="TextShape"><tspan class="TextParagraph" font-family="Arial, sans-serif" font-size="387px" font-weight="400"><tspan class="TextPosition" x="15713" y="7633"><tspan fill="rgb(0,0,0)" stroke="none">30%</tspan></tspan></tspan></text>
 <text class="TextShape"><tspan class="TextParagraph" font-family="Arial, sans-serif" font-size="387px" font-weight="400"><tspan class="TextPosition" x="15713" y="6576"><tspan fill="rgb(0,0,0)" stroke="none">40%</tspan></tspan></tspan></text>
 <text class="TextShape"><tspan class="TextParagraph" font-family="Arial, sans-serif" font-size="387px" font-weight="400"><tspan class="TextPosition" x="15713" y="5518"><tspan fill="rgb(0,0,0)" stroke="none">50%</tspan></tspan></tspan></text>
 <text class="TextShape"><tspan class="TextParagraph" font-family="Arial, sans-serif" font-size="387px" font-weight="400"><tspan class="TextPosition" x="15713" y="4460"><tspan fill="rgb(0,0,0)" stroke="none">60%</tspan></tspan></tspan></text>
 <text class="TextShape"><tspan class="TextParagraph" font-family="Arial, sans-serif" font-size="387px" font-weight="400"><tspan class="TextPosition" x="15713" y="3403"><tspan fill="rgb(0,0,0)" stroke="none">70%</tspan></tspan></tspan></text>
 <text class="TextShape"><tspan class="TextParagraph" font-family="Arial, sans-serif" font-size="387px" font-weight="400"><tspan class="TextPosition" x="15713" y="2345"><tspan fill="rgb(0,0,0)" stroke="none">80%</tspan></tspan></tspan></text>
 <text class="TextShape"><tspan class="TextParagraph" font-family="Arial, sans-serif" font-size="387px" font-weight="400"><tspan class="TextPosition" x="15713" y="1289"><tspan fill="rgb(0,0,0)" stroke="none">90%</tspan></tspan></tspan></text>
 <text class="TextShape"><tspan class="TextParagraph" font-family="Arial, sans-serif" font-size="634px" font-weight="700"><tspan class="TextPosition" x="3488" y="746"><tspan fill="rgb(0,0,0)" stroke="none">Utilización de sistemas operativos</tspan></tspan></tspan></text>
 <path fill="none" stroke="rgb(131,202,255)" stroke-width="80" stroke-linejoin="round" d="M 1077,11850 L 1877,11850"/>
 <path fill="none" stroke="rgb(0,204,255)" stroke-width="80" stroke-linejoin="round" d="M 3294,11850 L 4094,11850"/>
 <path fill="none" stroke="rgb(0,132,209)" stroke-width="80" stroke-linejoin="round" d="M 5855,11850 L 6655,11850"/>
 <path fill="none" stroke="rgb(0,102,204)" stroke-width="80" stroke-linejoin="round" d="M 7755,11850 L 8554,11850"/>
 <path fill="none" stroke="rgb(0,69,134)" stroke-width="80" stroke-linejoin="round" d="M 9654,11850 L 10454,11850"/>
 <path fill="none" stroke="rgb(0,102,0)" stroke-width="80" stroke-linejoin="round" d="M 11766,11850 L 12566,11850"/>
 <path fill="none" stroke="rgb(255,211,32)" stroke-width="80" stroke-linejoin="round" d="M 13428,11850 L 14228,11850"/>
 <text class="TextShape"><tspan class="TextParagraph" font-family="Arial, sans-serif" font-size="387px" font-weight="400"><tspan class="TextPosition" x="1977" y="11982"><tspan fill="rgb(0,0,0)" stroke="none">Win XP</tspan></tspan></tspan></text>
 <text class="TextShape"><tspan class="TextParagraph" font-family="Arial, sans-serif" font-size="387px" font-weight="400"><tspan class="TextPosition" x="4194" y="11982"><tspan fill="rgb(0,0,0)" stroke="none">Win Vista</tspan></tspan></tspan></text>
 <text class="TextShape"><tspan class="TextParagraph" font-family="Arial, sans-serif" font-size="387px" font-weight="400"><tspan class="TextPosition" x="6755" y="11982"><tspan fill="rgb(0,0,0)" stroke="none">Win 7</tspan></tspan></tspan></text>
 <text class="TextShape"><tspan class="TextParagraph" font-family="Arial, sans-serif" font-size="387px" font-weight="400"><tspan class="TextPosition" x="8654" y="11982"><tspan fill="rgb(0,0,0)" stroke="none">Win 8</tspan></tspan></tspan></text>
 <text class="TextShape"><tspan class="TextParagraph" font-family="Arial, sans-serif" font-size="387px" font-weight="400"><tspan class="TextPosition" x="10554" y="11982"><tspan fill="rgb(0,0,0)" stroke="none">Win 10</tspan></tspan></tspan></text>
 <text class="TextShape"><tspan class="TextParagraph" font-family="Arial, sans-serif" font-size="387px" font-weight="400"><tspan class="TextPosition" x="12666" y="11982"><tspan fill="rgb(0,0,0)" stroke="none">Mac</tspan></tspan></tspan></text>
 <text class="TextShape"><tspan class="TextParagraph" font-family="Arial, sans-serif" font-size="387px" font-weight="400"><tspan class="TextPosition" x="14328" y="11982"><tspan fill="rgb(0,0,0)" stroke="none">Móviles</tspan></tspan></tspan></text>
</svg>
