<?xml version="1.0" encoding="UTF-8"?>
<!DOCTYPE svg PUBLIC "-//W3C//DTD SVG 1.1//EN" "http://www.w3.org/Graphics/SVG/1.1/DTD/svg11.dtd">
<svg width="159mm" height="119mm" viewBox="0 0 15900 11900" version="1.1" xmlns="http://www.w3.org/2000/svg" stroke-width="28.222" stroke-linejoin="round" xml:space="preserve">
 <path fill="rgb(255,255,255)" stroke="none" d="M 7937,11930 L 12,11930 12,0 15862,0 15862,11930 7937,11930 Z"/>
 <path fill="none" stroke="rgb(0,0,0)" stroke-width="50" stroke-linejoin="round" d="M 7997,10699 L 1378,10699 1378,1096 14616,1096 14616,10699 7997,10699 Z"/>
 <path fill="none" stroke="rgb(179,179,179)" stroke-linejoin="round" d="M 14616,10698 L 1378,10698"/>
 <path fill="none" stroke="rgb(179,179,179)" stroke-linejoin="round" d="M 14616,9737 L 1378,9737"/>
 <path fill="none" stroke="rgb(179,179,179)" stroke-linejoin="round" d="M 14616,8777 L 1378,8777"/>
 <path fill="none" stroke="rgb(179,179,179)" stroke-linejoin="round" d="M 14616,7816 L 1378,7816"/>
 <path fill="none" stroke="rgb(179,179,179)" stroke-linejoin="round" d="M 14616,6856 L 1378,6856"/>
 <path fill="none" stroke="rgb(179,179,179)" stroke-linejoin="round" d="M 14616,5897 L 1378,5897"/>
 <path fill="none" stroke="rgb(179,179,179)" stroke-linejoin="round" d="M 14616,4936 L 1378,4936"/>
 <path fill="none" stroke="rgb(179,179,179)" stroke-linejoin="round" d="M 14616,3976 L 1378,3976"/>
 <path fill="none" stroke="rgb(179,179,179)" stroke-linejoin="round" d="M 14616,3015 L 1378,3015"/>
 <path fill="none" stroke="rgb(179,179,179)" stroke-linejoin="round" d="M 14616,2055 L 1378,2055"/>
 <path fill="none" stroke="rgb(179,179,179)" stroke-linejoin="round" d="M 14616,1095 L 1378,1095"/>
 <path fill="none" stroke="rgb(0,0,0)" stroke-width="30" stroke-linejoin="round" d="M 1378,10848 L 1378,10698"/>
 <path fill="none" stroke="rgb(0,0,0)" stroke-width="30" stroke-linejoin="round" d="M 1378,10848 L 1378,10698"/>
 <path fill="none" stroke="rgb(0,0,0)" stroke-width="30" stroke-linejoin="round" d="M 1495,10848 L 1495,10698"/>
 <path fill="none" stroke="rgb(0,0,0)" stroke-width="30" stroke-linejoin="round" d="M 1495,10848 L 1495,10698"/>
 <path fill="none" stroke="rgb(0,0,0)" stroke-width="30" stroke-linejoin="round" d="M 1612,10848 L 1612,10698"/>
 <path fill="none" stroke="rgb(0,0,0)" stroke-width="30" stroke-linejoin="round" d="M 1612,10848 L 1612,10698"/>
 <path fill="none" stroke="rgb(0,0,0)" stroke-width="30" stroke-linejoin="round" d="M 1729,10848 L 1729,10698"/>
 <path fill="none" stroke="rgb(0,0,0)" stroke-width="30" stroke-linejoin="round" d="M 1729,10848 L 1729,10698"/>
 <path fill="none" stroke="rgb(0,0,0)" stroke-width="30" stroke-linejoin="round" d="M 1846,10848 L 1846,10698"/>
 <path fill="none" stroke="rgb(0,0,0)" stroke-width="30" stroke-linejoin="round" d="M 1846,10848 L 1846,10698"/>
 <path fill="none" stroke="rgb(0,0,0)" stroke-width="30" stroke-linejoin="round" d="M 1963,10848 L 1963,10698"/>
 <path fill="none" stroke="rgb(0,0,0)" stroke-width="30" stroke-linejoin="round" d="M 1963,10848 L 1963,10698"/>
 <path fill="none" stroke="rgb(0,0,0)" stroke-width="30" stroke-linejoin="round" d="M 2080,10848 L 2080,10698"/>
 <path fill="none" stroke="rgb(0,0,0)" stroke-width="30" stroke-linejoin="round" d="M 2080,10848 L 2080,10698"/>
 <path fill="none" stroke="rgb(0,0,0)" stroke-width="30" stroke-linejoin="round" d="M 2198,10848 L 2198,10698"/>
 <path fill="none" stroke="rgb(0,0,0)" stroke-width="30" stroke-linejoin="round" d="M 2198,10848 L 2198,10698"/>
 <path fill="none" stroke="rgb(0,0,0)" stroke-width="30" stroke-linejoin="round" d="M 2315,10848 L 2315,10698"/>
 <path fill="none" stroke="rgb(0,0,0)" stroke-width="30" stroke-linejoin="round" d="M 2315,10848 L 2315,10698"/>
 <path fill="none" stroke="rgb(0,0,0)" stroke-width="30" stroke-linejoin="round" d="M 2432,10848 L 2432,10698"/>
 <path fill="none" stroke="rgb(0,0,0)" stroke-width="30" stroke-linejoin="round" d="M 2432,10848 L 2432,10698"/>
 <path fill="none" stroke="rgb(0,0,0)" stroke-width="30" stroke-linejoin="round" d="M 2549,10848 L 2549,10698"/>
 <path fill="none" stroke="rgb(0,0,0)" stroke-width="30" stroke-linejoin="round" d="M 2549,10848 L 2549,10698"/>
 <path fill="none" stroke="rgb(0,0,0)" stroke-width="30" stroke-linejoin="round" d="M 2666,10848 L 2666,10698"/>
 <path fill="none" stroke="rgb(0,0,0)" stroke-width="30" stroke-linejoin="round" d="M 2666,10848 L 2666,10698"/>
 <path fill="none" stroke="rgb(0,0,0)" stroke-width="30" stroke-linejoin="round" d="M 2783,10848 L 2783,10698"/>
 <path fill="none" stroke="rgb(0,0,0)" stroke-width="30" stroke-linejoin="round" d="M 2783,10848 L 2783,10698"/>
 <path fill="none" stroke="rgb(0,0,0)" stroke-width="30" stroke-linejoin="round" d="M 2901,10848 L 2901,10698"/>
 <path fill="none" stroke="rgb(0,0,0)" stroke-width="30" stroke-linejoin="round" d="M 2901,10848 L 2901,10698"/>
 <path fill="none" stroke="rgb(0,0,0)" stroke-width="30" stroke-linejoin="round" d="M 3018,10848 L 3018,10698"/>
 <path fill="none" stroke="rgb(0,0,0)" stroke-width="30" stroke-linejoin="round" d="M 3018,10848 L 3018,10698"/>
 <path fill="none" stroke="rgb(0,0,0)" stroke-width="30" stroke-linejoin="round" d="M 3135,10848 L 3135,10698"/>
 <path fill="none" stroke="rgb(0,0,0)" stroke-width="30" stroke-linejoin="round" d="M 3135,10848 L 3135,10698"/>
 <path fill="none" stroke="rgb(0,0,0)" stroke-width="30" stroke-linejoin="round" d="M 3252,10848 L 3252,10698"/>
 <path fill="none" stroke="rgb(0,0,0)" stroke-width="30" stroke-linejoin="round" d="M 3252,10848 L 3252,10698"/>
 <path fill="none" stroke="rgb(0,0,0)" stroke-width="30" stroke-linejoin="round" d="M 3369,10848 L 3369,10698"/>
 <path fill="none" stroke="rgb(0,0,0)" stroke-width="30" stroke-linejoin="round" d="M 3369,10848 L 3369,10698"/>
 <path fill="none" stroke="rgb(0,0,0)" stroke-width="30" stroke-linejoin="round" d="M 3486,10848 L 3486,10698"/>
 <path fill="none" stroke="rgb(0,0,0)" stroke-width="30" stroke-linejoin="round" d="M 3486,10848 L 3486,10698"/>
 <path fill="none" stroke="rgb(0,0,0)" stroke-width="30" stroke-linejoin="round" d="M 3604,10848 L 3604,10698"/>
 <path fill="none" stroke="rgb(0,0,0)" stroke-width="30" stroke-linejoin="round" d="M 3604,10848 L 3604,10698"/>
 <path fill="none" stroke="rgb(0,0,0)" stroke-width="30" stroke-linejoin="round" d="M 3721,10848 L 3721,10698"/>
 <path fill="none" stroke="rgb(0,0,0)" stroke-width="30" stroke-linejoin="round" d="M 3721,10848 L 3721,10698"/>
 <path fill="none" stroke="rgb(0,0,0)" stroke-width="30" stroke-linejoin="round" d="M 3838,10848 L 3838,10698"/>
 <path fill="none" stroke="rgb(0,0,0)" stroke-width="30" stroke-linejoin="round" d="M 3838,10848 L 3838,10698"/>
 <path fill="none" stroke="rgb(0,0,0)" stroke-width="30" stroke-linejoin="round" d="M 3955,10848 L 3955,10698"/>
 <path fill="none" stroke="rgb(0,0,0)" stroke-width="30" stroke-linejoin="round" d="M 3955,10848 L 3955,10698"/>
 <path fill="none" stroke="rgb(0,0,0)" stroke-width="30" stroke-linejoin="round" d="M 4072,10848 L 4072,10698"/>
 <path fill="none" stroke="rgb(0,0,0)" stroke-width="30" stroke-linejoin="round" d="M 4072,10848 L 4072,10698"/>
 <path fill="none" stroke="rgb(0,0,0)" stroke-width="30" stroke-linejoin="round" d="M 4189,10848 L 4189,10698"/>
 <path fill="none" stroke="rgb(0,0,0)" stroke-width="30" stroke-linejoin="round" d="M 4189,10848 L 4189,10698"/>
 <path fill="none" stroke="rgb(0,0,0)" stroke-width="30" stroke-linejoin="round" d="M 4306,10848 L 4306,10698"/>
 <path fill="none" stroke="rgb(0,0,0)" stroke-width="30" stroke-linejoin="round" d="M 4306,10848 L 4306,10698"/>
 <path fill="none" stroke="rgb(0,0,0)" stroke-width="30" stroke-linejoin="round" d="M 4424,10848 L 4424,10698"/>
 <path fill="none" stroke="rgb(0,0,0)" stroke-width="30" stroke-linejoin="round" d="M 4424,10848 L 4424,10698"/>
 <path fill="none" stroke="rgb(0,0,0)" stroke-width="30" stroke-linejoin="round" d="M 4541,10848 L 4541,10698"/>
 <path fill="none" stroke="rgb(0,0,0)" stroke-width="30" stroke-linejoin="round" d="M 4541,10848 L 4541,10698"/>
 <path fill="none" stroke="rgb(0,0,0)" stroke-width="30" stroke-linejoin="round" d="M 4658,10848 L 4658,10698"/>
 <path fill="none" stroke="rgb(0,0,0)" stroke-width="30" stroke-linejoin="round" d="M 4658,10848 L 4658,10698"/>
 <path fill="none" stroke="rgb(0,0,0)" stroke-width="30" stroke-linejoin="round" d="M 4775,10848 L 4775,10698"/>
 <path fill="none" stroke="rgb(0,0,0)" stroke-width="30" stroke-linejoin="round" d="M 4775,10848 L 4775,10698"/>
 <path fill="none" stroke="rgb(0,0,0)" stroke-width="30" stroke-linejoin="round" d="M 4892,10848 L 4892,10698"/>
 <path fill="none" stroke="rgb(0,0,0)" stroke-width="30" stroke-linejoin="round" d="M 4892,10848 L 4892,10698"/>
 <path fill="none" stroke="rgb(0,0,0)" stroke-width="30" stroke-linejoin="round" d="M 5009,10848 L 5009,10698"/>
 <path fill="none" stroke="rgb(0,0,0)" stroke-width="30" stroke-linejoin="round" d="M 5009,10848 L 5009,10698"/>
 <path fill="none" stroke="rgb(0,0,0)" stroke-width="30" stroke-linejoin="round" d="M 5127,10848 L 5127,10698"/>
 <path fill="none" stroke="rgb(0,0,0)" stroke-width="30" stroke-linejoin="round" d="M 5127,10848 L 5127,10698"/>
 <path fill="none" stroke="rgb(0,0,0)" stroke-width="30" stroke-linejoin="round" d="M 5244,10848 L 5244,10698"/>
 <path fill="none" stroke="rgb(0,0,0)" stroke-width="30" stroke-linejoin="round" d="M 5244,10848 L 5244,10698"/>
 <path fill="none" stroke="rgb(0,0,0)" stroke-width="30" stroke-linejoin="round" d="M 5361,10848 L 5361,10698"/>
 <path fill="none" stroke="rgb(0,0,0)" stroke-width="30" stroke-linejoin="round" d="M 5361,10848 L 5361,10698"/>
 <path fill="none" stroke="rgb(0,0,0)" stroke-width="30" stroke-linejoin="round" d="M 5478,10848 L 5478,10698"/>
 <path fill="none" stroke="rgb(0,0,0)" stroke-width="30" stroke-linejoin="round" d="M 5478,10848 L 5478,10698"/>
 <path fill="none" stroke="rgb(0,0,0)" stroke-width="30" stroke-linejoin="round" d="M 5595,10848 L 5595,10698"/>
 <path fill="none" stroke="rgb(0,0,0)" stroke-width="30" stroke-linejoin="round" d="M 5595,10848 L 5595,10698"/>
 <path fill="none" stroke="rgb(0,0,0)" stroke-width="30" stroke-linejoin="round" d="M 5712,10848 L 5712,10698"/>
 <path fill="none" stroke="rgb(0,0,0)" stroke-width="30" stroke-linejoin="round" d="M 5712,10848 L 5712,10698"/>
 <path fill="none" stroke="rgb(0,0,0)" stroke-width="30" stroke-linejoin="round" d="M 5830,10848 L 5830,10698"/>
 <path fill="none" stroke="rgb(0,0,0)" stroke-width="30" stroke-linejoin="round" d="M 5830,10848 L 5830,10698"/>
 <path fill="none" stroke="rgb(0,0,0)" stroke-width="30" stroke-linejoin="round" d="M 5947,10848 L 5947,10698"/>
 <path fill="none" stroke="rgb(0,0,0)" stroke-width="30" stroke-linejoin="round" d="M 5947,10848 L 5947,10698"/>
 <path fill="none" stroke="rgb(0,0,0)" stroke-width="30" stroke-linejoin="round" d="M 6064,10848 L 6064,10698"/>
 <path fill="none" stroke="rgb(0,0,0)" stroke-width="30" stroke-linejoin="round" d="M 6064,10848 L 6064,10698"/>
 <path fill="none" stroke="rgb(0,0,0)" stroke-width="30" stroke-linejoin="round" d="M 6181,10848 L 6181,10698"/>
 <path fill="none" stroke="rgb(0,0,0)" stroke-width="30" stroke-linejoin="round" d="M 6181,10848 L 6181,10698"/>
 <path fill="none" stroke="rgb(0,0,0)" stroke-width="30" stroke-linejoin="round" d="M 6298,10848 L 6298,10698"/>
 <path fill="none" stroke="rgb(0,0,0)" stroke-width="30" stroke-linejoin="round" d="M 6298,10848 L 6298,10698"/>
 <path fill="none" stroke="rgb(0,0,0)" stroke-width="30" stroke-linejoin="round" d="M 6415,10848 L 6415,10698"/>
 <path fill="none" stroke="rgb(0,0,0)" stroke-width="30" stroke-linejoin="round" d="M 6415,10848 L 6415,10698"/>
 <path fill="none" stroke="rgb(0,0,0)" stroke-width="30" stroke-linejoin="round" d="M 6533,10848 L 6533,10698"/>
 <path fill="none" stroke="rgb(0,0,0)" stroke-width="30" stroke-linejoin="round" d="M 6533,10848 L 6533,10698"/>
 <path fill="none" stroke="rgb(0,0,0)" stroke-width="30" stroke-linejoin="round" d="M 6650,10848 L 6650,10698"/>
 <path fill="none" stroke="rgb(0,0,0)" stroke-width="30" stroke-linejoin="round" d="M 6650,10848 L 6650,10698"/>
 <path fill="none" stroke="rgb(0,0,0)" stroke-width="30" stroke-linejoin="round" d="M 6767,10848 L 6767,10698"/>
 <path fill="none" stroke="rgb(0,0,0)" stroke-width="30" stroke-linejoin="round" d="M 6767,10848 L 6767,10698"/>
 <path fill="none" stroke="rgb(0,0,0)" stroke-width="30" stroke-linejoin="round" d="M 6884,10848 L 6884,10698"/>
 <path fill="none" stroke="rgb(0,0,0)" stroke-width="30" stroke-linejoin="round" d="M 6884,10848 L 6884,10698"/>
 <path fill="none" stroke="rgb(0,0,0)" stroke-width="30" stroke-linejoin="round" d="M 7001,10848 L 7001,10698"/>
 <path fill="none" stroke="rgb(0,0,0)" stroke-width="30" stroke-linejoin="round" d="M 7001,10848 L 7001,10698"/>
 <path fill="none" stroke="rgb(0,0,0)" stroke-width="30" stroke-linejoin="round" d="M 7118,10848 L 7118,10698"/>
 <path fill="none" stroke="rgb(0,0,0)" stroke-width="30" stroke-linejoin="round" d="M 7118,10848 L 7118,10698"/>
 <path fill="none" stroke="rgb(0,0,0)" stroke-width="30" stroke-linejoin="round" d="M 7235,10848 L 7235,10698"/>
 <path fill="none" stroke="rgb(0,0,0)" stroke-width="30" stroke-linejoin="round" d="M 7235,10848 L 7235,10698"/>
 <path fill="none" stroke="rgb(0,0,0)" stroke-width="30" stroke-linejoin="round" d="M 7353,10848 L 7353,10698"/>
 <path fill="none" stroke="rgb(0,0,0)" stroke-width="30" stroke-linejoin="round" d="M 7353,10848 L 7353,10698"/>
 <path fill="none" stroke="rgb(0,0,0)" stroke-width="30" stroke-linejoin="round" d="M 7470,10848 L 7470,10698"/>
 <path fill="none" stroke="rgb(0,0,0)" stroke-width="30" stroke-linejoin="round" d="M 7470,10848 L 7470,10698"/>
 <path fill="none" stroke="rgb(0,0,0)" stroke-width="30" stroke-linejoin="round" d="M 7587,10848 L 7587,10698"/>
 <path fill="none" stroke="rgb(0,0,0)" stroke-width="30" stroke-linejoin="round" d="M 7587,10848 L 7587,10698"/>
 <path fill="none" stroke="rgb(0,0,0)" stroke-width="30" stroke-linejoin="round" d="M 7704,10848 L 7704,10698"/>
 <path fill="none" stroke="rgb(0,0,0)" stroke-width="30" stroke-linejoin="round" d="M 7704,10848 L 7704,10698"/>
 <path fill="none" stroke="rgb(0,0,0)" stroke-width="30" stroke-linejoin="round" d="M 7821,10848 L 7821,10698"/>
 <path fill="none" stroke="rgb(0,0,0)" stroke-width="30" stroke-linejoin="round" d="M 7821,10848 L 7821,10698"/>
 <path fill="none" stroke="rgb(0,0,0)" stroke-width="30" stroke-linejoin="round" d="M 7937,10848 L 7937,10698"/>
 <path fill="none" stroke="rgb(0,0,0)" stroke-width="30" stroke-linejoin="round" d="M 7937,10848 L 7937,10698"/>
 <path fill="none" stroke="rgb(0,0,0)" stroke-width="30" stroke-linejoin="round" d="M 8055,10848 L 8055,10698"/>
 <path fill="none" stroke="rgb(0,0,0)" stroke-width="30" stroke-linejoin="round" d="M 8055,10848 L 8055,10698"/>
 <path fill="none" stroke="rgb(0,0,0)" stroke-width="30" stroke-linejoin="round" d="M 8172,10848 L 8172,10698"/>
 <path fill="none" stroke="rgb(0,0,0)" stroke-width="30" stroke-linejoin="round" d="M 8172,10848 L 8172,10698"/>
 <path fill="none" stroke="rgb(0,0,0)" stroke-width="30" stroke-linejoin="round" d="M 8289,10848 L 8289,10698"/>
 <path fill="none" stroke="rgb(0,0,0)" stroke-width="30" stroke-linejoin="round" d="M 8289,10848 L 8289,10698"/>
 <path fill="none" stroke="rgb(0,0,0)" stroke-width="30" stroke-linejoin="round" d="M 8406,10848 L 8406,10698"/>
 <path fill="none" stroke="rgb(0,0,0)" stroke-width="30" stroke-linejoin="round" d="M 8406,10848 L 8406,10698"/>
 <path fill="none" stroke="rgb(0,0,0)" stroke-width="30" stroke-linejoin="round" d="M 8523,10848 L 8523,10698"/>
 <path fill="none" stroke="rgb(0,0,0)" stroke-width="30" stroke-linejoin="round" d="M 8523,10848 L 8523,10698"/>
 <path fill="none" stroke="rgb(0,0,0)" stroke-width="30" stroke-linejoin="round" d="M 8640,10848 L 8640,10698"/>
 <path fill="none" stroke="rgb(0,0,0)" stroke-width="30" stroke-linejoin="round" d="M 8640,10848 L 8640,10698"/>
 <path fill="none" stroke="rgb(0,0,0)" stroke-width="30" stroke-linejoin="round" d="M 8758,10848 L 8758,10698"/>
 <path fill="none" stroke="rgb(0,0,0)" stroke-width="30" stroke-linejoin="round" d="M 8758,10848 L 8758,10698"/>
 <path fill="none" stroke="rgb(0,0,0)" stroke-width="30" stroke-linejoin="round" d="M 8875,10848 L 8875,10698"/>
 <path fill="none" stroke="rgb(0,0,0)" stroke-width="30" stroke-linejoin="round" d="M 8875,10848 L 8875,10698"/>
 <path fill="none" stroke="rgb(0,0,0)" stroke-width="30" stroke-linejoin="round" d="M 8992,10848 L 8992,10698"/>
 <path fill="none" stroke="rgb(0,0,0)" stroke-width="30" stroke-linejoin="round" d="M 8992,10848 L 8992,10698"/>
 <path fill="none" stroke="rgb(0,0,0)" stroke-width="30" stroke-linejoin="round" d="M 9109,10848 L 9109,10698"/>
 <path fill="none" stroke="rgb(0,0,0)" stroke-width="30" stroke-linejoin="round" d="M 9109,10848 L 9109,10698"/>
 <path fill="none" stroke="rgb(0,0,0)" stroke-width="30" stroke-linejoin="round" d="M 9226,10848 L 9226,10698"/>
 <path fill="none" stroke="rgb(0,0,0)" stroke-width="30" stroke-linejoin="round" d="M 9226,10848 L 9226,10698"/>
 <path fill="none" stroke="rgb(0,0,0)" stroke-width="30" stroke-linejoin="round" d="M 9343,10848 L 9343,10698"/>
 <path fill="none" stroke="rgb(0,0,0)" stroke-width="30" stroke-linejoin="round" d="M 9343,10848 L 9343,10698"/>
 <path fill="none" stroke="rgb(0,0,0)" stroke-width="30" stroke-linejoin="round" d="M 9460,10848 L 9460,10698"/>
 <path fill="none" stroke="rgb(0,0,0)" stroke-width="30" stroke-linejoin="round" d="M 9460,10848 L 9460,10698"/>
 <path fill="none" stroke="rgb(0,0,0)" stroke-width="30" stroke-linejoin="round" d="M 9578,10848 L 9578,10698"/>
 <path fill="none" stroke="rgb(0,0,0)" stroke-width="30" stroke-linejoin="round" d="M 9578,10848 L 9578,10698"/>
 <path fill="none" stroke="rgb(0,0,0)" stroke-width="30" stroke-linejoin="round" d="M 9695,10848 L 9695,10698"/>
 <path fill="none" stroke="rgb(0,0,0)" stroke-width="30" stroke-linejoin="round" d="M 9695,10848 L 9695,10698"/>
 <path fill="none" stroke="rgb(0,0,0)" stroke-width="30" stroke-linejoin="round" d="M 9812,10848 L 9812,10698"/>
 <path fill="none" stroke="rgb(0,0,0)" stroke-width="30" stroke-linejoin="round" d="M 9812,10848 L 9812,10698"/>
 <path fill="none" stroke="rgb(0,0,0)" stroke-width="30" stroke-linejoin="round" d="M 9929,10848 L 9929,10698"/>
 <path fill="none" stroke="rgb(0,0,0)" stroke-width="30" stroke-linejoin="round" d="M 9929,10848 L 9929,10698"/>
 <path fill="none" stroke="rgb(0,0,0)" stroke-width="30" stroke-linejoin="round" d="M 10046,10848 L 10046,10698"/>
 <path fill="none" stroke="rgb(0,0,0)" stroke-width="30" stroke-linejoin="round" d="M 10046,10848 L 10046,10698"/>
 <path fill="none" stroke="rgb(0,0,0)" stroke-width="30" stroke-linejoin="round" d="M 10163,10848 L 10163,10698"/>
 <path fill="none" stroke="rgb(0,0,0)" stroke-width="30" stroke-linejoin="round" d="M 10163,10848 L 10163,10698"/>
 <path fill="none" stroke="rgb(0,0,0)" stroke-width="30" stroke-linejoin="round" d="M 10281,10848 L 10281,10698"/>
 <path fill="none" stroke="rgb(0,0,0)" stroke-width="30" stroke-linejoin="round" d="M 10281,10848 L 10281,10698"/>
 <path fill="none" stroke="rgb(0,0,0)" stroke-width="30" stroke-linejoin="round" d="M 10398,10848 L 10398,10698"/>
 <path fill="none" stroke="rgb(0,0,0)" stroke-width="30" stroke-linejoin="round" d="M 10398,10848 L 10398,10698"/>
 <path fill="none" stroke="rgb(0,0,0)" stroke-width="30" stroke-linejoin="round" d="M 10515,10848 L 10515,10698"/>
 <path fill="none" stroke="rgb(0,0,0)" stroke-width="30" stroke-linejoin="round" d="M 10515,10848 L 10515,10698"/>
 <path fill="none" stroke="rgb(0,0,0)" stroke-width="30" stroke-linejoin="round" d="M 10632,10848 L 10632,10698"/>
 <path fill="none" stroke="rgb(0,0,0)" stroke-width="30" stroke-linejoin="round" d="M 10632,10848 L 10632,10698"/>
 <path fill="none" stroke="rgb(0,0,0)" stroke-width="30" stroke-linejoin="round" d="M 10749,10848 L 10749,10698"/>
 <path fill="none" stroke="rgb(0,0,0)" stroke-width="30" stroke-linejoin="round" d="M 10749,10848 L 10749,10698"/>
 <path fill="none" stroke="rgb(0,0,0)" stroke-width="30" stroke-linejoin="round" d="M 10866,10848 L 10866,10698"/>
 <path fill="none" stroke="rgb(0,0,0)" stroke-width="30" stroke-linejoin="round" d="M 10866,10848 L 10866,10698"/>
 <path fill="none" stroke="rgb(0,0,0)" stroke-width="30" stroke-linejoin="round" d="M 10984,10848 L 10984,10698"/>
 <path fill="none" stroke="rgb(0,0,0)" stroke-width="30" stroke-linejoin="round" d="M 10984,10848 L 10984,10698"/>
 <path fill="none" stroke="rgb(0,0,0)" stroke-width="30" stroke-linejoin="round" d="M 11101,10848 L 11101,10698"/>
 <path fill="none" stroke="rgb(0,0,0)" stroke-width="30" stroke-linejoin="round" d="M 11101,10848 L 11101,10698"/>
 <path fill="none" stroke="rgb(0,0,0)" stroke-width="30" stroke-linejoin="round" d="M 11218,10848 L 11218,10698"/>
 <path fill="none" stroke="rgb(0,0,0)" stroke-width="30" stroke-linejoin="round" d="M 11218,10848 L 11218,10698"/>
 <path fill="none" stroke="rgb(0,0,0)" stroke-width="30" stroke-linejoin="round" d="M 11335,10848 L 11335,10698"/>
 <path fill="none" stroke="rgb(0,0,0)" stroke-width="30" stroke-linejoin="round" d="M 11335,10848 L 11335,10698"/>
 <path fill="none" stroke="rgb(0,0,0)" stroke-width="30" stroke-linejoin="round" d="M 11452,10848 L 11452,10698"/>
 <path fill="none" stroke="rgb(0,0,0)" stroke-width="30" stroke-linejoin="round" d="M 11452,10848 L 11452,10698"/>
 <path fill="none" stroke="rgb(0,0,0)" stroke-width="30" stroke-linejoin="round" d="M 11569,10848 L 11569,10698"/>
 <path fill="none" stroke="rgb(0,0,0)" stroke-width="30" stroke-linejoin="round" d="M 11569,10848 L 11569,10698"/>
 <path fill="none" stroke="rgb(0,0,0)" stroke-width="30" stroke-linejoin="round" d="M 11687,10848 L 11687,10698"/>
 <path fill="none" stroke="rgb(0,0,0)" stroke-width="30" stroke-linejoin="round" d="M 11687,10848 L 11687,10698"/>
 <path fill="none" stroke="rgb(0,0,0)" stroke-width="30" stroke-linejoin="round" d="M 11804,10848 L 11804,10698"/>
 <path fill="none" stroke="rgb(0,0,0)" stroke-width="30" stroke-linejoin="round" d="M 11804,10848 L 11804,10698"/>
 <path fill="none" stroke="rgb(0,0,0)" stroke-width="30" stroke-linejoin="round" d="M 11921,10848 L 11921,10698"/>
 <path fill="none" stroke="rgb(0,0,0)" stroke-width="30" stroke-linejoin="round" d="M 11921,10848 L 11921,10698"/>
 <path fill="none" stroke="rgb(0,0,0)" stroke-width="30" stroke-linejoin="round" d="M 12038,10848 L 12038,10698"/>
 <path fill="none" stroke="rgb(0,0,0)" stroke-width="30" stroke-linejoin="round" d="M 12038,10848 L 12038,10698"/>
 <path fill="none" stroke="rgb(0,0,0)" stroke-width="30" stroke-linejoin="round" d="M 12155,10848 L 12155,10698"/>
 <path fill="none" stroke="rgb(0,0,0)" stroke-width="30" stroke-linejoin="round" d="M 12155,10848 L 12155,10698"/>
 <path fill="none" stroke="rgb(0,0,0)" stroke-width="30" stroke-linejoin="round" d="M 12272,10848 L 12272,10698"/>
 <path fill="none" stroke="rgb(0,0,0)" stroke-width="30" stroke-linejoin="round" d="M 12272,10848 L 12272,10698"/>
 <path fill="none" stroke="rgb(0,0,0)" stroke-width="30" stroke-linejoin="round" d="M 12389,10848 L 12389,10698"/>
 <path fill="none" stroke="rgb(0,0,0)" stroke-width="30" stroke-linejoin="round" d="M 12389,10848 L 12389,10698"/>
 <path fill="none" stroke="rgb(0,0,0)" stroke-width="30" stroke-linejoin="round" d="M 12507,10848 L 12507,10698"/>
 <path fill="none" stroke="rgb(0,0,0)" stroke-width="30" stroke-linejoin="round" d="M 12507,10848 L 12507,10698"/>
 <path fill="none" stroke="rgb(0,0,0)" stroke-width="30" stroke-linejoin="round" d="M 12624,10848 L 12624,10698"/>
 <path fill="none" stroke="rgb(0,0,0)" stroke-width="30" stroke-linejoin="round" d="M 12624,10848 L 12624,10698"/>
 <path fill="none" stroke="rgb(0,0,0)" stroke-width="30" stroke-linejoin="round" d="M 12741,10848 L 12741,10698"/>
 <path fill="none" stroke="rgb(0,0,0)" stroke-width="30" stroke-linejoin="round" d="M 12741,10848 L 12741,10698"/>
 <path fill="none" stroke="rgb(0,0,0)" stroke-width="30" stroke-linejoin="round" d="M 12858,10848 L 12858,10698"/>
 <path fill="none" stroke="rgb(0,0,0)" stroke-width="30" stroke-linejoin="round" d="M 12858,10848 L 12858,10698"/>
 <path fill="none" stroke="rgb(0,0,0)" stroke-width="30" stroke-linejoin="round" d="M 12975,10848 L 12975,10698"/>
 <path fill="none" stroke="rgb(0,0,0)" stroke-width="30" stroke-linejoin="round" d="M 12975,10848 L 12975,10698"/>
 <path fill="none" stroke="rgb(0,0,0)" stroke-width="30" stroke-linejoin="round" d="M 13092,10848 L 13092,10698"/>
 <path fill="none" stroke="rgb(0,0,0)" stroke-width="30" stroke-linejoin="round" d="M 13092,10848 L 13092,10698"/>
 <path fill="none" stroke="rgb(0,0,0)" stroke-width="30" stroke-linejoin="round" d="M 13210,10848 L 13210,10698"/>
 <path fill="none" stroke="rgb(0,0,0)" stroke-width="30" stroke-linejoin="round" d="M 13210,10848 L 13210,10698"/>
 <path fill="none" stroke="rgb(0,0,0)" stroke-width="30" stroke-linejoin="round" d="M 13327,10848 L 13327,10698"/>
 <path fill="none" stroke="rgb(0,0,0)" stroke-width="30" stroke-linejoin="round" d="M 13327,10848 L 13327,10698"/>
 <path fill="none" stroke="rgb(0,0,0)" stroke-width="30" stroke-linejoin="round" d="M 13444,10848 L 13444,10698"/>
 <path fill="none" stroke="rgb(0,0,0)" stroke-width="30" stroke-linejoin="round" d="M 13444,10848 L 13444,10698"/>
 <path fill="none" stroke="rgb(0,0,0)" stroke-width="30" stroke-linejoin="round" d="M 13561,10848 L 13561,10698"/>
 <path fill="none" stroke="rgb(0,0,0)" stroke-width="30" stroke-linejoin="round" d="M 13561,10848 L 13561,10698"/>
 <path fill="none" stroke="rgb(0,0,0)" stroke-width="30" stroke-linejoin="round" d="M 13678,10848 L 13678,10698"/>
 <path fill="none" stroke="rgb(0,0,0)" stroke-width="30" stroke-linejoin="round" d="M 13678,10848 L 13678,10698"/>
 <path fill="none" stroke="rgb(0,0,0)" stroke-width="30" stroke-linejoin="round" d="M 13795,10848 L 13795,10698"/>
 <path fill="none" stroke="rgb(0,0,0)" stroke-width="30" stroke-linejoin="round" d="M 13795,10848 L 13795,10698"/>
 <path fill="none" stroke="rgb(0,0,0)" stroke-width="30" stroke-linejoin="round" d="M 13913,10848 L 13913,10698"/>
 <path fill="none" stroke="rgb(0,0,0)" stroke-width="30" stroke-linejoin="round" d="M 13913,10848 L 13913,10698"/>
 <path fill="none" stroke="rgb(0,0,0)" stroke-width="30" stroke-linejoin="round" d="M 14030,10848 L 14030,10698"/>
 <path fill="none" stroke="rgb(0,0,0)" stroke-width="30" stroke-linejoin="round" d="M 14030,10848 L 14030,10698"/>
 <path fill="none" stroke="rgb(0,0,0)" stroke-width="30" stroke-linejoin="round" d="M 14147,10848 L 14147,10698"/>
 <path fill="none" stroke="rgb(0,0,0)" stroke-width="30" stroke-linejoin="round" d="M 14147,10848 L 14147,10698"/>
 <path fill="none" stroke="rgb(0,0,0)" stroke-width="30" stroke-linejoin="round" d="M 14264,10848 L 14264,10698"/>
 <path fill="none" stroke="rgb(0,0,0)" stroke-width="30" stroke-linejoin="round" d="M 14264,10848 L 14264,10698"/>
 <path fill="none" stroke="rgb(0,0,0)" stroke-width="30" stroke-linejoin="round" d="M 14381,10848 L 14381,10698"/>
 <path fill="none" stroke="rgb(0,0,0)" stroke-width="30" stroke-linejoin="round" d="M 14381,10848 L 14381,10698"/>
 <path fill="none" stroke="rgb(0,0,0)" stroke-width="30" stroke-linejoin="round" d="M 14498,10848 L 14498,10698"/>
 <path fill="none" stroke="rgb(0,0,0)" stroke-width="30" stroke-linejoin="round" d="M 14498,10848 L 14498,10698"/>
 <path fill="none" stroke="rgb(0,0,0)" stroke-width="30" stroke-linejoin="round" d="M 14616,10848 L 14616,10698"/>
 <path fill="none" stroke="rgb(0,0,0)" stroke-width="30" stroke-linejoin="round" d="M 14616,10848 L 14616,10698"/>
 <path fill="none" stroke="rgb(0,0,0)" stroke-width="30" stroke-linejoin="round" d="M 1378,10698 L 14616,10698"/>
 <path fill="none" stroke="rgb(0,0,0)" stroke-width="30" stroke-linejoin="round" d="M 1228,10698 L 1528,10698"/>
 <path fill="none" stroke="rgb(0,0,0)" stroke-width="30" stroke-linejoin="round" d="M 1228,10698 L 1528,10698"/>
 <path fill="none" stroke="rgb(0,0,0)" stroke-width="30" stroke-linejoin="round" d="M 1228,9737 L 1528,9737"/>
 <path fill="none" stroke="rgb(0,0,0)" stroke-width="30" stroke-linejoin="round" d="M 1228,9737 L 1528,9737"/>
 <path fill="none" stroke="rgb(0,0,0)" stroke-width="30" stroke-linejoin="round" d="M 1228,8777 L 1528,8777"/>
 <path fill="none" stroke="rgb(0,0,0)" stroke-width="30" stroke-linejoin="round" d="M 1228,8777 L 1528,8777"/>
 <path fill="none" stroke="rgb(0,0,0)" stroke-width="30" stroke-linejoin="round" d="M 1228,7816 L 1528,7816"/>
 <path fill="none" stroke="rgb(0,0,0)" stroke-width="30" stroke-linejoin="round" d="M 1228,7816 L 1528,7816"/>
 <path fill="none" stroke="rgb(0,0,0)" stroke-width="30" stroke-linejoin="round" d="M 1228,6856 L 1528,6856"/>
 <path fill="none" stroke="rgb(0,0,0)" stroke-width="30" stroke-linejoin="round" d="M 1228,6856 L 1528,6856"/>
 <path fill="none" stroke="rgb(0,0,0)" stroke-width="30" stroke-linejoin="round" d="M 1228,5897 L 1528,5897"/>
 <path fill="none" stroke="rgb(0,0,0)" stroke-width="30" stroke-linejoin="round" d="M 1228,5897 L 1528,5897"/>
 <path fill="none" stroke="rgb(0,0,0)" stroke-width="30" stroke-linejoin="round" d="M 1228,4936 L 1528,4936"/>
 <path fill="none" stroke="rgb(0,0,0)" stroke-width="30" stroke-linejoin="round" d="M 1228,4936 L 1528,4936"/>
 <path fill="none" stroke="rgb(0,0,0)" stroke-width="30" stroke-linejoin="round" d="M 1228,3976 L 1528,3976"/>
 <path fill="none" stroke="rgb(0,0,0)" stroke-width="30" stroke-linejoin="round" d="M 1228,3976 L 1528,3976"/>
 <path fill="none" stroke="rgb(0,0,0)" stroke-width="30" stroke-linejoin="round" d="M 1228,3015 L 1528,3015"/>
 <path fill="none" stroke="rgb(0,0,0)" stroke-width="30" stroke-linejoin="round" d="M 1228,3015 L 1528,3015"/>
 <path fill="none" stroke="rgb(0,0,0)" stroke-width="30" stroke-linejoin="round" d="M 1228,2055 L 1528,2055"/>
 <path fill="none" stroke="rgb(0,0,0)" stroke-width="30" stroke-linejoin="round" d="M 1228,2055 L 1528,2055"/>
 <path fill="none" stroke="rgb(0,0,0)" stroke-width="30" stroke-linejoin="round" d="M 1228,1095 L 1528,1095"/>
 <path fill="none" stroke="rgb(0,0,0)" stroke-width="30" stroke-linejoin="round" d="M 1228,1095 L 1528,1095"/>
 <path fill="none" stroke="rgb(0,0,0)" stroke-width="30" stroke-linejoin="round" d="M 1378,10698 L 1378,1095"/>
 <path fill="none" stroke="rgb(0,0,0)" stroke-width="30" stroke-linejoin="round" d="M 14766,10698 L 14616,10698"/>
 <path fill="none" stroke="rgb(0,0,0)" stroke-width="30" stroke-linejoin="round" d="M 14766,10698 L 14616,10698"/>
 <path fill="none" stroke="rgb(0,0,0)" stroke-width="30" stroke-linejoin="round" d="M 14766,9737 L 14616,9737"/>
 <path fill="none" stroke="rgb(0,0,0)" stroke-width="30" stroke-linejoin="round" d="M 14766,9737 L 14616,9737"/>
 <path fill="none" stroke="rgb(0,0,0)" stroke-width="30" stroke-linejoin="round" d="M 14766,8777 L 14616,8777"/>
 <path fill="none" stroke="rgb(0,0,0)" stroke-width="30" stroke-linejoin="round" d="M 14766,8777 L 14616,8777"/>
 <path fill="none" stroke="rgb(0,0,0)" stroke-width="30" stroke-linejoin="round" d="M 14766,7816 L 14616,7816"/>
 <path fill="none" stroke="rgb(0,0,0)" stroke-width="30" stroke-linejoin="round" d="M 14766,7816 L 14616,7816"/>
 <path fill="none" stroke="rgb(0,0,0)" stroke-width="30" stroke-linejoin="round" d="M 14766,6856 L 14616,6856"/>
 <path fill="none" stroke="rgb(0,0,0)" stroke-width="30" stroke-linejoin="round" d="M 14766,6856 L 14616,6856"/>
 <path fill="none" stroke="rgb(0,0,0)" stroke-width="30" stroke-linejoin="round" d="M 14766,5897 L 14616,5897"/>
 <path fill="none" stroke="rgb(0,0,0)" stroke-width="30" stroke-linejoin="round" d="M 14766,5897 L 14616,5897"/>
 <path fill="none" stroke="rgb(0,0,0)" stroke-width="30" stroke-linejoin="round" d="M 14766,4936 L 14616,4936"/>
 <path fill="none" stroke="rgb(0,0,0)" stroke-width="30" stroke-linejoin="round" d="M 14766,4936 L 14616,4936"/>
 <path fill="none" stroke="rgb(0,0,0)" stroke-width="30" stroke-linejoin="round" d="M 14766,3976 L 14616,3976"/>
 <path fill="none" stroke="rgb(0,0,0)" stroke-width="30" stroke-linejoin="round" d="M 14766,3976 L 14616,3976"/>
 <path fill="none" stroke="rgb(0,0,0)" stroke-width="30" stroke-linejoin="round" d="M 14766,3015 L 14616,3015"/>
 <path fill="none" stroke="rgb(0,0,0)" stroke-width="30" stroke-linejoin="round" d="M 14766,3015 L 14616,3015"/>
 <path fill="none" stroke="rgb(0,0,0)" stroke-width="30" stroke-linejoin="round" d="M 14766,2055 L 14616,2055"/>
 <path fill="none" stroke="rgb(0,0,0)" stroke-width="30" stroke-linejoin="round" d="M 14766,2055 L 14616,2055"/>
 <path fill="none" stroke="rgb(0,0,0)" stroke-width="30" stroke-linejoin="round" d="M 14766,1095 L 14616,1095"/>
 <path fill="none" stroke="rgb(0,0,0)" stroke-width="30" stroke-linejoin="round" d="M 14766,1095 L 14616,1095"/>
 <path fill="none" stroke="rgb(0,0,0)" stroke-width="30" stroke-linejoin="round" d="M 14616,10698 L 14616,1095"/>
 <path fill="rgb(255,211,32)" stroke="none" d="M 1378,10698 L 1495,10698 1612,10698 1729,10698 1846,10698 1963,10698 2080,10698 2198,10698 2315,10698 2432,10698 2549,10592 2666,10601 2783,10590 2901,10564 3018,10551 3135,10550 3252,10544 3369,10526 3486,10490 3604,10469 3721,10452 3838,10427 3955,10395 4072,10356 4189,10322 4306,10258 4424,10203 4541,10161 4658,10112 4775,10054 4892,10030 5009,10009 5127,10016 5244,9985 5361,9936 5478,9897 5595,9818 5712,9748 5830,9680 5947,9655 6064,9597 6181,9570 6298,9512 6415,9461 6533,9443 6650,9227 6767,9165 6884,9019 7001,8995 7118,8916 7235,8936 7353,8946 7470,8983 7587,8945 7704,8859 7821,8898 7937,8946 8055,8888 8172,8923 8289,8897 8406,9017 8523,9001 8640,9052 8758,9118 8875,9135 8992,9123 9109,9179 9226,9055 9343,8995 9460,9097 9578,9103 9695,9127 9812,9074 9929,8982 10046,8950 10163,8869 10281,8815 10398,8893 10515,8736 10632,8591 10749,8507 10866,8596 10984,8556 11101,8482 11218,8460 11335,8349 11452,8166 11569,8120 11687,8088 11804,7843 11921,7900 12038,7815 12155,7751 12272,7612 12389,7504 12507,7412 12624,7335 12741,7258 12858,7042 12975,6930 13092,6643 13210,6439 13327,5855 13444,5916 13561,5755 13678,5510 13795,5413 13913,5443 14030,5371 14147,5388 14264,5316 14381,5191 14498,5295 14616,5236 14616,10698 1378,10698 Z"/>
 <path fill="none" stroke="rgb(0,0,0)" stroke-linejoin="round" d="M 1378,10698 L 1495,10698 1612,10698 1729,10698 1846,10698 1963,10698 2080,10698 2198,10698 2315,10698 2432,10698 2549,10592 2666,10601 2783,10590 2901,10564 3018,10551 3135,10550 3252,10544 3369,10526 3486,10490 3604,10469 3721,10452 3838,10427 3955,10395 4072,10356 4189,10322 4306,10258 4424,10203 4541,10161 4658,10112 4775,10054 4892,10030 5009,10009 5127,10016 5244,9985 5361,9936 5478,9897 5595,9818 5712,9748 5830,9680 5947,9655 6064,9597 6181,9570 6298,9512 6415,9461 6533,9443 6650,9227 6767,9165 6884,9019 7001,8995 7118,8916 7235,8936 7353,8946 7470,8983 7587,8945 7704,8859 7821,8898 7937,8946 8055,8888 8172,8923 8289,8897 8406,9017 8523,9001 8640,9052 8758,9118 8875,9135 8992,9123 9109,9179 9226,9055 9343,8995 9460,9097 9578,9103 9695,9127 9812,9074 9929,8982 10046,8950 10163,8869 10281,8815 10398,8893 10515,8736 10632,8591 10749,8507 10866,8596 10984,8556 11101,8482 11218,8460 11335,8349 11452,8166 11569,8120 11687,8088 11804,7843 11921,7900 12038,7815 12155,7751 12272,7612 12389,7504 12507,7412 12624,7335 12741,7258 12858,7042 12975,6930 13092,6643 13210,6439 13327,5855 13444,5916 13561,5755 13678,5510 13795,5413 13913,5443 14030,5371 14147,5388 14264,5316 14381,5191 14498,5295 14616,5236 14616,10698 1378,10698 Z"/>
 <path fill="rgb(0,69,134)" stroke="none" d="M 1378,3062 L 1495,3127 1612,3182 1729,3225 1846,3263 1963,3242 2080,3404 2198,3459 2315,3446 2432,3481 2549,3468 2666,3529 2783,3714 2901,3794 3018,3858 3135,3903 3252,3970 3369,4018 3486,3952 3604,3912 3721,3960 3838,4005 3955,4094 4072,4155 4189,4221 4306,4247 4424,4242 4541,4261 4658,4300 4775,4309 4892,4311 5009,4228 5127,4196 5244,4203 5361,4227 5478,4227 5595,4221 5712,4280 5830,4317 5947,4217 6064,4242 6181,4293 6298,4315 6415,4319 6533,4394 6650,4288 6767,4280 6884,4275 7001,4312 7118,4349 7235,4329 7353,4278 7470,4230 7587,4167 7704,4113 7821,4179 7937,4281 8055,4249 8172,4273 8289,4262 8406,4332 8523,4336 8640,4410 8758,4495 8875,4510 8992,4377 9109,4438 9226,4306 9343,4261 9460,4345 9578,4211 9695,4259 9812,4243 9929,4203 10046,4243 10163,4240 10281,4126 10398,4264 10515,4157 10632,3962 10749,3946 10866,3948 10984,3852 11101,3817 11218,3803 11335,3637 11452,3729 11569,3636 11687,3675 11804,3685 11921,3613 12038,3658 12155,3680 12272,3574 12389,3674 12507,3672 12624,3560 12741,3674 12858,3680 12975,3721 13092,3656 13210,3642 13327,3270 13444,3314 13561,3301 13678,3246 13795,3396 13913,3497 14030,3544 14147,3659 14264,3655 14381,3592 14498,3805 14616,3740 14616,5236 14498,5295 14381,5191 14264,5316 14147,5388 14030,5371 13913,5443 13795,5413 13678,5510 13561,5755 13444,5916 13327,5855 13210,6439 13092,6643 12975,6930 12858,7042 12741,7258 12624,7335 12507,7412 12389,7504 12272,7612 12155,7751 12038,7815 11921,7900 11804,7843 11687,8088 11569,8120 11452,8166 11335,8349 11218,8460 11101,8482 10984,8556 10866,8596 10749,8507 10632,8591 10515,8736 10398,8893 10281,8815 10163,8869 10046,8950 9929,8982 9812,9074 9695,9127 9578,9103 9460,9097 9343,8995 9226,9055 9109,9179 8992,9123 8875,9135 8758,9118 8640,9052 8523,9001 8406,9017 8289,8897 8172,8923 8055,8888 7937,8946 7821,8898 7704,8859 7587,8945 7470,8983 7353,8946 7235,8936 7118,8916 7001,8995 6884,9019 6767,9165 6650,9227 6533,9443 6415,9461 6298,9512 6181,9570 6064,9597 5947,9655 5830,9680 5712,9748 5595,9818 5478,9897 5361,9936 5244,9985 5127,10016 5009,10009 4892,10030 4775,10054 4658,10112 4541,10161 4424,10203 4306,10258 4189,10322 4072,10356 3955,10395 3838,10427 3721,10452 3604,10469 3486,10490 3369,10526 3252,10544 3135,10550 3018,10551 2901,10564 2783,10590 2666,10601 2549,10592 2432,10698 2315,10698 2198,10698 2080,10698 1963,10698 1846,10698 1729,10698 1612,10698 1495,10698 1378,10698 1378,3062 Z"/>
 <path fill="none" stroke="rgb(0,0,0)" stroke-linejoin="round" d="M 1378,3062 L 1495,3127 1612,3182 1729,3225 1846,3263 1963,3242 2080,3404 2198,3459 2315,3446 2432,3481 2549,3468 2666,3529 2783,3714 2901,3794 3018,3858 3135,3903 3252,3970 3369,4018 3486,3952 3604,3912 3721,3960 3838,4005 3955,4094 4072,4155 4189,4221 4306,4247 4424,4242 4541,4261 4658,4300 4775,4309 4892,4311 5009,4228 5127,4196 5244,4203 5361,4227 5478,4227 5595,4221 5712,4280 5830,4317 5947,4217 6064,4242 6181,4293 6298,4315 6415,4319 6533,4394 6650,4288 6767,4280 6884,4275 7001,4312 7118,4349 7235,4329 7353,4278 7470,4230 7587,4167 7704,4113 7821,4179 7937,4281 8055,4249 8172,4273 8289,4262 8406,4332 8523,4336 8640,4410 8758,4495 8875,4510 8992,4377 9109,4438 9226,4306 9343,4261 9460,4345 9578,4211 9695,4259 9812,4243 9929,4203 10046,4243 10163,4240 10281,4126 10398,4264 10515,4157 10632,3962 10749,3946 10866,3948 10984,3852 11101,3817 11218,3803 11335,3637 11452,3729 11569,3636 11687,3675 11804,3685 11921,3613 12038,3658 12155,3680 12272,3574 12389,3674 12507,3672 12624,3560 12741,3674 12858,3680 12975,3721 13092,3656 13210,3642 13327,3270 13444,3314 13561,3301 13678,3246 13795,3396 13913,3497 14030,3544 14147,3659 14264,3655 14381,3592 14498,3805 14616,3740 14616,5236 14498,5295 14381,5191 14264,5316 14147,5388 14030,5371 13913,5443 13795,5413 13678,5510 13561,5755 13444,5916 13327,5855 13210,6439 13092,6643 12975,6930 12858,7042 12741,7258 12624,7335 12507,7412 12389,7504 12272,7612 12155,7751 12038,7815 11921,7900 11804,7843 11687,8088 11569,8120 11452,8166 11335,8349 11218,8460 11101,8482 10984,8556 10866,8596 10749,8507 10632,8591 10515,8736 10398,8893 10281,8815 10163,8869 10046,8950 9929,8982 9812,9074 9695,9127 9578,9103 9460,9097 9343,8995 9226,9055 9109,9179 8992,9123 8875,9135 8758,9118 8640,9052 8523,9001 8406,9017 8289,8897 8172,8923 8055,8888 7937,8946 7821,8898 7704,8859 7587,8945 7470,8983 7353,8946 7235,8936 7118,8916 7001,8995 6884,9019 6767,9165 6650,9227 6533,9443 6415,9461 6298,9512 6181,9570 6064,9597 5947,9655 5830,9680 5712,9748 5595,9818 5478,9897 5361,9936 5244,9985 5127,10016 5009,10009 4892,10030 4775,10054 4658,10112 4541,10161 4424,10203 4306,10258 4189,10322 4072,10356 3955,10395 3838,10427 3721,10452 3604,10469 3486,10490 3369,10526 3252,10544 3135,10550 3018,10551 2901,10564 2783,10590 2666,10601 2549,10592 2432,10698 2315,10698 2198,10698 2080,10698 1963,10698 1846,10698 1729,10698 1612,10698 1495,10698 1378,10698 1378,3062 Z"/>
 <path fill="rgb(87,157,28)" stroke="none" d="M 1378,2841 L 1495,2890 1612,2931 1729,2972 1846,3005 1963,2996 2080,3130 2198,3195 2315,3193 2432,3223 2549,3199 2666,3255 2783,3420 2901,3470 3018,3512 3135,3574 3252,3622 3369,3683 3486,3600 3604,3551 3721,3576 3838,3620 3955,3691 4072,3740 4189,3811 4306,3828 4424,3818 4541,3840 4658,3860 4775,3862 4892,3865 5009,3770 5127,3721 5244,3719 5361,3739 5478,3733 5595,3704 5712,3733 5830,3729 5947,3625 6064,3626 6181,3626 6298,3637 6415,3628 6533,3648 6650,3562 6767,3515 6884,3461 7001,3518 7118,3521 7235,3443 7353,3392 7470,3376 7587,3298 7704,3240 7821,3254 7937,3350 8055,3224 8172,3269 8289,3241 8406,3278 8523,3269 8640,3280 8758,3365 8875,3378 8992,3312 9109,3348 9226,3220 9343,3125 9460,3187 9578,3154 9695,3128 9812,3065 9929,3032 10046,2989 10163,2963 10281,2892 10398,2981 10515,2887 10632,2806 10749,2798 10866,2780 10984,2795 11101,2710 11218,2591 11335,2569 11452,2539 11569,2525 11687,2558 11804,2496 11921,2543 12038,2508 12155,2473 12272,2430 12389,2459 12507,2388 12624,2520 12741,2554 12858,2559 12975,2600 13092,2482 13210,2543 13327,2331 13444,2326 13561,2299 13678,2262 13795,2406 13913,2579 14030,2620 14147,2604 14264,2530 14381,2512 14498,2482 14616,2499 14616,3740 14498,3805 14381,3592 14264,3655 14147,3659 14030,3544 13913,3497 13795,3396 13678,3246 13561,3301 13444,3314 13327,3270 13210,3642 13092,3656 12975,3721 12858,3680 12741,3674 12624,3560 12507,3672 12389,3674 12272,3574 12155,3680 12038,3658 11921,3613 11804,3685 11687,3675 11569,3636 11452,3729 11335,3637 11218,3803 11101,3817 10984,3852 10866,3948 10749,3946 10632,3962 10515,4157 10398,4264 10281,4126 10163,4240 10046,4243 9929,4203 9812,4243 9695,4259 9578,4211 9460,4345 9343,4261 9226,4306 9109,4438 8992,4377 8875,4510 8758,4495 8640,4410 8523,4336 8406,4332 8289,4262 8172,4273 8055,4249 7937,4281 7821,4179 7704,4113 7587,4167 7470,4230 7353,4278 7235,4329 7118,4349 7001,4312 6884,4275 6767,4280 6650,4288 6533,4394 6415,4319 6298,4315 6181,4293 6064,4242 5947,4217 5830,4317 5712,4280 5595,4221 5478,4227 5361,4227 5244,4203 5127,4196 5009,4228 4892,4311 4775,4309 4658,4300 4541,4261 4424,4242 4306,4247 4189,4221 4072,4155 3955,4094 3838,4005 3721,3960 3604,3912 3486,3952 3369,4018 3252,3970 3135,3903 3018,3858 2901,3794 2783,3714 2666,3529 2549,3468 2432,3481 2315,3446 2198,3459 2080,3404 1963,3242 1846,3263 1729,3225 1612,3182 1495,3127 1378,3062 1378,2841 Z"/>
 <path fill="none" stroke="rgb(0,0,0)" stroke-linejoin="round" d="M 1378,2841 L 1495,2890 1612,2931 1729,2972 1846,3005 1963,2996 2080,3130 2198,3195 2315,3193 2432,3223 2549,3199 2666,3255 2783,3420 2901,3470 3018,3512 3135,3574 3252,3622 3369,3683 3486,3600 3604,3551 3721,3576 3838,3620 3955,3691 4072,3740 4189,3811 4306,3828 4424,3818 4541,3840 4658,3860 4775,3862 4892,3865 5009,3770 5127,3721 5244,3719 5361,3739 5478,3733 5595,3704 5712,3733 5830,3729 5947,3625 6064,3626 6181,3626 6298,3637 6415,3628 6533,3648 6650,3562 6767,3515 6884,3461 7001,3518 7118,3521 7235,3443 7353,3392 7470,3376 7587,3298 7704,3240 7821,3254 7937,3350 8055,3224 8172,3269 8289,3241 8406,3278 8523,3269 8640,3280 8758,3365 8875,3378 8992,3312 9109,3348 9226,3220 9343,3125 9460,3187 9578,3154 9695,3128 9812,3065 9929,3032 10046,2989 10163,2963 10281,2892 10398,2981 10515,2887 10632,2806 10749,2798 10866,2780 10984,2795 11101,2710 11218,2591 11335,2569 11452,2539 11569,2525 11687,2558 11804,2496 11921,2543 12038,2508 12155,2473 12272,2430 12389,2459 12507,2388 12624,2520 12741,2554 12858,2559 12975,2600 13092,2482 13210,2543 13327,2331 13444,2326 13561,2299 13678,2262 13795,2406 13913,2579 14030,2620 14147,2604 14264,2530 14381,2512 14498,2482 14616,2499 14616,3740 14498,3805 14381,3592 14264,3655 14147,3659 14030,3544 13913,3497 13795,3396 13678,3246 13561,3301 13444,3314 13327,3270 13210,3642 13092,3656 12975,3721 12858,3680 12741,3674 12624,3560 12507,3672 12389,3674 12272,3574 12155,3680 12038,3658 11921,3613 11804,3685 11687,3675 11569,3636 11452,3729 11335,3637 11218,3803 11101,3817 10984,3852 10866,3948 10749,3946 10632,3962 10515,4157 10398,4264 10281,4126 10163,4240 10046,4243 9929,4203 9812,4243 9695,4259 9578,4211 9460,4345 9343,4261 9226,4306 9109,4438 8992,4377 8875,4510 8758,4495 8640,4410 8523,4336 8406,4332 8289,4262 8172,4273 8055,4249 7937,4281 7821,4179 7704,4113 7587,4167 7470,4230 7353,4278 7235,4329 7118,4349 7001,4312 6884,4275 6767,4280 6650,4288 6533,4394 6415,4319 6298,4315 6181,4293 6064,4242 5947,4217 5830,4317 5712,4280 5595,4221 5478,4227 5361,4227 5244,4203 5127,4196 5009,4228 4892,4311 4775,4309 4658,4300 4541,4261 4424,4242 4306,4247 4189,4221 4072,4155 3955,4094 3838,4005 3721,3960 3604,3912 3486,3952 3369,4018 3252,3970 3135,3903 3018,3858 2901,3794 2783,3714 2666,3529 2549,3468 2432,3481 2315,3446 2198,3459 2080,3404 1963,3242 1846,3263 1729,3225 1612,3182 1495,3127 1378,3062 1378,2841 Z"/>
 <path fill="rgb(255,66,14)" stroke="none" d="M 1378,1349 L 1495,1323 1612,1335 1729,1339 1846,1343 1963,1346 2080,1367 2198,1373 2315,1370 2432,1373 2549,1362 2666,1370 2783,1378 2901,1384 3018,1386 3135,1403 3252,1382 3369,1391 3486,1412 3604,1399 3721,1415 3838,1408 3955,1405 4072,1423 4189,1433 4306,1458 4424,1465 4541,1508 4658,1498 4775,1494 4892,1525 5009,1490 5127,1528 5244,1523 5361,1544 5478,1553 5595,1523 5712,1549 5830,1551 5947,1543 6064,1539 6181,1555 6298,1565 6415,1552 6533,1592 6650,1546 6767,1500 6884,1432 7001,1547 7118,1603 7235,1627 7353,1542 7470,1556 7587,1515 7704,1498 7821,1495 7937,1614 8055,1491 8172,1529 8289,1535 8406,1539 8523,1589 8640,1608 8758,1706 8875,1714 8992,1600 9109,1624 9226,1643 9343,1626 9460,1677 9578,1641 9695,1625 9812,1597 9929,1578 10046,1602 10163,1630 10281,1582 10398,1701 10515,1649 10632,1683 10749,1719 10866,1675 10984,1783 11101,1749 11218,1635 11335,1724 11452,1710 11569,1704 11687,1727 11804,1718 11921,1724 12038,1670 12155,1670 12272,1635 12389,1725 12507,1670 12624,1741 12741,1803 12858,1882 12975,1906 13092,1897 13210,2040 13327,1876 13444,1896 13561,1857 13678,1832 13795,1911 13913,1924 14030,1938 14147,1905 14264,1841 14381,1854 14498,1871 14616,1869 14616,2499 14498,2482 14381,2512 14264,2530 14147,2604 14030,2620 13913,2579 13795,2406 13678,2262 13561,2299 13444,2326 13327,2331 13210,2543 13092,2482 12975,2600 12858,2559 12741,2554 12624,2520 12507,2388 12389,2459 12272,2430 12155,2473 12038,2508 11921,2543 11804,2496 11687,2558 11569,2525 11452,2539 11335,2569 11218,2591 11101,2710 10984,2795 10866,2780 10749,2798 10632,2806 10515,2887 10398,2981 10281,2892 10163,2963 10046,2989 9929,3032 9812,3065 9695,3128 9578,3154 9460,3187 9343,3125 9226,3220 9109,3348 8992,3312 8875,3378 8758,3365 8640,3280 8523,3269 8406,3278 8289,3241 8172,3269 8055,3224 7937,3350 7821,3254 7704,3240 7587,3298 7470,3376 7353,3392 7235,3443 7118,3521 7001,3518 6884,3461 6767,3515 6650,3562 6533,3648 6415,3628 6298,3637 6181,3626 6064,3626 5947,3625 5830,3729 5712,3733 5595,3704 5478,3733 5361,3739 5244,3719 5127,3721 5009,3770 4892,3865 4775,3862 4658,3860 4541,3840 4424,3818 4306,3828 4189,3811 4072,3740 3955,3691 3838,3620 3721,3576 3604,3551 3486,3600 3369,3683 3252,3622 3135,3574 3018,3512 2901,3470 2783,3420 2666,3255 2549,3199 2432,3223 2315,3193 2198,3195 2080,3130 1963,2996 1846,3005 1729,2972 1612,2931 1495,2890 1378,2841 1378,1349 Z"/>
 <path fill="none" stroke="rgb(0,0,0)" stroke-linejoin="round" d="M 1378,1349 L 1495,1323 1612,1335 1729,1339 1846,1343 1963,1346 2080,1367 2198,1373 2315,1370 2432,1373 2549,1362 2666,1370 2783,1378 2901,1384 3018,1386 3135,1403 3252,1382 3369,1391 3486,1412 3604,1399 3721,1415 3838,1408 3955,1405 4072,1423 4189,1433 4306,1458 4424,1465 4541,1508 4658,1498 4775,1494 4892,1525 5009,1490 5127,1528 5244,1523 5361,1544 5478,1553 5595,1523 5712,1549 5830,1551 5947,1543 6064,1539 6181,1555 6298,1565 6415,1552 6533,1592 6650,1546 6767,1500 6884,1432 7001,1547 7118,1603 7235,1627 7353,1542 7470,1556 7587,1515 7704,1498 7821,1495 7937,1614 8055,1491 8172,1529 8289,1535 8406,1539 8523,1589 8640,1608 8758,1706 8875,1714 8992,1600 9109,1624 9226,1643 9343,1626 9460,1677 9578,1641 9695,1625 9812,1597 9929,1578 10046,1602 10163,1630 10281,1582 10398,1701 10515,1649 10632,1683 10749,1719 10866,1675 10984,1783 11101,1749 11218,1635 11335,1724 11452,1710 11569,1704 11687,1727 11804,1718 11921,1724 12038,1670 12155,1670 12272,1635 12389,1725 12507,1670 12624,1741 12741,1803 12858,1882 12975,1906 13092,1897 13210,2040 13327,1876 13444,1896 13561,1857 13678,1832 13795,1911 13913,1924 14030,1938 14147,1905 14264,1841 14381,1854 14498,1871 14616,1869 14616,2499 14498,2482 14381,2512 14264,2530 14147,2604 14030,2620 13913,2579 13795,2406 13678,2262 13561,2299 13444,2326 13327,2331 13210,2543 13092,2482 12975,2600 12858,2559 12741,2554 12624,2520 12507,2388 12389,2459 12272,2430 12155,2473 12038,2508 11921,2543 11804,2496 11687,2558 11569,2525 11452,2539 11335,2569 11218,2591 11101,2710 10984,2795 10866,2780 10749,2798 10632,2806 10515,2887 10398,2981 10281,2892 10163,2963 10046,2989 9929,3032 9812,3065 9695,3128 9578,3154 9460,3187 9343,3125 9226,3220 9109,3348 8992,3312 8875,3378 8758,3365 8640,3280 8523,3269 8406,3278 8289,3241 8172,3269 8055,3224 7937,3350 7821,3254 7704,3240 7587,3298 7470,3376 7353,3392 7235,3443 7118,3521 7001,3518 6884,3461 6767,3515 6650,3562 6533,3648 6415,3628 6298,3637 6181,3626 6064,3626 5947,3625 5830,3729 5712,3733 5595,3704 5478,3733 5361,3739 5244,3719 5127,3721 5009,3770 4892,3865 4775,3862 4658,3860 4541,3840 4424,3818 4306,3828 4189,3811 4072,3740 3955,3691 3838,3620 3721,3576 3604,3551 3486,3600 3369,3683 3252,3622 3135,3574 3018,3512 2901,3470 2783,3420 2666,3255 2549,3199 2432,3223 2315,3193 2198,3195 2080,3130 1963,2996 1846,3005 1729,2972 1612,2931 1495,2890 1378,2841 1378,1349 Z"/>
 <path fill="rgb(126,0,33)" stroke="none" d="M 1378,1153 L 1495,1156 1612,1146 1729,1144 1846,1148 1963,1153 2080,1160 2198,1153 2315,1151 2432,1150 2549,1150 2666,1147 2783,1148 2901,1152 3018,1151 3135,1172 3252,1158 3369,1172 3486,1192 3604,1189 3721,1206 3838,1192 3955,1174 4072,1190 4189,1173 4306,1181 4424,1187 4541,1227 4658,1201 4775,1203 4892,1228 5009,1215 5127,1226 5244,1217 5361,1227 5478,1253 5595,1228 5712,1245 5830,1255 5947,1240 6064,1242 6181,1256 6298,1274 6415,1281 6533,1337 6650,1274 6767,1241 6884,1221 7001,1284 7118,1301 7235,1320 7353,1288 7470,1323 7587,1291 7704,1270 7821,1273 7937,1411 8055,1284 8172,1311 8289,1318 8406,1329 8523,1334 8640,1350 8758,1395 8875,1475 8992,1354 9109,1367 9226,1398 9343,1400 9460,1447 9578,1442 9695,1445 9812,1437 9929,1430 10046,1448 10163,1479 10281,1452 10398,1501 10515,1461 10632,1497 10749,1515 10866,1477 10984,1623 11101,1580 11218,1454 11335,1528 11452,1520 11569,1507 11687,1525 11804,1530 11921,1504 12038,1463 12155,1484 12272,1466 12389,1546 12507,1494 12624,1563 12741,1593 12858,1629 12975,1641 13092,1659 13210,1797 13327,1689 13444,1678 13561,1673 13678,1642 13795,1712 13913,1752 14030,1766 14147,1725 14264,1697 14381,1708 14498,1714 14616,1733 14616,1869 14498,1871 14381,1854 14264,1841 14147,1905 14030,1938 13913,1924 13795,1911 13678,1832 13561,1857 13444,1896 13327,1876 13210,2040 13092,1897 12975,1906 12858,1882 12741,1803 12624,1741 12507,1670 12389,1725 12272,1635 12155,1670 12038,1670 11921,1724 11804,1718 11687,1727 11569,1704 11452,1710 11335,1724 11218,1635 11101,1749 10984,1783 10866,1675 10749,1719 10632,1683 10515,1649 10398,1701 10281,1582 10163,1630 10046,1602 9929,1578 9812,1597 9695,1625 9578,1641 9460,1677 9343,1626 9226,1643 9109,1624 8992,1600 8875,1714 8758,1706 8640,1608 8523,1589 8406,1539 8289,1535 8172,1529 8055,1491 7937,1614 7821,1495 7704,1498 7587,1515 7470,1556 7353,1542 7235,1627 7118,1603 7001,1547 6884,1432 6767,1500 6650,1546 6533,1592 6415,1552 6298,1565 6181,1555 6064,1539 5947,1543 5830,1551 5712,1549 5595,1523 5478,1553 5361,1544 5244,1523 5127,1528 5009,1490 4892,1525 4775,1494 4658,1498 4541,1508 4424,1465 4306,1458 4189,1433 4072,1423 3955,1405 3838,1408 3721,1415 3604,1399 3486,1412 3369,1391 3252,1382 3135,1403 3018,1386 2901,1384 2783,1378 2666,1370 2549,1362 2432,1373 2315,1370 2198,1373 2080,1367 1963,1346 1846,1343 1729,1339 1612,1335 1495,1323 1378,1349 1378,1153 Z"/>
 <path fill="none" stroke="rgb(0,0,0)" stroke-linejoin="round" d="M 1378,1153 L 1495,1156 1612,1146 1729,1144 1846,1148 1963,1153 2080,1160 2198,1153 2315,1151 2432,1150 2549,1150 2666,1147 2783,1148 2901,1152 3018,1151 3135,1172 3252,1158 3369,1172 3486,1192 3604,1189 3721,1206 3838,1192 3955,1174 4072,1190 4189,1173 4306,1181 4424,1187 4541,1227 4658,1201 4775,1203 4892,1228 5009,1215 5127,1226 5244,1217 5361,1227 5478,1253 5595,1228 5712,1245 5830,1255 5947,1240 6064,1242 6181,1256 6298,1274 6415,1281 6533,1337 6650,1274 6767,1241 6884,1221 7001,1284 7118,1301 7235,1320 7353,1288 7470,1323 7587,1291 7704,1270 7821,1273 7937,1411 8055,1284 8172,1311 8289,1318 8406,1329 8523,1334 8640,1350 8758,1395 8875,1475 8992,1354 9109,1367 9226,1398 9343,1400 9460,1447 9578,1442 9695,1445 9812,1437 9929,1430 10046,1448 10163,1479 10281,1452 10398,1501 10515,1461 10632,1497 10749,1515 10866,1477 10984,1623 11101,1580 11218,1454 11335,1528 11452,1520 11569,1507 11687,1525 11804,1530 11921,1504 12038,1463 12155,1484 12272,1466 12389,1546 12507,1494 12624,1563 12741,1593 12858,1629 12975,1641 13092,1659 13210,1797 13327,1689 13444,1678 13561,1673 13678,1642 13795,1712 13913,1752 14030,1766 14147,1725 14264,1697 14381,1708 14498,1714 14616,1733 14616,1869 14498,1871 14381,1854 14264,1841 14147,1905 14030,1938 13913,1924 13795,1911 13678,1832 13561,1857 13444,1896 13327,1876 13210,2040 13092,1897 12975,1906 12858,1882 12741,1803 12624,1741 12507,1670 12389,1725 12272,1635 12155,1670 12038,1670 11921,1724 11804,1718 11687,1727 11569,1704 11452,1710 11335,1724 11218,1635 11101,1749 10984,1783 10866,1675 10749,1719 10632,1683 10515,1649 10398,1701 10281,1582 10163,1630 10046,1602 9929,1578 9812,1597 9695,1625 9578,1641 9460,1677 9343,1626 9226,1643 9109,1624 8992,1600 8875,1714 8758,1706 8640,1608 8523,1589 8406,1539 8289,1535 8172,1529 8055,1491 7937,1614 7821,1495 7704,1498 7587,1515 7470,1556 7353,1542 7235,1627 7118,1603 7001,1547 6884,1432 6767,1500 6650,1546 6533,1592 6415,1552 6298,1565 6181,1555 6064,1539 5947,1543 5830,1551 5712,1549 5595,1523 5478,1553 5361,1544 5244,1523 5127,1528 5009,1490 4892,1525 4775,1494 4658,1498 4541,1508 4424,1465 4306,1458 4189,1433 4072,1423 3955,1405 3838,1408 3721,1415 3604,1399 3486,1412 3369,1391 3252,1382 3135,1403 3018,1386 2901,1384 2783,1378 2666,1370 2549,1362 2432,1373 2315,1370 2198,1373 2080,1367 1963,1346 1846,1343 1729,1339 1612,1335 1495,1323 1378,1349 1378,1153 Z"/>
 <path fill="rgb(131,202,255)" stroke="none" d="M 1378,1095 L 1495,1095 1612,1095 1729,1095 1846,1095 1963,1095 2080,1095 2198,1095 2315,1095 2432,1095 2549,1095 2666,1095 2783,1095 2901,1095 3018,1095 3135,1095 3252,1095 3369,1095 3486,1095 3604,1095 3721,1095 3838,1095 3955,1095 4189,1095 4306,1095 4424,1095 4541,1095 4658,1095 4892,1095 5127,1095 5244,1095 5361,1095 5478,1095 5595,1095 5712,1095 5830,1095 5947,1095 6064,1095 6181,1095 6298,1095 6415,1095 6533,1095 6650,1095 6767,1095 6884,1095 7001,1095 7118,1095 7235,1095 7665,1095 7704,1095 7821,1095 8055,1095 8172,1095 8289,1095 8406,1095 8523,1095 8640,1095 8758,1095 8992,1095 9109,1095 9226,1095 9343,1095 9460,1095 9578,1095 9695,1095 9812,1095 9929,1095 10046,1095 10281,1095 10398,1095 10515,1095 10632,1095 10749,1095 10866,1095 10984,1095 11023,1095 11218,1095 11335,1095 11374,1095 11569,1095 11687,1095 11804,1095 11921,1095 12038,1095 12272,1095 12389,1095 12507,1095 12624,1095 12741,1095 12858,1095 12975,1095 13092,1095 13210,1095 13405,1095 13444,1095 13561,1095 13678,1095 13795,1095 14030,1095 14147,1095 14264,1095 14498,1095 14616,1095 14616,1733 14498,1714 14381,1708 14264,1697 14147,1725 14030,1766 13913,1752 13795,1712 13678,1642 13561,1673 13444,1678 13327,1689 13210,1797 13092,1659 12975,1641 12858,1629 12741,1593 12624,1563 12507,1494 12389,1546 12272,1466 12155,1484 12038,1463 11921,1504 11804,1530 11687,1525 11569,1507 11452,1520 11335,1528 11218,1454 11101,1580 10984,1623 10866,1477 10749,1515 10632,1497 10515,1461 10398,1501 10281,1452 10163,1479 10046,1448 9929,1430 9812,1437 9695,1445 9578,1442 9460,1447 9343,1400 9226,1398 9109,1367 8992,1354 8875,1475 8758,1395 8640,1350 8523,1334 8406,1329 8289,1318 8172,1311 8055,1284 7937,1411 7821,1273 7704,1270 7587,1291 7470,1323 7353,1288 7235,1320 7118,1301 7001,1284 6884,1221 6767,1241 6650,1274 6533,1337 6415,1281 6298,1274 6181,1256 6064,1242 5947,1240 5830,1255 5712,1245 5595,1228 5478,1253 5361,1227 5244,1217 5127,1226 5009,1215 4892,1228 4775,1203 4658,1201 4541,1227 4424,1187 4306,1181 4189,1173 4072,1190 3955,1174 3838,1192 3721,1206 3604,1189 3486,1192 3369,1172 3252,1158 3135,1172 3018,1151 2901,1152 2783,1148 2666,1147 2549,1150 2432,1150 2315,1151 2198,1153 2080,1160 1963,1153 1846,1148 1729,1144 1612,1146 1495,1156 1378,1153 1378,1095 Z"/>
 <path fill="none" stroke="rgb(0,0,0)" stroke-linejoin="round" d="M 1378,1095 L 1495,1095 1612,1095 1729,1095 1846,1095 1963,1095 2080,1095 2198,1095 2315,1095 2432,1095 2549,1095 2666,1095 2783,1095 2901,1095 3018,1095 3135,1095 3252,1095 3369,1095 3486,1095 3604,1095 3721,1095 3838,1095 3955,1095 4189,1095 4306,1095 4424,1095 4541,1095 4658,1095 4892,1095 5127,1095 5244,1095 5361,1095 5478,1095 5595,1095 5712,1095 5830,1095 5947,1095 6064,1095 6181,1095 6298,1095 6415,1095 6533,1095 6650,1095 6767,1095 6884,1095 7001,1095 7118,1095 7235,1095 7665,1095 7704,1095 7821,1095 8055,1095 8172,1095 8289,1095 8406,1095 8523,1095 8640,1095 8758,1095 8992,1095 9109,1095 9226,1095 9343,1095 9460,1095 9578,1095 9695,1095 9812,1095 9929,1095 10046,1095 10281,1095 10398,1095 10515,1095 10632,1095 10749,1095 10866,1095 10984,1095 11023,1095 11218,1095 11335,1095 11374,1095 11569,1095 11687,1095 11804,1095 11921,1095 12038,1095 12272,1095 12389,1095 12507,1095 12624,1095 12741,1095 12858,1095 12975,1095 13092,1095 13210,1095 13405,1095 13444,1095 13561,1095 13678,1095 13795,1095 14030,1095 14147,1095 14264,1095 14498,1095 14616,1095 14616,1733 14498,1714 14381,1708 14264,1697 14147,1725 14030,1766 13913,1752 13795,1712 13678,1642 13561,1673 13444,1678 13327,1689 13210,1797 13092,1659 12975,1641 12858,1629 12741,1593 12624,1563 12507,1494 12389,1546 12272,1466 12155,1484 12038,1463 11921,1504 11804,1530 11687,1525 11569,1507 11452,1520 11335,1528 11218,1454 11101,1580 10984,1623 10866,1477 10749,1515 10632,1497 10515,1461 10398,1501 10281,1452 10163,1479 10046,1448 9929,1430 9812,1437 9695,1445 9578,1442 9460,1447 9343,1400 9226,1398 9109,1367 8992,1354 8875,1475 8758,1395 8640,1350 8523,1334 8406,1329 8289,1318 8172,1311 8055,1284 7937,1411 7821,1273 7704,1270 7587,1291 7470,1323 7353,1288 7235,1320 7118,1301 7001,1284 6884,1221 6767,1241 6650,1274 6533,1337 6415,1281 6298,1274 6181,1256 6064,1242 5947,1240 5830,1255 5712,1245 5595,1228 5478,1253 5361,1227 5244,1217 5127,1226 5009,1215 4892,1228 4775,1203 4658,1201 4541,1227 4424,1187 4306,1181 4189,1173 4072,1190 3955,1174 3838,1192 3721,1206 3604,1189 3486,1192 3369,1172 3252,1158 3135,1172 3018,1151 2901,1152 2783,1148 2666,1147 2549,1150 2432,1150 2315,1151 2198,1153 2080,1160 1963,1153 1846,1148 1729,1144 1612,1146 1495,1156 1378,1153 1378,1095 Z"/>
 <text class="TextShape"><tspan class="TextParagraph" font-family="Liberation Sans, sans-serif" font-size="388px" font-weight="700"><tspan class="TextPosition" x="1188" y="11292"><tspan fill="rgb(0,0,0)" stroke="none">2008</tspan></tspan></tspan></text>
 <text class="TextShape"><tspan class="TextParagraph" font-family="Liberation Sans, sans-serif" font-size="388px" font-weight="700"><tspan class="TextPosition" x="2594" y="11292"><tspan fill="rgb(0,0,0)" stroke="none">2009</tspan></tspan></tspan></text>
 <text class="TextShape"><tspan class="TextParagraph" font-family="Liberation Sans, sans-serif" font-size="388px" font-weight="700"><tspan class="TextPosition" x="4000" y="11292"><tspan fill="rgb(0,0,0)" stroke="none">2010</tspan></tspan></tspan></text>
 <text class="TextShape"><tspan class="TextParagraph" font-family="Liberation Sans, sans-serif" font-size="388px" font-weight="700"><tspan class="TextPosition" x="5406" y="11292"><tspan fill="rgb(0,0,0)" stroke="none">2011</tspan></tspan></tspan></text>
 <text class="TextShape"><tspan class="TextParagraph" font-family="Liberation Sans, sans-serif" font-size="388px" font-weight="700"><tspan class="TextPosition" x="6811" y="11292"><tspan fill="rgb(0,0,0)" stroke="none">2012</tspan></tspan></tspan></text>
 <text class="TextShape"><tspan class="TextParagraph" font-family="Liberation Sans, sans-serif" font-size="388px" font-weight="700"><tspan class="TextPosition" x="8217" y="11292"><tspan fill="rgb(0,0,0)" stroke="none">2013</tspan></tspan></tspan></text>
 <text class="TextShape"><tspan class="TextParagraph" font-family="Liberation Sans, sans-serif" font-size="388px" font-weight="700"><tspan class="TextPosition" x="9623" y="11292"><tspan fill="rgb(0,0,0)" stroke="none">2014</tspan></tspan></tspan></text>
 <text class="TextShape"><tspan class="TextParagraph" font-family="Liberation Sans, sans-serif" font-size="388px" font-weight="700"><tspan class="TextPosition" x="11029" y="11292"><tspan fill="rgb(0,0,0)" stroke="none">2015</tspan></tspan></tspan></text>
 <text class="TextShape"><tspan class="TextParagraph" font-family="Liberation Sans, sans-serif" font-size="388px" font-weight="700"><tspan class="TextPosition" x="12435" y="11292"><tspan fill="rgb(0,0,0)" stroke="none">2016</tspan></tspan></tspan></text>
 <text class="TextShape"><tspan class="TextParagraph" font-family="Liberation Sans, sans-serif" font-size="388px" font-weight="700"><tspan class="TextPosition" x="13841" y="11292"><tspan fill="rgb(0,0,0)" stroke="none">2017</tspan></tspan></tspan></text>
 <text class="TextShape"><tspan class="TextParagraph" font-family="Liberation Sans, sans-serif" font-size="388px" font-weight="700"><tspan class="TextPosition" x="572" y="10832"><tspan fill="rgb(0,0,0)" stroke="none">0%</tspan></tspan></tspan></text>
 <text class="TextShape"><tspan class="TextParagraph" font-family="Liberation Sans, sans-serif" font-size="388px" font-weight="700"><tspan class="TextPosition" x="361" y="9871"><tspan fill="rgb(0,0,0)" stroke="none">10%</tspan></tspan></tspan></text>
 <text class="TextShape"><tspan class="TextParagraph" font-family="Liberation Sans, sans-serif" font-size="388px" font-weight="700"><tspan class="TextPosition" x="361" y="8911"><tspan fill="rgb(0,0,0)" stroke="none">20%</tspan></tspan></tspan></text>
 <text class="TextShape"><tspan class="TextParagraph" font-family="Liberation Sans, sans-serif" font-size="388px" font-weight="700"><tspan class="TextPosition" x="361" y="7950"><tspan fill="rgb(0,0,0)" stroke="none">30%</tspan></tspan></tspan></text>
 <text class="TextShape"><tspan class="TextParagraph" font-family="Liberation Sans, sans-serif" font-size="388px" font-weight="700"><tspan class="TextPosition" x="361" y="6990"><tspan fill="rgb(0,0,0)" stroke="none">40%</tspan></tspan></tspan></text>
 <text class="TextShape"><tspan class="TextParagraph" font-family="Liberation Sans, sans-serif" font-size="388px" font-weight="700"><tspan class="TextPosition" x="361" y="6030"><tspan fill="rgb(0,0,0)" stroke="none">50%</tspan></tspan></tspan></text>
 <text class="TextShape"><tspan class="TextParagraph" font-family="Liberation Sans, sans-serif" font-size="388px" font-weight="700"><tspan class="TextPosition" x="361" y="5069"><tspan fill="rgb(0,0,0)" stroke="none">60%</tspan></tspan></tspan></text>
 <text class="TextShape"><tspan class="TextParagraph" font-family="Liberation Sans, sans-serif" font-size="388px" font-weight="700"><tspan class="TextPosition" x="361" y="4109"><tspan fill="rgb(0,0,0)" stroke="none">70%</tspan></tspan></tspan></text>
 <text class="TextShape"><tspan class="TextParagraph" font-family="Liberation Sans, sans-serif" font-size="388px" font-weight="700"><tspan class="TextPosition" x="361" y="3148"><tspan fill="rgb(0,0,0)" stroke="none">80%</tspan></tspan></tspan></text>
 <text class="TextShape"><tspan class="TextParagraph" font-family="Liberation Sans, sans-serif" font-size="388px" font-weight="700"><tspan class="TextPosition" x="361" y="2188"><tspan fill="rgb(0,0,0)" stroke="none">90%</tspan></tspan></tspan></text>
 <text class="TextShape"><tspan class="TextParagraph" font-family="Liberation Sans, sans-serif" font-size="388px" font-weight="700"><tspan class="TextPosition" x="149" y="1228"><tspan fill="rgb(0,0,0)" stroke="none">100%</tspan></tspan></tspan></text>
 <text class="TextShape"><tspan class="TextParagraph" font-family="Liberation Sans, sans-serif" font-size="388px" font-weight="700"><tspan class="TextPosition" x="14866" y="10832"><tspan fill="rgb(0,0,0)" stroke="none">0%</tspan></tspan></tspan></text>
 <text class="TextShape"><tspan class="TextParagraph" font-family="Liberation Sans, sans-serif" font-size="388px" font-weight="700"><tspan class="TextPosition" x="14866" y="9871"><tspan fill="rgb(0,0,0)" stroke="none">10%</tspan></tspan></tspan></text>
 <text class="TextShape"><tspan class="TextParagraph" font-family="Liberation Sans, sans-serif" font-size="388px" font-weight="700"><tspan class="TextPosition" x="14866" y="8911"><tspan fill="rgb(0,0,0)" stroke="none">20%</tspan></tspan></tspan></text>
 <text class="TextShape"><tspan class="TextParagraph" font-family="Liberation Sans, sans-serif" font-size="388px" font-weight="700"><tspan class="TextPosition" x="14866" y="7950"><tspan fill="rgb(0,0,0)" stroke="none">30%</tspan></tspan></tspan></text>
 <text class="TextShape"><tspan class="TextParagraph" font-family="Liberation Sans, sans-serif" font-size="388px" font-weight="700"><tspan class="TextPosition" x="14866" y="6990"><tspan fill="rgb(0,0,0)" stroke="none">40%</tspan></tspan></tspan></text>
 <text class="TextShape"><tspan class="TextParagraph" font-family="Liberation Sans, sans-serif" font-size="388px" font-weight="700"><tspan class="TextPosition" x="14866" y="6030"><tspan fill="rgb(0,0,0)" stroke="none">50%</tspan></tspan></tspan></text>
 <text class="TextShape"><tspan class="TextParagraph" font-family="Liberation Sans, sans-serif" font-size="388px" font-weight="700"><tspan class="TextPosition" x="14866" y="5069"><tspan fill="rgb(0,0,0)" stroke="none">60%</tspan></tspan></tspan></text>
 <text class="TextShape"><tspan class="TextParagraph" font-family="Liberation Sans, sans-serif" font-size="388px" font-weight="700"><tspan class="TextPosition" x="14866" y="4109"><tspan fill="rgb(0,0,0)" stroke="none">70%</tspan></tspan></tspan></text>
 <text class="TextShape"><tspan class="TextParagraph" font-family="Liberation Sans, sans-serif" font-size="388px" font-weight="700"><tspan class="TextPosition" x="14866" y="3148"><tspan fill="rgb(0,0,0)" stroke="none">80%</tspan></tspan></tspan></text>
 <text class="TextShape"><tspan class="TextParagraph" font-family="Liberation Sans, sans-serif" font-size="388px" font-weight="700"><tspan class="TextPosition" x="14866" y="2188"><tspan fill="rgb(0,0,0)" stroke="none">90%</tspan></tspan></tspan></text>
 <text class="TextShape"><tspan class="TextParagraph" font-family="Liberation Sans, sans-serif" font-size="388px" font-weight="700"><tspan class="TextPosition" x="14866" y="1228"><tspan fill="rgb(0,0,0)" stroke="none">100%</tspan></tspan></tspan></text>
 <text class="TextShape"><tspan class="TextParagraph" font-family="Arial, sans-serif" font-size="635px" font-weight="400"><tspan class="TextPosition" x="4311" y="759"><tspan fill="rgb(0,0,0)" stroke="none">Utilizacin de navegadores</tspan></tspan></tspan></text>
 <path fill="rgb(255,211,32)" stroke="none" d="M 10799,11722 L 10693,11722 10693,11511 10904,11511 10904,11722 10799,11722 Z"/>
 <path fill="none" stroke="rgb(0,0,0)" stroke-linejoin="round" d="M 10799,11722 L 10693,11722 10693,11511 10904,11511 10904,11722 10799,11722 Z"/>
 <path fill="rgb(0,69,134)" stroke="none" d="M 9892,11722 L 9786,11722 9786,11511 9997,11511 9997,11722 9892,11722 Z"/>
 <path fill="none" stroke="rgb(0,0,0)" stroke-linejoin="round" d="M 9892,11722 L 9786,11722 9786,11511 9997,11511 9997,11722 9892,11722 Z"/>
 <path fill="rgb(87,157,28)" stroke="none" d="M 8376,11722 L 8270,11722 8270,11511 8481,11511 8481,11722 8376,11722 Z"/>
 <path fill="none" stroke="rgb(0,0,0)" stroke-linejoin="round" d="M 8376,11722 L 8270,11722 8270,11511 8481,11511 8481,11722 8376,11722 Z"/>
 <path fill="rgb(255,66,14)" stroke="none" d="M 6675,11722 L 6570,11722 6570,11511 6781,11511 6781,11722 6675,11722 Z"/>
 <path fill="none" stroke="rgb(0,0,0)" stroke-linejoin="round" d="M 6675,11722 L 6570,11722 6570,11511 6781,11511 6781,11722 6675,11722 Z"/>
 <path fill="rgb(126,0,33)" stroke="none" d="M 5133,11722 L 5028,11722 5028,11511 5239,11511 5239,11722 5133,11722 Z"/>
 <path fill="none" stroke="rgb(0,0,0)" stroke-linejoin="round" d="M 5133,11722 L 5028,11722 5028,11511 5239,11511 5239,11722 5133,11722 Z"/>
 <path fill="rgb(131,202,255)" stroke="none" d="M 3670,11722 L 3565,11722 3565,11511 3776,11511 3776,11722 3670,11722 Z"/>
 <path fill="none" stroke="rgb(0,0,0)" stroke-linejoin="round" d="M 3670,11722 L 3565,11722 3565,11511 3776,11511 3776,11722 3670,11722 Z"/>
 <text class="TextShape"><tspan class="TextParagraph" font-family="Arial, sans-serif" font-size="353px" font-weight="700"><tspan class="TextPosition" x="3876" y="11735"><tspan fill="rgb(0,0,0)" stroke="none">Otros</tspan></tspan></tspan></text>
 <text class="TextShape"><tspan class="TextParagraph" font-family="Arial, sans-serif" font-size="353px" font-weight="700"><tspan class="TextPosition" x="5339" y="11735"><tspan fill="rgb(0,0,0)" stroke="none">Opera</tspan></tspan></tspan></text>
 <text class="TextShape"><tspan class="TextParagraph" font-family="Arial, sans-serif" font-size="353px" font-weight="700"><tspan class="TextPosition" x="6881" y="11735"><tspan fill="rgb(0,0,0)" stroke="none">Firefox</tspan></tspan></tspan></text>
 <text class="TextShape"><tspan class="TextParagraph" font-family="Arial, sans-serif" font-size="353px" font-weight="700"><tspan class="TextPosition" x="8581" y="11735"><tspan fill="rgb(0,0,0)" stroke="none">Safari</tspan></tspan></tspan></text>
 <text class="TextShape"><tspan class="TextParagraph" font-family="Arial, sans-serif" font-size="353px" font-weight="700"><tspan class="TextPosition" x="10097" y="11735"><tspan fill="rgb(0,0,0)" stroke="none">IE</tspan></tspan></tspan></text>
 <text class="TextShape"><tspan class="TextParagraph" font-family="Arial, sans-serif" font-size="353px" font-weight="700"><tspan class="TextPosition" x="11004" y="11735"><tspan fill="rgb(0,0,0)" stroke="none">Chrome</tspan></tspan></tspan></text>
</svg>
