<?xml version="1.0" encoding="UTF-8"?>
<!DOCTYPE svg PUBLIC "-//W3C//DTD SVG 1.1//EN" "http://www.w3.org/Graphics/SVG/1.1/DTD/svg11.dtd">
<svg width="159mm" height="119mm" viewBox="0 0 15900 11900" version="1.1" xmlns="http://www.w3.org/2000/svg" stroke-width="28.222" stroke-linejoin="round" xml:space="preserve">
 <path fill="rgb(255,255,255)" stroke="none" d="M 7925,11930 L 0,11930 0,0 15850,0 15850,11930 7925,11930 Z"/>
 <path fill="none" stroke="rgb(0,0,0)" stroke-width="50" stroke-linejoin="round" d="M 7985,10699 L 1366,10699 1366,1096 14604,1096 14604,10699 7985,10699 Z"/>
 <path fill="none" stroke="rgb(179,179,179)" stroke-linejoin="round" d="M 14604,10698 L 1366,10698"/>
 <path fill="none" stroke="rgb(179,179,179)" stroke-linejoin="round" d="M 14604,9737 L 1366,9737"/>
 <path fill="none" stroke="rgb(179,179,179)" stroke-linejoin="round" d="M 14604,8777 L 1366,8777"/>
 <path fill="none" stroke="rgb(179,179,179)" stroke-linejoin="round" d="M 14604,7816 L 1366,7816"/>
 <path fill="none" stroke="rgb(179,179,179)" stroke-linejoin="round" d="M 14604,6856 L 1366,6856"/>
 <path fill="none" stroke="rgb(179,179,179)" stroke-linejoin="round" d="M 14604,5897 L 1366,5897"/>
 <path fill="none" stroke="rgb(179,179,179)" stroke-linejoin="round" d="M 14604,4936 L 1366,4936"/>
 <path fill="none" stroke="rgb(179,179,179)" stroke-linejoin="round" d="M 14604,3976 L 1366,3976"/>
 <path fill="none" stroke="rgb(179,179,179)" stroke-linejoin="round" d="M 14604,3015 L 1366,3015"/>
 <path fill="none" stroke="rgb(179,179,179)" stroke-linejoin="round" d="M 14604,2055 L 1366,2055"/>
 <path fill="none" stroke="rgb(179,179,179)" stroke-linejoin="round" d="M 14604,1095 L 1366,1095"/>
 <path fill="none" stroke="rgb(0,0,0)" stroke-width="30" stroke-linejoin="round" d="M 1366,10848 L 1366,10698"/>
 <path fill="none" stroke="rgb(0,0,0)" stroke-width="30" stroke-linejoin="round" d="M 1366,10848 L 1366,10698"/>
 <path fill="none" stroke="rgb(0,0,0)" stroke-width="30" stroke-linejoin="round" d="M 1484,10848 L 1484,10698"/>
 <path fill="none" stroke="rgb(0,0,0)" stroke-width="30" stroke-linejoin="round" d="M 1484,10848 L 1484,10698"/>
 <path fill="none" stroke="rgb(0,0,0)" stroke-width="30" stroke-linejoin="round" d="M 1602,10848 L 1602,10698"/>
 <path fill="none" stroke="rgb(0,0,0)" stroke-width="30" stroke-linejoin="round" d="M 1602,10848 L 1602,10698"/>
 <path fill="none" stroke="rgb(0,0,0)" stroke-width="30" stroke-linejoin="round" d="M 1720,10848 L 1720,10698"/>
 <path fill="none" stroke="rgb(0,0,0)" stroke-width="30" stroke-linejoin="round" d="M 1720,10848 L 1720,10698"/>
 <path fill="none" stroke="rgb(0,0,0)" stroke-width="30" stroke-linejoin="round" d="M 1838,10848 L 1838,10698"/>
 <path fill="none" stroke="rgb(0,0,0)" stroke-width="30" stroke-linejoin="round" d="M 1838,10848 L 1838,10698"/>
 <path fill="none" stroke="rgb(0,0,0)" stroke-width="30" stroke-linejoin="round" d="M 1957,10848 L 1957,10698"/>
 <path fill="none" stroke="rgb(0,0,0)" stroke-width="30" stroke-linejoin="round" d="M 1957,10848 L 1957,10698"/>
 <path fill="none" stroke="rgb(0,0,0)" stroke-width="30" stroke-linejoin="round" d="M 2075,10848 L 2075,10698"/>
 <path fill="none" stroke="rgb(0,0,0)" stroke-width="30" stroke-linejoin="round" d="M 2075,10848 L 2075,10698"/>
 <path fill="none" stroke="rgb(0,0,0)" stroke-width="30" stroke-linejoin="round" d="M 2193,10848 L 2193,10698"/>
 <path fill="none" stroke="rgb(0,0,0)" stroke-width="30" stroke-linejoin="round" d="M 2193,10848 L 2193,10698"/>
 <path fill="none" stroke="rgb(0,0,0)" stroke-width="30" stroke-linejoin="round" d="M 2311,10848 L 2311,10698"/>
 <path fill="none" stroke="rgb(0,0,0)" stroke-width="30" stroke-linejoin="round" d="M 2311,10848 L 2311,10698"/>
 <path fill="none" stroke="rgb(0,0,0)" stroke-width="30" stroke-linejoin="round" d="M 2429,10848 L 2429,10698"/>
 <path fill="none" stroke="rgb(0,0,0)" stroke-width="30" stroke-linejoin="round" d="M 2429,10848 L 2429,10698"/>
 <path fill="none" stroke="rgb(0,0,0)" stroke-width="30" stroke-linejoin="round" d="M 2548,10848 L 2548,10698"/>
 <path fill="none" stroke="rgb(0,0,0)" stroke-width="30" stroke-linejoin="round" d="M 2548,10848 L 2548,10698"/>
 <path fill="none" stroke="rgb(0,0,0)" stroke-width="30" stroke-linejoin="round" d="M 2666,10848 L 2666,10698"/>
 <path fill="none" stroke="rgb(0,0,0)" stroke-width="30" stroke-linejoin="round" d="M 2666,10848 L 2666,10698"/>
 <path fill="none" stroke="rgb(0,0,0)" stroke-width="30" stroke-linejoin="round" d="M 2784,10848 L 2784,10698"/>
 <path fill="none" stroke="rgb(0,0,0)" stroke-width="30" stroke-linejoin="round" d="M 2784,10848 L 2784,10698"/>
 <path fill="none" stroke="rgb(0,0,0)" stroke-width="30" stroke-linejoin="round" d="M 2902,10848 L 2902,10698"/>
 <path fill="none" stroke="rgb(0,0,0)" stroke-width="30" stroke-linejoin="round" d="M 2902,10848 L 2902,10698"/>
 <path fill="none" stroke="rgb(0,0,0)" stroke-width="30" stroke-linejoin="round" d="M 3020,10848 L 3020,10698"/>
 <path fill="none" stroke="rgb(0,0,0)" stroke-width="30" stroke-linejoin="round" d="M 3020,10848 L 3020,10698"/>
 <path fill="none" stroke="rgb(0,0,0)" stroke-width="30" stroke-linejoin="round" d="M 3139,10848 L 3139,10698"/>
 <path fill="none" stroke="rgb(0,0,0)" stroke-width="30" stroke-linejoin="round" d="M 3139,10848 L 3139,10698"/>
 <path fill="none" stroke="rgb(0,0,0)" stroke-width="30" stroke-linejoin="round" d="M 3257,10848 L 3257,10698"/>
 <path fill="none" stroke="rgb(0,0,0)" stroke-width="30" stroke-linejoin="round" d="M 3257,10848 L 3257,10698"/>
 <path fill="none" stroke="rgb(0,0,0)" stroke-width="30" stroke-linejoin="round" d="M 3375,10848 L 3375,10698"/>
 <path fill="none" stroke="rgb(0,0,0)" stroke-width="30" stroke-linejoin="round" d="M 3375,10848 L 3375,10698"/>
 <path fill="none" stroke="rgb(0,0,0)" stroke-width="30" stroke-linejoin="round" d="M 3493,10848 L 3493,10698"/>
 <path fill="none" stroke="rgb(0,0,0)" stroke-width="30" stroke-linejoin="round" d="M 3493,10848 L 3493,10698"/>
 <path fill="none" stroke="rgb(0,0,0)" stroke-width="30" stroke-linejoin="round" d="M 3611,10848 L 3611,10698"/>
 <path fill="none" stroke="rgb(0,0,0)" stroke-width="30" stroke-linejoin="round" d="M 3611,10848 L 3611,10698"/>
 <path fill="none" stroke="rgb(0,0,0)" stroke-width="30" stroke-linejoin="round" d="M 3730,10848 L 3730,10698"/>
 <path fill="none" stroke="rgb(0,0,0)" stroke-width="30" stroke-linejoin="round" d="M 3730,10848 L 3730,10698"/>
 <path fill="none" stroke="rgb(0,0,0)" stroke-width="30" stroke-linejoin="round" d="M 3848,10848 L 3848,10698"/>
 <path fill="none" stroke="rgb(0,0,0)" stroke-width="30" stroke-linejoin="round" d="M 3848,10848 L 3848,10698"/>
 <path fill="none" stroke="rgb(0,0,0)" stroke-width="30" stroke-linejoin="round" d="M 3966,10848 L 3966,10698"/>
 <path fill="none" stroke="rgb(0,0,0)" stroke-width="30" stroke-linejoin="round" d="M 3966,10848 L 3966,10698"/>
 <path fill="none" stroke="rgb(0,0,0)" stroke-width="30" stroke-linejoin="round" d="M 4084,10848 L 4084,10698"/>
 <path fill="none" stroke="rgb(0,0,0)" stroke-width="30" stroke-linejoin="round" d="M 4084,10848 L 4084,10698"/>
 <path fill="none" stroke="rgb(0,0,0)" stroke-width="30" stroke-linejoin="round" d="M 4202,10848 L 4202,10698"/>
 <path fill="none" stroke="rgb(0,0,0)" stroke-width="30" stroke-linejoin="round" d="M 4202,10848 L 4202,10698"/>
 <path fill="none" stroke="rgb(0,0,0)" stroke-width="30" stroke-linejoin="round" d="M 4321,10848 L 4321,10698"/>
 <path fill="none" stroke="rgb(0,0,0)" stroke-width="30" stroke-linejoin="round" d="M 4321,10848 L 4321,10698"/>
 <path fill="none" stroke="rgb(0,0,0)" stroke-width="30" stroke-linejoin="round" d="M 4439,10848 L 4439,10698"/>
 <path fill="none" stroke="rgb(0,0,0)" stroke-width="30" stroke-linejoin="round" d="M 4439,10848 L 4439,10698"/>
 <path fill="none" stroke="rgb(0,0,0)" stroke-width="30" stroke-linejoin="round" d="M 4557,10848 L 4557,10698"/>
 <path fill="none" stroke="rgb(0,0,0)" stroke-width="30" stroke-linejoin="round" d="M 4557,10848 L 4557,10698"/>
 <path fill="none" stroke="rgb(0,0,0)" stroke-width="30" stroke-linejoin="round" d="M 4675,10848 L 4675,10698"/>
 <path fill="none" stroke="rgb(0,0,0)" stroke-width="30" stroke-linejoin="round" d="M 4675,10848 L 4675,10698"/>
 <path fill="none" stroke="rgb(0,0,0)" stroke-width="30" stroke-linejoin="round" d="M 4793,10848 L 4793,10698"/>
 <path fill="none" stroke="rgb(0,0,0)" stroke-width="30" stroke-linejoin="round" d="M 4793,10848 L 4793,10698"/>
 <path fill="none" stroke="rgb(0,0,0)" stroke-width="30" stroke-linejoin="round" d="M 4912,10848 L 4912,10698"/>
 <path fill="none" stroke="rgb(0,0,0)" stroke-width="30" stroke-linejoin="round" d="M 4912,10848 L 4912,10698"/>
 <path fill="none" stroke="rgb(0,0,0)" stroke-width="30" stroke-linejoin="round" d="M 5030,10848 L 5030,10698"/>
 <path fill="none" stroke="rgb(0,0,0)" stroke-width="30" stroke-linejoin="round" d="M 5030,10848 L 5030,10698"/>
 <path fill="none" stroke="rgb(0,0,0)" stroke-width="30" stroke-linejoin="round" d="M 5148,10848 L 5148,10698"/>
 <path fill="none" stroke="rgb(0,0,0)" stroke-width="30" stroke-linejoin="round" d="M 5148,10848 L 5148,10698"/>
 <path fill="none" stroke="rgb(0,0,0)" stroke-width="30" stroke-linejoin="round" d="M 5266,10848 L 5266,10698"/>
 <path fill="none" stroke="rgb(0,0,0)" stroke-width="30" stroke-linejoin="round" d="M 5266,10848 L 5266,10698"/>
 <path fill="none" stroke="rgb(0,0,0)" stroke-width="30" stroke-linejoin="round" d="M 5384,10848 L 5384,10698"/>
 <path fill="none" stroke="rgb(0,0,0)" stroke-width="30" stroke-linejoin="round" d="M 5384,10848 L 5384,10698"/>
 <path fill="none" stroke="rgb(0,0,0)" stroke-width="30" stroke-linejoin="round" d="M 5503,10848 L 5503,10698"/>
 <path fill="none" stroke="rgb(0,0,0)" stroke-width="30" stroke-linejoin="round" d="M 5503,10848 L 5503,10698"/>
 <path fill="none" stroke="rgb(0,0,0)" stroke-width="30" stroke-linejoin="round" d="M 5621,10848 L 5621,10698"/>
 <path fill="none" stroke="rgb(0,0,0)" stroke-width="30" stroke-linejoin="round" d="M 5621,10848 L 5621,10698"/>
 <path fill="none" stroke="rgb(0,0,0)" stroke-width="30" stroke-linejoin="round" d="M 5739,10848 L 5739,10698"/>
 <path fill="none" stroke="rgb(0,0,0)" stroke-width="30" stroke-linejoin="round" d="M 5739,10848 L 5739,10698"/>
 <path fill="none" stroke="rgb(0,0,0)" stroke-width="30" stroke-linejoin="round" d="M 5857,10848 L 5857,10698"/>
 <path fill="none" stroke="rgb(0,0,0)" stroke-width="30" stroke-linejoin="round" d="M 5857,10848 L 5857,10698"/>
 <path fill="none" stroke="rgb(0,0,0)" stroke-width="30" stroke-linejoin="round" d="M 5976,10848 L 5976,10698"/>
 <path fill="none" stroke="rgb(0,0,0)" stroke-width="30" stroke-linejoin="round" d="M 5976,10848 L 5976,10698"/>
 <path fill="none" stroke="rgb(0,0,0)" stroke-width="30" stroke-linejoin="round" d="M 6094,10848 L 6094,10698"/>
 <path fill="none" stroke="rgb(0,0,0)" stroke-width="30" stroke-linejoin="round" d="M 6094,10848 L 6094,10698"/>
 <path fill="none" stroke="rgb(0,0,0)" stroke-width="30" stroke-linejoin="round" d="M 6212,10848 L 6212,10698"/>
 <path fill="none" stroke="rgb(0,0,0)" stroke-width="30" stroke-linejoin="round" d="M 6212,10848 L 6212,10698"/>
 <path fill="none" stroke="rgb(0,0,0)" stroke-width="30" stroke-linejoin="round" d="M 6330,10848 L 6330,10698"/>
 <path fill="none" stroke="rgb(0,0,0)" stroke-width="30" stroke-linejoin="round" d="M 6330,10848 L 6330,10698"/>
 <path fill="none" stroke="rgb(0,0,0)" stroke-width="30" stroke-linejoin="round" d="M 6448,10848 L 6448,10698"/>
 <path fill="none" stroke="rgb(0,0,0)" stroke-width="30" stroke-linejoin="round" d="M 6448,10848 L 6448,10698"/>
 <path fill="none" stroke="rgb(0,0,0)" stroke-width="30" stroke-linejoin="round" d="M 6567,10848 L 6567,10698"/>
 <path fill="none" stroke="rgb(0,0,0)" stroke-width="30" stroke-linejoin="round" d="M 6567,10848 L 6567,10698"/>
 <path fill="none" stroke="rgb(0,0,0)" stroke-width="30" stroke-linejoin="round" d="M 6685,10848 L 6685,10698"/>
 <path fill="none" stroke="rgb(0,0,0)" stroke-width="30" stroke-linejoin="round" d="M 6685,10848 L 6685,10698"/>
 <path fill="none" stroke="rgb(0,0,0)" stroke-width="30" stroke-linejoin="round" d="M 6803,10848 L 6803,10698"/>
 <path fill="none" stroke="rgb(0,0,0)" stroke-width="30" stroke-linejoin="round" d="M 6803,10848 L 6803,10698"/>
 <path fill="none" stroke="rgb(0,0,0)" stroke-width="30" stroke-linejoin="round" d="M 6921,10848 L 6921,10698"/>
 <path fill="none" stroke="rgb(0,0,0)" stroke-width="30" stroke-linejoin="round" d="M 6921,10848 L 6921,10698"/>
 <path fill="none" stroke="rgb(0,0,0)" stroke-width="30" stroke-linejoin="round" d="M 7039,10848 L 7039,10698"/>
 <path fill="none" stroke="rgb(0,0,0)" stroke-width="30" stroke-linejoin="round" d="M 7039,10848 L 7039,10698"/>
 <path fill="none" stroke="rgb(0,0,0)" stroke-width="30" stroke-linejoin="round" d="M 7158,10848 L 7158,10698"/>
 <path fill="none" stroke="rgb(0,0,0)" stroke-width="30" stroke-linejoin="round" d="M 7158,10848 L 7158,10698"/>
 <path fill="none" stroke="rgb(0,0,0)" stroke-width="30" stroke-linejoin="round" d="M 7276,10848 L 7276,10698"/>
 <path fill="none" stroke="rgb(0,0,0)" stroke-width="30" stroke-linejoin="round" d="M 7276,10848 L 7276,10698"/>
 <path fill="none" stroke="rgb(0,0,0)" stroke-width="30" stroke-linejoin="round" d="M 7394,10848 L 7394,10698"/>
 <path fill="none" stroke="rgb(0,0,0)" stroke-width="30" stroke-linejoin="round" d="M 7394,10848 L 7394,10698"/>
 <path fill="none" stroke="rgb(0,0,0)" stroke-width="30" stroke-linejoin="round" d="M 7512,10848 L 7512,10698"/>
 <path fill="none" stroke="rgb(0,0,0)" stroke-width="30" stroke-linejoin="round" d="M 7512,10848 L 7512,10698"/>
 <path fill="none" stroke="rgb(0,0,0)" stroke-width="30" stroke-linejoin="round" d="M 7630,10848 L 7630,10698"/>
 <path fill="none" stroke="rgb(0,0,0)" stroke-width="30" stroke-linejoin="round" d="M 7630,10848 L 7630,10698"/>
 <path fill="none" stroke="rgb(0,0,0)" stroke-width="30" stroke-linejoin="round" d="M 7749,10848 L 7749,10698"/>
 <path fill="none" stroke="rgb(0,0,0)" stroke-width="30" stroke-linejoin="round" d="M 7749,10848 L 7749,10698"/>
 <path fill="none" stroke="rgb(0,0,0)" stroke-width="30" stroke-linejoin="round" d="M 7867,10848 L 7867,10698"/>
 <path fill="none" stroke="rgb(0,0,0)" stroke-width="30" stroke-linejoin="round" d="M 7867,10848 L 7867,10698"/>
 <path fill="none" stroke="rgb(0,0,0)" stroke-width="30" stroke-linejoin="round" d="M 7984,10848 L 7984,10698"/>
 <path fill="none" stroke="rgb(0,0,0)" stroke-width="30" stroke-linejoin="round" d="M 7984,10848 L 7984,10698"/>
 <path fill="none" stroke="rgb(0,0,0)" stroke-width="30" stroke-linejoin="round" d="M 8102,10848 L 8102,10698"/>
 <path fill="none" stroke="rgb(0,0,0)" stroke-width="30" stroke-linejoin="round" d="M 8102,10848 L 8102,10698"/>
 <path fill="none" stroke="rgb(0,0,0)" stroke-width="30" stroke-linejoin="round" d="M 8220,10848 L 8220,10698"/>
 <path fill="none" stroke="rgb(0,0,0)" stroke-width="30" stroke-linejoin="round" d="M 8220,10848 L 8220,10698"/>
 <path fill="none" stroke="rgb(0,0,0)" stroke-width="30" stroke-linejoin="round" d="M 8339,10848 L 8339,10698"/>
 <path fill="none" stroke="rgb(0,0,0)" stroke-width="30" stroke-linejoin="round" d="M 8339,10848 L 8339,10698"/>
 <path fill="none" stroke="rgb(0,0,0)" stroke-width="30" stroke-linejoin="round" d="M 8457,10848 L 8457,10698"/>
 <path fill="none" stroke="rgb(0,0,0)" stroke-width="30" stroke-linejoin="round" d="M 8457,10848 L 8457,10698"/>
 <path fill="none" stroke="rgb(0,0,0)" stroke-width="30" stroke-linejoin="round" d="M 8575,10848 L 8575,10698"/>
 <path fill="none" stroke="rgb(0,0,0)" stroke-width="30" stroke-linejoin="round" d="M 8575,10848 L 8575,10698"/>
 <path fill="none" stroke="rgb(0,0,0)" stroke-width="30" stroke-linejoin="round" d="M 8693,10848 L 8693,10698"/>
 <path fill="none" stroke="rgb(0,0,0)" stroke-width="30" stroke-linejoin="round" d="M 8693,10848 L 8693,10698"/>
 <path fill="none" stroke="rgb(0,0,0)" stroke-width="30" stroke-linejoin="round" d="M 8811,10848 L 8811,10698"/>
 <path fill="none" stroke="rgb(0,0,0)" stroke-width="30" stroke-linejoin="round" d="M 8811,10848 L 8811,10698"/>
 <path fill="none" stroke="rgb(0,0,0)" stroke-width="30" stroke-linejoin="round" d="M 8930,10848 L 8930,10698"/>
 <path fill="none" stroke="rgb(0,0,0)" stroke-width="30" stroke-linejoin="round" d="M 8930,10848 L 8930,10698"/>
 <path fill="none" stroke="rgb(0,0,0)" stroke-width="30" stroke-linejoin="round" d="M 9048,10848 L 9048,10698"/>
 <path fill="none" stroke="rgb(0,0,0)" stroke-width="30" stroke-linejoin="round" d="M 9048,10848 L 9048,10698"/>
 <path fill="none" stroke="rgb(0,0,0)" stroke-width="30" stroke-linejoin="round" d="M 9166,10848 L 9166,10698"/>
 <path fill="none" stroke="rgb(0,0,0)" stroke-width="30" stroke-linejoin="round" d="M 9166,10848 L 9166,10698"/>
 <path fill="none" stroke="rgb(0,0,0)" stroke-width="30" stroke-linejoin="round" d="M 9284,10848 L 9284,10698"/>
 <path fill="none" stroke="rgb(0,0,0)" stroke-width="30" stroke-linejoin="round" d="M 9284,10848 L 9284,10698"/>
 <path fill="none" stroke="rgb(0,0,0)" stroke-width="30" stroke-linejoin="round" d="M 9402,10848 L 9402,10698"/>
 <path fill="none" stroke="rgb(0,0,0)" stroke-width="30" stroke-linejoin="round" d="M 9402,10848 L 9402,10698"/>
 <path fill="none" stroke="rgb(0,0,0)" stroke-width="30" stroke-linejoin="round" d="M 9521,10848 L 9521,10698"/>
 <path fill="none" stroke="rgb(0,0,0)" stroke-width="30" stroke-linejoin="round" d="M 9521,10848 L 9521,10698"/>
 <path fill="none" stroke="rgb(0,0,0)" stroke-width="30" stroke-linejoin="round" d="M 9639,10848 L 9639,10698"/>
 <path fill="none" stroke="rgb(0,0,0)" stroke-width="30" stroke-linejoin="round" d="M 9639,10848 L 9639,10698"/>
 <path fill="none" stroke="rgb(0,0,0)" stroke-width="30" stroke-linejoin="round" d="M 9757,10848 L 9757,10698"/>
 <path fill="none" stroke="rgb(0,0,0)" stroke-width="30" stroke-linejoin="round" d="M 9757,10848 L 9757,10698"/>
 <path fill="none" stroke="rgb(0,0,0)" stroke-width="30" stroke-linejoin="round" d="M 9875,10848 L 9875,10698"/>
 <path fill="none" stroke="rgb(0,0,0)" stroke-width="30" stroke-linejoin="round" d="M 9875,10848 L 9875,10698"/>
 <path fill="none" stroke="rgb(0,0,0)" stroke-width="30" stroke-linejoin="round" d="M 9993,10848 L 9993,10698"/>
 <path fill="none" stroke="rgb(0,0,0)" stroke-width="30" stroke-linejoin="round" d="M 9993,10848 L 9993,10698"/>
 <path fill="none" stroke="rgb(0,0,0)" stroke-width="30" stroke-linejoin="round" d="M 10112,10848 L 10112,10698"/>
 <path fill="none" stroke="rgb(0,0,0)" stroke-width="30" stroke-linejoin="round" d="M 10112,10848 L 10112,10698"/>
 <path fill="none" stroke="rgb(0,0,0)" stroke-width="30" stroke-linejoin="round" d="M 10230,10848 L 10230,10698"/>
 <path fill="none" stroke="rgb(0,0,0)" stroke-width="30" stroke-linejoin="round" d="M 10230,10848 L 10230,10698"/>
 <path fill="none" stroke="rgb(0,0,0)" stroke-width="30" stroke-linejoin="round" d="M 10348,10848 L 10348,10698"/>
 <path fill="none" stroke="rgb(0,0,0)" stroke-width="30" stroke-linejoin="round" d="M 10348,10848 L 10348,10698"/>
 <path fill="none" stroke="rgb(0,0,0)" stroke-width="30" stroke-linejoin="round" d="M 10466,10848 L 10466,10698"/>
 <path fill="none" stroke="rgb(0,0,0)" stroke-width="30" stroke-linejoin="round" d="M 10466,10848 L 10466,10698"/>
 <path fill="none" stroke="rgb(0,0,0)" stroke-width="30" stroke-linejoin="round" d="M 10585,10848 L 10585,10698"/>
 <path fill="none" stroke="rgb(0,0,0)" stroke-width="30" stroke-linejoin="round" d="M 10585,10848 L 10585,10698"/>
 <path fill="none" stroke="rgb(0,0,0)" stroke-width="30" stroke-linejoin="round" d="M 10703,10848 L 10703,10698"/>
 <path fill="none" stroke="rgb(0,0,0)" stroke-width="30" stroke-linejoin="round" d="M 10703,10848 L 10703,10698"/>
 <path fill="none" stroke="rgb(0,0,0)" stroke-width="30" stroke-linejoin="round" d="M 10821,10848 L 10821,10698"/>
 <path fill="none" stroke="rgb(0,0,0)" stroke-width="30" stroke-linejoin="round" d="M 10821,10848 L 10821,10698"/>
 <path fill="none" stroke="rgb(0,0,0)" stroke-width="30" stroke-linejoin="round" d="M 10939,10848 L 10939,10698"/>
 <path fill="none" stroke="rgb(0,0,0)" stroke-width="30" stroke-linejoin="round" d="M 10939,10848 L 10939,10698"/>
 <path fill="none" stroke="rgb(0,0,0)" stroke-width="30" stroke-linejoin="round" d="M 11057,10848 L 11057,10698"/>
 <path fill="none" stroke="rgb(0,0,0)" stroke-width="30" stroke-linejoin="round" d="M 11057,10848 L 11057,10698"/>
 <path fill="none" stroke="rgb(0,0,0)" stroke-width="30" stroke-linejoin="round" d="M 11176,10848 L 11176,10698"/>
 <path fill="none" stroke="rgb(0,0,0)" stroke-width="30" stroke-linejoin="round" d="M 11176,10848 L 11176,10698"/>
 <path fill="none" stroke="rgb(0,0,0)" stroke-width="30" stroke-linejoin="round" d="M 11294,10848 L 11294,10698"/>
 <path fill="none" stroke="rgb(0,0,0)" stroke-width="30" stroke-linejoin="round" d="M 11294,10848 L 11294,10698"/>
 <path fill="none" stroke="rgb(0,0,0)" stroke-width="30" stroke-linejoin="round" d="M 11412,10848 L 11412,10698"/>
 <path fill="none" stroke="rgb(0,0,0)" stroke-width="30" stroke-linejoin="round" d="M 11412,10848 L 11412,10698"/>
 <path fill="none" stroke="rgb(0,0,0)" stroke-width="30" stroke-linejoin="round" d="M 11530,10848 L 11530,10698"/>
 <path fill="none" stroke="rgb(0,0,0)" stroke-width="30" stroke-linejoin="round" d="M 11530,10848 L 11530,10698"/>
 <path fill="none" stroke="rgb(0,0,0)" stroke-width="30" stroke-linejoin="round" d="M 11648,10848 L 11648,10698"/>
 <path fill="none" stroke="rgb(0,0,0)" stroke-width="30" stroke-linejoin="round" d="M 11648,10848 L 11648,10698"/>
 <path fill="none" stroke="rgb(0,0,0)" stroke-width="30" stroke-linejoin="round" d="M 11767,10848 L 11767,10698"/>
 <path fill="none" stroke="rgb(0,0,0)" stroke-width="30" stroke-linejoin="round" d="M 11767,10848 L 11767,10698"/>
 <path fill="none" stroke="rgb(0,0,0)" stroke-width="30" stroke-linejoin="round" d="M 11885,10848 L 11885,10698"/>
 <path fill="none" stroke="rgb(0,0,0)" stroke-width="30" stroke-linejoin="round" d="M 11885,10848 L 11885,10698"/>
 <path fill="none" stroke="rgb(0,0,0)" stroke-width="30" stroke-linejoin="round" d="M 12003,10848 L 12003,10698"/>
 <path fill="none" stroke="rgb(0,0,0)" stroke-width="30" stroke-linejoin="round" d="M 12003,10848 L 12003,10698"/>
 <path fill="none" stroke="rgb(0,0,0)" stroke-width="30" stroke-linejoin="round" d="M 12121,10848 L 12121,10698"/>
 <path fill="none" stroke="rgb(0,0,0)" stroke-width="30" stroke-linejoin="round" d="M 12121,10848 L 12121,10698"/>
 <path fill="none" stroke="rgb(0,0,0)" stroke-width="30" stroke-linejoin="round" d="M 12239,10848 L 12239,10698"/>
 <path fill="none" stroke="rgb(0,0,0)" stroke-width="30" stroke-linejoin="round" d="M 12239,10848 L 12239,10698"/>
 <path fill="none" stroke="rgb(0,0,0)" stroke-width="30" stroke-linejoin="round" d="M 12358,10848 L 12358,10698"/>
 <path fill="none" stroke="rgb(0,0,0)" stroke-width="30" stroke-linejoin="round" d="M 12358,10848 L 12358,10698"/>
 <path fill="none" stroke="rgb(0,0,0)" stroke-width="30" stroke-linejoin="round" d="M 12476,10848 L 12476,10698"/>
 <path fill="none" stroke="rgb(0,0,0)" stroke-width="30" stroke-linejoin="round" d="M 12476,10848 L 12476,10698"/>
 <path fill="none" stroke="rgb(0,0,0)" stroke-width="30" stroke-linejoin="round" d="M 12594,10848 L 12594,10698"/>
 <path fill="none" stroke="rgb(0,0,0)" stroke-width="30" stroke-linejoin="round" d="M 12594,10848 L 12594,10698"/>
 <path fill="none" stroke="rgb(0,0,0)" stroke-width="30" stroke-linejoin="round" d="M 12712,10848 L 12712,10698"/>
 <path fill="none" stroke="rgb(0,0,0)" stroke-width="30" stroke-linejoin="round" d="M 12712,10848 L 12712,10698"/>
 <path fill="none" stroke="rgb(0,0,0)" stroke-width="30" stroke-linejoin="round" d="M 12830,10848 L 12830,10698"/>
 <path fill="none" stroke="rgb(0,0,0)" stroke-width="30" stroke-linejoin="round" d="M 12830,10848 L 12830,10698"/>
 <path fill="none" stroke="rgb(0,0,0)" stroke-width="30" stroke-linejoin="round" d="M 12949,10848 L 12949,10698"/>
 <path fill="none" stroke="rgb(0,0,0)" stroke-width="30" stroke-linejoin="round" d="M 12949,10848 L 12949,10698"/>
 <path fill="none" stroke="rgb(0,0,0)" stroke-width="30" stroke-linejoin="round" d="M 13067,10848 L 13067,10698"/>
 <path fill="none" stroke="rgb(0,0,0)" stroke-width="30" stroke-linejoin="round" d="M 13067,10848 L 13067,10698"/>
 <path fill="none" stroke="rgb(0,0,0)" stroke-width="30" stroke-linejoin="round" d="M 13185,10848 L 13185,10698"/>
 <path fill="none" stroke="rgb(0,0,0)" stroke-width="30" stroke-linejoin="round" d="M 13185,10848 L 13185,10698"/>
 <path fill="none" stroke="rgb(0,0,0)" stroke-width="30" stroke-linejoin="round" d="M 13303,10848 L 13303,10698"/>
 <path fill="none" stroke="rgb(0,0,0)" stroke-width="30" stroke-linejoin="round" d="M 13303,10848 L 13303,10698"/>
 <path fill="none" stroke="rgb(0,0,0)" stroke-width="30" stroke-linejoin="round" d="M 13421,10848 L 13421,10698"/>
 <path fill="none" stroke="rgb(0,0,0)" stroke-width="30" stroke-linejoin="round" d="M 13421,10848 L 13421,10698"/>
 <path fill="none" stroke="rgb(0,0,0)" stroke-width="30" stroke-linejoin="round" d="M 13540,10848 L 13540,10698"/>
 <path fill="none" stroke="rgb(0,0,0)" stroke-width="30" stroke-linejoin="round" d="M 13540,10848 L 13540,10698"/>
 <path fill="none" stroke="rgb(0,0,0)" stroke-width="30" stroke-linejoin="round" d="M 13658,10848 L 13658,10698"/>
 <path fill="none" stroke="rgb(0,0,0)" stroke-width="30" stroke-linejoin="round" d="M 13658,10848 L 13658,10698"/>
 <path fill="none" stroke="rgb(0,0,0)" stroke-width="30" stroke-linejoin="round" d="M 13776,10848 L 13776,10698"/>
 <path fill="none" stroke="rgb(0,0,0)" stroke-width="30" stroke-linejoin="round" d="M 13776,10848 L 13776,10698"/>
 <path fill="none" stroke="rgb(0,0,0)" stroke-width="30" stroke-linejoin="round" d="M 13894,10848 L 13894,10698"/>
 <path fill="none" stroke="rgb(0,0,0)" stroke-width="30" stroke-linejoin="round" d="M 13894,10848 L 13894,10698"/>
 <path fill="none" stroke="rgb(0,0,0)" stroke-width="30" stroke-linejoin="round" d="M 14012,10848 L 14012,10698"/>
 <path fill="none" stroke="rgb(0,0,0)" stroke-width="30" stroke-linejoin="round" d="M 14012,10848 L 14012,10698"/>
 <path fill="none" stroke="rgb(0,0,0)" stroke-width="30" stroke-linejoin="round" d="M 14131,10848 L 14131,10698"/>
 <path fill="none" stroke="rgb(0,0,0)" stroke-width="30" stroke-linejoin="round" d="M 14131,10848 L 14131,10698"/>
 <path fill="none" stroke="rgb(0,0,0)" stroke-width="30" stroke-linejoin="round" d="M 14249,10848 L 14249,10698"/>
 <path fill="none" stroke="rgb(0,0,0)" stroke-width="30" stroke-linejoin="round" d="M 14249,10848 L 14249,10698"/>
 <path fill="none" stroke="rgb(0,0,0)" stroke-width="30" stroke-linejoin="round" d="M 14367,10848 L 14367,10698"/>
 <path fill="none" stroke="rgb(0,0,0)" stroke-width="30" stroke-linejoin="round" d="M 14367,10848 L 14367,10698"/>
 <path fill="none" stroke="rgb(0,0,0)" stroke-width="30" stroke-linejoin="round" d="M 14485,10848 L 14485,10698"/>
 <path fill="none" stroke="rgb(0,0,0)" stroke-width="30" stroke-linejoin="round" d="M 14485,10848 L 14485,10698"/>
 <path fill="none" stroke="rgb(0,0,0)" stroke-width="30" stroke-linejoin="round" d="M 14604,10848 L 14604,10698"/>
 <path fill="none" stroke="rgb(0,0,0)" stroke-width="30" stroke-linejoin="round" d="M 14604,10848 L 14604,10698"/>
 <path fill="none" stroke="rgb(0,0,0)" stroke-width="30" stroke-linejoin="round" d="M 1366,10698 L 14604,10698"/>
 <path fill="none" stroke="rgb(0,0,0)" stroke-width="30" stroke-linejoin="round" d="M 1216,10698 L 1516,10698"/>
 <path fill="none" stroke="rgb(0,0,0)" stroke-width="30" stroke-linejoin="round" d="M 1216,10698 L 1516,10698"/>
 <path fill="none" stroke="rgb(0,0,0)" stroke-width="30" stroke-linejoin="round" d="M 1216,9737 L 1516,9737"/>
 <path fill="none" stroke="rgb(0,0,0)" stroke-width="30" stroke-linejoin="round" d="M 1216,9737 L 1516,9737"/>
 <path fill="none" stroke="rgb(0,0,0)" stroke-width="30" stroke-linejoin="round" d="M 1216,8777 L 1516,8777"/>
 <path fill="none" stroke="rgb(0,0,0)" stroke-width="30" stroke-linejoin="round" d="M 1216,8777 L 1516,8777"/>
 <path fill="none" stroke="rgb(0,0,0)" stroke-width="30" stroke-linejoin="round" d="M 1216,7816 L 1516,7816"/>
 <path fill="none" stroke="rgb(0,0,0)" stroke-width="30" stroke-linejoin="round" d="M 1216,7816 L 1516,7816"/>
 <path fill="none" stroke="rgb(0,0,0)" stroke-width="30" stroke-linejoin="round" d="M 1216,6856 L 1516,6856"/>
 <path fill="none" stroke="rgb(0,0,0)" stroke-width="30" stroke-linejoin="round" d="M 1216,6856 L 1516,6856"/>
 <path fill="none" stroke="rgb(0,0,0)" stroke-width="30" stroke-linejoin="round" d="M 1216,5897 L 1516,5897"/>
 <path fill="none" stroke="rgb(0,0,0)" stroke-width="30" stroke-linejoin="round" d="M 1216,5897 L 1516,5897"/>
 <path fill="none" stroke="rgb(0,0,0)" stroke-width="30" stroke-linejoin="round" d="M 1216,4936 L 1516,4936"/>
 <path fill="none" stroke="rgb(0,0,0)" stroke-width="30" stroke-linejoin="round" d="M 1216,4936 L 1516,4936"/>
 <path fill="none" stroke="rgb(0,0,0)" stroke-width="30" stroke-linejoin="round" d="M 1216,3976 L 1516,3976"/>
 <path fill="none" stroke="rgb(0,0,0)" stroke-width="30" stroke-linejoin="round" d="M 1216,3976 L 1516,3976"/>
 <path fill="none" stroke="rgb(0,0,0)" stroke-width="30" stroke-linejoin="round" d="M 1216,3015 L 1516,3015"/>
 <path fill="none" stroke="rgb(0,0,0)" stroke-width="30" stroke-linejoin="round" d="M 1216,3015 L 1516,3015"/>
 <path fill="none" stroke="rgb(0,0,0)" stroke-width="30" stroke-linejoin="round" d="M 1216,2055 L 1516,2055"/>
 <path fill="none" stroke="rgb(0,0,0)" stroke-width="30" stroke-linejoin="round" d="M 1216,2055 L 1516,2055"/>
 <path fill="none" stroke="rgb(0,0,0)" stroke-width="30" stroke-linejoin="round" d="M 1216,1095 L 1516,1095"/>
 <path fill="none" stroke="rgb(0,0,0)" stroke-width="30" stroke-linejoin="round" d="M 1216,1095 L 1516,1095"/>
 <path fill="none" stroke="rgb(0,0,0)" stroke-width="30" stroke-linejoin="round" d="M 1366,10698 L 1366,1095"/>
 <path fill="none" stroke="rgb(0,0,0)" stroke-width="30" stroke-linejoin="round" d="M 14754,10698 L 14604,10698"/>
 <path fill="none" stroke="rgb(0,0,0)" stroke-width="30" stroke-linejoin="round" d="M 14754,10698 L 14604,10698"/>
 <path fill="none" stroke="rgb(0,0,0)" stroke-width="30" stroke-linejoin="round" d="M 14754,9737 L 14604,9737"/>
 <path fill="none" stroke="rgb(0,0,0)" stroke-width="30" stroke-linejoin="round" d="M 14754,9737 L 14604,9737"/>
 <path fill="none" stroke="rgb(0,0,0)" stroke-width="30" stroke-linejoin="round" d="M 14754,8777 L 14604,8777"/>
 <path fill="none" stroke="rgb(0,0,0)" stroke-width="30" stroke-linejoin="round" d="M 14754,8777 L 14604,8777"/>
 <path fill="none" stroke="rgb(0,0,0)" stroke-width="30" stroke-linejoin="round" d="M 14754,7816 L 14604,7816"/>
 <path fill="none" stroke="rgb(0,0,0)" stroke-width="30" stroke-linejoin="round" d="M 14754,7816 L 14604,7816"/>
 <path fill="none" stroke="rgb(0,0,0)" stroke-width="30" stroke-linejoin="round" d="M 14754,6856 L 14604,6856"/>
 <path fill="none" stroke="rgb(0,0,0)" stroke-width="30" stroke-linejoin="round" d="M 14754,6856 L 14604,6856"/>
 <path fill="none" stroke="rgb(0,0,0)" stroke-width="30" stroke-linejoin="round" d="M 14754,5897 L 14604,5897"/>
 <path fill="none" stroke="rgb(0,0,0)" stroke-width="30" stroke-linejoin="round" d="M 14754,5897 L 14604,5897"/>
 <path fill="none" stroke="rgb(0,0,0)" stroke-width="30" stroke-linejoin="round" d="M 14754,4936 L 14604,4936"/>
 <path fill="none" stroke="rgb(0,0,0)" stroke-width="30" stroke-linejoin="round" d="M 14754,4936 L 14604,4936"/>
 <path fill="none" stroke="rgb(0,0,0)" stroke-width="30" stroke-linejoin="round" d="M 14754,3976 L 14604,3976"/>
 <path fill="none" stroke="rgb(0,0,0)" stroke-width="30" stroke-linejoin="round" d="M 14754,3976 L 14604,3976"/>
 <path fill="none" stroke="rgb(0,0,0)" stroke-width="30" stroke-linejoin="round" d="M 14754,3015 L 14604,3015"/>
 <path fill="none" stroke="rgb(0,0,0)" stroke-width="30" stroke-linejoin="round" d="M 14754,3015 L 14604,3015"/>
 <path fill="none" stroke="rgb(0,0,0)" stroke-width="30" stroke-linejoin="round" d="M 14754,2055 L 14604,2055"/>
 <path fill="none" stroke="rgb(0,0,0)" stroke-width="30" stroke-linejoin="round" d="M 14754,2055 L 14604,2055"/>
 <path fill="none" stroke="rgb(0,0,0)" stroke-width="30" stroke-linejoin="round" d="M 14754,1095 L 14604,1095"/>
 <path fill="none" stroke="rgb(0,0,0)" stroke-width="30" stroke-linejoin="round" d="M 14754,1095 L 14604,1095"/>
 <path fill="none" stroke="rgb(0,0,0)" stroke-width="30" stroke-linejoin="round" d="M 14604,10698 L 14604,1095"/>
 <path fill="rgb(255,211,32)" stroke="none" d="M 1366,10698 L 1484,10698 1602,10698 1720,10698 1838,10698 1957,10698 2075,10698 2193,10698 2311,10698 2429,10698 2548,10592 2666,10601 2784,10590 2902,10564 3020,10551 3139,10550 3257,10544 3375,10526 3493,10490 3611,10469 3730,10452 3848,10427 3966,10395 4084,10356 4202,10322 4321,10258 4439,10203 4557,10161 4675,10112 4793,10054 4912,10030 5030,10009 5148,10016 5266,9985 5384,9936 5503,9897 5621,9818 5739,9748 5857,9680 5976,9655 6094,9597 6212,9570 6330,9512 6448,9461 6567,9443 6685,9227 6803,9165 6921,9019 7039,8995 7158,8916 7276,8936 7394,8946 7512,8983 7630,8945 7749,8859 7867,8898 7984,8946 8102,8888 8220,8923 8339,8897 8457,9017 8575,9001 8693,9052 8811,9118 8930,9135 9048,9123 9166,9179 9284,9055 9402,8995 9521,9097 9639,9103 9757,9127 9875,9074 9993,8982 10112,8950 10230,8869 10348,8815 10466,8893 10585,8736 10703,8591 10821,8507 10939,8596 11057,8556 11176,8482 11294,8460 11412,8349 11530,8166 11648,8120 11767,8088 11885,7843 12003,7900 12121,7815 12239,7751 12358,7612 12476,7504 12594,7412 12712,7335 12830,7258 12949,7042 13067,6930 13185,6643 13303,6439 13421,5855 13540,5916 13658,5755 13776,5510 13894,5413 14012,5443 14131,5371 14249,5388 14367,5316 14485,5191 14604,5295 14604,10698 1366,10698 Z"/>
 <path fill="none" stroke="rgb(0,0,0)" stroke-linejoin="round" d="M 1366,10698 L 1484,10698 1602,10698 1720,10698 1838,10698 1957,10698 2075,10698 2193,10698 2311,10698 2429,10698 2548,10592 2666,10601 2784,10590 2902,10564 3020,10551 3139,10550 3257,10544 3375,10526 3493,10490 3611,10469 3730,10452 3848,10427 3966,10395 4084,10356 4202,10322 4321,10258 4439,10203 4557,10161 4675,10112 4793,10054 4912,10030 5030,10009 5148,10016 5266,9985 5384,9936 5503,9897 5621,9818 5739,9748 5857,9680 5976,9655 6094,9597 6212,9570 6330,9512 6448,9461 6567,9443 6685,9227 6803,9165 6921,9019 7039,8995 7158,8916 7276,8936 7394,8946 7512,8983 7630,8945 7749,8859 7867,8898 7984,8946 8102,8888 8220,8923 8339,8897 8457,9017 8575,9001 8693,9052 8811,9118 8930,9135 9048,9123 9166,9179 9284,9055 9402,8995 9521,9097 9639,9103 9757,9127 9875,9074 9993,8982 10112,8950 10230,8869 10348,8815 10466,8893 10585,8736 10703,8591 10821,8507 10939,8596 11057,8556 11176,8482 11294,8460 11412,8349 11530,8166 11648,8120 11767,8088 11885,7843 12003,7900 12121,7815 12239,7751 12358,7612 12476,7504 12594,7412 12712,7335 12830,7258 12949,7042 13067,6930 13185,6643 13303,6439 13421,5855 13540,5916 13658,5755 13776,5510 13894,5413 14012,5443 14131,5371 14249,5388 14367,5316 14485,5191 14604,5295 14604,10698 1366,10698 Z"/>
 <path fill="rgb(0,69,134)" stroke="none" d="M 1366,3062 L 1484,3127 1602,3182 1720,3225 1838,3263 1957,3242 2075,3404 2193,3459 2311,3446 2429,3481 2548,3468 2666,3529 2784,3714 2902,3794 3020,3858 3139,3903 3257,3970 3375,4018 3493,3952 3611,3912 3730,3960 3848,4005 3966,4094 4084,4155 4202,4221 4321,4247 4439,4242 4557,4261 4675,4300 4793,4309 4912,4311 5030,4228 5148,4196 5266,4203 5384,4227 5503,4227 5621,4221 5739,4280 5857,4317 5976,4217 6094,4242 6212,4293 6330,4315 6448,4319 6567,4394 6685,4288 6803,4280 6921,4275 7039,4312 7158,4349 7276,4329 7394,4278 7512,4230 7630,4167 7749,4113 7867,4179 7984,4281 8102,4249 8220,4273 8339,4262 8457,4332 8575,4336 8693,4410 8811,4495 8930,4510 9048,4377 9166,4438 9284,4306 9402,4261 9521,4345 9639,4211 9757,4259 9875,4243 9993,4203 10112,4243 10230,4240 10348,4126 10466,4264 10585,4157 10703,3962 10821,3946 10939,3948 11057,3852 11176,3817 11294,3803 11412,3637 11530,3729 11648,3636 11767,3675 11885,3685 12003,3613 12121,3658 12239,3680 12358,3574 12476,3674 12594,3672 12712,3560 12830,3674 12949,3680 13067,3721 13185,3656 13303,3642 13421,3270 13540,3314 13658,3301 13776,3246 13894,3396 14012,3497 14131,3544 14249,3659 14367,3655 14485,3592 14604,3805 14604,5295 14485,5191 14367,5316 14249,5388 14131,5371 14012,5443 13894,5413 13776,5510 13658,5755 13540,5916 13421,5855 13303,6439 13185,6643 13067,6930 12949,7042 12830,7258 12712,7335 12594,7412 12476,7504 12358,7612 12239,7751 12121,7815 12003,7900 11885,7843 11767,8088 11648,8120 11530,8166 11412,8349 11294,8460 11176,8482 11057,8556 10939,8596 10821,8507 10703,8591 10585,8736 10466,8893 10348,8815 10230,8869 10112,8950 9993,8982 9875,9074 9757,9127 9639,9103 9521,9097 9402,8995 9284,9055 9166,9179 9048,9123 8930,9135 8811,9118 8693,9052 8575,9001 8457,9017 8339,8897 8220,8923 8102,8888 7984,8946 7867,8898 7749,8859 7630,8945 7512,8983 7394,8946 7276,8936 7158,8916 7039,8995 6921,9019 6803,9165 6685,9227 6567,9443 6448,9461 6330,9512 6212,9570 6094,9597 5976,9655 5857,9680 5739,9748 5621,9818 5503,9897 5384,9936 5266,9985 5148,10016 5030,10009 4912,10030 4793,10054 4675,10112 4557,10161 4439,10203 4321,10258 4202,10322 4084,10356 3966,10395 3848,10427 3730,10452 3611,10469 3493,10490 3375,10526 3257,10544 3139,10550 3020,10551 2902,10564 2784,10590 2666,10601 2548,10592 2429,10698 2311,10698 2193,10698 2075,10698 1957,10698 1838,10698 1720,10698 1602,10698 1484,10698 1366,10698 1366,3062 Z"/>
 <path fill="none" stroke="rgb(0,0,0)" stroke-linejoin="round" d="M 1366,3062 L 1484,3127 1602,3182 1720,3225 1838,3263 1957,3242 2075,3404 2193,3459 2311,3446 2429,3481 2548,3468 2666,3529 2784,3714 2902,3794 3020,3858 3139,3903 3257,3970 3375,4018 3493,3952 3611,3912 3730,3960 3848,4005 3966,4094 4084,4155 4202,4221 4321,4247 4439,4242 4557,4261 4675,4300 4793,4309 4912,4311 5030,4228 5148,4196 5266,4203 5384,4227 5503,4227 5621,4221 5739,4280 5857,4317 5976,4217 6094,4242 6212,4293 6330,4315 6448,4319 6567,4394 6685,4288 6803,4280 6921,4275 7039,4312 7158,4349 7276,4329 7394,4278 7512,4230 7630,4167 7749,4113 7867,4179 7984,4281 8102,4249 8220,4273 8339,4262 8457,4332 8575,4336 8693,4410 8811,4495 8930,4510 9048,4377 9166,4438 9284,4306 9402,4261 9521,4345 9639,4211 9757,4259 9875,4243 9993,4203 10112,4243 10230,4240 10348,4126 10466,4264 10585,4157 10703,3962 10821,3946 10939,3948 11057,3852 11176,3817 11294,3803 11412,3637 11530,3729 11648,3636 11767,3675 11885,3685 12003,3613 12121,3658 12239,3680 12358,3574 12476,3674 12594,3672 12712,3560 12830,3674 12949,3680 13067,3721 13185,3656 13303,3642 13421,3270 13540,3314 13658,3301 13776,3246 13894,3396 14012,3497 14131,3544 14249,3659 14367,3655 14485,3592 14604,3805 14604,5295 14485,5191 14367,5316 14249,5388 14131,5371 14012,5443 13894,5413 13776,5510 13658,5755 13540,5916 13421,5855 13303,6439 13185,6643 13067,6930 12949,7042 12830,7258 12712,7335 12594,7412 12476,7504 12358,7612 12239,7751 12121,7815 12003,7900 11885,7843 11767,8088 11648,8120 11530,8166 11412,8349 11294,8460 11176,8482 11057,8556 10939,8596 10821,8507 10703,8591 10585,8736 10466,8893 10348,8815 10230,8869 10112,8950 9993,8982 9875,9074 9757,9127 9639,9103 9521,9097 9402,8995 9284,9055 9166,9179 9048,9123 8930,9135 8811,9118 8693,9052 8575,9001 8457,9017 8339,8897 8220,8923 8102,8888 7984,8946 7867,8898 7749,8859 7630,8945 7512,8983 7394,8946 7276,8936 7158,8916 7039,8995 6921,9019 6803,9165 6685,9227 6567,9443 6448,9461 6330,9512 6212,9570 6094,9597 5976,9655 5857,9680 5739,9748 5621,9818 5503,9897 5384,9936 5266,9985 5148,10016 5030,10009 4912,10030 4793,10054 4675,10112 4557,10161 4439,10203 4321,10258 4202,10322 4084,10356 3966,10395 3848,10427 3730,10452 3611,10469 3493,10490 3375,10526 3257,10544 3139,10550 3020,10551 2902,10564 2784,10590 2666,10601 2548,10592 2429,10698 2311,10698 2193,10698 2075,10698 1957,10698 1838,10698 1720,10698 1602,10698 1484,10698 1366,10698 1366,3062 Z"/>
 <path fill="rgb(87,157,28)" stroke="none" d="M 1366,2841 L 1484,2890 1602,2931 1720,2972 1838,3005 1957,2996 2075,3130 2193,3195 2311,3193 2429,3223 2548,3199 2666,3255 2784,3420 2902,3470 3020,3512 3139,3574 3257,3622 3375,3683 3493,3600 3611,3551 3730,3576 3848,3620 3966,3691 4084,3740 4202,3811 4321,3828 4439,3818 4557,3840 4675,3860 4793,3862 4912,3865 5030,3770 5148,3721 5266,3719 5384,3739 5503,3733 5621,3704 5739,3733 5857,3729 5976,3625 6094,3626 6212,3626 6330,3637 6448,3628 6567,3648 6685,3562 6803,3515 6921,3461 7039,3518 7158,3521 7276,3443 7394,3392 7512,3376 7630,3298 7749,3240 7867,3254 7984,3350 8102,3224 8220,3269 8339,3241 8457,3278 8575,3269 8693,3280 8811,3365 8930,3378 9048,3312 9166,3348 9284,3220 9402,3125 9521,3187 9639,3154 9757,3128 9875,3065 9993,3032 10112,2989 10230,2963 10348,2892 10466,2981 10585,2887 10703,2806 10821,2798 10939,2780 11057,2795 11176,2710 11294,2591 11412,2569 11530,2539 11648,2525 11767,2558 11885,2496 12003,2543 12121,2508 12239,2473 12358,2430 12476,2459 12594,2388 12712,2520 12830,2554 12949,2559 13067,2600 13185,2482 13303,2543 13421,2331 13540,2326 13658,2299 13776,2262 13894,2406 14012,2579 14131,2620 14249,2604 14367,2530 14485,2512 14604,2482 14604,3805 14485,3592 14367,3655 14249,3659 14131,3544 14012,3497 13894,3396 13776,3246 13658,3301 13540,3314 13421,3270 13303,3642 13185,3656 13067,3721 12949,3680 12830,3674 12712,3560 12594,3672 12476,3674 12358,3574 12239,3680 12121,3658 12003,3613 11885,3685 11767,3675 11648,3636 11530,3729 11412,3637 11294,3803 11176,3817 11057,3852 10939,3948 10821,3946 10703,3962 10585,4157 10466,4264 10348,4126 10230,4240 10112,4243 9993,4203 9875,4243 9757,4259 9639,4211 9521,4345 9402,4261 9284,4306 9166,4438 9048,4377 8930,4510 8811,4495 8693,4410 8575,4336 8457,4332 8339,4262 8220,4273 8102,4249 7984,4281 7867,4179 7749,4113 7630,4167 7512,4230 7394,4278 7276,4329 7158,4349 7039,4312 6921,4275 6803,4280 6685,4288 6567,4394 6448,4319 6330,4315 6212,4293 6094,4242 5976,4217 5857,4317 5739,4280 5621,4221 5503,4227 5384,4227 5266,4203 5148,4196 5030,4228 4912,4311 4793,4309 4675,4300 4557,4261 4439,4242 4321,4247 4202,4221 4084,4155 3966,4094 3848,4005 3730,3960 3611,3912 3493,3952 3375,4018 3257,3970 3139,3903 3020,3858 2902,3794 2784,3714 2666,3529 2548,3468 2429,3481 2311,3446 2193,3459 2075,3404 1957,3242 1838,3263 1720,3225 1602,3182 1484,3127 1366,3062 1366,2841 Z"/>
 <path fill="none" stroke="rgb(0,0,0)" stroke-linejoin="round" d="M 1366,2841 L 1484,2890 1602,2931 1720,2972 1838,3005 1957,2996 2075,3130 2193,3195 2311,3193 2429,3223 2548,3199 2666,3255 2784,3420 2902,3470 3020,3512 3139,3574 3257,3622 3375,3683 3493,3600 3611,3551 3730,3576 3848,3620 3966,3691 4084,3740 4202,3811 4321,3828 4439,3818 4557,3840 4675,3860 4793,3862 4912,3865 5030,3770 5148,3721 5266,3719 5384,3739 5503,3733 5621,3704 5739,3733 5857,3729 5976,3625 6094,3626 6212,3626 6330,3637 6448,3628 6567,3648 6685,3562 6803,3515 6921,3461 7039,3518 7158,3521 7276,3443 7394,3392 7512,3376 7630,3298 7749,3240 7867,3254 7984,3350 8102,3224 8220,3269 8339,3241 8457,3278 8575,3269 8693,3280 8811,3365 8930,3378 9048,3312 9166,3348 9284,3220 9402,3125 9521,3187 9639,3154 9757,3128 9875,3065 9993,3032 10112,2989 10230,2963 10348,2892 10466,2981 10585,2887 10703,2806 10821,2798 10939,2780 11057,2795 11176,2710 11294,2591 11412,2569 11530,2539 11648,2525 11767,2558 11885,2496 12003,2543 12121,2508 12239,2473 12358,2430 12476,2459 12594,2388 12712,2520 12830,2554 12949,2559 13067,2600 13185,2482 13303,2543 13421,2331 13540,2326 13658,2299 13776,2262 13894,2406 14012,2579 14131,2620 14249,2604 14367,2530 14485,2512 14604,2482 14604,3805 14485,3592 14367,3655 14249,3659 14131,3544 14012,3497 13894,3396 13776,3246 13658,3301 13540,3314 13421,3270 13303,3642 13185,3656 13067,3721 12949,3680 12830,3674 12712,3560 12594,3672 12476,3674 12358,3574 12239,3680 12121,3658 12003,3613 11885,3685 11767,3675 11648,3636 11530,3729 11412,3637 11294,3803 11176,3817 11057,3852 10939,3948 10821,3946 10703,3962 10585,4157 10466,4264 10348,4126 10230,4240 10112,4243 9993,4203 9875,4243 9757,4259 9639,4211 9521,4345 9402,4261 9284,4306 9166,4438 9048,4377 8930,4510 8811,4495 8693,4410 8575,4336 8457,4332 8339,4262 8220,4273 8102,4249 7984,4281 7867,4179 7749,4113 7630,4167 7512,4230 7394,4278 7276,4329 7158,4349 7039,4312 6921,4275 6803,4280 6685,4288 6567,4394 6448,4319 6330,4315 6212,4293 6094,4242 5976,4217 5857,4317 5739,4280 5621,4221 5503,4227 5384,4227 5266,4203 5148,4196 5030,4228 4912,4311 4793,4309 4675,4300 4557,4261 4439,4242 4321,4247 4202,4221 4084,4155 3966,4094 3848,4005 3730,3960 3611,3912 3493,3952 3375,4018 3257,3970 3139,3903 3020,3858 2902,3794 2784,3714 2666,3529 2548,3468 2429,3481 2311,3446 2193,3459 2075,3404 1957,3242 1838,3263 1720,3225 1602,3182 1484,3127 1366,3062 1366,2841 Z"/>
 <path fill="rgb(255,66,14)" stroke="none" d="M 1366,1349 L 1484,1323 1602,1335 1720,1339 1838,1343 1957,1346 2075,1367 2193,1373 2311,1370 2429,1373 2548,1362 2666,1370 2784,1378 2902,1384 3020,1386 3139,1403 3257,1382 3375,1391 3493,1412 3611,1399 3730,1415 3848,1408 3966,1405 4084,1423 4202,1433 4321,1458 4439,1465 4557,1508 4675,1498 4793,1494 4912,1525 5030,1490 5148,1528 5266,1523 5384,1544 5503,1553 5621,1523 5739,1549 5857,1551 5976,1543 6094,1539 6212,1555 6330,1565 6448,1552 6567,1592 6685,1546 6803,1500 6921,1432 7039,1547 7158,1603 7276,1627 7394,1542 7512,1556 7630,1515 7749,1498 7867,1495 7984,1614 8102,1491 8220,1529 8339,1535 8457,1539 8575,1589 8693,1608 8811,1706 8930,1714 9048,1600 9166,1624 9284,1643 9402,1626 9521,1677 9639,1641 9757,1625 9875,1597 9993,1578 10112,1602 10230,1630 10348,1582 10466,1701 10585,1649 10703,1683 10821,1719 10939,1675 11057,1783 11176,1749 11294,1635 11412,1724 11530,1710 11648,1704 11767,1727 11885,1718 12003,1724 12121,1670 12239,1670 12358,1635 12476,1725 12594,1670 12712,1741 12830,1803 12949,1882 13067,1906 13185,1897 13303,2040 13421,1876 13540,1896 13658,1857 13776,1832 13894,1911 14012,1924 14131,1938 14249,1905 14367,1841 14485,1854 14604,1871 14604,2482 14485,2512 14367,2530 14249,2604 14131,2620 14012,2579 13894,2406 13776,2262 13658,2299 13540,2326 13421,2331 13303,2543 13185,2482 13067,2600 12949,2559 12830,2554 12712,2520 12594,2388 12476,2459 12358,2430 12239,2473 12121,2508 12003,2543 11885,2496 11767,2558 11648,2525 11530,2539 11412,2569 11294,2591 11176,2710 11057,2795 10939,2780 10821,2798 10703,2806 10585,2887 10466,2981 10348,2892 10230,2963 10112,2989 9993,3032 9875,3065 9757,3128 9639,3154 9521,3187 9402,3125 9284,3220 9166,3348 9048,3312 8930,3378 8811,3365 8693,3280 8575,3269 8457,3278 8339,3241 8220,3269 8102,3224 7984,3350 7867,3254 7749,3240 7630,3298 7512,3376 7394,3392 7276,3443 7158,3521 7039,3518 6921,3461 6803,3515 6685,3562 6567,3648 6448,3628 6330,3637 6212,3626 6094,3626 5976,3625 5857,3729 5739,3733 5621,3704 5503,3733 5384,3739 5266,3719 5148,3721 5030,3770 4912,3865 4793,3862 4675,3860 4557,3840 4439,3818 4321,3828 4202,3811 4084,3740 3966,3691 3848,3620 3730,3576 3611,3551 3493,3600 3375,3683 3257,3622 3139,3574 3020,3512 2902,3470 2784,3420 2666,3255 2548,3199 2429,3223 2311,3193 2193,3195 2075,3130 1957,2996 1838,3005 1720,2972 1602,2931 1484,2890 1366,2841 1366,1349 Z"/>
 <path fill="none" stroke="rgb(0,0,0)" stroke-linejoin="round" d="M 1366,1349 L 1484,1323 1602,1335 1720,1339 1838,1343 1957,1346 2075,1367 2193,1373 2311,1370 2429,1373 2548,1362 2666,1370 2784,1378 2902,1384 3020,1386 3139,1403 3257,1382 3375,1391 3493,1412 3611,1399 3730,1415 3848,1408 3966,1405 4084,1423 4202,1433 4321,1458 4439,1465 4557,1508 4675,1498 4793,1494 4912,1525 5030,1490 5148,1528 5266,1523 5384,1544 5503,1553 5621,1523 5739,1549 5857,1551 5976,1543 6094,1539 6212,1555 6330,1565 6448,1552 6567,1592 6685,1546 6803,1500 6921,1432 7039,1547 7158,1603 7276,1627 7394,1542 7512,1556 7630,1515 7749,1498 7867,1495 7984,1614 8102,1491 8220,1529 8339,1535 8457,1539 8575,1589 8693,1608 8811,1706 8930,1714 9048,1600 9166,1624 9284,1643 9402,1626 9521,1677 9639,1641 9757,1625 9875,1597 9993,1578 10112,1602 10230,1630 10348,1582 10466,1701 10585,1649 10703,1683 10821,1719 10939,1675 11057,1783 11176,1749 11294,1635 11412,1724 11530,1710 11648,1704 11767,1727 11885,1718 12003,1724 12121,1670 12239,1670 12358,1635 12476,1725 12594,1670 12712,1741 12830,1803 12949,1882 13067,1906 13185,1897 13303,2040 13421,1876 13540,1896 13658,1857 13776,1832 13894,1911 14012,1924 14131,1938 14249,1905 14367,1841 14485,1854 14604,1871 14604,2482 14485,2512 14367,2530 14249,2604 14131,2620 14012,2579 13894,2406 13776,2262 13658,2299 13540,2326 13421,2331 13303,2543 13185,2482 13067,2600 12949,2559 12830,2554 12712,2520 12594,2388 12476,2459 12358,2430 12239,2473 12121,2508 12003,2543 11885,2496 11767,2558 11648,2525 11530,2539 11412,2569 11294,2591 11176,2710 11057,2795 10939,2780 10821,2798 10703,2806 10585,2887 10466,2981 10348,2892 10230,2963 10112,2989 9993,3032 9875,3065 9757,3128 9639,3154 9521,3187 9402,3125 9284,3220 9166,3348 9048,3312 8930,3378 8811,3365 8693,3280 8575,3269 8457,3278 8339,3241 8220,3269 8102,3224 7984,3350 7867,3254 7749,3240 7630,3298 7512,3376 7394,3392 7276,3443 7158,3521 7039,3518 6921,3461 6803,3515 6685,3562 6567,3648 6448,3628 6330,3637 6212,3626 6094,3626 5976,3625 5857,3729 5739,3733 5621,3704 5503,3733 5384,3739 5266,3719 5148,3721 5030,3770 4912,3865 4793,3862 4675,3860 4557,3840 4439,3818 4321,3828 4202,3811 4084,3740 3966,3691 3848,3620 3730,3576 3611,3551 3493,3600 3375,3683 3257,3622 3139,3574 3020,3512 2902,3470 2784,3420 2666,3255 2548,3199 2429,3223 2311,3193 2193,3195 2075,3130 1957,2996 1838,3005 1720,2972 1602,2931 1484,2890 1366,2841 1366,1349 Z"/>
 <path fill="rgb(126,0,33)" stroke="none" d="M 1366,1153 L 1484,1156 1602,1146 1720,1144 1838,1148 1957,1153 2075,1160 2193,1153 2311,1151 2429,1150 2548,1150 2666,1147 2784,1148 2902,1152 3020,1151 3139,1172 3257,1158 3375,1172 3493,1192 3611,1189 3730,1206 3848,1192 3966,1174 4084,1190 4202,1173 4321,1181 4439,1187 4557,1227 4675,1201 4793,1203 4912,1228 5030,1215 5148,1226 5266,1217 5384,1227 5503,1253 5621,1228 5739,1245 5857,1255 5976,1240 6094,1242 6212,1256 6330,1274 6448,1281 6567,1337 6685,1274 6803,1241 6921,1221 7039,1284 7158,1301 7276,1320 7394,1288 7512,1323 7630,1291 7749,1270 7867,1273 7984,1411 8102,1284 8220,1311 8339,1318 8457,1329 8575,1334 8693,1350 8811,1395 8930,1475 9048,1354 9166,1367 9284,1398 9402,1400 9521,1447 9639,1442 9757,1445 9875,1437 9993,1430 10112,1448 10230,1479 10348,1452 10466,1501 10585,1461 10703,1497 10821,1515 10939,1477 11057,1623 11176,1580 11294,1454 11412,1528 11530,1520 11648,1507 11767,1525 11885,1530 12003,1504 12121,1463 12239,1484 12358,1466 12476,1546 12594,1494 12712,1563 12830,1593 12949,1629 13067,1641 13185,1659 13303,1797 13421,1689 13540,1678 13658,1673 13776,1642 13894,1712 14012,1752 14131,1766 14249,1725 14367,1697 14485,1708 14604,1714 14604,1871 14485,1854 14367,1841 14249,1905 14131,1938 14012,1924 13894,1911 13776,1832 13658,1857 13540,1896 13421,1876 13303,2040 13185,1897 13067,1906 12949,1882 12830,1803 12712,1741 12594,1670 12476,1725 12358,1635 12239,1670 12121,1670 12003,1724 11885,1718 11767,1727 11648,1704 11530,1710 11412,1724 11294,1635 11176,1749 11057,1783 10939,1675 10821,1719 10703,1683 10585,1649 10466,1701 10348,1582 10230,1630 10112,1602 9993,1578 9875,1597 9757,1625 9639,1641 9521,1677 9402,1626 9284,1643 9166,1624 9048,1600 8930,1714 8811,1706 8693,1608 8575,1589 8457,1539 8339,1535 8220,1529 8102,1491 7984,1614 7867,1495 7749,1498 7630,1515 7512,1556 7394,1542 7276,1627 7158,1603 7039,1547 6921,1432 6803,1500 6685,1546 6567,1592 6448,1552 6330,1565 6212,1555 6094,1539 5976,1543 5857,1551 5739,1549 5621,1523 5503,1553 5384,1544 5266,1523 5148,1528 5030,1490 4912,1525 4793,1494 4675,1498 4557,1508 4439,1465 4321,1458 4202,1433 4084,1423 3966,1405 3848,1408 3730,1415 3611,1399 3493,1412 3375,1391 3257,1382 3139,1403 3020,1386 2902,1384 2784,1378 2666,1370 2548,1362 2429,1373 2311,1370 2193,1373 2075,1367 1957,1346 1838,1343 1720,1339 1602,1335 1484,1323 1366,1349 1366,1153 Z"/>
 <path fill="none" stroke="rgb(0,0,0)" stroke-linejoin="round" d="M 1366,1153 L 1484,1156 1602,1146 1720,1144 1838,1148 1957,1153 2075,1160 2193,1153 2311,1151 2429,1150 2548,1150 2666,1147 2784,1148 2902,1152 3020,1151 3139,1172 3257,1158 3375,1172 3493,1192 3611,1189 3730,1206 3848,1192 3966,1174 4084,1190 4202,1173 4321,1181 4439,1187 4557,1227 4675,1201 4793,1203 4912,1228 5030,1215 5148,1226 5266,1217 5384,1227 5503,1253 5621,1228 5739,1245 5857,1255 5976,1240 6094,1242 6212,1256 6330,1274 6448,1281 6567,1337 6685,1274 6803,1241 6921,1221 7039,1284 7158,1301 7276,1320 7394,1288 7512,1323 7630,1291 7749,1270 7867,1273 7984,1411 8102,1284 8220,1311 8339,1318 8457,1329 8575,1334 8693,1350 8811,1395 8930,1475 9048,1354 9166,1367 9284,1398 9402,1400 9521,1447 9639,1442 9757,1445 9875,1437 9993,1430 10112,1448 10230,1479 10348,1452 10466,1501 10585,1461 10703,1497 10821,1515 10939,1477 11057,1623 11176,1580 11294,1454 11412,1528 11530,1520 11648,1507 11767,1525 11885,1530 12003,1504 12121,1463 12239,1484 12358,1466 12476,1546 12594,1494 12712,1563 12830,1593 12949,1629 13067,1641 13185,1659 13303,1797 13421,1689 13540,1678 13658,1673 13776,1642 13894,1712 14012,1752 14131,1766 14249,1725 14367,1697 14485,1708 14604,1714 14604,1871 14485,1854 14367,1841 14249,1905 14131,1938 14012,1924 13894,1911 13776,1832 13658,1857 13540,1896 13421,1876 13303,2040 13185,1897 13067,1906 12949,1882 12830,1803 12712,1741 12594,1670 12476,1725 12358,1635 12239,1670 12121,1670 12003,1724 11885,1718 11767,1727 11648,1704 11530,1710 11412,1724 11294,1635 11176,1749 11057,1783 10939,1675 10821,1719 10703,1683 10585,1649 10466,1701 10348,1582 10230,1630 10112,1602 9993,1578 9875,1597 9757,1625 9639,1641 9521,1677 9402,1626 9284,1643 9166,1624 9048,1600 8930,1714 8811,1706 8693,1608 8575,1589 8457,1539 8339,1535 8220,1529 8102,1491 7984,1614 7867,1495 7749,1498 7630,1515 7512,1556 7394,1542 7276,1627 7158,1603 7039,1547 6921,1432 6803,1500 6685,1546 6567,1592 6448,1552 6330,1565 6212,1555 6094,1539 5976,1543 5857,1551 5739,1549 5621,1523 5503,1553 5384,1544 5266,1523 5148,1528 5030,1490 4912,1525 4793,1494 4675,1498 4557,1508 4439,1465 4321,1458 4202,1433 4084,1423 3966,1405 3848,1408 3730,1415 3611,1399 3493,1412 3375,1391 3257,1382 3139,1403 3020,1386 2902,1384 2784,1378 2666,1370 2548,1362 2429,1373 2311,1370 2193,1373 2075,1367 1957,1346 1838,1343 1720,1339 1602,1335 1484,1323 1366,1349 1366,1153 Z"/>
 <path fill="rgb(131,202,255)" stroke="none" d="M 1366,1095 L 1484,1095 1602,1095 1720,1095 1838,1095 1957,1095 2075,1095 2193,1095 2311,1095 2429,1095 2548,1095 2666,1095 2784,1095 2902,1095 3020,1095 3139,1095 3257,1095 3375,1095 3493,1095 3611,1095 3730,1095 3848,1095 3966,1095 4202,1095 4321,1095 4439,1095 4557,1095 4675,1095 4912,1095 5148,1095 5266,1095 5384,1095 5503,1095 5621,1095 5739,1095 5857,1095 5976,1095 6094,1095 6212,1095 6330,1095 6448,1095 6567,1095 6803,1095 6921,1095 7039,1095 7158,1095 7276,1095 7394,1095 7709,1095 7749,1095 7867,1095 8181,1095 8220,1095 8339,1095 8457,1095 8575,1095 8693,1095 8930,1095 9048,1095 9166,1095 9284,1095 9402,1095 9521,1095 9639,1095 9757,1095 9875,1095 9993,1095 10112,1095 10230,1095 10348,1095 10466,1095 10585,1095 10703,1095 10821,1095 10939,1095 11057,1095 11097,1095 11294,1095 11412,1095 11530,1095 11648,1095 11767,1095 11885,1095 12121,1095 12239,1095 12358,1095 12476,1095 12594,1095 12712,1095 12830,1095 12949,1095 13067,1095 13185,1095 13303,1095 13540,1095 13658,1095 13776,1095 13894,1095 14012,1095 14131,1095 14249,1095 14367,1095 14485,1095 14525,1095 14604,1095 14604,1714 14485,1708 14367,1697 14249,1725 14131,1766 14012,1752 13894,1712 13776,1642 13658,1673 13540,1678 13421,1689 13303,1797 13185,1659 13067,1641 12949,1629 12830,1593 12712,1563 12594,1494 12476,1546 12358,1466 12239,1484 12121,1463 12003,1504 11885,1530 11767,1525 11648,1507 11530,1520 11412,1528 11294,1454 11176,1580 11057,1623 10939,1477 10821,1515 10703,1497 10585,1461 10466,1501 10348,1452 10230,1479 10112,1448 9993,1430 9875,1437 9757,1445 9639,1442 9521,1447 9402,1400 9284,1398 9166,1367 9048,1354 8930,1475 8811,1395 8693,1350 8575,1334 8457,1329 8339,1318 8220,1311 8102,1284 7984,1411 7867,1273 7749,1270 7630,1291 7512,1323 7394,1288 7276,1320 7158,1301 7039,1284 6921,1221 6803,1241 6685,1274 6567,1337 6448,1281 6330,1274 6212,1256 6094,1242 5976,1240 5857,1255 5739,1245 5621,1228 5503,1253 5384,1227 5266,1217 5148,1226 5030,1215 4912,1228 4793,1203 4675,1201 4557,1227 4439,1187 4321,1181 4202,1173 4084,1190 3966,1174 3848,1192 3730,1206 3611,1189 3493,1192 3375,1172 3257,1158 3139,1172 3020,1151 2902,1152 2784,1148 2666,1147 2548,1150 2429,1150 2311,1151 2193,1153 2075,1160 1957,1153 1838,1148 1720,1144 1602,1146 1484,1156 1366,1153 1366,1095 Z"/>
 <path fill="none" stroke="rgb(0,0,0)" stroke-linejoin="round" d="M 1366,1095 L 1484,1095 1602,1095 1720,1095 1838,1095 1957,1095 2075,1095 2193,1095 2311,1095 2429,1095 2548,1095 2666,1095 2784,1095 2902,1095 3020,1095 3139,1095 3257,1095 3375,1095 3493,1095 3611,1095 3730,1095 3848,1095 3966,1095 4202,1095 4321,1095 4439,1095 4557,1095 4675,1095 4912,1095 5148,1095 5266,1095 5384,1095 5503,1095 5621,1095 5739,1095 5857,1095 5976,1095 6094,1095 6212,1095 6330,1095 6448,1095 6567,1095 6803,1095 6921,1095 7039,1095 7158,1095 7276,1095 7394,1095 7709,1095 7749,1095 7867,1095 8181,1095 8220,1095 8339,1095 8457,1095 8575,1095 8693,1095 8930,1095 9048,1095 9166,1095 9284,1095 9402,1095 9521,1095 9639,1095 9757,1095 9875,1095 9993,1095 10112,1095 10230,1095 10348,1095 10466,1095 10585,1095 10703,1095 10821,1095 10939,1095 11057,1095 11097,1095 11294,1095 11412,1095 11530,1095 11648,1095 11767,1095 11885,1095 12121,1095 12239,1095 12358,1095 12476,1095 12594,1095 12712,1095 12830,1095 12949,1095 13067,1095 13185,1095 13303,1095 13540,1095 13658,1095 13776,1095 13894,1095 14012,1095 14131,1095 14249,1095 14367,1095 14485,1095 14525,1095 14604,1095 14604,1714 14485,1708 14367,1697 14249,1725 14131,1766 14012,1752 13894,1712 13776,1642 13658,1673 13540,1678 13421,1689 13303,1797 13185,1659 13067,1641 12949,1629 12830,1593 12712,1563 12594,1494 12476,1546 12358,1466 12239,1484 12121,1463 12003,1504 11885,1530 11767,1525 11648,1507 11530,1520 11412,1528 11294,1454 11176,1580 11057,1623 10939,1477 10821,1515 10703,1497 10585,1461 10466,1501 10348,1452 10230,1479 10112,1448 9993,1430 9875,1437 9757,1445 9639,1442 9521,1447 9402,1400 9284,1398 9166,1367 9048,1354 8930,1475 8811,1395 8693,1350 8575,1334 8457,1329 8339,1318 8220,1311 8102,1284 7984,1411 7867,1273 7749,1270 7630,1291 7512,1323 7394,1288 7276,1320 7158,1301 7039,1284 6921,1221 6803,1241 6685,1274 6567,1337 6448,1281 6330,1274 6212,1256 6094,1242 5976,1240 5857,1255 5739,1245 5621,1228 5503,1253 5384,1227 5266,1217 5148,1226 5030,1215 4912,1228 4793,1203 4675,1201 4557,1227 4439,1187 4321,1181 4202,1173 4084,1190 3966,1174 3848,1192 3730,1206 3611,1189 3493,1192 3375,1172 3257,1158 3139,1172 3020,1151 2902,1152 2784,1148 2666,1147 2548,1150 2429,1150 2311,1151 2193,1153 2075,1160 1957,1153 1838,1148 1720,1144 1602,1146 1484,1156 1366,1153 1366,1095 Z"/>
 <text class="TextShape"><tspan class="TextParagraph" font-family="Liberation Sans, sans-serif" font-size="388px" font-weight="700"><tspan class="TextPosition" x="1178" y="11292"><tspan fill="rgb(0,0,0)" stroke="none">2008</tspan></tspan></tspan></text>
 <text class="TextShape"><tspan class="TextParagraph" font-family="Liberation Sans, sans-serif" font-size="388px" font-weight="700"><tspan class="TextPosition" x="2596" y="11292"><tspan fill="rgb(0,0,0)" stroke="none">2009</tspan></tspan></tspan></text>
 <text class="TextShape"><tspan class="TextParagraph" font-family="Liberation Sans, sans-serif" font-size="388px" font-weight="700"><tspan class="TextPosition" x="4015" y="11292"><tspan fill="rgb(0,0,0)" stroke="none">2010</tspan></tspan></tspan></text>
 <text class="TextShape"><tspan class="TextParagraph" font-family="Liberation Sans, sans-serif" font-size="388px" font-weight="700"><tspan class="TextPosition" x="5433" y="11292"><tspan fill="rgb(0,0,0)" stroke="none">2011</tspan></tspan></tspan></text>
 <text class="TextShape"><tspan class="TextParagraph" font-family="Liberation Sans, sans-serif" font-size="388px" font-weight="700"><tspan class="TextPosition" x="6852" y="11292"><tspan fill="rgb(0,0,0)" stroke="none">2012</tspan></tspan></tspan></text>
 <text class="TextShape"><tspan class="TextParagraph" font-family="Liberation Sans, sans-serif" font-size="388px" font-weight="700"><tspan class="TextPosition" x="8270" y="11292"><tspan fill="rgb(0,0,0)" stroke="none">2013</tspan></tspan></tspan></text>
 <text class="TextShape"><tspan class="TextParagraph" font-family="Liberation Sans, sans-serif" font-size="388px" font-weight="700"><tspan class="TextPosition" x="9689" y="11292"><tspan fill="rgb(0,0,0)" stroke="none">2014</tspan></tspan></tspan></text>
 <text class="TextShape"><tspan class="TextParagraph" font-family="Liberation Sans, sans-serif" font-size="388px" font-weight="700"><tspan class="TextPosition" x="11107" y="11292"><tspan fill="rgb(0,0,0)" stroke="none">2015</tspan></tspan></tspan></text>
 <text class="TextShape"><tspan class="TextParagraph" font-family="Liberation Sans, sans-serif" font-size="388px" font-weight="700"><tspan class="TextPosition" x="12526" y="11292"><tspan fill="rgb(0,0,0)" stroke="none">2016</tspan></tspan></tspan></text>
 <text class="TextShape"><tspan class="TextParagraph" font-family="Liberation Sans, sans-serif" font-size="388px" font-weight="700"><tspan class="TextPosition" x="13944" y="11292"><tspan fill="rgb(0,0,0)" stroke="none">2017</tspan></tspan></tspan></text>
 <text class="TextShape"><tspan class="TextParagraph" font-family="Liberation Sans, sans-serif" font-size="388px" font-weight="700"><tspan class="TextPosition" x="560" y="10832"><tspan fill="rgb(0,0,0)" stroke="none">0%</tspan></tspan></tspan></text>
 <text class="TextShape"><tspan class="TextParagraph" font-family="Liberation Sans, sans-serif" font-size="388px" font-weight="700"><tspan class="TextPosition" x="349" y="9871"><tspan fill="rgb(0,0,0)" stroke="none">10%</tspan></tspan></tspan></text>
 <text class="TextShape"><tspan class="TextParagraph" font-family="Liberation Sans, sans-serif" font-size="388px" font-weight="700"><tspan class="TextPosition" x="349" y="8911"><tspan fill="rgb(0,0,0)" stroke="none">20%</tspan></tspan></tspan></text>
 <text class="TextShape"><tspan class="TextParagraph" font-family="Liberation Sans, sans-serif" font-size="388px" font-weight="700"><tspan class="TextPosition" x="349" y="7950"><tspan fill="rgb(0,0,0)" stroke="none">30%</tspan></tspan></tspan></text>
 <text class="TextShape"><tspan class="TextParagraph" font-family="Liberation Sans, sans-serif" font-size="388px" font-weight="700"><tspan class="TextPosition" x="349" y="6990"><tspan fill="rgb(0,0,0)" stroke="none">40%</tspan></tspan></tspan></text>
 <text class="TextShape"><tspan class="TextParagraph" font-family="Liberation Sans, sans-serif" font-size="388px" font-weight="700"><tspan class="TextPosition" x="349" y="6030"><tspan fill="rgb(0,0,0)" stroke="none">50%</tspan></tspan></tspan></text>
 <text class="TextShape"><tspan class="TextParagraph" font-family="Liberation Sans, sans-serif" font-size="388px" font-weight="700"><tspan class="TextPosition" x="349" y="5069"><tspan fill="rgb(0,0,0)" stroke="none">60%</tspan></tspan></tspan></text>
 <text class="TextShape"><tspan class="TextParagraph" font-family="Liberation Sans, sans-serif" font-size="388px" font-weight="700"><tspan class="TextPosition" x="349" y="4109"><tspan fill="rgb(0,0,0)" stroke="none">70%</tspan></tspan></tspan></text>
 <text class="TextShape"><tspan class="TextParagraph" font-family="Liberation Sans, sans-serif" font-size="388px" font-weight="700"><tspan class="TextPosition" x="349" y="3148"><tspan fill="rgb(0,0,0)" stroke="none">80%</tspan></tspan></tspan></text>
 <text class="TextShape"><tspan class="TextParagraph" font-family="Liberation Sans, sans-serif" font-size="388px" font-weight="700"><tspan class="TextPosition" x="349" y="2188"><tspan fill="rgb(0,0,0)" stroke="none">90%</tspan></tspan></tspan></text>
 <text class="TextShape"><tspan class="TextParagraph" font-family="Liberation Sans, sans-serif" font-size="388px" font-weight="700"><tspan class="TextPosition" x="137" y="1228"><tspan fill="rgb(0,0,0)" stroke="none">100%</tspan></tspan></tspan></text>
 <text class="TextShape"><tspan class="TextParagraph" font-family="Liberation Sans, sans-serif" font-size="388px" font-weight="700"><tspan class="TextPosition" x="14854" y="10832"><tspan fill="rgb(0,0,0)" stroke="none">0%</tspan></tspan></tspan></text>
 <text class="TextShape"><tspan class="TextParagraph" font-family="Liberation Sans, sans-serif" font-size="388px" font-weight="700"><tspan class="TextPosition" x="14854" y="9871"><tspan fill="rgb(0,0,0)" stroke="none">10%</tspan></tspan></tspan></text>
 <text class="TextShape"><tspan class="TextParagraph" font-family="Liberation Sans, sans-serif" font-size="388px" font-weight="700"><tspan class="TextPosition" x="14854" y="8911"><tspan fill="rgb(0,0,0)" stroke="none">20%</tspan></tspan></tspan></text>
 <text class="TextShape"><tspan class="TextParagraph" font-family="Liberation Sans, sans-serif" font-size="388px" font-weight="700"><tspan class="TextPosition" x="14854" y="7950"><tspan fill="rgb(0,0,0)" stroke="none">30%</tspan></tspan></tspan></text>
 <text class="TextShape"><tspan class="TextParagraph" font-family="Liberation Sans, sans-serif" font-size="388px" font-weight="700"><tspan class="TextPosition" x="14854" y="6990"><tspan fill="rgb(0,0,0)" stroke="none">40%</tspan></tspan></tspan></text>
 <text class="TextShape"><tspan class="TextParagraph" font-family="Liberation Sans, sans-serif" font-size="388px" font-weight="700"><tspan class="TextPosition" x="14854" y="6030"><tspan fill="rgb(0,0,0)" stroke="none">50%</tspan></tspan></tspan></text>
 <text class="TextShape"><tspan class="TextParagraph" font-family="Liberation Sans, sans-serif" font-size="388px" font-weight="700"><tspan class="TextPosition" x="14854" y="5069"><tspan fill="rgb(0,0,0)" stroke="none">60%</tspan></tspan></tspan></text>
 <text class="TextShape"><tspan class="TextParagraph" font-family="Liberation Sans, sans-serif" font-size="388px" font-weight="700"><tspan class="TextPosition" x="14854" y="4109"><tspan fill="rgb(0,0,0)" stroke="none">70%</tspan></tspan></tspan></text>
 <text class="TextShape"><tspan class="TextParagraph" font-family="Liberation Sans, sans-serif" font-size="388px" font-weight="700"><tspan class="TextPosition" x="14854" y="3148"><tspan fill="rgb(0,0,0)" stroke="none">80%</tspan></tspan></tspan></text>
 <text class="TextShape"><tspan class="TextParagraph" font-family="Liberation Sans, sans-serif" font-size="388px" font-weight="700"><tspan class="TextPosition" x="14854" y="2188"><tspan fill="rgb(0,0,0)" stroke="none">90%</tspan></tspan></tspan></text>
 <text class="TextShape"><tspan class="TextParagraph" font-family="Liberation Sans, sans-serif" font-size="388px" font-weight="700"><tspan class="TextPosition" x="14854" y="1228"><tspan fill="rgb(0,0,0)" stroke="none">100%</tspan></tspan></tspan></text>
 <text class="TextShape"><tspan class="TextParagraph" font-family="Arial, sans-serif" font-size="635px" font-weight="400"><tspan class="TextPosition" x="4297" y="759"><tspan fill="rgb(0,0,0)" stroke="none">Utilizacin de navegadores</tspan></tspan></tspan></text>
 <path fill="rgb(255,211,32)" stroke="none" d="M 10787,11722 L 10681,11722 10681,11511 10892,11511 10892,11722 10787,11722 Z"/>
 <path fill="none" stroke="rgb(0,0,0)" stroke-linejoin="round" d="M 10787,11722 L 10681,11722 10681,11511 10892,11511 10892,11722 10787,11722 Z"/>
 <path fill="rgb(0,69,134)" stroke="none" d="M 9880,11722 L 9774,11722 9774,11511 9985,11511 9985,11722 9880,11722 Z"/>
 <path fill="none" stroke="rgb(0,0,0)" stroke-linejoin="round" d="M 9880,11722 L 9774,11722 9774,11511 9985,11511 9985,11722 9880,11722 Z"/>
 <path fill="rgb(87,157,28)" stroke="none" d="M 8364,11722 L 8258,11722 8258,11511 8469,11511 8469,11722 8364,11722 Z"/>
 <path fill="none" stroke="rgb(0,0,0)" stroke-linejoin="round" d="M 8364,11722 L 8258,11722 8258,11511 8469,11511 8469,11722 8364,11722 Z"/>
 <path fill="rgb(255,66,14)" stroke="none" d="M 6663,11722 L 6558,11722 6558,11511 6769,11511 6769,11722 6663,11722 Z"/>
 <path fill="none" stroke="rgb(0,0,0)" stroke-linejoin="round" d="M 6663,11722 L 6558,11722 6558,11511 6769,11511 6769,11722 6663,11722 Z"/>
 <path fill="rgb(126,0,33)" stroke="none" d="M 5121,11722 L 5016,11722 5016,11511 5227,11511 5227,11722 5121,11722 Z"/>
 <path fill="none" stroke="rgb(0,0,0)" stroke-linejoin="round" d="M 5121,11722 L 5016,11722 5016,11511 5227,11511 5227,11722 5121,11722 Z"/>
 <path fill="rgb(131,202,255)" stroke="none" d="M 3658,11722 L 3553,11722 3553,11511 3764,11511 3764,11722 3658,11722 Z"/>
 <path fill="none" stroke="rgb(0,0,0)" stroke-linejoin="round" d="M 3658,11722 L 3553,11722 3553,11511 3764,11511 3764,11722 3658,11722 Z"/>
 <text class="TextShape"><tspan class="TextParagraph" font-family="Arial, sans-serif" font-size="353px" font-weight="700"><tspan class="TextPosition" x="3864" y="11735"><tspan fill="rgb(0,0,0)" stroke="none">Otros</tspan></tspan></tspan></text>
 <text class="TextShape"><tspan class="TextParagraph" font-family="Arial, sans-serif" font-size="353px" font-weight="700"><tspan class="TextPosition" x="5327" y="11735"><tspan fill="rgb(0,0,0)" stroke="none">Opera</tspan></tspan></tspan></text>
 <text class="TextShape"><tspan class="TextParagraph" font-family="Arial, sans-serif" font-size="353px" font-weight="700"><tspan class="TextPosition" x="6869" y="11735"><tspan fill="rgb(0,0,0)" stroke="none">Firefox</tspan></tspan></tspan></text>
 <text class="TextShape"><tspan class="TextParagraph" font-family="Arial, sans-serif" font-size="353px" font-weight="700"><tspan class="TextPosition" x="8569" y="11735"><tspan fill="rgb(0,0,0)" stroke="none">Safari</tspan></tspan></tspan></text>
 <text class="TextShape"><tspan class="TextParagraph" font-family="Arial, sans-serif" font-size="353px" font-weight="700"><tspan class="TextPosition" x="10085" y="11735"><tspan fill="rgb(0,0,0)" stroke="none">IE</tspan></tspan></tspan></text>
 <text class="TextShape"><tspan class="TextParagraph" font-family="Arial, sans-serif" font-size="353px" font-weight="700"><tspan class="TextPosition" x="10992" y="11735"><tspan fill="rgb(0,0,0)" stroke="none">Chrome</tspan></tspan></tspan></text>
</svg>
