<?xml version="1.0" encoding="UTF-8"?>
<!DOCTYPE svg PUBLIC "-//W3C//DTD SVG 1.1//EN" "http://www.w3.org/Graphics/SVG/1.1/DTD/svg11.dtd">
<svg width="163mm" height="122mm" viewBox="0 0 16300 12200" version="1.1" xmlns="http://www.w3.org/2000/svg" stroke-width="28.222" stroke-linejoin="round" xml:space="preserve">
 <path fill="rgb(255,255,255)" stroke="none" d="M 8184,12221 L 12,12221 12,0 16356,0 16356,12221 8184,12221 Z"/>
 <path fill="none" stroke="rgb(179,179,179)" stroke-linejoin="round" d="M 8119,10762 L 1428,10762 1428,1093 14809,1093 14809,10762 8119,10762 Z"/>
 <path fill="none" stroke="rgb(179,179,179)" stroke-linejoin="round" d="M 14809,10761 L 1428,10761"/>
 <path fill="none" stroke="rgb(179,179,179)" stroke-linejoin="round" d="M 14809,9794 L 1428,9794"/>
 <path fill="none" stroke="rgb(179,179,179)" stroke-linejoin="round" d="M 14809,8827 L 1428,8827"/>
 <path fill="none" stroke="rgb(179,179,179)" stroke-linejoin="round" d="M 14809,7860 L 1428,7860"/>
 <path fill="none" stroke="rgb(179,179,179)" stroke-linejoin="round" d="M 14809,6893 L 1428,6893"/>
 <path fill="none" stroke="rgb(179,179,179)" stroke-linejoin="round" d="M 14809,5927 L 1428,5927"/>
 <path fill="none" stroke="rgb(179,179,179)" stroke-linejoin="round" d="M 14809,4959 L 1428,4959"/>
 <path fill="none" stroke="rgb(179,179,179)" stroke-linejoin="round" d="M 14809,3992 L 1428,3992"/>
 <path fill="none" stroke="rgb(179,179,179)" stroke-linejoin="round" d="M 14809,3026 L 1428,3026"/>
 <path fill="none" stroke="rgb(179,179,179)" stroke-linejoin="round" d="M 14809,2059 L 1428,2059"/>
 <path fill="none" stroke="rgb(179,179,179)" stroke-linejoin="round" d="M 14809,1092 L 1428,1092"/>
 <path fill="none" stroke="rgb(0,0,0)" stroke-width="30" stroke-linejoin="round" d="M 1428,10911 L 1428,10761"/>
 <path fill="none" stroke="rgb(0,0,0)" stroke-width="30" stroke-linejoin="round" d="M 1428,10911 L 1428,10761"/>
 <path fill="none" stroke="rgb(0,0,0)" stroke-width="30" stroke-linejoin="round" d="M 1544,10911 L 1544,10761"/>
 <path fill="none" stroke="rgb(0,0,0)" stroke-width="30" stroke-linejoin="round" d="M 1544,10911 L 1544,10761"/>
 <path fill="none" stroke="rgb(0,0,0)" stroke-width="30" stroke-linejoin="round" d="M 1660,10911 L 1660,10761"/>
 <path fill="none" stroke="rgb(0,0,0)" stroke-width="30" stroke-linejoin="round" d="M 1660,10911 L 1660,10761"/>
 <path fill="none" stroke="rgb(0,0,0)" stroke-width="30" stroke-linejoin="round" d="M 1777,10911 L 1777,10761"/>
 <path fill="none" stroke="rgb(0,0,0)" stroke-width="30" stroke-linejoin="round" d="M 1777,10911 L 1777,10761"/>
 <path fill="none" stroke="rgb(0,0,0)" stroke-width="30" stroke-linejoin="round" d="M 1893,10911 L 1893,10761"/>
 <path fill="none" stroke="rgb(0,0,0)" stroke-width="30" stroke-linejoin="round" d="M 1893,10911 L 1893,10761"/>
 <path fill="none" stroke="rgb(0,0,0)" stroke-width="30" stroke-linejoin="round" d="M 2009,10911 L 2009,10761"/>
 <path fill="none" stroke="rgb(0,0,0)" stroke-width="30" stroke-linejoin="round" d="M 2009,10911 L 2009,10761"/>
 <path fill="none" stroke="rgb(0,0,0)" stroke-width="30" stroke-linejoin="round" d="M 2126,10911 L 2126,10761"/>
 <path fill="none" stroke="rgb(0,0,0)" stroke-width="30" stroke-linejoin="round" d="M 2126,10911 L 2126,10761"/>
 <path fill="none" stroke="rgb(0,0,0)" stroke-width="30" stroke-linejoin="round" d="M 2242,10911 L 2242,10761"/>
 <path fill="none" stroke="rgb(0,0,0)" stroke-width="30" stroke-linejoin="round" d="M 2242,10911 L 2242,10761"/>
 <path fill="none" stroke="rgb(0,0,0)" stroke-width="30" stroke-linejoin="round" d="M 2358,10911 L 2358,10761"/>
 <path fill="none" stroke="rgb(0,0,0)" stroke-width="30" stroke-linejoin="round" d="M 2358,10911 L 2358,10761"/>
 <path fill="none" stroke="rgb(0,0,0)" stroke-width="30" stroke-linejoin="round" d="M 2475,10911 L 2475,10761"/>
 <path fill="none" stroke="rgb(0,0,0)" stroke-width="30" stroke-linejoin="round" d="M 2475,10911 L 2475,10761"/>
 <path fill="none" stroke="rgb(0,0,0)" stroke-width="30" stroke-linejoin="round" d="M 2591,10911 L 2591,10761"/>
 <path fill="none" stroke="rgb(0,0,0)" stroke-width="30" stroke-linejoin="round" d="M 2591,10911 L 2591,10761"/>
 <path fill="none" stroke="rgb(0,0,0)" stroke-width="30" stroke-linejoin="round" d="M 2708,10911 L 2708,10761"/>
 <path fill="none" stroke="rgb(0,0,0)" stroke-width="30" stroke-linejoin="round" d="M 2708,10911 L 2708,10761"/>
 <path fill="none" stroke="rgb(0,0,0)" stroke-width="30" stroke-linejoin="round" d="M 2824,10911 L 2824,10761"/>
 <path fill="none" stroke="rgb(0,0,0)" stroke-width="30" stroke-linejoin="round" d="M 2824,10911 L 2824,10761"/>
 <path fill="none" stroke="rgb(0,0,0)" stroke-width="30" stroke-linejoin="round" d="M 2940,10911 L 2940,10761"/>
 <path fill="none" stroke="rgb(0,0,0)" stroke-width="30" stroke-linejoin="round" d="M 2940,10911 L 2940,10761"/>
 <path fill="none" stroke="rgb(0,0,0)" stroke-width="30" stroke-linejoin="round" d="M 3057,10911 L 3057,10761"/>
 <path fill="none" stroke="rgb(0,0,0)" stroke-width="30" stroke-linejoin="round" d="M 3057,10911 L 3057,10761"/>
 <path fill="none" stroke="rgb(0,0,0)" stroke-width="30" stroke-linejoin="round" d="M 3173,10911 L 3173,10761"/>
 <path fill="none" stroke="rgb(0,0,0)" stroke-width="30" stroke-linejoin="round" d="M 3173,10911 L 3173,10761"/>
 <path fill="none" stroke="rgb(0,0,0)" stroke-width="30" stroke-linejoin="round" d="M 3289,10911 L 3289,10761"/>
 <path fill="none" stroke="rgb(0,0,0)" stroke-width="30" stroke-linejoin="round" d="M 3289,10911 L 3289,10761"/>
 <path fill="none" stroke="rgb(0,0,0)" stroke-width="30" stroke-linejoin="round" d="M 3406,10911 L 3406,10761"/>
 <path fill="none" stroke="rgb(0,0,0)" stroke-width="30" stroke-linejoin="round" d="M 3406,10911 L 3406,10761"/>
 <path fill="none" stroke="rgb(0,0,0)" stroke-width="30" stroke-linejoin="round" d="M 3522,10911 L 3522,10761"/>
 <path fill="none" stroke="rgb(0,0,0)" stroke-width="30" stroke-linejoin="round" d="M 3522,10911 L 3522,10761"/>
 <path fill="none" stroke="rgb(0,0,0)" stroke-width="30" stroke-linejoin="round" d="M 3638,10911 L 3638,10761"/>
 <path fill="none" stroke="rgb(0,0,0)" stroke-width="30" stroke-linejoin="round" d="M 3638,10911 L 3638,10761"/>
 <path fill="none" stroke="rgb(0,0,0)" stroke-width="30" stroke-linejoin="round" d="M 3755,10911 L 3755,10761"/>
 <path fill="none" stroke="rgb(0,0,0)" stroke-width="30" stroke-linejoin="round" d="M 3755,10911 L 3755,10761"/>
 <path fill="none" stroke="rgb(0,0,0)" stroke-width="30" stroke-linejoin="round" d="M 3871,10911 L 3871,10761"/>
 <path fill="none" stroke="rgb(0,0,0)" stroke-width="30" stroke-linejoin="round" d="M 3871,10911 L 3871,10761"/>
 <path fill="none" stroke="rgb(0,0,0)" stroke-width="30" stroke-linejoin="round" d="M 3988,10911 L 3988,10761"/>
 <path fill="none" stroke="rgb(0,0,0)" stroke-width="30" stroke-linejoin="round" d="M 3988,10911 L 3988,10761"/>
 <path fill="none" stroke="rgb(0,0,0)" stroke-width="30" stroke-linejoin="round" d="M 4104,10911 L 4104,10761"/>
 <path fill="none" stroke="rgb(0,0,0)" stroke-width="30" stroke-linejoin="round" d="M 4104,10911 L 4104,10761"/>
 <path fill="none" stroke="rgb(0,0,0)" stroke-width="30" stroke-linejoin="round" d="M 4220,10911 L 4220,10761"/>
 <path fill="none" stroke="rgb(0,0,0)" stroke-width="30" stroke-linejoin="round" d="M 4220,10911 L 4220,10761"/>
 <path fill="none" stroke="rgb(0,0,0)" stroke-width="30" stroke-linejoin="round" d="M 4337,10911 L 4337,10761"/>
 <path fill="none" stroke="rgb(0,0,0)" stroke-width="30" stroke-linejoin="round" d="M 4337,10911 L 4337,10761"/>
 <path fill="none" stroke="rgb(0,0,0)" stroke-width="30" stroke-linejoin="round" d="M 4453,10911 L 4453,10761"/>
 <path fill="none" stroke="rgb(0,0,0)" stroke-width="30" stroke-linejoin="round" d="M 4453,10911 L 4453,10761"/>
 <path fill="none" stroke="rgb(0,0,0)" stroke-width="30" stroke-linejoin="round" d="M 4569,10911 L 4569,10761"/>
 <path fill="none" stroke="rgb(0,0,0)" stroke-width="30" stroke-linejoin="round" d="M 4569,10911 L 4569,10761"/>
 <path fill="none" stroke="rgb(0,0,0)" stroke-width="30" stroke-linejoin="round" d="M 4686,10911 L 4686,10761"/>
 <path fill="none" stroke="rgb(0,0,0)" stroke-width="30" stroke-linejoin="round" d="M 4686,10911 L 4686,10761"/>
 <path fill="none" stroke="rgb(0,0,0)" stroke-width="30" stroke-linejoin="round" d="M 4802,10911 L 4802,10761"/>
 <path fill="none" stroke="rgb(0,0,0)" stroke-width="30" stroke-linejoin="round" d="M 4802,10911 L 4802,10761"/>
 <path fill="none" stroke="rgb(0,0,0)" stroke-width="30" stroke-linejoin="round" d="M 4918,10911 L 4918,10761"/>
 <path fill="none" stroke="rgb(0,0,0)" stroke-width="30" stroke-linejoin="round" d="M 4918,10911 L 4918,10761"/>
 <path fill="none" stroke="rgb(0,0,0)" stroke-width="30" stroke-linejoin="round" d="M 5035,10911 L 5035,10761"/>
 <path fill="none" stroke="rgb(0,0,0)" stroke-width="30" stroke-linejoin="round" d="M 5035,10911 L 5035,10761"/>
 <path fill="none" stroke="rgb(0,0,0)" stroke-width="30" stroke-linejoin="round" d="M 5151,10911 L 5151,10761"/>
 <path fill="none" stroke="rgb(0,0,0)" stroke-width="30" stroke-linejoin="round" d="M 5151,10911 L 5151,10761"/>
 <path fill="none" stroke="rgb(0,0,0)" stroke-width="30" stroke-linejoin="round" d="M 5268,10911 L 5268,10761"/>
 <path fill="none" stroke="rgb(0,0,0)" stroke-width="30" stroke-linejoin="round" d="M 5268,10911 L 5268,10761"/>
 <path fill="none" stroke="rgb(0,0,0)" stroke-width="30" stroke-linejoin="round" d="M 5384,10911 L 5384,10761"/>
 <path fill="none" stroke="rgb(0,0,0)" stroke-width="30" stroke-linejoin="round" d="M 5384,10911 L 5384,10761"/>
 <path fill="none" stroke="rgb(0,0,0)" stroke-width="30" stroke-linejoin="round" d="M 5500,10911 L 5500,10761"/>
 <path fill="none" stroke="rgb(0,0,0)" stroke-width="30" stroke-linejoin="round" d="M 5500,10911 L 5500,10761"/>
 <path fill="none" stroke="rgb(0,0,0)" stroke-width="30" stroke-linejoin="round" d="M 5617,10911 L 5617,10761"/>
 <path fill="none" stroke="rgb(0,0,0)" stroke-width="30" stroke-linejoin="round" d="M 5617,10911 L 5617,10761"/>
 <path fill="none" stroke="rgb(0,0,0)" stroke-width="30" stroke-linejoin="round" d="M 5733,10911 L 5733,10761"/>
 <path fill="none" stroke="rgb(0,0,0)" stroke-width="30" stroke-linejoin="round" d="M 5733,10911 L 5733,10761"/>
 <path fill="none" stroke="rgb(0,0,0)" stroke-width="30" stroke-linejoin="round" d="M 5849,10911 L 5849,10761"/>
 <path fill="none" stroke="rgb(0,0,0)" stroke-width="30" stroke-linejoin="round" d="M 5849,10911 L 5849,10761"/>
 <path fill="none" stroke="rgb(0,0,0)" stroke-width="30" stroke-linejoin="round" d="M 5966,10911 L 5966,10761"/>
 <path fill="none" stroke="rgb(0,0,0)" stroke-width="30" stroke-linejoin="round" d="M 5966,10911 L 5966,10761"/>
 <path fill="none" stroke="rgb(0,0,0)" stroke-width="30" stroke-linejoin="round" d="M 6082,10911 L 6082,10761"/>
 <path fill="none" stroke="rgb(0,0,0)" stroke-width="30" stroke-linejoin="round" d="M 6082,10911 L 6082,10761"/>
 <path fill="none" stroke="rgb(0,0,0)" stroke-width="30" stroke-linejoin="round" d="M 6198,10911 L 6198,10761"/>
 <path fill="none" stroke="rgb(0,0,0)" stroke-width="30" stroke-linejoin="round" d="M 6198,10911 L 6198,10761"/>
 <path fill="none" stroke="rgb(0,0,0)" stroke-width="30" stroke-linejoin="round" d="M 6315,10911 L 6315,10761"/>
 <path fill="none" stroke="rgb(0,0,0)" stroke-width="30" stroke-linejoin="round" d="M 6315,10911 L 6315,10761"/>
 <path fill="none" stroke="rgb(0,0,0)" stroke-width="30" stroke-linejoin="round" d="M 6431,10911 L 6431,10761"/>
 <path fill="none" stroke="rgb(0,0,0)" stroke-width="30" stroke-linejoin="round" d="M 6431,10911 L 6431,10761"/>
 <path fill="none" stroke="rgb(0,0,0)" stroke-width="30" stroke-linejoin="round" d="M 6548,10911 L 6548,10761"/>
 <path fill="none" stroke="rgb(0,0,0)" stroke-width="30" stroke-linejoin="round" d="M 6548,10911 L 6548,10761"/>
 <path fill="none" stroke="rgb(0,0,0)" stroke-width="30" stroke-linejoin="round" d="M 6664,10911 L 6664,10761"/>
 <path fill="none" stroke="rgb(0,0,0)" stroke-width="30" stroke-linejoin="round" d="M 6664,10911 L 6664,10761"/>
 <path fill="none" stroke="rgb(0,0,0)" stroke-width="30" stroke-linejoin="round" d="M 6780,10911 L 6780,10761"/>
 <path fill="none" stroke="rgb(0,0,0)" stroke-width="30" stroke-linejoin="round" d="M 6780,10911 L 6780,10761"/>
 <path fill="none" stroke="rgb(0,0,0)" stroke-width="30" stroke-linejoin="round" d="M 6897,10911 L 6897,10761"/>
 <path fill="none" stroke="rgb(0,0,0)" stroke-width="30" stroke-linejoin="round" d="M 6897,10911 L 6897,10761"/>
 <path fill="none" stroke="rgb(0,0,0)" stroke-width="30" stroke-linejoin="round" d="M 7013,10911 L 7013,10761"/>
 <path fill="none" stroke="rgb(0,0,0)" stroke-width="30" stroke-linejoin="round" d="M 7013,10911 L 7013,10761"/>
 <path fill="none" stroke="rgb(0,0,0)" stroke-width="30" stroke-linejoin="round" d="M 7129,10911 L 7129,10761"/>
 <path fill="none" stroke="rgb(0,0,0)" stroke-width="30" stroke-linejoin="round" d="M 7129,10911 L 7129,10761"/>
 <path fill="none" stroke="rgb(0,0,0)" stroke-width="30" stroke-linejoin="round" d="M 7246,10911 L 7246,10761"/>
 <path fill="none" stroke="rgb(0,0,0)" stroke-width="30" stroke-linejoin="round" d="M 7246,10911 L 7246,10761"/>
 <path fill="none" stroke="rgb(0,0,0)" stroke-width="30" stroke-linejoin="round" d="M 7362,10911 L 7362,10761"/>
 <path fill="none" stroke="rgb(0,0,0)" stroke-width="30" stroke-linejoin="round" d="M 7362,10911 L 7362,10761"/>
 <path fill="none" stroke="rgb(0,0,0)" stroke-width="30" stroke-linejoin="round" d="M 7478,10911 L 7478,10761"/>
 <path fill="none" stroke="rgb(0,0,0)" stroke-width="30" stroke-linejoin="round" d="M 7478,10911 L 7478,10761"/>
 <path fill="none" stroke="rgb(0,0,0)" stroke-width="30" stroke-linejoin="round" d="M 7595,10911 L 7595,10761"/>
 <path fill="none" stroke="rgb(0,0,0)" stroke-width="30" stroke-linejoin="round" d="M 7595,10911 L 7595,10761"/>
 <path fill="none" stroke="rgb(0,0,0)" stroke-width="30" stroke-linejoin="round" d="M 7711,10911 L 7711,10761"/>
 <path fill="none" stroke="rgb(0,0,0)" stroke-width="30" stroke-linejoin="round" d="M 7711,10911 L 7711,10761"/>
 <path fill="none" stroke="rgb(0,0,0)" stroke-width="30" stroke-linejoin="round" d="M 7828,10911 L 7828,10761"/>
 <path fill="none" stroke="rgb(0,0,0)" stroke-width="30" stroke-linejoin="round" d="M 7828,10911 L 7828,10761"/>
 <path fill="none" stroke="rgb(0,0,0)" stroke-width="30" stroke-linejoin="round" d="M 7944,10911 L 7944,10761"/>
 <path fill="none" stroke="rgb(0,0,0)" stroke-width="30" stroke-linejoin="round" d="M 7944,10911 L 7944,10761"/>
 <path fill="none" stroke="rgb(0,0,0)" stroke-width="30" stroke-linejoin="round" d="M 8060,10911 L 8060,10761"/>
 <path fill="none" stroke="rgb(0,0,0)" stroke-width="30" stroke-linejoin="round" d="M 8060,10911 L 8060,10761"/>
 <path fill="none" stroke="rgb(0,0,0)" stroke-width="30" stroke-linejoin="round" d="M 8177,10911 L 8177,10761"/>
 <path fill="none" stroke="rgb(0,0,0)" stroke-width="30" stroke-linejoin="round" d="M 8177,10911 L 8177,10761"/>
 <path fill="none" stroke="rgb(0,0,0)" stroke-width="30" stroke-linejoin="round" d="M 8292,10911 L 8292,10761"/>
 <path fill="none" stroke="rgb(0,0,0)" stroke-width="30" stroke-linejoin="round" d="M 8292,10911 L 8292,10761"/>
 <path fill="none" stroke="rgb(0,0,0)" stroke-width="30" stroke-linejoin="round" d="M 8408,10911 L 8408,10761"/>
 <path fill="none" stroke="rgb(0,0,0)" stroke-width="30" stroke-linejoin="round" d="M 8408,10911 L 8408,10761"/>
 <path fill="none" stroke="rgb(0,0,0)" stroke-width="30" stroke-linejoin="round" d="M 8525,10911 L 8525,10761"/>
 <path fill="none" stroke="rgb(0,0,0)" stroke-width="30" stroke-linejoin="round" d="M 8525,10911 L 8525,10761"/>
 <path fill="none" stroke="rgb(0,0,0)" stroke-width="30" stroke-linejoin="round" d="M 8641,10911 L 8641,10761"/>
 <path fill="none" stroke="rgb(0,0,0)" stroke-width="30" stroke-linejoin="round" d="M 8641,10911 L 8641,10761"/>
 <path fill="none" stroke="rgb(0,0,0)" stroke-width="30" stroke-linejoin="round" d="M 8758,10911 L 8758,10761"/>
 <path fill="none" stroke="rgb(0,0,0)" stroke-width="30" stroke-linejoin="round" d="M 8758,10911 L 8758,10761"/>
 <path fill="none" stroke="rgb(0,0,0)" stroke-width="30" stroke-linejoin="round" d="M 8874,10911 L 8874,10761"/>
 <path fill="none" stroke="rgb(0,0,0)" stroke-width="30" stroke-linejoin="round" d="M 8874,10911 L 8874,10761"/>
 <path fill="none" stroke="rgb(0,0,0)" stroke-width="30" stroke-linejoin="round" d="M 8990,10911 L 8990,10761"/>
 <path fill="none" stroke="rgb(0,0,0)" stroke-width="30" stroke-linejoin="round" d="M 8990,10911 L 8990,10761"/>
 <path fill="none" stroke="rgb(0,0,0)" stroke-width="30" stroke-linejoin="round" d="M 9107,10911 L 9107,10761"/>
 <path fill="none" stroke="rgb(0,0,0)" stroke-width="30" stroke-linejoin="round" d="M 9107,10911 L 9107,10761"/>
 <path fill="none" stroke="rgb(0,0,0)" stroke-width="30" stroke-linejoin="round" d="M 9223,10911 L 9223,10761"/>
 <path fill="none" stroke="rgb(0,0,0)" stroke-width="30" stroke-linejoin="round" d="M 9223,10911 L 9223,10761"/>
 <path fill="none" stroke="rgb(0,0,0)" stroke-width="30" stroke-linejoin="round" d="M 9339,10911 L 9339,10761"/>
 <path fill="none" stroke="rgb(0,0,0)" stroke-width="30" stroke-linejoin="round" d="M 9339,10911 L 9339,10761"/>
 <path fill="none" stroke="rgb(0,0,0)" stroke-width="30" stroke-linejoin="round" d="M 9456,10911 L 9456,10761"/>
 <path fill="none" stroke="rgb(0,0,0)" stroke-width="30" stroke-linejoin="round" d="M 9456,10911 L 9456,10761"/>
 <path fill="none" stroke="rgb(0,0,0)" stroke-width="30" stroke-linejoin="round" d="M 9572,10911 L 9572,10761"/>
 <path fill="none" stroke="rgb(0,0,0)" stroke-width="30" stroke-linejoin="round" d="M 9572,10911 L 9572,10761"/>
 <path fill="none" stroke="rgb(0,0,0)" stroke-width="30" stroke-linejoin="round" d="M 9688,10911 L 9688,10761"/>
 <path fill="none" stroke="rgb(0,0,0)" stroke-width="30" stroke-linejoin="round" d="M 9688,10911 L 9688,10761"/>
 <path fill="none" stroke="rgb(0,0,0)" stroke-width="30" stroke-linejoin="round" d="M 9805,10911 L 9805,10761"/>
 <path fill="none" stroke="rgb(0,0,0)" stroke-width="30" stroke-linejoin="round" d="M 9805,10911 L 9805,10761"/>
 <path fill="none" stroke="rgb(0,0,0)" stroke-width="30" stroke-linejoin="round" d="M 9921,10911 L 9921,10761"/>
 <path fill="none" stroke="rgb(0,0,0)" stroke-width="30" stroke-linejoin="round" d="M 9921,10911 L 9921,10761"/>
 <path fill="none" stroke="rgb(0,0,0)" stroke-width="30" stroke-linejoin="round" d="M 10038,10911 L 10038,10761"/>
 <path fill="none" stroke="rgb(0,0,0)" stroke-width="30" stroke-linejoin="round" d="M 10038,10911 L 10038,10761"/>
 <path fill="none" stroke="rgb(0,0,0)" stroke-width="30" stroke-linejoin="round" d="M 10154,10911 L 10154,10761"/>
 <path fill="none" stroke="rgb(0,0,0)" stroke-width="30" stroke-linejoin="round" d="M 10154,10911 L 10154,10761"/>
 <path fill="none" stroke="rgb(0,0,0)" stroke-width="30" stroke-linejoin="round" d="M 10270,10911 L 10270,10761"/>
 <path fill="none" stroke="rgb(0,0,0)" stroke-width="30" stroke-linejoin="round" d="M 10270,10911 L 10270,10761"/>
 <path fill="none" stroke="rgb(0,0,0)" stroke-width="30" stroke-linejoin="round" d="M 10387,10911 L 10387,10761"/>
 <path fill="none" stroke="rgb(0,0,0)" stroke-width="30" stroke-linejoin="round" d="M 10387,10911 L 10387,10761"/>
 <path fill="none" stroke="rgb(0,0,0)" stroke-width="30" stroke-linejoin="round" d="M 10503,10911 L 10503,10761"/>
 <path fill="none" stroke="rgb(0,0,0)" stroke-width="30" stroke-linejoin="round" d="M 10503,10911 L 10503,10761"/>
 <path fill="none" stroke="rgb(0,0,0)" stroke-width="30" stroke-linejoin="round" d="M 10619,10911 L 10619,10761"/>
 <path fill="none" stroke="rgb(0,0,0)" stroke-width="30" stroke-linejoin="round" d="M 10619,10911 L 10619,10761"/>
 <path fill="none" stroke="rgb(0,0,0)" stroke-width="30" stroke-linejoin="round" d="M 10736,10911 L 10736,10761"/>
 <path fill="none" stroke="rgb(0,0,0)" stroke-width="30" stroke-linejoin="round" d="M 10736,10911 L 10736,10761"/>
 <path fill="none" stroke="rgb(0,0,0)" stroke-width="30" stroke-linejoin="round" d="M 10852,10911 L 10852,10761"/>
 <path fill="none" stroke="rgb(0,0,0)" stroke-width="30" stroke-linejoin="round" d="M 10852,10911 L 10852,10761"/>
 <path fill="none" stroke="rgb(0,0,0)" stroke-width="30" stroke-linejoin="round" d="M 10968,10911 L 10968,10761"/>
 <path fill="none" stroke="rgb(0,0,0)" stroke-width="30" stroke-linejoin="round" d="M 10968,10911 L 10968,10761"/>
 <path fill="none" stroke="rgb(0,0,0)" stroke-width="30" stroke-linejoin="round" d="M 11085,10911 L 11085,10761"/>
 <path fill="none" stroke="rgb(0,0,0)" stroke-width="30" stroke-linejoin="round" d="M 11085,10911 L 11085,10761"/>
 <path fill="none" stroke="rgb(0,0,0)" stroke-width="30" stroke-linejoin="round" d="M 11201,10911 L 11201,10761"/>
 <path fill="none" stroke="rgb(0,0,0)" stroke-width="30" stroke-linejoin="round" d="M 11201,10911 L 11201,10761"/>
 <path fill="none" stroke="rgb(0,0,0)" stroke-width="30" stroke-linejoin="round" d="M 11318,10911 L 11318,10761"/>
 <path fill="none" stroke="rgb(0,0,0)" stroke-width="30" stroke-linejoin="round" d="M 11318,10911 L 11318,10761"/>
 <path fill="none" stroke="rgb(0,0,0)" stroke-width="30" stroke-linejoin="round" d="M 11434,10911 L 11434,10761"/>
 <path fill="none" stroke="rgb(0,0,0)" stroke-width="30" stroke-linejoin="round" d="M 11434,10911 L 11434,10761"/>
 <path fill="none" stroke="rgb(0,0,0)" stroke-width="30" stroke-linejoin="round" d="M 11550,10911 L 11550,10761"/>
 <path fill="none" stroke="rgb(0,0,0)" stroke-width="30" stroke-linejoin="round" d="M 11550,10911 L 11550,10761"/>
 <path fill="none" stroke="rgb(0,0,0)" stroke-width="30" stroke-linejoin="round" d="M 11667,10911 L 11667,10761"/>
 <path fill="none" stroke="rgb(0,0,0)" stroke-width="30" stroke-linejoin="round" d="M 11667,10911 L 11667,10761"/>
 <path fill="none" stroke="rgb(0,0,0)" stroke-width="30" stroke-linejoin="round" d="M 11783,10911 L 11783,10761"/>
 <path fill="none" stroke="rgb(0,0,0)" stroke-width="30" stroke-linejoin="round" d="M 11783,10911 L 11783,10761"/>
 <path fill="none" stroke="rgb(0,0,0)" stroke-width="30" stroke-linejoin="round" d="M 11899,10911 L 11899,10761"/>
 <path fill="none" stroke="rgb(0,0,0)" stroke-width="30" stroke-linejoin="round" d="M 11899,10911 L 11899,10761"/>
 <path fill="none" stroke="rgb(0,0,0)" stroke-width="30" stroke-linejoin="round" d="M 12016,10911 L 12016,10761"/>
 <path fill="none" stroke="rgb(0,0,0)" stroke-width="30" stroke-linejoin="round" d="M 12016,10911 L 12016,10761"/>
 <path fill="none" stroke="rgb(0,0,0)" stroke-width="30" stroke-linejoin="round" d="M 12132,10911 L 12132,10761"/>
 <path fill="none" stroke="rgb(0,0,0)" stroke-width="30" stroke-linejoin="round" d="M 12132,10911 L 12132,10761"/>
 <path fill="none" stroke="rgb(0,0,0)" stroke-width="30" stroke-linejoin="round" d="M 12248,10911 L 12248,10761"/>
 <path fill="none" stroke="rgb(0,0,0)" stroke-width="30" stroke-linejoin="round" d="M 12248,10911 L 12248,10761"/>
 <path fill="none" stroke="rgb(0,0,0)" stroke-width="30" stroke-linejoin="round" d="M 12365,10911 L 12365,10761"/>
 <path fill="none" stroke="rgb(0,0,0)" stroke-width="30" stroke-linejoin="round" d="M 12365,10911 L 12365,10761"/>
 <path fill="none" stroke="rgb(0,0,0)" stroke-width="30" stroke-linejoin="round" d="M 12481,10911 L 12481,10761"/>
 <path fill="none" stroke="rgb(0,0,0)" stroke-width="30" stroke-linejoin="round" d="M 12481,10911 L 12481,10761"/>
 <path fill="none" stroke="rgb(0,0,0)" stroke-width="30" stroke-linejoin="round" d="M 12598,10911 L 12598,10761"/>
 <path fill="none" stroke="rgb(0,0,0)" stroke-width="30" stroke-linejoin="round" d="M 12598,10911 L 12598,10761"/>
 <path fill="none" stroke="rgb(0,0,0)" stroke-width="30" stroke-linejoin="round" d="M 12714,10911 L 12714,10761"/>
 <path fill="none" stroke="rgb(0,0,0)" stroke-width="30" stroke-linejoin="round" d="M 12714,10911 L 12714,10761"/>
 <path fill="none" stroke="rgb(0,0,0)" stroke-width="30" stroke-linejoin="round" d="M 12830,10911 L 12830,10761"/>
 <path fill="none" stroke="rgb(0,0,0)" stroke-width="30" stroke-linejoin="round" d="M 12830,10911 L 12830,10761"/>
 <path fill="none" stroke="rgb(0,0,0)" stroke-width="30" stroke-linejoin="round" d="M 12947,10911 L 12947,10761"/>
 <path fill="none" stroke="rgb(0,0,0)" stroke-width="30" stroke-linejoin="round" d="M 12947,10911 L 12947,10761"/>
 <path fill="none" stroke="rgb(0,0,0)" stroke-width="30" stroke-linejoin="round" d="M 13063,10911 L 13063,10761"/>
 <path fill="none" stroke="rgb(0,0,0)" stroke-width="30" stroke-linejoin="round" d="M 13063,10911 L 13063,10761"/>
 <path fill="none" stroke="rgb(0,0,0)" stroke-width="30" stroke-linejoin="round" d="M 13179,10911 L 13179,10761"/>
 <path fill="none" stroke="rgb(0,0,0)" stroke-width="30" stroke-linejoin="round" d="M 13179,10911 L 13179,10761"/>
 <path fill="none" stroke="rgb(0,0,0)" stroke-width="30" stroke-linejoin="round" d="M 13296,10911 L 13296,10761"/>
 <path fill="none" stroke="rgb(0,0,0)" stroke-width="30" stroke-linejoin="round" d="M 13296,10911 L 13296,10761"/>
 <path fill="none" stroke="rgb(0,0,0)" stroke-width="30" stroke-linejoin="round" d="M 13412,10911 L 13412,10761"/>
 <path fill="none" stroke="rgb(0,0,0)" stroke-width="30" stroke-linejoin="round" d="M 13412,10911 L 13412,10761"/>
 <path fill="none" stroke="rgb(0,0,0)" stroke-width="30" stroke-linejoin="round" d="M 13528,10911 L 13528,10761"/>
 <path fill="none" stroke="rgb(0,0,0)" stroke-width="30" stroke-linejoin="round" d="M 13528,10911 L 13528,10761"/>
 <path fill="none" stroke="rgb(0,0,0)" stroke-width="30" stroke-linejoin="round" d="M 13645,10911 L 13645,10761"/>
 <path fill="none" stroke="rgb(0,0,0)" stroke-width="30" stroke-linejoin="round" d="M 13645,10911 L 13645,10761"/>
 <path fill="none" stroke="rgb(0,0,0)" stroke-width="30" stroke-linejoin="round" d="M 13761,10911 L 13761,10761"/>
 <path fill="none" stroke="rgb(0,0,0)" stroke-width="30" stroke-linejoin="round" d="M 13761,10911 L 13761,10761"/>
 <path fill="none" stroke="rgb(0,0,0)" stroke-width="30" stroke-linejoin="round" d="M 13878,10911 L 13878,10761"/>
 <path fill="none" stroke="rgb(0,0,0)" stroke-width="30" stroke-linejoin="round" d="M 13878,10911 L 13878,10761"/>
 <path fill="none" stroke="rgb(0,0,0)" stroke-width="30" stroke-linejoin="round" d="M 13994,10911 L 13994,10761"/>
 <path fill="none" stroke="rgb(0,0,0)" stroke-width="30" stroke-linejoin="round" d="M 13994,10911 L 13994,10761"/>
 <path fill="none" stroke="rgb(0,0,0)" stroke-width="30" stroke-linejoin="round" d="M 14110,10911 L 14110,10761"/>
 <path fill="none" stroke="rgb(0,0,0)" stroke-width="30" stroke-linejoin="round" d="M 14110,10911 L 14110,10761"/>
 <path fill="none" stroke="rgb(0,0,0)" stroke-width="30" stroke-linejoin="round" d="M 14227,10911 L 14227,10761"/>
 <path fill="none" stroke="rgb(0,0,0)" stroke-width="30" stroke-linejoin="round" d="M 14227,10911 L 14227,10761"/>
 <path fill="none" stroke="rgb(0,0,0)" stroke-width="30" stroke-linejoin="round" d="M 14343,10911 L 14343,10761"/>
 <path fill="none" stroke="rgb(0,0,0)" stroke-width="30" stroke-linejoin="round" d="M 14343,10911 L 14343,10761"/>
 <path fill="none" stroke="rgb(0,0,0)" stroke-width="30" stroke-linejoin="round" d="M 14459,10911 L 14459,10761"/>
 <path fill="none" stroke="rgb(0,0,0)" stroke-width="30" stroke-linejoin="round" d="M 14459,10911 L 14459,10761"/>
 <path fill="none" stroke="rgb(0,0,0)" stroke-width="30" stroke-linejoin="round" d="M 14576,10911 L 14576,10761"/>
 <path fill="none" stroke="rgb(0,0,0)" stroke-width="30" stroke-linejoin="round" d="M 14576,10911 L 14576,10761"/>
 <path fill="none" stroke="rgb(0,0,0)" stroke-width="30" stroke-linejoin="round" d="M 14692,10911 L 14692,10761"/>
 <path fill="none" stroke="rgb(0,0,0)" stroke-width="30" stroke-linejoin="round" d="M 14692,10911 L 14692,10761"/>
 <path fill="none" stroke="rgb(0,0,0)" stroke-width="30" stroke-linejoin="round" d="M 14809,10911 L 14809,10761"/>
 <path fill="none" stroke="rgb(0,0,0)" stroke-width="30" stroke-linejoin="round" d="M 14809,10911 L 14809,10761"/>
 <path fill="none" stroke="rgb(0,0,0)" stroke-width="30" stroke-linejoin="round" d="M 1428,10761 L 14809,10761"/>
 <path fill="none" stroke="rgb(0,0,0)" stroke-width="30" stroke-linejoin="round" d="M 1278,10761 L 1428,10761"/>
 <path fill="none" stroke="rgb(0,0,0)" stroke-width="30" stroke-linejoin="round" d="M 1278,10761 L 1428,10761"/>
 <path fill="none" stroke="rgb(0,0,0)" stroke-width="30" stroke-linejoin="round" d="M 1278,9794 L 1428,9794"/>
 <path fill="none" stroke="rgb(0,0,0)" stroke-width="30" stroke-linejoin="round" d="M 1278,9794 L 1428,9794"/>
 <path fill="none" stroke="rgb(0,0,0)" stroke-width="30" stroke-linejoin="round" d="M 1278,8827 L 1428,8827"/>
 <path fill="none" stroke="rgb(0,0,0)" stroke-width="30" stroke-linejoin="round" d="M 1278,8827 L 1428,8827"/>
 <path fill="none" stroke="rgb(0,0,0)" stroke-width="30" stroke-linejoin="round" d="M 1278,7860 L 1428,7860"/>
 <path fill="none" stroke="rgb(0,0,0)" stroke-width="30" stroke-linejoin="round" d="M 1278,7860 L 1428,7860"/>
 <path fill="none" stroke="rgb(0,0,0)" stroke-width="30" stroke-linejoin="round" d="M 1278,6893 L 1428,6893"/>
 <path fill="none" stroke="rgb(0,0,0)" stroke-width="30" stroke-linejoin="round" d="M 1278,6893 L 1428,6893"/>
 <path fill="none" stroke="rgb(0,0,0)" stroke-width="30" stroke-linejoin="round" d="M 1278,5927 L 1428,5927"/>
 <path fill="none" stroke="rgb(0,0,0)" stroke-width="30" stroke-linejoin="round" d="M 1278,5927 L 1428,5927"/>
 <path fill="none" stroke="rgb(0,0,0)" stroke-width="30" stroke-linejoin="round" d="M 1278,4959 L 1428,4959"/>
 <path fill="none" stroke="rgb(0,0,0)" stroke-width="30" stroke-linejoin="round" d="M 1278,4959 L 1428,4959"/>
 <path fill="none" stroke="rgb(0,0,0)" stroke-width="30" stroke-linejoin="round" d="M 1278,3992 L 1428,3992"/>
 <path fill="none" stroke="rgb(0,0,0)" stroke-width="30" stroke-linejoin="round" d="M 1278,3992 L 1428,3992"/>
 <path fill="none" stroke="rgb(0,0,0)" stroke-width="30" stroke-linejoin="round" d="M 1278,3026 L 1428,3026"/>
 <path fill="none" stroke="rgb(0,0,0)" stroke-width="30" stroke-linejoin="round" d="M 1278,3026 L 1428,3026"/>
 <path fill="none" stroke="rgb(0,0,0)" stroke-width="30" stroke-linejoin="round" d="M 1278,2059 L 1428,2059"/>
 <path fill="none" stroke="rgb(0,0,0)" stroke-width="30" stroke-linejoin="round" d="M 1278,2059 L 1428,2059"/>
 <path fill="none" stroke="rgb(0,0,0)" stroke-width="30" stroke-linejoin="round" d="M 1278,1092 L 1428,1092"/>
 <path fill="none" stroke="rgb(0,0,0)" stroke-width="30" stroke-linejoin="round" d="M 1278,1092 L 1428,1092"/>
 <path fill="none" stroke="rgb(0,0,0)" stroke-width="30" stroke-linejoin="round" d="M 1428,10761 L 1428,1092"/>
 <path fill="none" stroke="rgb(0,0,0)" stroke-width="30" stroke-linejoin="round" d="M 14959,10761 L 14809,10761"/>
 <path fill="none" stroke="rgb(0,0,0)" stroke-width="30" stroke-linejoin="round" d="M 14959,10761 L 14809,10761"/>
 <path fill="none" stroke="rgb(0,0,0)" stroke-width="30" stroke-linejoin="round" d="M 14959,9794 L 14809,9794"/>
 <path fill="none" stroke="rgb(0,0,0)" stroke-width="30" stroke-linejoin="round" d="M 14959,9794 L 14809,9794"/>
 <path fill="none" stroke="rgb(0,0,0)" stroke-width="30" stroke-linejoin="round" d="M 14959,8827 L 14809,8827"/>
 <path fill="none" stroke="rgb(0,0,0)" stroke-width="30" stroke-linejoin="round" d="M 14959,8827 L 14809,8827"/>
 <path fill="none" stroke="rgb(0,0,0)" stroke-width="30" stroke-linejoin="round" d="M 14959,7860 L 14809,7860"/>
 <path fill="none" stroke="rgb(0,0,0)" stroke-width="30" stroke-linejoin="round" d="M 14959,7860 L 14809,7860"/>
 <path fill="none" stroke="rgb(0,0,0)" stroke-width="30" stroke-linejoin="round" d="M 14959,6893 L 14809,6893"/>
 <path fill="none" stroke="rgb(0,0,0)" stroke-width="30" stroke-linejoin="round" d="M 14959,6893 L 14809,6893"/>
 <path fill="none" stroke="rgb(0,0,0)" stroke-width="30" stroke-linejoin="round" d="M 14959,5927 L 14809,5927"/>
 <path fill="none" stroke="rgb(0,0,0)" stroke-width="30" stroke-linejoin="round" d="M 14959,5927 L 14809,5927"/>
 <path fill="none" stroke="rgb(0,0,0)" stroke-width="30" stroke-linejoin="round" d="M 14959,4959 L 14809,4959"/>
 <path fill="none" stroke="rgb(0,0,0)" stroke-width="30" stroke-linejoin="round" d="M 14959,4959 L 14809,4959"/>
 <path fill="none" stroke="rgb(0,0,0)" stroke-width="30" stroke-linejoin="round" d="M 14959,3992 L 14809,3992"/>
 <path fill="none" stroke="rgb(0,0,0)" stroke-width="30" stroke-linejoin="round" d="M 14959,3992 L 14809,3992"/>
 <path fill="none" stroke="rgb(0,0,0)" stroke-width="30" stroke-linejoin="round" d="M 14959,3026 L 14809,3026"/>
 <path fill="none" stroke="rgb(0,0,0)" stroke-width="30" stroke-linejoin="round" d="M 14959,3026 L 14809,3026"/>
 <path fill="none" stroke="rgb(0,0,0)" stroke-width="30" stroke-linejoin="round" d="M 14959,2059 L 14809,2059"/>
 <path fill="none" stroke="rgb(0,0,0)" stroke-width="30" stroke-linejoin="round" d="M 14959,2059 L 14809,2059"/>
 <path fill="none" stroke="rgb(0,0,0)" stroke-width="30" stroke-linejoin="round" d="M 14959,1092 L 14809,1092"/>
 <path fill="none" stroke="rgb(0,0,0)" stroke-width="30" stroke-linejoin="round" d="M 14959,1092 L 14809,1092"/>
 <path fill="none" stroke="rgb(0,0,0)" stroke-width="30" stroke-linejoin="round" d="M 14809,10761 L 14809,1092"/>
 <path fill="rgb(0,69,134)" stroke="none" d="M 1428,9454 L 1544,9499 1660,9450 1777,9420 1893,9489 2009,9466 2126,9448 2242,9463 2358,9459 2475,9445 2591,9434 2708,9445 2824,9476 2940,9476 3057,9493 3173,9488 3289,9497 3406,9496 3522,9505 3638,9512 3755,9520 3871,9552 3988,9530 4104,9556 4220,9575 4337,9585 4453,9597 4569,9582 4686,9586 4802,9580 4918,9554 5035,9527 5151,9558 5268,9565 5384,9559 5500,9588 5617,9611 5733,9642 5849,9694 5966,9660 6082,9622 6198,9648 6315,9643 6431,9669 6548,9740 6664,9722 6780,9708 6897,9712 7013,9742 7129,9790 7246,9801 7362,9803 7478,9849 7595,9895 7711,9880 7828,9894 7944,9903 8060,9913 8177,9939 8292,9947 8408,9979 8525,10063 8641,10042 8758,10039 8874,10047 8990,10031 9107,10015 9223,10048 9339,10073 9456,10111 9572,10109 9688,10095 9805,10112 9921,10153 10038,10146 10154,10138 10270,10151 10387,10131 10503,10093 10619,10061 10736,10046 10852,10085 10968,10063 11085,10109 11201,10145 11318,10160 11434,10200 11550,10200 11667,10202 11783,10210 11899,10231 12016,10237 12132,10257 12248,10272 12365,10271 12481,10274 12598,10319 12714,10354 12830,10371 12947,10350 13063,10371 13179,10394 13296,10398 13412,10405 13528,10422 13645,10417 13761,10427 13878,10438 13994,10457 14110,10486 14227,10496 14343,10483 14459,10486 14576,10493 14692,10489 14809,10500 14809,10761 1428,10761 1428,9454 Z"/>
 <path fill="none" stroke="rgb(0,0,0)" stroke-linejoin="round" d="M 1428,9454 L 1544,9499 1660,9450 1777,9420 1893,9489 2009,9466 2126,9448 2242,9463 2358,9459 2475,9445 2591,9434 2708,9445 2824,9476 2940,9476 3057,9493 3173,9488 3289,9497 3406,9496 3522,9505 3638,9512 3755,9520 3871,9552 3988,9530 4104,9556 4220,9575 4337,9585 4453,9597 4569,9582 4686,9586 4802,9580 4918,9554 5035,9527 5151,9558 5268,9565 5384,9559 5500,9588 5617,9611 5733,9642 5849,9694 5966,9660 6082,9622 6198,9648 6315,9643 6431,9669 6548,9740 6664,9722 6780,9708 6897,9712 7013,9742 7129,9790 7246,9801 7362,9803 7478,9849 7595,9895 7711,9880 7828,9894 7944,9903 8060,9913 8177,9939 8292,9947 8408,9979 8525,10063 8641,10042 8758,10039 8874,10047 8990,10031 9107,10015 9223,10048 9339,10073 9456,10111 9572,10109 9688,10095 9805,10112 9921,10153 10038,10146 10154,10138 10270,10151 10387,10131 10503,10093 10619,10061 10736,10046 10852,10085 10968,10063 11085,10109 11201,10145 11318,10160 11434,10200 11550,10200 11667,10202 11783,10210 11899,10231 12016,10237 12132,10257 12248,10272 12365,10271 12481,10274 12598,10319 12714,10354 12830,10371 12947,10350 13063,10371 13179,10394 13296,10398 13412,10405 13528,10422 13645,10417 13761,10427 13878,10438 13994,10457 14110,10486 14227,10496 14343,10483 14459,10486 14576,10493 14692,10489 14809,10500 14809,10761 1428,10761 1428,9454 Z"/>
 <path fill="rgb(255,66,14)" stroke="none" d="M 1428,3687 L 1544,3793 1660,3927 1777,3993 1893,4124 2009,4074 2126,4255 2242,4373 2358,4428 2475,4537 2591,4630 2708,4679 2824,4862 2940,4973 3057,5131 3173,5165 3289,5242 3406,5317 3522,5378 3638,5462 3755,5535 3871,5639 3988,5707 4104,5773 4220,5912 4337,6016 4453,6214 4569,6254 4686,6352 4802,6431 4918,6422 5035,6428 5151,6520 5268,6629 5384,6664 5500,6727 5617,6754 5733,6856 5849,7017 5966,6990 6082,6988 6198,7074 6315,7101 6431,7169 6548,7293 6664,7346 6780,7378 6897,7511 7013,7479 7129,7420 7246,7465 7362,7532 7478,7596 7595,7595 7711,7675 7828,7798 7944,7845 8060,7887 8177,7868 8292,7952 8408,7968 8525,7891 8641,7973 8758,7878 8874,7935 8990,7981 9107,8001 9223,8023 9339,8026 9456,8214 9572,8256 9688,8324 9805,8341 9921,8386 10038,8385 10154,8431 10270,8482 10387,8494 10503,8511 10619,8482 10736,8314 10852,8473 10968,8530 11085,8607 11201,8651 11318,8668 11434,8588 11550,8588 11667,8807 11783,8881 11899,8920 12016,8950 12132,8976 12248,9008 12365,9101 12481,9108 12598,9159 12714,9173 12830,9230 12947,9263 13063,9325 13179,9273 13296,9324 13412,9385 13528,9383 13645,9469 13761,9525 13878,9489 13994,9561 14110,9516 14227,9541 14343,9543 14459,9535 14576,9504 14692,9570 14809,9595 14809,10500 14692,10489 14576,10493 14459,10486 14343,10483 14227,10496 14110,10486 13994,10457 13878,10438 13761,10427 13645,10417 13528,10422 13412,10405 13296,10398 13179,10394 13063,10371 12947,10350 12830,10371 12714,10354 12598,10319 12481,10274 12365,10271 12248,10272 12132,10257 12016,10237 11899,10231 11783,10210 11667,10202 11550,10200 11434,10200 11318,10160 11201,10145 11085,10109 10968,10063 10852,10085 10736,10046 10619,10061 10503,10093 10387,10131 10270,10151 10154,10138 10038,10146 9921,10153 9805,10112 9688,10095 9572,10109 9456,10111 9339,10073 9223,10048 9107,10015 8990,10031 8874,10047 8758,10039 8641,10042 8525,10063 8408,9979 8292,9947 8177,9939 8060,9913 7944,9903 7828,9894 7711,9880 7595,9895 7478,9849 7362,9803 7246,9801 7129,9790 7013,9742 6897,9712 6780,9708 6664,9722 6548,9740 6431,9669 6315,9643 6198,9648 6082,9622 5966,9660 5849,9694 5733,9642 5617,9611 5500,9588 5384,9559 5268,9565 5151,9558 5035,9527 4918,9554 4802,9580 4686,9586 4569,9582 4453,9597 4337,9585 4220,9575 4104,9556 3988,9530 3871,9552 3755,9520 3638,9512 3522,9505 3406,9496 3289,9497 3173,9488 3057,9493 2940,9476 2824,9476 2708,9445 2591,9434 2475,9445 2358,9459 2242,9463 2126,9448 2009,9466 1893,9489 1777,9420 1660,9450 1544,9499 1428,9454 1428,3687 Z"/>
 <path fill="none" stroke="rgb(0,0,0)" stroke-linejoin="round" d="M 1428,3687 L 1544,3793 1660,3927 1777,3993 1893,4124 2009,4074 2126,4255 2242,4373 2358,4428 2475,4537 2591,4630 2708,4679 2824,4862 2940,4973 3057,5131 3173,5165 3289,5242 3406,5317 3522,5378 3638,5462 3755,5535 3871,5639 3988,5707 4104,5773 4220,5912 4337,6016 4453,6214 4569,6254 4686,6352 4802,6431 4918,6422 5035,6428 5151,6520 5268,6629 5384,6664 5500,6727 5617,6754 5733,6856 5849,7017 5966,6990 6082,6988 6198,7074 6315,7101 6431,7169 6548,7293 6664,7346 6780,7378 6897,7511 7013,7479 7129,7420 7246,7465 7362,7532 7478,7596 7595,7595 7711,7675 7828,7798 7944,7845 8060,7887 8177,7868 8292,7952 8408,7968 8525,7891 8641,7973 8758,7878 8874,7935 8990,7981 9107,8001 9223,8023 9339,8026 9456,8214 9572,8256 9688,8324 9805,8341 9921,8386 10038,8385 10154,8431 10270,8482 10387,8494 10503,8511 10619,8482 10736,8314 10852,8473 10968,8530 11085,8607 11201,8651 11318,8668 11434,8588 11550,8588 11667,8807 11783,8881 11899,8920 12016,8950 12132,8976 12248,9008 12365,9101 12481,9108 12598,9159 12714,9173 12830,9230 12947,9263 13063,9325 13179,9273 13296,9324 13412,9385 13528,9383 13645,9469 13761,9525 13878,9489 13994,9561 14110,9516 14227,9541 14343,9543 14459,9535 14576,9504 14692,9570 14809,9595 14809,10500 14692,10489 14576,10493 14459,10486 14343,10483 14227,10496 14110,10486 13994,10457 13878,10438 13761,10427 13645,10417 13528,10422 13412,10405 13296,10398 13179,10394 13063,10371 12947,10350 12830,10371 12714,10354 12598,10319 12481,10274 12365,10271 12248,10272 12132,10257 12016,10237 11899,10231 11783,10210 11667,10202 11550,10200 11434,10200 11318,10160 11201,10145 11085,10109 10968,10063 10852,10085 10736,10046 10619,10061 10503,10093 10387,10131 10270,10151 10154,10138 10038,10146 9921,10153 9805,10112 9688,10095 9572,10109 9456,10111 9339,10073 9223,10048 9107,10015 8990,10031 8874,10047 8758,10039 8641,10042 8525,10063 8408,9979 8292,9947 8177,9939 8060,9913 7944,9903 7828,9894 7711,9880 7595,9895 7478,9849 7362,9803 7246,9801 7129,9790 7013,9742 6897,9712 6780,9708 6664,9722 6548,9740 6431,9669 6315,9643 6198,9648 6082,9622 5966,9660 5849,9694 5733,9642 5617,9611 5500,9588 5384,9559 5268,9565 5151,9558 5035,9527 4918,9554 4802,9580 4686,9586 4569,9582 4453,9597 4337,9585 4220,9575 4104,9556 3988,9530 3871,9552 3755,9520 3638,9512 3522,9505 3406,9496 3289,9497 3173,9488 3057,9493 2940,9476 2824,9476 2708,9445 2591,9434 2475,9445 2358,9459 2242,9463 2126,9448 2009,9466 1893,9489 1777,9420 1660,9450 1544,9499 1428,9454 1428,3687 Z"/>
 <path fill="rgb(255,211,32)" stroke="none" d="M 1428,1356 L 1544,1364 1660,1360 1777,1367 1893,1370 2009,1371 2126,1377 2242,1384 2358,1386 2475,1396 2591,1401 2708,1418 2824,1436 2940,1470 3057,1513 3173,1551 3289,1589 3406,1647 3522,1681 3638,1734 3755,1776 3871,1862 3988,1934 4104,2012 4220,2114 4337,2248 4453,2441 4569,2552 4686,2673 4802,2778 4918,2849 5035,2925 5151,3039 5268,3165 5384,3242 5500,3345 5617,3414 5733,3520 5849,3688 5966,3715 6082,3760 6198,3840 6315,3899 6431,4009 6548,4121 6664,4211 6780,4252 6897,4356 7013,4401 7129,4454 7246,4528 7362,4584 7478,4674 7595,4705 7711,4800 7828,4899 7944,4912 8060,4961 8177,5005 8292,5147 8408,5192 8525,5223 8641,5340 8758,5404 8874,5426 8990,5453 9107,5477 9223,5571 9339,5621 9456,5840 9572,5876 9688,5910 9805,5960 9921,6041 10038,6073 10154,6142 10270,6198 10387,6241 10503,6247 10619,6226 10736,6179 10852,6362 10968,6531 11085,6643 11201,6696 11318,6752 11434,6726 11550,6726 11667,6878 11783,6988 11899,7010 12016,7098 12132,7174 12248,7224 12365,7372 12481,7376 12598,7438 12714,7508 12830,7594 12947,7611 13063,7732 13179,7696 13296,7780 13412,7901 13528,7975 13645,8162 13761,8224 13878,8245 13994,8334 14110,8343 14227,8362 14343,8356 14459,8373 14576,8348 14692,8445 14809,8489 14809,9595 14692,9570 14576,9504 14459,9535 14343,9543 14227,9541 14110,9516 13994,9561 13878,9489 13761,9525 13645,9469 13528,9383 13412,9385 13296,9324 13179,9273 13063,9325 12947,9263 12830,9230 12714,9173 12598,9159 12481,9108 12365,9101 12248,9008 12132,8976 12016,8950 11899,8920 11783,8881 11667,8807 11550,8588 11434,8588 11318,8668 11201,8651 11085,8607 10968,8530 10852,8473 10736,8314 10619,8482 10503,8511 10387,8494 10270,8482 10154,8431 10038,8385 9921,8386 9805,8341 9688,8324 9572,8256 9456,8214 9339,8026 9223,8023 9107,8001 8990,7981 8874,7935 8758,7878 8641,7973 8525,7891 8408,7968 8292,7952 8177,7868 8060,7887 7944,7845 7828,7798 7711,7675 7595,7595 7478,7596 7362,7532 7246,7465 7129,7420 7013,7479 6897,7511 6780,7378 6664,7346 6548,7293 6431,7169 6315,7101 6198,7074 6082,6988 5966,6990 5849,7017 5733,6856 5617,6754 5500,6727 5384,6664 5268,6629 5151,6520 5035,6428 4918,6422 4802,6431 4686,6352 4569,6254 4453,6214 4337,6016 4220,5912 4104,5773 3988,5707 3871,5639 3755,5535 3638,5462 3522,5378 3406,5317 3289,5242 3173,5165 3057,5131 2940,4973 2824,4862 2708,4679 2591,4630 2475,4537 2358,4428 2242,4373 2126,4255 2009,4074 1893,4124 1777,3993 1660,3927 1544,3793 1428,3687 1428,1356 Z"/>
 <path fill="none" stroke="rgb(0,0,0)" stroke-linejoin="round" d="M 1428,1356 L 1544,1364 1660,1360 1777,1367 1893,1370 2009,1371 2126,1377 2242,1384 2358,1386 2475,1396 2591,1401 2708,1418 2824,1436 2940,1470 3057,1513 3173,1551 3289,1589 3406,1647 3522,1681 3638,1734 3755,1776 3871,1862 3988,1934 4104,2012 4220,2114 4337,2248 4453,2441 4569,2552 4686,2673 4802,2778 4918,2849 5035,2925 5151,3039 5268,3165 5384,3242 5500,3345 5617,3414 5733,3520 5849,3688 5966,3715 6082,3760 6198,3840 6315,3899 6431,4009 6548,4121 6664,4211 6780,4252 6897,4356 7013,4401 7129,4454 7246,4528 7362,4584 7478,4674 7595,4705 7711,4800 7828,4899 7944,4912 8060,4961 8177,5005 8292,5147 8408,5192 8525,5223 8641,5340 8758,5404 8874,5426 8990,5453 9107,5477 9223,5571 9339,5621 9456,5840 9572,5876 9688,5910 9805,5960 9921,6041 10038,6073 10154,6142 10270,6198 10387,6241 10503,6247 10619,6226 10736,6179 10852,6362 10968,6531 11085,6643 11201,6696 11318,6752 11434,6726 11550,6726 11667,6878 11783,6988 11899,7010 12016,7098 12132,7174 12248,7224 12365,7372 12481,7376 12598,7438 12714,7508 12830,7594 12947,7611 13063,7732 13179,7696 13296,7780 13412,7901 13528,7975 13645,8162 13761,8224 13878,8245 13994,8334 14110,8343 14227,8362 14343,8356 14459,8373 14576,8348 14692,8445 14809,8489 14809,9595 14692,9570 14576,9504 14459,9535 14343,9543 14227,9541 14110,9516 13994,9561 13878,9489 13761,9525 13645,9469 13528,9383 13412,9385 13296,9324 13179,9273 13063,9325 12947,9263 12830,9230 12714,9173 12598,9159 12481,9108 12365,9101 12248,9008 12132,8976 12016,8950 11899,8920 11783,8881 11667,8807 11550,8588 11434,8588 11318,8668 11201,8651 11085,8607 10968,8530 10852,8473 10736,8314 10619,8482 10503,8511 10387,8494 10270,8482 10154,8431 10038,8385 9921,8386 9805,8341 9688,8324 9572,8256 9456,8214 9339,8026 9223,8023 9107,8001 8990,7981 8874,7935 8758,7878 8641,7973 8525,7891 8408,7968 8292,7952 8177,7868 8060,7887 7944,7845 7828,7798 7711,7675 7595,7595 7478,7596 7362,7532 7246,7465 7129,7420 7013,7479 6897,7511 6780,7378 6664,7346 6548,7293 6431,7169 6315,7101 6198,7074 6082,6988 5966,6990 5849,7017 5733,6856 5617,6754 5500,6727 5384,6664 5268,6629 5151,6520 5035,6428 4918,6422 4802,6431 4686,6352 4569,6254 4453,6214 4337,6016 4220,5912 4104,5773 3988,5707 3871,5639 3755,5535 3638,5462 3522,5378 3406,5317 3289,5242 3173,5165 3057,5131 2940,4973 2824,4862 2708,4679 2591,4630 2475,4537 2358,4428 2242,4373 2126,4255 2009,4074 1893,4124 1777,3993 1660,3927 1544,3793 1428,3687 1428,1356 Z"/>
 <path fill="rgb(87,157,28)" stroke="none" d="M 1428,1127 L 1544,1125 1660,1121 1777,1125 1893,1123 2009,1128 2126,1128 2242,1128 2358,1124 2475,1130 2591,1132 2708,1136 2824,1131 2940,1139 3057,1142 3173,1149 3289,1152 3406,1164 3522,1171 3638,1179 3755,1172 3871,1182 3988,1193 4104,1206 4220,1215 4337,1222 4453,1233 4569,1248 4686,1258 4802,1275 4918,1274 5035,1281 5151,1305 5268,1330 5384,1342 5500,1347 5617,1345 5733,1362 5849,1373 5966,1397 6082,1390 6198,1411 6315,1428 6431,1446 6548,1476 6664,1515 6780,1513 6897,1518 7013,1529 7129,1549 7246,1559 7362,1571 7478,1592 7595,1594 7711,1623 7828,1625 7944,1619 8060,1599 8177,1591 8292,1605 8408,1583 8525,1580 8641,1577 8758,1600 8874,1554 8990,1562 9107,1579 9223,1592 9339,1625 9456,1707 9572,1689 9688,1651 9805,1587 9921,1600 10038,1606 10154,1597 10270,1576 10387,1583 10503,1630 10619,1574 10736,1558 10852,1531 10968,1560 11085,1586 11201,1589 11318,1585 11434,1576 11550,1576 11667,1625 11783,1629 11899,1619 12016,1596 12132,1574 12248,1555 12365,1550 12481,1560 12598,1548 12714,1558 12830,1576 12947,1619 13063,1619 13179,1614 13296,1628 13412,1648 13528,1645 13645,1660 13761,1696 13878,1701 13994,1723 14110,1675 14227,1627 14343,1613 14459,1597 14576,1631 14692,1633 14809,1650 14809,8489 14692,8445 14576,8348 14459,8373 14343,8356 14227,8362 14110,8343 13994,8334 13878,8245 13761,8224 13645,8162 13528,7975 13412,7901 13296,7780 13179,7696 13063,7732 12947,7611 12830,7594 12714,7508 12598,7438 12481,7376 12365,7372 12248,7224 12132,7174 12016,7098 11899,7010 11783,6988 11667,6878 11550,6726 11434,6726 11318,6752 11201,6696 11085,6643 10968,6531 10852,6362 10736,6179 10619,6226 10503,6247 10387,6241 10270,6198 10154,6142 10038,6073 9921,6041 9805,5960 9688,5910 9572,5876 9456,5840 9339,5621 9223,5571 9107,5477 8990,5453 8874,5426 8758,5404 8641,5340 8525,5223 8408,5192 8292,5147 8177,5005 8060,4961 7944,4912 7828,4899 7711,4800 7595,4705 7478,4674 7362,4584 7246,4528 7129,4454 7013,4401 6897,4356 6780,4252 6664,4211 6548,4121 6431,4009 6315,3899 6198,3840 6082,3760 5966,3715 5849,3688 5733,3520 5617,3414 5500,3345 5384,3242 5268,3165 5151,3039 5035,2925 4918,2849 4802,2778 4686,2673 4569,2552 4453,2441 4337,2248 4220,2114 4104,2012 3988,1934 3871,1862 3755,1776 3638,1734 3522,1681 3406,1647 3289,1589 3173,1551 3057,1513 2940,1470 2824,1436 2708,1418 2591,1401 2475,1396 2358,1386 2242,1384 2126,1377 2009,1371 1893,1370 1777,1367 1660,1360 1544,1364 1428,1356 1428,1127 Z"/>
 <path fill="none" stroke="rgb(0,0,0)" stroke-linejoin="round" d="M 1428,1127 L 1544,1125 1660,1121 1777,1125 1893,1123 2009,1128 2126,1128 2242,1128 2358,1124 2475,1130 2591,1132 2708,1136 2824,1131 2940,1139 3057,1142 3173,1149 3289,1152 3406,1164 3522,1171 3638,1179 3755,1172 3871,1182 3988,1193 4104,1206 4220,1215 4337,1222 4453,1233 4569,1248 4686,1258 4802,1275 4918,1274 5035,1281 5151,1305 5268,1330 5384,1342 5500,1347 5617,1345 5733,1362 5849,1373 5966,1397 6082,1390 6198,1411 6315,1428 6431,1446 6548,1476 6664,1515 6780,1513 6897,1518 7013,1529 7129,1549 7246,1559 7362,1571 7478,1592 7595,1594 7711,1623 7828,1625 7944,1619 8060,1599 8177,1591 8292,1605 8408,1583 8525,1580 8641,1577 8758,1600 8874,1554 8990,1562 9107,1579 9223,1592 9339,1625 9456,1707 9572,1689 9688,1651 9805,1587 9921,1600 10038,1606 10154,1597 10270,1576 10387,1583 10503,1630 10619,1574 10736,1558 10852,1531 10968,1560 11085,1586 11201,1589 11318,1585 11434,1576 11550,1576 11667,1625 11783,1629 11899,1619 12016,1596 12132,1574 12248,1555 12365,1550 12481,1560 12598,1548 12714,1558 12830,1576 12947,1619 13063,1619 13179,1614 13296,1628 13412,1648 13528,1645 13645,1660 13761,1696 13878,1701 13994,1723 14110,1675 14227,1627 14343,1613 14459,1597 14576,1631 14692,1633 14809,1650 14809,8489 14692,8445 14576,8348 14459,8373 14343,8356 14227,8362 14110,8343 13994,8334 13878,8245 13761,8224 13645,8162 13528,7975 13412,7901 13296,7780 13179,7696 13063,7732 12947,7611 12830,7594 12714,7508 12598,7438 12481,7376 12365,7372 12248,7224 12132,7174 12016,7098 11899,7010 11783,6988 11667,6878 11550,6726 11434,6726 11318,6752 11201,6696 11085,6643 10968,6531 10852,6362 10736,6179 10619,6226 10503,6247 10387,6241 10270,6198 10154,6142 10038,6073 9921,6041 9805,5960 9688,5910 9572,5876 9456,5840 9339,5621 9223,5571 9107,5477 8990,5453 8874,5426 8758,5404 8641,5340 8525,5223 8408,5192 8292,5147 8177,5005 8060,4961 7944,4912 7828,4899 7711,4800 7595,4705 7478,4674 7362,4584 7246,4528 7129,4454 7013,4401 6897,4356 6780,4252 6664,4211 6548,4121 6431,4009 6315,3899 6198,3840 6082,3760 5966,3715 5849,3688 5733,3520 5617,3414 5500,3345 5384,3242 5268,3165 5151,3039 5035,2925 4918,2849 4802,2778 4686,2673 4569,2552 4453,2441 4337,2248 4220,2114 4104,2012 3988,1934 3871,1862 3755,1776 3638,1734 3522,1681 3406,1647 3289,1589 3173,1551 3057,1513 2940,1470 2824,1436 2708,1418 2591,1401 2475,1396 2358,1386 2242,1384 2126,1377 2009,1371 1893,1370 1777,1367 1660,1360 1544,1364 1428,1356 1428,1127 Z"/>
 <path fill="rgb(126,0,33)" stroke="none" d="M 1428,1092 L 1544,1092 1660,1092 1777,1092 1893,1092 2009,1092 2126,1092 2242,1092 2358,1092 2475,1092 2591,1092 2708,1092 2824,1092 2940,1092 3057,1092 3173,1092 3289,1092 3406,1092 3522,1092 3638,1092 3755,1092 3871,1092 3988,1092 4104,1092 4220,1092 4337,1092 4453,1092 4569,1092 4686,1092 4802,1092 4918,1092 5035,1092 5151,1092 5268,1092 5384,1092 5500,1092 5617,1092 5733,1092 5849,1092 5966,1092 6082,1092 6198,1092 6315,1092 6431,1092 6548,1092 6664,1092 6780,1092 6897,1092 7013,1092 7129,1092 7246,1092 7362,1092 7478,1092 7595,1092 7711,1092 7828,1092 7944,1092 8060,1092 8177,1092 8292,1092 8408,1092 8525,1092 8641,1092 8758,1092 8874,1092 8990,1092 9107,1092 9223,1092 9339,1092 9456,1092 9572,1092 9688,1092 9805,1092 9921,1092 10038,1092 10154,1092 10270,1092 10387,1092 10503,1092 10619,1092 10736,1092 10852,1092 10968,1092 11085,1092 11201,1092 11318,1092 11434,1092 11550,1092 11667,1092 11783,1092 11899,1092 12016,1092 12132,1092 12248,1092 12365,1092 12481,1092 12598,1092 12714,1092 12830,1092 12947,1092 13063,1092 13179,1092 13296,1092 13412,1092 13528,1092 13645,1092 13761,1092 13878,1092 13994,1092 14110,1092 14227,1092 14343,1092 14459,1092 14576,1092 14692,1092 14809,1092 14809,1650 14692,1633 14576,1631 14459,1597 14343,1613 14227,1627 14110,1675 13994,1723 13878,1701 13761,1696 13645,1660 13528,1645 13412,1648 13296,1628 13179,1614 13063,1619 12947,1619 12830,1576 12714,1558 12598,1548 12481,1560 12365,1550 12248,1555 12132,1574 12016,1596 11899,1619 11783,1629 11667,1625 11550,1576 11434,1576 11318,1585 11201,1589 11085,1586 10968,1560 10852,1531 10736,1558 10619,1574 10503,1630 10387,1583 10270,1576 10154,1597 10038,1606 9921,1600 9805,1587 9688,1651 9572,1689 9456,1707 9339,1625 9223,1592 9107,1579 8990,1562 8874,1554 8758,1600 8641,1577 8525,1580 8408,1583 8292,1605 8177,1591 8060,1599 7944,1619 7828,1625 7711,1623 7595,1594 7478,1592 7362,1571 7246,1559 7129,1549 7013,1529 6897,1518 6780,1513 6664,1515 6548,1476 6431,1446 6315,1428 6198,1411 6082,1390 5966,1397 5849,1373 5733,1362 5617,1345 5500,1347 5384,1342 5268,1330 5151,1305 5035,1281 4918,1274 4802,1275 4686,1258 4569,1248 4453,1233 4337,1222 4220,1215 4104,1206 3988,1193 3871,1182 3755,1172 3638,1179 3522,1171 3406,1164 3289,1152 3173,1149 3057,1142 2940,1139 2824,1131 2708,1136 2591,1132 2475,1130 2358,1124 2242,1128 2126,1128 2009,1128 1893,1123 1777,1125 1660,1121 1544,1125 1428,1127 1428,1092 Z"/>
 <path fill="none" stroke="rgb(0,0,0)" stroke-linejoin="round" d="M 1428,1092 L 1544,1092 1660,1092 1777,1092 1893,1092 2009,1092 2126,1092 2242,1092 2358,1092 2475,1092 2591,1092 2708,1092 2824,1092 2940,1092 3057,1092 3173,1092 3289,1092 3406,1092 3522,1092 3638,1092 3755,1092 3871,1092 3988,1092 4104,1092 4220,1092 4337,1092 4453,1092 4569,1092 4686,1092 4802,1092 4918,1092 5035,1092 5151,1092 5268,1092 5384,1092 5500,1092 5617,1092 5733,1092 5849,1092 5966,1092 6082,1092 6198,1092 6315,1092 6431,1092 6548,1092 6664,1092 6780,1092 6897,1092 7013,1092 7129,1092 7246,1092 7362,1092 7478,1092 7595,1092 7711,1092 7828,1092 7944,1092 8060,1092 8177,1092 8292,1092 8408,1092 8525,1092 8641,1092 8758,1092 8874,1092 8990,1092 9107,1092 9223,1092 9339,1092 9456,1092 9572,1092 9688,1092 9805,1092 9921,1092 10038,1092 10154,1092 10270,1092 10387,1092 10503,1092 10619,1092 10736,1092 10852,1092 10968,1092 11085,1092 11201,1092 11318,1092 11434,1092 11550,1092 11667,1092 11783,1092 11899,1092 12016,1092 12132,1092 12248,1092 12365,1092 12481,1092 12598,1092 12714,1092 12830,1092 12947,1092 13063,1092 13179,1092 13296,1092 13412,1092 13528,1092 13645,1092 13761,1092 13878,1092 13994,1092 14110,1092 14227,1092 14343,1092 14459,1092 14576,1092 14692,1092 14809,1092 14809,1650 14692,1633 14576,1631 14459,1597 14343,1613 14227,1627 14110,1675 13994,1723 13878,1701 13761,1696 13645,1660 13528,1645 13412,1648 13296,1628 13179,1614 13063,1619 12947,1619 12830,1576 12714,1558 12598,1548 12481,1560 12365,1550 12248,1555 12132,1574 12016,1596 11899,1619 11783,1629 11667,1625 11550,1576 11434,1576 11318,1585 11201,1589 11085,1586 10968,1560 10852,1531 10736,1558 10619,1574 10503,1630 10387,1583 10270,1576 10154,1597 10038,1606 9921,1600 9805,1587 9688,1651 9572,1689 9456,1707 9339,1625 9223,1592 9107,1579 8990,1562 8874,1554 8758,1600 8641,1577 8525,1580 8408,1583 8292,1605 8177,1591 8060,1599 7944,1619 7828,1625 7711,1623 7595,1594 7478,1592 7362,1571 7246,1559 7129,1549 7013,1529 6897,1518 6780,1513 6664,1515 6548,1476 6431,1446 6315,1428 6198,1411 6082,1390 5966,1397 5849,1373 5733,1362 5617,1345 5500,1347 5384,1342 5268,1330 5151,1305 5035,1281 4918,1274 4802,1275 4686,1258 4569,1248 4453,1233 4337,1222 4220,1215 4104,1206 3988,1193 3871,1182 3755,1172 3638,1179 3522,1171 3406,1164 3289,1152 3173,1149 3057,1142 2940,1139 2824,1131 2708,1136 2591,1132 2475,1130 2358,1124 2242,1128 2126,1128 2009,1128 1893,1123 1777,1125 1660,1121 1544,1125 1428,1127 1428,1092 Z"/>
 <text class="TextShape"><tspan class="TextParagraph" font-family="Arial, sans-serif" font-size="388px" font-weight="400"><tspan class="TextPosition" x="1236" y="11355"><tspan fill="rgb(0,0,0)" stroke="none">2008</tspan></tspan></tspan></text>
 <text class="TextShape"><tspan class="TextParagraph" font-family="Arial, sans-serif" font-size="388px" font-weight="400"><tspan class="TextPosition" x="2633" y="11355"><tspan fill="rgb(0,0,0)" stroke="none">2009</tspan></tspan></tspan></text>
 <text class="TextShape"><tspan class="TextParagraph" font-family="Arial, sans-serif" font-size="388px" font-weight="400"><tspan class="TextPosition" x="4029" y="11355"><tspan fill="rgb(0,0,0)" stroke="none">2010</tspan></tspan></tspan></text>
 <text class="TextShape"><tspan class="TextParagraph" font-family="Arial, sans-serif" font-size="388px" font-weight="400"><tspan class="TextPosition" x="5439" y="11355"><tspan fill="rgb(0,0,0)" stroke="none">2011</tspan></tspan></tspan></text>
 <text class="TextShape"><tspan class="TextParagraph" font-family="Arial, sans-serif" font-size="388px" font-weight="400"><tspan class="TextPosition" x="6822" y="11355"><tspan fill="rgb(0,0,0)" stroke="none">2012</tspan></tspan></tspan></text>
 <text class="TextShape"><tspan class="TextParagraph" font-family="Arial, sans-serif" font-size="388px" font-weight="400"><tspan class="TextPosition" x="8218" y="11355"><tspan fill="rgb(0,0,0)" stroke="none">2013</tspan></tspan></tspan></text>
 <text class="TextShape"><tspan class="TextParagraph" font-family="Arial, sans-serif" font-size="388px" font-weight="400"><tspan class="TextPosition" x="9615" y="11355"><tspan fill="rgb(0,0,0)" stroke="none">2014</tspan></tspan></tspan></text>
 <text class="TextShape"><tspan class="TextParagraph" font-family="Arial, sans-serif" font-size="388px" font-weight="400"><tspan class="TextPosition" x="11011" y="11355"><tspan fill="rgb(0,0,0)" stroke="none">2015</tspan></tspan></tspan></text>
 <text class="TextShape"><tspan class="TextParagraph" font-family="Arial, sans-serif" font-size="388px" font-weight="400"><tspan class="TextPosition" x="12407" y="11355"><tspan fill="rgb(0,0,0)" stroke="none">2016</tspan></tspan></tspan></text>
 <text class="TextShape"><tspan class="TextParagraph" font-family="Arial, sans-serif" font-size="388px" font-weight="400"><tspan class="TextPosition" x="13804" y="11355"><tspan fill="rgb(0,0,0)" stroke="none">2017</tspan></tspan></tspan></text>
 <text class="TextShape"><tspan class="TextParagraph" font-family="Arial, sans-serif" font-size="388px" font-weight="400"><tspan class="TextPosition" x="622" y="10895"><tspan fill="rgb(0,0,0)" stroke="none">0%</tspan></tspan></tspan></text>
 <text class="TextShape"><tspan class="TextParagraph" font-family="Arial, sans-serif" font-size="388px" font-weight="400"><tspan class="TextPosition" x="411" y="9928"><tspan fill="rgb(0,0,0)" stroke="none">10%</tspan></tspan></tspan></text>
 <text class="TextShape"><tspan class="TextParagraph" font-family="Arial, sans-serif" font-size="388px" font-weight="400"><tspan class="TextPosition" x="411" y="8961"><tspan fill="rgb(0,0,0)" stroke="none">20%</tspan></tspan></tspan></text>
 <text class="TextShape"><tspan class="TextParagraph" font-family="Arial, sans-serif" font-size="388px" font-weight="400"><tspan class="TextPosition" x="411" y="7994"><tspan fill="rgb(0,0,0)" stroke="none">30%</tspan></tspan></tspan></text>
 <text class="TextShape"><tspan class="TextParagraph" font-family="Arial, sans-serif" font-size="388px" font-weight="400"><tspan class="TextPosition" x="411" y="7027"><tspan fill="rgb(0,0,0)" stroke="none">40%</tspan></tspan></tspan></text>
 <text class="TextShape"><tspan class="TextParagraph" font-family="Arial, sans-serif" font-size="388px" font-weight="400"><tspan class="TextPosition" x="411" y="6060"><tspan fill="rgb(0,0,0)" stroke="none">50%</tspan></tspan></tspan></text>
 <text class="TextShape"><tspan class="TextParagraph" font-family="Arial, sans-serif" font-size="388px" font-weight="400"><tspan class="TextPosition" x="411" y="5092"><tspan fill="rgb(0,0,0)" stroke="none">60%</tspan></tspan></tspan></text>
 <text class="TextShape"><tspan class="TextParagraph" font-family="Arial, sans-serif" font-size="388px" font-weight="400"><tspan class="TextPosition" x="411" y="4125"><tspan fill="rgb(0,0,0)" stroke="none">70%</tspan></tspan></tspan></text>
 <text class="TextShape"><tspan class="TextParagraph" font-family="Arial, sans-serif" font-size="388px" font-weight="400"><tspan class="TextPosition" x="411" y="3159"><tspan fill="rgb(0,0,0)" stroke="none">80%</tspan></tspan></tspan></text>
 <text class="TextShape"><tspan class="TextParagraph" font-family="Arial, sans-serif" font-size="388px" font-weight="400"><tspan class="TextPosition" x="411" y="2192"><tspan fill="rgb(0,0,0)" stroke="none">90%</tspan></tspan></tspan></text>
 <text class="TextShape"><tspan class="TextParagraph" font-family="Arial, sans-serif" font-size="388px" font-weight="400"><tspan class="TextPosition" x="199" y="1225"><tspan fill="rgb(0,0,0)" stroke="none">100%</tspan></tspan></tspan></text>
 <text class="TextShape"><tspan class="TextParagraph" font-family="Arial, sans-serif" font-size="388px" font-weight="400"><tspan class="TextPosition" x="15059" y="10895"><tspan fill="rgb(0,0,0)" stroke="none">0%</tspan></tspan></tspan></text>
 <text class="TextShape"><tspan class="TextParagraph" font-family="Arial, sans-serif" font-size="388px" font-weight="400"><tspan class="TextPosition" x="15059" y="9928"><tspan fill="rgb(0,0,0)" stroke="none">10%</tspan></tspan></tspan></text>
 <text class="TextShape"><tspan class="TextParagraph" font-family="Arial, sans-serif" font-size="388px" font-weight="400"><tspan class="TextPosition" x="15059" y="8961"><tspan fill="rgb(0,0,0)" stroke="none">20%</tspan></tspan></tspan></text>
 <text class="TextShape"><tspan class="TextParagraph" font-family="Arial, sans-serif" font-size="388px" font-weight="400"><tspan class="TextPosition" x="15059" y="7994"><tspan fill="rgb(0,0,0)" stroke="none">30%</tspan></tspan></tspan></text>
 <text class="TextShape"><tspan class="TextParagraph" font-family="Arial, sans-serif" font-size="388px" font-weight="400"><tspan class="TextPosition" x="15059" y="7027"><tspan fill="rgb(0,0,0)" stroke="none">40%</tspan></tspan></tspan></text>
 <text class="TextShape"><tspan class="TextParagraph" font-family="Arial, sans-serif" font-size="388px" font-weight="400"><tspan class="TextPosition" x="15059" y="6060"><tspan fill="rgb(0,0,0)" stroke="none">50%</tspan></tspan></tspan></text>
 <text class="TextShape"><tspan class="TextParagraph" font-family="Arial, sans-serif" font-size="388px" font-weight="400"><tspan class="TextPosition" x="15059" y="5092"><tspan fill="rgb(0,0,0)" stroke="none">60%</tspan></tspan></tspan></text>
 <text class="TextShape"><tspan class="TextParagraph" font-family="Arial, sans-serif" font-size="388px" font-weight="400"><tspan class="TextPosition" x="15059" y="4125"><tspan fill="rgb(0,0,0)" stroke="none">70%</tspan></tspan></tspan></text>
 <text class="TextShape"><tspan class="TextParagraph" font-family="Arial, sans-serif" font-size="388px" font-weight="400"><tspan class="TextPosition" x="15059" y="3159"><tspan fill="rgb(0,0,0)" stroke="none">80%</tspan></tspan></tspan></text>
 <text class="TextShape"><tspan class="TextParagraph" font-family="Arial, sans-serif" font-size="388px" font-weight="400"><tspan class="TextPosition" x="15059" y="2192"><tspan fill="rgb(0,0,0)" stroke="none">90%</tspan></tspan></tspan></text>
 <text class="TextShape"><tspan class="TextParagraph" font-family="Arial, sans-serif" font-size="388px" font-weight="400"><tspan class="TextPosition" x="15059" y="1225"><tspan fill="rgb(0,0,0)" stroke="none">100%</tspan></tspan></tspan></text>
 <text class="TextShape"><tspan class="TextParagraph" font-family="Liberation Sans, sans-serif" font-size="635px" font-weight="400"><tspan class="TextPosition" x="4939" y="747"><tspan fill="rgb(0,0,0)" stroke="none">Relacin de aspecto</tspan></tspan></tspan></text>
 <path fill="rgb(0,69,134)" stroke="none" d="M 4882,11835 L 4745,11835 4745,11560 5020,11560 5020,11835 4882,11835 Z"/>
 <path fill="none" stroke="rgb(0,0,0)" stroke-linejoin="round" d="M 4882,11835 L 4745,11835 4745,11560 5020,11560 5020,11835 4882,11835 Z"/>
 <path fill="rgb(255,66,14)" stroke="none" d="M 6170,11835 L 6033,11835 6033,11560 6308,11560 6308,11835 6170,11835 Z"/>
 <path fill="none" stroke="rgb(0,0,0)" stroke-linejoin="round" d="M 6170,11835 L 6033,11835 6033,11560 6308,11560 6308,11835 6170,11835 Z"/>
 <path fill="rgb(255,211,32)" stroke="none" d="M 7458,11835 L 7321,11835 7321,11560 7596,11560 7596,11835 7458,11835 Z"/>
 <path fill="none" stroke="rgb(0,0,0)" stroke-linejoin="round" d="M 7458,11835 L 7321,11835 7321,11560 7596,11560 7596,11835 7458,11835 Z"/>
 <path fill="rgb(87,157,28)" stroke="none" d="M 8746,11835 L 8608,11835 8608,11560 8883,11560 8883,11835 8746,11835 Z"/>
 <path fill="none" stroke="rgb(0,0,0)" stroke-linejoin="round" d="M 8746,11835 L 8608,11835 8608,11560 8883,11560 8883,11835 8746,11835 Z"/>
 <path fill="rgb(126,0,33)" stroke="none" d="M 10272,11835 L 10134,11835 10134,11560 10409,11560 10409,11835 10272,11835 Z"/>
 <path fill="none" stroke="rgb(0,0,0)" stroke-linejoin="round" d="M 10272,11835 L 10134,11835 10134,11560 10409,11560 10409,11835 10272,11835 Z"/>
 <text class="TextShape"><tspan class="TextParagraph" font-family="Arial, sans-serif" font-size="459px" font-weight="400"><tspan class="TextPosition" x="5120" y="11856"><tspan fill="rgb(0,0,0)" stroke="none">5:4</tspan></tspan></tspan></text>
 <text class="TextShape"><tspan class="TextParagraph" font-family="Arial, sans-serif" font-size="459px" font-weight="400"><tspan class="TextPosition" x="6408" y="11856"><tspan fill="rgb(0,0,0)" stroke="none">4:3</tspan></tspan></tspan></text>
 <text class="TextShape"><tspan class="TextParagraph" font-family="Arial, sans-serif" font-size="459px" font-weight="400"><tspan class="TextPosition" x="7696" y="11856"><tspan fill="rgb(0,0,0)" stroke="none">8:5</tspan></tspan></tspan></text>
 <text class="TextShape"><tspan class="TextParagraph" font-family="Arial, sans-serif" font-size="459px" font-weight="400"><tspan class="TextPosition" x="8983" y="11856"><tspan fill="rgb(0,0,0)" stroke="none">16:9</tspan></tspan></tspan></text>
 <text class="TextShape"><tspan class="TextParagraph" font-family="Arial, sans-serif" font-size="459px" font-weight="400"><tspan class="TextPosition" x="10509" y="11856"><tspan fill="rgb(0,0,0)" stroke="none">Otros</tspan></tspan></tspan></text>
</svg>
