<?xml version="1.0" encoding="UTF-8"?>
<!DOCTYPE svg PUBLIC "-//W3C//DTD SVG 1.1//EN" "http://www.w3.org/Graphics/SVG/1.1/DTD/svg11.dtd">
<svg width="164mm" height="123mm" viewBox="0 0 16400 12300" version="1.1" xmlns="http://www.w3.org/2000/svg" stroke-width="28.222" stroke-linejoin="round" xml:space="preserve">
 <path fill="rgb(255,255,255)" stroke="none" d="M 8197,12255 L 0,12255 0,0 16393,0 16393,12255 8197,12255 Z"/>
 <path fill="none" stroke="rgb(179,179,179)" stroke-linejoin="round" d="M 8236,10818 L 1184,10818 1184,1092 15288,1092 15288,10818 8236,10818 Z"/>
 <path fill="none" stroke="rgb(0,0,0)" stroke-width="20" stroke-linejoin="round" d="M 15288,10817 L 1184,10817"/>
 <path fill="none" stroke="rgb(0,0,0)" stroke-width="20" stroke-linejoin="round" d="M 15288,9195 L 1184,9195"/>
 <path fill="none" stroke="rgb(0,0,0)" stroke-width="20" stroke-linejoin="round" d="M 15288,7574 L 1184,7574"/>
 <path fill="none" stroke="rgb(0,0,0)" stroke-width="20" stroke-linejoin="round" d="M 15288,5954 L 1184,5954"/>
 <path fill="none" stroke="rgb(0,0,0)" stroke-width="20" stroke-linejoin="round" d="M 15288,4333 L 1184,4333"/>
 <path fill="none" stroke="rgb(0,0,0)" stroke-width="20" stroke-linejoin="round" d="M 15288,2712 L 1184,2712"/>
 <path fill="none" stroke="rgb(0,0,0)" stroke-width="20" stroke-linejoin="round" d="M 15288,1090 L 1184,1090"/>
 <path fill="none" stroke="rgb(0,0,0)" stroke-width="30" stroke-linejoin="round" d="M 1184,10967 L 1184,10817"/>
 <path fill="none" stroke="rgb(0,0,0)" stroke-width="30" stroke-linejoin="round" d="M 1184,10967 L 1184,10817"/>
 <path fill="none" stroke="rgb(0,0,0)" stroke-width="30" stroke-linejoin="round" d="M 1305,10967 L 1305,10817"/>
 <path fill="none" stroke="rgb(0,0,0)" stroke-width="30" stroke-linejoin="round" d="M 1305,10967 L 1305,10817"/>
 <path fill="none" stroke="rgb(0,0,0)" stroke-width="30" stroke-linejoin="round" d="M 1427,10967 L 1427,10817"/>
 <path fill="none" stroke="rgb(0,0,0)" stroke-width="30" stroke-linejoin="round" d="M 1427,10967 L 1427,10817"/>
 <path fill="none" stroke="rgb(0,0,0)" stroke-width="30" stroke-linejoin="round" d="M 1548,10967 L 1548,10817"/>
 <path fill="none" stroke="rgb(0,0,0)" stroke-width="30" stroke-linejoin="round" d="M 1548,10967 L 1548,10817"/>
 <path fill="none" stroke="rgb(0,0,0)" stroke-width="30" stroke-linejoin="round" d="M 1670,10967 L 1670,10817"/>
 <path fill="none" stroke="rgb(0,0,0)" stroke-width="30" stroke-linejoin="round" d="M 1670,10967 L 1670,10817"/>
 <path fill="none" stroke="rgb(0,0,0)" stroke-width="30" stroke-linejoin="round" d="M 1791,10967 L 1791,10817"/>
 <path fill="none" stroke="rgb(0,0,0)" stroke-width="30" stroke-linejoin="round" d="M 1791,10967 L 1791,10817"/>
 <path fill="none" stroke="rgb(0,0,0)" stroke-width="30" stroke-linejoin="round" d="M 1913,10967 L 1913,10817"/>
 <path fill="none" stroke="rgb(0,0,0)" stroke-width="30" stroke-linejoin="round" d="M 1913,10967 L 1913,10817"/>
 <path fill="none" stroke="rgb(0,0,0)" stroke-width="30" stroke-linejoin="round" d="M 2035,10967 L 2035,10817"/>
 <path fill="none" stroke="rgb(0,0,0)" stroke-width="30" stroke-linejoin="round" d="M 2035,10967 L 2035,10817"/>
 <path fill="none" stroke="rgb(0,0,0)" stroke-width="30" stroke-linejoin="round" d="M 2156,10967 L 2156,10817"/>
 <path fill="none" stroke="rgb(0,0,0)" stroke-width="30" stroke-linejoin="round" d="M 2156,10967 L 2156,10817"/>
 <path fill="none" stroke="rgb(0,0,0)" stroke-width="30" stroke-linejoin="round" d="M 2278,10967 L 2278,10817"/>
 <path fill="none" stroke="rgb(0,0,0)" stroke-width="30" stroke-linejoin="round" d="M 2278,10967 L 2278,10817"/>
 <path fill="none" stroke="rgb(0,0,0)" stroke-width="30" stroke-linejoin="round" d="M 2399,10967 L 2399,10817"/>
 <path fill="none" stroke="rgb(0,0,0)" stroke-width="30" stroke-linejoin="round" d="M 2399,10967 L 2399,10817"/>
 <path fill="none" stroke="rgb(0,0,0)" stroke-width="30" stroke-linejoin="round" d="M 2521,10967 L 2521,10817"/>
 <path fill="none" stroke="rgb(0,0,0)" stroke-width="30" stroke-linejoin="round" d="M 2521,10967 L 2521,10817"/>
 <path fill="none" stroke="rgb(0,0,0)" stroke-width="30" stroke-linejoin="round" d="M 2643,10967 L 2643,10817"/>
 <path fill="none" stroke="rgb(0,0,0)" stroke-width="30" stroke-linejoin="round" d="M 2643,10967 L 2643,10817"/>
 <path fill="none" stroke="rgb(0,0,0)" stroke-width="30" stroke-linejoin="round" d="M 2764,10967 L 2764,10817"/>
 <path fill="none" stroke="rgb(0,0,0)" stroke-width="30" stroke-linejoin="round" d="M 2764,10967 L 2764,10817"/>
 <path fill="none" stroke="rgb(0,0,0)" stroke-width="30" stroke-linejoin="round" d="M 2886,10967 L 2886,10817"/>
 <path fill="none" stroke="rgb(0,0,0)" stroke-width="30" stroke-linejoin="round" d="M 2886,10967 L 2886,10817"/>
 <path fill="none" stroke="rgb(0,0,0)" stroke-width="30" stroke-linejoin="round" d="M 3007,10967 L 3007,10817"/>
 <path fill="none" stroke="rgb(0,0,0)" stroke-width="30" stroke-linejoin="round" d="M 3007,10967 L 3007,10817"/>
 <path fill="none" stroke="rgb(0,0,0)" stroke-width="30" stroke-linejoin="round" d="M 3129,10967 L 3129,10817"/>
 <path fill="none" stroke="rgb(0,0,0)" stroke-width="30" stroke-linejoin="round" d="M 3129,10967 L 3129,10817"/>
 <path fill="none" stroke="rgb(0,0,0)" stroke-width="30" stroke-linejoin="round" d="M 3251,10967 L 3251,10817"/>
 <path fill="none" stroke="rgb(0,0,0)" stroke-width="30" stroke-linejoin="round" d="M 3251,10967 L 3251,10817"/>
 <path fill="none" stroke="rgb(0,0,0)" stroke-width="30" stroke-linejoin="round" d="M 3372,10967 L 3372,10817"/>
 <path fill="none" stroke="rgb(0,0,0)" stroke-width="30" stroke-linejoin="round" d="M 3372,10967 L 3372,10817"/>
 <path fill="none" stroke="rgb(0,0,0)" stroke-width="30" stroke-linejoin="round" d="M 3494,10967 L 3494,10817"/>
 <path fill="none" stroke="rgb(0,0,0)" stroke-width="30" stroke-linejoin="round" d="M 3494,10967 L 3494,10817"/>
 <path fill="none" stroke="rgb(0,0,0)" stroke-width="30" stroke-linejoin="round" d="M 3615,10967 L 3615,10817"/>
 <path fill="none" stroke="rgb(0,0,0)" stroke-width="30" stroke-linejoin="round" d="M 3615,10967 L 3615,10817"/>
 <path fill="none" stroke="rgb(0,0,0)" stroke-width="30" stroke-linejoin="round" d="M 3737,10967 L 3737,10817"/>
 <path fill="none" stroke="rgb(0,0,0)" stroke-width="30" stroke-linejoin="round" d="M 3737,10967 L 3737,10817"/>
 <path fill="none" stroke="rgb(0,0,0)" stroke-width="30" stroke-linejoin="round" d="M 3859,10967 L 3859,10817"/>
 <path fill="none" stroke="rgb(0,0,0)" stroke-width="30" stroke-linejoin="round" d="M 3859,10967 L 3859,10817"/>
 <path fill="none" stroke="rgb(0,0,0)" stroke-width="30" stroke-linejoin="round" d="M 3980,10967 L 3980,10817"/>
 <path fill="none" stroke="rgb(0,0,0)" stroke-width="30" stroke-linejoin="round" d="M 3980,10967 L 3980,10817"/>
 <path fill="none" stroke="rgb(0,0,0)" stroke-width="30" stroke-linejoin="round" d="M 4102,10967 L 4102,10817"/>
 <path fill="none" stroke="rgb(0,0,0)" stroke-width="30" stroke-linejoin="round" d="M 4102,10967 L 4102,10817"/>
 <path fill="none" stroke="rgb(0,0,0)" stroke-width="30" stroke-linejoin="round" d="M 4223,10967 L 4223,10817"/>
 <path fill="none" stroke="rgb(0,0,0)" stroke-width="30" stroke-linejoin="round" d="M 4223,10967 L 4223,10817"/>
 <path fill="none" stroke="rgb(0,0,0)" stroke-width="30" stroke-linejoin="round" d="M 4345,10967 L 4345,10817"/>
 <path fill="none" stroke="rgb(0,0,0)" stroke-width="30" stroke-linejoin="round" d="M 4345,10967 L 4345,10817"/>
 <path fill="none" stroke="rgb(0,0,0)" stroke-width="30" stroke-linejoin="round" d="M 4467,10967 L 4467,10817"/>
 <path fill="none" stroke="rgb(0,0,0)" stroke-width="30" stroke-linejoin="round" d="M 4467,10967 L 4467,10817"/>
 <path fill="none" stroke="rgb(0,0,0)" stroke-width="30" stroke-linejoin="round" d="M 4588,10967 L 4588,10817"/>
 <path fill="none" stroke="rgb(0,0,0)" stroke-width="30" stroke-linejoin="round" d="M 4588,10967 L 4588,10817"/>
 <path fill="none" stroke="rgb(0,0,0)" stroke-width="30" stroke-linejoin="round" d="M 4710,10967 L 4710,10817"/>
 <path fill="none" stroke="rgb(0,0,0)" stroke-width="30" stroke-linejoin="round" d="M 4710,10967 L 4710,10817"/>
 <path fill="none" stroke="rgb(0,0,0)" stroke-width="30" stroke-linejoin="round" d="M 4831,10967 L 4831,10817"/>
 <path fill="none" stroke="rgb(0,0,0)" stroke-width="30" stroke-linejoin="round" d="M 4831,10967 L 4831,10817"/>
 <path fill="none" stroke="rgb(0,0,0)" stroke-width="30" stroke-linejoin="round" d="M 4953,10967 L 4953,10817"/>
 <path fill="none" stroke="rgb(0,0,0)" stroke-width="30" stroke-linejoin="round" d="M 4953,10967 L 4953,10817"/>
 <path fill="none" stroke="rgb(0,0,0)" stroke-width="30" stroke-linejoin="round" d="M 5075,10967 L 5075,10817"/>
 <path fill="none" stroke="rgb(0,0,0)" stroke-width="30" stroke-linejoin="round" d="M 5075,10967 L 5075,10817"/>
 <path fill="none" stroke="rgb(0,0,0)" stroke-width="30" stroke-linejoin="round" d="M 5196,10967 L 5196,10817"/>
 <path fill="none" stroke="rgb(0,0,0)" stroke-width="30" stroke-linejoin="round" d="M 5196,10967 L 5196,10817"/>
 <path fill="none" stroke="rgb(0,0,0)" stroke-width="30" stroke-linejoin="round" d="M 5318,10967 L 5318,10817"/>
 <path fill="none" stroke="rgb(0,0,0)" stroke-width="30" stroke-linejoin="round" d="M 5318,10967 L 5318,10817"/>
 <path fill="none" stroke="rgb(0,0,0)" stroke-width="30" stroke-linejoin="round" d="M 5439,10967 L 5439,10817"/>
 <path fill="none" stroke="rgb(0,0,0)" stroke-width="30" stroke-linejoin="round" d="M 5439,10967 L 5439,10817"/>
 <path fill="none" stroke="rgb(0,0,0)" stroke-width="30" stroke-linejoin="round" d="M 5561,10967 L 5561,10817"/>
 <path fill="none" stroke="rgb(0,0,0)" stroke-width="30" stroke-linejoin="round" d="M 5561,10967 L 5561,10817"/>
 <path fill="none" stroke="rgb(0,0,0)" stroke-width="30" stroke-linejoin="round" d="M 5683,10967 L 5683,10817"/>
 <path fill="none" stroke="rgb(0,0,0)" stroke-width="30" stroke-linejoin="round" d="M 5683,10967 L 5683,10817"/>
 <path fill="none" stroke="rgb(0,0,0)" stroke-width="30" stroke-linejoin="round" d="M 5804,10967 L 5804,10817"/>
 <path fill="none" stroke="rgb(0,0,0)" stroke-width="30" stroke-linejoin="round" d="M 5804,10967 L 5804,10817"/>
 <path fill="none" stroke="rgb(0,0,0)" stroke-width="30" stroke-linejoin="round" d="M 5926,10967 L 5926,10817"/>
 <path fill="none" stroke="rgb(0,0,0)" stroke-width="30" stroke-linejoin="round" d="M 5926,10967 L 5926,10817"/>
 <path fill="none" stroke="rgb(0,0,0)" stroke-width="30" stroke-linejoin="round" d="M 6047,10967 L 6047,10817"/>
 <path fill="none" stroke="rgb(0,0,0)" stroke-width="30" stroke-linejoin="round" d="M 6047,10967 L 6047,10817"/>
 <path fill="none" stroke="rgb(0,0,0)" stroke-width="30" stroke-linejoin="round" d="M 6169,10967 L 6169,10817"/>
 <path fill="none" stroke="rgb(0,0,0)" stroke-width="30" stroke-linejoin="round" d="M 6169,10967 L 6169,10817"/>
 <path fill="none" stroke="rgb(0,0,0)" stroke-width="30" stroke-linejoin="round" d="M 6290,10967 L 6290,10817"/>
 <path fill="none" stroke="rgb(0,0,0)" stroke-width="30" stroke-linejoin="round" d="M 6290,10967 L 6290,10817"/>
 <path fill="none" stroke="rgb(0,0,0)" stroke-width="30" stroke-linejoin="round" d="M 6412,10967 L 6412,10817"/>
 <path fill="none" stroke="rgb(0,0,0)" stroke-width="30" stroke-linejoin="round" d="M 6412,10967 L 6412,10817"/>
 <path fill="none" stroke="rgb(0,0,0)" stroke-width="30" stroke-linejoin="round" d="M 6534,10967 L 6534,10817"/>
 <path fill="none" stroke="rgb(0,0,0)" stroke-width="30" stroke-linejoin="round" d="M 6534,10967 L 6534,10817"/>
 <path fill="none" stroke="rgb(0,0,0)" stroke-width="30" stroke-linejoin="round" d="M 6655,10967 L 6655,10817"/>
 <path fill="none" stroke="rgb(0,0,0)" stroke-width="30" stroke-linejoin="round" d="M 6655,10967 L 6655,10817"/>
 <path fill="none" stroke="rgb(0,0,0)" stroke-width="30" stroke-linejoin="round" d="M 6777,10967 L 6777,10817"/>
 <path fill="none" stroke="rgb(0,0,0)" stroke-width="30" stroke-linejoin="round" d="M 6777,10967 L 6777,10817"/>
 <path fill="none" stroke="rgb(0,0,0)" stroke-width="30" stroke-linejoin="round" d="M 6898,10967 L 6898,10817"/>
 <path fill="none" stroke="rgb(0,0,0)" stroke-width="30" stroke-linejoin="round" d="M 6898,10967 L 6898,10817"/>
 <path fill="none" stroke="rgb(0,0,0)" stroke-width="30" stroke-linejoin="round" d="M 7020,10967 L 7020,10817"/>
 <path fill="none" stroke="rgb(0,0,0)" stroke-width="30" stroke-linejoin="round" d="M 7020,10967 L 7020,10817"/>
 <path fill="none" stroke="rgb(0,0,0)" stroke-width="30" stroke-linejoin="round" d="M 7142,10967 L 7142,10817"/>
 <path fill="none" stroke="rgb(0,0,0)" stroke-width="30" stroke-linejoin="round" d="M 7142,10967 L 7142,10817"/>
 <path fill="none" stroke="rgb(0,0,0)" stroke-width="30" stroke-linejoin="round" d="M 7263,10967 L 7263,10817"/>
 <path fill="none" stroke="rgb(0,0,0)" stroke-width="30" stroke-linejoin="round" d="M 7263,10967 L 7263,10817"/>
 <path fill="none" stroke="rgb(0,0,0)" stroke-width="30" stroke-linejoin="round" d="M 7385,10967 L 7385,10817"/>
 <path fill="none" stroke="rgb(0,0,0)" stroke-width="30" stroke-linejoin="round" d="M 7385,10967 L 7385,10817"/>
 <path fill="none" stroke="rgb(0,0,0)" stroke-width="30" stroke-linejoin="round" d="M 7506,10967 L 7506,10817"/>
 <path fill="none" stroke="rgb(0,0,0)" stroke-width="30" stroke-linejoin="round" d="M 7506,10967 L 7506,10817"/>
 <path fill="none" stroke="rgb(0,0,0)" stroke-width="30" stroke-linejoin="round" d="M 7628,10967 L 7628,10817"/>
 <path fill="none" stroke="rgb(0,0,0)" stroke-width="30" stroke-linejoin="round" d="M 7628,10967 L 7628,10817"/>
 <path fill="none" stroke="rgb(0,0,0)" stroke-width="30" stroke-linejoin="round" d="M 7750,10967 L 7750,10817"/>
 <path fill="none" stroke="rgb(0,0,0)" stroke-width="30" stroke-linejoin="round" d="M 7750,10967 L 7750,10817"/>
 <path fill="none" stroke="rgb(0,0,0)" stroke-width="30" stroke-linejoin="round" d="M 7871,10967 L 7871,10817"/>
 <path fill="none" stroke="rgb(0,0,0)" stroke-width="30" stroke-linejoin="round" d="M 7871,10967 L 7871,10817"/>
 <path fill="none" stroke="rgb(0,0,0)" stroke-width="30" stroke-linejoin="round" d="M 7993,10967 L 7993,10817"/>
 <path fill="none" stroke="rgb(0,0,0)" stroke-width="30" stroke-linejoin="round" d="M 7993,10967 L 7993,10817"/>
 <path fill="none" stroke="rgb(0,0,0)" stroke-width="30" stroke-linejoin="round" d="M 8114,10967 L 8114,10817"/>
 <path fill="none" stroke="rgb(0,0,0)" stroke-width="30" stroke-linejoin="round" d="M 8114,10967 L 8114,10817"/>
 <path fill="none" stroke="rgb(0,0,0)" stroke-width="30" stroke-linejoin="round" d="M 8235,10967 L 8235,10817"/>
 <path fill="none" stroke="rgb(0,0,0)" stroke-width="30" stroke-linejoin="round" d="M 8235,10967 L 8235,10817"/>
 <path fill="none" stroke="rgb(0,0,0)" stroke-width="30" stroke-linejoin="round" d="M 8357,10967 L 8357,10817"/>
 <path fill="none" stroke="rgb(0,0,0)" stroke-width="30" stroke-linejoin="round" d="M 8357,10967 L 8357,10817"/>
 <path fill="none" stroke="rgb(0,0,0)" stroke-width="30" stroke-linejoin="round" d="M 8478,10967 L 8478,10817"/>
 <path fill="none" stroke="rgb(0,0,0)" stroke-width="30" stroke-linejoin="round" d="M 8478,10967 L 8478,10817"/>
 <path fill="none" stroke="rgb(0,0,0)" stroke-width="30" stroke-linejoin="round" d="M 8600,10967 L 8600,10817"/>
 <path fill="none" stroke="rgb(0,0,0)" stroke-width="30" stroke-linejoin="round" d="M 8600,10967 L 8600,10817"/>
 <path fill="none" stroke="rgb(0,0,0)" stroke-width="30" stroke-linejoin="round" d="M 8721,10967 L 8721,10817"/>
 <path fill="none" stroke="rgb(0,0,0)" stroke-width="30" stroke-linejoin="round" d="M 8721,10967 L 8721,10817"/>
 <path fill="none" stroke="rgb(0,0,0)" stroke-width="30" stroke-linejoin="round" d="M 8843,10967 L 8843,10817"/>
 <path fill="none" stroke="rgb(0,0,0)" stroke-width="30" stroke-linejoin="round" d="M 8843,10967 L 8843,10817"/>
 <path fill="none" stroke="rgb(0,0,0)" stroke-width="30" stroke-linejoin="round" d="M 8965,10967 L 8965,10817"/>
 <path fill="none" stroke="rgb(0,0,0)" stroke-width="30" stroke-linejoin="round" d="M 8965,10967 L 8965,10817"/>
 <path fill="none" stroke="rgb(0,0,0)" stroke-width="30" stroke-linejoin="round" d="M 9086,10967 L 9086,10817"/>
 <path fill="none" stroke="rgb(0,0,0)" stroke-width="30" stroke-linejoin="round" d="M 9086,10967 L 9086,10817"/>
 <path fill="none" stroke="rgb(0,0,0)" stroke-width="30" stroke-linejoin="round" d="M 9208,10967 L 9208,10817"/>
 <path fill="none" stroke="rgb(0,0,0)" stroke-width="30" stroke-linejoin="round" d="M 9208,10967 L 9208,10817"/>
 <path fill="none" stroke="rgb(0,0,0)" stroke-width="30" stroke-linejoin="round" d="M 9329,10967 L 9329,10817"/>
 <path fill="none" stroke="rgb(0,0,0)" stroke-width="30" stroke-linejoin="round" d="M 9329,10967 L 9329,10817"/>
 <path fill="none" stroke="rgb(0,0,0)" stroke-width="30" stroke-linejoin="round" d="M 9451,10967 L 9451,10817"/>
 <path fill="none" stroke="rgb(0,0,0)" stroke-width="30" stroke-linejoin="round" d="M 9451,10967 L 9451,10817"/>
 <path fill="none" stroke="rgb(0,0,0)" stroke-width="30" stroke-linejoin="round" d="M 9573,10967 L 9573,10817"/>
 <path fill="none" stroke="rgb(0,0,0)" stroke-width="30" stroke-linejoin="round" d="M 9573,10967 L 9573,10817"/>
 <path fill="none" stroke="rgb(0,0,0)" stroke-width="30" stroke-linejoin="round" d="M 9694,10967 L 9694,10817"/>
 <path fill="none" stroke="rgb(0,0,0)" stroke-width="30" stroke-linejoin="round" d="M 9694,10967 L 9694,10817"/>
 <path fill="none" stroke="rgb(0,0,0)" stroke-width="30" stroke-linejoin="round" d="M 9816,10967 L 9816,10817"/>
 <path fill="none" stroke="rgb(0,0,0)" stroke-width="30" stroke-linejoin="round" d="M 9816,10967 L 9816,10817"/>
 <path fill="none" stroke="rgb(0,0,0)" stroke-width="30" stroke-linejoin="round" d="M 9937,10967 L 9937,10817"/>
 <path fill="none" stroke="rgb(0,0,0)" stroke-width="30" stroke-linejoin="round" d="M 9937,10967 L 9937,10817"/>
 <path fill="none" stroke="rgb(0,0,0)" stroke-width="30" stroke-linejoin="round" d="M 10059,10967 L 10059,10817"/>
 <path fill="none" stroke="rgb(0,0,0)" stroke-width="30" stroke-linejoin="round" d="M 10059,10967 L 10059,10817"/>
 <path fill="none" stroke="rgb(0,0,0)" stroke-width="30" stroke-linejoin="round" d="M 10181,10967 L 10181,10817"/>
 <path fill="none" stroke="rgb(0,0,0)" stroke-width="30" stroke-linejoin="round" d="M 10181,10967 L 10181,10817"/>
 <path fill="none" stroke="rgb(0,0,0)" stroke-width="30" stroke-linejoin="round" d="M 10302,10967 L 10302,10817"/>
 <path fill="none" stroke="rgb(0,0,0)" stroke-width="30" stroke-linejoin="round" d="M 10302,10967 L 10302,10817"/>
 <path fill="none" stroke="rgb(0,0,0)" stroke-width="30" stroke-linejoin="round" d="M 10424,10967 L 10424,10817"/>
 <path fill="none" stroke="rgb(0,0,0)" stroke-width="30" stroke-linejoin="round" d="M 10424,10967 L 10424,10817"/>
 <path fill="none" stroke="rgb(0,0,0)" stroke-width="30" stroke-linejoin="round" d="M 10545,10967 L 10545,10817"/>
 <path fill="none" stroke="rgb(0,0,0)" stroke-width="30" stroke-linejoin="round" d="M 10545,10967 L 10545,10817"/>
 <path fill="none" stroke="rgb(0,0,0)" stroke-width="30" stroke-linejoin="round" d="M 10667,10967 L 10667,10817"/>
 <path fill="none" stroke="rgb(0,0,0)" stroke-width="30" stroke-linejoin="round" d="M 10667,10967 L 10667,10817"/>
 <path fill="none" stroke="rgb(0,0,0)" stroke-width="30" stroke-linejoin="round" d="M 10788,10967 L 10788,10817"/>
 <path fill="none" stroke="rgb(0,0,0)" stroke-width="30" stroke-linejoin="round" d="M 10788,10967 L 10788,10817"/>
 <path fill="none" stroke="rgb(0,0,0)" stroke-width="30" stroke-linejoin="round" d="M 10910,10967 L 10910,10817"/>
 <path fill="none" stroke="rgb(0,0,0)" stroke-width="30" stroke-linejoin="round" d="M 10910,10967 L 10910,10817"/>
 <path fill="none" stroke="rgb(0,0,0)" stroke-width="30" stroke-linejoin="round" d="M 11032,10967 L 11032,10817"/>
 <path fill="none" stroke="rgb(0,0,0)" stroke-width="30" stroke-linejoin="round" d="M 11032,10967 L 11032,10817"/>
 <path fill="none" stroke="rgb(0,0,0)" stroke-width="30" stroke-linejoin="round" d="M 11153,10967 L 11153,10817"/>
 <path fill="none" stroke="rgb(0,0,0)" stroke-width="30" stroke-linejoin="round" d="M 11153,10967 L 11153,10817"/>
 <path fill="none" stroke="rgb(0,0,0)" stroke-width="30" stroke-linejoin="round" d="M 11275,10967 L 11275,10817"/>
 <path fill="none" stroke="rgb(0,0,0)" stroke-width="30" stroke-linejoin="round" d="M 11275,10967 L 11275,10817"/>
 <path fill="none" stroke="rgb(0,0,0)" stroke-width="30" stroke-linejoin="round" d="M 11396,10967 L 11396,10817"/>
 <path fill="none" stroke="rgb(0,0,0)" stroke-width="30" stroke-linejoin="round" d="M 11396,10967 L 11396,10817"/>
 <path fill="none" stroke="rgb(0,0,0)" stroke-width="30" stroke-linejoin="round" d="M 11518,10967 L 11518,10817"/>
 <path fill="none" stroke="rgb(0,0,0)" stroke-width="30" stroke-linejoin="round" d="M 11518,10967 L 11518,10817"/>
 <path fill="none" stroke="rgb(0,0,0)" stroke-width="30" stroke-linejoin="round" d="M 11640,10967 L 11640,10817"/>
 <path fill="none" stroke="rgb(0,0,0)" stroke-width="30" stroke-linejoin="round" d="M 11640,10967 L 11640,10817"/>
 <path fill="none" stroke="rgb(0,0,0)" stroke-width="30" stroke-linejoin="round" d="M 11761,10967 L 11761,10817"/>
 <path fill="none" stroke="rgb(0,0,0)" stroke-width="30" stroke-linejoin="round" d="M 11761,10967 L 11761,10817"/>
 <path fill="none" stroke="rgb(0,0,0)" stroke-width="30" stroke-linejoin="round" d="M 11883,10967 L 11883,10817"/>
 <path fill="none" stroke="rgb(0,0,0)" stroke-width="30" stroke-linejoin="round" d="M 11883,10967 L 11883,10817"/>
 <path fill="none" stroke="rgb(0,0,0)" stroke-width="30" stroke-linejoin="round" d="M 12004,10967 L 12004,10817"/>
 <path fill="none" stroke="rgb(0,0,0)" stroke-width="30" stroke-linejoin="round" d="M 12004,10967 L 12004,10817"/>
 <path fill="none" stroke="rgb(0,0,0)" stroke-width="30" stroke-linejoin="round" d="M 12126,10967 L 12126,10817"/>
 <path fill="none" stroke="rgb(0,0,0)" stroke-width="30" stroke-linejoin="round" d="M 12126,10967 L 12126,10817"/>
 <path fill="none" stroke="rgb(0,0,0)" stroke-width="30" stroke-linejoin="round" d="M 12248,10967 L 12248,10817"/>
 <path fill="none" stroke="rgb(0,0,0)" stroke-width="30" stroke-linejoin="round" d="M 12248,10967 L 12248,10817"/>
 <path fill="none" stroke="rgb(0,0,0)" stroke-width="30" stroke-linejoin="round" d="M 12369,10967 L 12369,10817"/>
 <path fill="none" stroke="rgb(0,0,0)" stroke-width="30" stroke-linejoin="round" d="M 12369,10967 L 12369,10817"/>
 <path fill="none" stroke="rgb(0,0,0)" stroke-width="30" stroke-linejoin="round" d="M 12491,10967 L 12491,10817"/>
 <path fill="none" stroke="rgb(0,0,0)" stroke-width="30" stroke-linejoin="round" d="M 12491,10967 L 12491,10817"/>
 <path fill="none" stroke="rgb(0,0,0)" stroke-width="30" stroke-linejoin="round" d="M 12612,10967 L 12612,10817"/>
 <path fill="none" stroke="rgb(0,0,0)" stroke-width="30" stroke-linejoin="round" d="M 12612,10967 L 12612,10817"/>
 <path fill="none" stroke="rgb(0,0,0)" stroke-width="30" stroke-linejoin="round" d="M 12734,10967 L 12734,10817"/>
 <path fill="none" stroke="rgb(0,0,0)" stroke-width="30" stroke-linejoin="round" d="M 12734,10967 L 12734,10817"/>
 <path fill="none" stroke="rgb(0,0,0)" stroke-width="30" stroke-linejoin="round" d="M 12856,10967 L 12856,10817"/>
 <path fill="none" stroke="rgb(0,0,0)" stroke-width="30" stroke-linejoin="round" d="M 12856,10967 L 12856,10817"/>
 <path fill="none" stroke="rgb(0,0,0)" stroke-width="30" stroke-linejoin="round" d="M 12977,10967 L 12977,10817"/>
 <path fill="none" stroke="rgb(0,0,0)" stroke-width="30" stroke-linejoin="round" d="M 12977,10967 L 12977,10817"/>
 <path fill="none" stroke="rgb(0,0,0)" stroke-width="30" stroke-linejoin="round" d="M 13099,10967 L 13099,10817"/>
 <path fill="none" stroke="rgb(0,0,0)" stroke-width="30" stroke-linejoin="round" d="M 13099,10967 L 13099,10817"/>
 <path fill="none" stroke="rgb(0,0,0)" stroke-width="30" stroke-linejoin="round" d="M 13220,10967 L 13220,10817"/>
 <path fill="none" stroke="rgb(0,0,0)" stroke-width="30" stroke-linejoin="round" d="M 13220,10967 L 13220,10817"/>
 <path fill="none" stroke="rgb(0,0,0)" stroke-width="30" stroke-linejoin="round" d="M 13342,10967 L 13342,10817"/>
 <path fill="none" stroke="rgb(0,0,0)" stroke-width="30" stroke-linejoin="round" d="M 13342,10967 L 13342,10817"/>
 <path fill="none" stroke="rgb(0,0,0)" stroke-width="30" stroke-linejoin="round" d="M 13464,10967 L 13464,10817"/>
 <path fill="none" stroke="rgb(0,0,0)" stroke-width="30" stroke-linejoin="round" d="M 13464,10967 L 13464,10817"/>
 <path fill="none" stroke="rgb(0,0,0)" stroke-width="30" stroke-linejoin="round" d="M 13585,10967 L 13585,10817"/>
 <path fill="none" stroke="rgb(0,0,0)" stroke-width="30" stroke-linejoin="round" d="M 13585,10967 L 13585,10817"/>
 <path fill="none" stroke="rgb(0,0,0)" stroke-width="30" stroke-linejoin="round" d="M 13707,10967 L 13707,10817"/>
 <path fill="none" stroke="rgb(0,0,0)" stroke-width="30" stroke-linejoin="round" d="M 13707,10967 L 13707,10817"/>
 <path fill="none" stroke="rgb(0,0,0)" stroke-width="30" stroke-linejoin="round" d="M 13828,10967 L 13828,10817"/>
 <path fill="none" stroke="rgb(0,0,0)" stroke-width="30" stroke-linejoin="round" d="M 13828,10967 L 13828,10817"/>
 <path fill="none" stroke="rgb(0,0,0)" stroke-width="30" stroke-linejoin="round" d="M 13950,10967 L 13950,10817"/>
 <path fill="none" stroke="rgb(0,0,0)" stroke-width="30" stroke-linejoin="round" d="M 13950,10967 L 13950,10817"/>
 <path fill="none" stroke="rgb(0,0,0)" stroke-width="30" stroke-linejoin="round" d="M 14072,10967 L 14072,10817"/>
 <path fill="none" stroke="rgb(0,0,0)" stroke-width="30" stroke-linejoin="round" d="M 14072,10967 L 14072,10817"/>
 <path fill="none" stroke="rgb(0,0,0)" stroke-width="30" stroke-linejoin="round" d="M 14193,10967 L 14193,10817"/>
 <path fill="none" stroke="rgb(0,0,0)" stroke-width="30" stroke-linejoin="round" d="M 14193,10967 L 14193,10817"/>
 <path fill="none" stroke="rgb(0,0,0)" stroke-width="30" stroke-linejoin="round" d="M 14315,10967 L 14315,10817"/>
 <path fill="none" stroke="rgb(0,0,0)" stroke-width="30" stroke-linejoin="round" d="M 14315,10967 L 14315,10817"/>
 <path fill="none" stroke="rgb(0,0,0)" stroke-width="30" stroke-linejoin="round" d="M 14436,10967 L 14436,10817"/>
 <path fill="none" stroke="rgb(0,0,0)" stroke-width="30" stroke-linejoin="round" d="M 14436,10967 L 14436,10817"/>
 <path fill="none" stroke="rgb(0,0,0)" stroke-width="30" stroke-linejoin="round" d="M 14558,10967 L 14558,10817"/>
 <path fill="none" stroke="rgb(0,0,0)" stroke-width="30" stroke-linejoin="round" d="M 14558,10967 L 14558,10817"/>
 <path fill="none" stroke="rgb(0,0,0)" stroke-width="30" stroke-linejoin="round" d="M 14680,10967 L 14680,10817"/>
 <path fill="none" stroke="rgb(0,0,0)" stroke-width="30" stroke-linejoin="round" d="M 14680,10967 L 14680,10817"/>
 <path fill="none" stroke="rgb(0,0,0)" stroke-width="30" stroke-linejoin="round" d="M 14801,10967 L 14801,10817"/>
 <path fill="none" stroke="rgb(0,0,0)" stroke-width="30" stroke-linejoin="round" d="M 14801,10967 L 14801,10817"/>
 <path fill="none" stroke="rgb(0,0,0)" stroke-width="30" stroke-linejoin="round" d="M 14923,10967 L 14923,10817"/>
 <path fill="none" stroke="rgb(0,0,0)" stroke-width="30" stroke-linejoin="round" d="M 14923,10967 L 14923,10817"/>
 <path fill="none" stroke="rgb(0,0,0)" stroke-width="30" stroke-linejoin="round" d="M 15044,10967 L 15044,10817"/>
 <path fill="none" stroke="rgb(0,0,0)" stroke-width="30" stroke-linejoin="round" d="M 15044,10967 L 15044,10817"/>
 <path fill="none" stroke="rgb(0,0,0)" stroke-width="30" stroke-linejoin="round" d="M 15166,10967 L 15166,10817"/>
 <path fill="none" stroke="rgb(0,0,0)" stroke-width="30" stroke-linejoin="round" d="M 15166,10967 L 15166,10817"/>
 <path fill="none" stroke="rgb(0,0,0)" stroke-width="30" stroke-linejoin="round" d="M 15288,10967 L 15288,10817"/>
 <path fill="none" stroke="rgb(0,0,0)" stroke-width="30" stroke-linejoin="round" d="M 15288,10967 L 15288,10817"/>
 <path fill="none" stroke="rgb(0,0,0)" stroke-width="30" stroke-linejoin="round" d="M 1184,10817 L 15288,10817"/>
 <path fill="none" stroke="rgb(0,0,0)" stroke-width="30" stroke-linejoin="round" d="M 1034,10817 L 1184,10817"/>
 <path fill="none" stroke="rgb(0,0,0)" stroke-width="30" stroke-linejoin="round" d="M 1034,10817 L 1184,10817"/>
 <path fill="none" stroke="rgb(0,0,0)" stroke-width="30" stroke-linejoin="round" d="M 1034,9195 L 1184,9195"/>
 <path fill="none" stroke="rgb(0,0,0)" stroke-width="30" stroke-linejoin="round" d="M 1034,9195 L 1184,9195"/>
 <path fill="none" stroke="rgb(0,0,0)" stroke-width="30" stroke-linejoin="round" d="M 1034,7574 L 1184,7574"/>
 <path fill="none" stroke="rgb(0,0,0)" stroke-width="30" stroke-linejoin="round" d="M 1034,7574 L 1184,7574"/>
 <path fill="none" stroke="rgb(0,0,0)" stroke-width="30" stroke-linejoin="round" d="M 1034,5954 L 1184,5954"/>
 <path fill="none" stroke="rgb(0,0,0)" stroke-width="30" stroke-linejoin="round" d="M 1034,5954 L 1184,5954"/>
 <path fill="none" stroke="rgb(0,0,0)" stroke-width="30" stroke-linejoin="round" d="M 1034,4333 L 1184,4333"/>
 <path fill="none" stroke="rgb(0,0,0)" stroke-width="30" stroke-linejoin="round" d="M 1034,4333 L 1184,4333"/>
 <path fill="none" stroke="rgb(0,0,0)" stroke-width="30" stroke-linejoin="round" d="M 1034,2712 L 1184,2712"/>
 <path fill="none" stroke="rgb(0,0,0)" stroke-width="30" stroke-linejoin="round" d="M 1034,2712 L 1184,2712"/>
 <path fill="none" stroke="rgb(0,0,0)" stroke-width="30" stroke-linejoin="round" d="M 1034,1090 L 1184,1090"/>
 <path fill="none" stroke="rgb(0,0,0)" stroke-width="30" stroke-linejoin="round" d="M 1034,1090 L 1184,1090"/>
 <path fill="none" stroke="rgb(0,0,0)" stroke-width="30" stroke-linejoin="round" d="M 1184,10817 L 1184,1091"/>
 <path fill="none" stroke="rgb(0,0,0)" stroke-width="30" stroke-linejoin="round" d="M 15438,10817 L 15288,10817"/>
 <path fill="none" stroke="rgb(0,0,0)" stroke-width="30" stroke-linejoin="round" d="M 15438,10817 L 15288,10817"/>
 <path fill="none" stroke="rgb(0,0,0)" stroke-width="30" stroke-linejoin="round" d="M 15438,9195 L 15288,9195"/>
 <path fill="none" stroke="rgb(0,0,0)" stroke-width="30" stroke-linejoin="round" d="M 15438,9195 L 15288,9195"/>
 <path fill="none" stroke="rgb(0,0,0)" stroke-width="30" stroke-linejoin="round" d="M 15438,7574 L 15288,7574"/>
 <path fill="none" stroke="rgb(0,0,0)" stroke-width="30" stroke-linejoin="round" d="M 15438,7574 L 15288,7574"/>
 <path fill="none" stroke="rgb(0,0,0)" stroke-width="30" stroke-linejoin="round" d="M 15438,5954 L 15288,5954"/>
 <path fill="none" stroke="rgb(0,0,0)" stroke-width="30" stroke-linejoin="round" d="M 15438,5954 L 15288,5954"/>
 <path fill="none" stroke="rgb(0,0,0)" stroke-width="30" stroke-linejoin="round" d="M 15438,4333 L 15288,4333"/>
 <path fill="none" stroke="rgb(0,0,0)" stroke-width="30" stroke-linejoin="round" d="M 15438,4333 L 15288,4333"/>
 <path fill="none" stroke="rgb(0,0,0)" stroke-width="30" stroke-linejoin="round" d="M 15438,2712 L 15288,2712"/>
 <path fill="none" stroke="rgb(0,0,0)" stroke-width="30" stroke-linejoin="round" d="M 15438,2712 L 15288,2712"/>
 <path fill="none" stroke="rgb(0,0,0)" stroke-width="30" stroke-linejoin="round" d="M 15438,1090 L 15288,1090"/>
 <path fill="none" stroke="rgb(0,0,0)" stroke-width="30" stroke-linejoin="round" d="M 15438,1090 L 15288,1090"/>
 <path fill="none" stroke="rgb(0,0,0)" stroke-width="30" stroke-linejoin="round" d="M 15288,10817 L 15288,1091"/>
 <path fill="none" stroke="rgb(0,69,134)" stroke-width="80" stroke-linejoin="round" d="M 1184,9524 L 1305,9539 1427,9630 1548,9675 1670,9685 1791,9711 1913,9756 2035,9798 2156,9818 2278,9852 2399,9901 2521,9912 2643,9941 2764,9952 2886,9980 3007,9985 3129,9969 3251,9965 3372,9969 3494,9993 3615,9980 3737,9951 3859,9967 3980,9975 4102,9983 4223,9949 4345,9973 4467,9983 4588,9988 4710,9948 4831,9957 4953,9978 5075,9928 5196,9956 5318,9973 5439,9999 5561,10033 5683,9962 5804,10016 5926,9959 6047,10019 6169,9972 6290,9969 6412,9952 6534,9868 6655,9875 6777,9905 6898,9949 7020,9917 7142,9854 7263,9868 7385,9897 7506,9863 7628,9834 7750,9826 7871,9790 7993,9743 8114,9789 8235,9759 8357,9696 8478,9646 8600,9547 8721,9495 8843,9523 8965,9575 9086,9463 9208,9370 9329,9328 9451,9244 9573,8743 9694,8798 9816,8863 9937,8892 10059,8571 10181,8589 10302,8448 10424,8283 10545,8289 10667,8555 10788,8735 10910,8837 11032,8644 11153,8712 11275,8435 11396,8253 11518,8080 11640,7861 11761,7775 11883,7715 12004,7621 12126,7344 12248,7141 12369,6861 12491,6824 12612,6624 12734,6674 12856,6422 12977,6193 13099,5946 13220,6227 13342,5902 13464,5774 13585,5528 13707,5205 13828,4819 13950,4534 14072,4467 14193,4474 14315,4151 14436,3809 14558,3718 14680,4077 14801,3898 14923,3864 15044,3684 15166,3451 15288,3268"/>
 <path fill="none" stroke="rgb(255,66,14)" stroke-width="80" stroke-linejoin="round" d="M 1184,2412 L 1305,2477 1427,2691 1548,2798 1670,2875 1791,2814 1913,3088 2035,3208 2156,3269 2278,3418 2399,3542 2521,3581 2643,3770 2764,3906 2886,4077 3007,4124 3129,4227 3251,4310 3372,4341 3494,4393 3615,4438 3737,4519 3859,4615 3980,4634 4102,4774 4223,4873 4345,5036 4467,5088 4588,5166 4710,5309 4831,5294 4953,5291 5075,5328 5196,5432 5318,5482 5439,5500 5561,5513 5683,5638 5804,5693 5926,5764 6047,5790 6169,5876 6290,5943 6412,5960 6534,5977 6655,6037 6777,6105 6898,6246 7020,6173 7142,6033 7263,6025 7385,6071 7506,6093 7628,5993 7750,6130 7871,6266 7993,6352 8114,6418 8235,6327 8357,6357 8478,6313 8600,6045 8721,6242 8843,6116 8965,6126 9086,6290 9208,6405 9329,6428 9451,6349 9573,6527 9694,6623 9816,6705 9937,6653 10059,6611 10181,6632 10302,6751 10424,6812 10545,6916 10667,7222 10788,7310 10910,7080 11032,7167 11153,7222 11275,7328 11396,7266 11518,7289 11640,7099 11761,7284 11883,7419 12004,7595 12126,7603 12248,7608 12369,7697 12491,7718 12612,7942 12734,7945 12856,7965 12977,7954 13099,8046 13220,8197 13342,8252 13464,8211 13585,8286 13707,8347 13828,8281 13950,8527 14072,8631 14193,8584 14315,8536 14436,8409 14558,8432 14680,8461 14801,8459 14923,8286 15044,8510 15166,8565 15288,8518"/>
 <path fill="none" stroke="rgb(255,211,32)" stroke-width="80" stroke-linejoin="round" d="M 1184,5195 L 1305,5140 1427,4933 1548,4869 1670,4720 1791,4762 1913,4571 2035,4432 2156,4364 2278,4240 2399,4124 2521,4023 2643,3866 2764,3803 2886,3650 3007,3624 3129,3582 3251,3560 3372,3524 3494,3436 3615,3449 3737,3420 3859,3362 3980,3349 4102,3253 4223,3232 4345,3086 4467,3055 4588,3028 4710,2986 4831,3008 4953,3054 5075,3080 5196,3010 5318,2999 5439,2932 5561,2846 5683,2841 5804,2725 5926,2809 6047,2736 6169,2746 6290,2742 6412,2793 6534,2884 6655,2911 6777,2866 6898,2729 7020,2794 7142,2918 7263,2943 7385,2952 7506,3034 7628,3130 7750,3086 7871,3002 7993,3020 8114,2976 8235,2986 8357,3046 8478,3120 8600,3349 8721,3242 8843,3308 8965,3208 9086,3239 9208,3329 9329,3344 9451,3436 9573,3848 9694,3751 9816,3704 9937,3608 10059,3937 10181,3958 10302,4007 10424,4125 10545,4099 10667,3846 10788,3629 10910,3534 11032,3461 11153,3433 11275,3634 11396,3913 11518,4067 11640,4390 11761,4274 11883,4330 12004,4255 12126,4407 12248,4655 12369,4796 12491,4748 12612,4777 12734,4740 12856,4973 12977,5200 13099,5346 13220,5163 13342,5293 13464,5403 13585,5563 13707,5784 13828,6017 13950,6040 14072,6029 14193,5990 14315,6116 14436,6423 14558,6469 14680,6186 14801,6365 14923,6516 15044,6516 15166,6663 15288,6788"/>
 <path fill="none" stroke="rgb(87,157,28)" stroke-width="80" stroke-linejoin="round" d="M 1184,10168 L 1305,10147 1427,10063 1548,9986 1670,10051 1791,10051 1913,9951 2035,9943 2156,9925 2278,9886 2399,9855 2521,9894 2643,9847 2764,9802 2886,9782 3007,9779 3129,9766 3251,9761 3372,9768 3494,9790 3615,9758 3737,9769 3859,9763 3980,9782 4102,9785 4223,9798 4345,9808 4467,9819 4588,9819 4710,9823 4831,9831 4953,9815 5075,9828 5196,9831 5318,9834 5439,9868 5561,9905 5683,9917 5804,9943 5926,9914 6047,9901 6169,9918 6290,9922 6412,9928 6534,9956 6655,9962 6777,9948 6898,9956 7020,9988 7142,10048 7263,10051 7385,10045 7506,10045 7628,10069 7750,10066 7871,10079 7993,10069 8114,10046 8235,10087 8357,10102 8478,10115 8600,10175 8721,10163 8843,10200 8965,10209 9086,10197 9208,10171 9329,10199 9451,10239 9573,10296 9694,10273 9816,10239 9937,10236 10059,10272 10181,10257 10302,10247 10424,10231 10545,10218 10667,10103 10788,10051 10910,10098 11032,10166 11153,10163 11275,10212 11396,10205 11518,10223 11640,10252 11761,10269 11883,10260 12004,10260 12126,10309 12248,10273 12369,10288 12491,10303 12612,10307 12734,10307 12856,10319 12977,10332 13099,10343 13220,10317 13342,10333 13464,10350 13585,10359 13707,10374 13828,10413 13950,10424 14072,10423 14193,10458 14315,10473 14436,10499 14558,10484 14680,10476 14801,10473 14923,10499 15044,10478 15166,10483 15288,10504"/>
 <path fill="none" stroke="rgb(126,0,33)" stroke-width="80" stroke-linejoin="round" d="M 1184,10640 L 1305,10633 1427,10615 1548,10611 1670,10603 1791,10606 1913,10578 2035,10564 2156,10562 2278,10551 2399,10531 2521,10546 2643,10525 2764,10499 2886,10486 3007,10481 3129,10461 3251,10445 3372,10432 3494,10429 3615,10392 3737,10376 3859,10348 3980,10337 4102,10304 4223,10267 4345,10238 4467,10222 4588,10187 4710,10158 4831,10132 4953,10098 5075,10111 5196,10095 5318,10058 5439,10055 5561,10055 5683,10024 5804,10032 5926,10003 6047,9990 6169,9964 6290,9933 6412,9907 6534,9907 6655,9875 6777,9841 6898,9803 7020,9826 7142,9866 7263,9854 7385,9807 7506,9772 7628,9785 7750,9756 7871,9732 7993,9693 8114,9615 8235,9664 8357,9649 8478,9623 8600,9693 8721,9664 8843,9690 8965,9649 9086,9601 9208,9544 9329,9541 9451,9623 9573,9622 9694,9565 9816,9453 9937,9460 10059,9487 10181,9456 10302,9427 10424,9396 10545,9348 10667,9246 10788,9171 10910,9246 11032,9288 11153,9259 11275,9255 11396,9203 11518,9184 11640,9226 11761,9187 11883,9173 12004,9165 12126,9212 12248,9147 12369,9142 12491,9142 12612,9092 12734,9092 12856,9074 12977,9075 13099,9090 13220,8941 13342,8994 13464,9023 13585,9002 13707,9012 13828,9147 13950,9114 14072,9126 14193,9186 14315,9332 14436,9426 14558,9403 14680,9333 14801,9328 14923,9396 15044,9341 15166,9348 15288,9419"/>
 <path fill="none" stroke="rgb(131,202,255)" stroke-width="80" stroke-linejoin="round" d="M 1184,10750 L 1305,10753 1427,10758 1548,10750 1670,10755 1791,10745 1913,10745 2035,10745 2156,10752 2278,10742 2399,10737 2521,10734 2643,10740 2764,10727 2886,10714 3007,10697 3129,10684 3251,10648 3372,10656 3494,10648 3615,10672 3737,10654 3859,10635 3980,10612 4102,10590 4223,10570 4345,10547 4467,10521 4588,10500 4710,10466 4831,10466 4953,10453 5075,10414 5196,10366 5318,10343 5439,10335 5561,10337 5683,10307 5804,10282 5926,10241 6047,10254 6169,10213 6290,10181 6412,10149 6534,10098 6655,10030 6777,10025 6898,10004 7020,9990 7142,9970 7263,9948 7385,9918 7506,9881 7628,9878 7750,9824 7871,9819 7993,9811 8114,9844 8235,9865 8357,9839 8478,9871 8600,9881 8721,9883 8843,9852 8965,9923 9086,9899 9208,9868 9329,9849 9451,9797 9573,9653 9694,9678 9816,9724 9937,9839 10059,9810 10181,9795 10302,9808 10424,9841 10545,9818 10667,9716 10788,9792 10910,9894 11032,9962 11153,9899 11275,9824 11396,9847 11518,9845 11640,9860 11761,9899 11883,9792 12004,9792 12126,9813 12248,9863 12369,9904 12491,9954 12612,9946 12734,9930 12856,9936 12977,9935 13099,9918 13220,9844 13342,9915 13464,9928 13585,9951 13707,9967 13828,10012 13950,10050 14072,10014 14193,9998 14315,10082 14436,10123 14558,10183 14680,10155 14801,10165 14923,10128 15044,10160 15166,10179 15288,10192"/>
 <text class="TextShape"><tspan class="TextParagraph" font-family="Arial, sans-serif" font-size="388px" font-weight="400"><tspan class="TextPosition" x="1003" y="11411"><tspan fill="rgb(0,0,0)" stroke="none">2008</tspan></tspan></tspan></text>
 <text class="TextShape"><tspan class="TextParagraph" font-family="Arial, sans-serif" font-size="388px" font-weight="400"><tspan class="TextPosition" x="2462" y="11411"><tspan fill="rgb(0,0,0)" stroke="none">2009</tspan></tspan></tspan></text>
 <text class="TextShape"><tspan class="TextParagraph" font-family="Arial, sans-serif" font-size="388px" font-weight="400"><tspan class="TextPosition" x="3921" y="11411"><tspan fill="rgb(0,0,0)" stroke="none">2010</tspan></tspan></tspan></text>
 <text class="TextShape"><tspan class="TextParagraph" font-family="Arial, sans-serif" font-size="388px" font-weight="400"><tspan class="TextPosition" x="5380" y="11411"><tspan fill="rgb(0,0,0)" stroke="none">2011</tspan></tspan></tspan></text>
 <text class="TextShape"><tspan class="TextParagraph" font-family="Arial, sans-serif" font-size="388px" font-weight="400"><tspan class="TextPosition" x="6839" y="11411"><tspan fill="rgb(0,0,0)" stroke="none">2012</tspan></tspan></tspan></text>
 <text class="TextShape"><tspan class="TextParagraph" font-family="Arial, sans-serif" font-size="388px" font-weight="400"><tspan class="TextPosition" x="8298" y="11411"><tspan fill="rgb(0,0,0)" stroke="none">2013</tspan></tspan></tspan></text>
 <text class="TextShape"><tspan class="TextParagraph" font-family="Arial, sans-serif" font-size="388px" font-weight="400"><tspan class="TextPosition" x="9758" y="11411"><tspan fill="rgb(0,0,0)" stroke="none">2014</tspan></tspan></tspan></text>
 <text class="TextShape"><tspan class="TextParagraph" font-family="Arial, sans-serif" font-size="388px" font-weight="400"><tspan class="TextPosition" x="11217" y="11411"><tspan fill="rgb(0,0,0)" stroke="none">2015</tspan></tspan></tspan></text>
 <text class="TextShape"><tspan class="TextParagraph" font-family="Arial, sans-serif" font-size="388px" font-weight="400"><tspan class="TextPosition" x="12676" y="11411"><tspan fill="rgb(0,0,0)" stroke="none">2016</tspan></tspan></tspan></text>
 <text class="TextShape"><tspan class="TextParagraph" font-family="Arial, sans-serif" font-size="388px" font-weight="400"><tspan class="TextPosition" x="14135" y="11411"><tspan fill="rgb(0,0,0)" stroke="none">2017</tspan></tspan></tspan></text>
 <text class="TextShape"><tspan class="TextParagraph" font-family="Arial, sans-serif" font-size="388px" font-weight="400"><tspan class="TextPosition" x="378" y="10951"><tspan fill="rgb(0,0,0)" stroke="none">0%</tspan></tspan></tspan></text>
 <text class="TextShape"><tspan class="TextParagraph" font-family="Arial, sans-serif" font-size="388px" font-weight="400"><tspan class="TextPosition" x="167" y="9329"><tspan fill="rgb(0,0,0)" stroke="none">10%</tspan></tspan></tspan></text>
 <text class="TextShape"><tspan class="TextParagraph" font-family="Arial, sans-serif" font-size="388px" font-weight="400"><tspan class="TextPosition" x="167" y="7708"><tspan fill="rgb(0,0,0)" stroke="none">20%</tspan></tspan></tspan></text>
 <text class="TextShape"><tspan class="TextParagraph" font-family="Arial, sans-serif" font-size="388px" font-weight="400"><tspan class="TextPosition" x="167" y="6087"><tspan fill="rgb(0,0,0)" stroke="none">30%</tspan></tspan></tspan></text>
 <text class="TextShape"><tspan class="TextParagraph" font-family="Arial, sans-serif" font-size="388px" font-weight="400"><tspan class="TextPosition" x="167" y="4466"><tspan fill="rgb(0,0,0)" stroke="none">40%</tspan></tspan></tspan></text>
 <text class="TextShape"><tspan class="TextParagraph" font-family="Arial, sans-serif" font-size="388px" font-weight="400"><tspan class="TextPosition" x="167" y="2845"><tspan fill="rgb(0,0,0)" stroke="none">50%</tspan></tspan></tspan></text>
 <text class="TextShape"><tspan class="TextParagraph" font-family="Arial, sans-serif" font-size="388px" font-weight="400"><tspan class="TextPosition" x="167" y="1223"><tspan fill="rgb(0,0,0)" stroke="none">60%</tspan></tspan></tspan></text>
 <text class="TextShape"><tspan class="TextParagraph" font-family="Arial, sans-serif" font-size="388px" font-weight="400"><tspan class="TextPosition" x="15538" y="10951"><tspan fill="rgb(0,0,0)" stroke="none">0%</tspan></tspan></tspan></text>
 <text class="TextShape"><tspan class="TextParagraph" font-family="Arial, sans-serif" font-size="388px" font-weight="400"><tspan class="TextPosition" x="15538" y="9329"><tspan fill="rgb(0,0,0)" stroke="none">10%</tspan></tspan></tspan></text>
 <text class="TextShape"><tspan class="TextParagraph" font-family="Arial, sans-serif" font-size="388px" font-weight="400"><tspan class="TextPosition" x="15538" y="7708"><tspan fill="rgb(0,0,0)" stroke="none">20%</tspan></tspan></tspan></text>
 <text class="TextShape"><tspan class="TextParagraph" font-family="Arial, sans-serif" font-size="388px" font-weight="400"><tspan class="TextPosition" x="15538" y="6087"><tspan fill="rgb(0,0,0)" stroke="none">30%</tspan></tspan></tspan></text>
 <text class="TextShape"><tspan class="TextParagraph" font-family="Arial, sans-serif" font-size="388px" font-weight="400"><tspan class="TextPosition" x="15538" y="4466"><tspan fill="rgb(0,0,0)" stroke="none">40%</tspan></tspan></tspan></text>
 <text class="TextShape"><tspan class="TextParagraph" font-family="Arial, sans-serif" font-size="388px" font-weight="400"><tspan class="TextPosition" x="15538" y="2845"><tspan fill="rgb(0,0,0)" stroke="none">50%</tspan></tspan></tspan></text>
 <text class="TextShape"><tspan class="TextParagraph" font-family="Arial, sans-serif" font-size="388px" font-weight="400"><tspan class="TextPosition" x="15538" y="1223"><tspan fill="rgb(0,0,0)" stroke="none">60%</tspan></tspan></tspan></text>
 <text class="TextShape"><tspan class="TextParagraph" font-family="Liberation Sans, sans-serif" font-size="635px" font-weight="400"><tspan class="TextPosition" x="5644" y="747"><tspan fill="rgb(0,0,0)" stroke="none">Número de píxeles </tspan></tspan></tspan></text>
 <path fill="none" stroke="rgb(0,69,134)" stroke-width="80" stroke-linejoin="round" d="M 1247,11981 L 2047,11981"/>
 <path fill="none" stroke="rgb(255,66,14)" stroke-width="80" stroke-linejoin="round" d="M 3677,11981 L 4477,11981"/>
 <path fill="none" stroke="rgb(255,211,32)" stroke-width="80" stroke-linejoin="round" d="M 6107,11981 L 6907,11981"/>
 <path fill="none" stroke="rgb(87,157,28)" stroke-width="80" stroke-linejoin="round" d="M 8536,11981 L 9336,11981"/>
 <path fill="none" stroke="rgb(126,0,33)" stroke-width="80" stroke-linejoin="round" d="M 10966,11981 L 11766,11981"/>
 <path fill="none" stroke="rgb(131,202,255)" stroke-width="80" stroke-linejoin="round" d="M 13396,11981 L 14196,11981"/>
 <text class="TextShape"><tspan class="TextParagraph" font-family="Arial, sans-serif" font-size="353px" font-weight="400"><tspan class="TextPosition" x="2147" y="12100"><tspan fill="rgb(0,0,0)" stroke="none">0,5 MPx</tspan></tspan></tspan></text>
 <text class="TextShape"><tspan class="TextParagraph" font-family="Arial, sans-serif" font-size="353px" font-weight="400"><tspan class="TextPosition" x="4577" y="12100"><tspan fill="rgb(0,0,0)" stroke="none">1,0 MPx</tspan></tspan></tspan></text>
 <text class="TextShape"><tspan class="TextParagraph" font-family="Arial, sans-serif" font-size="353px" font-weight="400"><tspan class="TextPosition" x="7007" y="12100"><tspan fill="rgb(0,0,0)" stroke="none">1,5 MPx</tspan></tspan></tspan></text>
 <text class="TextShape"><tspan class="TextParagraph" font-family="Arial, sans-serif" font-size="353px" font-weight="400"><tspan class="TextPosition" x="9436" y="12100"><tspan fill="rgb(0,0,0)" stroke="none">2,0 MPx</tspan></tspan></tspan></text>
 <text class="TextShape"><tspan class="TextParagraph" font-family="Arial, sans-serif" font-size="353px" font-weight="400"><tspan class="TextPosition" x="11866" y="12100"><tspan fill="rgb(0,0,0)" stroke="none">2,5 MPx</tspan></tspan></tspan></text>
 <text class="TextShape"><tspan class="TextParagraph" font-family="Arial, sans-serif" font-size="353px" font-weight="400"><tspan class="TextPosition" x="14296" y="12100"><tspan fill="rgb(0,0,0)" stroke="none">Otros</tspan></tspan></tspan></text>
</svg>
