<?xml version="1.0" encoding="UTF-8"?>
<!DOCTYPE svg PUBLIC "-//W3C//DTD SVG 1.1//EN" "http://www.w3.org/Graphics/SVG/1.1/DTD/svg11.dtd">
<svg width="166mm" height="124mm" viewBox="0 0 16600 12400" version="1.1" xmlns="http://www.w3.org/2000/svg" stroke-width="28.222" stroke-linejoin="round" xml:space="preserve">
 <path fill="rgb(255,255,255)" stroke="none" d="M 8298,12447 L 0,12447 0,27 16595,27 16595,12447 8298,12447 Z"/>
 <path fill="none" stroke="rgb(179,179,179)" stroke-linejoin="round" d="M 8346,10674 L 1229,10674 1229,1156 15463,1156 15463,10674 8346,10674 Z"/>
 <path fill="none" stroke="rgb(0,0,0)" stroke-linejoin="round" d="M 15463,10673 L 1229,10673"/>
 <path fill="none" stroke="rgb(0,0,0)" stroke-linejoin="round" d="M 15463,9615 L 1229,9615"/>
 <path fill="none" stroke="rgb(0,0,0)" stroke-linejoin="round" d="M 15463,8558 L 1229,8558"/>
 <path fill="none" stroke="rgb(0,0,0)" stroke-linejoin="round" d="M 15463,7500 L 1229,7500"/>
 <path fill="none" stroke="rgb(0,0,0)" stroke-linejoin="round" d="M 15463,6443 L 1229,6443"/>
 <path fill="none" stroke="rgb(0,0,0)" stroke-linejoin="round" d="M 15463,5385 L 1229,5385"/>
 <path fill="none" stroke="rgb(0,0,0)" stroke-linejoin="round" d="M 15463,4327 L 1229,4327"/>
 <path fill="none" stroke="rgb(0,0,0)" stroke-linejoin="round" d="M 15463,3270 L 1229,3270"/>
 <path fill="none" stroke="rgb(0,0,0)" stroke-linejoin="round" d="M 15463,2212 L 1229,2212"/>
 <path fill="none" stroke="rgb(0,0,0)" stroke-linejoin="round" d="M 15463,1155 L 1229,1155"/>
 <path fill="none" stroke="rgb(0,0,0)" stroke-linejoin="round" d="M 1229,10823 L 1229,10673"/>
 <path fill="none" stroke="rgb(0,0,0)" stroke-linejoin="round" d="M 1229,10823 L 1229,10673"/>
 <path fill="none" stroke="rgb(0,0,0)" stroke-linejoin="round" d="M 1350,10823 L 1350,10673"/>
 <path fill="none" stroke="rgb(0,0,0)" stroke-linejoin="round" d="M 1350,10823 L 1350,10673"/>
 <path fill="none" stroke="rgb(0,0,0)" stroke-linejoin="round" d="M 1472,10823 L 1472,10673"/>
 <path fill="none" stroke="rgb(0,0,0)" stroke-linejoin="round" d="M 1472,10823 L 1472,10673"/>
 <path fill="none" stroke="rgb(0,0,0)" stroke-linejoin="round" d="M 1594,10823 L 1594,10673"/>
 <path fill="none" stroke="rgb(0,0,0)" stroke-linejoin="round" d="M 1594,10823 L 1594,10673"/>
 <path fill="none" stroke="rgb(0,0,0)" stroke-linejoin="round" d="M 1715,10823 L 1715,10673"/>
 <path fill="none" stroke="rgb(0,0,0)" stroke-linejoin="round" d="M 1715,10823 L 1715,10673"/>
 <path fill="none" stroke="rgb(0,0,0)" stroke-linejoin="round" d="M 1837,10823 L 1837,10673"/>
 <path fill="none" stroke="rgb(0,0,0)" stroke-linejoin="round" d="M 1837,10823 L 1837,10673"/>
 <path fill="none" stroke="rgb(0,0,0)" stroke-linejoin="round" d="M 1959,10823 L 1959,10673"/>
 <path fill="none" stroke="rgb(0,0,0)" stroke-linejoin="round" d="M 1959,10823 L 1959,10673"/>
 <path fill="none" stroke="rgb(0,0,0)" stroke-linejoin="round" d="M 2080,10823 L 2080,10673"/>
 <path fill="none" stroke="rgb(0,0,0)" stroke-linejoin="round" d="M 2080,10823 L 2080,10673"/>
 <path fill="none" stroke="rgb(0,0,0)" stroke-linejoin="round" d="M 2202,10823 L 2202,10673"/>
 <path fill="none" stroke="rgb(0,0,0)" stroke-linejoin="round" d="M 2202,10823 L 2202,10673"/>
 <path fill="none" stroke="rgb(0,0,0)" stroke-linejoin="round" d="M 2324,10823 L 2324,10673"/>
 <path fill="none" stroke="rgb(0,0,0)" stroke-linejoin="round" d="M 2324,10823 L 2324,10673"/>
 <path fill="none" stroke="rgb(0,0,0)" stroke-linejoin="round" d="M 2445,10823 L 2445,10673"/>
 <path fill="none" stroke="rgb(0,0,0)" stroke-linejoin="round" d="M 2445,10823 L 2445,10673"/>
 <path fill="none" stroke="rgb(0,0,0)" stroke-linejoin="round" d="M 2567,10823 L 2567,10673"/>
 <path fill="none" stroke="rgb(0,0,0)" stroke-linejoin="round" d="M 2567,10823 L 2567,10673"/>
 <path fill="none" stroke="rgb(0,0,0)" stroke-linejoin="round" d="M 2689,10823 L 2689,10673"/>
 <path fill="none" stroke="rgb(0,0,0)" stroke-linejoin="round" d="M 2689,10823 L 2689,10673"/>
 <path fill="none" stroke="rgb(0,0,0)" stroke-linejoin="round" d="M 2810,10823 L 2810,10673"/>
 <path fill="none" stroke="rgb(0,0,0)" stroke-linejoin="round" d="M 2810,10823 L 2810,10673"/>
 <path fill="none" stroke="rgb(0,0,0)" stroke-linejoin="round" d="M 2932,10823 L 2932,10673"/>
 <path fill="none" stroke="rgb(0,0,0)" stroke-linejoin="round" d="M 2932,10823 L 2932,10673"/>
 <path fill="none" stroke="rgb(0,0,0)" stroke-linejoin="round" d="M 3054,10823 L 3054,10673"/>
 <path fill="none" stroke="rgb(0,0,0)" stroke-linejoin="round" d="M 3054,10823 L 3054,10673"/>
 <path fill="none" stroke="rgb(0,0,0)" stroke-linejoin="round" d="M 3175,10823 L 3175,10673"/>
 <path fill="none" stroke="rgb(0,0,0)" stroke-linejoin="round" d="M 3175,10823 L 3175,10673"/>
 <path fill="none" stroke="rgb(0,0,0)" stroke-linejoin="round" d="M 3297,10823 L 3297,10673"/>
 <path fill="none" stroke="rgb(0,0,0)" stroke-linejoin="round" d="M 3297,10823 L 3297,10673"/>
 <path fill="none" stroke="rgb(0,0,0)" stroke-linejoin="round" d="M 3419,10823 L 3419,10673"/>
 <path fill="none" stroke="rgb(0,0,0)" stroke-linejoin="round" d="M 3419,10823 L 3419,10673"/>
 <path fill="none" stroke="rgb(0,0,0)" stroke-linejoin="round" d="M 3540,10823 L 3540,10673"/>
 <path fill="none" stroke="rgb(0,0,0)" stroke-linejoin="round" d="M 3540,10823 L 3540,10673"/>
 <path fill="none" stroke="rgb(0,0,0)" stroke-linejoin="round" d="M 3662,10823 L 3662,10673"/>
 <path fill="none" stroke="rgb(0,0,0)" stroke-linejoin="round" d="M 3662,10823 L 3662,10673"/>
 <path fill="none" stroke="rgb(0,0,0)" stroke-linejoin="round" d="M 3784,10823 L 3784,10673"/>
 <path fill="none" stroke="rgb(0,0,0)" stroke-linejoin="round" d="M 3784,10823 L 3784,10673"/>
 <path fill="none" stroke="rgb(0,0,0)" stroke-linejoin="round" d="M 3905,10823 L 3905,10673"/>
 <path fill="none" stroke="rgb(0,0,0)" stroke-linejoin="round" d="M 3905,10823 L 3905,10673"/>
 <path fill="none" stroke="rgb(0,0,0)" stroke-linejoin="round" d="M 4027,10823 L 4027,10673"/>
 <path fill="none" stroke="rgb(0,0,0)" stroke-linejoin="round" d="M 4027,10823 L 4027,10673"/>
 <path fill="none" stroke="rgb(0,0,0)" stroke-linejoin="round" d="M 4149,10823 L 4149,10673"/>
 <path fill="none" stroke="rgb(0,0,0)" stroke-linejoin="round" d="M 4149,10823 L 4149,10673"/>
 <path fill="none" stroke="rgb(0,0,0)" stroke-linejoin="round" d="M 4270,10823 L 4270,10673"/>
 <path fill="none" stroke="rgb(0,0,0)" stroke-linejoin="round" d="M 4270,10823 L 4270,10673"/>
 <path fill="none" stroke="rgb(0,0,0)" stroke-linejoin="round" d="M 4392,10823 L 4392,10673"/>
 <path fill="none" stroke="rgb(0,0,0)" stroke-linejoin="round" d="M 4392,10823 L 4392,10673"/>
 <path fill="none" stroke="rgb(0,0,0)" stroke-linejoin="round" d="M 4514,10823 L 4514,10673"/>
 <path fill="none" stroke="rgb(0,0,0)" stroke-linejoin="round" d="M 4514,10823 L 4514,10673"/>
 <path fill="none" stroke="rgb(0,0,0)" stroke-linejoin="round" d="M 4635,10823 L 4635,10673"/>
 <path fill="none" stroke="rgb(0,0,0)" stroke-linejoin="round" d="M 4635,10823 L 4635,10673"/>
 <path fill="none" stroke="rgb(0,0,0)" stroke-linejoin="round" d="M 4757,10823 L 4757,10673"/>
 <path fill="none" stroke="rgb(0,0,0)" stroke-linejoin="round" d="M 4757,10823 L 4757,10673"/>
 <path fill="none" stroke="rgb(0,0,0)" stroke-linejoin="round" d="M 4879,10823 L 4879,10673"/>
 <path fill="none" stroke="rgb(0,0,0)" stroke-linejoin="round" d="M 4879,10823 L 4879,10673"/>
 <path fill="none" stroke="rgb(0,0,0)" stroke-linejoin="round" d="M 5000,10823 L 5000,10673"/>
 <path fill="none" stroke="rgb(0,0,0)" stroke-linejoin="round" d="M 5000,10823 L 5000,10673"/>
 <path fill="none" stroke="rgb(0,0,0)" stroke-linejoin="round" d="M 5122,10823 L 5122,10673"/>
 <path fill="none" stroke="rgb(0,0,0)" stroke-linejoin="round" d="M 5122,10823 L 5122,10673"/>
 <path fill="none" stroke="rgb(0,0,0)" stroke-linejoin="round" d="M 5244,10823 L 5244,10673"/>
 <path fill="none" stroke="rgb(0,0,0)" stroke-linejoin="round" d="M 5244,10823 L 5244,10673"/>
 <path fill="none" stroke="rgb(0,0,0)" stroke-linejoin="round" d="M 5365,10823 L 5365,10673"/>
 <path fill="none" stroke="rgb(0,0,0)" stroke-linejoin="round" d="M 5365,10823 L 5365,10673"/>
 <path fill="none" stroke="rgb(0,0,0)" stroke-linejoin="round" d="M 5487,10823 L 5487,10673"/>
 <path fill="none" stroke="rgb(0,0,0)" stroke-linejoin="round" d="M 5487,10823 L 5487,10673"/>
 <path fill="none" stroke="rgb(0,0,0)" stroke-linejoin="round" d="M 5609,10823 L 5609,10673"/>
 <path fill="none" stroke="rgb(0,0,0)" stroke-linejoin="round" d="M 5609,10823 L 5609,10673"/>
 <path fill="none" stroke="rgb(0,0,0)" stroke-linejoin="round" d="M 5730,10823 L 5730,10673"/>
 <path fill="none" stroke="rgb(0,0,0)" stroke-linejoin="round" d="M 5730,10823 L 5730,10673"/>
 <path fill="none" stroke="rgb(0,0,0)" stroke-linejoin="round" d="M 5852,10823 L 5852,10673"/>
 <path fill="none" stroke="rgb(0,0,0)" stroke-linejoin="round" d="M 5852,10823 L 5852,10673"/>
 <path fill="none" stroke="rgb(0,0,0)" stroke-linejoin="round" d="M 5974,10823 L 5974,10673"/>
 <path fill="none" stroke="rgb(0,0,0)" stroke-linejoin="round" d="M 5974,10823 L 5974,10673"/>
 <path fill="none" stroke="rgb(0,0,0)" stroke-linejoin="round" d="M 6095,10823 L 6095,10673"/>
 <path fill="none" stroke="rgb(0,0,0)" stroke-linejoin="round" d="M 6095,10823 L 6095,10673"/>
 <path fill="none" stroke="rgb(0,0,0)" stroke-linejoin="round" d="M 6217,10823 L 6217,10673"/>
 <path fill="none" stroke="rgb(0,0,0)" stroke-linejoin="round" d="M 6217,10823 L 6217,10673"/>
 <path fill="none" stroke="rgb(0,0,0)" stroke-linejoin="round" d="M 6339,10823 L 6339,10673"/>
 <path fill="none" stroke="rgb(0,0,0)" stroke-linejoin="round" d="M 6339,10823 L 6339,10673"/>
 <path fill="none" stroke="rgb(0,0,0)" stroke-linejoin="round" d="M 6460,10823 L 6460,10673"/>
 <path fill="none" stroke="rgb(0,0,0)" stroke-linejoin="round" d="M 6460,10823 L 6460,10673"/>
 <path fill="none" stroke="rgb(0,0,0)" stroke-linejoin="round" d="M 6582,10823 L 6582,10673"/>
 <path fill="none" stroke="rgb(0,0,0)" stroke-linejoin="round" d="M 6582,10823 L 6582,10673"/>
 <path fill="none" stroke="rgb(0,0,0)" stroke-linejoin="round" d="M 6704,10823 L 6704,10673"/>
 <path fill="none" stroke="rgb(0,0,0)" stroke-linejoin="round" d="M 6704,10823 L 6704,10673"/>
 <path fill="none" stroke="rgb(0,0,0)" stroke-linejoin="round" d="M 6825,10823 L 6825,10673"/>
 <path fill="none" stroke="rgb(0,0,0)" stroke-linejoin="round" d="M 6825,10823 L 6825,10673"/>
 <path fill="none" stroke="rgb(0,0,0)" stroke-linejoin="round" d="M 6947,10823 L 6947,10673"/>
 <path fill="none" stroke="rgb(0,0,0)" stroke-linejoin="round" d="M 6947,10823 L 6947,10673"/>
 <path fill="none" stroke="rgb(0,0,0)" stroke-linejoin="round" d="M 7069,10823 L 7069,10673"/>
 <path fill="none" stroke="rgb(0,0,0)" stroke-linejoin="round" d="M 7069,10823 L 7069,10673"/>
 <path fill="none" stroke="rgb(0,0,0)" stroke-linejoin="round" d="M 7190,10823 L 7190,10673"/>
 <path fill="none" stroke="rgb(0,0,0)" stroke-linejoin="round" d="M 7190,10823 L 7190,10673"/>
 <path fill="none" stroke="rgb(0,0,0)" stroke-linejoin="round" d="M 7312,10823 L 7312,10673"/>
 <path fill="none" stroke="rgb(0,0,0)" stroke-linejoin="round" d="M 7312,10823 L 7312,10673"/>
 <path fill="none" stroke="rgb(0,0,0)" stroke-linejoin="round" d="M 7434,10823 L 7434,10673"/>
 <path fill="none" stroke="rgb(0,0,0)" stroke-linejoin="round" d="M 7434,10823 L 7434,10673"/>
 <path fill="none" stroke="rgb(0,0,0)" stroke-linejoin="round" d="M 7555,10823 L 7555,10673"/>
 <path fill="none" stroke="rgb(0,0,0)" stroke-linejoin="round" d="M 7555,10823 L 7555,10673"/>
 <path fill="none" stroke="rgb(0,0,0)" stroke-linejoin="round" d="M 7677,10823 L 7677,10673"/>
 <path fill="none" stroke="rgb(0,0,0)" stroke-linejoin="round" d="M 7677,10823 L 7677,10673"/>
 <path fill="none" stroke="rgb(0,0,0)" stroke-linejoin="round" d="M 7799,10823 L 7799,10673"/>
 <path fill="none" stroke="rgb(0,0,0)" stroke-linejoin="round" d="M 7799,10823 L 7799,10673"/>
 <path fill="none" stroke="rgb(0,0,0)" stroke-linejoin="round" d="M 7920,10823 L 7920,10673"/>
 <path fill="none" stroke="rgb(0,0,0)" stroke-linejoin="round" d="M 7920,10823 L 7920,10673"/>
 <path fill="none" stroke="rgb(0,0,0)" stroke-linejoin="round" d="M 8042,10823 L 8042,10673"/>
 <path fill="none" stroke="rgb(0,0,0)" stroke-linejoin="round" d="M 8042,10823 L 8042,10673"/>
 <path fill="none" stroke="rgb(0,0,0)" stroke-linejoin="round" d="M 8164,10823 L 8164,10673"/>
 <path fill="none" stroke="rgb(0,0,0)" stroke-linejoin="round" d="M 8164,10823 L 8164,10673"/>
 <path fill="none" stroke="rgb(0,0,0)" stroke-linejoin="round" d="M 8285,10823 L 8285,10673"/>
 <path fill="none" stroke="rgb(0,0,0)" stroke-linejoin="round" d="M 8285,10823 L 8285,10673"/>
 <path fill="none" stroke="rgb(0,0,0)" stroke-linejoin="round" d="M 8406,10823 L 8406,10673"/>
 <path fill="none" stroke="rgb(0,0,0)" stroke-linejoin="round" d="M 8406,10823 L 8406,10673"/>
 <path fill="none" stroke="rgb(0,0,0)" stroke-linejoin="round" d="M 8528,10823 L 8528,10673"/>
 <path fill="none" stroke="rgb(0,0,0)" stroke-linejoin="round" d="M 8528,10823 L 8528,10673"/>
 <path fill="none" stroke="rgb(0,0,0)" stroke-linejoin="round" d="M 8649,10823 L 8649,10673"/>
 <path fill="none" stroke="rgb(0,0,0)" stroke-linejoin="round" d="M 8649,10823 L 8649,10673"/>
 <path fill="none" stroke="rgb(0,0,0)" stroke-linejoin="round" d="M 8771,10823 L 8771,10673"/>
 <path fill="none" stroke="rgb(0,0,0)" stroke-linejoin="round" d="M 8771,10823 L 8771,10673"/>
 <path fill="none" stroke="rgb(0,0,0)" stroke-linejoin="round" d="M 8893,10823 L 8893,10673"/>
 <path fill="none" stroke="rgb(0,0,0)" stroke-linejoin="round" d="M 8893,10823 L 8893,10673"/>
 <path fill="none" stroke="rgb(0,0,0)" stroke-linejoin="round" d="M 9014,10823 L 9014,10673"/>
 <path fill="none" stroke="rgb(0,0,0)" stroke-linejoin="round" d="M 9014,10823 L 9014,10673"/>
 <path fill="none" stroke="rgb(0,0,0)" stroke-linejoin="round" d="M 9136,10823 L 9136,10673"/>
 <path fill="none" stroke="rgb(0,0,0)" stroke-linejoin="round" d="M 9136,10823 L 9136,10673"/>
 <path fill="none" stroke="rgb(0,0,0)" stroke-linejoin="round" d="M 9258,10823 L 9258,10673"/>
 <path fill="none" stroke="rgb(0,0,0)" stroke-linejoin="round" d="M 9258,10823 L 9258,10673"/>
 <path fill="none" stroke="rgb(0,0,0)" stroke-linejoin="round" d="M 9379,10823 L 9379,10673"/>
 <path fill="none" stroke="rgb(0,0,0)" stroke-linejoin="round" d="M 9379,10823 L 9379,10673"/>
 <path fill="none" stroke="rgb(0,0,0)" stroke-linejoin="round" d="M 9501,10823 L 9501,10673"/>
 <path fill="none" stroke="rgb(0,0,0)" stroke-linejoin="round" d="M 9501,10823 L 9501,10673"/>
 <path fill="none" stroke="rgb(0,0,0)" stroke-linejoin="round" d="M 9623,10823 L 9623,10673"/>
 <path fill="none" stroke="rgb(0,0,0)" stroke-linejoin="round" d="M 9623,10823 L 9623,10673"/>
 <path fill="none" stroke="rgb(0,0,0)" stroke-linejoin="round" d="M 9744,10823 L 9744,10673"/>
 <path fill="none" stroke="rgb(0,0,0)" stroke-linejoin="round" d="M 9744,10823 L 9744,10673"/>
 <path fill="none" stroke="rgb(0,0,0)" stroke-linejoin="round" d="M 9866,10823 L 9866,10673"/>
 <path fill="none" stroke="rgb(0,0,0)" stroke-linejoin="round" d="M 9866,10823 L 9866,10673"/>
 <path fill="none" stroke="rgb(0,0,0)" stroke-linejoin="round" d="M 9988,10823 L 9988,10673"/>
 <path fill="none" stroke="rgb(0,0,0)" stroke-linejoin="round" d="M 9988,10823 L 9988,10673"/>
 <path fill="none" stroke="rgb(0,0,0)" stroke-linejoin="round" d="M 10109,10823 L 10109,10673"/>
 <path fill="none" stroke="rgb(0,0,0)" stroke-linejoin="round" d="M 10109,10823 L 10109,10673"/>
 <path fill="none" stroke="rgb(0,0,0)" stroke-linejoin="round" d="M 10231,10823 L 10231,10673"/>
 <path fill="none" stroke="rgb(0,0,0)" stroke-linejoin="round" d="M 10231,10823 L 10231,10673"/>
 <path fill="none" stroke="rgb(0,0,0)" stroke-linejoin="round" d="M 10353,10823 L 10353,10673"/>
 <path fill="none" stroke="rgb(0,0,0)" stroke-linejoin="round" d="M 10353,10823 L 10353,10673"/>
 <path fill="none" stroke="rgb(0,0,0)" stroke-linejoin="round" d="M 10474,10823 L 10474,10673"/>
 <path fill="none" stroke="rgb(0,0,0)" stroke-linejoin="round" d="M 10474,10823 L 10474,10673"/>
 <path fill="none" stroke="rgb(0,0,0)" stroke-linejoin="round" d="M 10596,10823 L 10596,10673"/>
 <path fill="none" stroke="rgb(0,0,0)" stroke-linejoin="round" d="M 10596,10823 L 10596,10673"/>
 <path fill="none" stroke="rgb(0,0,0)" stroke-linejoin="round" d="M 10718,10823 L 10718,10673"/>
 <path fill="none" stroke="rgb(0,0,0)" stroke-linejoin="round" d="M 10718,10823 L 10718,10673"/>
 <path fill="none" stroke="rgb(0,0,0)" stroke-linejoin="round" d="M 10839,10823 L 10839,10673"/>
 <path fill="none" stroke="rgb(0,0,0)" stroke-linejoin="round" d="M 10839,10823 L 10839,10673"/>
 <path fill="none" stroke="rgb(0,0,0)" stroke-linejoin="round" d="M 10961,10823 L 10961,10673"/>
 <path fill="none" stroke="rgb(0,0,0)" stroke-linejoin="round" d="M 10961,10823 L 10961,10673"/>
 <path fill="none" stroke="rgb(0,0,0)" stroke-linejoin="round" d="M 11083,10823 L 11083,10673"/>
 <path fill="none" stroke="rgb(0,0,0)" stroke-linejoin="round" d="M 11083,10823 L 11083,10673"/>
 <path fill="none" stroke="rgb(0,0,0)" stroke-linejoin="round" d="M 11204,10823 L 11204,10673"/>
 <path fill="none" stroke="rgb(0,0,0)" stroke-linejoin="round" d="M 11204,10823 L 11204,10673"/>
 <path fill="none" stroke="rgb(0,0,0)" stroke-linejoin="round" d="M 11326,10823 L 11326,10673"/>
 <path fill="none" stroke="rgb(0,0,0)" stroke-linejoin="round" d="M 11326,10823 L 11326,10673"/>
 <path fill="none" stroke="rgb(0,0,0)" stroke-linejoin="round" d="M 11448,10823 L 11448,10673"/>
 <path fill="none" stroke="rgb(0,0,0)" stroke-linejoin="round" d="M 11448,10823 L 11448,10673"/>
 <path fill="none" stroke="rgb(0,0,0)" stroke-linejoin="round" d="M 11569,10823 L 11569,10673"/>
 <path fill="none" stroke="rgb(0,0,0)" stroke-linejoin="round" d="M 11569,10823 L 11569,10673"/>
 <path fill="none" stroke="rgb(0,0,0)" stroke-linejoin="round" d="M 11691,10823 L 11691,10673"/>
 <path fill="none" stroke="rgb(0,0,0)" stroke-linejoin="round" d="M 11691,10823 L 11691,10673"/>
 <path fill="none" stroke="rgb(0,0,0)" stroke-linejoin="round" d="M 11813,10823 L 11813,10673"/>
 <path fill="none" stroke="rgb(0,0,0)" stroke-linejoin="round" d="M 11813,10823 L 11813,10673"/>
 <path fill="none" stroke="rgb(0,0,0)" stroke-linejoin="round" d="M 11934,10823 L 11934,10673"/>
 <path fill="none" stroke="rgb(0,0,0)" stroke-linejoin="round" d="M 11934,10823 L 11934,10673"/>
 <path fill="none" stroke="rgb(0,0,0)" stroke-linejoin="round" d="M 12056,10823 L 12056,10673"/>
 <path fill="none" stroke="rgb(0,0,0)" stroke-linejoin="round" d="M 12056,10823 L 12056,10673"/>
 <path fill="none" stroke="rgb(0,0,0)" stroke-linejoin="round" d="M 12178,10823 L 12178,10673"/>
 <path fill="none" stroke="rgb(0,0,0)" stroke-linejoin="round" d="M 12178,10823 L 12178,10673"/>
 <path fill="none" stroke="rgb(0,0,0)" stroke-linejoin="round" d="M 12299,10823 L 12299,10673"/>
 <path fill="none" stroke="rgb(0,0,0)" stroke-linejoin="round" d="M 12299,10823 L 12299,10673"/>
 <path fill="none" stroke="rgb(0,0,0)" stroke-linejoin="round" d="M 12421,10823 L 12421,10673"/>
 <path fill="none" stroke="rgb(0,0,0)" stroke-linejoin="round" d="M 12421,10823 L 12421,10673"/>
 <path fill="none" stroke="rgb(0,0,0)" stroke-linejoin="round" d="M 12543,10823 L 12543,10673"/>
 <path fill="none" stroke="rgb(0,0,0)" stroke-linejoin="round" d="M 12543,10823 L 12543,10673"/>
 <path fill="none" stroke="rgb(0,0,0)" stroke-linejoin="round" d="M 12664,10823 L 12664,10673"/>
 <path fill="none" stroke="rgb(0,0,0)" stroke-linejoin="round" d="M 12664,10823 L 12664,10673"/>
 <path fill="none" stroke="rgb(0,0,0)" stroke-linejoin="round" d="M 12786,10823 L 12786,10673"/>
 <path fill="none" stroke="rgb(0,0,0)" stroke-linejoin="round" d="M 12786,10823 L 12786,10673"/>
 <path fill="none" stroke="rgb(0,0,0)" stroke-linejoin="round" d="M 12908,10823 L 12908,10673"/>
 <path fill="none" stroke="rgb(0,0,0)" stroke-linejoin="round" d="M 12908,10823 L 12908,10673"/>
 <path fill="none" stroke="rgb(0,0,0)" stroke-linejoin="round" d="M 13029,10823 L 13029,10673"/>
 <path fill="none" stroke="rgb(0,0,0)" stroke-linejoin="round" d="M 13029,10823 L 13029,10673"/>
 <path fill="none" stroke="rgb(0,0,0)" stroke-linejoin="round" d="M 13151,10823 L 13151,10673"/>
 <path fill="none" stroke="rgb(0,0,0)" stroke-linejoin="round" d="M 13151,10823 L 13151,10673"/>
 <path fill="none" stroke="rgb(0,0,0)" stroke-linejoin="round" d="M 13273,10823 L 13273,10673"/>
 <path fill="none" stroke="rgb(0,0,0)" stroke-linejoin="round" d="M 13273,10823 L 13273,10673"/>
 <path fill="none" stroke="rgb(0,0,0)" stroke-linejoin="round" d="M 13394,10823 L 13394,10673"/>
 <path fill="none" stroke="rgb(0,0,0)" stroke-linejoin="round" d="M 13394,10823 L 13394,10673"/>
 <path fill="none" stroke="rgb(0,0,0)" stroke-linejoin="round" d="M 13516,10823 L 13516,10673"/>
 <path fill="none" stroke="rgb(0,0,0)" stroke-linejoin="round" d="M 13516,10823 L 13516,10673"/>
 <path fill="none" stroke="rgb(0,0,0)" stroke-linejoin="round" d="M 13638,10823 L 13638,10673"/>
 <path fill="none" stroke="rgb(0,0,0)" stroke-linejoin="round" d="M 13638,10823 L 13638,10673"/>
 <path fill="none" stroke="rgb(0,0,0)" stroke-linejoin="round" d="M 13759,10823 L 13759,10673"/>
 <path fill="none" stroke="rgb(0,0,0)" stroke-linejoin="round" d="M 13759,10823 L 13759,10673"/>
 <path fill="none" stroke="rgb(0,0,0)" stroke-linejoin="round" d="M 13881,10823 L 13881,10673"/>
 <path fill="none" stroke="rgb(0,0,0)" stroke-linejoin="round" d="M 13881,10823 L 13881,10673"/>
 <path fill="none" stroke="rgb(0,0,0)" stroke-linejoin="round" d="M 14003,10823 L 14003,10673"/>
 <path fill="none" stroke="rgb(0,0,0)" stroke-linejoin="round" d="M 14003,10823 L 14003,10673"/>
 <path fill="none" stroke="rgb(0,0,0)" stroke-linejoin="round" d="M 14124,10823 L 14124,10673"/>
 <path fill="none" stroke="rgb(0,0,0)" stroke-linejoin="round" d="M 14124,10823 L 14124,10673"/>
 <path fill="none" stroke="rgb(0,0,0)" stroke-linejoin="round" d="M 14246,10823 L 14246,10673"/>
 <path fill="none" stroke="rgb(0,0,0)" stroke-linejoin="round" d="M 14246,10823 L 14246,10673"/>
 <path fill="none" stroke="rgb(0,0,0)" stroke-linejoin="round" d="M 14368,10823 L 14368,10673"/>
 <path fill="none" stroke="rgb(0,0,0)" stroke-linejoin="round" d="M 14368,10823 L 14368,10673"/>
 <path fill="none" stroke="rgb(0,0,0)" stroke-linejoin="round" d="M 14489,10823 L 14489,10673"/>
 <path fill="none" stroke="rgb(0,0,0)" stroke-linejoin="round" d="M 14489,10823 L 14489,10673"/>
 <path fill="none" stroke="rgb(0,0,0)" stroke-linejoin="round" d="M 14611,10823 L 14611,10673"/>
 <path fill="none" stroke="rgb(0,0,0)" stroke-linejoin="round" d="M 14611,10823 L 14611,10673"/>
 <path fill="none" stroke="rgb(0,0,0)" stroke-linejoin="round" d="M 14733,10823 L 14733,10673"/>
 <path fill="none" stroke="rgb(0,0,0)" stroke-linejoin="round" d="M 14733,10823 L 14733,10673"/>
 <path fill="none" stroke="rgb(0,0,0)" stroke-linejoin="round" d="M 14854,10823 L 14854,10673"/>
 <path fill="none" stroke="rgb(0,0,0)" stroke-linejoin="round" d="M 14854,10823 L 14854,10673"/>
 <path fill="none" stroke="rgb(0,0,0)" stroke-linejoin="round" d="M 14976,10823 L 14976,10673"/>
 <path fill="none" stroke="rgb(0,0,0)" stroke-linejoin="round" d="M 14976,10823 L 14976,10673"/>
 <path fill="none" stroke="rgb(0,0,0)" stroke-linejoin="round" d="M 15098,10823 L 15098,10673"/>
 <path fill="none" stroke="rgb(0,0,0)" stroke-linejoin="round" d="M 15098,10823 L 15098,10673"/>
 <path fill="none" stroke="rgb(0,0,0)" stroke-linejoin="round" d="M 15219,10823 L 15219,10673"/>
 <path fill="none" stroke="rgb(0,0,0)" stroke-linejoin="round" d="M 15219,10823 L 15219,10673"/>
 <path fill="none" stroke="rgb(0,0,0)" stroke-linejoin="round" d="M 15341,10823 L 15341,10673"/>
 <path fill="none" stroke="rgb(0,0,0)" stroke-linejoin="round" d="M 15341,10823 L 15341,10673"/>
 <path fill="none" stroke="rgb(0,0,0)" stroke-linejoin="round" d="M 15463,10823 L 15463,10673"/>
 <path fill="none" stroke="rgb(0,0,0)" stroke-linejoin="round" d="M 15463,10823 L 15463,10673"/>
 <path fill="none" stroke="rgb(0,0,0)" stroke-linejoin="round" d="M 1229,10673 L 15463,10673"/>
 <path fill="none" stroke="rgb(0,0,0)" stroke-linejoin="round" d="M 1079,10673 L 1229,10673"/>
 <path fill="none" stroke="rgb(0,0,0)" stroke-linejoin="round" d="M 1079,10673 L 1229,10673"/>
 <path fill="none" stroke="rgb(0,0,0)" stroke-linejoin="round" d="M 1079,9615 L 1229,9615"/>
 <path fill="none" stroke="rgb(0,0,0)" stroke-linejoin="round" d="M 1079,9615 L 1229,9615"/>
 <path fill="none" stroke="rgb(0,0,0)" stroke-linejoin="round" d="M 1079,8558 L 1229,8558"/>
 <path fill="none" stroke="rgb(0,0,0)" stroke-linejoin="round" d="M 1079,8558 L 1229,8558"/>
 <path fill="none" stroke="rgb(0,0,0)" stroke-linejoin="round" d="M 1079,7500 L 1229,7500"/>
 <path fill="none" stroke="rgb(0,0,0)" stroke-linejoin="round" d="M 1079,7500 L 1229,7500"/>
 <path fill="none" stroke="rgb(0,0,0)" stroke-linejoin="round" d="M 1079,6443 L 1229,6443"/>
 <path fill="none" stroke="rgb(0,0,0)" stroke-linejoin="round" d="M 1079,6443 L 1229,6443"/>
 <path fill="none" stroke="rgb(0,0,0)" stroke-linejoin="round" d="M 1079,5385 L 1229,5385"/>
 <path fill="none" stroke="rgb(0,0,0)" stroke-linejoin="round" d="M 1079,5385 L 1229,5385"/>
 <path fill="none" stroke="rgb(0,0,0)" stroke-linejoin="round" d="M 1079,4327 L 1229,4327"/>
 <path fill="none" stroke="rgb(0,0,0)" stroke-linejoin="round" d="M 1079,4327 L 1229,4327"/>
 <path fill="none" stroke="rgb(0,0,0)" stroke-linejoin="round" d="M 1079,3270 L 1229,3270"/>
 <path fill="none" stroke="rgb(0,0,0)" stroke-linejoin="round" d="M 1079,3270 L 1229,3270"/>
 <path fill="none" stroke="rgb(0,0,0)" stroke-linejoin="round" d="M 1079,2212 L 1229,2212"/>
 <path fill="none" stroke="rgb(0,0,0)" stroke-linejoin="round" d="M 1079,2212 L 1229,2212"/>
 <path fill="none" stroke="rgb(0,0,0)" stroke-linejoin="round" d="M 1079,1155 L 1229,1155"/>
 <path fill="none" stroke="rgb(0,0,0)" stroke-linejoin="round" d="M 1079,1155 L 1229,1155"/>
 <path fill="none" stroke="rgb(0,0,0)" stroke-linejoin="round" d="M 1229,10673 L 1229,1155"/>
 <path fill="none" stroke="rgb(0,0,0)" stroke-linejoin="round" d="M 15613,10673 L 15463,10673"/>
 <path fill="none" stroke="rgb(0,0,0)" stroke-linejoin="round" d="M 15613,10673 L 15463,10673"/>
 <path fill="none" stroke="rgb(0,0,0)" stroke-linejoin="round" d="M 15613,9615 L 15463,9615"/>
 <path fill="none" stroke="rgb(0,0,0)" stroke-linejoin="round" d="M 15613,9615 L 15463,9615"/>
 <path fill="none" stroke="rgb(0,0,0)" stroke-linejoin="round" d="M 15613,8558 L 15463,8558"/>
 <path fill="none" stroke="rgb(0,0,0)" stroke-linejoin="round" d="M 15613,8558 L 15463,8558"/>
 <path fill="none" stroke="rgb(0,0,0)" stroke-linejoin="round" d="M 15613,7500 L 15463,7500"/>
 <path fill="none" stroke="rgb(0,0,0)" stroke-linejoin="round" d="M 15613,7500 L 15463,7500"/>
 <path fill="none" stroke="rgb(0,0,0)" stroke-linejoin="round" d="M 15613,6443 L 15463,6443"/>
 <path fill="none" stroke="rgb(0,0,0)" stroke-linejoin="round" d="M 15613,6443 L 15463,6443"/>
 <path fill="none" stroke="rgb(0,0,0)" stroke-linejoin="round" d="M 15613,5385 L 15463,5385"/>
 <path fill="none" stroke="rgb(0,0,0)" stroke-linejoin="round" d="M 15613,5385 L 15463,5385"/>
 <path fill="none" stroke="rgb(0,0,0)" stroke-linejoin="round" d="M 15613,4327 L 15463,4327"/>
 <path fill="none" stroke="rgb(0,0,0)" stroke-linejoin="round" d="M 15613,4327 L 15463,4327"/>
 <path fill="none" stroke="rgb(0,0,0)" stroke-linejoin="round" d="M 15613,3270 L 15463,3270"/>
 <path fill="none" stroke="rgb(0,0,0)" stroke-linejoin="round" d="M 15613,3270 L 15463,3270"/>
 <path fill="none" stroke="rgb(0,0,0)" stroke-linejoin="round" d="M 15613,2212 L 15463,2212"/>
 <path fill="none" stroke="rgb(0,0,0)" stroke-linejoin="round" d="M 15613,2212 L 15463,2212"/>
 <path fill="none" stroke="rgb(0,0,0)" stroke-linejoin="round" d="M 15613,1155 L 15463,1155"/>
 <path fill="none" stroke="rgb(0,0,0)" stroke-linejoin="round" d="M 15613,1155 L 15463,1155"/>
 <path fill="none" stroke="rgb(0,0,0)" stroke-linejoin="round" d="M 15463,10673 L 15463,1155"/>
 <path fill="none" stroke="rgb(131,202,255)" stroke-width="80" stroke-linejoin="round" d="M 1229,1832 L 1350,1912 1472,1920 1594,1962 1715,2033 1837,2064 1959,2137 2080,2181 2202,2201 2324,2262 2445,2366 2567,2390 2689,2510 2810,2569 2932,2650 3054,2669 3175,2739 3297,2798 3419,2877 3540,2888 3662,2960 3784,3081 3905,3110 4027,3219 4149,3372 4270,3501 4392,3660 4514,3747 4635,3855 4757,3970 4879,4060 5000,4071 5122,4130 5243,4233 5365,4324 5487,4426 5608,4552 5730,4674 5852,4829 5973,4847 6095,4921 6217,5049 6338,5130 6460,5265 6582,5418 6703,5502 6825,5671 6947,5890 7068,5870 7190,6147 7312,6139 7433,6233 7555,6088 7677,6168 7798,6311 7920,6450 8042,6559 8163,6602 8285,6715 8406,6830 8528,6913 8649,7003 8771,7006 8893,7120 9014,7087 9136,7084 9258,7149 9379,7214 9501,7253 9623,7616 9744,7745 9866,7795 9988,7827 10109,8037 10231,8069 10353,8092 10474,8217 10596,8366 10718,8491 10839,8470 10961,8536 11083,8594 11204,8565 11326,9170 11448,9494 11569,9071 11691,9089 11813,9035 11934,9227 12056,9373 12178,9429 12299,9664 12421,9697 12543,9647 12664,9683 12786,9739 12908,9806 13029,9806 13151,9787 13273,9801 13394,9864 13516,9982 13638,9948 13759,9927 13881,9887 14003,9973 14124,10025 14246,10057 14368,10032 14489,10022 14611,10008 14733,10073 14854,10180 14976,10201 15098,10271 15219,10194 15341,10234 15463,10260"/>
 <path fill="none" stroke="rgb(0,204,255)" stroke-width="80" stroke-linejoin="round" d="M 1229,9932 L 1350,9817 1472,9845 1594,9777 1715,9708 1837,9680 1959,9601 2080,9493 2202,9439 2324,9361 2445,9322 2567,9235 2689,9162 2810,9097 2932,9010 3054,8987 3175,8934 3297,8875 3419,8837 3540,8813 3662,8779 3784,8684 3905,8703 4027,8681 4149,8705 4270,8782 4392,8833 4514,8927 4635,8980 4757,9020 4879,9059 5000,9120 5122,9156 5243,9192 5365,9261 5487,9310 5608,9338 5730,9392 5852,9440 5973,9509 6095,9556 6217,9591 6338,9622 6460,9665 6582,9692 6703,9746 6825,9772 6947,9791 7068,9840 7190,9852 7312,9883 7433,9881 7555,9925 7677,9957 7798,10003 7920,10021 8042,10039 8163,10083 8285,10092 8406,10124 8528,10134 8649,10140 8771,10186 8893,10201 9014,10211 9136,10228 9258,10251 9379,10243 9501,10283 9623,10299 9744,10302 9866,10339 9988,10347 10109,10344 10231,10380 10353,10402 10474,10407 10596,10420 10718,10423 10839,10416 10961,10411 11083,10410 11204,10402 11326,10427 11448,10444 11569,10420 11691,10468 11813,10492 11934,10504 12056,10513 12178,10501 12299,10536 12421,10519 12543,10518 12664,10532 12786,10533 12908,10541 13029,10543 13151,10541 13273,10543 13394,10567 13516,10576 13638,10575 13759,10580 13881,10580 14003,10594 14124,10595 14246,10591 14368,10591 14489,10596 14611,10611 14733,10617 14854,10625 14976,10626 15098,10631 15219,10636 15341,10636 15463,10641"/>
 <path fill="none" stroke="rgb(0,132,209)" stroke-width="80" stroke-linejoin="round" d="M 3419,10613 L 3540,10593 3662,10578 3784,10547 3905,10511 4027,10446 4149,10252 4270,10071 4392,9879 4514,9729 4635,9590 4757,9439 4879,9333 5000,9223 5122,9143 5243,8994 5365,8864 5487,8743 5608,8591 5730,8466 5852,8313 5973,8231 6095,8117 6217,8017 6338,7934 6460,7803 6582,7720 6703,7657 6825,7462 6947,7225 7068,7274 7190,7074 7312,7176 7433,6944 7555,7000 7677,6892 7798,6733 7920,6646 8042,6622 8163,6578 8285,6445 8406,6448 8528,6452 8649,6437 8771,6544 8893,6613 9014,6531 9136,6484 9258,6485 9379,6544 9501,6581 9623,6530 9744,6351 9866,6399 9988,6422 10109,6350 10231,6455 10353,6538 10474,6347 10596,6351 10718,6351 10839,6274 10961,6264 11083,6217 11204,6018 11326,6038 11448,5786 11569,5754 11691,6001 11813,5887 11934,5724 12056,5909 12178,5751 12299,5541 12421,5622 12543,5804 12664,6092 12786,6222 12908,6083 13029,6257 13151,6605 13273,6613 13394,6825 13516,7182 13638,7184 13759,6934 13881,7103 14003,7138 14124,7246 14246,7075 14368,7179 14489,7209 14611,7256 14733,7240 14854,7400 14976,7424 15098,7159 15219,7294 15341,7158 15463,7380"/>
 <path fill="none" stroke="rgb(0,102,204)" stroke-width="80" stroke-linejoin="round" d="M 8406,10634 L 8528,10567 8649,10505 8771,10453 8893,10419 9014,10366 9136,10313 9258,10274 9379,10198 9501,10174 9623,9979 9744,9844 9866,9821 9988,9825 10109,9718 10231,9734 10353,9739 10474,9670 10596,9599 10718,9581 10839,9581 10961,9599 11083,9510 11204,9590 11326,9205 11448,9057 11569,9491 11691,9518 11813,9472 11934,9473 12056,9476 12178,9271 12299,9324 12421,9354 12543,9495 12664,9592 12786,9616 12908,9525 13029,9636 13151,9658 13273,9722 13394,9782 13516,9806 13638,9854 13759,9876 13881,9922 14003,9944 14124,9991 14246,9887 14368,9934 14489,10059 14611,10055 14733,10068 14854,10127 14976,10100 15098,10080 15219,10137 15341,10105 15463,10168"/>
 <path fill="none" stroke="rgb(0,69,134)" stroke-width="80" stroke-linejoin="round" d="M 12421,10640 L 12543,10233 12664,10135 12786,10038 12908,9936 13029,9883 13151,9754 13273,9678 13394,9623 13516,9645 13638,9421 13759,9214 13881,9069 14003,8953 14124,9073 14246,8993 14368,8916 14489,8927 14611,8841 14733,8887 14854,8993 14976,8912 15098,8770 15219,8825 15341,8687 15463,8770"/>
 <path fill="none" stroke="rgb(0,102,0)" stroke-width="80" stroke-linejoin="round" d="M 1229,10310 L 1350,10293 1472,10278 1594,10280 1715,10274 1837,10308 1959,10276 2080,10282 2202,10298 2324,10297 2445,10277 2567,10271 2689,10236 2810,10202 2932,10174 3054,10192 3175,10176 3297,10182 3419,10173 3540,10176 3662,10159 3784,10157 3905,10132 4027,10116 4149,10132 4270,10132 4392,10129 4514,10144 4635,10109 4757,10110 4879,10116 5000,10127 5122,10137 5243,10144 5365,10144 5487,10149 5608,10142 5730,10142 5852,10119 5973,10126 6095,10119 6217,10104 6338,10112 6460,10109 6582,10084 6703,10079 6825,10034 6947,9982 7068,10038 7190,10053 7312,10059 7433,9996 7555,10033 7677,10034 7798,10046 7920,10022 8042,10003 8163,9990 8285,9986 8406,9996 8528,9984 8649,10009 8771,10015 8893,10019 9014,10030 9136,10016 9258,10012 9379,10002 9501,10011 9623,10011 9744,9971 9866,9962 9988,9985 10109,9987 10231,9993 10353,10002 10474,10002 10596,10004 10718,10035 10839,10087 10961,10101 11083,10086 11204,10109 11326,10056 11448,10043 11569,10043 11691,10079 11813,10082 11934,10052 12056,10072 12178,10046 12299,10038 12421,10036 12543,10037 12664,10047 12786,10033 12908,10101 13029,10116 13151,10077 13273,10070 13394,10096 13516,10014 13638,10060 13759,10048 13881,10075 14003,10121 14124,10182 14246,10195 14368,10173 14489,10238 14611,10215 14733,10234 14854,10257 14976,10254 15098,10221 15219,10251 15341,10240 15463,10269"/>
 <path fill="none" stroke="rgb(255,211,32)" stroke-width="80" stroke-linejoin="round" d="M 2689,10643 L 2810,10635 2932,10612 3054,10609 3175,10603 3297,10596 3419,10593 3540,10589 3662,10579 3784,10572 3905,10571 4027,10562 4149,10548 4270,10526 4392,10509 4514,10502 4635,10486 4757,10476 4879,10470 5000,10461 5122,10421 5243,10406 5365,10381 5487,10380 5608,10366 5730,10314 5852,10277 5973,10268 6095,10262 6217,10208 6338,10169 6460,10147 6582,10093 6703,10000 6825,10040 6947,10089 7068,9965 7190,9966 7312,9747 7433,9909 7555,9912 7677,9902 7798,9853 7920,9808 8042,9808 8163,9703 8285,9728 8406,9585 8528,9571 8649,9529 8771,9427 8893,9282 9014,9406 9136,9517 9258,9494 9379,9467 9501,9360 9623,9255 9744,9482 9866,9378 9988,9282 10109,9265 10231,9071 10353,8943 10474,9051 10596,8961 10718,8774 10839,8845 10961,8755 11083,8755 11204,8965 11326,8965 11448,8806 11569,8941 11691,8548 11813,8735 11934,8712 12056,8339 12178,8687 12299,8575 12421,8457 12543,8577 12664,8245 12786,8140 12908,8325 13029,8094 13151,7932 13273,7940 13394,7607 13516,7358 13638,7368 13759,7800 13881,7750 14003,7647 14124,7278 14246,7614 14368,7576 14489,7359 14611,7419 14733,7278 14854,6805 14976,6874 15098,7279 15219,7043 15341,7317 15463,6929"/>
 <text class="TextShape"><tspan class="TextParagraph" font-family="Arial, sans-serif" font-size="387px" font-weight="400"><tspan class="TextPosition" x="1048" y="11266"><tspan fill="rgb(0,0,0)" stroke="none">2008</tspan></tspan></tspan></text>
 <text class="TextShape"><tspan class="TextParagraph" font-family="Arial, sans-serif" font-size="387px" font-weight="400"><tspan class="TextPosition" x="2508" y="11266"><tspan fill="rgb(0,0,0)" stroke="none">2009</tspan></tspan></tspan></text>
 <text class="TextShape"><tspan class="TextParagraph" font-family="Arial, sans-serif" font-size="387px" font-weight="400"><tspan class="TextPosition" x="3968" y="11266"><tspan fill="rgb(0,0,0)" stroke="none">2010</tspan></tspan></tspan></text>
 <text class="TextShape"><tspan class="TextParagraph" font-family="Arial, sans-serif" font-size="387px" font-weight="400"><tspan class="TextPosition" x="5428" y="11266"><tspan fill="rgb(0,0,0)" stroke="none">2011</tspan></tspan></tspan></text>
 <text class="TextShape"><tspan class="TextParagraph" font-family="Arial, sans-serif" font-size="387px" font-weight="400"><tspan class="TextPosition" x="6888" y="11266"><tspan fill="rgb(0,0,0)" stroke="none">2012</tspan></tspan></tspan></text>
 <text class="TextShape"><tspan class="TextParagraph" font-family="Arial, sans-serif" font-size="387px" font-weight="400"><tspan class="TextPosition" x="8348" y="11266"><tspan fill="rgb(0,0,0)" stroke="none">2013</tspan></tspan></tspan></text>
 <text class="TextShape"><tspan class="TextParagraph" font-family="Arial, sans-serif" font-size="387px" font-weight="400"><tspan class="TextPosition" x="9808" y="11266"><tspan fill="rgb(0,0,0)" stroke="none">2014</tspan></tspan></tspan></text>
 <text class="TextShape"><tspan class="TextParagraph" font-family="Arial, sans-serif" font-size="387px" font-weight="400"><tspan class="TextPosition" x="11268" y="11266"><tspan fill="rgb(0,0,0)" stroke="none">2015</tspan></tspan></tspan></text>
 <text class="TextShape"><tspan class="TextParagraph" font-family="Arial, sans-serif" font-size="387px" font-weight="400"><tspan class="TextPosition" x="12728" y="11266"><tspan fill="rgb(0,0,0)" stroke="none">2016</tspan></tspan></tspan></text>
 <text class="TextShape"><tspan class="TextParagraph" font-family="Arial, sans-serif" font-size="387px" font-weight="400"><tspan class="TextPosition" x="14188" y="11266"><tspan fill="rgb(0,0,0)" stroke="none">2017</tspan></tspan></tspan></text>
 <text class="TextShape"><tspan class="TextParagraph" font-family="Arial, sans-serif" font-size="387px" font-weight="400"><tspan class="TextPosition" x="423" y="10806"><tspan fill="rgb(0,0,0)" stroke="none">0%</tspan></tspan></tspan></text>
 <text class="TextShape"><tspan class="TextParagraph" font-family="Arial, sans-serif" font-size="387px" font-weight="400"><tspan class="TextPosition" x="212" y="9749"><tspan fill="rgb(0,0,0)" stroke="none">10%</tspan></tspan></tspan></text>
 <text class="TextShape"><tspan class="TextParagraph" font-family="Arial, sans-serif" font-size="387px" font-weight="400"><tspan class="TextPosition" x="212" y="8691"><tspan fill="rgb(0,0,0)" stroke="none">20%</tspan></tspan></tspan></text>
 <text class="TextShape"><tspan class="TextParagraph" font-family="Arial, sans-serif" font-size="387px" font-weight="400"><tspan class="TextPosition" x="212" y="7633"><tspan fill="rgb(0,0,0)" stroke="none">30%</tspan></tspan></tspan></text>
 <text class="TextShape"><tspan class="TextParagraph" font-family="Arial, sans-serif" font-size="387px" font-weight="400"><tspan class="TextPosition" x="212" y="6576"><tspan fill="rgb(0,0,0)" stroke="none">40%</tspan></tspan></tspan></text>
 <text class="TextShape"><tspan class="TextParagraph" font-family="Arial, sans-serif" font-size="387px" font-weight="400"><tspan class="TextPosition" x="212" y="5518"><tspan fill="rgb(0,0,0)" stroke="none">50%</tspan></tspan></tspan></text>
 <text class="TextShape"><tspan class="TextParagraph" font-family="Arial, sans-serif" font-size="387px" font-weight="400"><tspan class="TextPosition" x="212" y="4460"><tspan fill="rgb(0,0,0)" stroke="none">60%</tspan></tspan></tspan></text>
 <text class="TextShape"><tspan class="TextParagraph" font-family="Arial, sans-serif" font-size="387px" font-weight="400"><tspan class="TextPosition" x="212" y="3403"><tspan fill="rgb(0,0,0)" stroke="none">70%</tspan></tspan></tspan></text>
 <text class="TextShape"><tspan class="TextParagraph" font-family="Arial, sans-serif" font-size="387px" font-weight="400"><tspan class="TextPosition" x="212" y="2345"><tspan fill="rgb(0,0,0)" stroke="none">80%</tspan></tspan></tspan></text>
 <text class="TextShape"><tspan class="TextParagraph" font-family="Arial, sans-serif" font-size="387px" font-weight="400"><tspan class="TextPosition" x="212" y="1289"><tspan fill="rgb(0,0,0)" stroke="none">90%</tspan></tspan></tspan></text>
 <text class="TextShape"><tspan class="TextParagraph" font-family="Arial, sans-serif" font-size="387px" font-weight="400"><tspan class="TextPosition" x="15713" y="10806"><tspan fill="rgb(0,0,0)" stroke="none">0%</tspan></tspan></tspan></text>
 <text class="TextShape"><tspan class="TextParagraph" font-family="Arial, sans-serif" font-size="387px" font-weight="400"><tspan class="TextPosition" x="15713" y="9749"><tspan fill="rgb(0,0,0)" stroke="none">10%</tspan></tspan></tspan></text>
 <text class="TextShape"><tspan class="TextParagraph" font-family="Arial, sans-serif" font-size="387px" font-weight="400"><tspan class="TextPosition" x="15713" y="8691"><tspan fill="rgb(0,0,0)" stroke="none">20%</tspan></tspan></tspan></text>
 <text class="TextShape"><tspan class="TextParagraph" font-family="Arial, sans-serif" font-size="387px" font-weight="400"><tspan class="TextPosition" x="15713" y="7633"><tspan fill="rgb(0,0,0)" stroke="none">30%</tspan></tspan></tspan></text>
 <text class="TextShape"><tspan class="TextParagraph" font-family="Arial, sans-serif" font-size="387px" font-weight="400"><tspan class="TextPosition" x="15713" y="6576"><tspan fill="rgb(0,0,0)" stroke="none">40%</tspan></tspan></tspan></text>
 <text class="TextShape"><tspan class="TextParagraph" font-family="Arial, sans-serif" font-size="387px" font-weight="400"><tspan class="TextPosition" x="15713" y="5518"><tspan fill="rgb(0,0,0)" stroke="none">50%</tspan></tspan></tspan></text>
 <text class="TextShape"><tspan class="TextParagraph" font-family="Arial, sans-serif" font-size="387px" font-weight="400"><tspan class="TextPosition" x="15713" y="4460"><tspan fill="rgb(0,0,0)" stroke="none">60%</tspan></tspan></tspan></text>
 <text class="TextShape"><tspan class="TextParagraph" font-family="Arial, sans-serif" font-size="387px" font-weight="400"><tspan class="TextPosition" x="15713" y="3403"><tspan fill="rgb(0,0,0)" stroke="none">70%</tspan></tspan></tspan></text>
 <text class="TextShape"><tspan class="TextParagraph" font-family="Arial, sans-serif" font-size="387px" font-weight="400"><tspan class="TextPosition" x="15713" y="2345"><tspan fill="rgb(0,0,0)" stroke="none">80%</tspan></tspan></tspan></text>
 <text class="TextShape"><tspan class="TextParagraph" font-family="Arial, sans-serif" font-size="387px" font-weight="400"><tspan class="TextPosition" x="15713" y="1289"><tspan fill="rgb(0,0,0)" stroke="none">90%</tspan></tspan></tspan></text>
 <text class="TextShape"><tspan class="TextParagraph" font-family="Arial, sans-serif" font-size="634px" font-weight="700"><tspan class="TextPosition" x="3489" y="746"><tspan fill="rgb(0,0,0)" stroke="none">Utilización de sistemas operativos</tspan></tspan></tspan></text>
 <path fill="none" stroke="rgb(131,202,255)" stroke-width="80" stroke-linejoin="round" d="M 1077,11850 L 1877,11850"/>
 <path fill="none" stroke="rgb(0,204,255)" stroke-width="80" stroke-linejoin="round" d="M 3294,11850 L 4094,11850"/>
 <path fill="none" stroke="rgb(0,132,209)" stroke-width="80" stroke-linejoin="round" d="M 5855,11850 L 6655,11850"/>
 <path fill="none" stroke="rgb(0,102,204)" stroke-width="80" stroke-linejoin="round" d="M 7755,11850 L 8554,11850"/>
 <path fill="none" stroke="rgb(0,69,134)" stroke-width="80" stroke-linejoin="round" d="M 9654,11850 L 10454,11850"/>
 <path fill="none" stroke="rgb(0,102,0)" stroke-width="80" stroke-linejoin="round" d="M 11766,11850 L 12566,11850"/>
 <path fill="none" stroke="rgb(255,211,32)" stroke-width="80" stroke-linejoin="round" d="M 13428,11850 L 14228,11850"/>
 <text class="TextShape"><tspan class="TextParagraph" font-family="Arial, sans-serif" font-size="387px" font-weight="400"><tspan class="TextPosition" x="1977" y="11982"><tspan fill="rgb(0,0,0)" stroke="none">Win XP</tspan></tspan></tspan></text>
 <text class="TextShape"><tspan class="TextParagraph" font-family="Arial, sans-serif" font-size="387px" font-weight="400"><tspan class="TextPosition" x="4194" y="11982"><tspan fill="rgb(0,0,0)" stroke="none">Win Vista</tspan></tspan></tspan></text>
 <text class="TextShape"><tspan class="TextParagraph" font-family="Arial, sans-serif" font-size="387px" font-weight="400"><tspan class="TextPosition" x="6755" y="11982"><tspan fill="rgb(0,0,0)" stroke="none">Win 7</tspan></tspan></tspan></text>
 <text class="TextShape"><tspan class="TextParagraph" font-family="Arial, sans-serif" font-size="387px" font-weight="400"><tspan class="TextPosition" x="8654" y="11982"><tspan fill="rgb(0,0,0)" stroke="none">Win 8</tspan></tspan></tspan></text>
 <text class="TextShape"><tspan class="TextParagraph" font-family="Arial, sans-serif" font-size="387px" font-weight="400"><tspan class="TextPosition" x="10554" y="11982"><tspan fill="rgb(0,0,0)" stroke="none">Win 10</tspan></tspan></tspan></text>
 <text class="TextShape"><tspan class="TextParagraph" font-family="Arial, sans-serif" font-size="387px" font-weight="400"><tspan class="TextPosition" x="12666" y="11982"><tspan fill="rgb(0,0,0)" stroke="none">Mac</tspan></tspan></tspan></text>
 <text class="TextShape"><tspan class="TextParagraph" font-family="Arial, sans-serif" font-size="387px" font-weight="400"><tspan class="TextPosition" x="14328" y="11982"><tspan fill="rgb(0,0,0)" stroke="none">Móviles</tspan></tspan></tspan></text>
</svg>
