<?xml version="1.0" encoding="UTF-8"?>
<!DOCTYPE svg PUBLIC "-//W3C//DTD SVG 1.1//EN" "http://www.w3.org/Graphics/SVG/1.1/DTD/svg11.dtd">
<svg width="159mm" height="119mm" viewBox="0 0 15900 11900" version="1.1" xmlns="http://www.w3.org/2000/svg" stroke-width="28.222" stroke-linejoin="round" xml:space="preserve">
 <path fill="rgb(255,255,255)" stroke="none" d="M 7923,11897 L 0,11897 0,0 15846,0 15846,11897 7923,11897 Z"/>
 <path fill="none" stroke="rgb(0,0,0)" stroke-linejoin="round" d="M 7951,10587 L 1072,10587 1072,1152 14831,1152 14831,10587 7951,10587 Z"/>
 <path fill="none" stroke="rgb(0,0,0)" stroke-linejoin="round" d="M 14831,10586 L 1072,10586"/>
 <path fill="none" stroke="rgb(0,0,0)" stroke-linejoin="round" d="M 14831,9406 L 1072,9406"/>
 <path fill="none" stroke="rgb(0,0,0)" stroke-linejoin="round" d="M 14831,8227 L 1072,8227"/>
 <path fill="none" stroke="rgb(0,0,0)" stroke-linejoin="round" d="M 14831,7047 L 1072,7047"/>
 <path fill="none" stroke="rgb(0,0,0)" stroke-linejoin="round" d="M 14831,5869 L 1072,5869"/>
 <path fill="none" stroke="rgb(0,0,0)" stroke-linejoin="round" d="M 14831,4689 L 1072,4689"/>
 <path fill="none" stroke="rgb(0,0,0)" stroke-linejoin="round" d="M 14831,3509 L 1072,3509"/>
 <path fill="none" stroke="rgb(0,0,0)" stroke-linejoin="round" d="M 14831,2330 L 1072,2330"/>
 <path fill="none" stroke="rgb(0,0,0)" stroke-linejoin="round" d="M 14831,1151 L 1072,1151"/>
 <path fill="none" stroke="rgb(0,0,0)" stroke-width="30" stroke-linejoin="round" d="M 1072,10736 L 1072,10586"/>
 <path fill="none" stroke="rgb(0,0,0)" stroke-width="30" stroke-linejoin="round" d="M 1072,10736 L 1072,10586"/>
 <path fill="none" stroke="rgb(0,0,0)" stroke-width="30" stroke-linejoin="round" d="M 1192,10736 L 1192,10586"/>
 <path fill="none" stroke="rgb(0,0,0)" stroke-width="30" stroke-linejoin="round" d="M 1192,10736 L 1192,10586"/>
 <path fill="none" stroke="rgb(0,0,0)" stroke-width="30" stroke-linejoin="round" d="M 1313,10736 L 1313,10586"/>
 <path fill="none" stroke="rgb(0,0,0)" stroke-width="30" stroke-linejoin="round" d="M 1313,10736 L 1313,10586"/>
 <path fill="none" stroke="rgb(0,0,0)" stroke-width="30" stroke-linejoin="round" d="M 1434,10736 L 1434,10586"/>
 <path fill="none" stroke="rgb(0,0,0)" stroke-width="30" stroke-linejoin="round" d="M 1434,10736 L 1434,10586"/>
 <path fill="none" stroke="rgb(0,0,0)" stroke-width="30" stroke-linejoin="round" d="M 1554,10736 L 1554,10586"/>
 <path fill="none" stroke="rgb(0,0,0)" stroke-width="30" stroke-linejoin="round" d="M 1554,10736 L 1554,10586"/>
 <path fill="none" stroke="rgb(0,0,0)" stroke-width="30" stroke-linejoin="round" d="M 1674,10736 L 1674,10586"/>
 <path fill="none" stroke="rgb(0,0,0)" stroke-width="30" stroke-linejoin="round" d="M 1674,10736 L 1674,10586"/>
 <path fill="none" stroke="rgb(0,0,0)" stroke-width="30" stroke-linejoin="round" d="M 1795,10736 L 1795,10586"/>
 <path fill="none" stroke="rgb(0,0,0)" stroke-width="30" stroke-linejoin="round" d="M 1795,10736 L 1795,10586"/>
 <path fill="none" stroke="rgb(0,0,0)" stroke-width="30" stroke-linejoin="round" d="M 1916,10736 L 1916,10586"/>
 <path fill="none" stroke="rgb(0,0,0)" stroke-width="30" stroke-linejoin="round" d="M 1916,10736 L 1916,10586"/>
 <path fill="none" stroke="rgb(0,0,0)" stroke-width="30" stroke-linejoin="round" d="M 2036,10736 L 2036,10586"/>
 <path fill="none" stroke="rgb(0,0,0)" stroke-width="30" stroke-linejoin="round" d="M 2036,10736 L 2036,10586"/>
 <path fill="none" stroke="rgb(0,0,0)" stroke-width="30" stroke-linejoin="round" d="M 2157,10736 L 2157,10586"/>
 <path fill="none" stroke="rgb(0,0,0)" stroke-width="30" stroke-linejoin="round" d="M 2157,10736 L 2157,10586"/>
 <path fill="none" stroke="rgb(0,0,0)" stroke-width="30" stroke-linejoin="round" d="M 2278,10736 L 2278,10586"/>
 <path fill="none" stroke="rgb(0,0,0)" stroke-width="30" stroke-linejoin="round" d="M 2278,10736 L 2278,10586"/>
 <path fill="none" stroke="rgb(0,0,0)" stroke-width="30" stroke-linejoin="round" d="M 2399,10736 L 2399,10586"/>
 <path fill="none" stroke="rgb(0,0,0)" stroke-width="30" stroke-linejoin="round" d="M 2399,10736 L 2399,10586"/>
 <path fill="none" stroke="rgb(0,0,0)" stroke-width="30" stroke-linejoin="round" d="M 2519,10736 L 2519,10586"/>
 <path fill="none" stroke="rgb(0,0,0)" stroke-width="30" stroke-linejoin="round" d="M 2519,10736 L 2519,10586"/>
 <path fill="none" stroke="rgb(0,0,0)" stroke-width="30" stroke-linejoin="round" d="M 2640,10736 L 2640,10586"/>
 <path fill="none" stroke="rgb(0,0,0)" stroke-width="30" stroke-linejoin="round" d="M 2640,10736 L 2640,10586"/>
 <path fill="none" stroke="rgb(0,0,0)" stroke-width="30" stroke-linejoin="round" d="M 2761,10736 L 2761,10586"/>
 <path fill="none" stroke="rgb(0,0,0)" stroke-width="30" stroke-linejoin="round" d="M 2761,10736 L 2761,10586"/>
 <path fill="none" stroke="rgb(0,0,0)" stroke-width="30" stroke-linejoin="round" d="M 2882,10736 L 2882,10586"/>
 <path fill="none" stroke="rgb(0,0,0)" stroke-width="30" stroke-linejoin="round" d="M 2882,10736 L 2882,10586"/>
 <path fill="none" stroke="rgb(0,0,0)" stroke-width="30" stroke-linejoin="round" d="M 3002,10736 L 3002,10586"/>
 <path fill="none" stroke="rgb(0,0,0)" stroke-width="30" stroke-linejoin="round" d="M 3002,10736 L 3002,10586"/>
 <path fill="none" stroke="rgb(0,0,0)" stroke-width="30" stroke-linejoin="round" d="M 3123,10736 L 3123,10586"/>
 <path fill="none" stroke="rgb(0,0,0)" stroke-width="30" stroke-linejoin="round" d="M 3123,10736 L 3123,10586"/>
 <path fill="none" stroke="rgb(0,0,0)" stroke-width="30" stroke-linejoin="round" d="M 3244,10736 L 3244,10586"/>
 <path fill="none" stroke="rgb(0,0,0)" stroke-width="30" stroke-linejoin="round" d="M 3244,10736 L 3244,10586"/>
 <path fill="none" stroke="rgb(0,0,0)" stroke-width="30" stroke-linejoin="round" d="M 3365,10736 L 3365,10586"/>
 <path fill="none" stroke="rgb(0,0,0)" stroke-width="30" stroke-linejoin="round" d="M 3365,10736 L 3365,10586"/>
 <path fill="none" stroke="rgb(0,0,0)" stroke-width="30" stroke-linejoin="round" d="M 3485,10736 L 3485,10586"/>
 <path fill="none" stroke="rgb(0,0,0)" stroke-width="30" stroke-linejoin="round" d="M 3485,10736 L 3485,10586"/>
 <path fill="none" stroke="rgb(0,0,0)" stroke-width="30" stroke-linejoin="round" d="M 3606,10736 L 3606,10586"/>
 <path fill="none" stroke="rgb(0,0,0)" stroke-width="30" stroke-linejoin="round" d="M 3606,10736 L 3606,10586"/>
 <path fill="none" stroke="rgb(0,0,0)" stroke-width="30" stroke-linejoin="round" d="M 3727,10736 L 3727,10586"/>
 <path fill="none" stroke="rgb(0,0,0)" stroke-width="30" stroke-linejoin="round" d="M 3727,10736 L 3727,10586"/>
 <path fill="none" stroke="rgb(0,0,0)" stroke-width="30" stroke-linejoin="round" d="M 3847,10736 L 3847,10586"/>
 <path fill="none" stroke="rgb(0,0,0)" stroke-width="30" stroke-linejoin="round" d="M 3847,10736 L 3847,10586"/>
 <path fill="none" stroke="rgb(0,0,0)" stroke-width="30" stroke-linejoin="round" d="M 3968,10736 L 3968,10586"/>
 <path fill="none" stroke="rgb(0,0,0)" stroke-width="30" stroke-linejoin="round" d="M 3968,10736 L 3968,10586"/>
 <path fill="none" stroke="rgb(0,0,0)" stroke-width="30" stroke-linejoin="round" d="M 4089,10736 L 4089,10586"/>
 <path fill="none" stroke="rgb(0,0,0)" stroke-width="30" stroke-linejoin="round" d="M 4089,10736 L 4089,10586"/>
 <path fill="none" stroke="rgb(0,0,0)" stroke-width="30" stroke-linejoin="round" d="M 4210,10736 L 4210,10586"/>
 <path fill="none" stroke="rgb(0,0,0)" stroke-width="30" stroke-linejoin="round" d="M 4210,10736 L 4210,10586"/>
 <path fill="none" stroke="rgb(0,0,0)" stroke-width="30" stroke-linejoin="round" d="M 4330,10736 L 4330,10586"/>
 <path fill="none" stroke="rgb(0,0,0)" stroke-width="30" stroke-linejoin="round" d="M 4330,10736 L 4330,10586"/>
 <path fill="none" stroke="rgb(0,0,0)" stroke-width="30" stroke-linejoin="round" d="M 4451,10736 L 4451,10586"/>
 <path fill="none" stroke="rgb(0,0,0)" stroke-width="30" stroke-linejoin="round" d="M 4451,10736 L 4451,10586"/>
 <path fill="none" stroke="rgb(0,0,0)" stroke-width="30" stroke-linejoin="round" d="M 4572,10736 L 4572,10586"/>
 <path fill="none" stroke="rgb(0,0,0)" stroke-width="30" stroke-linejoin="round" d="M 4572,10736 L 4572,10586"/>
 <path fill="none" stroke="rgb(0,0,0)" stroke-width="30" stroke-linejoin="round" d="M 4693,10736 L 4693,10586"/>
 <path fill="none" stroke="rgb(0,0,0)" stroke-width="30" stroke-linejoin="round" d="M 4693,10736 L 4693,10586"/>
 <path fill="none" stroke="rgb(0,0,0)" stroke-width="30" stroke-linejoin="round" d="M 4812,10736 L 4812,10586"/>
 <path fill="none" stroke="rgb(0,0,0)" stroke-width="30" stroke-linejoin="round" d="M 4812,10736 L 4812,10586"/>
 <path fill="none" stroke="rgb(0,0,0)" stroke-width="30" stroke-linejoin="round" d="M 4933,10736 L 4933,10586"/>
 <path fill="none" stroke="rgb(0,0,0)" stroke-width="30" stroke-linejoin="round" d="M 4933,10736 L 4933,10586"/>
 <path fill="none" stroke="rgb(0,0,0)" stroke-width="30" stroke-linejoin="round" d="M 5054,10736 L 5054,10586"/>
 <path fill="none" stroke="rgb(0,0,0)" stroke-width="30" stroke-linejoin="round" d="M 5054,10736 L 5054,10586"/>
 <path fill="none" stroke="rgb(0,0,0)" stroke-width="30" stroke-linejoin="round" d="M 5175,10736 L 5175,10586"/>
 <path fill="none" stroke="rgb(0,0,0)" stroke-width="30" stroke-linejoin="round" d="M 5175,10736 L 5175,10586"/>
 <path fill="none" stroke="rgb(0,0,0)" stroke-width="30" stroke-linejoin="round" d="M 5295,10736 L 5295,10586"/>
 <path fill="none" stroke="rgb(0,0,0)" stroke-width="30" stroke-linejoin="round" d="M 5295,10736 L 5295,10586"/>
 <path fill="none" stroke="rgb(0,0,0)" stroke-width="30" stroke-linejoin="round" d="M 5416,10736 L 5416,10586"/>
 <path fill="none" stroke="rgb(0,0,0)" stroke-width="30" stroke-linejoin="round" d="M 5416,10736 L 5416,10586"/>
 <path fill="none" stroke="rgb(0,0,0)" stroke-width="30" stroke-linejoin="round" d="M 5537,10736 L 5537,10586"/>
 <path fill="none" stroke="rgb(0,0,0)" stroke-width="30" stroke-linejoin="round" d="M 5537,10736 L 5537,10586"/>
 <path fill="none" stroke="rgb(0,0,0)" stroke-width="30" stroke-linejoin="round" d="M 5658,10736 L 5658,10586"/>
 <path fill="none" stroke="rgb(0,0,0)" stroke-width="30" stroke-linejoin="round" d="M 5658,10736 L 5658,10586"/>
 <path fill="none" stroke="rgb(0,0,0)" stroke-width="30" stroke-linejoin="round" d="M 5778,10736 L 5778,10586"/>
 <path fill="none" stroke="rgb(0,0,0)" stroke-width="30" stroke-linejoin="round" d="M 5778,10736 L 5778,10586"/>
 <path fill="none" stroke="rgb(0,0,0)" stroke-width="30" stroke-linejoin="round" d="M 5899,10736 L 5899,10586"/>
 <path fill="none" stroke="rgb(0,0,0)" stroke-width="30" stroke-linejoin="round" d="M 5899,10736 L 5899,10586"/>
 <path fill="none" stroke="rgb(0,0,0)" stroke-width="30" stroke-linejoin="round" d="M 6020,10736 L 6020,10586"/>
 <path fill="none" stroke="rgb(0,0,0)" stroke-width="30" stroke-linejoin="round" d="M 6020,10736 L 6020,10586"/>
 <path fill="none" stroke="rgb(0,0,0)" stroke-width="30" stroke-linejoin="round" d="M 6140,10736 L 6140,10586"/>
 <path fill="none" stroke="rgb(0,0,0)" stroke-width="30" stroke-linejoin="round" d="M 6140,10736 L 6140,10586"/>
 <path fill="none" stroke="rgb(0,0,0)" stroke-width="30" stroke-linejoin="round" d="M 6261,10736 L 6261,10586"/>
 <path fill="none" stroke="rgb(0,0,0)" stroke-width="30" stroke-linejoin="round" d="M 6261,10736 L 6261,10586"/>
 <path fill="none" stroke="rgb(0,0,0)" stroke-width="30" stroke-linejoin="round" d="M 6382,10736 L 6382,10586"/>
 <path fill="none" stroke="rgb(0,0,0)" stroke-width="30" stroke-linejoin="round" d="M 6382,10736 L 6382,10586"/>
 <path fill="none" stroke="rgb(0,0,0)" stroke-width="30" stroke-linejoin="round" d="M 6503,10736 L 6503,10586"/>
 <path fill="none" stroke="rgb(0,0,0)" stroke-width="30" stroke-linejoin="round" d="M 6503,10736 L 6503,10586"/>
 <path fill="none" stroke="rgb(0,0,0)" stroke-width="30" stroke-linejoin="round" d="M 6623,10736 L 6623,10586"/>
 <path fill="none" stroke="rgb(0,0,0)" stroke-width="30" stroke-linejoin="round" d="M 6623,10736 L 6623,10586"/>
 <path fill="none" stroke="rgb(0,0,0)" stroke-width="30" stroke-linejoin="round" d="M 6744,10736 L 6744,10586"/>
 <path fill="none" stroke="rgb(0,0,0)" stroke-width="30" stroke-linejoin="round" d="M 6744,10736 L 6744,10586"/>
 <path fill="none" stroke="rgb(0,0,0)" stroke-width="30" stroke-linejoin="round" d="M 6865,10736 L 6865,10586"/>
 <path fill="none" stroke="rgb(0,0,0)" stroke-width="30" stroke-linejoin="round" d="M 6865,10736 L 6865,10586"/>
 <path fill="none" stroke="rgb(0,0,0)" stroke-width="30" stroke-linejoin="round" d="M 6986,10736 L 6986,10586"/>
 <path fill="none" stroke="rgb(0,0,0)" stroke-width="30" stroke-linejoin="round" d="M 6986,10736 L 6986,10586"/>
 <path fill="none" stroke="rgb(0,0,0)" stroke-width="30" stroke-linejoin="round" d="M 7106,10736 L 7106,10586"/>
 <path fill="none" stroke="rgb(0,0,0)" stroke-width="30" stroke-linejoin="round" d="M 7106,10736 L 7106,10586"/>
 <path fill="none" stroke="rgb(0,0,0)" stroke-width="30" stroke-linejoin="round" d="M 7227,10736 L 7227,10586"/>
 <path fill="none" stroke="rgb(0,0,0)" stroke-width="30" stroke-linejoin="round" d="M 7227,10736 L 7227,10586"/>
 <path fill="none" stroke="rgb(0,0,0)" stroke-width="30" stroke-linejoin="round" d="M 7348,10736 L 7348,10586"/>
 <path fill="none" stroke="rgb(0,0,0)" stroke-width="30" stroke-linejoin="round" d="M 7348,10736 L 7348,10586"/>
 <path fill="none" stroke="rgb(0,0,0)" stroke-width="30" stroke-linejoin="round" d="M 7469,10736 L 7469,10586"/>
 <path fill="none" stroke="rgb(0,0,0)" stroke-width="30" stroke-linejoin="round" d="M 7469,10736 L 7469,10586"/>
 <path fill="none" stroke="rgb(0,0,0)" stroke-width="30" stroke-linejoin="round" d="M 7589,10736 L 7589,10586"/>
 <path fill="none" stroke="rgb(0,0,0)" stroke-width="30" stroke-linejoin="round" d="M 7589,10736 L 7589,10586"/>
 <path fill="none" stroke="rgb(0,0,0)" stroke-width="30" stroke-linejoin="round" d="M 7710,10736 L 7710,10586"/>
 <path fill="none" stroke="rgb(0,0,0)" stroke-width="30" stroke-linejoin="round" d="M 7710,10736 L 7710,10586"/>
 <path fill="none" stroke="rgb(0,0,0)" stroke-width="30" stroke-linejoin="round" d="M 7831,10736 L 7831,10586"/>
 <path fill="none" stroke="rgb(0,0,0)" stroke-width="30" stroke-linejoin="round" d="M 7831,10736 L 7831,10586"/>
 <path fill="none" stroke="rgb(0,0,0)" stroke-width="30" stroke-linejoin="round" d="M 7951,10736 L 7951,10586"/>
 <path fill="none" stroke="rgb(0,0,0)" stroke-width="30" stroke-linejoin="round" d="M 7951,10736 L 7951,10586"/>
 <path fill="none" stroke="rgb(0,0,0)" stroke-width="30" stroke-linejoin="round" d="M 8071,10736 L 8071,10586"/>
 <path fill="none" stroke="rgb(0,0,0)" stroke-width="30" stroke-linejoin="round" d="M 8071,10736 L 8071,10586"/>
 <path fill="none" stroke="rgb(0,0,0)" stroke-width="30" stroke-linejoin="round" d="M 8192,10736 L 8192,10586"/>
 <path fill="none" stroke="rgb(0,0,0)" stroke-width="30" stroke-linejoin="round" d="M 8192,10736 L 8192,10586"/>
 <path fill="none" stroke="rgb(0,0,0)" stroke-width="30" stroke-linejoin="round" d="M 8313,10736 L 8313,10586"/>
 <path fill="none" stroke="rgb(0,0,0)" stroke-width="30" stroke-linejoin="round" d="M 8313,10736 L 8313,10586"/>
 <path fill="none" stroke="rgb(0,0,0)" stroke-width="30" stroke-linejoin="round" d="M 8433,10736 L 8433,10586"/>
 <path fill="none" stroke="rgb(0,0,0)" stroke-width="30" stroke-linejoin="round" d="M 8433,10736 L 8433,10586"/>
 <path fill="none" stroke="rgb(0,0,0)" stroke-width="30" stroke-linejoin="round" d="M 8554,10736 L 8554,10586"/>
 <path fill="none" stroke="rgb(0,0,0)" stroke-width="30" stroke-linejoin="round" d="M 8554,10736 L 8554,10586"/>
 <path fill="none" stroke="rgb(0,0,0)" stroke-width="30" stroke-linejoin="round" d="M 8675,10736 L 8675,10586"/>
 <path fill="none" stroke="rgb(0,0,0)" stroke-width="30" stroke-linejoin="round" d="M 8675,10736 L 8675,10586"/>
 <path fill="none" stroke="rgb(0,0,0)" stroke-width="30" stroke-linejoin="round" d="M 8796,10736 L 8796,10586"/>
 <path fill="none" stroke="rgb(0,0,0)" stroke-width="30" stroke-linejoin="round" d="M 8796,10736 L 8796,10586"/>
 <path fill="none" stroke="rgb(0,0,0)" stroke-width="30" stroke-linejoin="round" d="M 8916,10736 L 8916,10586"/>
 <path fill="none" stroke="rgb(0,0,0)" stroke-width="30" stroke-linejoin="round" d="M 8916,10736 L 8916,10586"/>
 <path fill="none" stroke="rgb(0,0,0)" stroke-width="30" stroke-linejoin="round" d="M 9037,10736 L 9037,10586"/>
 <path fill="none" stroke="rgb(0,0,0)" stroke-width="30" stroke-linejoin="round" d="M 9037,10736 L 9037,10586"/>
 <path fill="none" stroke="rgb(0,0,0)" stroke-width="30" stroke-linejoin="round" d="M 9158,10736 L 9158,10586"/>
 <path fill="none" stroke="rgb(0,0,0)" stroke-width="30" stroke-linejoin="round" d="M 9158,10736 L 9158,10586"/>
 <path fill="none" stroke="rgb(0,0,0)" stroke-width="30" stroke-linejoin="round" d="M 9279,10736 L 9279,10586"/>
 <path fill="none" stroke="rgb(0,0,0)" stroke-width="30" stroke-linejoin="round" d="M 9279,10736 L 9279,10586"/>
 <path fill="none" stroke="rgb(0,0,0)" stroke-width="30" stroke-linejoin="round" d="M 9399,10736 L 9399,10586"/>
 <path fill="none" stroke="rgb(0,0,0)" stroke-width="30" stroke-linejoin="round" d="M 9399,10736 L 9399,10586"/>
 <path fill="none" stroke="rgb(0,0,0)" stroke-width="30" stroke-linejoin="round" d="M 9520,10736 L 9520,10586"/>
 <path fill="none" stroke="rgb(0,0,0)" stroke-width="30" stroke-linejoin="round" d="M 9520,10736 L 9520,10586"/>
 <path fill="none" stroke="rgb(0,0,0)" stroke-width="30" stroke-linejoin="round" d="M 9641,10736 L 9641,10586"/>
 <path fill="none" stroke="rgb(0,0,0)" stroke-width="30" stroke-linejoin="round" d="M 9641,10736 L 9641,10586"/>
 <path fill="none" stroke="rgb(0,0,0)" stroke-width="30" stroke-linejoin="round" d="M 9762,10736 L 9762,10586"/>
 <path fill="none" stroke="rgb(0,0,0)" stroke-width="30" stroke-linejoin="round" d="M 9762,10736 L 9762,10586"/>
 <path fill="none" stroke="rgb(0,0,0)" stroke-width="30" stroke-linejoin="round" d="M 9882,10736 L 9882,10586"/>
 <path fill="none" stroke="rgb(0,0,0)" stroke-width="30" stroke-linejoin="round" d="M 9882,10736 L 9882,10586"/>
 <path fill="none" stroke="rgb(0,0,0)" stroke-width="30" stroke-linejoin="round" d="M 10003,10736 L 10003,10586"/>
 <path fill="none" stroke="rgb(0,0,0)" stroke-width="30" stroke-linejoin="round" d="M 10003,10736 L 10003,10586"/>
 <path fill="none" stroke="rgb(0,0,0)" stroke-width="30" stroke-linejoin="round" d="M 10124,10736 L 10124,10586"/>
 <path fill="none" stroke="rgb(0,0,0)" stroke-width="30" stroke-linejoin="round" d="M 10124,10736 L 10124,10586"/>
 <path fill="none" stroke="rgb(0,0,0)" stroke-width="30" stroke-linejoin="round" d="M 10245,10736 L 10245,10586"/>
 <path fill="none" stroke="rgb(0,0,0)" stroke-width="30" stroke-linejoin="round" d="M 10245,10736 L 10245,10586"/>
 <path fill="none" stroke="rgb(0,0,0)" stroke-width="30" stroke-linejoin="round" d="M 10365,10736 L 10365,10586"/>
 <path fill="none" stroke="rgb(0,0,0)" stroke-width="30" stroke-linejoin="round" d="M 10365,10736 L 10365,10586"/>
 <path fill="none" stroke="rgb(0,0,0)" stroke-width="30" stroke-linejoin="round" d="M 10486,10736 L 10486,10586"/>
 <path fill="none" stroke="rgb(0,0,0)" stroke-width="30" stroke-linejoin="round" d="M 10486,10736 L 10486,10586"/>
 <path fill="none" stroke="rgb(0,0,0)" stroke-width="30" stroke-linejoin="round" d="M 10607,10736 L 10607,10586"/>
 <path fill="none" stroke="rgb(0,0,0)" stroke-width="30" stroke-linejoin="round" d="M 10607,10736 L 10607,10586"/>
 <path fill="none" stroke="rgb(0,0,0)" stroke-width="30" stroke-linejoin="round" d="M 10727,10736 L 10727,10586"/>
 <path fill="none" stroke="rgb(0,0,0)" stroke-width="30" stroke-linejoin="round" d="M 10727,10736 L 10727,10586"/>
 <path fill="none" stroke="rgb(0,0,0)" stroke-width="30" stroke-linejoin="round" d="M 10848,10736 L 10848,10586"/>
 <path fill="none" stroke="rgb(0,0,0)" stroke-width="30" stroke-linejoin="round" d="M 10848,10736 L 10848,10586"/>
 <path fill="none" stroke="rgb(0,0,0)" stroke-width="30" stroke-linejoin="round" d="M 10969,10736 L 10969,10586"/>
 <path fill="none" stroke="rgb(0,0,0)" stroke-width="30" stroke-linejoin="round" d="M 10969,10736 L 10969,10586"/>
 <path fill="none" stroke="rgb(0,0,0)" stroke-width="30" stroke-linejoin="round" d="M 11090,10736 L 11090,10586"/>
 <path fill="none" stroke="rgb(0,0,0)" stroke-width="30" stroke-linejoin="round" d="M 11090,10736 L 11090,10586"/>
 <path fill="none" stroke="rgb(0,0,0)" stroke-width="30" stroke-linejoin="round" d="M 11209,10736 L 11209,10586"/>
 <path fill="none" stroke="rgb(0,0,0)" stroke-width="30" stroke-linejoin="round" d="M 11209,10736 L 11209,10586"/>
 <path fill="none" stroke="rgb(0,0,0)" stroke-width="30" stroke-linejoin="round" d="M 11330,10736 L 11330,10586"/>
 <path fill="none" stroke="rgb(0,0,0)" stroke-width="30" stroke-linejoin="round" d="M 11330,10736 L 11330,10586"/>
 <path fill="none" stroke="rgb(0,0,0)" stroke-width="30" stroke-linejoin="round" d="M 11451,10736 L 11451,10586"/>
 <path fill="none" stroke="rgb(0,0,0)" stroke-width="30" stroke-linejoin="round" d="M 11451,10736 L 11451,10586"/>
 <path fill="none" stroke="rgb(0,0,0)" stroke-width="30" stroke-linejoin="round" d="M 11572,10736 L 11572,10586"/>
 <path fill="none" stroke="rgb(0,0,0)" stroke-width="30" stroke-linejoin="round" d="M 11572,10736 L 11572,10586"/>
 <path fill="none" stroke="rgb(0,0,0)" stroke-width="30" stroke-linejoin="round" d="M 11692,10736 L 11692,10586"/>
 <path fill="none" stroke="rgb(0,0,0)" stroke-width="30" stroke-linejoin="round" d="M 11692,10736 L 11692,10586"/>
 <path fill="none" stroke="rgb(0,0,0)" stroke-width="30" stroke-linejoin="round" d="M 11813,10736 L 11813,10586"/>
 <path fill="none" stroke="rgb(0,0,0)" stroke-width="30" stroke-linejoin="round" d="M 11813,10736 L 11813,10586"/>
 <path fill="none" stroke="rgb(0,0,0)" stroke-width="30" stroke-linejoin="round" d="M 11934,10736 L 11934,10586"/>
 <path fill="none" stroke="rgb(0,0,0)" stroke-width="30" stroke-linejoin="round" d="M 11934,10736 L 11934,10586"/>
 <path fill="none" stroke="rgb(0,0,0)" stroke-width="30" stroke-linejoin="round" d="M 12055,10736 L 12055,10586"/>
 <path fill="none" stroke="rgb(0,0,0)" stroke-width="30" stroke-linejoin="round" d="M 12055,10736 L 12055,10586"/>
 <path fill="none" stroke="rgb(0,0,0)" stroke-width="30" stroke-linejoin="round" d="M 12175,10736 L 12175,10586"/>
 <path fill="none" stroke="rgb(0,0,0)" stroke-width="30" stroke-linejoin="round" d="M 12175,10736 L 12175,10586"/>
 <path fill="none" stroke="rgb(0,0,0)" stroke-width="30" stroke-linejoin="round" d="M 12296,10736 L 12296,10586"/>
 <path fill="none" stroke="rgb(0,0,0)" stroke-width="30" stroke-linejoin="round" d="M 12296,10736 L 12296,10586"/>
 <path fill="none" stroke="rgb(0,0,0)" stroke-width="30" stroke-linejoin="round" d="M 12417,10736 L 12417,10586"/>
 <path fill="none" stroke="rgb(0,0,0)" stroke-width="30" stroke-linejoin="round" d="M 12417,10736 L 12417,10586"/>
 <path fill="none" stroke="rgb(0,0,0)" stroke-width="30" stroke-linejoin="round" d="M 12538,10736 L 12538,10586"/>
 <path fill="none" stroke="rgb(0,0,0)" stroke-width="30" stroke-linejoin="round" d="M 12538,10736 L 12538,10586"/>
 <path fill="none" stroke="rgb(0,0,0)" stroke-width="30" stroke-linejoin="round" d="M 12658,10736 L 12658,10586"/>
 <path fill="none" stroke="rgb(0,0,0)" stroke-width="30" stroke-linejoin="round" d="M 12658,10736 L 12658,10586"/>
 <path fill="none" stroke="rgb(0,0,0)" stroke-width="30" stroke-linejoin="round" d="M 12779,10736 L 12779,10586"/>
 <path fill="none" stroke="rgb(0,0,0)" stroke-width="30" stroke-linejoin="round" d="M 12779,10736 L 12779,10586"/>
 <path fill="none" stroke="rgb(0,0,0)" stroke-width="30" stroke-linejoin="round" d="M 12900,10736 L 12900,10586"/>
 <path fill="none" stroke="rgb(0,0,0)" stroke-width="30" stroke-linejoin="round" d="M 12900,10736 L 12900,10586"/>
 <path fill="none" stroke="rgb(0,0,0)" stroke-width="30" stroke-linejoin="round" d="M 13020,10736 L 13020,10586"/>
 <path fill="none" stroke="rgb(0,0,0)" stroke-width="30" stroke-linejoin="round" d="M 13020,10736 L 13020,10586"/>
 <path fill="none" stroke="rgb(0,0,0)" stroke-width="30" stroke-linejoin="round" d="M 13141,10736 L 13141,10586"/>
 <path fill="none" stroke="rgb(0,0,0)" stroke-width="30" stroke-linejoin="round" d="M 13141,10736 L 13141,10586"/>
 <path fill="none" stroke="rgb(0,0,0)" stroke-width="30" stroke-linejoin="round" d="M 13262,10736 L 13262,10586"/>
 <path fill="none" stroke="rgb(0,0,0)" stroke-width="30" stroke-linejoin="round" d="M 13262,10736 L 13262,10586"/>
 <path fill="none" stroke="rgb(0,0,0)" stroke-width="30" stroke-linejoin="round" d="M 13383,10736 L 13383,10586"/>
 <path fill="none" stroke="rgb(0,0,0)" stroke-width="30" stroke-linejoin="round" d="M 13383,10736 L 13383,10586"/>
 <path fill="none" stroke="rgb(0,0,0)" stroke-width="30" stroke-linejoin="round" d="M 13503,10736 L 13503,10586"/>
 <path fill="none" stroke="rgb(0,0,0)" stroke-width="30" stroke-linejoin="round" d="M 13503,10736 L 13503,10586"/>
 <path fill="none" stroke="rgb(0,0,0)" stroke-width="30" stroke-linejoin="round" d="M 13624,10736 L 13624,10586"/>
 <path fill="none" stroke="rgb(0,0,0)" stroke-width="30" stroke-linejoin="round" d="M 13624,10736 L 13624,10586"/>
 <path fill="none" stroke="rgb(0,0,0)" stroke-width="30" stroke-linejoin="round" d="M 13745,10736 L 13745,10586"/>
 <path fill="none" stroke="rgb(0,0,0)" stroke-width="30" stroke-linejoin="round" d="M 13745,10736 L 13745,10586"/>
 <path fill="none" stroke="rgb(0,0,0)" stroke-width="30" stroke-linejoin="round" d="M 13866,10736 L 13866,10586"/>
 <path fill="none" stroke="rgb(0,0,0)" stroke-width="30" stroke-linejoin="round" d="M 13866,10736 L 13866,10586"/>
 <path fill="none" stroke="rgb(0,0,0)" stroke-width="30" stroke-linejoin="round" d="M 13986,10736 L 13986,10586"/>
 <path fill="none" stroke="rgb(0,0,0)" stroke-width="30" stroke-linejoin="round" d="M 13986,10736 L 13986,10586"/>
 <path fill="none" stroke="rgb(0,0,0)" stroke-width="30" stroke-linejoin="round" d="M 14107,10736 L 14107,10586"/>
 <path fill="none" stroke="rgb(0,0,0)" stroke-width="30" stroke-linejoin="round" d="M 14107,10736 L 14107,10586"/>
 <path fill="none" stroke="rgb(0,0,0)" stroke-width="30" stroke-linejoin="round" d="M 14228,10736 L 14228,10586"/>
 <path fill="none" stroke="rgb(0,0,0)" stroke-width="30" stroke-linejoin="round" d="M 14228,10736 L 14228,10586"/>
 <path fill="none" stroke="rgb(0,0,0)" stroke-width="30" stroke-linejoin="round" d="M 14348,10736 L 14348,10586"/>
 <path fill="none" stroke="rgb(0,0,0)" stroke-width="30" stroke-linejoin="round" d="M 14348,10736 L 14348,10586"/>
 <path fill="none" stroke="rgb(0,0,0)" stroke-width="30" stroke-linejoin="round" d="M 14468,10736 L 14468,10586"/>
 <path fill="none" stroke="rgb(0,0,0)" stroke-width="30" stroke-linejoin="round" d="M 14468,10736 L 14468,10586"/>
 <path fill="none" stroke="rgb(0,0,0)" stroke-width="30" stroke-linejoin="round" d="M 14589,10736 L 14589,10586"/>
 <path fill="none" stroke="rgb(0,0,0)" stroke-width="30" stroke-linejoin="round" d="M 14589,10736 L 14589,10586"/>
 <path fill="none" stroke="rgb(0,0,0)" stroke-width="30" stroke-linejoin="round" d="M 14710,10736 L 14710,10586"/>
 <path fill="none" stroke="rgb(0,0,0)" stroke-width="30" stroke-linejoin="round" d="M 14710,10736 L 14710,10586"/>
 <path fill="none" stroke="rgb(0,0,0)" stroke-width="30" stroke-linejoin="round" d="M 14831,10736 L 14831,10586"/>
 <path fill="none" stroke="rgb(0,0,0)" stroke-width="30" stroke-linejoin="round" d="M 14831,10736 L 14831,10586"/>
 <path fill="none" stroke="rgb(0,0,0)" stroke-width="30" stroke-linejoin="round" d="M 1072,10586 L 14831,10586"/>
 <path fill="none" stroke="rgb(0,0,0)" stroke-linejoin="round" d="M 922,10586 L 1222,10586"/>
 <path fill="none" stroke="rgb(0,0,0)" stroke-linejoin="round" d="M 922,10586 L 1222,10586"/>
 <path fill="none" stroke="rgb(0,0,0)" stroke-linejoin="round" d="M 922,9406 L 1222,9406"/>
 <path fill="none" stroke="rgb(0,0,0)" stroke-linejoin="round" d="M 922,9406 L 1222,9406"/>
 <path fill="none" stroke="rgb(0,0,0)" stroke-linejoin="round" d="M 922,8227 L 1222,8227"/>
 <path fill="none" stroke="rgb(0,0,0)" stroke-linejoin="round" d="M 922,8227 L 1222,8227"/>
 <path fill="none" stroke="rgb(0,0,0)" stroke-linejoin="round" d="M 922,7047 L 1222,7047"/>
 <path fill="none" stroke="rgb(0,0,0)" stroke-linejoin="round" d="M 922,7047 L 1222,7047"/>
 <path fill="none" stroke="rgb(0,0,0)" stroke-linejoin="round" d="M 922,5869 L 1222,5869"/>
 <path fill="none" stroke="rgb(0,0,0)" stroke-linejoin="round" d="M 922,5869 L 1222,5869"/>
 <path fill="none" stroke="rgb(0,0,0)" stroke-linejoin="round" d="M 922,4689 L 1222,4689"/>
 <path fill="none" stroke="rgb(0,0,0)" stroke-linejoin="round" d="M 922,4689 L 1222,4689"/>
 <path fill="none" stroke="rgb(0,0,0)" stroke-linejoin="round" d="M 922,3509 L 1222,3509"/>
 <path fill="none" stroke="rgb(0,0,0)" stroke-linejoin="round" d="M 922,3509 L 1222,3509"/>
 <path fill="none" stroke="rgb(0,0,0)" stroke-linejoin="round" d="M 922,2330 L 1222,2330"/>
 <path fill="none" stroke="rgb(0,0,0)" stroke-linejoin="round" d="M 922,2330 L 1222,2330"/>
 <path fill="none" stroke="rgb(0,0,0)" stroke-linejoin="round" d="M 922,1151 L 1222,1151"/>
 <path fill="none" stroke="rgb(0,0,0)" stroke-linejoin="round" d="M 922,1151 L 1222,1151"/>
 <path fill="none" stroke="rgb(0,0,0)" stroke-linejoin="round" d="M 1072,10586 L 1072,1151"/>
 <path fill="none" stroke="rgb(0,0,0)" stroke-linejoin="round" d="M 14981,10586 L 14831,10586"/>
 <path fill="none" stroke="rgb(0,0,0)" stroke-linejoin="round" d="M 14981,10586 L 14831,10586"/>
 <path fill="none" stroke="rgb(0,0,0)" stroke-linejoin="round" d="M 14981,9406 L 14831,9406"/>
 <path fill="none" stroke="rgb(0,0,0)" stroke-linejoin="round" d="M 14981,9406 L 14831,9406"/>
 <path fill="none" stroke="rgb(0,0,0)" stroke-linejoin="round" d="M 14981,8227 L 14831,8227"/>
 <path fill="none" stroke="rgb(0,0,0)" stroke-linejoin="round" d="M 14981,8227 L 14831,8227"/>
 <path fill="none" stroke="rgb(0,0,0)" stroke-linejoin="round" d="M 14981,7047 L 14831,7047"/>
 <path fill="none" stroke="rgb(0,0,0)" stroke-linejoin="round" d="M 14981,7047 L 14831,7047"/>
 <path fill="none" stroke="rgb(0,0,0)" stroke-linejoin="round" d="M 14981,5869 L 14831,5869"/>
 <path fill="none" stroke="rgb(0,0,0)" stroke-linejoin="round" d="M 14981,5869 L 14831,5869"/>
 <path fill="none" stroke="rgb(0,0,0)" stroke-linejoin="round" d="M 14981,4689 L 14831,4689"/>
 <path fill="none" stroke="rgb(0,0,0)" stroke-linejoin="round" d="M 14981,4689 L 14831,4689"/>
 <path fill="none" stroke="rgb(0,0,0)" stroke-linejoin="round" d="M 14981,3509 L 14831,3509"/>
 <path fill="none" stroke="rgb(0,0,0)" stroke-linejoin="round" d="M 14981,3509 L 14831,3509"/>
 <path fill="none" stroke="rgb(0,0,0)" stroke-linejoin="round" d="M 14981,2330 L 14831,2330"/>
 <path fill="none" stroke="rgb(0,0,0)" stroke-linejoin="round" d="M 14981,2330 L 14831,2330"/>
 <path fill="none" stroke="rgb(0,0,0)" stroke-linejoin="round" d="M 14981,1151 L 14831,1151"/>
 <path fill="none" stroke="rgb(0,0,0)" stroke-linejoin="round" d="M 14981,1151 L 14831,1151"/>
 <path fill="none" stroke="rgb(0,0,0)" stroke-linejoin="round" d="M 14831,10586 L 14831,1151"/>
 <path fill="none" stroke="rgb(255,211,32)" stroke-width="80" stroke-linejoin="round" d="M 2157,10586 L 2278,10456 2399,10468 2519,10453 2640,10422 2761,10405 2882,10404 3002,10397 3123,10374 3244,10331 3365,10305 3485,10284 3606,10253 3727,10214 3847,10166 3968,10124 4089,10045 4210,9978 4330,9926 4451,9866 4572,9795 4693,9766 4812,9740 4933,9748 5054,9710 5175,9650 5295,9602 5416,9505 5537,9419 5658,9336 5778,9306 5899,9234 6020,9201 6140,9130 6261,9066 6382,9045 6503,8780 6623,8703 6744,8524 6865,8495 6986,8398 7106,8423 7227,8434 7348,8479 7469,8433 7589,8328 7710,8376 7831,8434 7951,8364 8071,8406 8192,8375 8313,8522 8433,8502 8554,8565 8675,8645 8796,8666 8916,8652 9037,8720 9158,8568 9279,8495 9399,8620 9520,8627 9641,8657 9762,8592 9882,8479 10003,8439 10124,8340 10245,8274 10365,8369 10486,8176 10607,7998 10727,7895 10848,8005 10969,7955 11090,7864 11209,7837 11330,7701 11451,7477 11572,7420 11692,7381 11813,7080 11934,7150 12055,7046 12175,6967 12296,6796 12417,6663 12538,6550 12658,6456 12779,6361 12900,6096 13020,5959 13141,5607 13262,5357 13383,4639 13503,4713 13624,4516 13745,4214 13866,4095 13986,4132 14107,4043 14228,4064 14348,3976 14468,3822 14589,3951 14710,3877 14831,3743"/>
 <path fill="none" stroke="rgb(0,69,134)" stroke-width="80" stroke-linejoin="round" d="M 1072,1208 L 1192,1287 1313,1356 1434,1408 1554,1455 1674,1429 1795,1628 1916,1695 2036,1679 2157,1723 2278,1836 2399,1899 2519,2140 2640,2271 2761,2365 2882,2422 3002,2512 3123,2593 3244,2555 3365,2533 3485,2613 3606,2699 3727,2847 3847,2970 3968,3092 4089,3203 4210,3264 4330,3340 4451,3448 4572,3530 4693,3561 4812,3486 4933,3438 5054,3485 5175,3574 5295,3623 5416,3711 5537,3870 5658,3998 5778,3906 5899,4008 6020,4104 6140,4202 6261,4270 6382,4385 6503,4519 6623,4587 6744,4760 6865,4834 6986,4976 7106,4927 7227,4853 7348,4748 7469,4717 7589,4756 7710,4790 7831,4857 7951,4888 8071,4875 8192,4893 8313,4830 8433,4856 8554,4884 8675,4908 8796,4906 8916,4757 9037,4762 9158,4753 9279,4771 9399,4748 9520,4577 9641,4607 9762,4652 9882,4715 10003,4805 10124,4899 10245,4827 10365,4901 10486,4962 10607,4900 10727,4984 10848,4877 10969,4808 11090,4856 11209,4867 11330,4799 11451,5136 11572,5078 11692,5166 11813,5479 11934,5320 12055,5480 12175,5585 12296,5626 12417,5882 12538,5991 12658,5949 12779,6183 12900,6455 13020,6643 13141,6916 13262,7149 13383,7411 13503,7389 13624,7572 13745,7805 13866,8108 13986,8195 14107,8342 14228,8462 14348,8545 14468,8622 14589,8755 14710,8749 14831,8623"/>
 <path fill="none" stroke="rgb(87,157,28)" stroke-width="80" stroke-linejoin="round" d="M 1072,10313 L 1192,10295 1313,10276 1434,10275 1554,10268 1674,10284 1795,10248 1916,10261 2036,10275 2157,10268 2278,10255 2399,10249 2519,10225 2640,10187 2761,10161 2882,10182 3002,10159 3123,10174 3244,10154 3365,10142 3485,10114 3606,10113 3727,10091 3847,10076 3968,10082 4089,10071 4210,10065 4330,10069 4451,10045 4572,10037 4693,10038 4812,10023 4933,10003 5054,9991 5175,9986 5295,9978 5416,9951 5537,9913 5658,9864 5778,9859 5899,9829 6020,9767 6140,9753 6261,9737 6382,9669 6503,9694 6623,9646 6744,9585 6865,9610 6986,9570 7106,9498 7227,9497 7348,9537 7469,9519 7589,9514 7710,9449 7831,9441 7951,9326 8071,9353 8192,9332 8313,9292 8433,9276 8554,9198 8675,9197 8796,9194 8916,9277 9037,9248 9158,9252 9279,9190 9399,9164 9520,9288 9641,9196 9762,9139 9882,9148 10003,9046 10124,9018 10245,9069 10365,9009 10486,9026 10607,9166 10727,9176 10848,9151 10969,9287 11090,9226 11209,9097 11330,9274 11451,9124 11572,9222 11692,9213 11813,9125 11934,9272 12055,9172 12175,9102 12296,9180 12417,9093 12538,9009 12658,9309 12779,9211 12900,9209 13020,9210 13141,9144 13262,9236 13383,9432 13503,9373 13624,9355 13745,9378 13866,9370 13986,9458 14107,9451 14228,9290 14348,9205 14468,9259 14589,8960 14710,9062 14831,9375"/>
 <path fill="none" stroke="rgb(255,66,14)" stroke-width="80" stroke-linejoin="round" d="M 1072,8754 L 1192,8661 1313,8625 1434,8580 1554,8545 1674,8559 1795,8421 1916,8348 2036,8347 2157,8314 2278,8330 2399,8270 2519,8078 2640,8024 2761,7975 2882,7919 3002,7834 3123,7771 3244,7899 3365,7942 3485,7932 3606,7868 3727,7777 3847,7739 3968,7665 4089,7674 4210,7696 4330,7722 4451,7684 4572,7677 4693,7711 4812,7785 4933,7892 5054,7888 5175,7889 5295,7908 5416,7907 5537,7903 5658,7910 5778,8028 5899,8022 6020,8042 6140,8041 6261,8035 6382,8060 6503,8110 6623,8111 6744,8094 6865,8165 6986,8229 7106,8355 7227,8313 7348,8349 7469,8395 7589,8446 7710,8426 7831,8454 7951,8458 8071,8449 8192,8490 8313,8449 8433,8522 8554,8531 8675,8548 8796,8542 8916,8482 9037,8468 9158,8649 9279,8745 9399,8731 9520,8727 9641,8740 9762,8783 9882,8800 10003,8882 10124,8949 10245,8976 10365,9014 10486,9066 10607,9206 10727,9261 10848,9228 10969,9342 11090,9405 11209,9412 11330,9547 11451,9567 11572,9577 11692,9565 11813,9629 11934,9580 12055,9557 12175,9600 12296,9609 12417,9685 12538,9703 12658,9629 12779,9662 12900,9755 13020,9733 13141,9867 13262,9968 13383,10027 13503,10056 13624,10043 13745,10056 13866,9978 13986,9782 14107,9748 14228,9726 14348,9739 14468,9777 14589,9835 14710,9811 14831,9766"/>
 <path fill="none" stroke="rgb(126,0,33)" stroke-width="80" stroke-linejoin="round" d="M 1072,10345 L 1192,10380 1313,10354 1434,10346 1554,10346 1674,10348 1795,10331 1916,10315 2036,10317 2157,10312 2278,10325 2399,10312 2519,10304 2640,10301 2761,10297 2882,10302 3002,10311 3123,10317 3244,10315 3365,10327 3485,10328 3606,10320 3727,10302 3847,10299 3968,10267 4089,10246 4210,10243 4330,10240 4451,10221 4572,10228 4693,10221 4812,10247 4933,10215 5054,10210 5175,10196 5295,10217 5416,10223 5537,10213 5658,10222 5778,10214 5899,10221 6020,10217 6140,10228 6261,10253 6382,10272 6503,10252 6623,10266 6744,10326 6865,10263 6986,10215 7106,10209 7227,10274 7348,10300 7469,10311 7589,10306 7710,10313 7831,10335 7951,10331 8071,10318 8192,10319 8313,10327 8433,10272 8554,10269 8675,10204 8796,10293 8916,10284 9037,10270 9158,10285 9279,10307 9399,10303 9520,10342 9641,10365 9762,10389 9882,10404 10003,10397 10124,10399 10245,10426 10365,10340 10486,10355 10607,10357 10727,10335 10848,10343 10969,10389 11090,10378 11209,10363 11330,10346 11451,10352 11572,10344 11692,10337 11813,10355 11934,10315 12055,10331 12175,10358 12296,10379 12417,10365 12538,10369 12658,10367 12779,10328 12900,10275 13020,10260 13141,10293 13262,10286 13383,10355 13503,10318 13624,10359 13745,10352 13866,10340 13986,10374 14107,10375 14228,10365 14348,10408 14468,10406 14589,10393 14710,10418 14831,10373"/>
 <path fill="none" stroke="rgb(131,202,255)" stroke-width="80" stroke-linejoin="round" d="M 1072,10514 L 1192,10510 1313,10522 1434,10524 1554,10519 1674,10514 1795,10505 1916,10514 2036,10516 2157,10517 2278,10517 2399,10521 2519,10519 2640,10515 2761,10516 2882,10490 3002,10508 3123,10490 3244,10465 3365,10470 3485,10449 3606,10466 3727,10488 3847,10469 3968,10489 4089,10479 4210,10472 4330,10423 4451,10455 4572,10452 4693,10422 4812,10438 4933,10424 5054,10435 5175,10423 5295,10391 5416,10422 5537,10400 5658,10389 5778,10406 5899,10404 6020,10387 6140,10365 6261,10357 6382,10288 6503,10365 6623,10406 6744,10430 6865,10353 6986,10332 7106,10308 7227,10348 7348,10305 7469,10344 7589,10369 7710,10366 7831,10197 7951,10353 8071,10319 8192,10311 8313,10298 8433,10291 8554,10272 8675,10217 8796,10118 8916,10267 9037,10251 9158,10213 9279,10210 9399,10152 9520,10158 9641,10155 9762,10165 9882,10173 10003,10151 10124,10114 10245,10147 10365,10086 10486,10135 10607,10092 10727,10069 10848,10115 10969,9936 11090,9989 11209,10144 11330,10053 11451,10063 11572,10079 11692,10057 11813,10051 11934,10083 12055,10133 12175,10107 12296,10129 12417,10031 12538,10095 12658,10010 12779,9974 12900,9929 13020,9914 13141,9892 13262,9723 13383,9856 13503,9869 13624,9876 13745,9913 13866,9827 13986,9778 14107,9760 14228,9811 14348,9846 14468,9832 14589,9824 14710,9802 14831,9838"/>
 <text class="TextShape"><tspan class="TextParagraph" font-family="Liberation Sans, sans-serif" font-size="388px" font-weight="700"><tspan class="TextPosition" x="889" y="11180"><tspan fill="rgb(0,0,0)" stroke="none">2008</tspan></tspan></tspan></text>
 <text class="TextShape"><tspan class="TextParagraph" font-family="Liberation Sans, sans-serif" font-size="388px" font-weight="700"><tspan class="TextPosition" x="2338" y="11180"><tspan fill="rgb(0,0,0)" stroke="none">2009</tspan></tspan></tspan></text>
 <text class="TextShape"><tspan class="TextParagraph" font-family="Liberation Sans, sans-serif" font-size="388px" font-weight="700"><tspan class="TextPosition" x="3786" y="11180"><tspan fill="rgb(0,0,0)" stroke="none">2010</tspan></tspan></tspan></text>
 <text class="TextShape"><tspan class="TextParagraph" font-family="Liberation Sans, sans-serif" font-size="388px" font-weight="700"><tspan class="TextPosition" x="5235" y="11180"><tspan fill="rgb(0,0,0)" stroke="none">2011</tspan></tspan></tspan></text>
 <text class="TextShape"><tspan class="TextParagraph" font-family="Liberation Sans, sans-serif" font-size="388px" font-weight="700"><tspan class="TextPosition" x="6682" y="11180"><tspan fill="rgb(0,0,0)" stroke="none">2012</tspan></tspan></tspan></text>
 <text class="TextShape"><tspan class="TextParagraph" font-family="Liberation Sans, sans-serif" font-size="388px" font-weight="700"><tspan class="TextPosition" x="8131" y="11180"><tspan fill="rgb(0,0,0)" stroke="none">2013</tspan></tspan></tspan></text>
 <text class="TextShape"><tspan class="TextParagraph" font-family="Liberation Sans, sans-serif" font-size="388px" font-weight="700"><tspan class="TextPosition" x="9579" y="11180"><tspan fill="rgb(0,0,0)" stroke="none">2014</tspan></tspan></tspan></text>
 <text class="TextShape"><tspan class="TextParagraph" font-family="Liberation Sans, sans-serif" font-size="388px" font-weight="700"><tspan class="TextPosition" x="11028" y="11180"><tspan fill="rgb(0,0,0)" stroke="none">2015</tspan></tspan></tspan></text>
 <text class="TextShape"><tspan class="TextParagraph" font-family="Liberation Sans, sans-serif" font-size="388px" font-weight="700"><tspan class="TextPosition" x="12477" y="11180"><tspan fill="rgb(0,0,0)" stroke="none">2016</tspan></tspan></tspan></text>
 <text class="TextShape"><tspan class="TextParagraph" font-family="Liberation Sans, sans-serif" font-size="388px" font-weight="700"><tspan class="TextPosition" x="13925" y="11180"><tspan fill="rgb(0,0,0)" stroke="none">2017</tspan></tspan></tspan></text>
 <text class="TextShape"><tspan class="TextParagraph" font-family="Liberation Sans, sans-serif" font-size="388px" font-weight="700"><tspan class="TextPosition" x="266" y="10720"><tspan fill="rgb(0,0,0)" stroke="none">0%</tspan></tspan></tspan></text>
 <text class="TextShape"><tspan class="TextParagraph" font-family="Liberation Sans, sans-serif" font-size="388px" font-weight="700"><tspan class="TextPosition" x="55" y="9540"><tspan fill="rgb(0,0,0)" stroke="none">10%</tspan></tspan></tspan></text>
 <text class="TextShape"><tspan class="TextParagraph" font-family="Liberation Sans, sans-serif" font-size="388px" font-weight="700"><tspan class="TextPosition" x="55" y="8361"><tspan fill="rgb(0,0,0)" stroke="none">20%</tspan></tspan></tspan></text>
 <text class="TextShape"><tspan class="TextParagraph" font-family="Liberation Sans, sans-serif" font-size="388px" font-weight="700"><tspan class="TextPosition" x="55" y="7181"><tspan fill="rgb(0,0,0)" stroke="none">30%</tspan></tspan></tspan></text>
 <text class="TextShape"><tspan class="TextParagraph" font-family="Liberation Sans, sans-serif" font-size="388px" font-weight="700"><tspan class="TextPosition" x="55" y="6002"><tspan fill="rgb(0,0,0)" stroke="none">40%</tspan></tspan></tspan></text>
 <text class="TextShape"><tspan class="TextParagraph" font-family="Liberation Sans, sans-serif" font-size="388px" font-weight="700"><tspan class="TextPosition" x="55" y="4822"><tspan fill="rgb(0,0,0)" stroke="none">50%</tspan></tspan></tspan></text>
 <text class="TextShape"><tspan class="TextParagraph" font-family="Liberation Sans, sans-serif" font-size="388px" font-weight="700"><tspan class="TextPosition" x="55" y="3642"><tspan fill="rgb(0,0,0)" stroke="none">60%</tspan></tspan></tspan></text>
 <text class="TextShape"><tspan class="TextParagraph" font-family="Liberation Sans, sans-serif" font-size="388px" font-weight="700"><tspan class="TextPosition" x="55" y="2463"><tspan fill="rgb(0,0,0)" stroke="none">70%</tspan></tspan></tspan></text>
 <text class="TextShape"><tspan class="TextParagraph" font-family="Liberation Sans, sans-serif" font-size="388px" font-weight="700"><tspan class="TextPosition" x="55" y="1284"><tspan fill="rgb(0,0,0)" stroke="none">80%</tspan></tspan></tspan></text>
 <text class="TextShape"><tspan class="TextParagraph" font-family="Liberation Sans, sans-serif" font-size="388px" font-weight="700"><tspan class="TextPosition" x="15081" y="10720"><tspan fill="rgb(0,0,0)" stroke="none">0%</tspan></tspan></tspan></text>
 <text class="TextShape"><tspan class="TextParagraph" font-family="Liberation Sans, sans-serif" font-size="388px" font-weight="700"><tspan class="TextPosition" x="15081" y="9540"><tspan fill="rgb(0,0,0)" stroke="none">10%</tspan></tspan></tspan></text>
 <text class="TextShape"><tspan class="TextParagraph" font-family="Liberation Sans, sans-serif" font-size="388px" font-weight="700"><tspan class="TextPosition" x="15081" y="8361"><tspan fill="rgb(0,0,0)" stroke="none">20%</tspan></tspan></tspan></text>
 <text class="TextShape"><tspan class="TextParagraph" font-family="Liberation Sans, sans-serif" font-size="388px" font-weight="700"><tspan class="TextPosition" x="15081" y="7181"><tspan fill="rgb(0,0,0)" stroke="none">30%</tspan></tspan></tspan></text>
 <text class="TextShape"><tspan class="TextParagraph" font-family="Liberation Sans, sans-serif" font-size="388px" font-weight="700"><tspan class="TextPosition" x="15081" y="6002"><tspan fill="rgb(0,0,0)" stroke="none">40%</tspan></tspan></tspan></text>
 <text class="TextShape"><tspan class="TextParagraph" font-family="Liberation Sans, sans-serif" font-size="388px" font-weight="700"><tspan class="TextPosition" x="15081" y="4822"><tspan fill="rgb(0,0,0)" stroke="none">50%</tspan></tspan></tspan></text>
 <text class="TextShape"><tspan class="TextParagraph" font-family="Liberation Sans, sans-serif" font-size="388px" font-weight="700"><tspan class="TextPosition" x="15081" y="3642"><tspan fill="rgb(0,0,0)" stroke="none">60%</tspan></tspan></tspan></text>
 <text class="TextShape"><tspan class="TextParagraph" font-family="Liberation Sans, sans-serif" font-size="388px" font-weight="700"><tspan class="TextPosition" x="15081" y="2463"><tspan fill="rgb(0,0,0)" stroke="none">70%</tspan></tspan></tspan></text>
 <text class="TextShape"><tspan class="TextParagraph" font-family="Liberation Sans, sans-serif" font-size="388px" font-weight="700"><tspan class="TextPosition" x="15081" y="1284"><tspan fill="rgb(0,0,0)" stroke="none">80%</tspan></tspan></tspan></text>
 <text class="TextShape"><tspan class="TextParagraph" font-family="Arial, sans-serif" font-size="635px" font-weight="400"><tspan class="TextPosition" x="3955" y="775"><tspan fill="rgb(0,0,0)" stroke="none">Utilización de navegadores</tspan></tspan></tspan></text>
 <path fill="none" stroke="rgb(255,211,32)" stroke-width="80" stroke-linejoin="round" d="M 1783,11583 L 2583,11583"/>
 <path fill="none" stroke="rgb(0,69,134)" stroke-width="80" stroke-linejoin="round" d="M 4233,11583 L 5032,11583"/>
 <path fill="none" stroke="rgb(87,157,28)" stroke-width="80" stroke-linejoin="round" d="M 5730,11583 L 6530,11583"/>
 <path fill="none" stroke="rgb(255,66,14)" stroke-width="80" stroke-linejoin="round" d="M 7837,11583 L 8636,11583"/>
 <path fill="none" stroke="rgb(126,0,33)" stroke-width="80" stroke-linejoin="round" d="M 10128,11583 L 10928,11583"/>
 <path fill="none" stroke="rgb(131,202,255)" stroke-width="80" stroke-linejoin="round" d="M 12260,11583 L 13060,11583"/>
 <text class="TextShape"><tspan class="TextParagraph" font-family="Arial, sans-serif" font-size="353px" font-weight="700"><tspan class="TextPosition" x="2683" y="11702"><tspan fill="rgb(0,0,0)" stroke="none">Chrome</tspan></tspan></tspan></text>
 <text class="TextShape"><tspan class="TextParagraph" font-family="Arial, sans-serif" font-size="353px" font-weight="700"><tspan class="TextPosition" x="5132" y="11702"><tspan fill="rgb(0,0,0)" stroke="none">IE</tspan></tspan></tspan></text>
 <text class="TextShape"><tspan class="TextParagraph" font-family="Arial, sans-serif" font-size="353px" font-weight="700"><tspan class="TextPosition" x="6630" y="11702"><tspan fill="rgb(0,0,0)" stroke="none">Safari</tspan></tspan></tspan></text>
 <text class="TextShape"><tspan class="TextParagraph" font-family="Arial, sans-serif" font-size="353px" font-weight="700"><tspan class="TextPosition" x="8736" y="11702"><tspan fill="rgb(0,0,0)" stroke="none">Firefox</tspan></tspan></tspan></text>
 <text class="TextShape"><tspan class="TextParagraph" font-family="Arial, sans-serif" font-size="353px" font-weight="700"><tspan class="TextPosition" x="11028" y="11702"><tspan fill="rgb(0,0,0)" stroke="none">Opera</tspan></tspan></tspan></text>
 <text class="TextShape"><tspan class="TextParagraph" font-family="Arial, sans-serif" font-size="353px" font-weight="700"><tspan class="TextPosition" x="13160" y="11702"><tspan fill="rgb(0,0,0)" stroke="none">Otros</tspan></tspan></tspan></text>
</svg>
