<?xml version="1.0" encoding="UTF-8"?>
<!DOCTYPE svg PUBLIC "-//W3C//DTD SVG 1.1//EN" "http://www.w3.org/Graphics/SVG/1.1/DTD/svg11.dtd">
<svg width="164mm" height="122mm" viewBox="0 0 16400 12200" version="1.1" xmlns="http://www.w3.org/2000/svg" stroke-width="28.222" stroke-linejoin="round" xml:space="preserve">
 <path fill="rgb(255,255,255)" stroke="none" d="M 8187,12235 L 12,12235 12,0 16362,0 16362,12235 8187,12235 Z"/>
 <path fill="none" stroke="rgb(179,179,179)" stroke-linejoin="round" d="M 8164,10292 L 1307,10292 1307,952 15021,952 15021,10292 8164,10292 Z"/>
 <path fill="none" stroke="rgb(0,0,0)" stroke-width="20" stroke-linejoin="round" d="M 15020,10291 L 1307,10291"/>
 <path fill="none" stroke="rgb(0,0,0)" stroke-width="20" stroke-linejoin="round" d="M 15020,9356 L 1307,9356"/>
 <path fill="none" stroke="rgb(0,0,0)" stroke-width="20" stroke-linejoin="round" d="M 15020,8422 L 1307,8422"/>
 <path fill="none" stroke="rgb(0,0,0)" stroke-width="20" stroke-linejoin="round" d="M 15020,7488 L 1307,7488"/>
 <path fill="none" stroke="rgb(0,0,0)" stroke-width="20" stroke-linejoin="round" d="M 15020,6554 L 1307,6554"/>
 <path fill="none" stroke="rgb(0,0,0)" stroke-width="20" stroke-linejoin="round" d="M 15020,5621 L 1307,5621"/>
 <path fill="none" stroke="rgb(0,0,0)" stroke-width="20" stroke-linejoin="round" d="M 15020,4687 L 1307,4687"/>
 <path fill="none" stroke="rgb(0,0,0)" stroke-width="20" stroke-linejoin="round" d="M 15020,3753 L 1307,3753"/>
 <path fill="none" stroke="rgb(0,0,0)" stroke-width="20" stroke-linejoin="round" d="M 15020,2819 L 1307,2819"/>
 <path fill="none" stroke="rgb(0,0,0)" stroke-width="20" stroke-linejoin="round" d="M 15020,1885 L 1307,1885"/>
 <path fill="none" stroke="rgb(0,0,0)" stroke-width="20" stroke-linejoin="round" d="M 15020,951 L 1307,951"/>
 <path fill="none" stroke="rgb(0,0,0)" stroke-width="30" stroke-linejoin="round" d="M 1307,10441 L 1307,10291"/>
 <path fill="none" stroke="rgb(0,0,0)" stroke-width="30" stroke-linejoin="round" d="M 1307,10441 L 1307,10291"/>
 <path fill="none" stroke="rgb(0,0,0)" stroke-width="30" stroke-linejoin="round" d="M 1424,10441 L 1424,10291"/>
 <path fill="none" stroke="rgb(0,0,0)" stroke-width="30" stroke-linejoin="round" d="M 1424,10441 L 1424,10291"/>
 <path fill="none" stroke="rgb(0,0,0)" stroke-width="30" stroke-linejoin="round" d="M 1541,10441 L 1541,10291"/>
 <path fill="none" stroke="rgb(0,0,0)" stroke-width="30" stroke-linejoin="round" d="M 1541,10441 L 1541,10291"/>
 <path fill="none" stroke="rgb(0,0,0)" stroke-width="30" stroke-linejoin="round" d="M 1658,10441 L 1658,10291"/>
 <path fill="none" stroke="rgb(0,0,0)" stroke-width="30" stroke-linejoin="round" d="M 1658,10441 L 1658,10291"/>
 <path fill="none" stroke="rgb(0,0,0)" stroke-width="30" stroke-linejoin="round" d="M 1775,10441 L 1775,10291"/>
 <path fill="none" stroke="rgb(0,0,0)" stroke-width="30" stroke-linejoin="round" d="M 1775,10441 L 1775,10291"/>
 <path fill="none" stroke="rgb(0,0,0)" stroke-width="30" stroke-linejoin="round" d="M 1893,10441 L 1893,10291"/>
 <path fill="none" stroke="rgb(0,0,0)" stroke-width="30" stroke-linejoin="round" d="M 1893,10441 L 1893,10291"/>
 <path fill="none" stroke="rgb(0,0,0)" stroke-width="30" stroke-linejoin="round" d="M 2010,10441 L 2010,10291"/>
 <path fill="none" stroke="rgb(0,0,0)" stroke-width="30" stroke-linejoin="round" d="M 2010,10441 L 2010,10291"/>
 <path fill="none" stroke="rgb(0,0,0)" stroke-width="30" stroke-linejoin="round" d="M 2127,10441 L 2127,10291"/>
 <path fill="none" stroke="rgb(0,0,0)" stroke-width="30" stroke-linejoin="round" d="M 2127,10441 L 2127,10291"/>
 <path fill="none" stroke="rgb(0,0,0)" stroke-width="30" stroke-linejoin="round" d="M 2244,10441 L 2244,10291"/>
 <path fill="none" stroke="rgb(0,0,0)" stroke-width="30" stroke-linejoin="round" d="M 2244,10441 L 2244,10291"/>
 <path fill="none" stroke="rgb(0,0,0)" stroke-width="30" stroke-linejoin="round" d="M 2362,10441 L 2362,10291"/>
 <path fill="none" stroke="rgb(0,0,0)" stroke-width="30" stroke-linejoin="round" d="M 2362,10441 L 2362,10291"/>
 <path fill="none" stroke="rgb(0,0,0)" stroke-width="30" stroke-linejoin="round" d="M 2479,10441 L 2479,10291"/>
 <path fill="none" stroke="rgb(0,0,0)" stroke-width="30" stroke-linejoin="round" d="M 2479,10441 L 2479,10291"/>
 <path fill="none" stroke="rgb(0,0,0)" stroke-width="30" stroke-linejoin="round" d="M 2596,10441 L 2596,10291"/>
 <path fill="none" stroke="rgb(0,0,0)" stroke-width="30" stroke-linejoin="round" d="M 2596,10441 L 2596,10291"/>
 <path fill="none" stroke="rgb(0,0,0)" stroke-width="30" stroke-linejoin="round" d="M 2713,10441 L 2713,10291"/>
 <path fill="none" stroke="rgb(0,0,0)" stroke-width="30" stroke-linejoin="round" d="M 2713,10441 L 2713,10291"/>
 <path fill="none" stroke="rgb(0,0,0)" stroke-width="30" stroke-linejoin="round" d="M 2830,10441 L 2830,10291"/>
 <path fill="none" stroke="rgb(0,0,0)" stroke-width="30" stroke-linejoin="round" d="M 2830,10441 L 2830,10291"/>
 <path fill="none" stroke="rgb(0,0,0)" stroke-width="30" stroke-linejoin="round" d="M 2948,10441 L 2948,10291"/>
 <path fill="none" stroke="rgb(0,0,0)" stroke-width="30" stroke-linejoin="round" d="M 2948,10441 L 2948,10291"/>
 <path fill="none" stroke="rgb(0,0,0)" stroke-width="30" stroke-linejoin="round" d="M 3065,10441 L 3065,10291"/>
 <path fill="none" stroke="rgb(0,0,0)" stroke-width="30" stroke-linejoin="round" d="M 3065,10441 L 3065,10291"/>
 <path fill="none" stroke="rgb(0,0,0)" stroke-width="30" stroke-linejoin="round" d="M 3182,10441 L 3182,10291"/>
 <path fill="none" stroke="rgb(0,0,0)" stroke-width="30" stroke-linejoin="round" d="M 3182,10441 L 3182,10291"/>
 <path fill="none" stroke="rgb(0,0,0)" stroke-width="30" stroke-linejoin="round" d="M 3299,10441 L 3299,10291"/>
 <path fill="none" stroke="rgb(0,0,0)" stroke-width="30" stroke-linejoin="round" d="M 3299,10441 L 3299,10291"/>
 <path fill="none" stroke="rgb(0,0,0)" stroke-width="30" stroke-linejoin="round" d="M 3417,10441 L 3417,10291"/>
 <path fill="none" stroke="rgb(0,0,0)" stroke-width="30" stroke-linejoin="round" d="M 3417,10441 L 3417,10291"/>
 <path fill="none" stroke="rgb(0,0,0)" stroke-width="30" stroke-linejoin="round" d="M 3534,10441 L 3534,10291"/>
 <path fill="none" stroke="rgb(0,0,0)" stroke-width="30" stroke-linejoin="round" d="M 3534,10441 L 3534,10291"/>
 <path fill="none" stroke="rgb(0,0,0)" stroke-width="30" stroke-linejoin="round" d="M 3651,10441 L 3651,10291"/>
 <path fill="none" stroke="rgb(0,0,0)" stroke-width="30" stroke-linejoin="round" d="M 3651,10441 L 3651,10291"/>
 <path fill="none" stroke="rgb(0,0,0)" stroke-width="30" stroke-linejoin="round" d="M 3768,10441 L 3768,10291"/>
 <path fill="none" stroke="rgb(0,0,0)" stroke-width="30" stroke-linejoin="round" d="M 3768,10441 L 3768,10291"/>
 <path fill="none" stroke="rgb(0,0,0)" stroke-width="30" stroke-linejoin="round" d="M 3885,10441 L 3885,10291"/>
 <path fill="none" stroke="rgb(0,0,0)" stroke-width="30" stroke-linejoin="round" d="M 3885,10441 L 3885,10291"/>
 <path fill="none" stroke="rgb(0,0,0)" stroke-width="30" stroke-linejoin="round" d="M 4003,10441 L 4003,10291"/>
 <path fill="none" stroke="rgb(0,0,0)" stroke-width="30" stroke-linejoin="round" d="M 4003,10441 L 4003,10291"/>
 <path fill="none" stroke="rgb(0,0,0)" stroke-width="30" stroke-linejoin="round" d="M 4120,10441 L 4120,10291"/>
 <path fill="none" stroke="rgb(0,0,0)" stroke-width="30" stroke-linejoin="round" d="M 4120,10441 L 4120,10291"/>
 <path fill="none" stroke="rgb(0,0,0)" stroke-width="30" stroke-linejoin="round" d="M 4237,10441 L 4237,10291"/>
 <path fill="none" stroke="rgb(0,0,0)" stroke-width="30" stroke-linejoin="round" d="M 4237,10441 L 4237,10291"/>
 <path fill="none" stroke="rgb(0,0,0)" stroke-width="30" stroke-linejoin="round" d="M 4354,10441 L 4354,10291"/>
 <path fill="none" stroke="rgb(0,0,0)" stroke-width="30" stroke-linejoin="round" d="M 4354,10441 L 4354,10291"/>
 <path fill="none" stroke="rgb(0,0,0)" stroke-width="30" stroke-linejoin="round" d="M 4472,10441 L 4472,10291"/>
 <path fill="none" stroke="rgb(0,0,0)" stroke-width="30" stroke-linejoin="round" d="M 4472,10441 L 4472,10291"/>
 <path fill="none" stroke="rgb(0,0,0)" stroke-width="30" stroke-linejoin="round" d="M 4589,10441 L 4589,10291"/>
 <path fill="none" stroke="rgb(0,0,0)" stroke-width="30" stroke-linejoin="round" d="M 4589,10441 L 4589,10291"/>
 <path fill="none" stroke="rgb(0,0,0)" stroke-width="30" stroke-linejoin="round" d="M 4706,10441 L 4706,10291"/>
 <path fill="none" stroke="rgb(0,0,0)" stroke-width="30" stroke-linejoin="round" d="M 4706,10441 L 4706,10291"/>
 <path fill="none" stroke="rgb(0,0,0)" stroke-width="30" stroke-linejoin="round" d="M 4823,10441 L 4823,10291"/>
 <path fill="none" stroke="rgb(0,0,0)" stroke-width="30" stroke-linejoin="round" d="M 4823,10441 L 4823,10291"/>
 <path fill="none" stroke="rgb(0,0,0)" stroke-width="30" stroke-linejoin="round" d="M 4940,10441 L 4940,10291"/>
 <path fill="none" stroke="rgb(0,0,0)" stroke-width="30" stroke-linejoin="round" d="M 4940,10441 L 4940,10291"/>
 <path fill="none" stroke="rgb(0,0,0)" stroke-width="30" stroke-linejoin="round" d="M 5058,10441 L 5058,10291"/>
 <path fill="none" stroke="rgb(0,0,0)" stroke-width="30" stroke-linejoin="round" d="M 5058,10441 L 5058,10291"/>
 <path fill="none" stroke="rgb(0,0,0)" stroke-width="30" stroke-linejoin="round" d="M 5175,10441 L 5175,10291"/>
 <path fill="none" stroke="rgb(0,0,0)" stroke-width="30" stroke-linejoin="round" d="M 5175,10441 L 5175,10291"/>
 <path fill="none" stroke="rgb(0,0,0)" stroke-width="30" stroke-linejoin="round" d="M 5292,10441 L 5292,10291"/>
 <path fill="none" stroke="rgb(0,0,0)" stroke-width="30" stroke-linejoin="round" d="M 5292,10441 L 5292,10291"/>
 <path fill="none" stroke="rgb(0,0,0)" stroke-width="30" stroke-linejoin="round" d="M 5409,10441 L 5409,10291"/>
 <path fill="none" stroke="rgb(0,0,0)" stroke-width="30" stroke-linejoin="round" d="M 5409,10441 L 5409,10291"/>
 <path fill="none" stroke="rgb(0,0,0)" stroke-width="30" stroke-linejoin="round" d="M 5527,10441 L 5527,10291"/>
 <path fill="none" stroke="rgb(0,0,0)" stroke-width="30" stroke-linejoin="round" d="M 5527,10441 L 5527,10291"/>
 <path fill="none" stroke="rgb(0,0,0)" stroke-width="30" stroke-linejoin="round" d="M 5644,10441 L 5644,10291"/>
 <path fill="none" stroke="rgb(0,0,0)" stroke-width="30" stroke-linejoin="round" d="M 5644,10441 L 5644,10291"/>
 <path fill="none" stroke="rgb(0,0,0)" stroke-width="30" stroke-linejoin="round" d="M 5761,10441 L 5761,10291"/>
 <path fill="none" stroke="rgb(0,0,0)" stroke-width="30" stroke-linejoin="round" d="M 5761,10441 L 5761,10291"/>
 <path fill="none" stroke="rgb(0,0,0)" stroke-width="30" stroke-linejoin="round" d="M 5878,10441 L 5878,10291"/>
 <path fill="none" stroke="rgb(0,0,0)" stroke-width="30" stroke-linejoin="round" d="M 5878,10441 L 5878,10291"/>
 <path fill="none" stroke="rgb(0,0,0)" stroke-width="30" stroke-linejoin="round" d="M 5995,10441 L 5995,10291"/>
 <path fill="none" stroke="rgb(0,0,0)" stroke-width="30" stroke-linejoin="round" d="M 5995,10441 L 5995,10291"/>
 <path fill="none" stroke="rgb(0,0,0)" stroke-width="30" stroke-linejoin="round" d="M 6113,10441 L 6113,10291"/>
 <path fill="none" stroke="rgb(0,0,0)" stroke-width="30" stroke-linejoin="round" d="M 6113,10441 L 6113,10291"/>
 <path fill="none" stroke="rgb(0,0,0)" stroke-width="30" stroke-linejoin="round" d="M 6230,10441 L 6230,10291"/>
 <path fill="none" stroke="rgb(0,0,0)" stroke-width="30" stroke-linejoin="round" d="M 6230,10441 L 6230,10291"/>
 <path fill="none" stroke="rgb(0,0,0)" stroke-width="30" stroke-linejoin="round" d="M 6347,10441 L 6347,10291"/>
 <path fill="none" stroke="rgb(0,0,0)" stroke-width="30" stroke-linejoin="round" d="M 6347,10441 L 6347,10291"/>
 <path fill="none" stroke="rgb(0,0,0)" stroke-width="30" stroke-linejoin="round" d="M 6464,10441 L 6464,10291"/>
 <path fill="none" stroke="rgb(0,0,0)" stroke-width="30" stroke-linejoin="round" d="M 6464,10441 L 6464,10291"/>
 <path fill="none" stroke="rgb(0,0,0)" stroke-width="30" stroke-linejoin="round" d="M 6582,10441 L 6582,10291"/>
 <path fill="none" stroke="rgb(0,0,0)" stroke-width="30" stroke-linejoin="round" d="M 6582,10441 L 6582,10291"/>
 <path fill="none" stroke="rgb(0,0,0)" stroke-width="30" stroke-linejoin="round" d="M 6699,10441 L 6699,10291"/>
 <path fill="none" stroke="rgb(0,0,0)" stroke-width="30" stroke-linejoin="round" d="M 6699,10441 L 6699,10291"/>
 <path fill="none" stroke="rgb(0,0,0)" stroke-width="30" stroke-linejoin="round" d="M 6816,10441 L 6816,10291"/>
 <path fill="none" stroke="rgb(0,0,0)" stroke-width="30" stroke-linejoin="round" d="M 6816,10441 L 6816,10291"/>
 <path fill="none" stroke="rgb(0,0,0)" stroke-width="30" stroke-linejoin="round" d="M 6933,10441 L 6933,10291"/>
 <path fill="none" stroke="rgb(0,0,0)" stroke-width="30" stroke-linejoin="round" d="M 6933,10441 L 6933,10291"/>
 <path fill="none" stroke="rgb(0,0,0)" stroke-width="30" stroke-linejoin="round" d="M 7050,10441 L 7050,10291"/>
 <path fill="none" stroke="rgb(0,0,0)" stroke-width="30" stroke-linejoin="round" d="M 7050,10441 L 7050,10291"/>
 <path fill="none" stroke="rgb(0,0,0)" stroke-width="30" stroke-linejoin="round" d="M 7168,10441 L 7168,10291"/>
 <path fill="none" stroke="rgb(0,0,0)" stroke-width="30" stroke-linejoin="round" d="M 7168,10441 L 7168,10291"/>
 <path fill="none" stroke="rgb(0,0,0)" stroke-width="30" stroke-linejoin="round" d="M 7285,10441 L 7285,10291"/>
 <path fill="none" stroke="rgb(0,0,0)" stroke-width="30" stroke-linejoin="round" d="M 7285,10441 L 7285,10291"/>
 <path fill="none" stroke="rgb(0,0,0)" stroke-width="30" stroke-linejoin="round" d="M 7402,10441 L 7402,10291"/>
 <path fill="none" stroke="rgb(0,0,0)" stroke-width="30" stroke-linejoin="round" d="M 7402,10441 L 7402,10291"/>
 <path fill="none" stroke="rgb(0,0,0)" stroke-width="30" stroke-linejoin="round" d="M 7519,10441 L 7519,10291"/>
 <path fill="none" stroke="rgb(0,0,0)" stroke-width="30" stroke-linejoin="round" d="M 7519,10441 L 7519,10291"/>
 <path fill="none" stroke="rgb(0,0,0)" stroke-width="30" stroke-linejoin="round" d="M 7636,10441 L 7636,10291"/>
 <path fill="none" stroke="rgb(0,0,0)" stroke-width="30" stroke-linejoin="round" d="M 7636,10441 L 7636,10291"/>
 <path fill="none" stroke="rgb(0,0,0)" stroke-width="30" stroke-linejoin="round" d="M 7754,10441 L 7754,10291"/>
 <path fill="none" stroke="rgb(0,0,0)" stroke-width="30" stroke-linejoin="round" d="M 7754,10441 L 7754,10291"/>
 <path fill="none" stroke="rgb(0,0,0)" stroke-width="30" stroke-linejoin="round" d="M 7871,10441 L 7871,10291"/>
 <path fill="none" stroke="rgb(0,0,0)" stroke-width="30" stroke-linejoin="round" d="M 7871,10441 L 7871,10291"/>
 <path fill="none" stroke="rgb(0,0,0)" stroke-width="30" stroke-linejoin="round" d="M 7988,10441 L 7988,10291"/>
 <path fill="none" stroke="rgb(0,0,0)" stroke-width="30" stroke-linejoin="round" d="M 7988,10441 L 7988,10291"/>
 <path fill="none" stroke="rgb(0,0,0)" stroke-width="30" stroke-linejoin="round" d="M 8105,10441 L 8105,10291"/>
 <path fill="none" stroke="rgb(0,0,0)" stroke-width="30" stroke-linejoin="round" d="M 8105,10441 L 8105,10291"/>
 <path fill="none" stroke="rgb(0,0,0)" stroke-width="30" stroke-linejoin="round" d="M 8222,10441 L 8222,10291"/>
 <path fill="none" stroke="rgb(0,0,0)" stroke-width="30" stroke-linejoin="round" d="M 8222,10441 L 8222,10291"/>
 <path fill="none" stroke="rgb(0,0,0)" stroke-width="30" stroke-linejoin="round" d="M 8339,10441 L 8339,10291"/>
 <path fill="none" stroke="rgb(0,0,0)" stroke-width="30" stroke-linejoin="round" d="M 8339,10441 L 8339,10291"/>
 <path fill="none" stroke="rgb(0,0,0)" stroke-width="30" stroke-linejoin="round" d="M 8456,10441 L 8456,10291"/>
 <path fill="none" stroke="rgb(0,0,0)" stroke-width="30" stroke-linejoin="round" d="M 8456,10441 L 8456,10291"/>
 <path fill="none" stroke="rgb(0,0,0)" stroke-width="30" stroke-linejoin="round" d="M 8573,10441 L 8573,10291"/>
 <path fill="none" stroke="rgb(0,0,0)" stroke-width="30" stroke-linejoin="round" d="M 8573,10441 L 8573,10291"/>
 <path fill="none" stroke="rgb(0,0,0)" stroke-width="30" stroke-linejoin="round" d="M 8691,10441 L 8691,10291"/>
 <path fill="none" stroke="rgb(0,0,0)" stroke-width="30" stroke-linejoin="round" d="M 8691,10441 L 8691,10291"/>
 <path fill="none" stroke="rgb(0,0,0)" stroke-width="30" stroke-linejoin="round" d="M 8808,10441 L 8808,10291"/>
 <path fill="none" stroke="rgb(0,0,0)" stroke-width="30" stroke-linejoin="round" d="M 8808,10441 L 8808,10291"/>
 <path fill="none" stroke="rgb(0,0,0)" stroke-width="30" stroke-linejoin="round" d="M 8925,10441 L 8925,10291"/>
 <path fill="none" stroke="rgb(0,0,0)" stroke-width="30" stroke-linejoin="round" d="M 8925,10441 L 8925,10291"/>
 <path fill="none" stroke="rgb(0,0,0)" stroke-width="30" stroke-linejoin="round" d="M 9042,10441 L 9042,10291"/>
 <path fill="none" stroke="rgb(0,0,0)" stroke-width="30" stroke-linejoin="round" d="M 9042,10441 L 9042,10291"/>
 <path fill="none" stroke="rgb(0,0,0)" stroke-width="30" stroke-linejoin="round" d="M 9159,10441 L 9159,10291"/>
 <path fill="none" stroke="rgb(0,0,0)" stroke-width="30" stroke-linejoin="round" d="M 9159,10441 L 9159,10291"/>
 <path fill="none" stroke="rgb(0,0,0)" stroke-width="30" stroke-linejoin="round" d="M 9277,10441 L 9277,10291"/>
 <path fill="none" stroke="rgb(0,0,0)" stroke-width="30" stroke-linejoin="round" d="M 9277,10441 L 9277,10291"/>
 <path fill="none" stroke="rgb(0,0,0)" stroke-width="30" stroke-linejoin="round" d="M 9394,10441 L 9394,10291"/>
 <path fill="none" stroke="rgb(0,0,0)" stroke-width="30" stroke-linejoin="round" d="M 9394,10441 L 9394,10291"/>
 <path fill="none" stroke="rgb(0,0,0)" stroke-width="30" stroke-linejoin="round" d="M 9511,10441 L 9511,10291"/>
 <path fill="none" stroke="rgb(0,0,0)" stroke-width="30" stroke-linejoin="round" d="M 9511,10441 L 9511,10291"/>
 <path fill="none" stroke="rgb(0,0,0)" stroke-width="30" stroke-linejoin="round" d="M 9628,10441 L 9628,10291"/>
 <path fill="none" stroke="rgb(0,0,0)" stroke-width="30" stroke-linejoin="round" d="M 9628,10441 L 9628,10291"/>
 <path fill="none" stroke="rgb(0,0,0)" stroke-width="30" stroke-linejoin="round" d="M 9746,10441 L 9746,10291"/>
 <path fill="none" stroke="rgb(0,0,0)" stroke-width="30" stroke-linejoin="round" d="M 9746,10441 L 9746,10291"/>
 <path fill="none" stroke="rgb(0,0,0)" stroke-width="30" stroke-linejoin="round" d="M 9863,10441 L 9863,10291"/>
 <path fill="none" stroke="rgb(0,0,0)" stroke-width="30" stroke-linejoin="round" d="M 9863,10441 L 9863,10291"/>
 <path fill="none" stroke="rgb(0,0,0)" stroke-width="30" stroke-linejoin="round" d="M 9980,10441 L 9980,10291"/>
 <path fill="none" stroke="rgb(0,0,0)" stroke-width="30" stroke-linejoin="round" d="M 9980,10441 L 9980,10291"/>
 <path fill="none" stroke="rgb(0,0,0)" stroke-width="30" stroke-linejoin="round" d="M 10097,10441 L 10097,10291"/>
 <path fill="none" stroke="rgb(0,0,0)" stroke-width="30" stroke-linejoin="round" d="M 10097,10441 L 10097,10291"/>
 <path fill="none" stroke="rgb(0,0,0)" stroke-width="30" stroke-linejoin="round" d="M 10214,10441 L 10214,10291"/>
 <path fill="none" stroke="rgb(0,0,0)" stroke-width="30" stroke-linejoin="round" d="M 10214,10441 L 10214,10291"/>
 <path fill="none" stroke="rgb(0,0,0)" stroke-width="30" stroke-linejoin="round" d="M 10332,10441 L 10332,10291"/>
 <path fill="none" stroke="rgb(0,0,0)" stroke-width="30" stroke-linejoin="round" d="M 10332,10441 L 10332,10291"/>
 <path fill="none" stroke="rgb(0,0,0)" stroke-width="30" stroke-linejoin="round" d="M 10449,10441 L 10449,10291"/>
 <path fill="none" stroke="rgb(0,0,0)" stroke-width="30" stroke-linejoin="round" d="M 10449,10441 L 10449,10291"/>
 <path fill="none" stroke="rgb(0,0,0)" stroke-width="30" stroke-linejoin="round" d="M 10566,10441 L 10566,10291"/>
 <path fill="none" stroke="rgb(0,0,0)" stroke-width="30" stroke-linejoin="round" d="M 10566,10441 L 10566,10291"/>
 <path fill="none" stroke="rgb(0,0,0)" stroke-width="30" stroke-linejoin="round" d="M 10683,10441 L 10683,10291"/>
 <path fill="none" stroke="rgb(0,0,0)" stroke-width="30" stroke-linejoin="round" d="M 10683,10441 L 10683,10291"/>
 <path fill="none" stroke="rgb(0,0,0)" stroke-width="30" stroke-linejoin="round" d="M 10801,10441 L 10801,10291"/>
 <path fill="none" stroke="rgb(0,0,0)" stroke-width="30" stroke-linejoin="round" d="M 10801,10441 L 10801,10291"/>
 <path fill="none" stroke="rgb(0,0,0)" stroke-width="30" stroke-linejoin="round" d="M 10918,10441 L 10918,10291"/>
 <path fill="none" stroke="rgb(0,0,0)" stroke-width="30" stroke-linejoin="round" d="M 10918,10441 L 10918,10291"/>
 <path fill="none" stroke="rgb(0,0,0)" stroke-width="30" stroke-linejoin="round" d="M 11035,10441 L 11035,10291"/>
 <path fill="none" stroke="rgb(0,0,0)" stroke-width="30" stroke-linejoin="round" d="M 11035,10441 L 11035,10291"/>
 <path fill="none" stroke="rgb(0,0,0)" stroke-width="30" stroke-linejoin="round" d="M 11152,10441 L 11152,10291"/>
 <path fill="none" stroke="rgb(0,0,0)" stroke-width="30" stroke-linejoin="round" d="M 11152,10441 L 11152,10291"/>
 <path fill="none" stroke="rgb(0,0,0)" stroke-width="30" stroke-linejoin="round" d="M 11269,10441 L 11269,10291"/>
 <path fill="none" stroke="rgb(0,0,0)" stroke-width="30" stroke-linejoin="round" d="M 11269,10441 L 11269,10291"/>
 <path fill="none" stroke="rgb(0,0,0)" stroke-width="30" stroke-linejoin="round" d="M 11387,10441 L 11387,10291"/>
 <path fill="none" stroke="rgb(0,0,0)" stroke-width="30" stroke-linejoin="round" d="M 11387,10441 L 11387,10291"/>
 <path fill="none" stroke="rgb(0,0,0)" stroke-width="30" stroke-linejoin="round" d="M 11504,10441 L 11504,10291"/>
 <path fill="none" stroke="rgb(0,0,0)" stroke-width="30" stroke-linejoin="round" d="M 11504,10441 L 11504,10291"/>
 <path fill="none" stroke="rgb(0,0,0)" stroke-width="30" stroke-linejoin="round" d="M 11621,10441 L 11621,10291"/>
 <path fill="none" stroke="rgb(0,0,0)" stroke-width="30" stroke-linejoin="round" d="M 11621,10441 L 11621,10291"/>
 <path fill="none" stroke="rgb(0,0,0)" stroke-width="30" stroke-linejoin="round" d="M 11738,10441 L 11738,10291"/>
 <path fill="none" stroke="rgb(0,0,0)" stroke-width="30" stroke-linejoin="round" d="M 11738,10441 L 11738,10291"/>
 <path fill="none" stroke="rgb(0,0,0)" stroke-width="30" stroke-linejoin="round" d="M 11856,10441 L 11856,10291"/>
 <path fill="none" stroke="rgb(0,0,0)" stroke-width="30" stroke-linejoin="round" d="M 11856,10441 L 11856,10291"/>
 <path fill="none" stroke="rgb(0,0,0)" stroke-width="30" stroke-linejoin="round" d="M 11973,10441 L 11973,10291"/>
 <path fill="none" stroke="rgb(0,0,0)" stroke-width="30" stroke-linejoin="round" d="M 11973,10441 L 11973,10291"/>
 <path fill="none" stroke="rgb(0,0,0)" stroke-width="30" stroke-linejoin="round" d="M 12090,10441 L 12090,10291"/>
 <path fill="none" stroke="rgb(0,0,0)" stroke-width="30" stroke-linejoin="round" d="M 12090,10441 L 12090,10291"/>
 <path fill="none" stroke="rgb(0,0,0)" stroke-width="30" stroke-linejoin="round" d="M 12207,10441 L 12207,10291"/>
 <path fill="none" stroke="rgb(0,0,0)" stroke-width="30" stroke-linejoin="round" d="M 12207,10441 L 12207,10291"/>
 <path fill="none" stroke="rgb(0,0,0)" stroke-width="30" stroke-linejoin="round" d="M 12324,10441 L 12324,10291"/>
 <path fill="none" stroke="rgb(0,0,0)" stroke-width="30" stroke-linejoin="round" d="M 12324,10441 L 12324,10291"/>
 <path fill="none" stroke="rgb(0,0,0)" stroke-width="30" stroke-linejoin="round" d="M 12442,10441 L 12442,10291"/>
 <path fill="none" stroke="rgb(0,0,0)" stroke-width="30" stroke-linejoin="round" d="M 12442,10441 L 12442,10291"/>
 <path fill="none" stroke="rgb(0,0,0)" stroke-width="30" stroke-linejoin="round" d="M 12559,10441 L 12559,10291"/>
 <path fill="none" stroke="rgb(0,0,0)" stroke-width="30" stroke-linejoin="round" d="M 12559,10441 L 12559,10291"/>
 <path fill="none" stroke="rgb(0,0,0)" stroke-width="30" stroke-linejoin="round" d="M 12676,10441 L 12676,10291"/>
 <path fill="none" stroke="rgb(0,0,0)" stroke-width="30" stroke-linejoin="round" d="M 12676,10441 L 12676,10291"/>
 <path fill="none" stroke="rgb(0,0,0)" stroke-width="30" stroke-linejoin="round" d="M 12793,10441 L 12793,10291"/>
 <path fill="none" stroke="rgb(0,0,0)" stroke-width="30" stroke-linejoin="round" d="M 12793,10441 L 12793,10291"/>
 <path fill="none" stroke="rgb(0,0,0)" stroke-width="30" stroke-linejoin="round" d="M 12911,10441 L 12911,10291"/>
 <path fill="none" stroke="rgb(0,0,0)" stroke-width="30" stroke-linejoin="round" d="M 12911,10441 L 12911,10291"/>
 <path fill="none" stroke="rgb(0,0,0)" stroke-width="30" stroke-linejoin="round" d="M 13028,10441 L 13028,10291"/>
 <path fill="none" stroke="rgb(0,0,0)" stroke-width="30" stroke-linejoin="round" d="M 13028,10441 L 13028,10291"/>
 <path fill="none" stroke="rgb(0,0,0)" stroke-width="30" stroke-linejoin="round" d="M 13145,10441 L 13145,10291"/>
 <path fill="none" stroke="rgb(0,0,0)" stroke-width="30" stroke-linejoin="round" d="M 13145,10441 L 13145,10291"/>
 <path fill="none" stroke="rgb(0,0,0)" stroke-width="30" stroke-linejoin="round" d="M 13262,10441 L 13262,10291"/>
 <path fill="none" stroke="rgb(0,0,0)" stroke-width="30" stroke-linejoin="round" d="M 13262,10441 L 13262,10291"/>
 <path fill="none" stroke="rgb(0,0,0)" stroke-width="30" stroke-linejoin="round" d="M 13379,10441 L 13379,10291"/>
 <path fill="none" stroke="rgb(0,0,0)" stroke-width="30" stroke-linejoin="round" d="M 13379,10441 L 13379,10291"/>
 <path fill="none" stroke="rgb(0,0,0)" stroke-width="30" stroke-linejoin="round" d="M 13497,10441 L 13497,10291"/>
 <path fill="none" stroke="rgb(0,0,0)" stroke-width="30" stroke-linejoin="round" d="M 13497,10441 L 13497,10291"/>
 <path fill="none" stroke="rgb(0,0,0)" stroke-width="30" stroke-linejoin="round" d="M 13614,10441 L 13614,10291"/>
 <path fill="none" stroke="rgb(0,0,0)" stroke-width="30" stroke-linejoin="round" d="M 13614,10441 L 13614,10291"/>
 <path fill="none" stroke="rgb(0,0,0)" stroke-width="30" stroke-linejoin="round" d="M 13731,10441 L 13731,10291"/>
 <path fill="none" stroke="rgb(0,0,0)" stroke-width="30" stroke-linejoin="round" d="M 13731,10441 L 13731,10291"/>
 <path fill="none" stroke="rgb(0,0,0)" stroke-width="30" stroke-linejoin="round" d="M 13848,10441 L 13848,10291"/>
 <path fill="none" stroke="rgb(0,0,0)" stroke-width="30" stroke-linejoin="round" d="M 13848,10441 L 13848,10291"/>
 <path fill="none" stroke="rgb(0,0,0)" stroke-width="30" stroke-linejoin="round" d="M 13965,10441 L 13965,10291"/>
 <path fill="none" stroke="rgb(0,0,0)" stroke-width="30" stroke-linejoin="round" d="M 13965,10441 L 13965,10291"/>
 <path fill="none" stroke="rgb(0,0,0)" stroke-width="30" stroke-linejoin="round" d="M 14083,10441 L 14083,10291"/>
 <path fill="none" stroke="rgb(0,0,0)" stroke-width="30" stroke-linejoin="round" d="M 14083,10441 L 14083,10291"/>
 <path fill="none" stroke="rgb(0,0,0)" stroke-width="30" stroke-linejoin="round" d="M 14200,10441 L 14200,10291"/>
 <path fill="none" stroke="rgb(0,0,0)" stroke-width="30" stroke-linejoin="round" d="M 14200,10441 L 14200,10291"/>
 <path fill="none" stroke="rgb(0,0,0)" stroke-width="30" stroke-linejoin="round" d="M 14317,10441 L 14317,10291"/>
 <path fill="none" stroke="rgb(0,0,0)" stroke-width="30" stroke-linejoin="round" d="M 14317,10441 L 14317,10291"/>
 <path fill="none" stroke="rgb(0,0,0)" stroke-width="30" stroke-linejoin="round" d="M 14434,10441 L 14434,10291"/>
 <path fill="none" stroke="rgb(0,0,0)" stroke-width="30" stroke-linejoin="round" d="M 14434,10441 L 14434,10291"/>
 <path fill="none" stroke="rgb(0,0,0)" stroke-width="30" stroke-linejoin="round" d="M 14552,10441 L 14552,10291"/>
 <path fill="none" stroke="rgb(0,0,0)" stroke-width="30" stroke-linejoin="round" d="M 14552,10441 L 14552,10291"/>
 <path fill="none" stroke="rgb(0,0,0)" stroke-width="30" stroke-linejoin="round" d="M 14669,10441 L 14669,10291"/>
 <path fill="none" stroke="rgb(0,0,0)" stroke-width="30" stroke-linejoin="round" d="M 14669,10441 L 14669,10291"/>
 <path fill="none" stroke="rgb(0,0,0)" stroke-width="30" stroke-linejoin="round" d="M 14786,10441 L 14786,10291"/>
 <path fill="none" stroke="rgb(0,0,0)" stroke-width="30" stroke-linejoin="round" d="M 14786,10441 L 14786,10291"/>
 <path fill="none" stroke="rgb(0,0,0)" stroke-width="30" stroke-linejoin="round" d="M 14903,10441 L 14903,10291"/>
 <path fill="none" stroke="rgb(0,0,0)" stroke-width="30" stroke-linejoin="round" d="M 14903,10441 L 14903,10291"/>
 <path fill="none" stroke="rgb(0,0,0)" stroke-width="30" stroke-linejoin="round" d="M 15020,10441 L 15020,10291"/>
 <path fill="none" stroke="rgb(0,0,0)" stroke-width="30" stroke-linejoin="round" d="M 15020,10441 L 15020,10291"/>
 <path fill="none" stroke="rgb(0,0,0)" stroke-width="30" stroke-linejoin="round" d="M 1307,10291 L 15020,10291"/>
 <path fill="none" stroke="rgb(0,0,0)" stroke-width="30" stroke-linejoin="round" d="M 1157,10291 L 1307,10291"/>
 <path fill="none" stroke="rgb(0,0,0)" stroke-width="30" stroke-linejoin="round" d="M 1157,10291 L 1307,10291"/>
 <path fill="none" stroke="rgb(0,0,0)" stroke-width="30" stroke-linejoin="round" d="M 1157,9356 L 1307,9356"/>
 <path fill="none" stroke="rgb(0,0,0)" stroke-width="30" stroke-linejoin="round" d="M 1157,9356 L 1307,9356"/>
 <path fill="none" stroke="rgb(0,0,0)" stroke-width="30" stroke-linejoin="round" d="M 1157,8422 L 1307,8422"/>
 <path fill="none" stroke="rgb(0,0,0)" stroke-width="30" stroke-linejoin="round" d="M 1157,8422 L 1307,8422"/>
 <path fill="none" stroke="rgb(0,0,0)" stroke-width="30" stroke-linejoin="round" d="M 1157,7488 L 1307,7488"/>
 <path fill="none" stroke="rgb(0,0,0)" stroke-width="30" stroke-linejoin="round" d="M 1157,7488 L 1307,7488"/>
 <path fill="none" stroke="rgb(0,0,0)" stroke-width="30" stroke-linejoin="round" d="M 1157,6554 L 1307,6554"/>
 <path fill="none" stroke="rgb(0,0,0)" stroke-width="30" stroke-linejoin="round" d="M 1157,6554 L 1307,6554"/>
 <path fill="none" stroke="rgb(0,0,0)" stroke-width="30" stroke-linejoin="round" d="M 1157,5621 L 1307,5621"/>
 <path fill="none" stroke="rgb(0,0,0)" stroke-width="30" stroke-linejoin="round" d="M 1157,5621 L 1307,5621"/>
 <path fill="none" stroke="rgb(0,0,0)" stroke-width="30" stroke-linejoin="round" d="M 1157,4687 L 1307,4687"/>
 <path fill="none" stroke="rgb(0,0,0)" stroke-width="30" stroke-linejoin="round" d="M 1157,4687 L 1307,4687"/>
 <path fill="none" stroke="rgb(0,0,0)" stroke-width="30" stroke-linejoin="round" d="M 1157,3753 L 1307,3753"/>
 <path fill="none" stroke="rgb(0,0,0)" stroke-width="30" stroke-linejoin="round" d="M 1157,3753 L 1307,3753"/>
 <path fill="none" stroke="rgb(0,0,0)" stroke-width="30" stroke-linejoin="round" d="M 1157,2819 L 1307,2819"/>
 <path fill="none" stroke="rgb(0,0,0)" stroke-width="30" stroke-linejoin="round" d="M 1157,2819 L 1307,2819"/>
 <path fill="none" stroke="rgb(0,0,0)" stroke-width="30" stroke-linejoin="round" d="M 1157,1885 L 1307,1885"/>
 <path fill="none" stroke="rgb(0,0,0)" stroke-width="30" stroke-linejoin="round" d="M 1157,1885 L 1307,1885"/>
 <path fill="none" stroke="rgb(0,0,0)" stroke-width="30" stroke-linejoin="round" d="M 1157,951 L 1307,951"/>
 <path fill="none" stroke="rgb(0,0,0)" stroke-width="30" stroke-linejoin="round" d="M 1157,951 L 1307,951"/>
 <path fill="none" stroke="rgb(0,0,0)" stroke-width="30" stroke-linejoin="round" d="M 1307,10291 L 1307,951"/>
 <path fill="none" stroke="rgb(0,0,0)" stroke-width="30" stroke-linejoin="round" d="M 15170,10291 L 15020,10291"/>
 <path fill="none" stroke="rgb(0,0,0)" stroke-width="30" stroke-linejoin="round" d="M 15170,10291 L 15020,10291"/>
 <path fill="none" stroke="rgb(0,0,0)" stroke-width="30" stroke-linejoin="round" d="M 15170,9356 L 15020,9356"/>
 <path fill="none" stroke="rgb(0,0,0)" stroke-width="30" stroke-linejoin="round" d="M 15170,9356 L 15020,9356"/>
 <path fill="none" stroke="rgb(0,0,0)" stroke-width="30" stroke-linejoin="round" d="M 15170,8422 L 15020,8422"/>
 <path fill="none" stroke="rgb(0,0,0)" stroke-width="30" stroke-linejoin="round" d="M 15170,8422 L 15020,8422"/>
 <path fill="none" stroke="rgb(0,0,0)" stroke-width="30" stroke-linejoin="round" d="M 15170,7488 L 15020,7488"/>
 <path fill="none" stroke="rgb(0,0,0)" stroke-width="30" stroke-linejoin="round" d="M 15170,7488 L 15020,7488"/>
 <path fill="none" stroke="rgb(0,0,0)" stroke-width="30" stroke-linejoin="round" d="M 15170,6554 L 15020,6554"/>
 <path fill="none" stroke="rgb(0,0,0)" stroke-width="30" stroke-linejoin="round" d="M 15170,6554 L 15020,6554"/>
 <path fill="none" stroke="rgb(0,0,0)" stroke-width="30" stroke-linejoin="round" d="M 15170,5621 L 15020,5621"/>
 <path fill="none" stroke="rgb(0,0,0)" stroke-width="30" stroke-linejoin="round" d="M 15170,5621 L 15020,5621"/>
 <path fill="none" stroke="rgb(0,0,0)" stroke-width="30" stroke-linejoin="round" d="M 15170,4687 L 15020,4687"/>
 <path fill="none" stroke="rgb(0,0,0)" stroke-width="30" stroke-linejoin="round" d="M 15170,4687 L 15020,4687"/>
 <path fill="none" stroke="rgb(0,0,0)" stroke-width="30" stroke-linejoin="round" d="M 15170,3753 L 15020,3753"/>
 <path fill="none" stroke="rgb(0,0,0)" stroke-width="30" stroke-linejoin="round" d="M 15170,3753 L 15020,3753"/>
 <path fill="none" stroke="rgb(0,0,0)" stroke-width="30" stroke-linejoin="round" d="M 15170,2819 L 15020,2819"/>
 <path fill="none" stroke="rgb(0,0,0)" stroke-width="30" stroke-linejoin="round" d="M 15170,2819 L 15020,2819"/>
 <path fill="none" stroke="rgb(0,0,0)" stroke-width="30" stroke-linejoin="round" d="M 15170,1885 L 15020,1885"/>
 <path fill="none" stroke="rgb(0,0,0)" stroke-width="30" stroke-linejoin="round" d="M 15170,1885 L 15020,1885"/>
 <path fill="none" stroke="rgb(0,0,0)" stroke-width="30" stroke-linejoin="round" d="M 15170,951 L 15020,951"/>
 <path fill="none" stroke="rgb(0,0,0)" stroke-width="30" stroke-linejoin="round" d="M 15170,951 L 15020,951"/>
 <path fill="none" stroke="rgb(0,0,0)" stroke-width="30" stroke-linejoin="round" d="M 15020,10291 L 15020,951"/>
 <path fill="rgb(255,66,14)" stroke="none" d="M 1307,10291 L 1424,10291 1541,10291 1658,10291 1775,10291 1893,10291 2010,10291 2127,10291 2244,10291 2362,10291 2479,10291 2596,10291 2713,10291 2830,10291 2948,10291 3065,10291 3182,10291 3299,10291 3417,10291 3534,10291 3651,10291 3768,10291 3885,10291 4003,10291 4120,10291 4237,10291 4354,10291 4472,10291 4589,10291 4706,10291 4823,10291 4940,10291 5058,10291 5175,10291 5292,10291 5409,10291 5527,10291 5644,10291 5761,10291 5878,10291 5995,10291 6113,10291 6230,10291 6347,10291 6464,10291 6582,10291 6699,10291 6816,10291 6933,10291 7050,10291 7168,10291 7285,10291 7402,10291 7519,10291 7637,10291 7754,10291 7871,10291 7988,10291 8105,10291 8222,10291 8339,10291 8456,10291 8573,10291 8691,10291 8808,10291 8925,10291 9042,10291 9159,10291 9277,10291 9394,10291 9511,10249 9628,10238 9745,10219 9863,10180 9980,10162 10097,10139 10214,10106 10332,10092 10449,10099 10566,10105 10683,10102 10800,10072 10918,10061 11035,9979 11152,9919 11269,9874 11387,9816 11504,9806 11621,9786 11738,9757 11855,9693 11973,9650 12090,9587 12207,9563 12324,9504 12442,9498 12559,9440 12676,9390 12793,9345 12910,9411 13028,9313 13145,9307 13262,9215 13379,9086 13497,8971 13614,8921 13731,8868 13848,8876 13965,8787 14083,8731 14200,8730 14317,8782 14434,8737 14552,8720 14669,8714 14786,8683 14903,8654 15020,8650 15020,10291 1307,10291 Z"/>
 <path fill="rgb(255,211,32)" stroke="none" d="M 1307,10291 L 1424,10291 1541,10291 1658,10291 1775,10291 1893,10291 2010,10291 2127,10291 2244,10291 2362,10291 2479,10291 2596,10291 2713,10291 2830,10291 2948,10291 3065,10291 3182,10291 3299,10291 3417,10291 3534,10291 3651,10291 3768,10291 3885,10291 4003,10291 4120,10291 4237,10291 4354,10291 4472,10291 4589,10291 4706,10291 4823,10291 4940,10291 5058,10291 5175,10291 5292,10291 5409,10291 5527,10291 5644,10291 5761,10291 5878,10291 5995,10291 6113,10291 6230,10291 6347,10291 6464,10291 6582,10291 6699,10291 6816,10291 6933,10291 7050,10291 7168,10291 7285,10291 7402,10291 7519,10291 7637,10291 7754,10291 7871,10291 7988,10291 8105,10291 8222,10291 8339,10291 8456,10291 8573,10291 8691,10291 8808,10291 8925,10291 9042,10291 9159,10291 9277,10291 9394,10291 9511,10249 9628,10238 9745,10219 9863,10180 9980,10162 10097,10139 10214,10106 10332,10092 10449,10099 10566,10105 10683,10102 10800,10072 10918,10055 11035,9941 11152,9849 11269,9764 11387,9671 11504,9637 11621,9593 11738,9539 11855,9440 11973,9369 12090,9273 12207,9233 12324,9157 12442,9112 12559,8995 12676,8901 12793,8795 12910,8878 13028,8758 13145,8721 13262,8604 13379,8473 13497,8300 13614,8215 13731,8167 13848,8158 13965,8045 14083,7890 14200,7819 14317,7915 14434,7836 14552,7823 14669,7769 14786,7705 14903,7648 15020,7649 15020,8650 14903,8654 14786,8683 14669,8714 14552,8720 14434,8737 14317,8782 14200,8730 14083,8731 13965,8787 13848,8876 13731,8868 13614,8921 13497,8971 13379,9086 13262,9215 13145,9307 13028,9313 12910,9411 12793,9345 12676,9390 12559,9440 12442,9498 12324,9504 12207,9563 12090,9587 11973,9650 11855,9693 11738,9757 11621,9786 11504,9806 11387,9816 11269,9874 11152,9919 11035,9979 10918,10061 10800,10072 10683,10102 10566,10105 10449,10099 10332,10092 10214,10106 10097,10139 9980,10162 9863,10180 9745,10219 9628,10238 9511,10249 9394,10291 9277,10291 9159,10291 9042,10291 8925,10291 8808,10291 8691,10291 8573,10291 8456,10291 8339,10291 8222,10291 8105,10291 7988,10291 7871,10291 7754,10291 7637,10291 7519,10291 7402,10291 7285,10291 7168,10291 7050,10291 6933,10291 6816,10291 6699,10291 6582,10291 6464,10291 6347,10291 6230,10291 6113,10291 5995,10291 5878,10291 5761,10291 5644,10291 5527,10291 5409,10291 5292,10291 5175,10291 5058,10291 4940,10291 4823,10291 4706,10291 4589,10291 4472,10291 4354,10291 4237,10291 4120,10291 4003,10291 3885,10291 3768,10291 3651,10291 3534,10291 3417,10291 3299,10291 3182,10291 3065,10291 2948,10291 2830,10291 2713,10291 2596,10291 2479,10291 2362,10291 2244,10291 2127,10291 2010,10291 1893,10291 1775,10291 1658,10291 1541,10291 1424,10291 1307,10291 Z"/>
 <path fill="rgb(0,69,134)" stroke="none" d="M 1307,10291 L 1424,10291 1541,10291 1658,10291 1775,10291 1893,10291 2010,10291 2127,10291 2244,10291 2362,10291 2479,10291 2596,10291 2713,10291 2830,10291 2948,10253 3065,10238 3182,10224 3299,10209 3417,10193 3534,10173 3651,10149 3768,10111 3885,10077 4003,10045 4120,10004 4237,9952 4354,9875 4472,9827 4589,9780 4706,9738 4823,9711 4940,9703 5058,9667 5175,9619 5292,9586 5409,9528 5527,9464 5644,9423 5761,9333 5878,9336 5995,9315 6113,9282 6230,9259 6347,9226 6464,9208 6582,9202 6699,9175 6816,9127 6933,9092 7050,9063 7168,9038 7285,9030 7402,9025 7519,9004 7637,8975 7754,8930 7871,8932 7988,8916 8105,8870 8222,8843 8339,8841 8456,8831 8573,8786 8691,8760 8808,8728 8925,8742 9042,8770 9159,8709 9277,8701 9394,8740 9511,8685 9628,8694 9745,8639 9863,8681 9980,8668 10097,8676 10214,8689 10332,8678 10449,8641 10566,8637 10683,8582 10800,8462 10918,8419 11035,8311 11152,8326 11269,8277 11387,8246 11504,8178 11621,8168 11738,8102 11855,8019 11973,7995 12090,7923 12207,7854 12324,7755 12442,7711 12559,7673 12676,7657 12793,7587 12910,7612 13028,7507 13145,7454 13262,7414 13379,7340 13497,7214 13614,7088 13731,7026 13848,7023 13965,6962 14083,6903 14200,6851 14317,6859 14434,6846 14552,6876 14669,6827 14786,6802 14903,6759 15020,6781 15020,7649 14903,7648 14786,7705 14669,7769 14552,7823 14434,7836 14317,7915 14200,7819 14083,7890 13965,8045 13848,8158 13731,8167 13614,8215 13497,8300 13379,8473 13262,8604 13145,8721 13028,8758 12910,8878 12793,8795 12676,8901 12559,8995 12442,9112 12324,9157 12207,9233 12090,9273 11973,9369 11855,9440 11738,9539 11621,9593 11504,9637 11387,9671 11269,9764 11152,9849 11035,9941 10918,10055 10800,10072 10683,10102 10566,10105 10449,10099 10332,10092 10214,10106 10097,10139 9980,10162 9863,10180 9745,10219 9628,10238 9511,10249 9394,10291 9277,10291 9159,10291 9042,10291 8925,10291 8808,10291 8691,10291 8573,10291 8456,10291 8339,10291 8222,10291 8105,10291 7988,10291 7871,10291 7754,10291 7637,10291 7519,10291 7402,10291 7285,10291 7168,10291 7050,10291 6933,10291 6816,10291 6699,10291 6582,10291 6464,10291 6347,10291 6230,10291 6113,10291 5995,10291 5878,10291 5761,10291 5644,10291 5527,10291 5409,10291 5292,10291 5175,10291 5058,10291 4940,10291 4823,10291 4706,10291 4589,10291 4472,10291 4354,10291 4237,10291 4120,10291 4003,10291 3885,10291 3768,10291 3651,10291 3534,10291 3417,10291 3299,10291 3182,10291 3065,10291 2948,10291 2830,10291 2713,10291 2596,10291 2479,10291 2362,10291 2244,10291 2127,10291 2010,10291 1893,10291 1775,10291 1658,10291 1541,10291 1424,10291 1307,10291 Z"/>
 <path fill="rgb(131,202,255)" stroke="none" d="M 1307,10291 L 1424,10291 1541,10291 1658,10291 1775,10291 1893,10291 2010,10291 2127,10291 2244,10291 2362,10291 2479,10291 2596,10291 2713,10291 2830,10291 2948,10253 3065,10238 3182,10224 3299,10209 3417,10193 3534,10173 3651,10105 3768,10059 3885,10016 4003,9977 4120,9921 4237,9850 4354,9752 4472,9690 4589,9626 4706,9567 4823,9524 4940,9496 5058,9454 5175,9392 5292,9338 5409,9269 5527,9198 5644,9140 5761,9049 5878,9034 5995,8999 6113,8949 6230,8911 6347,8861 6464,8843 6582,8819 6699,8777 6816,8711 6933,8679 7050,8657 7168,8621 7285,8596 7402,8573 7519,8555 7637,8506 7754,8449 7871,8435 7988,8383 8105,8349 8222,8314 8339,8298 8456,8315 8573,8252 8691,8231 8808,8180 8925,8173 9042,8178 9159,8124 9277,8154 9394,8213 9511,8136 9628,8099 9745,8038 9863,8095 9980,8064 10097,8052 10214,8050 10332,8008 10449,7931 10566,7888 10683,7833 10800,7723 10918,7657 11035,7558 11152,7549 11269,7486 11387,7475 11504,7381 11621,7359 11738,7293 11855,7233 11973,7180 12090,7101 12207,7032 12324,6917 12442,6864 12559,6818 12676,6799 12793,6733 12910,6678 13028,6597 13145,6565 13262,6520 13379,6442 13497,6375 13614,6221 13731,6161 13848,6183 13965,6204 14083,6191 14200,6130 14317,6101 14434,6088 14552,6150 14669,6077 14786,6054 14903,6050 15020,6048 15020,6781 14903,6759 14786,6802 14669,6827 14552,6876 14434,6846 14317,6859 14200,6851 14083,6903 13965,6962 13848,7023 13731,7026 13614,7088 13497,7214 13379,7340 13262,7414 13145,7454 13028,7507 12910,7612 12793,7587 12676,7657 12559,7673 12442,7711 12324,7755 12207,7854 12090,7923 11973,7995 11855,8019 11738,8102 11621,8168 11504,8178 11387,8246 11269,8277 11152,8326 11035,8311 10918,8419 10800,8462 10683,8582 10566,8637 10449,8641 10332,8678 10214,8689 10097,8676 9980,8668 9863,8681 9745,8639 9628,8694 9511,8685 9394,8740 9277,8701 9159,8709 9042,8770 8925,8742 8808,8728 8691,8760 8573,8786 8456,8831 8339,8841 8222,8843 8105,8870 7988,8916 7871,8932 7754,8930 7637,8975 7519,9004 7402,9025 7285,9030 7168,9038 7050,9063 6933,9092 6816,9127 6699,9175 6582,9202 6464,9208 6347,9226 6230,9259 6113,9282 5995,9315 5878,9336 5761,9333 5644,9423 5527,9464 5409,9528 5292,9586 5175,9619 5058,9667 4940,9703 4823,9711 4706,9738 4589,9780 4472,9827 4354,9875 4237,9952 4120,10004 4003,10045 3885,10077 3768,10111 3651,10149 3534,10173 3417,10193 3299,10209 3182,10224 3065,10238 2948,10253 2830,10291 2713,10291 2596,10291 2479,10291 2362,10291 2244,10291 2127,10291 2010,10291 1893,10291 1775,10291 1658,10291 1541,10291 1424,10291 1307,10291 Z"/>
 <path fill="rgb(49,64,4)" stroke="none" d="M 1307,9992 L 1424,9992 1541,9997 1658,9997 1775,9998 1893,9993 2010,10001 2127,10005 2244,10004 2362,10007 2479,10012 2596,10011 2713,10020 2830,10021 2948,9992 3065,9978 3182,9966 3299,9953 3417,9940 3534,9920 3651,9854 3768,9814 3885,9777 4003,9739 4120,9690 4237,9624 4354,9539 4472,9479 4589,9421 4706,9368 4823,9327 4940,9297 5058,9251 5175,9194 5292,9145 5409,9078 5527,9009 5644,8963 5761,8876 5878,8859 5995,8822 6113,8779 6230,8743 6347,8701 6464,8691 6582,8671 6699,8636 6816,8582 6933,8549 7050,8526 7168,8491 7285,8300 7402,8251 7519,8197 7637,8132 7754,8021 7871,7952 7988,7915 8105,7863 8222,7860 8339,7795 8456,7735 8573,7646 8691,7671 8808,7563 8925,7537 9042,7521 9159,7437 9277,7427 9394,7523 9511,7475 9628,7423 9745,7328 9863,7298 9980,7229 10097,7243 10214,7229 10332,7223 10449,7292 10566,7323 10683,7326 10800,7173 10918,7144 11035,7019 11152,6956 11269,6885 11387,6836 11504,6750 11621,6718 11738,6647 11855,6555 11973,6468 12090,6365 12207,6295 12324,6259 12442,6178 12559,6080 12676,6034 12793,5989 12910,6003 13028,5954 13145,5920 13262,5866 13379,5821 13497,5708 13614,5627 13731,5609 13848,5637 13965,5637 14083,5535 14200,5455 14317,5479 14434,5451 14552,5465 14669,5455 14786,5441 14903,5399 15020,5433 15020,6048 14903,6050 14786,6054 14669,6077 14552,6150 14434,6088 14317,6101 14200,6130 14083,6191 13965,6204 13848,6183 13731,6161 13614,6221 13497,6375 13379,6442 13262,6520 13145,6565 13028,6597 12910,6678 12793,6733 12676,6799 12559,6818 12442,6864 12324,6917 12207,7032 12090,7101 11973,7180 11855,7233 11738,7293 11621,7359 11504,7381 11387,7475 11269,7486 11152,7549 11035,7558 10918,7657 10800,7723 10683,7833 10566,7888 10449,7931 10332,8008 10214,8050 10097,8052 9980,8064 9863,8095 9745,8038 9628,8099 9511,8136 9394,8213 9277,8154 9159,8124 9042,8178 8925,8173 8808,8180 8691,8231 8573,8252 8456,8315 8339,8298 8222,8314 8105,8349 7988,8383 7871,8435 7754,8449 7637,8506 7519,8555 7402,8573 7285,8596 7168,8621 7050,8657 6933,8679 6816,8711 6699,8777 6582,8819 6464,8843 6347,8861 6230,8911 6113,8949 5995,8999 5878,9034 5761,9049 5644,9140 5527,9198 5409,9269 5292,9338 5175,9392 5058,9454 4940,9496 4823,9524 4706,9567 4589,9626 4472,9690 4354,9752 4237,9850 4120,9921 4003,9977 3885,10016 3768,10059 3651,10105 3534,10173 3417,10193 3299,10209 3182,10224 3065,10238 2948,10253 2830,10291 2713,10291 2596,10291 2479,10291 2362,10291 2244,10291 2127,10291 2010,10291 1893,10291 1775,10291 1658,10291 1541,10291 1424,10291 1307,10291 1307,9992 Z"/>
 <path fill="rgb(126,0,33)" stroke="none" d="M 1307,9992 L 1424,9992 1541,9997 1658,9997 1775,9998 1893,9993 2010,10001 2127,10005 2244,10004 2362,10007 2479,10012 2596,10011 2713,10020 2830,10021 2948,9992 3065,9978 3182,9966 3299,9953 3417,9940 3534,9920 3651,9854 3768,9814 3885,9777 4003,9739 4120,9690 4237,9624 4354,9539 4472,9479 4589,9421 4706,9368 4823,9327 4940,9297 5058,9251 5175,9194 5292,9145 5409,9078 5527,9009 5644,8963 5761,8876 5878,8859 5995,8822 6113,8779 6230,8743 6347,8701 6464,8691 6582,8671 6699,8636 6816,8582 6933,8549 7050,8526 7168,8491 7285,8300 7402,8251 7519,8197 7637,8132 7754,8021 7871,7952 7988,7915 8105,7863 8222,7828 8339,7739 8456,7653 8573,7543 8691,7566 8808,7441 8925,7393 9042,7353 9159,7263 9277,7241 9394,7274 9511,7217 9628,7130 9745,7007 9863,6899 9980,6819 10097,6789 10214,6727 10332,6713 10449,6832 10566,6902 10683,6933 10800,6735 10918,6737 11035,6570 11152,6479 11269,6392 11387,6335 11504,6244 11621,6210 11738,6141 11855,6014 11973,5908 12090,5782 12207,5730 12324,5708 12442,5652 12559,5544 12676,5505 12793,5447 12910,5519 13028,5472 13145,5429 13262,5367 13379,5342 13497,5193 13614,5082 13731,5099 13848,5133 13965,5141 14083,4996 14200,4902 14317,4966 14434,4925 14552,4948 14669,4930 14786,4911 14903,4861 15020,4901 15020,5433 14903,5399 14786,5441 14669,5455 14552,5465 14434,5451 14317,5479 14200,5455 14083,5535 13965,5637 13848,5637 13731,5609 13614,5627 13497,5708 13379,5821 13262,5866 13145,5920 13028,5954 12910,6003 12793,5989 12676,6034 12559,6080 12442,6178 12324,6259 12207,6295 12090,6365 11973,6468 11855,6555 11738,6647 11621,6718 11504,6750 11387,6836 11269,6885 11152,6956 11035,7019 10918,7144 10800,7173 10683,7326 10566,7323 10449,7292 10332,7223 10214,7229 10097,7243 9980,7229 9863,7298 9745,7328 9628,7423 9511,7475 9394,7523 9277,7427 9159,7437 9042,7521 8925,7537 8808,7563 8691,7671 8573,7646 8456,7735 8339,7795 8222,7860 8105,7863 7988,7915 7871,7952 7754,8021 7637,8132 7519,8197 7402,8251 7285,8300 7168,8491 7050,8526 6933,8549 6816,8582 6699,8636 6582,8671 6464,8691 6347,8701 6230,8743 6113,8779 5995,8822 5878,8859 5761,8876 5644,8963 5527,9009 5409,9078 5292,9145 5175,9194 5058,9251 4940,9297 4823,9327 4706,9368 4589,9421 4472,9479 4354,9539 4237,9624 4120,9690 4003,9739 3885,9777 3768,9814 3651,9854 3534,9920 3417,9940 3299,9953 3182,9966 3065,9978 2948,9992 2830,10021 2713,10020 2596,10011 2479,10012 2362,10007 2244,10004 2127,10005 2010,10001 1893,9993 1775,9998 1658,9997 1541,9997 1424,9992 1307,9992 Z"/>
 <path fill="rgb(75,31,111)" stroke="none" d="M 1307,9512 L 1424,9488 1541,9467 1658,9450 1775,9414 1893,9417 2010,9383 2127,9360 2244,9342 2362,9325 2479,9314 2596,9306 2713,9272 2830,9246 2948,9195 3065,9172 3182,9147 3299,9131 3417,9116 3534,9097 3651,9011 3768,8969 3885,8930 4003,8901 4120,8851 4237,8791 4354,8711 4472,8661 4589,8605 4706,8561 4823,8541 4940,8535 5058,8505 5175,8451 5292,8420 5409,8362 5527,8296 5644,8254 5761,8158 5878,8155 5995,8132 6113,8098 6230,8068 6347,8033 6464,8036 6582,8020 6699,7988 6816,7937 6933,7918 7050,7922 7168,7889 7285,7707 7402,7659 7519,7619 7637,7557 7754,7441 7871,7369 7988,7307 8105,7255 8222,7234 8339,7151 8456,7088 8573,6989 8691,7024 8808,6890 8925,6840 9042,6796 9159,6719 9277,6704 9394,6808 9511,6737 9628,6629 9745,6506 9863,6416 9980,6342 10097,6308 10214,6243 10332,6224 10449,6324 10566,6378 10683,6409 10800,6223 10918,6237 11035,6081 11152,5994 11269,5917 11387,5879 11504,5778 11621,5703 11738,5599 11855,5472 11973,5456 12090,5339 12207,5286 12324,5268 12442,5203 12559,5087 12676,5065 12793,5018 12910,5075 13028,5043 13145,5004 13262,4943 13379,4938 13497,4821 13614,4733 13731,4744 13848,4786 13965,4802 14083,4677 14200,4581 14317,4633 14434,4597 14552,4634 14669,4608 14786,4600 14903,4559 15020,4601 15020,4901 14903,4861 14786,4911 14669,4930 14552,4948 14434,4925 14317,4966 14200,4902 14083,4996 13965,5141 13848,5133 13731,5099 13614,5082 13497,5193 13379,5342 13262,5367 13145,5429 13028,5472 12910,5519 12793,5447 12676,5505 12559,5544 12442,5652 12324,5708 12207,5730 12090,5782 11973,5908 11855,6014 11738,6141 11621,6210 11504,6244 11387,6335 11269,6392 11152,6479 11035,6570 10918,6737 10800,6735 10683,6933 10566,6902 10449,6832 10332,6713 10214,6727 10097,6789 9980,6819 9863,6899 9745,7007 9628,7130 9511,7217 9394,7274 9277,7241 9159,7263 9042,7353 8925,7393 8808,7441 8691,7566 8573,7543 8456,7653 8339,7739 8222,7828 8105,7863 7988,7915 7871,7952 7754,8021 7637,8132 7519,8197 7402,8251 7285,8300 7168,8491 7050,8526 6933,8549 6816,8582 6699,8636 6582,8671 6464,8691 6347,8701 6230,8743 6113,8779 5995,8822 5878,8859 5761,8876 5644,8963 5527,9009 5409,9078 5292,9145 5175,9194 5058,9251 4940,9297 4823,9327 4706,9368 4589,9421 4472,9479 4354,9539 4237,9624 4120,9690 4003,9739 3885,9777 3768,9814 3651,9854 3534,9920 3417,9940 3299,9953 3182,9966 3065,9978 2948,9992 2830,10021 2713,10020 2596,10011 2479,10012 2362,10007 2244,10004 2127,10005 2010,10001 1893,9993 1775,9998 1658,9997 1541,9997 1424,9992 1307,9992 1307,9512 Z"/>
 <path fill="rgb(87,157,28)" stroke="none" d="M 1307,8235 L 1424,8162 1541,8070 1658,8022 1775,7923 1893,7953 2010,7852 2127,7774 2244,7733 2362,7662 2479,7614 2596,7553 2713,7448 2830,7413 2948,7289 3065,7278 3182,7248 3299,7233 3417,7205 3534,7152 3651,7114 3768,7063 3885,7053 4003,7017 4120,6944 4237,6916 4354,6821 4472,6820 4589,6799 4706,6767 4823,6800 4940,6856 5058,6878 5175,6850 5292,6856 5409,6802 5527,6743 5644,6718 5761,6630 5878,6688 5995,6691 6113,6663 6230,6666 6347,6676 6464,6691 6582,6713 6699,6693 6816,6633 6933,6639 7050,6681 7168,6686 7285,6519 7402,6499 7519,6478 7637,6454 7754,6338 7871,6277 7988,6231 8105,6197 8222,6222 8339,6160 8456,6135 8573,6058 8691,6138 8808,5990 8925,5968 9042,5954 9159,5899 9277,5908 9394,6063 9511,5982 9628,5869 9745,5731 9863,5680 9980,5619 10097,5603 10214,5549 10332,5549 10449,5654 10566,5714 10683,5775 10800,5566 10918,5646 11035,5485 11152,5418 11269,5361 11387,5330 11504,5220 11621,5157 11738,5064 11855,4939 11973,4933 12090,4832 12207,4771 12324,4776 12442,4700 12559,4590 12676,4591 12793,4544 12910,4607 13028,4599 13145,4573 13262,4516 13379,4535 13497,4435 13614,4391 13731,4401 13848,4445 13965,4469 14083,4363 14200,4264 14317,4309 14434,4293 14552,4325 14669,4311 14786,4317 14903,4282 15020,4339 15020,4601 14903,4559 14786,4600 14669,4608 14552,4634 14434,4597 14317,4633 14200,4581 14083,4677 13965,4802 13848,4786 13731,4744 13614,4733 13497,4821 13379,4938 13262,4943 13145,5004 13028,5043 12910,5075 12793,5018 12676,5065 12559,5087 12442,5203 12324,5268 12207,5286 12090,5339 11973,5456 11855,5472 11738,5599 11621,5703 11504,5778 11387,5879 11269,5917 11152,5994 11035,6081 10918,6237 10800,6223 10683,6409 10566,6378 10449,6324 10332,6224 10214,6243 10097,6308 9980,6342 9863,6416 9745,6506 9628,6629 9511,6737 9394,6808 9277,6704 9159,6719 9042,6796 8925,6840 8808,6890 8691,7024 8573,6989 8456,7088 8339,7151 8222,7234 8105,7255 7988,7307 7871,7369 7754,7441 7637,7557 7519,7619 7402,7659 7285,7707 7168,7889 7050,7922 6933,7918 6816,7937 6699,7988 6582,8020 6464,8036 6347,8033 6230,8068 6113,8098 5995,8132 5878,8155 5761,8158 5644,8254 5527,8296 5409,8362 5292,8420 5175,8451 5058,8505 4940,8535 4823,8541 4706,8561 4589,8605 4472,8661 4354,8711 4237,8791 4120,8851 4003,8901 3885,8930 3768,8969 3651,9011 3534,9097 3417,9116 3299,9131 3182,9147 3065,9172 2948,9195 2830,9246 2713,9272 2596,9306 2479,9314 2362,9325 2244,9342 2127,9360 2010,9383 1893,9417 1775,9414 1658,9450 1541,9467 1424,9488 1307,9512 1307,8235 Z"/>
 <path fill="rgb(255,149,14)" stroke="none" d="M 1307,6993 L 1424,6963 1541,6848 1658,6806 1775,6720 1893,6733 2010,6633 2127,6556 2244,6516 2362,6449 2479,6387 2596,6325 2713,6253 2830,6229 2948,6126 3065,6110 3182,6090 3299,6083 3417,6074 3534,6033 3651,6016 3768,6003 3885,5981 4003,5972 4120,5926 4237,5924 4354,5851 4472,5839 4589,5831 4706,5805 4823,5819 4940,5845 5058,5865 5175,5833 5292,5822 5409,5787 5527,5748 5644,5756 5761,5713 5878,5739 5995,5699 6113,5699 6230,5702 6347,5735 6464,5823 6582,5841 6699,5815 6816,5777 6933,5801 7050,5890 7168,5900 7285,5732 7402,5735 7519,5737 7637,5699 7754,5595 7871,5540 7988,5505 8105,5494 8222,5528 8339,5485 8456,5528 8573,5433 8691,5515 8808,5367 8925,5329 9042,5295 9159,5266 9277,5309 9394,5531 9511,5438 9628,5299 9745,5168 9863,5161 9980,5085 10097,5067 10214,5026 10332,5004 10449,5065 10566,5089 10683,5145 10800,4967 10918,5033 11035,4910 11152,4874 11269,4831 11387,4834 11504,4720 11621,4667 11738,4579 11855,4482 11973,4476 12090,4393 12207,4345 12324,4345 12442,4271 12559,4207 12676,4234 12793,4200 12910,4247 13028,4254 13145,4245 13262,4194 13379,4218 13497,4135 13614,4094 13731,4111 13848,4163 13965,4213 14083,4131 14200,4034 14317,4067 14434,4054 14552,4096 14669,4078 14786,4092 14903,4072 15020,4126 15020,4339 14903,4282 14786,4317 14669,4311 14552,4325 14434,4293 14317,4309 14200,4264 14083,4363 13965,4469 13848,4445 13731,4401 13614,4391 13497,4435 13379,4535 13262,4516 13145,4573 13028,4599 12910,4607 12793,4544 12676,4591 12559,4590 12442,4700 12324,4776 12207,4771 12090,4832 11973,4933 11855,4939 11738,5064 11621,5157 11504,5220 11387,5330 11269,5361 11152,5418 11035,5485 10918,5646 10800,5566 10683,5775 10566,5714 10449,5654 10332,5549 10214,5549 10097,5603 9980,5619 9863,5680 9745,5731 9628,5869 9511,5982 9394,6063 9277,5908 9159,5899 9042,5954 8925,5968 8808,5990 8691,6138 8573,6058 8456,6135 8339,6160 8222,6222 8105,6197 7988,6231 7871,6277 7754,6338 7637,6454 7519,6478 7402,6499 7285,6519 7168,6686 7050,6681 6933,6639 6816,6633 6699,6693 6582,6713 6464,6691 6347,6676 6230,6666 6113,6663 5995,6691 5878,6688 5761,6630 5644,6718 5527,6743 5409,6802 5292,6856 5175,6850 5058,6878 4940,6856 4823,6800 4706,6767 4589,6799 4472,6820 4354,6821 4237,6916 4120,6944 4003,7017 3885,7053 3768,7063 3651,7114 3534,7152 3417,7205 3299,7233 3182,7248 3065,7278 2948,7289 2830,7413 2713,7448 2596,7553 2479,7614 2362,7662 2244,7733 2127,7774 2010,7852 1893,7953 1775,7923 1658,8022 1541,8070 1424,8162 1307,8235 1307,6993 Z"/>
 <path fill="rgb(174,207,0)" stroke="none" d="M 1307,2690 L 1424,2706 1541,2707 1658,2726 1775,2688 1893,2663 2010,2718 2127,2710 2244,2711 2362,2729 2479,2734 2596,2700 2713,2743 2830,2806 2948,2805 3065,2818 3182,2862 3299,2924 3417,2950 3534,2970 3651,3019 3768,3080 3885,3122 4003,3147 4120,3194 4237,3276 4354,3332 4472,3360 4589,3428 4706,3488 4823,3516 4940,3578 5058,3658 5175,3702 5292,3726 5409,3710 5527,3653 5644,3741 5761,3787 5878,3836 5995,3810 6113,3867 6230,3902 6347,3980 6464,4136 6582,4217 6699,4226 6816,4288 6933,4272 7050,4285 7168,4346 7285,4217 7402,4262 7519,4253 7637,4307 7754,4344 7871,4362 7988,4337 8105,4304 8222,4381 8339,4367 8456,4331 8573,4365 8691,4346 8808,4260 8925,4295 9042,4307 9159,4299 9277,4361 9394,4700 9511,4621 9628,4531 9745,4412 9863,4475 9980,4432 10097,4439 10214,4431 10332,4402 10449,4381 10566,4351 10683,4213 10800,4177 10918,4306 11035,4217 11152,4218 11269,4173 11387,4075 11504,4037 11621,4110 11738,4088 11855,4029 11973,4066 12090,4012 12207,3967 12324,3991 12442,3935 12559,3913 12676,3957 12793,3942 12910,3981 13028,3986 13145,3936 13262,3927 13379,3941 13497,3878 13614,3864 13731,3883 13848,3899 13965,3997 14083,3925 14200,3852 14317,3852 14434,3842 14552,3893 14669,3882 14786,3900 14903,3876 15020,3929 15020,4126 14903,4072 14786,4092 14669,4078 14552,4096 14434,4054 14317,4067 14200,4034 14083,4131 13965,4213 13848,4163 13731,4111 13614,4094 13497,4135 13379,4218 13262,4194 13145,4245 13028,4254 12910,4247 12793,4200 12676,4234 12559,4207 12442,4271 12324,4345 12207,4345 12090,4393 11973,4476 11855,4482 11738,4579 11621,4667 11504,4720 11387,4834 11269,4831 11152,4874 11035,4910 10918,5033 10800,4967 10683,5145 10566,5089 10449,5065 10332,5004 10214,5026 10097,5067 9980,5085 9863,5161 9745,5168 9628,5299 9511,5438 9394,5531 9277,5309 9159,5266 9042,5295 8925,5329 8808,5367 8691,5515 8573,5433 8456,5528 8339,5485 8222,5528 8105,5494 7988,5505 7871,5540 7754,5595 7637,5699 7519,5737 7402,5735 7285,5732 7168,5900 7050,5890 6933,5801 6816,5777 6699,5815 6582,5841 6464,5823 6347,5735 6230,5702 6113,5699 5995,5699 5878,5739 5761,5713 5644,5756 5527,5748 5409,5787 5292,5822 5175,5833 5058,5865 4940,5845 4823,5819 4706,5805 4589,5831 4472,5839 4354,5851 4237,5924 4120,5926 4003,5972 3885,5981 3768,6003 3651,6016 3534,6033 3417,6074 3299,6083 3182,6090 3065,6110 2948,6126 2830,6229 2713,6253 2596,6325 2479,6387 2362,6449 2244,6516 2127,6556 2010,6633 1893,6733 1775,6720 1658,6806 1541,6848 1424,6963 1307,6993 1307,2690 Z"/>
 <path fill="rgb(197,0,11)" stroke="none" d="M 1307,2393 L 1424,2393 1541,2368 1658,2376 1775,2317 1893,2297 2010,2312 2127,2288 2244,2281 2362,2281 2479,2265 2596,2240 2713,2255 2830,2294 2948,2281 3065,2290 3182,2325 3299,2385 3417,2412 3534,2445 3651,2476 3768,2543 3885,2581 4003,2616 4120,2664 4237,2751 4354,2811 4472,2848 4589,2913 4706,2975 4823,3007 4940,3064 5058,3149 5175,3194 5292,3218 5409,3219 5527,3182 5644,3277 5761,3332 5878,3369 5995,3335 6113,3398 6230,3437 6347,3523 6464,3693 6582,3775 6699,3782 6816,3849 6933,3849 7050,3889 7168,3954 7285,3828 7402,3875 7519,3880 7637,3932 7754,3970 7871,3984 7988,3954 8105,3942 8222,4031 8339,4018 8456,4012 8573,4041 8691,4038 8808,3950 8925,3974 9042,3978 9159,3984 9277,4065 9394,4430 9511,4343 9628,4235 9745,4119 9863,4197 9980,4149 10097,4154 10214,4145 10332,4105 10449,4049 10566,3990 10683,3869 10800,3852 10918,3983 11035,3921 11152,3924 11269,3885 11387,3805 11504,3769 11621,3844 11738,3825 11855,3779 11973,3807 12090,3759 12207,3719 12324,3749 12442,3694 12559,3677 12676,3729 12793,3720 12910,3747 13028,3763 13145,3721 13262,3715 13379,3732 13497,3687 13614,3678 13731,3700 13848,3730 13965,3840 14083,3779 14200,3701 14317,3697 14434,3687 14552,3749 14669,3732 14786,3752 14903,3736 15020,3785 15020,3929 14903,3876 14786,3900 14669,3882 14552,3893 14434,3842 14317,3852 14200,3852 14083,3925 13965,3997 13848,3899 13731,3883 13614,3864 13497,3878 13379,3941 13262,3927 13145,3936 13028,3986 12910,3981 12793,3942 12676,3957 12559,3913 12442,3935 12324,3991 12207,3967 12090,4012 11973,4066 11855,4029 11738,4088 11621,4110 11504,4037 11387,4075 11269,4173 11152,4218 11035,4217 10918,4306 10800,4177 10683,4213 10566,4351 10449,4381 10332,4402 10214,4431 10097,4439 9980,4432 9863,4475 9745,4412 9628,4531 9511,4621 9394,4700 9277,4361 9159,4299 9042,4307 8925,4295 8808,4260 8691,4346 8573,4365 8456,4331 8339,4367 8222,4381 8105,4304 7988,4337 7871,4362 7754,4344 7637,4307 7519,4253 7402,4262 7285,4217 7168,4346 7050,4285 6933,4272 6816,4288 6699,4226 6582,4217 6464,4136 6347,3980 6230,3902 6113,3867 5995,3810 5878,3836 5761,3787 5644,3741 5527,3653 5409,3710 5292,3726 5175,3702 5058,3658 4940,3578 4823,3516 4706,3488 4589,3428 4472,3360 4354,3332 4237,3276 4120,3194 4003,3147 3885,3122 3768,3080 3651,3019 3534,2970 3417,2950 3299,2924 3182,2862 3065,2818 2948,2805 2830,2806 2713,2743 2596,2700 2479,2734 2362,2729 2244,2711 2127,2710 2010,2718 1893,2663 1775,2688 1658,2726 1541,2707 1424,2706 1307,2690 1307,2393 Z"/>
 <path fill="rgb(0,132,209)" stroke="none" d="M 1307,1681 L 1424,1692 1541,1721 1658,1755 1775,1705 1893,1699 2010,1742 2127,1744 2244,1752 2362,1783 2479,1795 2596,1778 2713,1817 2830,1874 2948,1884 3065,1897 3182,1929 3299,1994 3417,2034 3534,2084 3651,2123 3768,2184 3885,2236 4003,2282 4120,2349 4237,2444 4354,2527 4472,2577 4589,2651 4706,2711 4823,2765 4940,2836 5058,2930 5175,2992 5292,3022 5409,3039 5527,3006 5644,3101 5761,3180 5878,3207 5995,3190 6113,3261 6230,3304 6347,3394 6464,3568 6582,3663 6699,3673 6816,3756 6933,3753 7050,3787 7168,3858 7285,3683 7402,3735 7519,3738 7637,3793 7754,3832 7871,3851 7988,3828 8105,3814 8222,3898 8339,3882 8456,3875 8573,3899 8691,3893 8808,3816 8925,3854 9042,3870 9159,3868 9277,3948 9394,4310 9511,4230 9628,4130 9745,4014 9863,4101 9980,4055 10097,4069 10214,4069 10332,4030 10449,3982 10566,3922 10683,3800 10800,3779 10918,3899 11035,3844 11152,3859 11269,3826 11387,3747 11504,3713 11621,3791 11738,3771 11855,3729 11973,3757 12090,3714 12207,3670 12324,3706 12442,3649 12559,3637 12676,3689 12793,3682 12910,3713 13028,3726 13145,3687 13262,3680 13379,3699 13497,3652 13614,3647 13731,3669 13848,3699 13965,3810 14083,3752 14200,3674 14317,3668 14434,3660 14552,3715 14669,3704 14786,3726 14903,3710 15020,3757 15020,3785 14903,3736 14786,3752 14669,3732 14552,3749 14434,3687 14317,3697 14200,3701 14083,3779 13965,3840 13848,3730 13731,3700 13614,3678 13497,3687 13379,3732 13262,3715 13145,3721 13028,3763 12910,3747 12793,3720 12676,3729 12559,3677 12442,3694 12324,3749 12207,3719 12090,3759 11973,3807 11855,3779 11738,3825 11621,3844 11504,3769 11387,3805 11269,3885 11152,3924 11035,3921 10918,3983 10800,3852 10683,3869 10566,3990 10449,4049 10332,4105 10214,4145 10097,4154 9980,4149 9863,4197 9745,4119 9628,4235 9511,4343 9394,4430 9277,4065 9159,3984 9042,3978 8925,3974 8808,3950 8691,4038 8573,4041 8456,4012 8339,4018 8222,4031 8105,3942 7988,3954 7871,3984 7754,3970 7637,3932 7519,3880 7402,3875 7285,3828 7168,3954 7050,3889 6933,3849 6816,3849 6699,3782 6582,3775 6464,3693 6347,3523 6230,3437 6113,3398 5995,3335 5878,3369 5761,3332 5644,3277 5527,3182 5409,3219 5292,3218 5175,3194 5058,3149 4940,3064 4823,3007 4706,2975 4589,2913 4472,2848 4354,2811 4237,2751 4120,2664 4003,2616 3885,2581 3768,2543 3651,2476 3534,2445 3417,2412 3299,2385 3182,2325 3065,2290 2948,2281 2830,2294 2713,2255 2596,2240 2479,2265 2362,2281 2244,2281 2127,2288 2010,2312 1893,2297 1775,2317 1658,2376 1541,2368 1424,2393 1307,2393 1307,1681 Z"/>
 <text class="TextShape"><tspan class="TextParagraph" font-family="Arial, sans-serif" font-size="388px" font-weight="400"><tspan class="TextPosition" x="1117" y="10885"><tspan fill="rgb(0,0,0)" stroke="none">2008</tspan></tspan></tspan></text>
 <text class="TextShape"><tspan class="TextParagraph" font-family="Arial, sans-serif" font-size="388px" font-weight="400"><tspan class="TextPosition" x="2524" y="10885"><tspan fill="rgb(0,0,0)" stroke="none">2009</tspan></tspan></tspan></text>
 <text class="TextShape"><tspan class="TextParagraph" font-family="Arial, sans-serif" font-size="388px" font-weight="400"><tspan class="TextPosition" x="3930" y="10885"><tspan fill="rgb(0,0,0)" stroke="none">2010</tspan></tspan></tspan></text>
 <text class="TextShape"><tspan class="TextParagraph" font-family="Arial, sans-serif" font-size="388px" font-weight="400"><tspan class="TextPosition" x="5337" y="10885"><tspan fill="rgb(0,0,0)" stroke="none">2011</tspan></tspan></tspan></text>
 <text class="TextShape"><tspan class="TextParagraph" font-family="Arial, sans-serif" font-size="388px" font-weight="400"><tspan class="TextPosition" x="6744" y="10885"><tspan fill="rgb(0,0,0)" stroke="none">2012</tspan></tspan></tspan></text>
 <text class="TextShape"><tspan class="TextParagraph" font-family="Arial, sans-serif" font-size="388px" font-weight="400"><tspan class="TextPosition" x="8150" y="10885"><tspan fill="rgb(0,0,0)" stroke="none">2013</tspan></tspan></tspan></text>
 <text class="TextShape"><tspan class="TextParagraph" font-family="Arial, sans-serif" font-size="388px" font-weight="400"><tspan class="TextPosition" x="9557" y="10885"><tspan fill="rgb(0,0,0)" stroke="none">2014</tspan></tspan></tspan></text>
 <text class="TextShape"><tspan class="TextParagraph" font-family="Arial, sans-serif" font-size="388px" font-weight="400"><tspan class="TextPosition" x="10964" y="10885"><tspan fill="rgb(0,0,0)" stroke="none">2015</tspan></tspan></tspan></text>
 <text class="TextShape"><tspan class="TextParagraph" font-family="Arial, sans-serif" font-size="388px" font-weight="400"><tspan class="TextPosition" x="12370" y="10885"><tspan fill="rgb(0,0,0)" stroke="none">2016</tspan></tspan></tspan></text>
 <text class="TextShape"><tspan class="TextParagraph" font-family="Arial, sans-serif" font-size="388px" font-weight="400"><tspan class="TextPosition" x="13777" y="10885"><tspan fill="rgb(0,0,0)" stroke="none">2017</tspan></tspan></tspan></text>
 <text class="TextShape"><tspan class="TextParagraph" font-family="Arial, sans-serif" font-size="388px" font-weight="400"><tspan class="TextPosition" x="501" y="10425"><tspan fill="rgb(0,0,0)" stroke="none">0%</tspan></tspan></tspan></text>
 <text class="TextShape"><tspan class="TextParagraph" font-family="Arial, sans-serif" font-size="388px" font-weight="400"><tspan class="TextPosition" x="290" y="9490"><tspan fill="rgb(0,0,0)" stroke="none">10%</tspan></tspan></tspan></text>
 <text class="TextShape"><tspan class="TextParagraph" font-family="Arial, sans-serif" font-size="388px" font-weight="400"><tspan class="TextPosition" x="290" y="8556"><tspan fill="rgb(0,0,0)" stroke="none">20%</tspan></tspan></tspan></text>
 <text class="TextShape"><tspan class="TextParagraph" font-family="Arial, sans-serif" font-size="388px" font-weight="400"><tspan class="TextPosition" x="290" y="7622"><tspan fill="rgb(0,0,0)" stroke="none">30%</tspan></tspan></tspan></text>
 <text class="TextShape"><tspan class="TextParagraph" font-family="Arial, sans-serif" font-size="388px" font-weight="400"><tspan class="TextPosition" x="290" y="6688"><tspan fill="rgb(0,0,0)" stroke="none">40%</tspan></tspan></tspan></text>
 <text class="TextShape"><tspan class="TextParagraph" font-family="Arial, sans-serif" font-size="388px" font-weight="400"><tspan class="TextPosition" x="290" y="5754"><tspan fill="rgb(0,0,0)" stroke="none">50%</tspan></tspan></tspan></text>
 <text class="TextShape"><tspan class="TextParagraph" font-family="Arial, sans-serif" font-size="388px" font-weight="400"><tspan class="TextPosition" x="290" y="4820"><tspan fill="rgb(0,0,0)" stroke="none">60%</tspan></tspan></tspan></text>
 <text class="TextShape"><tspan class="TextParagraph" font-family="Arial, sans-serif" font-size="388px" font-weight="400"><tspan class="TextPosition" x="290" y="3886"><tspan fill="rgb(0,0,0)" stroke="none">70%</tspan></tspan></tspan></text>
 <text class="TextShape"><tspan class="TextParagraph" font-family="Arial, sans-serif" font-size="388px" font-weight="400"><tspan class="TextPosition" x="290" y="2952"><tspan fill="rgb(0,0,0)" stroke="none">80%</tspan></tspan></tspan></text>
 <text class="TextShape"><tspan class="TextParagraph" font-family="Arial, sans-serif" font-size="388px" font-weight="400"><tspan class="TextPosition" x="290" y="2018"><tspan fill="rgb(0,0,0)" stroke="none">90%</tspan></tspan></tspan></text>
 <text class="TextShape"><tspan class="TextParagraph" font-family="Arial, sans-serif" font-size="388px" font-weight="400"><tspan class="TextPosition" x="78" y="1084"><tspan fill="rgb(0,0,0)" stroke="none">100%</tspan></tspan></tspan></text>
 <text class="TextShape"><tspan class="TextParagraph" font-family="Arial, sans-serif" font-size="388px" font-weight="400"><tspan class="TextPosition" x="15270" y="10425"><tspan fill="rgb(0,0,0)" stroke="none">0%</tspan></tspan></tspan></text>
 <text class="TextShape"><tspan class="TextParagraph" font-family="Arial, sans-serif" font-size="388px" font-weight="400"><tspan class="TextPosition" x="15270" y="9490"><tspan fill="rgb(0,0,0)" stroke="none">10%</tspan></tspan></tspan></text>
 <text class="TextShape"><tspan class="TextParagraph" font-family="Arial, sans-serif" font-size="388px" font-weight="400"><tspan class="TextPosition" x="15270" y="8556"><tspan fill="rgb(0,0,0)" stroke="none">20%</tspan></tspan></tspan></text>
 <text class="TextShape"><tspan class="TextParagraph" font-family="Arial, sans-serif" font-size="388px" font-weight="400"><tspan class="TextPosition" x="15270" y="7622"><tspan fill="rgb(0,0,0)" stroke="none">30%</tspan></tspan></tspan></text>
 <text class="TextShape"><tspan class="TextParagraph" font-family="Arial, sans-serif" font-size="388px" font-weight="400"><tspan class="TextPosition" x="15270" y="6688"><tspan fill="rgb(0,0,0)" stroke="none">40%</tspan></tspan></tspan></text>
 <text class="TextShape"><tspan class="TextParagraph" font-family="Arial, sans-serif" font-size="388px" font-weight="400"><tspan class="TextPosition" x="15270" y="5754"><tspan fill="rgb(0,0,0)" stroke="none">50%</tspan></tspan></tspan></text>
 <text class="TextShape"><tspan class="TextParagraph" font-family="Arial, sans-serif" font-size="388px" font-weight="400"><tspan class="TextPosition" x="15270" y="4820"><tspan fill="rgb(0,0,0)" stroke="none">60%</tspan></tspan></tspan></text>
 <text class="TextShape"><tspan class="TextParagraph" font-family="Arial, sans-serif" font-size="388px" font-weight="400"><tspan class="TextPosition" x="15270" y="3886"><tspan fill="rgb(0,0,0)" stroke="none">70%</tspan></tspan></tspan></text>
 <text class="TextShape"><tspan class="TextParagraph" font-family="Arial, sans-serif" font-size="388px" font-weight="400"><tspan class="TextPosition" x="15270" y="2952"><tspan fill="rgb(0,0,0)" stroke="none">80%</tspan></tspan></tspan></text>
 <text class="TextShape"><tspan class="TextParagraph" font-family="Arial, sans-serif" font-size="388px" font-weight="400"><tspan class="TextPosition" x="15270" y="2018"><tspan fill="rgb(0,0,0)" stroke="none">90%</tspan></tspan></tspan></text>
 <text class="TextShape"><tspan class="TextParagraph" font-family="Arial, sans-serif" font-size="388px" font-weight="400"><tspan class="TextPosition" x="15270" y="1084"><tspan fill="rgb(0,0,0)" stroke="none">100%</tspan></tspan></tspan></text>
 <text class="TextShape"><tspan class="TextParagraph" font-family="Liberation Sans, sans-serif" font-size="635px" font-weight="400"><tspan class="TextPosition" x="4204" y="747"><tspan fill="rgb(0,0,0)" stroke="none">Resoluciones ms frecuentes</tspan></tspan></tspan></text>
 <path fill="rgb(255,66,14)" stroke="none" d="M 1764,11650 L 1669,11650 1669,11460 1859,11460 1859,11650 1764,11650 Z"/>
 <path fill="rgb(255,211,32)" stroke="none" d="M 3879,11650 L 3784,11650 3784,11460 3974,11460 3974,11650 3879,11650 Z"/>
 <path fill="rgb(0,69,134)" stroke="none" d="M 5994,11650 L 5899,11650 5899,11460 6089,11460 6089,11650 5994,11650 Z"/>
 <path fill="rgb(131,202,255)" stroke="none" d="M 8293,11650 L 8198,11650 8198,11460 8388,11460 8388,11650 8293,11650 Z"/>
 <path fill="rgb(49,64,4)" stroke="none" d="M 10593,11650 L 10498,11650 10498,11460 10688,11460 10688,11650 10593,11650 Z"/>
 <path fill="rgb(126,0,33)" stroke="none" d="M 12893,11650 L 12798,11650 12798,11460 12988,11460 12988,11650 12893,11650 Z"/>
 <path fill="rgb(75,31,111)" stroke="none" d="M 1764,12069 L 1669,12069 1669,11879 1859,11879 1859,12069 1764,12069 Z"/>
 <path fill="rgb(87,157,28)" stroke="none" d="M 3879,12069 L 3784,12069 3784,11879 3974,11879 3974,12069 3879,12069 Z"/>
 <path fill="rgb(255,149,14)" stroke="none" d="M 5994,12069 L 5899,12069 5899,11879 6089,11879 6089,12069 5994,12069 Z"/>
 <path fill="rgb(174,207,0)" stroke="none" d="M 8293,12069 L 8198,12069 8198,11879 8388,11879 8388,12069 8293,12069 Z"/>
 <path fill="rgb(197,0,11)" stroke="none" d="M 10593,12069 L 10498,12069 10498,11879 10688,11879 10688,12069 10593,12069 Z"/>
 <path fill="rgb(0,132,209)" stroke="none" d="M 12893,12069 L 12798,12069 12798,11879 12988,11879 12988,12069 12893,12069 Z"/>
 <text class="TextShape"><tspan class="TextParagraph" font-family="Arial, sans-serif" font-size="318px" font-weight="400"><tspan class="TextPosition" x="1959" y="11661"><tspan fill="rgb(0,0,0)" stroke="none">360 x 640</tspan></tspan></tspan></text>
 <text class="TextShape"><tspan class="TextParagraph" font-family="Arial, sans-serif" font-size="318px" font-weight="400"><tspan class="TextPosition" x="4074" y="11661"><tspan fill="rgb(0,0,0)" stroke="none">375 x 667</tspan></tspan></tspan></text>
 <text class="TextShape"><tspan class="TextParagraph" font-family="Arial, sans-serif" font-size="318px" font-weight="400"><tspan class="TextPosition" x="6189" y="11661"><tspan fill="rgb(0,0,0)" stroke="none">1366 x 768</tspan></tspan></tspan></text>
 <text class="TextShape"><tspan class="TextParagraph" font-family="Arial, sans-serif" font-size="318px" font-weight="400"><tspan class="TextPosition" x="8488" y="11661"><tspan fill="rgb(0,0,0)" stroke="none">1920 x 1080</tspan></tspan></tspan></text>
 <text class="TextShape"><tspan class="TextParagraph" font-family="Arial, sans-serif" font-size="318px" font-weight="400"><tspan class="TextPosition" x="10788" y="11661"><tspan fill="rgb(0,0,0)" stroke="none">768 x 1024</tspan></tspan></tspan></text>
 <text class="TextShape"><tspan class="TextParagraph" font-family="Arial, sans-serif" font-size="318px" font-weight="400"><tspan class="TextPosition" x="13088" y="11661"><tspan fill="rgb(0,0,0)" stroke="none">320 x 568</tspan></tspan></tspan></text>
 <text class="TextShape"><tspan class="TextParagraph" font-family="Arial, sans-serif" font-size="318px" font-weight="400"><tspan class="TextPosition" x="1959" y="12080"><tspan fill="rgb(0,0,0)" stroke="none">1440 x 900</tspan></tspan></tspan></text>
 <text class="TextShape"><tspan class="TextParagraph" font-family="Arial, sans-serif" font-size="318px" font-weight="400"><tspan class="TextPosition" x="4074" y="12080"><tspan fill="rgb(0,0,0)" stroke="none">1280 x 800</tspan></tspan></tspan></text>
 <text class="TextShape"><tspan class="TextParagraph" font-family="Arial, sans-serif" font-size="318px" font-weight="400"><tspan class="TextPosition" x="6189" y="12080"><tspan fill="rgb(0,0,0)" stroke="none">1280 x 1024</tspan></tspan></tspan></text>
 <text class="TextShape"><tspan class="TextParagraph" font-family="Arial, sans-serif" font-size="318px" font-weight="400"><tspan class="TextPosition" x="8488" y="12080"><tspan fill="rgb(0,0,0)" stroke="none">1024 x 768</tspan></tspan></tspan></text>
 <text class="TextShape"><tspan class="TextParagraph" font-family="Arial, sans-serif" font-size="318px" font-weight="400"><tspan class="TextPosition" x="10788" y="12080"><tspan fill="rgb(0,0,0)" stroke="none">1680 x 1050</tspan></tspan></tspan></text>
 <text class="TextShape"><tspan class="TextParagraph" font-family="Arial, sans-serif" font-size="318px" font-weight="400"><tspan class="TextPosition" x="13088" y="12080"><tspan fill="rgb(0,0,0)" stroke="none">1024 x 600</tspan></tspan></tspan></text>
</svg>
