<?xml version="1.0" encoding="UTF-8"?>
<!DOCTYPE svg PUBLIC "-//W3C//DTD SVG 1.1//EN" "http://www.w3.org/Graphics/SVG/1.1/DTD/svg11.dtd">
<svg width="163mm" height="122mm" viewBox="0 0 16300 12200" version="1.1" xmlns="http://www.w3.org/2000/svg" stroke-width="28.222" stroke-linejoin="round" xml:space="preserve">
 <path fill="rgb(255,255,255)" stroke="none" d="M 8184,12221 L 12,12221 12,0 16356,0 16356,12221 8184,12221 Z"/>
 <path fill="none" stroke="rgb(179,179,179)" stroke-linejoin="round" d="M 8119,10762 L 1428,10762 1428,1093 14809,1093 14809,10762 8119,10762 Z"/>
 <path fill="none" stroke="rgb(179,179,179)" stroke-linejoin="round" d="M 14809,10761 L 1428,10761"/>
 <path fill="none" stroke="rgb(179,179,179)" stroke-linejoin="round" d="M 14809,9794 L 1428,9794"/>
 <path fill="none" stroke="rgb(179,179,179)" stroke-linejoin="round" d="M 14809,8827 L 1428,8827"/>
 <path fill="none" stroke="rgb(179,179,179)" stroke-linejoin="round" d="M 14809,7860 L 1428,7860"/>
 <path fill="none" stroke="rgb(179,179,179)" stroke-linejoin="round" d="M 14809,6893 L 1428,6893"/>
 <path fill="none" stroke="rgb(179,179,179)" stroke-linejoin="round" d="M 14809,5927 L 1428,5927"/>
 <path fill="none" stroke="rgb(179,179,179)" stroke-linejoin="round" d="M 14809,4959 L 1428,4959"/>
 <path fill="none" stroke="rgb(179,179,179)" stroke-linejoin="round" d="M 14809,3992 L 1428,3992"/>
 <path fill="none" stroke="rgb(179,179,179)" stroke-linejoin="round" d="M 14809,3026 L 1428,3026"/>
 <path fill="none" stroke="rgb(179,179,179)" stroke-linejoin="round" d="M 14809,2059 L 1428,2059"/>
 <path fill="none" stroke="rgb(179,179,179)" stroke-linejoin="round" d="M 14809,1092 L 1428,1092"/>
 <path fill="none" stroke="rgb(0,0,0)" stroke-width="30" stroke-linejoin="round" d="M 1428,10911 L 1428,10761"/>
 <path fill="none" stroke="rgb(0,0,0)" stroke-width="30" stroke-linejoin="round" d="M 1428,10911 L 1428,10761"/>
 <path fill="none" stroke="rgb(0,0,0)" stroke-width="30" stroke-linejoin="round" d="M 1546,10911 L 1546,10761"/>
 <path fill="none" stroke="rgb(0,0,0)" stroke-width="30" stroke-linejoin="round" d="M 1546,10911 L 1546,10761"/>
 <path fill="none" stroke="rgb(0,0,0)" stroke-width="30" stroke-linejoin="round" d="M 1664,10911 L 1664,10761"/>
 <path fill="none" stroke="rgb(0,0,0)" stroke-width="30" stroke-linejoin="round" d="M 1664,10911 L 1664,10761"/>
 <path fill="none" stroke="rgb(0,0,0)" stroke-width="30" stroke-linejoin="round" d="M 1783,10911 L 1783,10761"/>
 <path fill="none" stroke="rgb(0,0,0)" stroke-width="30" stroke-linejoin="round" d="M 1783,10911 L 1783,10761"/>
 <path fill="none" stroke="rgb(0,0,0)" stroke-width="30" stroke-linejoin="round" d="M 1901,10911 L 1901,10761"/>
 <path fill="none" stroke="rgb(0,0,0)" stroke-width="30" stroke-linejoin="round" d="M 1901,10911 L 1901,10761"/>
 <path fill="none" stroke="rgb(0,0,0)" stroke-width="30" stroke-linejoin="round" d="M 2020,10911 L 2020,10761"/>
 <path fill="none" stroke="rgb(0,0,0)" stroke-width="30" stroke-linejoin="round" d="M 2020,10911 L 2020,10761"/>
 <path fill="none" stroke="rgb(0,0,0)" stroke-width="30" stroke-linejoin="round" d="M 2138,10911 L 2138,10761"/>
 <path fill="none" stroke="rgb(0,0,0)" stroke-width="30" stroke-linejoin="round" d="M 2138,10911 L 2138,10761"/>
 <path fill="none" stroke="rgb(0,0,0)" stroke-width="30" stroke-linejoin="round" d="M 2256,10911 L 2256,10761"/>
 <path fill="none" stroke="rgb(0,0,0)" stroke-width="30" stroke-linejoin="round" d="M 2256,10911 L 2256,10761"/>
 <path fill="none" stroke="rgb(0,0,0)" stroke-width="30" stroke-linejoin="round" d="M 2375,10911 L 2375,10761"/>
 <path fill="none" stroke="rgb(0,0,0)" stroke-width="30" stroke-linejoin="round" d="M 2375,10911 L 2375,10761"/>
 <path fill="none" stroke="rgb(0,0,0)" stroke-width="30" stroke-linejoin="round" d="M 2493,10911 L 2493,10761"/>
 <path fill="none" stroke="rgb(0,0,0)" stroke-width="30" stroke-linejoin="round" d="M 2493,10911 L 2493,10761"/>
 <path fill="none" stroke="rgb(0,0,0)" stroke-width="30" stroke-linejoin="round" d="M 2612,10911 L 2612,10761"/>
 <path fill="none" stroke="rgb(0,0,0)" stroke-width="30" stroke-linejoin="round" d="M 2612,10911 L 2612,10761"/>
 <path fill="none" stroke="rgb(0,0,0)" stroke-width="30" stroke-linejoin="round" d="M 2730,10911 L 2730,10761"/>
 <path fill="none" stroke="rgb(0,0,0)" stroke-width="30" stroke-linejoin="round" d="M 2730,10911 L 2730,10761"/>
 <path fill="none" stroke="rgb(0,0,0)" stroke-width="30" stroke-linejoin="round" d="M 2849,10911 L 2849,10761"/>
 <path fill="none" stroke="rgb(0,0,0)" stroke-width="30" stroke-linejoin="round" d="M 2849,10911 L 2849,10761"/>
 <path fill="none" stroke="rgb(0,0,0)" stroke-width="30" stroke-linejoin="round" d="M 2967,10911 L 2967,10761"/>
 <path fill="none" stroke="rgb(0,0,0)" stroke-width="30" stroke-linejoin="round" d="M 2967,10911 L 2967,10761"/>
 <path fill="none" stroke="rgb(0,0,0)" stroke-width="30" stroke-linejoin="round" d="M 3085,10911 L 3085,10761"/>
 <path fill="none" stroke="rgb(0,0,0)" stroke-width="30" stroke-linejoin="round" d="M 3085,10911 L 3085,10761"/>
 <path fill="none" stroke="rgb(0,0,0)" stroke-width="30" stroke-linejoin="round" d="M 3204,10911 L 3204,10761"/>
 <path fill="none" stroke="rgb(0,0,0)" stroke-width="30" stroke-linejoin="round" d="M 3204,10911 L 3204,10761"/>
 <path fill="none" stroke="rgb(0,0,0)" stroke-width="30" stroke-linejoin="round" d="M 3322,10911 L 3322,10761"/>
 <path fill="none" stroke="rgb(0,0,0)" stroke-width="30" stroke-linejoin="round" d="M 3322,10911 L 3322,10761"/>
 <path fill="none" stroke="rgb(0,0,0)" stroke-width="30" stroke-linejoin="round" d="M 3441,10911 L 3441,10761"/>
 <path fill="none" stroke="rgb(0,0,0)" stroke-width="30" stroke-linejoin="round" d="M 3441,10911 L 3441,10761"/>
 <path fill="none" stroke="rgb(0,0,0)" stroke-width="30" stroke-linejoin="round" d="M 3559,10911 L 3559,10761"/>
 <path fill="none" stroke="rgb(0,0,0)" stroke-width="30" stroke-linejoin="round" d="M 3559,10911 L 3559,10761"/>
 <path fill="none" stroke="rgb(0,0,0)" stroke-width="30" stroke-linejoin="round" d="M 3678,10911 L 3678,10761"/>
 <path fill="none" stroke="rgb(0,0,0)" stroke-width="30" stroke-linejoin="round" d="M 3678,10911 L 3678,10761"/>
 <path fill="none" stroke="rgb(0,0,0)" stroke-width="30" stroke-linejoin="round" d="M 3796,10911 L 3796,10761"/>
 <path fill="none" stroke="rgb(0,0,0)" stroke-width="30" stroke-linejoin="round" d="M 3796,10911 L 3796,10761"/>
 <path fill="none" stroke="rgb(0,0,0)" stroke-width="30" stroke-linejoin="round" d="M 3914,10911 L 3914,10761"/>
 <path fill="none" stroke="rgb(0,0,0)" stroke-width="30" stroke-linejoin="round" d="M 3914,10911 L 3914,10761"/>
 <path fill="none" stroke="rgb(0,0,0)" stroke-width="30" stroke-linejoin="round" d="M 4033,10911 L 4033,10761"/>
 <path fill="none" stroke="rgb(0,0,0)" stroke-width="30" stroke-linejoin="round" d="M 4033,10911 L 4033,10761"/>
 <path fill="none" stroke="rgb(0,0,0)" stroke-width="30" stroke-linejoin="round" d="M 4151,10911 L 4151,10761"/>
 <path fill="none" stroke="rgb(0,0,0)" stroke-width="30" stroke-linejoin="round" d="M 4151,10911 L 4151,10761"/>
 <path fill="none" stroke="rgb(0,0,0)" stroke-width="30" stroke-linejoin="round" d="M 4270,10911 L 4270,10761"/>
 <path fill="none" stroke="rgb(0,0,0)" stroke-width="30" stroke-linejoin="round" d="M 4270,10911 L 4270,10761"/>
 <path fill="none" stroke="rgb(0,0,0)" stroke-width="30" stroke-linejoin="round" d="M 4388,10911 L 4388,10761"/>
 <path fill="none" stroke="rgb(0,0,0)" stroke-width="30" stroke-linejoin="round" d="M 4388,10911 L 4388,10761"/>
 <path fill="none" stroke="rgb(0,0,0)" stroke-width="30" stroke-linejoin="round" d="M 4507,10911 L 4507,10761"/>
 <path fill="none" stroke="rgb(0,0,0)" stroke-width="30" stroke-linejoin="round" d="M 4507,10911 L 4507,10761"/>
 <path fill="none" stroke="rgb(0,0,0)" stroke-width="30" stroke-linejoin="round" d="M 4625,10911 L 4625,10761"/>
 <path fill="none" stroke="rgb(0,0,0)" stroke-width="30" stroke-linejoin="round" d="M 4625,10911 L 4625,10761"/>
 <path fill="none" stroke="rgb(0,0,0)" stroke-width="30" stroke-linejoin="round" d="M 4743,10911 L 4743,10761"/>
 <path fill="none" stroke="rgb(0,0,0)" stroke-width="30" stroke-linejoin="round" d="M 4743,10911 L 4743,10761"/>
 <path fill="none" stroke="rgb(0,0,0)" stroke-width="30" stroke-linejoin="round" d="M 4862,10911 L 4862,10761"/>
 <path fill="none" stroke="rgb(0,0,0)" stroke-width="30" stroke-linejoin="round" d="M 4862,10911 L 4862,10761"/>
 <path fill="none" stroke="rgb(0,0,0)" stroke-width="30" stroke-linejoin="round" d="M 4980,10911 L 4980,10761"/>
 <path fill="none" stroke="rgb(0,0,0)" stroke-width="30" stroke-linejoin="round" d="M 4980,10911 L 4980,10761"/>
 <path fill="none" stroke="rgb(0,0,0)" stroke-width="30" stroke-linejoin="round" d="M 5099,10911 L 5099,10761"/>
 <path fill="none" stroke="rgb(0,0,0)" stroke-width="30" stroke-linejoin="round" d="M 5099,10911 L 5099,10761"/>
 <path fill="none" stroke="rgb(0,0,0)" stroke-width="30" stroke-linejoin="round" d="M 5217,10911 L 5217,10761"/>
 <path fill="none" stroke="rgb(0,0,0)" stroke-width="30" stroke-linejoin="round" d="M 5217,10911 L 5217,10761"/>
 <path fill="none" stroke="rgb(0,0,0)" stroke-width="30" stroke-linejoin="round" d="M 5336,10911 L 5336,10761"/>
 <path fill="none" stroke="rgb(0,0,0)" stroke-width="30" stroke-linejoin="round" d="M 5336,10911 L 5336,10761"/>
 <path fill="none" stroke="rgb(0,0,0)" stroke-width="30" stroke-linejoin="round" d="M 5454,10911 L 5454,10761"/>
 <path fill="none" stroke="rgb(0,0,0)" stroke-width="30" stroke-linejoin="round" d="M 5454,10911 L 5454,10761"/>
 <path fill="none" stroke="rgb(0,0,0)" stroke-width="30" stroke-linejoin="round" d="M 5572,10911 L 5572,10761"/>
 <path fill="none" stroke="rgb(0,0,0)" stroke-width="30" stroke-linejoin="round" d="M 5572,10911 L 5572,10761"/>
 <path fill="none" stroke="rgb(0,0,0)" stroke-width="30" stroke-linejoin="round" d="M 5691,10911 L 5691,10761"/>
 <path fill="none" stroke="rgb(0,0,0)" stroke-width="30" stroke-linejoin="round" d="M 5691,10911 L 5691,10761"/>
 <path fill="none" stroke="rgb(0,0,0)" stroke-width="30" stroke-linejoin="round" d="M 5809,10911 L 5809,10761"/>
 <path fill="none" stroke="rgb(0,0,0)" stroke-width="30" stroke-linejoin="round" d="M 5809,10911 L 5809,10761"/>
 <path fill="none" stroke="rgb(0,0,0)" stroke-width="30" stroke-linejoin="round" d="M 5928,10911 L 5928,10761"/>
 <path fill="none" stroke="rgb(0,0,0)" stroke-width="30" stroke-linejoin="round" d="M 5928,10911 L 5928,10761"/>
 <path fill="none" stroke="rgb(0,0,0)" stroke-width="30" stroke-linejoin="round" d="M 6046,10911 L 6046,10761"/>
 <path fill="none" stroke="rgb(0,0,0)" stroke-width="30" stroke-linejoin="round" d="M 6046,10911 L 6046,10761"/>
 <path fill="none" stroke="rgb(0,0,0)" stroke-width="30" stroke-linejoin="round" d="M 6164,10911 L 6164,10761"/>
 <path fill="none" stroke="rgb(0,0,0)" stroke-width="30" stroke-linejoin="round" d="M 6164,10911 L 6164,10761"/>
 <path fill="none" stroke="rgb(0,0,0)" stroke-width="30" stroke-linejoin="round" d="M 6283,10911 L 6283,10761"/>
 <path fill="none" stroke="rgb(0,0,0)" stroke-width="30" stroke-linejoin="round" d="M 6283,10911 L 6283,10761"/>
 <path fill="none" stroke="rgb(0,0,0)" stroke-width="30" stroke-linejoin="round" d="M 6401,10911 L 6401,10761"/>
 <path fill="none" stroke="rgb(0,0,0)" stroke-width="30" stroke-linejoin="round" d="M 6401,10911 L 6401,10761"/>
 <path fill="none" stroke="rgb(0,0,0)" stroke-width="30" stroke-linejoin="round" d="M 6520,10911 L 6520,10761"/>
 <path fill="none" stroke="rgb(0,0,0)" stroke-width="30" stroke-linejoin="round" d="M 6520,10911 L 6520,10761"/>
 <path fill="none" stroke="rgb(0,0,0)" stroke-width="30" stroke-linejoin="round" d="M 6638,10911 L 6638,10761"/>
 <path fill="none" stroke="rgb(0,0,0)" stroke-width="30" stroke-linejoin="round" d="M 6638,10911 L 6638,10761"/>
 <path fill="none" stroke="rgb(0,0,0)" stroke-width="30" stroke-linejoin="round" d="M 6757,10911 L 6757,10761"/>
 <path fill="none" stroke="rgb(0,0,0)" stroke-width="30" stroke-linejoin="round" d="M 6757,10911 L 6757,10761"/>
 <path fill="none" stroke="rgb(0,0,0)" stroke-width="30" stroke-linejoin="round" d="M 6875,10911 L 6875,10761"/>
 <path fill="none" stroke="rgb(0,0,0)" stroke-width="30" stroke-linejoin="round" d="M 6875,10911 L 6875,10761"/>
 <path fill="none" stroke="rgb(0,0,0)" stroke-width="30" stroke-linejoin="round" d="M 6993,10911 L 6993,10761"/>
 <path fill="none" stroke="rgb(0,0,0)" stroke-width="30" stroke-linejoin="round" d="M 6993,10911 L 6993,10761"/>
 <path fill="none" stroke="rgb(0,0,0)" stroke-width="30" stroke-linejoin="round" d="M 7112,10911 L 7112,10761"/>
 <path fill="none" stroke="rgb(0,0,0)" stroke-width="30" stroke-linejoin="round" d="M 7112,10911 L 7112,10761"/>
 <path fill="none" stroke="rgb(0,0,0)" stroke-width="30" stroke-linejoin="round" d="M 7230,10911 L 7230,10761"/>
 <path fill="none" stroke="rgb(0,0,0)" stroke-width="30" stroke-linejoin="round" d="M 7230,10911 L 7230,10761"/>
 <path fill="none" stroke="rgb(0,0,0)" stroke-width="30" stroke-linejoin="round" d="M 7349,10911 L 7349,10761"/>
 <path fill="none" stroke="rgb(0,0,0)" stroke-width="30" stroke-linejoin="round" d="M 7349,10911 L 7349,10761"/>
 <path fill="none" stroke="rgb(0,0,0)" stroke-width="30" stroke-linejoin="round" d="M 7467,10911 L 7467,10761"/>
 <path fill="none" stroke="rgb(0,0,0)" stroke-width="30" stroke-linejoin="round" d="M 7467,10911 L 7467,10761"/>
 <path fill="none" stroke="rgb(0,0,0)" stroke-width="30" stroke-linejoin="round" d="M 7586,10911 L 7586,10761"/>
 <path fill="none" stroke="rgb(0,0,0)" stroke-width="30" stroke-linejoin="round" d="M 7586,10911 L 7586,10761"/>
 <path fill="none" stroke="rgb(0,0,0)" stroke-width="30" stroke-linejoin="round" d="M 7704,10911 L 7704,10761"/>
 <path fill="none" stroke="rgb(0,0,0)" stroke-width="30" stroke-linejoin="round" d="M 7704,10911 L 7704,10761"/>
 <path fill="none" stroke="rgb(0,0,0)" stroke-width="30" stroke-linejoin="round" d="M 7822,10911 L 7822,10761"/>
 <path fill="none" stroke="rgb(0,0,0)" stroke-width="30" stroke-linejoin="round" d="M 7822,10911 L 7822,10761"/>
 <path fill="none" stroke="rgb(0,0,0)" stroke-width="30" stroke-linejoin="round" d="M 7941,10911 L 7941,10761"/>
 <path fill="none" stroke="rgb(0,0,0)" stroke-width="30" stroke-linejoin="round" d="M 7941,10911 L 7941,10761"/>
 <path fill="none" stroke="rgb(0,0,0)" stroke-width="30" stroke-linejoin="round" d="M 8059,10911 L 8059,10761"/>
 <path fill="none" stroke="rgb(0,0,0)" stroke-width="30" stroke-linejoin="round" d="M 8059,10911 L 8059,10761"/>
 <path fill="none" stroke="rgb(0,0,0)" stroke-width="30" stroke-linejoin="round" d="M 8178,10911 L 8178,10761"/>
 <path fill="none" stroke="rgb(0,0,0)" stroke-width="30" stroke-linejoin="round" d="M 8178,10911 L 8178,10761"/>
 <path fill="none" stroke="rgb(0,0,0)" stroke-width="30" stroke-linejoin="round" d="M 8295,10911 L 8295,10761"/>
 <path fill="none" stroke="rgb(0,0,0)" stroke-width="30" stroke-linejoin="round" d="M 8295,10911 L 8295,10761"/>
 <path fill="none" stroke="rgb(0,0,0)" stroke-width="30" stroke-linejoin="round" d="M 8414,10911 L 8414,10761"/>
 <path fill="none" stroke="rgb(0,0,0)" stroke-width="30" stroke-linejoin="round" d="M 8414,10911 L 8414,10761"/>
 <path fill="none" stroke="rgb(0,0,0)" stroke-width="30" stroke-linejoin="round" d="M 8532,10911 L 8532,10761"/>
 <path fill="none" stroke="rgb(0,0,0)" stroke-width="30" stroke-linejoin="round" d="M 8532,10911 L 8532,10761"/>
 <path fill="none" stroke="rgb(0,0,0)" stroke-width="30" stroke-linejoin="round" d="M 8650,10911 L 8650,10761"/>
 <path fill="none" stroke="rgb(0,0,0)" stroke-width="30" stroke-linejoin="round" d="M 8650,10911 L 8650,10761"/>
 <path fill="none" stroke="rgb(0,0,0)" stroke-width="30" stroke-linejoin="round" d="M 8769,10911 L 8769,10761"/>
 <path fill="none" stroke="rgb(0,0,0)" stroke-width="30" stroke-linejoin="round" d="M 8769,10911 L 8769,10761"/>
 <path fill="none" stroke="rgb(0,0,0)" stroke-width="30" stroke-linejoin="round" d="M 8887,10911 L 8887,10761"/>
 <path fill="none" stroke="rgb(0,0,0)" stroke-width="30" stroke-linejoin="round" d="M 8887,10911 L 8887,10761"/>
 <path fill="none" stroke="rgb(0,0,0)" stroke-width="30" stroke-linejoin="round" d="M 9006,10911 L 9006,10761"/>
 <path fill="none" stroke="rgb(0,0,0)" stroke-width="30" stroke-linejoin="round" d="M 9006,10911 L 9006,10761"/>
 <path fill="none" stroke="rgb(0,0,0)" stroke-width="30" stroke-linejoin="round" d="M 9124,10911 L 9124,10761"/>
 <path fill="none" stroke="rgb(0,0,0)" stroke-width="30" stroke-linejoin="round" d="M 9124,10911 L 9124,10761"/>
 <path fill="none" stroke="rgb(0,0,0)" stroke-width="30" stroke-linejoin="round" d="M 9243,10911 L 9243,10761"/>
 <path fill="none" stroke="rgb(0,0,0)" stroke-width="30" stroke-linejoin="round" d="M 9243,10911 L 9243,10761"/>
 <path fill="none" stroke="rgb(0,0,0)" stroke-width="30" stroke-linejoin="round" d="M 9361,10911 L 9361,10761"/>
 <path fill="none" stroke="rgb(0,0,0)" stroke-width="30" stroke-linejoin="round" d="M 9361,10911 L 9361,10761"/>
 <path fill="none" stroke="rgb(0,0,0)" stroke-width="30" stroke-linejoin="round" d="M 9479,10911 L 9479,10761"/>
 <path fill="none" stroke="rgb(0,0,0)" stroke-width="30" stroke-linejoin="round" d="M 9479,10911 L 9479,10761"/>
 <path fill="none" stroke="rgb(0,0,0)" stroke-width="30" stroke-linejoin="round" d="M 9598,10911 L 9598,10761"/>
 <path fill="none" stroke="rgb(0,0,0)" stroke-width="30" stroke-linejoin="round" d="M 9598,10911 L 9598,10761"/>
 <path fill="none" stroke="rgb(0,0,0)" stroke-width="30" stroke-linejoin="round" d="M 9716,10911 L 9716,10761"/>
 <path fill="none" stroke="rgb(0,0,0)" stroke-width="30" stroke-linejoin="round" d="M 9716,10911 L 9716,10761"/>
 <path fill="none" stroke="rgb(0,0,0)" stroke-width="30" stroke-linejoin="round" d="M 9835,10911 L 9835,10761"/>
 <path fill="none" stroke="rgb(0,0,0)" stroke-width="30" stroke-linejoin="round" d="M 9835,10911 L 9835,10761"/>
 <path fill="none" stroke="rgb(0,0,0)" stroke-width="30" stroke-linejoin="round" d="M 9953,10911 L 9953,10761"/>
 <path fill="none" stroke="rgb(0,0,0)" stroke-width="30" stroke-linejoin="round" d="M 9953,10911 L 9953,10761"/>
 <path fill="none" stroke="rgb(0,0,0)" stroke-width="30" stroke-linejoin="round" d="M 10072,10911 L 10072,10761"/>
 <path fill="none" stroke="rgb(0,0,0)" stroke-width="30" stroke-linejoin="round" d="M 10072,10911 L 10072,10761"/>
 <path fill="none" stroke="rgb(0,0,0)" stroke-width="30" stroke-linejoin="round" d="M 10190,10911 L 10190,10761"/>
 <path fill="none" stroke="rgb(0,0,0)" stroke-width="30" stroke-linejoin="round" d="M 10190,10911 L 10190,10761"/>
 <path fill="none" stroke="rgb(0,0,0)" stroke-width="30" stroke-linejoin="round" d="M 10308,10911 L 10308,10761"/>
 <path fill="none" stroke="rgb(0,0,0)" stroke-width="30" stroke-linejoin="round" d="M 10308,10911 L 10308,10761"/>
 <path fill="none" stroke="rgb(0,0,0)" stroke-width="30" stroke-linejoin="round" d="M 10427,10911 L 10427,10761"/>
 <path fill="none" stroke="rgb(0,0,0)" stroke-width="30" stroke-linejoin="round" d="M 10427,10911 L 10427,10761"/>
 <path fill="none" stroke="rgb(0,0,0)" stroke-width="30" stroke-linejoin="round" d="M 10545,10911 L 10545,10761"/>
 <path fill="none" stroke="rgb(0,0,0)" stroke-width="30" stroke-linejoin="round" d="M 10545,10911 L 10545,10761"/>
 <path fill="none" stroke="rgb(0,0,0)" stroke-width="30" stroke-linejoin="round" d="M 10664,10911 L 10664,10761"/>
 <path fill="none" stroke="rgb(0,0,0)" stroke-width="30" stroke-linejoin="round" d="M 10664,10911 L 10664,10761"/>
 <path fill="none" stroke="rgb(0,0,0)" stroke-width="30" stroke-linejoin="round" d="M 10782,10911 L 10782,10761"/>
 <path fill="none" stroke="rgb(0,0,0)" stroke-width="30" stroke-linejoin="round" d="M 10782,10911 L 10782,10761"/>
 <path fill="none" stroke="rgb(0,0,0)" stroke-width="30" stroke-linejoin="round" d="M 10900,10911 L 10900,10761"/>
 <path fill="none" stroke="rgb(0,0,0)" stroke-width="30" stroke-linejoin="round" d="M 10900,10911 L 10900,10761"/>
 <path fill="none" stroke="rgb(0,0,0)" stroke-width="30" stroke-linejoin="round" d="M 11019,10911 L 11019,10761"/>
 <path fill="none" stroke="rgb(0,0,0)" stroke-width="30" stroke-linejoin="round" d="M 11019,10911 L 11019,10761"/>
 <path fill="none" stroke="rgb(0,0,0)" stroke-width="30" stroke-linejoin="round" d="M 11137,10911 L 11137,10761"/>
 <path fill="none" stroke="rgb(0,0,0)" stroke-width="30" stroke-linejoin="round" d="M 11137,10911 L 11137,10761"/>
 <path fill="none" stroke="rgb(0,0,0)" stroke-width="30" stroke-linejoin="round" d="M 11256,10911 L 11256,10761"/>
 <path fill="none" stroke="rgb(0,0,0)" stroke-width="30" stroke-linejoin="round" d="M 11256,10911 L 11256,10761"/>
 <path fill="none" stroke="rgb(0,0,0)" stroke-width="30" stroke-linejoin="round" d="M 11374,10911 L 11374,10761"/>
 <path fill="none" stroke="rgb(0,0,0)" stroke-width="30" stroke-linejoin="round" d="M 11374,10911 L 11374,10761"/>
 <path fill="none" stroke="rgb(0,0,0)" stroke-width="30" stroke-linejoin="round" d="M 11493,10911 L 11493,10761"/>
 <path fill="none" stroke="rgb(0,0,0)" stroke-width="30" stroke-linejoin="round" d="M 11493,10911 L 11493,10761"/>
 <path fill="none" stroke="rgb(0,0,0)" stroke-width="30" stroke-linejoin="round" d="M 11611,10911 L 11611,10761"/>
 <path fill="none" stroke="rgb(0,0,0)" stroke-width="30" stroke-linejoin="round" d="M 11611,10911 L 11611,10761"/>
 <path fill="none" stroke="rgb(0,0,0)" stroke-width="30" stroke-linejoin="round" d="M 11729,10911 L 11729,10761"/>
 <path fill="none" stroke="rgb(0,0,0)" stroke-width="30" stroke-linejoin="round" d="M 11729,10911 L 11729,10761"/>
 <path fill="none" stroke="rgb(0,0,0)" stroke-width="30" stroke-linejoin="round" d="M 11848,10911 L 11848,10761"/>
 <path fill="none" stroke="rgb(0,0,0)" stroke-width="30" stroke-linejoin="round" d="M 11848,10911 L 11848,10761"/>
 <path fill="none" stroke="rgb(0,0,0)" stroke-width="30" stroke-linejoin="round" d="M 11966,10911 L 11966,10761"/>
 <path fill="none" stroke="rgb(0,0,0)" stroke-width="30" stroke-linejoin="round" d="M 11966,10911 L 11966,10761"/>
 <path fill="none" stroke="rgb(0,0,0)" stroke-width="30" stroke-linejoin="round" d="M 12085,10911 L 12085,10761"/>
 <path fill="none" stroke="rgb(0,0,0)" stroke-width="30" stroke-linejoin="round" d="M 12085,10911 L 12085,10761"/>
 <path fill="none" stroke="rgb(0,0,0)" stroke-width="30" stroke-linejoin="round" d="M 12203,10911 L 12203,10761"/>
 <path fill="none" stroke="rgb(0,0,0)" stroke-width="30" stroke-linejoin="round" d="M 12203,10911 L 12203,10761"/>
 <path fill="none" stroke="rgb(0,0,0)" stroke-width="30" stroke-linejoin="round" d="M 12322,10911 L 12322,10761"/>
 <path fill="none" stroke="rgb(0,0,0)" stroke-width="30" stroke-linejoin="round" d="M 12322,10911 L 12322,10761"/>
 <path fill="none" stroke="rgb(0,0,0)" stroke-width="30" stroke-linejoin="round" d="M 12440,10911 L 12440,10761"/>
 <path fill="none" stroke="rgb(0,0,0)" stroke-width="30" stroke-linejoin="round" d="M 12440,10911 L 12440,10761"/>
 <path fill="none" stroke="rgb(0,0,0)" stroke-width="30" stroke-linejoin="round" d="M 12558,10911 L 12558,10761"/>
 <path fill="none" stroke="rgb(0,0,0)" stroke-width="30" stroke-linejoin="round" d="M 12558,10911 L 12558,10761"/>
 <path fill="none" stroke="rgb(0,0,0)" stroke-width="30" stroke-linejoin="round" d="M 12677,10911 L 12677,10761"/>
 <path fill="none" stroke="rgb(0,0,0)" stroke-width="30" stroke-linejoin="round" d="M 12677,10911 L 12677,10761"/>
 <path fill="none" stroke="rgb(0,0,0)" stroke-width="30" stroke-linejoin="round" d="M 12795,10911 L 12795,10761"/>
 <path fill="none" stroke="rgb(0,0,0)" stroke-width="30" stroke-linejoin="round" d="M 12795,10911 L 12795,10761"/>
 <path fill="none" stroke="rgb(0,0,0)" stroke-width="30" stroke-linejoin="round" d="M 12914,10911 L 12914,10761"/>
 <path fill="none" stroke="rgb(0,0,0)" stroke-width="30" stroke-linejoin="round" d="M 12914,10911 L 12914,10761"/>
 <path fill="none" stroke="rgb(0,0,0)" stroke-width="30" stroke-linejoin="round" d="M 13032,10911 L 13032,10761"/>
 <path fill="none" stroke="rgb(0,0,0)" stroke-width="30" stroke-linejoin="round" d="M 13032,10911 L 13032,10761"/>
 <path fill="none" stroke="rgb(0,0,0)" stroke-width="30" stroke-linejoin="round" d="M 13151,10911 L 13151,10761"/>
 <path fill="none" stroke="rgb(0,0,0)" stroke-width="30" stroke-linejoin="round" d="M 13151,10911 L 13151,10761"/>
 <path fill="none" stroke="rgb(0,0,0)" stroke-width="30" stroke-linejoin="round" d="M 13269,10911 L 13269,10761"/>
 <path fill="none" stroke="rgb(0,0,0)" stroke-width="30" stroke-linejoin="round" d="M 13269,10911 L 13269,10761"/>
 <path fill="none" stroke="rgb(0,0,0)" stroke-width="30" stroke-linejoin="round" d="M 13387,10911 L 13387,10761"/>
 <path fill="none" stroke="rgb(0,0,0)" stroke-width="30" stroke-linejoin="round" d="M 13387,10911 L 13387,10761"/>
 <path fill="none" stroke="rgb(0,0,0)" stroke-width="30" stroke-linejoin="round" d="M 13506,10911 L 13506,10761"/>
 <path fill="none" stroke="rgb(0,0,0)" stroke-width="30" stroke-linejoin="round" d="M 13506,10911 L 13506,10761"/>
 <path fill="none" stroke="rgb(0,0,0)" stroke-width="30" stroke-linejoin="round" d="M 13624,10911 L 13624,10761"/>
 <path fill="none" stroke="rgb(0,0,0)" stroke-width="30" stroke-linejoin="round" d="M 13624,10911 L 13624,10761"/>
 <path fill="none" stroke="rgb(0,0,0)" stroke-width="30" stroke-linejoin="round" d="M 13743,10911 L 13743,10761"/>
 <path fill="none" stroke="rgb(0,0,0)" stroke-width="30" stroke-linejoin="round" d="M 13743,10911 L 13743,10761"/>
 <path fill="none" stroke="rgb(0,0,0)" stroke-width="30" stroke-linejoin="round" d="M 13861,10911 L 13861,10761"/>
 <path fill="none" stroke="rgb(0,0,0)" stroke-width="30" stroke-linejoin="round" d="M 13861,10911 L 13861,10761"/>
 <path fill="none" stroke="rgb(0,0,0)" stroke-width="30" stroke-linejoin="round" d="M 13980,10911 L 13980,10761"/>
 <path fill="none" stroke="rgb(0,0,0)" stroke-width="30" stroke-linejoin="round" d="M 13980,10911 L 13980,10761"/>
 <path fill="none" stroke="rgb(0,0,0)" stroke-width="30" stroke-linejoin="round" d="M 14098,10911 L 14098,10761"/>
 <path fill="none" stroke="rgb(0,0,0)" stroke-width="30" stroke-linejoin="round" d="M 14098,10911 L 14098,10761"/>
 <path fill="none" stroke="rgb(0,0,0)" stroke-width="30" stroke-linejoin="round" d="M 14216,10911 L 14216,10761"/>
 <path fill="none" stroke="rgb(0,0,0)" stroke-width="30" stroke-linejoin="round" d="M 14216,10911 L 14216,10761"/>
 <path fill="none" stroke="rgb(0,0,0)" stroke-width="30" stroke-linejoin="round" d="M 14335,10911 L 14335,10761"/>
 <path fill="none" stroke="rgb(0,0,0)" stroke-width="30" stroke-linejoin="round" d="M 14335,10911 L 14335,10761"/>
 <path fill="none" stroke="rgb(0,0,0)" stroke-width="30" stroke-linejoin="round" d="M 14453,10911 L 14453,10761"/>
 <path fill="none" stroke="rgb(0,0,0)" stroke-width="30" stroke-linejoin="round" d="M 14453,10911 L 14453,10761"/>
 <path fill="none" stroke="rgb(0,0,0)" stroke-width="30" stroke-linejoin="round" d="M 14572,10911 L 14572,10761"/>
 <path fill="none" stroke="rgb(0,0,0)" stroke-width="30" stroke-linejoin="round" d="M 14572,10911 L 14572,10761"/>
 <path fill="none" stroke="rgb(0,0,0)" stroke-width="30" stroke-linejoin="round" d="M 14690,10911 L 14690,10761"/>
 <path fill="none" stroke="rgb(0,0,0)" stroke-width="30" stroke-linejoin="round" d="M 14690,10911 L 14690,10761"/>
 <path fill="none" stroke="rgb(0,0,0)" stroke-width="30" stroke-linejoin="round" d="M 14809,10911 L 14809,10761"/>
 <path fill="none" stroke="rgb(0,0,0)" stroke-width="30" stroke-linejoin="round" d="M 14809,10911 L 14809,10761"/>
 <path fill="none" stroke="rgb(0,0,0)" stroke-width="30" stroke-linejoin="round" d="M 1428,10761 L 14809,10761"/>
 <path fill="none" stroke="rgb(0,0,0)" stroke-width="30" stroke-linejoin="round" d="M 1278,10761 L 1428,10761"/>
 <path fill="none" stroke="rgb(0,0,0)" stroke-width="30" stroke-linejoin="round" d="M 1278,10761 L 1428,10761"/>
 <path fill="none" stroke="rgb(0,0,0)" stroke-width="30" stroke-linejoin="round" d="M 1278,9794 L 1428,9794"/>
 <path fill="none" stroke="rgb(0,0,0)" stroke-width="30" stroke-linejoin="round" d="M 1278,9794 L 1428,9794"/>
 <path fill="none" stroke="rgb(0,0,0)" stroke-width="30" stroke-linejoin="round" d="M 1278,8827 L 1428,8827"/>
 <path fill="none" stroke="rgb(0,0,0)" stroke-width="30" stroke-linejoin="round" d="M 1278,8827 L 1428,8827"/>
 <path fill="none" stroke="rgb(0,0,0)" stroke-width="30" stroke-linejoin="round" d="M 1278,7860 L 1428,7860"/>
 <path fill="none" stroke="rgb(0,0,0)" stroke-width="30" stroke-linejoin="round" d="M 1278,7860 L 1428,7860"/>
 <path fill="none" stroke="rgb(0,0,0)" stroke-width="30" stroke-linejoin="round" d="M 1278,6893 L 1428,6893"/>
 <path fill="none" stroke="rgb(0,0,0)" stroke-width="30" stroke-linejoin="round" d="M 1278,6893 L 1428,6893"/>
 <path fill="none" stroke="rgb(0,0,0)" stroke-width="30" stroke-linejoin="round" d="M 1278,5927 L 1428,5927"/>
 <path fill="none" stroke="rgb(0,0,0)" stroke-width="30" stroke-linejoin="round" d="M 1278,5927 L 1428,5927"/>
 <path fill="none" stroke="rgb(0,0,0)" stroke-width="30" stroke-linejoin="round" d="M 1278,4959 L 1428,4959"/>
 <path fill="none" stroke="rgb(0,0,0)" stroke-width="30" stroke-linejoin="round" d="M 1278,4959 L 1428,4959"/>
 <path fill="none" stroke="rgb(0,0,0)" stroke-width="30" stroke-linejoin="round" d="M 1278,3992 L 1428,3992"/>
 <path fill="none" stroke="rgb(0,0,0)" stroke-width="30" stroke-linejoin="round" d="M 1278,3992 L 1428,3992"/>
 <path fill="none" stroke="rgb(0,0,0)" stroke-width="30" stroke-linejoin="round" d="M 1278,3026 L 1428,3026"/>
 <path fill="none" stroke="rgb(0,0,0)" stroke-width="30" stroke-linejoin="round" d="M 1278,3026 L 1428,3026"/>
 <path fill="none" stroke="rgb(0,0,0)" stroke-width="30" stroke-linejoin="round" d="M 1278,2059 L 1428,2059"/>
 <path fill="none" stroke="rgb(0,0,0)" stroke-width="30" stroke-linejoin="round" d="M 1278,2059 L 1428,2059"/>
 <path fill="none" stroke="rgb(0,0,0)" stroke-width="30" stroke-linejoin="round" d="M 1278,1092 L 1428,1092"/>
 <path fill="none" stroke="rgb(0,0,0)" stroke-width="30" stroke-linejoin="round" d="M 1278,1092 L 1428,1092"/>
 <path fill="none" stroke="rgb(0,0,0)" stroke-width="30" stroke-linejoin="round" d="M 1428,10761 L 1428,1092"/>
 <path fill="none" stroke="rgb(0,0,0)" stroke-width="30" stroke-linejoin="round" d="M 14959,10761 L 14809,10761"/>
 <path fill="none" stroke="rgb(0,0,0)" stroke-width="30" stroke-linejoin="round" d="M 14959,10761 L 14809,10761"/>
 <path fill="none" stroke="rgb(0,0,0)" stroke-width="30" stroke-linejoin="round" d="M 14959,9794 L 14809,9794"/>
 <path fill="none" stroke="rgb(0,0,0)" stroke-width="30" stroke-linejoin="round" d="M 14959,9794 L 14809,9794"/>
 <path fill="none" stroke="rgb(0,0,0)" stroke-width="30" stroke-linejoin="round" d="M 14959,8827 L 14809,8827"/>
 <path fill="none" stroke="rgb(0,0,0)" stroke-width="30" stroke-linejoin="round" d="M 14959,8827 L 14809,8827"/>
 <path fill="none" stroke="rgb(0,0,0)" stroke-width="30" stroke-linejoin="round" d="M 14959,7860 L 14809,7860"/>
 <path fill="none" stroke="rgb(0,0,0)" stroke-width="30" stroke-linejoin="round" d="M 14959,7860 L 14809,7860"/>
 <path fill="none" stroke="rgb(0,0,0)" stroke-width="30" stroke-linejoin="round" d="M 14959,6893 L 14809,6893"/>
 <path fill="none" stroke="rgb(0,0,0)" stroke-width="30" stroke-linejoin="round" d="M 14959,6893 L 14809,6893"/>
 <path fill="none" stroke="rgb(0,0,0)" stroke-width="30" stroke-linejoin="round" d="M 14959,5927 L 14809,5927"/>
 <path fill="none" stroke="rgb(0,0,0)" stroke-width="30" stroke-linejoin="round" d="M 14959,5927 L 14809,5927"/>
 <path fill="none" stroke="rgb(0,0,0)" stroke-width="30" stroke-linejoin="round" d="M 14959,4959 L 14809,4959"/>
 <path fill="none" stroke="rgb(0,0,0)" stroke-width="30" stroke-linejoin="round" d="M 14959,4959 L 14809,4959"/>
 <path fill="none" stroke="rgb(0,0,0)" stroke-width="30" stroke-linejoin="round" d="M 14959,3992 L 14809,3992"/>
 <path fill="none" stroke="rgb(0,0,0)" stroke-width="30" stroke-linejoin="round" d="M 14959,3992 L 14809,3992"/>
 <path fill="none" stroke="rgb(0,0,0)" stroke-width="30" stroke-linejoin="round" d="M 14959,3026 L 14809,3026"/>
 <path fill="none" stroke="rgb(0,0,0)" stroke-width="30" stroke-linejoin="round" d="M 14959,3026 L 14809,3026"/>
 <path fill="none" stroke="rgb(0,0,0)" stroke-width="30" stroke-linejoin="round" d="M 14959,2059 L 14809,2059"/>
 <path fill="none" stroke="rgb(0,0,0)" stroke-width="30" stroke-linejoin="round" d="M 14959,2059 L 14809,2059"/>
 <path fill="none" stroke="rgb(0,0,0)" stroke-width="30" stroke-linejoin="round" d="M 14959,1092 L 14809,1092"/>
 <path fill="none" stroke="rgb(0,0,0)" stroke-width="30" stroke-linejoin="round" d="M 14959,1092 L 14809,1092"/>
 <path fill="none" stroke="rgb(0,0,0)" stroke-width="30" stroke-linejoin="round" d="M 14809,10761 L 14809,1092"/>
 <path fill="rgb(0,69,134)" stroke="none" d="M 1428,9454 L 1546,9499 1664,9450 1783,9420 1901,9489 2020,9466 2138,9448 2256,9463 2375,9459 2493,9445 2612,9434 2730,9445 2849,9476 2967,9476 3085,9493 3204,9488 3322,9497 3441,9496 3559,9505 3678,9512 3796,9520 3914,9552 4033,9530 4151,9556 4270,9575 4388,9585 4507,9597 4625,9582 4743,9586 4862,9580 4980,9554 5099,9527 5217,9558 5336,9565 5454,9559 5572,9588 5691,9611 5809,9642 5928,9694 6046,9660 6164,9622 6283,9648 6401,9643 6520,9669 6638,9740 6757,9722 6875,9708 6993,9712 7112,9742 7230,9790 7349,9801 7467,9803 7586,9849 7704,9895 7822,9880 7941,9894 8059,9903 8178,9913 8295,9939 8414,9947 8532,9979 8650,10063 8769,10042 8887,10039 9006,10047 9124,10031 9243,10015 9361,10048 9479,10073 9598,10111 9716,10109 9835,10095 9953,10112 10072,10153 10190,10146 10308,10138 10427,10151 10545,10131 10664,10093 10782,10061 10900,10046 11019,10085 11137,10063 11256,10109 11374,10145 11493,10160 11611,10200 11729,10200 11848,10202 11966,10210 12085,10231 12203,10237 12322,10257 12440,10272 12558,10271 12677,10274 12795,10319 12914,10354 13032,10371 13151,10350 13269,10371 13387,10394 13506,10398 13624,10405 13743,10422 13861,10417 13980,10427 14098,10438 14216,10457 14335,10486 14453,10496 14572,10483 14690,10486 14809,10493 14809,10761 1428,10761 1428,9454 Z"/>
 <path fill="none" stroke="rgb(0,0,0)" stroke-linejoin="round" d="M 1428,9454 L 1546,9499 1664,9450 1783,9420 1901,9489 2020,9466 2138,9448 2256,9463 2375,9459 2493,9445 2612,9434 2730,9445 2849,9476 2967,9476 3085,9493 3204,9488 3322,9497 3441,9496 3559,9505 3678,9512 3796,9520 3914,9552 4033,9530 4151,9556 4270,9575 4388,9585 4507,9597 4625,9582 4743,9586 4862,9580 4980,9554 5099,9527 5217,9558 5336,9565 5454,9559 5572,9588 5691,9611 5809,9642 5928,9694 6046,9660 6164,9622 6283,9648 6401,9643 6520,9669 6638,9740 6757,9722 6875,9708 6993,9712 7112,9742 7230,9790 7349,9801 7467,9803 7586,9849 7704,9895 7822,9880 7941,9894 8059,9903 8178,9913 8295,9939 8414,9947 8532,9979 8650,10063 8769,10042 8887,10039 9006,10047 9124,10031 9243,10015 9361,10048 9479,10073 9598,10111 9716,10109 9835,10095 9953,10112 10072,10153 10190,10146 10308,10138 10427,10151 10545,10131 10664,10093 10782,10061 10900,10046 11019,10085 11137,10063 11256,10109 11374,10145 11493,10160 11611,10200 11729,10200 11848,10202 11966,10210 12085,10231 12203,10237 12322,10257 12440,10272 12558,10271 12677,10274 12795,10319 12914,10354 13032,10371 13151,10350 13269,10371 13387,10394 13506,10398 13624,10405 13743,10422 13861,10417 13980,10427 14098,10438 14216,10457 14335,10486 14453,10496 14572,10483 14690,10486 14809,10493 14809,10761 1428,10761 1428,9454 Z"/>
 <path fill="rgb(255,66,14)" stroke="none" d="M 1428,3687 L 1546,3793 1664,3927 1783,3993 1901,4124 2020,4074 2138,4255 2256,4373 2375,4428 2493,4537 2612,4630 2730,4679 2849,4862 2967,4973 3085,5131 3204,5165 3322,5242 3441,5317 3559,5378 3678,5462 3796,5535 3914,5639 4033,5707 4151,5773 4270,5912 4388,6016 4507,6214 4625,6254 4743,6352 4862,6431 4980,6422 5099,6428 5217,6520 5336,6629 5454,6664 5572,6727 5691,6754 5809,6856 5928,7017 6046,6990 6164,6988 6283,7074 6401,7101 6520,7169 6638,7293 6757,7346 6875,7378 6993,7511 7112,7479 7230,7420 7349,7465 7467,7532 7586,7596 7704,7595 7822,7675 7941,7798 8059,7845 8178,7887 8295,7868 8414,7952 8532,7968 8650,7891 8769,7973 8887,7878 9006,7935 9124,7981 9243,8001 9361,8023 9479,8026 9598,8214 9716,8256 9835,8324 9953,8341 10072,8386 10190,8385 10308,8431 10427,8482 10545,8494 10664,8511 10782,8482 10900,8314 11019,8473 11137,8530 11256,8607 11374,8651 11493,8668 11611,8588 11729,8588 11848,8807 11966,8881 12085,8920 12203,8950 12322,8976 12440,9008 12558,9101 12677,9108 12795,9159 12914,9173 13032,9230 13151,9263 13269,9325 13387,9273 13506,9324 13624,9385 13743,9383 13861,9469 13980,9525 14098,9489 14216,9561 14335,9516 14453,9541 14572,9543 14690,9535 14809,9504 14809,10493 14690,10486 14572,10483 14453,10496 14335,10486 14216,10457 14098,10438 13980,10427 13861,10417 13743,10422 13624,10405 13506,10398 13387,10394 13269,10371 13151,10350 13032,10371 12914,10354 12795,10319 12677,10274 12558,10271 12440,10272 12322,10257 12203,10237 12085,10231 11966,10210 11848,10202 11729,10200 11611,10200 11493,10160 11374,10145 11256,10109 11137,10063 11019,10085 10900,10046 10782,10061 10664,10093 10545,10131 10427,10151 10308,10138 10190,10146 10072,10153 9953,10112 9835,10095 9716,10109 9598,10111 9479,10073 9361,10048 9243,10015 9124,10031 9006,10047 8887,10039 8769,10042 8650,10063 8532,9979 8414,9947 8295,9939 8178,9913 8059,9903 7941,9894 7822,9880 7704,9895 7586,9849 7467,9803 7349,9801 7230,9790 7112,9742 6993,9712 6875,9708 6757,9722 6638,9740 6520,9669 6401,9643 6283,9648 6164,9622 6046,9660 5928,9694 5809,9642 5691,9611 5572,9588 5454,9559 5336,9565 5217,9558 5099,9527 4980,9554 4862,9580 4743,9586 4625,9582 4507,9597 4388,9585 4270,9575 4151,9556 4033,9530 3914,9552 3796,9520 3678,9512 3559,9505 3441,9496 3322,9497 3204,9488 3085,9493 2967,9476 2849,9476 2730,9445 2612,9434 2493,9445 2375,9459 2256,9463 2138,9448 2020,9466 1901,9489 1783,9420 1664,9450 1546,9499 1428,9454 1428,3687 Z"/>
 <path fill="none" stroke="rgb(0,0,0)" stroke-linejoin="round" d="M 1428,3687 L 1546,3793 1664,3927 1783,3993 1901,4124 2020,4074 2138,4255 2256,4373 2375,4428 2493,4537 2612,4630 2730,4679 2849,4862 2967,4973 3085,5131 3204,5165 3322,5242 3441,5317 3559,5378 3678,5462 3796,5535 3914,5639 4033,5707 4151,5773 4270,5912 4388,6016 4507,6214 4625,6254 4743,6352 4862,6431 4980,6422 5099,6428 5217,6520 5336,6629 5454,6664 5572,6727 5691,6754 5809,6856 5928,7017 6046,6990 6164,6988 6283,7074 6401,7101 6520,7169 6638,7293 6757,7346 6875,7378 6993,7511 7112,7479 7230,7420 7349,7465 7467,7532 7586,7596 7704,7595 7822,7675 7941,7798 8059,7845 8178,7887 8295,7868 8414,7952 8532,7968 8650,7891 8769,7973 8887,7878 9006,7935 9124,7981 9243,8001 9361,8023 9479,8026 9598,8214 9716,8256 9835,8324 9953,8341 10072,8386 10190,8385 10308,8431 10427,8482 10545,8494 10664,8511 10782,8482 10900,8314 11019,8473 11137,8530 11256,8607 11374,8651 11493,8668 11611,8588 11729,8588 11848,8807 11966,8881 12085,8920 12203,8950 12322,8976 12440,9008 12558,9101 12677,9108 12795,9159 12914,9173 13032,9230 13151,9263 13269,9325 13387,9273 13506,9324 13624,9385 13743,9383 13861,9469 13980,9525 14098,9489 14216,9561 14335,9516 14453,9541 14572,9543 14690,9535 14809,9504 14809,10493 14690,10486 14572,10483 14453,10496 14335,10486 14216,10457 14098,10438 13980,10427 13861,10417 13743,10422 13624,10405 13506,10398 13387,10394 13269,10371 13151,10350 13032,10371 12914,10354 12795,10319 12677,10274 12558,10271 12440,10272 12322,10257 12203,10237 12085,10231 11966,10210 11848,10202 11729,10200 11611,10200 11493,10160 11374,10145 11256,10109 11137,10063 11019,10085 10900,10046 10782,10061 10664,10093 10545,10131 10427,10151 10308,10138 10190,10146 10072,10153 9953,10112 9835,10095 9716,10109 9598,10111 9479,10073 9361,10048 9243,10015 9124,10031 9006,10047 8887,10039 8769,10042 8650,10063 8532,9979 8414,9947 8295,9939 8178,9913 8059,9903 7941,9894 7822,9880 7704,9895 7586,9849 7467,9803 7349,9801 7230,9790 7112,9742 6993,9712 6875,9708 6757,9722 6638,9740 6520,9669 6401,9643 6283,9648 6164,9622 6046,9660 5928,9694 5809,9642 5691,9611 5572,9588 5454,9559 5336,9565 5217,9558 5099,9527 4980,9554 4862,9580 4743,9586 4625,9582 4507,9597 4388,9585 4270,9575 4151,9556 4033,9530 3914,9552 3796,9520 3678,9512 3559,9505 3441,9496 3322,9497 3204,9488 3085,9493 2967,9476 2849,9476 2730,9445 2612,9434 2493,9445 2375,9459 2256,9463 2138,9448 2020,9466 1901,9489 1783,9420 1664,9450 1546,9499 1428,9454 1428,3687 Z"/>
 <path fill="rgb(255,211,32)" stroke="none" d="M 1428,1356 L 1546,1364 1664,1360 1783,1367 1901,1370 2020,1371 2138,1377 2256,1384 2375,1386 2493,1396 2612,1401 2730,1418 2849,1436 2967,1470 3085,1513 3204,1551 3322,1589 3441,1647 3559,1681 3678,1734 3796,1776 3914,1862 4033,1934 4151,2012 4270,2114 4388,2248 4507,2441 4625,2552 4743,2673 4862,2778 4980,2849 5099,2925 5217,3039 5336,3165 5454,3242 5572,3345 5691,3414 5809,3520 5928,3688 6046,3715 6164,3760 6283,3840 6401,3899 6520,4009 6638,4121 6757,4211 6875,4252 6993,4356 7112,4401 7230,4454 7349,4528 7467,4584 7586,4674 7704,4705 7822,4800 7941,4899 8059,4912 8178,4961 8295,5005 8414,5147 8532,5192 8650,5223 8769,5340 8887,5404 9006,5426 9124,5453 9243,5477 9361,5571 9479,5621 9598,5840 9716,5876 9835,5910 9953,5960 10072,6041 10190,6073 10308,6142 10427,6198 10545,6241 10664,6247 10782,6226 10900,6179 11019,6362 11137,6531 11256,6643 11374,6696 11493,6752 11611,6726 11729,6726 11848,6878 11966,6988 12085,7010 12203,7098 12322,7174 12440,7224 12558,7372 12677,7376 12795,7438 12914,7508 13032,7594 13151,7611 13269,7732 13387,7696 13506,7780 13624,7901 13743,7975 13861,8162 13980,8224 14098,8245 14216,8334 14335,8343 14453,8362 14572,8356 14690,8373 14809,8348 14809,9504 14690,9535 14572,9543 14453,9541 14335,9516 14216,9561 14098,9489 13980,9525 13861,9469 13743,9383 13624,9385 13506,9324 13387,9273 13269,9325 13151,9263 13032,9230 12914,9173 12795,9159 12677,9108 12558,9101 12440,9008 12322,8976 12203,8950 12085,8920 11966,8881 11848,8807 11729,8588 11611,8588 11493,8668 11374,8651 11256,8607 11137,8530 11019,8473 10900,8314 10782,8482 10664,8511 10545,8494 10427,8482 10308,8431 10190,8385 10072,8386 9953,8341 9835,8324 9716,8256 9598,8214 9479,8026 9361,8023 9243,8001 9124,7981 9006,7935 8887,7878 8769,7973 8650,7891 8532,7968 8414,7952 8295,7868 8178,7887 8059,7845 7941,7798 7822,7675 7704,7595 7586,7596 7467,7532 7349,7465 7230,7420 7112,7479 6993,7511 6875,7378 6757,7346 6638,7293 6520,7169 6401,7101 6283,7074 6164,6988 6046,6990 5928,7017 5809,6856 5691,6754 5572,6727 5454,6664 5336,6629 5217,6520 5099,6428 4980,6422 4862,6431 4743,6352 4625,6254 4507,6214 4388,6016 4270,5912 4151,5773 4033,5707 3914,5639 3796,5535 3678,5462 3559,5378 3441,5317 3322,5242 3204,5165 3085,5131 2967,4973 2849,4862 2730,4679 2612,4630 2493,4537 2375,4428 2256,4373 2138,4255 2020,4074 1901,4124 1783,3993 1664,3927 1546,3793 1428,3687 1428,1356 Z"/>
 <path fill="none" stroke="rgb(0,0,0)" stroke-linejoin="round" d="M 1428,1356 L 1546,1364 1664,1360 1783,1367 1901,1370 2020,1371 2138,1377 2256,1384 2375,1386 2493,1396 2612,1401 2730,1418 2849,1436 2967,1470 3085,1513 3204,1551 3322,1589 3441,1647 3559,1681 3678,1734 3796,1776 3914,1862 4033,1934 4151,2012 4270,2114 4388,2248 4507,2441 4625,2552 4743,2673 4862,2778 4980,2849 5099,2925 5217,3039 5336,3165 5454,3242 5572,3345 5691,3414 5809,3520 5928,3688 6046,3715 6164,3760 6283,3840 6401,3899 6520,4009 6638,4121 6757,4211 6875,4252 6993,4356 7112,4401 7230,4454 7349,4528 7467,4584 7586,4674 7704,4705 7822,4800 7941,4899 8059,4912 8178,4961 8295,5005 8414,5147 8532,5192 8650,5223 8769,5340 8887,5404 9006,5426 9124,5453 9243,5477 9361,5571 9479,5621 9598,5840 9716,5876 9835,5910 9953,5960 10072,6041 10190,6073 10308,6142 10427,6198 10545,6241 10664,6247 10782,6226 10900,6179 11019,6362 11137,6531 11256,6643 11374,6696 11493,6752 11611,6726 11729,6726 11848,6878 11966,6988 12085,7010 12203,7098 12322,7174 12440,7224 12558,7372 12677,7376 12795,7438 12914,7508 13032,7594 13151,7611 13269,7732 13387,7696 13506,7780 13624,7901 13743,7975 13861,8162 13980,8224 14098,8245 14216,8334 14335,8343 14453,8362 14572,8356 14690,8373 14809,8348 14809,9504 14690,9535 14572,9543 14453,9541 14335,9516 14216,9561 14098,9489 13980,9525 13861,9469 13743,9383 13624,9385 13506,9324 13387,9273 13269,9325 13151,9263 13032,9230 12914,9173 12795,9159 12677,9108 12558,9101 12440,9008 12322,8976 12203,8950 12085,8920 11966,8881 11848,8807 11729,8588 11611,8588 11493,8668 11374,8651 11256,8607 11137,8530 11019,8473 10900,8314 10782,8482 10664,8511 10545,8494 10427,8482 10308,8431 10190,8385 10072,8386 9953,8341 9835,8324 9716,8256 9598,8214 9479,8026 9361,8023 9243,8001 9124,7981 9006,7935 8887,7878 8769,7973 8650,7891 8532,7968 8414,7952 8295,7868 8178,7887 8059,7845 7941,7798 7822,7675 7704,7595 7586,7596 7467,7532 7349,7465 7230,7420 7112,7479 6993,7511 6875,7378 6757,7346 6638,7293 6520,7169 6401,7101 6283,7074 6164,6988 6046,6990 5928,7017 5809,6856 5691,6754 5572,6727 5454,6664 5336,6629 5217,6520 5099,6428 4980,6422 4862,6431 4743,6352 4625,6254 4507,6214 4388,6016 4270,5912 4151,5773 4033,5707 3914,5639 3796,5535 3678,5462 3559,5378 3441,5317 3322,5242 3204,5165 3085,5131 2967,4973 2849,4862 2730,4679 2612,4630 2493,4537 2375,4428 2256,4373 2138,4255 2020,4074 1901,4124 1783,3993 1664,3927 1546,3793 1428,3687 1428,1356 Z"/>
 <path fill="rgb(87,157,28)" stroke="none" d="M 1428,1127 L 1546,1125 1664,1121 1783,1125 1901,1123 2020,1128 2138,1128 2256,1128 2375,1124 2493,1130 2612,1132 2730,1136 2849,1131 2967,1139 3085,1142 3204,1149 3322,1152 3441,1164 3559,1171 3678,1179 3796,1172 3914,1182 4033,1193 4151,1206 4270,1215 4388,1222 4507,1233 4625,1248 4743,1258 4862,1275 4980,1274 5099,1281 5217,1305 5336,1330 5454,1342 5572,1347 5691,1345 5809,1362 5928,1373 6046,1397 6164,1390 6283,1411 6401,1428 6520,1446 6638,1476 6757,1515 6875,1513 6993,1518 7112,1529 7230,1549 7349,1559 7467,1571 7586,1592 7704,1594 7822,1623 7941,1625 8059,1619 8178,1599 8295,1591 8414,1605 8532,1583 8650,1580 8769,1577 8887,1600 9006,1554 9124,1562 9243,1579 9361,1592 9479,1625 9598,1707 9716,1689 9835,1651 9953,1587 10072,1600 10190,1606 10308,1597 10427,1576 10545,1583 10664,1630 10782,1574 10900,1558 11019,1531 11137,1560 11256,1586 11374,1589 11493,1585 11611,1576 11729,1576 11848,1625 11966,1629 12085,1619 12203,1596 12322,1574 12440,1555 12558,1550 12677,1560 12795,1548 12914,1558 13032,1576 13151,1619 13269,1619 13387,1614 13506,1628 13624,1648 13743,1645 13861,1660 13980,1696 14098,1701 14216,1723 14335,1675 14453,1627 14572,1613 14690,1597 14809,1631 14809,8348 14690,8373 14572,8356 14453,8362 14335,8343 14216,8334 14098,8245 13980,8224 13861,8162 13743,7975 13624,7901 13506,7780 13387,7696 13269,7732 13151,7611 13032,7594 12914,7508 12795,7438 12677,7376 12558,7372 12440,7224 12322,7174 12203,7098 12085,7010 11966,6988 11848,6878 11729,6726 11611,6726 11493,6752 11374,6696 11256,6643 11137,6531 11019,6362 10900,6179 10782,6226 10664,6247 10545,6241 10427,6198 10308,6142 10190,6073 10072,6041 9953,5960 9835,5910 9716,5876 9598,5840 9479,5621 9361,5571 9243,5477 9124,5453 9006,5426 8887,5404 8769,5340 8650,5223 8532,5192 8414,5147 8295,5005 8178,4961 8059,4912 7941,4899 7822,4800 7704,4705 7586,4674 7467,4584 7349,4528 7230,4454 7112,4401 6993,4356 6875,4252 6757,4211 6638,4121 6520,4009 6401,3899 6283,3840 6164,3760 6046,3715 5928,3688 5809,3520 5691,3414 5572,3345 5454,3242 5336,3165 5217,3039 5099,2925 4980,2849 4862,2778 4743,2673 4625,2552 4507,2441 4388,2248 4270,2114 4151,2012 4033,1934 3914,1862 3796,1776 3678,1734 3559,1681 3441,1647 3322,1589 3204,1551 3085,1513 2967,1470 2849,1436 2730,1418 2612,1401 2493,1396 2375,1386 2256,1384 2138,1377 2020,1371 1901,1370 1783,1367 1664,1360 1546,1364 1428,1356 1428,1127 Z"/>
 <path fill="none" stroke="rgb(0,0,0)" stroke-linejoin="round" d="M 1428,1127 L 1546,1125 1664,1121 1783,1125 1901,1123 2020,1128 2138,1128 2256,1128 2375,1124 2493,1130 2612,1132 2730,1136 2849,1131 2967,1139 3085,1142 3204,1149 3322,1152 3441,1164 3559,1171 3678,1179 3796,1172 3914,1182 4033,1193 4151,1206 4270,1215 4388,1222 4507,1233 4625,1248 4743,1258 4862,1275 4980,1274 5099,1281 5217,1305 5336,1330 5454,1342 5572,1347 5691,1345 5809,1362 5928,1373 6046,1397 6164,1390 6283,1411 6401,1428 6520,1446 6638,1476 6757,1515 6875,1513 6993,1518 7112,1529 7230,1549 7349,1559 7467,1571 7586,1592 7704,1594 7822,1623 7941,1625 8059,1619 8178,1599 8295,1591 8414,1605 8532,1583 8650,1580 8769,1577 8887,1600 9006,1554 9124,1562 9243,1579 9361,1592 9479,1625 9598,1707 9716,1689 9835,1651 9953,1587 10072,1600 10190,1606 10308,1597 10427,1576 10545,1583 10664,1630 10782,1574 10900,1558 11019,1531 11137,1560 11256,1586 11374,1589 11493,1585 11611,1576 11729,1576 11848,1625 11966,1629 12085,1619 12203,1596 12322,1574 12440,1555 12558,1550 12677,1560 12795,1548 12914,1558 13032,1576 13151,1619 13269,1619 13387,1614 13506,1628 13624,1648 13743,1645 13861,1660 13980,1696 14098,1701 14216,1723 14335,1675 14453,1627 14572,1613 14690,1597 14809,1631 14809,8348 14690,8373 14572,8356 14453,8362 14335,8343 14216,8334 14098,8245 13980,8224 13861,8162 13743,7975 13624,7901 13506,7780 13387,7696 13269,7732 13151,7611 13032,7594 12914,7508 12795,7438 12677,7376 12558,7372 12440,7224 12322,7174 12203,7098 12085,7010 11966,6988 11848,6878 11729,6726 11611,6726 11493,6752 11374,6696 11256,6643 11137,6531 11019,6362 10900,6179 10782,6226 10664,6247 10545,6241 10427,6198 10308,6142 10190,6073 10072,6041 9953,5960 9835,5910 9716,5876 9598,5840 9479,5621 9361,5571 9243,5477 9124,5453 9006,5426 8887,5404 8769,5340 8650,5223 8532,5192 8414,5147 8295,5005 8178,4961 8059,4912 7941,4899 7822,4800 7704,4705 7586,4674 7467,4584 7349,4528 7230,4454 7112,4401 6993,4356 6875,4252 6757,4211 6638,4121 6520,4009 6401,3899 6283,3840 6164,3760 6046,3715 5928,3688 5809,3520 5691,3414 5572,3345 5454,3242 5336,3165 5217,3039 5099,2925 4980,2849 4862,2778 4743,2673 4625,2552 4507,2441 4388,2248 4270,2114 4151,2012 4033,1934 3914,1862 3796,1776 3678,1734 3559,1681 3441,1647 3322,1589 3204,1551 3085,1513 2967,1470 2849,1436 2730,1418 2612,1401 2493,1396 2375,1386 2256,1384 2138,1377 2020,1371 1901,1370 1783,1367 1664,1360 1546,1364 1428,1356 1428,1127 Z"/>
 <path fill="rgb(126,0,33)" stroke="none" d="M 1428,1092 L 1546,1092 1664,1092 1783,1092 1901,1092 2020,1092 2138,1092 2256,1092 2375,1092 2493,1092 2612,1092 2730,1092 2849,1092 2967,1092 3085,1092 3204,1092 3322,1092 3441,1092 3559,1092 3678,1092 3796,1092 3914,1092 4033,1092 4151,1092 4270,1092 4388,1092 4507,1092 4625,1092 4743,1092 4862,1092 4980,1092 5099,1092 5217,1092 5336,1092 5454,1092 5572,1092 5691,1092 5809,1092 5928,1092 6046,1092 6164,1092 6283,1092 6401,1092 6520,1092 6638,1092 6757,1092 6875,1092 6993,1092 7112,1092 7230,1092 7349,1092 7467,1092 7586,1092 7704,1092 7822,1092 7941,1092 8059,1092 8178,1092 8295,1092 8414,1092 8532,1092 8650,1092 8769,1092 8887,1092 9006,1092 9124,1092 9243,1092 9361,1092 9479,1092 9598,1092 9716,1092 9835,1092 9953,1092 10072,1092 10190,1092 10308,1092 10427,1092 10545,1092 10664,1092 10782,1092 10900,1092 11019,1092 11137,1092 11256,1092 11374,1092 11493,1092 11611,1092 11729,1092 11848,1092 11966,1092 12085,1092 12203,1092 12322,1092 12440,1092 12558,1092 12677,1092 12795,1092 12914,1092 13032,1092 13151,1092 13269,1092 13387,1092 13506,1092 13624,1092 13743,1092 13861,1092 13980,1092 14098,1092 14216,1092 14335,1092 14453,1092 14572,1092 14690,1092 14809,1092 14809,1631 14690,1597 14572,1613 14453,1627 14335,1675 14216,1723 14098,1701 13980,1696 13861,1660 13743,1645 13624,1648 13506,1628 13387,1614 13269,1619 13151,1619 13032,1576 12914,1558 12795,1548 12677,1560 12558,1550 12440,1555 12322,1574 12203,1596 12085,1619 11966,1629 11848,1625 11729,1576 11611,1576 11493,1585 11374,1589 11256,1586 11137,1560 11019,1531 10900,1558 10782,1574 10664,1630 10545,1583 10427,1576 10308,1597 10190,1606 10072,1600 9953,1587 9835,1651 9716,1689 9598,1707 9479,1625 9361,1592 9243,1579 9124,1562 9006,1554 8887,1600 8769,1577 8650,1580 8532,1583 8414,1605 8295,1591 8178,1599 8059,1619 7941,1625 7822,1623 7704,1594 7586,1592 7467,1571 7349,1559 7230,1549 7112,1529 6993,1518 6875,1513 6757,1515 6638,1476 6520,1446 6401,1428 6283,1411 6164,1390 6046,1397 5928,1373 5809,1362 5691,1345 5572,1347 5454,1342 5336,1330 5217,1305 5099,1281 4980,1274 4862,1275 4743,1258 4625,1248 4507,1233 4388,1222 4270,1215 4151,1206 4033,1193 3914,1182 3796,1172 3678,1179 3559,1171 3441,1164 3322,1152 3204,1149 3085,1142 2967,1139 2849,1131 2730,1136 2612,1132 2493,1130 2375,1124 2256,1128 2138,1128 2020,1128 1901,1123 1783,1125 1664,1121 1546,1125 1428,1127 1428,1092 Z"/>
 <path fill="none" stroke="rgb(0,0,0)" stroke-linejoin="round" d="M 1428,1092 L 1546,1092 1664,1092 1783,1092 1901,1092 2020,1092 2138,1092 2256,1092 2375,1092 2493,1092 2612,1092 2730,1092 2849,1092 2967,1092 3085,1092 3204,1092 3322,1092 3441,1092 3559,1092 3678,1092 3796,1092 3914,1092 4033,1092 4151,1092 4270,1092 4388,1092 4507,1092 4625,1092 4743,1092 4862,1092 4980,1092 5099,1092 5217,1092 5336,1092 5454,1092 5572,1092 5691,1092 5809,1092 5928,1092 6046,1092 6164,1092 6283,1092 6401,1092 6520,1092 6638,1092 6757,1092 6875,1092 6993,1092 7112,1092 7230,1092 7349,1092 7467,1092 7586,1092 7704,1092 7822,1092 7941,1092 8059,1092 8178,1092 8295,1092 8414,1092 8532,1092 8650,1092 8769,1092 8887,1092 9006,1092 9124,1092 9243,1092 9361,1092 9479,1092 9598,1092 9716,1092 9835,1092 9953,1092 10072,1092 10190,1092 10308,1092 10427,1092 10545,1092 10664,1092 10782,1092 10900,1092 11019,1092 11137,1092 11256,1092 11374,1092 11493,1092 11611,1092 11729,1092 11848,1092 11966,1092 12085,1092 12203,1092 12322,1092 12440,1092 12558,1092 12677,1092 12795,1092 12914,1092 13032,1092 13151,1092 13269,1092 13387,1092 13506,1092 13624,1092 13743,1092 13861,1092 13980,1092 14098,1092 14216,1092 14335,1092 14453,1092 14572,1092 14690,1092 14809,1092 14809,1631 14690,1597 14572,1613 14453,1627 14335,1675 14216,1723 14098,1701 13980,1696 13861,1660 13743,1645 13624,1648 13506,1628 13387,1614 13269,1619 13151,1619 13032,1576 12914,1558 12795,1548 12677,1560 12558,1550 12440,1555 12322,1574 12203,1596 12085,1619 11966,1629 11848,1625 11729,1576 11611,1576 11493,1585 11374,1589 11256,1586 11137,1560 11019,1531 10900,1558 10782,1574 10664,1630 10545,1583 10427,1576 10308,1597 10190,1606 10072,1600 9953,1587 9835,1651 9716,1689 9598,1707 9479,1625 9361,1592 9243,1579 9124,1562 9006,1554 8887,1600 8769,1577 8650,1580 8532,1583 8414,1605 8295,1591 8178,1599 8059,1619 7941,1625 7822,1623 7704,1594 7586,1592 7467,1571 7349,1559 7230,1549 7112,1529 6993,1518 6875,1513 6757,1515 6638,1476 6520,1446 6401,1428 6283,1411 6164,1390 6046,1397 5928,1373 5809,1362 5691,1345 5572,1347 5454,1342 5336,1330 5217,1305 5099,1281 4980,1274 4862,1275 4743,1258 4625,1248 4507,1233 4388,1222 4270,1215 4151,1206 4033,1193 3914,1182 3796,1172 3678,1179 3559,1171 3441,1164 3322,1152 3204,1149 3085,1142 2967,1139 2849,1131 2730,1136 2612,1132 2493,1130 2375,1124 2256,1128 2138,1128 2020,1128 1901,1123 1783,1125 1664,1121 1546,1125 1428,1127 1428,1092 Z"/>
 <text class="TextShape"><tspan class="TextParagraph" font-family="Arial, sans-serif" font-size="388px" font-weight="400"><tspan class="TextPosition" x="1240" y="11355"><tspan fill="rgb(0,0,0)" stroke="none">2008</tspan></tspan></tspan></text>
 <text class="TextShape"><tspan class="TextParagraph" font-family="Arial, sans-serif" font-size="388px" font-weight="400"><tspan class="TextPosition" x="2661" y="11355"><tspan fill="rgb(0,0,0)" stroke="none">2009</tspan></tspan></tspan></text>
 <text class="TextShape"><tspan class="TextParagraph" font-family="Arial, sans-serif" font-size="388px" font-weight="400"><tspan class="TextPosition" x="4083" y="11355"><tspan fill="rgb(0,0,0)" stroke="none">2010</tspan></tspan></tspan></text>
 <text class="TextShape"><tspan class="TextParagraph" font-family="Arial, sans-serif" font-size="388px" font-weight="400"><tspan class="TextPosition" x="5518" y="11355"><tspan fill="rgb(0,0,0)" stroke="none">2011</tspan></tspan></tspan></text>
 <text class="TextShape"><tspan class="TextParagraph" font-family="Arial, sans-serif" font-size="388px" font-weight="400"><tspan class="TextPosition" x="6925" y="11355"><tspan fill="rgb(0,0,0)" stroke="none">2012</tspan></tspan></tspan></text>
 <text class="TextShape"><tspan class="TextParagraph" font-family="Arial, sans-serif" font-size="388px" font-weight="400"><tspan class="TextPosition" x="8346" y="11355"><tspan fill="rgb(0,0,0)" stroke="none">2013</tspan></tspan></tspan></text>
 <text class="TextShape"><tspan class="TextParagraph" font-family="Arial, sans-serif" font-size="388px" font-weight="400"><tspan class="TextPosition" x="9767" y="11355"><tspan fill="rgb(0,0,0)" stroke="none">2014</tspan></tspan></tspan></text>
 <text class="TextShape"><tspan class="TextParagraph" font-family="Arial, sans-serif" font-size="388px" font-weight="400"><tspan class="TextPosition" x="11188" y="11355"><tspan fill="rgb(0,0,0)" stroke="none">2015</tspan></tspan></tspan></text>
 <text class="TextShape"><tspan class="TextParagraph" font-family="Arial, sans-serif" font-size="388px" font-weight="400"><tspan class="TextPosition" x="12609" y="11355"><tspan fill="rgb(0,0,0)" stroke="none">2016</tspan></tspan></tspan></text>
 <text class="TextShape"><tspan class="TextParagraph" font-family="Arial, sans-serif" font-size="388px" font-weight="400"><tspan class="TextPosition" x="14030" y="11355"><tspan fill="rgb(0,0,0)" stroke="none">2017</tspan></tspan></tspan></text>
 <text class="TextShape"><tspan class="TextParagraph" font-family="Arial, sans-serif" font-size="388px" font-weight="400"><tspan class="TextPosition" x="622" y="10895"><tspan fill="rgb(0,0,0)" stroke="none">0%</tspan></tspan></tspan></text>
 <text class="TextShape"><tspan class="TextParagraph" font-family="Arial, sans-serif" font-size="388px" font-weight="400"><tspan class="TextPosition" x="411" y="9928"><tspan fill="rgb(0,0,0)" stroke="none">10%</tspan></tspan></tspan></text>
 <text class="TextShape"><tspan class="TextParagraph" font-family="Arial, sans-serif" font-size="388px" font-weight="400"><tspan class="TextPosition" x="411" y="8961"><tspan fill="rgb(0,0,0)" stroke="none">20%</tspan></tspan></tspan></text>
 <text class="TextShape"><tspan class="TextParagraph" font-family="Arial, sans-serif" font-size="388px" font-weight="400"><tspan class="TextPosition" x="411" y="7994"><tspan fill="rgb(0,0,0)" stroke="none">30%</tspan></tspan></tspan></text>
 <text class="TextShape"><tspan class="TextParagraph" font-family="Arial, sans-serif" font-size="388px" font-weight="400"><tspan class="TextPosition" x="411" y="7027"><tspan fill="rgb(0,0,0)" stroke="none">40%</tspan></tspan></tspan></text>
 <text class="TextShape"><tspan class="TextParagraph" font-family="Arial, sans-serif" font-size="388px" font-weight="400"><tspan class="TextPosition" x="411" y="6060"><tspan fill="rgb(0,0,0)" stroke="none">50%</tspan></tspan></tspan></text>
 <text class="TextShape"><tspan class="TextParagraph" font-family="Arial, sans-serif" font-size="388px" font-weight="400"><tspan class="TextPosition" x="411" y="5092"><tspan fill="rgb(0,0,0)" stroke="none">60%</tspan></tspan></tspan></text>
 <text class="TextShape"><tspan class="TextParagraph" font-family="Arial, sans-serif" font-size="388px" font-weight="400"><tspan class="TextPosition" x="411" y="4125"><tspan fill="rgb(0,0,0)" stroke="none">70%</tspan></tspan></tspan></text>
 <text class="TextShape"><tspan class="TextParagraph" font-family="Arial, sans-serif" font-size="388px" font-weight="400"><tspan class="TextPosition" x="411" y="3159"><tspan fill="rgb(0,0,0)" stroke="none">80%</tspan></tspan></tspan></text>
 <text class="TextShape"><tspan class="TextParagraph" font-family="Arial, sans-serif" font-size="388px" font-weight="400"><tspan class="TextPosition" x="411" y="2192"><tspan fill="rgb(0,0,0)" stroke="none">90%</tspan></tspan></tspan></text>
 <text class="TextShape"><tspan class="TextParagraph" font-family="Arial, sans-serif" font-size="388px" font-weight="400"><tspan class="TextPosition" x="199" y="1225"><tspan fill="rgb(0,0,0)" stroke="none">100%</tspan></tspan></tspan></text>
 <text class="TextShape"><tspan class="TextParagraph" font-family="Arial, sans-serif" font-size="388px" font-weight="400"><tspan class="TextPosition" x="15059" y="10895"><tspan fill="rgb(0,0,0)" stroke="none">0%</tspan></tspan></tspan></text>
 <text class="TextShape"><tspan class="TextParagraph" font-family="Arial, sans-serif" font-size="388px" font-weight="400"><tspan class="TextPosition" x="15059" y="9928"><tspan fill="rgb(0,0,0)" stroke="none">10%</tspan></tspan></tspan></text>
 <text class="TextShape"><tspan class="TextParagraph" font-family="Arial, sans-serif" font-size="388px" font-weight="400"><tspan class="TextPosition" x="15059" y="8961"><tspan fill="rgb(0,0,0)" stroke="none">20%</tspan></tspan></tspan></text>
 <text class="TextShape"><tspan class="TextParagraph" font-family="Arial, sans-serif" font-size="388px" font-weight="400"><tspan class="TextPosition" x="15059" y="7994"><tspan fill="rgb(0,0,0)" stroke="none">30%</tspan></tspan></tspan></text>
 <text class="TextShape"><tspan class="TextParagraph" font-family="Arial, sans-serif" font-size="388px" font-weight="400"><tspan class="TextPosition" x="15059" y="7027"><tspan fill="rgb(0,0,0)" stroke="none">40%</tspan></tspan></tspan></text>
 <text class="TextShape"><tspan class="TextParagraph" font-family="Arial, sans-serif" font-size="388px" font-weight="400"><tspan class="TextPosition" x="15059" y="6060"><tspan fill="rgb(0,0,0)" stroke="none">50%</tspan></tspan></tspan></text>
 <text class="TextShape"><tspan class="TextParagraph" font-family="Arial, sans-serif" font-size="388px" font-weight="400"><tspan class="TextPosition" x="15059" y="5092"><tspan fill="rgb(0,0,0)" stroke="none">60%</tspan></tspan></tspan></text>
 <text class="TextShape"><tspan class="TextParagraph" font-family="Arial, sans-serif" font-size="388px" font-weight="400"><tspan class="TextPosition" x="15059" y="4125"><tspan fill="rgb(0,0,0)" stroke="none">70%</tspan></tspan></tspan></text>
 <text class="TextShape"><tspan class="TextParagraph" font-family="Arial, sans-serif" font-size="388px" font-weight="400"><tspan class="TextPosition" x="15059" y="3159"><tspan fill="rgb(0,0,0)" stroke="none">80%</tspan></tspan></tspan></text>
 <text class="TextShape"><tspan class="TextParagraph" font-family="Arial, sans-serif" font-size="388px" font-weight="400"><tspan class="TextPosition" x="15059" y="2192"><tspan fill="rgb(0,0,0)" stroke="none">90%</tspan></tspan></tspan></text>
 <text class="TextShape"><tspan class="TextParagraph" font-family="Arial, sans-serif" font-size="388px" font-weight="400"><tspan class="TextPosition" x="15059" y="1225"><tspan fill="rgb(0,0,0)" stroke="none">100%</tspan></tspan></tspan></text>
 <text class="TextShape"><tspan class="TextParagraph" font-family="Liberation Sans, sans-serif" font-size="635px" font-weight="400"><tspan class="TextPosition" x="4936" y="747"><tspan fill="rgb(0,0,0)" stroke="none">Relacin de aspecto</tspan></tspan></tspan></text>
 <path fill="rgb(0,69,134)" stroke="none" d="M 4882,11835 L 4745,11835 4745,11560 5020,11560 5020,11835 4882,11835 Z"/>
 <path fill="none" stroke="rgb(0,0,0)" stroke-linejoin="round" d="M 4882,11835 L 4745,11835 4745,11560 5020,11560 5020,11835 4882,11835 Z"/>
 <path fill="rgb(255,66,14)" stroke="none" d="M 6170,11835 L 6033,11835 6033,11560 6308,11560 6308,11835 6170,11835 Z"/>
 <path fill="none" stroke="rgb(0,0,0)" stroke-linejoin="round" d="M 6170,11835 L 6033,11835 6033,11560 6308,11560 6308,11835 6170,11835 Z"/>
 <path fill="rgb(255,211,32)" stroke="none" d="M 7458,11835 L 7321,11835 7321,11560 7596,11560 7596,11835 7458,11835 Z"/>
 <path fill="none" stroke="rgb(0,0,0)" stroke-linejoin="round" d="M 7458,11835 L 7321,11835 7321,11560 7596,11560 7596,11835 7458,11835 Z"/>
 <path fill="rgb(87,157,28)" stroke="none" d="M 8746,11835 L 8608,11835 8608,11560 8883,11560 8883,11835 8746,11835 Z"/>
 <path fill="none" stroke="rgb(0,0,0)" stroke-linejoin="round" d="M 8746,11835 L 8608,11835 8608,11560 8883,11560 8883,11835 8746,11835 Z"/>
 <path fill="rgb(126,0,33)" stroke="none" d="M 10272,11835 L 10134,11835 10134,11560 10409,11560 10409,11835 10272,11835 Z"/>
 <path fill="none" stroke="rgb(0,0,0)" stroke-linejoin="round" d="M 10272,11835 L 10134,11835 10134,11560 10409,11560 10409,11835 10272,11835 Z"/>
 <text class="TextShape"><tspan class="TextParagraph" font-family="Arial, sans-serif" font-size="459px" font-weight="400"><tspan class="TextPosition" x="5120" y="11856"><tspan fill="rgb(0,0,0)" stroke="none">5:4</tspan></tspan></tspan></text>
 <text class="TextShape"><tspan class="TextParagraph" font-family="Arial, sans-serif" font-size="459px" font-weight="400"><tspan class="TextPosition" x="6408" y="11856"><tspan fill="rgb(0,0,0)" stroke="none">4:3</tspan></tspan></tspan></text>
 <text class="TextShape"><tspan class="TextParagraph" font-family="Arial, sans-serif" font-size="459px" font-weight="400"><tspan class="TextPosition" x="7696" y="11856"><tspan fill="rgb(0,0,0)" stroke="none">8:5</tspan></tspan></tspan></text>
 <text class="TextShape"><tspan class="TextParagraph" font-family="Arial, sans-serif" font-size="459px" font-weight="400"><tspan class="TextPosition" x="8983" y="11856"><tspan fill="rgb(0,0,0)" stroke="none">16:9</tspan></tspan></tspan></text>
 <text class="TextShape"><tspan class="TextParagraph" font-family="Arial, sans-serif" font-size="459px" font-weight="400"><tspan class="TextPosition" x="10509" y="11856"><tspan fill="rgb(0,0,0)" stroke="none">Otros</tspan></tspan></tspan></text>
</svg>
