<?xml version="1.0" encoding="UTF-8"?>
<!DOCTYPE svg PUBLIC "-//W3C//DTD SVG 1.1//EN" "http://www.w3.org/Graphics/SVG/1.1/DTD/svg11.dtd">
<svg width="164mm" height="122mm" viewBox="0 0 16400 12200" version="1.1" xmlns="http://www.w3.org/2000/svg" stroke-width="28.222" stroke-linejoin="round" xml:space="preserve">
 <path fill="rgb(255,255,255)" stroke="none" d="M 8187,12235 L 12,12235 12,0 16362,0 16362,12235 8187,12235 Z"/>
 <path fill="none" stroke="rgb(179,179,179)" stroke-linejoin="round" d="M 8164,10292 L 1307,10292 1307,952 15021,952 15021,10292 8164,10292 Z"/>
 <path fill="none" stroke="rgb(0,0,0)" stroke-width="20" stroke-linejoin="round" d="M 15021,10291 L 1307,10291"/>
 <path fill="none" stroke="rgb(0,0,0)" stroke-width="20" stroke-linejoin="round" d="M 15021,9356 L 1307,9356"/>
 <path fill="none" stroke="rgb(0,0,0)" stroke-width="20" stroke-linejoin="round" d="M 15021,8422 L 1307,8422"/>
 <path fill="none" stroke="rgb(0,0,0)" stroke-width="20" stroke-linejoin="round" d="M 15021,7488 L 1307,7488"/>
 <path fill="none" stroke="rgb(0,0,0)" stroke-width="20" stroke-linejoin="round" d="M 15021,6554 L 1307,6554"/>
 <path fill="none" stroke="rgb(0,0,0)" stroke-width="20" stroke-linejoin="round" d="M 15021,5621 L 1307,5621"/>
 <path fill="none" stroke="rgb(0,0,0)" stroke-width="20" stroke-linejoin="round" d="M 15021,4687 L 1307,4687"/>
 <path fill="none" stroke="rgb(0,0,0)" stroke-width="20" stroke-linejoin="round" d="M 15021,3753 L 1307,3753"/>
 <path fill="none" stroke="rgb(0,0,0)" stroke-width="20" stroke-linejoin="round" d="M 15021,2819 L 1307,2819"/>
 <path fill="none" stroke="rgb(0,0,0)" stroke-width="20" stroke-linejoin="round" d="M 15021,1885 L 1307,1885"/>
 <path fill="none" stroke="rgb(0,0,0)" stroke-width="20" stroke-linejoin="round" d="M 15021,951 L 1307,951"/>
 <path fill="none" stroke="rgb(0,0,0)" stroke-width="30" stroke-linejoin="round" d="M 1307,10441 L 1307,10291"/>
 <path fill="none" stroke="rgb(0,0,0)" stroke-width="30" stroke-linejoin="round" d="M 1307,10441 L 1307,10291"/>
 <path fill="none" stroke="rgb(0,0,0)" stroke-width="30" stroke-linejoin="round" d="M 1429,10441 L 1429,10291"/>
 <path fill="none" stroke="rgb(0,0,0)" stroke-width="30" stroke-linejoin="round" d="M 1429,10441 L 1429,10291"/>
 <path fill="none" stroke="rgb(0,0,0)" stroke-width="30" stroke-linejoin="round" d="M 1551,10441 L 1551,10291"/>
 <path fill="none" stroke="rgb(0,0,0)" stroke-width="30" stroke-linejoin="round" d="M 1551,10441 L 1551,10291"/>
 <path fill="none" stroke="rgb(0,0,0)" stroke-width="30" stroke-linejoin="round" d="M 1674,10441 L 1674,10291"/>
 <path fill="none" stroke="rgb(0,0,0)" stroke-width="30" stroke-linejoin="round" d="M 1674,10441 L 1674,10291"/>
 <path fill="none" stroke="rgb(0,0,0)" stroke-width="30" stroke-linejoin="round" d="M 1796,10441 L 1796,10291"/>
 <path fill="none" stroke="rgb(0,0,0)" stroke-width="30" stroke-linejoin="round" d="M 1796,10441 L 1796,10291"/>
 <path fill="none" stroke="rgb(0,0,0)" stroke-width="30" stroke-linejoin="round" d="M 1919,10441 L 1919,10291"/>
 <path fill="none" stroke="rgb(0,0,0)" stroke-width="30" stroke-linejoin="round" d="M 1919,10441 L 1919,10291"/>
 <path fill="none" stroke="rgb(0,0,0)" stroke-width="30" stroke-linejoin="round" d="M 2041,10441 L 2041,10291"/>
 <path fill="none" stroke="rgb(0,0,0)" stroke-width="30" stroke-linejoin="round" d="M 2041,10441 L 2041,10291"/>
 <path fill="none" stroke="rgb(0,0,0)" stroke-width="30" stroke-linejoin="round" d="M 2164,10441 L 2164,10291"/>
 <path fill="none" stroke="rgb(0,0,0)" stroke-width="30" stroke-linejoin="round" d="M 2164,10441 L 2164,10291"/>
 <path fill="none" stroke="rgb(0,0,0)" stroke-width="30" stroke-linejoin="round" d="M 2286,10441 L 2286,10291"/>
 <path fill="none" stroke="rgb(0,0,0)" stroke-width="30" stroke-linejoin="round" d="M 2286,10441 L 2286,10291"/>
 <path fill="none" stroke="rgb(0,0,0)" stroke-width="30" stroke-linejoin="round" d="M 2409,10441 L 2409,10291"/>
 <path fill="none" stroke="rgb(0,0,0)" stroke-width="30" stroke-linejoin="round" d="M 2409,10441 L 2409,10291"/>
 <path fill="none" stroke="rgb(0,0,0)" stroke-width="30" stroke-linejoin="round" d="M 2531,10441 L 2531,10291"/>
 <path fill="none" stroke="rgb(0,0,0)" stroke-width="30" stroke-linejoin="round" d="M 2531,10441 L 2531,10291"/>
 <path fill="none" stroke="rgb(0,0,0)" stroke-width="30" stroke-linejoin="round" d="M 2654,10441 L 2654,10291"/>
 <path fill="none" stroke="rgb(0,0,0)" stroke-width="30" stroke-linejoin="round" d="M 2654,10441 L 2654,10291"/>
 <path fill="none" stroke="rgb(0,0,0)" stroke-width="30" stroke-linejoin="round" d="M 2776,10441 L 2776,10291"/>
 <path fill="none" stroke="rgb(0,0,0)" stroke-width="30" stroke-linejoin="round" d="M 2776,10441 L 2776,10291"/>
 <path fill="none" stroke="rgb(0,0,0)" stroke-width="30" stroke-linejoin="round" d="M 2898,10441 L 2898,10291"/>
 <path fill="none" stroke="rgb(0,0,0)" stroke-width="30" stroke-linejoin="round" d="M 2898,10441 L 2898,10291"/>
 <path fill="none" stroke="rgb(0,0,0)" stroke-width="30" stroke-linejoin="round" d="M 3021,10441 L 3021,10291"/>
 <path fill="none" stroke="rgb(0,0,0)" stroke-width="30" stroke-linejoin="round" d="M 3021,10441 L 3021,10291"/>
 <path fill="none" stroke="rgb(0,0,0)" stroke-width="30" stroke-linejoin="round" d="M 3143,10441 L 3143,10291"/>
 <path fill="none" stroke="rgb(0,0,0)" stroke-width="30" stroke-linejoin="round" d="M 3143,10441 L 3143,10291"/>
 <path fill="none" stroke="rgb(0,0,0)" stroke-width="30" stroke-linejoin="round" d="M 3266,10441 L 3266,10291"/>
 <path fill="none" stroke="rgb(0,0,0)" stroke-width="30" stroke-linejoin="round" d="M 3266,10441 L 3266,10291"/>
 <path fill="none" stroke="rgb(0,0,0)" stroke-width="30" stroke-linejoin="round" d="M 3388,10441 L 3388,10291"/>
 <path fill="none" stroke="rgb(0,0,0)" stroke-width="30" stroke-linejoin="round" d="M 3388,10441 L 3388,10291"/>
 <path fill="none" stroke="rgb(0,0,0)" stroke-width="30" stroke-linejoin="round" d="M 3511,10441 L 3511,10291"/>
 <path fill="none" stroke="rgb(0,0,0)" stroke-width="30" stroke-linejoin="round" d="M 3511,10441 L 3511,10291"/>
 <path fill="none" stroke="rgb(0,0,0)" stroke-width="30" stroke-linejoin="round" d="M 3633,10441 L 3633,10291"/>
 <path fill="none" stroke="rgb(0,0,0)" stroke-width="30" stroke-linejoin="round" d="M 3633,10441 L 3633,10291"/>
 <path fill="none" stroke="rgb(0,0,0)" stroke-width="30" stroke-linejoin="round" d="M 3756,10441 L 3756,10291"/>
 <path fill="none" stroke="rgb(0,0,0)" stroke-width="30" stroke-linejoin="round" d="M 3756,10441 L 3756,10291"/>
 <path fill="none" stroke="rgb(0,0,0)" stroke-width="30" stroke-linejoin="round" d="M 3878,10441 L 3878,10291"/>
 <path fill="none" stroke="rgb(0,0,0)" stroke-width="30" stroke-linejoin="round" d="M 3878,10441 L 3878,10291"/>
 <path fill="none" stroke="rgb(0,0,0)" stroke-width="30" stroke-linejoin="round" d="M 4001,10441 L 4001,10291"/>
 <path fill="none" stroke="rgb(0,0,0)" stroke-width="30" stroke-linejoin="round" d="M 4001,10441 L 4001,10291"/>
 <path fill="none" stroke="rgb(0,0,0)" stroke-width="30" stroke-linejoin="round" d="M 4123,10441 L 4123,10291"/>
 <path fill="none" stroke="rgb(0,0,0)" stroke-width="30" stroke-linejoin="round" d="M 4123,10441 L 4123,10291"/>
 <path fill="none" stroke="rgb(0,0,0)" stroke-width="30" stroke-linejoin="round" d="M 4245,10441 L 4245,10291"/>
 <path fill="none" stroke="rgb(0,0,0)" stroke-width="30" stroke-linejoin="round" d="M 4245,10441 L 4245,10291"/>
 <path fill="none" stroke="rgb(0,0,0)" stroke-width="30" stroke-linejoin="round" d="M 4368,10441 L 4368,10291"/>
 <path fill="none" stroke="rgb(0,0,0)" stroke-width="30" stroke-linejoin="round" d="M 4368,10441 L 4368,10291"/>
 <path fill="none" stroke="rgb(0,0,0)" stroke-width="30" stroke-linejoin="round" d="M 4490,10441 L 4490,10291"/>
 <path fill="none" stroke="rgb(0,0,0)" stroke-width="30" stroke-linejoin="round" d="M 4490,10441 L 4490,10291"/>
 <path fill="none" stroke="rgb(0,0,0)" stroke-width="30" stroke-linejoin="round" d="M 4613,10441 L 4613,10291"/>
 <path fill="none" stroke="rgb(0,0,0)" stroke-width="30" stroke-linejoin="round" d="M 4613,10441 L 4613,10291"/>
 <path fill="none" stroke="rgb(0,0,0)" stroke-width="30" stroke-linejoin="round" d="M 4735,10441 L 4735,10291"/>
 <path fill="none" stroke="rgb(0,0,0)" stroke-width="30" stroke-linejoin="round" d="M 4735,10441 L 4735,10291"/>
 <path fill="none" stroke="rgb(0,0,0)" stroke-width="30" stroke-linejoin="round" d="M 4858,10441 L 4858,10291"/>
 <path fill="none" stroke="rgb(0,0,0)" stroke-width="30" stroke-linejoin="round" d="M 4858,10441 L 4858,10291"/>
 <path fill="none" stroke="rgb(0,0,0)" stroke-width="30" stroke-linejoin="round" d="M 4980,10441 L 4980,10291"/>
 <path fill="none" stroke="rgb(0,0,0)" stroke-width="30" stroke-linejoin="round" d="M 4980,10441 L 4980,10291"/>
 <path fill="none" stroke="rgb(0,0,0)" stroke-width="30" stroke-linejoin="round" d="M 5103,10441 L 5103,10291"/>
 <path fill="none" stroke="rgb(0,0,0)" stroke-width="30" stroke-linejoin="round" d="M 5103,10441 L 5103,10291"/>
 <path fill="none" stroke="rgb(0,0,0)" stroke-width="30" stroke-linejoin="round" d="M 5225,10441 L 5225,10291"/>
 <path fill="none" stroke="rgb(0,0,0)" stroke-width="30" stroke-linejoin="round" d="M 5225,10441 L 5225,10291"/>
 <path fill="none" stroke="rgb(0,0,0)" stroke-width="30" stroke-linejoin="round" d="M 5348,10441 L 5348,10291"/>
 <path fill="none" stroke="rgb(0,0,0)" stroke-width="30" stroke-linejoin="round" d="M 5348,10441 L 5348,10291"/>
 <path fill="none" stroke="rgb(0,0,0)" stroke-width="30" stroke-linejoin="round" d="M 5470,10441 L 5470,10291"/>
 <path fill="none" stroke="rgb(0,0,0)" stroke-width="30" stroke-linejoin="round" d="M 5470,10441 L 5470,10291"/>
 <path fill="none" stroke="rgb(0,0,0)" stroke-width="30" stroke-linejoin="round" d="M 5592,10441 L 5592,10291"/>
 <path fill="none" stroke="rgb(0,0,0)" stroke-width="30" stroke-linejoin="round" d="M 5592,10441 L 5592,10291"/>
 <path fill="none" stroke="rgb(0,0,0)" stroke-width="30" stroke-linejoin="round" d="M 5715,10441 L 5715,10291"/>
 <path fill="none" stroke="rgb(0,0,0)" stroke-width="30" stroke-linejoin="round" d="M 5715,10441 L 5715,10291"/>
 <path fill="none" stroke="rgb(0,0,0)" stroke-width="30" stroke-linejoin="round" d="M 5837,10441 L 5837,10291"/>
 <path fill="none" stroke="rgb(0,0,0)" stroke-width="30" stroke-linejoin="round" d="M 5837,10441 L 5837,10291"/>
 <path fill="none" stroke="rgb(0,0,0)" stroke-width="30" stroke-linejoin="round" d="M 5960,10441 L 5960,10291"/>
 <path fill="none" stroke="rgb(0,0,0)" stroke-width="30" stroke-linejoin="round" d="M 5960,10441 L 5960,10291"/>
 <path fill="none" stroke="rgb(0,0,0)" stroke-width="30" stroke-linejoin="round" d="M 6082,10441 L 6082,10291"/>
 <path fill="none" stroke="rgb(0,0,0)" stroke-width="30" stroke-linejoin="round" d="M 6082,10441 L 6082,10291"/>
 <path fill="none" stroke="rgb(0,0,0)" stroke-width="30" stroke-linejoin="round" d="M 6205,10441 L 6205,10291"/>
 <path fill="none" stroke="rgb(0,0,0)" stroke-width="30" stroke-linejoin="round" d="M 6205,10441 L 6205,10291"/>
 <path fill="none" stroke="rgb(0,0,0)" stroke-width="30" stroke-linejoin="round" d="M 6327,10441 L 6327,10291"/>
 <path fill="none" stroke="rgb(0,0,0)" stroke-width="30" stroke-linejoin="round" d="M 6327,10441 L 6327,10291"/>
 <path fill="none" stroke="rgb(0,0,0)" stroke-width="30" stroke-linejoin="round" d="M 6450,10441 L 6450,10291"/>
 <path fill="none" stroke="rgb(0,0,0)" stroke-width="30" stroke-linejoin="round" d="M 6450,10441 L 6450,10291"/>
 <path fill="none" stroke="rgb(0,0,0)" stroke-width="30" stroke-linejoin="round" d="M 6572,10441 L 6572,10291"/>
 <path fill="none" stroke="rgb(0,0,0)" stroke-width="30" stroke-linejoin="round" d="M 6572,10441 L 6572,10291"/>
 <path fill="none" stroke="rgb(0,0,0)" stroke-width="30" stroke-linejoin="round" d="M 6695,10441 L 6695,10291"/>
 <path fill="none" stroke="rgb(0,0,0)" stroke-width="30" stroke-linejoin="round" d="M 6695,10441 L 6695,10291"/>
 <path fill="none" stroke="rgb(0,0,0)" stroke-width="30" stroke-linejoin="round" d="M 6817,10441 L 6817,10291"/>
 <path fill="none" stroke="rgb(0,0,0)" stroke-width="30" stroke-linejoin="round" d="M 6817,10441 L 6817,10291"/>
 <path fill="none" stroke="rgb(0,0,0)" stroke-width="30" stroke-linejoin="round" d="M 6939,10441 L 6939,10291"/>
 <path fill="none" stroke="rgb(0,0,0)" stroke-width="30" stroke-linejoin="round" d="M 6939,10441 L 6939,10291"/>
 <path fill="none" stroke="rgb(0,0,0)" stroke-width="30" stroke-linejoin="round" d="M 7062,10441 L 7062,10291"/>
 <path fill="none" stroke="rgb(0,0,0)" stroke-width="30" stroke-linejoin="round" d="M 7062,10441 L 7062,10291"/>
 <path fill="none" stroke="rgb(0,0,0)" stroke-width="30" stroke-linejoin="round" d="M 7184,10441 L 7184,10291"/>
 <path fill="none" stroke="rgb(0,0,0)" stroke-width="30" stroke-linejoin="round" d="M 7184,10441 L 7184,10291"/>
 <path fill="none" stroke="rgb(0,0,0)" stroke-width="30" stroke-linejoin="round" d="M 7307,10441 L 7307,10291"/>
 <path fill="none" stroke="rgb(0,0,0)" stroke-width="30" stroke-linejoin="round" d="M 7307,10441 L 7307,10291"/>
 <path fill="none" stroke="rgb(0,0,0)" stroke-width="30" stroke-linejoin="round" d="M 7429,10441 L 7429,10291"/>
 <path fill="none" stroke="rgb(0,0,0)" stroke-width="30" stroke-linejoin="round" d="M 7429,10441 L 7429,10291"/>
 <path fill="none" stroke="rgb(0,0,0)" stroke-width="30" stroke-linejoin="round" d="M 7552,10441 L 7552,10291"/>
 <path fill="none" stroke="rgb(0,0,0)" stroke-width="30" stroke-linejoin="round" d="M 7552,10441 L 7552,10291"/>
 <path fill="none" stroke="rgb(0,0,0)" stroke-width="30" stroke-linejoin="round" d="M 7674,10441 L 7674,10291"/>
 <path fill="none" stroke="rgb(0,0,0)" stroke-width="30" stroke-linejoin="round" d="M 7674,10441 L 7674,10291"/>
 <path fill="none" stroke="rgb(0,0,0)" stroke-width="30" stroke-linejoin="round" d="M 7797,10441 L 7797,10291"/>
 <path fill="none" stroke="rgb(0,0,0)" stroke-width="30" stroke-linejoin="round" d="M 7797,10441 L 7797,10291"/>
 <path fill="none" stroke="rgb(0,0,0)" stroke-width="30" stroke-linejoin="round" d="M 7919,10441 L 7919,10291"/>
 <path fill="none" stroke="rgb(0,0,0)" stroke-width="30" stroke-linejoin="round" d="M 7919,10441 L 7919,10291"/>
 <path fill="none" stroke="rgb(0,0,0)" stroke-width="30" stroke-linejoin="round" d="M 8042,10441 L 8042,10291"/>
 <path fill="none" stroke="rgb(0,0,0)" stroke-width="30" stroke-linejoin="round" d="M 8042,10441 L 8042,10291"/>
 <path fill="none" stroke="rgb(0,0,0)" stroke-width="30" stroke-linejoin="round" d="M 8164,10441 L 8164,10291"/>
 <path fill="none" stroke="rgb(0,0,0)" stroke-width="30" stroke-linejoin="round" d="M 8164,10441 L 8164,10291"/>
 <path fill="none" stroke="rgb(0,0,0)" stroke-width="30" stroke-linejoin="round" d="M 8285,10441 L 8285,10291"/>
 <path fill="none" stroke="rgb(0,0,0)" stroke-width="30" stroke-linejoin="round" d="M 8285,10441 L 8285,10291"/>
 <path fill="none" stroke="rgb(0,0,0)" stroke-width="30" stroke-linejoin="round" d="M 8408,10441 L 8408,10291"/>
 <path fill="none" stroke="rgb(0,0,0)" stroke-width="30" stroke-linejoin="round" d="M 8408,10441 L 8408,10291"/>
 <path fill="none" stroke="rgb(0,0,0)" stroke-width="30" stroke-linejoin="round" d="M 8530,10441 L 8530,10291"/>
 <path fill="none" stroke="rgb(0,0,0)" stroke-width="30" stroke-linejoin="round" d="M 8530,10441 L 8530,10291"/>
 <path fill="none" stroke="rgb(0,0,0)" stroke-width="30" stroke-linejoin="round" d="M 8653,10441 L 8653,10291"/>
 <path fill="none" stroke="rgb(0,0,0)" stroke-width="30" stroke-linejoin="round" d="M 8653,10441 L 8653,10291"/>
 <path fill="none" stroke="rgb(0,0,0)" stroke-width="30" stroke-linejoin="round" d="M 8775,10441 L 8775,10291"/>
 <path fill="none" stroke="rgb(0,0,0)" stroke-width="30" stroke-linejoin="round" d="M 8775,10441 L 8775,10291"/>
 <path fill="none" stroke="rgb(0,0,0)" stroke-width="30" stroke-linejoin="round" d="M 8898,10441 L 8898,10291"/>
 <path fill="none" stroke="rgb(0,0,0)" stroke-width="30" stroke-linejoin="round" d="M 8898,10441 L 8898,10291"/>
 <path fill="none" stroke="rgb(0,0,0)" stroke-width="30" stroke-linejoin="round" d="M 9020,10441 L 9020,10291"/>
 <path fill="none" stroke="rgb(0,0,0)" stroke-width="30" stroke-linejoin="round" d="M 9020,10441 L 9020,10291"/>
 <path fill="none" stroke="rgb(0,0,0)" stroke-width="30" stroke-linejoin="round" d="M 9143,10441 L 9143,10291"/>
 <path fill="none" stroke="rgb(0,0,0)" stroke-width="30" stroke-linejoin="round" d="M 9143,10441 L 9143,10291"/>
 <path fill="none" stroke="rgb(0,0,0)" stroke-width="30" stroke-linejoin="round" d="M 9265,10441 L 9265,10291"/>
 <path fill="none" stroke="rgb(0,0,0)" stroke-width="30" stroke-linejoin="round" d="M 9265,10441 L 9265,10291"/>
 <path fill="none" stroke="rgb(0,0,0)" stroke-width="30" stroke-linejoin="round" d="M 9388,10441 L 9388,10291"/>
 <path fill="none" stroke="rgb(0,0,0)" stroke-width="30" stroke-linejoin="round" d="M 9388,10441 L 9388,10291"/>
 <path fill="none" stroke="rgb(0,0,0)" stroke-width="30" stroke-linejoin="round" d="M 9510,10441 L 9510,10291"/>
 <path fill="none" stroke="rgb(0,0,0)" stroke-width="30" stroke-linejoin="round" d="M 9510,10441 L 9510,10291"/>
 <path fill="none" stroke="rgb(0,0,0)" stroke-width="30" stroke-linejoin="round" d="M 9632,10441 L 9632,10291"/>
 <path fill="none" stroke="rgb(0,0,0)" stroke-width="30" stroke-linejoin="round" d="M 9632,10441 L 9632,10291"/>
 <path fill="none" stroke="rgb(0,0,0)" stroke-width="30" stroke-linejoin="round" d="M 9755,10441 L 9755,10291"/>
 <path fill="none" stroke="rgb(0,0,0)" stroke-width="30" stroke-linejoin="round" d="M 9755,10441 L 9755,10291"/>
 <path fill="none" stroke="rgb(0,0,0)" stroke-width="30" stroke-linejoin="round" d="M 9877,10441 L 9877,10291"/>
 <path fill="none" stroke="rgb(0,0,0)" stroke-width="30" stroke-linejoin="round" d="M 9877,10441 L 9877,10291"/>
 <path fill="none" stroke="rgb(0,0,0)" stroke-width="30" stroke-linejoin="round" d="M 10000,10441 L 10000,10291"/>
 <path fill="none" stroke="rgb(0,0,0)" stroke-width="30" stroke-linejoin="round" d="M 10000,10441 L 10000,10291"/>
 <path fill="none" stroke="rgb(0,0,0)" stroke-width="30" stroke-linejoin="round" d="M 10122,10441 L 10122,10291"/>
 <path fill="none" stroke="rgb(0,0,0)" stroke-width="30" stroke-linejoin="round" d="M 10122,10441 L 10122,10291"/>
 <path fill="none" stroke="rgb(0,0,0)" stroke-width="30" stroke-linejoin="round" d="M 10245,10441 L 10245,10291"/>
 <path fill="none" stroke="rgb(0,0,0)" stroke-width="30" stroke-linejoin="round" d="M 10245,10441 L 10245,10291"/>
 <path fill="none" stroke="rgb(0,0,0)" stroke-width="30" stroke-linejoin="round" d="M 10367,10441 L 10367,10291"/>
 <path fill="none" stroke="rgb(0,0,0)" stroke-width="30" stroke-linejoin="round" d="M 10367,10441 L 10367,10291"/>
 <path fill="none" stroke="rgb(0,0,0)" stroke-width="30" stroke-linejoin="round" d="M 10490,10441 L 10490,10291"/>
 <path fill="none" stroke="rgb(0,0,0)" stroke-width="30" stroke-linejoin="round" d="M 10490,10441 L 10490,10291"/>
 <path fill="none" stroke="rgb(0,0,0)" stroke-width="30" stroke-linejoin="round" d="M 10612,10441 L 10612,10291"/>
 <path fill="none" stroke="rgb(0,0,0)" stroke-width="30" stroke-linejoin="round" d="M 10612,10441 L 10612,10291"/>
 <path fill="none" stroke="rgb(0,0,0)" stroke-width="30" stroke-linejoin="round" d="M 10735,10441 L 10735,10291"/>
 <path fill="none" stroke="rgb(0,0,0)" stroke-width="30" stroke-linejoin="round" d="M 10735,10441 L 10735,10291"/>
 <path fill="none" stroke="rgb(0,0,0)" stroke-width="30" stroke-linejoin="round" d="M 10857,10441 L 10857,10291"/>
 <path fill="none" stroke="rgb(0,0,0)" stroke-width="30" stroke-linejoin="round" d="M 10857,10441 L 10857,10291"/>
 <path fill="none" stroke="rgb(0,0,0)" stroke-width="30" stroke-linejoin="round" d="M 10979,10441 L 10979,10291"/>
 <path fill="none" stroke="rgb(0,0,0)" stroke-width="30" stroke-linejoin="round" d="M 10979,10441 L 10979,10291"/>
 <path fill="none" stroke="rgb(0,0,0)" stroke-width="30" stroke-linejoin="round" d="M 11102,10441 L 11102,10291"/>
 <path fill="none" stroke="rgb(0,0,0)" stroke-width="30" stroke-linejoin="round" d="M 11102,10441 L 11102,10291"/>
 <path fill="none" stroke="rgb(0,0,0)" stroke-width="30" stroke-linejoin="round" d="M 11224,10441 L 11224,10291"/>
 <path fill="none" stroke="rgb(0,0,0)" stroke-width="30" stroke-linejoin="round" d="M 11224,10441 L 11224,10291"/>
 <path fill="none" stroke="rgb(0,0,0)" stroke-width="30" stroke-linejoin="round" d="M 11347,10441 L 11347,10291"/>
 <path fill="none" stroke="rgb(0,0,0)" stroke-width="30" stroke-linejoin="round" d="M 11347,10441 L 11347,10291"/>
 <path fill="none" stroke="rgb(0,0,0)" stroke-width="30" stroke-linejoin="round" d="M 11469,10441 L 11469,10291"/>
 <path fill="none" stroke="rgb(0,0,0)" stroke-width="30" stroke-linejoin="round" d="M 11469,10441 L 11469,10291"/>
 <path fill="none" stroke="rgb(0,0,0)" stroke-width="30" stroke-linejoin="round" d="M 11592,10441 L 11592,10291"/>
 <path fill="none" stroke="rgb(0,0,0)" stroke-width="30" stroke-linejoin="round" d="M 11592,10441 L 11592,10291"/>
 <path fill="none" stroke="rgb(0,0,0)" stroke-width="30" stroke-linejoin="round" d="M 11714,10441 L 11714,10291"/>
 <path fill="none" stroke="rgb(0,0,0)" stroke-width="30" stroke-linejoin="round" d="M 11714,10441 L 11714,10291"/>
 <path fill="none" stroke="rgb(0,0,0)" stroke-width="30" stroke-linejoin="round" d="M 11837,10441 L 11837,10291"/>
 <path fill="none" stroke="rgb(0,0,0)" stroke-width="30" stroke-linejoin="round" d="M 11837,10441 L 11837,10291"/>
 <path fill="none" stroke="rgb(0,0,0)" stroke-width="30" stroke-linejoin="round" d="M 11959,10441 L 11959,10291"/>
 <path fill="none" stroke="rgb(0,0,0)" stroke-width="30" stroke-linejoin="round" d="M 11959,10441 L 11959,10291"/>
 <path fill="none" stroke="rgb(0,0,0)" stroke-width="30" stroke-linejoin="round" d="M 12082,10441 L 12082,10291"/>
 <path fill="none" stroke="rgb(0,0,0)" stroke-width="30" stroke-linejoin="round" d="M 12082,10441 L 12082,10291"/>
 <path fill="none" stroke="rgb(0,0,0)" stroke-width="30" stroke-linejoin="round" d="M 12204,10441 L 12204,10291"/>
 <path fill="none" stroke="rgb(0,0,0)" stroke-width="30" stroke-linejoin="round" d="M 12204,10441 L 12204,10291"/>
 <path fill="none" stroke="rgb(0,0,0)" stroke-width="30" stroke-linejoin="round" d="M 12326,10441 L 12326,10291"/>
 <path fill="none" stroke="rgb(0,0,0)" stroke-width="30" stroke-linejoin="round" d="M 12326,10441 L 12326,10291"/>
 <path fill="none" stroke="rgb(0,0,0)" stroke-width="30" stroke-linejoin="round" d="M 12449,10441 L 12449,10291"/>
 <path fill="none" stroke="rgb(0,0,0)" stroke-width="30" stroke-linejoin="round" d="M 12449,10441 L 12449,10291"/>
 <path fill="none" stroke="rgb(0,0,0)" stroke-width="30" stroke-linejoin="round" d="M 12571,10441 L 12571,10291"/>
 <path fill="none" stroke="rgb(0,0,0)" stroke-width="30" stroke-linejoin="round" d="M 12571,10441 L 12571,10291"/>
 <path fill="none" stroke="rgb(0,0,0)" stroke-width="30" stroke-linejoin="round" d="M 12694,10441 L 12694,10291"/>
 <path fill="none" stroke="rgb(0,0,0)" stroke-width="30" stroke-linejoin="round" d="M 12694,10441 L 12694,10291"/>
 <path fill="none" stroke="rgb(0,0,0)" stroke-width="30" stroke-linejoin="round" d="M 12816,10441 L 12816,10291"/>
 <path fill="none" stroke="rgb(0,0,0)" stroke-width="30" stroke-linejoin="round" d="M 12816,10441 L 12816,10291"/>
 <path fill="none" stroke="rgb(0,0,0)" stroke-width="30" stroke-linejoin="round" d="M 12939,10441 L 12939,10291"/>
 <path fill="none" stroke="rgb(0,0,0)" stroke-width="30" stroke-linejoin="round" d="M 12939,10441 L 12939,10291"/>
 <path fill="none" stroke="rgb(0,0,0)" stroke-width="30" stroke-linejoin="round" d="M 13061,10441 L 13061,10291"/>
 <path fill="none" stroke="rgb(0,0,0)" stroke-width="30" stroke-linejoin="round" d="M 13061,10441 L 13061,10291"/>
 <path fill="none" stroke="rgb(0,0,0)" stroke-width="30" stroke-linejoin="round" d="M 13184,10441 L 13184,10291"/>
 <path fill="none" stroke="rgb(0,0,0)" stroke-width="30" stroke-linejoin="round" d="M 13184,10441 L 13184,10291"/>
 <path fill="none" stroke="rgb(0,0,0)" stroke-width="30" stroke-linejoin="round" d="M 13306,10441 L 13306,10291"/>
 <path fill="none" stroke="rgb(0,0,0)" stroke-width="30" stroke-linejoin="round" d="M 13306,10441 L 13306,10291"/>
 <path fill="none" stroke="rgb(0,0,0)" stroke-width="30" stroke-linejoin="round" d="M 13429,10441 L 13429,10291"/>
 <path fill="none" stroke="rgb(0,0,0)" stroke-width="30" stroke-linejoin="round" d="M 13429,10441 L 13429,10291"/>
 <path fill="none" stroke="rgb(0,0,0)" stroke-width="30" stroke-linejoin="round" d="M 13551,10441 L 13551,10291"/>
 <path fill="none" stroke="rgb(0,0,0)" stroke-width="30" stroke-linejoin="round" d="M 13551,10441 L 13551,10291"/>
 <path fill="none" stroke="rgb(0,0,0)" stroke-width="30" stroke-linejoin="round" d="M 13673,10441 L 13673,10291"/>
 <path fill="none" stroke="rgb(0,0,0)" stroke-width="30" stroke-linejoin="round" d="M 13673,10441 L 13673,10291"/>
 <path fill="none" stroke="rgb(0,0,0)" stroke-width="30" stroke-linejoin="round" d="M 13796,10441 L 13796,10291"/>
 <path fill="none" stroke="rgb(0,0,0)" stroke-width="30" stroke-linejoin="round" d="M 13796,10441 L 13796,10291"/>
 <path fill="none" stroke="rgb(0,0,0)" stroke-width="30" stroke-linejoin="round" d="M 13918,10441 L 13918,10291"/>
 <path fill="none" stroke="rgb(0,0,0)" stroke-width="30" stroke-linejoin="round" d="M 13918,10441 L 13918,10291"/>
 <path fill="none" stroke="rgb(0,0,0)" stroke-width="30" stroke-linejoin="round" d="M 14041,10441 L 14041,10291"/>
 <path fill="none" stroke="rgb(0,0,0)" stroke-width="30" stroke-linejoin="round" d="M 14041,10441 L 14041,10291"/>
 <path fill="none" stroke="rgb(0,0,0)" stroke-width="30" stroke-linejoin="round" d="M 14163,10441 L 14163,10291"/>
 <path fill="none" stroke="rgb(0,0,0)" stroke-width="30" stroke-linejoin="round" d="M 14163,10441 L 14163,10291"/>
 <path fill="none" stroke="rgb(0,0,0)" stroke-width="30" stroke-linejoin="round" d="M 14286,10441 L 14286,10291"/>
 <path fill="none" stroke="rgb(0,0,0)" stroke-width="30" stroke-linejoin="round" d="M 14286,10441 L 14286,10291"/>
 <path fill="none" stroke="rgb(0,0,0)" stroke-width="30" stroke-linejoin="round" d="M 14408,10441 L 14408,10291"/>
 <path fill="none" stroke="rgb(0,0,0)" stroke-width="30" stroke-linejoin="round" d="M 14408,10441 L 14408,10291"/>
 <path fill="none" stroke="rgb(0,0,0)" stroke-width="30" stroke-linejoin="round" d="M 14531,10441 L 14531,10291"/>
 <path fill="none" stroke="rgb(0,0,0)" stroke-width="30" stroke-linejoin="round" d="M 14531,10441 L 14531,10291"/>
 <path fill="none" stroke="rgb(0,0,0)" stroke-width="30" stroke-linejoin="round" d="M 14653,10441 L 14653,10291"/>
 <path fill="none" stroke="rgb(0,0,0)" stroke-width="30" stroke-linejoin="round" d="M 14653,10441 L 14653,10291"/>
 <path fill="none" stroke="rgb(0,0,0)" stroke-width="30" stroke-linejoin="round" d="M 14776,10441 L 14776,10291"/>
 <path fill="none" stroke="rgb(0,0,0)" stroke-width="30" stroke-linejoin="round" d="M 14776,10441 L 14776,10291"/>
 <path fill="none" stroke="rgb(0,0,0)" stroke-width="30" stroke-linejoin="round" d="M 14898,10441 L 14898,10291"/>
 <path fill="none" stroke="rgb(0,0,0)" stroke-width="30" stroke-linejoin="round" d="M 14898,10441 L 14898,10291"/>
 <path fill="none" stroke="rgb(0,0,0)" stroke-width="30" stroke-linejoin="round" d="M 15021,10441 L 15021,10291"/>
 <path fill="none" stroke="rgb(0,0,0)" stroke-width="30" stroke-linejoin="round" d="M 15021,10441 L 15021,10291"/>
 <path fill="none" stroke="rgb(0,0,0)" stroke-width="30" stroke-linejoin="round" d="M 1307,10291 L 15021,10291"/>
 <path fill="none" stroke="rgb(0,0,0)" stroke-width="30" stroke-linejoin="round" d="M 1157,10291 L 1307,10291"/>
 <path fill="none" stroke="rgb(0,0,0)" stroke-width="30" stroke-linejoin="round" d="M 1157,10291 L 1307,10291"/>
 <path fill="none" stroke="rgb(0,0,0)" stroke-width="30" stroke-linejoin="round" d="M 1157,9356 L 1307,9356"/>
 <path fill="none" stroke="rgb(0,0,0)" stroke-width="30" stroke-linejoin="round" d="M 1157,9356 L 1307,9356"/>
 <path fill="none" stroke="rgb(0,0,0)" stroke-width="30" stroke-linejoin="round" d="M 1157,8422 L 1307,8422"/>
 <path fill="none" stroke="rgb(0,0,0)" stroke-width="30" stroke-linejoin="round" d="M 1157,8422 L 1307,8422"/>
 <path fill="none" stroke="rgb(0,0,0)" stroke-width="30" stroke-linejoin="round" d="M 1157,7488 L 1307,7488"/>
 <path fill="none" stroke="rgb(0,0,0)" stroke-width="30" stroke-linejoin="round" d="M 1157,7488 L 1307,7488"/>
 <path fill="none" stroke="rgb(0,0,0)" stroke-width="30" stroke-linejoin="round" d="M 1157,6554 L 1307,6554"/>
 <path fill="none" stroke="rgb(0,0,0)" stroke-width="30" stroke-linejoin="round" d="M 1157,6554 L 1307,6554"/>
 <path fill="none" stroke="rgb(0,0,0)" stroke-width="30" stroke-linejoin="round" d="M 1157,5621 L 1307,5621"/>
 <path fill="none" stroke="rgb(0,0,0)" stroke-width="30" stroke-linejoin="round" d="M 1157,5621 L 1307,5621"/>
 <path fill="none" stroke="rgb(0,0,0)" stroke-width="30" stroke-linejoin="round" d="M 1157,4687 L 1307,4687"/>
 <path fill="none" stroke="rgb(0,0,0)" stroke-width="30" stroke-linejoin="round" d="M 1157,4687 L 1307,4687"/>
 <path fill="none" stroke="rgb(0,0,0)" stroke-width="30" stroke-linejoin="round" d="M 1157,3753 L 1307,3753"/>
 <path fill="none" stroke="rgb(0,0,0)" stroke-width="30" stroke-linejoin="round" d="M 1157,3753 L 1307,3753"/>
 <path fill="none" stroke="rgb(0,0,0)" stroke-width="30" stroke-linejoin="round" d="M 1157,2819 L 1307,2819"/>
 <path fill="none" stroke="rgb(0,0,0)" stroke-width="30" stroke-linejoin="round" d="M 1157,2819 L 1307,2819"/>
 <path fill="none" stroke="rgb(0,0,0)" stroke-width="30" stroke-linejoin="round" d="M 1157,1885 L 1307,1885"/>
 <path fill="none" stroke="rgb(0,0,0)" stroke-width="30" stroke-linejoin="round" d="M 1157,1885 L 1307,1885"/>
 <path fill="none" stroke="rgb(0,0,0)" stroke-width="30" stroke-linejoin="round" d="M 1157,951 L 1307,951"/>
 <path fill="none" stroke="rgb(0,0,0)" stroke-width="30" stroke-linejoin="round" d="M 1157,951 L 1307,951"/>
 <path fill="none" stroke="rgb(0,0,0)" stroke-width="30" stroke-linejoin="round" d="M 1307,10291 L 1307,951"/>
 <path fill="none" stroke="rgb(0,0,0)" stroke-width="30" stroke-linejoin="round" d="M 15171,10291 L 15021,10291"/>
 <path fill="none" stroke="rgb(0,0,0)" stroke-width="30" stroke-linejoin="round" d="M 15171,10291 L 15021,10291"/>
 <path fill="none" stroke="rgb(0,0,0)" stroke-width="30" stroke-linejoin="round" d="M 15171,9356 L 15021,9356"/>
 <path fill="none" stroke="rgb(0,0,0)" stroke-width="30" stroke-linejoin="round" d="M 15171,9356 L 15021,9356"/>
 <path fill="none" stroke="rgb(0,0,0)" stroke-width="30" stroke-linejoin="round" d="M 15171,8422 L 15021,8422"/>
 <path fill="none" stroke="rgb(0,0,0)" stroke-width="30" stroke-linejoin="round" d="M 15171,8422 L 15021,8422"/>
 <path fill="none" stroke="rgb(0,0,0)" stroke-width="30" stroke-linejoin="round" d="M 15171,7488 L 15021,7488"/>
 <path fill="none" stroke="rgb(0,0,0)" stroke-width="30" stroke-linejoin="round" d="M 15171,7488 L 15021,7488"/>
 <path fill="none" stroke="rgb(0,0,0)" stroke-width="30" stroke-linejoin="round" d="M 15171,6554 L 15021,6554"/>
 <path fill="none" stroke="rgb(0,0,0)" stroke-width="30" stroke-linejoin="round" d="M 15171,6554 L 15021,6554"/>
 <path fill="none" stroke="rgb(0,0,0)" stroke-width="30" stroke-linejoin="round" d="M 15171,5621 L 15021,5621"/>
 <path fill="none" stroke="rgb(0,0,0)" stroke-width="30" stroke-linejoin="round" d="M 15171,5621 L 15021,5621"/>
 <path fill="none" stroke="rgb(0,0,0)" stroke-width="30" stroke-linejoin="round" d="M 15171,4687 L 15021,4687"/>
 <path fill="none" stroke="rgb(0,0,0)" stroke-width="30" stroke-linejoin="round" d="M 15171,4687 L 15021,4687"/>
 <path fill="none" stroke="rgb(0,0,0)" stroke-width="30" stroke-linejoin="round" d="M 15171,3753 L 15021,3753"/>
 <path fill="none" stroke="rgb(0,0,0)" stroke-width="30" stroke-linejoin="round" d="M 15171,3753 L 15021,3753"/>
 <path fill="none" stroke="rgb(0,0,0)" stroke-width="30" stroke-linejoin="round" d="M 15171,2819 L 15021,2819"/>
 <path fill="none" stroke="rgb(0,0,0)" stroke-width="30" stroke-linejoin="round" d="M 15171,2819 L 15021,2819"/>
 <path fill="none" stroke="rgb(0,0,0)" stroke-width="30" stroke-linejoin="round" d="M 15171,1885 L 15021,1885"/>
 <path fill="none" stroke="rgb(0,0,0)" stroke-width="30" stroke-linejoin="round" d="M 15171,1885 L 15021,1885"/>
 <path fill="none" stroke="rgb(0,0,0)" stroke-width="30" stroke-linejoin="round" d="M 15171,951 L 15021,951"/>
 <path fill="none" stroke="rgb(0,0,0)" stroke-width="30" stroke-linejoin="round" d="M 15171,951 L 15021,951"/>
 <path fill="none" stroke="rgb(0,0,0)" stroke-width="30" stroke-linejoin="round" d="M 15021,10291 L 15021,951"/>
 <path fill="rgb(255,66,14)" stroke="none" d="M 1307,10291 L 1429,10291 1551,10291 1674,10291 1796,10291 1919,10291 2041,10291 2164,10291 2286,10291 2409,10291 2531,10291 2654,10291 2776,10291 2898,10291 3021,10291 3143,10291 3266,10291 3388,10291 3511,10291 3633,10291 3756,10291 3878,10291 4001,10291 4123,10291 4245,10291 4368,10291 4490,10291 4613,10291 4735,10291 4858,10291 4980,10291 5103,10291 5225,10291 5348,10291 5470,10291 5592,10291 5715,10291 5837,10291 5960,10291 6082,10291 6205,10291 6327,10291 6450,10291 6572,10291 6695,10291 6817,10291 6939,10291 7062,10291 7184,10291 7307,10291 7429,10291 7552,10291 7674,10291 7797,10291 7919,10291 8042,10291 8164,10291 8285,10291 8408,10291 8530,10291 8653,10291 8775,10291 8898,10291 9020,10291 9143,10291 9265,10291 9388,10291 9510,10291 9632,10291 9755,10291 9877,10249 10000,10238 10122,10219 10245,10180 10367,10162 10490,10139 10612,10106 10735,10092 10857,10099 10979,10105 11102,10102 11224,10072 11347,10061 11469,9979 11592,9919 11714,9874 11837,9816 11959,9806 12082,9786 12204,9757 12326,9693 12449,9650 12571,9587 12694,9563 12816,9504 12939,9498 13061,9440 13184,9390 13306,9345 13429,9411 13551,9313 13673,9307 13796,9215 13918,9086 14041,8971 14163,8921 14286,8868 14408,8876 14531,8787 14653,8731 14776,8730 14898,8782 15021,8737 15021,10291 1307,10291 Z"/>
 <path fill="rgb(0,69,134)" stroke="none" d="M 1307,10291 L 1429,10291 1551,10291 1674,10291 1796,10291 1919,10291 2041,10291 2164,10291 2286,10291 2409,10291 2531,10291 2654,10291 2776,10291 2898,10291 3021,10253 3143,10238 3266,10224 3388,10209 3511,10193 3633,10173 3756,10149 3878,10111 4001,10077 4123,10045 4245,10004 4368,9952 4490,9875 4613,9827 4735,9780 4858,9738 4980,9711 5103,9703 5225,9667 5348,9619 5470,9586 5592,9528 5715,9464 5837,9423 5960,9333 6082,9336 6205,9315 6327,9282 6450,9259 6572,9226 6695,9208 6817,9202 6939,9175 7062,9127 7184,9092 7307,9063 7429,9038 7552,9030 7674,9025 7797,9004 7919,8975 8042,8930 8164,8932 8285,8916 8408,8870 8530,8843 8653,8841 8775,8831 8898,8786 9020,8760 9143,8728 9265,8742 9388,8770 9510,8709 9632,8701 9755,8740 9877,8685 10000,8694 10122,8639 10245,8681 10367,8668 10490,8676 10612,8689 10735,8678 10857,8641 10979,8637 11102,8582 11224,8462 11347,8425 11469,8349 11592,8396 11714,8387 11837,8391 11959,8348 12082,8362 12204,8320 12326,8272 12449,8277 12571,8236 12694,8184 12816,8102 12939,8098 13061,8118 13184,8146 13306,8137 13429,8144 13551,8063 13673,8039 13796,8026 13918,7953 14041,7884 14163,7795 14286,7726 14408,7741 14531,7704 14653,7745 14776,7762 14898,7725 15021,7747 15021,8737 14898,8782 14776,8730 14653,8731 14531,8787 14408,8876 14286,8868 14163,8921 14041,8971 13918,9086 13796,9215 13673,9307 13551,9313 13429,9411 13306,9345 13184,9390 13061,9440 12939,9498 12816,9504 12694,9563 12571,9587 12449,9650 12326,9693 12204,9757 12082,9786 11959,9806 11837,9816 11714,9874 11592,9919 11469,9979 11347,10061 11224,10072 11102,10102 10979,10105 10857,10099 10735,10092 10612,10106 10490,10139 10367,10162 10245,10180 10122,10219 10000,10238 9877,10249 9755,10291 9632,10291 9510,10291 9388,10291 9265,10291 9143,10291 9020,10291 8898,10291 8775,10291 8653,10291 8530,10291 8408,10291 8285,10291 8164,10291 8042,10291 7919,10291 7797,10291 7674,10291 7552,10291 7429,10291 7307,10291 7184,10291 7062,10291 6939,10291 6817,10291 6695,10291 6572,10291 6450,10291 6327,10291 6205,10291 6082,10291 5960,10291 5837,10291 5715,10291 5592,10291 5470,10291 5348,10291 5225,10291 5103,10291 4980,10291 4858,10291 4735,10291 4613,10291 4490,10291 4368,10291 4245,10291 4123,10291 4001,10291 3878,10291 3756,10291 3633,10291 3511,10291 3388,10291 3266,10291 3143,10291 3021,10291 2898,10291 2776,10291 2654,10291 2531,10291 2409,10291 2286,10291 2164,10291 2041,10291 1919,10291 1796,10291 1674,10291 1551,10291 1429,10291 1307,10291 Z"/>
 <path fill="rgb(255,211,32)" stroke="none" d="M 1307,10291 L 1429,10291 1551,10291 1674,10291 1796,10291 1919,10291 2041,10291 2164,10291 2286,10291 2409,10291 2531,10291 2654,10291 2776,10291 2898,10291 3021,10253 3143,10238 3266,10224 3388,10209 3511,10193 3633,10173 3756,10149 3878,10111 4001,10077 4123,10045 4245,10004 4368,9952 4490,9875 4613,9827 4735,9780 4858,9738 4980,9711 5103,9703 5225,9667 5348,9619 5470,9586 5592,9528 5715,9464 5837,9423 5960,9333 6082,9336 6205,9315 6327,9282 6450,9259 6572,9226 6695,9208 6817,9202 6939,9175 7062,9127 7184,9092 7307,9063 7429,9038 7552,9030 7674,9025 7797,9004 7919,8975 8042,8930 8164,8932 8285,8916 8408,8870 8530,8843 8653,8841 8775,8831 8898,8786 9020,8760 9143,8728 9265,8742 9388,8770 9510,8709 9632,8701 9755,8740 9877,8685 10000,8694 10122,8639 10245,8681 10367,8668 10490,8676 10612,8689 10735,8678 10857,8641 10979,8637 11102,8582 11224,8462 11347,8419 11469,8311 11592,8326 11714,8277 11837,8246 11959,8178 12082,8168 12204,8102 12326,8019 12449,7995 12571,7923 12694,7854 12816,7755 12939,7711 13061,7673 13184,7657 13306,7587 13429,7612 13551,7507 13673,7454 13796,7414 13918,7340 14041,7214 14163,7088 14286,7026 14408,7023 14531,6962 14653,6903 14776,6851 14898,6859 15021,6846 15021,7747 14898,7725 14776,7762 14653,7745 14531,7704 14408,7741 14286,7726 14163,7795 14041,7884 13918,7953 13796,8026 13673,8039 13551,8063 13429,8144 13306,8137 13184,8146 13061,8118 12939,8098 12816,8102 12694,8184 12571,8236 12449,8277 12326,8272 12204,8320 12082,8362 11959,8348 11837,8391 11714,8387 11592,8396 11469,8349 11347,8425 11224,8462 11102,8582 10979,8637 10857,8641 10735,8678 10612,8689 10490,8676 10367,8668 10245,8681 10122,8639 10000,8694 9877,8685 9755,8740 9632,8701 9510,8709 9388,8770 9265,8742 9143,8728 9020,8760 8898,8786 8775,8831 8653,8841 8530,8843 8408,8870 8285,8916 8164,8932 8042,8930 7919,8975 7797,9004 7674,9025 7552,9030 7429,9038 7307,9063 7184,9092 7062,9127 6939,9175 6817,9202 6695,9208 6572,9226 6450,9259 6327,9282 6205,9315 6082,9336 5960,9333 5837,9423 5715,9464 5592,9528 5470,9586 5348,9619 5225,9667 5103,9703 4980,9711 4858,9738 4735,9780 4613,9827 4490,9875 4368,9952 4245,10004 4123,10045 4001,10077 3878,10111 3756,10149 3633,10173 3511,10193 3388,10209 3266,10224 3143,10238 3021,10253 2898,10291 2776,10291 2654,10291 2531,10291 2409,10291 2286,10291 2164,10291 2041,10291 1919,10291 1796,10291 1674,10291 1551,10291 1429,10291 1307,10291 Z"/>
 <path fill="rgb(131,202,255)" stroke="none" d="M 1307,10291 L 1429,10291 1551,10291 1674,10291 1796,10291 1919,10291 2041,10291 2164,10291 2286,10291 2409,10291 2531,10291 2654,10291 2776,10291 2898,10291 3021,10253 3143,10238 3266,10224 3388,10209 3511,10193 3633,10173 3756,10105 3878,10059 4001,10016 4123,9977 4245,9921 4368,9850 4490,9752 4613,9690 4735,9626 4858,9567 4980,9524 5103,9496 5225,9454 5348,9392 5470,9338 5592,9269 5715,9198 5837,9140 5960,9049 6082,9034 6205,8999 6327,8949 6450,8911 6572,8861 6695,8843 6817,8819 6939,8777 7062,8711 7184,8679 7307,8657 7429,8621 7552,8596 7674,8573 7797,8555 7919,8506 8042,8449 8164,8435 8285,8383 8408,8349 8530,8314 8653,8298 8775,8315 8898,8252 9020,8231 9143,8180 9265,8173 9388,8178 9510,8124 9632,8154 9755,8213 9877,8136 10000,8099 10122,8038 10245,8095 10367,8064 10490,8052 10612,8050 10735,8008 10857,7931 10979,7888 11102,7833 11224,7723 11347,7657 11469,7558 11592,7549 11714,7486 11837,7475 11959,7381 12082,7359 12204,7293 12326,7233 12449,7180 12571,7101 12694,7032 12816,6917 12939,6864 13061,6818 13184,6799 13306,6733 13429,6678 13551,6597 13673,6565 13796,6520 13918,6442 14041,6375 14163,6221 14286,6161 14408,6183 14531,6204 14653,6191 14776,6130 14898,6101 15021,6088 15021,6846 14898,6859 14776,6851 14653,6903 14531,6962 14408,7023 14286,7026 14163,7088 14041,7214 13918,7340 13796,7414 13673,7454 13551,7507 13429,7612 13306,7587 13184,7657 13061,7673 12939,7711 12816,7755 12694,7854 12571,7923 12449,7995 12326,8019 12204,8102 12082,8168 11959,8178 11837,8246 11714,8277 11592,8326 11469,8311 11347,8419 11224,8462 11102,8582 10979,8637 10857,8641 10735,8678 10612,8689 10490,8676 10367,8668 10245,8681 10122,8639 10000,8694 9877,8685 9755,8740 9632,8701 9510,8709 9388,8770 9265,8742 9143,8728 9020,8760 8898,8786 8775,8831 8653,8841 8530,8843 8408,8870 8285,8916 8164,8932 8042,8930 7919,8975 7797,9004 7674,9025 7552,9030 7429,9038 7307,9063 7184,9092 7062,9127 6939,9175 6817,9202 6695,9208 6572,9226 6450,9259 6327,9282 6205,9315 6082,9336 5960,9333 5837,9423 5715,9464 5592,9528 5470,9586 5348,9619 5225,9667 5103,9703 4980,9711 4858,9738 4735,9780 4613,9827 4490,9875 4368,9952 4245,10004 4123,10045 4001,10077 3878,10111 3756,10149 3633,10173 3511,10193 3388,10209 3266,10224 3143,10238 3021,10253 2898,10291 2776,10291 2654,10291 2531,10291 2409,10291 2286,10291 2164,10291 2041,10291 1919,10291 1796,10291 1674,10291 1551,10291 1429,10291 1307,10291 Z"/>
 <path fill="rgb(49,64,4)" stroke="none" d="M 1307,9992 L 1429,9992 1551,9997 1674,9997 1796,9998 1919,9993 2041,10001 2164,10005 2286,10004 2409,10007 2531,10012 2654,10011 2776,10020 2898,10021 3021,9992 3143,9978 3266,9966 3388,9953 3511,9940 3633,9920 3756,9854 3878,9814 4001,9777 4123,9739 4245,9690 4368,9624 4490,9539 4613,9479 4735,9421 4858,9368 4980,9327 5103,9297 5225,9251 5348,9194 5470,9145 5592,9078 5715,9009 5837,8963 5960,8876 6082,8859 6205,8822 6327,8779 6450,8743 6572,8701 6695,8691 6817,8671 6939,8636 7062,8582 7184,8549 7307,8526 7429,8491 7552,8300 7674,8251 7797,8197 7919,8132 8042,8021 8164,7952 8285,7915 8408,7863 8530,7860 8653,7795 8775,7735 8898,7646 9020,7671 9143,7563 9265,7537 9388,7521 9510,7437 9632,7427 9755,7523 9877,7475 10000,7423 10122,7328 10245,7298 10367,7229 10490,7243 10612,7229 10735,7223 10857,7292 10979,7323 11102,7326 11224,7173 11347,7144 11469,7019 11592,6956 11714,6885 11837,6836 11959,6750 12082,6718 12204,6647 12326,6555 12449,6468 12571,6365 12694,6295 12816,6259 12939,6178 13061,6080 13184,6034 13306,5989 13429,6003 13551,5954 13673,5920 13796,5866 13918,5821 14041,5708 14163,5627 14286,5609 14408,5637 14531,5637 14653,5535 14776,5455 14898,5479 15021,5451 15021,6088 14898,6101 14776,6130 14653,6191 14531,6204 14408,6183 14286,6161 14163,6221 14041,6375 13918,6442 13796,6520 13673,6565 13551,6597 13429,6678 13306,6733 13184,6799 13061,6818 12939,6864 12816,6917 12694,7032 12571,7101 12449,7180 12326,7233 12204,7293 12082,7359 11959,7381 11837,7475 11714,7486 11592,7549 11469,7558 11347,7657 11224,7723 11102,7833 10979,7888 10857,7931 10735,8008 10612,8050 10490,8052 10367,8064 10245,8095 10122,8038 10000,8099 9877,8136 9755,8213 9632,8154 9510,8124 9388,8178 9265,8173 9143,8180 9020,8231 8898,8252 8775,8315 8653,8298 8530,8314 8408,8349 8285,8383 8164,8435 8042,8449 7919,8506 7797,8555 7674,8573 7552,8596 7429,8621 7307,8657 7184,8679 7062,8711 6939,8777 6817,8819 6695,8843 6572,8861 6450,8911 6327,8949 6205,8999 6082,9034 5960,9049 5837,9140 5715,9198 5592,9269 5470,9338 5348,9392 5225,9454 5103,9496 4980,9524 4858,9567 4735,9626 4613,9690 4490,9752 4368,9850 4245,9921 4123,9977 4001,10016 3878,10059 3756,10105 3633,10173 3511,10193 3388,10209 3266,10224 3143,10238 3021,10253 2898,10291 2776,10291 2654,10291 2531,10291 2409,10291 2286,10291 2164,10291 2041,10291 1919,10291 1796,10291 1674,10291 1551,10291 1429,10291 1307,10291 1307,9992 Z"/>
 <path fill="rgb(126,0,33)" stroke="none" d="M 1307,9992 L 1429,9992 1551,9997 1674,9997 1796,9998 1919,9993 2041,10001 2164,10005 2286,10004 2409,10007 2531,10012 2654,10011 2776,10020 2898,10021 3021,9992 3143,9978 3266,9966 3388,9953 3511,9940 3633,9920 3756,9854 3878,9814 4001,9777 4123,9739 4245,9690 4368,9624 4490,9539 4613,9479 4735,9421 4858,9368 4980,9327 5103,9297 5225,9251 5348,9194 5470,9145 5592,9078 5715,9009 5837,8963 5960,8876 6082,8859 6205,8822 6327,8779 6450,8743 6572,8701 6695,8691 6817,8671 6939,8636 7062,8582 7184,8549 7307,8526 7429,8491 7552,8300 7674,8251 7797,8197 7919,8132 8042,8021 8164,7952 8285,7915 8408,7863 8530,7828 8653,7739 8775,7653 8898,7543 9020,7566 9143,7441 9265,7393 9388,7353 9510,7263 9632,7241 9755,7274 9877,7217 10000,7130 10122,7007 10245,6899 10367,6819 10490,6789 10612,6727 10735,6713 10857,6832 10979,6902 11102,6933 11224,6735 11347,6737 11469,6570 11592,6479 11714,6392 11837,6335 11959,6244 12082,6210 12204,6141 12326,6014 12449,5908 12571,5782 12694,5730 12816,5708 12939,5652 13061,5544 13184,5505 13306,5447 13429,5519 13551,5472 13673,5429 13796,5367 13918,5342 14041,5193 14163,5082 14286,5099 14408,5133 14531,5141 14653,4996 14776,4902 14898,4966 15021,4925 15021,5451 14898,5479 14776,5455 14653,5535 14531,5637 14408,5637 14286,5609 14163,5627 14041,5708 13918,5821 13796,5866 13673,5920 13551,5954 13429,6003 13306,5989 13184,6034 13061,6080 12939,6178 12816,6259 12694,6295 12571,6365 12449,6468 12326,6555 12204,6647 12082,6718 11959,6750 11837,6836 11714,6885 11592,6956 11469,7019 11347,7144 11224,7173 11102,7326 10979,7323 10857,7292 10735,7223 10612,7229 10490,7243 10367,7229 10245,7298 10122,7328 10000,7423 9877,7475 9755,7523 9632,7427 9510,7437 9388,7521 9265,7537 9143,7563 9020,7671 8898,7646 8775,7735 8653,7795 8530,7860 8408,7863 8285,7915 8164,7952 8042,8021 7919,8132 7797,8197 7674,8251 7552,8300 7429,8491 7307,8526 7184,8549 7062,8582 6939,8636 6817,8671 6695,8691 6572,8701 6450,8743 6327,8779 6205,8822 6082,8859 5960,8876 5837,8963 5715,9009 5592,9078 5470,9145 5348,9194 5225,9251 5103,9297 4980,9327 4858,9368 4735,9421 4613,9479 4490,9539 4368,9624 4245,9690 4123,9739 4001,9777 3878,9814 3756,9854 3633,9920 3511,9940 3388,9953 3266,9966 3143,9978 3021,9992 2898,10021 2776,10020 2654,10011 2531,10012 2409,10007 2286,10004 2164,10005 2041,10001 1919,9993 1796,9998 1674,9997 1551,9997 1429,9992 1307,9992 Z"/>
 <path fill="rgb(87,157,28)" stroke="none" d="M 1307,8715 L 1429,8665 1551,8601 1674,8569 1796,8507 1919,8529 2041,8471 2164,8419 2286,8394 2409,8345 2531,8312 2654,8258 2776,8195 2898,8189 3021,8086 3143,8083 3266,8067 3388,8055 3511,8029 3633,7975 3756,7957 3878,7909 4001,7899 4123,7855 4245,7782 4368,7749 4490,7649 4613,7638 4735,7614 4858,7573 4980,7585 5103,7617 5225,7625 5348,7593 5470,7581 5592,7518 5715,7456 5837,7427 5960,7348 6082,7391 6205,7382 6327,7344 6450,7341 6572,7343 6695,7347 6817,7364 6939,7342 7062,7279 7184,7271 7307,7286 7429,7288 7552,7112 7674,7091 7797,7057 7919,7029 8042,6918 8164,6860 8285,6839 8408,6805 8530,6817 8653,6747 8775,6699 8898,6611 9020,6680 9143,6540 9265,6520 9388,6509 9510,6442 9632,6443 9755,6528 9877,6462 10000,6369 10122,6232 10245,6162 10367,6096 10490,6084 10612,6033 10735,6038 10857,6160 10979,6237 11102,6298 11224,6078 11347,6145 11469,5975 11592,5905 11714,5837 11837,5786 11959,5687 12082,5665 12204,5608 12326,5481 12449,5385 12571,5274 12694,5216 12816,5216 12939,5149 13061,5047 13184,5031 13306,4974 13429,5050 13551,5029 13673,4997 13796,4940 13918,4938 14041,4806 14163,4740 14286,4756 14408,4792 14531,4808 14653,4682 14776,4584 14898,4642 15021,4621 15021,4925 14898,4966 14776,4902 14653,4996 14531,5141 14408,5133 14286,5099 14163,5082 14041,5193 13918,5342 13796,5367 13673,5429 13551,5472 13429,5519 13306,5447 13184,5505 13061,5544 12939,5652 12816,5708 12694,5730 12571,5782 12449,5908 12326,6014 12204,6141 12082,6210 11959,6244 11837,6335 11714,6392 11592,6479 11469,6570 11347,6737 11224,6735 11102,6933 10979,6902 10857,6832 10735,6713 10612,6727 10490,6789 10367,6819 10245,6899 10122,7007 10000,7130 9877,7217 9755,7274 9632,7241 9510,7263 9388,7353 9265,7393 9143,7441 9020,7566 8898,7543 8775,7653 8653,7739 8530,7828 8408,7863 8285,7915 8164,7952 8042,8021 7919,8132 7797,8197 7674,8251 7552,8300 7429,8491 7307,8526 7184,8549 7062,8582 6939,8636 6817,8671 6695,8691 6572,8701 6450,8743 6327,8779 6205,8822 6082,8859 5960,8876 5837,8963 5715,9009 5592,9078 5470,9145 5348,9194 5225,9251 5103,9297 4980,9327 4858,9368 4735,9421 4613,9479 4490,9539 4368,9624 4245,9690 4123,9739 4001,9777 3878,9814 3756,9854 3633,9920 3511,9940 3388,9953 3266,9966 3143,9978 3021,9992 2898,10021 2776,10020 2654,10011 2531,10012 2409,10007 2286,10004 2164,10005 2041,10001 1919,9993 1796,9998 1674,9997 1551,9997 1429,9992 1307,9992 1307,8715 Z"/>
 <path fill="rgb(75,31,111)" stroke="none" d="M 1307,8235 L 1429,8162 1551,8070 1674,8022 1796,7923 1919,7953 2041,7852 2164,7774 2286,7733 2409,7662 2531,7614 2654,7553 2776,7448 2898,7413 3021,7289 3143,7278 3266,7248 3388,7233 3511,7205 3633,7152 3756,7114 3878,7063 4001,7053 4123,7017 4245,6944 4368,6916 4490,6821 4613,6820 4735,6799 4858,6767 4980,6800 5103,6856 5225,6878 5348,6850 5470,6856 5592,6802 5715,6743 5837,6718 5960,6630 6082,6688 6205,6691 6327,6663 6450,6666 6572,6676 6695,6691 6817,6713 6939,6693 7062,6633 7184,6639 7307,6681 7429,6686 7552,6519 7674,6499 7797,6478 7919,6454 8042,6338 8164,6277 8285,6231 8408,6197 8530,6222 8653,6160 8775,6135 8898,6058 9020,6138 9143,5990 9265,5968 9388,5954 9510,5899 9632,5908 9755,6063 9877,5982 10000,5869 10122,5731 10245,5680 10367,5619 10490,5603 10612,5549 10735,5549 10857,5654 10979,5714 11102,5775 11224,5566 11347,5646 11469,5485 11592,5418 11714,5361 11837,5330 11959,5220 12082,5157 12204,5064 12326,4939 12449,4933 12571,4832 12694,4771 12816,4776 12939,4700 13061,4590 13184,4591 13306,4544 13429,4607 13551,4599 13673,4573 13796,4516 13918,4535 14041,4435 14163,4391 14286,4401 14408,4445 14531,4469 14653,4363 14776,4264 14898,4309 15021,4293 15021,4621 14898,4642 14776,4584 14653,4682 14531,4808 14408,4792 14286,4756 14163,4740 14041,4806 13918,4938 13796,4940 13673,4997 13551,5029 13429,5050 13306,4974 13184,5031 13061,5047 12939,5149 12816,5216 12694,5216 12571,5274 12449,5385 12326,5481 12204,5608 12082,5665 11959,5687 11837,5786 11714,5837 11592,5905 11469,5975 11347,6145 11224,6078 11102,6298 10979,6237 10857,6160 10735,6038 10612,6033 10490,6084 10367,6096 10245,6162 10122,6232 10000,6369 9877,6462 9755,6528 9632,6443 9510,6442 9388,6509 9265,6520 9143,6540 9020,6680 8898,6611 8775,6699 8653,6747 8530,6817 8408,6805 8285,6839 8164,6860 8042,6918 7919,7029 7797,7057 7674,7091 7552,7112 7429,7288 7307,7286 7184,7271 7062,7279 6939,7342 6817,7364 6695,7347 6572,7343 6450,7341 6327,7344 6205,7382 6082,7391 5960,7348 5837,7427 5715,7456 5592,7518 5470,7581 5348,7593 5225,7625 5103,7617 4980,7585 4858,7573 4735,7614 4613,7638 4490,7649 4368,7749 4245,7782 4123,7855 4001,7899 3878,7909 3756,7957 3633,7975 3511,8029 3388,8055 3266,8067 3143,8083 3021,8086 2898,8189 2776,8195 2654,8258 2531,8312 2409,8345 2286,8394 2164,8419 2041,8471 1919,8529 1796,8507 1674,8569 1551,8601 1429,8665 1307,8715 1307,8235 Z"/>
 <path fill="rgb(255,149,14)" stroke="none" d="M 1307,6993 L 1429,6963 1551,6848 1674,6806 1796,6720 1919,6733 2041,6633 2164,6556 2286,6516 2409,6449 2531,6387 2654,6325 2776,6253 2898,6229 3021,6126 3143,6110 3266,6090 3388,6083 3511,6074 3633,6033 3756,6016 3878,6003 4001,5981 4123,5972 4245,5926 4368,5924 4490,5851 4613,5839 4735,5831 4858,5805 4980,5819 5103,5845 5225,5865 5348,5833 5470,5822 5592,5787 5715,5748 5837,5756 5960,5713 6082,5739 6205,5699 6327,5699 6450,5702 6572,5735 6695,5823 6817,5841 6939,5815 7062,5777 7184,5801 7307,5890 7429,5900 7552,5732 7674,5735 7797,5737 7919,5699 8042,5595 8164,5540 8285,5505 8408,5494 8530,5528 8653,5485 8775,5528 8898,5433 9020,5515 9143,5367 9265,5329 9388,5295 9510,5266 9632,5309 9755,5531 9877,5438 10000,5299 10122,5168 10245,5161 10367,5085 10490,5067 10612,5026 10735,5004 10857,5065 10979,5089 11102,5145 11224,4967 11347,5033 11469,4910 11592,4874 11714,4831 11837,4834 11959,4720 12082,4667 12204,4579 12326,4482 12449,4476 12571,4393 12694,4345 12816,4345 12939,4271 13061,4207 13184,4234 13306,4200 13429,4247 13551,4254 13673,4245 13796,4194 13918,4218 14041,4135 14163,4094 14286,4111 14408,4163 14531,4213 14653,4131 14776,4034 14898,4067 15021,4054 15021,4293 14898,4309 14776,4264 14653,4363 14531,4469 14408,4445 14286,4401 14163,4391 14041,4435 13918,4535 13796,4516 13673,4573 13551,4599 13429,4607 13306,4544 13184,4591 13061,4590 12939,4700 12816,4776 12694,4771 12571,4832 12449,4933 12326,4939 12204,5064 12082,5157 11959,5220 11837,5330 11714,5361 11592,5418 11469,5485 11347,5646 11224,5566 11102,5775 10979,5714 10857,5654 10735,5549 10612,5549 10490,5603 10367,5619 10245,5680 10122,5731 10000,5869 9877,5982 9755,6063 9632,5908 9510,5899 9388,5954 9265,5968 9143,5990 9020,6138 8898,6058 8775,6135 8653,6160 8530,6222 8408,6197 8285,6231 8164,6277 8042,6338 7919,6454 7797,6478 7674,6499 7552,6519 7429,6686 7307,6681 7184,6639 7062,6633 6939,6693 6817,6713 6695,6691 6572,6676 6450,6666 6327,6663 6205,6691 6082,6688 5960,6630 5837,6718 5715,6743 5592,6802 5470,6856 5348,6850 5225,6878 5103,6856 4980,6800 4858,6767 4735,6799 4613,6820 4490,6821 4368,6916 4245,6944 4123,7017 4001,7053 3878,7063 3756,7114 3633,7152 3511,7205 3388,7233 3266,7248 3143,7278 3021,7289 2898,7413 2776,7448 2654,7553 2531,7614 2409,7662 2286,7733 2164,7774 2041,7852 1919,7953 1796,7923 1674,8022 1551,8070 1429,8162 1307,8235 1307,6993 Z"/>
 <path fill="rgb(174,207,0)" stroke="none" d="M 1307,2690 L 1429,2706 1551,2707 1674,2726 1796,2688 1919,2663 2041,2718 2164,2710 2286,2711 2409,2729 2531,2734 2654,2700 2776,2743 2898,2806 3021,2805 3143,2818 3266,2862 3388,2924 3511,2950 3633,2970 3756,3019 3878,3080 4001,3122 4123,3147 4245,3194 4368,3276 4490,3332 4613,3360 4735,3428 4858,3488 4980,3516 5103,3578 5225,3658 5348,3702 5470,3726 5592,3710 5715,3653 5837,3741 5960,3787 6082,3836 6205,3810 6327,3867 6450,3902 6572,3980 6695,4136 6817,4217 6939,4226 7062,4288 7184,4272 7307,4285 7429,4346 7552,4217 7674,4262 7797,4253 7919,4307 8042,4344 8164,4362 8285,4337 8408,4304 8530,4381 8653,4367 8775,4331 8898,4365 9020,4346 9143,4260 9265,4295 9388,4307 9510,4299 9632,4361 9755,4700 9877,4621 10000,4531 10122,4412 10245,4475 10367,4432 10490,4439 10612,4431 10735,4402 10857,4381 10979,4351 11102,4213 11224,4177 11347,4306 11469,4217 11592,4218 11714,4173 11837,4075 11959,4037 12082,4110 12204,4088 12326,4029 12449,4066 12571,4012 12694,3967 12816,3991 12939,3935 13061,3913 13184,3957 13306,3942 13429,3981 13551,3986 13673,3936 13796,3927 13918,3941 14041,3878 14163,3864 14286,3883 14408,3899 14531,3997 14653,3925 14776,3852 14898,3852 15021,3842 15021,4054 14898,4067 14776,4034 14653,4131 14531,4213 14408,4163 14286,4111 14163,4094 14041,4135 13918,4218 13796,4194 13673,4245 13551,4254 13429,4247 13306,4200 13184,4234 13061,4207 12939,4271 12816,4345 12694,4345 12571,4393 12449,4476 12326,4482 12204,4579 12082,4667 11959,4720 11837,4834 11714,4831 11592,4874 11469,4910 11347,5033 11224,4967 11102,5145 10979,5089 10857,5065 10735,5004 10612,5026 10490,5067 10367,5085 10245,5161 10122,5168 10000,5299 9877,5438 9755,5531 9632,5309 9510,5266 9388,5295 9265,5329 9143,5367 9020,5515 8898,5433 8775,5528 8653,5485 8530,5528 8408,5494 8285,5505 8164,5540 8042,5595 7919,5699 7797,5737 7674,5735 7552,5732 7429,5900 7307,5890 7184,5801 7062,5777 6939,5815 6817,5841 6695,5823 6572,5735 6450,5702 6327,5699 6205,5699 6082,5739 5960,5713 5837,5756 5715,5748 5592,5787 5470,5822 5348,5833 5225,5865 5103,5845 4980,5819 4858,5805 4735,5831 4613,5839 4490,5851 4368,5924 4245,5926 4123,5972 4001,5981 3878,6003 3756,6016 3633,6033 3511,6074 3388,6083 3266,6090 3143,6110 3021,6126 2898,6229 2776,6253 2654,6325 2531,6387 2409,6449 2286,6516 2164,6556 2041,6633 1919,6733 1796,6720 1674,6806 1551,6848 1429,6963 1307,6993 1307,2690 Z"/>
 <path fill="rgb(197,0,11)" stroke="none" d="M 1307,2393 L 1429,2393 1551,2368 1674,2376 1796,2317 1919,2297 2041,2312 2164,2288 2286,2281 2409,2281 2531,2265 2654,2240 2776,2255 2898,2294 3021,2281 3143,2290 3266,2325 3388,2385 3511,2412 3633,2445 3756,2476 3878,2543 4001,2581 4123,2616 4245,2664 4368,2751 4490,2811 4613,2848 4735,2913 4858,2975 4980,3007 5103,3064 5225,3149 5348,3194 5470,3218 5592,3219 5715,3182 5837,3277 5960,3332 6082,3369 6205,3335 6327,3398 6450,3437 6572,3523 6695,3693 6817,3775 6939,3782 7062,3849 7184,3849 7307,3889 7429,3954 7552,3828 7674,3875 7797,3880 7919,3932 8042,3970 8164,3984 8285,3954 8408,3942 8530,4031 8653,4018 8775,4012 8898,4041 9020,4038 9143,3950 9265,3974 9388,3978 9510,3984 9632,4065 9755,4430 9877,4343 10000,4235 10122,4119 10245,4197 10367,4149 10490,4154 10612,4145 10735,4105 10857,4049 10979,3990 11102,3869 11224,3852 11347,3983 11469,3921 11592,3924 11714,3885 11837,3805 11959,3769 12082,3844 12204,3825 12326,3779 12449,3807 12571,3759 12694,3719 12816,3749 12939,3694 13061,3677 13184,3729 13306,3720 13429,3747 13551,3763 13673,3721 13796,3715 13918,3732 14041,3687 14163,3678 14286,3700 14408,3730 14531,3840 14653,3779 14776,3701 14898,3697 15021,3687 15021,3842 14898,3852 14776,3852 14653,3925 14531,3997 14408,3899 14286,3883 14163,3864 14041,3878 13918,3941 13796,3927 13673,3936 13551,3986 13429,3981 13306,3942 13184,3957 13061,3913 12939,3935 12816,3991 12694,3967 12571,4012 12449,4066 12326,4029 12204,4088 12082,4110 11959,4037 11837,4075 11714,4173 11592,4218 11469,4217 11347,4306 11224,4177 11102,4213 10979,4351 10857,4381 10735,4402 10612,4431 10490,4439 10367,4432 10245,4475 10122,4412 10000,4531 9877,4621 9755,4700 9632,4361 9510,4299 9388,4307 9265,4295 9143,4260 9020,4346 8898,4365 8775,4331 8653,4367 8530,4381 8408,4304 8285,4337 8164,4362 8042,4344 7919,4307 7797,4253 7674,4262 7552,4217 7429,4346 7307,4285 7184,4272 7062,4288 6939,4226 6817,4217 6695,4136 6572,3980 6450,3902 6327,3867 6205,3810 6082,3836 5960,3787 5837,3741 5715,3653 5592,3710 5470,3726 5348,3702 5225,3658 5103,3578 4980,3516 4858,3488 4735,3428 4613,3360 4490,3332 4368,3276 4245,3194 4123,3147 4001,3122 3878,3080 3756,3019 3633,2970 3511,2950 3388,2924 3266,2862 3143,2818 3021,2805 2898,2806 2776,2743 2654,2700 2531,2734 2409,2729 2286,2711 2164,2710 2041,2718 1919,2663 1796,2688 1674,2726 1551,2707 1429,2706 1307,2690 1307,2393 Z"/>
 <path fill="rgb(0,132,209)" stroke="none" d="M 1307,1681 L 1429,1692 1551,1721 1674,1755 1796,1705 1919,1699 2041,1742 2164,1744 2286,1752 2409,1783 2531,1795 2654,1778 2776,1817 2898,1874 3021,1884 3143,1897 3266,1929 3388,1994 3511,2034 3633,2084 3756,2123 3878,2184 4001,2236 4123,2282 4245,2349 4368,2444 4490,2527 4613,2577 4735,2651 4858,2711 4980,2765 5103,2836 5225,2930 5348,2992 5470,3022 5592,3039 5715,3006 5837,3101 5960,3180 6082,3207 6205,3190 6327,3261 6450,3304 6572,3394 6695,3568 6817,3663 6939,3673 7062,3756 7184,3753 7307,3787 7429,3858 7552,3683 7674,3735 7797,3738 7919,3793 8042,3832 8164,3851 8285,3828 8408,3814 8530,3898 8653,3882 8775,3875 8898,3899 9020,3893 9143,3816 9265,3854 9388,3870 9510,3868 9632,3948 9755,4310 9877,4230 10000,4130 10122,4014 10245,4101 10367,4055 10490,4069 10612,4069 10735,4030 10857,3982 10979,3922 11102,3800 11224,3779 11347,3899 11469,3844 11592,3859 11714,3826 11837,3747 11959,3713 12082,3791 12204,3771 12326,3729 12449,3757 12571,3714 12694,3670 12816,3706 12939,3649 13061,3637 13184,3689 13306,3682 13429,3713 13551,3726 13673,3687 13796,3680 13918,3699 14041,3652 14163,3647 14286,3669 14408,3699 14531,3810 14653,3752 14776,3674 14898,3668 15021,3660 15021,3687 14898,3697 14776,3701 14653,3779 14531,3840 14408,3730 14286,3700 14163,3678 14041,3687 13918,3732 13796,3715 13673,3721 13551,3763 13429,3747 13306,3720 13184,3729 13061,3677 12939,3694 12816,3749 12694,3719 12571,3759 12449,3807 12326,3779 12204,3825 12082,3844 11959,3769 11837,3805 11714,3885 11592,3924 11469,3921 11347,3983 11224,3852 11102,3869 10979,3990 10857,4049 10735,4105 10612,4145 10490,4154 10367,4149 10245,4197 10122,4119 10000,4235 9877,4343 9755,4430 9632,4065 9510,3984 9388,3978 9265,3974 9143,3950 9020,4038 8898,4041 8775,4012 8653,4018 8530,4031 8408,3942 8285,3954 8164,3984 8042,3970 7919,3932 7797,3880 7674,3875 7552,3828 7429,3954 7307,3889 7184,3849 7062,3849 6939,3782 6817,3775 6695,3693 6572,3523 6450,3437 6327,3398 6205,3335 6082,3369 5960,3332 5837,3277 5715,3182 5592,3219 5470,3218 5348,3194 5225,3149 5103,3064 4980,3007 4858,2975 4735,2913 4613,2848 4490,2811 4368,2751 4245,2664 4123,2616 4001,2581 3878,2543 3756,2476 3633,2445 3511,2412 3388,2385 3266,2325 3143,2290 3021,2281 2898,2294 2776,2255 2654,2240 2531,2265 2409,2281 2286,2281 2164,2288 2041,2312 1919,2297 1796,2317 1674,2376 1551,2368 1429,2393 1307,2393 1307,1681 Z"/>
 <text class="TextShape"><tspan class="TextParagraph" font-family="Arial, sans-serif" font-size="388px" font-weight="400"><tspan class="TextPosition" x="1127" y="10885"><tspan fill="rgb(0,0,0)" stroke="none">2008</tspan></tspan></tspan></text>
 <text class="TextShape"><tspan class="TextParagraph" font-family="Arial, sans-serif" font-size="388px" font-weight="400"><tspan class="TextPosition" x="2597" y="10885"><tspan fill="rgb(0,0,0)" stroke="none">2009</tspan></tspan></tspan></text>
 <text class="TextShape"><tspan class="TextParagraph" font-family="Arial, sans-serif" font-size="388px" font-weight="400"><tspan class="TextPosition" x="4066" y="10885"><tspan fill="rgb(0,0,0)" stroke="none">2010</tspan></tspan></tspan></text>
 <text class="TextShape"><tspan class="TextParagraph" font-family="Arial, sans-serif" font-size="388px" font-weight="400"><tspan class="TextPosition" x="5550" y="10885"><tspan fill="rgb(0,0,0)" stroke="none">2011</tspan></tspan></tspan></text>
 <text class="TextShape"><tspan class="TextParagraph" font-family="Arial, sans-serif" font-size="388px" font-weight="400"><tspan class="TextPosition" x="7005" y="10885"><tspan fill="rgb(0,0,0)" stroke="none">2012</tspan></tspan></tspan></text>
 <text class="TextShape"><tspan class="TextParagraph" font-family="Arial, sans-serif" font-size="388px" font-weight="400"><tspan class="TextPosition" x="8475" y="10885"><tspan fill="rgb(0,0,0)" stroke="none">2013</tspan></tspan></tspan></text>
 <text class="TextShape"><tspan class="TextParagraph" font-family="Arial, sans-serif" font-size="388px" font-weight="400"><tspan class="TextPosition" x="9944" y="10885"><tspan fill="rgb(0,0,0)" stroke="none">2014</tspan></tspan></tspan></text>
 <text class="TextShape"><tspan class="TextParagraph" font-family="Arial, sans-serif" font-size="388px" font-weight="400"><tspan class="TextPosition" x="11414" y="10885"><tspan fill="rgb(0,0,0)" stroke="none">2015</tspan></tspan></tspan></text>
 <text class="TextShape"><tspan class="TextParagraph" font-family="Arial, sans-serif" font-size="388px" font-weight="400"><tspan class="TextPosition" x="12883" y="10885"><tspan fill="rgb(0,0,0)" stroke="none">2016</tspan></tspan></tspan></text>
 <text class="TextShape"><tspan class="TextParagraph" font-family="Arial, sans-serif" font-size="388px" font-weight="400"><tspan class="TextPosition" x="14353" y="10885"><tspan fill="rgb(0,0,0)" stroke="none">2017</tspan></tspan></tspan></text>
 <text class="TextShape"><tspan class="TextParagraph" font-family="Arial, sans-serif" font-size="388px" font-weight="400"><tspan class="TextPosition" x="501" y="10425"><tspan fill="rgb(0,0,0)" stroke="none">0%</tspan></tspan></tspan></text>
 <text class="TextShape"><tspan class="TextParagraph" font-family="Arial, sans-serif" font-size="388px" font-weight="400"><tspan class="TextPosition" x="290" y="9490"><tspan fill="rgb(0,0,0)" stroke="none">10%</tspan></tspan></tspan></text>
 <text class="TextShape"><tspan class="TextParagraph" font-family="Arial, sans-serif" font-size="388px" font-weight="400"><tspan class="TextPosition" x="290" y="8556"><tspan fill="rgb(0,0,0)" stroke="none">20%</tspan></tspan></tspan></text>
 <text class="TextShape"><tspan class="TextParagraph" font-family="Arial, sans-serif" font-size="388px" font-weight="400"><tspan class="TextPosition" x="290" y="7622"><tspan fill="rgb(0,0,0)" stroke="none">30%</tspan></tspan></tspan></text>
 <text class="TextShape"><tspan class="TextParagraph" font-family="Arial, sans-serif" font-size="388px" font-weight="400"><tspan class="TextPosition" x="290" y="6688"><tspan fill="rgb(0,0,0)" stroke="none">40%</tspan></tspan></tspan></text>
 <text class="TextShape"><tspan class="TextParagraph" font-family="Arial, sans-serif" font-size="388px" font-weight="400"><tspan class="TextPosition" x="290" y="5754"><tspan fill="rgb(0,0,0)" stroke="none">50%</tspan></tspan></tspan></text>
 <text class="TextShape"><tspan class="TextParagraph" font-family="Arial, sans-serif" font-size="388px" font-weight="400"><tspan class="TextPosition" x="290" y="4820"><tspan fill="rgb(0,0,0)" stroke="none">60%</tspan></tspan></tspan></text>
 <text class="TextShape"><tspan class="TextParagraph" font-family="Arial, sans-serif" font-size="388px" font-weight="400"><tspan class="TextPosition" x="290" y="3886"><tspan fill="rgb(0,0,0)" stroke="none">70%</tspan></tspan></tspan></text>
 <text class="TextShape"><tspan class="TextParagraph" font-family="Arial, sans-serif" font-size="388px" font-weight="400"><tspan class="TextPosition" x="290" y="2952"><tspan fill="rgb(0,0,0)" stroke="none">80%</tspan></tspan></tspan></text>
 <text class="TextShape"><tspan class="TextParagraph" font-family="Arial, sans-serif" font-size="388px" font-weight="400"><tspan class="TextPosition" x="290" y="2018"><tspan fill="rgb(0,0,0)" stroke="none">90%</tspan></tspan></tspan></text>
 <text class="TextShape"><tspan class="TextParagraph" font-family="Arial, sans-serif" font-size="388px" font-weight="400"><tspan class="TextPosition" x="78" y="1084"><tspan fill="rgb(0,0,0)" stroke="none">100%</tspan></tspan></tspan></text>
 <text class="TextShape"><tspan class="TextParagraph" font-family="Arial, sans-serif" font-size="388px" font-weight="400"><tspan class="TextPosition" x="15271" y="10425"><tspan fill="rgb(0,0,0)" stroke="none">0%</tspan></tspan></tspan></text>
 <text class="TextShape"><tspan class="TextParagraph" font-family="Arial, sans-serif" font-size="388px" font-weight="400"><tspan class="TextPosition" x="15271" y="9490"><tspan fill="rgb(0,0,0)" stroke="none">10%</tspan></tspan></tspan></text>
 <text class="TextShape"><tspan class="TextParagraph" font-family="Arial, sans-serif" font-size="388px" font-weight="400"><tspan class="TextPosition" x="15271" y="8556"><tspan fill="rgb(0,0,0)" stroke="none">20%</tspan></tspan></tspan></text>
 <text class="TextShape"><tspan class="TextParagraph" font-family="Arial, sans-serif" font-size="388px" font-weight="400"><tspan class="TextPosition" x="15271" y="7622"><tspan fill="rgb(0,0,0)" stroke="none">30%</tspan></tspan></tspan></text>
 <text class="TextShape"><tspan class="TextParagraph" font-family="Arial, sans-serif" font-size="388px" font-weight="400"><tspan class="TextPosition" x="15271" y="6688"><tspan fill="rgb(0,0,0)" stroke="none">40%</tspan></tspan></tspan></text>
 <text class="TextShape"><tspan class="TextParagraph" font-family="Arial, sans-serif" font-size="388px" font-weight="400"><tspan class="TextPosition" x="15271" y="5754"><tspan fill="rgb(0,0,0)" stroke="none">50%</tspan></tspan></tspan></text>
 <text class="TextShape"><tspan class="TextParagraph" font-family="Arial, sans-serif" font-size="388px" font-weight="400"><tspan class="TextPosition" x="15271" y="4820"><tspan fill="rgb(0,0,0)" stroke="none">60%</tspan></tspan></tspan></text>
 <text class="TextShape"><tspan class="TextParagraph" font-family="Arial, sans-serif" font-size="388px" font-weight="400"><tspan class="TextPosition" x="15271" y="3886"><tspan fill="rgb(0,0,0)" stroke="none">70%</tspan></tspan></tspan></text>
 <text class="TextShape"><tspan class="TextParagraph" font-family="Arial, sans-serif" font-size="388px" font-weight="400"><tspan class="TextPosition" x="15271" y="2952"><tspan fill="rgb(0,0,0)" stroke="none">80%</tspan></tspan></tspan></text>
 <text class="TextShape"><tspan class="TextParagraph" font-family="Arial, sans-serif" font-size="388px" font-weight="400"><tspan class="TextPosition" x="15271" y="2018"><tspan fill="rgb(0,0,0)" stroke="none">90%</tspan></tspan></tspan></text>
 <text class="TextShape"><tspan class="TextParagraph" font-family="Arial, sans-serif" font-size="388px" font-weight="400"><tspan class="TextPosition" x="15271" y="1084"><tspan fill="rgb(0,0,0)" stroke="none">100%</tspan></tspan></tspan></text>
 <text class="TextShape"><tspan class="TextParagraph" font-family="Liberation Sans, sans-serif" font-size="635px" font-weight="400"><tspan class="TextPosition" x="4204" y="747"><tspan fill="rgb(0,0,0)" stroke="none">Resoluciones ms frecuentes</tspan></tspan></tspan></text>
 <path fill="rgb(255,66,14)" stroke="none" d="M 1764,11466 L 1669,11466 1669,11276 1859,11276 1859,11466 1764,11466 Z"/>
 <path fill="rgb(0,69,134)" stroke="none" d="M 3879,11466 L 3784,11466 3784,11276 3974,11276 3974,11466 3879,11466 Z"/>
 <path fill="rgb(255,211,32)" stroke="none" d="M 5994,11466 L 5899,11466 5899,11276 6089,11276 6089,11466 5994,11466 Z"/>
 <path fill="rgb(131,202,255)" stroke="none" d="M 8293,11466 L 8198,11466 8198,11276 8388,11276 8388,11466 8293,11466 Z"/>
 <path fill="rgb(49,64,4)" stroke="none" d="M 10593,11466 L 10498,11466 10498,11276 10688,11276 10688,11466 10593,11466 Z"/>
 <path fill="rgb(126,0,33)" stroke="none" d="M 12893,11466 L 12798,11466 12798,11276 12988,11276 12988,11466 12893,11466 Z"/>
 <path fill="rgb(87,157,28)" stroke="none" d="M 1764,11885 L 1669,11885 1669,11695 1859,11695 1859,11885 1764,11885 Z"/>
 <path fill="rgb(75,31,111)" stroke="none" d="M 3879,11885 L 3784,11885 3784,11695 3974,11695 3974,11885 3879,11885 Z"/>
 <path fill="rgb(255,149,14)" stroke="none" d="M 5994,11885 L 5899,11885 5899,11695 6089,11695 6089,11885 5994,11885 Z"/>
 <path fill="rgb(174,207,0)" stroke="none" d="M 8293,11885 L 8198,11885 8198,11695 8388,11695 8388,11885 8293,11885 Z"/>
 <path fill="rgb(197,0,11)" stroke="none" d="M 10593,11885 L 10498,11885 10498,11695 10688,11695 10688,11885 10593,11885 Z"/>
 <path fill="rgb(0,132,209)" stroke="none" d="M 12893,11885 L 12798,11885 12798,11695 12988,11695 12988,11885 12893,11885 Z"/>
 <text class="TextShape"><tspan class="TextParagraph" font-family="Arial, sans-serif" font-size="318px" font-weight="400"><tspan class="TextPosition" x="1959" y="11477"><tspan fill="rgb(0,0,0)" stroke="none">360 x 640</tspan></tspan></tspan></text>
 <text class="TextShape"><tspan class="TextParagraph" font-family="Arial, sans-serif" font-size="318px" font-weight="400"><tspan class="TextPosition" x="4074" y="11477"><tspan fill="rgb(0,0,0)" stroke="none">1366 x 768</tspan></tspan></tspan></text>
 <text class="TextShape"><tspan class="TextParagraph" font-family="Arial, sans-serif" font-size="318px" font-weight="400"><tspan class="TextPosition" x="6189" y="11477"><tspan fill="rgb(0,0,0)" stroke="none">375 x 667</tspan></tspan></tspan></text>
 <text class="TextShape"><tspan class="TextParagraph" font-family="Arial, sans-serif" font-size="318px" font-weight="400"><tspan class="TextPosition" x="8488" y="11477"><tspan fill="rgb(0,0,0)" stroke="none">1920 x 1080</tspan></tspan></tspan></text>
 <text class="TextShape"><tspan class="TextParagraph" font-family="Arial, sans-serif" font-size="318px" font-weight="400"><tspan class="TextPosition" x="10788" y="11477"><tspan fill="rgb(0,0,0)" stroke="none">768 x 1024</tspan></tspan></tspan></text>
 <text class="TextShape"><tspan class="TextParagraph" font-family="Arial, sans-serif" font-size="318px" font-weight="400"><tspan class="TextPosition" x="13088" y="11477"><tspan fill="rgb(0,0,0)" stroke="none">320 x 568</tspan></tspan></tspan></text>
 <text class="TextShape"><tspan class="TextParagraph" font-family="Arial, sans-serif" font-size="318px" font-weight="400"><tspan class="TextPosition" x="1959" y="11896"><tspan fill="rgb(0,0,0)" stroke="none">1280 x 800</tspan></tspan></tspan></text>
 <text class="TextShape"><tspan class="TextParagraph" font-family="Arial, sans-serif" font-size="318px" font-weight="400"><tspan class="TextPosition" x="4074" y="11896"><tspan fill="rgb(0,0,0)" stroke="none">1440 x 900</tspan></tspan></tspan></text>
 <text class="TextShape"><tspan class="TextParagraph" font-family="Arial, sans-serif" font-size="318px" font-weight="400"><tspan class="TextPosition" x="6189" y="11896"><tspan fill="rgb(0,0,0)" stroke="none">1280 x 1024</tspan></tspan></tspan></text>
 <text class="TextShape"><tspan class="TextParagraph" font-family="Arial, sans-serif" font-size="318px" font-weight="400"><tspan class="TextPosition" x="8488" y="11896"><tspan fill="rgb(0,0,0)" stroke="none">1024 x 768</tspan></tspan></tspan></text>
 <text class="TextShape"><tspan class="TextParagraph" font-family="Arial, sans-serif" font-size="318px" font-weight="400"><tspan class="TextPosition" x="10788" y="11896"><tspan fill="rgb(0,0,0)" stroke="none">1680 x 1050</tspan></tspan></tspan></text>
 <text class="TextShape"><tspan class="TextParagraph" font-family="Arial, sans-serif" font-size="318px" font-weight="400"><tspan class="TextPosition" x="13088" y="11896"><tspan fill="rgb(0,0,0)" stroke="none">1024 x 600</tspan></tspan></tspan></text>
</svg>
