<?xml version="1.0" encoding="UTF-8"?>
<!DOCTYPE svg PUBLIC "-//W3C//DTD SVG 1.1//EN" "http://www.w3.org/Graphics/SVG/1.1/DTD/svg11.dtd">
<svg width="163mm" height="122mm" viewBox="0 0 16300 12200" version="1.1" xmlns="http://www.w3.org/2000/svg" stroke-width="28.222" stroke-linejoin="round" xml:space="preserve">
 <path fill="rgb(255,255,255)" stroke="none" d="M 8184,12221 L 12,12221 12,0 16356,0 16356,12221 8184,12221 Z"/>
 <path fill="none" stroke="rgb(179,179,179)" stroke-linejoin="round" d="M 8119,10762 L 1428,10762 1428,1093 14809,1093 14809,10762 8119,10762 Z"/>
 <path fill="none" stroke="rgb(179,179,179)" stroke-linejoin="round" d="M 14809,10761 L 1428,10761"/>
 <path fill="none" stroke="rgb(179,179,179)" stroke-linejoin="round" d="M 14809,9794 L 1428,9794"/>
 <path fill="none" stroke="rgb(179,179,179)" stroke-linejoin="round" d="M 14809,8827 L 1428,8827"/>
 <path fill="none" stroke="rgb(179,179,179)" stroke-linejoin="round" d="M 14809,7860 L 1428,7860"/>
 <path fill="none" stroke="rgb(179,179,179)" stroke-linejoin="round" d="M 14809,6893 L 1428,6893"/>
 <path fill="none" stroke="rgb(179,179,179)" stroke-linejoin="round" d="M 14809,5927 L 1428,5927"/>
 <path fill="none" stroke="rgb(179,179,179)" stroke-linejoin="round" d="M 14809,4959 L 1428,4959"/>
 <path fill="none" stroke="rgb(179,179,179)" stroke-linejoin="round" d="M 14809,3992 L 1428,3992"/>
 <path fill="none" stroke="rgb(179,179,179)" stroke-linejoin="round" d="M 14809,3026 L 1428,3026"/>
 <path fill="none" stroke="rgb(179,179,179)" stroke-linejoin="round" d="M 14809,2059 L 1428,2059"/>
 <path fill="none" stroke="rgb(179,179,179)" stroke-linejoin="round" d="M 14809,1092 L 1428,1092"/>
 <path fill="none" stroke="rgb(0,0,0)" stroke-width="30" stroke-linejoin="round" d="M 1428,10911 L 1428,10761"/>
 <path fill="none" stroke="rgb(0,0,0)" stroke-width="30" stroke-linejoin="round" d="M 1428,10911 L 1428,10761"/>
 <path fill="none" stroke="rgb(0,0,0)" stroke-width="30" stroke-linejoin="round" d="M 1545,10911 L 1545,10761"/>
 <path fill="none" stroke="rgb(0,0,0)" stroke-width="30" stroke-linejoin="round" d="M 1545,10911 L 1545,10761"/>
 <path fill="none" stroke="rgb(0,0,0)" stroke-width="30" stroke-linejoin="round" d="M 1662,10911 L 1662,10761"/>
 <path fill="none" stroke="rgb(0,0,0)" stroke-width="30" stroke-linejoin="round" d="M 1662,10911 L 1662,10761"/>
 <path fill="none" stroke="rgb(0,0,0)" stroke-width="30" stroke-linejoin="round" d="M 1780,10911 L 1780,10761"/>
 <path fill="none" stroke="rgb(0,0,0)" stroke-width="30" stroke-linejoin="round" d="M 1780,10911 L 1780,10761"/>
 <path fill="none" stroke="rgb(0,0,0)" stroke-width="30" stroke-linejoin="round" d="M 1897,10911 L 1897,10761"/>
 <path fill="none" stroke="rgb(0,0,0)" stroke-width="30" stroke-linejoin="round" d="M 1897,10911 L 1897,10761"/>
 <path fill="none" stroke="rgb(0,0,0)" stroke-width="30" stroke-linejoin="round" d="M 2014,10911 L 2014,10761"/>
 <path fill="none" stroke="rgb(0,0,0)" stroke-width="30" stroke-linejoin="round" d="M 2014,10911 L 2014,10761"/>
 <path fill="none" stroke="rgb(0,0,0)" stroke-width="30" stroke-linejoin="round" d="M 2132,10911 L 2132,10761"/>
 <path fill="none" stroke="rgb(0,0,0)" stroke-width="30" stroke-linejoin="round" d="M 2132,10911 L 2132,10761"/>
 <path fill="none" stroke="rgb(0,0,0)" stroke-width="30" stroke-linejoin="round" d="M 2249,10911 L 2249,10761"/>
 <path fill="none" stroke="rgb(0,0,0)" stroke-width="30" stroke-linejoin="round" d="M 2249,10911 L 2249,10761"/>
 <path fill="none" stroke="rgb(0,0,0)" stroke-width="30" stroke-linejoin="round" d="M 2367,10911 L 2367,10761"/>
 <path fill="none" stroke="rgb(0,0,0)" stroke-width="30" stroke-linejoin="round" d="M 2367,10911 L 2367,10761"/>
 <path fill="none" stroke="rgb(0,0,0)" stroke-width="30" stroke-linejoin="round" d="M 2484,10911 L 2484,10761"/>
 <path fill="none" stroke="rgb(0,0,0)" stroke-width="30" stroke-linejoin="round" d="M 2484,10911 L 2484,10761"/>
 <path fill="none" stroke="rgb(0,0,0)" stroke-width="30" stroke-linejoin="round" d="M 2601,10911 L 2601,10761"/>
 <path fill="none" stroke="rgb(0,0,0)" stroke-width="30" stroke-linejoin="round" d="M 2601,10911 L 2601,10761"/>
 <path fill="none" stroke="rgb(0,0,0)" stroke-width="30" stroke-linejoin="round" d="M 2719,10911 L 2719,10761"/>
 <path fill="none" stroke="rgb(0,0,0)" stroke-width="30" stroke-linejoin="round" d="M 2719,10911 L 2719,10761"/>
 <path fill="none" stroke="rgb(0,0,0)" stroke-width="30" stroke-linejoin="round" d="M 2836,10911 L 2836,10761"/>
 <path fill="none" stroke="rgb(0,0,0)" stroke-width="30" stroke-linejoin="round" d="M 2836,10911 L 2836,10761"/>
 <path fill="none" stroke="rgb(0,0,0)" stroke-width="30" stroke-linejoin="round" d="M 2954,10911 L 2954,10761"/>
 <path fill="none" stroke="rgb(0,0,0)" stroke-width="30" stroke-linejoin="round" d="M 2954,10911 L 2954,10761"/>
 <path fill="none" stroke="rgb(0,0,0)" stroke-width="30" stroke-linejoin="round" d="M 3071,10911 L 3071,10761"/>
 <path fill="none" stroke="rgb(0,0,0)" stroke-width="30" stroke-linejoin="round" d="M 3071,10911 L 3071,10761"/>
 <path fill="none" stroke="rgb(0,0,0)" stroke-width="30" stroke-linejoin="round" d="M 3188,10911 L 3188,10761"/>
 <path fill="none" stroke="rgb(0,0,0)" stroke-width="30" stroke-linejoin="round" d="M 3188,10911 L 3188,10761"/>
 <path fill="none" stroke="rgb(0,0,0)" stroke-width="30" stroke-linejoin="round" d="M 3306,10911 L 3306,10761"/>
 <path fill="none" stroke="rgb(0,0,0)" stroke-width="30" stroke-linejoin="round" d="M 3306,10911 L 3306,10761"/>
 <path fill="none" stroke="rgb(0,0,0)" stroke-width="30" stroke-linejoin="round" d="M 3423,10911 L 3423,10761"/>
 <path fill="none" stroke="rgb(0,0,0)" stroke-width="30" stroke-linejoin="round" d="M 3423,10911 L 3423,10761"/>
 <path fill="none" stroke="rgb(0,0,0)" stroke-width="30" stroke-linejoin="round" d="M 3540,10911 L 3540,10761"/>
 <path fill="none" stroke="rgb(0,0,0)" stroke-width="30" stroke-linejoin="round" d="M 3540,10911 L 3540,10761"/>
 <path fill="none" stroke="rgb(0,0,0)" stroke-width="30" stroke-linejoin="round" d="M 3658,10911 L 3658,10761"/>
 <path fill="none" stroke="rgb(0,0,0)" stroke-width="30" stroke-linejoin="round" d="M 3658,10911 L 3658,10761"/>
 <path fill="none" stroke="rgb(0,0,0)" stroke-width="30" stroke-linejoin="round" d="M 3775,10911 L 3775,10761"/>
 <path fill="none" stroke="rgb(0,0,0)" stroke-width="30" stroke-linejoin="round" d="M 3775,10911 L 3775,10761"/>
 <path fill="none" stroke="rgb(0,0,0)" stroke-width="30" stroke-linejoin="round" d="M 3893,10911 L 3893,10761"/>
 <path fill="none" stroke="rgb(0,0,0)" stroke-width="30" stroke-linejoin="round" d="M 3893,10911 L 3893,10761"/>
 <path fill="none" stroke="rgb(0,0,0)" stroke-width="30" stroke-linejoin="round" d="M 4010,10911 L 4010,10761"/>
 <path fill="none" stroke="rgb(0,0,0)" stroke-width="30" stroke-linejoin="round" d="M 4010,10911 L 4010,10761"/>
 <path fill="none" stroke="rgb(0,0,0)" stroke-width="30" stroke-linejoin="round" d="M 4127,10911 L 4127,10761"/>
 <path fill="none" stroke="rgb(0,0,0)" stroke-width="30" stroke-linejoin="round" d="M 4127,10911 L 4127,10761"/>
 <path fill="none" stroke="rgb(0,0,0)" stroke-width="30" stroke-linejoin="round" d="M 4245,10911 L 4245,10761"/>
 <path fill="none" stroke="rgb(0,0,0)" stroke-width="30" stroke-linejoin="round" d="M 4245,10911 L 4245,10761"/>
 <path fill="none" stroke="rgb(0,0,0)" stroke-width="30" stroke-linejoin="round" d="M 4362,10911 L 4362,10761"/>
 <path fill="none" stroke="rgb(0,0,0)" stroke-width="30" stroke-linejoin="round" d="M 4362,10911 L 4362,10761"/>
 <path fill="none" stroke="rgb(0,0,0)" stroke-width="30" stroke-linejoin="round" d="M 4480,10911 L 4480,10761"/>
 <path fill="none" stroke="rgb(0,0,0)" stroke-width="30" stroke-linejoin="round" d="M 4480,10911 L 4480,10761"/>
 <path fill="none" stroke="rgb(0,0,0)" stroke-width="30" stroke-linejoin="round" d="M 4597,10911 L 4597,10761"/>
 <path fill="none" stroke="rgb(0,0,0)" stroke-width="30" stroke-linejoin="round" d="M 4597,10911 L 4597,10761"/>
 <path fill="none" stroke="rgb(0,0,0)" stroke-width="30" stroke-linejoin="round" d="M 4714,10911 L 4714,10761"/>
 <path fill="none" stroke="rgb(0,0,0)" stroke-width="30" stroke-linejoin="round" d="M 4714,10911 L 4714,10761"/>
 <path fill="none" stroke="rgb(0,0,0)" stroke-width="30" stroke-linejoin="round" d="M 4832,10911 L 4832,10761"/>
 <path fill="none" stroke="rgb(0,0,0)" stroke-width="30" stroke-linejoin="round" d="M 4832,10911 L 4832,10761"/>
 <path fill="none" stroke="rgb(0,0,0)" stroke-width="30" stroke-linejoin="round" d="M 4949,10911 L 4949,10761"/>
 <path fill="none" stroke="rgb(0,0,0)" stroke-width="30" stroke-linejoin="round" d="M 4949,10911 L 4949,10761"/>
 <path fill="none" stroke="rgb(0,0,0)" stroke-width="30" stroke-linejoin="round" d="M 5066,10911 L 5066,10761"/>
 <path fill="none" stroke="rgb(0,0,0)" stroke-width="30" stroke-linejoin="round" d="M 5066,10911 L 5066,10761"/>
 <path fill="none" stroke="rgb(0,0,0)" stroke-width="30" stroke-linejoin="round" d="M 5184,10911 L 5184,10761"/>
 <path fill="none" stroke="rgb(0,0,0)" stroke-width="30" stroke-linejoin="round" d="M 5184,10911 L 5184,10761"/>
 <path fill="none" stroke="rgb(0,0,0)" stroke-width="30" stroke-linejoin="round" d="M 5301,10911 L 5301,10761"/>
 <path fill="none" stroke="rgb(0,0,0)" stroke-width="30" stroke-linejoin="round" d="M 5301,10911 L 5301,10761"/>
 <path fill="none" stroke="rgb(0,0,0)" stroke-width="30" stroke-linejoin="round" d="M 5419,10911 L 5419,10761"/>
 <path fill="none" stroke="rgb(0,0,0)" stroke-width="30" stroke-linejoin="round" d="M 5419,10911 L 5419,10761"/>
 <path fill="none" stroke="rgb(0,0,0)" stroke-width="30" stroke-linejoin="round" d="M 5536,10911 L 5536,10761"/>
 <path fill="none" stroke="rgb(0,0,0)" stroke-width="30" stroke-linejoin="round" d="M 5536,10911 L 5536,10761"/>
 <path fill="none" stroke="rgb(0,0,0)" stroke-width="30" stroke-linejoin="round" d="M 5653,10911 L 5653,10761"/>
 <path fill="none" stroke="rgb(0,0,0)" stroke-width="30" stroke-linejoin="round" d="M 5653,10911 L 5653,10761"/>
 <path fill="none" stroke="rgb(0,0,0)" stroke-width="30" stroke-linejoin="round" d="M 5771,10911 L 5771,10761"/>
 <path fill="none" stroke="rgb(0,0,0)" stroke-width="30" stroke-linejoin="round" d="M 5771,10911 L 5771,10761"/>
 <path fill="none" stroke="rgb(0,0,0)" stroke-width="30" stroke-linejoin="round" d="M 5888,10911 L 5888,10761"/>
 <path fill="none" stroke="rgb(0,0,0)" stroke-width="30" stroke-linejoin="round" d="M 5888,10911 L 5888,10761"/>
 <path fill="none" stroke="rgb(0,0,0)" stroke-width="30" stroke-linejoin="round" d="M 6006,10911 L 6006,10761"/>
 <path fill="none" stroke="rgb(0,0,0)" stroke-width="30" stroke-linejoin="round" d="M 6006,10911 L 6006,10761"/>
 <path fill="none" stroke="rgb(0,0,0)" stroke-width="30" stroke-linejoin="round" d="M 6123,10911 L 6123,10761"/>
 <path fill="none" stroke="rgb(0,0,0)" stroke-width="30" stroke-linejoin="round" d="M 6123,10911 L 6123,10761"/>
 <path fill="none" stroke="rgb(0,0,0)" stroke-width="30" stroke-linejoin="round" d="M 6240,10911 L 6240,10761"/>
 <path fill="none" stroke="rgb(0,0,0)" stroke-width="30" stroke-linejoin="round" d="M 6240,10911 L 6240,10761"/>
 <path fill="none" stroke="rgb(0,0,0)" stroke-width="30" stroke-linejoin="round" d="M 6358,10911 L 6358,10761"/>
 <path fill="none" stroke="rgb(0,0,0)" stroke-width="30" stroke-linejoin="round" d="M 6358,10911 L 6358,10761"/>
 <path fill="none" stroke="rgb(0,0,0)" stroke-width="30" stroke-linejoin="round" d="M 6475,10911 L 6475,10761"/>
 <path fill="none" stroke="rgb(0,0,0)" stroke-width="30" stroke-linejoin="round" d="M 6475,10911 L 6475,10761"/>
 <path fill="none" stroke="rgb(0,0,0)" stroke-width="30" stroke-linejoin="round" d="M 6592,10911 L 6592,10761"/>
 <path fill="none" stroke="rgb(0,0,0)" stroke-width="30" stroke-linejoin="round" d="M 6592,10911 L 6592,10761"/>
 <path fill="none" stroke="rgb(0,0,0)" stroke-width="30" stroke-linejoin="round" d="M 6710,10911 L 6710,10761"/>
 <path fill="none" stroke="rgb(0,0,0)" stroke-width="30" stroke-linejoin="round" d="M 6710,10911 L 6710,10761"/>
 <path fill="none" stroke="rgb(0,0,0)" stroke-width="30" stroke-linejoin="round" d="M 6827,10911 L 6827,10761"/>
 <path fill="none" stroke="rgb(0,0,0)" stroke-width="30" stroke-linejoin="round" d="M 6827,10911 L 6827,10761"/>
 <path fill="none" stroke="rgb(0,0,0)" stroke-width="30" stroke-linejoin="round" d="M 6945,10911 L 6945,10761"/>
 <path fill="none" stroke="rgb(0,0,0)" stroke-width="30" stroke-linejoin="round" d="M 6945,10911 L 6945,10761"/>
 <path fill="none" stroke="rgb(0,0,0)" stroke-width="30" stroke-linejoin="round" d="M 7062,10911 L 7062,10761"/>
 <path fill="none" stroke="rgb(0,0,0)" stroke-width="30" stroke-linejoin="round" d="M 7062,10911 L 7062,10761"/>
 <path fill="none" stroke="rgb(0,0,0)" stroke-width="30" stroke-linejoin="round" d="M 7179,10911 L 7179,10761"/>
 <path fill="none" stroke="rgb(0,0,0)" stroke-width="30" stroke-linejoin="round" d="M 7179,10911 L 7179,10761"/>
 <path fill="none" stroke="rgb(0,0,0)" stroke-width="30" stroke-linejoin="round" d="M 7297,10911 L 7297,10761"/>
 <path fill="none" stroke="rgb(0,0,0)" stroke-width="30" stroke-linejoin="round" d="M 7297,10911 L 7297,10761"/>
 <path fill="none" stroke="rgb(0,0,0)" stroke-width="30" stroke-linejoin="round" d="M 7414,10911 L 7414,10761"/>
 <path fill="none" stroke="rgb(0,0,0)" stroke-width="30" stroke-linejoin="round" d="M 7414,10911 L 7414,10761"/>
 <path fill="none" stroke="rgb(0,0,0)" stroke-width="30" stroke-linejoin="round" d="M 7532,10911 L 7532,10761"/>
 <path fill="none" stroke="rgb(0,0,0)" stroke-width="30" stroke-linejoin="round" d="M 7532,10911 L 7532,10761"/>
 <path fill="none" stroke="rgb(0,0,0)" stroke-width="30" stroke-linejoin="round" d="M 7649,10911 L 7649,10761"/>
 <path fill="none" stroke="rgb(0,0,0)" stroke-width="30" stroke-linejoin="round" d="M 7649,10911 L 7649,10761"/>
 <path fill="none" stroke="rgb(0,0,0)" stroke-width="30" stroke-linejoin="round" d="M 7766,10911 L 7766,10761"/>
 <path fill="none" stroke="rgb(0,0,0)" stroke-width="30" stroke-linejoin="round" d="M 7766,10911 L 7766,10761"/>
 <path fill="none" stroke="rgb(0,0,0)" stroke-width="30" stroke-linejoin="round" d="M 7884,10911 L 7884,10761"/>
 <path fill="none" stroke="rgb(0,0,0)" stroke-width="30" stroke-linejoin="round" d="M 7884,10911 L 7884,10761"/>
 <path fill="none" stroke="rgb(0,0,0)" stroke-width="30" stroke-linejoin="round" d="M 8001,10911 L 8001,10761"/>
 <path fill="none" stroke="rgb(0,0,0)" stroke-width="30" stroke-linejoin="round" d="M 8001,10911 L 8001,10761"/>
 <path fill="none" stroke="rgb(0,0,0)" stroke-width="30" stroke-linejoin="round" d="M 8119,10911 L 8119,10761"/>
 <path fill="none" stroke="rgb(0,0,0)" stroke-width="30" stroke-linejoin="round" d="M 8119,10911 L 8119,10761"/>
 <path fill="none" stroke="rgb(0,0,0)" stroke-width="30" stroke-linejoin="round" d="M 8235,10911 L 8235,10761"/>
 <path fill="none" stroke="rgb(0,0,0)" stroke-width="30" stroke-linejoin="round" d="M 8235,10911 L 8235,10761"/>
 <path fill="none" stroke="rgb(0,0,0)" stroke-width="30" stroke-linejoin="round" d="M 8352,10911 L 8352,10761"/>
 <path fill="none" stroke="rgb(0,0,0)" stroke-width="30" stroke-linejoin="round" d="M 8352,10911 L 8352,10761"/>
 <path fill="none" stroke="rgb(0,0,0)" stroke-width="30" stroke-linejoin="round" d="M 8470,10911 L 8470,10761"/>
 <path fill="none" stroke="rgb(0,0,0)" stroke-width="30" stroke-linejoin="round" d="M 8470,10911 L 8470,10761"/>
 <path fill="none" stroke="rgb(0,0,0)" stroke-width="30" stroke-linejoin="round" d="M 8587,10911 L 8587,10761"/>
 <path fill="none" stroke="rgb(0,0,0)" stroke-width="30" stroke-linejoin="round" d="M 8587,10911 L 8587,10761"/>
 <path fill="none" stroke="rgb(0,0,0)" stroke-width="30" stroke-linejoin="round" d="M 8704,10911 L 8704,10761"/>
 <path fill="none" stroke="rgb(0,0,0)" stroke-width="30" stroke-linejoin="round" d="M 8704,10911 L 8704,10761"/>
 <path fill="none" stroke="rgb(0,0,0)" stroke-width="30" stroke-linejoin="round" d="M 8822,10911 L 8822,10761"/>
 <path fill="none" stroke="rgb(0,0,0)" stroke-width="30" stroke-linejoin="round" d="M 8822,10911 L 8822,10761"/>
 <path fill="none" stroke="rgb(0,0,0)" stroke-width="30" stroke-linejoin="round" d="M 8939,10911 L 8939,10761"/>
 <path fill="none" stroke="rgb(0,0,0)" stroke-width="30" stroke-linejoin="round" d="M 8939,10911 L 8939,10761"/>
 <path fill="none" stroke="rgb(0,0,0)" stroke-width="30" stroke-linejoin="round" d="M 9057,10911 L 9057,10761"/>
 <path fill="none" stroke="rgb(0,0,0)" stroke-width="30" stroke-linejoin="round" d="M 9057,10911 L 9057,10761"/>
 <path fill="none" stroke="rgb(0,0,0)" stroke-width="30" stroke-linejoin="round" d="M 9174,10911 L 9174,10761"/>
 <path fill="none" stroke="rgb(0,0,0)" stroke-width="30" stroke-linejoin="round" d="M 9174,10911 L 9174,10761"/>
 <path fill="none" stroke="rgb(0,0,0)" stroke-width="30" stroke-linejoin="round" d="M 9291,10911 L 9291,10761"/>
 <path fill="none" stroke="rgb(0,0,0)" stroke-width="30" stroke-linejoin="round" d="M 9291,10911 L 9291,10761"/>
 <path fill="none" stroke="rgb(0,0,0)" stroke-width="30" stroke-linejoin="round" d="M 9409,10911 L 9409,10761"/>
 <path fill="none" stroke="rgb(0,0,0)" stroke-width="30" stroke-linejoin="round" d="M 9409,10911 L 9409,10761"/>
 <path fill="none" stroke="rgb(0,0,0)" stroke-width="30" stroke-linejoin="round" d="M 9526,10911 L 9526,10761"/>
 <path fill="none" stroke="rgb(0,0,0)" stroke-width="30" stroke-linejoin="round" d="M 9526,10911 L 9526,10761"/>
 <path fill="none" stroke="rgb(0,0,0)" stroke-width="30" stroke-linejoin="round" d="M 9644,10911 L 9644,10761"/>
 <path fill="none" stroke="rgb(0,0,0)" stroke-width="30" stroke-linejoin="round" d="M 9644,10911 L 9644,10761"/>
 <path fill="none" stroke="rgb(0,0,0)" stroke-width="30" stroke-linejoin="round" d="M 9761,10911 L 9761,10761"/>
 <path fill="none" stroke="rgb(0,0,0)" stroke-width="30" stroke-linejoin="round" d="M 9761,10911 L 9761,10761"/>
 <path fill="none" stroke="rgb(0,0,0)" stroke-width="30" stroke-linejoin="round" d="M 9878,10911 L 9878,10761"/>
 <path fill="none" stroke="rgb(0,0,0)" stroke-width="30" stroke-linejoin="round" d="M 9878,10911 L 9878,10761"/>
 <path fill="none" stroke="rgb(0,0,0)" stroke-width="30" stroke-linejoin="round" d="M 9996,10911 L 9996,10761"/>
 <path fill="none" stroke="rgb(0,0,0)" stroke-width="30" stroke-linejoin="round" d="M 9996,10911 L 9996,10761"/>
 <path fill="none" stroke="rgb(0,0,0)" stroke-width="30" stroke-linejoin="round" d="M 10113,10911 L 10113,10761"/>
 <path fill="none" stroke="rgb(0,0,0)" stroke-width="30" stroke-linejoin="round" d="M 10113,10911 L 10113,10761"/>
 <path fill="none" stroke="rgb(0,0,0)" stroke-width="30" stroke-linejoin="round" d="M 10230,10911 L 10230,10761"/>
 <path fill="none" stroke="rgb(0,0,0)" stroke-width="30" stroke-linejoin="round" d="M 10230,10911 L 10230,10761"/>
 <path fill="none" stroke="rgb(0,0,0)" stroke-width="30" stroke-linejoin="round" d="M 10348,10911 L 10348,10761"/>
 <path fill="none" stroke="rgb(0,0,0)" stroke-width="30" stroke-linejoin="round" d="M 10348,10911 L 10348,10761"/>
 <path fill="none" stroke="rgb(0,0,0)" stroke-width="30" stroke-linejoin="round" d="M 10465,10911 L 10465,10761"/>
 <path fill="none" stroke="rgb(0,0,0)" stroke-width="30" stroke-linejoin="round" d="M 10465,10911 L 10465,10761"/>
 <path fill="none" stroke="rgb(0,0,0)" stroke-width="30" stroke-linejoin="round" d="M 10583,10911 L 10583,10761"/>
 <path fill="none" stroke="rgb(0,0,0)" stroke-width="30" stroke-linejoin="round" d="M 10583,10911 L 10583,10761"/>
 <path fill="none" stroke="rgb(0,0,0)" stroke-width="30" stroke-linejoin="round" d="M 10700,10911 L 10700,10761"/>
 <path fill="none" stroke="rgb(0,0,0)" stroke-width="30" stroke-linejoin="round" d="M 10700,10911 L 10700,10761"/>
 <path fill="none" stroke="rgb(0,0,0)" stroke-width="30" stroke-linejoin="round" d="M 10817,10911 L 10817,10761"/>
 <path fill="none" stroke="rgb(0,0,0)" stroke-width="30" stroke-linejoin="round" d="M 10817,10911 L 10817,10761"/>
 <path fill="none" stroke="rgb(0,0,0)" stroke-width="30" stroke-linejoin="round" d="M 10935,10911 L 10935,10761"/>
 <path fill="none" stroke="rgb(0,0,0)" stroke-width="30" stroke-linejoin="round" d="M 10935,10911 L 10935,10761"/>
 <path fill="none" stroke="rgb(0,0,0)" stroke-width="30" stroke-linejoin="round" d="M 11052,10911 L 11052,10761"/>
 <path fill="none" stroke="rgb(0,0,0)" stroke-width="30" stroke-linejoin="round" d="M 11052,10911 L 11052,10761"/>
 <path fill="none" stroke="rgb(0,0,0)" stroke-width="30" stroke-linejoin="round" d="M 11170,10911 L 11170,10761"/>
 <path fill="none" stroke="rgb(0,0,0)" stroke-width="30" stroke-linejoin="round" d="M 11170,10911 L 11170,10761"/>
 <path fill="none" stroke="rgb(0,0,0)" stroke-width="30" stroke-linejoin="round" d="M 11287,10911 L 11287,10761"/>
 <path fill="none" stroke="rgb(0,0,0)" stroke-width="30" stroke-linejoin="round" d="M 11287,10911 L 11287,10761"/>
 <path fill="none" stroke="rgb(0,0,0)" stroke-width="30" stroke-linejoin="round" d="M 11404,10911 L 11404,10761"/>
 <path fill="none" stroke="rgb(0,0,0)" stroke-width="30" stroke-linejoin="round" d="M 11404,10911 L 11404,10761"/>
 <path fill="none" stroke="rgb(0,0,0)" stroke-width="30" stroke-linejoin="round" d="M 11522,10911 L 11522,10761"/>
 <path fill="none" stroke="rgb(0,0,0)" stroke-width="30" stroke-linejoin="round" d="M 11522,10911 L 11522,10761"/>
 <path fill="none" stroke="rgb(0,0,0)" stroke-width="30" stroke-linejoin="round" d="M 11639,10911 L 11639,10761"/>
 <path fill="none" stroke="rgb(0,0,0)" stroke-width="30" stroke-linejoin="round" d="M 11639,10911 L 11639,10761"/>
 <path fill="none" stroke="rgb(0,0,0)" stroke-width="30" stroke-linejoin="round" d="M 11756,10911 L 11756,10761"/>
 <path fill="none" stroke="rgb(0,0,0)" stroke-width="30" stroke-linejoin="round" d="M 11756,10911 L 11756,10761"/>
 <path fill="none" stroke="rgb(0,0,0)" stroke-width="30" stroke-linejoin="round" d="M 11874,10911 L 11874,10761"/>
 <path fill="none" stroke="rgb(0,0,0)" stroke-width="30" stroke-linejoin="round" d="M 11874,10911 L 11874,10761"/>
 <path fill="none" stroke="rgb(0,0,0)" stroke-width="30" stroke-linejoin="round" d="M 11991,10911 L 11991,10761"/>
 <path fill="none" stroke="rgb(0,0,0)" stroke-width="30" stroke-linejoin="round" d="M 11991,10911 L 11991,10761"/>
 <path fill="none" stroke="rgb(0,0,0)" stroke-width="30" stroke-linejoin="round" d="M 12109,10911 L 12109,10761"/>
 <path fill="none" stroke="rgb(0,0,0)" stroke-width="30" stroke-linejoin="round" d="M 12109,10911 L 12109,10761"/>
 <path fill="none" stroke="rgb(0,0,0)" stroke-width="30" stroke-linejoin="round" d="M 12226,10911 L 12226,10761"/>
 <path fill="none" stroke="rgb(0,0,0)" stroke-width="30" stroke-linejoin="round" d="M 12226,10911 L 12226,10761"/>
 <path fill="none" stroke="rgb(0,0,0)" stroke-width="30" stroke-linejoin="round" d="M 12343,10911 L 12343,10761"/>
 <path fill="none" stroke="rgb(0,0,0)" stroke-width="30" stroke-linejoin="round" d="M 12343,10911 L 12343,10761"/>
 <path fill="none" stroke="rgb(0,0,0)" stroke-width="30" stroke-linejoin="round" d="M 12461,10911 L 12461,10761"/>
 <path fill="none" stroke="rgb(0,0,0)" stroke-width="30" stroke-linejoin="round" d="M 12461,10911 L 12461,10761"/>
 <path fill="none" stroke="rgb(0,0,0)" stroke-width="30" stroke-linejoin="round" d="M 12578,10911 L 12578,10761"/>
 <path fill="none" stroke="rgb(0,0,0)" stroke-width="30" stroke-linejoin="round" d="M 12578,10911 L 12578,10761"/>
 <path fill="none" stroke="rgb(0,0,0)" stroke-width="30" stroke-linejoin="round" d="M 12696,10911 L 12696,10761"/>
 <path fill="none" stroke="rgb(0,0,0)" stroke-width="30" stroke-linejoin="round" d="M 12696,10911 L 12696,10761"/>
 <path fill="none" stroke="rgb(0,0,0)" stroke-width="30" stroke-linejoin="round" d="M 12813,10911 L 12813,10761"/>
 <path fill="none" stroke="rgb(0,0,0)" stroke-width="30" stroke-linejoin="round" d="M 12813,10911 L 12813,10761"/>
 <path fill="none" stroke="rgb(0,0,0)" stroke-width="30" stroke-linejoin="round" d="M 12930,10911 L 12930,10761"/>
 <path fill="none" stroke="rgb(0,0,0)" stroke-width="30" stroke-linejoin="round" d="M 12930,10911 L 12930,10761"/>
 <path fill="none" stroke="rgb(0,0,0)" stroke-width="30" stroke-linejoin="round" d="M 13048,10911 L 13048,10761"/>
 <path fill="none" stroke="rgb(0,0,0)" stroke-width="30" stroke-linejoin="round" d="M 13048,10911 L 13048,10761"/>
 <path fill="none" stroke="rgb(0,0,0)" stroke-width="30" stroke-linejoin="round" d="M 13165,10911 L 13165,10761"/>
 <path fill="none" stroke="rgb(0,0,0)" stroke-width="30" stroke-linejoin="round" d="M 13165,10911 L 13165,10761"/>
 <path fill="none" stroke="rgb(0,0,0)" stroke-width="30" stroke-linejoin="round" d="M 13282,10911 L 13282,10761"/>
 <path fill="none" stroke="rgb(0,0,0)" stroke-width="30" stroke-linejoin="round" d="M 13282,10911 L 13282,10761"/>
 <path fill="none" stroke="rgb(0,0,0)" stroke-width="30" stroke-linejoin="round" d="M 13400,10911 L 13400,10761"/>
 <path fill="none" stroke="rgb(0,0,0)" stroke-width="30" stroke-linejoin="round" d="M 13400,10911 L 13400,10761"/>
 <path fill="none" stroke="rgb(0,0,0)" stroke-width="30" stroke-linejoin="round" d="M 13517,10911 L 13517,10761"/>
 <path fill="none" stroke="rgb(0,0,0)" stroke-width="30" stroke-linejoin="round" d="M 13517,10911 L 13517,10761"/>
 <path fill="none" stroke="rgb(0,0,0)" stroke-width="30" stroke-linejoin="round" d="M 13635,10911 L 13635,10761"/>
 <path fill="none" stroke="rgb(0,0,0)" stroke-width="30" stroke-linejoin="round" d="M 13635,10911 L 13635,10761"/>
 <path fill="none" stroke="rgb(0,0,0)" stroke-width="30" stroke-linejoin="round" d="M 13752,10911 L 13752,10761"/>
 <path fill="none" stroke="rgb(0,0,0)" stroke-width="30" stroke-linejoin="round" d="M 13752,10911 L 13752,10761"/>
 <path fill="none" stroke="rgb(0,0,0)" stroke-width="30" stroke-linejoin="round" d="M 13869,10911 L 13869,10761"/>
 <path fill="none" stroke="rgb(0,0,0)" stroke-width="30" stroke-linejoin="round" d="M 13869,10911 L 13869,10761"/>
 <path fill="none" stroke="rgb(0,0,0)" stroke-width="30" stroke-linejoin="round" d="M 13987,10911 L 13987,10761"/>
 <path fill="none" stroke="rgb(0,0,0)" stroke-width="30" stroke-linejoin="round" d="M 13987,10911 L 13987,10761"/>
 <path fill="none" stroke="rgb(0,0,0)" stroke-width="30" stroke-linejoin="round" d="M 14104,10911 L 14104,10761"/>
 <path fill="none" stroke="rgb(0,0,0)" stroke-width="30" stroke-linejoin="round" d="M 14104,10911 L 14104,10761"/>
 <path fill="none" stroke="rgb(0,0,0)" stroke-width="30" stroke-linejoin="round" d="M 14222,10911 L 14222,10761"/>
 <path fill="none" stroke="rgb(0,0,0)" stroke-width="30" stroke-linejoin="round" d="M 14222,10911 L 14222,10761"/>
 <path fill="none" stroke="rgb(0,0,0)" stroke-width="30" stroke-linejoin="round" d="M 14339,10911 L 14339,10761"/>
 <path fill="none" stroke="rgb(0,0,0)" stroke-width="30" stroke-linejoin="round" d="M 14339,10911 L 14339,10761"/>
 <path fill="none" stroke="rgb(0,0,0)" stroke-width="30" stroke-linejoin="round" d="M 14456,10911 L 14456,10761"/>
 <path fill="none" stroke="rgb(0,0,0)" stroke-width="30" stroke-linejoin="round" d="M 14456,10911 L 14456,10761"/>
 <path fill="none" stroke="rgb(0,0,0)" stroke-width="30" stroke-linejoin="round" d="M 14574,10911 L 14574,10761"/>
 <path fill="none" stroke="rgb(0,0,0)" stroke-width="30" stroke-linejoin="round" d="M 14574,10911 L 14574,10761"/>
 <path fill="none" stroke="rgb(0,0,0)" stroke-width="30" stroke-linejoin="round" d="M 14691,10911 L 14691,10761"/>
 <path fill="none" stroke="rgb(0,0,0)" stroke-width="30" stroke-linejoin="round" d="M 14691,10911 L 14691,10761"/>
 <path fill="none" stroke="rgb(0,0,0)" stroke-width="30" stroke-linejoin="round" d="M 14809,10911 L 14809,10761"/>
 <path fill="none" stroke="rgb(0,0,0)" stroke-width="30" stroke-linejoin="round" d="M 14809,10911 L 14809,10761"/>
 <path fill="none" stroke="rgb(0,0,0)" stroke-width="30" stroke-linejoin="round" d="M 1428,10761 L 14809,10761"/>
 <path fill="none" stroke="rgb(0,0,0)" stroke-width="30" stroke-linejoin="round" d="M 1278,10761 L 1428,10761"/>
 <path fill="none" stroke="rgb(0,0,0)" stroke-width="30" stroke-linejoin="round" d="M 1278,10761 L 1428,10761"/>
 <path fill="none" stroke="rgb(0,0,0)" stroke-width="30" stroke-linejoin="round" d="M 1278,9794 L 1428,9794"/>
 <path fill="none" stroke="rgb(0,0,0)" stroke-width="30" stroke-linejoin="round" d="M 1278,9794 L 1428,9794"/>
 <path fill="none" stroke="rgb(0,0,0)" stroke-width="30" stroke-linejoin="round" d="M 1278,8827 L 1428,8827"/>
 <path fill="none" stroke="rgb(0,0,0)" stroke-width="30" stroke-linejoin="round" d="M 1278,8827 L 1428,8827"/>
 <path fill="none" stroke="rgb(0,0,0)" stroke-width="30" stroke-linejoin="round" d="M 1278,7860 L 1428,7860"/>
 <path fill="none" stroke="rgb(0,0,0)" stroke-width="30" stroke-linejoin="round" d="M 1278,7860 L 1428,7860"/>
 <path fill="none" stroke="rgb(0,0,0)" stroke-width="30" stroke-linejoin="round" d="M 1278,6893 L 1428,6893"/>
 <path fill="none" stroke="rgb(0,0,0)" stroke-width="30" stroke-linejoin="round" d="M 1278,6893 L 1428,6893"/>
 <path fill="none" stroke="rgb(0,0,0)" stroke-width="30" stroke-linejoin="round" d="M 1278,5927 L 1428,5927"/>
 <path fill="none" stroke="rgb(0,0,0)" stroke-width="30" stroke-linejoin="round" d="M 1278,5927 L 1428,5927"/>
 <path fill="none" stroke="rgb(0,0,0)" stroke-width="30" stroke-linejoin="round" d="M 1278,4959 L 1428,4959"/>
 <path fill="none" stroke="rgb(0,0,0)" stroke-width="30" stroke-linejoin="round" d="M 1278,4959 L 1428,4959"/>
 <path fill="none" stroke="rgb(0,0,0)" stroke-width="30" stroke-linejoin="round" d="M 1278,3992 L 1428,3992"/>
 <path fill="none" stroke="rgb(0,0,0)" stroke-width="30" stroke-linejoin="round" d="M 1278,3992 L 1428,3992"/>
 <path fill="none" stroke="rgb(0,0,0)" stroke-width="30" stroke-linejoin="round" d="M 1278,3026 L 1428,3026"/>
 <path fill="none" stroke="rgb(0,0,0)" stroke-width="30" stroke-linejoin="round" d="M 1278,3026 L 1428,3026"/>
 <path fill="none" stroke="rgb(0,0,0)" stroke-width="30" stroke-linejoin="round" d="M 1278,2059 L 1428,2059"/>
 <path fill="none" stroke="rgb(0,0,0)" stroke-width="30" stroke-linejoin="round" d="M 1278,2059 L 1428,2059"/>
 <path fill="none" stroke="rgb(0,0,0)" stroke-width="30" stroke-linejoin="round" d="M 1278,1092 L 1428,1092"/>
 <path fill="none" stroke="rgb(0,0,0)" stroke-width="30" stroke-linejoin="round" d="M 1278,1092 L 1428,1092"/>
 <path fill="none" stroke="rgb(0,0,0)" stroke-width="30" stroke-linejoin="round" d="M 1428,10761 L 1428,1092"/>
 <path fill="none" stroke="rgb(0,0,0)" stroke-width="30" stroke-linejoin="round" d="M 14959,10761 L 14809,10761"/>
 <path fill="none" stroke="rgb(0,0,0)" stroke-width="30" stroke-linejoin="round" d="M 14959,10761 L 14809,10761"/>
 <path fill="none" stroke="rgb(0,0,0)" stroke-width="30" stroke-linejoin="round" d="M 14959,9794 L 14809,9794"/>
 <path fill="none" stroke="rgb(0,0,0)" stroke-width="30" stroke-linejoin="round" d="M 14959,9794 L 14809,9794"/>
 <path fill="none" stroke="rgb(0,0,0)" stroke-width="30" stroke-linejoin="round" d="M 14959,8827 L 14809,8827"/>
 <path fill="none" stroke="rgb(0,0,0)" stroke-width="30" stroke-linejoin="round" d="M 14959,8827 L 14809,8827"/>
 <path fill="none" stroke="rgb(0,0,0)" stroke-width="30" stroke-linejoin="round" d="M 14959,7860 L 14809,7860"/>
 <path fill="none" stroke="rgb(0,0,0)" stroke-width="30" stroke-linejoin="round" d="M 14959,7860 L 14809,7860"/>
 <path fill="none" stroke="rgb(0,0,0)" stroke-width="30" stroke-linejoin="round" d="M 14959,6893 L 14809,6893"/>
 <path fill="none" stroke="rgb(0,0,0)" stroke-width="30" stroke-linejoin="round" d="M 14959,6893 L 14809,6893"/>
 <path fill="none" stroke="rgb(0,0,0)" stroke-width="30" stroke-linejoin="round" d="M 14959,5927 L 14809,5927"/>
 <path fill="none" stroke="rgb(0,0,0)" stroke-width="30" stroke-linejoin="round" d="M 14959,5927 L 14809,5927"/>
 <path fill="none" stroke="rgb(0,0,0)" stroke-width="30" stroke-linejoin="round" d="M 14959,4959 L 14809,4959"/>
 <path fill="none" stroke="rgb(0,0,0)" stroke-width="30" stroke-linejoin="round" d="M 14959,4959 L 14809,4959"/>
 <path fill="none" stroke="rgb(0,0,0)" stroke-width="30" stroke-linejoin="round" d="M 14959,3992 L 14809,3992"/>
 <path fill="none" stroke="rgb(0,0,0)" stroke-width="30" stroke-linejoin="round" d="M 14959,3992 L 14809,3992"/>
 <path fill="none" stroke="rgb(0,0,0)" stroke-width="30" stroke-linejoin="round" d="M 14959,3026 L 14809,3026"/>
 <path fill="none" stroke="rgb(0,0,0)" stroke-width="30" stroke-linejoin="round" d="M 14959,3026 L 14809,3026"/>
 <path fill="none" stroke="rgb(0,0,0)" stroke-width="30" stroke-linejoin="round" d="M 14959,2059 L 14809,2059"/>
 <path fill="none" stroke="rgb(0,0,0)" stroke-width="30" stroke-linejoin="round" d="M 14959,2059 L 14809,2059"/>
 <path fill="none" stroke="rgb(0,0,0)" stroke-width="30" stroke-linejoin="round" d="M 14959,1092 L 14809,1092"/>
 <path fill="none" stroke="rgb(0,0,0)" stroke-width="30" stroke-linejoin="round" d="M 14959,1092 L 14809,1092"/>
 <path fill="none" stroke="rgb(0,0,0)" stroke-width="30" stroke-linejoin="round" d="M 14809,10761 L 14809,1092"/>
 <path fill="rgb(0,69,134)" stroke="none" d="M 1428,9454 L 1545,9499 1662,9450 1780,9420 1897,9489 2014,9466 2132,9448 2249,9463 2367,9459 2484,9445 2601,9434 2719,9445 2836,9476 2954,9476 3071,9493 3188,9488 3306,9497 3423,9496 3540,9505 3658,9512 3775,9520 3893,9552 4010,9530 4127,9556 4245,9575 4362,9585 4480,9597 4597,9582 4714,9586 4832,9580 4949,9554 5066,9527 5184,9558 5301,9565 5419,9559 5536,9588 5653,9611 5771,9642 5888,9694 6006,9660 6123,9622 6240,9648 6358,9643 6475,9669 6592,9740 6710,9722 6827,9708 6945,9712 7062,9742 7179,9790 7297,9801 7414,9803 7532,9849 7649,9895 7766,9880 7884,9894 8001,9903 8119,9913 8235,9939 8352,9947 8470,9979 8587,10063 8704,10042 8822,10039 8939,10047 9057,10031 9174,10015 9291,10048 9409,10073 9526,10111 9644,10109 9761,10095 9878,10112 9996,10153 10113,10146 10230,10138 10348,10151 10465,10131 10583,10093 10700,10061 10817,10046 10935,10085 11052,10063 11170,10109 11287,10145 11404,10160 11522,10200 11639,10200 11756,10202 11874,10210 11991,10231 12109,10237 12226,10257 12343,10272 12461,10271 12578,10274 12696,10319 12813,10354 12930,10371 13048,10350 13165,10371 13282,10394 13400,10398 13517,10405 13635,10422 13752,10417 13869,10427 13987,10438 14104,10457 14222,10486 14339,10496 14456,10483 14574,10486 14691,10493 14809,10489 14809,10761 1428,10761 1428,9454 Z"/>
 <path fill="none" stroke="rgb(0,0,0)" stroke-linejoin="round" d="M 1428,9454 L 1545,9499 1662,9450 1780,9420 1897,9489 2014,9466 2132,9448 2249,9463 2367,9459 2484,9445 2601,9434 2719,9445 2836,9476 2954,9476 3071,9493 3188,9488 3306,9497 3423,9496 3540,9505 3658,9512 3775,9520 3893,9552 4010,9530 4127,9556 4245,9575 4362,9585 4480,9597 4597,9582 4714,9586 4832,9580 4949,9554 5066,9527 5184,9558 5301,9565 5419,9559 5536,9588 5653,9611 5771,9642 5888,9694 6006,9660 6123,9622 6240,9648 6358,9643 6475,9669 6592,9740 6710,9722 6827,9708 6945,9712 7062,9742 7179,9790 7297,9801 7414,9803 7532,9849 7649,9895 7766,9880 7884,9894 8001,9903 8119,9913 8235,9939 8352,9947 8470,9979 8587,10063 8704,10042 8822,10039 8939,10047 9057,10031 9174,10015 9291,10048 9409,10073 9526,10111 9644,10109 9761,10095 9878,10112 9996,10153 10113,10146 10230,10138 10348,10151 10465,10131 10583,10093 10700,10061 10817,10046 10935,10085 11052,10063 11170,10109 11287,10145 11404,10160 11522,10200 11639,10200 11756,10202 11874,10210 11991,10231 12109,10237 12226,10257 12343,10272 12461,10271 12578,10274 12696,10319 12813,10354 12930,10371 13048,10350 13165,10371 13282,10394 13400,10398 13517,10405 13635,10422 13752,10417 13869,10427 13987,10438 14104,10457 14222,10486 14339,10496 14456,10483 14574,10486 14691,10493 14809,10489 14809,10761 1428,10761 1428,9454 Z"/>
 <path fill="rgb(255,66,14)" stroke="none" d="M 1428,3687 L 1545,3793 1662,3927 1780,3993 1897,4124 2014,4074 2132,4255 2249,4373 2367,4428 2484,4537 2601,4630 2719,4679 2836,4862 2954,4973 3071,5131 3188,5165 3306,5242 3423,5317 3540,5378 3658,5462 3775,5535 3893,5639 4010,5707 4127,5773 4245,5912 4362,6016 4480,6214 4597,6254 4714,6352 4832,6431 4949,6422 5066,6428 5184,6520 5301,6629 5419,6664 5536,6727 5653,6754 5771,6856 5888,7017 6006,6990 6123,6988 6240,7074 6358,7101 6475,7169 6592,7293 6710,7346 6827,7378 6945,7511 7062,7479 7179,7420 7297,7465 7414,7532 7532,7596 7649,7595 7766,7675 7884,7798 8001,7845 8119,7887 8235,7868 8352,7952 8470,7968 8587,7891 8704,7973 8822,7878 8939,7935 9057,7981 9174,8001 9291,8023 9409,8026 9526,8214 9644,8256 9761,8324 9878,8341 9996,8386 10113,8385 10230,8431 10348,8482 10465,8494 10583,8511 10700,8482 10817,8314 10935,8473 11052,8530 11170,8607 11287,8651 11404,8668 11522,8588 11639,8588 11756,8807 11874,8881 11991,8920 12109,8950 12226,8976 12343,9008 12461,9101 12578,9108 12696,9159 12813,9173 12930,9230 13048,9263 13165,9325 13282,9273 13400,9324 13517,9385 13635,9383 13752,9469 13869,9525 13987,9489 14104,9561 14222,9516 14339,9541 14456,9543 14574,9535 14691,9504 14809,9570 14809,10489 14691,10493 14574,10486 14456,10483 14339,10496 14222,10486 14104,10457 13987,10438 13869,10427 13752,10417 13635,10422 13517,10405 13400,10398 13282,10394 13165,10371 13048,10350 12930,10371 12813,10354 12696,10319 12578,10274 12461,10271 12343,10272 12226,10257 12109,10237 11991,10231 11874,10210 11756,10202 11639,10200 11522,10200 11404,10160 11287,10145 11170,10109 11052,10063 10935,10085 10817,10046 10700,10061 10583,10093 10465,10131 10348,10151 10230,10138 10113,10146 9996,10153 9878,10112 9761,10095 9644,10109 9526,10111 9409,10073 9291,10048 9174,10015 9057,10031 8939,10047 8822,10039 8704,10042 8587,10063 8470,9979 8352,9947 8235,9939 8119,9913 8001,9903 7884,9894 7766,9880 7649,9895 7532,9849 7414,9803 7297,9801 7179,9790 7062,9742 6945,9712 6827,9708 6710,9722 6592,9740 6475,9669 6358,9643 6240,9648 6123,9622 6006,9660 5888,9694 5771,9642 5653,9611 5536,9588 5419,9559 5301,9565 5184,9558 5066,9527 4949,9554 4832,9580 4714,9586 4597,9582 4480,9597 4362,9585 4245,9575 4127,9556 4010,9530 3893,9552 3775,9520 3658,9512 3540,9505 3423,9496 3306,9497 3188,9488 3071,9493 2954,9476 2836,9476 2719,9445 2601,9434 2484,9445 2367,9459 2249,9463 2132,9448 2014,9466 1897,9489 1780,9420 1662,9450 1545,9499 1428,9454 1428,3687 Z"/>
 <path fill="none" stroke="rgb(0,0,0)" stroke-linejoin="round" d="M 1428,3687 L 1545,3793 1662,3927 1780,3993 1897,4124 2014,4074 2132,4255 2249,4373 2367,4428 2484,4537 2601,4630 2719,4679 2836,4862 2954,4973 3071,5131 3188,5165 3306,5242 3423,5317 3540,5378 3658,5462 3775,5535 3893,5639 4010,5707 4127,5773 4245,5912 4362,6016 4480,6214 4597,6254 4714,6352 4832,6431 4949,6422 5066,6428 5184,6520 5301,6629 5419,6664 5536,6727 5653,6754 5771,6856 5888,7017 6006,6990 6123,6988 6240,7074 6358,7101 6475,7169 6592,7293 6710,7346 6827,7378 6945,7511 7062,7479 7179,7420 7297,7465 7414,7532 7532,7596 7649,7595 7766,7675 7884,7798 8001,7845 8119,7887 8235,7868 8352,7952 8470,7968 8587,7891 8704,7973 8822,7878 8939,7935 9057,7981 9174,8001 9291,8023 9409,8026 9526,8214 9644,8256 9761,8324 9878,8341 9996,8386 10113,8385 10230,8431 10348,8482 10465,8494 10583,8511 10700,8482 10817,8314 10935,8473 11052,8530 11170,8607 11287,8651 11404,8668 11522,8588 11639,8588 11756,8807 11874,8881 11991,8920 12109,8950 12226,8976 12343,9008 12461,9101 12578,9108 12696,9159 12813,9173 12930,9230 13048,9263 13165,9325 13282,9273 13400,9324 13517,9385 13635,9383 13752,9469 13869,9525 13987,9489 14104,9561 14222,9516 14339,9541 14456,9543 14574,9535 14691,9504 14809,9570 14809,10489 14691,10493 14574,10486 14456,10483 14339,10496 14222,10486 14104,10457 13987,10438 13869,10427 13752,10417 13635,10422 13517,10405 13400,10398 13282,10394 13165,10371 13048,10350 12930,10371 12813,10354 12696,10319 12578,10274 12461,10271 12343,10272 12226,10257 12109,10237 11991,10231 11874,10210 11756,10202 11639,10200 11522,10200 11404,10160 11287,10145 11170,10109 11052,10063 10935,10085 10817,10046 10700,10061 10583,10093 10465,10131 10348,10151 10230,10138 10113,10146 9996,10153 9878,10112 9761,10095 9644,10109 9526,10111 9409,10073 9291,10048 9174,10015 9057,10031 8939,10047 8822,10039 8704,10042 8587,10063 8470,9979 8352,9947 8235,9939 8119,9913 8001,9903 7884,9894 7766,9880 7649,9895 7532,9849 7414,9803 7297,9801 7179,9790 7062,9742 6945,9712 6827,9708 6710,9722 6592,9740 6475,9669 6358,9643 6240,9648 6123,9622 6006,9660 5888,9694 5771,9642 5653,9611 5536,9588 5419,9559 5301,9565 5184,9558 5066,9527 4949,9554 4832,9580 4714,9586 4597,9582 4480,9597 4362,9585 4245,9575 4127,9556 4010,9530 3893,9552 3775,9520 3658,9512 3540,9505 3423,9496 3306,9497 3188,9488 3071,9493 2954,9476 2836,9476 2719,9445 2601,9434 2484,9445 2367,9459 2249,9463 2132,9448 2014,9466 1897,9489 1780,9420 1662,9450 1545,9499 1428,9454 1428,3687 Z"/>
 <path fill="rgb(255,211,32)" stroke="none" d="M 1428,1356 L 1545,1364 1662,1360 1780,1367 1897,1370 2014,1371 2132,1377 2249,1384 2367,1386 2484,1396 2601,1401 2719,1418 2836,1436 2954,1470 3071,1513 3188,1551 3306,1589 3423,1647 3540,1681 3658,1734 3775,1776 3893,1862 4010,1934 4127,2012 4245,2114 4362,2248 4480,2441 4597,2552 4714,2673 4832,2778 4949,2849 5066,2925 5184,3039 5301,3165 5419,3242 5536,3345 5653,3414 5771,3520 5888,3688 6006,3715 6123,3760 6240,3840 6358,3899 6475,4009 6592,4121 6710,4211 6827,4252 6945,4356 7062,4401 7179,4454 7297,4528 7414,4584 7532,4674 7649,4705 7766,4800 7884,4899 8001,4912 8119,4961 8235,5005 8352,5147 8470,5192 8587,5223 8704,5340 8822,5404 8939,5426 9057,5453 9174,5477 9291,5571 9409,5621 9526,5840 9644,5876 9761,5910 9878,5960 9996,6041 10113,6073 10230,6142 10348,6198 10465,6241 10583,6247 10700,6226 10817,6179 10935,6362 11052,6531 11170,6643 11287,6696 11404,6752 11522,6726 11639,6726 11756,6878 11874,6988 11991,7010 12109,7098 12226,7174 12343,7224 12461,7372 12578,7376 12696,7438 12813,7508 12930,7594 13048,7611 13165,7732 13282,7696 13400,7780 13517,7901 13635,7975 13752,8162 13869,8224 13987,8245 14104,8334 14222,8343 14339,8362 14456,8356 14574,8373 14691,8348 14809,8445 14809,9570 14691,9504 14574,9535 14456,9543 14339,9541 14222,9516 14104,9561 13987,9489 13869,9525 13752,9469 13635,9383 13517,9385 13400,9324 13282,9273 13165,9325 13048,9263 12930,9230 12813,9173 12696,9159 12578,9108 12461,9101 12343,9008 12226,8976 12109,8950 11991,8920 11874,8881 11756,8807 11639,8588 11522,8588 11404,8668 11287,8651 11170,8607 11052,8530 10935,8473 10817,8314 10700,8482 10583,8511 10465,8494 10348,8482 10230,8431 10113,8385 9996,8386 9878,8341 9761,8324 9644,8256 9526,8214 9409,8026 9291,8023 9174,8001 9057,7981 8939,7935 8822,7878 8704,7973 8587,7891 8470,7968 8352,7952 8235,7868 8119,7887 8001,7845 7884,7798 7766,7675 7649,7595 7532,7596 7414,7532 7297,7465 7179,7420 7062,7479 6945,7511 6827,7378 6710,7346 6592,7293 6475,7169 6358,7101 6240,7074 6123,6988 6006,6990 5888,7017 5771,6856 5653,6754 5536,6727 5419,6664 5301,6629 5184,6520 5066,6428 4949,6422 4832,6431 4714,6352 4597,6254 4480,6214 4362,6016 4245,5912 4127,5773 4010,5707 3893,5639 3775,5535 3658,5462 3540,5378 3423,5317 3306,5242 3188,5165 3071,5131 2954,4973 2836,4862 2719,4679 2601,4630 2484,4537 2367,4428 2249,4373 2132,4255 2014,4074 1897,4124 1780,3993 1662,3927 1545,3793 1428,3687 1428,1356 Z"/>
 <path fill="none" stroke="rgb(0,0,0)" stroke-linejoin="round" d="M 1428,1356 L 1545,1364 1662,1360 1780,1367 1897,1370 2014,1371 2132,1377 2249,1384 2367,1386 2484,1396 2601,1401 2719,1418 2836,1436 2954,1470 3071,1513 3188,1551 3306,1589 3423,1647 3540,1681 3658,1734 3775,1776 3893,1862 4010,1934 4127,2012 4245,2114 4362,2248 4480,2441 4597,2552 4714,2673 4832,2778 4949,2849 5066,2925 5184,3039 5301,3165 5419,3242 5536,3345 5653,3414 5771,3520 5888,3688 6006,3715 6123,3760 6240,3840 6358,3899 6475,4009 6592,4121 6710,4211 6827,4252 6945,4356 7062,4401 7179,4454 7297,4528 7414,4584 7532,4674 7649,4705 7766,4800 7884,4899 8001,4912 8119,4961 8235,5005 8352,5147 8470,5192 8587,5223 8704,5340 8822,5404 8939,5426 9057,5453 9174,5477 9291,5571 9409,5621 9526,5840 9644,5876 9761,5910 9878,5960 9996,6041 10113,6073 10230,6142 10348,6198 10465,6241 10583,6247 10700,6226 10817,6179 10935,6362 11052,6531 11170,6643 11287,6696 11404,6752 11522,6726 11639,6726 11756,6878 11874,6988 11991,7010 12109,7098 12226,7174 12343,7224 12461,7372 12578,7376 12696,7438 12813,7508 12930,7594 13048,7611 13165,7732 13282,7696 13400,7780 13517,7901 13635,7975 13752,8162 13869,8224 13987,8245 14104,8334 14222,8343 14339,8362 14456,8356 14574,8373 14691,8348 14809,8445 14809,9570 14691,9504 14574,9535 14456,9543 14339,9541 14222,9516 14104,9561 13987,9489 13869,9525 13752,9469 13635,9383 13517,9385 13400,9324 13282,9273 13165,9325 13048,9263 12930,9230 12813,9173 12696,9159 12578,9108 12461,9101 12343,9008 12226,8976 12109,8950 11991,8920 11874,8881 11756,8807 11639,8588 11522,8588 11404,8668 11287,8651 11170,8607 11052,8530 10935,8473 10817,8314 10700,8482 10583,8511 10465,8494 10348,8482 10230,8431 10113,8385 9996,8386 9878,8341 9761,8324 9644,8256 9526,8214 9409,8026 9291,8023 9174,8001 9057,7981 8939,7935 8822,7878 8704,7973 8587,7891 8470,7968 8352,7952 8235,7868 8119,7887 8001,7845 7884,7798 7766,7675 7649,7595 7532,7596 7414,7532 7297,7465 7179,7420 7062,7479 6945,7511 6827,7378 6710,7346 6592,7293 6475,7169 6358,7101 6240,7074 6123,6988 6006,6990 5888,7017 5771,6856 5653,6754 5536,6727 5419,6664 5301,6629 5184,6520 5066,6428 4949,6422 4832,6431 4714,6352 4597,6254 4480,6214 4362,6016 4245,5912 4127,5773 4010,5707 3893,5639 3775,5535 3658,5462 3540,5378 3423,5317 3306,5242 3188,5165 3071,5131 2954,4973 2836,4862 2719,4679 2601,4630 2484,4537 2367,4428 2249,4373 2132,4255 2014,4074 1897,4124 1780,3993 1662,3927 1545,3793 1428,3687 1428,1356 Z"/>
 <path fill="rgb(87,157,28)" stroke="none" d="M 1428,1127 L 1545,1125 1662,1121 1780,1125 1897,1123 2014,1128 2132,1128 2249,1128 2367,1124 2484,1130 2601,1132 2719,1136 2836,1131 2954,1139 3071,1142 3188,1149 3306,1152 3423,1164 3540,1171 3658,1179 3775,1172 3893,1182 4010,1193 4127,1206 4245,1215 4362,1222 4480,1233 4597,1248 4714,1258 4832,1275 4949,1274 5066,1281 5184,1305 5301,1330 5419,1342 5536,1347 5653,1345 5771,1362 5888,1373 6006,1397 6123,1390 6240,1411 6358,1428 6475,1446 6592,1476 6710,1515 6827,1513 6945,1518 7062,1529 7179,1549 7297,1559 7414,1571 7532,1592 7649,1594 7766,1623 7884,1625 8001,1619 8119,1599 8235,1591 8352,1605 8470,1583 8587,1580 8704,1577 8822,1600 8939,1554 9057,1562 9174,1579 9291,1592 9409,1625 9526,1707 9644,1689 9761,1651 9878,1587 9996,1600 10113,1606 10230,1597 10348,1576 10465,1583 10583,1630 10700,1574 10817,1558 10935,1531 11052,1560 11170,1586 11287,1589 11404,1585 11522,1576 11639,1576 11756,1625 11874,1629 11991,1619 12109,1596 12226,1574 12343,1555 12461,1550 12578,1560 12696,1548 12813,1558 12930,1576 13048,1619 13165,1619 13282,1614 13400,1628 13517,1648 13635,1645 13752,1660 13869,1696 13987,1701 14104,1723 14222,1675 14339,1627 14456,1613 14574,1597 14691,1631 14809,1633 14809,8445 14691,8348 14574,8373 14456,8356 14339,8362 14222,8343 14104,8334 13987,8245 13869,8224 13752,8162 13635,7975 13517,7901 13400,7780 13282,7696 13165,7732 13048,7611 12930,7594 12813,7508 12696,7438 12578,7376 12461,7372 12343,7224 12226,7174 12109,7098 11991,7010 11874,6988 11756,6878 11639,6726 11522,6726 11404,6752 11287,6696 11170,6643 11052,6531 10935,6362 10817,6179 10700,6226 10583,6247 10465,6241 10348,6198 10230,6142 10113,6073 9996,6041 9878,5960 9761,5910 9644,5876 9526,5840 9409,5621 9291,5571 9174,5477 9057,5453 8939,5426 8822,5404 8704,5340 8587,5223 8470,5192 8352,5147 8235,5005 8119,4961 8001,4912 7884,4899 7766,4800 7649,4705 7532,4674 7414,4584 7297,4528 7179,4454 7062,4401 6945,4356 6827,4252 6710,4211 6592,4121 6475,4009 6358,3899 6240,3840 6123,3760 6006,3715 5888,3688 5771,3520 5653,3414 5536,3345 5419,3242 5301,3165 5184,3039 5066,2925 4949,2849 4832,2778 4714,2673 4597,2552 4480,2441 4362,2248 4245,2114 4127,2012 4010,1934 3893,1862 3775,1776 3658,1734 3540,1681 3423,1647 3306,1589 3188,1551 3071,1513 2954,1470 2836,1436 2719,1418 2601,1401 2484,1396 2367,1386 2249,1384 2132,1377 2014,1371 1897,1370 1780,1367 1662,1360 1545,1364 1428,1356 1428,1127 Z"/>
 <path fill="none" stroke="rgb(0,0,0)" stroke-linejoin="round" d="M 1428,1127 L 1545,1125 1662,1121 1780,1125 1897,1123 2014,1128 2132,1128 2249,1128 2367,1124 2484,1130 2601,1132 2719,1136 2836,1131 2954,1139 3071,1142 3188,1149 3306,1152 3423,1164 3540,1171 3658,1179 3775,1172 3893,1182 4010,1193 4127,1206 4245,1215 4362,1222 4480,1233 4597,1248 4714,1258 4832,1275 4949,1274 5066,1281 5184,1305 5301,1330 5419,1342 5536,1347 5653,1345 5771,1362 5888,1373 6006,1397 6123,1390 6240,1411 6358,1428 6475,1446 6592,1476 6710,1515 6827,1513 6945,1518 7062,1529 7179,1549 7297,1559 7414,1571 7532,1592 7649,1594 7766,1623 7884,1625 8001,1619 8119,1599 8235,1591 8352,1605 8470,1583 8587,1580 8704,1577 8822,1600 8939,1554 9057,1562 9174,1579 9291,1592 9409,1625 9526,1707 9644,1689 9761,1651 9878,1587 9996,1600 10113,1606 10230,1597 10348,1576 10465,1583 10583,1630 10700,1574 10817,1558 10935,1531 11052,1560 11170,1586 11287,1589 11404,1585 11522,1576 11639,1576 11756,1625 11874,1629 11991,1619 12109,1596 12226,1574 12343,1555 12461,1550 12578,1560 12696,1548 12813,1558 12930,1576 13048,1619 13165,1619 13282,1614 13400,1628 13517,1648 13635,1645 13752,1660 13869,1696 13987,1701 14104,1723 14222,1675 14339,1627 14456,1613 14574,1597 14691,1631 14809,1633 14809,8445 14691,8348 14574,8373 14456,8356 14339,8362 14222,8343 14104,8334 13987,8245 13869,8224 13752,8162 13635,7975 13517,7901 13400,7780 13282,7696 13165,7732 13048,7611 12930,7594 12813,7508 12696,7438 12578,7376 12461,7372 12343,7224 12226,7174 12109,7098 11991,7010 11874,6988 11756,6878 11639,6726 11522,6726 11404,6752 11287,6696 11170,6643 11052,6531 10935,6362 10817,6179 10700,6226 10583,6247 10465,6241 10348,6198 10230,6142 10113,6073 9996,6041 9878,5960 9761,5910 9644,5876 9526,5840 9409,5621 9291,5571 9174,5477 9057,5453 8939,5426 8822,5404 8704,5340 8587,5223 8470,5192 8352,5147 8235,5005 8119,4961 8001,4912 7884,4899 7766,4800 7649,4705 7532,4674 7414,4584 7297,4528 7179,4454 7062,4401 6945,4356 6827,4252 6710,4211 6592,4121 6475,4009 6358,3899 6240,3840 6123,3760 6006,3715 5888,3688 5771,3520 5653,3414 5536,3345 5419,3242 5301,3165 5184,3039 5066,2925 4949,2849 4832,2778 4714,2673 4597,2552 4480,2441 4362,2248 4245,2114 4127,2012 4010,1934 3893,1862 3775,1776 3658,1734 3540,1681 3423,1647 3306,1589 3188,1551 3071,1513 2954,1470 2836,1436 2719,1418 2601,1401 2484,1396 2367,1386 2249,1384 2132,1377 2014,1371 1897,1370 1780,1367 1662,1360 1545,1364 1428,1356 1428,1127 Z"/>
 <path fill="rgb(126,0,33)" stroke="none" d="M 1428,1092 L 1545,1092 1662,1092 1780,1092 1897,1092 2014,1092 2132,1092 2249,1092 2367,1092 2484,1092 2601,1092 2719,1092 2836,1092 2954,1092 3071,1092 3188,1092 3306,1092 3423,1092 3540,1092 3658,1092 3775,1092 3893,1092 4010,1092 4127,1092 4245,1092 4362,1092 4480,1092 4597,1092 4714,1092 4832,1092 4949,1092 5066,1092 5184,1092 5301,1092 5419,1092 5536,1092 5653,1092 5771,1092 5888,1092 6006,1092 6123,1092 6240,1092 6358,1092 6475,1092 6592,1092 6710,1092 6827,1092 6945,1092 7062,1092 7179,1092 7297,1092 7414,1092 7532,1092 7649,1092 7766,1092 7884,1092 8001,1092 8119,1092 8235,1092 8352,1092 8470,1092 8587,1092 8704,1092 8822,1092 8939,1092 9057,1092 9174,1092 9291,1092 9409,1092 9526,1092 9644,1092 9761,1092 9878,1092 9996,1092 10113,1092 10230,1092 10348,1092 10465,1092 10583,1092 10700,1092 10817,1092 10935,1092 11052,1092 11170,1092 11287,1092 11404,1092 11522,1092 11639,1092 11756,1092 11874,1092 11991,1092 12109,1092 12226,1092 12343,1092 12461,1092 12578,1092 12696,1092 12813,1092 12930,1092 13048,1092 13165,1092 13282,1092 13400,1092 13517,1092 13635,1092 13752,1092 13869,1092 13987,1092 14104,1092 14222,1092 14339,1092 14456,1092 14574,1092 14691,1092 14809,1092 14809,1633 14691,1631 14574,1597 14456,1613 14339,1627 14222,1675 14104,1723 13987,1701 13869,1696 13752,1660 13635,1645 13517,1648 13400,1628 13282,1614 13165,1619 13048,1619 12930,1576 12813,1558 12696,1548 12578,1560 12461,1550 12343,1555 12226,1574 12109,1596 11991,1619 11874,1629 11756,1625 11639,1576 11522,1576 11404,1585 11287,1589 11170,1586 11052,1560 10935,1531 10817,1558 10700,1574 10583,1630 10465,1583 10348,1576 10230,1597 10113,1606 9996,1600 9878,1587 9761,1651 9644,1689 9526,1707 9409,1625 9291,1592 9174,1579 9057,1562 8939,1554 8822,1600 8704,1577 8587,1580 8470,1583 8352,1605 8235,1591 8119,1599 8001,1619 7884,1625 7766,1623 7649,1594 7532,1592 7414,1571 7297,1559 7179,1549 7062,1529 6945,1518 6827,1513 6710,1515 6592,1476 6475,1446 6358,1428 6240,1411 6123,1390 6006,1397 5888,1373 5771,1362 5653,1345 5536,1347 5419,1342 5301,1330 5184,1305 5066,1281 4949,1274 4832,1275 4714,1258 4597,1248 4480,1233 4362,1222 4245,1215 4127,1206 4010,1193 3893,1182 3775,1172 3658,1179 3540,1171 3423,1164 3306,1152 3188,1149 3071,1142 2954,1139 2836,1131 2719,1136 2601,1132 2484,1130 2367,1124 2249,1128 2132,1128 2014,1128 1897,1123 1780,1125 1662,1121 1545,1125 1428,1127 1428,1092 Z"/>
 <path fill="none" stroke="rgb(0,0,0)" stroke-linejoin="round" d="M 1428,1092 L 1545,1092 1662,1092 1780,1092 1897,1092 2014,1092 2132,1092 2249,1092 2367,1092 2484,1092 2601,1092 2719,1092 2836,1092 2954,1092 3071,1092 3188,1092 3306,1092 3423,1092 3540,1092 3658,1092 3775,1092 3893,1092 4010,1092 4127,1092 4245,1092 4362,1092 4480,1092 4597,1092 4714,1092 4832,1092 4949,1092 5066,1092 5184,1092 5301,1092 5419,1092 5536,1092 5653,1092 5771,1092 5888,1092 6006,1092 6123,1092 6240,1092 6358,1092 6475,1092 6592,1092 6710,1092 6827,1092 6945,1092 7062,1092 7179,1092 7297,1092 7414,1092 7532,1092 7649,1092 7766,1092 7884,1092 8001,1092 8119,1092 8235,1092 8352,1092 8470,1092 8587,1092 8704,1092 8822,1092 8939,1092 9057,1092 9174,1092 9291,1092 9409,1092 9526,1092 9644,1092 9761,1092 9878,1092 9996,1092 10113,1092 10230,1092 10348,1092 10465,1092 10583,1092 10700,1092 10817,1092 10935,1092 11052,1092 11170,1092 11287,1092 11404,1092 11522,1092 11639,1092 11756,1092 11874,1092 11991,1092 12109,1092 12226,1092 12343,1092 12461,1092 12578,1092 12696,1092 12813,1092 12930,1092 13048,1092 13165,1092 13282,1092 13400,1092 13517,1092 13635,1092 13752,1092 13869,1092 13987,1092 14104,1092 14222,1092 14339,1092 14456,1092 14574,1092 14691,1092 14809,1092 14809,1633 14691,1631 14574,1597 14456,1613 14339,1627 14222,1675 14104,1723 13987,1701 13869,1696 13752,1660 13635,1645 13517,1648 13400,1628 13282,1614 13165,1619 13048,1619 12930,1576 12813,1558 12696,1548 12578,1560 12461,1550 12343,1555 12226,1574 12109,1596 11991,1619 11874,1629 11756,1625 11639,1576 11522,1576 11404,1585 11287,1589 11170,1586 11052,1560 10935,1531 10817,1558 10700,1574 10583,1630 10465,1583 10348,1576 10230,1597 10113,1606 9996,1600 9878,1587 9761,1651 9644,1689 9526,1707 9409,1625 9291,1592 9174,1579 9057,1562 8939,1554 8822,1600 8704,1577 8587,1580 8470,1583 8352,1605 8235,1591 8119,1599 8001,1619 7884,1625 7766,1623 7649,1594 7532,1592 7414,1571 7297,1559 7179,1549 7062,1529 6945,1518 6827,1513 6710,1515 6592,1476 6475,1446 6358,1428 6240,1411 6123,1390 6006,1397 5888,1373 5771,1362 5653,1345 5536,1347 5419,1342 5301,1330 5184,1305 5066,1281 4949,1274 4832,1275 4714,1258 4597,1248 4480,1233 4362,1222 4245,1215 4127,1206 4010,1193 3893,1182 3775,1172 3658,1179 3540,1171 3423,1164 3306,1152 3188,1149 3071,1142 2954,1139 2836,1131 2719,1136 2601,1132 2484,1130 2367,1124 2249,1128 2132,1128 2014,1128 1897,1123 1780,1125 1662,1121 1545,1125 1428,1127 1428,1092 Z"/>
 <text class="TextShape"><tspan class="TextParagraph" font-family="Arial, sans-serif" font-size="388px" font-weight="400"><tspan class="TextPosition" x="1238" y="11355"><tspan fill="rgb(0,0,0)" stroke="none">2008</tspan></tspan></tspan></text>
 <text class="TextShape"><tspan class="TextParagraph" font-family="Arial, sans-serif" font-size="388px" font-weight="400"><tspan class="TextPosition" x="2647" y="11355"><tspan fill="rgb(0,0,0)" stroke="none">2009</tspan></tspan></tspan></text>
 <text class="TextShape"><tspan class="TextParagraph" font-family="Arial, sans-serif" font-size="388px" font-weight="400"><tspan class="TextPosition" x="4056" y="11355"><tspan fill="rgb(0,0,0)" stroke="none">2010</tspan></tspan></tspan></text>
 <text class="TextShape"><tspan class="TextParagraph" font-family="Arial, sans-serif" font-size="388px" font-weight="400"><tspan class="TextPosition" x="5478" y="11355"><tspan fill="rgb(0,0,0)" stroke="none">2011</tspan></tspan></tspan></text>
 <text class="TextShape"><tspan class="TextParagraph" font-family="Arial, sans-serif" font-size="388px" font-weight="400"><tspan class="TextPosition" x="6873" y="11355"><tspan fill="rgb(0,0,0)" stroke="none">2012</tspan></tspan></tspan></text>
 <text class="TextShape"><tspan class="TextParagraph" font-family="Arial, sans-serif" font-size="388px" font-weight="400"><tspan class="TextPosition" x="8281" y="11355"><tspan fill="rgb(0,0,0)" stroke="none">2013</tspan></tspan></tspan></text>
 <text class="TextShape"><tspan class="TextParagraph" font-family="Arial, sans-serif" font-size="388px" font-weight="400"><tspan class="TextPosition" x="9690" y="11355"><tspan fill="rgb(0,0,0)" stroke="none">2014</tspan></tspan></tspan></text>
 <text class="TextShape"><tspan class="TextParagraph" font-family="Arial, sans-serif" font-size="388px" font-weight="400"><tspan class="TextPosition" x="11099" y="11355"><tspan fill="rgb(0,0,0)" stroke="none">2015</tspan></tspan></tspan></text>
 <text class="TextShape"><tspan class="TextParagraph" font-family="Arial, sans-serif" font-size="388px" font-weight="400"><tspan class="TextPosition" x="12507" y="11355"><tspan fill="rgb(0,0,0)" stroke="none">2016</tspan></tspan></tspan></text>
 <text class="TextShape"><tspan class="TextParagraph" font-family="Arial, sans-serif" font-size="388px" font-weight="400"><tspan class="TextPosition" x="13916" y="11355"><tspan fill="rgb(0,0,0)" stroke="none">2017</tspan></tspan></tspan></text>
 <text class="TextShape"><tspan class="TextParagraph" font-family="Arial, sans-serif" font-size="388px" font-weight="400"><tspan class="TextPosition" x="622" y="10895"><tspan fill="rgb(0,0,0)" stroke="none">0%</tspan></tspan></tspan></text>
 <text class="TextShape"><tspan class="TextParagraph" font-family="Arial, sans-serif" font-size="388px" font-weight="400"><tspan class="TextPosition" x="411" y="9928"><tspan fill="rgb(0,0,0)" stroke="none">10%</tspan></tspan></tspan></text>
 <text class="TextShape"><tspan class="TextParagraph" font-family="Arial, sans-serif" font-size="388px" font-weight="400"><tspan class="TextPosition" x="411" y="8961"><tspan fill="rgb(0,0,0)" stroke="none">20%</tspan></tspan></tspan></text>
 <text class="TextShape"><tspan class="TextParagraph" font-family="Arial, sans-serif" font-size="388px" font-weight="400"><tspan class="TextPosition" x="411" y="7994"><tspan fill="rgb(0,0,0)" stroke="none">30%</tspan></tspan></tspan></text>
 <text class="TextShape"><tspan class="TextParagraph" font-family="Arial, sans-serif" font-size="388px" font-weight="400"><tspan class="TextPosition" x="411" y="7027"><tspan fill="rgb(0,0,0)" stroke="none">40%</tspan></tspan></tspan></text>
 <text class="TextShape"><tspan class="TextParagraph" font-family="Arial, sans-serif" font-size="388px" font-weight="400"><tspan class="TextPosition" x="411" y="6060"><tspan fill="rgb(0,0,0)" stroke="none">50%</tspan></tspan></tspan></text>
 <text class="TextShape"><tspan class="TextParagraph" font-family="Arial, sans-serif" font-size="388px" font-weight="400"><tspan class="TextPosition" x="411" y="5092"><tspan fill="rgb(0,0,0)" stroke="none">60%</tspan></tspan></tspan></text>
 <text class="TextShape"><tspan class="TextParagraph" font-family="Arial, sans-serif" font-size="388px" font-weight="400"><tspan class="TextPosition" x="411" y="4125"><tspan fill="rgb(0,0,0)" stroke="none">70%</tspan></tspan></tspan></text>
 <text class="TextShape"><tspan class="TextParagraph" font-family="Arial, sans-serif" font-size="388px" font-weight="400"><tspan class="TextPosition" x="411" y="3159"><tspan fill="rgb(0,0,0)" stroke="none">80%</tspan></tspan></tspan></text>
 <text class="TextShape"><tspan class="TextParagraph" font-family="Arial, sans-serif" font-size="388px" font-weight="400"><tspan class="TextPosition" x="411" y="2192"><tspan fill="rgb(0,0,0)" stroke="none">90%</tspan></tspan></tspan></text>
 <text class="TextShape"><tspan class="TextParagraph" font-family="Arial, sans-serif" font-size="388px" font-weight="400"><tspan class="TextPosition" x="199" y="1225"><tspan fill="rgb(0,0,0)" stroke="none">100%</tspan></tspan></tspan></text>
 <text class="TextShape"><tspan class="TextParagraph" font-family="Arial, sans-serif" font-size="388px" font-weight="400"><tspan class="TextPosition" x="15059" y="10895"><tspan fill="rgb(0,0,0)" stroke="none">0%</tspan></tspan></tspan></text>
 <text class="TextShape"><tspan class="TextParagraph" font-family="Arial, sans-serif" font-size="388px" font-weight="400"><tspan class="TextPosition" x="15059" y="9928"><tspan fill="rgb(0,0,0)" stroke="none">10%</tspan></tspan></tspan></text>
 <text class="TextShape"><tspan class="TextParagraph" font-family="Arial, sans-serif" font-size="388px" font-weight="400"><tspan class="TextPosition" x="15059" y="8961"><tspan fill="rgb(0,0,0)" stroke="none">20%</tspan></tspan></tspan></text>
 <text class="TextShape"><tspan class="TextParagraph" font-family="Arial, sans-serif" font-size="388px" font-weight="400"><tspan class="TextPosition" x="15059" y="7994"><tspan fill="rgb(0,0,0)" stroke="none">30%</tspan></tspan></tspan></text>
 <text class="TextShape"><tspan class="TextParagraph" font-family="Arial, sans-serif" font-size="388px" font-weight="400"><tspan class="TextPosition" x="15059" y="7027"><tspan fill="rgb(0,0,0)" stroke="none">40%</tspan></tspan></tspan></text>
 <text class="TextShape"><tspan class="TextParagraph" font-family="Arial, sans-serif" font-size="388px" font-weight="400"><tspan class="TextPosition" x="15059" y="6060"><tspan fill="rgb(0,0,0)" stroke="none">50%</tspan></tspan></tspan></text>
 <text class="TextShape"><tspan class="TextParagraph" font-family="Arial, sans-serif" font-size="388px" font-weight="400"><tspan class="TextPosition" x="15059" y="5092"><tspan fill="rgb(0,0,0)" stroke="none">60%</tspan></tspan></tspan></text>
 <text class="TextShape"><tspan class="TextParagraph" font-family="Arial, sans-serif" font-size="388px" font-weight="400"><tspan class="TextPosition" x="15059" y="4125"><tspan fill="rgb(0,0,0)" stroke="none">70%</tspan></tspan></tspan></text>
 <text class="TextShape"><tspan class="TextParagraph" font-family="Arial, sans-serif" font-size="388px" font-weight="400"><tspan class="TextPosition" x="15059" y="3159"><tspan fill="rgb(0,0,0)" stroke="none">80%</tspan></tspan></tspan></text>
 <text class="TextShape"><tspan class="TextParagraph" font-family="Arial, sans-serif" font-size="388px" font-weight="400"><tspan class="TextPosition" x="15059" y="2192"><tspan fill="rgb(0,0,0)" stroke="none">90%</tspan></tspan></tspan></text>
 <text class="TextShape"><tspan class="TextParagraph" font-family="Arial, sans-serif" font-size="388px" font-weight="400"><tspan class="TextPosition" x="15059" y="1225"><tspan fill="rgb(0,0,0)" stroke="none">100%</tspan></tspan></tspan></text>
 <text class="TextShape"><tspan class="TextParagraph" font-family="Liberation Sans, sans-serif" font-size="635px" font-weight="400"><tspan class="TextPosition" x="4938" y="747"><tspan fill="rgb(0,0,0)" stroke="none">Relacin de aspecto</tspan></tspan></tspan></text>
 <path fill="rgb(0,69,134)" stroke="none" d="M 4882,11835 L 4745,11835 4745,11560 5020,11560 5020,11835 4882,11835 Z"/>
 <path fill="none" stroke="rgb(0,0,0)" stroke-linejoin="round" d="M 4882,11835 L 4745,11835 4745,11560 5020,11560 5020,11835 4882,11835 Z"/>
 <path fill="rgb(255,66,14)" stroke="none" d="M 6170,11835 L 6033,11835 6033,11560 6308,11560 6308,11835 6170,11835 Z"/>
 <path fill="none" stroke="rgb(0,0,0)" stroke-linejoin="round" d="M 6170,11835 L 6033,11835 6033,11560 6308,11560 6308,11835 6170,11835 Z"/>
 <path fill="rgb(255,211,32)" stroke="none" d="M 7458,11835 L 7321,11835 7321,11560 7596,11560 7596,11835 7458,11835 Z"/>
 <path fill="none" stroke="rgb(0,0,0)" stroke-linejoin="round" d="M 7458,11835 L 7321,11835 7321,11560 7596,11560 7596,11835 7458,11835 Z"/>
 <path fill="rgb(87,157,28)" stroke="none" d="M 8746,11835 L 8608,11835 8608,11560 8883,11560 8883,11835 8746,11835 Z"/>
 <path fill="none" stroke="rgb(0,0,0)" stroke-linejoin="round" d="M 8746,11835 L 8608,11835 8608,11560 8883,11560 8883,11835 8746,11835 Z"/>
 <path fill="rgb(126,0,33)" stroke="none" d="M 10272,11835 L 10134,11835 10134,11560 10409,11560 10409,11835 10272,11835 Z"/>
 <path fill="none" stroke="rgb(0,0,0)" stroke-linejoin="round" d="M 10272,11835 L 10134,11835 10134,11560 10409,11560 10409,11835 10272,11835 Z"/>
 <text class="TextShape"><tspan class="TextParagraph" font-family="Arial, sans-serif" font-size="459px" font-weight="400"><tspan class="TextPosition" x="5120" y="11856"><tspan fill="rgb(0,0,0)" stroke="none">5:4</tspan></tspan></tspan></text>
 <text class="TextShape"><tspan class="TextParagraph" font-family="Arial, sans-serif" font-size="459px" font-weight="400"><tspan class="TextPosition" x="6408" y="11856"><tspan fill="rgb(0,0,0)" stroke="none">4:3</tspan></tspan></tspan></text>
 <text class="TextShape"><tspan class="TextParagraph" font-family="Arial, sans-serif" font-size="459px" font-weight="400"><tspan class="TextPosition" x="7696" y="11856"><tspan fill="rgb(0,0,0)" stroke="none">8:5</tspan></tspan></tspan></text>
 <text class="TextShape"><tspan class="TextParagraph" font-family="Arial, sans-serif" font-size="459px" font-weight="400"><tspan class="TextPosition" x="8983" y="11856"><tspan fill="rgb(0,0,0)" stroke="none">16:9</tspan></tspan></tspan></text>
 <text class="TextShape"><tspan class="TextParagraph" font-family="Arial, sans-serif" font-size="459px" font-weight="400"><tspan class="TextPosition" x="10509" y="11856"><tspan fill="rgb(0,0,0)" stroke="none">Otros</tspan></tspan></tspan></text>
</svg>
