<?xml version="1.0" encoding="UTF-8"?>
<!DOCTYPE svg PUBLIC "-//W3C//DTD SVG 1.1//EN" "http://www.w3.org/Graphics/SVG/1.1/DTD/svg11.dtd">
<svg width="164mm" height="122mm" viewBox="0 0 16400 12200" version="1.1" xmlns="http://www.w3.org/2000/svg" stroke-width="28.222" stroke-linejoin="round" xml:space="preserve">
 <path fill="rgb(255,255,255)" stroke="none" d="M 8187,12235 L 12,12235 12,0 16362,0 16362,12235 8187,12235 Z"/>
 <path fill="none" stroke="rgb(179,179,179)" stroke-linejoin="round" d="M 8164,10292 L 1307,10292 1307,952 15021,952 15021,10292 8164,10292 Z"/>
 <path fill="none" stroke="rgb(0,0,0)" stroke-width="20" stroke-linejoin="round" d="M 15021,10291 L 1307,10291"/>
 <path fill="none" stroke="rgb(0,0,0)" stroke-width="20" stroke-linejoin="round" d="M 15021,9356 L 1307,9356"/>
 <path fill="none" stroke="rgb(0,0,0)" stroke-width="20" stroke-linejoin="round" d="M 15021,8422 L 1307,8422"/>
 <path fill="none" stroke="rgb(0,0,0)" stroke-width="20" stroke-linejoin="round" d="M 15021,7488 L 1307,7488"/>
 <path fill="none" stroke="rgb(0,0,0)" stroke-width="20" stroke-linejoin="round" d="M 15021,6554 L 1307,6554"/>
 <path fill="none" stroke="rgb(0,0,0)" stroke-width="20" stroke-linejoin="round" d="M 15021,5621 L 1307,5621"/>
 <path fill="none" stroke="rgb(0,0,0)" stroke-width="20" stroke-linejoin="round" d="M 15021,4687 L 1307,4687"/>
 <path fill="none" stroke="rgb(0,0,0)" stroke-width="20" stroke-linejoin="round" d="M 15021,3753 L 1307,3753"/>
 <path fill="none" stroke="rgb(0,0,0)" stroke-width="20" stroke-linejoin="round" d="M 15021,2819 L 1307,2819"/>
 <path fill="none" stroke="rgb(0,0,0)" stroke-width="20" stroke-linejoin="round" d="M 15021,1885 L 1307,1885"/>
 <path fill="none" stroke="rgb(0,0,0)" stroke-width="20" stroke-linejoin="round" d="M 15021,951 L 1307,951"/>
 <path fill="none" stroke="rgb(0,0,0)" stroke-width="30" stroke-linejoin="round" d="M 1307,10441 L 1307,10291"/>
 <path fill="none" stroke="rgb(0,0,0)" stroke-width="30" stroke-linejoin="round" d="M 1307,10441 L 1307,10291"/>
 <path fill="none" stroke="rgb(0,0,0)" stroke-width="30" stroke-linejoin="round" d="M 1427,10441 L 1427,10291"/>
 <path fill="none" stroke="rgb(0,0,0)" stroke-width="30" stroke-linejoin="round" d="M 1427,10441 L 1427,10291"/>
 <path fill="none" stroke="rgb(0,0,0)" stroke-width="30" stroke-linejoin="round" d="M 1547,10441 L 1547,10291"/>
 <path fill="none" stroke="rgb(0,0,0)" stroke-width="30" stroke-linejoin="round" d="M 1547,10441 L 1547,10291"/>
 <path fill="none" stroke="rgb(0,0,0)" stroke-width="30" stroke-linejoin="round" d="M 1667,10441 L 1667,10291"/>
 <path fill="none" stroke="rgb(0,0,0)" stroke-width="30" stroke-linejoin="round" d="M 1667,10441 L 1667,10291"/>
 <path fill="none" stroke="rgb(0,0,0)" stroke-width="30" stroke-linejoin="round" d="M 1788,10441 L 1788,10291"/>
 <path fill="none" stroke="rgb(0,0,0)" stroke-width="30" stroke-linejoin="round" d="M 1788,10441 L 1788,10291"/>
 <path fill="none" stroke="rgb(0,0,0)" stroke-width="30" stroke-linejoin="round" d="M 1908,10441 L 1908,10291"/>
 <path fill="none" stroke="rgb(0,0,0)" stroke-width="30" stroke-linejoin="round" d="M 1908,10441 L 1908,10291"/>
 <path fill="none" stroke="rgb(0,0,0)" stroke-width="30" stroke-linejoin="round" d="M 2028,10441 L 2028,10291"/>
 <path fill="none" stroke="rgb(0,0,0)" stroke-width="30" stroke-linejoin="round" d="M 2028,10441 L 2028,10291"/>
 <path fill="none" stroke="rgb(0,0,0)" stroke-width="30" stroke-linejoin="round" d="M 2149,10441 L 2149,10291"/>
 <path fill="none" stroke="rgb(0,0,0)" stroke-width="30" stroke-linejoin="round" d="M 2149,10441 L 2149,10291"/>
 <path fill="none" stroke="rgb(0,0,0)" stroke-width="30" stroke-linejoin="round" d="M 2269,10441 L 2269,10291"/>
 <path fill="none" stroke="rgb(0,0,0)" stroke-width="30" stroke-linejoin="round" d="M 2269,10441 L 2269,10291"/>
 <path fill="none" stroke="rgb(0,0,0)" stroke-width="30" stroke-linejoin="round" d="M 2389,10441 L 2389,10291"/>
 <path fill="none" stroke="rgb(0,0,0)" stroke-width="30" stroke-linejoin="round" d="M 2389,10441 L 2389,10291"/>
 <path fill="none" stroke="rgb(0,0,0)" stroke-width="30" stroke-linejoin="round" d="M 2510,10441 L 2510,10291"/>
 <path fill="none" stroke="rgb(0,0,0)" stroke-width="30" stroke-linejoin="round" d="M 2510,10441 L 2510,10291"/>
 <path fill="none" stroke="rgb(0,0,0)" stroke-width="30" stroke-linejoin="round" d="M 2630,10441 L 2630,10291"/>
 <path fill="none" stroke="rgb(0,0,0)" stroke-width="30" stroke-linejoin="round" d="M 2630,10441 L 2630,10291"/>
 <path fill="none" stroke="rgb(0,0,0)" stroke-width="30" stroke-linejoin="round" d="M 2750,10441 L 2750,10291"/>
 <path fill="none" stroke="rgb(0,0,0)" stroke-width="30" stroke-linejoin="round" d="M 2750,10441 L 2750,10291"/>
 <path fill="none" stroke="rgb(0,0,0)" stroke-width="30" stroke-linejoin="round" d="M 2870,10441 L 2870,10291"/>
 <path fill="none" stroke="rgb(0,0,0)" stroke-width="30" stroke-linejoin="round" d="M 2870,10441 L 2870,10291"/>
 <path fill="none" stroke="rgb(0,0,0)" stroke-width="30" stroke-linejoin="round" d="M 2991,10441 L 2991,10291"/>
 <path fill="none" stroke="rgb(0,0,0)" stroke-width="30" stroke-linejoin="round" d="M 2991,10441 L 2991,10291"/>
 <path fill="none" stroke="rgb(0,0,0)" stroke-width="30" stroke-linejoin="round" d="M 3111,10441 L 3111,10291"/>
 <path fill="none" stroke="rgb(0,0,0)" stroke-width="30" stroke-linejoin="round" d="M 3111,10441 L 3111,10291"/>
 <path fill="none" stroke="rgb(0,0,0)" stroke-width="30" stroke-linejoin="round" d="M 3231,10441 L 3231,10291"/>
 <path fill="none" stroke="rgb(0,0,0)" stroke-width="30" stroke-linejoin="round" d="M 3231,10441 L 3231,10291"/>
 <path fill="none" stroke="rgb(0,0,0)" stroke-width="30" stroke-linejoin="round" d="M 3352,10441 L 3352,10291"/>
 <path fill="none" stroke="rgb(0,0,0)" stroke-width="30" stroke-linejoin="round" d="M 3352,10441 L 3352,10291"/>
 <path fill="none" stroke="rgb(0,0,0)" stroke-width="30" stroke-linejoin="round" d="M 3472,10441 L 3472,10291"/>
 <path fill="none" stroke="rgb(0,0,0)" stroke-width="30" stroke-linejoin="round" d="M 3472,10441 L 3472,10291"/>
 <path fill="none" stroke="rgb(0,0,0)" stroke-width="30" stroke-linejoin="round" d="M 3592,10441 L 3592,10291"/>
 <path fill="none" stroke="rgb(0,0,0)" stroke-width="30" stroke-linejoin="round" d="M 3592,10441 L 3592,10291"/>
 <path fill="none" stroke="rgb(0,0,0)" stroke-width="30" stroke-linejoin="round" d="M 3713,10441 L 3713,10291"/>
 <path fill="none" stroke="rgb(0,0,0)" stroke-width="30" stroke-linejoin="round" d="M 3713,10441 L 3713,10291"/>
 <path fill="none" stroke="rgb(0,0,0)" stroke-width="30" stroke-linejoin="round" d="M 3833,10441 L 3833,10291"/>
 <path fill="none" stroke="rgb(0,0,0)" stroke-width="30" stroke-linejoin="round" d="M 3833,10441 L 3833,10291"/>
 <path fill="none" stroke="rgb(0,0,0)" stroke-width="30" stroke-linejoin="round" d="M 3953,10441 L 3953,10291"/>
 <path fill="none" stroke="rgb(0,0,0)" stroke-width="30" stroke-linejoin="round" d="M 3953,10441 L 3953,10291"/>
 <path fill="none" stroke="rgb(0,0,0)" stroke-width="30" stroke-linejoin="round" d="M 4074,10441 L 4074,10291"/>
 <path fill="none" stroke="rgb(0,0,0)" stroke-width="30" stroke-linejoin="round" d="M 4074,10441 L 4074,10291"/>
 <path fill="none" stroke="rgb(0,0,0)" stroke-width="30" stroke-linejoin="round" d="M 4194,10441 L 4194,10291"/>
 <path fill="none" stroke="rgb(0,0,0)" stroke-width="30" stroke-linejoin="round" d="M 4194,10441 L 4194,10291"/>
 <path fill="none" stroke="rgb(0,0,0)" stroke-width="30" stroke-linejoin="round" d="M 4314,10441 L 4314,10291"/>
 <path fill="none" stroke="rgb(0,0,0)" stroke-width="30" stroke-linejoin="round" d="M 4314,10441 L 4314,10291"/>
 <path fill="none" stroke="rgb(0,0,0)" stroke-width="30" stroke-linejoin="round" d="M 4434,10441 L 4434,10291"/>
 <path fill="none" stroke="rgb(0,0,0)" stroke-width="30" stroke-linejoin="round" d="M 4434,10441 L 4434,10291"/>
 <path fill="none" stroke="rgb(0,0,0)" stroke-width="30" stroke-linejoin="round" d="M 4555,10441 L 4555,10291"/>
 <path fill="none" stroke="rgb(0,0,0)" stroke-width="30" stroke-linejoin="round" d="M 4555,10441 L 4555,10291"/>
 <path fill="none" stroke="rgb(0,0,0)" stroke-width="30" stroke-linejoin="round" d="M 4675,10441 L 4675,10291"/>
 <path fill="none" stroke="rgb(0,0,0)" stroke-width="30" stroke-linejoin="round" d="M 4675,10441 L 4675,10291"/>
 <path fill="none" stroke="rgb(0,0,0)" stroke-width="30" stroke-linejoin="round" d="M 4795,10441 L 4795,10291"/>
 <path fill="none" stroke="rgb(0,0,0)" stroke-width="30" stroke-linejoin="round" d="M 4795,10441 L 4795,10291"/>
 <path fill="none" stroke="rgb(0,0,0)" stroke-width="30" stroke-linejoin="round" d="M 4916,10441 L 4916,10291"/>
 <path fill="none" stroke="rgb(0,0,0)" stroke-width="30" stroke-linejoin="round" d="M 4916,10441 L 4916,10291"/>
 <path fill="none" stroke="rgb(0,0,0)" stroke-width="30" stroke-linejoin="round" d="M 5036,10441 L 5036,10291"/>
 <path fill="none" stroke="rgb(0,0,0)" stroke-width="30" stroke-linejoin="round" d="M 5036,10441 L 5036,10291"/>
 <path fill="none" stroke="rgb(0,0,0)" stroke-width="30" stroke-linejoin="round" d="M 5156,10441 L 5156,10291"/>
 <path fill="none" stroke="rgb(0,0,0)" stroke-width="30" stroke-linejoin="round" d="M 5156,10441 L 5156,10291"/>
 <path fill="none" stroke="rgb(0,0,0)" stroke-width="30" stroke-linejoin="round" d="M 5277,10441 L 5277,10291"/>
 <path fill="none" stroke="rgb(0,0,0)" stroke-width="30" stroke-linejoin="round" d="M 5277,10441 L 5277,10291"/>
 <path fill="none" stroke="rgb(0,0,0)" stroke-width="30" stroke-linejoin="round" d="M 5397,10441 L 5397,10291"/>
 <path fill="none" stroke="rgb(0,0,0)" stroke-width="30" stroke-linejoin="round" d="M 5397,10441 L 5397,10291"/>
 <path fill="none" stroke="rgb(0,0,0)" stroke-width="30" stroke-linejoin="round" d="M 5517,10441 L 5517,10291"/>
 <path fill="none" stroke="rgb(0,0,0)" stroke-width="30" stroke-linejoin="round" d="M 5517,10441 L 5517,10291"/>
 <path fill="none" stroke="rgb(0,0,0)" stroke-width="30" stroke-linejoin="round" d="M 5638,10441 L 5638,10291"/>
 <path fill="none" stroke="rgb(0,0,0)" stroke-width="30" stroke-linejoin="round" d="M 5638,10441 L 5638,10291"/>
 <path fill="none" stroke="rgb(0,0,0)" stroke-width="30" stroke-linejoin="round" d="M 5758,10441 L 5758,10291"/>
 <path fill="none" stroke="rgb(0,0,0)" stroke-width="30" stroke-linejoin="round" d="M 5758,10441 L 5758,10291"/>
 <path fill="none" stroke="rgb(0,0,0)" stroke-width="30" stroke-linejoin="round" d="M 5878,10441 L 5878,10291"/>
 <path fill="none" stroke="rgb(0,0,0)" stroke-width="30" stroke-linejoin="round" d="M 5878,10441 L 5878,10291"/>
 <path fill="none" stroke="rgb(0,0,0)" stroke-width="30" stroke-linejoin="round" d="M 5998,10441 L 5998,10291"/>
 <path fill="none" stroke="rgb(0,0,0)" stroke-width="30" stroke-linejoin="round" d="M 5998,10441 L 5998,10291"/>
 <path fill="none" stroke="rgb(0,0,0)" stroke-width="30" stroke-linejoin="round" d="M 6119,10441 L 6119,10291"/>
 <path fill="none" stroke="rgb(0,0,0)" stroke-width="30" stroke-linejoin="round" d="M 6119,10441 L 6119,10291"/>
 <path fill="none" stroke="rgb(0,0,0)" stroke-width="30" stroke-linejoin="round" d="M 6239,10441 L 6239,10291"/>
 <path fill="none" stroke="rgb(0,0,0)" stroke-width="30" stroke-linejoin="round" d="M 6239,10441 L 6239,10291"/>
 <path fill="none" stroke="rgb(0,0,0)" stroke-width="30" stroke-linejoin="round" d="M 6359,10441 L 6359,10291"/>
 <path fill="none" stroke="rgb(0,0,0)" stroke-width="30" stroke-linejoin="round" d="M 6359,10441 L 6359,10291"/>
 <path fill="none" stroke="rgb(0,0,0)" stroke-width="30" stroke-linejoin="round" d="M 6480,10441 L 6480,10291"/>
 <path fill="none" stroke="rgb(0,0,0)" stroke-width="30" stroke-linejoin="round" d="M 6480,10441 L 6480,10291"/>
 <path fill="none" stroke="rgb(0,0,0)" stroke-width="30" stroke-linejoin="round" d="M 6600,10441 L 6600,10291"/>
 <path fill="none" stroke="rgb(0,0,0)" stroke-width="30" stroke-linejoin="round" d="M 6600,10441 L 6600,10291"/>
 <path fill="none" stroke="rgb(0,0,0)" stroke-width="30" stroke-linejoin="round" d="M 6720,10441 L 6720,10291"/>
 <path fill="none" stroke="rgb(0,0,0)" stroke-width="30" stroke-linejoin="round" d="M 6720,10441 L 6720,10291"/>
 <path fill="none" stroke="rgb(0,0,0)" stroke-width="30" stroke-linejoin="round" d="M 6841,10441 L 6841,10291"/>
 <path fill="none" stroke="rgb(0,0,0)" stroke-width="30" stroke-linejoin="round" d="M 6841,10441 L 6841,10291"/>
 <path fill="none" stroke="rgb(0,0,0)" stroke-width="30" stroke-linejoin="round" d="M 6961,10441 L 6961,10291"/>
 <path fill="none" stroke="rgb(0,0,0)" stroke-width="30" stroke-linejoin="round" d="M 6961,10441 L 6961,10291"/>
 <path fill="none" stroke="rgb(0,0,0)" stroke-width="30" stroke-linejoin="round" d="M 7081,10441 L 7081,10291"/>
 <path fill="none" stroke="rgb(0,0,0)" stroke-width="30" stroke-linejoin="round" d="M 7081,10441 L 7081,10291"/>
 <path fill="none" stroke="rgb(0,0,0)" stroke-width="30" stroke-linejoin="round" d="M 7202,10441 L 7202,10291"/>
 <path fill="none" stroke="rgb(0,0,0)" stroke-width="30" stroke-linejoin="round" d="M 7202,10441 L 7202,10291"/>
 <path fill="none" stroke="rgb(0,0,0)" stroke-width="30" stroke-linejoin="round" d="M 7322,10441 L 7322,10291"/>
 <path fill="none" stroke="rgb(0,0,0)" stroke-width="30" stroke-linejoin="round" d="M 7322,10441 L 7322,10291"/>
 <path fill="none" stroke="rgb(0,0,0)" stroke-width="30" stroke-linejoin="round" d="M 7442,10441 L 7442,10291"/>
 <path fill="none" stroke="rgb(0,0,0)" stroke-width="30" stroke-linejoin="round" d="M 7442,10441 L 7442,10291"/>
 <path fill="none" stroke="rgb(0,0,0)" stroke-width="30" stroke-linejoin="round" d="M 7562,10441 L 7562,10291"/>
 <path fill="none" stroke="rgb(0,0,0)" stroke-width="30" stroke-linejoin="round" d="M 7562,10441 L 7562,10291"/>
 <path fill="none" stroke="rgb(0,0,0)" stroke-width="30" stroke-linejoin="round" d="M 7683,10441 L 7683,10291"/>
 <path fill="none" stroke="rgb(0,0,0)" stroke-width="30" stroke-linejoin="round" d="M 7683,10441 L 7683,10291"/>
 <path fill="none" stroke="rgb(0,0,0)" stroke-width="30" stroke-linejoin="round" d="M 7803,10441 L 7803,10291"/>
 <path fill="none" stroke="rgb(0,0,0)" stroke-width="30" stroke-linejoin="round" d="M 7803,10441 L 7803,10291"/>
 <path fill="none" stroke="rgb(0,0,0)" stroke-width="30" stroke-linejoin="round" d="M 7923,10441 L 7923,10291"/>
 <path fill="none" stroke="rgb(0,0,0)" stroke-width="30" stroke-linejoin="round" d="M 7923,10441 L 7923,10291"/>
 <path fill="none" stroke="rgb(0,0,0)" stroke-width="30" stroke-linejoin="round" d="M 8044,10441 L 8044,10291"/>
 <path fill="none" stroke="rgb(0,0,0)" stroke-width="30" stroke-linejoin="round" d="M 8044,10441 L 8044,10291"/>
 <path fill="none" stroke="rgb(0,0,0)" stroke-width="30" stroke-linejoin="round" d="M 8164,10441 L 8164,10291"/>
 <path fill="none" stroke="rgb(0,0,0)" stroke-width="30" stroke-linejoin="round" d="M 8164,10441 L 8164,10291"/>
 <path fill="none" stroke="rgb(0,0,0)" stroke-width="30" stroke-linejoin="round" d="M 8283,10441 L 8283,10291"/>
 <path fill="none" stroke="rgb(0,0,0)" stroke-width="30" stroke-linejoin="round" d="M 8283,10441 L 8283,10291"/>
 <path fill="none" stroke="rgb(0,0,0)" stroke-width="30" stroke-linejoin="round" d="M 8404,10441 L 8404,10291"/>
 <path fill="none" stroke="rgb(0,0,0)" stroke-width="30" stroke-linejoin="round" d="M 8404,10441 L 8404,10291"/>
 <path fill="none" stroke="rgb(0,0,0)" stroke-width="30" stroke-linejoin="round" d="M 8524,10441 L 8524,10291"/>
 <path fill="none" stroke="rgb(0,0,0)" stroke-width="30" stroke-linejoin="round" d="M 8524,10441 L 8524,10291"/>
 <path fill="none" stroke="rgb(0,0,0)" stroke-width="30" stroke-linejoin="round" d="M 8644,10441 L 8644,10291"/>
 <path fill="none" stroke="rgb(0,0,0)" stroke-width="30" stroke-linejoin="round" d="M 8644,10441 L 8644,10291"/>
 <path fill="none" stroke="rgb(0,0,0)" stroke-width="30" stroke-linejoin="round" d="M 8765,10441 L 8765,10291"/>
 <path fill="none" stroke="rgb(0,0,0)" stroke-width="30" stroke-linejoin="round" d="M 8765,10441 L 8765,10291"/>
 <path fill="none" stroke="rgb(0,0,0)" stroke-width="30" stroke-linejoin="round" d="M 8885,10441 L 8885,10291"/>
 <path fill="none" stroke="rgb(0,0,0)" stroke-width="30" stroke-linejoin="round" d="M 8885,10441 L 8885,10291"/>
 <path fill="none" stroke="rgb(0,0,0)" stroke-width="30" stroke-linejoin="round" d="M 9005,10441 L 9005,10291"/>
 <path fill="none" stroke="rgb(0,0,0)" stroke-width="30" stroke-linejoin="round" d="M 9005,10441 L 9005,10291"/>
 <path fill="none" stroke="rgb(0,0,0)" stroke-width="30" stroke-linejoin="round" d="M 9125,10441 L 9125,10291"/>
 <path fill="none" stroke="rgb(0,0,0)" stroke-width="30" stroke-linejoin="round" d="M 9125,10441 L 9125,10291"/>
 <path fill="none" stroke="rgb(0,0,0)" stroke-width="30" stroke-linejoin="round" d="M 9246,10441 L 9246,10291"/>
 <path fill="none" stroke="rgb(0,0,0)" stroke-width="30" stroke-linejoin="round" d="M 9246,10441 L 9246,10291"/>
 <path fill="none" stroke="rgb(0,0,0)" stroke-width="30" stroke-linejoin="round" d="M 9366,10441 L 9366,10291"/>
 <path fill="none" stroke="rgb(0,0,0)" stroke-width="30" stroke-linejoin="round" d="M 9366,10441 L 9366,10291"/>
 <path fill="none" stroke="rgb(0,0,0)" stroke-width="30" stroke-linejoin="round" d="M 9486,10441 L 9486,10291"/>
 <path fill="none" stroke="rgb(0,0,0)" stroke-width="30" stroke-linejoin="round" d="M 9486,10441 L 9486,10291"/>
 <path fill="none" stroke="rgb(0,0,0)" stroke-width="30" stroke-linejoin="round" d="M 9607,10441 L 9607,10291"/>
 <path fill="none" stroke="rgb(0,0,0)" stroke-width="30" stroke-linejoin="round" d="M 9607,10441 L 9607,10291"/>
 <path fill="none" stroke="rgb(0,0,0)" stroke-width="30" stroke-linejoin="round" d="M 9727,10441 L 9727,10291"/>
 <path fill="none" stroke="rgb(0,0,0)" stroke-width="30" stroke-linejoin="round" d="M 9727,10441 L 9727,10291"/>
 <path fill="none" stroke="rgb(0,0,0)" stroke-width="30" stroke-linejoin="round" d="M 9847,10441 L 9847,10291"/>
 <path fill="none" stroke="rgb(0,0,0)" stroke-width="30" stroke-linejoin="round" d="M 9847,10441 L 9847,10291"/>
 <path fill="none" stroke="rgb(0,0,0)" stroke-width="30" stroke-linejoin="round" d="M 9968,10441 L 9968,10291"/>
 <path fill="none" stroke="rgb(0,0,0)" stroke-width="30" stroke-linejoin="round" d="M 9968,10441 L 9968,10291"/>
 <path fill="none" stroke="rgb(0,0,0)" stroke-width="30" stroke-linejoin="round" d="M 10088,10441 L 10088,10291"/>
 <path fill="none" stroke="rgb(0,0,0)" stroke-width="30" stroke-linejoin="round" d="M 10088,10441 L 10088,10291"/>
 <path fill="none" stroke="rgb(0,0,0)" stroke-width="30" stroke-linejoin="round" d="M 10208,10441 L 10208,10291"/>
 <path fill="none" stroke="rgb(0,0,0)" stroke-width="30" stroke-linejoin="round" d="M 10208,10441 L 10208,10291"/>
 <path fill="none" stroke="rgb(0,0,0)" stroke-width="30" stroke-linejoin="round" d="M 10329,10441 L 10329,10291"/>
 <path fill="none" stroke="rgb(0,0,0)" stroke-width="30" stroke-linejoin="round" d="M 10329,10441 L 10329,10291"/>
 <path fill="none" stroke="rgb(0,0,0)" stroke-width="30" stroke-linejoin="round" d="M 10449,10441 L 10449,10291"/>
 <path fill="none" stroke="rgb(0,0,0)" stroke-width="30" stroke-linejoin="round" d="M 10449,10441 L 10449,10291"/>
 <path fill="none" stroke="rgb(0,0,0)" stroke-width="30" stroke-linejoin="round" d="M 10569,10441 L 10569,10291"/>
 <path fill="none" stroke="rgb(0,0,0)" stroke-width="30" stroke-linejoin="round" d="M 10569,10441 L 10569,10291"/>
 <path fill="none" stroke="rgb(0,0,0)" stroke-width="30" stroke-linejoin="round" d="M 10689,10441 L 10689,10291"/>
 <path fill="none" stroke="rgb(0,0,0)" stroke-width="30" stroke-linejoin="round" d="M 10689,10441 L 10689,10291"/>
 <path fill="none" stroke="rgb(0,0,0)" stroke-width="30" stroke-linejoin="round" d="M 10810,10441 L 10810,10291"/>
 <path fill="none" stroke="rgb(0,0,0)" stroke-width="30" stroke-linejoin="round" d="M 10810,10441 L 10810,10291"/>
 <path fill="none" stroke="rgb(0,0,0)" stroke-width="30" stroke-linejoin="round" d="M 10930,10441 L 10930,10291"/>
 <path fill="none" stroke="rgb(0,0,0)" stroke-width="30" stroke-linejoin="round" d="M 10930,10441 L 10930,10291"/>
 <path fill="none" stroke="rgb(0,0,0)" stroke-width="30" stroke-linejoin="round" d="M 11050,10441 L 11050,10291"/>
 <path fill="none" stroke="rgb(0,0,0)" stroke-width="30" stroke-linejoin="round" d="M 11050,10441 L 11050,10291"/>
 <path fill="none" stroke="rgb(0,0,0)" stroke-width="30" stroke-linejoin="round" d="M 11171,10441 L 11171,10291"/>
 <path fill="none" stroke="rgb(0,0,0)" stroke-width="30" stroke-linejoin="round" d="M 11171,10441 L 11171,10291"/>
 <path fill="none" stroke="rgb(0,0,0)" stroke-width="30" stroke-linejoin="round" d="M 11291,10441 L 11291,10291"/>
 <path fill="none" stroke="rgb(0,0,0)" stroke-width="30" stroke-linejoin="round" d="M 11291,10441 L 11291,10291"/>
 <path fill="none" stroke="rgb(0,0,0)" stroke-width="30" stroke-linejoin="round" d="M 11411,10441 L 11411,10291"/>
 <path fill="none" stroke="rgb(0,0,0)" stroke-width="30" stroke-linejoin="round" d="M 11411,10441 L 11411,10291"/>
 <path fill="none" stroke="rgb(0,0,0)" stroke-width="30" stroke-linejoin="round" d="M 11532,10441 L 11532,10291"/>
 <path fill="none" stroke="rgb(0,0,0)" stroke-width="30" stroke-linejoin="round" d="M 11532,10441 L 11532,10291"/>
 <path fill="none" stroke="rgb(0,0,0)" stroke-width="30" stroke-linejoin="round" d="M 11652,10441 L 11652,10291"/>
 <path fill="none" stroke="rgb(0,0,0)" stroke-width="30" stroke-linejoin="round" d="M 11652,10441 L 11652,10291"/>
 <path fill="none" stroke="rgb(0,0,0)" stroke-width="30" stroke-linejoin="round" d="M 11772,10441 L 11772,10291"/>
 <path fill="none" stroke="rgb(0,0,0)" stroke-width="30" stroke-linejoin="round" d="M 11772,10441 L 11772,10291"/>
 <path fill="none" stroke="rgb(0,0,0)" stroke-width="30" stroke-linejoin="round" d="M 11893,10441 L 11893,10291"/>
 <path fill="none" stroke="rgb(0,0,0)" stroke-width="30" stroke-linejoin="round" d="M 11893,10441 L 11893,10291"/>
 <path fill="none" stroke="rgb(0,0,0)" stroke-width="30" stroke-linejoin="round" d="M 12013,10441 L 12013,10291"/>
 <path fill="none" stroke="rgb(0,0,0)" stroke-width="30" stroke-linejoin="round" d="M 12013,10441 L 12013,10291"/>
 <path fill="none" stroke="rgb(0,0,0)" stroke-width="30" stroke-linejoin="round" d="M 12133,10441 L 12133,10291"/>
 <path fill="none" stroke="rgb(0,0,0)" stroke-width="30" stroke-linejoin="round" d="M 12133,10441 L 12133,10291"/>
 <path fill="none" stroke="rgb(0,0,0)" stroke-width="30" stroke-linejoin="round" d="M 12253,10441 L 12253,10291"/>
 <path fill="none" stroke="rgb(0,0,0)" stroke-width="30" stroke-linejoin="round" d="M 12253,10441 L 12253,10291"/>
 <path fill="none" stroke="rgb(0,0,0)" stroke-width="30" stroke-linejoin="round" d="M 12374,10441 L 12374,10291"/>
 <path fill="none" stroke="rgb(0,0,0)" stroke-width="30" stroke-linejoin="round" d="M 12374,10441 L 12374,10291"/>
 <path fill="none" stroke="rgb(0,0,0)" stroke-width="30" stroke-linejoin="round" d="M 12494,10441 L 12494,10291"/>
 <path fill="none" stroke="rgb(0,0,0)" stroke-width="30" stroke-linejoin="round" d="M 12494,10441 L 12494,10291"/>
 <path fill="none" stroke="rgb(0,0,0)" stroke-width="30" stroke-linejoin="round" d="M 12614,10441 L 12614,10291"/>
 <path fill="none" stroke="rgb(0,0,0)" stroke-width="30" stroke-linejoin="round" d="M 12614,10441 L 12614,10291"/>
 <path fill="none" stroke="rgb(0,0,0)" stroke-width="30" stroke-linejoin="round" d="M 12735,10441 L 12735,10291"/>
 <path fill="none" stroke="rgb(0,0,0)" stroke-width="30" stroke-linejoin="round" d="M 12735,10441 L 12735,10291"/>
 <path fill="none" stroke="rgb(0,0,0)" stroke-width="30" stroke-linejoin="round" d="M 12855,10441 L 12855,10291"/>
 <path fill="none" stroke="rgb(0,0,0)" stroke-width="30" stroke-linejoin="round" d="M 12855,10441 L 12855,10291"/>
 <path fill="none" stroke="rgb(0,0,0)" stroke-width="30" stroke-linejoin="round" d="M 12975,10441 L 12975,10291"/>
 <path fill="none" stroke="rgb(0,0,0)" stroke-width="30" stroke-linejoin="round" d="M 12975,10441 L 12975,10291"/>
 <path fill="none" stroke="rgb(0,0,0)" stroke-width="30" stroke-linejoin="round" d="M 13096,10441 L 13096,10291"/>
 <path fill="none" stroke="rgb(0,0,0)" stroke-width="30" stroke-linejoin="round" d="M 13096,10441 L 13096,10291"/>
 <path fill="none" stroke="rgb(0,0,0)" stroke-width="30" stroke-linejoin="round" d="M 13216,10441 L 13216,10291"/>
 <path fill="none" stroke="rgb(0,0,0)" stroke-width="30" stroke-linejoin="round" d="M 13216,10441 L 13216,10291"/>
 <path fill="none" stroke="rgb(0,0,0)" stroke-width="30" stroke-linejoin="round" d="M 13336,10441 L 13336,10291"/>
 <path fill="none" stroke="rgb(0,0,0)" stroke-width="30" stroke-linejoin="round" d="M 13336,10441 L 13336,10291"/>
 <path fill="none" stroke="rgb(0,0,0)" stroke-width="30" stroke-linejoin="round" d="M 13457,10441 L 13457,10291"/>
 <path fill="none" stroke="rgb(0,0,0)" stroke-width="30" stroke-linejoin="round" d="M 13457,10441 L 13457,10291"/>
 <path fill="none" stroke="rgb(0,0,0)" stroke-width="30" stroke-linejoin="round" d="M 13577,10441 L 13577,10291"/>
 <path fill="none" stroke="rgb(0,0,0)" stroke-width="30" stroke-linejoin="round" d="M 13577,10441 L 13577,10291"/>
 <path fill="none" stroke="rgb(0,0,0)" stroke-width="30" stroke-linejoin="round" d="M 13697,10441 L 13697,10291"/>
 <path fill="none" stroke="rgb(0,0,0)" stroke-width="30" stroke-linejoin="round" d="M 13697,10441 L 13697,10291"/>
 <path fill="none" stroke="rgb(0,0,0)" stroke-width="30" stroke-linejoin="round" d="M 13817,10441 L 13817,10291"/>
 <path fill="none" stroke="rgb(0,0,0)" stroke-width="30" stroke-linejoin="round" d="M 13817,10441 L 13817,10291"/>
 <path fill="none" stroke="rgb(0,0,0)" stroke-width="30" stroke-linejoin="round" d="M 13938,10441 L 13938,10291"/>
 <path fill="none" stroke="rgb(0,0,0)" stroke-width="30" stroke-linejoin="round" d="M 13938,10441 L 13938,10291"/>
 <path fill="none" stroke="rgb(0,0,0)" stroke-width="30" stroke-linejoin="round" d="M 14058,10441 L 14058,10291"/>
 <path fill="none" stroke="rgb(0,0,0)" stroke-width="30" stroke-linejoin="round" d="M 14058,10441 L 14058,10291"/>
 <path fill="none" stroke="rgb(0,0,0)" stroke-width="30" stroke-linejoin="round" d="M 14178,10441 L 14178,10291"/>
 <path fill="none" stroke="rgb(0,0,0)" stroke-width="30" stroke-linejoin="round" d="M 14178,10441 L 14178,10291"/>
 <path fill="none" stroke="rgb(0,0,0)" stroke-width="30" stroke-linejoin="round" d="M 14299,10441 L 14299,10291"/>
 <path fill="none" stroke="rgb(0,0,0)" stroke-width="30" stroke-linejoin="round" d="M 14299,10441 L 14299,10291"/>
 <path fill="none" stroke="rgb(0,0,0)" stroke-width="30" stroke-linejoin="round" d="M 14419,10441 L 14419,10291"/>
 <path fill="none" stroke="rgb(0,0,0)" stroke-width="30" stroke-linejoin="round" d="M 14419,10441 L 14419,10291"/>
 <path fill="none" stroke="rgb(0,0,0)" stroke-width="30" stroke-linejoin="round" d="M 14539,10441 L 14539,10291"/>
 <path fill="none" stroke="rgb(0,0,0)" stroke-width="30" stroke-linejoin="round" d="M 14539,10441 L 14539,10291"/>
 <path fill="none" stroke="rgb(0,0,0)" stroke-width="30" stroke-linejoin="round" d="M 14660,10441 L 14660,10291"/>
 <path fill="none" stroke="rgb(0,0,0)" stroke-width="30" stroke-linejoin="round" d="M 14660,10441 L 14660,10291"/>
 <path fill="none" stroke="rgb(0,0,0)" stroke-width="30" stroke-linejoin="round" d="M 14780,10441 L 14780,10291"/>
 <path fill="none" stroke="rgb(0,0,0)" stroke-width="30" stroke-linejoin="round" d="M 14780,10441 L 14780,10291"/>
 <path fill="none" stroke="rgb(0,0,0)" stroke-width="30" stroke-linejoin="round" d="M 14900,10441 L 14900,10291"/>
 <path fill="none" stroke="rgb(0,0,0)" stroke-width="30" stroke-linejoin="round" d="M 14900,10441 L 14900,10291"/>
 <path fill="none" stroke="rgb(0,0,0)" stroke-width="30" stroke-linejoin="round" d="M 15021,10441 L 15021,10291"/>
 <path fill="none" stroke="rgb(0,0,0)" stroke-width="30" stroke-linejoin="round" d="M 15021,10441 L 15021,10291"/>
 <path fill="none" stroke="rgb(0,0,0)" stroke-width="30" stroke-linejoin="round" d="M 1307,10291 L 15021,10291"/>
 <path fill="none" stroke="rgb(0,0,0)" stroke-width="30" stroke-linejoin="round" d="M 1157,10291 L 1307,10291"/>
 <path fill="none" stroke="rgb(0,0,0)" stroke-width="30" stroke-linejoin="round" d="M 1157,10291 L 1307,10291"/>
 <path fill="none" stroke="rgb(0,0,0)" stroke-width="30" stroke-linejoin="round" d="M 1157,9356 L 1307,9356"/>
 <path fill="none" stroke="rgb(0,0,0)" stroke-width="30" stroke-linejoin="round" d="M 1157,9356 L 1307,9356"/>
 <path fill="none" stroke="rgb(0,0,0)" stroke-width="30" stroke-linejoin="round" d="M 1157,8422 L 1307,8422"/>
 <path fill="none" stroke="rgb(0,0,0)" stroke-width="30" stroke-linejoin="round" d="M 1157,8422 L 1307,8422"/>
 <path fill="none" stroke="rgb(0,0,0)" stroke-width="30" stroke-linejoin="round" d="M 1157,7488 L 1307,7488"/>
 <path fill="none" stroke="rgb(0,0,0)" stroke-width="30" stroke-linejoin="round" d="M 1157,7488 L 1307,7488"/>
 <path fill="none" stroke="rgb(0,0,0)" stroke-width="30" stroke-linejoin="round" d="M 1157,6554 L 1307,6554"/>
 <path fill="none" stroke="rgb(0,0,0)" stroke-width="30" stroke-linejoin="round" d="M 1157,6554 L 1307,6554"/>
 <path fill="none" stroke="rgb(0,0,0)" stroke-width="30" stroke-linejoin="round" d="M 1157,5621 L 1307,5621"/>
 <path fill="none" stroke="rgb(0,0,0)" stroke-width="30" stroke-linejoin="round" d="M 1157,5621 L 1307,5621"/>
 <path fill="none" stroke="rgb(0,0,0)" stroke-width="30" stroke-linejoin="round" d="M 1157,4687 L 1307,4687"/>
 <path fill="none" stroke="rgb(0,0,0)" stroke-width="30" stroke-linejoin="round" d="M 1157,4687 L 1307,4687"/>
 <path fill="none" stroke="rgb(0,0,0)" stroke-width="30" stroke-linejoin="round" d="M 1157,3753 L 1307,3753"/>
 <path fill="none" stroke="rgb(0,0,0)" stroke-width="30" stroke-linejoin="round" d="M 1157,3753 L 1307,3753"/>
 <path fill="none" stroke="rgb(0,0,0)" stroke-width="30" stroke-linejoin="round" d="M 1157,2819 L 1307,2819"/>
 <path fill="none" stroke="rgb(0,0,0)" stroke-width="30" stroke-linejoin="round" d="M 1157,2819 L 1307,2819"/>
 <path fill="none" stroke="rgb(0,0,0)" stroke-width="30" stroke-linejoin="round" d="M 1157,1885 L 1307,1885"/>
 <path fill="none" stroke="rgb(0,0,0)" stroke-width="30" stroke-linejoin="round" d="M 1157,1885 L 1307,1885"/>
 <path fill="none" stroke="rgb(0,0,0)" stroke-width="30" stroke-linejoin="round" d="M 1157,951 L 1307,951"/>
 <path fill="none" stroke="rgb(0,0,0)" stroke-width="30" stroke-linejoin="round" d="M 1157,951 L 1307,951"/>
 <path fill="none" stroke="rgb(0,0,0)" stroke-width="30" stroke-linejoin="round" d="M 1307,10291 L 1307,951"/>
 <path fill="none" stroke="rgb(0,0,0)" stroke-width="30" stroke-linejoin="round" d="M 15171,10291 L 15021,10291"/>
 <path fill="none" stroke="rgb(0,0,0)" stroke-width="30" stroke-linejoin="round" d="M 15171,10291 L 15021,10291"/>
 <path fill="none" stroke="rgb(0,0,0)" stroke-width="30" stroke-linejoin="round" d="M 15171,9356 L 15021,9356"/>
 <path fill="none" stroke="rgb(0,0,0)" stroke-width="30" stroke-linejoin="round" d="M 15171,9356 L 15021,9356"/>
 <path fill="none" stroke="rgb(0,0,0)" stroke-width="30" stroke-linejoin="round" d="M 15171,8422 L 15021,8422"/>
 <path fill="none" stroke="rgb(0,0,0)" stroke-width="30" stroke-linejoin="round" d="M 15171,8422 L 15021,8422"/>
 <path fill="none" stroke="rgb(0,0,0)" stroke-width="30" stroke-linejoin="round" d="M 15171,7488 L 15021,7488"/>
 <path fill="none" stroke="rgb(0,0,0)" stroke-width="30" stroke-linejoin="round" d="M 15171,7488 L 15021,7488"/>
 <path fill="none" stroke="rgb(0,0,0)" stroke-width="30" stroke-linejoin="round" d="M 15171,6554 L 15021,6554"/>
 <path fill="none" stroke="rgb(0,0,0)" stroke-width="30" stroke-linejoin="round" d="M 15171,6554 L 15021,6554"/>
 <path fill="none" stroke="rgb(0,0,0)" stroke-width="30" stroke-linejoin="round" d="M 15171,5621 L 15021,5621"/>
 <path fill="none" stroke="rgb(0,0,0)" stroke-width="30" stroke-linejoin="round" d="M 15171,5621 L 15021,5621"/>
 <path fill="none" stroke="rgb(0,0,0)" stroke-width="30" stroke-linejoin="round" d="M 15171,4687 L 15021,4687"/>
 <path fill="none" stroke="rgb(0,0,0)" stroke-width="30" stroke-linejoin="round" d="M 15171,4687 L 15021,4687"/>
 <path fill="none" stroke="rgb(0,0,0)" stroke-width="30" stroke-linejoin="round" d="M 15171,3753 L 15021,3753"/>
 <path fill="none" stroke="rgb(0,0,0)" stroke-width="30" stroke-linejoin="round" d="M 15171,3753 L 15021,3753"/>
 <path fill="none" stroke="rgb(0,0,0)" stroke-width="30" stroke-linejoin="round" d="M 15171,2819 L 15021,2819"/>
 <path fill="none" stroke="rgb(0,0,0)" stroke-width="30" stroke-linejoin="round" d="M 15171,2819 L 15021,2819"/>
 <path fill="none" stroke="rgb(0,0,0)" stroke-width="30" stroke-linejoin="round" d="M 15171,1885 L 15021,1885"/>
 <path fill="none" stroke="rgb(0,0,0)" stroke-width="30" stroke-linejoin="round" d="M 15171,1885 L 15021,1885"/>
 <path fill="none" stroke="rgb(0,0,0)" stroke-width="30" stroke-linejoin="round" d="M 15171,951 L 15021,951"/>
 <path fill="none" stroke="rgb(0,0,0)" stroke-width="30" stroke-linejoin="round" d="M 15171,951 L 15021,951"/>
 <path fill="none" stroke="rgb(0,0,0)" stroke-width="30" stroke-linejoin="round" d="M 15021,10291 L 15021,951"/>
 <path fill="rgb(255,66,14)" stroke="none" d="M 1307,10291 L 1427,10291 1547,10291 1667,10291 1788,10291 1908,10291 2028,10291 2149,10291 2269,10291 2389,10291 2510,10291 2630,10291 2750,10291 2870,10291 2991,10291 3111,10291 3231,10291 3352,10291 3472,10291 3592,10291 3713,10291 3833,10291 3953,10291 4074,10291 4194,10291 4314,10291 4434,10291 4555,10291 4675,10291 4795,10291 4916,10291 5036,10291 5156,10291 5277,10291 5397,10291 5517,10291 5638,10291 5758,10291 5878,10291 5998,10291 6119,10291 6239,10291 6359,10291 6480,10291 6600,10291 6720,10291 6841,10291 6961,10291 7081,10291 7202,10291 7322,10291 7442,10291 7562,10291 7683,10291 7803,10291 7923,10291 8044,10291 8164,10291 8283,10291 8404,10291 8524,10291 8644,10291 8765,10291 8885,10291 9005,10291 9125,10291 9246,10291 9366,10291 9486,10291 9607,10291 9727,10249 9847,10238 9968,10219 10088,10180 10208,10162 10329,10139 10449,10106 10569,10092 10689,10099 10810,10105 10930,10102 11050,10072 11171,10061 11291,9979 11411,9919 11532,9874 11652,9816 11772,9806 11893,9786 12013,9757 12133,9693 12253,9650 12374,9587 12494,9563 12614,9504 12735,9498 12855,9440 12975,9390 13096,9345 13216,9411 13336,9313 13457,9307 13577,9215 13697,9086 13817,8971 13938,8921 14058,8868 14178,8876 14299,8787 14419,8731 14539,8730 14660,8782 14780,8737 14900,8720 15021,8714 15021,10291 1307,10291 Z"/>
 <path fill="rgb(0,69,134)" stroke="none" d="M 1307,10291 L 1427,10291 1547,10291 1667,10291 1788,10291 1908,10291 2028,10291 2149,10291 2269,10291 2389,10291 2510,10291 2630,10291 2750,10291 2870,10291 2991,10253 3111,10238 3231,10224 3352,10209 3472,10193 3592,10173 3713,10149 3833,10111 3953,10077 4074,10045 4194,10004 4314,9952 4434,9875 4555,9827 4675,9780 4795,9738 4916,9711 5036,9703 5156,9667 5277,9619 5397,9586 5517,9528 5638,9464 5758,9423 5878,9333 5998,9336 6119,9315 6239,9282 6359,9259 6480,9226 6600,9208 6720,9202 6841,9175 6961,9127 7081,9092 7202,9063 7322,9038 7442,9030 7562,9025 7683,9004 7803,8975 7923,8930 8044,8932 8164,8916 8283,8870 8404,8843 8524,8841 8644,8831 8765,8786 8885,8760 9005,8728 9125,8742 9246,8770 9366,8709 9486,8701 9607,8740 9727,8685 9847,8694 9968,8639 10088,8681 10208,8668 10329,8676 10449,8689 10569,8678 10689,8641 10810,8637 10930,8582 11050,8462 11171,8425 11291,8349 11411,8396 11532,8387 11652,8391 11772,8348 11893,8362 12013,8320 12133,8272 12253,8277 12374,8236 12494,8184 12614,8102 12735,8098 12855,8118 12975,8146 13096,8137 13216,8144 13336,8063 13457,8039 13577,8026 13697,7953 13817,7884 13938,7795 14058,7726 14178,7741 14299,7704 14419,7745 14539,7762 14660,7725 14780,7747 14900,7774 15021,7771 15021,8714 14900,8720 14780,8737 14660,8782 14539,8730 14419,8731 14299,8787 14178,8876 14058,8868 13938,8921 13817,8971 13697,9086 13577,9215 13457,9307 13336,9313 13216,9411 13096,9345 12975,9390 12855,9440 12735,9498 12614,9504 12494,9563 12374,9587 12253,9650 12133,9693 12013,9757 11893,9786 11772,9806 11652,9816 11532,9874 11411,9919 11291,9979 11171,10061 11050,10072 10930,10102 10810,10105 10689,10099 10569,10092 10449,10106 10329,10139 10208,10162 10088,10180 9968,10219 9847,10238 9727,10249 9607,10291 9486,10291 9366,10291 9246,10291 9125,10291 9005,10291 8885,10291 8765,10291 8644,10291 8524,10291 8404,10291 8283,10291 8164,10291 8044,10291 7923,10291 7803,10291 7683,10291 7562,10291 7442,10291 7322,10291 7202,10291 7081,10291 6961,10291 6841,10291 6720,10291 6600,10291 6480,10291 6359,10291 6239,10291 6119,10291 5998,10291 5878,10291 5758,10291 5638,10291 5517,10291 5397,10291 5277,10291 5156,10291 5036,10291 4916,10291 4795,10291 4675,10291 4555,10291 4434,10291 4314,10291 4194,10291 4074,10291 3953,10291 3833,10291 3713,10291 3592,10291 3472,10291 3352,10291 3231,10291 3111,10291 2991,10291 2870,10291 2750,10291 2630,10291 2510,10291 2389,10291 2269,10291 2149,10291 2028,10291 1908,10291 1788,10291 1667,10291 1547,10291 1427,10291 1307,10291 Z"/>
 <path fill="rgb(255,211,32)" stroke="none" d="M 1307,10291 L 1427,10291 1547,10291 1667,10291 1788,10291 1908,10291 2028,10291 2149,10291 2269,10291 2389,10291 2510,10291 2630,10291 2750,10291 2870,10291 2991,10253 3111,10238 3231,10224 3352,10209 3472,10193 3592,10173 3713,10149 3833,10111 3953,10077 4074,10045 4194,10004 4314,9952 4434,9875 4555,9827 4675,9780 4795,9738 4916,9711 5036,9703 5156,9667 5277,9619 5397,9586 5517,9528 5638,9464 5758,9423 5878,9333 5998,9336 6119,9315 6239,9282 6359,9259 6480,9226 6600,9208 6720,9202 6841,9175 6961,9127 7081,9092 7202,9063 7322,9038 7442,9030 7562,9025 7683,9004 7803,8975 7923,8930 8044,8932 8164,8916 8283,8870 8404,8843 8524,8841 8644,8831 8765,8786 8885,8760 9005,8728 9125,8742 9246,8770 9366,8709 9486,8701 9607,8740 9727,8685 9847,8694 9968,8639 10088,8681 10208,8668 10329,8676 10449,8689 10569,8678 10689,8641 10810,8637 10930,8582 11050,8462 11171,8419 11291,8311 11411,8326 11532,8277 11652,8246 11772,8178 11893,8168 12013,8102 12133,8019 12253,7995 12374,7923 12494,7854 12614,7755 12735,7711 12855,7673 12975,7657 13096,7587 13216,7612 13336,7507 13457,7454 13577,7414 13697,7340 13817,7214 13938,7088 14058,7026 14178,7023 14299,6962 14419,6903 14539,6851 14660,6859 14780,6846 14900,6876 15021,6827 15021,7771 14900,7774 14780,7747 14660,7725 14539,7762 14419,7745 14299,7704 14178,7741 14058,7726 13938,7795 13817,7884 13697,7953 13577,8026 13457,8039 13336,8063 13216,8144 13096,8137 12975,8146 12855,8118 12735,8098 12614,8102 12494,8184 12374,8236 12253,8277 12133,8272 12013,8320 11893,8362 11772,8348 11652,8391 11532,8387 11411,8396 11291,8349 11171,8425 11050,8462 10930,8582 10810,8637 10689,8641 10569,8678 10449,8689 10329,8676 10208,8668 10088,8681 9968,8639 9847,8694 9727,8685 9607,8740 9486,8701 9366,8709 9246,8770 9125,8742 9005,8728 8885,8760 8765,8786 8644,8831 8524,8841 8404,8843 8283,8870 8164,8916 8044,8932 7923,8930 7803,8975 7683,9004 7562,9025 7442,9030 7322,9038 7202,9063 7081,9092 6961,9127 6841,9175 6720,9202 6600,9208 6480,9226 6359,9259 6239,9282 6119,9315 5998,9336 5878,9333 5758,9423 5638,9464 5517,9528 5397,9586 5277,9619 5156,9667 5036,9703 4916,9711 4795,9738 4675,9780 4555,9827 4434,9875 4314,9952 4194,10004 4074,10045 3953,10077 3833,10111 3713,10149 3592,10173 3472,10193 3352,10209 3231,10224 3111,10238 2991,10253 2870,10291 2750,10291 2630,10291 2510,10291 2389,10291 2269,10291 2149,10291 2028,10291 1908,10291 1788,10291 1667,10291 1547,10291 1427,10291 1307,10291 Z"/>
 <path fill="rgb(131,202,255)" stroke="none" d="M 1307,10291 L 1427,10291 1547,10291 1667,10291 1788,10291 1908,10291 2028,10291 2149,10291 2269,10291 2389,10291 2510,10291 2630,10291 2750,10291 2870,10291 2991,10253 3111,10238 3231,10224 3352,10209 3472,10193 3592,10173 3713,10105 3833,10059 3953,10016 4074,9977 4194,9921 4314,9850 4434,9752 4555,9690 4675,9626 4795,9567 4916,9524 5036,9496 5156,9454 5277,9392 5397,9338 5517,9269 5638,9198 5758,9140 5878,9049 5998,9034 6119,8999 6239,8949 6359,8911 6480,8861 6600,8843 6720,8819 6841,8777 6961,8711 7081,8679 7202,8657 7322,8621 7442,8596 7562,8573 7683,8555 7803,8506 7923,8449 8044,8435 8164,8383 8283,8349 8404,8314 8524,8298 8644,8315 8765,8252 8885,8231 9005,8180 9125,8173 9246,8178 9366,8124 9486,8154 9607,8213 9727,8136 9847,8099 9968,8038 10088,8095 10208,8064 10329,8052 10449,8050 10569,8008 10689,7931 10810,7888 10930,7833 11050,7723 11171,7657 11291,7558 11411,7549 11532,7486 11652,7475 11772,7381 11893,7359 12013,7293 12133,7233 12253,7180 12374,7101 12494,7032 12614,6917 12735,6864 12855,6818 12975,6799 13096,6733 13216,6678 13336,6597 13457,6565 13577,6520 13697,6442 13817,6375 13938,6221 14058,6161 14178,6183 14299,6204 14419,6191 14539,6130 14660,6101 14780,6088 14900,6150 15021,6077 15021,6827 14900,6876 14780,6846 14660,6859 14539,6851 14419,6903 14299,6962 14178,7023 14058,7026 13938,7088 13817,7214 13697,7340 13577,7414 13457,7454 13336,7507 13216,7612 13096,7587 12975,7657 12855,7673 12735,7711 12614,7755 12494,7854 12374,7923 12253,7995 12133,8019 12013,8102 11893,8168 11772,8178 11652,8246 11532,8277 11411,8326 11291,8311 11171,8419 11050,8462 10930,8582 10810,8637 10689,8641 10569,8678 10449,8689 10329,8676 10208,8668 10088,8681 9968,8639 9847,8694 9727,8685 9607,8740 9486,8701 9366,8709 9246,8770 9125,8742 9005,8728 8885,8760 8765,8786 8644,8831 8524,8841 8404,8843 8283,8870 8164,8916 8044,8932 7923,8930 7803,8975 7683,9004 7562,9025 7442,9030 7322,9038 7202,9063 7081,9092 6961,9127 6841,9175 6720,9202 6600,9208 6480,9226 6359,9259 6239,9282 6119,9315 5998,9336 5878,9333 5758,9423 5638,9464 5517,9528 5397,9586 5277,9619 5156,9667 5036,9703 4916,9711 4795,9738 4675,9780 4555,9827 4434,9875 4314,9952 4194,10004 4074,10045 3953,10077 3833,10111 3713,10149 3592,10173 3472,10193 3352,10209 3231,10224 3111,10238 2991,10253 2870,10291 2750,10291 2630,10291 2510,10291 2389,10291 2269,10291 2149,10291 2028,10291 1908,10291 1788,10291 1667,10291 1547,10291 1427,10291 1307,10291 Z"/>
 <path fill="rgb(49,64,4)" stroke="none" d="M 1307,9992 L 1427,9992 1547,9997 1667,9997 1788,9998 1908,9993 2028,10001 2149,10005 2269,10004 2389,10007 2510,10012 2630,10011 2750,10020 2870,10021 2991,9992 3111,9978 3231,9966 3352,9953 3472,9940 3592,9920 3713,9854 3833,9814 3953,9777 4074,9739 4194,9690 4314,9624 4434,9539 4555,9479 4675,9421 4795,9368 4916,9327 5036,9297 5156,9251 5277,9194 5397,9145 5517,9078 5638,9009 5758,8963 5878,8876 5998,8859 6119,8822 6239,8779 6359,8743 6480,8701 6600,8691 6720,8671 6841,8636 6961,8582 7081,8549 7202,8526 7322,8491 7442,8300 7562,8251 7683,8197 7803,8132 7923,8021 8044,7952 8164,7915 8283,7863 8404,7860 8524,7795 8644,7735 8765,7646 8885,7671 9005,7563 9125,7537 9246,7521 9366,7437 9486,7427 9607,7523 9727,7475 9847,7423 9968,7328 10088,7298 10208,7229 10329,7243 10449,7229 10569,7223 10689,7292 10810,7323 10930,7326 11050,7173 11171,7144 11291,7019 11411,6956 11532,6885 11652,6836 11772,6750 11893,6718 12013,6647 12133,6555 12253,6468 12374,6365 12494,6295 12614,6259 12735,6178 12855,6080 12975,6034 13096,5989 13216,6003 13336,5954 13457,5920 13577,5866 13697,5821 13817,5708 13938,5627 14058,5609 14178,5637 14299,5637 14419,5535 14539,5455 14660,5479 14780,5451 14900,5465 15021,5455 15021,6077 14900,6150 14780,6088 14660,6101 14539,6130 14419,6191 14299,6204 14178,6183 14058,6161 13938,6221 13817,6375 13697,6442 13577,6520 13457,6565 13336,6597 13216,6678 13096,6733 12975,6799 12855,6818 12735,6864 12614,6917 12494,7032 12374,7101 12253,7180 12133,7233 12013,7293 11893,7359 11772,7381 11652,7475 11532,7486 11411,7549 11291,7558 11171,7657 11050,7723 10930,7833 10810,7888 10689,7931 10569,8008 10449,8050 10329,8052 10208,8064 10088,8095 9968,8038 9847,8099 9727,8136 9607,8213 9486,8154 9366,8124 9246,8178 9125,8173 9005,8180 8885,8231 8765,8252 8644,8315 8524,8298 8404,8314 8283,8349 8164,8383 8044,8435 7923,8449 7803,8506 7683,8555 7562,8573 7442,8596 7322,8621 7202,8657 7081,8679 6961,8711 6841,8777 6720,8819 6600,8843 6480,8861 6359,8911 6239,8949 6119,8999 5998,9034 5878,9049 5758,9140 5638,9198 5517,9269 5397,9338 5277,9392 5156,9454 5036,9496 4916,9524 4795,9567 4675,9626 4555,9690 4434,9752 4314,9850 4194,9921 4074,9977 3953,10016 3833,10059 3713,10105 3592,10173 3472,10193 3352,10209 3231,10224 3111,10238 2991,10253 2870,10291 2750,10291 2630,10291 2510,10291 2389,10291 2269,10291 2149,10291 2028,10291 1908,10291 1788,10291 1667,10291 1547,10291 1427,10291 1307,10291 1307,9992 Z"/>
 <path fill="rgb(126,0,33)" stroke="none" d="M 1307,9992 L 1427,9992 1547,9997 1667,9997 1788,9998 1908,9993 2028,10001 2149,10005 2269,10004 2389,10007 2510,10012 2630,10011 2750,10020 2870,10021 2991,9992 3111,9978 3231,9966 3352,9953 3472,9940 3592,9920 3713,9854 3833,9814 3953,9777 4074,9739 4194,9690 4314,9624 4434,9539 4555,9479 4675,9421 4795,9368 4916,9327 5036,9297 5156,9251 5277,9194 5397,9145 5517,9078 5638,9009 5758,8963 5878,8876 5998,8859 6119,8822 6239,8779 6359,8743 6480,8701 6600,8691 6720,8671 6841,8636 6961,8582 7081,8549 7202,8526 7322,8491 7442,8300 7562,8251 7683,8197 7803,8132 7923,8021 8044,7952 8164,7915 8283,7863 8404,7828 8524,7739 8644,7653 8765,7543 8885,7566 9005,7441 9125,7393 9246,7353 9366,7263 9486,7241 9607,7274 9727,7217 9847,7130 9968,7007 10088,6899 10208,6819 10329,6789 10449,6727 10569,6713 10689,6832 10810,6902 10930,6933 11050,6735 11171,6737 11291,6570 11411,6479 11532,6392 11652,6335 11772,6244 11893,6210 12013,6141 12133,6014 12253,5908 12374,5782 12494,5730 12614,5708 12735,5652 12855,5544 12975,5505 13096,5447 13216,5519 13336,5472 13457,5429 13577,5367 13697,5342 13817,5193 13938,5082 14058,5099 14178,5133 14299,5141 14419,4996 14539,4902 14660,4966 14780,4925 14900,4948 15021,4930 15021,5455 14900,5465 14780,5451 14660,5479 14539,5455 14419,5535 14299,5637 14178,5637 14058,5609 13938,5627 13817,5708 13697,5821 13577,5866 13457,5920 13336,5954 13216,6003 13096,5989 12975,6034 12855,6080 12735,6178 12614,6259 12494,6295 12374,6365 12253,6468 12133,6555 12013,6647 11893,6718 11772,6750 11652,6836 11532,6885 11411,6956 11291,7019 11171,7144 11050,7173 10930,7326 10810,7323 10689,7292 10569,7223 10449,7229 10329,7243 10208,7229 10088,7298 9968,7328 9847,7423 9727,7475 9607,7523 9486,7427 9366,7437 9246,7521 9125,7537 9005,7563 8885,7671 8765,7646 8644,7735 8524,7795 8404,7860 8283,7863 8164,7915 8044,7952 7923,8021 7803,8132 7683,8197 7562,8251 7442,8300 7322,8491 7202,8526 7081,8549 6961,8582 6841,8636 6720,8671 6600,8691 6480,8701 6359,8743 6239,8779 6119,8822 5998,8859 5878,8876 5758,8963 5638,9009 5517,9078 5397,9145 5277,9194 5156,9251 5036,9297 4916,9327 4795,9368 4675,9421 4555,9479 4434,9539 4314,9624 4194,9690 4074,9739 3953,9777 3833,9814 3713,9854 3592,9920 3472,9940 3352,9953 3231,9966 3111,9978 2991,9992 2870,10021 2750,10020 2630,10011 2510,10012 2389,10007 2269,10004 2149,10005 2028,10001 1908,9993 1788,9998 1667,9997 1547,9997 1427,9992 1307,9992 Z"/>
 <path fill="rgb(87,157,28)" stroke="none" d="M 1307,8715 L 1427,8665 1547,8601 1667,8569 1788,8507 1908,8529 2028,8471 2149,8419 2269,8394 2389,8345 2510,8312 2630,8258 2750,8195 2870,8189 2991,8086 3111,8083 3231,8067 3352,8055 3472,8029 3592,7975 3713,7957 3833,7909 3953,7899 4074,7855 4194,7782 4314,7749 4434,7649 4555,7638 4675,7614 4795,7573 4916,7585 5036,7617 5156,7625 5277,7593 5397,7581 5517,7518 5638,7456 5758,7427 5878,7348 5998,7391 6119,7382 6239,7344 6359,7341 6480,7343 6600,7347 6720,7364 6841,7342 6961,7279 7081,7271 7202,7286 7322,7288 7442,7112 7562,7091 7683,7057 7803,7029 7923,6918 8044,6860 8164,6839 8283,6805 8404,6817 8524,6747 8644,6699 8765,6611 8885,6680 9005,6540 9125,6520 9246,6509 9366,6442 9486,6443 9607,6528 9727,6462 9847,6369 9968,6232 10088,6162 10208,6096 10329,6084 10449,6033 10569,6038 10689,6160 10810,6237 10930,6298 11050,6078 11171,6145 11291,5975 11411,5905 11532,5837 11652,5786 11772,5687 11893,5665 12013,5608 12133,5481 12253,5385 12374,5274 12494,5216 12614,5216 12735,5149 12855,5047 12975,5031 13096,4974 13216,5050 13336,5029 13457,4997 13577,4940 13697,4938 13817,4806 13938,4740 14058,4756 14178,4792 14299,4808 14419,4682 14539,4584 14660,4642 14780,4621 14900,4639 15021,4634 15021,4930 14900,4948 14780,4925 14660,4966 14539,4902 14419,4996 14299,5141 14178,5133 14058,5099 13938,5082 13817,5193 13697,5342 13577,5367 13457,5429 13336,5472 13216,5519 13096,5447 12975,5505 12855,5544 12735,5652 12614,5708 12494,5730 12374,5782 12253,5908 12133,6014 12013,6141 11893,6210 11772,6244 11652,6335 11532,6392 11411,6479 11291,6570 11171,6737 11050,6735 10930,6933 10810,6902 10689,6832 10569,6713 10449,6727 10329,6789 10208,6819 10088,6899 9968,7007 9847,7130 9727,7217 9607,7274 9486,7241 9366,7263 9246,7353 9125,7393 9005,7441 8885,7566 8765,7543 8644,7653 8524,7739 8404,7828 8283,7863 8164,7915 8044,7952 7923,8021 7803,8132 7683,8197 7562,8251 7442,8300 7322,8491 7202,8526 7081,8549 6961,8582 6841,8636 6720,8671 6600,8691 6480,8701 6359,8743 6239,8779 6119,8822 5998,8859 5878,8876 5758,8963 5638,9009 5517,9078 5397,9145 5277,9194 5156,9251 5036,9297 4916,9327 4795,9368 4675,9421 4555,9479 4434,9539 4314,9624 4194,9690 4074,9739 3953,9777 3833,9814 3713,9854 3592,9920 3472,9940 3352,9953 3231,9966 3111,9978 2991,9992 2870,10021 2750,10020 2630,10011 2510,10012 2389,10007 2269,10004 2149,10005 2028,10001 1908,9993 1788,9998 1667,9997 1547,9997 1427,9992 1307,9992 1307,8715 Z"/>
 <path fill="rgb(75,31,111)" stroke="none" d="M 1307,8235 L 1427,8162 1547,8070 1667,8022 1788,7923 1908,7953 2028,7852 2149,7774 2269,7733 2389,7662 2510,7614 2630,7553 2750,7448 2870,7413 2991,7289 3111,7278 3231,7248 3352,7233 3472,7205 3592,7152 3713,7114 3833,7063 3953,7053 4074,7017 4194,6944 4314,6916 4434,6821 4555,6820 4675,6799 4795,6767 4916,6800 5036,6856 5156,6878 5277,6850 5397,6856 5517,6802 5638,6743 5758,6718 5878,6630 5998,6688 6119,6691 6239,6663 6359,6666 6480,6676 6600,6691 6720,6713 6841,6693 6961,6633 7081,6639 7202,6681 7322,6686 7442,6519 7562,6499 7683,6478 7803,6454 7923,6338 8044,6277 8164,6231 8283,6197 8404,6222 8524,6160 8644,6135 8765,6058 8885,6138 9005,5990 9125,5968 9246,5954 9366,5899 9486,5908 9607,6063 9727,5982 9847,5869 9968,5731 10088,5680 10208,5619 10329,5603 10449,5549 10569,5549 10689,5654 10810,5714 10930,5775 11050,5566 11171,5646 11291,5485 11411,5418 11532,5361 11652,5330 11772,5220 11893,5157 12013,5064 12133,4939 12253,4933 12374,4832 12494,4771 12614,4776 12735,4700 12855,4590 12975,4591 13096,4544 13216,4607 13336,4599 13457,4573 13577,4516 13697,4535 13817,4435 13938,4391 14058,4401 14178,4445 14299,4469 14419,4363 14539,4264 14660,4309 14780,4293 14900,4325 15021,4311 15021,4634 14900,4639 14780,4621 14660,4642 14539,4584 14419,4682 14299,4808 14178,4792 14058,4756 13938,4740 13817,4806 13697,4938 13577,4940 13457,4997 13336,5029 13216,5050 13096,4974 12975,5031 12855,5047 12735,5149 12614,5216 12494,5216 12374,5274 12253,5385 12133,5481 12013,5608 11893,5665 11772,5687 11652,5786 11532,5837 11411,5905 11291,5975 11171,6145 11050,6078 10930,6298 10810,6237 10689,6160 10569,6038 10449,6033 10329,6084 10208,6096 10088,6162 9968,6232 9847,6369 9727,6462 9607,6528 9486,6443 9366,6442 9246,6509 9125,6520 9005,6540 8885,6680 8765,6611 8644,6699 8524,6747 8404,6817 8283,6805 8164,6839 8044,6860 7923,6918 7803,7029 7683,7057 7562,7091 7442,7112 7322,7288 7202,7286 7081,7271 6961,7279 6841,7342 6720,7364 6600,7347 6480,7343 6359,7341 6239,7344 6119,7382 5998,7391 5878,7348 5758,7427 5638,7456 5517,7518 5397,7581 5277,7593 5156,7625 5036,7617 4916,7585 4795,7573 4675,7614 4555,7638 4434,7649 4314,7749 4194,7782 4074,7855 3953,7899 3833,7909 3713,7957 3592,7975 3472,8029 3352,8055 3231,8067 3111,8083 2991,8086 2870,8189 2750,8195 2630,8258 2510,8312 2389,8345 2269,8394 2149,8419 2028,8471 1908,8529 1788,8507 1667,8569 1547,8601 1427,8665 1307,8715 1307,8235 Z"/>
 <path fill="rgb(255,149,14)" stroke="none" d="M 1307,6993 L 1427,6963 1547,6848 1667,6806 1788,6720 1908,6733 2028,6633 2149,6556 2269,6516 2389,6449 2510,6387 2630,6325 2750,6253 2870,6229 2991,6126 3111,6110 3231,6090 3352,6083 3472,6074 3592,6033 3713,6016 3833,6003 3953,5981 4074,5972 4194,5926 4314,5924 4434,5851 4555,5839 4675,5831 4795,5805 4916,5819 5036,5845 5156,5865 5277,5833 5397,5822 5517,5787 5638,5748 5758,5756 5878,5713 5998,5739 6119,5699 6239,5699 6359,5702 6480,5735 6600,5823 6720,5841 6841,5815 6961,5777 7081,5801 7202,5890 7322,5900 7442,5732 7562,5735 7683,5737 7803,5699 7923,5595 8044,5540 8164,5505 8283,5494 8404,5528 8524,5485 8644,5528 8765,5433 8885,5515 9005,5367 9125,5329 9246,5295 9366,5266 9486,5309 9607,5531 9727,5438 9847,5299 9968,5168 10088,5161 10208,5085 10329,5067 10449,5026 10569,5004 10689,5065 10810,5089 10930,5145 11050,4967 11171,5033 11291,4910 11411,4874 11532,4831 11652,4834 11772,4720 11893,4667 12013,4579 12133,4482 12253,4476 12374,4393 12494,4345 12614,4345 12735,4271 12855,4207 12975,4234 13096,4200 13216,4247 13336,4254 13457,4245 13577,4194 13697,4218 13817,4135 13938,4094 14058,4111 14178,4163 14299,4213 14419,4131 14539,4034 14660,4067 14780,4054 14900,4096 15021,4078 15021,4311 14900,4325 14780,4293 14660,4309 14539,4264 14419,4363 14299,4469 14178,4445 14058,4401 13938,4391 13817,4435 13697,4535 13577,4516 13457,4573 13336,4599 13216,4607 13096,4544 12975,4591 12855,4590 12735,4700 12614,4776 12494,4771 12374,4832 12253,4933 12133,4939 12013,5064 11893,5157 11772,5220 11652,5330 11532,5361 11411,5418 11291,5485 11171,5646 11050,5566 10930,5775 10810,5714 10689,5654 10569,5549 10449,5549 10329,5603 10208,5619 10088,5680 9968,5731 9847,5869 9727,5982 9607,6063 9486,5908 9366,5899 9246,5954 9125,5968 9005,5990 8885,6138 8765,6058 8644,6135 8524,6160 8404,6222 8283,6197 8164,6231 8044,6277 7923,6338 7803,6454 7683,6478 7562,6499 7442,6519 7322,6686 7202,6681 7081,6639 6961,6633 6841,6693 6720,6713 6600,6691 6480,6676 6359,6666 6239,6663 6119,6691 5998,6688 5878,6630 5758,6718 5638,6743 5517,6802 5397,6856 5277,6850 5156,6878 5036,6856 4916,6800 4795,6767 4675,6799 4555,6820 4434,6821 4314,6916 4194,6944 4074,7017 3953,7053 3833,7063 3713,7114 3592,7152 3472,7205 3352,7233 3231,7248 3111,7278 2991,7289 2870,7413 2750,7448 2630,7553 2510,7614 2389,7662 2269,7733 2149,7774 2028,7852 1908,7953 1788,7923 1667,8022 1547,8070 1427,8162 1307,8235 1307,6993 Z"/>
 <path fill="rgb(174,207,0)" stroke="none" d="M 1307,2690 L 1427,2706 1547,2707 1667,2726 1788,2688 1908,2663 2028,2718 2149,2710 2269,2711 2389,2729 2510,2734 2630,2700 2750,2743 2870,2806 2991,2805 3111,2818 3231,2862 3352,2924 3472,2950 3592,2970 3713,3019 3833,3080 3953,3122 4074,3147 4194,3194 4314,3276 4434,3332 4555,3360 4675,3428 4795,3488 4916,3516 5036,3578 5156,3658 5277,3702 5397,3726 5517,3710 5638,3653 5758,3741 5878,3787 5998,3836 6119,3810 6239,3867 6359,3902 6480,3980 6600,4136 6720,4217 6841,4226 6961,4288 7081,4272 7202,4285 7322,4346 7442,4217 7562,4262 7683,4253 7803,4307 7923,4344 8044,4362 8164,4337 8283,4304 8404,4381 8524,4367 8644,4331 8765,4365 8885,4346 9005,4260 9125,4295 9246,4307 9366,4299 9486,4361 9607,4700 9727,4621 9847,4531 9968,4412 10088,4475 10208,4432 10329,4439 10449,4431 10569,4402 10689,4381 10810,4351 10930,4213 11050,4177 11171,4306 11291,4217 11411,4218 11532,4173 11652,4075 11772,4037 11893,4110 12013,4088 12133,4029 12253,4066 12374,4012 12494,3967 12614,3991 12735,3935 12855,3913 12975,3957 13096,3942 13216,3981 13336,3986 13457,3936 13577,3927 13697,3941 13817,3878 13938,3864 14058,3883 14178,3899 14299,3997 14419,3925 14539,3852 14660,3852 14780,3842 14900,3893 15021,3882 15021,4078 14900,4096 14780,4054 14660,4067 14539,4034 14419,4131 14299,4213 14178,4163 14058,4111 13938,4094 13817,4135 13697,4218 13577,4194 13457,4245 13336,4254 13216,4247 13096,4200 12975,4234 12855,4207 12735,4271 12614,4345 12494,4345 12374,4393 12253,4476 12133,4482 12013,4579 11893,4667 11772,4720 11652,4834 11532,4831 11411,4874 11291,4910 11171,5033 11050,4967 10930,5145 10810,5089 10689,5065 10569,5004 10449,5026 10329,5067 10208,5085 10088,5161 9968,5168 9847,5299 9727,5438 9607,5531 9486,5309 9366,5266 9246,5295 9125,5329 9005,5367 8885,5515 8765,5433 8644,5528 8524,5485 8404,5528 8283,5494 8164,5505 8044,5540 7923,5595 7803,5699 7683,5737 7562,5735 7442,5732 7322,5900 7202,5890 7081,5801 6961,5777 6841,5815 6720,5841 6600,5823 6480,5735 6359,5702 6239,5699 6119,5699 5998,5739 5878,5713 5758,5756 5638,5748 5517,5787 5397,5822 5277,5833 5156,5865 5036,5845 4916,5819 4795,5805 4675,5831 4555,5839 4434,5851 4314,5924 4194,5926 4074,5972 3953,5981 3833,6003 3713,6016 3592,6033 3472,6074 3352,6083 3231,6090 3111,6110 2991,6126 2870,6229 2750,6253 2630,6325 2510,6387 2389,6449 2269,6516 2149,6556 2028,6633 1908,6733 1788,6720 1667,6806 1547,6848 1427,6963 1307,6993 1307,2690 Z"/>
 <path fill="rgb(197,0,11)" stroke="none" d="M 1307,2393 L 1427,2393 1547,2368 1667,2376 1788,2317 1908,2297 2028,2312 2149,2288 2269,2281 2389,2281 2510,2265 2630,2240 2750,2255 2870,2294 2991,2281 3111,2290 3231,2325 3352,2385 3472,2412 3592,2445 3713,2476 3833,2543 3953,2581 4074,2616 4194,2664 4314,2751 4434,2811 4555,2848 4675,2913 4795,2975 4916,3007 5036,3064 5156,3149 5277,3194 5397,3218 5517,3219 5638,3182 5758,3277 5878,3332 5998,3369 6119,3335 6239,3398 6359,3437 6480,3523 6600,3693 6720,3775 6841,3782 6961,3849 7081,3849 7202,3889 7322,3954 7442,3828 7562,3875 7683,3880 7803,3932 7923,3970 8044,3984 8164,3954 8283,3942 8404,4031 8524,4018 8644,4012 8765,4041 8885,4038 9005,3950 9125,3974 9246,3978 9366,3984 9486,4065 9607,4430 9727,4343 9847,4235 9968,4119 10088,4197 10208,4149 10329,4154 10449,4145 10569,4105 10689,4049 10810,3990 10930,3869 11050,3852 11171,3983 11291,3921 11411,3924 11532,3885 11652,3805 11772,3769 11893,3844 12013,3825 12133,3779 12253,3807 12374,3759 12494,3719 12614,3749 12735,3694 12855,3677 12975,3729 13096,3720 13216,3747 13336,3763 13457,3721 13577,3715 13697,3732 13817,3687 13938,3678 14058,3700 14178,3730 14299,3840 14419,3779 14539,3701 14660,3697 14780,3687 14900,3749 15021,3732 15021,3882 14900,3893 14780,3842 14660,3852 14539,3852 14419,3925 14299,3997 14178,3899 14058,3883 13938,3864 13817,3878 13697,3941 13577,3927 13457,3936 13336,3986 13216,3981 13096,3942 12975,3957 12855,3913 12735,3935 12614,3991 12494,3967 12374,4012 12253,4066 12133,4029 12013,4088 11893,4110 11772,4037 11652,4075 11532,4173 11411,4218 11291,4217 11171,4306 11050,4177 10930,4213 10810,4351 10689,4381 10569,4402 10449,4431 10329,4439 10208,4432 10088,4475 9968,4412 9847,4531 9727,4621 9607,4700 9486,4361 9366,4299 9246,4307 9125,4295 9005,4260 8885,4346 8765,4365 8644,4331 8524,4367 8404,4381 8283,4304 8164,4337 8044,4362 7923,4344 7803,4307 7683,4253 7562,4262 7442,4217 7322,4346 7202,4285 7081,4272 6961,4288 6841,4226 6720,4217 6600,4136 6480,3980 6359,3902 6239,3867 6119,3810 5998,3836 5878,3787 5758,3741 5638,3653 5517,3710 5397,3726 5277,3702 5156,3658 5036,3578 4916,3516 4795,3488 4675,3428 4555,3360 4434,3332 4314,3276 4194,3194 4074,3147 3953,3122 3833,3080 3713,3019 3592,2970 3472,2950 3352,2924 3231,2862 3111,2818 2991,2805 2870,2806 2750,2743 2630,2700 2510,2734 2389,2729 2269,2711 2149,2710 2028,2718 1908,2663 1788,2688 1667,2726 1547,2707 1427,2706 1307,2690 1307,2393 Z"/>
 <path fill="rgb(0,132,209)" stroke="none" d="M 1307,1681 L 1427,1692 1547,1721 1667,1755 1788,1705 1908,1699 2028,1742 2149,1744 2269,1752 2389,1783 2510,1795 2630,1778 2750,1817 2870,1874 2991,1884 3111,1897 3231,1929 3352,1994 3472,2034 3592,2084 3713,2123 3833,2184 3953,2236 4074,2282 4194,2349 4314,2444 4434,2527 4555,2577 4675,2651 4795,2711 4916,2765 5036,2836 5156,2930 5277,2992 5397,3022 5517,3039 5638,3006 5758,3101 5878,3180 5998,3207 6119,3190 6239,3261 6359,3304 6480,3394 6600,3568 6720,3663 6841,3673 6961,3756 7081,3753 7202,3787 7322,3858 7442,3683 7562,3735 7683,3738 7803,3793 7923,3832 8044,3851 8164,3828 8283,3814 8404,3898 8524,3882 8644,3875 8765,3899 8885,3893 9005,3816 9125,3854 9246,3870 9366,3868 9486,3948 9607,4310 9727,4230 9847,4130 9968,4014 10088,4101 10208,4055 10329,4069 10449,4069 10569,4030 10689,3982 10810,3922 10930,3800 11050,3779 11171,3899 11291,3844 11411,3859 11532,3826 11652,3747 11772,3713 11893,3791 12013,3771 12133,3729 12253,3757 12374,3714 12494,3670 12614,3706 12735,3649 12855,3637 12975,3689 13096,3682 13216,3713 13336,3726 13457,3687 13577,3680 13697,3699 13817,3652 13938,3647 14058,3669 14178,3699 14299,3810 14419,3752 14539,3674 14660,3668 14780,3660 14900,3715 15021,3704 15021,3732 14900,3749 14780,3687 14660,3697 14539,3701 14419,3779 14299,3840 14178,3730 14058,3700 13938,3678 13817,3687 13697,3732 13577,3715 13457,3721 13336,3763 13216,3747 13096,3720 12975,3729 12855,3677 12735,3694 12614,3749 12494,3719 12374,3759 12253,3807 12133,3779 12013,3825 11893,3844 11772,3769 11652,3805 11532,3885 11411,3924 11291,3921 11171,3983 11050,3852 10930,3869 10810,3990 10689,4049 10569,4105 10449,4145 10329,4154 10208,4149 10088,4197 9968,4119 9847,4235 9727,4343 9607,4430 9486,4065 9366,3984 9246,3978 9125,3974 9005,3950 8885,4038 8765,4041 8644,4012 8524,4018 8404,4031 8283,3942 8164,3954 8044,3984 7923,3970 7803,3932 7683,3880 7562,3875 7442,3828 7322,3954 7202,3889 7081,3849 6961,3849 6841,3782 6720,3775 6600,3693 6480,3523 6359,3437 6239,3398 6119,3335 5998,3369 5878,3332 5758,3277 5638,3182 5517,3219 5397,3218 5277,3194 5156,3149 5036,3064 4916,3007 4795,2975 4675,2913 4555,2848 4434,2811 4314,2751 4194,2664 4074,2616 3953,2581 3833,2543 3713,2476 3592,2445 3472,2412 3352,2385 3231,2325 3111,2290 2991,2281 2870,2294 2750,2255 2630,2240 2510,2265 2389,2281 2269,2281 2149,2288 2028,2312 1908,2297 1788,2317 1667,2376 1547,2368 1427,2393 1307,2393 1307,1681 Z"/>
 <text class="TextShape"><tspan class="TextParagraph" font-family="Arial, sans-serif" font-size="388px" font-weight="400"><tspan class="TextPosition" x="1123" y="10885"><tspan fill="rgb(0,0,0)" stroke="none">2008</tspan></tspan></tspan></text>
 <text class="TextShape"><tspan class="TextParagraph" font-family="Arial, sans-serif" font-size="388px" font-weight="400"><tspan class="TextPosition" x="2567" y="10885"><tspan fill="rgb(0,0,0)" stroke="none">2009</tspan></tspan></tspan></text>
 <text class="TextShape"><tspan class="TextParagraph" font-family="Arial, sans-serif" font-size="388px" font-weight="400"><tspan class="TextPosition" x="4010" y="10885"><tspan fill="rgb(0,0,0)" stroke="none">2010</tspan></tspan></tspan></text>
 <text class="TextShape"><tspan class="TextParagraph" font-family="Arial, sans-serif" font-size="388px" font-weight="400"><tspan class="TextPosition" x="5468" y="10885"><tspan fill="rgb(0,0,0)" stroke="none">2011</tspan></tspan></tspan></text>
 <text class="TextShape"><tspan class="TextParagraph" font-family="Arial, sans-serif" font-size="388px" font-weight="400"><tspan class="TextPosition" x="6898" y="10885"><tspan fill="rgb(0,0,0)" stroke="none">2012</tspan></tspan></tspan></text>
 <text class="TextShape"><tspan class="TextParagraph" font-family="Arial, sans-serif" font-size="388px" font-weight="400"><tspan class="TextPosition" x="8342" y="10885"><tspan fill="rgb(0,0,0)" stroke="none">2013</tspan></tspan></tspan></text>
 <text class="TextShape"><tspan class="TextParagraph" font-family="Arial, sans-serif" font-size="388px" font-weight="400"><tspan class="TextPosition" x="9785" y="10885"><tspan fill="rgb(0,0,0)" stroke="none">2014</tspan></tspan></tspan></text>
 <text class="TextShape"><tspan class="TextParagraph" font-family="Arial, sans-serif" font-size="388px" font-weight="400"><tspan class="TextPosition" x="11229" y="10885"><tspan fill="rgb(0,0,0)" stroke="none">2015</tspan></tspan></tspan></text>
 <text class="TextShape"><tspan class="TextParagraph" font-family="Arial, sans-serif" font-size="388px" font-weight="400"><tspan class="TextPosition" x="12673" y="10885"><tspan fill="rgb(0,0,0)" stroke="none">2016</tspan></tspan></tspan></text>
 <text class="TextShape"><tspan class="TextParagraph" font-family="Arial, sans-serif" font-size="388px" font-weight="400"><tspan class="TextPosition" x="14116" y="10885"><tspan fill="rgb(0,0,0)" stroke="none">2017</tspan></tspan></tspan></text>
 <text class="TextShape"><tspan class="TextParagraph" font-family="Arial, sans-serif" font-size="388px" font-weight="400"><tspan class="TextPosition" x="501" y="10425"><tspan fill="rgb(0,0,0)" stroke="none">0%</tspan></tspan></tspan></text>
 <text class="TextShape"><tspan class="TextParagraph" font-family="Arial, sans-serif" font-size="388px" font-weight="400"><tspan class="TextPosition" x="290" y="9490"><tspan fill="rgb(0,0,0)" stroke="none">10%</tspan></tspan></tspan></text>
 <text class="TextShape"><tspan class="TextParagraph" font-family="Arial, sans-serif" font-size="388px" font-weight="400"><tspan class="TextPosition" x="290" y="8556"><tspan fill="rgb(0,0,0)" stroke="none">20%</tspan></tspan></tspan></text>
 <text class="TextShape"><tspan class="TextParagraph" font-family="Arial, sans-serif" font-size="388px" font-weight="400"><tspan class="TextPosition" x="290" y="7622"><tspan fill="rgb(0,0,0)" stroke="none">30%</tspan></tspan></tspan></text>
 <text class="TextShape"><tspan class="TextParagraph" font-family="Arial, sans-serif" font-size="388px" font-weight="400"><tspan class="TextPosition" x="290" y="6688"><tspan fill="rgb(0,0,0)" stroke="none">40%</tspan></tspan></tspan></text>
 <text class="TextShape"><tspan class="TextParagraph" font-family="Arial, sans-serif" font-size="388px" font-weight="400"><tspan class="TextPosition" x="290" y="5754"><tspan fill="rgb(0,0,0)" stroke="none">50%</tspan></tspan></tspan></text>
 <text class="TextShape"><tspan class="TextParagraph" font-family="Arial, sans-serif" font-size="388px" font-weight="400"><tspan class="TextPosition" x="290" y="4820"><tspan fill="rgb(0,0,0)" stroke="none">60%</tspan></tspan></tspan></text>
 <text class="TextShape"><tspan class="TextParagraph" font-family="Arial, sans-serif" font-size="388px" font-weight="400"><tspan class="TextPosition" x="290" y="3886"><tspan fill="rgb(0,0,0)" stroke="none">70%</tspan></tspan></tspan></text>
 <text class="TextShape"><tspan class="TextParagraph" font-family="Arial, sans-serif" font-size="388px" font-weight="400"><tspan class="TextPosition" x="290" y="2952"><tspan fill="rgb(0,0,0)" stroke="none">80%</tspan></tspan></tspan></text>
 <text class="TextShape"><tspan class="TextParagraph" font-family="Arial, sans-serif" font-size="388px" font-weight="400"><tspan class="TextPosition" x="290" y="2018"><tspan fill="rgb(0,0,0)" stroke="none">90%</tspan></tspan></tspan></text>
 <text class="TextShape"><tspan class="TextParagraph" font-family="Arial, sans-serif" font-size="388px" font-weight="400"><tspan class="TextPosition" x="78" y="1084"><tspan fill="rgb(0,0,0)" stroke="none">100%</tspan></tspan></tspan></text>
 <text class="TextShape"><tspan class="TextParagraph" font-family="Arial, sans-serif" font-size="388px" font-weight="400"><tspan class="TextPosition" x="15271" y="10425"><tspan fill="rgb(0,0,0)" stroke="none">0%</tspan></tspan></tspan></text>
 <text class="TextShape"><tspan class="TextParagraph" font-family="Arial, sans-serif" font-size="388px" font-weight="400"><tspan class="TextPosition" x="15271" y="9490"><tspan fill="rgb(0,0,0)" stroke="none">10%</tspan></tspan></tspan></text>
 <text class="TextShape"><tspan class="TextParagraph" font-family="Arial, sans-serif" font-size="388px" font-weight="400"><tspan class="TextPosition" x="15271" y="8556"><tspan fill="rgb(0,0,0)" stroke="none">20%</tspan></tspan></tspan></text>
 <text class="TextShape"><tspan class="TextParagraph" font-family="Arial, sans-serif" font-size="388px" font-weight="400"><tspan class="TextPosition" x="15271" y="7622"><tspan fill="rgb(0,0,0)" stroke="none">30%</tspan></tspan></tspan></text>
 <text class="TextShape"><tspan class="TextParagraph" font-family="Arial, sans-serif" font-size="388px" font-weight="400"><tspan class="TextPosition" x="15271" y="6688"><tspan fill="rgb(0,0,0)" stroke="none">40%</tspan></tspan></tspan></text>
 <text class="TextShape"><tspan class="TextParagraph" font-family="Arial, sans-serif" font-size="388px" font-weight="400"><tspan class="TextPosition" x="15271" y="5754"><tspan fill="rgb(0,0,0)" stroke="none">50%</tspan></tspan></tspan></text>
 <text class="TextShape"><tspan class="TextParagraph" font-family="Arial, sans-serif" font-size="388px" font-weight="400"><tspan class="TextPosition" x="15271" y="4820"><tspan fill="rgb(0,0,0)" stroke="none">60%</tspan></tspan></tspan></text>
 <text class="TextShape"><tspan class="TextParagraph" font-family="Arial, sans-serif" font-size="388px" font-weight="400"><tspan class="TextPosition" x="15271" y="3886"><tspan fill="rgb(0,0,0)" stroke="none">70%</tspan></tspan></tspan></text>
 <text class="TextShape"><tspan class="TextParagraph" font-family="Arial, sans-serif" font-size="388px" font-weight="400"><tspan class="TextPosition" x="15271" y="2952"><tspan fill="rgb(0,0,0)" stroke="none">80%</tspan></tspan></tspan></text>
 <text class="TextShape"><tspan class="TextParagraph" font-family="Arial, sans-serif" font-size="388px" font-weight="400"><tspan class="TextPosition" x="15271" y="2018"><tspan fill="rgb(0,0,0)" stroke="none">90%</tspan></tspan></tspan></text>
 <text class="TextShape"><tspan class="TextParagraph" font-family="Arial, sans-serif" font-size="388px" font-weight="400"><tspan class="TextPosition" x="15271" y="1084"><tspan fill="rgb(0,0,0)" stroke="none">100%</tspan></tspan></tspan></text>
 <text class="TextShape"><tspan class="TextParagraph" font-family="Liberation Sans, sans-serif" font-size="635px" font-weight="400"><tspan class="TextPosition" x="4204" y="747"><tspan fill="rgb(0,0,0)" stroke="none">Resoluciones ms frecuentes</tspan></tspan></tspan></text>
 <path fill="rgb(255,66,14)" stroke="none" d="M 1764,11466 L 1669,11466 1669,11276 1859,11276 1859,11466 1764,11466 Z"/>
 <path fill="rgb(0,69,134)" stroke="none" d="M 3879,11466 L 3784,11466 3784,11276 3974,11276 3974,11466 3879,11466 Z"/>
 <path fill="rgb(255,211,32)" stroke="none" d="M 5994,11466 L 5899,11466 5899,11276 6089,11276 6089,11466 5994,11466 Z"/>
 <path fill="rgb(131,202,255)" stroke="none" d="M 8293,11466 L 8198,11466 8198,11276 8388,11276 8388,11466 8293,11466 Z"/>
 <path fill="rgb(49,64,4)" stroke="none" d="M 10593,11466 L 10498,11466 10498,11276 10688,11276 10688,11466 10593,11466 Z"/>
 <path fill="rgb(126,0,33)" stroke="none" d="M 12893,11466 L 12798,11466 12798,11276 12988,11276 12988,11466 12893,11466 Z"/>
 <path fill="rgb(87,157,28)" stroke="none" d="M 1764,11885 L 1669,11885 1669,11695 1859,11695 1859,11885 1764,11885 Z"/>
 <path fill="rgb(75,31,111)" stroke="none" d="M 3879,11885 L 3784,11885 3784,11695 3974,11695 3974,11885 3879,11885 Z"/>
 <path fill="rgb(255,149,14)" stroke="none" d="M 5994,11885 L 5899,11885 5899,11695 6089,11695 6089,11885 5994,11885 Z"/>
 <path fill="rgb(174,207,0)" stroke="none" d="M 8293,11885 L 8198,11885 8198,11695 8388,11695 8388,11885 8293,11885 Z"/>
 <path fill="rgb(197,0,11)" stroke="none" d="M 10593,11885 L 10498,11885 10498,11695 10688,11695 10688,11885 10593,11885 Z"/>
 <path fill="rgb(0,132,209)" stroke="none" d="M 12893,11885 L 12798,11885 12798,11695 12988,11695 12988,11885 12893,11885 Z"/>
 <text class="TextShape"><tspan class="TextParagraph" font-family="Arial, sans-serif" font-size="318px" font-weight="400"><tspan class="TextPosition" x="1959" y="11477"><tspan fill="rgb(0,0,0)" stroke="none">360 x 640</tspan></tspan></tspan></text>
 <text class="TextShape"><tspan class="TextParagraph" font-family="Arial, sans-serif" font-size="318px" font-weight="400"><tspan class="TextPosition" x="4074" y="11477"><tspan fill="rgb(0,0,0)" stroke="none">1366 x 768</tspan></tspan></tspan></text>
 <text class="TextShape"><tspan class="TextParagraph" font-family="Arial, sans-serif" font-size="318px" font-weight="400"><tspan class="TextPosition" x="6189" y="11477"><tspan fill="rgb(0,0,0)" stroke="none">375 x 667</tspan></tspan></tspan></text>
 <text class="TextShape"><tspan class="TextParagraph" font-family="Arial, sans-serif" font-size="318px" font-weight="400"><tspan class="TextPosition" x="8488" y="11477"><tspan fill="rgb(0,0,0)" stroke="none">1920 x 1080</tspan></tspan></tspan></text>
 <text class="TextShape"><tspan class="TextParagraph" font-family="Arial, sans-serif" font-size="318px" font-weight="400"><tspan class="TextPosition" x="10788" y="11477"><tspan fill="rgb(0,0,0)" stroke="none">768 x 1024</tspan></tspan></tspan></text>
 <text class="TextShape"><tspan class="TextParagraph" font-family="Arial, sans-serif" font-size="318px" font-weight="400"><tspan class="TextPosition" x="13088" y="11477"><tspan fill="rgb(0,0,0)" stroke="none">320 x 568</tspan></tspan></tspan></text>
 <text class="TextShape"><tspan class="TextParagraph" font-family="Arial, sans-serif" font-size="318px" font-weight="400"><tspan class="TextPosition" x="1959" y="11896"><tspan fill="rgb(0,0,0)" stroke="none">1280 x 800</tspan></tspan></tspan></text>
 <text class="TextShape"><tspan class="TextParagraph" font-family="Arial, sans-serif" font-size="318px" font-weight="400"><tspan class="TextPosition" x="4074" y="11896"><tspan fill="rgb(0,0,0)" stroke="none">1440 x 900</tspan></tspan></tspan></text>
 <text class="TextShape"><tspan class="TextParagraph" font-family="Arial, sans-serif" font-size="318px" font-weight="400"><tspan class="TextPosition" x="6189" y="11896"><tspan fill="rgb(0,0,0)" stroke="none">1280 x 1024</tspan></tspan></tspan></text>
 <text class="TextShape"><tspan class="TextParagraph" font-family="Arial, sans-serif" font-size="318px" font-weight="400"><tspan class="TextPosition" x="8488" y="11896"><tspan fill="rgb(0,0,0)" stroke="none">1024 x 768</tspan></tspan></tspan></text>
 <text class="TextShape"><tspan class="TextParagraph" font-family="Arial, sans-serif" font-size="318px" font-weight="400"><tspan class="TextPosition" x="10788" y="11896"><tspan fill="rgb(0,0,0)" stroke="none">1680 x 1050</tspan></tspan></tspan></text>
 <text class="TextShape"><tspan class="TextParagraph" font-family="Arial, sans-serif" font-size="318px" font-weight="400"><tspan class="TextPosition" x="13088" y="11896"><tspan fill="rgb(0,0,0)" stroke="none">1024 x 600</tspan></tspan></tspan></text>
</svg>
