<?xml version="1.0" encoding="UTF-8"?>
<!DOCTYPE svg PUBLIC "-//W3C//DTD SVG 1.1//EN" "http://www.w3.org/Graphics/SVG/1.1/DTD/svg11.dtd">
<svg width="159mm" height="119mm" viewBox="0 0 15900 11900" version="1.1" xmlns="http://www.w3.org/2000/svg" stroke-width="28.222" stroke-linejoin="round" xml:space="preserve">
 <path fill="rgb(255,255,255)" stroke="none" d="M 7923,11897 L 0,11897 0,0 15846,0 15846,11897 7923,11897 Z"/>
 <path fill="none" stroke="rgb(0,0,0)" stroke-linejoin="round" d="M 7951,10587 L 1072,10587 1072,1152 14831,1152 14831,10587 7951,10587 Z"/>
 <path fill="none" stroke="rgb(0,0,0)" stroke-linejoin="round" d="M 14831,10586 L 1072,10586"/>
 <path fill="none" stroke="rgb(0,0,0)" stroke-linejoin="round" d="M 14831,9406 L 1072,9406"/>
 <path fill="none" stroke="rgb(0,0,0)" stroke-linejoin="round" d="M 14831,8227 L 1072,8227"/>
 <path fill="none" stroke="rgb(0,0,0)" stroke-linejoin="round" d="M 14831,7047 L 1072,7047"/>
 <path fill="none" stroke="rgb(0,0,0)" stroke-linejoin="round" d="M 14831,5869 L 1072,5869"/>
 <path fill="none" stroke="rgb(0,0,0)" stroke-linejoin="round" d="M 14831,4689 L 1072,4689"/>
 <path fill="none" stroke="rgb(0,0,0)" stroke-linejoin="round" d="M 14831,3509 L 1072,3509"/>
 <path fill="none" stroke="rgb(0,0,0)" stroke-linejoin="round" d="M 14831,2330 L 1072,2330"/>
 <path fill="none" stroke="rgb(0,0,0)" stroke-linejoin="round" d="M 14831,1151 L 1072,1151"/>
 <path fill="none" stroke="rgb(0,0,0)" stroke-width="30" stroke-linejoin="round" d="M 1072,10736 L 1072,10586"/>
 <path fill="none" stroke="rgb(0,0,0)" stroke-width="30" stroke-linejoin="round" d="M 1072,10736 L 1072,10586"/>
 <path fill="none" stroke="rgb(0,0,0)" stroke-width="30" stroke-linejoin="round" d="M 1189,10736 L 1189,10586"/>
 <path fill="none" stroke="rgb(0,0,0)" stroke-width="30" stroke-linejoin="round" d="M 1189,10736 L 1189,10586"/>
 <path fill="none" stroke="rgb(0,0,0)" stroke-width="30" stroke-linejoin="round" d="M 1307,10736 L 1307,10586"/>
 <path fill="none" stroke="rgb(0,0,0)" stroke-width="30" stroke-linejoin="round" d="M 1307,10736 L 1307,10586"/>
 <path fill="none" stroke="rgb(0,0,0)" stroke-width="30" stroke-linejoin="round" d="M 1424,10736 L 1424,10586"/>
 <path fill="none" stroke="rgb(0,0,0)" stroke-width="30" stroke-linejoin="round" d="M 1424,10736 L 1424,10586"/>
 <path fill="none" stroke="rgb(0,0,0)" stroke-width="30" stroke-linejoin="round" d="M 1542,10736 L 1542,10586"/>
 <path fill="none" stroke="rgb(0,0,0)" stroke-width="30" stroke-linejoin="round" d="M 1542,10736 L 1542,10586"/>
 <path fill="none" stroke="rgb(0,0,0)" stroke-width="30" stroke-linejoin="round" d="M 1659,10736 L 1659,10586"/>
 <path fill="none" stroke="rgb(0,0,0)" stroke-width="30" stroke-linejoin="round" d="M 1659,10736 L 1659,10586"/>
 <path fill="none" stroke="rgb(0,0,0)" stroke-width="30" stroke-linejoin="round" d="M 1776,10736 L 1776,10586"/>
 <path fill="none" stroke="rgb(0,0,0)" stroke-width="30" stroke-linejoin="round" d="M 1776,10736 L 1776,10586"/>
 <path fill="none" stroke="rgb(0,0,0)" stroke-width="30" stroke-linejoin="round" d="M 1894,10736 L 1894,10586"/>
 <path fill="none" stroke="rgb(0,0,0)" stroke-width="30" stroke-linejoin="round" d="M 1894,10736 L 1894,10586"/>
 <path fill="none" stroke="rgb(0,0,0)" stroke-width="30" stroke-linejoin="round" d="M 2012,10736 L 2012,10586"/>
 <path fill="none" stroke="rgb(0,0,0)" stroke-width="30" stroke-linejoin="round" d="M 2012,10736 L 2012,10586"/>
 <path fill="none" stroke="rgb(0,0,0)" stroke-width="30" stroke-linejoin="round" d="M 2129,10736 L 2129,10586"/>
 <path fill="none" stroke="rgb(0,0,0)" stroke-width="30" stroke-linejoin="round" d="M 2129,10736 L 2129,10586"/>
 <path fill="none" stroke="rgb(0,0,0)" stroke-width="30" stroke-linejoin="round" d="M 2247,10736 L 2247,10586"/>
 <path fill="none" stroke="rgb(0,0,0)" stroke-width="30" stroke-linejoin="round" d="M 2247,10736 L 2247,10586"/>
 <path fill="none" stroke="rgb(0,0,0)" stroke-width="30" stroke-linejoin="round" d="M 2365,10736 L 2365,10586"/>
 <path fill="none" stroke="rgb(0,0,0)" stroke-width="30" stroke-linejoin="round" d="M 2365,10736 L 2365,10586"/>
 <path fill="none" stroke="rgb(0,0,0)" stroke-width="30" stroke-linejoin="round" d="M 2482,10736 L 2482,10586"/>
 <path fill="none" stroke="rgb(0,0,0)" stroke-width="30" stroke-linejoin="round" d="M 2482,10736 L 2482,10586"/>
 <path fill="none" stroke="rgb(0,0,0)" stroke-width="30" stroke-linejoin="round" d="M 2600,10736 L 2600,10586"/>
 <path fill="none" stroke="rgb(0,0,0)" stroke-width="30" stroke-linejoin="round" d="M 2600,10736 L 2600,10586"/>
 <path fill="none" stroke="rgb(0,0,0)" stroke-width="30" stroke-linejoin="round" d="M 2717,10736 L 2717,10586"/>
 <path fill="none" stroke="rgb(0,0,0)" stroke-width="30" stroke-linejoin="round" d="M 2717,10736 L 2717,10586"/>
 <path fill="none" stroke="rgb(0,0,0)" stroke-width="30" stroke-linejoin="round" d="M 2835,10736 L 2835,10586"/>
 <path fill="none" stroke="rgb(0,0,0)" stroke-width="30" stroke-linejoin="round" d="M 2835,10736 L 2835,10586"/>
 <path fill="none" stroke="rgb(0,0,0)" stroke-width="30" stroke-linejoin="round" d="M 2953,10736 L 2953,10586"/>
 <path fill="none" stroke="rgb(0,0,0)" stroke-width="30" stroke-linejoin="round" d="M 2953,10736 L 2953,10586"/>
 <path fill="none" stroke="rgb(0,0,0)" stroke-width="30" stroke-linejoin="round" d="M 3070,10736 L 3070,10586"/>
 <path fill="none" stroke="rgb(0,0,0)" stroke-width="30" stroke-linejoin="round" d="M 3070,10736 L 3070,10586"/>
 <path fill="none" stroke="rgb(0,0,0)" stroke-width="30" stroke-linejoin="round" d="M 3188,10736 L 3188,10586"/>
 <path fill="none" stroke="rgb(0,0,0)" stroke-width="30" stroke-linejoin="round" d="M 3188,10736 L 3188,10586"/>
 <path fill="none" stroke="rgb(0,0,0)" stroke-width="30" stroke-linejoin="round" d="M 3306,10736 L 3306,10586"/>
 <path fill="none" stroke="rgb(0,0,0)" stroke-width="30" stroke-linejoin="round" d="M 3306,10736 L 3306,10586"/>
 <path fill="none" stroke="rgb(0,0,0)" stroke-width="30" stroke-linejoin="round" d="M 3423,10736 L 3423,10586"/>
 <path fill="none" stroke="rgb(0,0,0)" stroke-width="30" stroke-linejoin="round" d="M 3423,10736 L 3423,10586"/>
 <path fill="none" stroke="rgb(0,0,0)" stroke-width="30" stroke-linejoin="round" d="M 3541,10736 L 3541,10586"/>
 <path fill="none" stroke="rgb(0,0,0)" stroke-width="30" stroke-linejoin="round" d="M 3541,10736 L 3541,10586"/>
 <path fill="none" stroke="rgb(0,0,0)" stroke-width="30" stroke-linejoin="round" d="M 3659,10736 L 3659,10586"/>
 <path fill="none" stroke="rgb(0,0,0)" stroke-width="30" stroke-linejoin="round" d="M 3659,10736 L 3659,10586"/>
 <path fill="none" stroke="rgb(0,0,0)" stroke-width="30" stroke-linejoin="round" d="M 3776,10736 L 3776,10586"/>
 <path fill="none" stroke="rgb(0,0,0)" stroke-width="30" stroke-linejoin="round" d="M 3776,10736 L 3776,10586"/>
 <path fill="none" stroke="rgb(0,0,0)" stroke-width="30" stroke-linejoin="round" d="M 3894,10736 L 3894,10586"/>
 <path fill="none" stroke="rgb(0,0,0)" stroke-width="30" stroke-linejoin="round" d="M 3894,10736 L 3894,10586"/>
 <path fill="none" stroke="rgb(0,0,0)" stroke-width="30" stroke-linejoin="round" d="M 4012,10736 L 4012,10586"/>
 <path fill="none" stroke="rgb(0,0,0)" stroke-width="30" stroke-linejoin="round" d="M 4012,10736 L 4012,10586"/>
 <path fill="none" stroke="rgb(0,0,0)" stroke-width="30" stroke-linejoin="round" d="M 4129,10736 L 4129,10586"/>
 <path fill="none" stroke="rgb(0,0,0)" stroke-width="30" stroke-linejoin="round" d="M 4129,10736 L 4129,10586"/>
 <path fill="none" stroke="rgb(0,0,0)" stroke-width="30" stroke-linejoin="round" d="M 4247,10736 L 4247,10586"/>
 <path fill="none" stroke="rgb(0,0,0)" stroke-width="30" stroke-linejoin="round" d="M 4247,10736 L 4247,10586"/>
 <path fill="none" stroke="rgb(0,0,0)" stroke-width="30" stroke-linejoin="round" d="M 4364,10736 L 4364,10586"/>
 <path fill="none" stroke="rgb(0,0,0)" stroke-width="30" stroke-linejoin="round" d="M 4364,10736 L 4364,10586"/>
 <path fill="none" stroke="rgb(0,0,0)" stroke-width="30" stroke-linejoin="round" d="M 4482,10736 L 4482,10586"/>
 <path fill="none" stroke="rgb(0,0,0)" stroke-width="30" stroke-linejoin="round" d="M 4482,10736 L 4482,10586"/>
 <path fill="none" stroke="rgb(0,0,0)" stroke-width="30" stroke-linejoin="round" d="M 4600,10736 L 4600,10586"/>
 <path fill="none" stroke="rgb(0,0,0)" stroke-width="30" stroke-linejoin="round" d="M 4600,10736 L 4600,10586"/>
 <path fill="none" stroke="rgb(0,0,0)" stroke-width="30" stroke-linejoin="round" d="M 4717,10736 L 4717,10586"/>
 <path fill="none" stroke="rgb(0,0,0)" stroke-width="30" stroke-linejoin="round" d="M 4717,10736 L 4717,10586"/>
 <path fill="none" stroke="rgb(0,0,0)" stroke-width="30" stroke-linejoin="round" d="M 4834,10736 L 4834,10586"/>
 <path fill="none" stroke="rgb(0,0,0)" stroke-width="30" stroke-linejoin="round" d="M 4834,10736 L 4834,10586"/>
 <path fill="none" stroke="rgb(0,0,0)" stroke-width="30" stroke-linejoin="round" d="M 4952,10736 L 4952,10586"/>
 <path fill="none" stroke="rgb(0,0,0)" stroke-width="30" stroke-linejoin="round" d="M 4952,10736 L 4952,10586"/>
 <path fill="none" stroke="rgb(0,0,0)" stroke-width="30" stroke-linejoin="round" d="M 5069,10736 L 5069,10586"/>
 <path fill="none" stroke="rgb(0,0,0)" stroke-width="30" stroke-linejoin="round" d="M 5069,10736 L 5069,10586"/>
 <path fill="none" stroke="rgb(0,0,0)" stroke-width="30" stroke-linejoin="round" d="M 5187,10736 L 5187,10586"/>
 <path fill="none" stroke="rgb(0,0,0)" stroke-width="30" stroke-linejoin="round" d="M 5187,10736 L 5187,10586"/>
 <path fill="none" stroke="rgb(0,0,0)" stroke-width="30" stroke-linejoin="round" d="M 5305,10736 L 5305,10586"/>
 <path fill="none" stroke="rgb(0,0,0)" stroke-width="30" stroke-linejoin="round" d="M 5305,10736 L 5305,10586"/>
 <path fill="none" stroke="rgb(0,0,0)" stroke-width="30" stroke-linejoin="round" d="M 5422,10736 L 5422,10586"/>
 <path fill="none" stroke="rgb(0,0,0)" stroke-width="30" stroke-linejoin="round" d="M 5422,10736 L 5422,10586"/>
 <path fill="none" stroke="rgb(0,0,0)" stroke-width="30" stroke-linejoin="round" d="M 5540,10736 L 5540,10586"/>
 <path fill="none" stroke="rgb(0,0,0)" stroke-width="30" stroke-linejoin="round" d="M 5540,10736 L 5540,10586"/>
 <path fill="none" stroke="rgb(0,0,0)" stroke-width="30" stroke-linejoin="round" d="M 5658,10736 L 5658,10586"/>
 <path fill="none" stroke="rgb(0,0,0)" stroke-width="30" stroke-linejoin="round" d="M 5658,10736 L 5658,10586"/>
 <path fill="none" stroke="rgb(0,0,0)" stroke-width="30" stroke-linejoin="round" d="M 5775,10736 L 5775,10586"/>
 <path fill="none" stroke="rgb(0,0,0)" stroke-width="30" stroke-linejoin="round" d="M 5775,10736 L 5775,10586"/>
 <path fill="none" stroke="rgb(0,0,0)" stroke-width="30" stroke-linejoin="round" d="M 5893,10736 L 5893,10586"/>
 <path fill="none" stroke="rgb(0,0,0)" stroke-width="30" stroke-linejoin="round" d="M 5893,10736 L 5893,10586"/>
 <path fill="none" stroke="rgb(0,0,0)" stroke-width="30" stroke-linejoin="round" d="M 6010,10736 L 6010,10586"/>
 <path fill="none" stroke="rgb(0,0,0)" stroke-width="30" stroke-linejoin="round" d="M 6010,10736 L 6010,10586"/>
 <path fill="none" stroke="rgb(0,0,0)" stroke-width="30" stroke-linejoin="round" d="M 6128,10736 L 6128,10586"/>
 <path fill="none" stroke="rgb(0,0,0)" stroke-width="30" stroke-linejoin="round" d="M 6128,10736 L 6128,10586"/>
 <path fill="none" stroke="rgb(0,0,0)" stroke-width="30" stroke-linejoin="round" d="M 6246,10736 L 6246,10586"/>
 <path fill="none" stroke="rgb(0,0,0)" stroke-width="30" stroke-linejoin="round" d="M 6246,10736 L 6246,10586"/>
 <path fill="none" stroke="rgb(0,0,0)" stroke-width="30" stroke-linejoin="round" d="M 6363,10736 L 6363,10586"/>
 <path fill="none" stroke="rgb(0,0,0)" stroke-width="30" stroke-linejoin="round" d="M 6363,10736 L 6363,10586"/>
 <path fill="none" stroke="rgb(0,0,0)" stroke-width="30" stroke-linejoin="round" d="M 6481,10736 L 6481,10586"/>
 <path fill="none" stroke="rgb(0,0,0)" stroke-width="30" stroke-linejoin="round" d="M 6481,10736 L 6481,10586"/>
 <path fill="none" stroke="rgb(0,0,0)" stroke-width="30" stroke-linejoin="round" d="M 6599,10736 L 6599,10586"/>
 <path fill="none" stroke="rgb(0,0,0)" stroke-width="30" stroke-linejoin="round" d="M 6599,10736 L 6599,10586"/>
 <path fill="none" stroke="rgb(0,0,0)" stroke-width="30" stroke-linejoin="round" d="M 6716,10736 L 6716,10586"/>
 <path fill="none" stroke="rgb(0,0,0)" stroke-width="30" stroke-linejoin="round" d="M 6716,10736 L 6716,10586"/>
 <path fill="none" stroke="rgb(0,0,0)" stroke-width="30" stroke-linejoin="round" d="M 6834,10736 L 6834,10586"/>
 <path fill="none" stroke="rgb(0,0,0)" stroke-width="30" stroke-linejoin="round" d="M 6834,10736 L 6834,10586"/>
 <path fill="none" stroke="rgb(0,0,0)" stroke-width="30" stroke-linejoin="round" d="M 6952,10736 L 6952,10586"/>
 <path fill="none" stroke="rgb(0,0,0)" stroke-width="30" stroke-linejoin="round" d="M 6952,10736 L 6952,10586"/>
 <path fill="none" stroke="rgb(0,0,0)" stroke-width="30" stroke-linejoin="round" d="M 7069,10736 L 7069,10586"/>
 <path fill="none" stroke="rgb(0,0,0)" stroke-width="30" stroke-linejoin="round" d="M 7069,10736 L 7069,10586"/>
 <path fill="none" stroke="rgb(0,0,0)" stroke-width="30" stroke-linejoin="round" d="M 7187,10736 L 7187,10586"/>
 <path fill="none" stroke="rgb(0,0,0)" stroke-width="30" stroke-linejoin="round" d="M 7187,10736 L 7187,10586"/>
 <path fill="none" stroke="rgb(0,0,0)" stroke-width="30" stroke-linejoin="round" d="M 7304,10736 L 7304,10586"/>
 <path fill="none" stroke="rgb(0,0,0)" stroke-width="30" stroke-linejoin="round" d="M 7304,10736 L 7304,10586"/>
 <path fill="none" stroke="rgb(0,0,0)" stroke-width="30" stroke-linejoin="round" d="M 7422,10736 L 7422,10586"/>
 <path fill="none" stroke="rgb(0,0,0)" stroke-width="30" stroke-linejoin="round" d="M 7422,10736 L 7422,10586"/>
 <path fill="none" stroke="rgb(0,0,0)" stroke-width="30" stroke-linejoin="round" d="M 7540,10736 L 7540,10586"/>
 <path fill="none" stroke="rgb(0,0,0)" stroke-width="30" stroke-linejoin="round" d="M 7540,10736 L 7540,10586"/>
 <path fill="none" stroke="rgb(0,0,0)" stroke-width="30" stroke-linejoin="round" d="M 7657,10736 L 7657,10586"/>
 <path fill="none" stroke="rgb(0,0,0)" stroke-width="30" stroke-linejoin="round" d="M 7657,10736 L 7657,10586"/>
 <path fill="none" stroke="rgb(0,0,0)" stroke-width="30" stroke-linejoin="round" d="M 7775,10736 L 7775,10586"/>
 <path fill="none" stroke="rgb(0,0,0)" stroke-width="30" stroke-linejoin="round" d="M 7775,10736 L 7775,10586"/>
 <path fill="none" stroke="rgb(0,0,0)" stroke-width="30" stroke-linejoin="round" d="M 7893,10736 L 7893,10586"/>
 <path fill="none" stroke="rgb(0,0,0)" stroke-width="30" stroke-linejoin="round" d="M 7893,10736 L 7893,10586"/>
 <path fill="none" stroke="rgb(0,0,0)" stroke-width="30" stroke-linejoin="round" d="M 8009,10736 L 8009,10586"/>
 <path fill="none" stroke="rgb(0,0,0)" stroke-width="30" stroke-linejoin="round" d="M 8009,10736 L 8009,10586"/>
 <path fill="none" stroke="rgb(0,0,0)" stroke-width="30" stroke-linejoin="round" d="M 8127,10736 L 8127,10586"/>
 <path fill="none" stroke="rgb(0,0,0)" stroke-width="30" stroke-linejoin="round" d="M 8127,10736 L 8127,10586"/>
 <path fill="none" stroke="rgb(0,0,0)" stroke-width="30" stroke-linejoin="round" d="M 8245,10736 L 8245,10586"/>
 <path fill="none" stroke="rgb(0,0,0)" stroke-width="30" stroke-linejoin="round" d="M 8245,10736 L 8245,10586"/>
 <path fill="none" stroke="rgb(0,0,0)" stroke-width="30" stroke-linejoin="round" d="M 8362,10736 L 8362,10586"/>
 <path fill="none" stroke="rgb(0,0,0)" stroke-width="30" stroke-linejoin="round" d="M 8362,10736 L 8362,10586"/>
 <path fill="none" stroke="rgb(0,0,0)" stroke-width="30" stroke-linejoin="round" d="M 8480,10736 L 8480,10586"/>
 <path fill="none" stroke="rgb(0,0,0)" stroke-width="30" stroke-linejoin="round" d="M 8480,10736 L 8480,10586"/>
 <path fill="none" stroke="rgb(0,0,0)" stroke-width="30" stroke-linejoin="round" d="M 8598,10736 L 8598,10586"/>
 <path fill="none" stroke="rgb(0,0,0)" stroke-width="30" stroke-linejoin="round" d="M 8598,10736 L 8598,10586"/>
 <path fill="none" stroke="rgb(0,0,0)" stroke-width="30" stroke-linejoin="round" d="M 8715,10736 L 8715,10586"/>
 <path fill="none" stroke="rgb(0,0,0)" stroke-width="30" stroke-linejoin="round" d="M 8715,10736 L 8715,10586"/>
 <path fill="none" stroke="rgb(0,0,0)" stroke-width="30" stroke-linejoin="round" d="M 8833,10736 L 8833,10586"/>
 <path fill="none" stroke="rgb(0,0,0)" stroke-width="30" stroke-linejoin="round" d="M 8833,10736 L 8833,10586"/>
 <path fill="none" stroke="rgb(0,0,0)" stroke-width="30" stroke-linejoin="round" d="M 8950,10736 L 8950,10586"/>
 <path fill="none" stroke="rgb(0,0,0)" stroke-width="30" stroke-linejoin="round" d="M 8950,10736 L 8950,10586"/>
 <path fill="none" stroke="rgb(0,0,0)" stroke-width="30" stroke-linejoin="round" d="M 9068,10736 L 9068,10586"/>
 <path fill="none" stroke="rgb(0,0,0)" stroke-width="30" stroke-linejoin="round" d="M 9068,10736 L 9068,10586"/>
 <path fill="none" stroke="rgb(0,0,0)" stroke-width="30" stroke-linejoin="round" d="M 9186,10736 L 9186,10586"/>
 <path fill="none" stroke="rgb(0,0,0)" stroke-width="30" stroke-linejoin="round" d="M 9186,10736 L 9186,10586"/>
 <path fill="none" stroke="rgb(0,0,0)" stroke-width="30" stroke-linejoin="round" d="M 9303,10736 L 9303,10586"/>
 <path fill="none" stroke="rgb(0,0,0)" stroke-width="30" stroke-linejoin="round" d="M 9303,10736 L 9303,10586"/>
 <path fill="none" stroke="rgb(0,0,0)" stroke-width="30" stroke-linejoin="round" d="M 9421,10736 L 9421,10586"/>
 <path fill="none" stroke="rgb(0,0,0)" stroke-width="30" stroke-linejoin="round" d="M 9421,10736 L 9421,10586"/>
 <path fill="none" stroke="rgb(0,0,0)" stroke-width="30" stroke-linejoin="round" d="M 9539,10736 L 9539,10586"/>
 <path fill="none" stroke="rgb(0,0,0)" stroke-width="30" stroke-linejoin="round" d="M 9539,10736 L 9539,10586"/>
 <path fill="none" stroke="rgb(0,0,0)" stroke-width="30" stroke-linejoin="round" d="M 9656,10736 L 9656,10586"/>
 <path fill="none" stroke="rgb(0,0,0)" stroke-width="30" stroke-linejoin="round" d="M 9656,10736 L 9656,10586"/>
 <path fill="none" stroke="rgb(0,0,0)" stroke-width="30" stroke-linejoin="round" d="M 9774,10736 L 9774,10586"/>
 <path fill="none" stroke="rgb(0,0,0)" stroke-width="30" stroke-linejoin="round" d="M 9774,10736 L 9774,10586"/>
 <path fill="none" stroke="rgb(0,0,0)" stroke-width="30" stroke-linejoin="round" d="M 9892,10736 L 9892,10586"/>
 <path fill="none" stroke="rgb(0,0,0)" stroke-width="30" stroke-linejoin="round" d="M 9892,10736 L 9892,10586"/>
 <path fill="none" stroke="rgb(0,0,0)" stroke-width="30" stroke-linejoin="round" d="M 10009,10736 L 10009,10586"/>
 <path fill="none" stroke="rgb(0,0,0)" stroke-width="30" stroke-linejoin="round" d="M 10009,10736 L 10009,10586"/>
 <path fill="none" stroke="rgb(0,0,0)" stroke-width="30" stroke-linejoin="round" d="M 10127,10736 L 10127,10586"/>
 <path fill="none" stroke="rgb(0,0,0)" stroke-width="30" stroke-linejoin="round" d="M 10127,10736 L 10127,10586"/>
 <path fill="none" stroke="rgb(0,0,0)" stroke-width="30" stroke-linejoin="round" d="M 10245,10736 L 10245,10586"/>
 <path fill="none" stroke="rgb(0,0,0)" stroke-width="30" stroke-linejoin="round" d="M 10245,10736 L 10245,10586"/>
 <path fill="none" stroke="rgb(0,0,0)" stroke-width="30" stroke-linejoin="round" d="M 10362,10736 L 10362,10586"/>
 <path fill="none" stroke="rgb(0,0,0)" stroke-width="30" stroke-linejoin="round" d="M 10362,10736 L 10362,10586"/>
 <path fill="none" stroke="rgb(0,0,0)" stroke-width="30" stroke-linejoin="round" d="M 10480,10736 L 10480,10586"/>
 <path fill="none" stroke="rgb(0,0,0)" stroke-width="30" stroke-linejoin="round" d="M 10480,10736 L 10480,10586"/>
 <path fill="none" stroke="rgb(0,0,0)" stroke-width="30" stroke-linejoin="round" d="M 10597,10736 L 10597,10586"/>
 <path fill="none" stroke="rgb(0,0,0)" stroke-width="30" stroke-linejoin="round" d="M 10597,10736 L 10597,10586"/>
 <path fill="none" stroke="rgb(0,0,0)" stroke-width="30" stroke-linejoin="round" d="M 10715,10736 L 10715,10586"/>
 <path fill="none" stroke="rgb(0,0,0)" stroke-width="30" stroke-linejoin="round" d="M 10715,10736 L 10715,10586"/>
 <path fill="none" stroke="rgb(0,0,0)" stroke-width="30" stroke-linejoin="round" d="M 10833,10736 L 10833,10586"/>
 <path fill="none" stroke="rgb(0,0,0)" stroke-width="30" stroke-linejoin="round" d="M 10833,10736 L 10833,10586"/>
 <path fill="none" stroke="rgb(0,0,0)" stroke-width="30" stroke-linejoin="round" d="M 10950,10736 L 10950,10586"/>
 <path fill="none" stroke="rgb(0,0,0)" stroke-width="30" stroke-linejoin="round" d="M 10950,10736 L 10950,10586"/>
 <path fill="none" stroke="rgb(0,0,0)" stroke-width="30" stroke-linejoin="round" d="M 11068,10736 L 11068,10586"/>
 <path fill="none" stroke="rgb(0,0,0)" stroke-width="30" stroke-linejoin="round" d="M 11068,10736 L 11068,10586"/>
 <path fill="none" stroke="rgb(0,0,0)" stroke-width="30" stroke-linejoin="round" d="M 11185,10736 L 11185,10586"/>
 <path fill="none" stroke="rgb(0,0,0)" stroke-width="30" stroke-linejoin="round" d="M 11185,10736 L 11185,10586"/>
 <path fill="none" stroke="rgb(0,0,0)" stroke-width="30" stroke-linejoin="round" d="M 11302,10736 L 11302,10586"/>
 <path fill="none" stroke="rgb(0,0,0)" stroke-width="30" stroke-linejoin="round" d="M 11302,10736 L 11302,10586"/>
 <path fill="none" stroke="rgb(0,0,0)" stroke-width="30" stroke-linejoin="round" d="M 11420,10736 L 11420,10586"/>
 <path fill="none" stroke="rgb(0,0,0)" stroke-width="30" stroke-linejoin="round" d="M 11420,10736 L 11420,10586"/>
 <path fill="none" stroke="rgb(0,0,0)" stroke-width="30" stroke-linejoin="round" d="M 11538,10736 L 11538,10586"/>
 <path fill="none" stroke="rgb(0,0,0)" stroke-width="30" stroke-linejoin="round" d="M 11538,10736 L 11538,10586"/>
 <path fill="none" stroke="rgb(0,0,0)" stroke-width="30" stroke-linejoin="round" d="M 11655,10736 L 11655,10586"/>
 <path fill="none" stroke="rgb(0,0,0)" stroke-width="30" stroke-linejoin="round" d="M 11655,10736 L 11655,10586"/>
 <path fill="none" stroke="rgb(0,0,0)" stroke-width="30" stroke-linejoin="round" d="M 11773,10736 L 11773,10586"/>
 <path fill="none" stroke="rgb(0,0,0)" stroke-width="30" stroke-linejoin="round" d="M 11773,10736 L 11773,10586"/>
 <path fill="none" stroke="rgb(0,0,0)" stroke-width="30" stroke-linejoin="round" d="M 11890,10736 L 11890,10586"/>
 <path fill="none" stroke="rgb(0,0,0)" stroke-width="30" stroke-linejoin="round" d="M 11890,10736 L 11890,10586"/>
 <path fill="none" stroke="rgb(0,0,0)" stroke-width="30" stroke-linejoin="round" d="M 12008,10736 L 12008,10586"/>
 <path fill="none" stroke="rgb(0,0,0)" stroke-width="30" stroke-linejoin="round" d="M 12008,10736 L 12008,10586"/>
 <path fill="none" stroke="rgb(0,0,0)" stroke-width="30" stroke-linejoin="round" d="M 12126,10736 L 12126,10586"/>
 <path fill="none" stroke="rgb(0,0,0)" stroke-width="30" stroke-linejoin="round" d="M 12126,10736 L 12126,10586"/>
 <path fill="none" stroke="rgb(0,0,0)" stroke-width="30" stroke-linejoin="round" d="M 12243,10736 L 12243,10586"/>
 <path fill="none" stroke="rgb(0,0,0)" stroke-width="30" stroke-linejoin="round" d="M 12243,10736 L 12243,10586"/>
 <path fill="none" stroke="rgb(0,0,0)" stroke-width="30" stroke-linejoin="round" d="M 12361,10736 L 12361,10586"/>
 <path fill="none" stroke="rgb(0,0,0)" stroke-width="30" stroke-linejoin="round" d="M 12361,10736 L 12361,10586"/>
 <path fill="none" stroke="rgb(0,0,0)" stroke-width="30" stroke-linejoin="round" d="M 12479,10736 L 12479,10586"/>
 <path fill="none" stroke="rgb(0,0,0)" stroke-width="30" stroke-linejoin="round" d="M 12479,10736 L 12479,10586"/>
 <path fill="none" stroke="rgb(0,0,0)" stroke-width="30" stroke-linejoin="round" d="M 12596,10736 L 12596,10586"/>
 <path fill="none" stroke="rgb(0,0,0)" stroke-width="30" stroke-linejoin="round" d="M 12596,10736 L 12596,10586"/>
 <path fill="none" stroke="rgb(0,0,0)" stroke-width="30" stroke-linejoin="round" d="M 12714,10736 L 12714,10586"/>
 <path fill="none" stroke="rgb(0,0,0)" stroke-width="30" stroke-linejoin="round" d="M 12714,10736 L 12714,10586"/>
 <path fill="none" stroke="rgb(0,0,0)" stroke-width="30" stroke-linejoin="round" d="M 12832,10736 L 12832,10586"/>
 <path fill="none" stroke="rgb(0,0,0)" stroke-width="30" stroke-linejoin="round" d="M 12832,10736 L 12832,10586"/>
 <path fill="none" stroke="rgb(0,0,0)" stroke-width="30" stroke-linejoin="round" d="M 12949,10736 L 12949,10586"/>
 <path fill="none" stroke="rgb(0,0,0)" stroke-width="30" stroke-linejoin="round" d="M 12949,10736 L 12949,10586"/>
 <path fill="none" stroke="rgb(0,0,0)" stroke-width="30" stroke-linejoin="round" d="M 13067,10736 L 13067,10586"/>
 <path fill="none" stroke="rgb(0,0,0)" stroke-width="30" stroke-linejoin="round" d="M 13067,10736 L 13067,10586"/>
 <path fill="none" stroke="rgb(0,0,0)" stroke-width="30" stroke-linejoin="round" d="M 13185,10736 L 13185,10586"/>
 <path fill="none" stroke="rgb(0,0,0)" stroke-width="30" stroke-linejoin="round" d="M 13185,10736 L 13185,10586"/>
 <path fill="none" stroke="rgb(0,0,0)" stroke-width="30" stroke-linejoin="round" d="M 13302,10736 L 13302,10586"/>
 <path fill="none" stroke="rgb(0,0,0)" stroke-width="30" stroke-linejoin="round" d="M 13302,10736 L 13302,10586"/>
 <path fill="none" stroke="rgb(0,0,0)" stroke-width="30" stroke-linejoin="round" d="M 13420,10736 L 13420,10586"/>
 <path fill="none" stroke="rgb(0,0,0)" stroke-width="30" stroke-linejoin="round" d="M 13420,10736 L 13420,10586"/>
 <path fill="none" stroke="rgb(0,0,0)" stroke-width="30" stroke-linejoin="round" d="M 13537,10736 L 13537,10586"/>
 <path fill="none" stroke="rgb(0,0,0)" stroke-width="30" stroke-linejoin="round" d="M 13537,10736 L 13537,10586"/>
 <path fill="none" stroke="rgb(0,0,0)" stroke-width="30" stroke-linejoin="round" d="M 13655,10736 L 13655,10586"/>
 <path fill="none" stroke="rgb(0,0,0)" stroke-width="30" stroke-linejoin="round" d="M 13655,10736 L 13655,10586"/>
 <path fill="none" stroke="rgb(0,0,0)" stroke-width="30" stroke-linejoin="round" d="M 13773,10736 L 13773,10586"/>
 <path fill="none" stroke="rgb(0,0,0)" stroke-width="30" stroke-linejoin="round" d="M 13773,10736 L 13773,10586"/>
 <path fill="none" stroke="rgb(0,0,0)" stroke-width="30" stroke-linejoin="round" d="M 13890,10736 L 13890,10586"/>
 <path fill="none" stroke="rgb(0,0,0)" stroke-width="30" stroke-linejoin="round" d="M 13890,10736 L 13890,10586"/>
 <path fill="none" stroke="rgb(0,0,0)" stroke-width="30" stroke-linejoin="round" d="M 14008,10736 L 14008,10586"/>
 <path fill="none" stroke="rgb(0,0,0)" stroke-width="30" stroke-linejoin="round" d="M 14008,10736 L 14008,10586"/>
 <path fill="none" stroke="rgb(0,0,0)" stroke-width="30" stroke-linejoin="round" d="M 14126,10736 L 14126,10586"/>
 <path fill="none" stroke="rgb(0,0,0)" stroke-width="30" stroke-linejoin="round" d="M 14126,10736 L 14126,10586"/>
 <path fill="none" stroke="rgb(0,0,0)" stroke-width="30" stroke-linejoin="round" d="M 14243,10736 L 14243,10586"/>
 <path fill="none" stroke="rgb(0,0,0)" stroke-width="30" stroke-linejoin="round" d="M 14243,10736 L 14243,10586"/>
 <path fill="none" stroke="rgb(0,0,0)" stroke-width="30" stroke-linejoin="round" d="M 14360,10736 L 14360,10586"/>
 <path fill="none" stroke="rgb(0,0,0)" stroke-width="30" stroke-linejoin="round" d="M 14360,10736 L 14360,10586"/>
 <path fill="none" stroke="rgb(0,0,0)" stroke-width="30" stroke-linejoin="round" d="M 14478,10736 L 14478,10586"/>
 <path fill="none" stroke="rgb(0,0,0)" stroke-width="30" stroke-linejoin="round" d="M 14478,10736 L 14478,10586"/>
 <path fill="none" stroke="rgb(0,0,0)" stroke-width="30" stroke-linejoin="round" d="M 14595,10736 L 14595,10586"/>
 <path fill="none" stroke="rgb(0,0,0)" stroke-width="30" stroke-linejoin="round" d="M 14595,10736 L 14595,10586"/>
 <path fill="none" stroke="rgb(0,0,0)" stroke-width="30" stroke-linejoin="round" d="M 14713,10736 L 14713,10586"/>
 <path fill="none" stroke="rgb(0,0,0)" stroke-width="30" stroke-linejoin="round" d="M 14713,10736 L 14713,10586"/>
 <path fill="none" stroke="rgb(0,0,0)" stroke-width="30" stroke-linejoin="round" d="M 14831,10736 L 14831,10586"/>
 <path fill="none" stroke="rgb(0,0,0)" stroke-width="30" stroke-linejoin="round" d="M 14831,10736 L 14831,10586"/>
 <path fill="none" stroke="rgb(0,0,0)" stroke-width="30" stroke-linejoin="round" d="M 1072,10586 L 14831,10586"/>
 <path fill="none" stroke="rgb(0,0,0)" stroke-linejoin="round" d="M 922,10586 L 1222,10586"/>
 <path fill="none" stroke="rgb(0,0,0)" stroke-linejoin="round" d="M 922,10586 L 1222,10586"/>
 <path fill="none" stroke="rgb(0,0,0)" stroke-linejoin="round" d="M 922,9406 L 1222,9406"/>
 <path fill="none" stroke="rgb(0,0,0)" stroke-linejoin="round" d="M 922,9406 L 1222,9406"/>
 <path fill="none" stroke="rgb(0,0,0)" stroke-linejoin="round" d="M 922,8227 L 1222,8227"/>
 <path fill="none" stroke="rgb(0,0,0)" stroke-linejoin="round" d="M 922,8227 L 1222,8227"/>
 <path fill="none" stroke="rgb(0,0,0)" stroke-linejoin="round" d="M 922,7047 L 1222,7047"/>
 <path fill="none" stroke="rgb(0,0,0)" stroke-linejoin="round" d="M 922,7047 L 1222,7047"/>
 <path fill="none" stroke="rgb(0,0,0)" stroke-linejoin="round" d="M 922,5869 L 1222,5869"/>
 <path fill="none" stroke="rgb(0,0,0)" stroke-linejoin="round" d="M 922,5869 L 1222,5869"/>
 <path fill="none" stroke="rgb(0,0,0)" stroke-linejoin="round" d="M 922,4689 L 1222,4689"/>
 <path fill="none" stroke="rgb(0,0,0)" stroke-linejoin="round" d="M 922,4689 L 1222,4689"/>
 <path fill="none" stroke="rgb(0,0,0)" stroke-linejoin="round" d="M 922,3509 L 1222,3509"/>
 <path fill="none" stroke="rgb(0,0,0)" stroke-linejoin="round" d="M 922,3509 L 1222,3509"/>
 <path fill="none" stroke="rgb(0,0,0)" stroke-linejoin="round" d="M 922,2330 L 1222,2330"/>
 <path fill="none" stroke="rgb(0,0,0)" stroke-linejoin="round" d="M 922,2330 L 1222,2330"/>
 <path fill="none" stroke="rgb(0,0,0)" stroke-linejoin="round" d="M 922,1151 L 1222,1151"/>
 <path fill="none" stroke="rgb(0,0,0)" stroke-linejoin="round" d="M 922,1151 L 1222,1151"/>
 <path fill="none" stroke="rgb(0,0,0)" stroke-linejoin="round" d="M 1072,10586 L 1072,1151"/>
 <path fill="none" stroke="rgb(0,0,0)" stroke-linejoin="round" d="M 14981,10586 L 14831,10586"/>
 <path fill="none" stroke="rgb(0,0,0)" stroke-linejoin="round" d="M 14981,10586 L 14831,10586"/>
 <path fill="none" stroke="rgb(0,0,0)" stroke-linejoin="round" d="M 14981,9406 L 14831,9406"/>
 <path fill="none" stroke="rgb(0,0,0)" stroke-linejoin="round" d="M 14981,9406 L 14831,9406"/>
 <path fill="none" stroke="rgb(0,0,0)" stroke-linejoin="round" d="M 14981,8227 L 14831,8227"/>
 <path fill="none" stroke="rgb(0,0,0)" stroke-linejoin="round" d="M 14981,8227 L 14831,8227"/>
 <path fill="none" stroke="rgb(0,0,0)" stroke-linejoin="round" d="M 14981,7047 L 14831,7047"/>
 <path fill="none" stroke="rgb(0,0,0)" stroke-linejoin="round" d="M 14981,7047 L 14831,7047"/>
 <path fill="none" stroke="rgb(0,0,0)" stroke-linejoin="round" d="M 14981,5869 L 14831,5869"/>
 <path fill="none" stroke="rgb(0,0,0)" stroke-linejoin="round" d="M 14981,5869 L 14831,5869"/>
 <path fill="none" stroke="rgb(0,0,0)" stroke-linejoin="round" d="M 14981,4689 L 14831,4689"/>
 <path fill="none" stroke="rgb(0,0,0)" stroke-linejoin="round" d="M 14981,4689 L 14831,4689"/>
 <path fill="none" stroke="rgb(0,0,0)" stroke-linejoin="round" d="M 14981,3509 L 14831,3509"/>
 <path fill="none" stroke="rgb(0,0,0)" stroke-linejoin="round" d="M 14981,3509 L 14831,3509"/>
 <path fill="none" stroke="rgb(0,0,0)" stroke-linejoin="round" d="M 14981,2330 L 14831,2330"/>
 <path fill="none" stroke="rgb(0,0,0)" stroke-linejoin="round" d="M 14981,2330 L 14831,2330"/>
 <path fill="none" stroke="rgb(0,0,0)" stroke-linejoin="round" d="M 14981,1151 L 14831,1151"/>
 <path fill="none" stroke="rgb(0,0,0)" stroke-linejoin="round" d="M 14981,1151 L 14831,1151"/>
 <path fill="none" stroke="rgb(0,0,0)" stroke-linejoin="round" d="M 14831,10586 L 14831,1151"/>
 <path fill="none" stroke="rgb(255,211,32)" stroke-width="80" stroke-linejoin="round" d="M 2129,10586 L 2247,10456 2365,10468 2482,10453 2600,10422 2717,10405 2835,10404 2953,10397 3070,10374 3188,10331 3306,10305 3423,10284 3541,10253 3659,10214 3776,10166 3894,10124 4012,10045 4129,9978 4247,9926 4364,9866 4482,9795 4600,9766 4717,9740 4834,9748 4952,9710 5069,9650 5187,9602 5305,9505 5422,9419 5540,9336 5658,9306 5775,9234 5893,9201 6010,9130 6128,9066 6246,9045 6363,8780 6481,8703 6599,8524 6716,8495 6834,8398 6952,8423 7069,8434 7187,8479 7304,8433 7422,8328 7540,8376 7657,8434 7775,8364 7893,8406 8009,8375 8127,8522 8245,8502 8362,8565 8480,8645 8598,8666 8715,8652 8833,8720 8950,8568 9068,8495 9186,8620 9303,8627 9421,8657 9539,8592 9656,8479 9774,8439 9892,8340 10009,8274 10127,8369 10245,8176 10362,7998 10480,7895 10597,8005 10715,7955 10833,7864 10950,7837 11068,7701 11185,7477 11302,7420 11420,7381 11538,7080 11655,7150 11773,7046 11890,6967 12008,6796 12126,6663 12243,6550 12361,6456 12479,6361 12596,6096 12714,5959 12832,5607 12949,5357 13067,4639 13185,4713 13302,4516 13420,4214 13537,4095 13655,4132 13773,4043 13890,4064 14008,3976 14126,3822 14243,3951 14360,3877 14478,3743 14595,3742 14713,3716 14831,3727"/>
 <path fill="none" stroke="rgb(0,69,134)" stroke-width="80" stroke-linejoin="round" d="M 1072,1208 L 1189,1287 1307,1356 1424,1408 1542,1455 1659,1429 1776,1628 1894,1695 2012,1679 2129,1723 2247,1836 2365,1899 2482,2140 2600,2271 2717,2365 2835,2422 2953,2512 3070,2593 3188,2555 3306,2533 3423,2613 3541,2699 3659,2847 3776,2970 3894,3092 4012,3203 4129,3264 4247,3340 4364,3448 4482,3530 4600,3561 4717,3486 4834,3438 4952,3485 5069,3574 5187,3623 5305,3711 5422,3870 5540,3998 5658,3906 5775,4008 5893,4104 6010,4202 6128,4270 6246,4385 6363,4519 6481,4587 6599,4760 6716,4834 6834,4976 6952,4927 7069,4853 7187,4748 7304,4717 7422,4756 7540,4790 7657,4857 7775,4888 7893,4875 8009,4893 8127,4830 8245,4856 8362,4884 8480,4908 8598,4906 8715,4757 8833,4762 8950,4753 9068,4771 9186,4748 9303,4577 9421,4607 9539,4652 9656,4715 9774,4805 9892,4899 10009,4827 10127,4901 10245,4962 10362,4900 10480,4984 10597,4877 10715,4808 10833,4856 10950,4867 11068,4799 11185,5136 11302,5078 11420,5166 11538,5479 11655,5320 11773,5480 11890,5585 12008,5626 12126,5882 12243,5991 12361,5949 12479,6183 12596,6455 12714,6643 12832,6916 12949,7149 13067,7411 13185,7389 13302,7572 13420,7805 13537,8108 13655,8195 13773,8342 13890,8462 14008,8545 14126,8622 14243,8755 14360,8749 14478,8623 14595,8800 14713,8747 14831,8878"/>
 <path fill="none" stroke="rgb(87,157,28)" stroke-width="80" stroke-linejoin="round" d="M 1072,10313 L 1189,10295 1307,10276 1424,10275 1542,10268 1659,10284 1776,10248 1894,10261 2012,10275 2129,10268 2247,10255 2365,10249 2482,10225 2600,10187 2717,10161 2835,10182 2953,10159 3070,10174 3188,10154 3306,10142 3423,10114 3541,10113 3659,10091 3776,10076 3894,10082 4012,10071 4129,10065 4247,10069 4364,10045 4482,10037 4600,10038 4717,10023 4834,10003 4952,9991 5069,9986 5187,9978 5305,9951 5422,9913 5540,9864 5658,9859 5775,9829 5893,9767 6010,9753 6128,9737 6246,9669 6363,9694 6481,9646 6599,9585 6716,9610 6834,9570 6952,9498 7069,9497 7187,9537 7304,9519 7422,9514 7540,9449 7657,9441 7775,9326 7893,9353 8009,9332 8127,9292 8245,9276 8362,9198 8480,9197 8598,9194 8715,9277 8833,9248 8950,9252 9068,9190 9186,9164 9303,9288 9421,9196 9539,9139 9656,9148 9774,9046 9892,9018 10009,9069 10127,9009 10245,9026 10362,9166 10480,9176 10597,9151 10715,9287 10833,9226 10950,9097 11068,9274 11185,9124 11302,9222 11420,9213 11538,9125 11655,9272 11773,9172 11890,9102 12008,9180 12126,9093 12243,9009 12361,9309 12479,9211 12596,9209 12714,9210 12832,9144 12949,9236 13067,9432 13185,9373 13302,9355 13420,9378 13537,9370 13655,9458 13773,9451 13890,9290 14008,9205 14126,9259 14243,8960 14360,9062 14478,9375 14595,9021 14713,9113 14831,8980"/>
 <path fill="none" stroke="rgb(255,66,14)" stroke-width="80" stroke-linejoin="round" d="M 1072,8754 L 1189,8661 1307,8625 1424,8580 1542,8545 1659,8559 1776,8421 1894,8348 2012,8347 2129,8314 2247,8330 2365,8270 2482,8078 2600,8024 2717,7975 2835,7919 2953,7834 3070,7771 3188,7899 3306,7942 3423,7932 3541,7868 3659,7777 3776,7739 3894,7665 4012,7674 4129,7696 4247,7722 4364,7684 4482,7677 4600,7711 4717,7785 4834,7892 4952,7888 5069,7889 5187,7908 5305,7907 5422,7903 5540,7910 5658,8028 5775,8022 5893,8042 6010,8041 6128,8035 6246,8060 6363,8110 6481,8111 6599,8094 6716,8165 6834,8229 6952,8355 7069,8313 7187,8349 7304,8395 7422,8446 7540,8426 7657,8454 7775,8458 7893,8449 8009,8490 8127,8449 8245,8522 8362,8531 8480,8548 8598,8542 8715,8482 8833,8468 8950,8649 9068,8745 9186,8731 9303,8727 9421,8740 9539,8783 9656,8800 9774,8882 9892,8949 10009,8976 10127,9014 10245,9066 10362,9206 10480,9261 10597,9228 10715,9342 10833,9405 10950,9412 11068,9547 11185,9567 11302,9577 11420,9565 11538,9629 11655,9580 11773,9557 11890,9600 12008,9609 12126,9685 12243,9703 12361,9629 12479,9662 12596,9755 12714,9733 12832,9867 12949,9968 13067,10027 13185,10056 13302,10043 13420,10056 13537,9978 13655,9782 13773,9748 13890,9726 14008,9739 14126,9777 14243,9835 14360,9811 14478,9766 14595,9767 14713,9692 14831,9756"/>
 <path fill="none" stroke="rgb(126,0,33)" stroke-width="80" stroke-linejoin="round" d="M 1072,10345 L 1189,10380 1307,10354 1424,10346 1542,10346 1659,10348 1776,10331 1894,10315 2012,10317 2129,10312 2247,10325 2365,10312 2482,10304 2600,10301 2717,10297 2835,10302 2953,10311 3070,10317 3188,10315 3306,10327 3423,10328 3541,10320 3659,10302 3776,10299 3894,10267 4012,10246 4129,10243 4247,10240 4364,10221 4482,10228 4600,10221 4717,10247 4834,10215 4952,10210 5069,10196 5187,10217 5305,10223 5422,10213 5540,10222 5658,10214 5775,10221 5893,10217 6010,10228 6128,10253 6246,10272 6363,10252 6481,10266 6599,10326 6716,10263 6834,10215 6952,10209 7069,10274 7187,10300 7304,10311 7422,10306 7540,10313 7657,10335 7775,10331 7893,10318 8009,10319 8127,10327 8245,10272 8362,10269 8480,10204 8598,10293 8715,10284 8833,10270 8950,10285 9068,10307 9186,10303 9303,10342 9421,10365 9539,10389 9656,10404 9774,10397 9892,10399 10009,10426 10127,10340 10245,10355 10362,10357 10480,10335 10597,10343 10715,10389 10833,10378 10950,10363 11068,10346 11185,10352 11302,10344 11420,10337 11538,10355 11655,10315 11773,10331 11890,10358 12008,10379 12126,10365 12243,10369 12361,10367 12479,10328 12596,10275 12714,10260 12832,10293 12949,10286 13067,10355 13185,10318 13302,10359 13420,10352 13537,10340 13655,10374 13773,10375 13890,10365 14008,10408 14126,10406 14243,10393 14360,10418 14478,10373 14595,10453 14713,10464 14831,10467"/>
 <path fill="none" stroke="rgb(131,202,255)" stroke-width="80" stroke-linejoin="round" d="M 1072,10514 L 1189,10510 1307,10522 1424,10524 1542,10519 1659,10514 1776,10505 1894,10514 2012,10516 2129,10517 2247,10517 2365,10521 2482,10519 2600,10515 2717,10516 2835,10490 2953,10508 3070,10490 3188,10465 3306,10470 3423,10449 3541,10466 3659,10488 3776,10469 3894,10489 4012,10479 4129,10472 4247,10423 4364,10455 4482,10452 4600,10422 4717,10438 4834,10424 4952,10435 5069,10423 5187,10391 5305,10422 5422,10400 5540,10389 5658,10406 5775,10404 5893,10387 6010,10365 6128,10357 6246,10288 6363,10365 6481,10406 6599,10430 6716,10353 6834,10332 6952,10308 7069,10348 7187,10305 7304,10344 7422,10369 7540,10366 7657,10197 7775,10353 7893,10319 8009,10311 8127,10298 8245,10291 8362,10272 8480,10217 8598,10118 8715,10267 8833,10251 8950,10213 9068,10210 9186,10152 9303,10158 9421,10155 9539,10165 9656,10173 9774,10151 9892,10114 10009,10147 10127,10086 10245,10135 10362,10092 10480,10069 10597,10115 10715,9936 10833,9989 10950,10144 11068,10053 11185,10063 11302,10079 11420,10057 11538,10051 11655,10083 11773,10133 11890,10107 12008,10129 12126,10031 12243,10095 12361,10010 12479,9974 12596,9929 12714,9914 12832,9892 12949,9723 13067,9856 13185,9869 13302,9876 13420,9913 13537,9827 13655,9778 13773,9760 13890,9811 14008,9846 14126,9832 14243,9824 14360,9802 14478,9838 14595,9936 14713,9987 14831,9912"/>
 <text class="TextShape"><tspan class="TextParagraph" font-family="Liberation Sans, sans-serif" font-size="388px" font-weight="700"><tspan class="TextPosition" x="883" y="11180"><tspan fill="rgb(0,0,0)" stroke="none">2008</tspan></tspan></tspan></text>
 <text class="TextShape"><tspan class="TextParagraph" font-family="Liberation Sans, sans-serif" font-size="388px" font-weight="700"><tspan class="TextPosition" x="2294" y="11180"><tspan fill="rgb(0,0,0)" stroke="none">2009</tspan></tspan></tspan></text>
 <text class="TextShape"><tspan class="TextParagraph" font-family="Liberation Sans, sans-serif" font-size="388px" font-weight="700"><tspan class="TextPosition" x="3705" y="11180"><tspan fill="rgb(0,0,0)" stroke="none">2010</tspan></tspan></tspan></text>
 <text class="TextShape"><tspan class="TextParagraph" font-family="Liberation Sans, sans-serif" font-size="388px" font-weight="700"><tspan class="TextPosition" x="5117" y="11180"><tspan fill="rgb(0,0,0)" stroke="none">2011</tspan></tspan></tspan></text>
 <text class="TextShape"><tspan class="TextParagraph" font-family="Liberation Sans, sans-serif" font-size="388px" font-weight="700"><tspan class="TextPosition" x="6528" y="11180"><tspan fill="rgb(0,0,0)" stroke="none">2012</tspan></tspan></tspan></text>
 <text class="TextShape"><tspan class="TextParagraph" font-family="Liberation Sans, sans-serif" font-size="388px" font-weight="700"><tspan class="TextPosition" x="7939" y="11180"><tspan fill="rgb(0,0,0)" stroke="none">2013</tspan></tspan></tspan></text>
 <text class="TextShape"><tspan class="TextParagraph" font-family="Liberation Sans, sans-serif" font-size="388px" font-weight="700"><tspan class="TextPosition" x="9351" y="11180"><tspan fill="rgb(0,0,0)" stroke="none">2014</tspan></tspan></tspan></text>
 <text class="TextShape"><tspan class="TextParagraph" font-family="Liberation Sans, sans-serif" font-size="388px" font-weight="700"><tspan class="TextPosition" x="10762" y="11180"><tspan fill="rgb(0,0,0)" stroke="none">2015</tspan></tspan></tspan></text>
 <text class="TextShape"><tspan class="TextParagraph" font-family="Liberation Sans, sans-serif" font-size="388px" font-weight="700"><tspan class="TextPosition" x="12173" y="11180"><tspan fill="rgb(0,0,0)" stroke="none">2016</tspan></tspan></tspan></text>
 <text class="TextShape"><tspan class="TextParagraph" font-family="Liberation Sans, sans-serif" font-size="388px" font-weight="700"><tspan class="TextPosition" x="13584" y="11180"><tspan fill="rgb(0,0,0)" stroke="none">2017</tspan></tspan></tspan></text>
 <text class="TextShape"><tspan class="TextParagraph" font-family="Liberation Sans, sans-serif" font-size="388px" font-weight="700"><tspan class="TextPosition" x="266" y="10720"><tspan fill="rgb(0,0,0)" stroke="none">0%</tspan></tspan></tspan></text>
 <text class="TextShape"><tspan class="TextParagraph" font-family="Liberation Sans, sans-serif" font-size="388px" font-weight="700"><tspan class="TextPosition" x="55" y="9540"><tspan fill="rgb(0,0,0)" stroke="none">10%</tspan></tspan></tspan></text>
 <text class="TextShape"><tspan class="TextParagraph" font-family="Liberation Sans, sans-serif" font-size="388px" font-weight="700"><tspan class="TextPosition" x="55" y="8361"><tspan fill="rgb(0,0,0)" stroke="none">20%</tspan></tspan></tspan></text>
 <text class="TextShape"><tspan class="TextParagraph" font-family="Liberation Sans, sans-serif" font-size="388px" font-weight="700"><tspan class="TextPosition" x="55" y="7181"><tspan fill="rgb(0,0,0)" stroke="none">30%</tspan></tspan></tspan></text>
 <text class="TextShape"><tspan class="TextParagraph" font-family="Liberation Sans, sans-serif" font-size="388px" font-weight="700"><tspan class="TextPosition" x="55" y="6002"><tspan fill="rgb(0,0,0)" stroke="none">40%</tspan></tspan></tspan></text>
 <text class="TextShape"><tspan class="TextParagraph" font-family="Liberation Sans, sans-serif" font-size="388px" font-weight="700"><tspan class="TextPosition" x="55" y="4822"><tspan fill="rgb(0,0,0)" stroke="none">50%</tspan></tspan></tspan></text>
 <text class="TextShape"><tspan class="TextParagraph" font-family="Liberation Sans, sans-serif" font-size="388px" font-weight="700"><tspan class="TextPosition" x="55" y="3642"><tspan fill="rgb(0,0,0)" stroke="none">60%</tspan></tspan></tspan></text>
 <text class="TextShape"><tspan class="TextParagraph" font-family="Liberation Sans, sans-serif" font-size="388px" font-weight="700"><tspan class="TextPosition" x="55" y="2463"><tspan fill="rgb(0,0,0)" stroke="none">70%</tspan></tspan></tspan></text>
 <text class="TextShape"><tspan class="TextParagraph" font-family="Liberation Sans, sans-serif" font-size="388px" font-weight="700"><tspan class="TextPosition" x="55" y="1284"><tspan fill="rgb(0,0,0)" stroke="none">80%</tspan></tspan></tspan></text>
 <text class="TextShape"><tspan class="TextParagraph" font-family="Liberation Sans, sans-serif" font-size="388px" font-weight="700"><tspan class="TextPosition" x="15081" y="10720"><tspan fill="rgb(0,0,0)" stroke="none">0%</tspan></tspan></tspan></text>
 <text class="TextShape"><tspan class="TextParagraph" font-family="Liberation Sans, sans-serif" font-size="388px" font-weight="700"><tspan class="TextPosition" x="15081" y="9540"><tspan fill="rgb(0,0,0)" stroke="none">10%</tspan></tspan></tspan></text>
 <text class="TextShape"><tspan class="TextParagraph" font-family="Liberation Sans, sans-serif" font-size="388px" font-weight="700"><tspan class="TextPosition" x="15081" y="8361"><tspan fill="rgb(0,0,0)" stroke="none">20%</tspan></tspan></tspan></text>
 <text class="TextShape"><tspan class="TextParagraph" font-family="Liberation Sans, sans-serif" font-size="388px" font-weight="700"><tspan class="TextPosition" x="15081" y="7181"><tspan fill="rgb(0,0,0)" stroke="none">30%</tspan></tspan></tspan></text>
 <text class="TextShape"><tspan class="TextParagraph" font-family="Liberation Sans, sans-serif" font-size="388px" font-weight="700"><tspan class="TextPosition" x="15081" y="6002"><tspan fill="rgb(0,0,0)" stroke="none">40%</tspan></tspan></tspan></text>
 <text class="TextShape"><tspan class="TextParagraph" font-family="Liberation Sans, sans-serif" font-size="388px" font-weight="700"><tspan class="TextPosition" x="15081" y="4822"><tspan fill="rgb(0,0,0)" stroke="none">50%</tspan></tspan></tspan></text>
 <text class="TextShape"><tspan class="TextParagraph" font-family="Liberation Sans, sans-serif" font-size="388px" font-weight="700"><tspan class="TextPosition" x="15081" y="3642"><tspan fill="rgb(0,0,0)" stroke="none">60%</tspan></tspan></tspan></text>
 <text class="TextShape"><tspan class="TextParagraph" font-family="Liberation Sans, sans-serif" font-size="388px" font-weight="700"><tspan class="TextPosition" x="15081" y="2463"><tspan fill="rgb(0,0,0)" stroke="none">70%</tspan></tspan></tspan></text>
 <text class="TextShape"><tspan class="TextParagraph" font-family="Liberation Sans, sans-serif" font-size="388px" font-weight="700"><tspan class="TextPosition" x="15081" y="1284"><tspan fill="rgb(0,0,0)" stroke="none">80%</tspan></tspan></tspan></text>
 <text class="TextShape"><tspan class="TextParagraph" font-family="Arial, sans-serif" font-size="635px" font-weight="400"><tspan class="TextPosition" x="3961" y="775"><tspan fill="rgb(0,0,0)" stroke="none">Utilización de navegadores</tspan></tspan></tspan></text>
 <path fill="none" stroke="rgb(255,211,32)" stroke-width="80" stroke-linejoin="round" d="M 1783,11583 L 2583,11583"/>
 <path fill="none" stroke="rgb(0,69,134)" stroke-width="80" stroke-linejoin="round" d="M 4233,11583 L 5032,11583"/>
 <path fill="none" stroke="rgb(87,157,28)" stroke-width="80" stroke-linejoin="round" d="M 5730,11583 L 6530,11583"/>
 <path fill="none" stroke="rgb(255,66,14)" stroke-width="80" stroke-linejoin="round" d="M 7837,11583 L 8636,11583"/>
 <path fill="none" stroke="rgb(126,0,33)" stroke-width="80" stroke-linejoin="round" d="M 10128,11583 L 10928,11583"/>
 <path fill="none" stroke="rgb(131,202,255)" stroke-width="80" stroke-linejoin="round" d="M 12260,11583 L 13060,11583"/>
 <text class="TextShape"><tspan class="TextParagraph" font-family="Arial, sans-serif" font-size="353px" font-weight="700"><tspan class="TextPosition" x="2683" y="11702"><tspan fill="rgb(0,0,0)" stroke="none">Chrome</tspan></tspan></tspan></text>
 <text class="TextShape"><tspan class="TextParagraph" font-family="Arial, sans-serif" font-size="353px" font-weight="700"><tspan class="TextPosition" x="5132" y="11702"><tspan fill="rgb(0,0,0)" stroke="none">IE</tspan></tspan></tspan></text>
 <text class="TextShape"><tspan class="TextParagraph" font-family="Arial, sans-serif" font-size="353px" font-weight="700"><tspan class="TextPosition" x="6630" y="11702"><tspan fill="rgb(0,0,0)" stroke="none">Safari</tspan></tspan></tspan></text>
 <text class="TextShape"><tspan class="TextParagraph" font-family="Arial, sans-serif" font-size="353px" font-weight="700"><tspan class="TextPosition" x="8736" y="11702"><tspan fill="rgb(0,0,0)" stroke="none">Firefox</tspan></tspan></tspan></text>
 <text class="TextShape"><tspan class="TextParagraph" font-family="Arial, sans-serif" font-size="353px" font-weight="700"><tspan class="TextPosition" x="11028" y="11702"><tspan fill="rgb(0,0,0)" stroke="none">Opera</tspan></tspan></tspan></text>
 <text class="TextShape"><tspan class="TextParagraph" font-family="Arial, sans-serif" font-size="353px" font-weight="700"><tspan class="TextPosition" x="13160" y="11702"><tspan fill="rgb(0,0,0)" stroke="none">Otros</tspan></tspan></tspan></text>
</svg>
