<?xml version="1.0" encoding="UTF-8"?>
<!DOCTYPE svg PUBLIC "-//W3C//DTD SVG 1.1//EN" "http://www.w3.org/Graphics/SVG/1.1/DTD/svg11.dtd">
<svg width="159mm" height="119mm" viewBox="0 0 15900 11900" version="1.1" xmlns="http://www.w3.org/2000/svg" stroke-width="28.222" stroke-linejoin="round" xml:space="preserve">
 <path fill="rgb(255,255,255)" stroke="none" d="M 7923,11897 L 0,11897 0,0 15846,0 15846,11897 7923,11897 Z"/>
 <path fill="none" stroke="rgb(0,0,0)" stroke-linejoin="round" d="M 7951,10587 L 1072,10587 1072,1152 14831,1152 14831,10587 7951,10587 Z"/>
 <path fill="none" stroke="rgb(0,0,0)" stroke-linejoin="round" d="M 14831,10586 L 1072,10586"/>
 <path fill="none" stroke="rgb(0,0,0)" stroke-linejoin="round" d="M 14831,9406 L 1072,9406"/>
 <path fill="none" stroke="rgb(0,0,0)" stroke-linejoin="round" d="M 14831,8227 L 1072,8227"/>
 <path fill="none" stroke="rgb(0,0,0)" stroke-linejoin="round" d="M 14831,7047 L 1072,7047"/>
 <path fill="none" stroke="rgb(0,0,0)" stroke-linejoin="round" d="M 14831,5869 L 1072,5869"/>
 <path fill="none" stroke="rgb(0,0,0)" stroke-linejoin="round" d="M 14831,4689 L 1072,4689"/>
 <path fill="none" stroke="rgb(0,0,0)" stroke-linejoin="round" d="M 14831,3509 L 1072,3509"/>
 <path fill="none" stroke="rgb(0,0,0)" stroke-linejoin="round" d="M 14831,2330 L 1072,2330"/>
 <path fill="none" stroke="rgb(0,0,0)" stroke-linejoin="round" d="M 14831,1151 L 1072,1151"/>
 <path fill="none" stroke="rgb(0,0,0)" stroke-width="30" stroke-linejoin="round" d="M 1072,10736 L 1072,10586"/>
 <path fill="none" stroke="rgb(0,0,0)" stroke-width="30" stroke-linejoin="round" d="M 1072,10736 L 1072,10586"/>
 <path fill="none" stroke="rgb(0,0,0)" stroke-width="30" stroke-linejoin="round" d="M 1190,10736 L 1190,10586"/>
 <path fill="none" stroke="rgb(0,0,0)" stroke-width="30" stroke-linejoin="round" d="M 1190,10736 L 1190,10586"/>
 <path fill="none" stroke="rgb(0,0,0)" stroke-width="30" stroke-linejoin="round" d="M 1309,10736 L 1309,10586"/>
 <path fill="none" stroke="rgb(0,0,0)" stroke-width="30" stroke-linejoin="round" d="M 1309,10736 L 1309,10586"/>
 <path fill="none" stroke="rgb(0,0,0)" stroke-width="30" stroke-linejoin="round" d="M 1427,10736 L 1427,10586"/>
 <path fill="none" stroke="rgb(0,0,0)" stroke-width="30" stroke-linejoin="round" d="M 1427,10736 L 1427,10586"/>
 <path fill="none" stroke="rgb(0,0,0)" stroke-width="30" stroke-linejoin="round" d="M 1546,10736 L 1546,10586"/>
 <path fill="none" stroke="rgb(0,0,0)" stroke-width="30" stroke-linejoin="round" d="M 1546,10736 L 1546,10586"/>
 <path fill="none" stroke="rgb(0,0,0)" stroke-width="30" stroke-linejoin="round" d="M 1664,10736 L 1664,10586"/>
 <path fill="none" stroke="rgb(0,0,0)" stroke-width="30" stroke-linejoin="round" d="M 1664,10736 L 1664,10586"/>
 <path fill="none" stroke="rgb(0,0,0)" stroke-width="30" stroke-linejoin="round" d="M 1782,10736 L 1782,10586"/>
 <path fill="none" stroke="rgb(0,0,0)" stroke-width="30" stroke-linejoin="round" d="M 1782,10736 L 1782,10586"/>
 <path fill="none" stroke="rgb(0,0,0)" stroke-width="30" stroke-linejoin="round" d="M 1901,10736 L 1901,10586"/>
 <path fill="none" stroke="rgb(0,0,0)" stroke-width="30" stroke-linejoin="round" d="M 1901,10736 L 1901,10586"/>
 <path fill="none" stroke="rgb(0,0,0)" stroke-width="30" stroke-linejoin="round" d="M 2020,10736 L 2020,10586"/>
 <path fill="none" stroke="rgb(0,0,0)" stroke-width="30" stroke-linejoin="round" d="M 2020,10736 L 2020,10586"/>
 <path fill="none" stroke="rgb(0,0,0)" stroke-width="30" stroke-linejoin="round" d="M 2138,10736 L 2138,10586"/>
 <path fill="none" stroke="rgb(0,0,0)" stroke-width="30" stroke-linejoin="round" d="M 2138,10736 L 2138,10586"/>
 <path fill="none" stroke="rgb(0,0,0)" stroke-width="30" stroke-linejoin="round" d="M 2257,10736 L 2257,10586"/>
 <path fill="none" stroke="rgb(0,0,0)" stroke-width="30" stroke-linejoin="round" d="M 2257,10736 L 2257,10586"/>
 <path fill="none" stroke="rgb(0,0,0)" stroke-width="30" stroke-linejoin="round" d="M 2376,10736 L 2376,10586"/>
 <path fill="none" stroke="rgb(0,0,0)" stroke-width="30" stroke-linejoin="round" d="M 2376,10736 L 2376,10586"/>
 <path fill="none" stroke="rgb(0,0,0)" stroke-width="30" stroke-linejoin="round" d="M 2494,10736 L 2494,10586"/>
 <path fill="none" stroke="rgb(0,0,0)" stroke-width="30" stroke-linejoin="round" d="M 2494,10736 L 2494,10586"/>
 <path fill="none" stroke="rgb(0,0,0)" stroke-width="30" stroke-linejoin="round" d="M 2613,10736 L 2613,10586"/>
 <path fill="none" stroke="rgb(0,0,0)" stroke-width="30" stroke-linejoin="round" d="M 2613,10736 L 2613,10586"/>
 <path fill="none" stroke="rgb(0,0,0)" stroke-width="30" stroke-linejoin="round" d="M 2732,10736 L 2732,10586"/>
 <path fill="none" stroke="rgb(0,0,0)" stroke-width="30" stroke-linejoin="round" d="M 2732,10736 L 2732,10586"/>
 <path fill="none" stroke="rgb(0,0,0)" stroke-width="30" stroke-linejoin="round" d="M 2850,10736 L 2850,10586"/>
 <path fill="none" stroke="rgb(0,0,0)" stroke-width="30" stroke-linejoin="round" d="M 2850,10736 L 2850,10586"/>
 <path fill="none" stroke="rgb(0,0,0)" stroke-width="30" stroke-linejoin="round" d="M 2969,10736 L 2969,10586"/>
 <path fill="none" stroke="rgb(0,0,0)" stroke-width="30" stroke-linejoin="round" d="M 2969,10736 L 2969,10586"/>
 <path fill="none" stroke="rgb(0,0,0)" stroke-width="30" stroke-linejoin="round" d="M 3088,10736 L 3088,10586"/>
 <path fill="none" stroke="rgb(0,0,0)" stroke-width="30" stroke-linejoin="round" d="M 3088,10736 L 3088,10586"/>
 <path fill="none" stroke="rgb(0,0,0)" stroke-width="30" stroke-linejoin="round" d="M 3206,10736 L 3206,10586"/>
 <path fill="none" stroke="rgb(0,0,0)" stroke-width="30" stroke-linejoin="round" d="M 3206,10736 L 3206,10586"/>
 <path fill="none" stroke="rgb(0,0,0)" stroke-width="30" stroke-linejoin="round" d="M 3325,10736 L 3325,10586"/>
 <path fill="none" stroke="rgb(0,0,0)" stroke-width="30" stroke-linejoin="round" d="M 3325,10736 L 3325,10586"/>
 <path fill="none" stroke="rgb(0,0,0)" stroke-width="30" stroke-linejoin="round" d="M 3444,10736 L 3444,10586"/>
 <path fill="none" stroke="rgb(0,0,0)" stroke-width="30" stroke-linejoin="round" d="M 3444,10736 L 3444,10586"/>
 <path fill="none" stroke="rgb(0,0,0)" stroke-width="30" stroke-linejoin="round" d="M 3562,10736 L 3562,10586"/>
 <path fill="none" stroke="rgb(0,0,0)" stroke-width="30" stroke-linejoin="round" d="M 3562,10736 L 3562,10586"/>
 <path fill="none" stroke="rgb(0,0,0)" stroke-width="30" stroke-linejoin="round" d="M 3681,10736 L 3681,10586"/>
 <path fill="none" stroke="rgb(0,0,0)" stroke-width="30" stroke-linejoin="round" d="M 3681,10736 L 3681,10586"/>
 <path fill="none" stroke="rgb(0,0,0)" stroke-width="30" stroke-linejoin="round" d="M 3800,10736 L 3800,10586"/>
 <path fill="none" stroke="rgb(0,0,0)" stroke-width="30" stroke-linejoin="round" d="M 3800,10736 L 3800,10586"/>
 <path fill="none" stroke="rgb(0,0,0)" stroke-width="30" stroke-linejoin="round" d="M 3918,10736 L 3918,10586"/>
 <path fill="none" stroke="rgb(0,0,0)" stroke-width="30" stroke-linejoin="round" d="M 3918,10736 L 3918,10586"/>
 <path fill="none" stroke="rgb(0,0,0)" stroke-width="30" stroke-linejoin="round" d="M 4037,10736 L 4037,10586"/>
 <path fill="none" stroke="rgb(0,0,0)" stroke-width="30" stroke-linejoin="round" d="M 4037,10736 L 4037,10586"/>
 <path fill="none" stroke="rgb(0,0,0)" stroke-width="30" stroke-linejoin="round" d="M 4156,10736 L 4156,10586"/>
 <path fill="none" stroke="rgb(0,0,0)" stroke-width="30" stroke-linejoin="round" d="M 4156,10736 L 4156,10586"/>
 <path fill="none" stroke="rgb(0,0,0)" stroke-width="30" stroke-linejoin="round" d="M 4274,10736 L 4274,10586"/>
 <path fill="none" stroke="rgb(0,0,0)" stroke-width="30" stroke-linejoin="round" d="M 4274,10736 L 4274,10586"/>
 <path fill="none" stroke="rgb(0,0,0)" stroke-width="30" stroke-linejoin="round" d="M 4393,10736 L 4393,10586"/>
 <path fill="none" stroke="rgb(0,0,0)" stroke-width="30" stroke-linejoin="round" d="M 4393,10736 L 4393,10586"/>
 <path fill="none" stroke="rgb(0,0,0)" stroke-width="30" stroke-linejoin="round" d="M 4512,10736 L 4512,10586"/>
 <path fill="none" stroke="rgb(0,0,0)" stroke-width="30" stroke-linejoin="round" d="M 4512,10736 L 4512,10586"/>
 <path fill="none" stroke="rgb(0,0,0)" stroke-width="30" stroke-linejoin="round" d="M 4630,10736 L 4630,10586"/>
 <path fill="none" stroke="rgb(0,0,0)" stroke-width="30" stroke-linejoin="round" d="M 4630,10736 L 4630,10586"/>
 <path fill="none" stroke="rgb(0,0,0)" stroke-width="30" stroke-linejoin="round" d="M 4749,10736 L 4749,10586"/>
 <path fill="none" stroke="rgb(0,0,0)" stroke-width="30" stroke-linejoin="round" d="M 4749,10736 L 4749,10586"/>
 <path fill="none" stroke="rgb(0,0,0)" stroke-width="30" stroke-linejoin="round" d="M 4866,10736 L 4866,10586"/>
 <path fill="none" stroke="rgb(0,0,0)" stroke-width="30" stroke-linejoin="round" d="M 4866,10736 L 4866,10586"/>
 <path fill="none" stroke="rgb(0,0,0)" stroke-width="30" stroke-linejoin="round" d="M 4985,10736 L 4985,10586"/>
 <path fill="none" stroke="rgb(0,0,0)" stroke-width="30" stroke-linejoin="round" d="M 4985,10736 L 4985,10586"/>
 <path fill="none" stroke="rgb(0,0,0)" stroke-width="30" stroke-linejoin="round" d="M 5104,10736 L 5104,10586"/>
 <path fill="none" stroke="rgb(0,0,0)" stroke-width="30" stroke-linejoin="round" d="M 5104,10736 L 5104,10586"/>
 <path fill="none" stroke="rgb(0,0,0)" stroke-width="30" stroke-linejoin="round" d="M 5222,10736 L 5222,10586"/>
 <path fill="none" stroke="rgb(0,0,0)" stroke-width="30" stroke-linejoin="round" d="M 5222,10736 L 5222,10586"/>
 <path fill="none" stroke="rgb(0,0,0)" stroke-width="30" stroke-linejoin="round" d="M 5341,10736 L 5341,10586"/>
 <path fill="none" stroke="rgb(0,0,0)" stroke-width="30" stroke-linejoin="round" d="M 5341,10736 L 5341,10586"/>
 <path fill="none" stroke="rgb(0,0,0)" stroke-width="30" stroke-linejoin="round" d="M 5460,10736 L 5460,10586"/>
 <path fill="none" stroke="rgb(0,0,0)" stroke-width="30" stroke-linejoin="round" d="M 5460,10736 L 5460,10586"/>
 <path fill="none" stroke="rgb(0,0,0)" stroke-width="30" stroke-linejoin="round" d="M 5578,10736 L 5578,10586"/>
 <path fill="none" stroke="rgb(0,0,0)" stroke-width="30" stroke-linejoin="round" d="M 5578,10736 L 5578,10586"/>
 <path fill="none" stroke="rgb(0,0,0)" stroke-width="30" stroke-linejoin="round" d="M 5697,10736 L 5697,10586"/>
 <path fill="none" stroke="rgb(0,0,0)" stroke-width="30" stroke-linejoin="round" d="M 5697,10736 L 5697,10586"/>
 <path fill="none" stroke="rgb(0,0,0)" stroke-width="30" stroke-linejoin="round" d="M 5816,10736 L 5816,10586"/>
 <path fill="none" stroke="rgb(0,0,0)" stroke-width="30" stroke-linejoin="round" d="M 5816,10736 L 5816,10586"/>
 <path fill="none" stroke="rgb(0,0,0)" stroke-width="30" stroke-linejoin="round" d="M 5934,10736 L 5934,10586"/>
 <path fill="none" stroke="rgb(0,0,0)" stroke-width="30" stroke-linejoin="round" d="M 5934,10736 L 5934,10586"/>
 <path fill="none" stroke="rgb(0,0,0)" stroke-width="30" stroke-linejoin="round" d="M 6053,10736 L 6053,10586"/>
 <path fill="none" stroke="rgb(0,0,0)" stroke-width="30" stroke-linejoin="round" d="M 6053,10736 L 6053,10586"/>
 <path fill="none" stroke="rgb(0,0,0)" stroke-width="30" stroke-linejoin="round" d="M 6172,10736 L 6172,10586"/>
 <path fill="none" stroke="rgb(0,0,0)" stroke-width="30" stroke-linejoin="round" d="M 6172,10736 L 6172,10586"/>
 <path fill="none" stroke="rgb(0,0,0)" stroke-width="30" stroke-linejoin="round" d="M 6290,10736 L 6290,10586"/>
 <path fill="none" stroke="rgb(0,0,0)" stroke-width="30" stroke-linejoin="round" d="M 6290,10736 L 6290,10586"/>
 <path fill="none" stroke="rgb(0,0,0)" stroke-width="30" stroke-linejoin="round" d="M 6409,10736 L 6409,10586"/>
 <path fill="none" stroke="rgb(0,0,0)" stroke-width="30" stroke-linejoin="round" d="M 6409,10736 L 6409,10586"/>
 <path fill="none" stroke="rgb(0,0,0)" stroke-width="30" stroke-linejoin="round" d="M 6528,10736 L 6528,10586"/>
 <path fill="none" stroke="rgb(0,0,0)" stroke-width="30" stroke-linejoin="round" d="M 6528,10736 L 6528,10586"/>
 <path fill="none" stroke="rgb(0,0,0)" stroke-width="30" stroke-linejoin="round" d="M 6646,10736 L 6646,10586"/>
 <path fill="none" stroke="rgb(0,0,0)" stroke-width="30" stroke-linejoin="round" d="M 6646,10736 L 6646,10586"/>
 <path fill="none" stroke="rgb(0,0,0)" stroke-width="30" stroke-linejoin="round" d="M 6765,10736 L 6765,10586"/>
 <path fill="none" stroke="rgb(0,0,0)" stroke-width="30" stroke-linejoin="round" d="M 6765,10736 L 6765,10586"/>
 <path fill="none" stroke="rgb(0,0,0)" stroke-width="30" stroke-linejoin="round" d="M 6884,10736 L 6884,10586"/>
 <path fill="none" stroke="rgb(0,0,0)" stroke-width="30" stroke-linejoin="round" d="M 6884,10736 L 6884,10586"/>
 <path fill="none" stroke="rgb(0,0,0)" stroke-width="30" stroke-linejoin="round" d="M 7002,10736 L 7002,10586"/>
 <path fill="none" stroke="rgb(0,0,0)" stroke-width="30" stroke-linejoin="round" d="M 7002,10736 L 7002,10586"/>
 <path fill="none" stroke="rgb(0,0,0)" stroke-width="30" stroke-linejoin="round" d="M 7121,10736 L 7121,10586"/>
 <path fill="none" stroke="rgb(0,0,0)" stroke-width="30" stroke-linejoin="round" d="M 7121,10736 L 7121,10586"/>
 <path fill="none" stroke="rgb(0,0,0)" stroke-width="30" stroke-linejoin="round" d="M 7240,10736 L 7240,10586"/>
 <path fill="none" stroke="rgb(0,0,0)" stroke-width="30" stroke-linejoin="round" d="M 7240,10736 L 7240,10586"/>
 <path fill="none" stroke="rgb(0,0,0)" stroke-width="30" stroke-linejoin="round" d="M 7358,10736 L 7358,10586"/>
 <path fill="none" stroke="rgb(0,0,0)" stroke-width="30" stroke-linejoin="round" d="M 7358,10736 L 7358,10586"/>
 <path fill="none" stroke="rgb(0,0,0)" stroke-width="30" stroke-linejoin="round" d="M 7477,10736 L 7477,10586"/>
 <path fill="none" stroke="rgb(0,0,0)" stroke-width="30" stroke-linejoin="round" d="M 7477,10736 L 7477,10586"/>
 <path fill="none" stroke="rgb(0,0,0)" stroke-width="30" stroke-linejoin="round" d="M 7596,10736 L 7596,10586"/>
 <path fill="none" stroke="rgb(0,0,0)" stroke-width="30" stroke-linejoin="round" d="M 7596,10736 L 7596,10586"/>
 <path fill="none" stroke="rgb(0,0,0)" stroke-width="30" stroke-linejoin="round" d="M 7714,10736 L 7714,10586"/>
 <path fill="none" stroke="rgb(0,0,0)" stroke-width="30" stroke-linejoin="round" d="M 7714,10736 L 7714,10586"/>
 <path fill="none" stroke="rgb(0,0,0)" stroke-width="30" stroke-linejoin="round" d="M 7833,10736 L 7833,10586"/>
 <path fill="none" stroke="rgb(0,0,0)" stroke-width="30" stroke-linejoin="round" d="M 7833,10736 L 7833,10586"/>
 <path fill="none" stroke="rgb(0,0,0)" stroke-width="30" stroke-linejoin="round" d="M 7951,10736 L 7951,10586"/>
 <path fill="none" stroke="rgb(0,0,0)" stroke-width="30" stroke-linejoin="round" d="M 7951,10736 L 7951,10586"/>
 <path fill="none" stroke="rgb(0,0,0)" stroke-width="30" stroke-linejoin="round" d="M 8069,10736 L 8069,10586"/>
 <path fill="none" stroke="rgb(0,0,0)" stroke-width="30" stroke-linejoin="round" d="M 8069,10736 L 8069,10586"/>
 <path fill="none" stroke="rgb(0,0,0)" stroke-width="30" stroke-linejoin="round" d="M 8188,10736 L 8188,10586"/>
 <path fill="none" stroke="rgb(0,0,0)" stroke-width="30" stroke-linejoin="round" d="M 8188,10736 L 8188,10586"/>
 <path fill="none" stroke="rgb(0,0,0)" stroke-width="30" stroke-linejoin="round" d="M 8306,10736 L 8306,10586"/>
 <path fill="none" stroke="rgb(0,0,0)" stroke-width="30" stroke-linejoin="round" d="M 8306,10736 L 8306,10586"/>
 <path fill="none" stroke="rgb(0,0,0)" stroke-width="30" stroke-linejoin="round" d="M 8425,10736 L 8425,10586"/>
 <path fill="none" stroke="rgb(0,0,0)" stroke-width="30" stroke-linejoin="round" d="M 8425,10736 L 8425,10586"/>
 <path fill="none" stroke="rgb(0,0,0)" stroke-width="30" stroke-linejoin="round" d="M 8544,10736 L 8544,10586"/>
 <path fill="none" stroke="rgb(0,0,0)" stroke-width="30" stroke-linejoin="round" d="M 8544,10736 L 8544,10586"/>
 <path fill="none" stroke="rgb(0,0,0)" stroke-width="30" stroke-linejoin="round" d="M 8662,10736 L 8662,10586"/>
 <path fill="none" stroke="rgb(0,0,0)" stroke-width="30" stroke-linejoin="round" d="M 8662,10736 L 8662,10586"/>
 <path fill="none" stroke="rgb(0,0,0)" stroke-width="30" stroke-linejoin="round" d="M 8781,10736 L 8781,10586"/>
 <path fill="none" stroke="rgb(0,0,0)" stroke-width="30" stroke-linejoin="round" d="M 8781,10736 L 8781,10586"/>
 <path fill="none" stroke="rgb(0,0,0)" stroke-width="30" stroke-linejoin="round" d="M 8900,10736 L 8900,10586"/>
 <path fill="none" stroke="rgb(0,0,0)" stroke-width="30" stroke-linejoin="round" d="M 8900,10736 L 8900,10586"/>
 <path fill="none" stroke="rgb(0,0,0)" stroke-width="30" stroke-linejoin="round" d="M 9018,10736 L 9018,10586"/>
 <path fill="none" stroke="rgb(0,0,0)" stroke-width="30" stroke-linejoin="round" d="M 9018,10736 L 9018,10586"/>
 <path fill="none" stroke="rgb(0,0,0)" stroke-width="30" stroke-linejoin="round" d="M 9137,10736 L 9137,10586"/>
 <path fill="none" stroke="rgb(0,0,0)" stroke-width="30" stroke-linejoin="round" d="M 9137,10736 L 9137,10586"/>
 <path fill="none" stroke="rgb(0,0,0)" stroke-width="30" stroke-linejoin="round" d="M 9256,10736 L 9256,10586"/>
 <path fill="none" stroke="rgb(0,0,0)" stroke-width="30" stroke-linejoin="round" d="M 9256,10736 L 9256,10586"/>
 <path fill="none" stroke="rgb(0,0,0)" stroke-width="30" stroke-linejoin="round" d="M 9374,10736 L 9374,10586"/>
 <path fill="none" stroke="rgb(0,0,0)" stroke-width="30" stroke-linejoin="round" d="M 9374,10736 L 9374,10586"/>
 <path fill="none" stroke="rgb(0,0,0)" stroke-width="30" stroke-linejoin="round" d="M 9493,10736 L 9493,10586"/>
 <path fill="none" stroke="rgb(0,0,0)" stroke-width="30" stroke-linejoin="round" d="M 9493,10736 L 9493,10586"/>
 <path fill="none" stroke="rgb(0,0,0)" stroke-width="30" stroke-linejoin="round" d="M 9612,10736 L 9612,10586"/>
 <path fill="none" stroke="rgb(0,0,0)" stroke-width="30" stroke-linejoin="round" d="M 9612,10736 L 9612,10586"/>
 <path fill="none" stroke="rgb(0,0,0)" stroke-width="30" stroke-linejoin="round" d="M 9730,10736 L 9730,10586"/>
 <path fill="none" stroke="rgb(0,0,0)" stroke-width="30" stroke-linejoin="round" d="M 9730,10736 L 9730,10586"/>
 <path fill="none" stroke="rgb(0,0,0)" stroke-width="30" stroke-linejoin="round" d="M 9849,10736 L 9849,10586"/>
 <path fill="none" stroke="rgb(0,0,0)" stroke-width="30" stroke-linejoin="round" d="M 9849,10736 L 9849,10586"/>
 <path fill="none" stroke="rgb(0,0,0)" stroke-width="30" stroke-linejoin="round" d="M 9968,10736 L 9968,10586"/>
 <path fill="none" stroke="rgb(0,0,0)" stroke-width="30" stroke-linejoin="round" d="M 9968,10736 L 9968,10586"/>
 <path fill="none" stroke="rgb(0,0,0)" stroke-width="30" stroke-linejoin="round" d="M 10086,10736 L 10086,10586"/>
 <path fill="none" stroke="rgb(0,0,0)" stroke-width="30" stroke-linejoin="round" d="M 10086,10736 L 10086,10586"/>
 <path fill="none" stroke="rgb(0,0,0)" stroke-width="30" stroke-linejoin="round" d="M 10205,10736 L 10205,10586"/>
 <path fill="none" stroke="rgb(0,0,0)" stroke-width="30" stroke-linejoin="round" d="M 10205,10736 L 10205,10586"/>
 <path fill="none" stroke="rgb(0,0,0)" stroke-width="30" stroke-linejoin="round" d="M 10324,10736 L 10324,10586"/>
 <path fill="none" stroke="rgb(0,0,0)" stroke-width="30" stroke-linejoin="round" d="M 10324,10736 L 10324,10586"/>
 <path fill="none" stroke="rgb(0,0,0)" stroke-width="30" stroke-linejoin="round" d="M 10442,10736 L 10442,10586"/>
 <path fill="none" stroke="rgb(0,0,0)" stroke-width="30" stroke-linejoin="round" d="M 10442,10736 L 10442,10586"/>
 <path fill="none" stroke="rgb(0,0,0)" stroke-width="30" stroke-linejoin="round" d="M 10561,10736 L 10561,10586"/>
 <path fill="none" stroke="rgb(0,0,0)" stroke-width="30" stroke-linejoin="round" d="M 10561,10736 L 10561,10586"/>
 <path fill="none" stroke="rgb(0,0,0)" stroke-width="30" stroke-linejoin="round" d="M 10680,10736 L 10680,10586"/>
 <path fill="none" stroke="rgb(0,0,0)" stroke-width="30" stroke-linejoin="round" d="M 10680,10736 L 10680,10586"/>
 <path fill="none" stroke="rgb(0,0,0)" stroke-width="30" stroke-linejoin="round" d="M 10798,10736 L 10798,10586"/>
 <path fill="none" stroke="rgb(0,0,0)" stroke-width="30" stroke-linejoin="round" d="M 10798,10736 L 10798,10586"/>
 <path fill="none" stroke="rgb(0,0,0)" stroke-width="30" stroke-linejoin="round" d="M 10917,10736 L 10917,10586"/>
 <path fill="none" stroke="rgb(0,0,0)" stroke-width="30" stroke-linejoin="round" d="M 10917,10736 L 10917,10586"/>
 <path fill="none" stroke="rgb(0,0,0)" stroke-width="30" stroke-linejoin="round" d="M 11036,10736 L 11036,10586"/>
 <path fill="none" stroke="rgb(0,0,0)" stroke-width="30" stroke-linejoin="round" d="M 11036,10736 L 11036,10586"/>
 <path fill="none" stroke="rgb(0,0,0)" stroke-width="30" stroke-linejoin="round" d="M 11153,10736 L 11153,10586"/>
 <path fill="none" stroke="rgb(0,0,0)" stroke-width="30" stroke-linejoin="round" d="M 11153,10736 L 11153,10586"/>
 <path fill="none" stroke="rgb(0,0,0)" stroke-width="30" stroke-linejoin="round" d="M 11272,10736 L 11272,10586"/>
 <path fill="none" stroke="rgb(0,0,0)" stroke-width="30" stroke-linejoin="round" d="M 11272,10736 L 11272,10586"/>
 <path fill="none" stroke="rgb(0,0,0)" stroke-width="30" stroke-linejoin="round" d="M 11391,10736 L 11391,10586"/>
 <path fill="none" stroke="rgb(0,0,0)" stroke-width="30" stroke-linejoin="round" d="M 11391,10736 L 11391,10586"/>
 <path fill="none" stroke="rgb(0,0,0)" stroke-width="30" stroke-linejoin="round" d="M 11509,10736 L 11509,10586"/>
 <path fill="none" stroke="rgb(0,0,0)" stroke-width="30" stroke-linejoin="round" d="M 11509,10736 L 11509,10586"/>
 <path fill="none" stroke="rgb(0,0,0)" stroke-width="30" stroke-linejoin="round" d="M 11628,10736 L 11628,10586"/>
 <path fill="none" stroke="rgb(0,0,0)" stroke-width="30" stroke-linejoin="round" d="M 11628,10736 L 11628,10586"/>
 <path fill="none" stroke="rgb(0,0,0)" stroke-width="30" stroke-linejoin="round" d="M 11746,10736 L 11746,10586"/>
 <path fill="none" stroke="rgb(0,0,0)" stroke-width="30" stroke-linejoin="round" d="M 11746,10736 L 11746,10586"/>
 <path fill="none" stroke="rgb(0,0,0)" stroke-width="30" stroke-linejoin="round" d="M 11865,10736 L 11865,10586"/>
 <path fill="none" stroke="rgb(0,0,0)" stroke-width="30" stroke-linejoin="round" d="M 11865,10736 L 11865,10586"/>
 <path fill="none" stroke="rgb(0,0,0)" stroke-width="30" stroke-linejoin="round" d="M 11984,10736 L 11984,10586"/>
 <path fill="none" stroke="rgb(0,0,0)" stroke-width="30" stroke-linejoin="round" d="M 11984,10736 L 11984,10586"/>
 <path fill="none" stroke="rgb(0,0,0)" stroke-width="30" stroke-linejoin="round" d="M 12102,10736 L 12102,10586"/>
 <path fill="none" stroke="rgb(0,0,0)" stroke-width="30" stroke-linejoin="round" d="M 12102,10736 L 12102,10586"/>
 <path fill="none" stroke="rgb(0,0,0)" stroke-width="30" stroke-linejoin="round" d="M 12221,10736 L 12221,10586"/>
 <path fill="none" stroke="rgb(0,0,0)" stroke-width="30" stroke-linejoin="round" d="M 12221,10736 L 12221,10586"/>
 <path fill="none" stroke="rgb(0,0,0)" stroke-width="30" stroke-linejoin="round" d="M 12340,10736 L 12340,10586"/>
 <path fill="none" stroke="rgb(0,0,0)" stroke-width="30" stroke-linejoin="round" d="M 12340,10736 L 12340,10586"/>
 <path fill="none" stroke="rgb(0,0,0)" stroke-width="30" stroke-linejoin="round" d="M 12458,10736 L 12458,10586"/>
 <path fill="none" stroke="rgb(0,0,0)" stroke-width="30" stroke-linejoin="round" d="M 12458,10736 L 12458,10586"/>
 <path fill="none" stroke="rgb(0,0,0)" stroke-width="30" stroke-linejoin="round" d="M 12577,10736 L 12577,10586"/>
 <path fill="none" stroke="rgb(0,0,0)" stroke-width="30" stroke-linejoin="round" d="M 12577,10736 L 12577,10586"/>
 <path fill="none" stroke="rgb(0,0,0)" stroke-width="30" stroke-linejoin="round" d="M 12696,10736 L 12696,10586"/>
 <path fill="none" stroke="rgb(0,0,0)" stroke-width="30" stroke-linejoin="round" d="M 12696,10736 L 12696,10586"/>
 <path fill="none" stroke="rgb(0,0,0)" stroke-width="30" stroke-linejoin="round" d="M 12814,10736 L 12814,10586"/>
 <path fill="none" stroke="rgb(0,0,0)" stroke-width="30" stroke-linejoin="round" d="M 12814,10736 L 12814,10586"/>
 <path fill="none" stroke="rgb(0,0,0)" stroke-width="30" stroke-linejoin="round" d="M 12933,10736 L 12933,10586"/>
 <path fill="none" stroke="rgb(0,0,0)" stroke-width="30" stroke-linejoin="round" d="M 12933,10736 L 12933,10586"/>
 <path fill="none" stroke="rgb(0,0,0)" stroke-width="30" stroke-linejoin="round" d="M 13052,10736 L 13052,10586"/>
 <path fill="none" stroke="rgb(0,0,0)" stroke-width="30" stroke-linejoin="round" d="M 13052,10736 L 13052,10586"/>
 <path fill="none" stroke="rgb(0,0,0)" stroke-width="30" stroke-linejoin="round" d="M 13170,10736 L 13170,10586"/>
 <path fill="none" stroke="rgb(0,0,0)" stroke-width="30" stroke-linejoin="round" d="M 13170,10736 L 13170,10586"/>
 <path fill="none" stroke="rgb(0,0,0)" stroke-width="30" stroke-linejoin="round" d="M 13289,10736 L 13289,10586"/>
 <path fill="none" stroke="rgb(0,0,0)" stroke-width="30" stroke-linejoin="round" d="M 13289,10736 L 13289,10586"/>
 <path fill="none" stroke="rgb(0,0,0)" stroke-width="30" stroke-linejoin="round" d="M 13408,10736 L 13408,10586"/>
 <path fill="none" stroke="rgb(0,0,0)" stroke-width="30" stroke-linejoin="round" d="M 13408,10736 L 13408,10586"/>
 <path fill="none" stroke="rgb(0,0,0)" stroke-width="30" stroke-linejoin="round" d="M 13526,10736 L 13526,10586"/>
 <path fill="none" stroke="rgb(0,0,0)" stroke-width="30" stroke-linejoin="round" d="M 13526,10736 L 13526,10586"/>
 <path fill="none" stroke="rgb(0,0,0)" stroke-width="30" stroke-linejoin="round" d="M 13645,10736 L 13645,10586"/>
 <path fill="none" stroke="rgb(0,0,0)" stroke-width="30" stroke-linejoin="round" d="M 13645,10736 L 13645,10586"/>
 <path fill="none" stroke="rgb(0,0,0)" stroke-width="30" stroke-linejoin="round" d="M 13764,10736 L 13764,10586"/>
 <path fill="none" stroke="rgb(0,0,0)" stroke-width="30" stroke-linejoin="round" d="M 13764,10736 L 13764,10586"/>
 <path fill="none" stroke="rgb(0,0,0)" stroke-width="30" stroke-linejoin="round" d="M 13882,10736 L 13882,10586"/>
 <path fill="none" stroke="rgb(0,0,0)" stroke-width="30" stroke-linejoin="round" d="M 13882,10736 L 13882,10586"/>
 <path fill="none" stroke="rgb(0,0,0)" stroke-width="30" stroke-linejoin="round" d="M 14001,10736 L 14001,10586"/>
 <path fill="none" stroke="rgb(0,0,0)" stroke-width="30" stroke-linejoin="round" d="M 14001,10736 L 14001,10586"/>
 <path fill="none" stroke="rgb(0,0,0)" stroke-width="30" stroke-linejoin="round" d="M 14120,10736 L 14120,10586"/>
 <path fill="none" stroke="rgb(0,0,0)" stroke-width="30" stroke-linejoin="round" d="M 14120,10736 L 14120,10586"/>
 <path fill="none" stroke="rgb(0,0,0)" stroke-width="30" stroke-linejoin="round" d="M 14238,10736 L 14238,10586"/>
 <path fill="none" stroke="rgb(0,0,0)" stroke-width="30" stroke-linejoin="round" d="M 14238,10736 L 14238,10586"/>
 <path fill="none" stroke="rgb(0,0,0)" stroke-width="30" stroke-linejoin="round" d="M 14356,10736 L 14356,10586"/>
 <path fill="none" stroke="rgb(0,0,0)" stroke-width="30" stroke-linejoin="round" d="M 14356,10736 L 14356,10586"/>
 <path fill="none" stroke="rgb(0,0,0)" stroke-width="30" stroke-linejoin="round" d="M 14475,10736 L 14475,10586"/>
 <path fill="none" stroke="rgb(0,0,0)" stroke-width="30" stroke-linejoin="round" d="M 14475,10736 L 14475,10586"/>
 <path fill="none" stroke="rgb(0,0,0)" stroke-width="30" stroke-linejoin="round" d="M 14593,10736 L 14593,10586"/>
 <path fill="none" stroke="rgb(0,0,0)" stroke-width="30" stroke-linejoin="round" d="M 14593,10736 L 14593,10586"/>
 <path fill="none" stroke="rgb(0,0,0)" stroke-width="30" stroke-linejoin="round" d="M 14712,10736 L 14712,10586"/>
 <path fill="none" stroke="rgb(0,0,0)" stroke-width="30" stroke-linejoin="round" d="M 14712,10736 L 14712,10586"/>
 <path fill="none" stroke="rgb(0,0,0)" stroke-width="30" stroke-linejoin="round" d="M 14831,10736 L 14831,10586"/>
 <path fill="none" stroke="rgb(0,0,0)" stroke-width="30" stroke-linejoin="round" d="M 14831,10736 L 14831,10586"/>
 <path fill="none" stroke="rgb(0,0,0)" stroke-width="30" stroke-linejoin="round" d="M 1072,10586 L 14831,10586"/>
 <path fill="none" stroke="rgb(0,0,0)" stroke-linejoin="round" d="M 922,10586 L 1222,10586"/>
 <path fill="none" stroke="rgb(0,0,0)" stroke-linejoin="round" d="M 922,10586 L 1222,10586"/>
 <path fill="none" stroke="rgb(0,0,0)" stroke-linejoin="round" d="M 922,9406 L 1222,9406"/>
 <path fill="none" stroke="rgb(0,0,0)" stroke-linejoin="round" d="M 922,9406 L 1222,9406"/>
 <path fill="none" stroke="rgb(0,0,0)" stroke-linejoin="round" d="M 922,8227 L 1222,8227"/>
 <path fill="none" stroke="rgb(0,0,0)" stroke-linejoin="round" d="M 922,8227 L 1222,8227"/>
 <path fill="none" stroke="rgb(0,0,0)" stroke-linejoin="round" d="M 922,7047 L 1222,7047"/>
 <path fill="none" stroke="rgb(0,0,0)" stroke-linejoin="round" d="M 922,7047 L 1222,7047"/>
 <path fill="none" stroke="rgb(0,0,0)" stroke-linejoin="round" d="M 922,5869 L 1222,5869"/>
 <path fill="none" stroke="rgb(0,0,0)" stroke-linejoin="round" d="M 922,5869 L 1222,5869"/>
 <path fill="none" stroke="rgb(0,0,0)" stroke-linejoin="round" d="M 922,4689 L 1222,4689"/>
 <path fill="none" stroke="rgb(0,0,0)" stroke-linejoin="round" d="M 922,4689 L 1222,4689"/>
 <path fill="none" stroke="rgb(0,0,0)" stroke-linejoin="round" d="M 922,3509 L 1222,3509"/>
 <path fill="none" stroke="rgb(0,0,0)" stroke-linejoin="round" d="M 922,3509 L 1222,3509"/>
 <path fill="none" stroke="rgb(0,0,0)" stroke-linejoin="round" d="M 922,2330 L 1222,2330"/>
 <path fill="none" stroke="rgb(0,0,0)" stroke-linejoin="round" d="M 922,2330 L 1222,2330"/>
 <path fill="none" stroke="rgb(0,0,0)" stroke-linejoin="round" d="M 922,1151 L 1222,1151"/>
 <path fill="none" stroke="rgb(0,0,0)" stroke-linejoin="round" d="M 922,1151 L 1222,1151"/>
 <path fill="none" stroke="rgb(0,0,0)" stroke-linejoin="round" d="M 1072,10586 L 1072,1151"/>
 <path fill="none" stroke="rgb(0,0,0)" stroke-linejoin="round" d="M 14981,10586 L 14831,10586"/>
 <path fill="none" stroke="rgb(0,0,0)" stroke-linejoin="round" d="M 14981,10586 L 14831,10586"/>
 <path fill="none" stroke="rgb(0,0,0)" stroke-linejoin="round" d="M 14981,9406 L 14831,9406"/>
 <path fill="none" stroke="rgb(0,0,0)" stroke-linejoin="round" d="M 14981,9406 L 14831,9406"/>
 <path fill="none" stroke="rgb(0,0,0)" stroke-linejoin="round" d="M 14981,8227 L 14831,8227"/>
 <path fill="none" stroke="rgb(0,0,0)" stroke-linejoin="round" d="M 14981,8227 L 14831,8227"/>
 <path fill="none" stroke="rgb(0,0,0)" stroke-linejoin="round" d="M 14981,7047 L 14831,7047"/>
 <path fill="none" stroke="rgb(0,0,0)" stroke-linejoin="round" d="M 14981,7047 L 14831,7047"/>
 <path fill="none" stroke="rgb(0,0,0)" stroke-linejoin="round" d="M 14981,5869 L 14831,5869"/>
 <path fill="none" stroke="rgb(0,0,0)" stroke-linejoin="round" d="M 14981,5869 L 14831,5869"/>
 <path fill="none" stroke="rgb(0,0,0)" stroke-linejoin="round" d="M 14981,4689 L 14831,4689"/>
 <path fill="none" stroke="rgb(0,0,0)" stroke-linejoin="round" d="M 14981,4689 L 14831,4689"/>
 <path fill="none" stroke="rgb(0,0,0)" stroke-linejoin="round" d="M 14981,3509 L 14831,3509"/>
 <path fill="none" stroke="rgb(0,0,0)" stroke-linejoin="round" d="M 14981,3509 L 14831,3509"/>
 <path fill="none" stroke="rgb(0,0,0)" stroke-linejoin="round" d="M 14981,2330 L 14831,2330"/>
 <path fill="none" stroke="rgb(0,0,0)" stroke-linejoin="round" d="M 14981,2330 L 14831,2330"/>
 <path fill="none" stroke="rgb(0,0,0)" stroke-linejoin="round" d="M 14981,1151 L 14831,1151"/>
 <path fill="none" stroke="rgb(0,0,0)" stroke-linejoin="round" d="M 14981,1151 L 14831,1151"/>
 <path fill="none" stroke="rgb(0,0,0)" stroke-linejoin="round" d="M 14831,10586 L 14831,1151"/>
 <path fill="none" stroke="rgb(255,211,32)" stroke-width="80" stroke-linejoin="round" d="M 2138,10586 L 2257,10456 2376,10468 2494,10453 2613,10422 2732,10405 2850,10404 2969,10397 3088,10374 3206,10331 3325,10305 3444,10284 3562,10253 3681,10214 3800,10166 3918,10124 4037,10045 4156,9978 4274,9926 4393,9866 4512,9795 4630,9766 4749,9740 4866,9748 4985,9710 5104,9650 5222,9602 5341,9505 5460,9419 5578,9336 5697,9306 5816,9234 5934,9201 6053,9130 6172,9066 6290,9045 6409,8780 6528,8703 6646,8524 6765,8495 6884,8398 7002,8423 7121,8434 7240,8479 7358,8433 7477,8328 7596,8376 7714,8434 7833,8364 7951,8406 8069,8375 8188,8522 8306,8502 8425,8565 8544,8645 8662,8666 8781,8652 8900,8720 9018,8568 9137,8495 9256,8620 9374,8627 9493,8657 9612,8592 9730,8479 9849,8439 9968,8340 10086,8274 10205,8369 10324,8176 10442,7998 10561,7895 10680,8005 10798,7955 10917,7864 11036,7837 11153,7701 11272,7477 11391,7420 11509,7381 11628,7080 11746,7150 11865,7046 11984,6967 12102,6796 12221,6663 12340,6550 12458,6456 12577,6361 12696,6096 12814,5959 12933,5607 13052,5357 13170,4639 13289,4713 13408,4516 13526,4214 13645,4095 13764,4132 13882,4043 14001,4064 14120,3976 14238,3822 14356,3951 14475,3877 14593,3743 14712,3742 14831,3716"/>
 <path fill="none" stroke="rgb(0,69,134)" stroke-width="80" stroke-linejoin="round" d="M 1072,1208 L 1190,1287 1309,1356 1427,1408 1546,1455 1664,1429 1782,1628 1901,1695 2020,1679 2138,1723 2257,1836 2376,1899 2494,2140 2613,2271 2732,2365 2850,2422 2969,2512 3088,2593 3206,2555 3325,2533 3444,2613 3562,2699 3681,2847 3800,2970 3918,3092 4037,3203 4156,3264 4274,3340 4393,3448 4512,3530 4630,3561 4749,3486 4866,3438 4985,3485 5104,3574 5222,3623 5341,3711 5460,3870 5578,3998 5697,3906 5816,4008 5934,4104 6053,4202 6172,4270 6290,4385 6409,4519 6528,4587 6646,4760 6765,4834 6884,4976 7002,4927 7121,4853 7240,4748 7358,4717 7477,4756 7596,4790 7714,4857 7833,4888 7951,4875 8069,4893 8188,4830 8306,4856 8425,4884 8544,4908 8662,4906 8781,4757 8900,4762 9018,4753 9137,4771 9256,4748 9374,4577 9493,4607 9612,4652 9730,4715 9849,4805 9968,4899 10086,4827 10205,4901 10324,4962 10442,4900 10561,4984 10680,4877 10798,4808 10917,4856 11036,4867 11153,4799 11272,5136 11391,5078 11509,5166 11628,5479 11746,5320 11865,5480 11984,5585 12102,5626 12221,5882 12340,5991 12458,5949 12577,6183 12696,6455 12814,6643 12933,6916 13052,7149 13170,7411 13289,7389 13408,7572 13526,7805 13645,8108 13764,8195 13882,8342 14001,8462 14120,8545 14238,8622 14356,8755 14475,8749 14593,8623 14712,8800 14831,8747"/>
 <path fill="none" stroke="rgb(87,157,28)" stroke-width="80" stroke-linejoin="round" d="M 1072,10313 L 1190,10295 1309,10276 1427,10275 1546,10268 1664,10284 1782,10248 1901,10261 2020,10275 2138,10268 2257,10255 2376,10249 2494,10225 2613,10187 2732,10161 2850,10182 2969,10159 3088,10174 3206,10154 3325,10142 3444,10114 3562,10113 3681,10091 3800,10076 3918,10082 4037,10071 4156,10065 4274,10069 4393,10045 4512,10037 4630,10038 4749,10023 4866,10003 4985,9991 5104,9986 5222,9978 5341,9951 5460,9913 5578,9864 5697,9859 5816,9829 5934,9767 6053,9753 6172,9737 6290,9669 6409,9694 6528,9646 6646,9585 6765,9610 6884,9570 7002,9498 7121,9497 7240,9537 7358,9519 7477,9514 7596,9449 7714,9441 7833,9326 7951,9353 8069,9332 8188,9292 8306,9276 8425,9198 8544,9197 8662,9194 8781,9277 8900,9248 9018,9252 9137,9190 9256,9164 9374,9288 9493,9196 9612,9139 9730,9148 9849,9046 9968,9018 10086,9069 10205,9009 10324,9026 10442,9166 10561,9176 10680,9151 10798,9287 10917,9226 11036,9097 11153,9274 11272,9124 11391,9222 11509,9213 11628,9125 11746,9272 11865,9172 11984,9102 12102,9180 12221,9093 12340,9009 12458,9309 12577,9211 12696,9209 12814,9210 12933,9144 13052,9236 13170,9432 13289,9373 13408,9355 13526,9378 13645,9370 13764,9458 13882,9451 14001,9290 14120,9205 14238,9259 14356,8960 14475,9062 14593,9375 14712,9021 14831,9113"/>
 <path fill="none" stroke="rgb(255,66,14)" stroke-width="80" stroke-linejoin="round" d="M 1072,8754 L 1190,8661 1309,8625 1427,8580 1546,8545 1664,8559 1782,8421 1901,8348 2020,8347 2138,8314 2257,8330 2376,8270 2494,8078 2613,8024 2732,7975 2850,7919 2969,7834 3088,7771 3206,7899 3325,7942 3444,7932 3562,7868 3681,7777 3800,7739 3918,7665 4037,7674 4156,7696 4274,7722 4393,7684 4512,7677 4630,7711 4749,7785 4866,7892 4985,7888 5104,7889 5222,7908 5341,7907 5460,7903 5578,7910 5697,8028 5816,8022 5934,8042 6053,8041 6172,8035 6290,8060 6409,8110 6528,8111 6646,8094 6765,8165 6884,8229 7002,8355 7121,8313 7240,8349 7358,8395 7477,8446 7596,8426 7714,8454 7833,8458 7951,8449 8069,8490 8188,8449 8306,8522 8425,8531 8544,8548 8662,8542 8781,8482 8900,8468 9018,8649 9137,8745 9256,8731 9374,8727 9493,8740 9612,8783 9730,8800 9849,8882 9968,8949 10086,8976 10205,9014 10324,9066 10442,9206 10561,9261 10680,9228 10798,9342 10917,9405 11036,9412 11153,9547 11272,9567 11391,9577 11509,9565 11628,9629 11746,9580 11865,9557 11984,9600 12102,9609 12221,9685 12340,9703 12458,9629 12577,9662 12696,9755 12814,9733 12933,9867 13052,9968 13170,10027 13289,10056 13408,10043 13526,10056 13645,9978 13764,9782 13882,9748 14001,9726 14120,9739 14238,9777 14356,9835 14475,9811 14593,9766 14712,9767 14831,9692"/>
 <path fill="none" stroke="rgb(126,0,33)" stroke-width="80" stroke-linejoin="round" d="M 1072,10345 L 1190,10380 1309,10354 1427,10346 1546,10346 1664,10348 1782,10331 1901,10315 2020,10317 2138,10312 2257,10325 2376,10312 2494,10304 2613,10301 2732,10297 2850,10302 2969,10311 3088,10317 3206,10315 3325,10327 3444,10328 3562,10320 3681,10302 3800,10299 3918,10267 4037,10246 4156,10243 4274,10240 4393,10221 4512,10228 4630,10221 4749,10247 4866,10215 4985,10210 5104,10196 5222,10217 5341,10223 5460,10213 5578,10222 5697,10214 5816,10221 5934,10217 6053,10228 6172,10253 6290,10272 6409,10252 6528,10266 6646,10326 6765,10263 6884,10215 7002,10209 7121,10274 7240,10300 7358,10311 7477,10306 7596,10313 7714,10335 7833,10331 7951,10318 8069,10319 8188,10327 8306,10272 8425,10269 8544,10204 8662,10293 8781,10284 8900,10270 9018,10285 9137,10307 9256,10303 9374,10342 9493,10365 9612,10389 9730,10404 9849,10397 9968,10399 10086,10426 10205,10340 10324,10355 10442,10357 10561,10335 10680,10343 10798,10389 10917,10378 11036,10363 11153,10346 11272,10352 11391,10344 11509,10337 11628,10355 11746,10315 11865,10331 11984,10358 12102,10379 12221,10365 12340,10369 12458,10367 12577,10328 12696,10275 12814,10260 12933,10293 13052,10286 13170,10355 13289,10318 13408,10359 13526,10352 13645,10340 13764,10374 13882,10375 14001,10365 14120,10408 14238,10406 14356,10393 14475,10418 14593,10373 14712,10453 14831,10464"/>
 <path fill="none" stroke="rgb(131,202,255)" stroke-width="80" stroke-linejoin="round" d="M 1072,10514 L 1190,10510 1309,10522 1427,10524 1546,10519 1664,10514 1782,10505 1901,10514 2020,10516 2138,10517 2257,10517 2376,10521 2494,10519 2613,10515 2732,10516 2850,10490 2969,10508 3088,10490 3206,10465 3325,10470 3444,10449 3562,10466 3681,10488 3800,10469 3918,10489 4037,10479 4156,10472 4274,10423 4393,10455 4512,10452 4630,10422 4749,10438 4866,10424 4985,10435 5104,10423 5222,10391 5341,10422 5460,10400 5578,10389 5697,10406 5816,10404 5934,10387 6053,10365 6172,10357 6290,10288 6409,10365 6528,10406 6646,10430 6765,10353 6884,10332 7002,10308 7121,10348 7240,10305 7358,10344 7477,10369 7596,10366 7714,10197 7833,10353 7951,10319 8069,10311 8188,10298 8306,10291 8425,10272 8544,10217 8662,10118 8781,10267 8900,10251 9018,10213 9137,10210 9256,10152 9374,10158 9493,10155 9612,10165 9730,10173 9849,10151 9968,10114 10086,10147 10205,10086 10324,10135 10442,10092 10561,10069 10680,10115 10798,9936 10917,9989 11036,10144 11153,10053 11272,10063 11391,10079 11509,10057 11628,10051 11746,10083 11865,10133 11984,10107 12102,10129 12221,10031 12340,10095 12458,10010 12577,9974 12696,9929 12814,9914 12933,9892 13052,9723 13170,9856 13289,9869 13408,9876 13526,9913 13645,9827 13764,9778 13882,9760 14001,9811 14120,9846 14238,9832 14356,9824 14475,9802 14593,9838 14712,9936 14831,9987"/>
 <text class="TextShape"><tspan class="TextParagraph" font-family="Liberation Sans, sans-serif" font-size="388px" font-weight="700"><tspan class="TextPosition" x="885" y="11180"><tspan fill="rgb(0,0,0)" stroke="none">2008</tspan></tspan></tspan></text>
 <text class="TextShape"><tspan class="TextParagraph" font-family="Liberation Sans, sans-serif" font-size="388px" font-weight="700"><tspan class="TextPosition" x="2309" y="11180"><tspan fill="rgb(0,0,0)" stroke="none">2009</tspan></tspan></tspan></text>
 <text class="TextShape"><tspan class="TextParagraph" font-family="Liberation Sans, sans-serif" font-size="388px" font-weight="700"><tspan class="TextPosition" x="3732" y="11180"><tspan fill="rgb(0,0,0)" stroke="none">2010</tspan></tspan></tspan></text>
 <text class="TextShape"><tspan class="TextParagraph" font-family="Liberation Sans, sans-serif" font-size="388px" font-weight="700"><tspan class="TextPosition" x="5155" y="11180"><tspan fill="rgb(0,0,0)" stroke="none">2011</tspan></tspan></tspan></text>
 <text class="TextShape"><tspan class="TextParagraph" font-family="Liberation Sans, sans-serif" font-size="388px" font-weight="700"><tspan class="TextPosition" x="6578" y="11180"><tspan fill="rgb(0,0,0)" stroke="none">2012</tspan></tspan></tspan></text>
 <text class="TextShape"><tspan class="TextParagraph" font-family="Liberation Sans, sans-serif" font-size="388px" font-weight="700"><tspan class="TextPosition" x="8002" y="11180"><tspan fill="rgb(0,0,0)" stroke="none">2013</tspan></tspan></tspan></text>
 <text class="TextShape"><tspan class="TextParagraph" font-family="Liberation Sans, sans-serif" font-size="388px" font-weight="700"><tspan class="TextPosition" x="9426" y="11180"><tspan fill="rgb(0,0,0)" stroke="none">2014</tspan></tspan></tspan></text>
 <text class="TextShape"><tspan class="TextParagraph" font-family="Liberation Sans, sans-serif" font-size="388px" font-weight="700"><tspan class="TextPosition" x="10849" y="11180"><tspan fill="rgb(0,0,0)" stroke="none">2015</tspan></tspan></tspan></text>
 <text class="TextShape"><tspan class="TextParagraph" font-family="Liberation Sans, sans-serif" font-size="388px" font-weight="700"><tspan class="TextPosition" x="12273" y="11180"><tspan fill="rgb(0,0,0)" stroke="none">2016</tspan></tspan></tspan></text>
 <text class="TextShape"><tspan class="TextParagraph" font-family="Liberation Sans, sans-serif" font-size="388px" font-weight="700"><tspan class="TextPosition" x="13696" y="11180"><tspan fill="rgb(0,0,0)" stroke="none">2017</tspan></tspan></tspan></text>
 <text class="TextShape"><tspan class="TextParagraph" font-family="Liberation Sans, sans-serif" font-size="388px" font-weight="700"><tspan class="TextPosition" x="266" y="10720"><tspan fill="rgb(0,0,0)" stroke="none">0%</tspan></tspan></tspan></text>
 <text class="TextShape"><tspan class="TextParagraph" font-family="Liberation Sans, sans-serif" font-size="388px" font-weight="700"><tspan class="TextPosition" x="55" y="9540"><tspan fill="rgb(0,0,0)" stroke="none">10%</tspan></tspan></tspan></text>
 <text class="TextShape"><tspan class="TextParagraph" font-family="Liberation Sans, sans-serif" font-size="388px" font-weight="700"><tspan class="TextPosition" x="55" y="8361"><tspan fill="rgb(0,0,0)" stroke="none">20%</tspan></tspan></tspan></text>
 <text class="TextShape"><tspan class="TextParagraph" font-family="Liberation Sans, sans-serif" font-size="388px" font-weight="700"><tspan class="TextPosition" x="55" y="7181"><tspan fill="rgb(0,0,0)" stroke="none">30%</tspan></tspan></tspan></text>
 <text class="TextShape"><tspan class="TextParagraph" font-family="Liberation Sans, sans-serif" font-size="388px" font-weight="700"><tspan class="TextPosition" x="55" y="6002"><tspan fill="rgb(0,0,0)" stroke="none">40%</tspan></tspan></tspan></text>
 <text class="TextShape"><tspan class="TextParagraph" font-family="Liberation Sans, sans-serif" font-size="388px" font-weight="700"><tspan class="TextPosition" x="55" y="4822"><tspan fill="rgb(0,0,0)" stroke="none">50%</tspan></tspan></tspan></text>
 <text class="TextShape"><tspan class="TextParagraph" font-family="Liberation Sans, sans-serif" font-size="388px" font-weight="700"><tspan class="TextPosition" x="55" y="3642"><tspan fill="rgb(0,0,0)" stroke="none">60%</tspan></tspan></tspan></text>
 <text class="TextShape"><tspan class="TextParagraph" font-family="Liberation Sans, sans-serif" font-size="388px" font-weight="700"><tspan class="TextPosition" x="55" y="2463"><tspan fill="rgb(0,0,0)" stroke="none">70%</tspan></tspan></tspan></text>
 <text class="TextShape"><tspan class="TextParagraph" font-family="Liberation Sans, sans-serif" font-size="388px" font-weight="700"><tspan class="TextPosition" x="55" y="1284"><tspan fill="rgb(0,0,0)" stroke="none">80%</tspan></tspan></tspan></text>
 <text class="TextShape"><tspan class="TextParagraph" font-family="Liberation Sans, sans-serif" font-size="388px" font-weight="700"><tspan class="TextPosition" x="15081" y="10720"><tspan fill="rgb(0,0,0)" stroke="none">0%</tspan></tspan></tspan></text>
 <text class="TextShape"><tspan class="TextParagraph" font-family="Liberation Sans, sans-serif" font-size="388px" font-weight="700"><tspan class="TextPosition" x="15081" y="9540"><tspan fill="rgb(0,0,0)" stroke="none">10%</tspan></tspan></tspan></text>
 <text class="TextShape"><tspan class="TextParagraph" font-family="Liberation Sans, sans-serif" font-size="388px" font-weight="700"><tspan class="TextPosition" x="15081" y="8361"><tspan fill="rgb(0,0,0)" stroke="none">20%</tspan></tspan></tspan></text>
 <text class="TextShape"><tspan class="TextParagraph" font-family="Liberation Sans, sans-serif" font-size="388px" font-weight="700"><tspan class="TextPosition" x="15081" y="7181"><tspan fill="rgb(0,0,0)" stroke="none">30%</tspan></tspan></tspan></text>
 <text class="TextShape"><tspan class="TextParagraph" font-family="Liberation Sans, sans-serif" font-size="388px" font-weight="700"><tspan class="TextPosition" x="15081" y="6002"><tspan fill="rgb(0,0,0)" stroke="none">40%</tspan></tspan></tspan></text>
 <text class="TextShape"><tspan class="TextParagraph" font-family="Liberation Sans, sans-serif" font-size="388px" font-weight="700"><tspan class="TextPosition" x="15081" y="4822"><tspan fill="rgb(0,0,0)" stroke="none">50%</tspan></tspan></tspan></text>
 <text class="TextShape"><tspan class="TextParagraph" font-family="Liberation Sans, sans-serif" font-size="388px" font-weight="700"><tspan class="TextPosition" x="15081" y="3642"><tspan fill="rgb(0,0,0)" stroke="none">60%</tspan></tspan></tspan></text>
 <text class="TextShape"><tspan class="TextParagraph" font-family="Liberation Sans, sans-serif" font-size="388px" font-weight="700"><tspan class="TextPosition" x="15081" y="2463"><tspan fill="rgb(0,0,0)" stroke="none">70%</tspan></tspan></tspan></text>
 <text class="TextShape"><tspan class="TextParagraph" font-family="Liberation Sans, sans-serif" font-size="388px" font-weight="700"><tspan class="TextPosition" x="15081" y="1284"><tspan fill="rgb(0,0,0)" stroke="none">80%</tspan></tspan></tspan></text>
 <text class="TextShape"><tspan class="TextParagraph" font-family="Arial, sans-serif" font-size="635px" font-weight="400"><tspan class="TextPosition" x="3958" y="775"><tspan fill="rgb(0,0,0)" stroke="none">Utilización de navegadores</tspan></tspan></tspan></text>
 <path fill="none" stroke="rgb(255,211,32)" stroke-width="80" stroke-linejoin="round" d="M 1783,11583 L 2583,11583"/>
 <path fill="none" stroke="rgb(0,69,134)" stroke-width="80" stroke-linejoin="round" d="M 4233,11583 L 5032,11583"/>
 <path fill="none" stroke="rgb(87,157,28)" stroke-width="80" stroke-linejoin="round" d="M 5730,11583 L 6530,11583"/>
 <path fill="none" stroke="rgb(255,66,14)" stroke-width="80" stroke-linejoin="round" d="M 7837,11583 L 8636,11583"/>
 <path fill="none" stroke="rgb(126,0,33)" stroke-width="80" stroke-linejoin="round" d="M 10128,11583 L 10928,11583"/>
 <path fill="none" stroke="rgb(131,202,255)" stroke-width="80" stroke-linejoin="round" d="M 12260,11583 L 13060,11583"/>
 <text class="TextShape"><tspan class="TextParagraph" font-family="Arial, sans-serif" font-size="353px" font-weight="700"><tspan class="TextPosition" x="2683" y="11702"><tspan fill="rgb(0,0,0)" stroke="none">Chrome</tspan></tspan></tspan></text>
 <text class="TextShape"><tspan class="TextParagraph" font-family="Arial, sans-serif" font-size="353px" font-weight="700"><tspan class="TextPosition" x="5132" y="11702"><tspan fill="rgb(0,0,0)" stroke="none">IE</tspan></tspan></tspan></text>
 <text class="TextShape"><tspan class="TextParagraph" font-family="Arial, sans-serif" font-size="353px" font-weight="700"><tspan class="TextPosition" x="6630" y="11702"><tspan fill="rgb(0,0,0)" stroke="none">Safari</tspan></tspan></tspan></text>
 <text class="TextShape"><tspan class="TextParagraph" font-family="Arial, sans-serif" font-size="353px" font-weight="700"><tspan class="TextPosition" x="8736" y="11702"><tspan fill="rgb(0,0,0)" stroke="none">Firefox</tspan></tspan></tspan></text>
 <text class="TextShape"><tspan class="TextParagraph" font-family="Arial, sans-serif" font-size="353px" font-weight="700"><tspan class="TextPosition" x="11028" y="11702"><tspan fill="rgb(0,0,0)" stroke="none">Opera</tspan></tspan></tspan></text>
 <text class="TextShape"><tspan class="TextParagraph" font-family="Arial, sans-serif" font-size="353px" font-weight="700"><tspan class="TextPosition" x="13160" y="11702"><tspan fill="rgb(0,0,0)" stroke="none">Otros</tspan></tspan></tspan></text>
</svg>
