<?xml version="1.0" encoding="UTF-8"?>
<!DOCTYPE svg PUBLIC "-//W3C//DTD SVG 1.1//EN" "http://www.w3.org/Graphics/SVG/1.1/DTD/svg11.dtd">
<svg width="159mm" height="119mm" viewBox="0 0 15900 11900" version="1.1" xmlns="http://www.w3.org/2000/svg" stroke-width="28.222" stroke-linejoin="round" xml:space="preserve">
 <path fill="rgb(255,255,255)" stroke="none" d="M 7925,11928 L 0,11928 0,0 15850,0 15850,11928 7925,11928 Z"/>
 <path fill="none" stroke="rgb(179,179,179)" stroke-linejoin="round" d="M 7863,10191 L 1064,10191 1064,938 14662,938 14662,10191 7863,10191 Z"/>
 <path fill="none" stroke="rgb(0,0,0)" stroke-linejoin="round" d="M 14662,10190 L 1064,10190"/>
 <path fill="none" stroke="rgb(0,0,0)" stroke-linejoin="round" d="M 14662,8647 L 1064,8647"/>
 <path fill="none" stroke="rgb(0,0,0)" stroke-linejoin="round" d="M 14662,7105 L 1064,7105"/>
 <path fill="none" stroke="rgb(0,0,0)" stroke-linejoin="round" d="M 14662,5564 L 1064,5564"/>
 <path fill="none" stroke="rgb(0,0,0)" stroke-linejoin="round" d="M 14662,4021 L 1064,4021"/>
 <path fill="none" stroke="rgb(0,0,0)" stroke-linejoin="round" d="M 14662,2479 L 1064,2479"/>
 <path fill="none" stroke="rgb(0,0,0)" stroke-linejoin="round" d="M 14662,937 L 1064,937"/>
 <path fill="none" stroke="rgb(0,0,0)" stroke-linejoin="round" d="M 1064,10340 L 1064,10190"/>
 <path fill="none" stroke="rgb(0,0,0)" stroke-linejoin="round" d="M 1064,10340 L 1064,10190"/>
 <path fill="none" stroke="rgb(0,0,0)" stroke-linejoin="round" d="M 1185,10340 L 1185,10190"/>
 <path fill="none" stroke="rgb(0,0,0)" stroke-linejoin="round" d="M 1185,10340 L 1185,10190"/>
 <path fill="none" stroke="rgb(0,0,0)" stroke-linejoin="round" d="M 1306,10340 L 1306,10190"/>
 <path fill="none" stroke="rgb(0,0,0)" stroke-linejoin="round" d="M 1306,10340 L 1306,10190"/>
 <path fill="none" stroke="rgb(0,0,0)" stroke-linejoin="round" d="M 1428,10340 L 1428,10190"/>
 <path fill="none" stroke="rgb(0,0,0)" stroke-linejoin="round" d="M 1428,10340 L 1428,10190"/>
 <path fill="none" stroke="rgb(0,0,0)" stroke-linejoin="round" d="M 1549,10340 L 1549,10190"/>
 <path fill="none" stroke="rgb(0,0,0)" stroke-linejoin="round" d="M 1549,10340 L 1549,10190"/>
 <path fill="none" stroke="rgb(0,0,0)" stroke-linejoin="round" d="M 1671,10340 L 1671,10190"/>
 <path fill="none" stroke="rgb(0,0,0)" stroke-linejoin="round" d="M 1671,10340 L 1671,10190"/>
 <path fill="none" stroke="rgb(0,0,0)" stroke-linejoin="round" d="M 1792,10340 L 1792,10190"/>
 <path fill="none" stroke="rgb(0,0,0)" stroke-linejoin="round" d="M 1792,10340 L 1792,10190"/>
 <path fill="none" stroke="rgb(0,0,0)" stroke-linejoin="round" d="M 1913,10340 L 1913,10190"/>
 <path fill="none" stroke="rgb(0,0,0)" stroke-linejoin="round" d="M 1913,10340 L 1913,10190"/>
 <path fill="none" stroke="rgb(0,0,0)" stroke-linejoin="round" d="M 2035,10340 L 2035,10190"/>
 <path fill="none" stroke="rgb(0,0,0)" stroke-linejoin="round" d="M 2035,10340 L 2035,10190"/>
 <path fill="none" stroke="rgb(0,0,0)" stroke-linejoin="round" d="M 2156,10340 L 2156,10190"/>
 <path fill="none" stroke="rgb(0,0,0)" stroke-linejoin="round" d="M 2156,10340 L 2156,10190"/>
 <path fill="none" stroke="rgb(0,0,0)" stroke-linejoin="round" d="M 2278,10340 L 2278,10190"/>
 <path fill="none" stroke="rgb(0,0,0)" stroke-linejoin="round" d="M 2278,10340 L 2278,10190"/>
 <path fill="none" stroke="rgb(0,0,0)" stroke-linejoin="round" d="M 2399,10340 L 2399,10190"/>
 <path fill="none" stroke="rgb(0,0,0)" stroke-linejoin="round" d="M 2399,10340 L 2399,10190"/>
 <path fill="none" stroke="rgb(0,0,0)" stroke-linejoin="round" d="M 2521,10340 L 2521,10190"/>
 <path fill="none" stroke="rgb(0,0,0)" stroke-linejoin="round" d="M 2521,10340 L 2521,10190"/>
 <path fill="none" stroke="rgb(0,0,0)" stroke-linejoin="round" d="M 2642,10340 L 2642,10190"/>
 <path fill="none" stroke="rgb(0,0,0)" stroke-linejoin="round" d="M 2642,10340 L 2642,10190"/>
 <path fill="none" stroke="rgb(0,0,0)" stroke-linejoin="round" d="M 2763,10340 L 2763,10190"/>
 <path fill="none" stroke="rgb(0,0,0)" stroke-linejoin="round" d="M 2763,10340 L 2763,10190"/>
 <path fill="none" stroke="rgb(0,0,0)" stroke-linejoin="round" d="M 2885,10340 L 2885,10190"/>
 <path fill="none" stroke="rgb(0,0,0)" stroke-linejoin="round" d="M 2885,10340 L 2885,10190"/>
 <path fill="none" stroke="rgb(0,0,0)" stroke-linejoin="round" d="M 3006,10340 L 3006,10190"/>
 <path fill="none" stroke="rgb(0,0,0)" stroke-linejoin="round" d="M 3006,10340 L 3006,10190"/>
 <path fill="none" stroke="rgb(0,0,0)" stroke-linejoin="round" d="M 3128,10340 L 3128,10190"/>
 <path fill="none" stroke="rgb(0,0,0)" stroke-linejoin="round" d="M 3128,10340 L 3128,10190"/>
 <path fill="none" stroke="rgb(0,0,0)" stroke-linejoin="round" d="M 3249,10340 L 3249,10190"/>
 <path fill="none" stroke="rgb(0,0,0)" stroke-linejoin="round" d="M 3249,10340 L 3249,10190"/>
 <path fill="none" stroke="rgb(0,0,0)" stroke-linejoin="round" d="M 3370,10340 L 3370,10190"/>
 <path fill="none" stroke="rgb(0,0,0)" stroke-linejoin="round" d="M 3370,10340 L 3370,10190"/>
 <path fill="none" stroke="rgb(0,0,0)" stroke-linejoin="round" d="M 3492,10340 L 3492,10190"/>
 <path fill="none" stroke="rgb(0,0,0)" stroke-linejoin="round" d="M 3492,10340 L 3492,10190"/>
 <path fill="none" stroke="rgb(0,0,0)" stroke-linejoin="round" d="M 3613,10340 L 3613,10190"/>
 <path fill="none" stroke="rgb(0,0,0)" stroke-linejoin="round" d="M 3613,10340 L 3613,10190"/>
 <path fill="none" stroke="rgb(0,0,0)" stroke-linejoin="round" d="M 3735,10340 L 3735,10190"/>
 <path fill="none" stroke="rgb(0,0,0)" stroke-linejoin="round" d="M 3735,10340 L 3735,10190"/>
 <path fill="none" stroke="rgb(0,0,0)" stroke-linejoin="round" d="M 3856,10340 L 3856,10190"/>
 <path fill="none" stroke="rgb(0,0,0)" stroke-linejoin="round" d="M 3856,10340 L 3856,10190"/>
 <path fill="none" stroke="rgb(0,0,0)" stroke-linejoin="round" d="M 3978,10340 L 3978,10190"/>
 <path fill="none" stroke="rgb(0,0,0)" stroke-linejoin="round" d="M 3978,10340 L 3978,10190"/>
 <path fill="none" stroke="rgb(0,0,0)" stroke-linejoin="round" d="M 4099,10340 L 4099,10190"/>
 <path fill="none" stroke="rgb(0,0,0)" stroke-linejoin="round" d="M 4099,10340 L 4099,10190"/>
 <path fill="none" stroke="rgb(0,0,0)" stroke-linejoin="round" d="M 4220,10340 L 4220,10190"/>
 <path fill="none" stroke="rgb(0,0,0)" stroke-linejoin="round" d="M 4220,10340 L 4220,10190"/>
 <path fill="none" stroke="rgb(0,0,0)" stroke-linejoin="round" d="M 4342,10340 L 4342,10190"/>
 <path fill="none" stroke="rgb(0,0,0)" stroke-linejoin="round" d="M 4342,10340 L 4342,10190"/>
 <path fill="none" stroke="rgb(0,0,0)" stroke-linejoin="round" d="M 4463,10340 L 4463,10190"/>
 <path fill="none" stroke="rgb(0,0,0)" stroke-linejoin="round" d="M 4463,10340 L 4463,10190"/>
 <path fill="none" stroke="rgb(0,0,0)" stroke-linejoin="round" d="M 4585,10340 L 4585,10190"/>
 <path fill="none" stroke="rgb(0,0,0)" stroke-linejoin="round" d="M 4585,10340 L 4585,10190"/>
 <path fill="none" stroke="rgb(0,0,0)" stroke-linejoin="round" d="M 4706,10340 L 4706,10190"/>
 <path fill="none" stroke="rgb(0,0,0)" stroke-linejoin="round" d="M 4706,10340 L 4706,10190"/>
 <path fill="none" stroke="rgb(0,0,0)" stroke-linejoin="round" d="M 4828,10340 L 4828,10190"/>
 <path fill="none" stroke="rgb(0,0,0)" stroke-linejoin="round" d="M 4828,10340 L 4828,10190"/>
 <path fill="none" stroke="rgb(0,0,0)" stroke-linejoin="round" d="M 4949,10340 L 4949,10190"/>
 <path fill="none" stroke="rgb(0,0,0)" stroke-linejoin="round" d="M 4949,10340 L 4949,10190"/>
 <path fill="none" stroke="rgb(0,0,0)" stroke-linejoin="round" d="M 5070,10340 L 5070,10190"/>
 <path fill="none" stroke="rgb(0,0,0)" stroke-linejoin="round" d="M 5070,10340 L 5070,10190"/>
 <path fill="none" stroke="rgb(0,0,0)" stroke-linejoin="round" d="M 5192,10340 L 5192,10190"/>
 <path fill="none" stroke="rgb(0,0,0)" stroke-linejoin="round" d="M 5192,10340 L 5192,10190"/>
 <path fill="none" stroke="rgb(0,0,0)" stroke-linejoin="round" d="M 5313,10340 L 5313,10190"/>
 <path fill="none" stroke="rgb(0,0,0)" stroke-linejoin="round" d="M 5313,10340 L 5313,10190"/>
 <path fill="none" stroke="rgb(0,0,0)" stroke-linejoin="round" d="M 5435,10340 L 5435,10190"/>
 <path fill="none" stroke="rgb(0,0,0)" stroke-linejoin="round" d="M 5435,10340 L 5435,10190"/>
 <path fill="none" stroke="rgb(0,0,0)" stroke-linejoin="round" d="M 5556,10340 L 5556,10190"/>
 <path fill="none" stroke="rgb(0,0,0)" stroke-linejoin="round" d="M 5556,10340 L 5556,10190"/>
 <path fill="none" stroke="rgb(0,0,0)" stroke-linejoin="round" d="M 5677,10340 L 5677,10190"/>
 <path fill="none" stroke="rgb(0,0,0)" stroke-linejoin="round" d="M 5677,10340 L 5677,10190"/>
 <path fill="none" stroke="rgb(0,0,0)" stroke-linejoin="round" d="M 5799,10340 L 5799,10190"/>
 <path fill="none" stroke="rgb(0,0,0)" stroke-linejoin="round" d="M 5799,10340 L 5799,10190"/>
 <path fill="none" stroke="rgb(0,0,0)" stroke-linejoin="round" d="M 5920,10340 L 5920,10190"/>
 <path fill="none" stroke="rgb(0,0,0)" stroke-linejoin="round" d="M 5920,10340 L 5920,10190"/>
 <path fill="none" stroke="rgb(0,0,0)" stroke-linejoin="round" d="M 6042,10340 L 6042,10190"/>
 <path fill="none" stroke="rgb(0,0,0)" stroke-linejoin="round" d="M 6042,10340 L 6042,10190"/>
 <path fill="none" stroke="rgb(0,0,0)" stroke-linejoin="round" d="M 6163,10340 L 6163,10190"/>
 <path fill="none" stroke="rgb(0,0,0)" stroke-linejoin="round" d="M 6163,10340 L 6163,10190"/>
 <path fill="none" stroke="rgb(0,0,0)" stroke-linejoin="round" d="M 6285,10340 L 6285,10190"/>
 <path fill="none" stroke="rgb(0,0,0)" stroke-linejoin="round" d="M 6285,10340 L 6285,10190"/>
 <path fill="none" stroke="rgb(0,0,0)" stroke-linejoin="round" d="M 6406,10340 L 6406,10190"/>
 <path fill="none" stroke="rgb(0,0,0)" stroke-linejoin="round" d="M 6406,10340 L 6406,10190"/>
 <path fill="none" stroke="rgb(0,0,0)" stroke-linejoin="round" d="M 6527,10340 L 6527,10190"/>
 <path fill="none" stroke="rgb(0,0,0)" stroke-linejoin="round" d="M 6527,10340 L 6527,10190"/>
 <path fill="none" stroke="rgb(0,0,0)" stroke-linejoin="round" d="M 6649,10340 L 6649,10190"/>
 <path fill="none" stroke="rgb(0,0,0)" stroke-linejoin="round" d="M 6649,10340 L 6649,10190"/>
 <path fill="none" stroke="rgb(0,0,0)" stroke-linejoin="round" d="M 6770,10340 L 6770,10190"/>
 <path fill="none" stroke="rgb(0,0,0)" stroke-linejoin="round" d="M 6770,10340 L 6770,10190"/>
 <path fill="none" stroke="rgb(0,0,0)" stroke-linejoin="round" d="M 6892,10340 L 6892,10190"/>
 <path fill="none" stroke="rgb(0,0,0)" stroke-linejoin="round" d="M 6892,10340 L 6892,10190"/>
 <path fill="none" stroke="rgb(0,0,0)" stroke-linejoin="round" d="M 7013,10340 L 7013,10190"/>
 <path fill="none" stroke="rgb(0,0,0)" stroke-linejoin="round" d="M 7013,10340 L 7013,10190"/>
 <path fill="none" stroke="rgb(0,0,0)" stroke-linejoin="round" d="M 7134,10340 L 7134,10190"/>
 <path fill="none" stroke="rgb(0,0,0)" stroke-linejoin="round" d="M 7134,10340 L 7134,10190"/>
 <path fill="none" stroke="rgb(0,0,0)" stroke-linejoin="round" d="M 7256,10340 L 7256,10190"/>
 <path fill="none" stroke="rgb(0,0,0)" stroke-linejoin="round" d="M 7256,10340 L 7256,10190"/>
 <path fill="none" stroke="rgb(0,0,0)" stroke-linejoin="round" d="M 7377,10340 L 7377,10190"/>
 <path fill="none" stroke="rgb(0,0,0)" stroke-linejoin="round" d="M 7377,10340 L 7377,10190"/>
 <path fill="none" stroke="rgb(0,0,0)" stroke-linejoin="round" d="M 7499,10340 L 7499,10190"/>
 <path fill="none" stroke="rgb(0,0,0)" stroke-linejoin="round" d="M 7499,10340 L 7499,10190"/>
 <path fill="none" stroke="rgb(0,0,0)" stroke-linejoin="round" d="M 7620,10340 L 7620,10190"/>
 <path fill="none" stroke="rgb(0,0,0)" stroke-linejoin="round" d="M 7620,10340 L 7620,10190"/>
 <path fill="none" stroke="rgb(0,0,0)" stroke-linejoin="round" d="M 7742,10340 L 7742,10190"/>
 <path fill="none" stroke="rgb(0,0,0)" stroke-linejoin="round" d="M 7742,10340 L 7742,10190"/>
 <path fill="none" stroke="rgb(0,0,0)" stroke-linejoin="round" d="M 7863,10340 L 7863,10190"/>
 <path fill="none" stroke="rgb(0,0,0)" stroke-linejoin="round" d="M 7863,10340 L 7863,10190"/>
 <path fill="none" stroke="rgb(0,0,0)" stroke-linejoin="round" d="M 7983,10340 L 7983,10190"/>
 <path fill="none" stroke="rgb(0,0,0)" stroke-linejoin="round" d="M 7983,10340 L 7983,10190"/>
 <path fill="none" stroke="rgb(0,0,0)" stroke-linejoin="round" d="M 8105,10340 L 8105,10190"/>
 <path fill="none" stroke="rgb(0,0,0)" stroke-linejoin="round" d="M 8105,10340 L 8105,10190"/>
 <path fill="none" stroke="rgb(0,0,0)" stroke-linejoin="round" d="M 8226,10340 L 8226,10190"/>
 <path fill="none" stroke="rgb(0,0,0)" stroke-linejoin="round" d="M 8226,10340 L 8226,10190"/>
 <path fill="none" stroke="rgb(0,0,0)" stroke-linejoin="round" d="M 8348,10340 L 8348,10190"/>
 <path fill="none" stroke="rgb(0,0,0)" stroke-linejoin="round" d="M 8348,10340 L 8348,10190"/>
 <path fill="none" stroke="rgb(0,0,0)" stroke-linejoin="round" d="M 8469,10340 L 8469,10190"/>
 <path fill="none" stroke="rgb(0,0,0)" stroke-linejoin="round" d="M 8469,10340 L 8469,10190"/>
 <path fill="none" stroke="rgb(0,0,0)" stroke-linejoin="round" d="M 8591,10340 L 8591,10190"/>
 <path fill="none" stroke="rgb(0,0,0)" stroke-linejoin="round" d="M 8591,10340 L 8591,10190"/>
 <path fill="none" stroke="rgb(0,0,0)" stroke-linejoin="round" d="M 8712,10340 L 8712,10190"/>
 <path fill="none" stroke="rgb(0,0,0)" stroke-linejoin="round" d="M 8712,10340 L 8712,10190"/>
 <path fill="none" stroke="rgb(0,0,0)" stroke-linejoin="round" d="M 8833,10340 L 8833,10190"/>
 <path fill="none" stroke="rgb(0,0,0)" stroke-linejoin="round" d="M 8833,10340 L 8833,10190"/>
 <path fill="none" stroke="rgb(0,0,0)" stroke-linejoin="round" d="M 8955,10340 L 8955,10190"/>
 <path fill="none" stroke="rgb(0,0,0)" stroke-linejoin="round" d="M 8955,10340 L 8955,10190"/>
 <path fill="none" stroke="rgb(0,0,0)" stroke-linejoin="round" d="M 9076,10340 L 9076,10190"/>
 <path fill="none" stroke="rgb(0,0,0)" stroke-linejoin="round" d="M 9076,10340 L 9076,10190"/>
 <path fill="none" stroke="rgb(0,0,0)" stroke-linejoin="round" d="M 9198,10340 L 9198,10190"/>
 <path fill="none" stroke="rgb(0,0,0)" stroke-linejoin="round" d="M 9198,10340 L 9198,10190"/>
 <path fill="none" stroke="rgb(0,0,0)" stroke-linejoin="round" d="M 9319,10340 L 9319,10190"/>
 <path fill="none" stroke="rgb(0,0,0)" stroke-linejoin="round" d="M 9319,10340 L 9319,10190"/>
 <path fill="none" stroke="rgb(0,0,0)" stroke-linejoin="round" d="M 9440,10340 L 9440,10190"/>
 <path fill="none" stroke="rgb(0,0,0)" stroke-linejoin="round" d="M 9440,10340 L 9440,10190"/>
 <path fill="none" stroke="rgb(0,0,0)" stroke-linejoin="round" d="M 9562,10340 L 9562,10190"/>
 <path fill="none" stroke="rgb(0,0,0)" stroke-linejoin="round" d="M 9562,10340 L 9562,10190"/>
 <path fill="none" stroke="rgb(0,0,0)" stroke-linejoin="round" d="M 9683,10340 L 9683,10190"/>
 <path fill="none" stroke="rgb(0,0,0)" stroke-linejoin="round" d="M 9683,10340 L 9683,10190"/>
 <path fill="none" stroke="rgb(0,0,0)" stroke-linejoin="round" d="M 9805,10340 L 9805,10190"/>
 <path fill="none" stroke="rgb(0,0,0)" stroke-linejoin="round" d="M 9805,10340 L 9805,10190"/>
 <path fill="none" stroke="rgb(0,0,0)" stroke-linejoin="round" d="M 9926,10340 L 9926,10190"/>
 <path fill="none" stroke="rgb(0,0,0)" stroke-linejoin="round" d="M 9926,10340 L 9926,10190"/>
 <path fill="none" stroke="rgb(0,0,0)" stroke-linejoin="round" d="M 10048,10340 L 10048,10190"/>
 <path fill="none" stroke="rgb(0,0,0)" stroke-linejoin="round" d="M 10048,10340 L 10048,10190"/>
 <path fill="none" stroke="rgb(0,0,0)" stroke-linejoin="round" d="M 10169,10340 L 10169,10190"/>
 <path fill="none" stroke="rgb(0,0,0)" stroke-linejoin="round" d="M 10169,10340 L 10169,10190"/>
 <path fill="none" stroke="rgb(0,0,0)" stroke-linejoin="round" d="M 10290,10340 L 10290,10190"/>
 <path fill="none" stroke="rgb(0,0,0)" stroke-linejoin="round" d="M 10290,10340 L 10290,10190"/>
 <path fill="none" stroke="rgb(0,0,0)" stroke-linejoin="round" d="M 10412,10340 L 10412,10190"/>
 <path fill="none" stroke="rgb(0,0,0)" stroke-linejoin="round" d="M 10412,10340 L 10412,10190"/>
 <path fill="none" stroke="rgb(0,0,0)" stroke-linejoin="round" d="M 10533,10340 L 10533,10190"/>
 <path fill="none" stroke="rgb(0,0,0)" stroke-linejoin="round" d="M 10533,10340 L 10533,10190"/>
 <path fill="none" stroke="rgb(0,0,0)" stroke-linejoin="round" d="M 10655,10340 L 10655,10190"/>
 <path fill="none" stroke="rgb(0,0,0)" stroke-linejoin="round" d="M 10655,10340 L 10655,10190"/>
 <path fill="none" stroke="rgb(0,0,0)" stroke-linejoin="round" d="M 10776,10340 L 10776,10190"/>
 <path fill="none" stroke="rgb(0,0,0)" stroke-linejoin="round" d="M 10776,10340 L 10776,10190"/>
 <path fill="none" stroke="rgb(0,0,0)" stroke-linejoin="round" d="M 10897,10340 L 10897,10190"/>
 <path fill="none" stroke="rgb(0,0,0)" stroke-linejoin="round" d="M 10897,10340 L 10897,10190"/>
 <path fill="none" stroke="rgb(0,0,0)" stroke-linejoin="round" d="M 11019,10340 L 11019,10190"/>
 <path fill="none" stroke="rgb(0,0,0)" stroke-linejoin="round" d="M 11019,10340 L 11019,10190"/>
 <path fill="none" stroke="rgb(0,0,0)" stroke-linejoin="round" d="M 11140,10340 L 11140,10190"/>
 <path fill="none" stroke="rgb(0,0,0)" stroke-linejoin="round" d="M 11140,10340 L 11140,10190"/>
 <path fill="none" stroke="rgb(0,0,0)" stroke-linejoin="round" d="M 11262,10340 L 11262,10190"/>
 <path fill="none" stroke="rgb(0,0,0)" stroke-linejoin="round" d="M 11262,10340 L 11262,10190"/>
 <path fill="none" stroke="rgb(0,0,0)" stroke-linejoin="round" d="M 11383,10340 L 11383,10190"/>
 <path fill="none" stroke="rgb(0,0,0)" stroke-linejoin="round" d="M 11383,10340 L 11383,10190"/>
 <path fill="none" stroke="rgb(0,0,0)" stroke-linejoin="round" d="M 11505,10340 L 11505,10190"/>
 <path fill="none" stroke="rgb(0,0,0)" stroke-linejoin="round" d="M 11505,10340 L 11505,10190"/>
 <path fill="none" stroke="rgb(0,0,0)" stroke-linejoin="round" d="M 11626,10340 L 11626,10190"/>
 <path fill="none" stroke="rgb(0,0,0)" stroke-linejoin="round" d="M 11626,10340 L 11626,10190"/>
 <path fill="none" stroke="rgb(0,0,0)" stroke-linejoin="round" d="M 11747,10340 L 11747,10190"/>
 <path fill="none" stroke="rgb(0,0,0)" stroke-linejoin="round" d="M 11747,10340 L 11747,10190"/>
 <path fill="none" stroke="rgb(0,0,0)" stroke-linejoin="round" d="M 11869,10340 L 11869,10190"/>
 <path fill="none" stroke="rgb(0,0,0)" stroke-linejoin="round" d="M 11869,10340 L 11869,10190"/>
 <path fill="none" stroke="rgb(0,0,0)" stroke-linejoin="round" d="M 11990,10340 L 11990,10190"/>
 <path fill="none" stroke="rgb(0,0,0)" stroke-linejoin="round" d="M 11990,10340 L 11990,10190"/>
 <path fill="none" stroke="rgb(0,0,0)" stroke-linejoin="round" d="M 12112,10340 L 12112,10190"/>
 <path fill="none" stroke="rgb(0,0,0)" stroke-linejoin="round" d="M 12112,10340 L 12112,10190"/>
 <path fill="none" stroke="rgb(0,0,0)" stroke-linejoin="round" d="M 12233,10340 L 12233,10190"/>
 <path fill="none" stroke="rgb(0,0,0)" stroke-linejoin="round" d="M 12233,10340 L 12233,10190"/>
 <path fill="none" stroke="rgb(0,0,0)" stroke-linejoin="round" d="M 12355,10340 L 12355,10190"/>
 <path fill="none" stroke="rgb(0,0,0)" stroke-linejoin="round" d="M 12355,10340 L 12355,10190"/>
 <path fill="none" stroke="rgb(0,0,0)" stroke-linejoin="round" d="M 12476,10340 L 12476,10190"/>
 <path fill="none" stroke="rgb(0,0,0)" stroke-linejoin="round" d="M 12476,10340 L 12476,10190"/>
 <path fill="none" stroke="rgb(0,0,0)" stroke-linejoin="round" d="M 12597,10340 L 12597,10190"/>
 <path fill="none" stroke="rgb(0,0,0)" stroke-linejoin="round" d="M 12597,10340 L 12597,10190"/>
 <path fill="none" stroke="rgb(0,0,0)" stroke-linejoin="round" d="M 12719,10340 L 12719,10190"/>
 <path fill="none" stroke="rgb(0,0,0)" stroke-linejoin="round" d="M 12719,10340 L 12719,10190"/>
 <path fill="none" stroke="rgb(0,0,0)" stroke-linejoin="round" d="M 12840,10340 L 12840,10190"/>
 <path fill="none" stroke="rgb(0,0,0)" stroke-linejoin="round" d="M 12840,10340 L 12840,10190"/>
 <path fill="none" stroke="rgb(0,0,0)" stroke-linejoin="round" d="M 12962,10340 L 12962,10190"/>
 <path fill="none" stroke="rgb(0,0,0)" stroke-linejoin="round" d="M 12962,10340 L 12962,10190"/>
 <path fill="none" stroke="rgb(0,0,0)" stroke-linejoin="round" d="M 13083,10340 L 13083,10190"/>
 <path fill="none" stroke="rgb(0,0,0)" stroke-linejoin="round" d="M 13083,10340 L 13083,10190"/>
 <path fill="none" stroke="rgb(0,0,0)" stroke-linejoin="round" d="M 13204,10340 L 13204,10190"/>
 <path fill="none" stroke="rgb(0,0,0)" stroke-linejoin="round" d="M 13204,10340 L 13204,10190"/>
 <path fill="none" stroke="rgb(0,0,0)" stroke-linejoin="round" d="M 13326,10340 L 13326,10190"/>
 <path fill="none" stroke="rgb(0,0,0)" stroke-linejoin="round" d="M 13326,10340 L 13326,10190"/>
 <path fill="none" stroke="rgb(0,0,0)" stroke-linejoin="round" d="M 13447,10340 L 13447,10190"/>
 <path fill="none" stroke="rgb(0,0,0)" stroke-linejoin="round" d="M 13447,10340 L 13447,10190"/>
 <path fill="none" stroke="rgb(0,0,0)" stroke-linejoin="round" d="M 13569,10340 L 13569,10190"/>
 <path fill="none" stroke="rgb(0,0,0)" stroke-linejoin="round" d="M 13569,10340 L 13569,10190"/>
 <path fill="none" stroke="rgb(0,0,0)" stroke-linejoin="round" d="M 13690,10340 L 13690,10190"/>
 <path fill="none" stroke="rgb(0,0,0)" stroke-linejoin="round" d="M 13690,10340 L 13690,10190"/>
 <path fill="none" stroke="rgb(0,0,0)" stroke-linejoin="round" d="M 13812,10340 L 13812,10190"/>
 <path fill="none" stroke="rgb(0,0,0)" stroke-linejoin="round" d="M 13812,10340 L 13812,10190"/>
 <path fill="none" stroke="rgb(0,0,0)" stroke-linejoin="round" d="M 13933,10340 L 13933,10190"/>
 <path fill="none" stroke="rgb(0,0,0)" stroke-linejoin="round" d="M 13933,10340 L 13933,10190"/>
 <path fill="none" stroke="rgb(0,0,0)" stroke-linejoin="round" d="M 14054,10340 L 14054,10190"/>
 <path fill="none" stroke="rgb(0,0,0)" stroke-linejoin="round" d="M 14054,10340 L 14054,10190"/>
 <path fill="none" stroke="rgb(0,0,0)" stroke-linejoin="round" d="M 14176,10340 L 14176,10190"/>
 <path fill="none" stroke="rgb(0,0,0)" stroke-linejoin="round" d="M 14176,10340 L 14176,10190"/>
 <path fill="none" stroke="rgb(0,0,0)" stroke-linejoin="round" d="M 14297,10340 L 14297,10190"/>
 <path fill="none" stroke="rgb(0,0,0)" stroke-linejoin="round" d="M 14297,10340 L 14297,10190"/>
 <path fill="none" stroke="rgb(0,0,0)" stroke-linejoin="round" d="M 14419,10340 L 14419,10190"/>
 <path fill="none" stroke="rgb(0,0,0)" stroke-linejoin="round" d="M 14419,10340 L 14419,10190"/>
 <path fill="none" stroke="rgb(0,0,0)" stroke-linejoin="round" d="M 14540,10340 L 14540,10190"/>
 <path fill="none" stroke="rgb(0,0,0)" stroke-linejoin="round" d="M 14540,10340 L 14540,10190"/>
 <path fill="none" stroke="rgb(0,0,0)" stroke-linejoin="round" d="M 14662,10340 L 14662,10190"/>
 <path fill="none" stroke="rgb(0,0,0)" stroke-linejoin="round" d="M 14662,10340 L 14662,10190"/>
 <path fill="none" stroke="rgb(0,0,0)" stroke-linejoin="round" d="M 1064,10190 L 14662,10190"/>
 <path fill="none" stroke="rgb(0,0,0)" stroke-linejoin="round" d="M 914,10190 L 1064,10190"/>
 <path fill="none" stroke="rgb(0,0,0)" stroke-linejoin="round" d="M 914,10190 L 1064,10190"/>
 <path fill="none" stroke="rgb(0,0,0)" stroke-linejoin="round" d="M 914,8647 L 1064,8647"/>
 <path fill="none" stroke="rgb(0,0,0)" stroke-linejoin="round" d="M 914,8647 L 1064,8647"/>
 <path fill="none" stroke="rgb(0,0,0)" stroke-linejoin="round" d="M 914,7105 L 1064,7105"/>
 <path fill="none" stroke="rgb(0,0,0)" stroke-linejoin="round" d="M 914,7105 L 1064,7105"/>
 <path fill="none" stroke="rgb(0,0,0)" stroke-linejoin="round" d="M 914,5564 L 1064,5564"/>
 <path fill="none" stroke="rgb(0,0,0)" stroke-linejoin="round" d="M 914,5564 L 1064,5564"/>
 <path fill="none" stroke="rgb(0,0,0)" stroke-linejoin="round" d="M 914,4021 L 1064,4021"/>
 <path fill="none" stroke="rgb(0,0,0)" stroke-linejoin="round" d="M 914,4021 L 1064,4021"/>
 <path fill="none" stroke="rgb(0,0,0)" stroke-linejoin="round" d="M 914,2479 L 1064,2479"/>
 <path fill="none" stroke="rgb(0,0,0)" stroke-linejoin="round" d="M 914,2479 L 1064,2479"/>
 <path fill="none" stroke="rgb(0,0,0)" stroke-linejoin="round" d="M 914,937 L 1064,937"/>
 <path fill="none" stroke="rgb(0,0,0)" stroke-linejoin="round" d="M 914,937 L 1064,937"/>
 <path fill="none" stroke="rgb(0,0,0)" stroke-linejoin="round" d="M 1064,10190 L 1064,937"/>
 <path fill="none" stroke="rgb(0,0,0)" stroke-linejoin="round" d="M 14812,10190 L 14662,10190"/>
 <path fill="none" stroke="rgb(0,0,0)" stroke-linejoin="round" d="M 14812,10190 L 14662,10190"/>
 <path fill="none" stroke="rgb(0,0,0)" stroke-linejoin="round" d="M 14812,8647 L 14662,8647"/>
 <path fill="none" stroke="rgb(0,0,0)" stroke-linejoin="round" d="M 14812,8647 L 14662,8647"/>
 <path fill="none" stroke="rgb(0,0,0)" stroke-linejoin="round" d="M 14812,7105 L 14662,7105"/>
 <path fill="none" stroke="rgb(0,0,0)" stroke-linejoin="round" d="M 14812,7105 L 14662,7105"/>
 <path fill="none" stroke="rgb(0,0,0)" stroke-linejoin="round" d="M 14812,5564 L 14662,5564"/>
 <path fill="none" stroke="rgb(0,0,0)" stroke-linejoin="round" d="M 14812,5564 L 14662,5564"/>
 <path fill="none" stroke="rgb(0,0,0)" stroke-linejoin="round" d="M 14812,4021 L 14662,4021"/>
 <path fill="none" stroke="rgb(0,0,0)" stroke-linejoin="round" d="M 14812,4021 L 14662,4021"/>
 <path fill="none" stroke="rgb(0,0,0)" stroke-linejoin="round" d="M 14812,2479 L 14662,2479"/>
 <path fill="none" stroke="rgb(0,0,0)" stroke-linejoin="round" d="M 14812,2479 L 14662,2479"/>
 <path fill="none" stroke="rgb(0,0,0)" stroke-linejoin="round" d="M 14812,937 L 14662,937"/>
 <path fill="none" stroke="rgb(0,0,0)" stroke-linejoin="round" d="M 14812,937 L 14662,937"/>
 <path fill="none" stroke="rgb(0,0,0)" stroke-linejoin="round" d="M 14662,10190 L 14662,937"/>
 <path fill="none" stroke="rgb(131,202,255)" stroke-width="80" stroke-linejoin="round" d="M 1064,2144 L 1185,2784 1306,2736 1428,3057 1549,3346 1671,3356 1792,3682 1913,3887 2035,3927 2156,3993 2278,4208 2399,4482 2521,4800 2642,4951 2763,5146 2885,5238 3006,5351 3128,5530 3249,5540 3370,5574 3492,5716 3613,5987 3735,6155 3856,6349 3978,6542 4099,6730 4220,6886 4342,6923 4463,7150 4585,7312 4706,7403 4828,7401 4949,7435 5070,7569 5192,7671 5313,7723 5435,7941 5556,8060 5677,8334 5799,8336 5920,8403 6042,8431 6163,8504 6285,8547 6406,8695 6527,8711 6649,8885 6770,9048 6892,8995 7013,9101 7134,9014 7256,9191 7377,9078 7499,9161 7620,9313 7742,9353 7863,9412 7983,9222 8105,9178 8226,9244 8348,9293 8469,9296 8591,9284 8712,9348 8833,9363 8955,9340 9076,9369 9198,9358 9319,9371 9440,9385 9562,9528 9683,9528 9805,9536 9926,9602 10048,9601 10169,9596 10290,9652 10412,9712 10533,9742 10655,9706 10776,9748 10897,9767 11019,9773 11140,9976 11262,10069 11383,10052 11505,10032 11626,10027 11747,10068 11869,10080 11990,10084 12112,10126"/>
 <path fill="none" stroke="rgb(0,184,255)" stroke-width="80" stroke-linejoin="round" d="M 1064,6045 L 1185,5500 1306,5636 1428,5377 1549,5156 1671,5125 1792,5047 1913,4917 2035,4854 2156,4845 2278,4826 2399,4664 2521,4678 2642,4712 2763,4660 2885,4672 3006,4769 3128,4985 3249,5385 3370,5932 3492,6540 3613,6846 3735,7126 3856,7318 3978,7507 4099,7706 4220,7856 4342,8013 4463,8064 4585,8172 4706,8248 4828,8292 4949,8346 5070,8447 5192,8531 5313,8609 5435,8661 5556,8789 5677,8869 5799,8902 5920,8946 6042,9031 6163,9082 6285,9158 6406,9209 6527,9267 6649,9302 6770,9404 6892,9431 7013,9507 7134,9502 7256,9519 7377,9550 7499,9599 7620,9703 7742,9752 7863,9719 7983,9811 8105,9838 8226,9869 8348,9879 8469,9900 8591,9901 8712,9922 8833,9932 8955,9943 9076,9947 9198,9960 9319,9980 9440,9986 9562,10003 9683,10014 9805,10011 9926,9906 10048,9873 10169,9951 10290,10086 10412,10098 10533,10104 10655,10100 10776,10111 10897,10116 11019,10103 11140,10123 11262,10125 11383,10050 11505,10078 11626,10121"/>
 <path fill="none" stroke="rgb(0,132,209)" stroke-width="80" stroke-linejoin="round" d="M 2278,10131 L 2399,10099 2521,10078 2642,10063 2763,10045 2885,10011 3006,9920 3128,9630 3249,9168 3370,8556 3492,7893 3613,7427 3735,7173 3856,6954 3978,6724 4099,6482 4220,6257 4342,6156 4463,6021 4585,5858 4706,5733 4828,5591 4949,5440 5070,5267 5192,5213 5313,5175 5435,5036 5556,5010 5677,4828 5799,4687 5920,4778 6042,5002 6163,5281 6285,5474 6406,5605 6527,5793 6649,5797 6770,5920 6892,6090 7013,6254 7134,6285 7256,6163 7377,6475 7499,6407 7620,6346 7742,6427 7863,6552 7983,6662 8105,6816 8226,6812 8348,6818 8469,7001 8591,7003 8712,7082 8833,7102 8955,7037 9076,7060 9198,7113 9319,7036 9440,7323 9562,7281 9683,7268 9805,7300 9926,7452 10048,7431 10169,7419 10290,7454 10412,7522 10533,7560 10655,7492 10776,7482 10897,7474 11019,7324 11140,7985 11262,8280 11383,7674 11505,7850 11626,7811 11747,8038 11869,8279 11990,8352 12112,8523 12233,8597 12355,8845 12476,8806 12597,8833 12719,8940 12840,9154 12962,9292 13083,9266 13204,9376 13326,9632 13447,9539 13569,9610 13690,9659 13812,9736 13933,9812 14054,9877 14176,9867 14297,9863 14419,9851 14540,9861 14662,9875"/>
 <path fill="none" stroke="rgb(0,71,255)" stroke-width="80" stroke-linejoin="round" d="M 5435,10131 L 5556,10119 5677,10112 5799,10099 5920,10029 6042,9818 6163,9543 6285,9321 6406,9141 6527,9052 6649,8930 6770,8767 6892,8720 7013,8559 7134,8556 7256,8388 7377,8021 7499,7917 7620,7771 7742,7646 7863,7583 7983,7612 8105,7457 8226,7406 8348,7312 8469,7249 8591,7336 8712,7285 8833,7423 8955,7688 9076,8073 9198,8577 9319,8868 9440,8975 9562,8890 9683,8906 9805,8947 9926,8990 10048,9022 10169,9056 10290,9039 10412,9030 10533,9038 10655,9032 10776,9040 10897,9007 11019,8978 11140,9075 11262,9027 11383,8998 11505,9125 11626,9179 11747,9148 11869,9225 11990,9247 12112,9359 12233,9305 12355,9327 12476,9457 12597,9416 12719,9397 12840,9418 12962,9516 13083,9592 13204,9696 13326,9590 13447,9771 13569,9808 13690,9830 13812,9886 13933,9689 14054,9500 14176,9619 14297,9634 14419,9738 14540,9871 14662,10020"/>
 <path fill="none" stroke="rgb(40,0,153)" stroke-width="80" stroke-linejoin="round" d="M 8226,10171 L 8348,10119 8469,10056 8591,10012 8712,9973 8833,9792 8955,9360 9076,8916 9198,8338 9319,8116 9440,7704 9562,7532 9683,7632 9805,7846 9926,8702 10048,8964 10169,9134 10290,9231 10412,9288 10533,9294 10655,9342 10776,9352 10897,9354 11019,9438 11140,9385 11262,9212 11383,9411 11505,9486 11626,9492 11747,9516 11869,9566 11990,9521 12112,9493 12233,9551 12355,9650 12476,9625 12597,9655 12719,9651 12840,9691 12962,9787 13083,9833 13204,9867 13326,9563 13447,9843 13569,9921 13690,9931 13812,9975 13933,10017 14054,10046 14176,10087 14297,10084 14419,10100 14540,10098 14662,10087"/>
 <path fill="none" stroke="rgb(35,0,220)" stroke-width="80" stroke-linejoin="round" d="M 9440,10155 L 9562,10065 9683,9989 9805,9754 9926,8807 10048,8700 10169,8558 10290,8157 10412,8065 10533,8045 10655,8030 10776,8077 10897,7954 11019,7965 11140,7101 11262,6945 11383,7383 11505,7439 11626,7304 11747,7132 11869,7163 11990,6903 12112,6800 12233,6871 12355,6819 12476,7140 12597,7272 12719,7159 12840,7166 12962,7229 13083,7503 13204,7611 13326,8049 13447,8117 13569,7972 13690,8130 13812,8199 13933,8594 14054,8846 14176,8870 14297,9036 14419,9045 14540,8959 14662,8940"/>
 <path fill="none" stroke="rgb(131,202,255)" stroke-width="80" stroke-linejoin="round" d="M 12233,10172 L 12355,9940 12476,9906 12597,9880 12719,9854 12840,9859 12962,9831 13083,9730 13204,9702 13326,9697 13447,9633 13569,9585 13690,9598 13812,9605 13933,9655 14054,9619 14176,9627 14297,9633 14419,9620 14540,9616 14662,9648"/>
 <path fill="none" stroke="rgb(255,211,32)" stroke-width="80" stroke-linejoin="round" d="M 2156,10190 L 2278,10020 2399,10035 2521,10017 2642,9975 2763,9954 2885,9952 3006,9943 3128,9913 3249,9856 3370,9822 3492,9795 3613,9755 3735,9704 3856,9640 3978,9586 4099,9483 4220,9395 4342,9327 4463,9249 4585,9156 4706,9118 4828,9084 4949,9094 5070,9045 5192,8966 5313,8903 5435,8777 5556,8664 5677,8556 5799,8516 5920,8422 6042,8379 6163,8286 6285,8203 6406,8175 6527,7829 6649,7728 6770,7494 6892,7456 7013,7329 7134,7361 7256,7376 7377,7435 7499,7375 7620,7238 7742,7300 7863,7376 7983,7284 8105,7339 8226,7298 8348,7491 8469,7465 8591,7547 8712,7652 8833,7680 8955,7661 9076,7751 9198,7552 9319,7455 9440,7620 9562,7629 9683,7668 9805,7582 9926,7435 10048,7383 10169,7254 10290,7167 10412,7291 10533,7039 10655,6806 10776,6672 10897,6815 11019,6750 11140,6631 11262,6596 11383,6418 11505,6124 11626,6051 11747,5999 11869,5607 11990,5699 12112,5562 12233,5459 12355,5235 12476,5061 12597,4914 12719,4790 12840,4667 12962,4320 13083,4141 13204,3679 13326,3352 13447,2413 13569,2510 13690,2252 13812,1858 13933,1703 14054,1751 14176,1634 14297,1661 14419,1547 14540,1345 14662,1513"/>
 <path fill="none" stroke="rgb(87,157,28)" stroke-width="80" stroke-linejoin="round" d="M 1064,9833 L 1185,9810 1306,9785 1428,9784 1549,9775 1671,9795 1792,9748 1913,9765 2035,9784 2156,9775 2278,9758 2399,9750 2521,9718 2642,9668 2763,9634 2885,9662 3006,9631 3128,9651 3249,9625 3370,9610 3492,9573 3613,9571 3735,9543 3856,9523 3978,9531 4099,9517 4220,9509 4342,9514 4463,9483 4585,9472 4706,9474 4828,9454 4949,9428 5070,9412 5192,9406 5313,9395 5435,9360 5556,9310 5677,9246 5799,9239 5920,9201 6042,9119 6163,9101 6285,9081 6406,8991 6527,9024 6649,8961 6770,8882 6892,8914 7013,8861 7134,8767 7256,8767 7377,8819 7499,8795 7620,8788 7742,8703 7863,8693 7983,8543 8105,8577 8226,8550 8348,8498 8469,8477 8591,8376 8712,8374 8833,8370 8955,8479 9076,8441 9198,8445 9319,8365 9440,8331 9562,8493 9683,8372 9805,8298 9926,8309 10048,8176 10169,8139 10290,8207 10412,8128 10533,8150 10655,8333 10776,8346 10897,8313 11019,8492 11140,8412 11262,8243 11383,8474 11505,8278 11626,8406 11747,8395 11869,8280 11990,8471 12112,8341 12233,8250 12355,8351 12476,8238 12597,8128 12719,8520 12840,8392 12962,8389 13083,8390 13204,8305 13326,8425 13447,8682 13569,8604 13690,8580 13812,8610 13933,8600 14054,8715 14176,8706 14297,8495 14419,8384 14540,8455 14662,8064"/>
 <path fill="none" stroke="rgb(220,35,0)" stroke-width="80" stroke-linejoin="round" d="M 1064,7964 L 1185,7837 1306,7802 1428,7757 1549,7709 1671,7740 1792,7591 1913,7813 2035,8328 2156,8579 2278,9313 2399,9395 2521,9411 2642,9577 2763,9713 2885,9795 3006,9838 3128,9872 3249,9909 3370,9935 3492,9966 3613,9978 3735,9998 3856,10014 3978,10028 4099,10052 4220,10068 4342,10075 4463,10091 4585,10103 4706,10105 4828,10119 4949,10125"/>
 <path fill="none" stroke="rgb(255,51,51)" stroke-width="80" stroke-linejoin="round" d="M 1549,10131 L 1671,10111 1792,10066 1913,9741 2035,9215 2156,8914 2278,8194 2399,8032 2521,7774 2642,7537 2763,7339 2885,7180 3006,7034 3128,6924 3249,7057 3370,7100 3492,7689 3613,8265 3735,8706 3856,8834 3978,8932 4099,9121 4220,9374 4342,9631 4463,9694 4585,9765 4706,9781 4828,9809 4949,9852 5070,9875 5192,9890 5313,9920 5435,9960 5556,9986 5677,9997 5799,10032 5920,10049 6042,10061 6163,10071 6285,10074 6406,10088 6527,10097 6649,10101 6770,10107 6892,10115 7013,10124"/>
 <path fill="none" stroke="rgb(184,0,71)" stroke-width="80" stroke-linejoin="round" d="M 3370,10112 L 3492,9483 3613,8815 3735,8234 3856,8041 3978,7851 4099,7674 4220,7552 4342,7947 4463,8741 4585,9292 4706,9380 4828,9455 4949,9580 5070,9664 5192,9691 5313,9770 5435,9822 5556,9847 5677,9867 5799,9889 5920,9923 6042,9946 6163,9977 6285,10020 6406,10088 6527,10100 6649,10114 6770,10114 6892,10119 7013,10121"/>
 <path fill="none" stroke="rgb(197,0,11)" stroke-width="80" stroke-linejoin="round" d="M 4099,10143 L 4220,10024 4342,9394 4463,8471 4585,7827 4706,7770 4828,7723 4949,7699 5070,7598 5192,7560 5313,7477 5435,7381 5556,7336 5677,7328 5799,7441 5920,7540 6042,8104 6163,8780 6285,9098 6406,9119 6527,9195 6649,9291 6770,9382 6892,9430 7013,9569 7134,9688 7256,9747 7377,9808 7499,9844 7620,9932 7742,9994 7863,10027 7983,10049 8105,10062 8226,10070 8348,10076 8469,10091 8591,10098 8712,10107 8833,10110 8955,10110 9076,10112 9198,10114 9319,10122"/>
 <path fill="none" stroke="rgb(197,0,11)" stroke-width="80" stroke-linejoin="round" d="M 5677,10112 L 5799,10092 5920,9930 6042,9352 6163,8635 6285,8260 6406,8188 6527,8151 6649,8036 6770,7918 6892,7947 7013,7880 7134,7928 7256,7802 7377,7854 7499,7819 7620,7772 7742,7652 7863,7643 7983,7608 8105,7588 8226,7622 8348,7555 8469,7629 8591,7632 8712,7644 8833,7632 8955,7559 9076,7518 9198,7751 9319,7783 9440,7764 9562,7759 9683,7776 9805,7832 9926,7855 10048,7961 10169,8050 10290,8086 10412,8134 10533,8202 10655,8386 10776,8457 10897,8415 11019,8564 11140,8646 11262,8655 11383,8832 11505,8858 11626,8870 11747,8855 11869,8939 11990,8874 12112,8845 12233,8901 12355,8913 12476,9012 12597,9036 12719,8939 12840,8982 12962,9103 13083,9074 13204,9250 13326,9381 13447,9459 13569,9498 13690,9480 13812,9498 13933,9395 14054,9139 14176,9095 14297,9066 14419,9083 14540,9133 14662,9208"/>
 <path fill="none" stroke="rgb(0,0,0)" stroke-width="80" stroke-linejoin="round" d="M 1064,9539 L 1185,9594 1306,9566 1428,9551 1549,9599 1671,9588 1792,9582 1913,9593 2035,9608 2156,9610 2278,9645 2399,9637 2521,9619 2642,9611 2763,9605 2885,9585 3006,9610 3128,9590 3249,9554 3370,9642 3492,9628 3613,9639 3735,9644 3856,9610 3978,9580 4099,9563 4220,9551 4342,9491 4463,9508 4585,9516 4706,9463 4828,9545 4949,9474 5070,9406 5192,9354 5313,9312 5435,9404 5556,9352 5677,9412 5799,9429 5920,9440 6042,9418 6163,9403 6285,9428 6406,9364 6527,9442 6649,9517 6770,9627 6892,9445 7013,9355 7134,9181 7256,9330 7377,9242 7499,9366 7620,9419 7742,9455 7863,9278 7983,9491 8105,9426 8226,9429 8348,9430 8469,9307 8591,9283 8712,9084 8833,9067 8955,9296 9076,9286 9198,9263 9319,9375 9440,9230 9562,9292 9683,9319 9805,9366 9926,9413 10048,9360 10169,9315 10290,9393 10412,9203 10533,9299 10655,9245 10776,9186 10897,9258 11019,9084 11140,9138 11262,9321 11383,9179 11505,9201 11626,9211 11747,9131 11869,9144 11990,9132 12112,9233 12233,9177 12355,9202 12476,9037 12597,9149 12719,9034 12840,8954 12962,8818 13083,8753 13204,8797 13326,8593 13447,8827 13569,8776 13690,8823 13812,8917 13933,8819 14054,8791 14176,8779 14297,8810 14419,8916 14540,8946 14662,8928"/>
 <text class="TextShape"><tspan class="TextParagraph" font-family="Liberation Sans, sans-serif" font-size="388px" font-weight="700"><tspan class="TextPosition" x="882" y="10784"><tspan fill="rgb(0,0,0)" stroke="none">2008</tspan></tspan></tspan></text>
 <text class="TextShape"><tspan class="TextParagraph" font-family="Liberation Sans, sans-serif" font-size="388px" font-weight="700"><tspan class="TextPosition" x="2339" y="10784"><tspan fill="rgb(0,0,0)" stroke="none">2009</tspan></tspan></tspan></text>
 <text class="TextShape"><tspan class="TextParagraph" font-family="Liberation Sans, sans-serif" font-size="388px" font-weight="700"><tspan class="TextPosition" x="3796" y="10784"><tspan fill="rgb(0,0,0)" stroke="none">2010</tspan></tspan></tspan></text>
 <text class="TextShape"><tspan class="TextParagraph" font-family="Liberation Sans, sans-serif" font-size="388px" font-weight="700"><tspan class="TextPosition" x="5253" y="10784"><tspan fill="rgb(0,0,0)" stroke="none">2011</tspan></tspan></tspan></text>
 <text class="TextShape"><tspan class="TextParagraph" font-family="Liberation Sans, sans-serif" font-size="388px" font-weight="700"><tspan class="TextPosition" x="6710" y="10784"><tspan fill="rgb(0,0,0)" stroke="none">2012</tspan></tspan></tspan></text>
 <text class="TextShape"><tspan class="TextParagraph" font-family="Liberation Sans, sans-serif" font-size="388px" font-weight="700"><tspan class="TextPosition" x="8168" y="10784"><tspan fill="rgb(0,0,0)" stroke="none">2013</tspan></tspan></tspan></text>
 <text class="TextShape"><tspan class="TextParagraph" font-family="Liberation Sans, sans-serif" font-size="388px" font-weight="700"><tspan class="TextPosition" x="9625" y="10784"><tspan fill="rgb(0,0,0)" stroke="none">2014</tspan></tspan></tspan></text>
 <text class="TextShape"><tspan class="TextParagraph" font-family="Liberation Sans, sans-serif" font-size="388px" font-weight="700"><tspan class="TextPosition" x="11082" y="10784"><tspan fill="rgb(0,0,0)" stroke="none">2015</tspan></tspan></tspan></text>
 <text class="TextShape"><tspan class="TextParagraph" font-family="Liberation Sans, sans-serif" font-size="388px" font-weight="700"><tspan class="TextPosition" x="12539" y="10784"><tspan fill="rgb(0,0,0)" stroke="none">2016</tspan></tspan></tspan></text>
 <text class="TextShape"><tspan class="TextParagraph" font-family="Liberation Sans, sans-serif" font-size="388px" font-weight="700"><tspan class="TextPosition" x="13996" y="10784"><tspan fill="rgb(0,0,0)" stroke="none">2017</tspan></tspan></tspan></text>
 <text class="TextShape"><tspan class="TextParagraph" font-family="Liberation Sans, sans-serif" font-size="388px" font-weight="700"><tspan class="TextPosition" x="258" y="10324"><tspan fill="rgb(0,0,0)" stroke="none">0%</tspan></tspan></tspan></text>
 <text class="TextShape"><tspan class="TextParagraph" font-family="Liberation Sans, sans-serif" font-size="388px" font-weight="700"><tspan class="TextPosition" x="47" y="8781"><tspan fill="rgb(0,0,0)" stroke="none">10%</tspan></tspan></tspan></text>
 <text class="TextShape"><tspan class="TextParagraph" font-family="Liberation Sans, sans-serif" font-size="388px" font-weight="700"><tspan class="TextPosition" x="47" y="7239"><tspan fill="rgb(0,0,0)" stroke="none">20%</tspan></tspan></tspan></text>
 <text class="TextShape"><tspan class="TextParagraph" font-family="Liberation Sans, sans-serif" font-size="388px" font-weight="700"><tspan class="TextPosition" x="47" y="5697"><tspan fill="rgb(0,0,0)" stroke="none">30%</tspan></tspan></tspan></text>
 <text class="TextShape"><tspan class="TextParagraph" font-family="Liberation Sans, sans-serif" font-size="388px" font-weight="700"><tspan class="TextPosition" x="47" y="4154"><tspan fill="rgb(0,0,0)" stroke="none">40%</tspan></tspan></tspan></text>
 <text class="TextShape"><tspan class="TextParagraph" font-family="Liberation Sans, sans-serif" font-size="388px" font-weight="700"><tspan class="TextPosition" x="47" y="2612"><tspan fill="rgb(0,0,0)" stroke="none">50%</tspan></tspan></tspan></text>
 <text class="TextShape"><tspan class="TextParagraph" font-family="Liberation Sans, sans-serif" font-size="388px" font-weight="700"><tspan class="TextPosition" x="47" y="1070"><tspan fill="rgb(0,0,0)" stroke="none">60%</tspan></tspan></tspan></text>
 <text class="TextShape"><tspan class="TextParagraph" font-family="Liberation Sans, sans-serif" font-size="388px" font-weight="700"><tspan class="TextPosition" x="14912" y="10324"><tspan fill="rgb(0,0,0)" stroke="none">0%</tspan></tspan></tspan></text>
 <text class="TextShape"><tspan class="TextParagraph" font-family="Liberation Sans, sans-serif" font-size="388px" font-weight="700"><tspan class="TextPosition" x="14912" y="8781"><tspan fill="rgb(0,0,0)" stroke="none">10%</tspan></tspan></tspan></text>
 <text class="TextShape"><tspan class="TextParagraph" font-family="Liberation Sans, sans-serif" font-size="388px" font-weight="700"><tspan class="TextPosition" x="14912" y="7239"><tspan fill="rgb(0,0,0)" stroke="none">20%</tspan></tspan></tspan></text>
 <text class="TextShape"><tspan class="TextParagraph" font-family="Liberation Sans, sans-serif" font-size="388px" font-weight="700"><tspan class="TextPosition" x="14912" y="5697"><tspan fill="rgb(0,0,0)" stroke="none">30%</tspan></tspan></tspan></text>
 <text class="TextShape"><tspan class="TextParagraph" font-family="Liberation Sans, sans-serif" font-size="388px" font-weight="700"><tspan class="TextPosition" x="14912" y="4154"><tspan fill="rgb(0,0,0)" stroke="none">40%</tspan></tspan></tspan></text>
 <text class="TextShape"><tspan class="TextParagraph" font-family="Liberation Sans, sans-serif" font-size="388px" font-weight="700"><tspan class="TextPosition" x="14912" y="2612"><tspan fill="rgb(0,0,0)" stroke="none">50%</tspan></tspan></tspan></text>
 <text class="TextShape"><tspan class="TextParagraph" font-family="Liberation Sans, sans-serif" font-size="388px" font-weight="700"><tspan class="TextPosition" x="14912" y="1070"><tspan fill="rgb(0,0,0)" stroke="none">60%</tspan></tspan></tspan></text>
 <text class="TextShape"><tspan class="TextParagraph" font-family="Arial, sans-serif" font-size="635px" font-weight="400"><tspan class="TextPosition" x="2588" y="753"><tspan fill="rgb(0,0,0)" stroke="none">Utilización de versiones de navegadores</tspan></tspan></tspan></text>
 <path fill="none" stroke="rgb(131,202,255)" stroke-width="80" stroke-linejoin="round" d="M 1021,10960 L 1821,10960"/>
 <path fill="none" stroke="rgb(0,184,255)" stroke-width="80" stroke-linejoin="round" d="M 3362,10960 L 4162,10960"/>
 <path fill="none" stroke="rgb(0,132,209)" stroke-width="80" stroke-linejoin="round" d="M 5386,10960 L 6186,10960"/>
 <path fill="none" stroke="rgb(0,71,255)" stroke-width="80" stroke-linejoin="round" d="M 7145,10960 L 7944,10960"/>
 <path fill="none" stroke="rgb(40,0,153)" stroke-width="80" stroke-linejoin="round" d="M 8903,10960 L 9703,10960"/>
 <path fill="none" stroke="rgb(35,0,220)" stroke-width="80" stroke-linejoin="round" d="M 10927,10960 L 11727,10960"/>
 <path fill="none" stroke="rgb(131,202,255)" stroke-width="80" stroke-linejoin="round" d="M 12951,10960 L 13751,10960"/>
 <path fill="none" stroke="rgb(255,211,32)" stroke-width="80" stroke-linejoin="round" d="M 1021,11334 L 1821,11334"/>
 <path fill="none" stroke="rgb(87,157,28)" stroke-width="80" stroke-linejoin="round" d="M 3362,11334 L 4162,11334"/>
 <path fill="none" stroke="rgb(220,35,0)" stroke-width="80" stroke-linejoin="round" d="M 5386,11334 L 6186,11334"/>
 <path fill="none" stroke="rgb(255,51,51)" stroke-width="80" stroke-linejoin="round" d="M 7145,11334 L 7944,11334"/>
 <path fill="none" stroke="rgb(184,0,71)" stroke-width="80" stroke-linejoin="round" d="M 8903,11334 L 9703,11334"/>
 <path fill="none" stroke="rgb(197,0,11)" stroke-width="80" stroke-linejoin="round" d="M 10927,11334 L 11727,11334"/>
 <path fill="none" stroke="rgb(197,0,11)" stroke-width="80" stroke-linejoin="round" d="M 12951,11334 L 13751,11334"/>
 <path fill="none" stroke="rgb(0,0,0)" stroke-width="80" stroke-linejoin="round" d="M 1021,11708 L 1821,11708"/>
 <text class="TextShape"><tspan class="TextParagraph" font-family="Arial, sans-serif" font-size="318px" font-weight="700"><tspan class="TextPosition" x="1921" y="11066"><tspan fill="rgb(0,0,0)" stroke="none">IE 6</tspan></tspan></tspan></text>
 <text class="TextShape"><tspan class="TextParagraph" font-family="Arial, sans-serif" font-size="318px" font-weight="700"><tspan class="TextPosition" x="4262" y="11066"><tspan fill="rgb(0,0,0)" stroke="none">IE 7</tspan></tspan></tspan></text>
 <text class="TextShape"><tspan class="TextParagraph" font-family="Arial, sans-serif" font-size="318px" font-weight="700"><tspan class="TextPosition" x="6286" y="11066"><tspan fill="rgb(0,0,0)" stroke="none">IE 8</tspan></tspan></tspan></text>
 <text class="TextShape"><tspan class="TextParagraph" font-family="Arial, sans-serif" font-size="318px" font-weight="700"><tspan class="TextPosition" x="8044" y="11066"><tspan fill="rgb(0,0,0)" stroke="none">IE 9</tspan></tspan></tspan></text>
 <text class="TextShape"><tspan class="TextParagraph" font-family="Arial, sans-serif" font-size="318px" font-weight="700"><tspan class="TextPosition" x="9803" y="11066"><tspan fill="rgb(0,0,0)" stroke="none">IE 10</tspan></tspan></tspan></text>
 <text class="TextShape"><tspan class="TextParagraph" font-family="Arial, sans-serif" font-size="318px" font-weight="700"><tspan class="TextPosition" x="11827" y="11066"><tspan fill="rgb(0,0,0)" stroke="none">IE 11</tspan></tspan></tspan></text>
 <text class="TextShape"><tspan class="TextParagraph" font-family="Arial, sans-serif" font-size="318px" font-weight="700"><tspan class="TextPosition" x="13851" y="11066"><tspan fill="rgb(0,0,0)" stroke="none">Edge</tspan></tspan></tspan></text>
 <text class="TextShape"><tspan class="TextParagraph" font-family="Arial, sans-serif" font-size="318px" font-weight="700"><tspan class="TextPosition" x="1921" y="11440"><tspan fill="rgb(0,0,0)" stroke="none">Chrome</tspan></tspan></tspan></text>
 <text class="TextShape"><tspan class="TextParagraph" font-family="Arial, sans-serif" font-size="318px" font-weight="700"><tspan class="TextPosition" x="4262" y="11440"><tspan fill="rgb(0,0,0)" stroke="none">Safari</tspan></tspan></tspan></text>
 <text class="TextShape"><tspan class="TextParagraph" font-family="Arial, sans-serif" font-size="318px" font-weight="700"><tspan class="TextPosition" x="6286" y="11440"><tspan fill="rgb(0,0,0)" stroke="none">FF 2</tspan></tspan></tspan></text>
 <text class="TextShape"><tspan class="TextParagraph" font-family="Arial, sans-serif" font-size="318px" font-weight="700"><tspan class="TextPosition" x="8044" y="11440"><tspan fill="rgb(0,0,0)" stroke="none">FF 3</tspan></tspan></tspan></text>
 <text class="TextShape"><tspan class="TextParagraph" font-family="Arial, sans-serif" font-size="318px" font-weight="700"><tspan class="TextPosition" x="9803" y="11440"><tspan fill="rgb(0,0,0)" stroke="none">FF 3.5</tspan></tspan></tspan></text>
 <text class="TextShape"><tspan class="TextParagraph" font-family="Arial, sans-serif" font-size="318px" font-weight="700"><tspan class="TextPosition" x="11827" y="11440"><tspan fill="rgb(0,0,0)" stroke="none">FF 3.6</tspan></tspan></tspan></text>
 <text class="TextShape"><tspan class="TextParagraph" font-family="Arial, sans-serif" font-size="318px" font-weight="700"><tspan class="TextPosition" x="13851" y="11440"><tspan fill="rgb(0,0,0)" stroke="none">FF</tspan></tspan></tspan></text>
 <text class="TextShape"><tspan class="TextParagraph" font-family="Arial, sans-serif" font-size="318px" font-weight="700"><tspan class="TextPosition" x="1921" y="11814"><tspan fill="rgb(0,0,0)" stroke="none">Otros</tspan></tspan></tspan></text>
</svg>
