<?xml version="1.0" encoding="UTF-8"?>
<!DOCTYPE svg PUBLIC "-//W3C//DTD SVG 1.1//EN" "http://www.w3.org/Graphics/SVG/1.1/DTD/svg11.dtd">
<svg width="165mm" height="123mm" viewBox="0 0 16500 12300" version="1.1" xmlns="http://www.w3.org/2000/svg" stroke-width="28.222" stroke-linejoin="round" xml:space="preserve">
 <path fill="rgb(255,255,255)" stroke="none" d="M 8257,12324 L 12,12324 12,0 16502,0 16502,12324 8257,12324 Z"/>
 <path fill="none" stroke="rgb(179,179,179)" stroke-linejoin="round" d="M 8207,10702 L 1255,10702 1255,1092 15158,1092 15158,10702 8207,10702 Z"/>
 <path fill="none" stroke="rgb(179,179,179)" stroke-linejoin="round" d="M 15158,10701 L 1255,10701"/>
 <path fill="none" stroke="rgb(179,179,179)" stroke-linejoin="round" d="M 15158,9739 L 1255,9739"/>
 <path fill="none" stroke="rgb(179,179,179)" stroke-linejoin="round" d="M 15158,8778 L 1255,8778"/>
 <path fill="none" stroke="rgb(179,179,179)" stroke-linejoin="round" d="M 15158,7817 L 1255,7817"/>
 <path fill="none" stroke="rgb(179,179,179)" stroke-linejoin="round" d="M 15158,6856 L 1255,6856"/>
 <path fill="none" stroke="rgb(179,179,179)" stroke-linejoin="round" d="M 15158,5896 L 1255,5896"/>
 <path fill="none" stroke="rgb(179,179,179)" stroke-linejoin="round" d="M 15158,4935 L 1255,4935"/>
 <path fill="none" stroke="rgb(179,179,179)" stroke-linejoin="round" d="M 15158,3974 L 1255,3974"/>
 <path fill="none" stroke="rgb(179,179,179)" stroke-linejoin="round" d="M 15158,3013 L 1255,3013"/>
 <path fill="none" stroke="rgb(179,179,179)" stroke-linejoin="round" d="M 15158,2052 L 1255,2052"/>
 <path fill="none" stroke="rgb(179,179,179)" stroke-linejoin="round" d="M 15158,1091 L 1255,1091"/>
 <path fill="none" stroke="rgb(0,0,0)" stroke-width="30" stroke-linejoin="round" d="M 1255,10851 L 1255,10701"/>
 <path fill="none" stroke="rgb(0,0,0)" stroke-width="30" stroke-linejoin="round" d="M 1255,10851 L 1255,10701"/>
 <path fill="none" stroke="rgb(0,0,0)" stroke-width="30" stroke-linejoin="round" d="M 1376,10851 L 1376,10701"/>
 <path fill="none" stroke="rgb(0,0,0)" stroke-width="30" stroke-linejoin="round" d="M 1376,10851 L 1376,10701"/>
 <path fill="none" stroke="rgb(0,0,0)" stroke-width="30" stroke-linejoin="round" d="M 1498,10851 L 1498,10701"/>
 <path fill="none" stroke="rgb(0,0,0)" stroke-width="30" stroke-linejoin="round" d="M 1498,10851 L 1498,10701"/>
 <path fill="none" stroke="rgb(0,0,0)" stroke-width="30" stroke-linejoin="round" d="M 1620,10851 L 1620,10701"/>
 <path fill="none" stroke="rgb(0,0,0)" stroke-width="30" stroke-linejoin="round" d="M 1620,10851 L 1620,10701"/>
 <path fill="none" stroke="rgb(0,0,0)" stroke-width="30" stroke-linejoin="round" d="M 1742,10851 L 1742,10701"/>
 <path fill="none" stroke="rgb(0,0,0)" stroke-width="30" stroke-linejoin="round" d="M 1742,10851 L 1742,10701"/>
 <path fill="none" stroke="rgb(0,0,0)" stroke-width="30" stroke-linejoin="round" d="M 1864,10851 L 1864,10701"/>
 <path fill="none" stroke="rgb(0,0,0)" stroke-width="30" stroke-linejoin="round" d="M 1864,10851 L 1864,10701"/>
 <path fill="none" stroke="rgb(0,0,0)" stroke-width="30" stroke-linejoin="round" d="M 1986,10851 L 1986,10701"/>
 <path fill="none" stroke="rgb(0,0,0)" stroke-width="30" stroke-linejoin="round" d="M 1986,10851 L 1986,10701"/>
 <path fill="none" stroke="rgb(0,0,0)" stroke-width="30" stroke-linejoin="round" d="M 2108,10851 L 2108,10701"/>
 <path fill="none" stroke="rgb(0,0,0)" stroke-width="30" stroke-linejoin="round" d="M 2108,10851 L 2108,10701"/>
 <path fill="none" stroke="rgb(0,0,0)" stroke-width="30" stroke-linejoin="round" d="M 2230,10851 L 2230,10701"/>
 <path fill="none" stroke="rgb(0,0,0)" stroke-width="30" stroke-linejoin="round" d="M 2230,10851 L 2230,10701"/>
 <path fill="none" stroke="rgb(0,0,0)" stroke-width="30" stroke-linejoin="round" d="M 2352,10851 L 2352,10701"/>
 <path fill="none" stroke="rgb(0,0,0)" stroke-width="30" stroke-linejoin="round" d="M 2352,10851 L 2352,10701"/>
 <path fill="none" stroke="rgb(0,0,0)" stroke-width="30" stroke-linejoin="round" d="M 2474,10851 L 2474,10701"/>
 <path fill="none" stroke="rgb(0,0,0)" stroke-width="30" stroke-linejoin="round" d="M 2474,10851 L 2474,10701"/>
 <path fill="none" stroke="rgb(0,0,0)" stroke-width="30" stroke-linejoin="round" d="M 2596,10851 L 2596,10701"/>
 <path fill="none" stroke="rgb(0,0,0)" stroke-width="30" stroke-linejoin="round" d="M 2596,10851 L 2596,10701"/>
 <path fill="none" stroke="rgb(0,0,0)" stroke-width="30" stroke-linejoin="round" d="M 2718,10851 L 2718,10701"/>
 <path fill="none" stroke="rgb(0,0,0)" stroke-width="30" stroke-linejoin="round" d="M 2718,10851 L 2718,10701"/>
 <path fill="none" stroke="rgb(0,0,0)" stroke-width="30" stroke-linejoin="round" d="M 2840,10851 L 2840,10701"/>
 <path fill="none" stroke="rgb(0,0,0)" stroke-width="30" stroke-linejoin="round" d="M 2840,10851 L 2840,10701"/>
 <path fill="none" stroke="rgb(0,0,0)" stroke-width="30" stroke-linejoin="round" d="M 2962,10851 L 2962,10701"/>
 <path fill="none" stroke="rgb(0,0,0)" stroke-width="30" stroke-linejoin="round" d="M 2962,10851 L 2962,10701"/>
 <path fill="none" stroke="rgb(0,0,0)" stroke-width="30" stroke-linejoin="round" d="M 3084,10851 L 3084,10701"/>
 <path fill="none" stroke="rgb(0,0,0)" stroke-width="30" stroke-linejoin="round" d="M 3084,10851 L 3084,10701"/>
 <path fill="none" stroke="rgb(0,0,0)" stroke-width="30" stroke-linejoin="round" d="M 3206,10851 L 3206,10701"/>
 <path fill="none" stroke="rgb(0,0,0)" stroke-width="30" stroke-linejoin="round" d="M 3206,10851 L 3206,10701"/>
 <path fill="none" stroke="rgb(0,0,0)" stroke-width="30" stroke-linejoin="round" d="M 3328,10851 L 3328,10701"/>
 <path fill="none" stroke="rgb(0,0,0)" stroke-width="30" stroke-linejoin="round" d="M 3328,10851 L 3328,10701"/>
 <path fill="none" stroke="rgb(0,0,0)" stroke-width="30" stroke-linejoin="round" d="M 3450,10851 L 3450,10701"/>
 <path fill="none" stroke="rgb(0,0,0)" stroke-width="30" stroke-linejoin="round" d="M 3450,10851 L 3450,10701"/>
 <path fill="none" stroke="rgb(0,0,0)" stroke-width="30" stroke-linejoin="round" d="M 3572,10851 L 3572,10701"/>
 <path fill="none" stroke="rgb(0,0,0)" stroke-width="30" stroke-linejoin="round" d="M 3572,10851 L 3572,10701"/>
 <path fill="none" stroke="rgb(0,0,0)" stroke-width="30" stroke-linejoin="round" d="M 3694,10851 L 3694,10701"/>
 <path fill="none" stroke="rgb(0,0,0)" stroke-width="30" stroke-linejoin="round" d="M 3694,10851 L 3694,10701"/>
 <path fill="none" stroke="rgb(0,0,0)" stroke-width="30" stroke-linejoin="round" d="M 3816,10851 L 3816,10701"/>
 <path fill="none" stroke="rgb(0,0,0)" stroke-width="30" stroke-linejoin="round" d="M 3816,10851 L 3816,10701"/>
 <path fill="none" stroke="rgb(0,0,0)" stroke-width="30" stroke-linejoin="round" d="M 3938,10851 L 3938,10701"/>
 <path fill="none" stroke="rgb(0,0,0)" stroke-width="30" stroke-linejoin="round" d="M 3938,10851 L 3938,10701"/>
 <path fill="none" stroke="rgb(0,0,0)" stroke-width="30" stroke-linejoin="round" d="M 4060,10851 L 4060,10701"/>
 <path fill="none" stroke="rgb(0,0,0)" stroke-width="30" stroke-linejoin="round" d="M 4060,10851 L 4060,10701"/>
 <path fill="none" stroke="rgb(0,0,0)" stroke-width="30" stroke-linejoin="round" d="M 4182,10851 L 4182,10701"/>
 <path fill="none" stroke="rgb(0,0,0)" stroke-width="30" stroke-linejoin="round" d="M 4182,10851 L 4182,10701"/>
 <path fill="none" stroke="rgb(0,0,0)" stroke-width="30" stroke-linejoin="round" d="M 4304,10851 L 4304,10701"/>
 <path fill="none" stroke="rgb(0,0,0)" stroke-width="30" stroke-linejoin="round" d="M 4304,10851 L 4304,10701"/>
 <path fill="none" stroke="rgb(0,0,0)" stroke-width="30" stroke-linejoin="round" d="M 4426,10851 L 4426,10701"/>
 <path fill="none" stroke="rgb(0,0,0)" stroke-width="30" stroke-linejoin="round" d="M 4426,10851 L 4426,10701"/>
 <path fill="none" stroke="rgb(0,0,0)" stroke-width="30" stroke-linejoin="round" d="M 4548,10851 L 4548,10701"/>
 <path fill="none" stroke="rgb(0,0,0)" stroke-width="30" stroke-linejoin="round" d="M 4548,10851 L 4548,10701"/>
 <path fill="none" stroke="rgb(0,0,0)" stroke-width="30" stroke-linejoin="round" d="M 4670,10851 L 4670,10701"/>
 <path fill="none" stroke="rgb(0,0,0)" stroke-width="30" stroke-linejoin="round" d="M 4670,10851 L 4670,10701"/>
 <path fill="none" stroke="rgb(0,0,0)" stroke-width="30" stroke-linejoin="round" d="M 4791,10851 L 4791,10701"/>
 <path fill="none" stroke="rgb(0,0,0)" stroke-width="30" stroke-linejoin="round" d="M 4791,10851 L 4791,10701"/>
 <path fill="none" stroke="rgb(0,0,0)" stroke-width="30" stroke-linejoin="round" d="M 4913,10851 L 4913,10701"/>
 <path fill="none" stroke="rgb(0,0,0)" stroke-width="30" stroke-linejoin="round" d="M 4913,10851 L 4913,10701"/>
 <path fill="none" stroke="rgb(0,0,0)" stroke-width="30" stroke-linejoin="round" d="M 5035,10851 L 5035,10701"/>
 <path fill="none" stroke="rgb(0,0,0)" stroke-width="30" stroke-linejoin="round" d="M 5035,10851 L 5035,10701"/>
 <path fill="none" stroke="rgb(0,0,0)" stroke-width="30" stroke-linejoin="round" d="M 5157,10851 L 5157,10701"/>
 <path fill="none" stroke="rgb(0,0,0)" stroke-width="30" stroke-linejoin="round" d="M 5157,10851 L 5157,10701"/>
 <path fill="none" stroke="rgb(0,0,0)" stroke-width="30" stroke-linejoin="round" d="M 5279,10851 L 5279,10701"/>
 <path fill="none" stroke="rgb(0,0,0)" stroke-width="30" stroke-linejoin="round" d="M 5279,10851 L 5279,10701"/>
 <path fill="none" stroke="rgb(0,0,0)" stroke-width="30" stroke-linejoin="round" d="M 5401,10851 L 5401,10701"/>
 <path fill="none" stroke="rgb(0,0,0)" stroke-width="30" stroke-linejoin="round" d="M 5401,10851 L 5401,10701"/>
 <path fill="none" stroke="rgb(0,0,0)" stroke-width="30" stroke-linejoin="round" d="M 5523,10851 L 5523,10701"/>
 <path fill="none" stroke="rgb(0,0,0)" stroke-width="30" stroke-linejoin="round" d="M 5523,10851 L 5523,10701"/>
 <path fill="none" stroke="rgb(0,0,0)" stroke-width="30" stroke-linejoin="round" d="M 5645,10851 L 5645,10701"/>
 <path fill="none" stroke="rgb(0,0,0)" stroke-width="30" stroke-linejoin="round" d="M 5645,10851 L 5645,10701"/>
 <path fill="none" stroke="rgb(0,0,0)" stroke-width="30" stroke-linejoin="round" d="M 5767,10851 L 5767,10701"/>
 <path fill="none" stroke="rgb(0,0,0)" stroke-width="30" stroke-linejoin="round" d="M 5767,10851 L 5767,10701"/>
 <path fill="none" stroke="rgb(0,0,0)" stroke-width="30" stroke-linejoin="round" d="M 5889,10851 L 5889,10701"/>
 <path fill="none" stroke="rgb(0,0,0)" stroke-width="30" stroke-linejoin="round" d="M 5889,10851 L 5889,10701"/>
 <path fill="none" stroke="rgb(0,0,0)" stroke-width="30" stroke-linejoin="round" d="M 6011,10851 L 6011,10701"/>
 <path fill="none" stroke="rgb(0,0,0)" stroke-width="30" stroke-linejoin="round" d="M 6011,10851 L 6011,10701"/>
 <path fill="none" stroke="rgb(0,0,0)" stroke-width="30" stroke-linejoin="round" d="M 6133,10851 L 6133,10701"/>
 <path fill="none" stroke="rgb(0,0,0)" stroke-width="30" stroke-linejoin="round" d="M 6133,10851 L 6133,10701"/>
 <path fill="none" stroke="rgb(0,0,0)" stroke-width="30" stroke-linejoin="round" d="M 6255,10851 L 6255,10701"/>
 <path fill="none" stroke="rgb(0,0,0)" stroke-width="30" stroke-linejoin="round" d="M 6255,10851 L 6255,10701"/>
 <path fill="none" stroke="rgb(0,0,0)" stroke-width="30" stroke-linejoin="round" d="M 6377,10851 L 6377,10701"/>
 <path fill="none" stroke="rgb(0,0,0)" stroke-width="30" stroke-linejoin="round" d="M 6377,10851 L 6377,10701"/>
 <path fill="none" stroke="rgb(0,0,0)" stroke-width="30" stroke-linejoin="round" d="M 6499,10851 L 6499,10701"/>
 <path fill="none" stroke="rgb(0,0,0)" stroke-width="30" stroke-linejoin="round" d="M 6499,10851 L 6499,10701"/>
 <path fill="none" stroke="rgb(0,0,0)" stroke-width="30" stroke-linejoin="round" d="M 6621,10851 L 6621,10701"/>
 <path fill="none" stroke="rgb(0,0,0)" stroke-width="30" stroke-linejoin="round" d="M 6621,10851 L 6621,10701"/>
 <path fill="none" stroke="rgb(0,0,0)" stroke-width="30" stroke-linejoin="round" d="M 6743,10851 L 6743,10701"/>
 <path fill="none" stroke="rgb(0,0,0)" stroke-width="30" stroke-linejoin="round" d="M 6743,10851 L 6743,10701"/>
 <path fill="none" stroke="rgb(0,0,0)" stroke-width="30" stroke-linejoin="round" d="M 6865,10851 L 6865,10701"/>
 <path fill="none" stroke="rgb(0,0,0)" stroke-width="30" stroke-linejoin="round" d="M 6865,10851 L 6865,10701"/>
 <path fill="none" stroke="rgb(0,0,0)" stroke-width="30" stroke-linejoin="round" d="M 6987,10851 L 6987,10701"/>
 <path fill="none" stroke="rgb(0,0,0)" stroke-width="30" stroke-linejoin="round" d="M 6987,10851 L 6987,10701"/>
 <path fill="none" stroke="rgb(0,0,0)" stroke-width="30" stroke-linejoin="round" d="M 7109,10851 L 7109,10701"/>
 <path fill="none" stroke="rgb(0,0,0)" stroke-width="30" stroke-linejoin="round" d="M 7109,10851 L 7109,10701"/>
 <path fill="none" stroke="rgb(0,0,0)" stroke-width="30" stroke-linejoin="round" d="M 7231,10851 L 7231,10701"/>
 <path fill="none" stroke="rgb(0,0,0)" stroke-width="30" stroke-linejoin="round" d="M 7231,10851 L 7231,10701"/>
 <path fill="none" stroke="rgb(0,0,0)" stroke-width="30" stroke-linejoin="round" d="M 7353,10851 L 7353,10701"/>
 <path fill="none" stroke="rgb(0,0,0)" stroke-width="30" stroke-linejoin="round" d="M 7353,10851 L 7353,10701"/>
 <path fill="none" stroke="rgb(0,0,0)" stroke-width="30" stroke-linejoin="round" d="M 7475,10851 L 7475,10701"/>
 <path fill="none" stroke="rgb(0,0,0)" stroke-width="30" stroke-linejoin="round" d="M 7475,10851 L 7475,10701"/>
 <path fill="none" stroke="rgb(0,0,0)" stroke-width="30" stroke-linejoin="round" d="M 7597,10851 L 7597,10701"/>
 <path fill="none" stroke="rgb(0,0,0)" stroke-width="30" stroke-linejoin="round" d="M 7597,10851 L 7597,10701"/>
 <path fill="none" stroke="rgb(0,0,0)" stroke-width="30" stroke-linejoin="round" d="M 7719,10851 L 7719,10701"/>
 <path fill="none" stroke="rgb(0,0,0)" stroke-width="30" stroke-linejoin="round" d="M 7719,10851 L 7719,10701"/>
 <path fill="none" stroke="rgb(0,0,0)" stroke-width="30" stroke-linejoin="round" d="M 7841,10851 L 7841,10701"/>
 <path fill="none" stroke="rgb(0,0,0)" stroke-width="30" stroke-linejoin="round" d="M 7841,10851 L 7841,10701"/>
 <path fill="none" stroke="rgb(0,0,0)" stroke-width="30" stroke-linejoin="round" d="M 7963,10851 L 7963,10701"/>
 <path fill="none" stroke="rgb(0,0,0)" stroke-width="30" stroke-linejoin="round" d="M 7963,10851 L 7963,10701"/>
 <path fill="none" stroke="rgb(0,0,0)" stroke-width="30" stroke-linejoin="round" d="M 8085,10851 L 8085,10701"/>
 <path fill="none" stroke="rgb(0,0,0)" stroke-width="30" stroke-linejoin="round" d="M 8085,10851 L 8085,10701"/>
 <path fill="none" stroke="rgb(0,0,0)" stroke-width="30" stroke-linejoin="round" d="M 8207,10851 L 8207,10701"/>
 <path fill="none" stroke="rgb(0,0,0)" stroke-width="30" stroke-linejoin="round" d="M 8207,10851 L 8207,10701"/>
 <path fill="none" stroke="rgb(0,0,0)" stroke-width="30" stroke-linejoin="round" d="M 8327,10851 L 8327,10701"/>
 <path fill="none" stroke="rgb(0,0,0)" stroke-width="30" stroke-linejoin="round" d="M 8327,10851 L 8327,10701"/>
 <path fill="none" stroke="rgb(0,0,0)" stroke-width="30" stroke-linejoin="round" d="M 8449,10851 L 8449,10701"/>
 <path fill="none" stroke="rgb(0,0,0)" stroke-width="30" stroke-linejoin="round" d="M 8449,10851 L 8449,10701"/>
 <path fill="none" stroke="rgb(0,0,0)" stroke-width="30" stroke-linejoin="round" d="M 8571,10851 L 8571,10701"/>
 <path fill="none" stroke="rgb(0,0,0)" stroke-width="30" stroke-linejoin="round" d="M 8571,10851 L 8571,10701"/>
 <path fill="none" stroke="rgb(0,0,0)" stroke-width="30" stroke-linejoin="round" d="M 8693,10851 L 8693,10701"/>
 <path fill="none" stroke="rgb(0,0,0)" stroke-width="30" stroke-linejoin="round" d="M 8693,10851 L 8693,10701"/>
 <path fill="none" stroke="rgb(0,0,0)" stroke-width="30" stroke-linejoin="round" d="M 8815,10851 L 8815,10701"/>
 <path fill="none" stroke="rgb(0,0,0)" stroke-width="30" stroke-linejoin="round" d="M 8815,10851 L 8815,10701"/>
 <path fill="none" stroke="rgb(0,0,0)" stroke-width="30" stroke-linejoin="round" d="M 8937,10851 L 8937,10701"/>
 <path fill="none" stroke="rgb(0,0,0)" stroke-width="30" stroke-linejoin="round" d="M 8937,10851 L 8937,10701"/>
 <path fill="none" stroke="rgb(0,0,0)" stroke-width="30" stroke-linejoin="round" d="M 9059,10851 L 9059,10701"/>
 <path fill="none" stroke="rgb(0,0,0)" stroke-width="30" stroke-linejoin="round" d="M 9059,10851 L 9059,10701"/>
 <path fill="none" stroke="rgb(0,0,0)" stroke-width="30" stroke-linejoin="round" d="M 9181,10851 L 9181,10701"/>
 <path fill="none" stroke="rgb(0,0,0)" stroke-width="30" stroke-linejoin="round" d="M 9181,10851 L 9181,10701"/>
 <path fill="none" stroke="rgb(0,0,0)" stroke-width="30" stroke-linejoin="round" d="M 9303,10851 L 9303,10701"/>
 <path fill="none" stroke="rgb(0,0,0)" stroke-width="30" stroke-linejoin="round" d="M 9303,10851 L 9303,10701"/>
 <path fill="none" stroke="rgb(0,0,0)" stroke-width="30" stroke-linejoin="round" d="M 9425,10851 L 9425,10701"/>
 <path fill="none" stroke="rgb(0,0,0)" stroke-width="30" stroke-linejoin="round" d="M 9425,10851 L 9425,10701"/>
 <path fill="none" stroke="rgb(0,0,0)" stroke-width="30" stroke-linejoin="round" d="M 9547,10851 L 9547,10701"/>
 <path fill="none" stroke="rgb(0,0,0)" stroke-width="30" stroke-linejoin="round" d="M 9547,10851 L 9547,10701"/>
 <path fill="none" stroke="rgb(0,0,0)" stroke-width="30" stroke-linejoin="round" d="M 9669,10851 L 9669,10701"/>
 <path fill="none" stroke="rgb(0,0,0)" stroke-width="30" stroke-linejoin="round" d="M 9669,10851 L 9669,10701"/>
 <path fill="none" stroke="rgb(0,0,0)" stroke-width="30" stroke-linejoin="round" d="M 9791,10851 L 9791,10701"/>
 <path fill="none" stroke="rgb(0,0,0)" stroke-width="30" stroke-linejoin="round" d="M 9791,10851 L 9791,10701"/>
 <path fill="none" stroke="rgb(0,0,0)" stroke-width="30" stroke-linejoin="round" d="M 9913,10851 L 9913,10701"/>
 <path fill="none" stroke="rgb(0,0,0)" stroke-width="30" stroke-linejoin="round" d="M 9913,10851 L 9913,10701"/>
 <path fill="none" stroke="rgb(0,0,0)" stroke-width="30" stroke-linejoin="round" d="M 10035,10851 L 10035,10701"/>
 <path fill="none" stroke="rgb(0,0,0)" stroke-width="30" stroke-linejoin="round" d="M 10035,10851 L 10035,10701"/>
 <path fill="none" stroke="rgb(0,0,0)" stroke-width="30" stroke-linejoin="round" d="M 10157,10851 L 10157,10701"/>
 <path fill="none" stroke="rgb(0,0,0)" stroke-width="30" stroke-linejoin="round" d="M 10157,10851 L 10157,10701"/>
 <path fill="none" stroke="rgb(0,0,0)" stroke-width="30" stroke-linejoin="round" d="M 10279,10851 L 10279,10701"/>
 <path fill="none" stroke="rgb(0,0,0)" stroke-width="30" stroke-linejoin="round" d="M 10279,10851 L 10279,10701"/>
 <path fill="none" stroke="rgb(0,0,0)" stroke-width="30" stroke-linejoin="round" d="M 10401,10851 L 10401,10701"/>
 <path fill="none" stroke="rgb(0,0,0)" stroke-width="30" stroke-linejoin="round" d="M 10401,10851 L 10401,10701"/>
 <path fill="none" stroke="rgb(0,0,0)" stroke-width="30" stroke-linejoin="round" d="M 10523,10851 L 10523,10701"/>
 <path fill="none" stroke="rgb(0,0,0)" stroke-width="30" stroke-linejoin="round" d="M 10523,10851 L 10523,10701"/>
 <path fill="none" stroke="rgb(0,0,0)" stroke-width="30" stroke-linejoin="round" d="M 10645,10851 L 10645,10701"/>
 <path fill="none" stroke="rgb(0,0,0)" stroke-width="30" stroke-linejoin="round" d="M 10645,10851 L 10645,10701"/>
 <path fill="none" stroke="rgb(0,0,0)" stroke-width="30" stroke-linejoin="round" d="M 10767,10851 L 10767,10701"/>
 <path fill="none" stroke="rgb(0,0,0)" stroke-width="30" stroke-linejoin="round" d="M 10767,10851 L 10767,10701"/>
 <path fill="none" stroke="rgb(0,0,0)" stroke-width="30" stroke-linejoin="round" d="M 10889,10851 L 10889,10701"/>
 <path fill="none" stroke="rgb(0,0,0)" stroke-width="30" stroke-linejoin="round" d="M 10889,10851 L 10889,10701"/>
 <path fill="none" stroke="rgb(0,0,0)" stroke-width="30" stroke-linejoin="round" d="M 11011,10851 L 11011,10701"/>
 <path fill="none" stroke="rgb(0,0,0)" stroke-width="30" stroke-linejoin="round" d="M 11011,10851 L 11011,10701"/>
 <path fill="none" stroke="rgb(0,0,0)" stroke-width="30" stroke-linejoin="round" d="M 11133,10851 L 11133,10701"/>
 <path fill="none" stroke="rgb(0,0,0)" stroke-width="30" stroke-linejoin="round" d="M 11133,10851 L 11133,10701"/>
 <path fill="none" stroke="rgb(0,0,0)" stroke-width="30" stroke-linejoin="round" d="M 11255,10851 L 11255,10701"/>
 <path fill="none" stroke="rgb(0,0,0)" stroke-width="30" stroke-linejoin="round" d="M 11255,10851 L 11255,10701"/>
 <path fill="none" stroke="rgb(0,0,0)" stroke-width="30" stroke-linejoin="round" d="M 11377,10851 L 11377,10701"/>
 <path fill="none" stroke="rgb(0,0,0)" stroke-width="30" stroke-linejoin="round" d="M 11377,10851 L 11377,10701"/>
 <path fill="none" stroke="rgb(0,0,0)" stroke-width="30" stroke-linejoin="round" d="M 11499,10851 L 11499,10701"/>
 <path fill="none" stroke="rgb(0,0,0)" stroke-width="30" stroke-linejoin="round" d="M 11499,10851 L 11499,10701"/>
 <path fill="none" stroke="rgb(0,0,0)" stroke-width="30" stroke-linejoin="round" d="M 11621,10851 L 11621,10701"/>
 <path fill="none" stroke="rgb(0,0,0)" stroke-width="30" stroke-linejoin="round" d="M 11621,10851 L 11621,10701"/>
 <path fill="none" stroke="rgb(0,0,0)" stroke-width="30" stroke-linejoin="round" d="M 11742,10851 L 11742,10701"/>
 <path fill="none" stroke="rgb(0,0,0)" stroke-width="30" stroke-linejoin="round" d="M 11742,10851 L 11742,10701"/>
 <path fill="none" stroke="rgb(0,0,0)" stroke-width="30" stroke-linejoin="round" d="M 11864,10851 L 11864,10701"/>
 <path fill="none" stroke="rgb(0,0,0)" stroke-width="30" stroke-linejoin="round" d="M 11864,10851 L 11864,10701"/>
 <path fill="none" stroke="rgb(0,0,0)" stroke-width="30" stroke-linejoin="round" d="M 11986,10851 L 11986,10701"/>
 <path fill="none" stroke="rgb(0,0,0)" stroke-width="30" stroke-linejoin="round" d="M 11986,10851 L 11986,10701"/>
 <path fill="none" stroke="rgb(0,0,0)" stroke-width="30" stroke-linejoin="round" d="M 12108,10851 L 12108,10701"/>
 <path fill="none" stroke="rgb(0,0,0)" stroke-width="30" stroke-linejoin="round" d="M 12108,10851 L 12108,10701"/>
 <path fill="none" stroke="rgb(0,0,0)" stroke-width="30" stroke-linejoin="round" d="M 12230,10851 L 12230,10701"/>
 <path fill="none" stroke="rgb(0,0,0)" stroke-width="30" stroke-linejoin="round" d="M 12230,10851 L 12230,10701"/>
 <path fill="none" stroke="rgb(0,0,0)" stroke-width="30" stroke-linejoin="round" d="M 12352,10851 L 12352,10701"/>
 <path fill="none" stroke="rgb(0,0,0)" stroke-width="30" stroke-linejoin="round" d="M 12352,10851 L 12352,10701"/>
 <path fill="none" stroke="rgb(0,0,0)" stroke-width="30" stroke-linejoin="round" d="M 12474,10851 L 12474,10701"/>
 <path fill="none" stroke="rgb(0,0,0)" stroke-width="30" stroke-linejoin="round" d="M 12474,10851 L 12474,10701"/>
 <path fill="none" stroke="rgb(0,0,0)" stroke-width="30" stroke-linejoin="round" d="M 12596,10851 L 12596,10701"/>
 <path fill="none" stroke="rgb(0,0,0)" stroke-width="30" stroke-linejoin="round" d="M 12596,10851 L 12596,10701"/>
 <path fill="none" stroke="rgb(0,0,0)" stroke-width="30" stroke-linejoin="round" d="M 12718,10851 L 12718,10701"/>
 <path fill="none" stroke="rgb(0,0,0)" stroke-width="30" stroke-linejoin="round" d="M 12718,10851 L 12718,10701"/>
 <path fill="none" stroke="rgb(0,0,0)" stroke-width="30" stroke-linejoin="round" d="M 12840,10851 L 12840,10701"/>
 <path fill="none" stroke="rgb(0,0,0)" stroke-width="30" stroke-linejoin="round" d="M 12840,10851 L 12840,10701"/>
 <path fill="none" stroke="rgb(0,0,0)" stroke-width="30" stroke-linejoin="round" d="M 12962,10851 L 12962,10701"/>
 <path fill="none" stroke="rgb(0,0,0)" stroke-width="30" stroke-linejoin="round" d="M 12962,10851 L 12962,10701"/>
 <path fill="none" stroke="rgb(0,0,0)" stroke-width="30" stroke-linejoin="round" d="M 13084,10851 L 13084,10701"/>
 <path fill="none" stroke="rgb(0,0,0)" stroke-width="30" stroke-linejoin="round" d="M 13084,10851 L 13084,10701"/>
 <path fill="none" stroke="rgb(0,0,0)" stroke-width="30" stroke-linejoin="round" d="M 13206,10851 L 13206,10701"/>
 <path fill="none" stroke="rgb(0,0,0)" stroke-width="30" stroke-linejoin="round" d="M 13206,10851 L 13206,10701"/>
 <path fill="none" stroke="rgb(0,0,0)" stroke-width="30" stroke-linejoin="round" d="M 13328,10851 L 13328,10701"/>
 <path fill="none" stroke="rgb(0,0,0)" stroke-width="30" stroke-linejoin="round" d="M 13328,10851 L 13328,10701"/>
 <path fill="none" stroke="rgb(0,0,0)" stroke-width="30" stroke-linejoin="round" d="M 13450,10851 L 13450,10701"/>
 <path fill="none" stroke="rgb(0,0,0)" stroke-width="30" stroke-linejoin="round" d="M 13450,10851 L 13450,10701"/>
 <path fill="none" stroke="rgb(0,0,0)" stroke-width="30" stroke-linejoin="round" d="M 13572,10851 L 13572,10701"/>
 <path fill="none" stroke="rgb(0,0,0)" stroke-width="30" stroke-linejoin="round" d="M 13572,10851 L 13572,10701"/>
 <path fill="none" stroke="rgb(0,0,0)" stroke-width="30" stroke-linejoin="round" d="M 13694,10851 L 13694,10701"/>
 <path fill="none" stroke="rgb(0,0,0)" stroke-width="30" stroke-linejoin="round" d="M 13694,10851 L 13694,10701"/>
 <path fill="none" stroke="rgb(0,0,0)" stroke-width="30" stroke-linejoin="round" d="M 13816,10851 L 13816,10701"/>
 <path fill="none" stroke="rgb(0,0,0)" stroke-width="30" stroke-linejoin="round" d="M 13816,10851 L 13816,10701"/>
 <path fill="none" stroke="rgb(0,0,0)" stroke-width="30" stroke-linejoin="round" d="M 13938,10851 L 13938,10701"/>
 <path fill="none" stroke="rgb(0,0,0)" stroke-width="30" stroke-linejoin="round" d="M 13938,10851 L 13938,10701"/>
 <path fill="none" stroke="rgb(0,0,0)" stroke-width="30" stroke-linejoin="round" d="M 14060,10851 L 14060,10701"/>
 <path fill="none" stroke="rgb(0,0,0)" stroke-width="30" stroke-linejoin="round" d="M 14060,10851 L 14060,10701"/>
 <path fill="none" stroke="rgb(0,0,0)" stroke-width="30" stroke-linejoin="round" d="M 14182,10851 L 14182,10701"/>
 <path fill="none" stroke="rgb(0,0,0)" stroke-width="30" stroke-linejoin="round" d="M 14182,10851 L 14182,10701"/>
 <path fill="none" stroke="rgb(0,0,0)" stroke-width="30" stroke-linejoin="round" d="M 14304,10851 L 14304,10701"/>
 <path fill="none" stroke="rgb(0,0,0)" stroke-width="30" stroke-linejoin="round" d="M 14304,10851 L 14304,10701"/>
 <path fill="none" stroke="rgb(0,0,0)" stroke-width="30" stroke-linejoin="round" d="M 14426,10851 L 14426,10701"/>
 <path fill="none" stroke="rgb(0,0,0)" stroke-width="30" stroke-linejoin="round" d="M 14426,10851 L 14426,10701"/>
 <path fill="none" stroke="rgb(0,0,0)" stroke-width="30" stroke-linejoin="round" d="M 14548,10851 L 14548,10701"/>
 <path fill="none" stroke="rgb(0,0,0)" stroke-width="30" stroke-linejoin="round" d="M 14548,10851 L 14548,10701"/>
 <path fill="none" stroke="rgb(0,0,0)" stroke-width="30" stroke-linejoin="round" d="M 14670,10851 L 14670,10701"/>
 <path fill="none" stroke="rgb(0,0,0)" stroke-width="30" stroke-linejoin="round" d="M 14670,10851 L 14670,10701"/>
 <path fill="none" stroke="rgb(0,0,0)" stroke-width="30" stroke-linejoin="round" d="M 14792,10851 L 14792,10701"/>
 <path fill="none" stroke="rgb(0,0,0)" stroke-width="30" stroke-linejoin="round" d="M 14792,10851 L 14792,10701"/>
 <path fill="none" stroke="rgb(0,0,0)" stroke-width="30" stroke-linejoin="round" d="M 14914,10851 L 14914,10701"/>
 <path fill="none" stroke="rgb(0,0,0)" stroke-width="30" stroke-linejoin="round" d="M 14914,10851 L 14914,10701"/>
 <path fill="none" stroke="rgb(0,0,0)" stroke-width="30" stroke-linejoin="round" d="M 15036,10851 L 15036,10701"/>
 <path fill="none" stroke="rgb(0,0,0)" stroke-width="30" stroke-linejoin="round" d="M 15036,10851 L 15036,10701"/>
 <path fill="none" stroke="rgb(0,0,0)" stroke-width="30" stroke-linejoin="round" d="M 15158,10851 L 15158,10701"/>
 <path fill="none" stroke="rgb(0,0,0)" stroke-width="30" stroke-linejoin="round" d="M 15158,10851 L 15158,10701"/>
 <path fill="none" stroke="rgb(0,0,0)" stroke-width="30" stroke-linejoin="round" d="M 1255,10701 L 15158,10701"/>
 <path fill="none" stroke="rgb(0,0,0)" stroke-width="30" stroke-linejoin="round" d="M 1105,10701 L 1255,10701"/>
 <path fill="none" stroke="rgb(0,0,0)" stroke-width="30" stroke-linejoin="round" d="M 1105,10701 L 1255,10701"/>
 <path fill="none" stroke="rgb(0,0,0)" stroke-width="30" stroke-linejoin="round" d="M 1105,9739 L 1255,9739"/>
 <path fill="none" stroke="rgb(0,0,0)" stroke-width="30" stroke-linejoin="round" d="M 1105,9739 L 1255,9739"/>
 <path fill="none" stroke="rgb(0,0,0)" stroke-width="30" stroke-linejoin="round" d="M 1105,8778 L 1255,8778"/>
 <path fill="none" stroke="rgb(0,0,0)" stroke-width="30" stroke-linejoin="round" d="M 1105,8778 L 1255,8778"/>
 <path fill="none" stroke="rgb(0,0,0)" stroke-width="30" stroke-linejoin="round" d="M 1105,7817 L 1255,7817"/>
 <path fill="none" stroke="rgb(0,0,0)" stroke-width="30" stroke-linejoin="round" d="M 1105,7817 L 1255,7817"/>
 <path fill="none" stroke="rgb(0,0,0)" stroke-width="30" stroke-linejoin="round" d="M 1105,6856 L 1255,6856"/>
 <path fill="none" stroke="rgb(0,0,0)" stroke-width="30" stroke-linejoin="round" d="M 1105,6856 L 1255,6856"/>
 <path fill="none" stroke="rgb(0,0,0)" stroke-width="30" stroke-linejoin="round" d="M 1105,5896 L 1255,5896"/>
 <path fill="none" stroke="rgb(0,0,0)" stroke-width="30" stroke-linejoin="round" d="M 1105,5896 L 1255,5896"/>
 <path fill="none" stroke="rgb(0,0,0)" stroke-width="30" stroke-linejoin="round" d="M 1105,4935 L 1255,4935"/>
 <path fill="none" stroke="rgb(0,0,0)" stroke-width="30" stroke-linejoin="round" d="M 1105,4935 L 1255,4935"/>
 <path fill="none" stroke="rgb(0,0,0)" stroke-width="30" stroke-linejoin="round" d="M 1105,3974 L 1255,3974"/>
 <path fill="none" stroke="rgb(0,0,0)" stroke-width="30" stroke-linejoin="round" d="M 1105,3974 L 1255,3974"/>
 <path fill="none" stroke="rgb(0,0,0)" stroke-width="30" stroke-linejoin="round" d="M 1105,3013 L 1255,3013"/>
 <path fill="none" stroke="rgb(0,0,0)" stroke-width="30" stroke-linejoin="round" d="M 1105,3013 L 1255,3013"/>
 <path fill="none" stroke="rgb(0,0,0)" stroke-width="30" stroke-linejoin="round" d="M 1105,2052 L 1255,2052"/>
 <path fill="none" stroke="rgb(0,0,0)" stroke-width="30" stroke-linejoin="round" d="M 1105,2052 L 1255,2052"/>
 <path fill="none" stroke="rgb(0,0,0)" stroke-width="30" stroke-linejoin="round" d="M 1105,1091 L 1255,1091"/>
 <path fill="none" stroke="rgb(0,0,0)" stroke-width="30" stroke-linejoin="round" d="M 1105,1091 L 1255,1091"/>
 <path fill="none" stroke="rgb(0,0,0)" stroke-width="30" stroke-linejoin="round" d="M 1255,10701 L 1255,1091"/>
 <path fill="none" stroke="rgb(0,0,0)" stroke-width="30" stroke-linejoin="round" d="M 15308,10701 L 15158,10701"/>
 <path fill="none" stroke="rgb(0,0,0)" stroke-width="30" stroke-linejoin="round" d="M 15308,10701 L 15158,10701"/>
 <path fill="none" stroke="rgb(0,0,0)" stroke-width="30" stroke-linejoin="round" d="M 15308,9739 L 15158,9739"/>
 <path fill="none" stroke="rgb(0,0,0)" stroke-width="30" stroke-linejoin="round" d="M 15308,9739 L 15158,9739"/>
 <path fill="none" stroke="rgb(0,0,0)" stroke-width="30" stroke-linejoin="round" d="M 15308,8778 L 15158,8778"/>
 <path fill="none" stroke="rgb(0,0,0)" stroke-width="30" stroke-linejoin="round" d="M 15308,8778 L 15158,8778"/>
 <path fill="none" stroke="rgb(0,0,0)" stroke-width="30" stroke-linejoin="round" d="M 15308,7817 L 15158,7817"/>
 <path fill="none" stroke="rgb(0,0,0)" stroke-width="30" stroke-linejoin="round" d="M 15308,7817 L 15158,7817"/>
 <path fill="none" stroke="rgb(0,0,0)" stroke-width="30" stroke-linejoin="round" d="M 15308,6856 L 15158,6856"/>
 <path fill="none" stroke="rgb(0,0,0)" stroke-width="30" stroke-linejoin="round" d="M 15308,6856 L 15158,6856"/>
 <path fill="none" stroke="rgb(0,0,0)" stroke-width="30" stroke-linejoin="round" d="M 15308,5896 L 15158,5896"/>
 <path fill="none" stroke="rgb(0,0,0)" stroke-width="30" stroke-linejoin="round" d="M 15308,5896 L 15158,5896"/>
 <path fill="none" stroke="rgb(0,0,0)" stroke-width="30" stroke-linejoin="round" d="M 15308,4935 L 15158,4935"/>
 <path fill="none" stroke="rgb(0,0,0)" stroke-width="30" stroke-linejoin="round" d="M 15308,4935 L 15158,4935"/>
 <path fill="none" stroke="rgb(0,0,0)" stroke-width="30" stroke-linejoin="round" d="M 15308,3974 L 15158,3974"/>
 <path fill="none" stroke="rgb(0,0,0)" stroke-width="30" stroke-linejoin="round" d="M 15308,3974 L 15158,3974"/>
 <path fill="none" stroke="rgb(0,0,0)" stroke-width="30" stroke-linejoin="round" d="M 15308,3013 L 15158,3013"/>
 <path fill="none" stroke="rgb(0,0,0)" stroke-width="30" stroke-linejoin="round" d="M 15308,3013 L 15158,3013"/>
 <path fill="none" stroke="rgb(0,0,0)" stroke-width="30" stroke-linejoin="round" d="M 15308,2052 L 15158,2052"/>
 <path fill="none" stroke="rgb(0,0,0)" stroke-width="30" stroke-linejoin="round" d="M 15308,2052 L 15158,2052"/>
 <path fill="none" stroke="rgb(0,0,0)" stroke-width="30" stroke-linejoin="round" d="M 15308,1091 L 15158,1091"/>
 <path fill="none" stroke="rgb(0,0,0)" stroke-width="30" stroke-linejoin="round" d="M 15308,1091 L 15158,1091"/>
 <path fill="none" stroke="rgb(0,0,0)" stroke-width="30" stroke-linejoin="round" d="M 15158,10701 L 15158,1091"/>
 <path fill="rgb(0,69,134)" stroke="none" d="M 1255,9935 L 1376,9943 1498,9997 1620,10024 1742,10030 1864,10045 1986,10072 2108,10097 2230,10108 2352,10129 2474,10157 2596,10164 2718,10182 2840,10188 2962,10205 3084,10207 3206,10198 3328,10196 3450,10198 3572,10212 3694,10205 3816,10187 3938,10197 4060,10202 4182,10206 4304,10186 4426,10201 4548,10206 4670,10209 4791,10185 4913,10191 5035,10204 5157,10174 5279,10190 5401,10201 5523,10216 5645,10236 5767,10194 5889,10226 6011,10192 6133,10228 6255,10200 6377,10198 6499,10188 6621,10138 6743,10142 6865,10160 6987,10186 7109,10167 7231,10130 7353,10138 7475,10156 7597,10135 7719,10118 7841,10113 7963,10092 8085,10064 8207,10091 8327,10074 8449,10036 8571,10007 8693,9948 8815,9917 8937,9934 9059,9964 9181,9898 9303,9843 9425,9818 9547,9768 9669,9471 9791,9504 9913,9542 10035,9560 10157,9369 10279,9380 10401,9296 10523,9198 10645,9202 10767,9360 10889,9466 11011,9527 11133,9413 11255,9453 11377,9289 11499,9181 11621,9078 11742,8948 11864,8897 11986,8862 12108,8806 12230,8642 12352,8522 12474,8355 12596,8333 12718,8215 12840,8245 12962,8095 13084,7959 13206,7812 13328,7980 13450,7786 13572,7711 13694,7564 13816,7373 13938,7144 14060,6975 14182,6936 14304,6940 14426,6748 14548,6546 14670,6492 14792,6704 14914,6599 15036,6578 15158,6472 15158,10701 1255,10701 1255,9935 Z"/>
 <path fill="none" stroke="rgb(0,0,0)" stroke-linejoin="round" d="M 1255,9935 L 1376,9943 1498,9997 1620,10024 1742,10030 1864,10045 1986,10072 2108,10097 2230,10108 2352,10129 2474,10157 2596,10164 2718,10182 2840,10188 2962,10205 3084,10207 3206,10198 3328,10196 3450,10198 3572,10212 3694,10205 3816,10187 3938,10197 4060,10202 4182,10206 4304,10186 4426,10201 4548,10206 4670,10209 4791,10185 4913,10191 5035,10204 5157,10174 5279,10190 5401,10201 5523,10216 5645,10236 5767,10194 5889,10226 6011,10192 6133,10228 6255,10200 6377,10198 6499,10188 6621,10138 6743,10142 6865,10160 6987,10186 7109,10167 7231,10130 7353,10138 7475,10156 7597,10135 7719,10118 7841,10113 7963,10092 8085,10064 8207,10091 8327,10074 8449,10036 8571,10007 8693,9948 8815,9917 8937,9934 9059,9964 9181,9898 9303,9843 9425,9818 9547,9768 9669,9471 9791,9504 9913,9542 10035,9560 10157,9369 10279,9380 10401,9296 10523,9198 10645,9202 10767,9360 10889,9466 11011,9527 11133,9413 11255,9453 11377,9289 11499,9181 11621,9078 11742,8948 11864,8897 11986,8862 12108,8806 12230,8642 12352,8522 12474,8355 12596,8333 12718,8215 12840,8245 12962,8095 13084,7959 13206,7812 13328,7980 13450,7786 13572,7711 13694,7564 13816,7373 13938,7144 14060,6975 14182,6936 14304,6940 14426,6748 14548,6546 14670,6492 14792,6704 14914,6599 15036,6578 15158,6472 15158,10701 1255,10701 1255,9935 Z"/>
 <path fill="rgb(255,66,14)" stroke="none" d="M 1255,4952 L 1376,4999 1498,5180 1620,5270 1742,5322 1864,5301 1986,5490 2108,5587 2230,5635 2352,5743 2474,5845 2596,5875 2718,6005 2840,6092 2962,6208 3084,6239 3206,6291 3328,6338 3450,6358 3572,6403 3694,6423 3816,6453 3938,6520 4060,6536 4182,6624 4304,6662 4426,6773 4548,6810 4670,6859 4791,6920 4913,6917 5035,6927 5157,6920 5279,6997 5401,7038 5523,7064 5645,7092 5767,7123 5889,7188 6011,7196 6133,7247 6255,7270 6377,7308 6499,7309 6621,7268 6743,7308 6865,7366 6987,7477 7109,7414 7231,7293 7353,7297 7475,7341 7597,7335 7719,7258 7841,7335 7963,7394 8085,7417 8207,7484 8327,7413 8449,7392 8571,7337 8693,7118 8815,7205 8937,7146 9059,7183 9181,7215 9303,7228 9425,7217 9547,7119 9669,6928 9791,7018 9913,7105 10035,7092 10157,6876 10279,6899 10401,6886 10523,6824 10645,6890 10767,7229 10889,7388 11011,7312 11133,7249 11255,7322 11377,7220 11499,7076 11621,6987 11742,6745 11864,6803 11986,6847 12108,6896 12230,6737 12352,6620 12474,6506 12596,6497 12718,6511 12840,6543 12962,6404 13084,6262 13206,6170 13328,6426 13450,6266 13572,6166 13694,6065 13816,5910 13938,5642 14060,5619 14182,5641 14304,5617 14426,5397 14548,5119 14670,5079 14792,5309 14914,5202 15036,5079 15158,5105 15158,6472 15036,6578 14914,6599 14792,6704 14670,6492 14548,6546 14426,6748 14304,6940 14182,6936 14060,6975 13938,7144 13816,7373 13694,7564 13572,7711 13450,7786 13328,7980 13206,7812 13084,7959 12962,8095 12840,8245 12718,8215 12596,8333 12474,8355 12352,8522 12230,8642 12108,8806 11986,8862 11864,8897 11742,8948 11621,9078 11499,9181 11377,9289 11255,9453 11133,9413 11011,9527 10889,9466 10767,9360 10645,9202 10523,9198 10401,9296 10279,9380 10157,9369 10035,9560 9913,9542 9791,9504 9669,9471 9547,9768 9425,9818 9303,9843 9181,9898 9059,9964 8937,9934 8815,9917 8693,9948 8571,10007 8449,10036 8327,10074 8207,10091 8085,10064 7963,10092 7841,10113 7719,10118 7597,10135 7475,10156 7353,10138 7231,10130 7109,10167 6987,10186 6865,10160 6743,10142 6621,10138 6499,10188 6377,10198 6255,10200 6133,10228 6011,10192 5889,10226 5767,10194 5645,10236 5523,10216 5401,10201 5279,10190 5157,10174 5035,10204 4913,10191 4791,10185 4670,10209 4548,10206 4426,10201 4304,10186 4182,10206 4060,10202 3938,10197 3816,10187 3694,10205 3572,10212 3450,10198 3328,10196 3206,10198 3084,10207 2962,10205 2840,10188 2718,10182 2596,10164 2474,10157 2352,10129 2230,10108 2108,10097 1986,10072 1864,10045 1742,10030 1620,10024 1498,9997 1376,9943 1255,9935 1255,4952 Z"/>
 <path fill="none" stroke="rgb(0,0,0)" stroke-linejoin="round" d="M 1255,4952 L 1376,4999 1498,5180 1620,5270 1742,5322 1864,5301 1986,5490 2108,5587 2230,5635 2352,5743 2474,5845 2596,5875 2718,6005 2840,6092 2962,6208 3084,6239 3206,6291 3328,6338 3450,6358 3572,6403 3694,6423 3816,6453 3938,6520 4060,6536 4182,6624 4304,6662 4426,6773 4548,6810 4670,6859 4791,6920 4913,6917 5035,6927 5157,6920 5279,6997 5401,7038 5523,7064 5645,7092 5767,7123 5889,7188 6011,7196 6133,7247 6255,7270 6377,7308 6499,7309 6621,7268 6743,7308 6865,7366 6987,7477 7109,7414 7231,7293 7353,7297 7475,7341 7597,7335 7719,7258 7841,7335 7963,7394 8085,7417 8207,7484 8327,7413 8449,7392 8571,7337 8693,7118 8815,7205 8937,7146 9059,7183 9181,7215 9303,7228 9425,7217 9547,7119 9669,6928 9791,7018 9913,7105 10035,7092 10157,6876 10279,6899 10401,6886 10523,6824 10645,6890 10767,7229 10889,7388 11011,7312 11133,7249 11255,7322 11377,7220 11499,7076 11621,6987 11742,6745 11864,6803 11986,6847 12108,6896 12230,6737 12352,6620 12474,6506 12596,6497 12718,6511 12840,6543 12962,6404 13084,6262 13206,6170 13328,6426 13450,6266 13572,6166 13694,6065 13816,5910 13938,5642 14060,5619 14182,5641 14304,5617 14426,5397 14548,5119 14670,5079 14792,5309 14914,5202 15036,5079 15158,5105 15158,6472 15036,6578 14914,6599 14792,6704 14670,6492 14548,6546 14426,6748 14304,6940 14182,6936 14060,6975 13938,7144 13816,7373 13694,7564 13572,7711 13450,7786 13328,7980 13206,7812 13084,7959 12962,8095 12840,8245 12718,8215 12596,8333 12474,8355 12352,8522 12230,8642 12108,8806 11986,8862 11864,8897 11742,8948 11621,9078 11499,9181 11377,9289 11255,9453 11133,9413 11011,9527 10889,9466 10767,9360 10645,9202 10523,9198 10401,9296 10279,9380 10157,9369 10035,9560 9913,9542 9791,9504 9669,9471 9547,9768 9425,9818 9303,9843 9181,9898 9059,9964 8937,9934 8815,9917 8693,9948 8571,10007 8449,10036 8327,10074 8207,10091 8085,10064 7963,10092 7841,10113 7719,10118 7597,10135 7475,10156 7353,10138 7231,10130 7109,10167 6987,10186 6865,10160 6743,10142 6621,10138 6499,10188 6377,10198 6255,10200 6133,10228 6011,10192 5889,10226 5767,10194 5645,10236 5523,10216 5401,10201 5279,10190 5157,10174 5035,10204 4913,10191 4791,10185 4670,10209 4548,10206 4426,10201 4304,10186 4182,10206 4060,10202 3938,10197 3816,10187 3694,10205 3572,10212 3450,10198 3328,10196 3206,10198 3084,10207 2962,10205 2840,10188 2718,10182 2596,10164 2474,10157 2352,10129 2230,10108 2108,10097 1986,10072 1864,10045 1742,10030 1620,10024 1498,9997 1376,9943 1255,9935 1255,4952 Z"/>
 <path fill="rgb(255,211,32)" stroke="none" d="M 1255,1619 L 1376,1634 1498,1691 1620,1744 1742,1708 1864,1711 1986,1787 2108,1801 2230,1808 2352,1844 2474,1877 2596,1847 2718,1883 2840,1933 2962,1960 3084,1976 3206,2003 3328,2036 3450,2035 3572,2029 3694,2055 3816,2069 3938,2101 4060,2109 4182,2140 4304,2166 4426,2191 4548,2209 4670,2242 4791,2277 4913,2288 5035,2326 5157,2333 5279,2370 5401,2403 5523,2390 5645,2367 5767,2396 5889,2391 6011,2449 6133,2457 6255,2486 6377,2522 6499,2552 6621,2566 6743,2622 6865,2653 6987,2683 7109,2659 7231,2611 7353,2630 7475,2679 7597,2721 7719,2701 7841,2752 7963,2762 8085,2795 8207,2836 8327,2771 8449,2786 8571,2774 8693,2692 8815,2715 8937,2696 9059,2672 9181,2722 9303,2790 9425,2787 9547,2745 9669,2797 9791,2829 9913,2889 10035,2819 10157,2798 10279,2834 10401,2849 10523,2858 10645,2908 10767,3097 10889,3127 11011,2994 11133,2889 11255,2945 11377,2963 11499,2984 11621,2986 11742,2935 11864,2925 11986,3002 12108,3007 12230,2938 12352,2968 12474,2938 12596,2899 12718,2931 12840,2941 12962,2941 13084,2933 13206,2927 13328,3075 13450,2992 13572,2957 13694,2950 13816,2926 13938,2796 14060,2787 14182,2802 14304,2755 14426,2610 14548,2515 14670,2501 14792,2564 14914,2563 15036,2529 15158,2555 15158,5105 15036,5079 14914,5202 14792,5309 14670,5079 14548,5119 14426,5397 14304,5617 14182,5641 14060,5619 13938,5642 13816,5910 13694,6065 13572,6166 13450,6266 13328,6426 13206,6170 13084,6262 12962,6404 12840,6543 12718,6511 12596,6497 12474,6506 12352,6620 12230,6737 12108,6896 11986,6847 11864,6803 11742,6745 11621,6987 11499,7076 11377,7220 11255,7322 11133,7249 11011,7312 10889,7388 10767,7229 10645,6890 10523,6824 10401,6886 10279,6899 10157,6876 10035,7092 9913,7105 9791,7018 9669,6928 9547,7119 9425,7217 9303,7228 9181,7215 9059,7183 8937,7146 8815,7205 8693,7118 8571,7337 8449,7392 8327,7413 8207,7484 8085,7417 7963,7394 7841,7335 7719,7258 7597,7335 7475,7341 7353,7297 7231,7293 7109,7414 6987,7477 6865,7366 6743,7308 6621,7268 6499,7309 6377,7308 6255,7270 6133,7247 6011,7196 5889,7188 5767,7123 5645,7092 5523,7064 5401,7038 5279,6997 5157,6920 5035,6927 4913,6917 4791,6920 4670,6859 4548,6810 4426,6773 4304,6662 4182,6624 4060,6536 3938,6520 3816,6453 3694,6423 3572,6403 3450,6358 3328,6338 3206,6291 3084,6239 2962,6208 2840,6092 2718,6005 2596,5875 2474,5845 2352,5743 2230,5635 2108,5587 1986,5490 1864,5301 1742,5322 1620,5270 1498,5180 1376,4999 1255,4952 1255,1619 Z"/>
 <path fill="none" stroke="rgb(0,0,0)" stroke-linejoin="round" d="M 1255,1619 L 1376,1634 1498,1691 1620,1744 1742,1708 1864,1711 1986,1787 2108,1801 2230,1808 2352,1844 2474,1877 2596,1847 2718,1883 2840,1933 2962,1960 3084,1976 3206,2003 3328,2036 3450,2035 3572,2029 3694,2055 3816,2069 3938,2101 4060,2109 4182,2140 4304,2166 4426,2191 4548,2209 4670,2242 4791,2277 4913,2288 5035,2326 5157,2333 5279,2370 5401,2403 5523,2390 5645,2367 5767,2396 5889,2391 6011,2449 6133,2457 6255,2486 6377,2522 6499,2552 6621,2566 6743,2622 6865,2653 6987,2683 7109,2659 7231,2611 7353,2630 7475,2679 7597,2721 7719,2701 7841,2752 7963,2762 8085,2795 8207,2836 8327,2771 8449,2786 8571,2774 8693,2692 8815,2715 8937,2696 9059,2672 9181,2722 9303,2790 9425,2787 9547,2745 9669,2797 9791,2829 9913,2889 10035,2819 10157,2798 10279,2834 10401,2849 10523,2858 10645,2908 10767,3097 10889,3127 11011,2994 11133,2889 11255,2945 11377,2963 11499,2984 11621,2986 11742,2935 11864,2925 11986,3002 12108,3007 12230,2938 12352,2968 12474,2938 12596,2899 12718,2931 12840,2941 12962,2941 13084,2933 13206,2927 13328,3075 13450,2992 13572,2957 13694,2950 13816,2926 13938,2796 14060,2787 14182,2802 14304,2755 14426,2610 14548,2515 14670,2501 14792,2564 14914,2563 15036,2529 15158,2555 15158,5105 15036,5079 14914,5202 14792,5309 14670,5079 14548,5119 14426,5397 14304,5617 14182,5641 14060,5619 13938,5642 13816,5910 13694,6065 13572,6166 13450,6266 13328,6426 13206,6170 13084,6262 12962,6404 12840,6543 12718,6511 12596,6497 12474,6506 12352,6620 12230,6737 12108,6896 11986,6847 11864,6803 11742,6745 11621,6987 11499,7076 11377,7220 11255,7322 11133,7249 11011,7312 10889,7388 10767,7229 10645,6890 10523,6824 10401,6886 10279,6899 10157,6876 10035,7092 9913,7105 9791,7018 9669,6928 9547,7119 9425,7217 9303,7228 9181,7215 9059,7183 8937,7146 8815,7205 8693,7118 8571,7337 8449,7392 8327,7413 8207,7484 8085,7417 7963,7394 7841,7335 7719,7258 7597,7335 7475,7341 7353,7297 7231,7293 7109,7414 6987,7477 6865,7366 6743,7308 6621,7268 6499,7309 6377,7308 6255,7270 6133,7247 6011,7196 5889,7188 5767,7123 5645,7092 5523,7064 5401,7038 5279,6997 5157,6920 5035,6927 4913,6917 4791,6920 4670,6859 4548,6810 4426,6773 4304,6662 4182,6624 4060,6536 3938,6520 3816,6453 3694,6423 3572,6403 3450,6358 3328,6338 3206,6291 3084,6239 2962,6208 2840,6092 2718,6005 2596,5875 2474,5845 2352,5743 2230,5635 2108,5587 1986,5490 1864,5301 1742,5322 1620,5270 1498,5180 1376,4999 1255,4952 1255,1619 Z"/>
 <path fill="rgb(87,157,28)" stroke="none" d="M 1255,1235 L 1376,1237 1498,1244 1620,1252 1742,1254 1864,1258 1986,1274 2108,1283 2230,1280 2352,1292 2474,1307 2596,1300 2718,1309 2840,1332 2962,1347 3084,1361 3206,1380 3328,1411 3450,1413 3572,1420 3694,1428 3816,1448 3938,1476 4060,1496 4182,1529 4304,1562 4426,1593 4548,1618 4670,1651 4791,1688 4913,1704 5035,1732 5157,1747 5279,1785 5401,1821 5523,1828 5645,1827 5767,1862 5889,1873 6011,1914 6133,1914 6255,1954 6377,1991 6499,2026 6621,2055 6743,2115 6865,2138 6987,2173 7109,2168 7231,2155 7353,2177 7475,2222 7597,2264 7719,2258 7841,2307 7963,2325 8085,2352 8207,2379 8327,2338 8449,2362 8571,2358 8693,2311 8815,2327 8937,2330 9059,2312 9181,2355 9303,2407 9425,2421 9547,2402 9669,2489 9791,2507 9913,2547 10035,2474 10157,2475 10279,2502 10401,2512 10523,2511 10645,2553 10767,2674 10889,2673 11011,2569 11133,2503 11255,2558 11377,2604 11499,2622 11621,2634 11742,2600 11864,2600 11986,2672 12108,2677 12230,2637 12352,2646 12474,2624 12596,2595 12718,2629 12840,2639 12962,2646 13084,2646 13206,2647 13328,2779 13450,2705 13572,2680 13694,2679 13816,2664 13938,2557 14060,2554 14182,2569 14304,2543 14426,2406 14548,2326 14670,2304 14792,2362 14914,2359 15036,2341 15158,2354 15158,2555 15036,2529 14914,2563 14792,2564 14670,2501 14548,2515 14426,2610 14304,2755 14182,2802 14060,2787 13938,2796 13816,2926 13694,2950 13572,2957 13450,2992 13328,3075 13206,2927 13084,2933 12962,2941 12840,2941 12718,2931 12596,2899 12474,2938 12352,2968 12230,2938 12108,3007 11986,3002 11864,2925 11742,2935 11621,2986 11499,2984 11377,2963 11255,2945 11133,2889 11011,2994 10889,3127 10767,3097 10645,2908 10523,2858 10401,2849 10279,2834 10157,2798 10035,2819 9913,2889 9791,2829 9669,2797 9547,2745 9425,2787 9303,2790 9181,2722 9059,2672 8937,2696 8815,2715 8693,2692 8571,2774 8449,2786 8327,2771 8207,2836 8085,2795 7963,2762 7841,2752 7719,2701 7597,2721 7475,2679 7353,2630 7231,2611 7109,2659 6987,2683 6865,2653 6743,2622 6621,2566 6499,2552 6377,2522 6255,2486 6133,2457 6011,2449 5889,2391 5767,2396 5645,2367 5523,2390 5401,2403 5279,2370 5157,2333 5035,2326 4913,2288 4791,2277 4670,2242 4548,2209 4426,2191 4304,2166 4182,2140 4060,2109 3938,2101 3816,2069 3694,2055 3572,2029 3450,2035 3328,2036 3206,2003 3084,1976 2962,1960 2840,1933 2718,1883 2596,1847 2474,1877 2352,1844 2230,1808 2108,1801 1986,1787 1864,1711 1742,1708 1620,1744 1498,1691 1376,1634 1255,1619 1255,1235 Z"/>
 <path fill="none" stroke="rgb(0,0,0)" stroke-linejoin="round" d="M 1255,1235 L 1376,1237 1498,1244 1620,1252 1742,1254 1864,1258 1986,1274 2108,1283 2230,1280 2352,1292 2474,1307 2596,1300 2718,1309 2840,1332 2962,1347 3084,1361 3206,1380 3328,1411 3450,1413 3572,1420 3694,1428 3816,1448 3938,1476 4060,1496 4182,1529 4304,1562 4426,1593 4548,1618 4670,1651 4791,1688 4913,1704 5035,1732 5157,1747 5279,1785 5401,1821 5523,1828 5645,1827 5767,1862 5889,1873 6011,1914 6133,1914 6255,1954 6377,1991 6499,2026 6621,2055 6743,2115 6865,2138 6987,2173 7109,2168 7231,2155 7353,2177 7475,2222 7597,2264 7719,2258 7841,2307 7963,2325 8085,2352 8207,2379 8327,2338 8449,2362 8571,2358 8693,2311 8815,2327 8937,2330 9059,2312 9181,2355 9303,2407 9425,2421 9547,2402 9669,2489 9791,2507 9913,2547 10035,2474 10157,2475 10279,2502 10401,2512 10523,2511 10645,2553 10767,2674 10889,2673 11011,2569 11133,2503 11255,2558 11377,2604 11499,2622 11621,2634 11742,2600 11864,2600 11986,2672 12108,2677 12230,2637 12352,2646 12474,2624 12596,2595 12718,2629 12840,2639 12962,2646 13084,2646 13206,2647 13328,2779 13450,2705 13572,2680 13694,2679 13816,2664 13938,2557 14060,2554 14182,2569 14304,2543 14426,2406 14548,2326 14670,2304 14792,2362 14914,2359 15036,2341 15158,2354 15158,2555 15036,2529 14914,2563 14792,2564 14670,2501 14548,2515 14426,2610 14304,2755 14182,2802 14060,2787 13938,2796 13816,2926 13694,2950 13572,2957 13450,2992 13328,3075 13206,2927 13084,2933 12962,2941 12840,2941 12718,2931 12596,2899 12474,2938 12352,2968 12230,2938 12108,3007 11986,3002 11864,2925 11742,2935 11621,2986 11499,2984 11377,2963 11255,2945 11133,2889 11011,2994 10889,3127 10767,3097 10645,2908 10523,2858 10401,2849 10279,2834 10157,2798 10035,2819 9913,2889 9791,2829 9669,2797 9547,2745 9425,2787 9303,2790 9181,2722 9059,2672 8937,2696 8815,2715 8693,2692 8571,2774 8449,2786 8327,2771 8207,2836 8085,2795 7963,2762 7841,2752 7719,2701 7597,2721 7475,2679 7353,2630 7231,2611 7109,2659 6987,2683 6865,2653 6743,2622 6621,2566 6499,2552 6377,2522 6255,2486 6133,2457 6011,2449 5889,2391 5767,2396 5645,2367 5523,2390 5401,2403 5279,2370 5157,2333 5035,2326 4913,2288 4791,2277 4670,2242 4548,2209 4426,2191 4304,2166 4182,2140 4060,2109 3938,2101 3816,2069 3694,2055 3572,2029 3450,2035 3328,2036 3206,2003 3084,1976 2962,1960 2840,1933 2718,1883 2596,1847 2474,1877 2352,1844 2230,1808 2108,1801 1986,1787 1864,1711 1742,1708 1620,1744 1498,1691 1376,1634 1255,1619 1255,1235 Z"/>
 <path fill="rgb(126,0,33)" stroke="none" d="M 1255,1130 L 1376,1128 1498,1125 1620,1130 1742,1127 1864,1133 1986,1133 2108,1133 2230,1129 2352,1135 2474,1138 2596,1140 2718,1136 2840,1143 2962,1151 3084,1162 3206,1169 3328,1190 3450,1186 3572,1190 3694,1176 3816,1187 3938,1198 4060,1212 4182,1225 4304,1237 4426,1250 4548,1265 4670,1278 4791,1298 4913,1298 5035,1306 5157,1329 5279,1358 5401,1371 5523,1376 5645,1375 5767,1392 5889,1408 6011,1432 6133,1424 6255,1448 6377,1467 6499,1486 6621,1516 6743,1557 6865,1560 6987,1572 7109,1581 7231,1592 7353,1606 7475,1623 7597,1645 7719,1647 7841,1679 7963,1682 8085,1686 8207,1667 8327,1655 8449,1670 8571,1651 8693,1645 8815,1644 8937,1662 9059,1620 9181,1634 9303,1653 9425,1664 9547,1695 9669,1781 9791,1765 9913,1738 10035,1670 10157,1687 10279,1696 10401,1688 10523,1669 10645,1683 10767,1743 10889,1698 11011,1637 11133,1597 11255,1634 11377,1679 11499,1665 11621,1666 11742,1658 11864,1634 11986,1698 12108,1698 12230,1685 12352,1656 12474,1632 12596,1602 12718,1607 12840,1616 12962,1612 13084,1613 13206,1623 13328,1667 13450,1625 13572,1617 13694,1604 13816,1594 13938,1567 14060,1545 14182,1566 14304,1576 14426,1526 14548,1502 14670,1466 14792,1483 14914,1477 15036,1499 15158,1480 15158,2354 15036,2341 14914,2359 14792,2362 14670,2304 14548,2326 14426,2406 14304,2543 14182,2569 14060,2554 13938,2557 13816,2664 13694,2679 13572,2680 13450,2705 13328,2779 13206,2647 13084,2646 12962,2646 12840,2639 12718,2629 12596,2595 12474,2624 12352,2646 12230,2637 12108,2677 11986,2672 11864,2600 11742,2600 11621,2634 11499,2622 11377,2604 11255,2558 11133,2503 11011,2569 10889,2673 10767,2674 10645,2553 10523,2511 10401,2512 10279,2502 10157,2475 10035,2474 9913,2547 9791,2507 9669,2489 9547,2402 9425,2421 9303,2407 9181,2355 9059,2312 8937,2330 8815,2327 8693,2311 8571,2358 8449,2362 8327,2338 8207,2379 8085,2352 7963,2325 7841,2307 7719,2258 7597,2264 7475,2222 7353,2177 7231,2155 7109,2168 6987,2173 6865,2138 6743,2115 6621,2055 6499,2026 6377,1991 6255,1954 6133,1914 6011,1914 5889,1873 5767,1862 5645,1827 5523,1828 5401,1821 5279,1785 5157,1747 5035,1732 4913,1704 4791,1688 4670,1651 4548,1618 4426,1593 4304,1562 4182,1529 4060,1496 3938,1476 3816,1448 3694,1428 3572,1420 3450,1413 3328,1411 3206,1380 3084,1361 2962,1347 2840,1332 2718,1309 2596,1300 2474,1307 2352,1292 2230,1280 2108,1283 1986,1274 1864,1258 1742,1254 1620,1252 1498,1244 1376,1237 1255,1235 1255,1130 Z"/>
 <path fill="none" stroke="rgb(0,0,0)" stroke-linejoin="round" d="M 1255,1130 L 1376,1128 1498,1125 1620,1130 1742,1127 1864,1133 1986,1133 2108,1133 2230,1129 2352,1135 2474,1138 2596,1140 2718,1136 2840,1143 2962,1151 3084,1162 3206,1169 3328,1190 3450,1186 3572,1190 3694,1176 3816,1187 3938,1198 4060,1212 4182,1225 4304,1237 4426,1250 4548,1265 4670,1278 4791,1298 4913,1298 5035,1306 5157,1329 5279,1358 5401,1371 5523,1376 5645,1375 5767,1392 5889,1408 6011,1432 6133,1424 6255,1448 6377,1467 6499,1486 6621,1516 6743,1557 6865,1560 6987,1572 7109,1581 7231,1592 7353,1606 7475,1623 7597,1645 7719,1647 7841,1679 7963,1682 8085,1686 8207,1667 8327,1655 8449,1670 8571,1651 8693,1645 8815,1644 8937,1662 9059,1620 9181,1634 9303,1653 9425,1664 9547,1695 9669,1781 9791,1765 9913,1738 10035,1670 10157,1687 10279,1696 10401,1688 10523,1669 10645,1683 10767,1743 10889,1698 11011,1637 11133,1597 11255,1634 11377,1679 11499,1665 11621,1666 11742,1658 11864,1634 11986,1698 12108,1698 12230,1685 12352,1656 12474,1632 12596,1602 12718,1607 12840,1616 12962,1612 13084,1613 13206,1623 13328,1667 13450,1625 13572,1617 13694,1604 13816,1594 13938,1567 14060,1545 14182,1566 14304,1576 14426,1526 14548,1502 14670,1466 14792,1483 14914,1477 15036,1499 15158,1480 15158,2354 15036,2341 14914,2359 14792,2362 14670,2304 14548,2326 14426,2406 14304,2543 14182,2569 14060,2554 13938,2557 13816,2664 13694,2679 13572,2680 13450,2705 13328,2779 13206,2647 13084,2646 12962,2646 12840,2639 12718,2629 12596,2595 12474,2624 12352,2646 12230,2637 12108,2677 11986,2672 11864,2600 11742,2600 11621,2634 11499,2622 11377,2604 11255,2558 11133,2503 11011,2569 10889,2673 10767,2674 10645,2553 10523,2511 10401,2512 10279,2502 10157,2475 10035,2474 9913,2547 9791,2507 9669,2489 9547,2402 9425,2421 9303,2407 9181,2355 9059,2312 8937,2330 8815,2327 8693,2311 8571,2358 8449,2362 8327,2338 8207,2379 8085,2352 7963,2325 7841,2307 7719,2258 7597,2264 7475,2222 7353,2177 7231,2155 7109,2168 6987,2173 6865,2138 6743,2115 6621,2055 6499,2026 6377,1991 6255,1954 6133,1914 6011,1914 5889,1873 5767,1862 5645,1827 5523,1828 5401,1821 5279,1785 5157,1747 5035,1732 4913,1704 4791,1688 4670,1651 4548,1618 4426,1593 4304,1562 4182,1529 4060,1496 3938,1476 3816,1448 3694,1428 3572,1420 3450,1413 3328,1411 3206,1380 3084,1361 2962,1347 2840,1332 2718,1309 2596,1300 2474,1307 2352,1292 2230,1280 2108,1283 1986,1274 1864,1258 1742,1254 1620,1252 1498,1244 1376,1237 1255,1235 1255,1130 Z"/>
 <path fill="rgb(131,202,255)" stroke="none" d="M 1255,1091 L 1376,1091 1498,1091 1620,1091 1742,1091 1864,1091 1986,1091 2108,1091 2230,1091 2352,1091 2474,1091 2596,1091 2718,1091 2840,1091 2962,1091 3084,1091 3206,1091 3328,1091 3450,1091 3572,1091 3694,1091 3816,1091 3938,1091 4060,1091 4182,1091 4304,1091 4426,1091 4548,1091 4670,1091 4791,1091 4913,1091 5035,1091 5157,1091 5279,1091 5401,1091 5523,1091 5645,1091 5767,1091 5889,1091 6011,1091 6133,1091 6255,1091 6377,1091 6499,1091 6621,1091 6743,1091 6865,1091 6987,1091 7109,1091 7231,1091 7353,1091 7475,1091 7597,1091 7719,1091 7841,1091 7963,1091 8085,1091 8207,1091 8327,1091 8449,1091 8571,1091 8693,1091 8815,1091 8937,1091 9059,1091 9181,1091 9303,1091 9425,1091 9547,1091 9669,1091 9791,1091 9913,1091 10035,1091 10157,1091 10279,1091 10401,1091 10523,1091 10645,1091 10767,1091 10889,1091 11011,1091 11133,1091 11255,1091 11377,1091 11499,1091 11621,1091 11742,1091 11864,1091 11986,1091 12108,1091 12230,1091 12352,1091 12474,1091 12596,1091 12718,1091 12840,1091 12962,1091 13084,1091 13206,1091 13328,1091 13450,1091 13572,1091 13694,1091 13816,1091 13938,1091 14060,1091 14182,1091 14304,1091 14426,1091 14548,1091 14670,1091 14792,1091 14914,1091 15036,1091 15158,1091 15158,1480 15036,1499 14914,1477 14792,1483 14670,1466 14548,1502 14426,1526 14304,1576 14182,1566 14060,1545 13938,1567 13816,1594 13694,1604 13572,1617 13450,1625 13328,1667 13206,1623 13084,1613 12962,1612 12840,1616 12718,1607 12596,1602 12474,1632 12352,1656 12230,1685 12108,1698 11986,1698 11864,1634 11742,1658 11621,1666 11499,1665 11377,1679 11255,1634 11133,1597 11011,1637 10889,1698 10767,1743 10645,1683 10523,1669 10401,1688 10279,1696 10157,1687 10035,1670 9913,1738 9791,1765 9669,1781 9547,1695 9425,1664 9303,1653 9181,1634 9059,1620 8937,1662 8815,1644 8693,1645 8571,1651 8449,1670 8327,1655 8207,1667 8085,1686 7963,1682 7841,1679 7719,1647 7597,1645 7475,1623 7353,1606 7231,1592 7109,1581 6987,1572 6865,1560 6743,1557 6621,1516 6499,1486 6377,1467 6255,1448 6133,1424 6011,1432 5889,1408 5767,1392 5645,1375 5523,1376 5401,1371 5279,1358 5157,1329 5035,1306 4913,1298 4791,1298 4670,1278 4548,1265 4426,1250 4304,1237 4182,1225 4060,1212 3938,1198 3816,1187 3694,1176 3572,1190 3450,1186 3328,1190 3206,1169 3084,1162 2962,1151 2840,1143 2718,1136 2596,1140 2474,1138 2352,1135 2230,1129 2108,1133 1986,1133 1864,1133 1742,1127 1620,1130 1498,1125 1376,1128 1255,1130 1255,1091 Z"/>
 <path fill="none" stroke="rgb(0,0,0)" stroke-linejoin="round" d="M 1255,1091 L 1376,1091 1498,1091 1620,1091 1742,1091 1864,1091 1986,1091 2108,1091 2230,1091 2352,1091 2474,1091 2596,1091 2718,1091 2840,1091 2962,1091 3084,1091 3206,1091 3328,1091 3450,1091 3572,1091 3694,1091 3816,1091 3938,1091 4060,1091 4182,1091 4304,1091 4426,1091 4548,1091 4670,1091 4791,1091 4913,1091 5035,1091 5157,1091 5279,1091 5401,1091 5523,1091 5645,1091 5767,1091 5889,1091 6011,1091 6133,1091 6255,1091 6377,1091 6499,1091 6621,1091 6743,1091 6865,1091 6987,1091 7109,1091 7231,1091 7353,1091 7475,1091 7597,1091 7719,1091 7841,1091 7963,1091 8085,1091 8207,1091 8327,1091 8449,1091 8571,1091 8693,1091 8815,1091 8937,1091 9059,1091 9181,1091 9303,1091 9425,1091 9547,1091 9669,1091 9791,1091 9913,1091 10035,1091 10157,1091 10279,1091 10401,1091 10523,1091 10645,1091 10767,1091 10889,1091 11011,1091 11133,1091 11255,1091 11377,1091 11499,1091 11621,1091 11742,1091 11864,1091 11986,1091 12108,1091 12230,1091 12352,1091 12474,1091 12596,1091 12718,1091 12840,1091 12962,1091 13084,1091 13206,1091 13328,1091 13450,1091 13572,1091 13694,1091 13816,1091 13938,1091 14060,1091 14182,1091 14304,1091 14426,1091 14548,1091 14670,1091 14792,1091 14914,1091 15036,1091 15158,1091 15158,1480 15036,1499 14914,1477 14792,1483 14670,1466 14548,1502 14426,1526 14304,1576 14182,1566 14060,1545 13938,1567 13816,1594 13694,1604 13572,1617 13450,1625 13328,1667 13206,1623 13084,1613 12962,1612 12840,1616 12718,1607 12596,1602 12474,1632 12352,1656 12230,1685 12108,1698 11986,1698 11864,1634 11742,1658 11621,1666 11499,1665 11377,1679 11255,1634 11133,1597 11011,1637 10889,1698 10767,1743 10645,1683 10523,1669 10401,1688 10279,1696 10157,1687 10035,1670 9913,1738 9791,1765 9669,1781 9547,1695 9425,1664 9303,1653 9181,1634 9059,1620 8937,1662 8815,1644 8693,1645 8571,1651 8449,1670 8327,1655 8207,1667 8085,1686 7963,1682 7841,1679 7719,1647 7597,1645 7475,1623 7353,1606 7231,1592 7109,1581 6987,1572 6865,1560 6743,1557 6621,1516 6499,1486 6377,1467 6255,1448 6133,1424 6011,1432 5889,1408 5767,1392 5645,1375 5523,1376 5401,1371 5279,1358 5157,1329 5035,1306 4913,1298 4791,1298 4670,1278 4548,1265 4426,1250 4304,1237 4182,1225 4060,1212 3938,1198 3816,1187 3694,1176 3572,1190 3450,1186 3328,1190 3206,1169 3084,1162 2962,1151 2840,1143 2718,1136 2596,1140 2474,1138 2352,1135 2230,1129 2108,1133 1986,1133 1864,1133 1742,1127 1620,1130 1498,1125 1376,1128 1255,1130 1255,1091 Z"/>
 <text class="TextShape"><tspan class="TextParagraph" font-family="Arial, sans-serif" font-size="388px" font-weight="400"><tspan class="TextPosition" x="1074" y="11295"><tspan fill="rgb(0,0,0)" stroke="none">2008</tspan></tspan></tspan></text>
 <text class="TextShape"><tspan class="TextParagraph" font-family="Arial, sans-serif" font-size="388px" font-weight="400"><tspan class="TextPosition" x="2538" y="11295"><tspan fill="rgb(0,0,0)" stroke="none">2009</tspan></tspan></tspan></text>
 <text class="TextShape"><tspan class="TextParagraph" font-family="Arial, sans-serif" font-size="388px" font-weight="400"><tspan class="TextPosition" x="4002" y="11295"><tspan fill="rgb(0,0,0)" stroke="none">2010</tspan></tspan></tspan></text>
 <text class="TextShape"><tspan class="TextParagraph" font-family="Arial, sans-serif" font-size="388px" font-weight="400"><tspan class="TextPosition" x="5479" y="11295"><tspan fill="rgb(0,0,0)" stroke="none">2011</tspan></tspan></tspan></text>
 <text class="TextShape"><tspan class="TextParagraph" font-family="Arial, sans-serif" font-size="388px" font-weight="400"><tspan class="TextPosition" x="6929" y="11295"><tspan fill="rgb(0,0,0)" stroke="none">2012</tspan></tspan></tspan></text>
 <text class="TextShape"><tspan class="TextParagraph" font-family="Arial, sans-serif" font-size="388px" font-weight="400"><tspan class="TextPosition" x="8392" y="11295"><tspan fill="rgb(0,0,0)" stroke="none">2013</tspan></tspan></tspan></text>
 <text class="TextShape"><tspan class="TextParagraph" font-family="Arial, sans-serif" font-size="388px" font-weight="400"><tspan class="TextPosition" x="9856" y="11295"><tspan fill="rgb(0,0,0)" stroke="none">2014</tspan></tspan></tspan></text>
 <text class="TextShape"><tspan class="TextParagraph" font-family="Arial, sans-serif" font-size="388px" font-weight="400"><tspan class="TextPosition" x="11319" y="11295"><tspan fill="rgb(0,0,0)" stroke="none">2015</tspan></tspan></tspan></text>
 <text class="TextShape"><tspan class="TextParagraph" font-family="Arial, sans-serif" font-size="388px" font-weight="400"><tspan class="TextPosition" x="12783" y="11295"><tspan fill="rgb(0,0,0)" stroke="none">2016</tspan></tspan></tspan></text>
 <text class="TextShape"><tspan class="TextParagraph" font-family="Arial, sans-serif" font-size="388px" font-weight="400"><tspan class="TextPosition" x="14247" y="11295"><tspan fill="rgb(0,0,0)" stroke="none">2017</tspan></tspan></tspan></text>
 <text class="TextShape"><tspan class="TextParagraph" font-family="Arial, sans-serif" font-size="388px" font-weight="400"><tspan class="TextPosition" x="449" y="10835"><tspan fill="rgb(0,0,0)" stroke="none">0%</tspan></tspan></tspan></text>
 <text class="TextShape"><tspan class="TextParagraph" font-family="Arial, sans-serif" font-size="388px" font-weight="400"><tspan class="TextPosition" x="238" y="9873"><tspan fill="rgb(0,0,0)" stroke="none">10%</tspan></tspan></tspan></text>
 <text class="TextShape"><tspan class="TextParagraph" font-family="Arial, sans-serif" font-size="388px" font-weight="400"><tspan class="TextPosition" x="238" y="8912"><tspan fill="rgb(0,0,0)" stroke="none">20%</tspan></tspan></tspan></text>
 <text class="TextShape"><tspan class="TextParagraph" font-family="Arial, sans-serif" font-size="388px" font-weight="400"><tspan class="TextPosition" x="238" y="7951"><tspan fill="rgb(0,0,0)" stroke="none">30%</tspan></tspan></tspan></text>
 <text class="TextShape"><tspan class="TextParagraph" font-family="Arial, sans-serif" font-size="388px" font-weight="400"><tspan class="TextPosition" x="238" y="6990"><tspan fill="rgb(0,0,0)" stroke="none">40%</tspan></tspan></tspan></text>
 <text class="TextShape"><tspan class="TextParagraph" font-family="Arial, sans-serif" font-size="388px" font-weight="400"><tspan class="TextPosition" x="238" y="6029"><tspan fill="rgb(0,0,0)" stroke="none">50%</tspan></tspan></tspan></text>
 <text class="TextShape"><tspan class="TextParagraph" font-family="Arial, sans-serif" font-size="388px" font-weight="400"><tspan class="TextPosition" x="238" y="5068"><tspan fill="rgb(0,0,0)" stroke="none">60%</tspan></tspan></tspan></text>
 <text class="TextShape"><tspan class="TextParagraph" font-family="Arial, sans-serif" font-size="388px" font-weight="400"><tspan class="TextPosition" x="238" y="4107"><tspan fill="rgb(0,0,0)" stroke="none">70%</tspan></tspan></tspan></text>
 <text class="TextShape"><tspan class="TextParagraph" font-family="Arial, sans-serif" font-size="388px" font-weight="400"><tspan class="TextPosition" x="238" y="3146"><tspan fill="rgb(0,0,0)" stroke="none">80%</tspan></tspan></tspan></text>
 <text class="TextShape"><tspan class="TextParagraph" font-family="Arial, sans-serif" font-size="388px" font-weight="400"><tspan class="TextPosition" x="238" y="2185"><tspan fill="rgb(0,0,0)" stroke="none">90%</tspan></tspan></tspan></text>
 <text class="TextShape"><tspan class="TextParagraph" font-family="Arial, sans-serif" font-size="388px" font-weight="400"><tspan class="TextPosition" x="26" y="1224"><tspan fill="rgb(0,0,0)" stroke="none">100%</tspan></tspan></tspan></text>
 <text class="TextShape"><tspan class="TextParagraph" font-family="Arial, sans-serif" font-size="388px" font-weight="400"><tspan class="TextPosition" x="15408" y="10835"><tspan fill="rgb(0,0,0)" stroke="none">0%</tspan></tspan></tspan></text>
 <text class="TextShape"><tspan class="TextParagraph" font-family="Arial, sans-serif" font-size="388px" font-weight="400"><tspan class="TextPosition" x="15408" y="9873"><tspan fill="rgb(0,0,0)" stroke="none">10%</tspan></tspan></tspan></text>
 <text class="TextShape"><tspan class="TextParagraph" font-family="Arial, sans-serif" font-size="388px" font-weight="400"><tspan class="TextPosition" x="15408" y="8912"><tspan fill="rgb(0,0,0)" stroke="none">20%</tspan></tspan></tspan></text>
 <text class="TextShape"><tspan class="TextParagraph" font-family="Arial, sans-serif" font-size="388px" font-weight="400"><tspan class="TextPosition" x="15408" y="7951"><tspan fill="rgb(0,0,0)" stroke="none">30%</tspan></tspan></tspan></text>
 <text class="TextShape"><tspan class="TextParagraph" font-family="Arial, sans-serif" font-size="388px" font-weight="400"><tspan class="TextPosition" x="15408" y="6990"><tspan fill="rgb(0,0,0)" stroke="none">40%</tspan></tspan></tspan></text>
 <text class="TextShape"><tspan class="TextParagraph" font-family="Arial, sans-serif" font-size="388px" font-weight="400"><tspan class="TextPosition" x="15408" y="6029"><tspan fill="rgb(0,0,0)" stroke="none">50%</tspan></tspan></tspan></text>
 <text class="TextShape"><tspan class="TextParagraph" font-family="Arial, sans-serif" font-size="388px" font-weight="400"><tspan class="TextPosition" x="15408" y="5068"><tspan fill="rgb(0,0,0)" stroke="none">60%</tspan></tspan></tspan></text>
 <text class="TextShape"><tspan class="TextParagraph" font-family="Arial, sans-serif" font-size="388px" font-weight="400"><tspan class="TextPosition" x="15408" y="4107"><tspan fill="rgb(0,0,0)" stroke="none">70%</tspan></tspan></tspan></text>
 <text class="TextShape"><tspan class="TextParagraph" font-family="Arial, sans-serif" font-size="388px" font-weight="400"><tspan class="TextPosition" x="15408" y="3146"><tspan fill="rgb(0,0,0)" stroke="none">80%</tspan></tspan></tspan></text>
 <text class="TextShape"><tspan class="TextParagraph" font-family="Arial, sans-serif" font-size="388px" font-weight="400"><tspan class="TextPosition" x="15408" y="2185"><tspan fill="rgb(0,0,0)" stroke="none">90%</tspan></tspan></tspan></text>
 <text class="TextShape"><tspan class="TextParagraph" font-family="Arial, sans-serif" font-size="388px" font-weight="400"><tspan class="TextPosition" x="15408" y="1224"><tspan fill="rgb(0,0,0)" stroke="none">100%</tspan></tspan></tspan></text>
 <text class="TextShape"><tspan class="TextParagraph" font-family="Liberation Sans, sans-serif" font-size="635px" font-weight="400"><tspan class="TextPosition" x="5491" y="747"><tspan fill="rgb(0,0,0)" stroke="none">Nmero de pxeles </tspan></tspan></tspan></text>
 <path fill="rgb(0,69,134)" stroke="none" d="M 3179,11972 L 3074,11972 3074,11761 3285,11761 3285,11972 3179,11972 Z"/>
 <path fill="none" stroke="rgb(0,0,0)" stroke-linejoin="round" d="M 3179,11972 L 3074,11972 3074,11761 3285,11761 3285,11972 3179,11972 Z"/>
 <path fill="rgb(255,66,14)" stroke="none" d="M 5020,11972 L 4915,11972 4915,11761 5126,11761 5126,11972 5020,11972 Z"/>
 <path fill="none" stroke="rgb(0,0,0)" stroke-linejoin="round" d="M 5020,11972 L 4915,11972 4915,11761 5126,11761 5126,11972 5020,11972 Z"/>
 <path fill="rgb(255,211,32)" stroke="none" d="M 6861,11972 L 6756,11972 6756,11761 6967,11761 6967,11972 6861,11972 Z"/>
 <path fill="none" stroke="rgb(0,0,0)" stroke-linejoin="round" d="M 6861,11972 L 6756,11972 6756,11761 6967,11761 6967,11972 6861,11972 Z"/>
 <path fill="rgb(87,157,28)" stroke="none" d="M 8702,11972 L 8596,11972 8596,11761 8807,11761 8807,11972 8702,11972 Z"/>
 <path fill="none" stroke="rgb(0,0,0)" stroke-linejoin="round" d="M 8702,11972 L 8596,11972 8596,11761 8807,11761 8807,11972 8702,11972 Z"/>
 <path fill="rgb(126,0,33)" stroke="none" d="M 10543,11972 L 10437,11972 10437,11761 10648,11761 10648,11972 10543,11972 Z"/>
 <path fill="none" stroke="rgb(0,0,0)" stroke-linejoin="round" d="M 10543,11972 L 10437,11972 10437,11761 10648,11761 10648,11972 10543,11972 Z"/>
 <path fill="rgb(131,202,255)" stroke="none" d="M 12384,11972 L 12278,11972 12278,11761 12489,11761 12489,11972 12384,11972 Z"/>
 <path fill="none" stroke="rgb(0,0,0)" stroke-linejoin="round" d="M 12384,11972 L 12278,11972 12278,11761 12489,11761 12489,11972 12384,11972 Z"/>
 <text class="TextShape"><tspan class="TextParagraph" font-family="Arial, sans-serif" font-size="353px" font-weight="400"><tspan class="TextPosition" x="3385" y="11985"><tspan fill="rgb(0,0,0)" stroke="none">0,5 MPx</tspan></tspan></tspan></text>
 <text class="TextShape"><tspan class="TextParagraph" font-family="Arial, sans-serif" font-size="353px" font-weight="400"><tspan class="TextPosition" x="5226" y="11985"><tspan fill="rgb(0,0,0)" stroke="none">1,0 MPx</tspan></tspan></tspan></text>
 <text class="TextShape"><tspan class="TextParagraph" font-family="Arial, sans-serif" font-size="353px" font-weight="400"><tspan class="TextPosition" x="7067" y="11985"><tspan fill="rgb(0,0,0)" stroke="none">1,5 MPx</tspan></tspan></tspan></text>
 <text class="TextShape"><tspan class="TextParagraph" font-family="Arial, sans-serif" font-size="353px" font-weight="400"><tspan class="TextPosition" x="8907" y="11985"><tspan fill="rgb(0,0,0)" stroke="none">2,0 MPx</tspan></tspan></tspan></text>
 <text class="TextShape"><tspan class="TextParagraph" font-family="Arial, sans-serif" font-size="353px" font-weight="400"><tspan class="TextPosition" x="10748" y="11985"><tspan fill="rgb(0,0,0)" stroke="none">2,5 MPx</tspan></tspan></tspan></text>
 <text class="TextShape"><tspan class="TextParagraph" font-family="Arial, sans-serif" font-size="353px" font-weight="400"><tspan class="TextPosition" x="12589" y="11985"><tspan fill="rgb(0,0,0)" stroke="none">Otros</tspan></tspan></tspan></text>
</svg>
