<?xml version="1.0" encoding="UTF-8"?>
<!DOCTYPE svg PUBLIC "-//W3C//DTD SVG 1.1//EN" "http://www.w3.org/Graphics/SVG/1.1/DTD/svg11.dtd">
<svg width="164mm" height="123mm" viewBox="0 0 16400 12300" version="1.1" xmlns="http://www.w3.org/2000/svg" stroke-width="28.222" stroke-linejoin="round" xml:space="preserve">
 <path fill="rgb(255,255,255)" stroke="none" d="M 8197,12262 L 0,12262 0,0 16393,0 16393,12262 8197,12262 Z"/>
 <path fill="none" stroke="rgb(179,179,179)" stroke-linejoin="round" d="M 8179,10812 L 1167,10812 1167,1093 15190,1093 15190,10812 8179,10812 Z"/>
 <path fill="none" stroke="rgb(0,0,0)" stroke-width="20" stroke-linejoin="round" d="M 15190,10811 L 1167,10811"/>
 <path fill="none" stroke="rgb(0,0,0)" stroke-width="20" stroke-linejoin="round" d="M 15190,9422 L 1167,9422"/>
 <path fill="none" stroke="rgb(0,0,0)" stroke-width="20" stroke-linejoin="round" d="M 15190,8033 L 1167,8033"/>
 <path fill="none" stroke="rgb(0,0,0)" stroke-width="20" stroke-linejoin="round" d="M 15190,6645 L 1167,6645"/>
 <path fill="none" stroke="rgb(0,0,0)" stroke-width="20" stroke-linejoin="round" d="M 15190,5257 L 1167,5257"/>
 <path fill="none" stroke="rgb(0,0,0)" stroke-width="20" stroke-linejoin="round" d="M 15190,3869 L 1167,3869"/>
 <path fill="none" stroke="rgb(0,0,0)" stroke-width="20" stroke-linejoin="round" d="M 15190,2480 L 1167,2480"/>
 <path fill="none" stroke="rgb(0,0,0)" stroke-width="20" stroke-linejoin="round" d="M 15190,1092 L 1167,1092"/>
 <path fill="none" stroke="rgb(0,0,0)" stroke-width="30" stroke-linejoin="round" d="M 1167,10961 L 1167,10811"/>
 <path fill="none" stroke="rgb(0,0,0)" stroke-width="30" stroke-linejoin="round" d="M 1167,10961 L 1167,10811"/>
 <path fill="none" stroke="rgb(0,0,0)" stroke-width="30" stroke-linejoin="round" d="M 1288,10961 L 1288,10811"/>
 <path fill="none" stroke="rgb(0,0,0)" stroke-width="30" stroke-linejoin="round" d="M 1288,10961 L 1288,10811"/>
 <path fill="none" stroke="rgb(0,0,0)" stroke-width="30" stroke-linejoin="round" d="M 1410,10961 L 1410,10811"/>
 <path fill="none" stroke="rgb(0,0,0)" stroke-width="30" stroke-linejoin="round" d="M 1410,10961 L 1410,10811"/>
 <path fill="none" stroke="rgb(0,0,0)" stroke-width="30" stroke-linejoin="round" d="M 1532,10961 L 1532,10811"/>
 <path fill="none" stroke="rgb(0,0,0)" stroke-width="30" stroke-linejoin="round" d="M 1532,10961 L 1532,10811"/>
 <path fill="none" stroke="rgb(0,0,0)" stroke-width="30" stroke-linejoin="round" d="M 1654,10961 L 1654,10811"/>
 <path fill="none" stroke="rgb(0,0,0)" stroke-width="30" stroke-linejoin="round" d="M 1654,10961 L 1654,10811"/>
 <path fill="none" stroke="rgb(0,0,0)" stroke-width="30" stroke-linejoin="round" d="M 1776,10961 L 1776,10811"/>
 <path fill="none" stroke="rgb(0,0,0)" stroke-width="30" stroke-linejoin="round" d="M 1776,10961 L 1776,10811"/>
 <path fill="none" stroke="rgb(0,0,0)" stroke-width="30" stroke-linejoin="round" d="M 1898,10961 L 1898,10811"/>
 <path fill="none" stroke="rgb(0,0,0)" stroke-width="30" stroke-linejoin="round" d="M 1898,10961 L 1898,10811"/>
 <path fill="none" stroke="rgb(0,0,0)" stroke-width="30" stroke-linejoin="round" d="M 2020,10961 L 2020,10811"/>
 <path fill="none" stroke="rgb(0,0,0)" stroke-width="30" stroke-linejoin="round" d="M 2020,10961 L 2020,10811"/>
 <path fill="none" stroke="rgb(0,0,0)" stroke-width="30" stroke-linejoin="round" d="M 2142,10961 L 2142,10811"/>
 <path fill="none" stroke="rgb(0,0,0)" stroke-width="30" stroke-linejoin="round" d="M 2142,10961 L 2142,10811"/>
 <path fill="none" stroke="rgb(0,0,0)" stroke-width="30" stroke-linejoin="round" d="M 2264,10961 L 2264,10811"/>
 <path fill="none" stroke="rgb(0,0,0)" stroke-width="30" stroke-linejoin="round" d="M 2264,10961 L 2264,10811"/>
 <path fill="none" stroke="rgb(0,0,0)" stroke-width="30" stroke-linejoin="round" d="M 2386,10961 L 2386,10811"/>
 <path fill="none" stroke="rgb(0,0,0)" stroke-width="30" stroke-linejoin="round" d="M 2386,10961 L 2386,10811"/>
 <path fill="none" stroke="rgb(0,0,0)" stroke-width="30" stroke-linejoin="round" d="M 2508,10961 L 2508,10811"/>
 <path fill="none" stroke="rgb(0,0,0)" stroke-width="30" stroke-linejoin="round" d="M 2508,10961 L 2508,10811"/>
 <path fill="none" stroke="rgb(0,0,0)" stroke-width="30" stroke-linejoin="round" d="M 2630,10961 L 2630,10811"/>
 <path fill="none" stroke="rgb(0,0,0)" stroke-width="30" stroke-linejoin="round" d="M 2630,10961 L 2630,10811"/>
 <path fill="none" stroke="rgb(0,0,0)" stroke-width="30" stroke-linejoin="round" d="M 2752,10961 L 2752,10811"/>
 <path fill="none" stroke="rgb(0,0,0)" stroke-width="30" stroke-linejoin="round" d="M 2752,10961 L 2752,10811"/>
 <path fill="none" stroke="rgb(0,0,0)" stroke-width="30" stroke-linejoin="round" d="M 2874,10961 L 2874,10811"/>
 <path fill="none" stroke="rgb(0,0,0)" stroke-width="30" stroke-linejoin="round" d="M 2874,10961 L 2874,10811"/>
 <path fill="none" stroke="rgb(0,0,0)" stroke-width="30" stroke-linejoin="round" d="M 2996,10961 L 2996,10811"/>
 <path fill="none" stroke="rgb(0,0,0)" stroke-width="30" stroke-linejoin="round" d="M 2996,10961 L 2996,10811"/>
 <path fill="none" stroke="rgb(0,0,0)" stroke-width="30" stroke-linejoin="round" d="M 3118,10961 L 3118,10811"/>
 <path fill="none" stroke="rgb(0,0,0)" stroke-width="30" stroke-linejoin="round" d="M 3118,10961 L 3118,10811"/>
 <path fill="none" stroke="rgb(0,0,0)" stroke-width="30" stroke-linejoin="round" d="M 3240,10961 L 3240,10811"/>
 <path fill="none" stroke="rgb(0,0,0)" stroke-width="30" stroke-linejoin="round" d="M 3240,10961 L 3240,10811"/>
 <path fill="none" stroke="rgb(0,0,0)" stroke-width="30" stroke-linejoin="round" d="M 3362,10961 L 3362,10811"/>
 <path fill="none" stroke="rgb(0,0,0)" stroke-width="30" stroke-linejoin="round" d="M 3362,10961 L 3362,10811"/>
 <path fill="none" stroke="rgb(0,0,0)" stroke-width="30" stroke-linejoin="round" d="M 3484,10961 L 3484,10811"/>
 <path fill="none" stroke="rgb(0,0,0)" stroke-width="30" stroke-linejoin="round" d="M 3484,10961 L 3484,10811"/>
 <path fill="none" stroke="rgb(0,0,0)" stroke-width="30" stroke-linejoin="round" d="M 3605,10961 L 3605,10811"/>
 <path fill="none" stroke="rgb(0,0,0)" stroke-width="30" stroke-linejoin="round" d="M 3605,10961 L 3605,10811"/>
 <path fill="none" stroke="rgb(0,0,0)" stroke-width="30" stroke-linejoin="round" d="M 3727,10961 L 3727,10811"/>
 <path fill="none" stroke="rgb(0,0,0)" stroke-width="30" stroke-linejoin="round" d="M 3727,10961 L 3727,10811"/>
 <path fill="none" stroke="rgb(0,0,0)" stroke-width="30" stroke-linejoin="round" d="M 3849,10961 L 3849,10811"/>
 <path fill="none" stroke="rgb(0,0,0)" stroke-width="30" stroke-linejoin="round" d="M 3849,10961 L 3849,10811"/>
 <path fill="none" stroke="rgb(0,0,0)" stroke-width="30" stroke-linejoin="round" d="M 3971,10961 L 3971,10811"/>
 <path fill="none" stroke="rgb(0,0,0)" stroke-width="30" stroke-linejoin="round" d="M 3971,10961 L 3971,10811"/>
 <path fill="none" stroke="rgb(0,0,0)" stroke-width="30" stroke-linejoin="round" d="M 4093,10961 L 4093,10811"/>
 <path fill="none" stroke="rgb(0,0,0)" stroke-width="30" stroke-linejoin="round" d="M 4093,10961 L 4093,10811"/>
 <path fill="none" stroke="rgb(0,0,0)" stroke-width="30" stroke-linejoin="round" d="M 4215,10961 L 4215,10811"/>
 <path fill="none" stroke="rgb(0,0,0)" stroke-width="30" stroke-linejoin="round" d="M 4215,10961 L 4215,10811"/>
 <path fill="none" stroke="rgb(0,0,0)" stroke-width="30" stroke-linejoin="round" d="M 4337,10961 L 4337,10811"/>
 <path fill="none" stroke="rgb(0,0,0)" stroke-width="30" stroke-linejoin="round" d="M 4337,10961 L 4337,10811"/>
 <path fill="none" stroke="rgb(0,0,0)" stroke-width="30" stroke-linejoin="round" d="M 4459,10961 L 4459,10811"/>
 <path fill="none" stroke="rgb(0,0,0)" stroke-width="30" stroke-linejoin="round" d="M 4459,10961 L 4459,10811"/>
 <path fill="none" stroke="rgb(0,0,0)" stroke-width="30" stroke-linejoin="round" d="M 4581,10961 L 4581,10811"/>
 <path fill="none" stroke="rgb(0,0,0)" stroke-width="30" stroke-linejoin="round" d="M 4581,10961 L 4581,10811"/>
 <path fill="none" stroke="rgb(0,0,0)" stroke-width="30" stroke-linejoin="round" d="M 4703,10961 L 4703,10811"/>
 <path fill="none" stroke="rgb(0,0,0)" stroke-width="30" stroke-linejoin="round" d="M 4703,10961 L 4703,10811"/>
 <path fill="none" stroke="rgb(0,0,0)" stroke-width="30" stroke-linejoin="round" d="M 4825,10961 L 4825,10811"/>
 <path fill="none" stroke="rgb(0,0,0)" stroke-width="30" stroke-linejoin="round" d="M 4825,10961 L 4825,10811"/>
 <path fill="none" stroke="rgb(0,0,0)" stroke-width="30" stroke-linejoin="round" d="M 4947,10961 L 4947,10811"/>
 <path fill="none" stroke="rgb(0,0,0)" stroke-width="30" stroke-linejoin="round" d="M 4947,10961 L 4947,10811"/>
 <path fill="none" stroke="rgb(0,0,0)" stroke-width="30" stroke-linejoin="round" d="M 5069,10961 L 5069,10811"/>
 <path fill="none" stroke="rgb(0,0,0)" stroke-width="30" stroke-linejoin="round" d="M 5069,10961 L 5069,10811"/>
 <path fill="none" stroke="rgb(0,0,0)" stroke-width="30" stroke-linejoin="round" d="M 5191,10961 L 5191,10811"/>
 <path fill="none" stroke="rgb(0,0,0)" stroke-width="30" stroke-linejoin="round" d="M 5191,10961 L 5191,10811"/>
 <path fill="none" stroke="rgb(0,0,0)" stroke-width="30" stroke-linejoin="round" d="M 5313,10961 L 5313,10811"/>
 <path fill="none" stroke="rgb(0,0,0)" stroke-width="30" stroke-linejoin="round" d="M 5313,10961 L 5313,10811"/>
 <path fill="none" stroke="rgb(0,0,0)" stroke-width="30" stroke-linejoin="round" d="M 5435,10961 L 5435,10811"/>
 <path fill="none" stroke="rgb(0,0,0)" stroke-width="30" stroke-linejoin="round" d="M 5435,10961 L 5435,10811"/>
 <path fill="none" stroke="rgb(0,0,0)" stroke-width="30" stroke-linejoin="round" d="M 5557,10961 L 5557,10811"/>
 <path fill="none" stroke="rgb(0,0,0)" stroke-width="30" stroke-linejoin="round" d="M 5557,10961 L 5557,10811"/>
 <path fill="none" stroke="rgb(0,0,0)" stroke-width="30" stroke-linejoin="round" d="M 5679,10961 L 5679,10811"/>
 <path fill="none" stroke="rgb(0,0,0)" stroke-width="30" stroke-linejoin="round" d="M 5679,10961 L 5679,10811"/>
 <path fill="none" stroke="rgb(0,0,0)" stroke-width="30" stroke-linejoin="round" d="M 5801,10961 L 5801,10811"/>
 <path fill="none" stroke="rgb(0,0,0)" stroke-width="30" stroke-linejoin="round" d="M 5801,10961 L 5801,10811"/>
 <path fill="none" stroke="rgb(0,0,0)" stroke-width="30" stroke-linejoin="round" d="M 5922,10961 L 5922,10811"/>
 <path fill="none" stroke="rgb(0,0,0)" stroke-width="30" stroke-linejoin="round" d="M 5922,10961 L 5922,10811"/>
 <path fill="none" stroke="rgb(0,0,0)" stroke-width="30" stroke-linejoin="round" d="M 6044,10961 L 6044,10811"/>
 <path fill="none" stroke="rgb(0,0,0)" stroke-width="30" stroke-linejoin="round" d="M 6044,10961 L 6044,10811"/>
 <path fill="none" stroke="rgb(0,0,0)" stroke-width="30" stroke-linejoin="round" d="M 6166,10961 L 6166,10811"/>
 <path fill="none" stroke="rgb(0,0,0)" stroke-width="30" stroke-linejoin="round" d="M 6166,10961 L 6166,10811"/>
 <path fill="none" stroke="rgb(0,0,0)" stroke-width="30" stroke-linejoin="round" d="M 6288,10961 L 6288,10811"/>
 <path fill="none" stroke="rgb(0,0,0)" stroke-width="30" stroke-linejoin="round" d="M 6288,10961 L 6288,10811"/>
 <path fill="none" stroke="rgb(0,0,0)" stroke-width="30" stroke-linejoin="round" d="M 6410,10961 L 6410,10811"/>
 <path fill="none" stroke="rgb(0,0,0)" stroke-width="30" stroke-linejoin="round" d="M 6410,10961 L 6410,10811"/>
 <path fill="none" stroke="rgb(0,0,0)" stroke-width="30" stroke-linejoin="round" d="M 6532,10961 L 6532,10811"/>
 <path fill="none" stroke="rgb(0,0,0)" stroke-width="30" stroke-linejoin="round" d="M 6532,10961 L 6532,10811"/>
 <path fill="none" stroke="rgb(0,0,0)" stroke-width="30" stroke-linejoin="round" d="M 6654,10961 L 6654,10811"/>
 <path fill="none" stroke="rgb(0,0,0)" stroke-width="30" stroke-linejoin="round" d="M 6654,10961 L 6654,10811"/>
 <path fill="none" stroke="rgb(0,0,0)" stroke-width="30" stroke-linejoin="round" d="M 6776,10961 L 6776,10811"/>
 <path fill="none" stroke="rgb(0,0,0)" stroke-width="30" stroke-linejoin="round" d="M 6776,10961 L 6776,10811"/>
 <path fill="none" stroke="rgb(0,0,0)" stroke-width="30" stroke-linejoin="round" d="M 6898,10961 L 6898,10811"/>
 <path fill="none" stroke="rgb(0,0,0)" stroke-width="30" stroke-linejoin="round" d="M 6898,10961 L 6898,10811"/>
 <path fill="none" stroke="rgb(0,0,0)" stroke-width="30" stroke-linejoin="round" d="M 7020,10961 L 7020,10811"/>
 <path fill="none" stroke="rgb(0,0,0)" stroke-width="30" stroke-linejoin="round" d="M 7020,10961 L 7020,10811"/>
 <path fill="none" stroke="rgb(0,0,0)" stroke-width="30" stroke-linejoin="round" d="M 7142,10961 L 7142,10811"/>
 <path fill="none" stroke="rgb(0,0,0)" stroke-width="30" stroke-linejoin="round" d="M 7142,10961 L 7142,10811"/>
 <path fill="none" stroke="rgb(0,0,0)" stroke-width="30" stroke-linejoin="round" d="M 7264,10961 L 7264,10811"/>
 <path fill="none" stroke="rgb(0,0,0)" stroke-width="30" stroke-linejoin="round" d="M 7264,10961 L 7264,10811"/>
 <path fill="none" stroke="rgb(0,0,0)" stroke-width="30" stroke-linejoin="round" d="M 7386,10961 L 7386,10811"/>
 <path fill="none" stroke="rgb(0,0,0)" stroke-width="30" stroke-linejoin="round" d="M 7386,10961 L 7386,10811"/>
 <path fill="none" stroke="rgb(0,0,0)" stroke-width="30" stroke-linejoin="round" d="M 7508,10961 L 7508,10811"/>
 <path fill="none" stroke="rgb(0,0,0)" stroke-width="30" stroke-linejoin="round" d="M 7508,10961 L 7508,10811"/>
 <path fill="none" stroke="rgb(0,0,0)" stroke-width="30" stroke-linejoin="round" d="M 7630,10961 L 7630,10811"/>
 <path fill="none" stroke="rgb(0,0,0)" stroke-width="30" stroke-linejoin="round" d="M 7630,10961 L 7630,10811"/>
 <path fill="none" stroke="rgb(0,0,0)" stroke-width="30" stroke-linejoin="round" d="M 7752,10961 L 7752,10811"/>
 <path fill="none" stroke="rgb(0,0,0)" stroke-width="30" stroke-linejoin="round" d="M 7752,10961 L 7752,10811"/>
 <path fill="none" stroke="rgb(0,0,0)" stroke-width="30" stroke-linejoin="round" d="M 7874,10961 L 7874,10811"/>
 <path fill="none" stroke="rgb(0,0,0)" stroke-width="30" stroke-linejoin="round" d="M 7874,10961 L 7874,10811"/>
 <path fill="none" stroke="rgb(0,0,0)" stroke-width="30" stroke-linejoin="round" d="M 7996,10961 L 7996,10811"/>
 <path fill="none" stroke="rgb(0,0,0)" stroke-width="30" stroke-linejoin="round" d="M 7996,10961 L 7996,10811"/>
 <path fill="none" stroke="rgb(0,0,0)" stroke-width="30" stroke-linejoin="round" d="M 8118,10961 L 8118,10811"/>
 <path fill="none" stroke="rgb(0,0,0)" stroke-width="30" stroke-linejoin="round" d="M 8118,10961 L 8118,10811"/>
 <path fill="none" stroke="rgb(0,0,0)" stroke-width="30" stroke-linejoin="round" d="M 8238,10961 L 8238,10811"/>
 <path fill="none" stroke="rgb(0,0,0)" stroke-width="30" stroke-linejoin="round" d="M 8238,10961 L 8238,10811"/>
 <path fill="none" stroke="rgb(0,0,0)" stroke-width="30" stroke-linejoin="round" d="M 8360,10961 L 8360,10811"/>
 <path fill="none" stroke="rgb(0,0,0)" stroke-width="30" stroke-linejoin="round" d="M 8360,10961 L 8360,10811"/>
 <path fill="none" stroke="rgb(0,0,0)" stroke-width="30" stroke-linejoin="round" d="M 8482,10961 L 8482,10811"/>
 <path fill="none" stroke="rgb(0,0,0)" stroke-width="30" stroke-linejoin="round" d="M 8482,10961 L 8482,10811"/>
 <path fill="none" stroke="rgb(0,0,0)" stroke-width="30" stroke-linejoin="round" d="M 8604,10961 L 8604,10811"/>
 <path fill="none" stroke="rgb(0,0,0)" stroke-width="30" stroke-linejoin="round" d="M 8604,10961 L 8604,10811"/>
 <path fill="none" stroke="rgb(0,0,0)" stroke-width="30" stroke-linejoin="round" d="M 8726,10961 L 8726,10811"/>
 <path fill="none" stroke="rgb(0,0,0)" stroke-width="30" stroke-linejoin="round" d="M 8726,10961 L 8726,10811"/>
 <path fill="none" stroke="rgb(0,0,0)" stroke-width="30" stroke-linejoin="round" d="M 8848,10961 L 8848,10811"/>
 <path fill="none" stroke="rgb(0,0,0)" stroke-width="30" stroke-linejoin="round" d="M 8848,10961 L 8848,10811"/>
 <path fill="none" stroke="rgb(0,0,0)" stroke-width="30" stroke-linejoin="round" d="M 8970,10961 L 8970,10811"/>
 <path fill="none" stroke="rgb(0,0,0)" stroke-width="30" stroke-linejoin="round" d="M 8970,10961 L 8970,10811"/>
 <path fill="none" stroke="rgb(0,0,0)" stroke-width="30" stroke-linejoin="round" d="M 9092,10961 L 9092,10811"/>
 <path fill="none" stroke="rgb(0,0,0)" stroke-width="30" stroke-linejoin="round" d="M 9092,10961 L 9092,10811"/>
 <path fill="none" stroke="rgb(0,0,0)" stroke-width="30" stroke-linejoin="round" d="M 9214,10961 L 9214,10811"/>
 <path fill="none" stroke="rgb(0,0,0)" stroke-width="30" stroke-linejoin="round" d="M 9214,10961 L 9214,10811"/>
 <path fill="none" stroke="rgb(0,0,0)" stroke-width="30" stroke-linejoin="round" d="M 9336,10961 L 9336,10811"/>
 <path fill="none" stroke="rgb(0,0,0)" stroke-width="30" stroke-linejoin="round" d="M 9336,10961 L 9336,10811"/>
 <path fill="none" stroke="rgb(0,0,0)" stroke-width="30" stroke-linejoin="round" d="M 9458,10961 L 9458,10811"/>
 <path fill="none" stroke="rgb(0,0,0)" stroke-width="30" stroke-linejoin="round" d="M 9458,10961 L 9458,10811"/>
 <path fill="none" stroke="rgb(0,0,0)" stroke-width="30" stroke-linejoin="round" d="M 9580,10961 L 9580,10811"/>
 <path fill="none" stroke="rgb(0,0,0)" stroke-width="30" stroke-linejoin="round" d="M 9580,10961 L 9580,10811"/>
 <path fill="none" stroke="rgb(0,0,0)" stroke-width="30" stroke-linejoin="round" d="M 9702,10961 L 9702,10811"/>
 <path fill="none" stroke="rgb(0,0,0)" stroke-width="30" stroke-linejoin="round" d="M 9702,10961 L 9702,10811"/>
 <path fill="none" stroke="rgb(0,0,0)" stroke-width="30" stroke-linejoin="round" d="M 9824,10961 L 9824,10811"/>
 <path fill="none" stroke="rgb(0,0,0)" stroke-width="30" stroke-linejoin="round" d="M 9824,10961 L 9824,10811"/>
 <path fill="none" stroke="rgb(0,0,0)" stroke-width="30" stroke-linejoin="round" d="M 9946,10961 L 9946,10811"/>
 <path fill="none" stroke="rgb(0,0,0)" stroke-width="30" stroke-linejoin="round" d="M 9946,10961 L 9946,10811"/>
 <path fill="none" stroke="rgb(0,0,0)" stroke-width="30" stroke-linejoin="round" d="M 10068,10961 L 10068,10811"/>
 <path fill="none" stroke="rgb(0,0,0)" stroke-width="30" stroke-linejoin="round" d="M 10068,10961 L 10068,10811"/>
 <path fill="none" stroke="rgb(0,0,0)" stroke-width="30" stroke-linejoin="round" d="M 10190,10961 L 10190,10811"/>
 <path fill="none" stroke="rgb(0,0,0)" stroke-width="30" stroke-linejoin="round" d="M 10190,10961 L 10190,10811"/>
 <path fill="none" stroke="rgb(0,0,0)" stroke-width="30" stroke-linejoin="round" d="M 10312,10961 L 10312,10811"/>
 <path fill="none" stroke="rgb(0,0,0)" stroke-width="30" stroke-linejoin="round" d="M 10312,10961 L 10312,10811"/>
 <path fill="none" stroke="rgb(0,0,0)" stroke-width="30" stroke-linejoin="round" d="M 10434,10961 L 10434,10811"/>
 <path fill="none" stroke="rgb(0,0,0)" stroke-width="30" stroke-linejoin="round" d="M 10434,10961 L 10434,10811"/>
 <path fill="none" stroke="rgb(0,0,0)" stroke-width="30" stroke-linejoin="round" d="M 10555,10961 L 10555,10811"/>
 <path fill="none" stroke="rgb(0,0,0)" stroke-width="30" stroke-linejoin="round" d="M 10555,10961 L 10555,10811"/>
 <path fill="none" stroke="rgb(0,0,0)" stroke-width="30" stroke-linejoin="round" d="M 10677,10961 L 10677,10811"/>
 <path fill="none" stroke="rgb(0,0,0)" stroke-width="30" stroke-linejoin="round" d="M 10677,10961 L 10677,10811"/>
 <path fill="none" stroke="rgb(0,0,0)" stroke-width="30" stroke-linejoin="round" d="M 10799,10961 L 10799,10811"/>
 <path fill="none" stroke="rgb(0,0,0)" stroke-width="30" stroke-linejoin="round" d="M 10799,10961 L 10799,10811"/>
 <path fill="none" stroke="rgb(0,0,0)" stroke-width="30" stroke-linejoin="round" d="M 10921,10961 L 10921,10811"/>
 <path fill="none" stroke="rgb(0,0,0)" stroke-width="30" stroke-linejoin="round" d="M 10921,10961 L 10921,10811"/>
 <path fill="none" stroke="rgb(0,0,0)" stroke-width="30" stroke-linejoin="round" d="M 11043,10961 L 11043,10811"/>
 <path fill="none" stroke="rgb(0,0,0)" stroke-width="30" stroke-linejoin="round" d="M 11043,10961 L 11043,10811"/>
 <path fill="none" stroke="rgb(0,0,0)" stroke-width="30" stroke-linejoin="round" d="M 11165,10961 L 11165,10811"/>
 <path fill="none" stroke="rgb(0,0,0)" stroke-width="30" stroke-linejoin="round" d="M 11165,10961 L 11165,10811"/>
 <path fill="none" stroke="rgb(0,0,0)" stroke-width="30" stroke-linejoin="round" d="M 11287,10961 L 11287,10811"/>
 <path fill="none" stroke="rgb(0,0,0)" stroke-width="30" stroke-linejoin="round" d="M 11287,10961 L 11287,10811"/>
 <path fill="none" stroke="rgb(0,0,0)" stroke-width="30" stroke-linejoin="round" d="M 11409,10961 L 11409,10811"/>
 <path fill="none" stroke="rgb(0,0,0)" stroke-width="30" stroke-linejoin="round" d="M 11409,10961 L 11409,10811"/>
 <path fill="none" stroke="rgb(0,0,0)" stroke-width="30" stroke-linejoin="round" d="M 11531,10961 L 11531,10811"/>
 <path fill="none" stroke="rgb(0,0,0)" stroke-width="30" stroke-linejoin="round" d="M 11531,10961 L 11531,10811"/>
 <path fill="none" stroke="rgb(0,0,0)" stroke-width="30" stroke-linejoin="round" d="M 11653,10961 L 11653,10811"/>
 <path fill="none" stroke="rgb(0,0,0)" stroke-width="30" stroke-linejoin="round" d="M 11653,10961 L 11653,10811"/>
 <path fill="none" stroke="rgb(0,0,0)" stroke-width="30" stroke-linejoin="round" d="M 11775,10961 L 11775,10811"/>
 <path fill="none" stroke="rgb(0,0,0)" stroke-width="30" stroke-linejoin="round" d="M 11775,10961 L 11775,10811"/>
 <path fill="none" stroke="rgb(0,0,0)" stroke-width="30" stroke-linejoin="round" d="M 11897,10961 L 11897,10811"/>
 <path fill="none" stroke="rgb(0,0,0)" stroke-width="30" stroke-linejoin="round" d="M 11897,10961 L 11897,10811"/>
 <path fill="none" stroke="rgb(0,0,0)" stroke-width="30" stroke-linejoin="round" d="M 12019,10961 L 12019,10811"/>
 <path fill="none" stroke="rgb(0,0,0)" stroke-width="30" stroke-linejoin="round" d="M 12019,10961 L 12019,10811"/>
 <path fill="none" stroke="rgb(0,0,0)" stroke-width="30" stroke-linejoin="round" d="M 12141,10961 L 12141,10811"/>
 <path fill="none" stroke="rgb(0,0,0)" stroke-width="30" stroke-linejoin="round" d="M 12141,10961 L 12141,10811"/>
 <path fill="none" stroke="rgb(0,0,0)" stroke-width="30" stroke-linejoin="round" d="M 12263,10961 L 12263,10811"/>
 <path fill="none" stroke="rgb(0,0,0)" stroke-width="30" stroke-linejoin="round" d="M 12263,10961 L 12263,10811"/>
 <path fill="none" stroke="rgb(0,0,0)" stroke-width="30" stroke-linejoin="round" d="M 12385,10961 L 12385,10811"/>
 <path fill="none" stroke="rgb(0,0,0)" stroke-width="30" stroke-linejoin="round" d="M 12385,10961 L 12385,10811"/>
 <path fill="none" stroke="rgb(0,0,0)" stroke-width="30" stroke-linejoin="round" d="M 12507,10961 L 12507,10811"/>
 <path fill="none" stroke="rgb(0,0,0)" stroke-width="30" stroke-linejoin="round" d="M 12507,10961 L 12507,10811"/>
 <path fill="none" stroke="rgb(0,0,0)" stroke-width="30" stroke-linejoin="round" d="M 12629,10961 L 12629,10811"/>
 <path fill="none" stroke="rgb(0,0,0)" stroke-width="30" stroke-linejoin="round" d="M 12629,10961 L 12629,10811"/>
 <path fill="none" stroke="rgb(0,0,0)" stroke-width="30" stroke-linejoin="round" d="M 12751,10961 L 12751,10811"/>
 <path fill="none" stroke="rgb(0,0,0)" stroke-width="30" stroke-linejoin="round" d="M 12751,10961 L 12751,10811"/>
 <path fill="none" stroke="rgb(0,0,0)" stroke-width="30" stroke-linejoin="round" d="M 12872,10961 L 12872,10811"/>
 <path fill="none" stroke="rgb(0,0,0)" stroke-width="30" stroke-linejoin="round" d="M 12872,10961 L 12872,10811"/>
 <path fill="none" stroke="rgb(0,0,0)" stroke-width="30" stroke-linejoin="round" d="M 12994,10961 L 12994,10811"/>
 <path fill="none" stroke="rgb(0,0,0)" stroke-width="30" stroke-linejoin="round" d="M 12994,10961 L 12994,10811"/>
 <path fill="none" stroke="rgb(0,0,0)" stroke-width="30" stroke-linejoin="round" d="M 13116,10961 L 13116,10811"/>
 <path fill="none" stroke="rgb(0,0,0)" stroke-width="30" stroke-linejoin="round" d="M 13116,10961 L 13116,10811"/>
 <path fill="none" stroke="rgb(0,0,0)" stroke-width="30" stroke-linejoin="round" d="M 13238,10961 L 13238,10811"/>
 <path fill="none" stroke="rgb(0,0,0)" stroke-width="30" stroke-linejoin="round" d="M 13238,10961 L 13238,10811"/>
 <path fill="none" stroke="rgb(0,0,0)" stroke-width="30" stroke-linejoin="round" d="M 13360,10961 L 13360,10811"/>
 <path fill="none" stroke="rgb(0,0,0)" stroke-width="30" stroke-linejoin="round" d="M 13360,10961 L 13360,10811"/>
 <path fill="none" stroke="rgb(0,0,0)" stroke-width="30" stroke-linejoin="round" d="M 13482,10961 L 13482,10811"/>
 <path fill="none" stroke="rgb(0,0,0)" stroke-width="30" stroke-linejoin="round" d="M 13482,10961 L 13482,10811"/>
 <path fill="none" stroke="rgb(0,0,0)" stroke-width="30" stroke-linejoin="round" d="M 13604,10961 L 13604,10811"/>
 <path fill="none" stroke="rgb(0,0,0)" stroke-width="30" stroke-linejoin="round" d="M 13604,10961 L 13604,10811"/>
 <path fill="none" stroke="rgb(0,0,0)" stroke-width="30" stroke-linejoin="round" d="M 13726,10961 L 13726,10811"/>
 <path fill="none" stroke="rgb(0,0,0)" stroke-width="30" stroke-linejoin="round" d="M 13726,10961 L 13726,10811"/>
 <path fill="none" stroke="rgb(0,0,0)" stroke-width="30" stroke-linejoin="round" d="M 13848,10961 L 13848,10811"/>
 <path fill="none" stroke="rgb(0,0,0)" stroke-width="30" stroke-linejoin="round" d="M 13848,10961 L 13848,10811"/>
 <path fill="none" stroke="rgb(0,0,0)" stroke-width="30" stroke-linejoin="round" d="M 13970,10961 L 13970,10811"/>
 <path fill="none" stroke="rgb(0,0,0)" stroke-width="30" stroke-linejoin="round" d="M 13970,10961 L 13970,10811"/>
 <path fill="none" stroke="rgb(0,0,0)" stroke-width="30" stroke-linejoin="round" d="M 14092,10961 L 14092,10811"/>
 <path fill="none" stroke="rgb(0,0,0)" stroke-width="30" stroke-linejoin="round" d="M 14092,10961 L 14092,10811"/>
 <path fill="none" stroke="rgb(0,0,0)" stroke-width="30" stroke-linejoin="round" d="M 14214,10961 L 14214,10811"/>
 <path fill="none" stroke="rgb(0,0,0)" stroke-width="30" stroke-linejoin="round" d="M 14214,10961 L 14214,10811"/>
 <path fill="none" stroke="rgb(0,0,0)" stroke-width="30" stroke-linejoin="round" d="M 14336,10961 L 14336,10811"/>
 <path fill="none" stroke="rgb(0,0,0)" stroke-width="30" stroke-linejoin="round" d="M 14336,10961 L 14336,10811"/>
 <path fill="none" stroke="rgb(0,0,0)" stroke-width="30" stroke-linejoin="round" d="M 14458,10961 L 14458,10811"/>
 <path fill="none" stroke="rgb(0,0,0)" stroke-width="30" stroke-linejoin="round" d="M 14458,10961 L 14458,10811"/>
 <path fill="none" stroke="rgb(0,0,0)" stroke-width="30" stroke-linejoin="round" d="M 14580,10961 L 14580,10811"/>
 <path fill="none" stroke="rgb(0,0,0)" stroke-width="30" stroke-linejoin="round" d="M 14580,10961 L 14580,10811"/>
 <path fill="none" stroke="rgb(0,0,0)" stroke-width="30" stroke-linejoin="round" d="M 14702,10961 L 14702,10811"/>
 <path fill="none" stroke="rgb(0,0,0)" stroke-width="30" stroke-linejoin="round" d="M 14702,10961 L 14702,10811"/>
 <path fill="none" stroke="rgb(0,0,0)" stroke-width="30" stroke-linejoin="round" d="M 14824,10961 L 14824,10811"/>
 <path fill="none" stroke="rgb(0,0,0)" stroke-width="30" stroke-linejoin="round" d="M 14824,10961 L 14824,10811"/>
 <path fill="none" stroke="rgb(0,0,0)" stroke-width="30" stroke-linejoin="round" d="M 14946,10961 L 14946,10811"/>
 <path fill="none" stroke="rgb(0,0,0)" stroke-width="30" stroke-linejoin="round" d="M 14946,10961 L 14946,10811"/>
 <path fill="none" stroke="rgb(0,0,0)" stroke-width="30" stroke-linejoin="round" d="M 15068,10961 L 15068,10811"/>
 <path fill="none" stroke="rgb(0,0,0)" stroke-width="30" stroke-linejoin="round" d="M 15068,10961 L 15068,10811"/>
 <path fill="none" stroke="rgb(0,0,0)" stroke-width="30" stroke-linejoin="round" d="M 15190,10961 L 15190,10811"/>
 <path fill="none" stroke="rgb(0,0,0)" stroke-width="30" stroke-linejoin="round" d="M 15190,10961 L 15190,10811"/>
 <path fill="none" stroke="rgb(0,0,0)" stroke-width="30" stroke-linejoin="round" d="M 1167,10811 L 15190,10811"/>
 <path fill="none" stroke="rgb(0,0,0)" stroke-width="30" stroke-linejoin="round" d="M 1017,10811 L 1167,10811"/>
 <path fill="none" stroke="rgb(0,0,0)" stroke-width="30" stroke-linejoin="round" d="M 1017,10811 L 1167,10811"/>
 <path fill="none" stroke="rgb(0,0,0)" stroke-width="30" stroke-linejoin="round" d="M 1017,9422 L 1167,9422"/>
 <path fill="none" stroke="rgb(0,0,0)" stroke-width="30" stroke-linejoin="round" d="M 1017,9422 L 1167,9422"/>
 <path fill="none" stroke="rgb(0,0,0)" stroke-width="30" stroke-linejoin="round" d="M 1017,8033 L 1167,8033"/>
 <path fill="none" stroke="rgb(0,0,0)" stroke-width="30" stroke-linejoin="round" d="M 1017,8033 L 1167,8033"/>
 <path fill="none" stroke="rgb(0,0,0)" stroke-width="30" stroke-linejoin="round" d="M 1017,6645 L 1167,6645"/>
 <path fill="none" stroke="rgb(0,0,0)" stroke-width="30" stroke-linejoin="round" d="M 1017,6645 L 1167,6645"/>
 <path fill="none" stroke="rgb(0,0,0)" stroke-width="30" stroke-linejoin="round" d="M 1017,5257 L 1167,5257"/>
 <path fill="none" stroke="rgb(0,0,0)" stroke-width="30" stroke-linejoin="round" d="M 1017,5257 L 1167,5257"/>
 <path fill="none" stroke="rgb(0,0,0)" stroke-width="30" stroke-linejoin="round" d="M 1017,3869 L 1167,3869"/>
 <path fill="none" stroke="rgb(0,0,0)" stroke-width="30" stroke-linejoin="round" d="M 1017,3869 L 1167,3869"/>
 <path fill="none" stroke="rgb(0,0,0)" stroke-width="30" stroke-linejoin="round" d="M 1017,2480 L 1167,2480"/>
 <path fill="none" stroke="rgb(0,0,0)" stroke-width="30" stroke-linejoin="round" d="M 1017,2480 L 1167,2480"/>
 <path fill="none" stroke="rgb(0,0,0)" stroke-width="30" stroke-linejoin="round" d="M 1017,1092 L 1167,1092"/>
 <path fill="none" stroke="rgb(0,0,0)" stroke-width="30" stroke-linejoin="round" d="M 1017,1092 L 1167,1092"/>
 <path fill="none" stroke="rgb(0,0,0)" stroke-width="30" stroke-linejoin="round" d="M 1167,10811 L 1167,1092"/>
 <path fill="none" stroke="rgb(0,0,0)" stroke-width="30" stroke-linejoin="round" d="M 15340,10811 L 15190,10811"/>
 <path fill="none" stroke="rgb(0,0,0)" stroke-width="30" stroke-linejoin="round" d="M 15340,10811 L 15190,10811"/>
 <path fill="none" stroke="rgb(0,0,0)" stroke-width="30" stroke-linejoin="round" d="M 15340,9422 L 15190,9422"/>
 <path fill="none" stroke="rgb(0,0,0)" stroke-width="30" stroke-linejoin="round" d="M 15340,9422 L 15190,9422"/>
 <path fill="none" stroke="rgb(0,0,0)" stroke-width="30" stroke-linejoin="round" d="M 15340,8033 L 15190,8033"/>
 <path fill="none" stroke="rgb(0,0,0)" stroke-width="30" stroke-linejoin="round" d="M 15340,8033 L 15190,8033"/>
 <path fill="none" stroke="rgb(0,0,0)" stroke-width="30" stroke-linejoin="round" d="M 15340,6645 L 15190,6645"/>
 <path fill="none" stroke="rgb(0,0,0)" stroke-width="30" stroke-linejoin="round" d="M 15340,6645 L 15190,6645"/>
 <path fill="none" stroke="rgb(0,0,0)" stroke-width="30" stroke-linejoin="round" d="M 15340,5257 L 15190,5257"/>
 <path fill="none" stroke="rgb(0,0,0)" stroke-width="30" stroke-linejoin="round" d="M 15340,5257 L 15190,5257"/>
 <path fill="none" stroke="rgb(0,0,0)" stroke-width="30" stroke-linejoin="round" d="M 15340,3869 L 15190,3869"/>
 <path fill="none" stroke="rgb(0,0,0)" stroke-width="30" stroke-linejoin="round" d="M 15340,3869 L 15190,3869"/>
 <path fill="none" stroke="rgb(0,0,0)" stroke-width="30" stroke-linejoin="round" d="M 15340,2480 L 15190,2480"/>
 <path fill="none" stroke="rgb(0,0,0)" stroke-width="30" stroke-linejoin="round" d="M 15340,2480 L 15190,2480"/>
 <path fill="none" stroke="rgb(0,0,0)" stroke-width="30" stroke-linejoin="round" d="M 15340,1092 L 15190,1092"/>
 <path fill="none" stroke="rgb(0,0,0)" stroke-width="30" stroke-linejoin="round" d="M 15340,1092 L 15190,1092"/>
 <path fill="none" stroke="rgb(0,0,0)" stroke-width="30" stroke-linejoin="round" d="M 15190,10811 L 15190,1092"/>
 <path fill="none" stroke="rgb(0,69,134)" stroke-width="88" stroke-linejoin="round" d="M 1167,8935 L 1288,8998 1410,8929 1532,8886 1654,8985 1776,8951 1898,8926 2020,8947 2142,8941 2264,8922 2386,8905 2508,8922 2630,8966 2752,8966 2874,8990 2996,8983 3118,8996 3240,8994 3362,9008 3484,9018 3605,9029 3727,9075 3849,9044 3971,9080 4093,9108 4215,9122 4337,9140 4459,9118 4581,9123 4703,9115 4825,9078 4947,9039 5069,9083 5191,9094 5313,9085 5435,9126 5557,9159 5679,9204 5801,9279 5922,9230 6044,9176 6166,9214 6288,9205 6410,9243 6532,9346 6654,9319 6776,9300 6898,9305 7020,9348 7142,9416 7264,9433 7386,9436 7508,9501 7630,9568 7752,9546 7874,9566 7996,9579 8118,9594 8238,9630 8360,9643 8482,9689 8604,9809 8726,9779 8848,9775 8970,9786 9092,9764 9214,9740 9336,9787 9458,9823 9580,9877 9702,9875 9824,9855 9946,9879 10068,9938 10190,9929 10312,9916 10434,9936 10555,9907 10677,9852 10799,9807 10921,9784 11043,9840 11165,9809 11287,9875 11409,9927 11531,9948 11653,10005 11775,10005 11897,10008 12019,10020 12141,10050 12263,10059 12385,10087 12507,10109 12629,10108 12751,10112 12872,10176 12994,10227 13116,10251 13238,10222 13360,10251 13482,10284 13604,10290 13726,10300 13848,10325 13970,10318 14092,10331 14214,10347 14336,10374 14458,10416 14580,10430 14702,10412 14824,10416 14946,10426 15068,10420 15190,10437"/>
 <path fill="none" stroke="rgb(255,66,14)" stroke-width="88" stroke-linejoin="round" d="M 1167,2529 L 1288,2618 1410,2879 1532,3017 1654,3106 1776,3067 1898,3352 2020,3502 2142,3585 2264,3762 2386,3912 2508,3966 2630,4184 2752,4344 2874,4546 2996,4602 3118,4700 3240,4810 3362,4884 3484,4995 3605,5088 3727,5192 3849,5320 3971,5378 4093,5550 4215,5686 4337,5953 4459,6033 4581,6167 4703,6289 4825,6313 4947,6362 5069,6449 5191,6595 5313,6655 5435,6703 5557,6709 5679,6810 5801,6967 5922,6977 6044,7028 6166,7114 6288,7161 6410,7221 6532,7296 6654,7399 6776,7464 6898,7650 7020,7561 7142,7407 7264,7456 7386,7549 7508,7577 7630,7507 7752,7645 7874,7800 7996,7856 8118,7900 8238,7838 8360,7946 8482,7922 8604,7692 8726,7839 8848,7707 8970,7778 9092,7867 9214,7918 9336,7903 9458,7871 9580,8088 9702,8150 9824,8267 9946,8268 10068,8272 10190,8281 10312,8360 10434,8414 10555,8460 10677,8539 10799,8543 10921,8324 11043,8496 11165,8608 11287,8654 11409,8665 11531,8668 11653,8496 11775,8496 11897,8808 12019,8901 12141,8929 12263,8962 12385,8972 12507,8996 12629,9130 12751,9136 12872,9146 12994,9114 13116,9172 13238,9248 13360,9308 13482,9201 13604,9268 13726,9347 13848,9318 13970,9448 14092,9515 14214,9448 14336,9525 14458,9418 14580,9440 14702,9461 14824,9446 14946,9391 15068,9491 15190,9511"/>
 <path fill="none" stroke="rgb(255,211,32)" stroke-width="88" stroke-linejoin="round" d="M 1167,7464 L 1288,7322 1410,7125 1532,7039 1654,6856 1776,6929 1898,6678 2020,6517 2142,6443 2264,6300 2386,6174 2508,6129 2630,5892 2752,5781 2874,5617 2996,5622 3118,5565 3240,5540 3362,5503 3484,5457 3605,5414 3727,5388 3849,5393 3971,5411 4093,5357 4215,5400 4337,5393 4459,5493 4581,5527 4703,5564 4825,5679 4947,5779 5069,5811 5191,5835 5313,5896 5435,5953 5557,6014 5679,6020 5801,6029 5922,6107 6044,6174 6166,6164 6288,6210 6410,6271 6532,6255 6654,6307 6776,6320 6898,6278 7020,6388 7142,6550 7264,6592 7386,6577 7508,6613 7630,6660 7752,6681 7874,6646 7996,6598 8118,6609 8238,6698 8360,6781 8482,6823 8604,6978 8726,7028 8848,7257 8970,7206 9092,7178 9214,7185 9336,7288 9458,7356 9580,7400 9702,7392 9824,7343 9946,7390 10068,7442 10190,7489 10312,7524 10434,7531 10555,7575 10677,7558 10799,7571 10921,7745 11043,7779 11165,7940 11287,7990 11409,8003 11531,8060 11653,8138 11775,8138 11897,8040 12019,8093 12141,8068 12263,8151 12385,8222 12507,8249 12629,8328 12751,8324 12872,8339 12994,8419 13116,8461 13238,8439 13360,8524 13482,8546 13604,8594 13726,8679 13848,8789 13970,8935 14092,8943 14214,9025 14336,9048 14458,9126 14580,9118 14702,9105 14824,9141 14946,9150 15068,9194 15190,9222"/>
 <path fill="none" stroke="rgb(87,157,28)" stroke-width="88" stroke-linejoin="round" d="M 1167,10481 L 1288,10468 1410,10468 1532,10463 1654,10456 1776,10462 1898,10454 2020,10444 2142,10434 2264,10429 2386,10424 2508,10405 2630,10373 2752,10336 2874,10277 2996,10233 3118,10184 3240,10118 3362,10077 3484,10013 3605,9943 3727,9834 3849,9747 3971,9652 4093,9521 4215,9337 4337,9075 4459,8939 4581,8779 4703,8653 4825,8550 4947,8450 5069,8321 5191,8176 5313,8082 5435,7942 5557,7839 5679,7713 5801,7486 5922,7482 6044,7407 6166,7322 6288,7263 6410,7131 6532,7013 6654,6939 6776,6878 6898,6735 7020,6686 7142,6639 7264,6546 7386,6484 7508,6385 7630,6343 7752,6249 7874,6111 7996,6083 8118,5983 8238,5910 8360,5725 8482,5629 8604,5579 8726,5409 8848,5349 8970,5252 9092,5225 9214,5214 9336,5099 9458,5074 9580,4875 9702,4799 9824,4696 9946,4531 10068,4435 10190,4398 10312,4284 10434,4173 10555,4121 10677,4181 10799,4130 10921,4174 11043,3873 11165,3671 11287,3548 11409,3476 11531,3390 11653,3415 11775,3415 11897,3267 12019,3115 12141,3069 12263,2909 12385,2769 12507,2669 12629,2450 12751,2458 12872,2352 12994,2266 13116,2169 13238,2205 13360,2033 13482,2076 13604,1976 13726,1830 13848,1721 13970,1473 14092,1436 14214,1412 14336,1316 14458,1235 14580,1139 14702,1128 14795,1092"/>
 <path fill="none" stroke="rgb(87,157,28)" stroke-width="88" stroke-linejoin="round" d="M 14840,1092 L 14946,1165 15012,1092"/>
 <path fill="none" stroke="rgb(126,0,33)" stroke-width="88" stroke-linejoin="round" d="M 1167,10759 L 1288,10762 1410,10767 1532,10762 1654,10765 1776,10758 1898,10758 2020,10758 2142,10763 2264,10755 2386,10752 2508,10747 2630,10754 2752,10742 2874,10738 2996,10729 3118,10723 3240,10706 3362,10697 3484,10686 3605,10695 3727,10680 3849,10665 3971,10647 4093,10633 4215,10623 4337,10608 4459,10586 4581,10572 4703,10547 4825,10548 4947,10538 5069,10504 5191,10468 5313,10451 5435,10444 5557,10447 5679,10422 5801,10406 5922,10372 6044,10381 6166,10352 6288,10327 6410,10301 6532,10258 6654,10202 6776,10205 6898,10198 7020,10183 7142,10154 7264,10140 7386,10122 7508,10091 7630,10088 7752,10047 7874,10044 7996,10052 8118,10081 8238,10093 8360,10073 8482,10105 8604,10109 8726,10113 8848,10080 8970,10147 9092,10134 9214,10111 9336,10091 9458,10044 9580,9927 9702,9952 9824,10007 9946,10100 10068,10080 10190,10072 10312,10084 10434,10115 10555,10105 10677,10037 10799,10118 10921,10141 11043,10180 11165,10138 11287,10101 11409,10097 11531,10102 11653,10115 11775,10115 11897,10044 12019,10038 12141,10052 12263,10086 12385,10118 12507,10145 12629,10152 12751,10138 12872,10155 12994,10141 13116,10115 13238,10054 13360,10052 13482,10061 13604,10040 13726,10012 13848,10016 13970,9994 14092,9943 14214,9936 14336,9904 14458,9973 14580,10041 14702,10062 14824,10084 14946,10036 15068,10033 15190,10008"/>
 <text class="TextShape"><tspan class="TextParagraph" font-family="Arial, sans-serif" font-size="388px" font-weight="400"><tspan class="TextPosition" x="986" y="11405"><tspan fill="rgb(0,0,0)" stroke="none">2008</tspan></tspan></tspan></text>
 <text class="TextShape"><tspan class="TextParagraph" font-family="Arial, sans-serif" font-size="388px" font-weight="400"><tspan class="TextPosition" x="2450" y="11405"><tspan fill="rgb(0,0,0)" stroke="none">2009</tspan></tspan></tspan></text>
 <text class="TextShape"><tspan class="TextParagraph" font-family="Arial, sans-serif" font-size="388px" font-weight="400"><tspan class="TextPosition" x="3913" y="11405"><tspan fill="rgb(0,0,0)" stroke="none">2010</tspan></tspan></tspan></text>
 <text class="TextShape"><tspan class="TextParagraph" font-family="Arial, sans-serif" font-size="388px" font-weight="400"><tspan class="TextPosition" x="5391" y="11405"><tspan fill="rgb(0,0,0)" stroke="none">2011</tspan></tspan></tspan></text>
 <text class="TextShape"><tspan class="TextParagraph" font-family="Arial, sans-serif" font-size="388px" font-weight="400"><tspan class="TextPosition" x="6840" y="11405"><tspan fill="rgb(0,0,0)" stroke="none">2012</tspan></tspan></tspan></text>
 <text class="TextShape"><tspan class="TextParagraph" font-family="Arial, sans-serif" font-size="388px" font-weight="400"><tspan class="TextPosition" x="8303" y="11405"><tspan fill="rgb(0,0,0)" stroke="none">2013</tspan></tspan></tspan></text>
 <text class="TextShape"><tspan class="TextParagraph" font-family="Arial, sans-serif" font-size="388px" font-weight="400"><tspan class="TextPosition" x="9767" y="11405"><tspan fill="rgb(0,0,0)" stroke="none">2014</tspan></tspan></tspan></text>
 <text class="TextShape"><tspan class="TextParagraph" font-family="Arial, sans-serif" font-size="388px" font-weight="400"><tspan class="TextPosition" x="11230" y="11405"><tspan fill="rgb(0,0,0)" stroke="none">2015</tspan></tspan></tspan></text>
 <text class="TextShape"><tspan class="TextParagraph" font-family="Arial, sans-serif" font-size="388px" font-weight="400"><tspan class="TextPosition" x="12693" y="11405"><tspan fill="rgb(0,0,0)" stroke="none">2016</tspan></tspan></tspan></text>
 <text class="TextShape"><tspan class="TextParagraph" font-family="Arial, sans-serif" font-size="388px" font-weight="400"><tspan class="TextPosition" x="14157" y="11405"><tspan fill="rgb(0,0,0)" stroke="none">2017</tspan></tspan></tspan></text>
 <text class="TextShape"><tspan class="TextParagraph" font-family="Arial, sans-serif" font-size="388px" font-weight="400"><tspan class="TextPosition" x="361" y="10945"><tspan fill="rgb(0,0,0)" stroke="none">0%</tspan></tspan></tspan></text>
 <text class="TextShape"><tspan class="TextParagraph" font-family="Arial, sans-serif" font-size="388px" font-weight="400"><tspan class="TextPosition" x="150" y="9556"><tspan fill="rgb(0,0,0)" stroke="none">10%</tspan></tspan></tspan></text>
 <text class="TextShape"><tspan class="TextParagraph" font-family="Arial, sans-serif" font-size="388px" font-weight="400"><tspan class="TextPosition" x="150" y="8167"><tspan fill="rgb(0,0,0)" stroke="none">20%</tspan></tspan></tspan></text>
 <text class="TextShape"><tspan class="TextParagraph" font-family="Arial, sans-serif" font-size="388px" font-weight="400"><tspan class="TextPosition" x="150" y="6779"><tspan fill="rgb(0,0,0)" stroke="none">30%</tspan></tspan></tspan></text>
 <text class="TextShape"><tspan class="TextParagraph" font-family="Arial, sans-serif" font-size="388px" font-weight="400"><tspan class="TextPosition" x="150" y="5390"><tspan fill="rgb(0,0,0)" stroke="none">40%</tspan></tspan></tspan></text>
 <text class="TextShape"><tspan class="TextParagraph" font-family="Arial, sans-serif" font-size="388px" font-weight="400"><tspan class="TextPosition" x="150" y="4002"><tspan fill="rgb(0,0,0)" stroke="none">50%</tspan></tspan></tspan></text>
 <text class="TextShape"><tspan class="TextParagraph" font-family="Arial, sans-serif" font-size="388px" font-weight="400"><tspan class="TextPosition" x="150" y="2613"><tspan fill="rgb(0,0,0)" stroke="none">60%</tspan></tspan></tspan></text>
 <text class="TextShape"><tspan class="TextParagraph" font-family="Arial, sans-serif" font-size="388px" font-weight="400"><tspan class="TextPosition" x="150" y="1225"><tspan fill="rgb(0,0,0)" stroke="none">70%</tspan></tspan></tspan></text>
 <text class="TextShape"><tspan class="TextParagraph" font-family="Arial, sans-serif" font-size="388px" font-weight="400"><tspan class="TextPosition" x="15440" y="10945"><tspan fill="rgb(0,0,0)" stroke="none">0%</tspan></tspan></tspan></text>
 <text class="TextShape"><tspan class="TextParagraph" font-family="Arial, sans-serif" font-size="388px" font-weight="400"><tspan class="TextPosition" x="15440" y="9556"><tspan fill="rgb(0,0,0)" stroke="none">10%</tspan></tspan></tspan></text>
 <text class="TextShape"><tspan class="TextParagraph" font-family="Arial, sans-serif" font-size="388px" font-weight="400"><tspan class="TextPosition" x="15440" y="8167"><tspan fill="rgb(0,0,0)" stroke="none">20%</tspan></tspan></tspan></text>
 <text class="TextShape"><tspan class="TextParagraph" font-family="Arial, sans-serif" font-size="388px" font-weight="400"><tspan class="TextPosition" x="15440" y="6779"><tspan fill="rgb(0,0,0)" stroke="none">30%</tspan></tspan></tspan></text>
 <text class="TextShape"><tspan class="TextParagraph" font-family="Arial, sans-serif" font-size="388px" font-weight="400"><tspan class="TextPosition" x="15440" y="5390"><tspan fill="rgb(0,0,0)" stroke="none">40%</tspan></tspan></tspan></text>
 <text class="TextShape"><tspan class="TextParagraph" font-family="Arial, sans-serif" font-size="388px" font-weight="400"><tspan class="TextPosition" x="15440" y="4002"><tspan fill="rgb(0,0,0)" stroke="none">50%</tspan></tspan></tspan></text>
 <text class="TextShape"><tspan class="TextParagraph" font-family="Arial, sans-serif" font-size="388px" font-weight="400"><tspan class="TextPosition" x="15440" y="2613"><tspan fill="rgb(0,0,0)" stroke="none">60%</tspan></tspan></tspan></text>
 <text class="TextShape"><tspan class="TextParagraph" font-family="Arial, sans-serif" font-size="388px" font-weight="400"><tspan class="TextPosition" x="15440" y="1225"><tspan fill="rgb(0,0,0)" stroke="none">70%</tspan></tspan></tspan></text>
 <text class="TextShape"><tspan class="TextParagraph" font-family="Liberation Sans, sans-serif" font-size="635px" font-weight="400"><tspan class="TextPosition" x="5524" y="747"><tspan fill="rgb(0,0,0)" stroke="none">Relación de aspecto</tspan></tspan></tspan></text>
 <path fill="none" stroke="rgb(0,69,134)" stroke-width="88" stroke-linejoin="round" d="M 3445,11738 L 4245,11738"/>
 <path fill="none" stroke="rgb(255,66,14)" stroke-width="88" stroke-linejoin="round" d="M 5258,11738 L 6058,11738"/>
 <path fill="none" stroke="rgb(255,211,32)" stroke-width="88" stroke-linejoin="round" d="M 7071,11738 L 7871,11738"/>
 <path fill="none" stroke="rgb(87,157,28)" stroke-width="88" stroke-linejoin="round" d="M 8883,11738 L 9683,11738"/>
 <path fill="none" stroke="rgb(126,0,33)" stroke-width="88" stroke-linejoin="round" d="M 10934,11738 L 11734,11738"/>
 <text class="TextShape"><tspan class="TextParagraph" font-family="Arial, sans-serif" font-size="459px" font-weight="400"><tspan class="TextPosition" x="4345" y="11897"><tspan fill="rgb(0,0,0)" stroke="none">5:4</tspan></tspan></tspan></text>
 <text class="TextShape"><tspan class="TextParagraph" font-family="Arial, sans-serif" font-size="459px" font-weight="400"><tspan class="TextPosition" x="6158" y="11897"><tspan fill="rgb(0,0,0)" stroke="none">4:3</tspan></tspan></tspan></text>
 <text class="TextShape"><tspan class="TextParagraph" font-family="Arial, sans-serif" font-size="459px" font-weight="400"><tspan class="TextPosition" x="7971" y="11897"><tspan fill="rgb(0,0,0)" stroke="none">8:5</tspan></tspan></tspan></text>
 <text class="TextShape"><tspan class="TextParagraph" font-family="Arial, sans-serif" font-size="459px" font-weight="400"><tspan class="TextPosition" x="9783" y="11897"><tspan fill="rgb(0,0,0)" stroke="none">16:9</tspan></tspan></tspan></text>
 <text class="TextShape"><tspan class="TextParagraph" font-family="Arial, sans-serif" font-size="459px" font-weight="400"><tspan class="TextPosition" x="11834" y="11897"><tspan fill="rgb(0,0,0)" stroke="none">Otros</tspan></tspan></tspan></text>
</svg>
