<?xml version="1.0" encoding="UTF-8"?>
<!DOCTYPE svg PUBLIC "-//W3C//DTD SVG 1.1//EN" "http://www.w3.org/Graphics/SVG/1.1/DTD/svg11.dtd">
<svg width="159mm" height="119mm" viewBox="0 0 15900 11900" version="1.1" xmlns="http://www.w3.org/2000/svg" stroke-width="28.222" stroke-linejoin="round" xml:space="preserve">
 <path fill="rgb(255,255,255)" stroke="none" d="M 7925,11930 L 0,11930 0,0 15850,0 15850,11930 7925,11930 Z"/>
 <path fill="none" stroke="rgb(0,0,0)" stroke-width="50" stroke-linejoin="round" d="M 7985,10699 L 1366,10699 1366,1096 14604,1096 14604,10699 7985,10699 Z"/>
 <path fill="none" stroke="rgb(179,179,179)" stroke-linejoin="round" d="M 14604,10698 L 1366,10698"/>
 <path fill="none" stroke="rgb(179,179,179)" stroke-linejoin="round" d="M 14604,9737 L 1366,9737"/>
 <path fill="none" stroke="rgb(179,179,179)" stroke-linejoin="round" d="M 14604,8777 L 1366,8777"/>
 <path fill="none" stroke="rgb(179,179,179)" stroke-linejoin="round" d="M 14604,7816 L 1366,7816"/>
 <path fill="none" stroke="rgb(179,179,179)" stroke-linejoin="round" d="M 14604,6856 L 1366,6856"/>
 <path fill="none" stroke="rgb(179,179,179)" stroke-linejoin="round" d="M 14604,5897 L 1366,5897"/>
 <path fill="none" stroke="rgb(179,179,179)" stroke-linejoin="round" d="M 14604,4936 L 1366,4936"/>
 <path fill="none" stroke="rgb(179,179,179)" stroke-linejoin="round" d="M 14604,3976 L 1366,3976"/>
 <path fill="none" stroke="rgb(179,179,179)" stroke-linejoin="round" d="M 14604,3015 L 1366,3015"/>
 <path fill="none" stroke="rgb(179,179,179)" stroke-linejoin="round" d="M 14604,2055 L 1366,2055"/>
 <path fill="none" stroke="rgb(179,179,179)" stroke-linejoin="round" d="M 14604,1095 L 1366,1095"/>
 <path fill="none" stroke="rgb(0,0,0)" stroke-width="30" stroke-linejoin="round" d="M 1366,10848 L 1366,10698"/>
 <path fill="none" stroke="rgb(0,0,0)" stroke-width="30" stroke-linejoin="round" d="M 1366,10848 L 1366,10698"/>
 <path fill="none" stroke="rgb(0,0,0)" stroke-width="30" stroke-linejoin="round" d="M 1482,10848 L 1482,10698"/>
 <path fill="none" stroke="rgb(0,0,0)" stroke-width="30" stroke-linejoin="round" d="M 1482,10848 L 1482,10698"/>
 <path fill="none" stroke="rgb(0,0,0)" stroke-width="30" stroke-linejoin="round" d="M 1598,10848 L 1598,10698"/>
 <path fill="none" stroke="rgb(0,0,0)" stroke-width="30" stroke-linejoin="round" d="M 1598,10848 L 1598,10698"/>
 <path fill="none" stroke="rgb(0,0,0)" stroke-width="30" stroke-linejoin="round" d="M 1714,10848 L 1714,10698"/>
 <path fill="none" stroke="rgb(0,0,0)" stroke-width="30" stroke-linejoin="round" d="M 1714,10848 L 1714,10698"/>
 <path fill="none" stroke="rgb(0,0,0)" stroke-width="30" stroke-linejoin="round" d="M 1830,10848 L 1830,10698"/>
 <path fill="none" stroke="rgb(0,0,0)" stroke-width="30" stroke-linejoin="round" d="M 1830,10848 L 1830,10698"/>
 <path fill="none" stroke="rgb(0,0,0)" stroke-width="30" stroke-linejoin="round" d="M 1946,10848 L 1946,10698"/>
 <path fill="none" stroke="rgb(0,0,0)" stroke-width="30" stroke-linejoin="round" d="M 1946,10848 L 1946,10698"/>
 <path fill="none" stroke="rgb(0,0,0)" stroke-width="30" stroke-linejoin="round" d="M 2062,10848 L 2062,10698"/>
 <path fill="none" stroke="rgb(0,0,0)" stroke-width="30" stroke-linejoin="round" d="M 2062,10848 L 2062,10698"/>
 <path fill="none" stroke="rgb(0,0,0)" stroke-width="30" stroke-linejoin="round" d="M 2178,10848 L 2178,10698"/>
 <path fill="none" stroke="rgb(0,0,0)" stroke-width="30" stroke-linejoin="round" d="M 2178,10848 L 2178,10698"/>
 <path fill="none" stroke="rgb(0,0,0)" stroke-width="30" stroke-linejoin="round" d="M 2295,10848 L 2295,10698"/>
 <path fill="none" stroke="rgb(0,0,0)" stroke-width="30" stroke-linejoin="round" d="M 2295,10848 L 2295,10698"/>
 <path fill="none" stroke="rgb(0,0,0)" stroke-width="30" stroke-linejoin="round" d="M 2411,10848 L 2411,10698"/>
 <path fill="none" stroke="rgb(0,0,0)" stroke-width="30" stroke-linejoin="round" d="M 2411,10848 L 2411,10698"/>
 <path fill="none" stroke="rgb(0,0,0)" stroke-width="30" stroke-linejoin="round" d="M 2527,10848 L 2527,10698"/>
 <path fill="none" stroke="rgb(0,0,0)" stroke-width="30" stroke-linejoin="round" d="M 2527,10848 L 2527,10698"/>
 <path fill="none" stroke="rgb(0,0,0)" stroke-width="30" stroke-linejoin="round" d="M 2643,10848 L 2643,10698"/>
 <path fill="none" stroke="rgb(0,0,0)" stroke-width="30" stroke-linejoin="round" d="M 2643,10848 L 2643,10698"/>
 <path fill="none" stroke="rgb(0,0,0)" stroke-width="30" stroke-linejoin="round" d="M 2759,10848 L 2759,10698"/>
 <path fill="none" stroke="rgb(0,0,0)" stroke-width="30" stroke-linejoin="round" d="M 2759,10848 L 2759,10698"/>
 <path fill="none" stroke="rgb(0,0,0)" stroke-width="30" stroke-linejoin="round" d="M 2875,10848 L 2875,10698"/>
 <path fill="none" stroke="rgb(0,0,0)" stroke-width="30" stroke-linejoin="round" d="M 2875,10848 L 2875,10698"/>
 <path fill="none" stroke="rgb(0,0,0)" stroke-width="30" stroke-linejoin="round" d="M 2991,10848 L 2991,10698"/>
 <path fill="none" stroke="rgb(0,0,0)" stroke-width="30" stroke-linejoin="round" d="M 2991,10848 L 2991,10698"/>
 <path fill="none" stroke="rgb(0,0,0)" stroke-width="30" stroke-linejoin="round" d="M 3107,10848 L 3107,10698"/>
 <path fill="none" stroke="rgb(0,0,0)" stroke-width="30" stroke-linejoin="round" d="M 3107,10848 L 3107,10698"/>
 <path fill="none" stroke="rgb(0,0,0)" stroke-width="30" stroke-linejoin="round" d="M 3224,10848 L 3224,10698"/>
 <path fill="none" stroke="rgb(0,0,0)" stroke-width="30" stroke-linejoin="round" d="M 3224,10848 L 3224,10698"/>
 <path fill="none" stroke="rgb(0,0,0)" stroke-width="30" stroke-linejoin="round" d="M 3340,10848 L 3340,10698"/>
 <path fill="none" stroke="rgb(0,0,0)" stroke-width="30" stroke-linejoin="round" d="M 3340,10848 L 3340,10698"/>
 <path fill="none" stroke="rgb(0,0,0)" stroke-width="30" stroke-linejoin="round" d="M 3456,10848 L 3456,10698"/>
 <path fill="none" stroke="rgb(0,0,0)" stroke-width="30" stroke-linejoin="round" d="M 3456,10848 L 3456,10698"/>
 <path fill="none" stroke="rgb(0,0,0)" stroke-width="30" stroke-linejoin="round" d="M 3572,10848 L 3572,10698"/>
 <path fill="none" stroke="rgb(0,0,0)" stroke-width="30" stroke-linejoin="round" d="M 3572,10848 L 3572,10698"/>
 <path fill="none" stroke="rgb(0,0,0)" stroke-width="30" stroke-linejoin="round" d="M 3688,10848 L 3688,10698"/>
 <path fill="none" stroke="rgb(0,0,0)" stroke-width="30" stroke-linejoin="round" d="M 3688,10848 L 3688,10698"/>
 <path fill="none" stroke="rgb(0,0,0)" stroke-width="30" stroke-linejoin="round" d="M 3804,10848 L 3804,10698"/>
 <path fill="none" stroke="rgb(0,0,0)" stroke-width="30" stroke-linejoin="round" d="M 3804,10848 L 3804,10698"/>
 <path fill="none" stroke="rgb(0,0,0)" stroke-width="30" stroke-linejoin="round" d="M 3920,10848 L 3920,10698"/>
 <path fill="none" stroke="rgb(0,0,0)" stroke-width="30" stroke-linejoin="round" d="M 3920,10848 L 3920,10698"/>
 <path fill="none" stroke="rgb(0,0,0)" stroke-width="30" stroke-linejoin="round" d="M 4037,10848 L 4037,10698"/>
 <path fill="none" stroke="rgb(0,0,0)" stroke-width="30" stroke-linejoin="round" d="M 4037,10848 L 4037,10698"/>
 <path fill="none" stroke="rgb(0,0,0)" stroke-width="30" stroke-linejoin="round" d="M 4153,10848 L 4153,10698"/>
 <path fill="none" stroke="rgb(0,0,0)" stroke-width="30" stroke-linejoin="round" d="M 4153,10848 L 4153,10698"/>
 <path fill="none" stroke="rgb(0,0,0)" stroke-width="30" stroke-linejoin="round" d="M 4269,10848 L 4269,10698"/>
 <path fill="none" stroke="rgb(0,0,0)" stroke-width="30" stroke-linejoin="round" d="M 4269,10848 L 4269,10698"/>
 <path fill="none" stroke="rgb(0,0,0)" stroke-width="30" stroke-linejoin="round" d="M 4385,10848 L 4385,10698"/>
 <path fill="none" stroke="rgb(0,0,0)" stroke-width="30" stroke-linejoin="round" d="M 4385,10848 L 4385,10698"/>
 <path fill="none" stroke="rgb(0,0,0)" stroke-width="30" stroke-linejoin="round" d="M 4501,10848 L 4501,10698"/>
 <path fill="none" stroke="rgb(0,0,0)" stroke-width="30" stroke-linejoin="round" d="M 4501,10848 L 4501,10698"/>
 <path fill="none" stroke="rgb(0,0,0)" stroke-width="30" stroke-linejoin="round" d="M 4617,10848 L 4617,10698"/>
 <path fill="none" stroke="rgb(0,0,0)" stroke-width="30" stroke-linejoin="round" d="M 4617,10848 L 4617,10698"/>
 <path fill="none" stroke="rgb(0,0,0)" stroke-width="30" stroke-linejoin="round" d="M 4733,10848 L 4733,10698"/>
 <path fill="none" stroke="rgb(0,0,0)" stroke-width="30" stroke-linejoin="round" d="M 4733,10848 L 4733,10698"/>
 <path fill="none" stroke="rgb(0,0,0)" stroke-width="30" stroke-linejoin="round" d="M 4849,10848 L 4849,10698"/>
 <path fill="none" stroke="rgb(0,0,0)" stroke-width="30" stroke-linejoin="round" d="M 4849,10848 L 4849,10698"/>
 <path fill="none" stroke="rgb(0,0,0)" stroke-width="30" stroke-linejoin="round" d="M 4966,10848 L 4966,10698"/>
 <path fill="none" stroke="rgb(0,0,0)" stroke-width="30" stroke-linejoin="round" d="M 4966,10848 L 4966,10698"/>
 <path fill="none" stroke="rgb(0,0,0)" stroke-width="30" stroke-linejoin="round" d="M 5082,10848 L 5082,10698"/>
 <path fill="none" stroke="rgb(0,0,0)" stroke-width="30" stroke-linejoin="round" d="M 5082,10848 L 5082,10698"/>
 <path fill="none" stroke="rgb(0,0,0)" stroke-width="30" stroke-linejoin="round" d="M 5198,10848 L 5198,10698"/>
 <path fill="none" stroke="rgb(0,0,0)" stroke-width="30" stroke-linejoin="round" d="M 5198,10848 L 5198,10698"/>
 <path fill="none" stroke="rgb(0,0,0)" stroke-width="30" stroke-linejoin="round" d="M 5314,10848 L 5314,10698"/>
 <path fill="none" stroke="rgb(0,0,0)" stroke-width="30" stroke-linejoin="round" d="M 5314,10848 L 5314,10698"/>
 <path fill="none" stroke="rgb(0,0,0)" stroke-width="30" stroke-linejoin="round" d="M 5430,10848 L 5430,10698"/>
 <path fill="none" stroke="rgb(0,0,0)" stroke-width="30" stroke-linejoin="round" d="M 5430,10848 L 5430,10698"/>
 <path fill="none" stroke="rgb(0,0,0)" stroke-width="30" stroke-linejoin="round" d="M 5546,10848 L 5546,10698"/>
 <path fill="none" stroke="rgb(0,0,0)" stroke-width="30" stroke-linejoin="round" d="M 5546,10848 L 5546,10698"/>
 <path fill="none" stroke="rgb(0,0,0)" stroke-width="30" stroke-linejoin="round" d="M 5662,10848 L 5662,10698"/>
 <path fill="none" stroke="rgb(0,0,0)" stroke-width="30" stroke-linejoin="round" d="M 5662,10848 L 5662,10698"/>
 <path fill="none" stroke="rgb(0,0,0)" stroke-width="30" stroke-linejoin="round" d="M 5779,10848 L 5779,10698"/>
 <path fill="none" stroke="rgb(0,0,0)" stroke-width="30" stroke-linejoin="round" d="M 5779,10848 L 5779,10698"/>
 <path fill="none" stroke="rgb(0,0,0)" stroke-width="30" stroke-linejoin="round" d="M 5895,10848 L 5895,10698"/>
 <path fill="none" stroke="rgb(0,0,0)" stroke-width="30" stroke-linejoin="round" d="M 5895,10848 L 5895,10698"/>
 <path fill="none" stroke="rgb(0,0,0)" stroke-width="30" stroke-linejoin="round" d="M 6011,10848 L 6011,10698"/>
 <path fill="none" stroke="rgb(0,0,0)" stroke-width="30" stroke-linejoin="round" d="M 6011,10848 L 6011,10698"/>
 <path fill="none" stroke="rgb(0,0,0)" stroke-width="30" stroke-linejoin="round" d="M 6127,10848 L 6127,10698"/>
 <path fill="none" stroke="rgb(0,0,0)" stroke-width="30" stroke-linejoin="round" d="M 6127,10848 L 6127,10698"/>
 <path fill="none" stroke="rgb(0,0,0)" stroke-width="30" stroke-linejoin="round" d="M 6243,10848 L 6243,10698"/>
 <path fill="none" stroke="rgb(0,0,0)" stroke-width="30" stroke-linejoin="round" d="M 6243,10848 L 6243,10698"/>
 <path fill="none" stroke="rgb(0,0,0)" stroke-width="30" stroke-linejoin="round" d="M 6359,10848 L 6359,10698"/>
 <path fill="none" stroke="rgb(0,0,0)" stroke-width="30" stroke-linejoin="round" d="M 6359,10848 L 6359,10698"/>
 <path fill="none" stroke="rgb(0,0,0)" stroke-width="30" stroke-linejoin="round" d="M 6475,10848 L 6475,10698"/>
 <path fill="none" stroke="rgb(0,0,0)" stroke-width="30" stroke-linejoin="round" d="M 6475,10848 L 6475,10698"/>
 <path fill="none" stroke="rgb(0,0,0)" stroke-width="30" stroke-linejoin="round" d="M 6591,10848 L 6591,10698"/>
 <path fill="none" stroke="rgb(0,0,0)" stroke-width="30" stroke-linejoin="round" d="M 6591,10848 L 6591,10698"/>
 <path fill="none" stroke="rgb(0,0,0)" stroke-width="30" stroke-linejoin="round" d="M 6708,10848 L 6708,10698"/>
 <path fill="none" stroke="rgb(0,0,0)" stroke-width="30" stroke-linejoin="round" d="M 6708,10848 L 6708,10698"/>
 <path fill="none" stroke="rgb(0,0,0)" stroke-width="30" stroke-linejoin="round" d="M 6824,10848 L 6824,10698"/>
 <path fill="none" stroke="rgb(0,0,0)" stroke-width="30" stroke-linejoin="round" d="M 6824,10848 L 6824,10698"/>
 <path fill="none" stroke="rgb(0,0,0)" stroke-width="30" stroke-linejoin="round" d="M 6940,10848 L 6940,10698"/>
 <path fill="none" stroke="rgb(0,0,0)" stroke-width="30" stroke-linejoin="round" d="M 6940,10848 L 6940,10698"/>
 <path fill="none" stroke="rgb(0,0,0)" stroke-width="30" stroke-linejoin="round" d="M 7056,10848 L 7056,10698"/>
 <path fill="none" stroke="rgb(0,0,0)" stroke-width="30" stroke-linejoin="round" d="M 7056,10848 L 7056,10698"/>
 <path fill="none" stroke="rgb(0,0,0)" stroke-width="30" stroke-linejoin="round" d="M 7172,10848 L 7172,10698"/>
 <path fill="none" stroke="rgb(0,0,0)" stroke-width="30" stroke-linejoin="round" d="M 7172,10848 L 7172,10698"/>
 <path fill="none" stroke="rgb(0,0,0)" stroke-width="30" stroke-linejoin="round" d="M 7288,10848 L 7288,10698"/>
 <path fill="none" stroke="rgb(0,0,0)" stroke-width="30" stroke-linejoin="round" d="M 7288,10848 L 7288,10698"/>
 <path fill="none" stroke="rgb(0,0,0)" stroke-width="30" stroke-linejoin="round" d="M 7404,10848 L 7404,10698"/>
 <path fill="none" stroke="rgb(0,0,0)" stroke-width="30" stroke-linejoin="round" d="M 7404,10848 L 7404,10698"/>
 <path fill="none" stroke="rgb(0,0,0)" stroke-width="30" stroke-linejoin="round" d="M 7520,10848 L 7520,10698"/>
 <path fill="none" stroke="rgb(0,0,0)" stroke-width="30" stroke-linejoin="round" d="M 7520,10848 L 7520,10698"/>
 <path fill="none" stroke="rgb(0,0,0)" stroke-width="30" stroke-linejoin="round" d="M 7637,10848 L 7637,10698"/>
 <path fill="none" stroke="rgb(0,0,0)" stroke-width="30" stroke-linejoin="round" d="M 7637,10848 L 7637,10698"/>
 <path fill="none" stroke="rgb(0,0,0)" stroke-width="30" stroke-linejoin="round" d="M 7753,10848 L 7753,10698"/>
 <path fill="none" stroke="rgb(0,0,0)" stroke-width="30" stroke-linejoin="round" d="M 7753,10848 L 7753,10698"/>
 <path fill="none" stroke="rgb(0,0,0)" stroke-width="30" stroke-linejoin="round" d="M 7869,10848 L 7869,10698"/>
 <path fill="none" stroke="rgb(0,0,0)" stroke-width="30" stroke-linejoin="round" d="M 7869,10848 L 7869,10698"/>
 <path fill="none" stroke="rgb(0,0,0)" stroke-width="30" stroke-linejoin="round" d="M 7984,10848 L 7984,10698"/>
 <path fill="none" stroke="rgb(0,0,0)" stroke-width="30" stroke-linejoin="round" d="M 7984,10848 L 7984,10698"/>
 <path fill="none" stroke="rgb(0,0,0)" stroke-width="30" stroke-linejoin="round" d="M 8100,10848 L 8100,10698"/>
 <path fill="none" stroke="rgb(0,0,0)" stroke-width="30" stroke-linejoin="round" d="M 8100,10848 L 8100,10698"/>
 <path fill="none" stroke="rgb(0,0,0)" stroke-width="30" stroke-linejoin="round" d="M 8216,10848 L 8216,10698"/>
 <path fill="none" stroke="rgb(0,0,0)" stroke-width="30" stroke-linejoin="round" d="M 8216,10848 L 8216,10698"/>
 <path fill="none" stroke="rgb(0,0,0)" stroke-width="30" stroke-linejoin="round" d="M 8332,10848 L 8332,10698"/>
 <path fill="none" stroke="rgb(0,0,0)" stroke-width="30" stroke-linejoin="round" d="M 8332,10848 L 8332,10698"/>
 <path fill="none" stroke="rgb(0,0,0)" stroke-width="30" stroke-linejoin="round" d="M 8449,10848 L 8449,10698"/>
 <path fill="none" stroke="rgb(0,0,0)" stroke-width="30" stroke-linejoin="round" d="M 8449,10848 L 8449,10698"/>
 <path fill="none" stroke="rgb(0,0,0)" stroke-width="30" stroke-linejoin="round" d="M 8565,10848 L 8565,10698"/>
 <path fill="none" stroke="rgb(0,0,0)" stroke-width="30" stroke-linejoin="round" d="M 8565,10848 L 8565,10698"/>
 <path fill="none" stroke="rgb(0,0,0)" stroke-width="30" stroke-linejoin="round" d="M 8681,10848 L 8681,10698"/>
 <path fill="none" stroke="rgb(0,0,0)" stroke-width="30" stroke-linejoin="round" d="M 8681,10848 L 8681,10698"/>
 <path fill="none" stroke="rgb(0,0,0)" stroke-width="30" stroke-linejoin="round" d="M 8797,10848 L 8797,10698"/>
 <path fill="none" stroke="rgb(0,0,0)" stroke-width="30" stroke-linejoin="round" d="M 8797,10848 L 8797,10698"/>
 <path fill="none" stroke="rgb(0,0,0)" stroke-width="30" stroke-linejoin="round" d="M 8913,10848 L 8913,10698"/>
 <path fill="none" stroke="rgb(0,0,0)" stroke-width="30" stroke-linejoin="round" d="M 8913,10848 L 8913,10698"/>
 <path fill="none" stroke="rgb(0,0,0)" stroke-width="30" stroke-linejoin="round" d="M 9029,10848 L 9029,10698"/>
 <path fill="none" stroke="rgb(0,0,0)" stroke-width="30" stroke-linejoin="round" d="M 9029,10848 L 9029,10698"/>
 <path fill="none" stroke="rgb(0,0,0)" stroke-width="30" stroke-linejoin="round" d="M 9145,10848 L 9145,10698"/>
 <path fill="none" stroke="rgb(0,0,0)" stroke-width="30" stroke-linejoin="round" d="M 9145,10848 L 9145,10698"/>
 <path fill="none" stroke="rgb(0,0,0)" stroke-width="30" stroke-linejoin="round" d="M 9261,10848 L 9261,10698"/>
 <path fill="none" stroke="rgb(0,0,0)" stroke-width="30" stroke-linejoin="round" d="M 9261,10848 L 9261,10698"/>
 <path fill="none" stroke="rgb(0,0,0)" stroke-width="30" stroke-linejoin="round" d="M 9378,10848 L 9378,10698"/>
 <path fill="none" stroke="rgb(0,0,0)" stroke-width="30" stroke-linejoin="round" d="M 9378,10848 L 9378,10698"/>
 <path fill="none" stroke="rgb(0,0,0)" stroke-width="30" stroke-linejoin="round" d="M 9494,10848 L 9494,10698"/>
 <path fill="none" stroke="rgb(0,0,0)" stroke-width="30" stroke-linejoin="round" d="M 9494,10848 L 9494,10698"/>
 <path fill="none" stroke="rgb(0,0,0)" stroke-width="30" stroke-linejoin="round" d="M 9610,10848 L 9610,10698"/>
 <path fill="none" stroke="rgb(0,0,0)" stroke-width="30" stroke-linejoin="round" d="M 9610,10848 L 9610,10698"/>
 <path fill="none" stroke="rgb(0,0,0)" stroke-width="30" stroke-linejoin="round" d="M 9726,10848 L 9726,10698"/>
 <path fill="none" stroke="rgb(0,0,0)" stroke-width="30" stroke-linejoin="round" d="M 9726,10848 L 9726,10698"/>
 <path fill="none" stroke="rgb(0,0,0)" stroke-width="30" stroke-linejoin="round" d="M 9842,10848 L 9842,10698"/>
 <path fill="none" stroke="rgb(0,0,0)" stroke-width="30" stroke-linejoin="round" d="M 9842,10848 L 9842,10698"/>
 <path fill="none" stroke="rgb(0,0,0)" stroke-width="30" stroke-linejoin="round" d="M 9958,10848 L 9958,10698"/>
 <path fill="none" stroke="rgb(0,0,0)" stroke-width="30" stroke-linejoin="round" d="M 9958,10848 L 9958,10698"/>
 <path fill="none" stroke="rgb(0,0,0)" stroke-width="30" stroke-linejoin="round" d="M 10074,10848 L 10074,10698"/>
 <path fill="none" stroke="rgb(0,0,0)" stroke-width="30" stroke-linejoin="round" d="M 10074,10848 L 10074,10698"/>
 <path fill="none" stroke="rgb(0,0,0)" stroke-width="30" stroke-linejoin="round" d="M 10191,10848 L 10191,10698"/>
 <path fill="none" stroke="rgb(0,0,0)" stroke-width="30" stroke-linejoin="round" d="M 10191,10848 L 10191,10698"/>
 <path fill="none" stroke="rgb(0,0,0)" stroke-width="30" stroke-linejoin="round" d="M 10307,10848 L 10307,10698"/>
 <path fill="none" stroke="rgb(0,0,0)" stroke-width="30" stroke-linejoin="round" d="M 10307,10848 L 10307,10698"/>
 <path fill="none" stroke="rgb(0,0,0)" stroke-width="30" stroke-linejoin="round" d="M 10423,10848 L 10423,10698"/>
 <path fill="none" stroke="rgb(0,0,0)" stroke-width="30" stroke-linejoin="round" d="M 10423,10848 L 10423,10698"/>
 <path fill="none" stroke="rgb(0,0,0)" stroke-width="30" stroke-linejoin="round" d="M 10539,10848 L 10539,10698"/>
 <path fill="none" stroke="rgb(0,0,0)" stroke-width="30" stroke-linejoin="round" d="M 10539,10848 L 10539,10698"/>
 <path fill="none" stroke="rgb(0,0,0)" stroke-width="30" stroke-linejoin="round" d="M 10655,10848 L 10655,10698"/>
 <path fill="none" stroke="rgb(0,0,0)" stroke-width="30" stroke-linejoin="round" d="M 10655,10848 L 10655,10698"/>
 <path fill="none" stroke="rgb(0,0,0)" stroke-width="30" stroke-linejoin="round" d="M 10771,10848 L 10771,10698"/>
 <path fill="none" stroke="rgb(0,0,0)" stroke-width="30" stroke-linejoin="round" d="M 10771,10848 L 10771,10698"/>
 <path fill="none" stroke="rgb(0,0,0)" stroke-width="30" stroke-linejoin="round" d="M 10887,10848 L 10887,10698"/>
 <path fill="none" stroke="rgb(0,0,0)" stroke-width="30" stroke-linejoin="round" d="M 10887,10848 L 10887,10698"/>
 <path fill="none" stroke="rgb(0,0,0)" stroke-width="30" stroke-linejoin="round" d="M 11003,10848 L 11003,10698"/>
 <path fill="none" stroke="rgb(0,0,0)" stroke-width="30" stroke-linejoin="round" d="M 11003,10848 L 11003,10698"/>
 <path fill="none" stroke="rgb(0,0,0)" stroke-width="30" stroke-linejoin="round" d="M 11120,10848 L 11120,10698"/>
 <path fill="none" stroke="rgb(0,0,0)" stroke-width="30" stroke-linejoin="round" d="M 11120,10848 L 11120,10698"/>
 <path fill="none" stroke="rgb(0,0,0)" stroke-width="30" stroke-linejoin="round" d="M 11236,10848 L 11236,10698"/>
 <path fill="none" stroke="rgb(0,0,0)" stroke-width="30" stroke-linejoin="round" d="M 11236,10848 L 11236,10698"/>
 <path fill="none" stroke="rgb(0,0,0)" stroke-width="30" stroke-linejoin="round" d="M 11352,10848 L 11352,10698"/>
 <path fill="none" stroke="rgb(0,0,0)" stroke-width="30" stroke-linejoin="round" d="M 11352,10848 L 11352,10698"/>
 <path fill="none" stroke="rgb(0,0,0)" stroke-width="30" stroke-linejoin="round" d="M 11468,10848 L 11468,10698"/>
 <path fill="none" stroke="rgb(0,0,0)" stroke-width="30" stroke-linejoin="round" d="M 11468,10848 L 11468,10698"/>
 <path fill="none" stroke="rgb(0,0,0)" stroke-width="30" stroke-linejoin="round" d="M 11584,10848 L 11584,10698"/>
 <path fill="none" stroke="rgb(0,0,0)" stroke-width="30" stroke-linejoin="round" d="M 11584,10848 L 11584,10698"/>
 <path fill="none" stroke="rgb(0,0,0)" stroke-width="30" stroke-linejoin="round" d="M 11700,10848 L 11700,10698"/>
 <path fill="none" stroke="rgb(0,0,0)" stroke-width="30" stroke-linejoin="round" d="M 11700,10848 L 11700,10698"/>
 <path fill="none" stroke="rgb(0,0,0)" stroke-width="30" stroke-linejoin="round" d="M 11816,10848 L 11816,10698"/>
 <path fill="none" stroke="rgb(0,0,0)" stroke-width="30" stroke-linejoin="round" d="M 11816,10848 L 11816,10698"/>
 <path fill="none" stroke="rgb(0,0,0)" stroke-width="30" stroke-linejoin="round" d="M 11932,10848 L 11932,10698"/>
 <path fill="none" stroke="rgb(0,0,0)" stroke-width="30" stroke-linejoin="round" d="M 11932,10848 L 11932,10698"/>
 <path fill="none" stroke="rgb(0,0,0)" stroke-width="30" stroke-linejoin="round" d="M 12049,10848 L 12049,10698"/>
 <path fill="none" stroke="rgb(0,0,0)" stroke-width="30" stroke-linejoin="round" d="M 12049,10848 L 12049,10698"/>
 <path fill="none" stroke="rgb(0,0,0)" stroke-width="30" stroke-linejoin="round" d="M 12165,10848 L 12165,10698"/>
 <path fill="none" stroke="rgb(0,0,0)" stroke-width="30" stroke-linejoin="round" d="M 12165,10848 L 12165,10698"/>
 <path fill="none" stroke="rgb(0,0,0)" stroke-width="30" stroke-linejoin="round" d="M 12281,10848 L 12281,10698"/>
 <path fill="none" stroke="rgb(0,0,0)" stroke-width="30" stroke-linejoin="round" d="M 12281,10848 L 12281,10698"/>
 <path fill="none" stroke="rgb(0,0,0)" stroke-width="30" stroke-linejoin="round" d="M 12397,10848 L 12397,10698"/>
 <path fill="none" stroke="rgb(0,0,0)" stroke-width="30" stroke-linejoin="round" d="M 12397,10848 L 12397,10698"/>
 <path fill="none" stroke="rgb(0,0,0)" stroke-width="30" stroke-linejoin="round" d="M 12513,10848 L 12513,10698"/>
 <path fill="none" stroke="rgb(0,0,0)" stroke-width="30" stroke-linejoin="round" d="M 12513,10848 L 12513,10698"/>
 <path fill="none" stroke="rgb(0,0,0)" stroke-width="30" stroke-linejoin="round" d="M 12629,10848 L 12629,10698"/>
 <path fill="none" stroke="rgb(0,0,0)" stroke-width="30" stroke-linejoin="round" d="M 12629,10848 L 12629,10698"/>
 <path fill="none" stroke="rgb(0,0,0)" stroke-width="30" stroke-linejoin="round" d="M 12745,10848 L 12745,10698"/>
 <path fill="none" stroke="rgb(0,0,0)" stroke-width="30" stroke-linejoin="round" d="M 12745,10848 L 12745,10698"/>
 <path fill="none" stroke="rgb(0,0,0)" stroke-width="30" stroke-linejoin="round" d="M 12862,10848 L 12862,10698"/>
 <path fill="none" stroke="rgb(0,0,0)" stroke-width="30" stroke-linejoin="round" d="M 12862,10848 L 12862,10698"/>
 <path fill="none" stroke="rgb(0,0,0)" stroke-width="30" stroke-linejoin="round" d="M 12978,10848 L 12978,10698"/>
 <path fill="none" stroke="rgb(0,0,0)" stroke-width="30" stroke-linejoin="round" d="M 12978,10848 L 12978,10698"/>
 <path fill="none" stroke="rgb(0,0,0)" stroke-width="30" stroke-linejoin="round" d="M 13094,10848 L 13094,10698"/>
 <path fill="none" stroke="rgb(0,0,0)" stroke-width="30" stroke-linejoin="round" d="M 13094,10848 L 13094,10698"/>
 <path fill="none" stroke="rgb(0,0,0)" stroke-width="30" stroke-linejoin="round" d="M 13210,10848 L 13210,10698"/>
 <path fill="none" stroke="rgb(0,0,0)" stroke-width="30" stroke-linejoin="round" d="M 13210,10848 L 13210,10698"/>
 <path fill="none" stroke="rgb(0,0,0)" stroke-width="30" stroke-linejoin="round" d="M 13326,10848 L 13326,10698"/>
 <path fill="none" stroke="rgb(0,0,0)" stroke-width="30" stroke-linejoin="round" d="M 13326,10848 L 13326,10698"/>
 <path fill="none" stroke="rgb(0,0,0)" stroke-width="30" stroke-linejoin="round" d="M 13442,10848 L 13442,10698"/>
 <path fill="none" stroke="rgb(0,0,0)" stroke-width="30" stroke-linejoin="round" d="M 13442,10848 L 13442,10698"/>
 <path fill="none" stroke="rgb(0,0,0)" stroke-width="30" stroke-linejoin="round" d="M 13558,10848 L 13558,10698"/>
 <path fill="none" stroke="rgb(0,0,0)" stroke-width="30" stroke-linejoin="round" d="M 13558,10848 L 13558,10698"/>
 <path fill="none" stroke="rgb(0,0,0)" stroke-width="30" stroke-linejoin="round" d="M 13674,10848 L 13674,10698"/>
 <path fill="none" stroke="rgb(0,0,0)" stroke-width="30" stroke-linejoin="round" d="M 13674,10848 L 13674,10698"/>
 <path fill="none" stroke="rgb(0,0,0)" stroke-width="30" stroke-linejoin="round" d="M 13791,10848 L 13791,10698"/>
 <path fill="none" stroke="rgb(0,0,0)" stroke-width="30" stroke-linejoin="round" d="M 13791,10848 L 13791,10698"/>
 <path fill="none" stroke="rgb(0,0,0)" stroke-width="30" stroke-linejoin="round" d="M 13907,10848 L 13907,10698"/>
 <path fill="none" stroke="rgb(0,0,0)" stroke-width="30" stroke-linejoin="round" d="M 13907,10848 L 13907,10698"/>
 <path fill="none" stroke="rgb(0,0,0)" stroke-width="30" stroke-linejoin="round" d="M 14023,10848 L 14023,10698"/>
 <path fill="none" stroke="rgb(0,0,0)" stroke-width="30" stroke-linejoin="round" d="M 14023,10848 L 14023,10698"/>
 <path fill="none" stroke="rgb(0,0,0)" stroke-width="30" stroke-linejoin="round" d="M 14139,10848 L 14139,10698"/>
 <path fill="none" stroke="rgb(0,0,0)" stroke-width="30" stroke-linejoin="round" d="M 14139,10848 L 14139,10698"/>
 <path fill="none" stroke="rgb(0,0,0)" stroke-width="30" stroke-linejoin="round" d="M 14255,10848 L 14255,10698"/>
 <path fill="none" stroke="rgb(0,0,0)" stroke-width="30" stroke-linejoin="round" d="M 14255,10848 L 14255,10698"/>
 <path fill="none" stroke="rgb(0,0,0)" stroke-width="30" stroke-linejoin="round" d="M 14371,10848 L 14371,10698"/>
 <path fill="none" stroke="rgb(0,0,0)" stroke-width="30" stroke-linejoin="round" d="M 14371,10848 L 14371,10698"/>
 <path fill="none" stroke="rgb(0,0,0)" stroke-width="30" stroke-linejoin="round" d="M 14487,10848 L 14487,10698"/>
 <path fill="none" stroke="rgb(0,0,0)" stroke-width="30" stroke-linejoin="round" d="M 14487,10848 L 14487,10698"/>
 <path fill="none" stroke="rgb(0,0,0)" stroke-width="30" stroke-linejoin="round" d="M 14604,10848 L 14604,10698"/>
 <path fill="none" stroke="rgb(0,0,0)" stroke-width="30" stroke-linejoin="round" d="M 14604,10848 L 14604,10698"/>
 <path fill="none" stroke="rgb(0,0,0)" stroke-width="30" stroke-linejoin="round" d="M 1366,10698 L 14604,10698"/>
 <path fill="none" stroke="rgb(0,0,0)" stroke-width="30" stroke-linejoin="round" d="M 1216,10698 L 1516,10698"/>
 <path fill="none" stroke="rgb(0,0,0)" stroke-width="30" stroke-linejoin="round" d="M 1216,10698 L 1516,10698"/>
 <path fill="none" stroke="rgb(0,0,0)" stroke-width="30" stroke-linejoin="round" d="M 1216,9737 L 1516,9737"/>
 <path fill="none" stroke="rgb(0,0,0)" stroke-width="30" stroke-linejoin="round" d="M 1216,9737 L 1516,9737"/>
 <path fill="none" stroke="rgb(0,0,0)" stroke-width="30" stroke-linejoin="round" d="M 1216,8777 L 1516,8777"/>
 <path fill="none" stroke="rgb(0,0,0)" stroke-width="30" stroke-linejoin="round" d="M 1216,8777 L 1516,8777"/>
 <path fill="none" stroke="rgb(0,0,0)" stroke-width="30" stroke-linejoin="round" d="M 1216,7816 L 1516,7816"/>
 <path fill="none" stroke="rgb(0,0,0)" stroke-width="30" stroke-linejoin="round" d="M 1216,7816 L 1516,7816"/>
 <path fill="none" stroke="rgb(0,0,0)" stroke-width="30" stroke-linejoin="round" d="M 1216,6856 L 1516,6856"/>
 <path fill="none" stroke="rgb(0,0,0)" stroke-width="30" stroke-linejoin="round" d="M 1216,6856 L 1516,6856"/>
 <path fill="none" stroke="rgb(0,0,0)" stroke-width="30" stroke-linejoin="round" d="M 1216,5897 L 1516,5897"/>
 <path fill="none" stroke="rgb(0,0,0)" stroke-width="30" stroke-linejoin="round" d="M 1216,5897 L 1516,5897"/>
 <path fill="none" stroke="rgb(0,0,0)" stroke-width="30" stroke-linejoin="round" d="M 1216,4936 L 1516,4936"/>
 <path fill="none" stroke="rgb(0,0,0)" stroke-width="30" stroke-linejoin="round" d="M 1216,4936 L 1516,4936"/>
 <path fill="none" stroke="rgb(0,0,0)" stroke-width="30" stroke-linejoin="round" d="M 1216,3976 L 1516,3976"/>
 <path fill="none" stroke="rgb(0,0,0)" stroke-width="30" stroke-linejoin="round" d="M 1216,3976 L 1516,3976"/>
 <path fill="none" stroke="rgb(0,0,0)" stroke-width="30" stroke-linejoin="round" d="M 1216,3015 L 1516,3015"/>
 <path fill="none" stroke="rgb(0,0,0)" stroke-width="30" stroke-linejoin="round" d="M 1216,3015 L 1516,3015"/>
 <path fill="none" stroke="rgb(0,0,0)" stroke-width="30" stroke-linejoin="round" d="M 1216,2055 L 1516,2055"/>
 <path fill="none" stroke="rgb(0,0,0)" stroke-width="30" stroke-linejoin="round" d="M 1216,2055 L 1516,2055"/>
 <path fill="none" stroke="rgb(0,0,0)" stroke-width="30" stroke-linejoin="round" d="M 1216,1095 L 1516,1095"/>
 <path fill="none" stroke="rgb(0,0,0)" stroke-width="30" stroke-linejoin="round" d="M 1216,1095 L 1516,1095"/>
 <path fill="none" stroke="rgb(0,0,0)" stroke-width="30" stroke-linejoin="round" d="M 1366,10698 L 1366,1095"/>
 <path fill="none" stroke="rgb(0,0,0)" stroke-width="30" stroke-linejoin="round" d="M 14754,10698 L 14604,10698"/>
 <path fill="none" stroke="rgb(0,0,0)" stroke-width="30" stroke-linejoin="round" d="M 14754,10698 L 14604,10698"/>
 <path fill="none" stroke="rgb(0,0,0)" stroke-width="30" stroke-linejoin="round" d="M 14754,9737 L 14604,9737"/>
 <path fill="none" stroke="rgb(0,0,0)" stroke-width="30" stroke-linejoin="round" d="M 14754,9737 L 14604,9737"/>
 <path fill="none" stroke="rgb(0,0,0)" stroke-width="30" stroke-linejoin="round" d="M 14754,8777 L 14604,8777"/>
 <path fill="none" stroke="rgb(0,0,0)" stroke-width="30" stroke-linejoin="round" d="M 14754,8777 L 14604,8777"/>
 <path fill="none" stroke="rgb(0,0,0)" stroke-width="30" stroke-linejoin="round" d="M 14754,7816 L 14604,7816"/>
 <path fill="none" stroke="rgb(0,0,0)" stroke-width="30" stroke-linejoin="round" d="M 14754,7816 L 14604,7816"/>
 <path fill="none" stroke="rgb(0,0,0)" stroke-width="30" stroke-linejoin="round" d="M 14754,6856 L 14604,6856"/>
 <path fill="none" stroke="rgb(0,0,0)" stroke-width="30" stroke-linejoin="round" d="M 14754,6856 L 14604,6856"/>
 <path fill="none" stroke="rgb(0,0,0)" stroke-width="30" stroke-linejoin="round" d="M 14754,5897 L 14604,5897"/>
 <path fill="none" stroke="rgb(0,0,0)" stroke-width="30" stroke-linejoin="round" d="M 14754,5897 L 14604,5897"/>
 <path fill="none" stroke="rgb(0,0,0)" stroke-width="30" stroke-linejoin="round" d="M 14754,4936 L 14604,4936"/>
 <path fill="none" stroke="rgb(0,0,0)" stroke-width="30" stroke-linejoin="round" d="M 14754,4936 L 14604,4936"/>
 <path fill="none" stroke="rgb(0,0,0)" stroke-width="30" stroke-linejoin="round" d="M 14754,3976 L 14604,3976"/>
 <path fill="none" stroke="rgb(0,0,0)" stroke-width="30" stroke-linejoin="round" d="M 14754,3976 L 14604,3976"/>
 <path fill="none" stroke="rgb(0,0,0)" stroke-width="30" stroke-linejoin="round" d="M 14754,3015 L 14604,3015"/>
 <path fill="none" stroke="rgb(0,0,0)" stroke-width="30" stroke-linejoin="round" d="M 14754,3015 L 14604,3015"/>
 <path fill="none" stroke="rgb(0,0,0)" stroke-width="30" stroke-linejoin="round" d="M 14754,2055 L 14604,2055"/>
 <path fill="none" stroke="rgb(0,0,0)" stroke-width="30" stroke-linejoin="round" d="M 14754,2055 L 14604,2055"/>
 <path fill="none" stroke="rgb(0,0,0)" stroke-width="30" stroke-linejoin="round" d="M 14754,1095 L 14604,1095"/>
 <path fill="none" stroke="rgb(0,0,0)" stroke-width="30" stroke-linejoin="round" d="M 14754,1095 L 14604,1095"/>
 <path fill="none" stroke="rgb(0,0,0)" stroke-width="30" stroke-linejoin="round" d="M 14604,10698 L 14604,1095"/>
 <path fill="rgb(255,211,32)" stroke="none" d="M 1366,10698 L 1482,10698 1598,10698 1714,10698 1830,10698 1946,10698 2062,10698 2178,10698 2295,10698 2411,10698 2527,10592 2643,10601 2759,10590 2875,10564 2991,10551 3107,10550 3224,10544 3340,10526 3456,10490 3572,10469 3688,10452 3804,10427 3920,10395 4037,10356 4153,10322 4269,10258 4385,10203 4501,10161 4617,10112 4733,10054 4849,10030 4966,10009 5082,10016 5198,9985 5314,9936 5430,9897 5546,9818 5662,9748 5779,9680 5895,9655 6011,9597 6127,9570 6243,9512 6359,9461 6475,9443 6591,9227 6708,9165 6824,9019 6940,8995 7056,8916 7172,8936 7288,8946 7404,8983 7520,8945 7637,8859 7753,8898 7869,8946 7984,8888 8100,8923 8216,8897 8332,9017 8449,9001 8565,9052 8681,9118 8797,9135 8913,9123 9029,9179 9145,9055 9261,8995 9378,9097 9494,9103 9610,9127 9726,9074 9842,8982 9958,8950 10074,8869 10191,8815 10307,8893 10423,8736 10539,8591 10655,8507 10771,8596 10887,8556 11003,8482 11120,8460 11236,8349 11352,8166 11468,8120 11584,8088 11700,7843 11816,7900 11932,7815 12049,7751 12165,7612 12281,7504 12397,7412 12513,7335 12629,7258 12745,7042 12862,6930 12978,6643 13094,6439 13210,5855 13326,5916 13442,5755 13558,5510 13674,5413 13791,5443 13907,5371 14023,5388 14139,5316 14255,5191 14371,5295 14487,5236 14604,5126 14604,10698 1366,10698 Z"/>
 <path fill="none" stroke="rgb(0,0,0)" stroke-linejoin="round" d="M 1366,10698 L 1482,10698 1598,10698 1714,10698 1830,10698 1946,10698 2062,10698 2178,10698 2295,10698 2411,10698 2527,10592 2643,10601 2759,10590 2875,10564 2991,10551 3107,10550 3224,10544 3340,10526 3456,10490 3572,10469 3688,10452 3804,10427 3920,10395 4037,10356 4153,10322 4269,10258 4385,10203 4501,10161 4617,10112 4733,10054 4849,10030 4966,10009 5082,10016 5198,9985 5314,9936 5430,9897 5546,9818 5662,9748 5779,9680 5895,9655 6011,9597 6127,9570 6243,9512 6359,9461 6475,9443 6591,9227 6708,9165 6824,9019 6940,8995 7056,8916 7172,8936 7288,8946 7404,8983 7520,8945 7637,8859 7753,8898 7869,8946 7984,8888 8100,8923 8216,8897 8332,9017 8449,9001 8565,9052 8681,9118 8797,9135 8913,9123 9029,9179 9145,9055 9261,8995 9378,9097 9494,9103 9610,9127 9726,9074 9842,8982 9958,8950 10074,8869 10191,8815 10307,8893 10423,8736 10539,8591 10655,8507 10771,8596 10887,8556 11003,8482 11120,8460 11236,8349 11352,8166 11468,8120 11584,8088 11700,7843 11816,7900 11932,7815 12049,7751 12165,7612 12281,7504 12397,7412 12513,7335 12629,7258 12745,7042 12862,6930 12978,6643 13094,6439 13210,5855 13326,5916 13442,5755 13558,5510 13674,5413 13791,5443 13907,5371 14023,5388 14139,5316 14255,5191 14371,5295 14487,5236 14604,5126 14604,10698 1366,10698 Z"/>
 <path fill="rgb(0,69,134)" stroke="none" d="M 1366,3062 L 1482,3127 1598,3182 1714,3225 1830,3263 1946,3242 2062,3404 2178,3459 2295,3446 2411,3481 2527,3468 2643,3529 2759,3714 2875,3794 2991,3858 3107,3903 3224,3970 3340,4018 3456,3952 3572,3912 3688,3960 3804,4005 3920,4094 4037,4155 4153,4221 4269,4247 4385,4242 4501,4261 4617,4300 4733,4309 4849,4311 4966,4228 5082,4196 5198,4203 5314,4227 5430,4227 5546,4221 5662,4280 5779,4317 5895,4217 6011,4242 6127,4293 6243,4315 6359,4319 6475,4394 6591,4288 6708,4280 6824,4275 6940,4312 7056,4349 7172,4329 7288,4278 7404,4230 7520,4167 7637,4113 7753,4179 7869,4281 7984,4249 8100,4273 8216,4262 8332,4332 8449,4336 8565,4410 8681,4495 8797,4510 8913,4377 9029,4438 9145,4306 9261,4261 9378,4345 9494,4211 9610,4259 9726,4243 9842,4203 9958,4243 10074,4240 10191,4126 10307,4264 10423,4157 10539,3962 10655,3946 10771,3948 10887,3852 11003,3817 11120,3803 11236,3637 11352,3729 11468,3636 11584,3675 11700,3685 11816,3613 11932,3658 12049,3680 12165,3574 12281,3674 12397,3672 12513,3560 12629,3674 12745,3680 12862,3721 12978,3656 13094,3642 13210,3270 13326,3314 13442,3301 13558,3246 13674,3396 13791,3497 13907,3544 14023,3659 14139,3655 14255,3592 14371,3805 14487,3740 14604,3528 14604,5126 14487,5236 14371,5295 14255,5191 14139,5316 14023,5388 13907,5371 13791,5443 13674,5413 13558,5510 13442,5755 13326,5916 13210,5855 13094,6439 12978,6643 12862,6930 12745,7042 12629,7258 12513,7335 12397,7412 12281,7504 12165,7612 12049,7751 11932,7815 11816,7900 11700,7843 11584,8088 11468,8120 11352,8166 11236,8349 11120,8460 11003,8482 10887,8556 10771,8596 10655,8507 10539,8591 10423,8736 10307,8893 10191,8815 10074,8869 9958,8950 9842,8982 9726,9074 9610,9127 9494,9103 9378,9097 9261,8995 9145,9055 9029,9179 8913,9123 8797,9135 8681,9118 8565,9052 8449,9001 8332,9017 8216,8897 8100,8923 7984,8888 7869,8946 7753,8898 7637,8859 7520,8945 7404,8983 7288,8946 7172,8936 7056,8916 6940,8995 6824,9019 6708,9165 6591,9227 6475,9443 6359,9461 6243,9512 6127,9570 6011,9597 5895,9655 5779,9680 5662,9748 5546,9818 5430,9897 5314,9936 5198,9985 5082,10016 4966,10009 4849,10030 4733,10054 4617,10112 4501,10161 4385,10203 4269,10258 4153,10322 4037,10356 3920,10395 3804,10427 3688,10452 3572,10469 3456,10490 3340,10526 3224,10544 3107,10550 2991,10551 2875,10564 2759,10590 2643,10601 2527,10592 2411,10698 2295,10698 2178,10698 2062,10698 1946,10698 1830,10698 1714,10698 1598,10698 1482,10698 1366,10698 1366,3062 Z"/>
 <path fill="none" stroke="rgb(0,0,0)" stroke-linejoin="round" d="M 1366,3062 L 1482,3127 1598,3182 1714,3225 1830,3263 1946,3242 2062,3404 2178,3459 2295,3446 2411,3481 2527,3468 2643,3529 2759,3714 2875,3794 2991,3858 3107,3903 3224,3970 3340,4018 3456,3952 3572,3912 3688,3960 3804,4005 3920,4094 4037,4155 4153,4221 4269,4247 4385,4242 4501,4261 4617,4300 4733,4309 4849,4311 4966,4228 5082,4196 5198,4203 5314,4227 5430,4227 5546,4221 5662,4280 5779,4317 5895,4217 6011,4242 6127,4293 6243,4315 6359,4319 6475,4394 6591,4288 6708,4280 6824,4275 6940,4312 7056,4349 7172,4329 7288,4278 7404,4230 7520,4167 7637,4113 7753,4179 7869,4281 7984,4249 8100,4273 8216,4262 8332,4332 8449,4336 8565,4410 8681,4495 8797,4510 8913,4377 9029,4438 9145,4306 9261,4261 9378,4345 9494,4211 9610,4259 9726,4243 9842,4203 9958,4243 10074,4240 10191,4126 10307,4264 10423,4157 10539,3962 10655,3946 10771,3948 10887,3852 11003,3817 11120,3803 11236,3637 11352,3729 11468,3636 11584,3675 11700,3685 11816,3613 11932,3658 12049,3680 12165,3574 12281,3674 12397,3672 12513,3560 12629,3674 12745,3680 12862,3721 12978,3656 13094,3642 13210,3270 13326,3314 13442,3301 13558,3246 13674,3396 13791,3497 13907,3544 14023,3659 14139,3655 14255,3592 14371,3805 14487,3740 14604,3528 14604,5126 14487,5236 14371,5295 14255,5191 14139,5316 14023,5388 13907,5371 13791,5443 13674,5413 13558,5510 13442,5755 13326,5916 13210,5855 13094,6439 12978,6643 12862,6930 12745,7042 12629,7258 12513,7335 12397,7412 12281,7504 12165,7612 12049,7751 11932,7815 11816,7900 11700,7843 11584,8088 11468,8120 11352,8166 11236,8349 11120,8460 11003,8482 10887,8556 10771,8596 10655,8507 10539,8591 10423,8736 10307,8893 10191,8815 10074,8869 9958,8950 9842,8982 9726,9074 9610,9127 9494,9103 9378,9097 9261,8995 9145,9055 9029,9179 8913,9123 8797,9135 8681,9118 8565,9052 8449,9001 8332,9017 8216,8897 8100,8923 7984,8888 7869,8946 7753,8898 7637,8859 7520,8945 7404,8983 7288,8946 7172,8936 7056,8916 6940,8995 6824,9019 6708,9165 6591,9227 6475,9443 6359,9461 6243,9512 6127,9570 6011,9597 5895,9655 5779,9680 5662,9748 5546,9818 5430,9897 5314,9936 5198,9985 5082,10016 4966,10009 4849,10030 4733,10054 4617,10112 4501,10161 4385,10203 4269,10258 4153,10322 4037,10356 3920,10395 3804,10427 3688,10452 3572,10469 3456,10490 3340,10526 3224,10544 3107,10550 2991,10551 2875,10564 2759,10590 2643,10601 2527,10592 2411,10698 2295,10698 2178,10698 2062,10698 1946,10698 1830,10698 1714,10698 1598,10698 1482,10698 1366,10698 1366,3062 Z"/>
 <path fill="rgb(87,157,28)" stroke="none" d="M 1366,2841 L 1482,2890 1598,2931 1714,2972 1830,3005 1946,2996 2062,3130 2178,3195 2295,3193 2411,3223 2527,3199 2643,3255 2759,3420 2875,3470 2991,3512 3107,3574 3224,3622 3340,3683 3456,3600 3572,3551 3688,3576 3804,3620 3920,3691 4037,3740 4153,3811 4269,3828 4385,3818 4501,3840 4617,3860 4733,3862 4849,3865 4966,3770 5082,3721 5198,3719 5314,3739 5430,3733 5546,3704 5662,3733 5779,3729 5895,3625 6011,3626 6127,3626 6243,3637 6359,3628 6475,3648 6591,3562 6708,3515 6824,3461 6940,3518 7056,3521 7172,3443 7288,3392 7404,3376 7520,3298 7637,3240 7753,3254 7869,3350 7984,3224 8100,3269 8216,3241 8332,3278 8449,3269 8565,3280 8681,3365 8797,3378 8913,3312 9029,3348 9145,3220 9261,3125 9378,3187 9494,3154 9610,3128 9726,3065 9842,3032 9958,2989 10074,2963 10191,2892 10307,2981 10423,2887 10539,2806 10655,2798 10771,2780 10887,2795 11003,2710 11120,2591 11236,2569 11352,2539 11468,2525 11584,2558 11700,2496 11816,2543 11932,2508 12049,2473 12165,2430 12281,2459 12397,2388 12513,2520 12629,2554 12745,2559 12862,2600 12978,2482 13094,2543 13210,2331 13326,2326 13442,2299 13558,2262 13674,2406 13791,2579 13907,2620 14023,2604 14139,2530 14255,2512 14371,2482 14487,2499 14604,2543 14604,3528 14487,3740 14371,3805 14255,3592 14139,3655 14023,3659 13907,3544 13791,3497 13674,3396 13558,3246 13442,3301 13326,3314 13210,3270 13094,3642 12978,3656 12862,3721 12745,3680 12629,3674 12513,3560 12397,3672 12281,3674 12165,3574 12049,3680 11932,3658 11816,3613 11700,3685 11584,3675 11468,3636 11352,3729 11236,3637 11120,3803 11003,3817 10887,3852 10771,3948 10655,3946 10539,3962 10423,4157 10307,4264 10191,4126 10074,4240 9958,4243 9842,4203 9726,4243 9610,4259 9494,4211 9378,4345 9261,4261 9145,4306 9029,4438 8913,4377 8797,4510 8681,4495 8565,4410 8449,4336 8332,4332 8216,4262 8100,4273 7984,4249 7869,4281 7753,4179 7637,4113 7520,4167 7404,4230 7288,4278 7172,4329 7056,4349 6940,4312 6824,4275 6708,4280 6591,4288 6475,4394 6359,4319 6243,4315 6127,4293 6011,4242 5895,4217 5779,4317 5662,4280 5546,4221 5430,4227 5314,4227 5198,4203 5082,4196 4966,4228 4849,4311 4733,4309 4617,4300 4501,4261 4385,4242 4269,4247 4153,4221 4037,4155 3920,4094 3804,4005 3688,3960 3572,3912 3456,3952 3340,4018 3224,3970 3107,3903 2991,3858 2875,3794 2759,3714 2643,3529 2527,3468 2411,3481 2295,3446 2178,3459 2062,3404 1946,3242 1830,3263 1714,3225 1598,3182 1482,3127 1366,3062 1366,2841 Z"/>
 <path fill="none" stroke="rgb(0,0,0)" stroke-linejoin="round" d="M 1366,2841 L 1482,2890 1598,2931 1714,2972 1830,3005 1946,2996 2062,3130 2178,3195 2295,3193 2411,3223 2527,3199 2643,3255 2759,3420 2875,3470 2991,3512 3107,3574 3224,3622 3340,3683 3456,3600 3572,3551 3688,3576 3804,3620 3920,3691 4037,3740 4153,3811 4269,3828 4385,3818 4501,3840 4617,3860 4733,3862 4849,3865 4966,3770 5082,3721 5198,3719 5314,3739 5430,3733 5546,3704 5662,3733 5779,3729 5895,3625 6011,3626 6127,3626 6243,3637 6359,3628 6475,3648 6591,3562 6708,3515 6824,3461 6940,3518 7056,3521 7172,3443 7288,3392 7404,3376 7520,3298 7637,3240 7753,3254 7869,3350 7984,3224 8100,3269 8216,3241 8332,3278 8449,3269 8565,3280 8681,3365 8797,3378 8913,3312 9029,3348 9145,3220 9261,3125 9378,3187 9494,3154 9610,3128 9726,3065 9842,3032 9958,2989 10074,2963 10191,2892 10307,2981 10423,2887 10539,2806 10655,2798 10771,2780 10887,2795 11003,2710 11120,2591 11236,2569 11352,2539 11468,2525 11584,2558 11700,2496 11816,2543 11932,2508 12049,2473 12165,2430 12281,2459 12397,2388 12513,2520 12629,2554 12745,2559 12862,2600 12978,2482 13094,2543 13210,2331 13326,2326 13442,2299 13558,2262 13674,2406 13791,2579 13907,2620 14023,2604 14139,2530 14255,2512 14371,2482 14487,2499 14604,2543 14604,3528 14487,3740 14371,3805 14255,3592 14139,3655 14023,3659 13907,3544 13791,3497 13674,3396 13558,3246 13442,3301 13326,3314 13210,3270 13094,3642 12978,3656 12862,3721 12745,3680 12629,3674 12513,3560 12397,3672 12281,3674 12165,3574 12049,3680 11932,3658 11816,3613 11700,3685 11584,3675 11468,3636 11352,3729 11236,3637 11120,3803 11003,3817 10887,3852 10771,3948 10655,3946 10539,3962 10423,4157 10307,4264 10191,4126 10074,4240 9958,4243 9842,4203 9726,4243 9610,4259 9494,4211 9378,4345 9261,4261 9145,4306 9029,4438 8913,4377 8797,4510 8681,4495 8565,4410 8449,4336 8332,4332 8216,4262 8100,4273 7984,4249 7869,4281 7753,4179 7637,4113 7520,4167 7404,4230 7288,4278 7172,4329 7056,4349 6940,4312 6824,4275 6708,4280 6591,4288 6475,4394 6359,4319 6243,4315 6127,4293 6011,4242 5895,4217 5779,4317 5662,4280 5546,4221 5430,4227 5314,4227 5198,4203 5082,4196 4966,4228 4849,4311 4733,4309 4617,4300 4501,4261 4385,4242 4269,4247 4153,4221 4037,4155 3920,4094 3804,4005 3688,3960 3572,3912 3456,3952 3340,4018 3224,3970 3107,3903 2991,3858 2875,3794 2759,3714 2643,3529 2527,3468 2411,3481 2295,3446 2178,3459 2062,3404 1946,3242 1830,3263 1714,3225 1598,3182 1482,3127 1366,3062 1366,2841 Z"/>
 <path fill="rgb(255,66,14)" stroke="none" d="M 1366,1349 L 1482,1323 1598,1335 1714,1339 1830,1343 1946,1346 2062,1367 2178,1373 2295,1370 2411,1373 2527,1362 2643,1370 2759,1378 2875,1384 2991,1386 3107,1403 3224,1382 3340,1391 3456,1412 3572,1399 3688,1415 3804,1408 3920,1405 4037,1423 4153,1433 4269,1458 4385,1465 4501,1508 4617,1498 4733,1494 4849,1525 4966,1490 5082,1528 5198,1523 5314,1544 5430,1553 5546,1523 5662,1549 5779,1551 5895,1543 6011,1539 6127,1555 6243,1565 6359,1552 6475,1592 6591,1546 6708,1500 6824,1432 6940,1547 7056,1603 7172,1627 7288,1542 7404,1556 7520,1515 7637,1498 7753,1495 7869,1614 7984,1491 8100,1529 8216,1535 8332,1539 8449,1589 8565,1608 8681,1706 8797,1714 8913,1600 9029,1624 9145,1643 9261,1626 9378,1677 9494,1641 9610,1625 9726,1597 9842,1578 9958,1602 10074,1630 10191,1582 10307,1701 10423,1649 10539,1683 10655,1719 10771,1675 10887,1783 11003,1749 11120,1635 11236,1724 11352,1710 11468,1704 11584,1727 11700,1718 11816,1724 11932,1670 12049,1670 12165,1635 12281,1725 12397,1670 12513,1741 12629,1803 12745,1882 12862,1906 12978,1897 13094,2040 13210,1876 13326,1896 13442,1857 13558,1832 13674,1911 13791,1924 13907,1938 14023,1905 14139,1841 14255,1854 14371,1871 14487,1869 14604,1876 14604,2543 14487,2499 14371,2482 14255,2512 14139,2530 14023,2604 13907,2620 13791,2579 13674,2406 13558,2262 13442,2299 13326,2326 13210,2331 13094,2543 12978,2482 12862,2600 12745,2559 12629,2554 12513,2520 12397,2388 12281,2459 12165,2430 12049,2473 11932,2508 11816,2543 11700,2496 11584,2558 11468,2525 11352,2539 11236,2569 11120,2591 11003,2710 10887,2795 10771,2780 10655,2798 10539,2806 10423,2887 10307,2981 10191,2892 10074,2963 9958,2989 9842,3032 9726,3065 9610,3128 9494,3154 9378,3187 9261,3125 9145,3220 9029,3348 8913,3312 8797,3378 8681,3365 8565,3280 8449,3269 8332,3278 8216,3241 8100,3269 7984,3224 7869,3350 7753,3254 7637,3240 7520,3298 7404,3376 7288,3392 7172,3443 7056,3521 6940,3518 6824,3461 6708,3515 6591,3562 6475,3648 6359,3628 6243,3637 6127,3626 6011,3626 5895,3625 5779,3729 5662,3733 5546,3704 5430,3733 5314,3739 5198,3719 5082,3721 4966,3770 4849,3865 4733,3862 4617,3860 4501,3840 4385,3818 4269,3828 4153,3811 4037,3740 3920,3691 3804,3620 3688,3576 3572,3551 3456,3600 3340,3683 3224,3622 3107,3574 2991,3512 2875,3470 2759,3420 2643,3255 2527,3199 2411,3223 2295,3193 2178,3195 2062,3130 1946,2996 1830,3005 1714,2972 1598,2931 1482,2890 1366,2841 1366,1349 Z"/>
 <path fill="none" stroke="rgb(0,0,0)" stroke-linejoin="round" d="M 1366,1349 L 1482,1323 1598,1335 1714,1339 1830,1343 1946,1346 2062,1367 2178,1373 2295,1370 2411,1373 2527,1362 2643,1370 2759,1378 2875,1384 2991,1386 3107,1403 3224,1382 3340,1391 3456,1412 3572,1399 3688,1415 3804,1408 3920,1405 4037,1423 4153,1433 4269,1458 4385,1465 4501,1508 4617,1498 4733,1494 4849,1525 4966,1490 5082,1528 5198,1523 5314,1544 5430,1553 5546,1523 5662,1549 5779,1551 5895,1543 6011,1539 6127,1555 6243,1565 6359,1552 6475,1592 6591,1546 6708,1500 6824,1432 6940,1547 7056,1603 7172,1627 7288,1542 7404,1556 7520,1515 7637,1498 7753,1495 7869,1614 7984,1491 8100,1529 8216,1535 8332,1539 8449,1589 8565,1608 8681,1706 8797,1714 8913,1600 9029,1624 9145,1643 9261,1626 9378,1677 9494,1641 9610,1625 9726,1597 9842,1578 9958,1602 10074,1630 10191,1582 10307,1701 10423,1649 10539,1683 10655,1719 10771,1675 10887,1783 11003,1749 11120,1635 11236,1724 11352,1710 11468,1704 11584,1727 11700,1718 11816,1724 11932,1670 12049,1670 12165,1635 12281,1725 12397,1670 12513,1741 12629,1803 12745,1882 12862,1906 12978,1897 13094,2040 13210,1876 13326,1896 13442,1857 13558,1832 13674,1911 13791,1924 13907,1938 14023,1905 14139,1841 14255,1854 14371,1871 14487,1869 14604,1876 14604,2543 14487,2499 14371,2482 14255,2512 14139,2530 14023,2604 13907,2620 13791,2579 13674,2406 13558,2262 13442,2299 13326,2326 13210,2331 13094,2543 12978,2482 12862,2600 12745,2559 12629,2554 12513,2520 12397,2388 12281,2459 12165,2430 12049,2473 11932,2508 11816,2543 11700,2496 11584,2558 11468,2525 11352,2539 11236,2569 11120,2591 11003,2710 10887,2795 10771,2780 10655,2798 10539,2806 10423,2887 10307,2981 10191,2892 10074,2963 9958,2989 9842,3032 9726,3065 9610,3128 9494,3154 9378,3187 9261,3125 9145,3220 9029,3348 8913,3312 8797,3378 8681,3365 8565,3280 8449,3269 8332,3278 8216,3241 8100,3269 7984,3224 7869,3350 7753,3254 7637,3240 7520,3298 7404,3376 7288,3392 7172,3443 7056,3521 6940,3518 6824,3461 6708,3515 6591,3562 6475,3648 6359,3628 6243,3637 6127,3626 6011,3626 5895,3625 5779,3729 5662,3733 5546,3704 5430,3733 5314,3739 5198,3719 5082,3721 4966,3770 4849,3865 4733,3862 4617,3860 4501,3840 4385,3818 4269,3828 4153,3811 4037,3740 3920,3691 3804,3620 3688,3576 3572,3551 3456,3600 3340,3683 3224,3622 3107,3574 2991,3512 2875,3470 2759,3420 2643,3255 2527,3199 2411,3223 2295,3193 2178,3195 2062,3130 1946,2996 1830,3005 1714,2972 1598,2931 1482,2890 1366,2841 1366,1349 Z"/>
 <path fill="rgb(126,0,33)" stroke="none" d="M 1366,1153 L 1482,1156 1598,1146 1714,1144 1830,1148 1946,1153 2062,1160 2178,1153 2295,1151 2411,1150 2527,1150 2643,1147 2759,1148 2875,1152 2991,1151 3107,1172 3224,1158 3340,1172 3456,1192 3572,1189 3688,1206 3804,1192 3920,1174 4037,1190 4153,1173 4269,1181 4385,1187 4501,1227 4617,1201 4733,1203 4849,1228 4966,1215 5082,1226 5198,1217 5314,1227 5430,1253 5546,1228 5662,1245 5779,1255 5895,1240 6011,1242 6127,1256 6243,1274 6359,1281 6475,1337 6591,1274 6708,1241 6824,1221 6940,1284 7056,1301 7172,1320 7288,1288 7404,1323 7520,1291 7637,1270 7753,1273 7869,1411 7984,1284 8100,1311 8216,1318 8332,1329 8449,1334 8565,1350 8681,1395 8797,1475 8913,1354 9029,1367 9145,1398 9261,1400 9378,1447 9494,1442 9610,1445 9726,1437 9842,1430 9958,1448 10074,1479 10191,1452 10307,1501 10423,1461 10539,1497 10655,1515 10771,1477 10887,1623 11003,1580 11120,1454 11236,1528 11352,1520 11468,1507 11584,1525 11700,1530 11816,1504 11932,1463 12049,1484 12165,1466 12281,1546 12397,1494 12513,1563 12629,1593 12745,1629 12862,1641 12978,1659 13094,1797 13210,1689 13326,1678 13442,1673 13558,1642 13674,1712 13791,1752 13907,1766 14023,1725 14139,1697 14255,1708 14371,1714 14487,1733 14604,1703 14604,1876 14487,1869 14371,1871 14255,1854 14139,1841 14023,1905 13907,1938 13791,1924 13674,1911 13558,1832 13442,1857 13326,1896 13210,1876 13094,2040 12978,1897 12862,1906 12745,1882 12629,1803 12513,1741 12397,1670 12281,1725 12165,1635 12049,1670 11932,1670 11816,1724 11700,1718 11584,1727 11468,1704 11352,1710 11236,1724 11120,1635 11003,1749 10887,1783 10771,1675 10655,1719 10539,1683 10423,1649 10307,1701 10191,1582 10074,1630 9958,1602 9842,1578 9726,1597 9610,1625 9494,1641 9378,1677 9261,1626 9145,1643 9029,1624 8913,1600 8797,1714 8681,1706 8565,1608 8449,1589 8332,1539 8216,1535 8100,1529 7984,1491 7869,1614 7753,1495 7637,1498 7520,1515 7404,1556 7288,1542 7172,1627 7056,1603 6940,1547 6824,1432 6708,1500 6591,1546 6475,1592 6359,1552 6243,1565 6127,1555 6011,1539 5895,1543 5779,1551 5662,1549 5546,1523 5430,1553 5314,1544 5198,1523 5082,1528 4966,1490 4849,1525 4733,1494 4617,1498 4501,1508 4385,1465 4269,1458 4153,1433 4037,1423 3920,1405 3804,1408 3688,1415 3572,1399 3456,1412 3340,1391 3224,1382 3107,1403 2991,1386 2875,1384 2759,1378 2643,1370 2527,1362 2411,1373 2295,1370 2178,1373 2062,1367 1946,1346 1830,1343 1714,1339 1598,1335 1482,1323 1366,1349 1366,1153 Z"/>
 <path fill="none" stroke="rgb(0,0,0)" stroke-linejoin="round" d="M 1366,1153 L 1482,1156 1598,1146 1714,1144 1830,1148 1946,1153 2062,1160 2178,1153 2295,1151 2411,1150 2527,1150 2643,1147 2759,1148 2875,1152 2991,1151 3107,1172 3224,1158 3340,1172 3456,1192 3572,1189 3688,1206 3804,1192 3920,1174 4037,1190 4153,1173 4269,1181 4385,1187 4501,1227 4617,1201 4733,1203 4849,1228 4966,1215 5082,1226 5198,1217 5314,1227 5430,1253 5546,1228 5662,1245 5779,1255 5895,1240 6011,1242 6127,1256 6243,1274 6359,1281 6475,1337 6591,1274 6708,1241 6824,1221 6940,1284 7056,1301 7172,1320 7288,1288 7404,1323 7520,1291 7637,1270 7753,1273 7869,1411 7984,1284 8100,1311 8216,1318 8332,1329 8449,1334 8565,1350 8681,1395 8797,1475 8913,1354 9029,1367 9145,1398 9261,1400 9378,1447 9494,1442 9610,1445 9726,1437 9842,1430 9958,1448 10074,1479 10191,1452 10307,1501 10423,1461 10539,1497 10655,1515 10771,1477 10887,1623 11003,1580 11120,1454 11236,1528 11352,1520 11468,1507 11584,1525 11700,1530 11816,1504 11932,1463 12049,1484 12165,1466 12281,1546 12397,1494 12513,1563 12629,1593 12745,1629 12862,1641 12978,1659 13094,1797 13210,1689 13326,1678 13442,1673 13558,1642 13674,1712 13791,1752 13907,1766 14023,1725 14139,1697 14255,1708 14371,1714 14487,1733 14604,1703 14604,1876 14487,1869 14371,1871 14255,1854 14139,1841 14023,1905 13907,1938 13791,1924 13674,1911 13558,1832 13442,1857 13326,1896 13210,1876 13094,2040 12978,1897 12862,1906 12745,1882 12629,1803 12513,1741 12397,1670 12281,1725 12165,1635 12049,1670 11932,1670 11816,1724 11700,1718 11584,1727 11468,1704 11352,1710 11236,1724 11120,1635 11003,1749 10887,1783 10771,1675 10655,1719 10539,1683 10423,1649 10307,1701 10191,1582 10074,1630 9958,1602 9842,1578 9726,1597 9610,1625 9494,1641 9378,1677 9261,1626 9145,1643 9029,1624 8913,1600 8797,1714 8681,1706 8565,1608 8449,1589 8332,1539 8216,1535 8100,1529 7984,1491 7869,1614 7753,1495 7637,1498 7520,1515 7404,1556 7288,1542 7172,1627 7056,1603 6940,1547 6824,1432 6708,1500 6591,1546 6475,1592 6359,1552 6243,1565 6127,1555 6011,1539 5895,1543 5779,1551 5662,1549 5546,1523 5430,1553 5314,1544 5198,1523 5082,1528 4966,1490 4849,1525 4733,1494 4617,1498 4501,1508 4385,1465 4269,1458 4153,1433 4037,1423 3920,1405 3804,1408 3688,1415 3572,1399 3456,1412 3340,1391 3224,1382 3107,1403 2991,1386 2875,1384 2759,1378 2643,1370 2527,1362 2411,1373 2295,1370 2178,1373 2062,1367 1946,1346 1830,1343 1714,1339 1598,1335 1482,1323 1366,1349 1366,1153 Z"/>
 <path fill="rgb(131,202,255)" stroke="none" d="M 1366,1095 L 1482,1095 1598,1095 1714,1095 1830,1095 1946,1095 2062,1095 2178,1095 2295,1095 2411,1095 2527,1095 2643,1095 2759,1095 2875,1095 2991,1095 3107,1095 3224,1095 3340,1095 3456,1095 3572,1095 3688,1095 3804,1095 3920,1095 4037,1095 4153,1095 4269,1095 4385,1095 4501,1095 4617,1095 4849,1095 5082,1095 5198,1095 5314,1095 5430,1095 5546,1095 5662,1095 5779,1095 5895,1095 6011,1095 6127,1095 6243,1095 6475,1095 6708,1095 6824,1095 6940,1095 7056,1095 7172,1095 7288,1095 7404,1095 7520,1095 7637,1095 7753,1095 8100,1095 8216,1095 8332,1095 8449,1095 8681,1095 8913,1095 9029,1095 9145,1095 9261,1095 9378,1095 9494,1095 9610,1095 9726,1095 9842,1095 9958,1095 10074,1095 10191,1095 10307,1095 10423,1095 10539,1095 10655,1095 10771,1095 10887,1095 11003,1095 11236,1095 11468,1095 11584,1095 11700,1095 11816,1095 11932,1095 12049,1095 12165,1095 12281,1095 12397,1095 12513,1095 12629,1095 12745,1095 12862,1095 12978,1095 13094,1095 13210,1095 13326,1095 13442,1095 13558,1095 13674,1095 13791,1095 13907,1095 14023,1095 14139,1095 14255,1095 14487,1095 14604,1095 14604,1703 14487,1733 14371,1714 14255,1708 14139,1697 14023,1725 13907,1766 13791,1752 13674,1712 13558,1642 13442,1673 13326,1678 13210,1689 13094,1797 12978,1659 12862,1641 12745,1629 12629,1593 12513,1563 12397,1494 12281,1546 12165,1466 12049,1484 11932,1463 11816,1504 11700,1530 11584,1525 11468,1507 11352,1520 11236,1528 11120,1454 11003,1580 10887,1623 10771,1477 10655,1515 10539,1497 10423,1461 10307,1501 10191,1452 10074,1479 9958,1448 9842,1430 9726,1437 9610,1445 9494,1442 9378,1447 9261,1400 9145,1398 9029,1367 8913,1354 8797,1475 8681,1395 8565,1350 8449,1334 8332,1329 8216,1318 8100,1311 7984,1284 7869,1411 7753,1273 7637,1270 7520,1291 7404,1323 7288,1288 7172,1320 7056,1301 6940,1284 6824,1221 6708,1241 6591,1274 6475,1337 6359,1281 6243,1274 6127,1256 6011,1242 5895,1240 5779,1255 5662,1245 5546,1228 5430,1253 5314,1227 5198,1217 5082,1226 4966,1215 4849,1228 4733,1203 4617,1201 4501,1227 4385,1187 4269,1181 4153,1173 4037,1190 3920,1174 3804,1192 3688,1206 3572,1189 3456,1192 3340,1172 3224,1158 3107,1172 2991,1151 2875,1152 2759,1148 2643,1147 2527,1150 2411,1150 2295,1151 2178,1153 2062,1160 1946,1153 1830,1148 1714,1144 1598,1146 1482,1156 1366,1153 1366,1095 Z"/>
 <path fill="none" stroke="rgb(0,0,0)" stroke-linejoin="round" d="M 1366,1095 L 1482,1095 1598,1095 1714,1095 1830,1095 1946,1095 2062,1095 2178,1095 2295,1095 2411,1095 2527,1095 2643,1095 2759,1095 2875,1095 2991,1095 3107,1095 3224,1095 3340,1095 3456,1095 3572,1095 3688,1095 3804,1095 3920,1095 4037,1095 4153,1095 4269,1095 4385,1095 4501,1095 4617,1095 4849,1095 5082,1095 5198,1095 5314,1095 5430,1095 5546,1095 5662,1095 5779,1095 5895,1095 6011,1095 6127,1095 6243,1095 6475,1095 6708,1095 6824,1095 6940,1095 7056,1095 7172,1095 7288,1095 7404,1095 7520,1095 7637,1095 7753,1095 8100,1095 8216,1095 8332,1095 8449,1095 8681,1095 8913,1095 9029,1095 9145,1095 9261,1095 9378,1095 9494,1095 9610,1095 9726,1095 9842,1095 9958,1095 10074,1095 10191,1095 10307,1095 10423,1095 10539,1095 10655,1095 10771,1095 10887,1095 11003,1095 11236,1095 11468,1095 11584,1095 11700,1095 11816,1095 11932,1095 12049,1095 12165,1095 12281,1095 12397,1095 12513,1095 12629,1095 12745,1095 12862,1095 12978,1095 13094,1095 13210,1095 13326,1095 13442,1095 13558,1095 13674,1095 13791,1095 13907,1095 14023,1095 14139,1095 14255,1095 14487,1095 14604,1095 14604,1703 14487,1733 14371,1714 14255,1708 14139,1697 14023,1725 13907,1766 13791,1752 13674,1712 13558,1642 13442,1673 13326,1678 13210,1689 13094,1797 12978,1659 12862,1641 12745,1629 12629,1593 12513,1563 12397,1494 12281,1546 12165,1466 12049,1484 11932,1463 11816,1504 11700,1530 11584,1525 11468,1507 11352,1520 11236,1528 11120,1454 11003,1580 10887,1623 10771,1477 10655,1515 10539,1497 10423,1461 10307,1501 10191,1452 10074,1479 9958,1448 9842,1430 9726,1437 9610,1445 9494,1442 9378,1447 9261,1400 9145,1398 9029,1367 8913,1354 8797,1475 8681,1395 8565,1350 8449,1334 8332,1329 8216,1318 8100,1311 7984,1284 7869,1411 7753,1273 7637,1270 7520,1291 7404,1323 7288,1288 7172,1320 7056,1301 6940,1284 6824,1221 6708,1241 6591,1274 6475,1337 6359,1281 6243,1274 6127,1256 6011,1242 5895,1240 5779,1255 5662,1245 5546,1228 5430,1253 5314,1227 5198,1217 5082,1226 4966,1215 4849,1228 4733,1203 4617,1201 4501,1227 4385,1187 4269,1181 4153,1173 4037,1190 3920,1174 3804,1192 3688,1206 3572,1189 3456,1192 3340,1172 3224,1158 3107,1172 2991,1151 2875,1152 2759,1148 2643,1147 2527,1150 2411,1150 2295,1151 2178,1153 2062,1160 1946,1153 1830,1148 1714,1144 1598,1146 1482,1156 1366,1153 1366,1095 Z"/>
 <text class="TextShape"><tspan class="TextParagraph" font-family="Liberation Sans, sans-serif" font-size="388px" font-weight="700"><tspan class="TextPosition" x="1174" y="11292"><tspan fill="rgb(0,0,0)" stroke="none">2008</tspan></tspan></tspan></text>
 <text class="TextShape"><tspan class="TextParagraph" font-family="Liberation Sans, sans-serif" font-size="388px" font-weight="700"><tspan class="TextPosition" x="2567" y="11292"><tspan fill="rgb(0,0,0)" stroke="none">2009</tspan></tspan></tspan></text>
 <text class="TextShape"><tspan class="TextParagraph" font-family="Liberation Sans, sans-serif" font-size="388px" font-weight="700"><tspan class="TextPosition" x="3961" y="11292"><tspan fill="rgb(0,0,0)" stroke="none">2010</tspan></tspan></tspan></text>
 <text class="TextShape"><tspan class="TextParagraph" font-family="Liberation Sans, sans-serif" font-size="388px" font-weight="700"><tspan class="TextPosition" x="5355" y="11292"><tspan fill="rgb(0,0,0)" stroke="none">2011</tspan></tspan></tspan></text>
 <text class="TextShape"><tspan class="TextParagraph" font-family="Liberation Sans, sans-serif" font-size="388px" font-weight="700"><tspan class="TextPosition" x="6748" y="11292"><tspan fill="rgb(0,0,0)" stroke="none">2012</tspan></tspan></tspan></text>
 <text class="TextShape"><tspan class="TextParagraph" font-family="Liberation Sans, sans-serif" font-size="388px" font-weight="700"><tspan class="TextPosition" x="8142" y="11292"><tspan fill="rgb(0,0,0)" stroke="none">2013</tspan></tspan></tspan></text>
 <text class="TextShape"><tspan class="TextParagraph" font-family="Liberation Sans, sans-serif" font-size="388px" font-weight="700"><tspan class="TextPosition" x="9535" y="11292"><tspan fill="rgb(0,0,0)" stroke="none">2014</tspan></tspan></tspan></text>
 <text class="TextShape"><tspan class="TextParagraph" font-family="Liberation Sans, sans-serif" font-size="388px" font-weight="700"><tspan class="TextPosition" x="10929" y="11292"><tspan fill="rgb(0,0,0)" stroke="none">2015</tspan></tspan></tspan></text>
 <text class="TextShape"><tspan class="TextParagraph" font-family="Liberation Sans, sans-serif" font-size="388px" font-weight="700"><tspan class="TextPosition" x="12322" y="11292"><tspan fill="rgb(0,0,0)" stroke="none">2016</tspan></tspan></tspan></text>
 <text class="TextShape"><tspan class="TextParagraph" font-family="Liberation Sans, sans-serif" font-size="388px" font-weight="700"><tspan class="TextPosition" x="13716" y="11292"><tspan fill="rgb(0,0,0)" stroke="none">2017</tspan></tspan></tspan></text>
 <text class="TextShape"><tspan class="TextParagraph" font-family="Liberation Sans, sans-serif" font-size="388px" font-weight="700"><tspan class="TextPosition" x="560" y="10832"><tspan fill="rgb(0,0,0)" stroke="none">0%</tspan></tspan></tspan></text>
 <text class="TextShape"><tspan class="TextParagraph" font-family="Liberation Sans, sans-serif" font-size="388px" font-weight="700"><tspan class="TextPosition" x="349" y="9871"><tspan fill="rgb(0,0,0)" stroke="none">10%</tspan></tspan></tspan></text>
 <text class="TextShape"><tspan class="TextParagraph" font-family="Liberation Sans, sans-serif" font-size="388px" font-weight="700"><tspan class="TextPosition" x="349" y="8911"><tspan fill="rgb(0,0,0)" stroke="none">20%</tspan></tspan></tspan></text>
 <text class="TextShape"><tspan class="TextParagraph" font-family="Liberation Sans, sans-serif" font-size="388px" font-weight="700"><tspan class="TextPosition" x="349" y="7950"><tspan fill="rgb(0,0,0)" stroke="none">30%</tspan></tspan></tspan></text>
 <text class="TextShape"><tspan class="TextParagraph" font-family="Liberation Sans, sans-serif" font-size="388px" font-weight="700"><tspan class="TextPosition" x="349" y="6990"><tspan fill="rgb(0,0,0)" stroke="none">40%</tspan></tspan></tspan></text>
 <text class="TextShape"><tspan class="TextParagraph" font-family="Liberation Sans, sans-serif" font-size="388px" font-weight="700"><tspan class="TextPosition" x="349" y="6030"><tspan fill="rgb(0,0,0)" stroke="none">50%</tspan></tspan></tspan></text>
 <text class="TextShape"><tspan class="TextParagraph" font-family="Liberation Sans, sans-serif" font-size="388px" font-weight="700"><tspan class="TextPosition" x="349" y="5069"><tspan fill="rgb(0,0,0)" stroke="none">60%</tspan></tspan></tspan></text>
 <text class="TextShape"><tspan class="TextParagraph" font-family="Liberation Sans, sans-serif" font-size="388px" font-weight="700"><tspan class="TextPosition" x="349" y="4109"><tspan fill="rgb(0,0,0)" stroke="none">70%</tspan></tspan></tspan></text>
 <text class="TextShape"><tspan class="TextParagraph" font-family="Liberation Sans, sans-serif" font-size="388px" font-weight="700"><tspan class="TextPosition" x="349" y="3148"><tspan fill="rgb(0,0,0)" stroke="none">80%</tspan></tspan></tspan></text>
 <text class="TextShape"><tspan class="TextParagraph" font-family="Liberation Sans, sans-serif" font-size="388px" font-weight="700"><tspan class="TextPosition" x="349" y="2188"><tspan fill="rgb(0,0,0)" stroke="none">90%</tspan></tspan></tspan></text>
 <text class="TextShape"><tspan class="TextParagraph" font-family="Liberation Sans, sans-serif" font-size="388px" font-weight="700"><tspan class="TextPosition" x="137" y="1228"><tspan fill="rgb(0,0,0)" stroke="none">100%</tspan></tspan></tspan></text>
 <text class="TextShape"><tspan class="TextParagraph" font-family="Liberation Sans, sans-serif" font-size="388px" font-weight="700"><tspan class="TextPosition" x="14854" y="10832"><tspan fill="rgb(0,0,0)" stroke="none">0%</tspan></tspan></tspan></text>
 <text class="TextShape"><tspan class="TextParagraph" font-family="Liberation Sans, sans-serif" font-size="388px" font-weight="700"><tspan class="TextPosition" x="14854" y="9871"><tspan fill="rgb(0,0,0)" stroke="none">10%</tspan></tspan></tspan></text>
 <text class="TextShape"><tspan class="TextParagraph" font-family="Liberation Sans, sans-serif" font-size="388px" font-weight="700"><tspan class="TextPosition" x="14854" y="8911"><tspan fill="rgb(0,0,0)" stroke="none">20%</tspan></tspan></tspan></text>
 <text class="TextShape"><tspan class="TextParagraph" font-family="Liberation Sans, sans-serif" font-size="388px" font-weight="700"><tspan class="TextPosition" x="14854" y="7950"><tspan fill="rgb(0,0,0)" stroke="none">30%</tspan></tspan></tspan></text>
 <text class="TextShape"><tspan class="TextParagraph" font-family="Liberation Sans, sans-serif" font-size="388px" font-weight="700"><tspan class="TextPosition" x="14854" y="6990"><tspan fill="rgb(0,0,0)" stroke="none">40%</tspan></tspan></tspan></text>
 <text class="TextShape"><tspan class="TextParagraph" font-family="Liberation Sans, sans-serif" font-size="388px" font-weight="700"><tspan class="TextPosition" x="14854" y="6030"><tspan fill="rgb(0,0,0)" stroke="none">50%</tspan></tspan></tspan></text>
 <text class="TextShape"><tspan class="TextParagraph" font-family="Liberation Sans, sans-serif" font-size="388px" font-weight="700"><tspan class="TextPosition" x="14854" y="5069"><tspan fill="rgb(0,0,0)" stroke="none">60%</tspan></tspan></tspan></text>
 <text class="TextShape"><tspan class="TextParagraph" font-family="Liberation Sans, sans-serif" font-size="388px" font-weight="700"><tspan class="TextPosition" x="14854" y="4109"><tspan fill="rgb(0,0,0)" stroke="none">70%</tspan></tspan></tspan></text>
 <text class="TextShape"><tspan class="TextParagraph" font-family="Liberation Sans, sans-serif" font-size="388px" font-weight="700"><tspan class="TextPosition" x="14854" y="3148"><tspan fill="rgb(0,0,0)" stroke="none">80%</tspan></tspan></tspan></text>
 <text class="TextShape"><tspan class="TextParagraph" font-family="Liberation Sans, sans-serif" font-size="388px" font-weight="700"><tspan class="TextPosition" x="14854" y="2188"><tspan fill="rgb(0,0,0)" stroke="none">90%</tspan></tspan></tspan></text>
 <text class="TextShape"><tspan class="TextParagraph" font-family="Liberation Sans, sans-serif" font-size="388px" font-weight="700"><tspan class="TextPosition" x="14854" y="1228"><tspan fill="rgb(0,0,0)" stroke="none">100%</tspan></tspan></tspan></text>
 <text class="TextShape"><tspan class="TextParagraph" font-family="Arial, sans-serif" font-size="635px" font-weight="400"><tspan class="TextPosition" x="4301" y="759"><tspan fill="rgb(0,0,0)" stroke="none">Utilizacin de navegadores</tspan></tspan></tspan></text>
 <path fill="rgb(255,211,32)" stroke="none" d="M 10787,11722 L 10681,11722 10681,11511 10892,11511 10892,11722 10787,11722 Z"/>
 <path fill="none" stroke="rgb(0,0,0)" stroke-linejoin="round" d="M 10787,11722 L 10681,11722 10681,11511 10892,11511 10892,11722 10787,11722 Z"/>
 <path fill="rgb(0,69,134)" stroke="none" d="M 9880,11722 L 9774,11722 9774,11511 9985,11511 9985,11722 9880,11722 Z"/>
 <path fill="none" stroke="rgb(0,0,0)" stroke-linejoin="round" d="M 9880,11722 L 9774,11722 9774,11511 9985,11511 9985,11722 9880,11722 Z"/>
 <path fill="rgb(87,157,28)" stroke="none" d="M 8364,11722 L 8258,11722 8258,11511 8469,11511 8469,11722 8364,11722 Z"/>
 <path fill="none" stroke="rgb(0,0,0)" stroke-linejoin="round" d="M 8364,11722 L 8258,11722 8258,11511 8469,11511 8469,11722 8364,11722 Z"/>
 <path fill="rgb(255,66,14)" stroke="none" d="M 6663,11722 L 6558,11722 6558,11511 6769,11511 6769,11722 6663,11722 Z"/>
 <path fill="none" stroke="rgb(0,0,0)" stroke-linejoin="round" d="M 6663,11722 L 6558,11722 6558,11511 6769,11511 6769,11722 6663,11722 Z"/>
 <path fill="rgb(126,0,33)" stroke="none" d="M 5121,11722 L 5016,11722 5016,11511 5227,11511 5227,11722 5121,11722 Z"/>
 <path fill="none" stroke="rgb(0,0,0)" stroke-linejoin="round" d="M 5121,11722 L 5016,11722 5016,11511 5227,11511 5227,11722 5121,11722 Z"/>
 <path fill="rgb(131,202,255)" stroke="none" d="M 3658,11722 L 3553,11722 3553,11511 3764,11511 3764,11722 3658,11722 Z"/>
 <path fill="none" stroke="rgb(0,0,0)" stroke-linejoin="round" d="M 3658,11722 L 3553,11722 3553,11511 3764,11511 3764,11722 3658,11722 Z"/>
 <text class="TextShape"><tspan class="TextParagraph" font-family="Arial, sans-serif" font-size="353px" font-weight="700"><tspan class="TextPosition" x="3864" y="11735"><tspan fill="rgb(0,0,0)" stroke="none">Otros</tspan></tspan></tspan></text>
 <text class="TextShape"><tspan class="TextParagraph" font-family="Arial, sans-serif" font-size="353px" font-weight="700"><tspan class="TextPosition" x="5327" y="11735"><tspan fill="rgb(0,0,0)" stroke="none">Opera</tspan></tspan></tspan></text>
 <text class="TextShape"><tspan class="TextParagraph" font-family="Arial, sans-serif" font-size="353px" font-weight="700"><tspan class="TextPosition" x="6869" y="11735"><tspan fill="rgb(0,0,0)" stroke="none">Firefox</tspan></tspan></tspan></text>
 <text class="TextShape"><tspan class="TextParagraph" font-family="Arial, sans-serif" font-size="353px" font-weight="700"><tspan class="TextPosition" x="8569" y="11735"><tspan fill="rgb(0,0,0)" stroke="none">Safari</tspan></tspan></tspan></text>
 <text class="TextShape"><tspan class="TextParagraph" font-family="Arial, sans-serif" font-size="353px" font-weight="700"><tspan class="TextPosition" x="10085" y="11735"><tspan fill="rgb(0,0,0)" stroke="none">IE</tspan></tspan></tspan></text>
 <text class="TextShape"><tspan class="TextParagraph" font-family="Arial, sans-serif" font-size="353px" font-weight="700"><tspan class="TextPosition" x="10992" y="11735"><tspan fill="rgb(0,0,0)" stroke="none">Chrome</tspan></tspan></tspan></text>
</svg>
