<?xml version="1.0" encoding="UTF-8"?>
<!DOCTYPE svg PUBLIC "-//W3C//DTD SVG 1.1//EN" "http://www.w3.org/Graphics/SVG/1.1/DTD/svg11.dtd">
<svg width="164mm" height="122mm" viewBox="0 0 16400 12200" version="1.1" xmlns="http://www.w3.org/2000/svg" stroke-width="28.222" stroke-linejoin="round" xml:space="preserve">
 <path fill="rgb(255,255,255)" stroke="none" d="M 8187,12235 L 12,12235 12,0 16362,0 16362,12235 8187,12235 Z"/>
 <path fill="none" stroke="rgb(179,179,179)" stroke-linejoin="round" d="M 8164,10292 L 1307,10292 1307,952 15021,952 15021,10292 8164,10292 Z"/>
 <path fill="none" stroke="rgb(0,0,0)" stroke-width="20" stroke-linejoin="round" d="M 15021,10291 L 1307,10291"/>
 <path fill="none" stroke="rgb(0,0,0)" stroke-width="20" stroke-linejoin="round" d="M 15021,9356 L 1307,9356"/>
 <path fill="none" stroke="rgb(0,0,0)" stroke-width="20" stroke-linejoin="round" d="M 15021,8422 L 1307,8422"/>
 <path fill="none" stroke="rgb(0,0,0)" stroke-width="20" stroke-linejoin="round" d="M 15021,7488 L 1307,7488"/>
 <path fill="none" stroke="rgb(0,0,0)" stroke-width="20" stroke-linejoin="round" d="M 15021,6554 L 1307,6554"/>
 <path fill="none" stroke="rgb(0,0,0)" stroke-width="20" stroke-linejoin="round" d="M 15021,5621 L 1307,5621"/>
 <path fill="none" stroke="rgb(0,0,0)" stroke-width="20" stroke-linejoin="round" d="M 15021,4687 L 1307,4687"/>
 <path fill="none" stroke="rgb(0,0,0)" stroke-width="20" stroke-linejoin="round" d="M 15021,3753 L 1307,3753"/>
 <path fill="none" stroke="rgb(0,0,0)" stroke-width="20" stroke-linejoin="round" d="M 15021,2819 L 1307,2819"/>
 <path fill="none" stroke="rgb(0,0,0)" stroke-width="20" stroke-linejoin="round" d="M 15021,1885 L 1307,1885"/>
 <path fill="none" stroke="rgb(0,0,0)" stroke-width="20" stroke-linejoin="round" d="M 15021,951 L 1307,951"/>
 <path fill="none" stroke="rgb(0,0,0)" stroke-width="30" stroke-linejoin="round" d="M 1307,10441 L 1307,10291"/>
 <path fill="none" stroke="rgb(0,0,0)" stroke-width="30" stroke-linejoin="round" d="M 1307,10441 L 1307,10291"/>
 <path fill="none" stroke="rgb(0,0,0)" stroke-width="30" stroke-linejoin="round" d="M 1428,10441 L 1428,10291"/>
 <path fill="none" stroke="rgb(0,0,0)" stroke-width="30" stroke-linejoin="round" d="M 1428,10441 L 1428,10291"/>
 <path fill="none" stroke="rgb(0,0,0)" stroke-width="30" stroke-linejoin="round" d="M 1549,10441 L 1549,10291"/>
 <path fill="none" stroke="rgb(0,0,0)" stroke-width="30" stroke-linejoin="round" d="M 1549,10441 L 1549,10291"/>
 <path fill="none" stroke="rgb(0,0,0)" stroke-width="30" stroke-linejoin="round" d="M 1671,10441 L 1671,10291"/>
 <path fill="none" stroke="rgb(0,0,0)" stroke-width="30" stroke-linejoin="round" d="M 1671,10441 L 1671,10291"/>
 <path fill="none" stroke="rgb(0,0,0)" stroke-width="30" stroke-linejoin="round" d="M 1792,10441 L 1792,10291"/>
 <path fill="none" stroke="rgb(0,0,0)" stroke-width="30" stroke-linejoin="round" d="M 1792,10441 L 1792,10291"/>
 <path fill="none" stroke="rgb(0,0,0)" stroke-width="30" stroke-linejoin="round" d="M 1913,10441 L 1913,10291"/>
 <path fill="none" stroke="rgb(0,0,0)" stroke-width="30" stroke-linejoin="round" d="M 1913,10441 L 1913,10291"/>
 <path fill="none" stroke="rgb(0,0,0)" stroke-width="30" stroke-linejoin="round" d="M 2035,10441 L 2035,10291"/>
 <path fill="none" stroke="rgb(0,0,0)" stroke-width="30" stroke-linejoin="round" d="M 2035,10441 L 2035,10291"/>
 <path fill="none" stroke="rgb(0,0,0)" stroke-width="30" stroke-linejoin="round" d="M 2156,10441 L 2156,10291"/>
 <path fill="none" stroke="rgb(0,0,0)" stroke-width="30" stroke-linejoin="round" d="M 2156,10441 L 2156,10291"/>
 <path fill="none" stroke="rgb(0,0,0)" stroke-width="30" stroke-linejoin="round" d="M 2277,10441 L 2277,10291"/>
 <path fill="none" stroke="rgb(0,0,0)" stroke-width="30" stroke-linejoin="round" d="M 2277,10441 L 2277,10291"/>
 <path fill="none" stroke="rgb(0,0,0)" stroke-width="30" stroke-linejoin="round" d="M 2399,10441 L 2399,10291"/>
 <path fill="none" stroke="rgb(0,0,0)" stroke-width="30" stroke-linejoin="round" d="M 2399,10441 L 2399,10291"/>
 <path fill="none" stroke="rgb(0,0,0)" stroke-width="30" stroke-linejoin="round" d="M 2520,10441 L 2520,10291"/>
 <path fill="none" stroke="rgb(0,0,0)" stroke-width="30" stroke-linejoin="round" d="M 2520,10441 L 2520,10291"/>
 <path fill="none" stroke="rgb(0,0,0)" stroke-width="30" stroke-linejoin="round" d="M 2642,10441 L 2642,10291"/>
 <path fill="none" stroke="rgb(0,0,0)" stroke-width="30" stroke-linejoin="round" d="M 2642,10441 L 2642,10291"/>
 <path fill="none" stroke="rgb(0,0,0)" stroke-width="30" stroke-linejoin="round" d="M 2763,10441 L 2763,10291"/>
 <path fill="none" stroke="rgb(0,0,0)" stroke-width="30" stroke-linejoin="round" d="M 2763,10441 L 2763,10291"/>
 <path fill="none" stroke="rgb(0,0,0)" stroke-width="30" stroke-linejoin="round" d="M 2884,10441 L 2884,10291"/>
 <path fill="none" stroke="rgb(0,0,0)" stroke-width="30" stroke-linejoin="round" d="M 2884,10441 L 2884,10291"/>
 <path fill="none" stroke="rgb(0,0,0)" stroke-width="30" stroke-linejoin="round" d="M 3006,10441 L 3006,10291"/>
 <path fill="none" stroke="rgb(0,0,0)" stroke-width="30" stroke-linejoin="round" d="M 3006,10441 L 3006,10291"/>
 <path fill="none" stroke="rgb(0,0,0)" stroke-width="30" stroke-linejoin="round" d="M 3127,10441 L 3127,10291"/>
 <path fill="none" stroke="rgb(0,0,0)" stroke-width="30" stroke-linejoin="round" d="M 3127,10441 L 3127,10291"/>
 <path fill="none" stroke="rgb(0,0,0)" stroke-width="30" stroke-linejoin="round" d="M 3248,10441 L 3248,10291"/>
 <path fill="none" stroke="rgb(0,0,0)" stroke-width="30" stroke-linejoin="round" d="M 3248,10441 L 3248,10291"/>
 <path fill="none" stroke="rgb(0,0,0)" stroke-width="30" stroke-linejoin="round" d="M 3370,10441 L 3370,10291"/>
 <path fill="none" stroke="rgb(0,0,0)" stroke-width="30" stroke-linejoin="round" d="M 3370,10441 L 3370,10291"/>
 <path fill="none" stroke="rgb(0,0,0)" stroke-width="30" stroke-linejoin="round" d="M 3491,10441 L 3491,10291"/>
 <path fill="none" stroke="rgb(0,0,0)" stroke-width="30" stroke-linejoin="round" d="M 3491,10441 L 3491,10291"/>
 <path fill="none" stroke="rgb(0,0,0)" stroke-width="30" stroke-linejoin="round" d="M 3613,10441 L 3613,10291"/>
 <path fill="none" stroke="rgb(0,0,0)" stroke-width="30" stroke-linejoin="round" d="M 3613,10441 L 3613,10291"/>
 <path fill="none" stroke="rgb(0,0,0)" stroke-width="30" stroke-linejoin="round" d="M 3734,10441 L 3734,10291"/>
 <path fill="none" stroke="rgb(0,0,0)" stroke-width="30" stroke-linejoin="round" d="M 3734,10441 L 3734,10291"/>
 <path fill="none" stroke="rgb(0,0,0)" stroke-width="30" stroke-linejoin="round" d="M 3855,10441 L 3855,10291"/>
 <path fill="none" stroke="rgb(0,0,0)" stroke-width="30" stroke-linejoin="round" d="M 3855,10441 L 3855,10291"/>
 <path fill="none" stroke="rgb(0,0,0)" stroke-width="30" stroke-linejoin="round" d="M 3977,10441 L 3977,10291"/>
 <path fill="none" stroke="rgb(0,0,0)" stroke-width="30" stroke-linejoin="round" d="M 3977,10441 L 3977,10291"/>
 <path fill="none" stroke="rgb(0,0,0)" stroke-width="30" stroke-linejoin="round" d="M 4098,10441 L 4098,10291"/>
 <path fill="none" stroke="rgb(0,0,0)" stroke-width="30" stroke-linejoin="round" d="M 4098,10441 L 4098,10291"/>
 <path fill="none" stroke="rgb(0,0,0)" stroke-width="30" stroke-linejoin="round" d="M 4219,10441 L 4219,10291"/>
 <path fill="none" stroke="rgb(0,0,0)" stroke-width="30" stroke-linejoin="round" d="M 4219,10441 L 4219,10291"/>
 <path fill="none" stroke="rgb(0,0,0)" stroke-width="30" stroke-linejoin="round" d="M 4341,10441 L 4341,10291"/>
 <path fill="none" stroke="rgb(0,0,0)" stroke-width="30" stroke-linejoin="round" d="M 4341,10441 L 4341,10291"/>
 <path fill="none" stroke="rgb(0,0,0)" stroke-width="30" stroke-linejoin="round" d="M 4462,10441 L 4462,10291"/>
 <path fill="none" stroke="rgb(0,0,0)" stroke-width="30" stroke-linejoin="round" d="M 4462,10441 L 4462,10291"/>
 <path fill="none" stroke="rgb(0,0,0)" stroke-width="30" stroke-linejoin="round" d="M 4584,10441 L 4584,10291"/>
 <path fill="none" stroke="rgb(0,0,0)" stroke-width="30" stroke-linejoin="round" d="M 4584,10441 L 4584,10291"/>
 <path fill="none" stroke="rgb(0,0,0)" stroke-width="30" stroke-linejoin="round" d="M 4705,10441 L 4705,10291"/>
 <path fill="none" stroke="rgb(0,0,0)" stroke-width="30" stroke-linejoin="round" d="M 4705,10441 L 4705,10291"/>
 <path fill="none" stroke="rgb(0,0,0)" stroke-width="30" stroke-linejoin="round" d="M 4826,10441 L 4826,10291"/>
 <path fill="none" stroke="rgb(0,0,0)" stroke-width="30" stroke-linejoin="round" d="M 4826,10441 L 4826,10291"/>
 <path fill="none" stroke="rgb(0,0,0)" stroke-width="30" stroke-linejoin="round" d="M 4948,10441 L 4948,10291"/>
 <path fill="none" stroke="rgb(0,0,0)" stroke-width="30" stroke-linejoin="round" d="M 4948,10441 L 4948,10291"/>
 <path fill="none" stroke="rgb(0,0,0)" stroke-width="30" stroke-linejoin="round" d="M 5069,10441 L 5069,10291"/>
 <path fill="none" stroke="rgb(0,0,0)" stroke-width="30" stroke-linejoin="round" d="M 5069,10441 L 5069,10291"/>
 <path fill="none" stroke="rgb(0,0,0)" stroke-width="30" stroke-linejoin="round" d="M 5190,10441 L 5190,10291"/>
 <path fill="none" stroke="rgb(0,0,0)" stroke-width="30" stroke-linejoin="round" d="M 5190,10441 L 5190,10291"/>
 <path fill="none" stroke="rgb(0,0,0)" stroke-width="30" stroke-linejoin="round" d="M 5312,10441 L 5312,10291"/>
 <path fill="none" stroke="rgb(0,0,0)" stroke-width="30" stroke-linejoin="round" d="M 5312,10441 L 5312,10291"/>
 <path fill="none" stroke="rgb(0,0,0)" stroke-width="30" stroke-linejoin="round" d="M 5433,10441 L 5433,10291"/>
 <path fill="none" stroke="rgb(0,0,0)" stroke-width="30" stroke-linejoin="round" d="M 5433,10441 L 5433,10291"/>
 <path fill="none" stroke="rgb(0,0,0)" stroke-width="30" stroke-linejoin="round" d="M 5555,10441 L 5555,10291"/>
 <path fill="none" stroke="rgb(0,0,0)" stroke-width="30" stroke-linejoin="round" d="M 5555,10441 L 5555,10291"/>
 <path fill="none" stroke="rgb(0,0,0)" stroke-width="30" stroke-linejoin="round" d="M 5676,10441 L 5676,10291"/>
 <path fill="none" stroke="rgb(0,0,0)" stroke-width="30" stroke-linejoin="round" d="M 5676,10441 L 5676,10291"/>
 <path fill="none" stroke="rgb(0,0,0)" stroke-width="30" stroke-linejoin="round" d="M 5797,10441 L 5797,10291"/>
 <path fill="none" stroke="rgb(0,0,0)" stroke-width="30" stroke-linejoin="round" d="M 5797,10441 L 5797,10291"/>
 <path fill="none" stroke="rgb(0,0,0)" stroke-width="30" stroke-linejoin="round" d="M 5919,10441 L 5919,10291"/>
 <path fill="none" stroke="rgb(0,0,0)" stroke-width="30" stroke-linejoin="round" d="M 5919,10441 L 5919,10291"/>
 <path fill="none" stroke="rgb(0,0,0)" stroke-width="30" stroke-linejoin="round" d="M 6040,10441 L 6040,10291"/>
 <path fill="none" stroke="rgb(0,0,0)" stroke-width="30" stroke-linejoin="round" d="M 6040,10441 L 6040,10291"/>
 <path fill="none" stroke="rgb(0,0,0)" stroke-width="30" stroke-linejoin="round" d="M 6161,10441 L 6161,10291"/>
 <path fill="none" stroke="rgb(0,0,0)" stroke-width="30" stroke-linejoin="round" d="M 6161,10441 L 6161,10291"/>
 <path fill="none" stroke="rgb(0,0,0)" stroke-width="30" stroke-linejoin="round" d="M 6283,10441 L 6283,10291"/>
 <path fill="none" stroke="rgb(0,0,0)" stroke-width="30" stroke-linejoin="round" d="M 6283,10441 L 6283,10291"/>
 <path fill="none" stroke="rgb(0,0,0)" stroke-width="30" stroke-linejoin="round" d="M 6404,10441 L 6404,10291"/>
 <path fill="none" stroke="rgb(0,0,0)" stroke-width="30" stroke-linejoin="round" d="M 6404,10441 L 6404,10291"/>
 <path fill="none" stroke="rgb(0,0,0)" stroke-width="30" stroke-linejoin="round" d="M 6525,10441 L 6525,10291"/>
 <path fill="none" stroke="rgb(0,0,0)" stroke-width="30" stroke-linejoin="round" d="M 6525,10441 L 6525,10291"/>
 <path fill="none" stroke="rgb(0,0,0)" stroke-width="30" stroke-linejoin="round" d="M 6647,10441 L 6647,10291"/>
 <path fill="none" stroke="rgb(0,0,0)" stroke-width="30" stroke-linejoin="round" d="M 6647,10441 L 6647,10291"/>
 <path fill="none" stroke="rgb(0,0,0)" stroke-width="30" stroke-linejoin="round" d="M 6768,10441 L 6768,10291"/>
 <path fill="none" stroke="rgb(0,0,0)" stroke-width="30" stroke-linejoin="round" d="M 6768,10441 L 6768,10291"/>
 <path fill="none" stroke="rgb(0,0,0)" stroke-width="30" stroke-linejoin="round" d="M 6890,10441 L 6890,10291"/>
 <path fill="none" stroke="rgb(0,0,0)" stroke-width="30" stroke-linejoin="round" d="M 6890,10441 L 6890,10291"/>
 <path fill="none" stroke="rgb(0,0,0)" stroke-width="30" stroke-linejoin="round" d="M 7011,10441 L 7011,10291"/>
 <path fill="none" stroke="rgb(0,0,0)" stroke-width="30" stroke-linejoin="round" d="M 7011,10441 L 7011,10291"/>
 <path fill="none" stroke="rgb(0,0,0)" stroke-width="30" stroke-linejoin="round" d="M 7132,10441 L 7132,10291"/>
 <path fill="none" stroke="rgb(0,0,0)" stroke-width="30" stroke-linejoin="round" d="M 7132,10441 L 7132,10291"/>
 <path fill="none" stroke="rgb(0,0,0)" stroke-width="30" stroke-linejoin="round" d="M 7254,10441 L 7254,10291"/>
 <path fill="none" stroke="rgb(0,0,0)" stroke-width="30" stroke-linejoin="round" d="M 7254,10441 L 7254,10291"/>
 <path fill="none" stroke="rgb(0,0,0)" stroke-width="30" stroke-linejoin="round" d="M 7375,10441 L 7375,10291"/>
 <path fill="none" stroke="rgb(0,0,0)" stroke-width="30" stroke-linejoin="round" d="M 7375,10441 L 7375,10291"/>
 <path fill="none" stroke="rgb(0,0,0)" stroke-width="30" stroke-linejoin="round" d="M 7496,10441 L 7496,10291"/>
 <path fill="none" stroke="rgb(0,0,0)" stroke-width="30" stroke-linejoin="round" d="M 7496,10441 L 7496,10291"/>
 <path fill="none" stroke="rgb(0,0,0)" stroke-width="30" stroke-linejoin="round" d="M 7618,10441 L 7618,10291"/>
 <path fill="none" stroke="rgb(0,0,0)" stroke-width="30" stroke-linejoin="round" d="M 7618,10441 L 7618,10291"/>
 <path fill="none" stroke="rgb(0,0,0)" stroke-width="30" stroke-linejoin="round" d="M 7739,10441 L 7739,10291"/>
 <path fill="none" stroke="rgb(0,0,0)" stroke-width="30" stroke-linejoin="round" d="M 7739,10441 L 7739,10291"/>
 <path fill="none" stroke="rgb(0,0,0)" stroke-width="30" stroke-linejoin="round" d="M 7861,10441 L 7861,10291"/>
 <path fill="none" stroke="rgb(0,0,0)" stroke-width="30" stroke-linejoin="round" d="M 7861,10441 L 7861,10291"/>
 <path fill="none" stroke="rgb(0,0,0)" stroke-width="30" stroke-linejoin="round" d="M 7982,10441 L 7982,10291"/>
 <path fill="none" stroke="rgb(0,0,0)" stroke-width="30" stroke-linejoin="round" d="M 7982,10441 L 7982,10291"/>
 <path fill="none" stroke="rgb(0,0,0)" stroke-width="30" stroke-linejoin="round" d="M 8103,10441 L 8103,10291"/>
 <path fill="none" stroke="rgb(0,0,0)" stroke-width="30" stroke-linejoin="round" d="M 8103,10441 L 8103,10291"/>
 <path fill="none" stroke="rgb(0,0,0)" stroke-width="30" stroke-linejoin="round" d="M 8224,10441 L 8224,10291"/>
 <path fill="none" stroke="rgb(0,0,0)" stroke-width="30" stroke-linejoin="round" d="M 8224,10441 L 8224,10291"/>
 <path fill="none" stroke="rgb(0,0,0)" stroke-width="30" stroke-linejoin="round" d="M 8345,10441 L 8345,10291"/>
 <path fill="none" stroke="rgb(0,0,0)" stroke-width="30" stroke-linejoin="round" d="M 8345,10441 L 8345,10291"/>
 <path fill="none" stroke="rgb(0,0,0)" stroke-width="30" stroke-linejoin="round" d="M 8466,10441 L 8466,10291"/>
 <path fill="none" stroke="rgb(0,0,0)" stroke-width="30" stroke-linejoin="round" d="M 8466,10441 L 8466,10291"/>
 <path fill="none" stroke="rgb(0,0,0)" stroke-width="30" stroke-linejoin="round" d="M 8588,10441 L 8588,10291"/>
 <path fill="none" stroke="rgb(0,0,0)" stroke-width="30" stroke-linejoin="round" d="M 8588,10441 L 8588,10291"/>
 <path fill="none" stroke="rgb(0,0,0)" stroke-width="30" stroke-linejoin="round" d="M 8709,10441 L 8709,10291"/>
 <path fill="none" stroke="rgb(0,0,0)" stroke-width="30" stroke-linejoin="round" d="M 8709,10441 L 8709,10291"/>
 <path fill="none" stroke="rgb(0,0,0)" stroke-width="30" stroke-linejoin="round" d="M 8831,10441 L 8831,10291"/>
 <path fill="none" stroke="rgb(0,0,0)" stroke-width="30" stroke-linejoin="round" d="M 8831,10441 L 8831,10291"/>
 <path fill="none" stroke="rgb(0,0,0)" stroke-width="30" stroke-linejoin="round" d="M 8952,10441 L 8952,10291"/>
 <path fill="none" stroke="rgb(0,0,0)" stroke-width="30" stroke-linejoin="round" d="M 8952,10441 L 8952,10291"/>
 <path fill="none" stroke="rgb(0,0,0)" stroke-width="30" stroke-linejoin="round" d="M 9073,10441 L 9073,10291"/>
 <path fill="none" stroke="rgb(0,0,0)" stroke-width="30" stroke-linejoin="round" d="M 9073,10441 L 9073,10291"/>
 <path fill="none" stroke="rgb(0,0,0)" stroke-width="30" stroke-linejoin="round" d="M 9195,10441 L 9195,10291"/>
 <path fill="none" stroke="rgb(0,0,0)" stroke-width="30" stroke-linejoin="round" d="M 9195,10441 L 9195,10291"/>
 <path fill="none" stroke="rgb(0,0,0)" stroke-width="30" stroke-linejoin="round" d="M 9316,10441 L 9316,10291"/>
 <path fill="none" stroke="rgb(0,0,0)" stroke-width="30" stroke-linejoin="round" d="M 9316,10441 L 9316,10291"/>
 <path fill="none" stroke="rgb(0,0,0)" stroke-width="30" stroke-linejoin="round" d="M 9437,10441 L 9437,10291"/>
 <path fill="none" stroke="rgb(0,0,0)" stroke-width="30" stroke-linejoin="round" d="M 9437,10441 L 9437,10291"/>
 <path fill="none" stroke="rgb(0,0,0)" stroke-width="30" stroke-linejoin="round" d="M 9559,10441 L 9559,10291"/>
 <path fill="none" stroke="rgb(0,0,0)" stroke-width="30" stroke-linejoin="round" d="M 9559,10441 L 9559,10291"/>
 <path fill="none" stroke="rgb(0,0,0)" stroke-width="30" stroke-linejoin="round" d="M 9680,10441 L 9680,10291"/>
 <path fill="none" stroke="rgb(0,0,0)" stroke-width="30" stroke-linejoin="round" d="M 9680,10441 L 9680,10291"/>
 <path fill="none" stroke="rgb(0,0,0)" stroke-width="30" stroke-linejoin="round" d="M 9802,10441 L 9802,10291"/>
 <path fill="none" stroke="rgb(0,0,0)" stroke-width="30" stroke-linejoin="round" d="M 9802,10441 L 9802,10291"/>
 <path fill="none" stroke="rgb(0,0,0)" stroke-width="30" stroke-linejoin="round" d="M 9923,10441 L 9923,10291"/>
 <path fill="none" stroke="rgb(0,0,0)" stroke-width="30" stroke-linejoin="round" d="M 9923,10441 L 9923,10291"/>
 <path fill="none" stroke="rgb(0,0,0)" stroke-width="30" stroke-linejoin="round" d="M 10044,10441 L 10044,10291"/>
 <path fill="none" stroke="rgb(0,0,0)" stroke-width="30" stroke-linejoin="round" d="M 10044,10441 L 10044,10291"/>
 <path fill="none" stroke="rgb(0,0,0)" stroke-width="30" stroke-linejoin="round" d="M 10166,10441 L 10166,10291"/>
 <path fill="none" stroke="rgb(0,0,0)" stroke-width="30" stroke-linejoin="round" d="M 10166,10441 L 10166,10291"/>
 <path fill="none" stroke="rgb(0,0,0)" stroke-width="30" stroke-linejoin="round" d="M 10287,10441 L 10287,10291"/>
 <path fill="none" stroke="rgb(0,0,0)" stroke-width="30" stroke-linejoin="round" d="M 10287,10441 L 10287,10291"/>
 <path fill="none" stroke="rgb(0,0,0)" stroke-width="30" stroke-linejoin="round" d="M 10408,10441 L 10408,10291"/>
 <path fill="none" stroke="rgb(0,0,0)" stroke-width="30" stroke-linejoin="round" d="M 10408,10441 L 10408,10291"/>
 <path fill="none" stroke="rgb(0,0,0)" stroke-width="30" stroke-linejoin="round" d="M 10530,10441 L 10530,10291"/>
 <path fill="none" stroke="rgb(0,0,0)" stroke-width="30" stroke-linejoin="round" d="M 10530,10441 L 10530,10291"/>
 <path fill="none" stroke="rgb(0,0,0)" stroke-width="30" stroke-linejoin="round" d="M 10651,10441 L 10651,10291"/>
 <path fill="none" stroke="rgb(0,0,0)" stroke-width="30" stroke-linejoin="round" d="M 10651,10441 L 10651,10291"/>
 <path fill="none" stroke="rgb(0,0,0)" stroke-width="30" stroke-linejoin="round" d="M 10772,10441 L 10772,10291"/>
 <path fill="none" stroke="rgb(0,0,0)" stroke-width="30" stroke-linejoin="round" d="M 10772,10441 L 10772,10291"/>
 <path fill="none" stroke="rgb(0,0,0)" stroke-width="30" stroke-linejoin="round" d="M 10894,10441 L 10894,10291"/>
 <path fill="none" stroke="rgb(0,0,0)" stroke-width="30" stroke-linejoin="round" d="M 10894,10441 L 10894,10291"/>
 <path fill="none" stroke="rgb(0,0,0)" stroke-width="30" stroke-linejoin="round" d="M 11015,10441 L 11015,10291"/>
 <path fill="none" stroke="rgb(0,0,0)" stroke-width="30" stroke-linejoin="round" d="M 11015,10441 L 11015,10291"/>
 <path fill="none" stroke="rgb(0,0,0)" stroke-width="30" stroke-linejoin="round" d="M 11137,10441 L 11137,10291"/>
 <path fill="none" stroke="rgb(0,0,0)" stroke-width="30" stroke-linejoin="round" d="M 11137,10441 L 11137,10291"/>
 <path fill="none" stroke="rgb(0,0,0)" stroke-width="30" stroke-linejoin="round" d="M 11258,10441 L 11258,10291"/>
 <path fill="none" stroke="rgb(0,0,0)" stroke-width="30" stroke-linejoin="round" d="M 11258,10441 L 11258,10291"/>
 <path fill="none" stroke="rgb(0,0,0)" stroke-width="30" stroke-linejoin="round" d="M 11379,10441 L 11379,10291"/>
 <path fill="none" stroke="rgb(0,0,0)" stroke-width="30" stroke-linejoin="round" d="M 11379,10441 L 11379,10291"/>
 <path fill="none" stroke="rgb(0,0,0)" stroke-width="30" stroke-linejoin="round" d="M 11501,10441 L 11501,10291"/>
 <path fill="none" stroke="rgb(0,0,0)" stroke-width="30" stroke-linejoin="round" d="M 11501,10441 L 11501,10291"/>
 <path fill="none" stroke="rgb(0,0,0)" stroke-width="30" stroke-linejoin="round" d="M 11622,10441 L 11622,10291"/>
 <path fill="none" stroke="rgb(0,0,0)" stroke-width="30" stroke-linejoin="round" d="M 11622,10441 L 11622,10291"/>
 <path fill="none" stroke="rgb(0,0,0)" stroke-width="30" stroke-linejoin="round" d="M 11743,10441 L 11743,10291"/>
 <path fill="none" stroke="rgb(0,0,0)" stroke-width="30" stroke-linejoin="round" d="M 11743,10441 L 11743,10291"/>
 <path fill="none" stroke="rgb(0,0,0)" stroke-width="30" stroke-linejoin="round" d="M 11865,10441 L 11865,10291"/>
 <path fill="none" stroke="rgb(0,0,0)" stroke-width="30" stroke-linejoin="round" d="M 11865,10441 L 11865,10291"/>
 <path fill="none" stroke="rgb(0,0,0)" stroke-width="30" stroke-linejoin="round" d="M 11986,10441 L 11986,10291"/>
 <path fill="none" stroke="rgb(0,0,0)" stroke-width="30" stroke-linejoin="round" d="M 11986,10441 L 11986,10291"/>
 <path fill="none" stroke="rgb(0,0,0)" stroke-width="30" stroke-linejoin="round" d="M 12108,10441 L 12108,10291"/>
 <path fill="none" stroke="rgb(0,0,0)" stroke-width="30" stroke-linejoin="round" d="M 12108,10441 L 12108,10291"/>
 <path fill="none" stroke="rgb(0,0,0)" stroke-width="30" stroke-linejoin="round" d="M 12229,10441 L 12229,10291"/>
 <path fill="none" stroke="rgb(0,0,0)" stroke-width="30" stroke-linejoin="round" d="M 12229,10441 L 12229,10291"/>
 <path fill="none" stroke="rgb(0,0,0)" stroke-width="30" stroke-linejoin="round" d="M 12350,10441 L 12350,10291"/>
 <path fill="none" stroke="rgb(0,0,0)" stroke-width="30" stroke-linejoin="round" d="M 12350,10441 L 12350,10291"/>
 <path fill="none" stroke="rgb(0,0,0)" stroke-width="30" stroke-linejoin="round" d="M 12472,10441 L 12472,10291"/>
 <path fill="none" stroke="rgb(0,0,0)" stroke-width="30" stroke-linejoin="round" d="M 12472,10441 L 12472,10291"/>
 <path fill="none" stroke="rgb(0,0,0)" stroke-width="30" stroke-linejoin="round" d="M 12593,10441 L 12593,10291"/>
 <path fill="none" stroke="rgb(0,0,0)" stroke-width="30" stroke-linejoin="round" d="M 12593,10441 L 12593,10291"/>
 <path fill="none" stroke="rgb(0,0,0)" stroke-width="30" stroke-linejoin="round" d="M 12714,10441 L 12714,10291"/>
 <path fill="none" stroke="rgb(0,0,0)" stroke-width="30" stroke-linejoin="round" d="M 12714,10441 L 12714,10291"/>
 <path fill="none" stroke="rgb(0,0,0)" stroke-width="30" stroke-linejoin="round" d="M 12836,10441 L 12836,10291"/>
 <path fill="none" stroke="rgb(0,0,0)" stroke-width="30" stroke-linejoin="round" d="M 12836,10441 L 12836,10291"/>
 <path fill="none" stroke="rgb(0,0,0)" stroke-width="30" stroke-linejoin="round" d="M 12957,10441 L 12957,10291"/>
 <path fill="none" stroke="rgb(0,0,0)" stroke-width="30" stroke-linejoin="round" d="M 12957,10441 L 12957,10291"/>
 <path fill="none" stroke="rgb(0,0,0)" stroke-width="30" stroke-linejoin="round" d="M 13079,10441 L 13079,10291"/>
 <path fill="none" stroke="rgb(0,0,0)" stroke-width="30" stroke-linejoin="round" d="M 13079,10441 L 13079,10291"/>
 <path fill="none" stroke="rgb(0,0,0)" stroke-width="30" stroke-linejoin="round" d="M 13200,10441 L 13200,10291"/>
 <path fill="none" stroke="rgb(0,0,0)" stroke-width="30" stroke-linejoin="round" d="M 13200,10441 L 13200,10291"/>
 <path fill="none" stroke="rgb(0,0,0)" stroke-width="30" stroke-linejoin="round" d="M 13321,10441 L 13321,10291"/>
 <path fill="none" stroke="rgb(0,0,0)" stroke-width="30" stroke-linejoin="round" d="M 13321,10441 L 13321,10291"/>
 <path fill="none" stroke="rgb(0,0,0)" stroke-width="30" stroke-linejoin="round" d="M 13443,10441 L 13443,10291"/>
 <path fill="none" stroke="rgb(0,0,0)" stroke-width="30" stroke-linejoin="round" d="M 13443,10441 L 13443,10291"/>
 <path fill="none" stroke="rgb(0,0,0)" stroke-width="30" stroke-linejoin="round" d="M 13564,10441 L 13564,10291"/>
 <path fill="none" stroke="rgb(0,0,0)" stroke-width="30" stroke-linejoin="round" d="M 13564,10441 L 13564,10291"/>
 <path fill="none" stroke="rgb(0,0,0)" stroke-width="30" stroke-linejoin="round" d="M 13685,10441 L 13685,10291"/>
 <path fill="none" stroke="rgb(0,0,0)" stroke-width="30" stroke-linejoin="round" d="M 13685,10441 L 13685,10291"/>
 <path fill="none" stroke="rgb(0,0,0)" stroke-width="30" stroke-linejoin="round" d="M 13807,10441 L 13807,10291"/>
 <path fill="none" stroke="rgb(0,0,0)" stroke-width="30" stroke-linejoin="round" d="M 13807,10441 L 13807,10291"/>
 <path fill="none" stroke="rgb(0,0,0)" stroke-width="30" stroke-linejoin="round" d="M 13928,10441 L 13928,10291"/>
 <path fill="none" stroke="rgb(0,0,0)" stroke-width="30" stroke-linejoin="round" d="M 13928,10441 L 13928,10291"/>
 <path fill="none" stroke="rgb(0,0,0)" stroke-width="30" stroke-linejoin="round" d="M 14050,10441 L 14050,10291"/>
 <path fill="none" stroke="rgb(0,0,0)" stroke-width="30" stroke-linejoin="round" d="M 14050,10441 L 14050,10291"/>
 <path fill="none" stroke="rgb(0,0,0)" stroke-width="30" stroke-linejoin="round" d="M 14171,10441 L 14171,10291"/>
 <path fill="none" stroke="rgb(0,0,0)" stroke-width="30" stroke-linejoin="round" d="M 14171,10441 L 14171,10291"/>
 <path fill="none" stroke="rgb(0,0,0)" stroke-width="30" stroke-linejoin="round" d="M 14292,10441 L 14292,10291"/>
 <path fill="none" stroke="rgb(0,0,0)" stroke-width="30" stroke-linejoin="round" d="M 14292,10441 L 14292,10291"/>
 <path fill="none" stroke="rgb(0,0,0)" stroke-width="30" stroke-linejoin="round" d="M 14414,10441 L 14414,10291"/>
 <path fill="none" stroke="rgb(0,0,0)" stroke-width="30" stroke-linejoin="round" d="M 14414,10441 L 14414,10291"/>
 <path fill="none" stroke="rgb(0,0,0)" stroke-width="30" stroke-linejoin="round" d="M 14535,10441 L 14535,10291"/>
 <path fill="none" stroke="rgb(0,0,0)" stroke-width="30" stroke-linejoin="round" d="M 14535,10441 L 14535,10291"/>
 <path fill="none" stroke="rgb(0,0,0)" stroke-width="30" stroke-linejoin="round" d="M 14656,10441 L 14656,10291"/>
 <path fill="none" stroke="rgb(0,0,0)" stroke-width="30" stroke-linejoin="round" d="M 14656,10441 L 14656,10291"/>
 <path fill="none" stroke="rgb(0,0,0)" stroke-width="30" stroke-linejoin="round" d="M 14778,10441 L 14778,10291"/>
 <path fill="none" stroke="rgb(0,0,0)" stroke-width="30" stroke-linejoin="round" d="M 14778,10441 L 14778,10291"/>
 <path fill="none" stroke="rgb(0,0,0)" stroke-width="30" stroke-linejoin="round" d="M 14899,10441 L 14899,10291"/>
 <path fill="none" stroke="rgb(0,0,0)" stroke-width="30" stroke-linejoin="round" d="M 14899,10441 L 14899,10291"/>
 <path fill="none" stroke="rgb(0,0,0)" stroke-width="30" stroke-linejoin="round" d="M 15021,10441 L 15021,10291"/>
 <path fill="none" stroke="rgb(0,0,0)" stroke-width="30" stroke-linejoin="round" d="M 15021,10441 L 15021,10291"/>
 <path fill="none" stroke="rgb(0,0,0)" stroke-width="30" stroke-linejoin="round" d="M 1307,10291 L 15021,10291"/>
 <path fill="none" stroke="rgb(0,0,0)" stroke-width="30" stroke-linejoin="round" d="M 1157,10291 L 1307,10291"/>
 <path fill="none" stroke="rgb(0,0,0)" stroke-width="30" stroke-linejoin="round" d="M 1157,10291 L 1307,10291"/>
 <path fill="none" stroke="rgb(0,0,0)" stroke-width="30" stroke-linejoin="round" d="M 1157,9356 L 1307,9356"/>
 <path fill="none" stroke="rgb(0,0,0)" stroke-width="30" stroke-linejoin="round" d="M 1157,9356 L 1307,9356"/>
 <path fill="none" stroke="rgb(0,0,0)" stroke-width="30" stroke-linejoin="round" d="M 1157,8422 L 1307,8422"/>
 <path fill="none" stroke="rgb(0,0,0)" stroke-width="30" stroke-linejoin="round" d="M 1157,8422 L 1307,8422"/>
 <path fill="none" stroke="rgb(0,0,0)" stroke-width="30" stroke-linejoin="round" d="M 1157,7488 L 1307,7488"/>
 <path fill="none" stroke="rgb(0,0,0)" stroke-width="30" stroke-linejoin="round" d="M 1157,7488 L 1307,7488"/>
 <path fill="none" stroke="rgb(0,0,0)" stroke-width="30" stroke-linejoin="round" d="M 1157,6554 L 1307,6554"/>
 <path fill="none" stroke="rgb(0,0,0)" stroke-width="30" stroke-linejoin="round" d="M 1157,6554 L 1307,6554"/>
 <path fill="none" stroke="rgb(0,0,0)" stroke-width="30" stroke-linejoin="round" d="M 1157,5621 L 1307,5621"/>
 <path fill="none" stroke="rgb(0,0,0)" stroke-width="30" stroke-linejoin="round" d="M 1157,5621 L 1307,5621"/>
 <path fill="none" stroke="rgb(0,0,0)" stroke-width="30" stroke-linejoin="round" d="M 1157,4687 L 1307,4687"/>
 <path fill="none" stroke="rgb(0,0,0)" stroke-width="30" stroke-linejoin="round" d="M 1157,4687 L 1307,4687"/>
 <path fill="none" stroke="rgb(0,0,0)" stroke-width="30" stroke-linejoin="round" d="M 1157,3753 L 1307,3753"/>
 <path fill="none" stroke="rgb(0,0,0)" stroke-width="30" stroke-linejoin="round" d="M 1157,3753 L 1307,3753"/>
 <path fill="none" stroke="rgb(0,0,0)" stroke-width="30" stroke-linejoin="round" d="M 1157,2819 L 1307,2819"/>
 <path fill="none" stroke="rgb(0,0,0)" stroke-width="30" stroke-linejoin="round" d="M 1157,2819 L 1307,2819"/>
 <path fill="none" stroke="rgb(0,0,0)" stroke-width="30" stroke-linejoin="round" d="M 1157,1885 L 1307,1885"/>
 <path fill="none" stroke="rgb(0,0,0)" stroke-width="30" stroke-linejoin="round" d="M 1157,1885 L 1307,1885"/>
 <path fill="none" stroke="rgb(0,0,0)" stroke-width="30" stroke-linejoin="round" d="M 1157,951 L 1307,951"/>
 <path fill="none" stroke="rgb(0,0,0)" stroke-width="30" stroke-linejoin="round" d="M 1157,951 L 1307,951"/>
 <path fill="none" stroke="rgb(0,0,0)" stroke-width="30" stroke-linejoin="round" d="M 1307,10291 L 1307,951"/>
 <path fill="none" stroke="rgb(0,0,0)" stroke-width="30" stroke-linejoin="round" d="M 15171,10291 L 15021,10291"/>
 <path fill="none" stroke="rgb(0,0,0)" stroke-width="30" stroke-linejoin="round" d="M 15171,10291 L 15021,10291"/>
 <path fill="none" stroke="rgb(0,0,0)" stroke-width="30" stroke-linejoin="round" d="M 15171,9356 L 15021,9356"/>
 <path fill="none" stroke="rgb(0,0,0)" stroke-width="30" stroke-linejoin="round" d="M 15171,9356 L 15021,9356"/>
 <path fill="none" stroke="rgb(0,0,0)" stroke-width="30" stroke-linejoin="round" d="M 15171,8422 L 15021,8422"/>
 <path fill="none" stroke="rgb(0,0,0)" stroke-width="30" stroke-linejoin="round" d="M 15171,8422 L 15021,8422"/>
 <path fill="none" stroke="rgb(0,0,0)" stroke-width="30" stroke-linejoin="round" d="M 15171,7488 L 15021,7488"/>
 <path fill="none" stroke="rgb(0,0,0)" stroke-width="30" stroke-linejoin="round" d="M 15171,7488 L 15021,7488"/>
 <path fill="none" stroke="rgb(0,0,0)" stroke-width="30" stroke-linejoin="round" d="M 15171,6554 L 15021,6554"/>
 <path fill="none" stroke="rgb(0,0,0)" stroke-width="30" stroke-linejoin="round" d="M 15171,6554 L 15021,6554"/>
 <path fill="none" stroke="rgb(0,0,0)" stroke-width="30" stroke-linejoin="round" d="M 15171,5621 L 15021,5621"/>
 <path fill="none" stroke="rgb(0,0,0)" stroke-width="30" stroke-linejoin="round" d="M 15171,5621 L 15021,5621"/>
 <path fill="none" stroke="rgb(0,0,0)" stroke-width="30" stroke-linejoin="round" d="M 15171,4687 L 15021,4687"/>
 <path fill="none" stroke="rgb(0,0,0)" stroke-width="30" stroke-linejoin="round" d="M 15171,4687 L 15021,4687"/>
 <path fill="none" stroke="rgb(0,0,0)" stroke-width="30" stroke-linejoin="round" d="M 15171,3753 L 15021,3753"/>
 <path fill="none" stroke="rgb(0,0,0)" stroke-width="30" stroke-linejoin="round" d="M 15171,3753 L 15021,3753"/>
 <path fill="none" stroke="rgb(0,0,0)" stroke-width="30" stroke-linejoin="round" d="M 15171,2819 L 15021,2819"/>
 <path fill="none" stroke="rgb(0,0,0)" stroke-width="30" stroke-linejoin="round" d="M 15171,2819 L 15021,2819"/>
 <path fill="none" stroke="rgb(0,0,0)" stroke-width="30" stroke-linejoin="round" d="M 15171,1885 L 15021,1885"/>
 <path fill="none" stroke="rgb(0,0,0)" stroke-width="30" stroke-linejoin="round" d="M 15171,1885 L 15021,1885"/>
 <path fill="none" stroke="rgb(0,0,0)" stroke-width="30" stroke-linejoin="round" d="M 15171,951 L 15021,951"/>
 <path fill="none" stroke="rgb(0,0,0)" stroke-width="30" stroke-linejoin="round" d="M 15171,951 L 15021,951"/>
 <path fill="none" stroke="rgb(0,0,0)" stroke-width="30" stroke-linejoin="round" d="M 15021,10291 L 15021,951"/>
 <path fill="rgb(255,66,14)" stroke="none" d="M 1307,10291 L 1428,10291 1549,10291 1671,10291 1792,10291 1913,10291 2035,10291 2156,10291 2277,10291 2399,10291 2520,10291 2642,10291 2763,10291 2884,10291 3006,10291 3127,10291 3248,10291 3370,10291 3491,10291 3613,10291 3734,10291 3855,10291 3977,10291 4098,10291 4219,10291 4341,10291 4462,10291 4584,10291 4705,10291 4826,10291 4948,10291 5069,10291 5190,10291 5312,10291 5433,10291 5555,10291 5676,10291 5797,10291 5919,10291 6040,10291 6161,10291 6283,10291 6404,10291 6525,10291 6647,10291 6768,10291 6890,10291 7011,10291 7132,10291 7254,10291 7375,10291 7496,10291 7618,10291 7739,10291 7861,10291 7982,10291 8103,10291 8224,10291 8345,10291 8466,10291 8588,10291 8709,10291 8831,10291 8952,10291 9073,10291 9195,10291 9316,10291 9437,10291 9559,10291 9680,10291 9802,10249 9923,10238 10044,10219 10166,10180 10287,10162 10408,10139 10530,10106 10651,10092 10772,10099 10894,10105 11015,10102 11137,10072 11258,10061 11379,9979 11501,9919 11622,9874 11743,9816 11865,9806 11986,9786 12108,9757 12229,9693 12350,9650 12472,9587 12593,9563 12714,9504 12836,9498 12957,9440 13079,9390 13200,9345 13321,9411 13443,9313 13564,9307 13685,9215 13807,9086 13928,8971 14050,8921 14171,8868 14292,8876 14414,8787 14535,8731 14656,8730 14778,8782 14899,8737 15021,8720 15021,10291 1307,10291 Z"/>
 <path fill="rgb(0,69,134)" stroke="none" d="M 1307,10291 L 1428,10291 1549,10291 1671,10291 1792,10291 1913,10291 2035,10291 2156,10291 2277,10291 2399,10291 2520,10291 2642,10291 2763,10291 2884,10291 3006,10253 3127,10238 3248,10224 3370,10209 3491,10193 3613,10173 3734,10149 3855,10111 3977,10077 4098,10045 4219,10004 4341,9952 4462,9875 4584,9827 4705,9780 4826,9738 4948,9711 5069,9703 5190,9667 5312,9619 5433,9586 5555,9528 5676,9464 5797,9423 5919,9333 6040,9336 6161,9315 6283,9282 6404,9259 6525,9226 6647,9208 6768,9202 6890,9175 7011,9127 7132,9092 7254,9063 7375,9038 7496,9030 7618,9025 7739,9004 7861,8975 7982,8930 8103,8932 8224,8916 8345,8870 8466,8843 8588,8841 8709,8831 8831,8786 8952,8760 9073,8728 9195,8742 9316,8770 9437,8709 9559,8701 9680,8740 9802,8685 9923,8694 10044,8639 10166,8681 10287,8668 10408,8676 10530,8689 10651,8678 10772,8641 10894,8637 11015,8582 11137,8462 11258,8425 11379,8349 11501,8396 11622,8387 11743,8391 11865,8348 11986,8362 12108,8320 12229,8272 12350,8277 12472,8236 12593,8184 12714,8102 12836,8098 12957,8118 13079,8146 13200,8137 13321,8144 13443,8063 13564,8039 13685,8026 13807,7953 13928,7884 14050,7795 14171,7726 14292,7741 14414,7704 14535,7745 14656,7762 14778,7725 14899,7747 15021,7774 15021,8720 14899,8737 14778,8782 14656,8730 14535,8731 14414,8787 14292,8876 14171,8868 14050,8921 13928,8971 13807,9086 13685,9215 13564,9307 13443,9313 13321,9411 13200,9345 13079,9390 12957,9440 12836,9498 12714,9504 12593,9563 12472,9587 12350,9650 12229,9693 12108,9757 11986,9786 11865,9806 11743,9816 11622,9874 11501,9919 11379,9979 11258,10061 11137,10072 11015,10102 10894,10105 10772,10099 10651,10092 10530,10106 10408,10139 10287,10162 10166,10180 10044,10219 9923,10238 9802,10249 9680,10291 9559,10291 9437,10291 9316,10291 9195,10291 9073,10291 8952,10291 8831,10291 8709,10291 8588,10291 8466,10291 8345,10291 8224,10291 8103,10291 7982,10291 7861,10291 7739,10291 7618,10291 7496,10291 7375,10291 7254,10291 7132,10291 7011,10291 6890,10291 6768,10291 6647,10291 6525,10291 6404,10291 6283,10291 6161,10291 6040,10291 5919,10291 5797,10291 5676,10291 5555,10291 5433,10291 5312,10291 5190,10291 5069,10291 4948,10291 4826,10291 4705,10291 4584,10291 4462,10291 4341,10291 4219,10291 4098,10291 3977,10291 3855,10291 3734,10291 3613,10291 3491,10291 3370,10291 3248,10291 3127,10291 3006,10291 2884,10291 2763,10291 2642,10291 2520,10291 2399,10291 2277,10291 2156,10291 2035,10291 1913,10291 1792,10291 1671,10291 1549,10291 1428,10291 1307,10291 Z"/>
 <path fill="rgb(255,211,32)" stroke="none" d="M 1307,10291 L 1428,10291 1549,10291 1671,10291 1792,10291 1913,10291 2035,10291 2156,10291 2277,10291 2399,10291 2520,10291 2642,10291 2763,10291 2884,10291 3006,10253 3127,10238 3248,10224 3370,10209 3491,10193 3613,10173 3734,10149 3855,10111 3977,10077 4098,10045 4219,10004 4341,9952 4462,9875 4584,9827 4705,9780 4826,9738 4948,9711 5069,9703 5190,9667 5312,9619 5433,9586 5555,9528 5676,9464 5797,9423 5919,9333 6040,9336 6161,9315 6283,9282 6404,9259 6525,9226 6647,9208 6768,9202 6890,9175 7011,9127 7132,9092 7254,9063 7375,9038 7496,9030 7618,9025 7739,9004 7861,8975 7982,8930 8103,8932 8224,8916 8345,8870 8466,8843 8588,8841 8709,8831 8831,8786 8952,8760 9073,8728 9195,8742 9316,8770 9437,8709 9559,8701 9680,8740 9802,8685 9923,8694 10044,8639 10166,8681 10287,8668 10408,8676 10530,8689 10651,8678 10772,8641 10894,8637 11015,8582 11137,8462 11258,8419 11379,8311 11501,8326 11622,8277 11743,8246 11865,8178 11986,8168 12108,8102 12229,8019 12350,7995 12472,7923 12593,7854 12714,7755 12836,7711 12957,7673 13079,7657 13200,7587 13321,7612 13443,7507 13564,7454 13685,7414 13807,7340 13928,7214 14050,7088 14171,7026 14292,7023 14414,6962 14535,6903 14656,6851 14778,6859 14899,6846 15021,6876 15021,7774 14899,7747 14778,7725 14656,7762 14535,7745 14414,7704 14292,7741 14171,7726 14050,7795 13928,7884 13807,7953 13685,8026 13564,8039 13443,8063 13321,8144 13200,8137 13079,8146 12957,8118 12836,8098 12714,8102 12593,8184 12472,8236 12350,8277 12229,8272 12108,8320 11986,8362 11865,8348 11743,8391 11622,8387 11501,8396 11379,8349 11258,8425 11137,8462 11015,8582 10894,8637 10772,8641 10651,8678 10530,8689 10408,8676 10287,8668 10166,8681 10044,8639 9923,8694 9802,8685 9680,8740 9559,8701 9437,8709 9316,8770 9195,8742 9073,8728 8952,8760 8831,8786 8709,8831 8588,8841 8466,8843 8345,8870 8224,8916 8103,8932 7982,8930 7861,8975 7739,9004 7618,9025 7496,9030 7375,9038 7254,9063 7132,9092 7011,9127 6890,9175 6768,9202 6647,9208 6525,9226 6404,9259 6283,9282 6161,9315 6040,9336 5919,9333 5797,9423 5676,9464 5555,9528 5433,9586 5312,9619 5190,9667 5069,9703 4948,9711 4826,9738 4705,9780 4584,9827 4462,9875 4341,9952 4219,10004 4098,10045 3977,10077 3855,10111 3734,10149 3613,10173 3491,10193 3370,10209 3248,10224 3127,10238 3006,10253 2884,10291 2763,10291 2642,10291 2520,10291 2399,10291 2277,10291 2156,10291 2035,10291 1913,10291 1792,10291 1671,10291 1549,10291 1428,10291 1307,10291 Z"/>
 <path fill="rgb(131,202,255)" stroke="none" d="M 1307,10291 L 1428,10291 1549,10291 1671,10291 1792,10291 1913,10291 2035,10291 2156,10291 2277,10291 2399,10291 2520,10291 2642,10291 2763,10291 2884,10291 3006,10253 3127,10238 3248,10224 3370,10209 3491,10193 3613,10173 3734,10105 3855,10059 3977,10016 4098,9977 4219,9921 4341,9850 4462,9752 4584,9690 4705,9626 4826,9567 4948,9524 5069,9496 5190,9454 5312,9392 5433,9338 5555,9269 5676,9198 5797,9140 5919,9049 6040,9034 6161,8999 6283,8949 6404,8911 6525,8861 6647,8843 6768,8819 6890,8777 7011,8711 7132,8679 7254,8657 7375,8621 7496,8596 7618,8573 7739,8555 7861,8506 7982,8449 8103,8435 8224,8383 8345,8349 8466,8314 8588,8298 8709,8315 8831,8252 8952,8231 9073,8180 9195,8173 9316,8178 9437,8124 9559,8154 9680,8213 9802,8136 9923,8099 10044,8038 10166,8095 10287,8064 10408,8052 10530,8050 10651,8008 10772,7931 10894,7888 11015,7833 11137,7723 11258,7657 11379,7558 11501,7549 11622,7486 11743,7475 11865,7381 11986,7359 12108,7293 12229,7233 12350,7180 12472,7101 12593,7032 12714,6917 12836,6864 12957,6818 13079,6799 13200,6733 13321,6678 13443,6597 13564,6565 13685,6520 13807,6442 13928,6375 14050,6221 14171,6161 14292,6183 14414,6204 14535,6191 14656,6130 14778,6101 14899,6088 15021,6150 15021,6876 14899,6846 14778,6859 14656,6851 14535,6903 14414,6962 14292,7023 14171,7026 14050,7088 13928,7214 13807,7340 13685,7414 13564,7454 13443,7507 13321,7612 13200,7587 13079,7657 12957,7673 12836,7711 12714,7755 12593,7854 12472,7923 12350,7995 12229,8019 12108,8102 11986,8168 11865,8178 11743,8246 11622,8277 11501,8326 11379,8311 11258,8419 11137,8462 11015,8582 10894,8637 10772,8641 10651,8678 10530,8689 10408,8676 10287,8668 10166,8681 10044,8639 9923,8694 9802,8685 9680,8740 9559,8701 9437,8709 9316,8770 9195,8742 9073,8728 8952,8760 8831,8786 8709,8831 8588,8841 8466,8843 8345,8870 8224,8916 8103,8932 7982,8930 7861,8975 7739,9004 7618,9025 7496,9030 7375,9038 7254,9063 7132,9092 7011,9127 6890,9175 6768,9202 6647,9208 6525,9226 6404,9259 6283,9282 6161,9315 6040,9336 5919,9333 5797,9423 5676,9464 5555,9528 5433,9586 5312,9619 5190,9667 5069,9703 4948,9711 4826,9738 4705,9780 4584,9827 4462,9875 4341,9952 4219,10004 4098,10045 3977,10077 3855,10111 3734,10149 3613,10173 3491,10193 3370,10209 3248,10224 3127,10238 3006,10253 2884,10291 2763,10291 2642,10291 2520,10291 2399,10291 2277,10291 2156,10291 2035,10291 1913,10291 1792,10291 1671,10291 1549,10291 1428,10291 1307,10291 Z"/>
 <path fill="rgb(49,64,4)" stroke="none" d="M 1307,9992 L 1428,9992 1549,9997 1671,9997 1792,9998 1913,9993 2035,10001 2156,10005 2277,10004 2399,10007 2520,10012 2642,10011 2763,10020 2884,10021 3006,9992 3127,9978 3248,9966 3370,9953 3491,9940 3613,9920 3734,9854 3855,9814 3977,9777 4098,9739 4219,9690 4341,9624 4462,9539 4584,9479 4705,9421 4826,9368 4948,9327 5069,9297 5190,9251 5312,9194 5433,9145 5555,9078 5676,9009 5797,8963 5919,8876 6040,8859 6161,8822 6283,8779 6404,8743 6525,8701 6647,8691 6768,8671 6890,8636 7011,8582 7132,8549 7254,8526 7375,8491 7496,8300 7618,8251 7739,8197 7861,8132 7982,8021 8103,7952 8224,7915 8345,7863 8466,7860 8588,7795 8709,7735 8831,7646 8952,7671 9073,7563 9195,7537 9316,7521 9437,7437 9559,7427 9680,7523 9802,7475 9923,7423 10044,7328 10166,7298 10287,7229 10408,7243 10530,7229 10651,7223 10772,7292 10894,7323 11015,7326 11137,7173 11258,7144 11379,7019 11501,6956 11622,6885 11743,6836 11865,6750 11986,6718 12108,6647 12229,6555 12350,6468 12472,6365 12593,6295 12714,6259 12836,6178 12957,6080 13079,6034 13200,5989 13321,6003 13443,5954 13564,5920 13685,5866 13807,5821 13928,5708 14050,5627 14171,5609 14292,5637 14414,5637 14535,5535 14656,5455 14778,5479 14899,5451 15021,5465 15021,6150 14899,6088 14778,6101 14656,6130 14535,6191 14414,6204 14292,6183 14171,6161 14050,6221 13928,6375 13807,6442 13685,6520 13564,6565 13443,6597 13321,6678 13200,6733 13079,6799 12957,6818 12836,6864 12714,6917 12593,7032 12472,7101 12350,7180 12229,7233 12108,7293 11986,7359 11865,7381 11743,7475 11622,7486 11501,7549 11379,7558 11258,7657 11137,7723 11015,7833 10894,7888 10772,7931 10651,8008 10530,8050 10408,8052 10287,8064 10166,8095 10044,8038 9923,8099 9802,8136 9680,8213 9559,8154 9437,8124 9316,8178 9195,8173 9073,8180 8952,8231 8831,8252 8709,8315 8588,8298 8466,8314 8345,8349 8224,8383 8103,8435 7982,8449 7861,8506 7739,8555 7618,8573 7496,8596 7375,8621 7254,8657 7132,8679 7011,8711 6890,8777 6768,8819 6647,8843 6525,8861 6404,8911 6283,8949 6161,8999 6040,9034 5919,9049 5797,9140 5676,9198 5555,9269 5433,9338 5312,9392 5190,9454 5069,9496 4948,9524 4826,9567 4705,9626 4584,9690 4462,9752 4341,9850 4219,9921 4098,9977 3977,10016 3855,10059 3734,10105 3613,10173 3491,10193 3370,10209 3248,10224 3127,10238 3006,10253 2884,10291 2763,10291 2642,10291 2520,10291 2399,10291 2277,10291 2156,10291 2035,10291 1913,10291 1792,10291 1671,10291 1549,10291 1428,10291 1307,10291 1307,9992 Z"/>
 <path fill="rgb(126,0,33)" stroke="none" d="M 1307,9992 L 1428,9992 1549,9997 1671,9997 1792,9998 1913,9993 2035,10001 2156,10005 2277,10004 2399,10007 2520,10012 2642,10011 2763,10020 2884,10021 3006,9992 3127,9978 3248,9966 3370,9953 3491,9940 3613,9920 3734,9854 3855,9814 3977,9777 4098,9739 4219,9690 4341,9624 4462,9539 4584,9479 4705,9421 4826,9368 4948,9327 5069,9297 5190,9251 5312,9194 5433,9145 5555,9078 5676,9009 5797,8963 5919,8876 6040,8859 6161,8822 6283,8779 6404,8743 6525,8701 6647,8691 6768,8671 6890,8636 7011,8582 7132,8549 7254,8526 7375,8491 7496,8300 7618,8251 7739,8197 7861,8132 7982,8021 8103,7952 8224,7915 8345,7863 8466,7828 8588,7739 8709,7653 8831,7543 8952,7566 9073,7441 9195,7393 9316,7353 9437,7263 9559,7241 9680,7274 9802,7217 9923,7130 10044,7007 10166,6899 10287,6819 10408,6789 10530,6727 10651,6713 10772,6832 10894,6902 11015,6933 11137,6735 11258,6737 11379,6570 11501,6479 11622,6392 11743,6335 11865,6244 11986,6210 12108,6141 12229,6014 12350,5908 12472,5782 12593,5730 12714,5708 12836,5652 12957,5544 13079,5505 13200,5447 13321,5519 13443,5472 13564,5429 13685,5367 13807,5342 13928,5193 14050,5082 14171,5099 14292,5133 14414,5141 14535,4996 14656,4902 14778,4966 14899,4925 15021,4948 15021,5465 14899,5451 14778,5479 14656,5455 14535,5535 14414,5637 14292,5637 14171,5609 14050,5627 13928,5708 13807,5821 13685,5866 13564,5920 13443,5954 13321,6003 13200,5989 13079,6034 12957,6080 12836,6178 12714,6259 12593,6295 12472,6365 12350,6468 12229,6555 12108,6647 11986,6718 11865,6750 11743,6836 11622,6885 11501,6956 11379,7019 11258,7144 11137,7173 11015,7326 10894,7323 10772,7292 10651,7223 10530,7229 10408,7243 10287,7229 10166,7298 10044,7328 9923,7423 9802,7475 9680,7523 9559,7427 9437,7437 9316,7521 9195,7537 9073,7563 8952,7671 8831,7646 8709,7735 8588,7795 8466,7860 8345,7863 8224,7915 8103,7952 7982,8021 7861,8132 7739,8197 7618,8251 7496,8300 7375,8491 7254,8526 7132,8549 7011,8582 6890,8636 6768,8671 6647,8691 6525,8701 6404,8743 6283,8779 6161,8822 6040,8859 5919,8876 5797,8963 5676,9009 5555,9078 5433,9145 5312,9194 5190,9251 5069,9297 4948,9327 4826,9368 4705,9421 4584,9479 4462,9539 4341,9624 4219,9690 4098,9739 3977,9777 3855,9814 3734,9854 3613,9920 3491,9940 3370,9953 3248,9966 3127,9978 3006,9992 2884,10021 2763,10020 2642,10011 2520,10012 2399,10007 2277,10004 2156,10005 2035,10001 1913,9993 1792,9998 1671,9997 1549,9997 1428,9992 1307,9992 Z"/>
 <path fill="rgb(87,157,28)" stroke="none" d="M 1307,8715 L 1428,8665 1549,8601 1671,8569 1792,8507 1913,8529 2035,8471 2156,8419 2277,8394 2399,8345 2520,8312 2642,8258 2763,8195 2884,8189 3006,8086 3127,8083 3248,8067 3370,8055 3491,8029 3613,7975 3734,7957 3855,7909 3977,7899 4098,7855 4219,7782 4341,7749 4462,7649 4584,7638 4705,7614 4826,7573 4948,7585 5069,7617 5190,7625 5312,7593 5433,7581 5555,7518 5676,7456 5797,7427 5919,7348 6040,7391 6161,7382 6283,7344 6404,7341 6525,7343 6647,7347 6768,7364 6890,7342 7011,7279 7132,7271 7254,7286 7375,7288 7496,7112 7618,7091 7739,7057 7861,7029 7982,6918 8103,6860 8224,6839 8345,6805 8466,6817 8588,6747 8709,6699 8831,6611 8952,6680 9073,6540 9195,6520 9316,6509 9437,6442 9559,6443 9680,6528 9802,6462 9923,6369 10044,6232 10166,6162 10287,6096 10408,6084 10530,6033 10651,6038 10772,6160 10894,6237 11015,6298 11137,6078 11258,6145 11379,5975 11501,5905 11622,5837 11743,5786 11865,5687 11986,5665 12108,5608 12229,5481 12350,5385 12472,5274 12593,5216 12714,5216 12836,5149 12957,5047 13079,5031 13200,4974 13321,5050 13443,5029 13564,4997 13685,4940 13807,4938 13928,4806 14050,4740 14171,4756 14292,4792 14414,4808 14535,4682 14656,4584 14778,4642 14899,4621 15021,4639 15021,4948 14899,4925 14778,4966 14656,4902 14535,4996 14414,5141 14292,5133 14171,5099 14050,5082 13928,5193 13807,5342 13685,5367 13564,5429 13443,5472 13321,5519 13200,5447 13079,5505 12957,5544 12836,5652 12714,5708 12593,5730 12472,5782 12350,5908 12229,6014 12108,6141 11986,6210 11865,6244 11743,6335 11622,6392 11501,6479 11379,6570 11258,6737 11137,6735 11015,6933 10894,6902 10772,6832 10651,6713 10530,6727 10408,6789 10287,6819 10166,6899 10044,7007 9923,7130 9802,7217 9680,7274 9559,7241 9437,7263 9316,7353 9195,7393 9073,7441 8952,7566 8831,7543 8709,7653 8588,7739 8466,7828 8345,7863 8224,7915 8103,7952 7982,8021 7861,8132 7739,8197 7618,8251 7496,8300 7375,8491 7254,8526 7132,8549 7011,8582 6890,8636 6768,8671 6647,8691 6525,8701 6404,8743 6283,8779 6161,8822 6040,8859 5919,8876 5797,8963 5676,9009 5555,9078 5433,9145 5312,9194 5190,9251 5069,9297 4948,9327 4826,9368 4705,9421 4584,9479 4462,9539 4341,9624 4219,9690 4098,9739 3977,9777 3855,9814 3734,9854 3613,9920 3491,9940 3370,9953 3248,9966 3127,9978 3006,9992 2884,10021 2763,10020 2642,10011 2520,10012 2399,10007 2277,10004 2156,10005 2035,10001 1913,9993 1792,9998 1671,9997 1549,9997 1428,9992 1307,9992 1307,8715 Z"/>
 <path fill="rgb(75,31,111)" stroke="none" d="M 1307,8235 L 1428,8162 1549,8070 1671,8022 1792,7923 1913,7953 2035,7852 2156,7774 2277,7733 2399,7662 2520,7614 2642,7553 2763,7448 2884,7413 3006,7289 3127,7278 3248,7248 3370,7233 3491,7205 3613,7152 3734,7114 3855,7063 3977,7053 4098,7017 4219,6944 4341,6916 4462,6821 4584,6820 4705,6799 4826,6767 4948,6800 5069,6856 5190,6878 5312,6850 5433,6856 5555,6802 5676,6743 5797,6718 5919,6630 6040,6688 6161,6691 6283,6663 6404,6666 6525,6676 6647,6691 6768,6713 6890,6693 7011,6633 7132,6639 7254,6681 7375,6686 7496,6519 7618,6499 7739,6478 7861,6454 7982,6338 8103,6277 8224,6231 8345,6197 8466,6222 8588,6160 8709,6135 8831,6058 8952,6138 9073,5990 9195,5968 9316,5954 9437,5899 9559,5908 9680,6063 9802,5982 9923,5869 10044,5731 10166,5680 10287,5619 10408,5603 10530,5549 10651,5549 10772,5654 10894,5714 11015,5775 11137,5566 11258,5646 11379,5485 11501,5418 11622,5361 11743,5330 11865,5220 11986,5157 12108,5064 12229,4939 12350,4933 12472,4832 12593,4771 12714,4776 12836,4700 12957,4590 13079,4591 13200,4544 13321,4607 13443,4599 13564,4573 13685,4516 13807,4535 13928,4435 14050,4391 14171,4401 14292,4445 14414,4469 14535,4363 14656,4264 14778,4309 14899,4293 15021,4325 15021,4639 14899,4621 14778,4642 14656,4584 14535,4682 14414,4808 14292,4792 14171,4756 14050,4740 13928,4806 13807,4938 13685,4940 13564,4997 13443,5029 13321,5050 13200,4974 13079,5031 12957,5047 12836,5149 12714,5216 12593,5216 12472,5274 12350,5385 12229,5481 12108,5608 11986,5665 11865,5687 11743,5786 11622,5837 11501,5905 11379,5975 11258,6145 11137,6078 11015,6298 10894,6237 10772,6160 10651,6038 10530,6033 10408,6084 10287,6096 10166,6162 10044,6232 9923,6369 9802,6462 9680,6528 9559,6443 9437,6442 9316,6509 9195,6520 9073,6540 8952,6680 8831,6611 8709,6699 8588,6747 8466,6817 8345,6805 8224,6839 8103,6860 7982,6918 7861,7029 7739,7057 7618,7091 7496,7112 7375,7288 7254,7286 7132,7271 7011,7279 6890,7342 6768,7364 6647,7347 6525,7343 6404,7341 6283,7344 6161,7382 6040,7391 5919,7348 5797,7427 5676,7456 5555,7518 5433,7581 5312,7593 5190,7625 5069,7617 4948,7585 4826,7573 4705,7614 4584,7638 4462,7649 4341,7749 4219,7782 4098,7855 3977,7899 3855,7909 3734,7957 3613,7975 3491,8029 3370,8055 3248,8067 3127,8083 3006,8086 2884,8189 2763,8195 2642,8258 2520,8312 2399,8345 2277,8394 2156,8419 2035,8471 1913,8529 1792,8507 1671,8569 1549,8601 1428,8665 1307,8715 1307,8235 Z"/>
 <path fill="rgb(255,149,14)" stroke="none" d="M 1307,6993 L 1428,6963 1549,6848 1671,6806 1792,6720 1913,6733 2035,6633 2156,6556 2277,6516 2399,6449 2520,6387 2642,6325 2763,6253 2884,6229 3006,6126 3127,6110 3248,6090 3370,6083 3491,6074 3613,6033 3734,6016 3855,6003 3977,5981 4098,5972 4219,5926 4341,5924 4462,5851 4584,5839 4705,5831 4826,5805 4948,5819 5069,5845 5190,5865 5312,5833 5433,5822 5555,5787 5676,5748 5797,5756 5919,5713 6040,5739 6161,5699 6283,5699 6404,5702 6525,5735 6647,5823 6768,5841 6890,5815 7011,5777 7132,5801 7254,5890 7375,5900 7496,5732 7618,5735 7739,5737 7861,5699 7982,5595 8103,5540 8224,5505 8345,5494 8466,5528 8588,5485 8709,5528 8831,5433 8952,5515 9073,5367 9195,5329 9316,5295 9437,5266 9559,5309 9680,5531 9802,5438 9923,5299 10044,5168 10166,5161 10287,5085 10408,5067 10530,5026 10651,5004 10772,5065 10894,5089 11015,5145 11137,4967 11258,5033 11379,4910 11501,4874 11622,4831 11743,4834 11865,4720 11986,4667 12108,4579 12229,4482 12350,4476 12472,4393 12593,4345 12714,4345 12836,4271 12957,4207 13079,4234 13200,4200 13321,4247 13443,4254 13564,4245 13685,4194 13807,4218 13928,4135 14050,4094 14171,4111 14292,4163 14414,4213 14535,4131 14656,4034 14778,4067 14899,4054 15021,4096 15021,4325 14899,4293 14778,4309 14656,4264 14535,4363 14414,4469 14292,4445 14171,4401 14050,4391 13928,4435 13807,4535 13685,4516 13564,4573 13443,4599 13321,4607 13200,4544 13079,4591 12957,4590 12836,4700 12714,4776 12593,4771 12472,4832 12350,4933 12229,4939 12108,5064 11986,5157 11865,5220 11743,5330 11622,5361 11501,5418 11379,5485 11258,5646 11137,5566 11015,5775 10894,5714 10772,5654 10651,5549 10530,5549 10408,5603 10287,5619 10166,5680 10044,5731 9923,5869 9802,5982 9680,6063 9559,5908 9437,5899 9316,5954 9195,5968 9073,5990 8952,6138 8831,6058 8709,6135 8588,6160 8466,6222 8345,6197 8224,6231 8103,6277 7982,6338 7861,6454 7739,6478 7618,6499 7496,6519 7375,6686 7254,6681 7132,6639 7011,6633 6890,6693 6768,6713 6647,6691 6525,6676 6404,6666 6283,6663 6161,6691 6040,6688 5919,6630 5797,6718 5676,6743 5555,6802 5433,6856 5312,6850 5190,6878 5069,6856 4948,6800 4826,6767 4705,6799 4584,6820 4462,6821 4341,6916 4219,6944 4098,7017 3977,7053 3855,7063 3734,7114 3613,7152 3491,7205 3370,7233 3248,7248 3127,7278 3006,7289 2884,7413 2763,7448 2642,7553 2520,7614 2399,7662 2277,7733 2156,7774 2035,7852 1913,7953 1792,7923 1671,8022 1549,8070 1428,8162 1307,8235 1307,6993 Z"/>
 <path fill="rgb(174,207,0)" stroke="none" d="M 1307,2690 L 1428,2706 1549,2707 1671,2726 1792,2688 1913,2663 2035,2718 2156,2710 2277,2711 2399,2729 2520,2734 2642,2700 2763,2743 2884,2806 3006,2805 3127,2818 3248,2862 3370,2924 3491,2950 3613,2970 3734,3019 3855,3080 3977,3122 4098,3147 4219,3194 4341,3276 4462,3332 4584,3360 4705,3428 4826,3488 4948,3516 5069,3578 5190,3658 5312,3702 5433,3726 5555,3710 5676,3653 5797,3741 5919,3787 6040,3836 6161,3810 6283,3867 6404,3902 6525,3980 6647,4136 6768,4217 6890,4226 7011,4288 7132,4272 7254,4285 7375,4346 7496,4217 7618,4262 7739,4253 7861,4307 7982,4344 8103,4362 8224,4337 8345,4304 8466,4381 8588,4367 8709,4331 8831,4365 8952,4346 9073,4260 9195,4295 9316,4307 9437,4299 9559,4361 9680,4700 9802,4621 9923,4531 10044,4412 10166,4475 10287,4432 10408,4439 10530,4431 10651,4402 10772,4381 10894,4351 11015,4213 11137,4177 11258,4306 11379,4217 11501,4218 11622,4173 11743,4075 11865,4037 11986,4110 12108,4088 12229,4029 12350,4066 12472,4012 12593,3967 12714,3991 12836,3935 12957,3913 13079,3957 13200,3942 13321,3981 13443,3986 13564,3936 13685,3927 13807,3941 13928,3878 14050,3864 14171,3883 14292,3899 14414,3997 14535,3925 14656,3852 14778,3852 14899,3842 15021,3893 15021,4096 14899,4054 14778,4067 14656,4034 14535,4131 14414,4213 14292,4163 14171,4111 14050,4094 13928,4135 13807,4218 13685,4194 13564,4245 13443,4254 13321,4247 13200,4200 13079,4234 12957,4207 12836,4271 12714,4345 12593,4345 12472,4393 12350,4476 12229,4482 12108,4579 11986,4667 11865,4720 11743,4834 11622,4831 11501,4874 11379,4910 11258,5033 11137,4967 11015,5145 10894,5089 10772,5065 10651,5004 10530,5026 10408,5067 10287,5085 10166,5161 10044,5168 9923,5299 9802,5438 9680,5531 9559,5309 9437,5266 9316,5295 9195,5329 9073,5367 8952,5515 8831,5433 8709,5528 8588,5485 8466,5528 8345,5494 8224,5505 8103,5540 7982,5595 7861,5699 7739,5737 7618,5735 7496,5732 7375,5900 7254,5890 7132,5801 7011,5777 6890,5815 6768,5841 6647,5823 6525,5735 6404,5702 6283,5699 6161,5699 6040,5739 5919,5713 5797,5756 5676,5748 5555,5787 5433,5822 5312,5833 5190,5865 5069,5845 4948,5819 4826,5805 4705,5831 4584,5839 4462,5851 4341,5924 4219,5926 4098,5972 3977,5981 3855,6003 3734,6016 3613,6033 3491,6074 3370,6083 3248,6090 3127,6110 3006,6126 2884,6229 2763,6253 2642,6325 2520,6387 2399,6449 2277,6516 2156,6556 2035,6633 1913,6733 1792,6720 1671,6806 1549,6848 1428,6963 1307,6993 1307,2690 Z"/>
 <path fill="rgb(197,0,11)" stroke="none" d="M 1307,2393 L 1428,2393 1549,2368 1671,2376 1792,2317 1913,2297 2035,2312 2156,2288 2277,2281 2399,2281 2520,2265 2642,2240 2763,2255 2884,2294 3006,2281 3127,2290 3248,2325 3370,2385 3491,2412 3613,2445 3734,2476 3855,2543 3977,2581 4098,2616 4219,2664 4341,2751 4462,2811 4584,2848 4705,2913 4826,2975 4948,3007 5069,3064 5190,3149 5312,3194 5433,3218 5555,3219 5676,3182 5797,3277 5919,3332 6040,3369 6161,3335 6283,3398 6404,3437 6525,3523 6647,3693 6768,3775 6890,3782 7011,3849 7132,3849 7254,3889 7375,3954 7496,3828 7618,3875 7739,3880 7861,3932 7982,3970 8103,3984 8224,3954 8345,3942 8466,4031 8588,4018 8709,4012 8831,4041 8952,4038 9073,3950 9195,3974 9316,3978 9437,3984 9559,4065 9680,4430 9802,4343 9923,4235 10044,4119 10166,4197 10287,4149 10408,4154 10530,4145 10651,4105 10772,4049 10894,3990 11015,3869 11137,3852 11258,3983 11379,3921 11501,3924 11622,3885 11743,3805 11865,3769 11986,3844 12108,3825 12229,3779 12350,3807 12472,3759 12593,3719 12714,3749 12836,3694 12957,3677 13079,3729 13200,3720 13321,3747 13443,3763 13564,3721 13685,3715 13807,3732 13928,3687 14050,3678 14171,3700 14292,3730 14414,3840 14535,3779 14656,3701 14778,3697 14899,3687 15021,3749 15021,3893 14899,3842 14778,3852 14656,3852 14535,3925 14414,3997 14292,3899 14171,3883 14050,3864 13928,3878 13807,3941 13685,3927 13564,3936 13443,3986 13321,3981 13200,3942 13079,3957 12957,3913 12836,3935 12714,3991 12593,3967 12472,4012 12350,4066 12229,4029 12108,4088 11986,4110 11865,4037 11743,4075 11622,4173 11501,4218 11379,4217 11258,4306 11137,4177 11015,4213 10894,4351 10772,4381 10651,4402 10530,4431 10408,4439 10287,4432 10166,4475 10044,4412 9923,4531 9802,4621 9680,4700 9559,4361 9437,4299 9316,4307 9195,4295 9073,4260 8952,4346 8831,4365 8709,4331 8588,4367 8466,4381 8345,4304 8224,4337 8103,4362 7982,4344 7861,4307 7739,4253 7618,4262 7496,4217 7375,4346 7254,4285 7132,4272 7011,4288 6890,4226 6768,4217 6647,4136 6525,3980 6404,3902 6283,3867 6161,3810 6040,3836 5919,3787 5797,3741 5676,3653 5555,3710 5433,3726 5312,3702 5190,3658 5069,3578 4948,3516 4826,3488 4705,3428 4584,3360 4462,3332 4341,3276 4219,3194 4098,3147 3977,3122 3855,3080 3734,3019 3613,2970 3491,2950 3370,2924 3248,2862 3127,2818 3006,2805 2884,2806 2763,2743 2642,2700 2520,2734 2399,2729 2277,2711 2156,2710 2035,2718 1913,2663 1792,2688 1671,2726 1549,2707 1428,2706 1307,2690 1307,2393 Z"/>
 <path fill="rgb(0,132,209)" stroke="none" d="M 1307,1681 L 1428,1692 1549,1721 1671,1755 1792,1705 1913,1699 2035,1742 2156,1744 2277,1752 2399,1783 2520,1795 2642,1778 2763,1817 2884,1874 3006,1884 3127,1897 3248,1929 3370,1994 3491,2034 3613,2084 3734,2123 3855,2184 3977,2236 4098,2282 4219,2349 4341,2444 4462,2527 4584,2577 4705,2651 4826,2711 4948,2765 5069,2836 5190,2930 5312,2992 5433,3022 5555,3039 5676,3006 5797,3101 5919,3180 6040,3207 6161,3190 6283,3261 6404,3304 6525,3394 6647,3568 6768,3663 6890,3673 7011,3756 7132,3753 7254,3787 7375,3858 7496,3683 7618,3735 7739,3738 7861,3793 7982,3832 8103,3851 8224,3828 8345,3814 8466,3898 8588,3882 8709,3875 8831,3899 8952,3893 9073,3816 9195,3854 9316,3870 9437,3868 9559,3948 9680,4310 9802,4230 9923,4130 10044,4014 10166,4101 10287,4055 10408,4069 10530,4069 10651,4030 10772,3982 10894,3922 11015,3800 11137,3779 11258,3899 11379,3844 11501,3859 11622,3826 11743,3747 11865,3713 11986,3791 12108,3771 12229,3729 12350,3757 12472,3714 12593,3670 12714,3706 12836,3649 12957,3637 13079,3689 13200,3682 13321,3713 13443,3726 13564,3687 13685,3680 13807,3699 13928,3652 14050,3647 14171,3669 14292,3699 14414,3810 14535,3752 14656,3674 14778,3668 14899,3660 15021,3715 15021,3749 14899,3687 14778,3697 14656,3701 14535,3779 14414,3840 14292,3730 14171,3700 14050,3678 13928,3687 13807,3732 13685,3715 13564,3721 13443,3763 13321,3747 13200,3720 13079,3729 12957,3677 12836,3694 12714,3749 12593,3719 12472,3759 12350,3807 12229,3779 12108,3825 11986,3844 11865,3769 11743,3805 11622,3885 11501,3924 11379,3921 11258,3983 11137,3852 11015,3869 10894,3990 10772,4049 10651,4105 10530,4145 10408,4154 10287,4149 10166,4197 10044,4119 9923,4235 9802,4343 9680,4430 9559,4065 9437,3984 9316,3978 9195,3974 9073,3950 8952,4038 8831,4041 8709,4012 8588,4018 8466,4031 8345,3942 8224,3954 8103,3984 7982,3970 7861,3932 7739,3880 7618,3875 7496,3828 7375,3954 7254,3889 7132,3849 7011,3849 6890,3782 6768,3775 6647,3693 6525,3523 6404,3437 6283,3398 6161,3335 6040,3369 5919,3332 5797,3277 5676,3182 5555,3219 5433,3218 5312,3194 5190,3149 5069,3064 4948,3007 4826,2975 4705,2913 4584,2848 4462,2811 4341,2751 4219,2664 4098,2616 3977,2581 3855,2543 3734,2476 3613,2445 3491,2412 3370,2385 3248,2325 3127,2290 3006,2281 2884,2294 2763,2255 2642,2240 2520,2265 2399,2281 2277,2281 2156,2288 2035,2312 1913,2297 1792,2317 1671,2376 1549,2368 1428,2393 1307,2393 1307,1681 Z"/>
 <text class="TextShape"><tspan class="TextParagraph" font-family="Arial, sans-serif" font-size="388px" font-weight="400"><tspan class="TextPosition" x="1125" y="10885"><tspan fill="rgb(0,0,0)" stroke="none">2008</tspan></tspan></tspan></text>
 <text class="TextShape"><tspan class="TextParagraph" font-family="Arial, sans-serif" font-size="388px" font-weight="400"><tspan class="TextPosition" x="2582" y="10885"><tspan fill="rgb(0,0,0)" stroke="none">2009</tspan></tspan></tspan></text>
 <text class="TextShape"><tspan class="TextParagraph" font-family="Arial, sans-serif" font-size="388px" font-weight="400"><tspan class="TextPosition" x="4038" y="10885"><tspan fill="rgb(0,0,0)" stroke="none">2010</tspan></tspan></tspan></text>
 <text class="TextShape"><tspan class="TextParagraph" font-family="Arial, sans-serif" font-size="388px" font-weight="400"><tspan class="TextPosition" x="5509" y="10885"><tspan fill="rgb(0,0,0)" stroke="none">2011</tspan></tspan></tspan></text>
 <text class="TextShape"><tspan class="TextParagraph" font-family="Arial, sans-serif" font-size="388px" font-weight="400"><tspan class="TextPosition" x="6951" y="10885"><tspan fill="rgb(0,0,0)" stroke="none">2012</tspan></tspan></tspan></text>
 <text class="TextShape"><tspan class="TextParagraph" font-family="Arial, sans-serif" font-size="388px" font-weight="400"><tspan class="TextPosition" x="8408" y="10885"><tspan fill="rgb(0,0,0)" stroke="none">2013</tspan></tspan></tspan></text>
 <text class="TextShape"><tspan class="TextParagraph" font-family="Arial, sans-serif" font-size="388px" font-weight="400"><tspan class="TextPosition" x="9864" y="10885"><tspan fill="rgb(0,0,0)" stroke="none">2014</tspan></tspan></tspan></text>
 <text class="TextShape"><tspan class="TextParagraph" font-family="Arial, sans-serif" font-size="388px" font-weight="400"><tspan class="TextPosition" x="11320" y="10885"><tspan fill="rgb(0,0,0)" stroke="none">2015</tspan></tspan></tspan></text>
 <text class="TextShape"><tspan class="TextParagraph" font-family="Arial, sans-serif" font-size="388px" font-weight="400"><tspan class="TextPosition" x="12777" y="10885"><tspan fill="rgb(0,0,0)" stroke="none">2016</tspan></tspan></tspan></text>
 <text class="TextShape"><tspan class="TextParagraph" font-family="Arial, sans-serif" font-size="388px" font-weight="400"><tspan class="TextPosition" x="14233" y="10885"><tspan fill="rgb(0,0,0)" stroke="none">2017</tspan></tspan></tspan></text>
 <text class="TextShape"><tspan class="TextParagraph" font-family="Arial, sans-serif" font-size="388px" font-weight="400"><tspan class="TextPosition" x="501" y="10425"><tspan fill="rgb(0,0,0)" stroke="none">0%</tspan></tspan></tspan></text>
 <text class="TextShape"><tspan class="TextParagraph" font-family="Arial, sans-serif" font-size="388px" font-weight="400"><tspan class="TextPosition" x="290" y="9490"><tspan fill="rgb(0,0,0)" stroke="none">10%</tspan></tspan></tspan></text>
 <text class="TextShape"><tspan class="TextParagraph" font-family="Arial, sans-serif" font-size="388px" font-weight="400"><tspan class="TextPosition" x="290" y="8556"><tspan fill="rgb(0,0,0)" stroke="none">20%</tspan></tspan></tspan></text>
 <text class="TextShape"><tspan class="TextParagraph" font-family="Arial, sans-serif" font-size="388px" font-weight="400"><tspan class="TextPosition" x="290" y="7622"><tspan fill="rgb(0,0,0)" stroke="none">30%</tspan></tspan></tspan></text>
 <text class="TextShape"><tspan class="TextParagraph" font-family="Arial, sans-serif" font-size="388px" font-weight="400"><tspan class="TextPosition" x="290" y="6688"><tspan fill="rgb(0,0,0)" stroke="none">40%</tspan></tspan></tspan></text>
 <text class="TextShape"><tspan class="TextParagraph" font-family="Arial, sans-serif" font-size="388px" font-weight="400"><tspan class="TextPosition" x="290" y="5754"><tspan fill="rgb(0,0,0)" stroke="none">50%</tspan></tspan></tspan></text>
 <text class="TextShape"><tspan class="TextParagraph" font-family="Arial, sans-serif" font-size="388px" font-weight="400"><tspan class="TextPosition" x="290" y="4820"><tspan fill="rgb(0,0,0)" stroke="none">60%</tspan></tspan></tspan></text>
 <text class="TextShape"><tspan class="TextParagraph" font-family="Arial, sans-serif" font-size="388px" font-weight="400"><tspan class="TextPosition" x="290" y="3886"><tspan fill="rgb(0,0,0)" stroke="none">70%</tspan></tspan></tspan></text>
 <text class="TextShape"><tspan class="TextParagraph" font-family="Arial, sans-serif" font-size="388px" font-weight="400"><tspan class="TextPosition" x="290" y="2952"><tspan fill="rgb(0,0,0)" stroke="none">80%</tspan></tspan></tspan></text>
 <text class="TextShape"><tspan class="TextParagraph" font-family="Arial, sans-serif" font-size="388px" font-weight="400"><tspan class="TextPosition" x="290" y="2018"><tspan fill="rgb(0,0,0)" stroke="none">90%</tspan></tspan></tspan></text>
 <text class="TextShape"><tspan class="TextParagraph" font-family="Arial, sans-serif" font-size="388px" font-weight="400"><tspan class="TextPosition" x="78" y="1084"><tspan fill="rgb(0,0,0)" stroke="none">100%</tspan></tspan></tspan></text>
 <text class="TextShape"><tspan class="TextParagraph" font-family="Arial, sans-serif" font-size="388px" font-weight="400"><tspan class="TextPosition" x="15271" y="10425"><tspan fill="rgb(0,0,0)" stroke="none">0%</tspan></tspan></tspan></text>
 <text class="TextShape"><tspan class="TextParagraph" font-family="Arial, sans-serif" font-size="388px" font-weight="400"><tspan class="TextPosition" x="15271" y="9490"><tspan fill="rgb(0,0,0)" stroke="none">10%</tspan></tspan></tspan></text>
 <text class="TextShape"><tspan class="TextParagraph" font-family="Arial, sans-serif" font-size="388px" font-weight="400"><tspan class="TextPosition" x="15271" y="8556"><tspan fill="rgb(0,0,0)" stroke="none">20%</tspan></tspan></tspan></text>
 <text class="TextShape"><tspan class="TextParagraph" font-family="Arial, sans-serif" font-size="388px" font-weight="400"><tspan class="TextPosition" x="15271" y="7622"><tspan fill="rgb(0,0,0)" stroke="none">30%</tspan></tspan></tspan></text>
 <text class="TextShape"><tspan class="TextParagraph" font-family="Arial, sans-serif" font-size="388px" font-weight="400"><tspan class="TextPosition" x="15271" y="6688"><tspan fill="rgb(0,0,0)" stroke="none">40%</tspan></tspan></tspan></text>
 <text class="TextShape"><tspan class="TextParagraph" font-family="Arial, sans-serif" font-size="388px" font-weight="400"><tspan class="TextPosition" x="15271" y="5754"><tspan fill="rgb(0,0,0)" stroke="none">50%</tspan></tspan></tspan></text>
 <text class="TextShape"><tspan class="TextParagraph" font-family="Arial, sans-serif" font-size="388px" font-weight="400"><tspan class="TextPosition" x="15271" y="4820"><tspan fill="rgb(0,0,0)" stroke="none">60%</tspan></tspan></tspan></text>
 <text class="TextShape"><tspan class="TextParagraph" font-family="Arial, sans-serif" font-size="388px" font-weight="400"><tspan class="TextPosition" x="15271" y="3886"><tspan fill="rgb(0,0,0)" stroke="none">70%</tspan></tspan></tspan></text>
 <text class="TextShape"><tspan class="TextParagraph" font-family="Arial, sans-serif" font-size="388px" font-weight="400"><tspan class="TextPosition" x="15271" y="2952"><tspan fill="rgb(0,0,0)" stroke="none">80%</tspan></tspan></tspan></text>
 <text class="TextShape"><tspan class="TextParagraph" font-family="Arial, sans-serif" font-size="388px" font-weight="400"><tspan class="TextPosition" x="15271" y="2018"><tspan fill="rgb(0,0,0)" stroke="none">90%</tspan></tspan></tspan></text>
 <text class="TextShape"><tspan class="TextParagraph" font-family="Arial, sans-serif" font-size="388px" font-weight="400"><tspan class="TextPosition" x="15271" y="1084"><tspan fill="rgb(0,0,0)" stroke="none">100%</tspan></tspan></tspan></text>
 <text class="TextShape"><tspan class="TextParagraph" font-family="Liberation Sans, sans-serif" font-size="635px" font-weight="400"><tspan class="TextPosition" x="4204" y="747"><tspan fill="rgb(0,0,0)" stroke="none">Resoluciones ms frecuentes</tspan></tspan></tspan></text>
 <path fill="rgb(255,66,14)" stroke="none" d="M 1764,11466 L 1669,11466 1669,11276 1859,11276 1859,11466 1764,11466 Z"/>
 <path fill="rgb(0,69,134)" stroke="none" d="M 3879,11466 L 3784,11466 3784,11276 3974,11276 3974,11466 3879,11466 Z"/>
 <path fill="rgb(255,211,32)" stroke="none" d="M 5994,11466 L 5899,11466 5899,11276 6089,11276 6089,11466 5994,11466 Z"/>
 <path fill="rgb(131,202,255)" stroke="none" d="M 8293,11466 L 8198,11466 8198,11276 8388,11276 8388,11466 8293,11466 Z"/>
 <path fill="rgb(49,64,4)" stroke="none" d="M 10593,11466 L 10498,11466 10498,11276 10688,11276 10688,11466 10593,11466 Z"/>
 <path fill="rgb(126,0,33)" stroke="none" d="M 12893,11466 L 12798,11466 12798,11276 12988,11276 12988,11466 12893,11466 Z"/>
 <path fill="rgb(87,157,28)" stroke="none" d="M 1764,11885 L 1669,11885 1669,11695 1859,11695 1859,11885 1764,11885 Z"/>
 <path fill="rgb(75,31,111)" stroke="none" d="M 3879,11885 L 3784,11885 3784,11695 3974,11695 3974,11885 3879,11885 Z"/>
 <path fill="rgb(255,149,14)" stroke="none" d="M 5994,11885 L 5899,11885 5899,11695 6089,11695 6089,11885 5994,11885 Z"/>
 <path fill="rgb(174,207,0)" stroke="none" d="M 8293,11885 L 8198,11885 8198,11695 8388,11695 8388,11885 8293,11885 Z"/>
 <path fill="rgb(197,0,11)" stroke="none" d="M 10593,11885 L 10498,11885 10498,11695 10688,11695 10688,11885 10593,11885 Z"/>
 <path fill="rgb(0,132,209)" stroke="none" d="M 12893,11885 L 12798,11885 12798,11695 12988,11695 12988,11885 12893,11885 Z"/>
 <text class="TextShape"><tspan class="TextParagraph" font-family="Arial, sans-serif" font-size="318px" font-weight="400"><tspan class="TextPosition" x="1959" y="11477"><tspan fill="rgb(0,0,0)" stroke="none">360 x 640</tspan></tspan></tspan></text>
 <text class="TextShape"><tspan class="TextParagraph" font-family="Arial, sans-serif" font-size="318px" font-weight="400"><tspan class="TextPosition" x="4074" y="11477"><tspan fill="rgb(0,0,0)" stroke="none">1366 x 768</tspan></tspan></tspan></text>
 <text class="TextShape"><tspan class="TextParagraph" font-family="Arial, sans-serif" font-size="318px" font-weight="400"><tspan class="TextPosition" x="6189" y="11477"><tspan fill="rgb(0,0,0)" stroke="none">375 x 667</tspan></tspan></tspan></text>
 <text class="TextShape"><tspan class="TextParagraph" font-family="Arial, sans-serif" font-size="318px" font-weight="400"><tspan class="TextPosition" x="8488" y="11477"><tspan fill="rgb(0,0,0)" stroke="none">1920 x 1080</tspan></tspan></tspan></text>
 <text class="TextShape"><tspan class="TextParagraph" font-family="Arial, sans-serif" font-size="318px" font-weight="400"><tspan class="TextPosition" x="10788" y="11477"><tspan fill="rgb(0,0,0)" stroke="none">768 x 1024</tspan></tspan></tspan></text>
 <text class="TextShape"><tspan class="TextParagraph" font-family="Arial, sans-serif" font-size="318px" font-weight="400"><tspan class="TextPosition" x="13088" y="11477"><tspan fill="rgb(0,0,0)" stroke="none">320 x 568</tspan></tspan></tspan></text>
 <text class="TextShape"><tspan class="TextParagraph" font-family="Arial, sans-serif" font-size="318px" font-weight="400"><tspan class="TextPosition" x="1959" y="11896"><tspan fill="rgb(0,0,0)" stroke="none">1280 x 800</tspan></tspan></tspan></text>
 <text class="TextShape"><tspan class="TextParagraph" font-family="Arial, sans-serif" font-size="318px" font-weight="400"><tspan class="TextPosition" x="4074" y="11896"><tspan fill="rgb(0,0,0)" stroke="none">1440 x 900</tspan></tspan></tspan></text>
 <text class="TextShape"><tspan class="TextParagraph" font-family="Arial, sans-serif" font-size="318px" font-weight="400"><tspan class="TextPosition" x="6189" y="11896"><tspan fill="rgb(0,0,0)" stroke="none">1280 x 1024</tspan></tspan></tspan></text>
 <text class="TextShape"><tspan class="TextParagraph" font-family="Arial, sans-serif" font-size="318px" font-weight="400"><tspan class="TextPosition" x="8488" y="11896"><tspan fill="rgb(0,0,0)" stroke="none">1024 x 768</tspan></tspan></tspan></text>
 <text class="TextShape"><tspan class="TextParagraph" font-family="Arial, sans-serif" font-size="318px" font-weight="400"><tspan class="TextPosition" x="10788" y="11896"><tspan fill="rgb(0,0,0)" stroke="none">1680 x 1050</tspan></tspan></tspan></text>
 <text class="TextShape"><tspan class="TextParagraph" font-family="Arial, sans-serif" font-size="318px" font-weight="400"><tspan class="TextPosition" x="13088" y="11896"><tspan fill="rgb(0,0,0)" stroke="none">1024 x 600</tspan></tspan></tspan></text>
</svg>
