<?xml version="1.0" encoding="UTF-8"?>
<!DOCTYPE svg PUBLIC "-//W3C//DTD SVG 1.1//EN" "http://www.w3.org/Graphics/SVG/1.1/DTD/svg11.dtd">
<svg width="159mm" height="119mm" viewBox="0 0 15900 11900" version="1.1" xmlns="http://www.w3.org/2000/svg" stroke-width="28.222" stroke-linejoin="round" xml:space="preserve">
 <path fill="rgb(255,255,255)" stroke="none" d="M 7923,11897 L 0,11897 0,0 15846,0 15846,11897 7923,11897 Z"/>
 <path fill="none" stroke="rgb(0,0,0)" stroke-linejoin="round" d="M 7951,10587 L 1072,10587 1072,1152 14831,1152 14831,10587 7951,10587 Z"/>
 <path fill="none" stroke="rgb(0,0,0)" stroke-linejoin="round" d="M 14831,10586 L 1072,10586"/>
 <path fill="none" stroke="rgb(0,0,0)" stroke-linejoin="round" d="M 14831,9406 L 1072,9406"/>
 <path fill="none" stroke="rgb(0,0,0)" stroke-linejoin="round" d="M 14831,8227 L 1072,8227"/>
 <path fill="none" stroke="rgb(0,0,0)" stroke-linejoin="round" d="M 14831,7047 L 1072,7047"/>
 <path fill="none" stroke="rgb(0,0,0)" stroke-linejoin="round" d="M 14831,5869 L 1072,5869"/>
 <path fill="none" stroke="rgb(0,0,0)" stroke-linejoin="round" d="M 14831,4689 L 1072,4689"/>
 <path fill="none" stroke="rgb(0,0,0)" stroke-linejoin="round" d="M 14831,3509 L 1072,3509"/>
 <path fill="none" stroke="rgb(0,0,0)" stroke-linejoin="round" d="M 14831,2330 L 1072,2330"/>
 <path fill="none" stroke="rgb(0,0,0)" stroke-linejoin="round" d="M 14831,1151 L 1072,1151"/>
 <path fill="none" stroke="rgb(0,0,0)" stroke-width="30" stroke-linejoin="round" d="M 1072,10736 L 1072,10586"/>
 <path fill="none" stroke="rgb(0,0,0)" stroke-width="30" stroke-linejoin="round" d="M 1072,10736 L 1072,10586"/>
 <path fill="none" stroke="rgb(0,0,0)" stroke-width="30" stroke-linejoin="round" d="M 1194,10736 L 1194,10586"/>
 <path fill="none" stroke="rgb(0,0,0)" stroke-width="30" stroke-linejoin="round" d="M 1194,10736 L 1194,10586"/>
 <path fill="none" stroke="rgb(0,0,0)" stroke-width="30" stroke-linejoin="round" d="M 1317,10736 L 1317,10586"/>
 <path fill="none" stroke="rgb(0,0,0)" stroke-width="30" stroke-linejoin="round" d="M 1317,10736 L 1317,10586"/>
 <path fill="none" stroke="rgb(0,0,0)" stroke-width="30" stroke-linejoin="round" d="M 1440,10736 L 1440,10586"/>
 <path fill="none" stroke="rgb(0,0,0)" stroke-width="30" stroke-linejoin="round" d="M 1440,10736 L 1440,10586"/>
 <path fill="none" stroke="rgb(0,0,0)" stroke-width="30" stroke-linejoin="round" d="M 1563,10736 L 1563,10586"/>
 <path fill="none" stroke="rgb(0,0,0)" stroke-width="30" stroke-linejoin="round" d="M 1563,10736 L 1563,10586"/>
 <path fill="none" stroke="rgb(0,0,0)" stroke-width="30" stroke-linejoin="round" d="M 1685,10736 L 1685,10586"/>
 <path fill="none" stroke="rgb(0,0,0)" stroke-width="30" stroke-linejoin="round" d="M 1685,10736 L 1685,10586"/>
 <path fill="none" stroke="rgb(0,0,0)" stroke-width="30" stroke-linejoin="round" d="M 1808,10736 L 1808,10586"/>
 <path fill="none" stroke="rgb(0,0,0)" stroke-width="30" stroke-linejoin="round" d="M 1808,10736 L 1808,10586"/>
 <path fill="none" stroke="rgb(0,0,0)" stroke-width="30" stroke-linejoin="round" d="M 1931,10736 L 1931,10586"/>
 <path fill="none" stroke="rgb(0,0,0)" stroke-width="30" stroke-linejoin="round" d="M 1931,10736 L 1931,10586"/>
 <path fill="none" stroke="rgb(0,0,0)" stroke-width="30" stroke-linejoin="round" d="M 2054,10736 L 2054,10586"/>
 <path fill="none" stroke="rgb(0,0,0)" stroke-width="30" stroke-linejoin="round" d="M 2054,10736 L 2054,10586"/>
 <path fill="none" stroke="rgb(0,0,0)" stroke-width="30" stroke-linejoin="round" d="M 2177,10736 L 2177,10586"/>
 <path fill="none" stroke="rgb(0,0,0)" stroke-width="30" stroke-linejoin="round" d="M 2177,10736 L 2177,10586"/>
 <path fill="none" stroke="rgb(0,0,0)" stroke-width="30" stroke-linejoin="round" d="M 2299,10736 L 2299,10586"/>
 <path fill="none" stroke="rgb(0,0,0)" stroke-width="30" stroke-linejoin="round" d="M 2299,10736 L 2299,10586"/>
 <path fill="none" stroke="rgb(0,0,0)" stroke-width="30" stroke-linejoin="round" d="M 2422,10736 L 2422,10586"/>
 <path fill="none" stroke="rgb(0,0,0)" stroke-width="30" stroke-linejoin="round" d="M 2422,10736 L 2422,10586"/>
 <path fill="none" stroke="rgb(0,0,0)" stroke-width="30" stroke-linejoin="round" d="M 2545,10736 L 2545,10586"/>
 <path fill="none" stroke="rgb(0,0,0)" stroke-width="30" stroke-linejoin="round" d="M 2545,10736 L 2545,10586"/>
 <path fill="none" stroke="rgb(0,0,0)" stroke-width="30" stroke-linejoin="round" d="M 2668,10736 L 2668,10586"/>
 <path fill="none" stroke="rgb(0,0,0)" stroke-width="30" stroke-linejoin="round" d="M 2668,10736 L 2668,10586"/>
 <path fill="none" stroke="rgb(0,0,0)" stroke-width="30" stroke-linejoin="round" d="M 2791,10736 L 2791,10586"/>
 <path fill="none" stroke="rgb(0,0,0)" stroke-width="30" stroke-linejoin="round" d="M 2791,10736 L 2791,10586"/>
 <path fill="none" stroke="rgb(0,0,0)" stroke-width="30" stroke-linejoin="round" d="M 2914,10736 L 2914,10586"/>
 <path fill="none" stroke="rgb(0,0,0)" stroke-width="30" stroke-linejoin="round" d="M 2914,10736 L 2914,10586"/>
 <path fill="none" stroke="rgb(0,0,0)" stroke-width="30" stroke-linejoin="round" d="M 3037,10736 L 3037,10586"/>
 <path fill="none" stroke="rgb(0,0,0)" stroke-width="30" stroke-linejoin="round" d="M 3037,10736 L 3037,10586"/>
 <path fill="none" stroke="rgb(0,0,0)" stroke-width="30" stroke-linejoin="round" d="M 3160,10736 L 3160,10586"/>
 <path fill="none" stroke="rgb(0,0,0)" stroke-width="30" stroke-linejoin="round" d="M 3160,10736 L 3160,10586"/>
 <path fill="none" stroke="rgb(0,0,0)" stroke-width="30" stroke-linejoin="round" d="M 3283,10736 L 3283,10586"/>
 <path fill="none" stroke="rgb(0,0,0)" stroke-width="30" stroke-linejoin="round" d="M 3283,10736 L 3283,10586"/>
 <path fill="none" stroke="rgb(0,0,0)" stroke-width="30" stroke-linejoin="round" d="M 3405,10736 L 3405,10586"/>
 <path fill="none" stroke="rgb(0,0,0)" stroke-width="30" stroke-linejoin="round" d="M 3405,10736 L 3405,10586"/>
 <path fill="none" stroke="rgb(0,0,0)" stroke-width="30" stroke-linejoin="round" d="M 3528,10736 L 3528,10586"/>
 <path fill="none" stroke="rgb(0,0,0)" stroke-width="30" stroke-linejoin="round" d="M 3528,10736 L 3528,10586"/>
 <path fill="none" stroke="rgb(0,0,0)" stroke-width="30" stroke-linejoin="round" d="M 3651,10736 L 3651,10586"/>
 <path fill="none" stroke="rgb(0,0,0)" stroke-width="30" stroke-linejoin="round" d="M 3651,10736 L 3651,10586"/>
 <path fill="none" stroke="rgb(0,0,0)" stroke-width="30" stroke-linejoin="round" d="M 3774,10736 L 3774,10586"/>
 <path fill="none" stroke="rgb(0,0,0)" stroke-width="30" stroke-linejoin="round" d="M 3774,10736 L 3774,10586"/>
 <path fill="none" stroke="rgb(0,0,0)" stroke-width="30" stroke-linejoin="round" d="M 3897,10736 L 3897,10586"/>
 <path fill="none" stroke="rgb(0,0,0)" stroke-width="30" stroke-linejoin="round" d="M 3897,10736 L 3897,10586"/>
 <path fill="none" stroke="rgb(0,0,0)" stroke-width="30" stroke-linejoin="round" d="M 4020,10736 L 4020,10586"/>
 <path fill="none" stroke="rgb(0,0,0)" stroke-width="30" stroke-linejoin="round" d="M 4020,10736 L 4020,10586"/>
 <path fill="none" stroke="rgb(0,0,0)" stroke-width="30" stroke-linejoin="round" d="M 4143,10736 L 4143,10586"/>
 <path fill="none" stroke="rgb(0,0,0)" stroke-width="30" stroke-linejoin="round" d="M 4143,10736 L 4143,10586"/>
 <path fill="none" stroke="rgb(0,0,0)" stroke-width="30" stroke-linejoin="round" d="M 4266,10736 L 4266,10586"/>
 <path fill="none" stroke="rgb(0,0,0)" stroke-width="30" stroke-linejoin="round" d="M 4266,10736 L 4266,10586"/>
 <path fill="none" stroke="rgb(0,0,0)" stroke-width="30" stroke-linejoin="round" d="M 4389,10736 L 4389,10586"/>
 <path fill="none" stroke="rgb(0,0,0)" stroke-width="30" stroke-linejoin="round" d="M 4389,10736 L 4389,10586"/>
 <path fill="none" stroke="rgb(0,0,0)" stroke-width="30" stroke-linejoin="round" d="M 4512,10736 L 4512,10586"/>
 <path fill="none" stroke="rgb(0,0,0)" stroke-width="30" stroke-linejoin="round" d="M 4512,10736 L 4512,10586"/>
 <path fill="none" stroke="rgb(0,0,0)" stroke-width="30" stroke-linejoin="round" d="M 4634,10736 L 4634,10586"/>
 <path fill="none" stroke="rgb(0,0,0)" stroke-width="30" stroke-linejoin="round" d="M 4634,10736 L 4634,10586"/>
 <path fill="none" stroke="rgb(0,0,0)" stroke-width="30" stroke-linejoin="round" d="M 4756,10736 L 4756,10586"/>
 <path fill="none" stroke="rgb(0,0,0)" stroke-width="30" stroke-linejoin="round" d="M 4756,10736 L 4756,10586"/>
 <path fill="none" stroke="rgb(0,0,0)" stroke-width="30" stroke-linejoin="round" d="M 4879,10736 L 4879,10586"/>
 <path fill="none" stroke="rgb(0,0,0)" stroke-width="30" stroke-linejoin="round" d="M 4879,10736 L 4879,10586"/>
 <path fill="none" stroke="rgb(0,0,0)" stroke-width="30" stroke-linejoin="round" d="M 5002,10736 L 5002,10586"/>
 <path fill="none" stroke="rgb(0,0,0)" stroke-width="30" stroke-linejoin="round" d="M 5002,10736 L 5002,10586"/>
 <path fill="none" stroke="rgb(0,0,0)" stroke-width="30" stroke-linejoin="round" d="M 5125,10736 L 5125,10586"/>
 <path fill="none" stroke="rgb(0,0,0)" stroke-width="30" stroke-linejoin="round" d="M 5125,10736 L 5125,10586"/>
 <path fill="none" stroke="rgb(0,0,0)" stroke-width="30" stroke-linejoin="round" d="M 5248,10736 L 5248,10586"/>
 <path fill="none" stroke="rgb(0,0,0)" stroke-width="30" stroke-linejoin="round" d="M 5248,10736 L 5248,10586"/>
 <path fill="none" stroke="rgb(0,0,0)" stroke-width="30" stroke-linejoin="round" d="M 5371,10736 L 5371,10586"/>
 <path fill="none" stroke="rgb(0,0,0)" stroke-width="30" stroke-linejoin="round" d="M 5371,10736 L 5371,10586"/>
 <path fill="none" stroke="rgb(0,0,0)" stroke-width="30" stroke-linejoin="round" d="M 5494,10736 L 5494,10586"/>
 <path fill="none" stroke="rgb(0,0,0)" stroke-width="30" stroke-linejoin="round" d="M 5494,10736 L 5494,10586"/>
 <path fill="none" stroke="rgb(0,0,0)" stroke-width="30" stroke-linejoin="round" d="M 5617,10736 L 5617,10586"/>
 <path fill="none" stroke="rgb(0,0,0)" stroke-width="30" stroke-linejoin="round" d="M 5617,10736 L 5617,10586"/>
 <path fill="none" stroke="rgb(0,0,0)" stroke-width="30" stroke-linejoin="round" d="M 5739,10736 L 5739,10586"/>
 <path fill="none" stroke="rgb(0,0,0)" stroke-width="30" stroke-linejoin="round" d="M 5739,10736 L 5739,10586"/>
 <path fill="none" stroke="rgb(0,0,0)" stroke-width="30" stroke-linejoin="round" d="M 5862,10736 L 5862,10586"/>
 <path fill="none" stroke="rgb(0,0,0)" stroke-width="30" stroke-linejoin="round" d="M 5862,10736 L 5862,10586"/>
 <path fill="none" stroke="rgb(0,0,0)" stroke-width="30" stroke-linejoin="round" d="M 5985,10736 L 5985,10586"/>
 <path fill="none" stroke="rgb(0,0,0)" stroke-width="30" stroke-linejoin="round" d="M 5985,10736 L 5985,10586"/>
 <path fill="none" stroke="rgb(0,0,0)" stroke-width="30" stroke-linejoin="round" d="M 6108,10736 L 6108,10586"/>
 <path fill="none" stroke="rgb(0,0,0)" stroke-width="30" stroke-linejoin="round" d="M 6108,10736 L 6108,10586"/>
 <path fill="none" stroke="rgb(0,0,0)" stroke-width="30" stroke-linejoin="round" d="M 6231,10736 L 6231,10586"/>
 <path fill="none" stroke="rgb(0,0,0)" stroke-width="30" stroke-linejoin="round" d="M 6231,10736 L 6231,10586"/>
 <path fill="none" stroke="rgb(0,0,0)" stroke-width="30" stroke-linejoin="round" d="M 6354,10736 L 6354,10586"/>
 <path fill="none" stroke="rgb(0,0,0)" stroke-width="30" stroke-linejoin="round" d="M 6354,10736 L 6354,10586"/>
 <path fill="none" stroke="rgb(0,0,0)" stroke-width="30" stroke-linejoin="round" d="M 6477,10736 L 6477,10586"/>
 <path fill="none" stroke="rgb(0,0,0)" stroke-width="30" stroke-linejoin="round" d="M 6477,10736 L 6477,10586"/>
 <path fill="none" stroke="rgb(0,0,0)" stroke-width="30" stroke-linejoin="round" d="M 6600,10736 L 6600,10586"/>
 <path fill="none" stroke="rgb(0,0,0)" stroke-width="30" stroke-linejoin="round" d="M 6600,10736 L 6600,10586"/>
 <path fill="none" stroke="rgb(0,0,0)" stroke-width="30" stroke-linejoin="round" d="M 6723,10736 L 6723,10586"/>
 <path fill="none" stroke="rgb(0,0,0)" stroke-width="30" stroke-linejoin="round" d="M 6723,10736 L 6723,10586"/>
 <path fill="none" stroke="rgb(0,0,0)" stroke-width="30" stroke-linejoin="round" d="M 6845,10736 L 6845,10586"/>
 <path fill="none" stroke="rgb(0,0,0)" stroke-width="30" stroke-linejoin="round" d="M 6845,10736 L 6845,10586"/>
 <path fill="none" stroke="rgb(0,0,0)" stroke-width="30" stroke-linejoin="round" d="M 6968,10736 L 6968,10586"/>
 <path fill="none" stroke="rgb(0,0,0)" stroke-width="30" stroke-linejoin="round" d="M 6968,10736 L 6968,10586"/>
 <path fill="none" stroke="rgb(0,0,0)" stroke-width="30" stroke-linejoin="round" d="M 7091,10736 L 7091,10586"/>
 <path fill="none" stroke="rgb(0,0,0)" stroke-width="30" stroke-linejoin="round" d="M 7091,10736 L 7091,10586"/>
 <path fill="none" stroke="rgb(0,0,0)" stroke-width="30" stroke-linejoin="round" d="M 7214,10736 L 7214,10586"/>
 <path fill="none" stroke="rgb(0,0,0)" stroke-width="30" stroke-linejoin="round" d="M 7214,10736 L 7214,10586"/>
 <path fill="none" stroke="rgb(0,0,0)" stroke-width="30" stroke-linejoin="round" d="M 7337,10736 L 7337,10586"/>
 <path fill="none" stroke="rgb(0,0,0)" stroke-width="30" stroke-linejoin="round" d="M 7337,10736 L 7337,10586"/>
 <path fill="none" stroke="rgb(0,0,0)" stroke-width="30" stroke-linejoin="round" d="M 7460,10736 L 7460,10586"/>
 <path fill="none" stroke="rgb(0,0,0)" stroke-width="30" stroke-linejoin="round" d="M 7460,10736 L 7460,10586"/>
 <path fill="none" stroke="rgb(0,0,0)" stroke-width="30" stroke-linejoin="round" d="M 7583,10736 L 7583,10586"/>
 <path fill="none" stroke="rgb(0,0,0)" stroke-width="30" stroke-linejoin="round" d="M 7583,10736 L 7583,10586"/>
 <path fill="none" stroke="rgb(0,0,0)" stroke-width="30" stroke-linejoin="round" d="M 7706,10736 L 7706,10586"/>
 <path fill="none" stroke="rgb(0,0,0)" stroke-width="30" stroke-linejoin="round" d="M 7706,10736 L 7706,10586"/>
 <path fill="none" stroke="rgb(0,0,0)" stroke-width="30" stroke-linejoin="round" d="M 7829,10736 L 7829,10586"/>
 <path fill="none" stroke="rgb(0,0,0)" stroke-width="30" stroke-linejoin="round" d="M 7829,10736 L 7829,10586"/>
 <path fill="none" stroke="rgb(0,0,0)" stroke-width="30" stroke-linejoin="round" d="M 7951,10736 L 7951,10586"/>
 <path fill="none" stroke="rgb(0,0,0)" stroke-width="30" stroke-linejoin="round" d="M 7951,10736 L 7951,10586"/>
 <path fill="none" stroke="rgb(0,0,0)" stroke-width="30" stroke-linejoin="round" d="M 8073,10736 L 8073,10586"/>
 <path fill="none" stroke="rgb(0,0,0)" stroke-width="30" stroke-linejoin="round" d="M 8073,10736 L 8073,10586"/>
 <path fill="none" stroke="rgb(0,0,0)" stroke-width="30" stroke-linejoin="round" d="M 8196,10736 L 8196,10586"/>
 <path fill="none" stroke="rgb(0,0,0)" stroke-width="30" stroke-linejoin="round" d="M 8196,10736 L 8196,10586"/>
 <path fill="none" stroke="rgb(0,0,0)" stroke-width="30" stroke-linejoin="round" d="M 8319,10736 L 8319,10586"/>
 <path fill="none" stroke="rgb(0,0,0)" stroke-width="30" stroke-linejoin="round" d="M 8319,10736 L 8319,10586"/>
 <path fill="none" stroke="rgb(0,0,0)" stroke-width="30" stroke-linejoin="round" d="M 8442,10736 L 8442,10586"/>
 <path fill="none" stroke="rgb(0,0,0)" stroke-width="30" stroke-linejoin="round" d="M 8442,10736 L 8442,10586"/>
 <path fill="none" stroke="rgb(0,0,0)" stroke-width="30" stroke-linejoin="round" d="M 8565,10736 L 8565,10586"/>
 <path fill="none" stroke="rgb(0,0,0)" stroke-width="30" stroke-linejoin="round" d="M 8565,10736 L 8565,10586"/>
 <path fill="none" stroke="rgb(0,0,0)" stroke-width="30" stroke-linejoin="round" d="M 8688,10736 L 8688,10586"/>
 <path fill="none" stroke="rgb(0,0,0)" stroke-width="30" stroke-linejoin="round" d="M 8688,10736 L 8688,10586"/>
 <path fill="none" stroke="rgb(0,0,0)" stroke-width="30" stroke-linejoin="round" d="M 8811,10736 L 8811,10586"/>
 <path fill="none" stroke="rgb(0,0,0)" stroke-width="30" stroke-linejoin="round" d="M 8811,10736 L 8811,10586"/>
 <path fill="none" stroke="rgb(0,0,0)" stroke-width="30" stroke-linejoin="round" d="M 8934,10736 L 8934,10586"/>
 <path fill="none" stroke="rgb(0,0,0)" stroke-width="30" stroke-linejoin="round" d="M 8934,10736 L 8934,10586"/>
 <path fill="none" stroke="rgb(0,0,0)" stroke-width="30" stroke-linejoin="round" d="M 9057,10736 L 9057,10586"/>
 <path fill="none" stroke="rgb(0,0,0)" stroke-width="30" stroke-linejoin="round" d="M 9057,10736 L 9057,10586"/>
 <path fill="none" stroke="rgb(0,0,0)" stroke-width="30" stroke-linejoin="round" d="M 9179,10736 L 9179,10586"/>
 <path fill="none" stroke="rgb(0,0,0)" stroke-width="30" stroke-linejoin="round" d="M 9179,10736 L 9179,10586"/>
 <path fill="none" stroke="rgb(0,0,0)" stroke-width="30" stroke-linejoin="round" d="M 9302,10736 L 9302,10586"/>
 <path fill="none" stroke="rgb(0,0,0)" stroke-width="30" stroke-linejoin="round" d="M 9302,10736 L 9302,10586"/>
 <path fill="none" stroke="rgb(0,0,0)" stroke-width="30" stroke-linejoin="round" d="M 9425,10736 L 9425,10586"/>
 <path fill="none" stroke="rgb(0,0,0)" stroke-width="30" stroke-linejoin="round" d="M 9425,10736 L 9425,10586"/>
 <path fill="none" stroke="rgb(0,0,0)" stroke-width="30" stroke-linejoin="round" d="M 9548,10736 L 9548,10586"/>
 <path fill="none" stroke="rgb(0,0,0)" stroke-width="30" stroke-linejoin="round" d="M 9548,10736 L 9548,10586"/>
 <path fill="none" stroke="rgb(0,0,0)" stroke-width="30" stroke-linejoin="round" d="M 9671,10736 L 9671,10586"/>
 <path fill="none" stroke="rgb(0,0,0)" stroke-width="30" stroke-linejoin="round" d="M 9671,10736 L 9671,10586"/>
 <path fill="none" stroke="rgb(0,0,0)" stroke-width="30" stroke-linejoin="round" d="M 9794,10736 L 9794,10586"/>
 <path fill="none" stroke="rgb(0,0,0)" stroke-width="30" stroke-linejoin="round" d="M 9794,10736 L 9794,10586"/>
 <path fill="none" stroke="rgb(0,0,0)" stroke-width="30" stroke-linejoin="round" d="M 9917,10736 L 9917,10586"/>
 <path fill="none" stroke="rgb(0,0,0)" stroke-width="30" stroke-linejoin="round" d="M 9917,10736 L 9917,10586"/>
 <path fill="none" stroke="rgb(0,0,0)" stroke-width="30" stroke-linejoin="round" d="M 10040,10736 L 10040,10586"/>
 <path fill="none" stroke="rgb(0,0,0)" stroke-width="30" stroke-linejoin="round" d="M 10040,10736 L 10040,10586"/>
 <path fill="none" stroke="rgb(0,0,0)" stroke-width="30" stroke-linejoin="round" d="M 10163,10736 L 10163,10586"/>
 <path fill="none" stroke="rgb(0,0,0)" stroke-width="30" stroke-linejoin="round" d="M 10163,10736 L 10163,10586"/>
 <path fill="none" stroke="rgb(0,0,0)" stroke-width="30" stroke-linejoin="round" d="M 10285,10736 L 10285,10586"/>
 <path fill="none" stroke="rgb(0,0,0)" stroke-width="30" stroke-linejoin="round" d="M 10285,10736 L 10285,10586"/>
 <path fill="none" stroke="rgb(0,0,0)" stroke-width="30" stroke-linejoin="round" d="M 10408,10736 L 10408,10586"/>
 <path fill="none" stroke="rgb(0,0,0)" stroke-width="30" stroke-linejoin="round" d="M 10408,10736 L 10408,10586"/>
 <path fill="none" stroke="rgb(0,0,0)" stroke-width="30" stroke-linejoin="round" d="M 10531,10736 L 10531,10586"/>
 <path fill="none" stroke="rgb(0,0,0)" stroke-width="30" stroke-linejoin="round" d="M 10531,10736 L 10531,10586"/>
 <path fill="none" stroke="rgb(0,0,0)" stroke-width="30" stroke-linejoin="round" d="M 10654,10736 L 10654,10586"/>
 <path fill="none" stroke="rgb(0,0,0)" stroke-width="30" stroke-linejoin="round" d="M 10654,10736 L 10654,10586"/>
 <path fill="none" stroke="rgb(0,0,0)" stroke-width="30" stroke-linejoin="round" d="M 10777,10736 L 10777,10586"/>
 <path fill="none" stroke="rgb(0,0,0)" stroke-width="30" stroke-linejoin="round" d="M 10777,10736 L 10777,10586"/>
 <path fill="none" stroke="rgb(0,0,0)" stroke-width="30" stroke-linejoin="round" d="M 10900,10736 L 10900,10586"/>
 <path fill="none" stroke="rgb(0,0,0)" stroke-width="30" stroke-linejoin="round" d="M 10900,10736 L 10900,10586"/>
 <path fill="none" stroke="rgb(0,0,0)" stroke-width="30" stroke-linejoin="round" d="M 11023,10736 L 11023,10586"/>
 <path fill="none" stroke="rgb(0,0,0)" stroke-width="30" stroke-linejoin="round" d="M 11023,10736 L 11023,10586"/>
 <path fill="none" stroke="rgb(0,0,0)" stroke-width="30" stroke-linejoin="round" d="M 11145,10736 L 11145,10586"/>
 <path fill="none" stroke="rgb(0,0,0)" stroke-width="30" stroke-linejoin="round" d="M 11145,10736 L 11145,10586"/>
 <path fill="none" stroke="rgb(0,0,0)" stroke-width="30" stroke-linejoin="round" d="M 11268,10736 L 11268,10586"/>
 <path fill="none" stroke="rgb(0,0,0)" stroke-width="30" stroke-linejoin="round" d="M 11268,10736 L 11268,10586"/>
 <path fill="none" stroke="rgb(0,0,0)" stroke-width="30" stroke-linejoin="round" d="M 11391,10736 L 11391,10586"/>
 <path fill="none" stroke="rgb(0,0,0)" stroke-width="30" stroke-linejoin="round" d="M 11391,10736 L 11391,10586"/>
 <path fill="none" stroke="rgb(0,0,0)" stroke-width="30" stroke-linejoin="round" d="M 11513,10736 L 11513,10586"/>
 <path fill="none" stroke="rgb(0,0,0)" stroke-width="30" stroke-linejoin="round" d="M 11513,10736 L 11513,10586"/>
 <path fill="none" stroke="rgb(0,0,0)" stroke-width="30" stroke-linejoin="round" d="M 11636,10736 L 11636,10586"/>
 <path fill="none" stroke="rgb(0,0,0)" stroke-width="30" stroke-linejoin="round" d="M 11636,10736 L 11636,10586"/>
 <path fill="none" stroke="rgb(0,0,0)" stroke-width="30" stroke-linejoin="round" d="M 11759,10736 L 11759,10586"/>
 <path fill="none" stroke="rgb(0,0,0)" stroke-width="30" stroke-linejoin="round" d="M 11759,10736 L 11759,10586"/>
 <path fill="none" stroke="rgb(0,0,0)" stroke-width="30" stroke-linejoin="round" d="M 11882,10736 L 11882,10586"/>
 <path fill="none" stroke="rgb(0,0,0)" stroke-width="30" stroke-linejoin="round" d="M 11882,10736 L 11882,10586"/>
 <path fill="none" stroke="rgb(0,0,0)" stroke-width="30" stroke-linejoin="round" d="M 12005,10736 L 12005,10586"/>
 <path fill="none" stroke="rgb(0,0,0)" stroke-width="30" stroke-linejoin="round" d="M 12005,10736 L 12005,10586"/>
 <path fill="none" stroke="rgb(0,0,0)" stroke-width="30" stroke-linejoin="round" d="M 12128,10736 L 12128,10586"/>
 <path fill="none" stroke="rgb(0,0,0)" stroke-width="30" stroke-linejoin="round" d="M 12128,10736 L 12128,10586"/>
 <path fill="none" stroke="rgb(0,0,0)" stroke-width="30" stroke-linejoin="round" d="M 12251,10736 L 12251,10586"/>
 <path fill="none" stroke="rgb(0,0,0)" stroke-width="30" stroke-linejoin="round" d="M 12251,10736 L 12251,10586"/>
 <path fill="none" stroke="rgb(0,0,0)" stroke-width="30" stroke-linejoin="round" d="M 12374,10736 L 12374,10586"/>
 <path fill="none" stroke="rgb(0,0,0)" stroke-width="30" stroke-linejoin="round" d="M 12374,10736 L 12374,10586"/>
 <path fill="none" stroke="rgb(0,0,0)" stroke-width="30" stroke-linejoin="round" d="M 12497,10736 L 12497,10586"/>
 <path fill="none" stroke="rgb(0,0,0)" stroke-width="30" stroke-linejoin="round" d="M 12497,10736 L 12497,10586"/>
 <path fill="none" stroke="rgb(0,0,0)" stroke-width="30" stroke-linejoin="round" d="M 12619,10736 L 12619,10586"/>
 <path fill="none" stroke="rgb(0,0,0)" stroke-width="30" stroke-linejoin="round" d="M 12619,10736 L 12619,10586"/>
 <path fill="none" stroke="rgb(0,0,0)" stroke-width="30" stroke-linejoin="round" d="M 12742,10736 L 12742,10586"/>
 <path fill="none" stroke="rgb(0,0,0)" stroke-width="30" stroke-linejoin="round" d="M 12742,10736 L 12742,10586"/>
 <path fill="none" stroke="rgb(0,0,0)" stroke-width="30" stroke-linejoin="round" d="M 12865,10736 L 12865,10586"/>
 <path fill="none" stroke="rgb(0,0,0)" stroke-width="30" stroke-linejoin="round" d="M 12865,10736 L 12865,10586"/>
 <path fill="none" stroke="rgb(0,0,0)" stroke-width="30" stroke-linejoin="round" d="M 12988,10736 L 12988,10586"/>
 <path fill="none" stroke="rgb(0,0,0)" stroke-width="30" stroke-linejoin="round" d="M 12988,10736 L 12988,10586"/>
 <path fill="none" stroke="rgb(0,0,0)" stroke-width="30" stroke-linejoin="round" d="M 13111,10736 L 13111,10586"/>
 <path fill="none" stroke="rgb(0,0,0)" stroke-width="30" stroke-linejoin="round" d="M 13111,10736 L 13111,10586"/>
 <path fill="none" stroke="rgb(0,0,0)" stroke-width="30" stroke-linejoin="round" d="M 13234,10736 L 13234,10586"/>
 <path fill="none" stroke="rgb(0,0,0)" stroke-width="30" stroke-linejoin="round" d="M 13234,10736 L 13234,10586"/>
 <path fill="none" stroke="rgb(0,0,0)" stroke-width="30" stroke-linejoin="round" d="M 13357,10736 L 13357,10586"/>
 <path fill="none" stroke="rgb(0,0,0)" stroke-width="30" stroke-linejoin="round" d="M 13357,10736 L 13357,10586"/>
 <path fill="none" stroke="rgb(0,0,0)" stroke-width="30" stroke-linejoin="round" d="M 13480,10736 L 13480,10586"/>
 <path fill="none" stroke="rgb(0,0,0)" stroke-width="30" stroke-linejoin="round" d="M 13480,10736 L 13480,10586"/>
 <path fill="none" stroke="rgb(0,0,0)" stroke-width="30" stroke-linejoin="round" d="M 13603,10736 L 13603,10586"/>
 <path fill="none" stroke="rgb(0,0,0)" stroke-width="30" stroke-linejoin="round" d="M 13603,10736 L 13603,10586"/>
 <path fill="none" stroke="rgb(0,0,0)" stroke-width="30" stroke-linejoin="round" d="M 13725,10736 L 13725,10586"/>
 <path fill="none" stroke="rgb(0,0,0)" stroke-width="30" stroke-linejoin="round" d="M 13725,10736 L 13725,10586"/>
 <path fill="none" stroke="rgb(0,0,0)" stroke-width="30" stroke-linejoin="round" d="M 13848,10736 L 13848,10586"/>
 <path fill="none" stroke="rgb(0,0,0)" stroke-width="30" stroke-linejoin="round" d="M 13848,10736 L 13848,10586"/>
 <path fill="none" stroke="rgb(0,0,0)" stroke-width="30" stroke-linejoin="round" d="M 13971,10736 L 13971,10586"/>
 <path fill="none" stroke="rgb(0,0,0)" stroke-width="30" stroke-linejoin="round" d="M 13971,10736 L 13971,10586"/>
 <path fill="none" stroke="rgb(0,0,0)" stroke-width="30" stroke-linejoin="round" d="M 14094,10736 L 14094,10586"/>
 <path fill="none" stroke="rgb(0,0,0)" stroke-width="30" stroke-linejoin="round" d="M 14094,10736 L 14094,10586"/>
 <path fill="none" stroke="rgb(0,0,0)" stroke-width="30" stroke-linejoin="round" d="M 14217,10736 L 14217,10586"/>
 <path fill="none" stroke="rgb(0,0,0)" stroke-width="30" stroke-linejoin="round" d="M 14217,10736 L 14217,10586"/>
 <path fill="none" stroke="rgb(0,0,0)" stroke-width="30" stroke-linejoin="round" d="M 14339,10736 L 14339,10586"/>
 <path fill="none" stroke="rgb(0,0,0)" stroke-width="30" stroke-linejoin="round" d="M 14339,10736 L 14339,10586"/>
 <path fill="none" stroke="rgb(0,0,0)" stroke-width="30" stroke-linejoin="round" d="M 14462,10736 L 14462,10586"/>
 <path fill="none" stroke="rgb(0,0,0)" stroke-width="30" stroke-linejoin="round" d="M 14462,10736 L 14462,10586"/>
 <path fill="none" stroke="rgb(0,0,0)" stroke-width="30" stroke-linejoin="round" d="M 14585,10736 L 14585,10586"/>
 <path fill="none" stroke="rgb(0,0,0)" stroke-width="30" stroke-linejoin="round" d="M 14585,10736 L 14585,10586"/>
 <path fill="none" stroke="rgb(0,0,0)" stroke-width="30" stroke-linejoin="round" d="M 14708,10736 L 14708,10586"/>
 <path fill="none" stroke="rgb(0,0,0)" stroke-width="30" stroke-linejoin="round" d="M 14708,10736 L 14708,10586"/>
 <path fill="none" stroke="rgb(0,0,0)" stroke-width="30" stroke-linejoin="round" d="M 14831,10736 L 14831,10586"/>
 <path fill="none" stroke="rgb(0,0,0)" stroke-width="30" stroke-linejoin="round" d="M 14831,10736 L 14831,10586"/>
 <path fill="none" stroke="rgb(0,0,0)" stroke-width="30" stroke-linejoin="round" d="M 1072,10586 L 14831,10586"/>
 <path fill="none" stroke="rgb(0,0,0)" stroke-linejoin="round" d="M 922,10586 L 1222,10586"/>
 <path fill="none" stroke="rgb(0,0,0)" stroke-linejoin="round" d="M 922,10586 L 1222,10586"/>
 <path fill="none" stroke="rgb(0,0,0)" stroke-linejoin="round" d="M 922,9406 L 1222,9406"/>
 <path fill="none" stroke="rgb(0,0,0)" stroke-linejoin="round" d="M 922,9406 L 1222,9406"/>
 <path fill="none" stroke="rgb(0,0,0)" stroke-linejoin="round" d="M 922,8227 L 1222,8227"/>
 <path fill="none" stroke="rgb(0,0,0)" stroke-linejoin="round" d="M 922,8227 L 1222,8227"/>
 <path fill="none" stroke="rgb(0,0,0)" stroke-linejoin="round" d="M 922,7047 L 1222,7047"/>
 <path fill="none" stroke="rgb(0,0,0)" stroke-linejoin="round" d="M 922,7047 L 1222,7047"/>
 <path fill="none" stroke="rgb(0,0,0)" stroke-linejoin="round" d="M 922,5869 L 1222,5869"/>
 <path fill="none" stroke="rgb(0,0,0)" stroke-linejoin="round" d="M 922,5869 L 1222,5869"/>
 <path fill="none" stroke="rgb(0,0,0)" stroke-linejoin="round" d="M 922,4689 L 1222,4689"/>
 <path fill="none" stroke="rgb(0,0,0)" stroke-linejoin="round" d="M 922,4689 L 1222,4689"/>
 <path fill="none" stroke="rgb(0,0,0)" stroke-linejoin="round" d="M 922,3509 L 1222,3509"/>
 <path fill="none" stroke="rgb(0,0,0)" stroke-linejoin="round" d="M 922,3509 L 1222,3509"/>
 <path fill="none" stroke="rgb(0,0,0)" stroke-linejoin="round" d="M 922,2330 L 1222,2330"/>
 <path fill="none" stroke="rgb(0,0,0)" stroke-linejoin="round" d="M 922,2330 L 1222,2330"/>
 <path fill="none" stroke="rgb(0,0,0)" stroke-linejoin="round" d="M 922,1151 L 1222,1151"/>
 <path fill="none" stroke="rgb(0,0,0)" stroke-linejoin="round" d="M 922,1151 L 1222,1151"/>
 <path fill="none" stroke="rgb(0,0,0)" stroke-linejoin="round" d="M 1072,10586 L 1072,1151"/>
 <path fill="none" stroke="rgb(0,0,0)" stroke-linejoin="round" d="M 14981,10586 L 14831,10586"/>
 <path fill="none" stroke="rgb(0,0,0)" stroke-linejoin="round" d="M 14981,10586 L 14831,10586"/>
 <path fill="none" stroke="rgb(0,0,0)" stroke-linejoin="round" d="M 14981,9406 L 14831,9406"/>
 <path fill="none" stroke="rgb(0,0,0)" stroke-linejoin="round" d="M 14981,9406 L 14831,9406"/>
 <path fill="none" stroke="rgb(0,0,0)" stroke-linejoin="round" d="M 14981,8227 L 14831,8227"/>
 <path fill="none" stroke="rgb(0,0,0)" stroke-linejoin="round" d="M 14981,8227 L 14831,8227"/>
 <path fill="none" stroke="rgb(0,0,0)" stroke-linejoin="round" d="M 14981,7047 L 14831,7047"/>
 <path fill="none" stroke="rgb(0,0,0)" stroke-linejoin="round" d="M 14981,7047 L 14831,7047"/>
 <path fill="none" stroke="rgb(0,0,0)" stroke-linejoin="round" d="M 14981,5869 L 14831,5869"/>
 <path fill="none" stroke="rgb(0,0,0)" stroke-linejoin="round" d="M 14981,5869 L 14831,5869"/>
 <path fill="none" stroke="rgb(0,0,0)" stroke-linejoin="round" d="M 14981,4689 L 14831,4689"/>
 <path fill="none" stroke="rgb(0,0,0)" stroke-linejoin="round" d="M 14981,4689 L 14831,4689"/>
 <path fill="none" stroke="rgb(0,0,0)" stroke-linejoin="round" d="M 14981,3509 L 14831,3509"/>
 <path fill="none" stroke="rgb(0,0,0)" stroke-linejoin="round" d="M 14981,3509 L 14831,3509"/>
 <path fill="none" stroke="rgb(0,0,0)" stroke-linejoin="round" d="M 14981,2330 L 14831,2330"/>
 <path fill="none" stroke="rgb(0,0,0)" stroke-linejoin="round" d="M 14981,2330 L 14831,2330"/>
 <path fill="none" stroke="rgb(0,0,0)" stroke-linejoin="round" d="M 14981,1151 L 14831,1151"/>
 <path fill="none" stroke="rgb(0,0,0)" stroke-linejoin="round" d="M 14981,1151 L 14831,1151"/>
 <path fill="none" stroke="rgb(0,0,0)" stroke-linejoin="round" d="M 14831,10586 L 14831,1151"/>
 <path fill="none" stroke="rgb(255,211,32)" stroke-width="80" stroke-linejoin="round" d="M 2177,10586 L 2299,10456 2422,10468 2545,10453 2668,10422 2791,10405 2914,10404 3037,10397 3160,10374 3283,10331 3405,10305 3528,10284 3651,10253 3774,10214 3897,10166 4020,10124 4143,10045 4266,9978 4389,9926 4512,9866 4634,9795 4756,9766 4879,9740 5002,9748 5125,9710 5248,9650 5371,9602 5494,9505 5617,9419 5739,9336 5862,9306 5985,9234 6108,9201 6231,9130 6354,9066 6477,9045 6600,8780 6723,8703 6845,8524 6968,8495 7091,8398 7214,8423 7337,8434 7460,8479 7583,8433 7706,8328 7829,8376 7951,8434 8073,8364 8196,8406 8319,8375 8442,8522 8565,8502 8688,8565 8811,8645 8934,8666 9057,8652 9179,8720 9302,8568 9425,8495 9548,8620 9671,8627 9794,8657 9917,8592 10040,8479 10163,8439 10285,8340 10408,8274 10531,8369 10654,8176 10777,7998 10900,7895 11023,8005 11145,7955 11268,7864 11391,7837 11513,7701 11636,7477 11759,7420 11882,7381 12005,7080 12128,7150 12251,7046 12374,6967 12497,6796 12619,6663 12742,6550 12865,6456 12988,6361 13111,6096 13234,5959 13357,5607 13480,5357 13603,4639 13725,4713 13848,4516 13971,4214 14094,4095 14217,4132 14339,4043 14462,4064 14585,3976 14708,3822 14831,3951"/>
 <path fill="none" stroke="rgb(0,69,134)" stroke-width="80" stroke-linejoin="round" d="M 1072,1208 L 1194,1287 1317,1356 1440,1408 1563,1455 1685,1429 1808,1628 1931,1695 2054,1679 2177,1723 2299,1836 2422,1899 2545,2140 2668,2271 2791,2365 2914,2422 3037,2512 3160,2593 3283,2555 3405,2533 3528,2613 3651,2699 3774,2847 3897,2970 4020,3092 4143,3203 4266,3264 4389,3340 4512,3448 4634,3530 4756,3561 4879,3486 5002,3438 5125,3485 5248,3574 5371,3623 5494,3711 5617,3870 5739,3998 5862,3906 5985,4008 6108,4104 6231,4202 6354,4270 6477,4385 6600,4519 6723,4587 6845,4760 6968,4834 7091,4976 7214,4927 7337,4853 7460,4748 7583,4717 7706,4756 7829,4790 7951,4857 8073,4888 8196,4875 8319,4893 8442,4830 8565,4856 8688,4884 8811,4908 8934,4906 9057,4757 9179,4762 9302,4753 9425,4771 9548,4748 9671,4577 9794,4607 9917,4652 10040,4715 10163,4805 10285,4899 10408,4827 10531,4901 10654,4962 10777,4900 10900,4984 11023,4877 11145,4808 11268,4856 11391,4867 11513,4799 11636,5136 11759,5078 11882,5166 12005,5479 12128,5320 12251,5480 12374,5585 12497,5626 12619,5882 12742,5991 12865,5949 12988,6183 13111,6455 13234,6643 13357,6916 13480,7149 13603,7411 13725,7389 13848,7572 13971,7805 14094,8108 14217,8195 14339,8342 14462,8462 14585,8545 14708,8622 14831,8755"/>
 <path fill="none" stroke="rgb(87,157,28)" stroke-width="80" stroke-linejoin="round" d="M 1072,10313 L 1194,10295 1317,10276 1440,10275 1563,10268 1685,10284 1808,10248 1931,10261 2054,10275 2177,10268 2299,10255 2422,10249 2545,10225 2668,10187 2791,10161 2914,10182 3037,10159 3160,10174 3283,10154 3405,10142 3528,10114 3651,10113 3774,10091 3897,10076 4020,10082 4143,10071 4266,10065 4389,10069 4512,10045 4634,10037 4756,10038 4879,10023 5002,10003 5125,9991 5248,9986 5371,9978 5494,9951 5617,9913 5739,9864 5862,9859 5985,9829 6108,9767 6231,9753 6354,9737 6477,9669 6600,9694 6723,9646 6845,9585 6968,9610 7091,9570 7214,9498 7337,9497 7460,9537 7583,9519 7706,9514 7829,9449 7951,9441 8073,9326 8196,9353 8319,9332 8442,9292 8565,9276 8688,9198 8811,9197 8934,9194 9057,9277 9179,9248 9302,9252 9425,9190 9548,9164 9671,9288 9794,9196 9917,9139 10040,9148 10163,9046 10285,9018 10408,9069 10531,9009 10654,9026 10777,9166 10900,9176 11023,9151 11145,9287 11268,9226 11391,9097 11513,9274 11636,9124 11759,9222 11882,9213 12005,9125 12128,9272 12251,9172 12374,9102 12497,9180 12619,9093 12742,9009 12865,9309 12988,9211 13111,9209 13234,9210 13357,9144 13480,9236 13603,9432 13725,9373 13848,9355 13971,9378 14094,9370 14217,9458 14339,9451 14462,9290 14585,9205 14708,9259 14831,8960"/>
 <path fill="none" stroke="rgb(255,66,14)" stroke-width="80" stroke-linejoin="round" d="M 1072,8754 L 1194,8661 1317,8625 1440,8580 1563,8545 1685,8559 1808,8421 1931,8348 2054,8347 2177,8314 2299,8330 2422,8270 2545,8078 2668,8024 2791,7975 2914,7919 3037,7834 3160,7771 3283,7899 3405,7942 3528,7932 3651,7868 3774,7777 3897,7739 4020,7665 4143,7674 4266,7696 4389,7722 4512,7684 4634,7677 4756,7711 4879,7785 5002,7892 5125,7888 5248,7889 5371,7908 5494,7907 5617,7903 5739,7910 5862,8028 5985,8022 6108,8042 6231,8041 6354,8035 6477,8060 6600,8110 6723,8111 6845,8094 6968,8165 7091,8229 7214,8355 7337,8313 7460,8349 7583,8395 7706,8446 7829,8426 7951,8454 8073,8458 8196,8449 8319,8490 8442,8449 8565,8522 8688,8531 8811,8548 8934,8542 9057,8482 9179,8468 9302,8649 9425,8745 9548,8731 9671,8727 9794,8740 9917,8783 10040,8800 10163,8882 10285,8949 10408,8976 10531,9014 10654,9066 10777,9206 10900,9261 11023,9228 11145,9342 11268,9405 11391,9412 11513,9547 11636,9567 11759,9577 11882,9565 12005,9629 12128,9580 12251,9557 12374,9600 12497,9609 12619,9685 12742,9703 12865,9629 12988,9662 13111,9755 13234,9733 13357,9867 13480,9968 13603,10027 13725,10056 13848,10043 13971,10056 14094,9978 14217,9782 14339,9748 14462,9726 14585,9739 14708,9777 14831,9835"/>
 <path fill="none" stroke="rgb(126,0,33)" stroke-width="80" stroke-linejoin="round" d="M 1072,10345 L 1194,10380 1317,10354 1440,10346 1563,10346 1685,10348 1808,10331 1931,10315 2054,10317 2177,10312 2299,10325 2422,10312 2545,10304 2668,10301 2791,10297 2914,10302 3037,10311 3160,10317 3283,10315 3405,10327 3528,10328 3651,10320 3774,10302 3897,10299 4020,10267 4143,10246 4266,10243 4389,10240 4512,10221 4634,10228 4756,10221 4879,10247 5002,10215 5125,10210 5248,10196 5371,10217 5494,10223 5617,10213 5739,10222 5862,10214 5985,10221 6108,10217 6231,10228 6354,10253 6477,10272 6600,10252 6723,10266 6845,10326 6968,10263 7091,10215 7214,10209 7337,10274 7460,10300 7583,10311 7706,10306 7829,10313 7951,10335 8073,10331 8196,10318 8319,10319 8442,10327 8565,10272 8688,10269 8811,10204 8934,10293 9057,10284 9179,10270 9302,10285 9425,10307 9548,10303 9671,10342 9794,10365 9917,10389 10040,10404 10163,10397 10285,10399 10408,10426 10531,10340 10654,10355 10777,10357 10900,10335 11023,10343 11145,10389 11268,10378 11391,10363 11513,10346 11636,10352 11759,10344 11882,10337 12005,10355 12128,10315 12251,10331 12374,10358 12497,10379 12619,10365 12742,10369 12865,10367 12988,10328 13111,10275 13234,10260 13357,10293 13480,10286 13603,10355 13725,10318 13848,10359 13971,10352 14094,10340 14217,10374 14339,10375 14462,10365 14585,10408 14708,10406 14831,10393"/>
 <path fill="none" stroke="rgb(131,202,255)" stroke-width="80" stroke-linejoin="round" d="M 1072,10514 L 1194,10510 1317,10522 1440,10524 1563,10519 1685,10514 1808,10505 1931,10514 2054,10516 2177,10517 2299,10517 2422,10521 2545,10519 2668,10515 2791,10516 2914,10490 3037,10508 3160,10490 3283,10465 3405,10470 3528,10449 3651,10466 3774,10488 3897,10469 4020,10489 4143,10479 4266,10472 4389,10423 4512,10455 4634,10452 4756,10422 4879,10438 5002,10424 5125,10435 5248,10423 5371,10391 5494,10422 5617,10400 5739,10389 5862,10406 5985,10404 6108,10387 6231,10365 6354,10357 6477,10288 6600,10365 6723,10406 6845,10430 6968,10353 7091,10332 7214,10308 7337,10348 7460,10305 7583,10344 7706,10369 7829,10366 7951,10197 8073,10353 8196,10319 8319,10311 8442,10298 8565,10291 8688,10272 8811,10217 8934,10118 9057,10267 9179,10251 9302,10213 9425,10210 9548,10152 9671,10158 9794,10155 9917,10165 10040,10173 10163,10151 10285,10114 10408,10147 10531,10086 10654,10135 10777,10092 10900,10069 11023,10115 11145,9936 11268,9989 11391,10144 11513,10053 11636,10063 11759,10079 11882,10057 12005,10051 12128,10083 12251,10133 12374,10107 12497,10129 12619,10031 12742,10095 12865,10010 12988,9974 13111,9929 13234,9914 13357,9892 13480,9723 13603,9856 13725,9869 13848,9876 13971,9913 14094,9827 14217,9778 14339,9760 14462,9811 14585,9846 14708,9832 14831,9824"/>
 <text class="TextShape"><tspan class="TextParagraph" font-family="Liberation Sans, sans-serif" font-size="388px" font-weight="700"><tspan class="TextPosition" x="893" y="11180"><tspan fill="rgb(0,0,0)" stroke="none">2008</tspan></tspan></tspan></text>
 <text class="TextShape"><tspan class="TextParagraph" font-family="Liberation Sans, sans-serif" font-size="388px" font-weight="700"><tspan class="TextPosition" x="2368" y="11180"><tspan fill="rgb(0,0,0)" stroke="none">2009</tspan></tspan></tspan></text>
 <text class="TextShape"><tspan class="TextParagraph" font-family="Liberation Sans, sans-serif" font-size="388px" font-weight="700"><tspan class="TextPosition" x="3842" y="11180"><tspan fill="rgb(0,0,0)" stroke="none">2010</tspan></tspan></tspan></text>
 <text class="TextShape"><tspan class="TextParagraph" font-family="Liberation Sans, sans-serif" font-size="388px" font-weight="700"><tspan class="TextPosition" x="5316" y="11180"><tspan fill="rgb(0,0,0)" stroke="none">2011</tspan></tspan></tspan></text>
 <text class="TextShape"><tspan class="TextParagraph" font-family="Liberation Sans, sans-serif" font-size="388px" font-weight="700"><tspan class="TextPosition" x="6790" y="11180"><tspan fill="rgb(0,0,0)" stroke="none">2012</tspan></tspan></tspan></text>
 <text class="TextShape"><tspan class="TextParagraph" font-family="Liberation Sans, sans-serif" font-size="388px" font-weight="700"><tspan class="TextPosition" x="8265" y="11180"><tspan fill="rgb(0,0,0)" stroke="none">2013</tspan></tspan></tspan></text>
 <text class="TextShape"><tspan class="TextParagraph" font-family="Liberation Sans, sans-serif" font-size="388px" font-weight="700"><tspan class="TextPosition" x="9739" y="11180"><tspan fill="rgb(0,0,0)" stroke="none">2014</tspan></tspan></tspan></text>
 <text class="TextShape"><tspan class="TextParagraph" font-family="Liberation Sans, sans-serif" font-size="388px" font-weight="700"><tspan class="TextPosition" x="11213" y="11180"><tspan fill="rgb(0,0,0)" stroke="none">2015</tspan></tspan></tspan></text>
 <text class="TextShape"><tspan class="TextParagraph" font-family="Liberation Sans, sans-serif" font-size="388px" font-weight="700"><tspan class="TextPosition" x="12687" y="11180"><tspan fill="rgb(0,0,0)" stroke="none">2016</tspan></tspan></tspan></text>
 <text class="TextShape"><tspan class="TextParagraph" font-family="Liberation Sans, sans-serif" font-size="388px" font-weight="700"><tspan class="TextPosition" x="14162" y="11180"><tspan fill="rgb(0,0,0)" stroke="none">2017</tspan></tspan></tspan></text>
 <text class="TextShape"><tspan class="TextParagraph" font-family="Liberation Sans, sans-serif" font-size="388px" font-weight="700"><tspan class="TextPosition" x="266" y="10720"><tspan fill="rgb(0,0,0)" stroke="none">0%</tspan></tspan></tspan></text>
 <text class="TextShape"><tspan class="TextParagraph" font-family="Liberation Sans, sans-serif" font-size="388px" font-weight="700"><tspan class="TextPosition" x="55" y="9540"><tspan fill="rgb(0,0,0)" stroke="none">10%</tspan></tspan></tspan></text>
 <text class="TextShape"><tspan class="TextParagraph" font-family="Liberation Sans, sans-serif" font-size="388px" font-weight="700"><tspan class="TextPosition" x="55" y="8361"><tspan fill="rgb(0,0,0)" stroke="none">20%</tspan></tspan></tspan></text>
 <text class="TextShape"><tspan class="TextParagraph" font-family="Liberation Sans, sans-serif" font-size="388px" font-weight="700"><tspan class="TextPosition" x="55" y="7181"><tspan fill="rgb(0,0,0)" stroke="none">30%</tspan></tspan></tspan></text>
 <text class="TextShape"><tspan class="TextParagraph" font-family="Liberation Sans, sans-serif" font-size="388px" font-weight="700"><tspan class="TextPosition" x="55" y="6002"><tspan fill="rgb(0,0,0)" stroke="none">40%</tspan></tspan></tspan></text>
 <text class="TextShape"><tspan class="TextParagraph" font-family="Liberation Sans, sans-serif" font-size="388px" font-weight="700"><tspan class="TextPosition" x="55" y="4822"><tspan fill="rgb(0,0,0)" stroke="none">50%</tspan></tspan></tspan></text>
 <text class="TextShape"><tspan class="TextParagraph" font-family="Liberation Sans, sans-serif" font-size="388px" font-weight="700"><tspan class="TextPosition" x="55" y="3642"><tspan fill="rgb(0,0,0)" stroke="none">60%</tspan></tspan></tspan></text>
 <text class="TextShape"><tspan class="TextParagraph" font-family="Liberation Sans, sans-serif" font-size="388px" font-weight="700"><tspan class="TextPosition" x="55" y="2463"><tspan fill="rgb(0,0,0)" stroke="none">70%</tspan></tspan></tspan></text>
 <text class="TextShape"><tspan class="TextParagraph" font-family="Liberation Sans, sans-serif" font-size="388px" font-weight="700"><tspan class="TextPosition" x="55" y="1284"><tspan fill="rgb(0,0,0)" stroke="none">80%</tspan></tspan></tspan></text>
 <text class="TextShape"><tspan class="TextParagraph" font-family="Liberation Sans, sans-serif" font-size="388px" font-weight="700"><tspan class="TextPosition" x="15081" y="10720"><tspan fill="rgb(0,0,0)" stroke="none">0%</tspan></tspan></tspan></text>
 <text class="TextShape"><tspan class="TextParagraph" font-family="Liberation Sans, sans-serif" font-size="388px" font-weight="700"><tspan class="TextPosition" x="15081" y="9540"><tspan fill="rgb(0,0,0)" stroke="none">10%</tspan></tspan></tspan></text>
 <text class="TextShape"><tspan class="TextParagraph" font-family="Liberation Sans, sans-serif" font-size="388px" font-weight="700"><tspan class="TextPosition" x="15081" y="8361"><tspan fill="rgb(0,0,0)" stroke="none">20%</tspan></tspan></tspan></text>
 <text class="TextShape"><tspan class="TextParagraph" font-family="Liberation Sans, sans-serif" font-size="388px" font-weight="700"><tspan class="TextPosition" x="15081" y="7181"><tspan fill="rgb(0,0,0)" stroke="none">30%</tspan></tspan></tspan></text>
 <text class="TextShape"><tspan class="TextParagraph" font-family="Liberation Sans, sans-serif" font-size="388px" font-weight="700"><tspan class="TextPosition" x="15081" y="6002"><tspan fill="rgb(0,0,0)" stroke="none">40%</tspan></tspan></tspan></text>
 <text class="TextShape"><tspan class="TextParagraph" font-family="Liberation Sans, sans-serif" font-size="388px" font-weight="700"><tspan class="TextPosition" x="15081" y="4822"><tspan fill="rgb(0,0,0)" stroke="none">50%</tspan></tspan></tspan></text>
 <text class="TextShape"><tspan class="TextParagraph" font-family="Liberation Sans, sans-serif" font-size="388px" font-weight="700"><tspan class="TextPosition" x="15081" y="3642"><tspan fill="rgb(0,0,0)" stroke="none">60%</tspan></tspan></tspan></text>
 <text class="TextShape"><tspan class="TextParagraph" font-family="Liberation Sans, sans-serif" font-size="388px" font-weight="700"><tspan class="TextPosition" x="15081" y="2463"><tspan fill="rgb(0,0,0)" stroke="none">70%</tspan></tspan></tspan></text>
 <text class="TextShape"><tspan class="TextParagraph" font-family="Liberation Sans, sans-serif" font-size="388px" font-weight="700"><tspan class="TextPosition" x="15081" y="1284"><tspan fill="rgb(0,0,0)" stroke="none">80%</tspan></tspan></tspan></text>
 <text class="TextShape"><tspan class="TextParagraph" font-family="Arial, sans-serif" font-size="635px" font-weight="400"><tspan class="TextPosition" x="3951" y="775"><tspan fill="rgb(0,0,0)" stroke="none">Utilización de navegadores</tspan></tspan></tspan></text>
 <path fill="none" stroke="rgb(255,211,32)" stroke-width="80" stroke-linejoin="round" d="M 1783,11583 L 2583,11583"/>
 <path fill="none" stroke="rgb(0,69,134)" stroke-width="80" stroke-linejoin="round" d="M 4233,11583 L 5032,11583"/>
 <path fill="none" stroke="rgb(87,157,28)" stroke-width="80" stroke-linejoin="round" d="M 5730,11583 L 6530,11583"/>
 <path fill="none" stroke="rgb(255,66,14)" stroke-width="80" stroke-linejoin="round" d="M 7837,11583 L 8636,11583"/>
 <path fill="none" stroke="rgb(126,0,33)" stroke-width="80" stroke-linejoin="round" d="M 10128,11583 L 10928,11583"/>
 <path fill="none" stroke="rgb(131,202,255)" stroke-width="80" stroke-linejoin="round" d="M 12260,11583 L 13060,11583"/>
 <text class="TextShape"><tspan class="TextParagraph" font-family="Arial, sans-serif" font-size="353px" font-weight="700"><tspan class="TextPosition" x="2683" y="11702"><tspan fill="rgb(0,0,0)" stroke="none">Chrome</tspan></tspan></tspan></text>
 <text class="TextShape"><tspan class="TextParagraph" font-family="Arial, sans-serif" font-size="353px" font-weight="700"><tspan class="TextPosition" x="5132" y="11702"><tspan fill="rgb(0,0,0)" stroke="none">IE</tspan></tspan></tspan></text>
 <text class="TextShape"><tspan class="TextParagraph" font-family="Arial, sans-serif" font-size="353px" font-weight="700"><tspan class="TextPosition" x="6630" y="11702"><tspan fill="rgb(0,0,0)" stroke="none">Safari</tspan></tspan></tspan></text>
 <text class="TextShape"><tspan class="TextParagraph" font-family="Arial, sans-serif" font-size="353px" font-weight="700"><tspan class="TextPosition" x="8736" y="11702"><tspan fill="rgb(0,0,0)" stroke="none">Firefox</tspan></tspan></tspan></text>
 <text class="TextShape"><tspan class="TextParagraph" font-family="Arial, sans-serif" font-size="353px" font-weight="700"><tspan class="TextPosition" x="11028" y="11702"><tspan fill="rgb(0,0,0)" stroke="none">Opera</tspan></tspan></tspan></text>
 <text class="TextShape"><tspan class="TextParagraph" font-family="Arial, sans-serif" font-size="353px" font-weight="700"><tspan class="TextPosition" x="13160" y="11702"><tspan fill="rgb(0,0,0)" stroke="none">Otros</tspan></tspan></tspan></text>
</svg>
