<?xml version="1.0" encoding="UTF-8"?>
<!DOCTYPE svg PUBLIC "-//W3C//DTD SVG 1.1//EN" "http://www.w3.org/Graphics/SVG/1.1/DTD/svg11.dtd">
<svg width="166mm" height="124mm" viewBox="0 0 16600 12400" version="1.1" xmlns="http://www.w3.org/2000/svg" stroke-width="28.222" stroke-linejoin="round" xml:space="preserve">
 <path fill="rgb(255,255,255)" stroke="none" d="M 8298,12447 L 0,12447 0,27 16595,27 16595,12447 8298,12447 Z"/>
 <path fill="none" stroke="rgb(179,179,179)" stroke-linejoin="round" d="M 8346,10674 L 1229,10674 1229,1156 15463,1156 15463,10674 8346,10674 Z"/>
 <path fill="none" stroke="rgb(0,0,0)" stroke-linejoin="round" d="M 15463,10673 L 1229,10673"/>
 <path fill="none" stroke="rgb(0,0,0)" stroke-linejoin="round" d="M 15463,9615 L 1229,9615"/>
 <path fill="none" stroke="rgb(0,0,0)" stroke-linejoin="round" d="M 15463,8558 L 1229,8558"/>
 <path fill="none" stroke="rgb(0,0,0)" stroke-linejoin="round" d="M 15463,7500 L 1229,7500"/>
 <path fill="none" stroke="rgb(0,0,0)" stroke-linejoin="round" d="M 15463,6443 L 1229,6443"/>
 <path fill="none" stroke="rgb(0,0,0)" stroke-linejoin="round" d="M 15463,5385 L 1229,5385"/>
 <path fill="none" stroke="rgb(0,0,0)" stroke-linejoin="round" d="M 15463,4327 L 1229,4327"/>
 <path fill="none" stroke="rgb(0,0,0)" stroke-linejoin="round" d="M 15463,3270 L 1229,3270"/>
 <path fill="none" stroke="rgb(0,0,0)" stroke-linejoin="round" d="M 15463,2212 L 1229,2212"/>
 <path fill="none" stroke="rgb(0,0,0)" stroke-linejoin="round" d="M 15463,1155 L 1229,1155"/>
 <path fill="none" stroke="rgb(0,0,0)" stroke-linejoin="round" d="M 1229,10823 L 1229,10673"/>
 <path fill="none" stroke="rgb(0,0,0)" stroke-linejoin="round" d="M 1229,10823 L 1229,10673"/>
 <path fill="none" stroke="rgb(0,0,0)" stroke-linejoin="round" d="M 1356,10823 L 1356,10673"/>
 <path fill="none" stroke="rgb(0,0,0)" stroke-linejoin="round" d="M 1356,10823 L 1356,10673"/>
 <path fill="none" stroke="rgb(0,0,0)" stroke-linejoin="round" d="M 1483,10823 L 1483,10673"/>
 <path fill="none" stroke="rgb(0,0,0)" stroke-linejoin="round" d="M 1483,10823 L 1483,10673"/>
 <path fill="none" stroke="rgb(0,0,0)" stroke-linejoin="round" d="M 1610,10823 L 1610,10673"/>
 <path fill="none" stroke="rgb(0,0,0)" stroke-linejoin="round" d="M 1610,10823 L 1610,10673"/>
 <path fill="none" stroke="rgb(0,0,0)" stroke-linejoin="round" d="M 1737,10823 L 1737,10673"/>
 <path fill="none" stroke="rgb(0,0,0)" stroke-linejoin="round" d="M 1737,10823 L 1737,10673"/>
 <path fill="none" stroke="rgb(0,0,0)" stroke-linejoin="round" d="M 1864,10823 L 1864,10673"/>
 <path fill="none" stroke="rgb(0,0,0)" stroke-linejoin="round" d="M 1864,10823 L 1864,10673"/>
 <path fill="none" stroke="rgb(0,0,0)" stroke-linejoin="round" d="M 1991,10823 L 1991,10673"/>
 <path fill="none" stroke="rgb(0,0,0)" stroke-linejoin="round" d="M 1991,10823 L 1991,10673"/>
 <path fill="none" stroke="rgb(0,0,0)" stroke-linejoin="round" d="M 2118,10823 L 2118,10673"/>
 <path fill="none" stroke="rgb(0,0,0)" stroke-linejoin="round" d="M 2118,10823 L 2118,10673"/>
 <path fill="none" stroke="rgb(0,0,0)" stroke-linejoin="round" d="M 2245,10823 L 2245,10673"/>
 <path fill="none" stroke="rgb(0,0,0)" stroke-linejoin="round" d="M 2245,10823 L 2245,10673"/>
 <path fill="none" stroke="rgb(0,0,0)" stroke-linejoin="round" d="M 2372,10823 L 2372,10673"/>
 <path fill="none" stroke="rgb(0,0,0)" stroke-linejoin="round" d="M 2372,10823 L 2372,10673"/>
 <path fill="none" stroke="rgb(0,0,0)" stroke-linejoin="round" d="M 2499,10823 L 2499,10673"/>
 <path fill="none" stroke="rgb(0,0,0)" stroke-linejoin="round" d="M 2499,10823 L 2499,10673"/>
 <path fill="none" stroke="rgb(0,0,0)" stroke-linejoin="round" d="M 2627,10823 L 2627,10673"/>
 <path fill="none" stroke="rgb(0,0,0)" stroke-linejoin="round" d="M 2627,10823 L 2627,10673"/>
 <path fill="none" stroke="rgb(0,0,0)" stroke-linejoin="round" d="M 2754,10823 L 2754,10673"/>
 <path fill="none" stroke="rgb(0,0,0)" stroke-linejoin="round" d="M 2754,10823 L 2754,10673"/>
 <path fill="none" stroke="rgb(0,0,0)" stroke-linejoin="round" d="M 2881,10823 L 2881,10673"/>
 <path fill="none" stroke="rgb(0,0,0)" stroke-linejoin="round" d="M 2881,10823 L 2881,10673"/>
 <path fill="none" stroke="rgb(0,0,0)" stroke-linejoin="round" d="M 3008,10823 L 3008,10673"/>
 <path fill="none" stroke="rgb(0,0,0)" stroke-linejoin="round" d="M 3008,10823 L 3008,10673"/>
 <path fill="none" stroke="rgb(0,0,0)" stroke-linejoin="round" d="M 3135,10823 L 3135,10673"/>
 <path fill="none" stroke="rgb(0,0,0)" stroke-linejoin="round" d="M 3135,10823 L 3135,10673"/>
 <path fill="none" stroke="rgb(0,0,0)" stroke-linejoin="round" d="M 3262,10823 L 3262,10673"/>
 <path fill="none" stroke="rgb(0,0,0)" stroke-linejoin="round" d="M 3262,10823 L 3262,10673"/>
 <path fill="none" stroke="rgb(0,0,0)" stroke-linejoin="round" d="M 3389,10823 L 3389,10673"/>
 <path fill="none" stroke="rgb(0,0,0)" stroke-linejoin="round" d="M 3389,10823 L 3389,10673"/>
 <path fill="none" stroke="rgb(0,0,0)" stroke-linejoin="round" d="M 3516,10823 L 3516,10673"/>
 <path fill="none" stroke="rgb(0,0,0)" stroke-linejoin="round" d="M 3516,10823 L 3516,10673"/>
 <path fill="none" stroke="rgb(0,0,0)" stroke-linejoin="round" d="M 3643,10823 L 3643,10673"/>
 <path fill="none" stroke="rgb(0,0,0)" stroke-linejoin="round" d="M 3643,10823 L 3643,10673"/>
 <path fill="none" stroke="rgb(0,0,0)" stroke-linejoin="round" d="M 3770,10823 L 3770,10673"/>
 <path fill="none" stroke="rgb(0,0,0)" stroke-linejoin="round" d="M 3770,10823 L 3770,10673"/>
 <path fill="none" stroke="rgb(0,0,0)" stroke-linejoin="round" d="M 3898,10823 L 3898,10673"/>
 <path fill="none" stroke="rgb(0,0,0)" stroke-linejoin="round" d="M 3898,10823 L 3898,10673"/>
 <path fill="none" stroke="rgb(0,0,0)" stroke-linejoin="round" d="M 4025,10823 L 4025,10673"/>
 <path fill="none" stroke="rgb(0,0,0)" stroke-linejoin="round" d="M 4025,10823 L 4025,10673"/>
 <path fill="none" stroke="rgb(0,0,0)" stroke-linejoin="round" d="M 4152,10823 L 4152,10673"/>
 <path fill="none" stroke="rgb(0,0,0)" stroke-linejoin="round" d="M 4152,10823 L 4152,10673"/>
 <path fill="none" stroke="rgb(0,0,0)" stroke-linejoin="round" d="M 4279,10823 L 4279,10673"/>
 <path fill="none" stroke="rgb(0,0,0)" stroke-linejoin="round" d="M 4279,10823 L 4279,10673"/>
 <path fill="none" stroke="rgb(0,0,0)" stroke-linejoin="round" d="M 4406,10823 L 4406,10673"/>
 <path fill="none" stroke="rgb(0,0,0)" stroke-linejoin="round" d="M 4406,10823 L 4406,10673"/>
 <path fill="none" stroke="rgb(0,0,0)" stroke-linejoin="round" d="M 4533,10823 L 4533,10673"/>
 <path fill="none" stroke="rgb(0,0,0)" stroke-linejoin="round" d="M 4533,10823 L 4533,10673"/>
 <path fill="none" stroke="rgb(0,0,0)" stroke-linejoin="round" d="M 4660,10823 L 4660,10673"/>
 <path fill="none" stroke="rgb(0,0,0)" stroke-linejoin="round" d="M 4660,10823 L 4660,10673"/>
 <path fill="none" stroke="rgb(0,0,0)" stroke-linejoin="round" d="M 4787,10823 L 4787,10673"/>
 <path fill="none" stroke="rgb(0,0,0)" stroke-linejoin="round" d="M 4787,10823 L 4787,10673"/>
 <path fill="none" stroke="rgb(0,0,0)" stroke-linejoin="round" d="M 4914,10823 L 4914,10673"/>
 <path fill="none" stroke="rgb(0,0,0)" stroke-linejoin="round" d="M 4914,10823 L 4914,10673"/>
 <path fill="none" stroke="rgb(0,0,0)" stroke-linejoin="round" d="M 5041,10823 L 5041,10673"/>
 <path fill="none" stroke="rgb(0,0,0)" stroke-linejoin="round" d="M 5041,10823 L 5041,10673"/>
 <path fill="none" stroke="rgb(0,0,0)" stroke-linejoin="round" d="M 5169,10823 L 5169,10673"/>
 <path fill="none" stroke="rgb(0,0,0)" stroke-linejoin="round" d="M 5169,10823 L 5169,10673"/>
 <path fill="none" stroke="rgb(0,0,0)" stroke-linejoin="round" d="M 5296,10823 L 5296,10673"/>
 <path fill="none" stroke="rgb(0,0,0)" stroke-linejoin="round" d="M 5296,10823 L 5296,10673"/>
 <path fill="none" stroke="rgb(0,0,0)" stroke-linejoin="round" d="M 5423,10823 L 5423,10673"/>
 <path fill="none" stroke="rgb(0,0,0)" stroke-linejoin="round" d="M 5423,10823 L 5423,10673"/>
 <path fill="none" stroke="rgb(0,0,0)" stroke-linejoin="round" d="M 5550,10823 L 5550,10673"/>
 <path fill="none" stroke="rgb(0,0,0)" stroke-linejoin="round" d="M 5550,10823 L 5550,10673"/>
 <path fill="none" stroke="rgb(0,0,0)" stroke-linejoin="round" d="M 5677,10823 L 5677,10673"/>
 <path fill="none" stroke="rgb(0,0,0)" stroke-linejoin="round" d="M 5677,10823 L 5677,10673"/>
 <path fill="none" stroke="rgb(0,0,0)" stroke-linejoin="round" d="M 5804,10823 L 5804,10673"/>
 <path fill="none" stroke="rgb(0,0,0)" stroke-linejoin="round" d="M 5804,10823 L 5804,10673"/>
 <path fill="none" stroke="rgb(0,0,0)" stroke-linejoin="round" d="M 5931,10823 L 5931,10673"/>
 <path fill="none" stroke="rgb(0,0,0)" stroke-linejoin="round" d="M 5931,10823 L 5931,10673"/>
 <path fill="none" stroke="rgb(0,0,0)" stroke-linejoin="round" d="M 6058,10823 L 6058,10673"/>
 <path fill="none" stroke="rgb(0,0,0)" stroke-linejoin="round" d="M 6058,10823 L 6058,10673"/>
 <path fill="none" stroke="rgb(0,0,0)" stroke-linejoin="round" d="M 6185,10823 L 6185,10673"/>
 <path fill="none" stroke="rgb(0,0,0)" stroke-linejoin="round" d="M 6185,10823 L 6185,10673"/>
 <path fill="none" stroke="rgb(0,0,0)" stroke-linejoin="round" d="M 6312,10823 L 6312,10673"/>
 <path fill="none" stroke="rgb(0,0,0)" stroke-linejoin="round" d="M 6312,10823 L 6312,10673"/>
 <path fill="none" stroke="rgb(0,0,0)" stroke-linejoin="round" d="M 6440,10823 L 6440,10673"/>
 <path fill="none" stroke="rgb(0,0,0)" stroke-linejoin="round" d="M 6440,10823 L 6440,10673"/>
 <path fill="none" stroke="rgb(0,0,0)" stroke-linejoin="round" d="M 6567,10823 L 6567,10673"/>
 <path fill="none" stroke="rgb(0,0,0)" stroke-linejoin="round" d="M 6567,10823 L 6567,10673"/>
 <path fill="none" stroke="rgb(0,0,0)" stroke-linejoin="round" d="M 6694,10823 L 6694,10673"/>
 <path fill="none" stroke="rgb(0,0,0)" stroke-linejoin="round" d="M 6694,10823 L 6694,10673"/>
 <path fill="none" stroke="rgb(0,0,0)" stroke-linejoin="round" d="M 6821,10823 L 6821,10673"/>
 <path fill="none" stroke="rgb(0,0,0)" stroke-linejoin="round" d="M 6821,10823 L 6821,10673"/>
 <path fill="none" stroke="rgb(0,0,0)" stroke-linejoin="round" d="M 6948,10823 L 6948,10673"/>
 <path fill="none" stroke="rgb(0,0,0)" stroke-linejoin="round" d="M 6948,10823 L 6948,10673"/>
 <path fill="none" stroke="rgb(0,0,0)" stroke-linejoin="round" d="M 7075,10823 L 7075,10673"/>
 <path fill="none" stroke="rgb(0,0,0)" stroke-linejoin="round" d="M 7075,10823 L 7075,10673"/>
 <path fill="none" stroke="rgb(0,0,0)" stroke-linejoin="round" d="M 7202,10823 L 7202,10673"/>
 <path fill="none" stroke="rgb(0,0,0)" stroke-linejoin="round" d="M 7202,10823 L 7202,10673"/>
 <path fill="none" stroke="rgb(0,0,0)" stroke-linejoin="round" d="M 7329,10823 L 7329,10673"/>
 <path fill="none" stroke="rgb(0,0,0)" stroke-linejoin="round" d="M 7329,10823 L 7329,10673"/>
 <path fill="none" stroke="rgb(0,0,0)" stroke-linejoin="round" d="M 7456,10823 L 7456,10673"/>
 <path fill="none" stroke="rgb(0,0,0)" stroke-linejoin="round" d="M 7456,10823 L 7456,10673"/>
 <path fill="none" stroke="rgb(0,0,0)" stroke-linejoin="round" d="M 7583,10823 L 7583,10673"/>
 <path fill="none" stroke="rgb(0,0,0)" stroke-linejoin="round" d="M 7583,10823 L 7583,10673"/>
 <path fill="none" stroke="rgb(0,0,0)" stroke-linejoin="round" d="M 7711,10823 L 7711,10673"/>
 <path fill="none" stroke="rgb(0,0,0)" stroke-linejoin="round" d="M 7711,10823 L 7711,10673"/>
 <path fill="none" stroke="rgb(0,0,0)" stroke-linejoin="round" d="M 7838,10823 L 7838,10673"/>
 <path fill="none" stroke="rgb(0,0,0)" stroke-linejoin="round" d="M 7838,10823 L 7838,10673"/>
 <path fill="none" stroke="rgb(0,0,0)" stroke-linejoin="round" d="M 7965,10823 L 7965,10673"/>
 <path fill="none" stroke="rgb(0,0,0)" stroke-linejoin="round" d="M 7965,10823 L 7965,10673"/>
 <path fill="none" stroke="rgb(0,0,0)" stroke-linejoin="round" d="M 8092,10823 L 8092,10673"/>
 <path fill="none" stroke="rgb(0,0,0)" stroke-linejoin="round" d="M 8092,10823 L 8092,10673"/>
 <path fill="none" stroke="rgb(0,0,0)" stroke-linejoin="round" d="M 8219,10823 L 8219,10673"/>
 <path fill="none" stroke="rgb(0,0,0)" stroke-linejoin="round" d="M 8219,10823 L 8219,10673"/>
 <path fill="none" stroke="rgb(0,0,0)" stroke-linejoin="round" d="M 8345,10823 L 8345,10673"/>
 <path fill="none" stroke="rgb(0,0,0)" stroke-linejoin="round" d="M 8345,10823 L 8345,10673"/>
 <path fill="none" stroke="rgb(0,0,0)" stroke-linejoin="round" d="M 8472,10823 L 8472,10673"/>
 <path fill="none" stroke="rgb(0,0,0)" stroke-linejoin="round" d="M 8472,10823 L 8472,10673"/>
 <path fill="none" stroke="rgb(0,0,0)" stroke-linejoin="round" d="M 8599,10823 L 8599,10673"/>
 <path fill="none" stroke="rgb(0,0,0)" stroke-linejoin="round" d="M 8599,10823 L 8599,10673"/>
 <path fill="none" stroke="rgb(0,0,0)" stroke-linejoin="round" d="M 8726,10823 L 8726,10673"/>
 <path fill="none" stroke="rgb(0,0,0)" stroke-linejoin="round" d="M 8726,10823 L 8726,10673"/>
 <path fill="none" stroke="rgb(0,0,0)" stroke-linejoin="round" d="M 8853,10823 L 8853,10673"/>
 <path fill="none" stroke="rgb(0,0,0)" stroke-linejoin="round" d="M 8853,10823 L 8853,10673"/>
 <path fill="none" stroke="rgb(0,0,0)" stroke-linejoin="round" d="M 8980,10823 L 8980,10673"/>
 <path fill="none" stroke="rgb(0,0,0)" stroke-linejoin="round" d="M 8980,10823 L 8980,10673"/>
 <path fill="none" stroke="rgb(0,0,0)" stroke-linejoin="round" d="M 9108,10823 L 9108,10673"/>
 <path fill="none" stroke="rgb(0,0,0)" stroke-linejoin="round" d="M 9108,10823 L 9108,10673"/>
 <path fill="none" stroke="rgb(0,0,0)" stroke-linejoin="round" d="M 9235,10823 L 9235,10673"/>
 <path fill="none" stroke="rgb(0,0,0)" stroke-linejoin="round" d="M 9235,10823 L 9235,10673"/>
 <path fill="none" stroke="rgb(0,0,0)" stroke-linejoin="round" d="M 9362,10823 L 9362,10673"/>
 <path fill="none" stroke="rgb(0,0,0)" stroke-linejoin="round" d="M 9362,10823 L 9362,10673"/>
 <path fill="none" stroke="rgb(0,0,0)" stroke-linejoin="round" d="M 9489,10823 L 9489,10673"/>
 <path fill="none" stroke="rgb(0,0,0)" stroke-linejoin="round" d="M 9489,10823 L 9489,10673"/>
 <path fill="none" stroke="rgb(0,0,0)" stroke-linejoin="round" d="M 9616,10823 L 9616,10673"/>
 <path fill="none" stroke="rgb(0,0,0)" stroke-linejoin="round" d="M 9616,10823 L 9616,10673"/>
 <path fill="none" stroke="rgb(0,0,0)" stroke-linejoin="round" d="M 9743,10823 L 9743,10673"/>
 <path fill="none" stroke="rgb(0,0,0)" stroke-linejoin="round" d="M 9743,10823 L 9743,10673"/>
 <path fill="none" stroke="rgb(0,0,0)" stroke-linejoin="round" d="M 9870,10823 L 9870,10673"/>
 <path fill="none" stroke="rgb(0,0,0)" stroke-linejoin="round" d="M 9870,10823 L 9870,10673"/>
 <path fill="none" stroke="rgb(0,0,0)" stroke-linejoin="round" d="M 9997,10823 L 9997,10673"/>
 <path fill="none" stroke="rgb(0,0,0)" stroke-linejoin="round" d="M 9997,10823 L 9997,10673"/>
 <path fill="none" stroke="rgb(0,0,0)" stroke-linejoin="round" d="M 10124,10823 L 10124,10673"/>
 <path fill="none" stroke="rgb(0,0,0)" stroke-linejoin="round" d="M 10124,10823 L 10124,10673"/>
 <path fill="none" stroke="rgb(0,0,0)" stroke-linejoin="round" d="M 10251,10823 L 10251,10673"/>
 <path fill="none" stroke="rgb(0,0,0)" stroke-linejoin="round" d="M 10251,10823 L 10251,10673"/>
 <path fill="none" stroke="rgb(0,0,0)" stroke-linejoin="round" d="M 10379,10823 L 10379,10673"/>
 <path fill="none" stroke="rgb(0,0,0)" stroke-linejoin="round" d="M 10379,10823 L 10379,10673"/>
 <path fill="none" stroke="rgb(0,0,0)" stroke-linejoin="round" d="M 10506,10823 L 10506,10673"/>
 <path fill="none" stroke="rgb(0,0,0)" stroke-linejoin="round" d="M 10506,10823 L 10506,10673"/>
 <path fill="none" stroke="rgb(0,0,0)" stroke-linejoin="round" d="M 10633,10823 L 10633,10673"/>
 <path fill="none" stroke="rgb(0,0,0)" stroke-linejoin="round" d="M 10633,10823 L 10633,10673"/>
 <path fill="none" stroke="rgb(0,0,0)" stroke-linejoin="round" d="M 10760,10823 L 10760,10673"/>
 <path fill="none" stroke="rgb(0,0,0)" stroke-linejoin="round" d="M 10760,10823 L 10760,10673"/>
 <path fill="none" stroke="rgb(0,0,0)" stroke-linejoin="round" d="M 10887,10823 L 10887,10673"/>
 <path fill="none" stroke="rgb(0,0,0)" stroke-linejoin="round" d="M 10887,10823 L 10887,10673"/>
 <path fill="none" stroke="rgb(0,0,0)" stroke-linejoin="round" d="M 11014,10823 L 11014,10673"/>
 <path fill="none" stroke="rgb(0,0,0)" stroke-linejoin="round" d="M 11014,10823 L 11014,10673"/>
 <path fill="none" stroke="rgb(0,0,0)" stroke-linejoin="round" d="M 11141,10823 L 11141,10673"/>
 <path fill="none" stroke="rgb(0,0,0)" stroke-linejoin="round" d="M 11141,10823 L 11141,10673"/>
 <path fill="none" stroke="rgb(0,0,0)" stroke-linejoin="round" d="M 11268,10823 L 11268,10673"/>
 <path fill="none" stroke="rgb(0,0,0)" stroke-linejoin="round" d="M 11268,10823 L 11268,10673"/>
 <path fill="none" stroke="rgb(0,0,0)" stroke-linejoin="round" d="M 11395,10823 L 11395,10673"/>
 <path fill="none" stroke="rgb(0,0,0)" stroke-linejoin="round" d="M 11395,10823 L 11395,10673"/>
 <path fill="none" stroke="rgb(0,0,0)" stroke-linejoin="round" d="M 11522,10823 L 11522,10673"/>
 <path fill="none" stroke="rgb(0,0,0)" stroke-linejoin="round" d="M 11522,10823 L 11522,10673"/>
 <path fill="none" stroke="rgb(0,0,0)" stroke-linejoin="round" d="M 11650,10823 L 11650,10673"/>
 <path fill="none" stroke="rgb(0,0,0)" stroke-linejoin="round" d="M 11650,10823 L 11650,10673"/>
 <path fill="none" stroke="rgb(0,0,0)" stroke-linejoin="round" d="M 11777,10823 L 11777,10673"/>
 <path fill="none" stroke="rgb(0,0,0)" stroke-linejoin="round" d="M 11777,10823 L 11777,10673"/>
 <path fill="none" stroke="rgb(0,0,0)" stroke-linejoin="round" d="M 11904,10823 L 11904,10673"/>
 <path fill="none" stroke="rgb(0,0,0)" stroke-linejoin="round" d="M 11904,10823 L 11904,10673"/>
 <path fill="none" stroke="rgb(0,0,0)" stroke-linejoin="round" d="M 12031,10823 L 12031,10673"/>
 <path fill="none" stroke="rgb(0,0,0)" stroke-linejoin="round" d="M 12031,10823 L 12031,10673"/>
 <path fill="none" stroke="rgb(0,0,0)" stroke-linejoin="round" d="M 12158,10823 L 12158,10673"/>
 <path fill="none" stroke="rgb(0,0,0)" stroke-linejoin="round" d="M 12158,10823 L 12158,10673"/>
 <path fill="none" stroke="rgb(0,0,0)" stroke-linejoin="round" d="M 12285,10823 L 12285,10673"/>
 <path fill="none" stroke="rgb(0,0,0)" stroke-linejoin="round" d="M 12285,10823 L 12285,10673"/>
 <path fill="none" stroke="rgb(0,0,0)" stroke-linejoin="round" d="M 12412,10823 L 12412,10673"/>
 <path fill="none" stroke="rgb(0,0,0)" stroke-linejoin="round" d="M 12412,10823 L 12412,10673"/>
 <path fill="none" stroke="rgb(0,0,0)" stroke-linejoin="round" d="M 12539,10823 L 12539,10673"/>
 <path fill="none" stroke="rgb(0,0,0)" stroke-linejoin="round" d="M 12539,10823 L 12539,10673"/>
 <path fill="none" stroke="rgb(0,0,0)" stroke-linejoin="round" d="M 12666,10823 L 12666,10673"/>
 <path fill="none" stroke="rgb(0,0,0)" stroke-linejoin="round" d="M 12666,10823 L 12666,10673"/>
 <path fill="none" stroke="rgb(0,0,0)" stroke-linejoin="round" d="M 12793,10823 L 12793,10673"/>
 <path fill="none" stroke="rgb(0,0,0)" stroke-linejoin="round" d="M 12793,10823 L 12793,10673"/>
 <path fill="none" stroke="rgb(0,0,0)" stroke-linejoin="round" d="M 12921,10823 L 12921,10673"/>
 <path fill="none" stroke="rgb(0,0,0)" stroke-linejoin="round" d="M 12921,10823 L 12921,10673"/>
 <path fill="none" stroke="rgb(0,0,0)" stroke-linejoin="round" d="M 13048,10823 L 13048,10673"/>
 <path fill="none" stroke="rgb(0,0,0)" stroke-linejoin="round" d="M 13048,10823 L 13048,10673"/>
 <path fill="none" stroke="rgb(0,0,0)" stroke-linejoin="round" d="M 13175,10823 L 13175,10673"/>
 <path fill="none" stroke="rgb(0,0,0)" stroke-linejoin="round" d="M 13175,10823 L 13175,10673"/>
 <path fill="none" stroke="rgb(0,0,0)" stroke-linejoin="round" d="M 13302,10823 L 13302,10673"/>
 <path fill="none" stroke="rgb(0,0,0)" stroke-linejoin="round" d="M 13302,10823 L 13302,10673"/>
 <path fill="none" stroke="rgb(0,0,0)" stroke-linejoin="round" d="M 13429,10823 L 13429,10673"/>
 <path fill="none" stroke="rgb(0,0,0)" stroke-linejoin="round" d="M 13429,10823 L 13429,10673"/>
 <path fill="none" stroke="rgb(0,0,0)" stroke-linejoin="round" d="M 13556,10823 L 13556,10673"/>
 <path fill="none" stroke="rgb(0,0,0)" stroke-linejoin="round" d="M 13556,10823 L 13556,10673"/>
 <path fill="none" stroke="rgb(0,0,0)" stroke-linejoin="round" d="M 13683,10823 L 13683,10673"/>
 <path fill="none" stroke="rgb(0,0,0)" stroke-linejoin="round" d="M 13683,10823 L 13683,10673"/>
 <path fill="none" stroke="rgb(0,0,0)" stroke-linejoin="round" d="M 13810,10823 L 13810,10673"/>
 <path fill="none" stroke="rgb(0,0,0)" stroke-linejoin="round" d="M 13810,10823 L 13810,10673"/>
 <path fill="none" stroke="rgb(0,0,0)" stroke-linejoin="round" d="M 13937,10823 L 13937,10673"/>
 <path fill="none" stroke="rgb(0,0,0)" stroke-linejoin="round" d="M 13937,10823 L 13937,10673"/>
 <path fill="none" stroke="rgb(0,0,0)" stroke-linejoin="round" d="M 14064,10823 L 14064,10673"/>
 <path fill="none" stroke="rgb(0,0,0)" stroke-linejoin="round" d="M 14064,10823 L 14064,10673"/>
 <path fill="none" stroke="rgb(0,0,0)" stroke-linejoin="round" d="M 14192,10823 L 14192,10673"/>
 <path fill="none" stroke="rgb(0,0,0)" stroke-linejoin="round" d="M 14192,10823 L 14192,10673"/>
 <path fill="none" stroke="rgb(0,0,0)" stroke-linejoin="round" d="M 14319,10823 L 14319,10673"/>
 <path fill="none" stroke="rgb(0,0,0)" stroke-linejoin="round" d="M 14319,10823 L 14319,10673"/>
 <path fill="none" stroke="rgb(0,0,0)" stroke-linejoin="round" d="M 14446,10823 L 14446,10673"/>
 <path fill="none" stroke="rgb(0,0,0)" stroke-linejoin="round" d="M 14446,10823 L 14446,10673"/>
 <path fill="none" stroke="rgb(0,0,0)" stroke-linejoin="round" d="M 14573,10823 L 14573,10673"/>
 <path fill="none" stroke="rgb(0,0,0)" stroke-linejoin="round" d="M 14573,10823 L 14573,10673"/>
 <path fill="none" stroke="rgb(0,0,0)" stroke-linejoin="round" d="M 14700,10823 L 14700,10673"/>
 <path fill="none" stroke="rgb(0,0,0)" stroke-linejoin="round" d="M 14700,10823 L 14700,10673"/>
 <path fill="none" stroke="rgb(0,0,0)" stroke-linejoin="round" d="M 14827,10823 L 14827,10673"/>
 <path fill="none" stroke="rgb(0,0,0)" stroke-linejoin="round" d="M 14827,10823 L 14827,10673"/>
 <path fill="none" stroke="rgb(0,0,0)" stroke-linejoin="round" d="M 14954,10823 L 14954,10673"/>
 <path fill="none" stroke="rgb(0,0,0)" stroke-linejoin="round" d="M 14954,10823 L 14954,10673"/>
 <path fill="none" stroke="rgb(0,0,0)" stroke-linejoin="round" d="M 15081,10823 L 15081,10673"/>
 <path fill="none" stroke="rgb(0,0,0)" stroke-linejoin="round" d="M 15081,10823 L 15081,10673"/>
 <path fill="none" stroke="rgb(0,0,0)" stroke-linejoin="round" d="M 15208,10823 L 15208,10673"/>
 <path fill="none" stroke="rgb(0,0,0)" stroke-linejoin="round" d="M 15208,10823 L 15208,10673"/>
 <path fill="none" stroke="rgb(0,0,0)" stroke-linejoin="round" d="M 15335,10823 L 15335,10673"/>
 <path fill="none" stroke="rgb(0,0,0)" stroke-linejoin="round" d="M 15335,10823 L 15335,10673"/>
 <path fill="none" stroke="rgb(0,0,0)" stroke-linejoin="round" d="M 15463,10823 L 15463,10673"/>
 <path fill="none" stroke="rgb(0,0,0)" stroke-linejoin="round" d="M 15463,10823 L 15463,10673"/>
 <path fill="none" stroke="rgb(0,0,0)" stroke-linejoin="round" d="M 1229,10673 L 15463,10673"/>
 <path fill="none" stroke="rgb(0,0,0)" stroke-linejoin="round" d="M 1079,10673 L 1229,10673"/>
 <path fill="none" stroke="rgb(0,0,0)" stroke-linejoin="round" d="M 1079,10673 L 1229,10673"/>
 <path fill="none" stroke="rgb(0,0,0)" stroke-linejoin="round" d="M 1079,9615 L 1229,9615"/>
 <path fill="none" stroke="rgb(0,0,0)" stroke-linejoin="round" d="M 1079,9615 L 1229,9615"/>
 <path fill="none" stroke="rgb(0,0,0)" stroke-linejoin="round" d="M 1079,8558 L 1229,8558"/>
 <path fill="none" stroke="rgb(0,0,0)" stroke-linejoin="round" d="M 1079,8558 L 1229,8558"/>
 <path fill="none" stroke="rgb(0,0,0)" stroke-linejoin="round" d="M 1079,7500 L 1229,7500"/>
 <path fill="none" stroke="rgb(0,0,0)" stroke-linejoin="round" d="M 1079,7500 L 1229,7500"/>
 <path fill="none" stroke="rgb(0,0,0)" stroke-linejoin="round" d="M 1079,6443 L 1229,6443"/>
 <path fill="none" stroke="rgb(0,0,0)" stroke-linejoin="round" d="M 1079,6443 L 1229,6443"/>
 <path fill="none" stroke="rgb(0,0,0)" stroke-linejoin="round" d="M 1079,5385 L 1229,5385"/>
 <path fill="none" stroke="rgb(0,0,0)" stroke-linejoin="round" d="M 1079,5385 L 1229,5385"/>
 <path fill="none" stroke="rgb(0,0,0)" stroke-linejoin="round" d="M 1079,4327 L 1229,4327"/>
 <path fill="none" stroke="rgb(0,0,0)" stroke-linejoin="round" d="M 1079,4327 L 1229,4327"/>
 <path fill="none" stroke="rgb(0,0,0)" stroke-linejoin="round" d="M 1079,3270 L 1229,3270"/>
 <path fill="none" stroke="rgb(0,0,0)" stroke-linejoin="round" d="M 1079,3270 L 1229,3270"/>
 <path fill="none" stroke="rgb(0,0,0)" stroke-linejoin="round" d="M 1079,2212 L 1229,2212"/>
 <path fill="none" stroke="rgb(0,0,0)" stroke-linejoin="round" d="M 1079,2212 L 1229,2212"/>
 <path fill="none" stroke="rgb(0,0,0)" stroke-linejoin="round" d="M 1079,1155 L 1229,1155"/>
 <path fill="none" stroke="rgb(0,0,0)" stroke-linejoin="round" d="M 1079,1155 L 1229,1155"/>
 <path fill="none" stroke="rgb(0,0,0)" stroke-linejoin="round" d="M 1229,10673 L 1229,1155"/>
 <path fill="none" stroke="rgb(0,0,0)" stroke-linejoin="round" d="M 15613,10673 L 15463,10673"/>
 <path fill="none" stroke="rgb(0,0,0)" stroke-linejoin="round" d="M 15613,10673 L 15463,10673"/>
 <path fill="none" stroke="rgb(0,0,0)" stroke-linejoin="round" d="M 15613,9615 L 15463,9615"/>
 <path fill="none" stroke="rgb(0,0,0)" stroke-linejoin="round" d="M 15613,9615 L 15463,9615"/>
 <path fill="none" stroke="rgb(0,0,0)" stroke-linejoin="round" d="M 15613,8558 L 15463,8558"/>
 <path fill="none" stroke="rgb(0,0,0)" stroke-linejoin="round" d="M 15613,8558 L 15463,8558"/>
 <path fill="none" stroke="rgb(0,0,0)" stroke-linejoin="round" d="M 15613,7500 L 15463,7500"/>
 <path fill="none" stroke="rgb(0,0,0)" stroke-linejoin="round" d="M 15613,7500 L 15463,7500"/>
 <path fill="none" stroke="rgb(0,0,0)" stroke-linejoin="round" d="M 15613,6443 L 15463,6443"/>
 <path fill="none" stroke="rgb(0,0,0)" stroke-linejoin="round" d="M 15613,6443 L 15463,6443"/>
 <path fill="none" stroke="rgb(0,0,0)" stroke-linejoin="round" d="M 15613,5385 L 15463,5385"/>
 <path fill="none" stroke="rgb(0,0,0)" stroke-linejoin="round" d="M 15613,5385 L 15463,5385"/>
 <path fill="none" stroke="rgb(0,0,0)" stroke-linejoin="round" d="M 15613,4327 L 15463,4327"/>
 <path fill="none" stroke="rgb(0,0,0)" stroke-linejoin="round" d="M 15613,4327 L 15463,4327"/>
 <path fill="none" stroke="rgb(0,0,0)" stroke-linejoin="round" d="M 15613,3270 L 15463,3270"/>
 <path fill="none" stroke="rgb(0,0,0)" stroke-linejoin="round" d="M 15613,3270 L 15463,3270"/>
 <path fill="none" stroke="rgb(0,0,0)" stroke-linejoin="round" d="M 15613,2212 L 15463,2212"/>
 <path fill="none" stroke="rgb(0,0,0)" stroke-linejoin="round" d="M 15613,2212 L 15463,2212"/>
 <path fill="none" stroke="rgb(0,0,0)" stroke-linejoin="round" d="M 15613,1155 L 15463,1155"/>
 <path fill="none" stroke="rgb(0,0,0)" stroke-linejoin="round" d="M 15613,1155 L 15463,1155"/>
 <path fill="none" stroke="rgb(0,0,0)" stroke-linejoin="round" d="M 15463,10673 L 15463,1155"/>
 <path fill="none" stroke="rgb(131,202,255)" stroke-width="80" stroke-linejoin="round" d="M 1229,1832 L 1356,1912 1483,1920 1610,1962 1737,2033 1864,2064 1991,2137 2118,2181 2245,2201 2372,2262 2499,2366 2627,2390 2754,2510 2881,2569 3008,2650 3135,2669 3262,2739 3389,2798 3516,2877 3643,2888 3770,2960 3898,3081 4025,3110 4152,3219 4279,3372 4406,3501 4533,3660 4660,3747 4787,3855 4914,3970 5041,4060 5169,4071 5296,4130 5423,4233 5550,4324 5677,4426 5804,4552 5931,4674 6058,4829 6185,4847 6312,4921 6440,5049 6567,5130 6694,5265 6821,5418 6948,5502 7075,5671 7202,5890 7329,5870 7456,6147 7583,6139 7711,6233 7838,6088 7965,6168 8092,6311 8219,6450 8345,6559 8472,6602 8599,6715 8726,6830 8853,6913 8980,7003 9108,7006 9235,7120 9362,7087 9489,7084 9616,7149 9743,7214 9870,7253 9997,7616 10124,7745 10251,7795 10379,7827 10506,8037 10633,8069 10760,8092 10887,8217 11014,8366 11141,8491 11268,8470 11395,8536 11522,8594 11650,8565 11777,9170 11904,9494 12031,9071 12158,9089 12285,9035 12412,9227 12539,9373 12666,9429 12793,9664 12921,9697 13048,9647 13175,9683 13302,9739 13429,9806 13556,9806 13683,9787 13810,9801 13937,9864 14064,9982 14192,9948 14319,9927 14446,9887 14573,9973 14700,10025 14827,10057 14954,10032 15081,10022 15208,10008 15335,10073 15463,10180"/>
 <path fill="none" stroke="rgb(0,204,255)" stroke-width="80" stroke-linejoin="round" d="M 1229,9932 L 1356,9817 1483,9845 1610,9777 1737,9708 1864,9680 1991,9601 2118,9493 2245,9439 2372,9361 2499,9322 2627,9235 2754,9162 2881,9097 3008,9010 3135,8987 3262,8934 3389,8875 3516,8837 3643,8813 3770,8779 3898,8684 4025,8703 4152,8681 4279,8705 4406,8782 4533,8833 4660,8927 4787,8980 4914,9020 5041,9059 5169,9120 5296,9156 5423,9192 5550,9261 5677,9310 5804,9338 5931,9392 6058,9440 6185,9509 6312,9556 6440,9591 6567,9622 6694,9665 6821,9692 6948,9746 7075,9772 7202,9791 7329,9840 7456,9852 7583,9883 7711,9881 7838,9925 7965,9957 8092,10003 8219,10021 8345,10039 8472,10083 8599,10092 8726,10124 8853,10134 8980,10140 9108,10186 9235,10201 9362,10211 9489,10228 9616,10251 9743,10243 9870,10283 9997,10299 10124,10302 10251,10339 10379,10347 10506,10344 10633,10380 10760,10402 10887,10407 11014,10420 11141,10423 11268,10416 11395,10411 11522,10410 11650,10402 11777,10427 11904,10444 12031,10420 12158,10468 12285,10492 12412,10504 12539,10513 12666,10501 12793,10536 12921,10519 13048,10518 13175,10532 13302,10533 13429,10541 13556,10543 13683,10541 13810,10543 13937,10567 14064,10576 14192,10575 14319,10580 14446,10580 14573,10594 14700,10595 14827,10591 14954,10591 15081,10596 15208,10611 15335,10617 15463,10625"/>
 <path fill="none" stroke="rgb(0,132,209)" stroke-width="80" stroke-linejoin="round" d="M 3516,10613 L 3643,10593 3770,10578 3898,10547 4025,10511 4152,10446 4279,10252 4406,10071 4533,9879 4660,9729 4787,9590 4914,9439 5041,9333 5169,9223 5296,9143 5423,8994 5550,8864 5677,8743 5804,8591 5931,8466 6058,8313 6185,8231 6312,8117 6440,8017 6567,7934 6694,7803 6821,7720 6948,7657 7075,7462 7202,7225 7329,7274 7456,7074 7583,7176 7711,6944 7838,7000 7965,6892 8092,6733 8219,6646 8345,6622 8472,6578 8599,6445 8726,6448 8853,6452 8980,6437 9108,6544 9235,6613 9362,6531 9489,6484 9616,6485 9743,6544 9870,6581 9997,6530 10124,6351 10251,6399 10379,6422 10506,6350 10633,6455 10760,6538 10887,6347 11014,6351 11141,6351 11268,6274 11395,6264 11522,6217 11650,6018 11777,6038 11904,5786 12031,5754 12158,6001 12285,5887 12412,5724 12539,5909 12666,5751 12793,5541 12921,5622 13048,5804 13175,6092 13302,6222 13429,6083 13556,6257 13683,6605 13810,6613 13937,6825 14064,7182 14192,7184 14319,6934 14446,7103 14573,7138 14700,7246 14827,7075 14954,7179 15081,7209 15208,7256 15335,7240 15463,7400"/>
 <path fill="none" stroke="rgb(0,102,204)" stroke-width="80" stroke-linejoin="round" d="M 8726,10634 L 8853,10567 8980,10505 9108,10453 9235,10419 9362,10366 9489,10313 9616,10274 9743,10198 9870,10174 9997,9979 10124,9844 10251,9821 10379,9825 10506,9718 10633,9734 10760,9739 10887,9670 11014,9599 11141,9581 11268,9581 11395,9599 11522,9510 11650,9590 11777,9205 11904,9057 12031,9491 12158,9518 12285,9472 12412,9473 12539,9476 12666,9271 12793,9324 12921,9354 13048,9495 13175,9592 13302,9616 13429,9525 13556,9636 13683,9658 13810,9722 13937,9782 14064,9806 14192,9854 14319,9876 14446,9922 14573,9944 14700,9991 14827,9887 14954,9934 15081,10059 15208,10055 15335,10068 15463,10127"/>
 <path fill="none" stroke="rgb(0,69,134)" stroke-width="80" stroke-linejoin="round" d="M 12921,10640 L 13048,10233 13175,10135 13302,10038 13429,9936 13556,9883 13683,9754 13810,9678 13937,9623 14064,9645 14192,9421 14319,9214 14446,9069 14573,8953 14700,9073 14827,8993 14954,8916 15081,8927 15208,8841 15335,8887 15463,8993"/>
 <path fill="none" stroke="rgb(0,102,0)" stroke-width="80" stroke-linejoin="round" d="M 1229,10310 L 1356,10293 1483,10278 1610,10280 1737,10274 1864,10308 1991,10276 2118,10282 2245,10298 2372,10297 2499,10277 2627,10271 2754,10236 2881,10202 3008,10174 3135,10192 3262,10176 3389,10182 3516,10173 3643,10176 3770,10159 3898,10157 4025,10132 4152,10116 4279,10132 4406,10132 4533,10129 4660,10144 4787,10109 4914,10110 5041,10116 5169,10127 5296,10137 5423,10144 5550,10144 5677,10149 5804,10142 5931,10142 6058,10119 6185,10126 6312,10119 6440,10104 6567,10112 6694,10109 6821,10084 6948,10079 7075,10034 7202,9982 7329,10038 7456,10053 7583,10059 7711,9996 7838,10033 7965,10034 8092,10046 8219,10022 8345,10003 8472,9990 8599,9986 8726,9996 8853,9984 8980,10009 9108,10015 9235,10019 9362,10030 9489,10016 9616,10012 9743,10002 9870,10011 9997,10011 10124,9971 10251,9962 10379,9985 10506,9987 10633,9993 10760,10002 10887,10002 11014,10004 11141,10035 11268,10087 11395,10101 11522,10086 11650,10109 11777,10056 11904,10043 12031,10043 12158,10079 12285,10082 12412,10052 12539,10072 12666,10046 12793,10038 12921,10036 13048,10037 13175,10047 13302,10033 13429,10101 13556,10116 13683,10077 13810,10070 13937,10096 14064,10014 14192,10060 14319,10048 14446,10075 14573,10121 14700,10182 14827,10195 14954,10173 15081,10238 15208,10215 15335,10234 15463,10257"/>
 <path fill="none" stroke="rgb(255,211,32)" stroke-width="80" stroke-linejoin="round" d="M 2754,10643 L 2881,10635 3008,10612 3135,10609 3262,10603 3389,10596 3516,10593 3643,10589 3770,10579 3898,10572 4025,10571 4152,10562 4279,10548 4406,10526 4533,10509 4660,10502 4787,10486 4914,10476 5041,10470 5169,10461 5296,10421 5423,10406 5550,10381 5677,10380 5804,10366 5931,10314 6058,10277 6185,10268 6312,10262 6440,10208 6567,10169 6694,10147 6821,10093 6948,10000 7075,10040 7202,10089 7329,9965 7456,9966 7583,9747 7711,9909 7838,9912 7965,9902 8092,9853 8219,9808 8345,9808 8472,9703 8599,9728 8726,9585 8853,9571 8980,9529 9108,9427 9235,9282 9362,9406 9489,9517 9616,9494 9743,9467 9870,9360 9997,9255 10124,9482 10251,9378 10379,9282 10506,9265 10633,9071 10760,8943 10887,9051 11014,8961 11141,8774 11268,8845 11395,8755 11522,8755 11650,8965 11777,8965 11904,8806 12031,8941 12158,8548 12285,8735 12412,8712 12539,8339 12666,8687 12793,8575 12921,8457 13048,8577 13175,8245 13302,8140 13429,8325 13556,8094 13683,7932 13810,7940 13937,7607 14064,7358 14192,7368 14319,7800 14446,7750 14573,7647 14700,7278 14827,7614 14954,7576 15081,7359 15208,7419 15335,7278 15463,6805"/>
 <text class="TextShape"><tspan class="TextParagraph" font-family="Arial, sans-serif" font-size="387px" font-weight="400"><tspan class="TextPosition" x="1059" y="11266"><tspan fill="rgb(0,0,0)" stroke="none">2008</tspan></tspan></tspan></text>
 <text class="TextShape"><tspan class="TextParagraph" font-family="Arial, sans-serif" font-size="387px" font-weight="400"><tspan class="TextPosition" x="2584" y="11266"><tspan fill="rgb(0,0,0)" stroke="none">2009</tspan></tspan></tspan></text>
 <text class="TextShape"><tspan class="TextParagraph" font-family="Arial, sans-serif" font-size="387px" font-weight="400"><tspan class="TextPosition" x="4109" y="11266"><tspan fill="rgb(0,0,0)" stroke="none">2010</tspan></tspan></tspan></text>
 <text class="TextShape"><tspan class="TextParagraph" font-family="Arial, sans-serif" font-size="387px" font-weight="400"><tspan class="TextPosition" x="5648" y="11266"><tspan fill="rgb(0,0,0)" stroke="none">2011</tspan></tspan></tspan></text>
 <text class="TextShape"><tspan class="TextParagraph" font-family="Arial, sans-serif" font-size="387px" font-weight="400"><tspan class="TextPosition" x="7159" y="11266"><tspan fill="rgb(0,0,0)" stroke="none">2012</tspan></tspan></tspan></text>
 <text class="TextShape"><tspan class="TextParagraph" font-family="Arial, sans-serif" font-size="387px" font-weight="400"><tspan class="TextPosition" x="8685" y="11266"><tspan fill="rgb(0,0,0)" stroke="none">2013</tspan></tspan></tspan></text>
 <text class="TextShape"><tspan class="TextParagraph" font-family="Arial, sans-serif" font-size="387px" font-weight="400"><tspan class="TextPosition" x="10210" y="11266"><tspan fill="rgb(0,0,0)" stroke="none">2014</tspan></tspan></tspan></text>
 <text class="TextShape"><tspan class="TextParagraph" font-family="Arial, sans-serif" font-size="387px" font-weight="400"><tspan class="TextPosition" x="11735" y="11266"><tspan fill="rgb(0,0,0)" stroke="none">2015</tspan></tspan></tspan></text>
 <text class="TextShape"><tspan class="TextParagraph" font-family="Arial, sans-serif" font-size="387px" font-weight="400"><tspan class="TextPosition" x="13260" y="11266"><tspan fill="rgb(0,0,0)" stroke="none">2016</tspan></tspan></tspan></text>
 <text class="TextShape"><tspan class="TextParagraph" font-family="Arial, sans-serif" font-size="387px" font-weight="400"><tspan class="TextPosition" x="14785" y="11266"><tspan fill="rgb(0,0,0)" stroke="none">2017</tspan></tspan></tspan></text>
 <text class="TextShape"><tspan class="TextParagraph" font-family="Arial, sans-serif" font-size="387px" font-weight="400"><tspan class="TextPosition" x="423" y="10806"><tspan fill="rgb(0,0,0)" stroke="none">0%</tspan></tspan></tspan></text>
 <text class="TextShape"><tspan class="TextParagraph" font-family="Arial, sans-serif" font-size="387px" font-weight="400"><tspan class="TextPosition" x="212" y="9749"><tspan fill="rgb(0,0,0)" stroke="none">10%</tspan></tspan></tspan></text>
 <text class="TextShape"><tspan class="TextParagraph" font-family="Arial, sans-serif" font-size="387px" font-weight="400"><tspan class="TextPosition" x="212" y="8691"><tspan fill="rgb(0,0,0)" stroke="none">20%</tspan></tspan></tspan></text>
 <text class="TextShape"><tspan class="TextParagraph" font-family="Arial, sans-serif" font-size="387px" font-weight="400"><tspan class="TextPosition" x="212" y="7633"><tspan fill="rgb(0,0,0)" stroke="none">30%</tspan></tspan></tspan></text>
 <text class="TextShape"><tspan class="TextParagraph" font-family="Arial, sans-serif" font-size="387px" font-weight="400"><tspan class="TextPosition" x="212" y="6576"><tspan fill="rgb(0,0,0)" stroke="none">40%</tspan></tspan></tspan></text>
 <text class="TextShape"><tspan class="TextParagraph" font-family="Arial, sans-serif" font-size="387px" font-weight="400"><tspan class="TextPosition" x="212" y="5518"><tspan fill="rgb(0,0,0)" stroke="none">50%</tspan></tspan></tspan></text>
 <text class="TextShape"><tspan class="TextParagraph" font-family="Arial, sans-serif" font-size="387px" font-weight="400"><tspan class="TextPosition" x="212" y="4460"><tspan fill="rgb(0,0,0)" stroke="none">60%</tspan></tspan></tspan></text>
 <text class="TextShape"><tspan class="TextParagraph" font-family="Arial, sans-serif" font-size="387px" font-weight="400"><tspan class="TextPosition" x="212" y="3403"><tspan fill="rgb(0,0,0)" stroke="none">70%</tspan></tspan></tspan></text>
 <text class="TextShape"><tspan class="TextParagraph" font-family="Arial, sans-serif" font-size="387px" font-weight="400"><tspan class="TextPosition" x="212" y="2345"><tspan fill="rgb(0,0,0)" stroke="none">80%</tspan></tspan></tspan></text>
 <text class="TextShape"><tspan class="TextParagraph" font-family="Arial, sans-serif" font-size="387px" font-weight="400"><tspan class="TextPosition" x="212" y="1289"><tspan fill="rgb(0,0,0)" stroke="none">90%</tspan></tspan></tspan></text>
 <text class="TextShape"><tspan class="TextParagraph" font-family="Arial, sans-serif" font-size="387px" font-weight="400"><tspan class="TextPosition" x="15713" y="10806"><tspan fill="rgb(0,0,0)" stroke="none">0%</tspan></tspan></tspan></text>
 <text class="TextShape"><tspan class="TextParagraph" font-family="Arial, sans-serif" font-size="387px" font-weight="400"><tspan class="TextPosition" x="15713" y="9749"><tspan fill="rgb(0,0,0)" stroke="none">10%</tspan></tspan></tspan></text>
 <text class="TextShape"><tspan class="TextParagraph" font-family="Arial, sans-serif" font-size="387px" font-weight="400"><tspan class="TextPosition" x="15713" y="8691"><tspan fill="rgb(0,0,0)" stroke="none">20%</tspan></tspan></tspan></text>
 <text class="TextShape"><tspan class="TextParagraph" font-family="Arial, sans-serif" font-size="387px" font-weight="400"><tspan class="TextPosition" x="15713" y="7633"><tspan fill="rgb(0,0,0)" stroke="none">30%</tspan></tspan></tspan></text>
 <text class="TextShape"><tspan class="TextParagraph" font-family="Arial, sans-serif" font-size="387px" font-weight="400"><tspan class="TextPosition" x="15713" y="6576"><tspan fill="rgb(0,0,0)" stroke="none">40%</tspan></tspan></tspan></text>
 <text class="TextShape"><tspan class="TextParagraph" font-family="Arial, sans-serif" font-size="387px" font-weight="400"><tspan class="TextPosition" x="15713" y="5518"><tspan fill="rgb(0,0,0)" stroke="none">50%</tspan></tspan></tspan></text>
 <text class="TextShape"><tspan class="TextParagraph" font-family="Arial, sans-serif" font-size="387px" font-weight="400"><tspan class="TextPosition" x="15713" y="4460"><tspan fill="rgb(0,0,0)" stroke="none">60%</tspan></tspan></tspan></text>
 <text class="TextShape"><tspan class="TextParagraph" font-family="Arial, sans-serif" font-size="387px" font-weight="400"><tspan class="TextPosition" x="15713" y="3403"><tspan fill="rgb(0,0,0)" stroke="none">70%</tspan></tspan></tspan></text>
 <text class="TextShape"><tspan class="TextParagraph" font-family="Arial, sans-serif" font-size="387px" font-weight="400"><tspan class="TextPosition" x="15713" y="2345"><tspan fill="rgb(0,0,0)" stroke="none">80%</tspan></tspan></tspan></text>
 <text class="TextShape"><tspan class="TextParagraph" font-family="Arial, sans-serif" font-size="387px" font-weight="400"><tspan class="TextPosition" x="15713" y="1289"><tspan fill="rgb(0,0,0)" stroke="none">90%</tspan></tspan></tspan></text>
 <text class="TextShape"><tspan class="TextParagraph" font-family="Arial, sans-serif" font-size="634px" font-weight="700"><tspan class="TextPosition" x="3484" y="746"><tspan fill="rgb(0,0,0)" stroke="none">Utilización de sistemas operativos</tspan></tspan></tspan></text>
 <path fill="none" stroke="rgb(131,202,255)" stroke-width="80" stroke-linejoin="round" d="M 1077,11850 L 1877,11850"/>
 <path fill="none" stroke="rgb(0,204,255)" stroke-width="80" stroke-linejoin="round" d="M 3294,11850 L 4094,11850"/>
 <path fill="none" stroke="rgb(0,132,209)" stroke-width="80" stroke-linejoin="round" d="M 5855,11850 L 6655,11850"/>
 <path fill="none" stroke="rgb(0,102,204)" stroke-width="80" stroke-linejoin="round" d="M 7755,11850 L 8554,11850"/>
 <path fill="none" stroke="rgb(0,69,134)" stroke-width="80" stroke-linejoin="round" d="M 9654,11850 L 10454,11850"/>
 <path fill="none" stroke="rgb(0,102,0)" stroke-width="80" stroke-linejoin="round" d="M 11766,11850 L 12566,11850"/>
 <path fill="none" stroke="rgb(255,211,32)" stroke-width="80" stroke-linejoin="round" d="M 13428,11850 L 14228,11850"/>
 <text class="TextShape"><tspan class="TextParagraph" font-family="Arial, sans-serif" font-size="387px" font-weight="400"><tspan class="TextPosition" x="1977" y="11982"><tspan fill="rgb(0,0,0)" stroke="none">Win XP</tspan></tspan></tspan></text>
 <text class="TextShape"><tspan class="TextParagraph" font-family="Arial, sans-serif" font-size="387px" font-weight="400"><tspan class="TextPosition" x="4194" y="11982"><tspan fill="rgb(0,0,0)" stroke="none">Win Vista</tspan></tspan></tspan></text>
 <text class="TextShape"><tspan class="TextParagraph" font-family="Arial, sans-serif" font-size="387px" font-weight="400"><tspan class="TextPosition" x="6755" y="11982"><tspan fill="rgb(0,0,0)" stroke="none">Win 7</tspan></tspan></tspan></text>
 <text class="TextShape"><tspan class="TextParagraph" font-family="Arial, sans-serif" font-size="387px" font-weight="400"><tspan class="TextPosition" x="8654" y="11982"><tspan fill="rgb(0,0,0)" stroke="none">Win 8</tspan></tspan></tspan></text>
 <text class="TextShape"><tspan class="TextParagraph" font-family="Arial, sans-serif" font-size="387px" font-weight="400"><tspan class="TextPosition" x="10554" y="11982"><tspan fill="rgb(0,0,0)" stroke="none">Win 10</tspan></tspan></tspan></text>
 <text class="TextShape"><tspan class="TextParagraph" font-family="Arial, sans-serif" font-size="387px" font-weight="400"><tspan class="TextPosition" x="12666" y="11982"><tspan fill="rgb(0,0,0)" stroke="none">Mac</tspan></tspan></tspan></text>
 <text class="TextShape"><tspan class="TextParagraph" font-family="Arial, sans-serif" font-size="387px" font-weight="400"><tspan class="TextPosition" x="14328" y="11982"><tspan fill="rgb(0,0,0)" stroke="none">Móviles</tspan></tspan></tspan></text>
</svg>
