<?xml version="1.0" encoding="UTF-8"?>
<!DOCTYPE svg PUBLIC "-//W3C//DTD SVG 1.1//EN" "http://www.w3.org/Graphics/SVG/1.1/DTD/svg11.dtd">
<svg width="159mm" height="119mm" viewBox="0 0 15900 11900" version="1.1" xmlns="http://www.w3.org/2000/svg" stroke-width="28.222" stroke-linejoin="round" xml:space="preserve">
 <path fill="rgb(255,255,255)" stroke="none" d="M 7937,11930 L 12,11930 12,0 15862,0 15862,11930 7937,11930 Z"/>
 <path fill="none" stroke="rgb(0,0,0)" stroke-width="50" stroke-linejoin="round" d="M 7997,10699 L 1378,10699 1378,1096 14616,1096 14616,10699 7997,10699 Z"/>
 <path fill="none" stroke="rgb(179,179,179)" stroke-linejoin="round" d="M 14616,10698 L 1378,10698"/>
 <path fill="none" stroke="rgb(179,179,179)" stroke-linejoin="round" d="M 14616,9737 L 1378,9737"/>
 <path fill="none" stroke="rgb(179,179,179)" stroke-linejoin="round" d="M 14616,8777 L 1378,8777"/>
 <path fill="none" stroke="rgb(179,179,179)" stroke-linejoin="round" d="M 14616,7816 L 1378,7816"/>
 <path fill="none" stroke="rgb(179,179,179)" stroke-linejoin="round" d="M 14616,6856 L 1378,6856"/>
 <path fill="none" stroke="rgb(179,179,179)" stroke-linejoin="round" d="M 14616,5897 L 1378,5897"/>
 <path fill="none" stroke="rgb(179,179,179)" stroke-linejoin="round" d="M 14616,4936 L 1378,4936"/>
 <path fill="none" stroke="rgb(179,179,179)" stroke-linejoin="round" d="M 14616,3976 L 1378,3976"/>
 <path fill="none" stroke="rgb(179,179,179)" stroke-linejoin="round" d="M 14616,3015 L 1378,3015"/>
 <path fill="none" stroke="rgb(179,179,179)" stroke-linejoin="round" d="M 14616,2055 L 1378,2055"/>
 <path fill="none" stroke="rgb(179,179,179)" stroke-linejoin="round" d="M 14616,1095 L 1378,1095"/>
 <path fill="none" stroke="rgb(0,0,0)" stroke-width="30" stroke-linejoin="round" d="M 1378,10848 L 1378,10698"/>
 <path fill="none" stroke="rgb(0,0,0)" stroke-width="30" stroke-linejoin="round" d="M 1378,10848 L 1378,10698"/>
 <path fill="none" stroke="rgb(0,0,0)" stroke-width="30" stroke-linejoin="round" d="M 1491,10848 L 1491,10698"/>
 <path fill="none" stroke="rgb(0,0,0)" stroke-width="30" stroke-linejoin="round" d="M 1491,10848 L 1491,10698"/>
 <path fill="none" stroke="rgb(0,0,0)" stroke-width="30" stroke-linejoin="round" d="M 1604,10848 L 1604,10698"/>
 <path fill="none" stroke="rgb(0,0,0)" stroke-width="30" stroke-linejoin="round" d="M 1604,10848 L 1604,10698"/>
 <path fill="none" stroke="rgb(0,0,0)" stroke-width="30" stroke-linejoin="round" d="M 1717,10848 L 1717,10698"/>
 <path fill="none" stroke="rgb(0,0,0)" stroke-width="30" stroke-linejoin="round" d="M 1717,10848 L 1717,10698"/>
 <path fill="none" stroke="rgb(0,0,0)" stroke-width="30" stroke-linejoin="round" d="M 1830,10848 L 1830,10698"/>
 <path fill="none" stroke="rgb(0,0,0)" stroke-width="30" stroke-linejoin="round" d="M 1830,10848 L 1830,10698"/>
 <path fill="none" stroke="rgb(0,0,0)" stroke-width="30" stroke-linejoin="round" d="M 1943,10848 L 1943,10698"/>
 <path fill="none" stroke="rgb(0,0,0)" stroke-width="30" stroke-linejoin="round" d="M 1943,10848 L 1943,10698"/>
 <path fill="none" stroke="rgb(0,0,0)" stroke-width="30" stroke-linejoin="round" d="M 2056,10848 L 2056,10698"/>
 <path fill="none" stroke="rgb(0,0,0)" stroke-width="30" stroke-linejoin="round" d="M 2056,10848 L 2056,10698"/>
 <path fill="none" stroke="rgb(0,0,0)" stroke-width="30" stroke-linejoin="round" d="M 2170,10848 L 2170,10698"/>
 <path fill="none" stroke="rgb(0,0,0)" stroke-width="30" stroke-linejoin="round" d="M 2170,10848 L 2170,10698"/>
 <path fill="none" stroke="rgb(0,0,0)" stroke-width="30" stroke-linejoin="round" d="M 2283,10848 L 2283,10698"/>
 <path fill="none" stroke="rgb(0,0,0)" stroke-width="30" stroke-linejoin="round" d="M 2283,10848 L 2283,10698"/>
 <path fill="none" stroke="rgb(0,0,0)" stroke-width="30" stroke-linejoin="round" d="M 2396,10848 L 2396,10698"/>
 <path fill="none" stroke="rgb(0,0,0)" stroke-width="30" stroke-linejoin="round" d="M 2396,10848 L 2396,10698"/>
 <path fill="none" stroke="rgb(0,0,0)" stroke-width="30" stroke-linejoin="round" d="M 2509,10848 L 2509,10698"/>
 <path fill="none" stroke="rgb(0,0,0)" stroke-width="30" stroke-linejoin="round" d="M 2509,10848 L 2509,10698"/>
 <path fill="none" stroke="rgb(0,0,0)" stroke-width="30" stroke-linejoin="round" d="M 2622,10848 L 2622,10698"/>
 <path fill="none" stroke="rgb(0,0,0)" stroke-width="30" stroke-linejoin="round" d="M 2622,10848 L 2622,10698"/>
 <path fill="none" stroke="rgb(0,0,0)" stroke-width="30" stroke-linejoin="round" d="M 2735,10848 L 2735,10698"/>
 <path fill="none" stroke="rgb(0,0,0)" stroke-width="30" stroke-linejoin="round" d="M 2735,10848 L 2735,10698"/>
 <path fill="none" stroke="rgb(0,0,0)" stroke-width="30" stroke-linejoin="round" d="M 2849,10848 L 2849,10698"/>
 <path fill="none" stroke="rgb(0,0,0)" stroke-width="30" stroke-linejoin="round" d="M 2849,10848 L 2849,10698"/>
 <path fill="none" stroke="rgb(0,0,0)" stroke-width="30" stroke-linejoin="round" d="M 2962,10848 L 2962,10698"/>
 <path fill="none" stroke="rgb(0,0,0)" stroke-width="30" stroke-linejoin="round" d="M 2962,10848 L 2962,10698"/>
 <path fill="none" stroke="rgb(0,0,0)" stroke-width="30" stroke-linejoin="round" d="M 3075,10848 L 3075,10698"/>
 <path fill="none" stroke="rgb(0,0,0)" stroke-width="30" stroke-linejoin="round" d="M 3075,10848 L 3075,10698"/>
 <path fill="none" stroke="rgb(0,0,0)" stroke-width="30" stroke-linejoin="round" d="M 3188,10848 L 3188,10698"/>
 <path fill="none" stroke="rgb(0,0,0)" stroke-width="30" stroke-linejoin="round" d="M 3188,10848 L 3188,10698"/>
 <path fill="none" stroke="rgb(0,0,0)" stroke-width="30" stroke-linejoin="round" d="M 3301,10848 L 3301,10698"/>
 <path fill="none" stroke="rgb(0,0,0)" stroke-width="30" stroke-linejoin="round" d="M 3301,10848 L 3301,10698"/>
 <path fill="none" stroke="rgb(0,0,0)" stroke-width="30" stroke-linejoin="round" d="M 3414,10848 L 3414,10698"/>
 <path fill="none" stroke="rgb(0,0,0)" stroke-width="30" stroke-linejoin="round" d="M 3414,10848 L 3414,10698"/>
 <path fill="none" stroke="rgb(0,0,0)" stroke-width="30" stroke-linejoin="round" d="M 3527,10848 L 3527,10698"/>
 <path fill="none" stroke="rgb(0,0,0)" stroke-width="30" stroke-linejoin="round" d="M 3527,10848 L 3527,10698"/>
 <path fill="none" stroke="rgb(0,0,0)" stroke-width="30" stroke-linejoin="round" d="M 3641,10848 L 3641,10698"/>
 <path fill="none" stroke="rgb(0,0,0)" stroke-width="30" stroke-linejoin="round" d="M 3641,10848 L 3641,10698"/>
 <path fill="none" stroke="rgb(0,0,0)" stroke-width="30" stroke-linejoin="round" d="M 3754,10848 L 3754,10698"/>
 <path fill="none" stroke="rgb(0,0,0)" stroke-width="30" stroke-linejoin="round" d="M 3754,10848 L 3754,10698"/>
 <path fill="none" stroke="rgb(0,0,0)" stroke-width="30" stroke-linejoin="round" d="M 3867,10848 L 3867,10698"/>
 <path fill="none" stroke="rgb(0,0,0)" stroke-width="30" stroke-linejoin="round" d="M 3867,10848 L 3867,10698"/>
 <path fill="none" stroke="rgb(0,0,0)" stroke-width="30" stroke-linejoin="round" d="M 3980,10848 L 3980,10698"/>
 <path fill="none" stroke="rgb(0,0,0)" stroke-width="30" stroke-linejoin="round" d="M 3980,10848 L 3980,10698"/>
 <path fill="none" stroke="rgb(0,0,0)" stroke-width="30" stroke-linejoin="round" d="M 4093,10848 L 4093,10698"/>
 <path fill="none" stroke="rgb(0,0,0)" stroke-width="30" stroke-linejoin="round" d="M 4093,10848 L 4093,10698"/>
 <path fill="none" stroke="rgb(0,0,0)" stroke-width="30" stroke-linejoin="round" d="M 4206,10848 L 4206,10698"/>
 <path fill="none" stroke="rgb(0,0,0)" stroke-width="30" stroke-linejoin="round" d="M 4206,10848 L 4206,10698"/>
 <path fill="none" stroke="rgb(0,0,0)" stroke-width="30" stroke-linejoin="round" d="M 4320,10848 L 4320,10698"/>
 <path fill="none" stroke="rgb(0,0,0)" stroke-width="30" stroke-linejoin="round" d="M 4320,10848 L 4320,10698"/>
 <path fill="none" stroke="rgb(0,0,0)" stroke-width="30" stroke-linejoin="round" d="M 4433,10848 L 4433,10698"/>
 <path fill="none" stroke="rgb(0,0,0)" stroke-width="30" stroke-linejoin="round" d="M 4433,10848 L 4433,10698"/>
 <path fill="none" stroke="rgb(0,0,0)" stroke-width="30" stroke-linejoin="round" d="M 4546,10848 L 4546,10698"/>
 <path fill="none" stroke="rgb(0,0,0)" stroke-width="30" stroke-linejoin="round" d="M 4546,10848 L 4546,10698"/>
 <path fill="none" stroke="rgb(0,0,0)" stroke-width="30" stroke-linejoin="round" d="M 4659,10848 L 4659,10698"/>
 <path fill="none" stroke="rgb(0,0,0)" stroke-width="30" stroke-linejoin="round" d="M 4659,10848 L 4659,10698"/>
 <path fill="none" stroke="rgb(0,0,0)" stroke-width="30" stroke-linejoin="round" d="M 4772,10848 L 4772,10698"/>
 <path fill="none" stroke="rgb(0,0,0)" stroke-width="30" stroke-linejoin="round" d="M 4772,10848 L 4772,10698"/>
 <path fill="none" stroke="rgb(0,0,0)" stroke-width="30" stroke-linejoin="round" d="M 4885,10848 L 4885,10698"/>
 <path fill="none" stroke="rgb(0,0,0)" stroke-width="30" stroke-linejoin="round" d="M 4885,10848 L 4885,10698"/>
 <path fill="none" stroke="rgb(0,0,0)" stroke-width="30" stroke-linejoin="round" d="M 4998,10848 L 4998,10698"/>
 <path fill="none" stroke="rgb(0,0,0)" stroke-width="30" stroke-linejoin="round" d="M 4998,10848 L 4998,10698"/>
 <path fill="none" stroke="rgb(0,0,0)" stroke-width="30" stroke-linejoin="round" d="M 5112,10848 L 5112,10698"/>
 <path fill="none" stroke="rgb(0,0,0)" stroke-width="30" stroke-linejoin="round" d="M 5112,10848 L 5112,10698"/>
 <path fill="none" stroke="rgb(0,0,0)" stroke-width="30" stroke-linejoin="round" d="M 5225,10848 L 5225,10698"/>
 <path fill="none" stroke="rgb(0,0,0)" stroke-width="30" stroke-linejoin="round" d="M 5225,10848 L 5225,10698"/>
 <path fill="none" stroke="rgb(0,0,0)" stroke-width="30" stroke-linejoin="round" d="M 5338,10848 L 5338,10698"/>
 <path fill="none" stroke="rgb(0,0,0)" stroke-width="30" stroke-linejoin="round" d="M 5338,10848 L 5338,10698"/>
 <path fill="none" stroke="rgb(0,0,0)" stroke-width="30" stroke-linejoin="round" d="M 5451,10848 L 5451,10698"/>
 <path fill="none" stroke="rgb(0,0,0)" stroke-width="30" stroke-linejoin="round" d="M 5451,10848 L 5451,10698"/>
 <path fill="none" stroke="rgb(0,0,0)" stroke-width="30" stroke-linejoin="round" d="M 5564,10848 L 5564,10698"/>
 <path fill="none" stroke="rgb(0,0,0)" stroke-width="30" stroke-linejoin="round" d="M 5564,10848 L 5564,10698"/>
 <path fill="none" stroke="rgb(0,0,0)" stroke-width="30" stroke-linejoin="round" d="M 5677,10848 L 5677,10698"/>
 <path fill="none" stroke="rgb(0,0,0)" stroke-width="30" stroke-linejoin="round" d="M 5677,10848 L 5677,10698"/>
 <path fill="none" stroke="rgb(0,0,0)" stroke-width="30" stroke-linejoin="round" d="M 5791,10848 L 5791,10698"/>
 <path fill="none" stroke="rgb(0,0,0)" stroke-width="30" stroke-linejoin="round" d="M 5791,10848 L 5791,10698"/>
 <path fill="none" stroke="rgb(0,0,0)" stroke-width="30" stroke-linejoin="round" d="M 5904,10848 L 5904,10698"/>
 <path fill="none" stroke="rgb(0,0,0)" stroke-width="30" stroke-linejoin="round" d="M 5904,10848 L 5904,10698"/>
 <path fill="none" stroke="rgb(0,0,0)" stroke-width="30" stroke-linejoin="round" d="M 6017,10848 L 6017,10698"/>
 <path fill="none" stroke="rgb(0,0,0)" stroke-width="30" stroke-linejoin="round" d="M 6017,10848 L 6017,10698"/>
 <path fill="none" stroke="rgb(0,0,0)" stroke-width="30" stroke-linejoin="round" d="M 6130,10848 L 6130,10698"/>
 <path fill="none" stroke="rgb(0,0,0)" stroke-width="30" stroke-linejoin="round" d="M 6130,10848 L 6130,10698"/>
 <path fill="none" stroke="rgb(0,0,0)" stroke-width="30" stroke-linejoin="round" d="M 6243,10848 L 6243,10698"/>
 <path fill="none" stroke="rgb(0,0,0)" stroke-width="30" stroke-linejoin="round" d="M 6243,10848 L 6243,10698"/>
 <path fill="none" stroke="rgb(0,0,0)" stroke-width="30" stroke-linejoin="round" d="M 6356,10848 L 6356,10698"/>
 <path fill="none" stroke="rgb(0,0,0)" stroke-width="30" stroke-linejoin="round" d="M 6356,10848 L 6356,10698"/>
 <path fill="none" stroke="rgb(0,0,0)" stroke-width="30" stroke-linejoin="round" d="M 6469,10848 L 6469,10698"/>
 <path fill="none" stroke="rgb(0,0,0)" stroke-width="30" stroke-linejoin="round" d="M 6469,10848 L 6469,10698"/>
 <path fill="none" stroke="rgb(0,0,0)" stroke-width="30" stroke-linejoin="round" d="M 6583,10848 L 6583,10698"/>
 <path fill="none" stroke="rgb(0,0,0)" stroke-width="30" stroke-linejoin="round" d="M 6583,10848 L 6583,10698"/>
 <path fill="none" stroke="rgb(0,0,0)" stroke-width="30" stroke-linejoin="round" d="M 6696,10848 L 6696,10698"/>
 <path fill="none" stroke="rgb(0,0,0)" stroke-width="30" stroke-linejoin="round" d="M 6696,10848 L 6696,10698"/>
 <path fill="none" stroke="rgb(0,0,0)" stroke-width="30" stroke-linejoin="round" d="M 6809,10848 L 6809,10698"/>
 <path fill="none" stroke="rgb(0,0,0)" stroke-width="30" stroke-linejoin="round" d="M 6809,10848 L 6809,10698"/>
 <path fill="none" stroke="rgb(0,0,0)" stroke-width="30" stroke-linejoin="round" d="M 6922,10848 L 6922,10698"/>
 <path fill="none" stroke="rgb(0,0,0)" stroke-width="30" stroke-linejoin="round" d="M 6922,10848 L 6922,10698"/>
 <path fill="none" stroke="rgb(0,0,0)" stroke-width="30" stroke-linejoin="round" d="M 7035,10848 L 7035,10698"/>
 <path fill="none" stroke="rgb(0,0,0)" stroke-width="30" stroke-linejoin="round" d="M 7035,10848 L 7035,10698"/>
 <path fill="none" stroke="rgb(0,0,0)" stroke-width="30" stroke-linejoin="round" d="M 7148,10848 L 7148,10698"/>
 <path fill="none" stroke="rgb(0,0,0)" stroke-width="30" stroke-linejoin="round" d="M 7148,10848 L 7148,10698"/>
 <path fill="none" stroke="rgb(0,0,0)" stroke-width="30" stroke-linejoin="round" d="M 7262,10848 L 7262,10698"/>
 <path fill="none" stroke="rgb(0,0,0)" stroke-width="30" stroke-linejoin="round" d="M 7262,10848 L 7262,10698"/>
 <path fill="none" stroke="rgb(0,0,0)" stroke-width="30" stroke-linejoin="round" d="M 7375,10848 L 7375,10698"/>
 <path fill="none" stroke="rgb(0,0,0)" stroke-width="30" stroke-linejoin="round" d="M 7375,10848 L 7375,10698"/>
 <path fill="none" stroke="rgb(0,0,0)" stroke-width="30" stroke-linejoin="round" d="M 7488,10848 L 7488,10698"/>
 <path fill="none" stroke="rgb(0,0,0)" stroke-width="30" stroke-linejoin="round" d="M 7488,10848 L 7488,10698"/>
 <path fill="none" stroke="rgb(0,0,0)" stroke-width="30" stroke-linejoin="round" d="M 7601,10848 L 7601,10698"/>
 <path fill="none" stroke="rgb(0,0,0)" stroke-width="30" stroke-linejoin="round" d="M 7601,10848 L 7601,10698"/>
 <path fill="none" stroke="rgb(0,0,0)" stroke-width="30" stroke-linejoin="round" d="M 7714,10848 L 7714,10698"/>
 <path fill="none" stroke="rgb(0,0,0)" stroke-width="30" stroke-linejoin="round" d="M 7714,10848 L 7714,10698"/>
 <path fill="none" stroke="rgb(0,0,0)" stroke-width="30" stroke-linejoin="round" d="M 7827,10848 L 7827,10698"/>
 <path fill="none" stroke="rgb(0,0,0)" stroke-width="30" stroke-linejoin="round" d="M 7827,10848 L 7827,10698"/>
 <path fill="none" stroke="rgb(0,0,0)" stroke-width="30" stroke-linejoin="round" d="M 7939,10848 L 7939,10698"/>
 <path fill="none" stroke="rgb(0,0,0)" stroke-width="30" stroke-linejoin="round" d="M 7939,10848 L 7939,10698"/>
 <path fill="none" stroke="rgb(0,0,0)" stroke-width="30" stroke-linejoin="round" d="M 8053,10848 L 8053,10698"/>
 <path fill="none" stroke="rgb(0,0,0)" stroke-width="30" stroke-linejoin="round" d="M 8053,10848 L 8053,10698"/>
 <path fill="none" stroke="rgb(0,0,0)" stroke-width="30" stroke-linejoin="round" d="M 8166,10848 L 8166,10698"/>
 <path fill="none" stroke="rgb(0,0,0)" stroke-width="30" stroke-linejoin="round" d="M 8166,10848 L 8166,10698"/>
 <path fill="none" stroke="rgb(0,0,0)" stroke-width="30" stroke-linejoin="round" d="M 8279,10848 L 8279,10698"/>
 <path fill="none" stroke="rgb(0,0,0)" stroke-width="30" stroke-linejoin="round" d="M 8279,10848 L 8279,10698"/>
 <path fill="none" stroke="rgb(0,0,0)" stroke-width="30" stroke-linejoin="round" d="M 8392,10848 L 8392,10698"/>
 <path fill="none" stroke="rgb(0,0,0)" stroke-width="30" stroke-linejoin="round" d="M 8392,10848 L 8392,10698"/>
 <path fill="none" stroke="rgb(0,0,0)" stroke-width="30" stroke-linejoin="round" d="M 8505,10848 L 8505,10698"/>
 <path fill="none" stroke="rgb(0,0,0)" stroke-width="30" stroke-linejoin="round" d="M 8505,10848 L 8505,10698"/>
 <path fill="none" stroke="rgb(0,0,0)" stroke-width="30" stroke-linejoin="round" d="M 8618,10848 L 8618,10698"/>
 <path fill="none" stroke="rgb(0,0,0)" stroke-width="30" stroke-linejoin="round" d="M 8618,10848 L 8618,10698"/>
 <path fill="none" stroke="rgb(0,0,0)" stroke-width="30" stroke-linejoin="round" d="M 8732,10848 L 8732,10698"/>
 <path fill="none" stroke="rgb(0,0,0)" stroke-width="30" stroke-linejoin="round" d="M 8732,10848 L 8732,10698"/>
 <path fill="none" stroke="rgb(0,0,0)" stroke-width="30" stroke-linejoin="round" d="M 8845,10848 L 8845,10698"/>
 <path fill="none" stroke="rgb(0,0,0)" stroke-width="30" stroke-linejoin="round" d="M 8845,10848 L 8845,10698"/>
 <path fill="none" stroke="rgb(0,0,0)" stroke-width="30" stroke-linejoin="round" d="M 8958,10848 L 8958,10698"/>
 <path fill="none" stroke="rgb(0,0,0)" stroke-width="30" stroke-linejoin="round" d="M 8958,10848 L 8958,10698"/>
 <path fill="none" stroke="rgb(0,0,0)" stroke-width="30" stroke-linejoin="round" d="M 9071,10848 L 9071,10698"/>
 <path fill="none" stroke="rgb(0,0,0)" stroke-width="30" stroke-linejoin="round" d="M 9071,10848 L 9071,10698"/>
 <path fill="none" stroke="rgb(0,0,0)" stroke-width="30" stroke-linejoin="round" d="M 9184,10848 L 9184,10698"/>
 <path fill="none" stroke="rgb(0,0,0)" stroke-width="30" stroke-linejoin="round" d="M 9184,10848 L 9184,10698"/>
 <path fill="none" stroke="rgb(0,0,0)" stroke-width="30" stroke-linejoin="round" d="M 9297,10848 L 9297,10698"/>
 <path fill="none" stroke="rgb(0,0,0)" stroke-width="30" stroke-linejoin="round" d="M 9297,10848 L 9297,10698"/>
 <path fill="none" stroke="rgb(0,0,0)" stroke-width="30" stroke-linejoin="round" d="M 9410,10848 L 9410,10698"/>
 <path fill="none" stroke="rgb(0,0,0)" stroke-width="30" stroke-linejoin="round" d="M 9410,10848 L 9410,10698"/>
 <path fill="none" stroke="rgb(0,0,0)" stroke-width="30" stroke-linejoin="round" d="M 9524,10848 L 9524,10698"/>
 <path fill="none" stroke="rgb(0,0,0)" stroke-width="30" stroke-linejoin="round" d="M 9524,10848 L 9524,10698"/>
 <path fill="none" stroke="rgb(0,0,0)" stroke-width="30" stroke-linejoin="round" d="M 9637,10848 L 9637,10698"/>
 <path fill="none" stroke="rgb(0,0,0)" stroke-width="30" stroke-linejoin="round" d="M 9637,10848 L 9637,10698"/>
 <path fill="none" stroke="rgb(0,0,0)" stroke-width="30" stroke-linejoin="round" d="M 9750,10848 L 9750,10698"/>
 <path fill="none" stroke="rgb(0,0,0)" stroke-width="30" stroke-linejoin="round" d="M 9750,10848 L 9750,10698"/>
 <path fill="none" stroke="rgb(0,0,0)" stroke-width="30" stroke-linejoin="round" d="M 9863,10848 L 9863,10698"/>
 <path fill="none" stroke="rgb(0,0,0)" stroke-width="30" stroke-linejoin="round" d="M 9863,10848 L 9863,10698"/>
 <path fill="none" stroke="rgb(0,0,0)" stroke-width="30" stroke-linejoin="round" d="M 9976,10848 L 9976,10698"/>
 <path fill="none" stroke="rgb(0,0,0)" stroke-width="30" stroke-linejoin="round" d="M 9976,10848 L 9976,10698"/>
 <path fill="none" stroke="rgb(0,0,0)" stroke-width="30" stroke-linejoin="round" d="M 10089,10848 L 10089,10698"/>
 <path fill="none" stroke="rgb(0,0,0)" stroke-width="30" stroke-linejoin="round" d="M 10089,10848 L 10089,10698"/>
 <path fill="none" stroke="rgb(0,0,0)" stroke-width="30" stroke-linejoin="round" d="M 10203,10848 L 10203,10698"/>
 <path fill="none" stroke="rgb(0,0,0)" stroke-width="30" stroke-linejoin="round" d="M 10203,10848 L 10203,10698"/>
 <path fill="none" stroke="rgb(0,0,0)" stroke-width="30" stroke-linejoin="round" d="M 10316,10848 L 10316,10698"/>
 <path fill="none" stroke="rgb(0,0,0)" stroke-width="30" stroke-linejoin="round" d="M 10316,10848 L 10316,10698"/>
 <path fill="none" stroke="rgb(0,0,0)" stroke-width="30" stroke-linejoin="round" d="M 10429,10848 L 10429,10698"/>
 <path fill="none" stroke="rgb(0,0,0)" stroke-width="30" stroke-linejoin="round" d="M 10429,10848 L 10429,10698"/>
 <path fill="none" stroke="rgb(0,0,0)" stroke-width="30" stroke-linejoin="round" d="M 10542,10848 L 10542,10698"/>
 <path fill="none" stroke="rgb(0,0,0)" stroke-width="30" stroke-linejoin="round" d="M 10542,10848 L 10542,10698"/>
 <path fill="none" stroke="rgb(0,0,0)" stroke-width="30" stroke-linejoin="round" d="M 10655,10848 L 10655,10698"/>
 <path fill="none" stroke="rgb(0,0,0)" stroke-width="30" stroke-linejoin="round" d="M 10655,10848 L 10655,10698"/>
 <path fill="none" stroke="rgb(0,0,0)" stroke-width="30" stroke-linejoin="round" d="M 10768,10848 L 10768,10698"/>
 <path fill="none" stroke="rgb(0,0,0)" stroke-width="30" stroke-linejoin="round" d="M 10768,10848 L 10768,10698"/>
 <path fill="none" stroke="rgb(0,0,0)" stroke-width="30" stroke-linejoin="round" d="M 10881,10848 L 10881,10698"/>
 <path fill="none" stroke="rgb(0,0,0)" stroke-width="30" stroke-linejoin="round" d="M 10881,10848 L 10881,10698"/>
 <path fill="none" stroke="rgb(0,0,0)" stroke-width="30" stroke-linejoin="round" d="M 10995,10848 L 10995,10698"/>
 <path fill="none" stroke="rgb(0,0,0)" stroke-width="30" stroke-linejoin="round" d="M 10995,10848 L 10995,10698"/>
 <path fill="none" stroke="rgb(0,0,0)" stroke-width="30" stroke-linejoin="round" d="M 11108,10848 L 11108,10698"/>
 <path fill="none" stroke="rgb(0,0,0)" stroke-width="30" stroke-linejoin="round" d="M 11108,10848 L 11108,10698"/>
 <path fill="none" stroke="rgb(0,0,0)" stroke-width="30" stroke-linejoin="round" d="M 11221,10848 L 11221,10698"/>
 <path fill="none" stroke="rgb(0,0,0)" stroke-width="30" stroke-linejoin="round" d="M 11221,10848 L 11221,10698"/>
 <path fill="none" stroke="rgb(0,0,0)" stroke-width="30" stroke-linejoin="round" d="M 11334,10848 L 11334,10698"/>
 <path fill="none" stroke="rgb(0,0,0)" stroke-width="30" stroke-linejoin="round" d="M 11334,10848 L 11334,10698"/>
 <path fill="none" stroke="rgb(0,0,0)" stroke-width="30" stroke-linejoin="round" d="M 11447,10848 L 11447,10698"/>
 <path fill="none" stroke="rgb(0,0,0)" stroke-width="30" stroke-linejoin="round" d="M 11447,10848 L 11447,10698"/>
 <path fill="none" stroke="rgb(0,0,0)" stroke-width="30" stroke-linejoin="round" d="M 11560,10848 L 11560,10698"/>
 <path fill="none" stroke="rgb(0,0,0)" stroke-width="30" stroke-linejoin="round" d="M 11560,10848 L 11560,10698"/>
 <path fill="none" stroke="rgb(0,0,0)" stroke-width="30" stroke-linejoin="round" d="M 11674,10848 L 11674,10698"/>
 <path fill="none" stroke="rgb(0,0,0)" stroke-width="30" stroke-linejoin="round" d="M 11674,10848 L 11674,10698"/>
 <path fill="none" stroke="rgb(0,0,0)" stroke-width="30" stroke-linejoin="round" d="M 11787,10848 L 11787,10698"/>
 <path fill="none" stroke="rgb(0,0,0)" stroke-width="30" stroke-linejoin="round" d="M 11787,10848 L 11787,10698"/>
 <path fill="none" stroke="rgb(0,0,0)" stroke-width="30" stroke-linejoin="round" d="M 11900,10848 L 11900,10698"/>
 <path fill="none" stroke="rgb(0,0,0)" stroke-width="30" stroke-linejoin="round" d="M 11900,10848 L 11900,10698"/>
 <path fill="none" stroke="rgb(0,0,0)" stroke-width="30" stroke-linejoin="round" d="M 12013,10848 L 12013,10698"/>
 <path fill="none" stroke="rgb(0,0,0)" stroke-width="30" stroke-linejoin="round" d="M 12013,10848 L 12013,10698"/>
 <path fill="none" stroke="rgb(0,0,0)" stroke-width="30" stroke-linejoin="round" d="M 12126,10848 L 12126,10698"/>
 <path fill="none" stroke="rgb(0,0,0)" stroke-width="30" stroke-linejoin="round" d="M 12126,10848 L 12126,10698"/>
 <path fill="none" stroke="rgb(0,0,0)" stroke-width="30" stroke-linejoin="round" d="M 12239,10848 L 12239,10698"/>
 <path fill="none" stroke="rgb(0,0,0)" stroke-width="30" stroke-linejoin="round" d="M 12239,10848 L 12239,10698"/>
 <path fill="none" stroke="rgb(0,0,0)" stroke-width="30" stroke-linejoin="round" d="M 12352,10848 L 12352,10698"/>
 <path fill="none" stroke="rgb(0,0,0)" stroke-width="30" stroke-linejoin="round" d="M 12352,10848 L 12352,10698"/>
 <path fill="none" stroke="rgb(0,0,0)" stroke-width="30" stroke-linejoin="round" d="M 12466,10848 L 12466,10698"/>
 <path fill="none" stroke="rgb(0,0,0)" stroke-width="30" stroke-linejoin="round" d="M 12466,10848 L 12466,10698"/>
 <path fill="none" stroke="rgb(0,0,0)" stroke-width="30" stroke-linejoin="round" d="M 12579,10848 L 12579,10698"/>
 <path fill="none" stroke="rgb(0,0,0)" stroke-width="30" stroke-linejoin="round" d="M 12579,10848 L 12579,10698"/>
 <path fill="none" stroke="rgb(0,0,0)" stroke-width="30" stroke-linejoin="round" d="M 12692,10848 L 12692,10698"/>
 <path fill="none" stroke="rgb(0,0,0)" stroke-width="30" stroke-linejoin="round" d="M 12692,10848 L 12692,10698"/>
 <path fill="none" stroke="rgb(0,0,0)" stroke-width="30" stroke-linejoin="round" d="M 12805,10848 L 12805,10698"/>
 <path fill="none" stroke="rgb(0,0,0)" stroke-width="30" stroke-linejoin="round" d="M 12805,10848 L 12805,10698"/>
 <path fill="none" stroke="rgb(0,0,0)" stroke-width="30" stroke-linejoin="round" d="M 12918,10848 L 12918,10698"/>
 <path fill="none" stroke="rgb(0,0,0)" stroke-width="30" stroke-linejoin="round" d="M 12918,10848 L 12918,10698"/>
 <path fill="none" stroke="rgb(0,0,0)" stroke-width="30" stroke-linejoin="round" d="M 13031,10848 L 13031,10698"/>
 <path fill="none" stroke="rgb(0,0,0)" stroke-width="30" stroke-linejoin="round" d="M 13031,10848 L 13031,10698"/>
 <path fill="none" stroke="rgb(0,0,0)" stroke-width="30" stroke-linejoin="round" d="M 13145,10848 L 13145,10698"/>
 <path fill="none" stroke="rgb(0,0,0)" stroke-width="30" stroke-linejoin="round" d="M 13145,10848 L 13145,10698"/>
 <path fill="none" stroke="rgb(0,0,0)" stroke-width="30" stroke-linejoin="round" d="M 13258,10848 L 13258,10698"/>
 <path fill="none" stroke="rgb(0,0,0)" stroke-width="30" stroke-linejoin="round" d="M 13258,10848 L 13258,10698"/>
 <path fill="none" stroke="rgb(0,0,0)" stroke-width="30" stroke-linejoin="round" d="M 13371,10848 L 13371,10698"/>
 <path fill="none" stroke="rgb(0,0,0)" stroke-width="30" stroke-linejoin="round" d="M 13371,10848 L 13371,10698"/>
 <path fill="none" stroke="rgb(0,0,0)" stroke-width="30" stroke-linejoin="round" d="M 13484,10848 L 13484,10698"/>
 <path fill="none" stroke="rgb(0,0,0)" stroke-width="30" stroke-linejoin="round" d="M 13484,10848 L 13484,10698"/>
 <path fill="none" stroke="rgb(0,0,0)" stroke-width="30" stroke-linejoin="round" d="M 13597,10848 L 13597,10698"/>
 <path fill="none" stroke="rgb(0,0,0)" stroke-width="30" stroke-linejoin="round" d="M 13597,10848 L 13597,10698"/>
 <path fill="none" stroke="rgb(0,0,0)" stroke-width="30" stroke-linejoin="round" d="M 13710,10848 L 13710,10698"/>
 <path fill="none" stroke="rgb(0,0,0)" stroke-width="30" stroke-linejoin="round" d="M 13710,10848 L 13710,10698"/>
 <path fill="none" stroke="rgb(0,0,0)" stroke-width="30" stroke-linejoin="round" d="M 13823,10848 L 13823,10698"/>
 <path fill="none" stroke="rgb(0,0,0)" stroke-width="30" stroke-linejoin="round" d="M 13823,10848 L 13823,10698"/>
 <path fill="none" stroke="rgb(0,0,0)" stroke-width="30" stroke-linejoin="round" d="M 13937,10848 L 13937,10698"/>
 <path fill="none" stroke="rgb(0,0,0)" stroke-width="30" stroke-linejoin="round" d="M 13937,10848 L 13937,10698"/>
 <path fill="none" stroke="rgb(0,0,0)" stroke-width="30" stroke-linejoin="round" d="M 14050,10848 L 14050,10698"/>
 <path fill="none" stroke="rgb(0,0,0)" stroke-width="30" stroke-linejoin="round" d="M 14050,10848 L 14050,10698"/>
 <path fill="none" stroke="rgb(0,0,0)" stroke-width="30" stroke-linejoin="round" d="M 14163,10848 L 14163,10698"/>
 <path fill="none" stroke="rgb(0,0,0)" stroke-width="30" stroke-linejoin="round" d="M 14163,10848 L 14163,10698"/>
 <path fill="none" stroke="rgb(0,0,0)" stroke-width="30" stroke-linejoin="round" d="M 14276,10848 L 14276,10698"/>
 <path fill="none" stroke="rgb(0,0,0)" stroke-width="30" stroke-linejoin="round" d="M 14276,10848 L 14276,10698"/>
 <path fill="none" stroke="rgb(0,0,0)" stroke-width="30" stroke-linejoin="round" d="M 14389,10848 L 14389,10698"/>
 <path fill="none" stroke="rgb(0,0,0)" stroke-width="30" stroke-linejoin="round" d="M 14389,10848 L 14389,10698"/>
 <path fill="none" stroke="rgb(0,0,0)" stroke-width="30" stroke-linejoin="round" d="M 14502,10848 L 14502,10698"/>
 <path fill="none" stroke="rgb(0,0,0)" stroke-width="30" stroke-linejoin="round" d="M 14502,10848 L 14502,10698"/>
 <path fill="none" stroke="rgb(0,0,0)" stroke-width="30" stroke-linejoin="round" d="M 14616,10848 L 14616,10698"/>
 <path fill="none" stroke="rgb(0,0,0)" stroke-width="30" stroke-linejoin="round" d="M 14616,10848 L 14616,10698"/>
 <path fill="none" stroke="rgb(0,0,0)" stroke-width="30" stroke-linejoin="round" d="M 1378,10698 L 14616,10698"/>
 <path fill="none" stroke="rgb(0,0,0)" stroke-width="30" stroke-linejoin="round" d="M 1228,10698 L 1528,10698"/>
 <path fill="none" stroke="rgb(0,0,0)" stroke-width="30" stroke-linejoin="round" d="M 1228,10698 L 1528,10698"/>
 <path fill="none" stroke="rgb(0,0,0)" stroke-width="30" stroke-linejoin="round" d="M 1228,9737 L 1528,9737"/>
 <path fill="none" stroke="rgb(0,0,0)" stroke-width="30" stroke-linejoin="round" d="M 1228,9737 L 1528,9737"/>
 <path fill="none" stroke="rgb(0,0,0)" stroke-width="30" stroke-linejoin="round" d="M 1228,8777 L 1528,8777"/>
 <path fill="none" stroke="rgb(0,0,0)" stroke-width="30" stroke-linejoin="round" d="M 1228,8777 L 1528,8777"/>
 <path fill="none" stroke="rgb(0,0,0)" stroke-width="30" stroke-linejoin="round" d="M 1228,7816 L 1528,7816"/>
 <path fill="none" stroke="rgb(0,0,0)" stroke-width="30" stroke-linejoin="round" d="M 1228,7816 L 1528,7816"/>
 <path fill="none" stroke="rgb(0,0,0)" stroke-width="30" stroke-linejoin="round" d="M 1228,6856 L 1528,6856"/>
 <path fill="none" stroke="rgb(0,0,0)" stroke-width="30" stroke-linejoin="round" d="M 1228,6856 L 1528,6856"/>
 <path fill="none" stroke="rgb(0,0,0)" stroke-width="30" stroke-linejoin="round" d="M 1228,5897 L 1528,5897"/>
 <path fill="none" stroke="rgb(0,0,0)" stroke-width="30" stroke-linejoin="round" d="M 1228,5897 L 1528,5897"/>
 <path fill="none" stroke="rgb(0,0,0)" stroke-width="30" stroke-linejoin="round" d="M 1228,4936 L 1528,4936"/>
 <path fill="none" stroke="rgb(0,0,0)" stroke-width="30" stroke-linejoin="round" d="M 1228,4936 L 1528,4936"/>
 <path fill="none" stroke="rgb(0,0,0)" stroke-width="30" stroke-linejoin="round" d="M 1228,3976 L 1528,3976"/>
 <path fill="none" stroke="rgb(0,0,0)" stroke-width="30" stroke-linejoin="round" d="M 1228,3976 L 1528,3976"/>
 <path fill="none" stroke="rgb(0,0,0)" stroke-width="30" stroke-linejoin="round" d="M 1228,3015 L 1528,3015"/>
 <path fill="none" stroke="rgb(0,0,0)" stroke-width="30" stroke-linejoin="round" d="M 1228,3015 L 1528,3015"/>
 <path fill="none" stroke="rgb(0,0,0)" stroke-width="30" stroke-linejoin="round" d="M 1228,2055 L 1528,2055"/>
 <path fill="none" stroke="rgb(0,0,0)" stroke-width="30" stroke-linejoin="round" d="M 1228,2055 L 1528,2055"/>
 <path fill="none" stroke="rgb(0,0,0)" stroke-width="30" stroke-linejoin="round" d="M 1228,1095 L 1528,1095"/>
 <path fill="none" stroke="rgb(0,0,0)" stroke-width="30" stroke-linejoin="round" d="M 1228,1095 L 1528,1095"/>
 <path fill="none" stroke="rgb(0,0,0)" stroke-width="30" stroke-linejoin="round" d="M 1378,10698 L 1378,1095"/>
 <path fill="none" stroke="rgb(0,0,0)" stroke-width="30" stroke-linejoin="round" d="M 14766,10698 L 14616,10698"/>
 <path fill="none" stroke="rgb(0,0,0)" stroke-width="30" stroke-linejoin="round" d="M 14766,10698 L 14616,10698"/>
 <path fill="none" stroke="rgb(0,0,0)" stroke-width="30" stroke-linejoin="round" d="M 14766,9737 L 14616,9737"/>
 <path fill="none" stroke="rgb(0,0,0)" stroke-width="30" stroke-linejoin="round" d="M 14766,9737 L 14616,9737"/>
 <path fill="none" stroke="rgb(0,0,0)" stroke-width="30" stroke-linejoin="round" d="M 14766,8777 L 14616,8777"/>
 <path fill="none" stroke="rgb(0,0,0)" stroke-width="30" stroke-linejoin="round" d="M 14766,8777 L 14616,8777"/>
 <path fill="none" stroke="rgb(0,0,0)" stroke-width="30" stroke-linejoin="round" d="M 14766,7816 L 14616,7816"/>
 <path fill="none" stroke="rgb(0,0,0)" stroke-width="30" stroke-linejoin="round" d="M 14766,7816 L 14616,7816"/>
 <path fill="none" stroke="rgb(0,0,0)" stroke-width="30" stroke-linejoin="round" d="M 14766,6856 L 14616,6856"/>
 <path fill="none" stroke="rgb(0,0,0)" stroke-width="30" stroke-linejoin="round" d="M 14766,6856 L 14616,6856"/>
 <path fill="none" stroke="rgb(0,0,0)" stroke-width="30" stroke-linejoin="round" d="M 14766,5897 L 14616,5897"/>
 <path fill="none" stroke="rgb(0,0,0)" stroke-width="30" stroke-linejoin="round" d="M 14766,5897 L 14616,5897"/>
 <path fill="none" stroke="rgb(0,0,0)" stroke-width="30" stroke-linejoin="round" d="M 14766,4936 L 14616,4936"/>
 <path fill="none" stroke="rgb(0,0,0)" stroke-width="30" stroke-linejoin="round" d="M 14766,4936 L 14616,4936"/>
 <path fill="none" stroke="rgb(0,0,0)" stroke-width="30" stroke-linejoin="round" d="M 14766,3976 L 14616,3976"/>
 <path fill="none" stroke="rgb(0,0,0)" stroke-width="30" stroke-linejoin="round" d="M 14766,3976 L 14616,3976"/>
 <path fill="none" stroke="rgb(0,0,0)" stroke-width="30" stroke-linejoin="round" d="M 14766,3015 L 14616,3015"/>
 <path fill="none" stroke="rgb(0,0,0)" stroke-width="30" stroke-linejoin="round" d="M 14766,3015 L 14616,3015"/>
 <path fill="none" stroke="rgb(0,0,0)" stroke-width="30" stroke-linejoin="round" d="M 14766,2055 L 14616,2055"/>
 <path fill="none" stroke="rgb(0,0,0)" stroke-width="30" stroke-linejoin="round" d="M 14766,2055 L 14616,2055"/>
 <path fill="none" stroke="rgb(0,0,0)" stroke-width="30" stroke-linejoin="round" d="M 14766,1095 L 14616,1095"/>
 <path fill="none" stroke="rgb(0,0,0)" stroke-width="30" stroke-linejoin="round" d="M 14766,1095 L 14616,1095"/>
 <path fill="none" stroke="rgb(0,0,0)" stroke-width="30" stroke-linejoin="round" d="M 14616,10698 L 14616,1095"/>
 <path fill="rgb(255,211,32)" stroke="none" d="M 1378,10698 L 1491,10698 1604,10698 1717,10698 1830,10698 1943,10698 2056,10698 2170,10698 2283,10698 2396,10698 2509,10592 2622,10601 2735,10590 2849,10564 2962,10551 3075,10550 3188,10544 3301,10526 3414,10490 3527,10469 3641,10452 3754,10427 3867,10395 3980,10356 4093,10322 4206,10258 4320,10203 4433,10161 4546,10112 4659,10054 4772,10030 4885,10009 4998,10016 5112,9985 5225,9936 5338,9897 5451,9818 5564,9748 5677,9680 5791,9655 5904,9597 6017,9570 6130,9512 6243,9461 6356,9443 6469,9227 6583,9165 6696,9019 6809,8995 6922,8916 7035,8936 7148,8946 7262,8983 7375,8945 7488,8859 7601,8898 7714,8946 7827,8888 7939,8923 8053,8897 8166,9017 8279,9001 8392,9052 8505,9118 8618,9135 8732,9123 8845,9179 8958,9055 9071,8995 9184,9097 9297,9103 9410,9127 9524,9074 9637,8982 9750,8950 9863,8869 9976,8815 10089,8893 10203,8736 10316,8591 10429,8507 10542,8596 10655,8556 10768,8482 10881,8460 10995,8349 11108,8166 11221,8120 11334,8088 11447,7843 11560,7900 11674,7815 11787,7751 11900,7612 12013,7504 12126,7412 12239,7335 12352,7258 12466,7042 12579,6930 12692,6643 12805,6439 12918,5855 13031,5916 13145,5755 13258,5510 13371,5413 13484,5443 13597,5371 13710,5388 13823,5316 13937,5191 14050,5295 14163,5236 14276,5126 14389,5126 14502,5104 14616,5113 14616,10698 1378,10698 Z"/>
 <path fill="none" stroke="rgb(0,0,0)" stroke-linejoin="round" d="M 1378,10698 L 1491,10698 1604,10698 1717,10698 1830,10698 1943,10698 2056,10698 2170,10698 2283,10698 2396,10698 2509,10592 2622,10601 2735,10590 2849,10564 2962,10551 3075,10550 3188,10544 3301,10526 3414,10490 3527,10469 3641,10452 3754,10427 3867,10395 3980,10356 4093,10322 4206,10258 4320,10203 4433,10161 4546,10112 4659,10054 4772,10030 4885,10009 4998,10016 5112,9985 5225,9936 5338,9897 5451,9818 5564,9748 5677,9680 5791,9655 5904,9597 6017,9570 6130,9512 6243,9461 6356,9443 6469,9227 6583,9165 6696,9019 6809,8995 6922,8916 7035,8936 7148,8946 7262,8983 7375,8945 7488,8859 7601,8898 7714,8946 7827,8888 7939,8923 8053,8897 8166,9017 8279,9001 8392,9052 8505,9118 8618,9135 8732,9123 8845,9179 8958,9055 9071,8995 9184,9097 9297,9103 9410,9127 9524,9074 9637,8982 9750,8950 9863,8869 9976,8815 10089,8893 10203,8736 10316,8591 10429,8507 10542,8596 10655,8556 10768,8482 10881,8460 10995,8349 11108,8166 11221,8120 11334,8088 11447,7843 11560,7900 11674,7815 11787,7751 11900,7612 12013,7504 12126,7412 12239,7335 12352,7258 12466,7042 12579,6930 12692,6643 12805,6439 12918,5855 13031,5916 13145,5755 13258,5510 13371,5413 13484,5443 13597,5371 13710,5388 13823,5316 13937,5191 14050,5295 14163,5236 14276,5126 14389,5126 14502,5104 14616,5113 14616,10698 1378,10698 Z"/>
 <path fill="rgb(0,69,134)" stroke="none" d="M 1378,3062 L 1491,3127 1604,3182 1717,3225 1830,3263 1943,3242 2056,3404 2170,3459 2283,3446 2396,3481 2509,3468 2622,3529 2735,3714 2849,3794 2962,3858 3075,3903 3188,3970 3301,4018 3414,3952 3527,3912 3641,3960 3754,4005 3867,4094 3980,4155 4093,4221 4206,4247 4320,4242 4433,4261 4546,4300 4659,4309 4772,4311 4885,4228 4998,4196 5112,4203 5225,4227 5338,4227 5451,4221 5564,4280 5677,4317 5791,4217 5904,4242 6017,4293 6130,4315 6243,4319 6356,4394 6469,4288 6583,4280 6696,4275 6809,4312 6922,4349 7035,4329 7148,4278 7262,4230 7375,4167 7488,4113 7601,4179 7714,4281 7827,4249 7939,4273 8053,4262 8166,4332 8279,4336 8392,4410 8505,4495 8618,4510 8732,4377 8845,4438 8958,4306 9071,4261 9184,4345 9297,4211 9410,4259 9524,4243 9637,4203 9750,4243 9863,4240 9976,4126 10089,4264 10203,4157 10316,3962 10429,3946 10542,3948 10655,3852 10768,3817 10881,3803 10995,3637 11108,3729 11221,3636 11334,3675 11447,3685 11560,3613 11674,3658 11787,3680 11900,3574 12013,3674 12126,3672 12239,3560 12352,3674 12466,3680 12579,3721 12692,3656 12805,3642 12918,3270 13031,3314 13145,3301 13258,3246 13371,3396 13484,3497 13597,3544 13710,3659 13823,3655 13937,3592 14050,3805 14163,3740 14276,3528 14389,3671 14502,3607 14616,3723 14616,5113 14502,5104 14389,5126 14276,5126 14163,5236 14050,5295 13937,5191 13823,5316 13710,5388 13597,5371 13484,5443 13371,5413 13258,5510 13145,5755 13031,5916 12918,5855 12805,6439 12692,6643 12579,6930 12466,7042 12352,7258 12239,7335 12126,7412 12013,7504 11900,7612 11787,7751 11674,7815 11560,7900 11447,7843 11334,8088 11221,8120 11108,8166 10995,8349 10881,8460 10768,8482 10655,8556 10542,8596 10429,8507 10316,8591 10203,8736 10089,8893 9976,8815 9863,8869 9750,8950 9637,8982 9524,9074 9410,9127 9297,9103 9184,9097 9071,8995 8958,9055 8845,9179 8732,9123 8618,9135 8505,9118 8392,9052 8279,9001 8166,9017 8053,8897 7939,8923 7827,8888 7714,8946 7601,8898 7488,8859 7375,8945 7262,8983 7148,8946 7035,8936 6922,8916 6809,8995 6696,9019 6583,9165 6469,9227 6356,9443 6243,9461 6130,9512 6017,9570 5904,9597 5791,9655 5677,9680 5564,9748 5451,9818 5338,9897 5225,9936 5112,9985 4998,10016 4885,10009 4772,10030 4659,10054 4546,10112 4433,10161 4320,10203 4206,10258 4093,10322 3980,10356 3867,10395 3754,10427 3641,10452 3527,10469 3414,10490 3301,10526 3188,10544 3075,10550 2962,10551 2849,10564 2735,10590 2622,10601 2509,10592 2396,10698 2283,10698 2170,10698 2056,10698 1943,10698 1830,10698 1717,10698 1604,10698 1491,10698 1378,10698 1378,3062 Z"/>
 <path fill="none" stroke="rgb(0,0,0)" stroke-linejoin="round" d="M 1378,3062 L 1491,3127 1604,3182 1717,3225 1830,3263 1943,3242 2056,3404 2170,3459 2283,3446 2396,3481 2509,3468 2622,3529 2735,3714 2849,3794 2962,3858 3075,3903 3188,3970 3301,4018 3414,3952 3527,3912 3641,3960 3754,4005 3867,4094 3980,4155 4093,4221 4206,4247 4320,4242 4433,4261 4546,4300 4659,4309 4772,4311 4885,4228 4998,4196 5112,4203 5225,4227 5338,4227 5451,4221 5564,4280 5677,4317 5791,4217 5904,4242 6017,4293 6130,4315 6243,4319 6356,4394 6469,4288 6583,4280 6696,4275 6809,4312 6922,4349 7035,4329 7148,4278 7262,4230 7375,4167 7488,4113 7601,4179 7714,4281 7827,4249 7939,4273 8053,4262 8166,4332 8279,4336 8392,4410 8505,4495 8618,4510 8732,4377 8845,4438 8958,4306 9071,4261 9184,4345 9297,4211 9410,4259 9524,4243 9637,4203 9750,4243 9863,4240 9976,4126 10089,4264 10203,4157 10316,3962 10429,3946 10542,3948 10655,3852 10768,3817 10881,3803 10995,3637 11108,3729 11221,3636 11334,3675 11447,3685 11560,3613 11674,3658 11787,3680 11900,3574 12013,3674 12126,3672 12239,3560 12352,3674 12466,3680 12579,3721 12692,3656 12805,3642 12918,3270 13031,3314 13145,3301 13258,3246 13371,3396 13484,3497 13597,3544 13710,3659 13823,3655 13937,3592 14050,3805 14163,3740 14276,3528 14389,3671 14502,3607 14616,3723 14616,5113 14502,5104 14389,5126 14276,5126 14163,5236 14050,5295 13937,5191 13823,5316 13710,5388 13597,5371 13484,5443 13371,5413 13258,5510 13145,5755 13031,5916 12918,5855 12805,6439 12692,6643 12579,6930 12466,7042 12352,7258 12239,7335 12126,7412 12013,7504 11900,7612 11787,7751 11674,7815 11560,7900 11447,7843 11334,8088 11221,8120 11108,8166 10995,8349 10881,8460 10768,8482 10655,8556 10542,8596 10429,8507 10316,8591 10203,8736 10089,8893 9976,8815 9863,8869 9750,8950 9637,8982 9524,9074 9410,9127 9297,9103 9184,9097 9071,8995 8958,9055 8845,9179 8732,9123 8618,9135 8505,9118 8392,9052 8279,9001 8166,9017 8053,8897 7939,8923 7827,8888 7714,8946 7601,8898 7488,8859 7375,8945 7262,8983 7148,8946 7035,8936 6922,8916 6809,8995 6696,9019 6583,9165 6469,9227 6356,9443 6243,9461 6130,9512 6017,9570 5904,9597 5791,9655 5677,9680 5564,9748 5451,9818 5338,9897 5225,9936 5112,9985 4998,10016 4885,10009 4772,10030 4659,10054 4546,10112 4433,10161 4320,10203 4206,10258 4093,10322 3980,10356 3867,10395 3754,10427 3641,10452 3527,10469 3414,10490 3301,10526 3188,10544 3075,10550 2962,10551 2849,10564 2735,10590 2622,10601 2509,10592 2396,10698 2283,10698 2170,10698 2056,10698 1943,10698 1830,10698 1717,10698 1604,10698 1491,10698 1378,10698 1378,3062 Z"/>
 <path fill="rgb(87,157,28)" stroke="none" d="M 1378,2841 L 1491,2890 1604,2931 1717,2972 1830,3005 1943,2996 2056,3130 2170,3195 2283,3193 2396,3223 2509,3199 2622,3255 2735,3420 2849,3470 2962,3512 3075,3574 3188,3622 3301,3683 3414,3600 3527,3551 3641,3576 3754,3620 3867,3691 3980,3740 4093,3811 4206,3828 4320,3818 4433,3840 4546,3860 4659,3862 4772,3865 4885,3770 4998,3721 5112,3719 5225,3739 5338,3733 5451,3704 5564,3733 5677,3729 5791,3625 5904,3626 6017,3626 6130,3637 6243,3628 6356,3648 6469,3562 6583,3515 6696,3461 6809,3518 6922,3521 7035,3443 7148,3392 7262,3376 7375,3298 7488,3240 7601,3254 7714,3350 7827,3224 7939,3269 8053,3241 8166,3278 8279,3269 8392,3280 8505,3365 8618,3378 8732,3312 8845,3348 8958,3220 9071,3125 9184,3187 9297,3154 9410,3128 9524,3065 9637,3032 9750,2989 9863,2963 9976,2892 10089,2981 10203,2887 10316,2806 10429,2798 10542,2780 10655,2795 10768,2710 10881,2591 10995,2569 11108,2539 11221,2525 11334,2558 11447,2496 11560,2543 11674,2508 11787,2473 11900,2430 12013,2459 12126,2388 12239,2520 12352,2554 12466,2559 12579,2600 12692,2482 12805,2543 12918,2331 13031,2326 13145,2299 13258,2262 13371,2406 13484,2579 13597,2620 13710,2604 13823,2530 13937,2512 14050,2482 14163,2499 14276,2543 14389,2397 14502,2408 14616,2415 14616,3723 14502,3607 14389,3671 14276,3528 14163,3740 14050,3805 13937,3592 13823,3655 13710,3659 13597,3544 13484,3497 13371,3396 13258,3246 13145,3301 13031,3314 12918,3270 12805,3642 12692,3656 12579,3721 12466,3680 12352,3674 12239,3560 12126,3672 12013,3674 11900,3574 11787,3680 11674,3658 11560,3613 11447,3685 11334,3675 11221,3636 11108,3729 10995,3637 10881,3803 10768,3817 10655,3852 10542,3948 10429,3946 10316,3962 10203,4157 10089,4264 9976,4126 9863,4240 9750,4243 9637,4203 9524,4243 9410,4259 9297,4211 9184,4345 9071,4261 8958,4306 8845,4438 8732,4377 8618,4510 8505,4495 8392,4410 8279,4336 8166,4332 8053,4262 7939,4273 7827,4249 7714,4281 7601,4179 7488,4113 7375,4167 7262,4230 7148,4278 7035,4329 6922,4349 6809,4312 6696,4275 6583,4280 6469,4288 6356,4394 6243,4319 6130,4315 6017,4293 5904,4242 5791,4217 5677,4317 5564,4280 5451,4221 5338,4227 5225,4227 5112,4203 4998,4196 4885,4228 4772,4311 4659,4309 4546,4300 4433,4261 4320,4242 4206,4247 4093,4221 3980,4155 3867,4094 3754,4005 3641,3960 3527,3912 3414,3952 3301,4018 3188,3970 3075,3903 2962,3858 2849,3794 2735,3714 2622,3529 2509,3468 2396,3481 2283,3446 2170,3459 2056,3404 1943,3242 1830,3263 1717,3225 1604,3182 1491,3127 1378,3062 1378,2841 Z"/>
 <path fill="none" stroke="rgb(0,0,0)" stroke-linejoin="round" d="M 1378,2841 L 1491,2890 1604,2931 1717,2972 1830,3005 1943,2996 2056,3130 2170,3195 2283,3193 2396,3223 2509,3199 2622,3255 2735,3420 2849,3470 2962,3512 3075,3574 3188,3622 3301,3683 3414,3600 3527,3551 3641,3576 3754,3620 3867,3691 3980,3740 4093,3811 4206,3828 4320,3818 4433,3840 4546,3860 4659,3862 4772,3865 4885,3770 4998,3721 5112,3719 5225,3739 5338,3733 5451,3704 5564,3733 5677,3729 5791,3625 5904,3626 6017,3626 6130,3637 6243,3628 6356,3648 6469,3562 6583,3515 6696,3461 6809,3518 6922,3521 7035,3443 7148,3392 7262,3376 7375,3298 7488,3240 7601,3254 7714,3350 7827,3224 7939,3269 8053,3241 8166,3278 8279,3269 8392,3280 8505,3365 8618,3378 8732,3312 8845,3348 8958,3220 9071,3125 9184,3187 9297,3154 9410,3128 9524,3065 9637,3032 9750,2989 9863,2963 9976,2892 10089,2981 10203,2887 10316,2806 10429,2798 10542,2780 10655,2795 10768,2710 10881,2591 10995,2569 11108,2539 11221,2525 11334,2558 11447,2496 11560,2543 11674,2508 11787,2473 11900,2430 12013,2459 12126,2388 12239,2520 12352,2554 12466,2559 12579,2600 12692,2482 12805,2543 12918,2331 13031,2326 13145,2299 13258,2262 13371,2406 13484,2579 13597,2620 13710,2604 13823,2530 13937,2512 14050,2482 14163,2499 14276,2543 14389,2397 14502,2408 14616,2415 14616,3723 14502,3607 14389,3671 14276,3528 14163,3740 14050,3805 13937,3592 13823,3655 13710,3659 13597,3544 13484,3497 13371,3396 13258,3246 13145,3301 13031,3314 12918,3270 12805,3642 12692,3656 12579,3721 12466,3680 12352,3674 12239,3560 12126,3672 12013,3674 11900,3574 11787,3680 11674,3658 11560,3613 11447,3685 11334,3675 11221,3636 11108,3729 10995,3637 10881,3803 10768,3817 10655,3852 10542,3948 10429,3946 10316,3962 10203,4157 10089,4264 9976,4126 9863,4240 9750,4243 9637,4203 9524,4243 9410,4259 9297,4211 9184,4345 9071,4261 8958,4306 8845,4438 8732,4377 8618,4510 8505,4495 8392,4410 8279,4336 8166,4332 8053,4262 7939,4273 7827,4249 7714,4281 7601,4179 7488,4113 7375,4167 7262,4230 7148,4278 7035,4329 6922,4349 6809,4312 6696,4275 6583,4280 6469,4288 6356,4394 6243,4319 6130,4315 6017,4293 5904,4242 5791,4217 5677,4317 5564,4280 5451,4221 5338,4227 5225,4227 5112,4203 4998,4196 4885,4228 4772,4311 4659,4309 4546,4300 4433,4261 4320,4242 4206,4247 4093,4221 3980,4155 3867,4094 3754,4005 3641,3960 3527,3912 3414,3952 3301,4018 3188,3970 3075,3903 2962,3858 2849,3794 2735,3714 2622,3529 2509,3468 2396,3481 2283,3446 2170,3459 2056,3404 1943,3242 1830,3263 1717,3225 1604,3182 1491,3127 1378,3062 1378,2841 Z"/>
 <path fill="rgb(255,66,14)" stroke="none" d="M 1378,1349 L 1491,1323 1604,1335 1717,1339 1830,1343 1943,1346 2056,1367 2170,1373 2283,1370 2396,1373 2509,1362 2622,1370 2735,1378 2849,1384 2962,1386 3075,1403 3188,1382 3301,1391 3414,1412 3527,1399 3641,1415 3754,1408 3867,1405 3980,1423 4093,1433 4206,1458 4320,1465 4433,1508 4546,1498 4659,1494 4772,1525 4885,1490 4998,1528 5112,1523 5225,1544 5338,1553 5451,1523 5564,1549 5677,1551 5791,1543 5904,1539 6017,1555 6130,1565 6243,1552 6356,1592 6469,1546 6583,1500 6696,1432 6809,1547 6922,1603 7035,1627 7148,1542 7262,1556 7375,1515 7488,1498 7601,1495 7714,1614 7827,1491 7939,1529 8053,1535 8166,1539 8279,1589 8392,1608 8505,1706 8618,1714 8732,1600 8845,1624 8958,1643 9071,1626 9184,1677 9297,1641 9410,1625 9524,1597 9637,1578 9750,1602 9863,1630 9976,1582 10089,1701 10203,1649 10316,1683 10429,1719 10542,1675 10655,1783 10768,1749 10881,1635 10995,1724 11108,1710 11221,1704 11334,1727 11447,1718 11560,1724 11674,1670 11787,1670 11900,1635 12013,1725 12126,1670 12239,1741 12352,1803 12466,1882 12579,1906 12692,1897 12805,2040 12918,1876 13031,1896 13145,1857 13258,1832 13371,1911 13484,1924 13597,1938 13710,1905 13823,1841 13937,1854 14050,1871 14163,1869 14276,1876 14389,1731 14502,1680 14616,1739 14616,2415 14502,2408 14389,2397 14276,2543 14163,2499 14050,2482 13937,2512 13823,2530 13710,2604 13597,2620 13484,2579 13371,2406 13258,2262 13145,2299 13031,2326 12918,2331 12805,2543 12692,2482 12579,2600 12466,2559 12352,2554 12239,2520 12126,2388 12013,2459 11900,2430 11787,2473 11674,2508 11560,2543 11447,2496 11334,2558 11221,2525 11108,2539 10995,2569 10881,2591 10768,2710 10655,2795 10542,2780 10429,2798 10316,2806 10203,2887 10089,2981 9976,2892 9863,2963 9750,2989 9637,3032 9524,3065 9410,3128 9297,3154 9184,3187 9071,3125 8958,3220 8845,3348 8732,3312 8618,3378 8505,3365 8392,3280 8279,3269 8166,3278 8053,3241 7939,3269 7827,3224 7714,3350 7601,3254 7488,3240 7375,3298 7262,3376 7148,3392 7035,3443 6922,3521 6809,3518 6696,3461 6583,3515 6469,3562 6356,3648 6243,3628 6130,3637 6017,3626 5904,3626 5791,3625 5677,3729 5564,3733 5451,3704 5338,3733 5225,3739 5112,3719 4998,3721 4885,3770 4772,3865 4659,3862 4546,3860 4433,3840 4320,3818 4206,3828 4093,3811 3980,3740 3867,3691 3754,3620 3641,3576 3527,3551 3414,3600 3301,3683 3188,3622 3075,3574 2962,3512 2849,3470 2735,3420 2622,3255 2509,3199 2396,3223 2283,3193 2170,3195 2056,3130 1943,2996 1830,3005 1717,2972 1604,2931 1491,2890 1378,2841 1378,1349 Z"/>
 <path fill="none" stroke="rgb(0,0,0)" stroke-linejoin="round" d="M 1378,1349 L 1491,1323 1604,1335 1717,1339 1830,1343 1943,1346 2056,1367 2170,1373 2283,1370 2396,1373 2509,1362 2622,1370 2735,1378 2849,1384 2962,1386 3075,1403 3188,1382 3301,1391 3414,1412 3527,1399 3641,1415 3754,1408 3867,1405 3980,1423 4093,1433 4206,1458 4320,1465 4433,1508 4546,1498 4659,1494 4772,1525 4885,1490 4998,1528 5112,1523 5225,1544 5338,1553 5451,1523 5564,1549 5677,1551 5791,1543 5904,1539 6017,1555 6130,1565 6243,1552 6356,1592 6469,1546 6583,1500 6696,1432 6809,1547 6922,1603 7035,1627 7148,1542 7262,1556 7375,1515 7488,1498 7601,1495 7714,1614 7827,1491 7939,1529 8053,1535 8166,1539 8279,1589 8392,1608 8505,1706 8618,1714 8732,1600 8845,1624 8958,1643 9071,1626 9184,1677 9297,1641 9410,1625 9524,1597 9637,1578 9750,1602 9863,1630 9976,1582 10089,1701 10203,1649 10316,1683 10429,1719 10542,1675 10655,1783 10768,1749 10881,1635 10995,1724 11108,1710 11221,1704 11334,1727 11447,1718 11560,1724 11674,1670 11787,1670 11900,1635 12013,1725 12126,1670 12239,1741 12352,1803 12466,1882 12579,1906 12692,1897 12805,2040 12918,1876 13031,1896 13145,1857 13258,1832 13371,1911 13484,1924 13597,1938 13710,1905 13823,1841 13937,1854 14050,1871 14163,1869 14276,1876 14389,1731 14502,1680 14616,1739 14616,2415 14502,2408 14389,2397 14276,2543 14163,2499 14050,2482 13937,2512 13823,2530 13710,2604 13597,2620 13484,2579 13371,2406 13258,2262 13145,2299 13031,2326 12918,2331 12805,2543 12692,2482 12579,2600 12466,2559 12352,2554 12239,2520 12126,2388 12013,2459 11900,2430 11787,2473 11674,2508 11560,2543 11447,2496 11334,2558 11221,2525 11108,2539 10995,2569 10881,2591 10768,2710 10655,2795 10542,2780 10429,2798 10316,2806 10203,2887 10089,2981 9976,2892 9863,2963 9750,2989 9637,3032 9524,3065 9410,3128 9297,3154 9184,3187 9071,3125 8958,3220 8845,3348 8732,3312 8618,3378 8505,3365 8392,3280 8279,3269 8166,3278 8053,3241 7939,3269 7827,3224 7714,3350 7601,3254 7488,3240 7375,3298 7262,3376 7148,3392 7035,3443 6922,3521 6809,3518 6696,3461 6583,3515 6469,3562 6356,3648 6243,3628 6130,3637 6017,3626 5904,3626 5791,3625 5677,3729 5564,3733 5451,3704 5338,3733 5225,3739 5112,3719 4998,3721 4885,3770 4772,3865 4659,3862 4546,3860 4433,3840 4320,3818 4206,3828 4093,3811 3980,3740 3867,3691 3754,3620 3641,3576 3527,3551 3414,3600 3301,3683 3188,3622 3075,3574 2962,3512 2849,3470 2735,3420 2622,3255 2509,3199 2396,3223 2283,3193 2170,3195 2056,3130 1943,2996 1830,3005 1717,2972 1604,2931 1491,2890 1378,2841 1378,1349 Z"/>
 <path fill="rgb(126,0,33)" stroke="none" d="M 1378,1153 L 1491,1156 1604,1146 1717,1144 1830,1148 1943,1153 2056,1160 2170,1153 2283,1151 2396,1150 2509,1150 2622,1147 2735,1148 2849,1152 2962,1151 3075,1172 3188,1158 3301,1172 3414,1192 3527,1189 3641,1206 3754,1192 3867,1174 3980,1190 4093,1173 4206,1181 4320,1187 4433,1227 4546,1201 4659,1203 4772,1228 4885,1215 4998,1226 5112,1217 5225,1227 5338,1253 5451,1228 5564,1245 5677,1255 5791,1240 5904,1242 6017,1256 6130,1274 6243,1281 6356,1337 6469,1274 6583,1241 6696,1221 6809,1284 6922,1301 7035,1320 7148,1288 7262,1323 7375,1291 7488,1270 7601,1273 7714,1411 7827,1284 7939,1311 8053,1318 8166,1329 8279,1334 8392,1350 8505,1395 8618,1475 8732,1354 8845,1367 8958,1398 9071,1400 9184,1447 9297,1442 9410,1445 9524,1437 9637,1430 9750,1448 9863,1479 9976,1452 10089,1501 10203,1461 10316,1497 10429,1515 10542,1477 10655,1623 10768,1580 10881,1454 10995,1528 11108,1520 11221,1507 11334,1525 11447,1530 11560,1504 11674,1463 11787,1484 11900,1466 12013,1546 12126,1494 12239,1563 12352,1593 12466,1629 12579,1641 12692,1659 12805,1797 12918,1689 13031,1678 13145,1673 13258,1642 13371,1712 13484,1752 13597,1766 13710,1725 13823,1697 13937,1708 14050,1714 14163,1733 14276,1703 14389,1623 14502,1581 14616,1643 14616,1739 14502,1680 14389,1731 14276,1876 14163,1869 14050,1871 13937,1854 13823,1841 13710,1905 13597,1938 13484,1924 13371,1911 13258,1832 13145,1857 13031,1896 12918,1876 12805,2040 12692,1897 12579,1906 12466,1882 12352,1803 12239,1741 12126,1670 12013,1725 11900,1635 11787,1670 11674,1670 11560,1724 11447,1718 11334,1727 11221,1704 11108,1710 10995,1724 10881,1635 10768,1749 10655,1783 10542,1675 10429,1719 10316,1683 10203,1649 10089,1701 9976,1582 9863,1630 9750,1602 9637,1578 9524,1597 9410,1625 9297,1641 9184,1677 9071,1626 8958,1643 8845,1624 8732,1600 8618,1714 8505,1706 8392,1608 8279,1589 8166,1539 8053,1535 7939,1529 7827,1491 7714,1614 7601,1495 7488,1498 7375,1515 7262,1556 7148,1542 7035,1627 6922,1603 6809,1547 6696,1432 6583,1500 6469,1546 6356,1592 6243,1552 6130,1565 6017,1555 5904,1539 5791,1543 5677,1551 5564,1549 5451,1523 5338,1553 5225,1544 5112,1523 4998,1528 4885,1490 4772,1525 4659,1494 4546,1498 4433,1508 4320,1465 4206,1458 4093,1433 3980,1423 3867,1405 3754,1408 3641,1415 3527,1399 3414,1412 3301,1391 3188,1382 3075,1403 2962,1386 2849,1384 2735,1378 2622,1370 2509,1362 2396,1373 2283,1370 2170,1373 2056,1367 1943,1346 1830,1343 1717,1339 1604,1335 1491,1323 1378,1349 1378,1153 Z"/>
 <path fill="none" stroke="rgb(0,0,0)" stroke-linejoin="round" d="M 1378,1153 L 1491,1156 1604,1146 1717,1144 1830,1148 1943,1153 2056,1160 2170,1153 2283,1151 2396,1150 2509,1150 2622,1147 2735,1148 2849,1152 2962,1151 3075,1172 3188,1158 3301,1172 3414,1192 3527,1189 3641,1206 3754,1192 3867,1174 3980,1190 4093,1173 4206,1181 4320,1187 4433,1227 4546,1201 4659,1203 4772,1228 4885,1215 4998,1226 5112,1217 5225,1227 5338,1253 5451,1228 5564,1245 5677,1255 5791,1240 5904,1242 6017,1256 6130,1274 6243,1281 6356,1337 6469,1274 6583,1241 6696,1221 6809,1284 6922,1301 7035,1320 7148,1288 7262,1323 7375,1291 7488,1270 7601,1273 7714,1411 7827,1284 7939,1311 8053,1318 8166,1329 8279,1334 8392,1350 8505,1395 8618,1475 8732,1354 8845,1367 8958,1398 9071,1400 9184,1447 9297,1442 9410,1445 9524,1437 9637,1430 9750,1448 9863,1479 9976,1452 10089,1501 10203,1461 10316,1497 10429,1515 10542,1477 10655,1623 10768,1580 10881,1454 10995,1528 11108,1520 11221,1507 11334,1525 11447,1530 11560,1504 11674,1463 11787,1484 11900,1466 12013,1546 12126,1494 12239,1563 12352,1593 12466,1629 12579,1641 12692,1659 12805,1797 12918,1689 13031,1678 13145,1673 13258,1642 13371,1712 13484,1752 13597,1766 13710,1725 13823,1697 13937,1708 14050,1714 14163,1733 14276,1703 14389,1623 14502,1581 14616,1643 14616,1739 14502,1680 14389,1731 14276,1876 14163,1869 14050,1871 13937,1854 13823,1841 13710,1905 13597,1938 13484,1924 13371,1911 13258,1832 13145,1857 13031,1896 12918,1876 12805,2040 12692,1897 12579,1906 12466,1882 12352,1803 12239,1741 12126,1670 12013,1725 11900,1635 11787,1670 11674,1670 11560,1724 11447,1718 11334,1727 11221,1704 11108,1710 10995,1724 10881,1635 10768,1749 10655,1783 10542,1675 10429,1719 10316,1683 10203,1649 10089,1701 9976,1582 9863,1630 9750,1602 9637,1578 9524,1597 9410,1625 9297,1641 9184,1677 9071,1626 8958,1643 8845,1624 8732,1600 8618,1714 8505,1706 8392,1608 8279,1589 8166,1539 8053,1535 7939,1529 7827,1491 7714,1614 7601,1495 7488,1498 7375,1515 7262,1556 7148,1542 7035,1627 6922,1603 6809,1547 6696,1432 6583,1500 6469,1546 6356,1592 6243,1552 6130,1565 6017,1555 5904,1539 5791,1543 5677,1551 5564,1549 5451,1523 5338,1553 5225,1544 5112,1523 4998,1528 4885,1490 4772,1525 4659,1494 4546,1498 4433,1508 4320,1465 4206,1458 4093,1433 3980,1423 3867,1405 3754,1408 3641,1415 3527,1399 3414,1412 3301,1391 3188,1382 3075,1403 2962,1386 2849,1384 2735,1378 2622,1370 2509,1362 2396,1373 2283,1370 2170,1373 2056,1367 1943,1346 1830,1343 1717,1339 1604,1335 1491,1323 1378,1349 1378,1153 Z"/>
 <path fill="rgb(131,202,255)" stroke="none" d="M 1378,1095 L 1491,1095 1604,1095 1717,1095 1830,1095 1943,1095 2056,1095 2170,1095 2283,1095 2396,1095 2509,1095 2622,1095 2735,1095 2849,1095 2962,1095 3075,1095 3188,1095 3301,1095 3414,1095 3527,1095 3641,1095 3754,1095 3867,1095 4093,1095 4206,1095 4320,1095 4433,1095 4546,1095 4772,1095 4998,1095 5112,1095 5225,1095 5338,1095 5451,1095 5564,1095 5677,1095 5791,1095 5904,1095 6017,1095 6130,1095 6243,1095 6356,1095 6583,1095 6696,1095 6809,1095 6922,1095 7035,1095 7148,1095 7450,1095 7488,1095 7601,1095 7903,1095 7939,1095 8053,1095 8166,1095 8279,1095 8392,1095 8618,1095 8732,1095 8845,1095 8958,1095 9071,1095 9184,1095 9297,1095 9410,1095 9524,1095 9637,1095 9750,1095 9863,1095 9976,1095 10089,1095 10203,1095 10316,1095 10429,1095 10542,1095 10655,1095 10693,1095 10881,1095 10995,1095 11108,1095 11221,1095 11334,1095 11447,1095 11674,1095 11787,1095 11900,1095 12013,1095 12126,1095 12239,1095 12352,1095 12466,1095 12579,1095 12692,1095 12805,1095 13031,1095 13145,1095 13258,1095 13371,1095 13484,1095 13597,1095 13710,1095 13823,1095 13937,1095 14050,1095 14163,1095 14276,1095 14389,1095 14502,1095 14616,1095 14616,1643 14502,1581 14389,1623 14276,1703 14163,1733 14050,1714 13937,1708 13823,1697 13710,1725 13597,1766 13484,1752 13371,1712 13258,1642 13145,1673 13031,1678 12918,1689 12805,1797 12692,1659 12579,1641 12466,1629 12352,1593 12239,1563 12126,1494 12013,1546 11900,1466 11787,1484 11674,1463 11560,1504 11447,1530 11334,1525 11221,1507 11108,1520 10995,1528 10881,1454 10768,1580 10655,1623 10542,1477 10429,1515 10316,1497 10203,1461 10089,1501 9976,1452 9863,1479 9750,1448 9637,1430 9524,1437 9410,1445 9297,1442 9184,1447 9071,1400 8958,1398 8845,1367 8732,1354 8618,1475 8505,1395 8392,1350 8279,1334 8166,1329 8053,1318 7939,1311 7827,1284 7714,1411 7601,1273 7488,1270 7375,1291 7262,1323 7148,1288 7035,1320 6922,1301 6809,1284 6696,1221 6583,1241 6469,1274 6356,1337 6243,1281 6130,1274 6017,1256 5904,1242 5791,1240 5677,1255 5564,1245 5451,1228 5338,1253 5225,1227 5112,1217 4998,1226 4885,1215 4772,1228 4659,1203 4546,1201 4433,1227 4320,1187 4206,1181 4093,1173 3980,1190 3867,1174 3754,1192 3641,1206 3527,1189 3414,1192 3301,1172 3188,1158 3075,1172 2962,1151 2849,1152 2735,1148 2622,1147 2509,1150 2396,1150 2283,1151 2170,1153 2056,1160 1943,1153 1830,1148 1717,1144 1604,1146 1491,1156 1378,1153 1378,1095 Z"/>
 <path fill="none" stroke="rgb(0,0,0)" stroke-linejoin="round" d="M 1378,1095 L 1491,1095 1604,1095 1717,1095 1830,1095 1943,1095 2056,1095 2170,1095 2283,1095 2396,1095 2509,1095 2622,1095 2735,1095 2849,1095 2962,1095 3075,1095 3188,1095 3301,1095 3414,1095 3527,1095 3641,1095 3754,1095 3867,1095 4093,1095 4206,1095 4320,1095 4433,1095 4546,1095 4772,1095 4998,1095 5112,1095 5225,1095 5338,1095 5451,1095 5564,1095 5677,1095 5791,1095 5904,1095 6017,1095 6130,1095 6243,1095 6356,1095 6583,1095 6696,1095 6809,1095 6922,1095 7035,1095 7148,1095 7450,1095 7488,1095 7601,1095 7903,1095 7939,1095 8053,1095 8166,1095 8279,1095 8392,1095 8618,1095 8732,1095 8845,1095 8958,1095 9071,1095 9184,1095 9297,1095 9410,1095 9524,1095 9637,1095 9750,1095 9863,1095 9976,1095 10089,1095 10203,1095 10316,1095 10429,1095 10542,1095 10655,1095 10693,1095 10881,1095 10995,1095 11108,1095 11221,1095 11334,1095 11447,1095 11674,1095 11787,1095 11900,1095 12013,1095 12126,1095 12239,1095 12352,1095 12466,1095 12579,1095 12692,1095 12805,1095 13031,1095 13145,1095 13258,1095 13371,1095 13484,1095 13597,1095 13710,1095 13823,1095 13937,1095 14050,1095 14163,1095 14276,1095 14389,1095 14502,1095 14616,1095 14616,1643 14502,1581 14389,1623 14276,1703 14163,1733 14050,1714 13937,1708 13823,1697 13710,1725 13597,1766 13484,1752 13371,1712 13258,1642 13145,1673 13031,1678 12918,1689 12805,1797 12692,1659 12579,1641 12466,1629 12352,1593 12239,1563 12126,1494 12013,1546 11900,1466 11787,1484 11674,1463 11560,1504 11447,1530 11334,1525 11221,1507 11108,1520 10995,1528 10881,1454 10768,1580 10655,1623 10542,1477 10429,1515 10316,1497 10203,1461 10089,1501 9976,1452 9863,1479 9750,1448 9637,1430 9524,1437 9410,1445 9297,1442 9184,1447 9071,1400 8958,1398 8845,1367 8732,1354 8618,1475 8505,1395 8392,1350 8279,1334 8166,1329 8053,1318 7939,1311 7827,1284 7714,1411 7601,1273 7488,1270 7375,1291 7262,1323 7148,1288 7035,1320 6922,1301 6809,1284 6696,1221 6583,1241 6469,1274 6356,1337 6243,1281 6130,1274 6017,1256 5904,1242 5791,1240 5677,1255 5564,1245 5451,1228 5338,1253 5225,1227 5112,1217 4998,1226 4885,1215 4772,1228 4659,1203 4546,1201 4433,1227 4320,1187 4206,1181 4093,1173 3980,1190 3867,1174 3754,1192 3641,1206 3527,1189 3414,1192 3301,1172 3188,1158 3075,1172 2962,1151 2849,1152 2735,1148 2622,1147 2509,1150 2396,1150 2283,1151 2170,1153 2056,1160 1943,1153 1830,1148 1717,1144 1604,1146 1491,1156 1378,1153 1378,1095 Z"/>
 <text class="TextShape"><tspan class="TextParagraph" font-family="Liberation Sans, sans-serif" font-size="388px" font-weight="700"><tspan class="TextPosition" x="1180" y="11292"><tspan fill="rgb(0,0,0)" stroke="none">2008</tspan></tspan></tspan></text>
 <text class="TextShape"><tspan class="TextParagraph" font-family="Liberation Sans, sans-serif" font-size="388px" font-weight="700"><tspan class="TextPosition" x="2538" y="11292"><tspan fill="rgb(0,0,0)" stroke="none">2009</tspan></tspan></tspan></text>
 <text class="TextShape"><tspan class="TextParagraph" font-family="Liberation Sans, sans-serif" font-size="388px" font-weight="700"><tspan class="TextPosition" x="3896" y="11292"><tspan fill="rgb(0,0,0)" stroke="none">2010</tspan></tspan></tspan></text>
 <text class="TextShape"><tspan class="TextParagraph" font-family="Liberation Sans, sans-serif" font-size="388px" font-weight="700"><tspan class="TextPosition" x="5253" y="11292"><tspan fill="rgb(0,0,0)" stroke="none">2011</tspan></tspan></tspan></text>
 <text class="TextShape"><tspan class="TextParagraph" font-family="Liberation Sans, sans-serif" font-size="388px" font-weight="700"><tspan class="TextPosition" x="6611" y="11292"><tspan fill="rgb(0,0,0)" stroke="none">2012</tspan></tspan></tspan></text>
 <text class="TextShape"><tspan class="TextParagraph" font-family="Liberation Sans, sans-serif" font-size="388px" font-weight="700"><tspan class="TextPosition" x="7969" y="11292"><tspan fill="rgb(0,0,0)" stroke="none">2013</tspan></tspan></tspan></text>
 <text class="TextShape"><tspan class="TextParagraph" font-family="Liberation Sans, sans-serif" font-size="388px" font-weight="700"><tspan class="TextPosition" x="9327" y="11292"><tspan fill="rgb(0,0,0)" stroke="none">2014</tspan></tspan></tspan></text>
 <text class="TextShape"><tspan class="TextParagraph" font-family="Liberation Sans, sans-serif" font-size="388px" font-weight="700"><tspan class="TextPosition" x="10685" y="11292"><tspan fill="rgb(0,0,0)" stroke="none">2015</tspan></tspan></tspan></text>
 <text class="TextShape"><tspan class="TextParagraph" font-family="Liberation Sans, sans-serif" font-size="388px" font-weight="700"><tspan class="TextPosition" x="12043" y="11292"><tspan fill="rgb(0,0,0)" stroke="none">2016</tspan></tspan></tspan></text>
 <text class="TextShape"><tspan class="TextParagraph" font-family="Liberation Sans, sans-serif" font-size="388px" font-weight="700"><tspan class="TextPosition" x="13400" y="11292"><tspan fill="rgb(0,0,0)" stroke="none">2017</tspan></tspan></tspan></text>
 <text class="TextShape"><tspan class="TextParagraph" font-family="Liberation Sans, sans-serif" font-size="388px" font-weight="700"><tspan class="TextPosition" x="572" y="10832"><tspan fill="rgb(0,0,0)" stroke="none">0%</tspan></tspan></tspan></text>
 <text class="TextShape"><tspan class="TextParagraph" font-family="Liberation Sans, sans-serif" font-size="388px" font-weight="700"><tspan class="TextPosition" x="361" y="9871"><tspan fill="rgb(0,0,0)" stroke="none">10%</tspan></tspan></tspan></text>
 <text class="TextShape"><tspan class="TextParagraph" font-family="Liberation Sans, sans-serif" font-size="388px" font-weight="700"><tspan class="TextPosition" x="361" y="8911"><tspan fill="rgb(0,0,0)" stroke="none">20%</tspan></tspan></tspan></text>
 <text class="TextShape"><tspan class="TextParagraph" font-family="Liberation Sans, sans-serif" font-size="388px" font-weight="700"><tspan class="TextPosition" x="361" y="7950"><tspan fill="rgb(0,0,0)" stroke="none">30%</tspan></tspan></tspan></text>
 <text class="TextShape"><tspan class="TextParagraph" font-family="Liberation Sans, sans-serif" font-size="388px" font-weight="700"><tspan class="TextPosition" x="361" y="6990"><tspan fill="rgb(0,0,0)" stroke="none">40%</tspan></tspan></tspan></text>
 <text class="TextShape"><tspan class="TextParagraph" font-family="Liberation Sans, sans-serif" font-size="388px" font-weight="700"><tspan class="TextPosition" x="361" y="6030"><tspan fill="rgb(0,0,0)" stroke="none">50%</tspan></tspan></tspan></text>
 <text class="TextShape"><tspan class="TextParagraph" font-family="Liberation Sans, sans-serif" font-size="388px" font-weight="700"><tspan class="TextPosition" x="361" y="5069"><tspan fill="rgb(0,0,0)" stroke="none">60%</tspan></tspan></tspan></text>
 <text class="TextShape"><tspan class="TextParagraph" font-family="Liberation Sans, sans-serif" font-size="388px" font-weight="700"><tspan class="TextPosition" x="361" y="4109"><tspan fill="rgb(0,0,0)" stroke="none">70%</tspan></tspan></tspan></text>
 <text class="TextShape"><tspan class="TextParagraph" font-family="Liberation Sans, sans-serif" font-size="388px" font-weight="700"><tspan class="TextPosition" x="361" y="3148"><tspan fill="rgb(0,0,0)" stroke="none">80%</tspan></tspan></tspan></text>
 <text class="TextShape"><tspan class="TextParagraph" font-family="Liberation Sans, sans-serif" font-size="388px" font-weight="700"><tspan class="TextPosition" x="361" y="2188"><tspan fill="rgb(0,0,0)" stroke="none">90%</tspan></tspan></tspan></text>
 <text class="TextShape"><tspan class="TextParagraph" font-family="Liberation Sans, sans-serif" font-size="388px" font-weight="700"><tspan class="TextPosition" x="149" y="1228"><tspan fill="rgb(0,0,0)" stroke="none">100%</tspan></tspan></tspan></text>
 <text class="TextShape"><tspan class="TextParagraph" font-family="Liberation Sans, sans-serif" font-size="388px" font-weight="700"><tspan class="TextPosition" x="14866" y="10832"><tspan fill="rgb(0,0,0)" stroke="none">0%</tspan></tspan></tspan></text>
 <text class="TextShape"><tspan class="TextParagraph" font-family="Liberation Sans, sans-serif" font-size="388px" font-weight="700"><tspan class="TextPosition" x="14866" y="9871"><tspan fill="rgb(0,0,0)" stroke="none">10%</tspan></tspan></tspan></text>
 <text class="TextShape"><tspan class="TextParagraph" font-family="Liberation Sans, sans-serif" font-size="388px" font-weight="700"><tspan class="TextPosition" x="14866" y="8911"><tspan fill="rgb(0,0,0)" stroke="none">20%</tspan></tspan></tspan></text>
 <text class="TextShape"><tspan class="TextParagraph" font-family="Liberation Sans, sans-serif" font-size="388px" font-weight="700"><tspan class="TextPosition" x="14866" y="7950"><tspan fill="rgb(0,0,0)" stroke="none">30%</tspan></tspan></tspan></text>
 <text class="TextShape"><tspan class="TextParagraph" font-family="Liberation Sans, sans-serif" font-size="388px" font-weight="700"><tspan class="TextPosition" x="14866" y="6990"><tspan fill="rgb(0,0,0)" stroke="none">40%</tspan></tspan></tspan></text>
 <text class="TextShape"><tspan class="TextParagraph" font-family="Liberation Sans, sans-serif" font-size="388px" font-weight="700"><tspan class="TextPosition" x="14866" y="6030"><tspan fill="rgb(0,0,0)" stroke="none">50%</tspan></tspan></tspan></text>
 <text class="TextShape"><tspan class="TextParagraph" font-family="Liberation Sans, sans-serif" font-size="388px" font-weight="700"><tspan class="TextPosition" x="14866" y="5069"><tspan fill="rgb(0,0,0)" stroke="none">60%</tspan></tspan></tspan></text>
 <text class="TextShape"><tspan class="TextParagraph" font-family="Liberation Sans, sans-serif" font-size="388px" font-weight="700"><tspan class="TextPosition" x="14866" y="4109"><tspan fill="rgb(0,0,0)" stroke="none">70%</tspan></tspan></tspan></text>
 <text class="TextShape"><tspan class="TextParagraph" font-family="Liberation Sans, sans-serif" font-size="388px" font-weight="700"><tspan class="TextPosition" x="14866" y="3148"><tspan fill="rgb(0,0,0)" stroke="none">80%</tspan></tspan></tspan></text>
 <text class="TextShape"><tspan class="TextParagraph" font-family="Liberation Sans, sans-serif" font-size="388px" font-weight="700"><tspan class="TextPosition" x="14866" y="2188"><tspan fill="rgb(0,0,0)" stroke="none">90%</tspan></tspan></tspan></text>
 <text class="TextShape"><tspan class="TextParagraph" font-family="Liberation Sans, sans-serif" font-size="388px" font-weight="700"><tspan class="TextPosition" x="14866" y="1228"><tspan fill="rgb(0,0,0)" stroke="none">100%</tspan></tspan></tspan></text>
 <text class="TextShape"><tspan class="TextParagraph" font-family="Arial, sans-serif" font-size="635px" font-weight="400"><tspan class="TextPosition" x="4319" y="759"><tspan fill="rgb(0,0,0)" stroke="none">Utilizacin de navegadores</tspan></tspan></tspan></text>
 <path fill="rgb(255,211,32)" stroke="none" d="M 10799,11722 L 10693,11722 10693,11511 10904,11511 10904,11722 10799,11722 Z"/>
 <path fill="none" stroke="rgb(0,0,0)" stroke-linejoin="round" d="M 10799,11722 L 10693,11722 10693,11511 10904,11511 10904,11722 10799,11722 Z"/>
 <path fill="rgb(0,69,134)" stroke="none" d="M 9892,11722 L 9786,11722 9786,11511 9997,11511 9997,11722 9892,11722 Z"/>
 <path fill="none" stroke="rgb(0,0,0)" stroke-linejoin="round" d="M 9892,11722 L 9786,11722 9786,11511 9997,11511 9997,11722 9892,11722 Z"/>
 <path fill="rgb(87,157,28)" stroke="none" d="M 8376,11722 L 8270,11722 8270,11511 8481,11511 8481,11722 8376,11722 Z"/>
 <path fill="none" stroke="rgb(0,0,0)" stroke-linejoin="round" d="M 8376,11722 L 8270,11722 8270,11511 8481,11511 8481,11722 8376,11722 Z"/>
 <path fill="rgb(255,66,14)" stroke="none" d="M 6675,11722 L 6570,11722 6570,11511 6781,11511 6781,11722 6675,11722 Z"/>
 <path fill="none" stroke="rgb(0,0,0)" stroke-linejoin="round" d="M 6675,11722 L 6570,11722 6570,11511 6781,11511 6781,11722 6675,11722 Z"/>
 <path fill="rgb(126,0,33)" stroke="none" d="M 5133,11722 L 5028,11722 5028,11511 5239,11511 5239,11722 5133,11722 Z"/>
 <path fill="none" stroke="rgb(0,0,0)" stroke-linejoin="round" d="M 5133,11722 L 5028,11722 5028,11511 5239,11511 5239,11722 5133,11722 Z"/>
 <path fill="rgb(131,202,255)" stroke="none" d="M 3670,11722 L 3565,11722 3565,11511 3776,11511 3776,11722 3670,11722 Z"/>
 <path fill="none" stroke="rgb(0,0,0)" stroke-linejoin="round" d="M 3670,11722 L 3565,11722 3565,11511 3776,11511 3776,11722 3670,11722 Z"/>
 <text class="TextShape"><tspan class="TextParagraph" font-family="Arial, sans-serif" font-size="353px" font-weight="700"><tspan class="TextPosition" x="3876" y="11735"><tspan fill="rgb(0,0,0)" stroke="none">Otros</tspan></tspan></tspan></text>
 <text class="TextShape"><tspan class="TextParagraph" font-family="Arial, sans-serif" font-size="353px" font-weight="700"><tspan class="TextPosition" x="5339" y="11735"><tspan fill="rgb(0,0,0)" stroke="none">Opera</tspan></tspan></tspan></text>
 <text class="TextShape"><tspan class="TextParagraph" font-family="Arial, sans-serif" font-size="353px" font-weight="700"><tspan class="TextPosition" x="6881" y="11735"><tspan fill="rgb(0,0,0)" stroke="none">Firefox</tspan></tspan></tspan></text>
 <text class="TextShape"><tspan class="TextParagraph" font-family="Arial, sans-serif" font-size="353px" font-weight="700"><tspan class="TextPosition" x="8581" y="11735"><tspan fill="rgb(0,0,0)" stroke="none">Safari</tspan></tspan></tspan></text>
 <text class="TextShape"><tspan class="TextParagraph" font-family="Arial, sans-serif" font-size="353px" font-weight="700"><tspan class="TextPosition" x="10097" y="11735"><tspan fill="rgb(0,0,0)" stroke="none">IE</tspan></tspan></tspan></text>
 <text class="TextShape"><tspan class="TextParagraph" font-family="Arial, sans-serif" font-size="353px" font-weight="700"><tspan class="TextPosition" x="11004" y="11735"><tspan fill="rgb(0,0,0)" stroke="none">Chrome</tspan></tspan></tspan></text>
</svg>
