<?xml version="1.0" encoding="UTF-8"?>
<!DOCTYPE svg PUBLIC "-//W3C//DTD SVG 1.1//EN" "http://www.w3.org/Graphics/SVG/1.1/DTD/svg11.dtd">
<svg width="166mm" height="124mm" viewBox="0 0 16600 12400" version="1.1" xmlns="http://www.w3.org/2000/svg" stroke-width="28.222" stroke-linejoin="round" xml:space="preserve">
 <path fill="rgb(255,255,255)" stroke="none" d="M 8298,12447 L 0,12447 0,27 16595,27 16595,12447 8298,12447 Z"/>
 <path fill="none" stroke="rgb(179,179,179)" stroke-linejoin="round" d="M 8346,10674 L 1229,10674 1229,1156 15463,1156 15463,10674 8346,10674 Z"/>
 <path fill="none" stroke="rgb(0,0,0)" stroke-linejoin="round" d="M 15463,10673 L 1229,10673"/>
 <path fill="none" stroke="rgb(0,0,0)" stroke-linejoin="round" d="M 15463,9615 L 1229,9615"/>
 <path fill="none" stroke="rgb(0,0,0)" stroke-linejoin="round" d="M 15463,8558 L 1229,8558"/>
 <path fill="none" stroke="rgb(0,0,0)" stroke-linejoin="round" d="M 15463,7500 L 1229,7500"/>
 <path fill="none" stroke="rgb(0,0,0)" stroke-linejoin="round" d="M 15463,6443 L 1229,6443"/>
 <path fill="none" stroke="rgb(0,0,0)" stroke-linejoin="round" d="M 15463,5385 L 1229,5385"/>
 <path fill="none" stroke="rgb(0,0,0)" stroke-linejoin="round" d="M 15463,4327 L 1229,4327"/>
 <path fill="none" stroke="rgb(0,0,0)" stroke-linejoin="round" d="M 15463,3270 L 1229,3270"/>
 <path fill="none" stroke="rgb(0,0,0)" stroke-linejoin="round" d="M 15463,2212 L 1229,2212"/>
 <path fill="none" stroke="rgb(0,0,0)" stroke-linejoin="round" d="M 15463,1155 L 1229,1155"/>
 <path fill="none" stroke="rgb(0,0,0)" stroke-linejoin="round" d="M 1229,10823 L 1229,10673"/>
 <path fill="none" stroke="rgb(0,0,0)" stroke-linejoin="round" d="M 1229,10823 L 1229,10673"/>
 <path fill="none" stroke="rgb(0,0,0)" stroke-linejoin="round" d="M 1349,10823 L 1349,10673"/>
 <path fill="none" stroke="rgb(0,0,0)" stroke-linejoin="round" d="M 1349,10823 L 1349,10673"/>
 <path fill="none" stroke="rgb(0,0,0)" stroke-linejoin="round" d="M 1470,10823 L 1470,10673"/>
 <path fill="none" stroke="rgb(0,0,0)" stroke-linejoin="round" d="M 1470,10823 L 1470,10673"/>
 <path fill="none" stroke="rgb(0,0,0)" stroke-linejoin="round" d="M 1590,10823 L 1590,10673"/>
 <path fill="none" stroke="rgb(0,0,0)" stroke-linejoin="round" d="M 1590,10823 L 1590,10673"/>
 <path fill="none" stroke="rgb(0,0,0)" stroke-linejoin="round" d="M 1711,10823 L 1711,10673"/>
 <path fill="none" stroke="rgb(0,0,0)" stroke-linejoin="round" d="M 1711,10823 L 1711,10673"/>
 <path fill="none" stroke="rgb(0,0,0)" stroke-linejoin="round" d="M 1832,10823 L 1832,10673"/>
 <path fill="none" stroke="rgb(0,0,0)" stroke-linejoin="round" d="M 1832,10823 L 1832,10673"/>
 <path fill="none" stroke="rgb(0,0,0)" stroke-linejoin="round" d="M 1952,10823 L 1952,10673"/>
 <path fill="none" stroke="rgb(0,0,0)" stroke-linejoin="round" d="M 1952,10823 L 1952,10673"/>
 <path fill="none" stroke="rgb(0,0,0)" stroke-linejoin="round" d="M 2073,10823 L 2073,10673"/>
 <path fill="none" stroke="rgb(0,0,0)" stroke-linejoin="round" d="M 2073,10823 L 2073,10673"/>
 <path fill="none" stroke="rgb(0,0,0)" stroke-linejoin="round" d="M 2194,10823 L 2194,10673"/>
 <path fill="none" stroke="rgb(0,0,0)" stroke-linejoin="round" d="M 2194,10823 L 2194,10673"/>
 <path fill="none" stroke="rgb(0,0,0)" stroke-linejoin="round" d="M 2314,10823 L 2314,10673"/>
 <path fill="none" stroke="rgb(0,0,0)" stroke-linejoin="round" d="M 2314,10823 L 2314,10673"/>
 <path fill="none" stroke="rgb(0,0,0)" stroke-linejoin="round" d="M 2435,10823 L 2435,10673"/>
 <path fill="none" stroke="rgb(0,0,0)" stroke-linejoin="round" d="M 2435,10823 L 2435,10673"/>
 <path fill="none" stroke="rgb(0,0,0)" stroke-linejoin="round" d="M 2555,10823 L 2555,10673"/>
 <path fill="none" stroke="rgb(0,0,0)" stroke-linejoin="round" d="M 2555,10823 L 2555,10673"/>
 <path fill="none" stroke="rgb(0,0,0)" stroke-linejoin="round" d="M 2676,10823 L 2676,10673"/>
 <path fill="none" stroke="rgb(0,0,0)" stroke-linejoin="round" d="M 2676,10823 L 2676,10673"/>
 <path fill="none" stroke="rgb(0,0,0)" stroke-linejoin="round" d="M 2797,10823 L 2797,10673"/>
 <path fill="none" stroke="rgb(0,0,0)" stroke-linejoin="round" d="M 2797,10823 L 2797,10673"/>
 <path fill="none" stroke="rgb(0,0,0)" stroke-linejoin="round" d="M 2917,10823 L 2917,10673"/>
 <path fill="none" stroke="rgb(0,0,0)" stroke-linejoin="round" d="M 2917,10823 L 2917,10673"/>
 <path fill="none" stroke="rgb(0,0,0)" stroke-linejoin="round" d="M 3038,10823 L 3038,10673"/>
 <path fill="none" stroke="rgb(0,0,0)" stroke-linejoin="round" d="M 3038,10823 L 3038,10673"/>
 <path fill="none" stroke="rgb(0,0,0)" stroke-linejoin="round" d="M 3159,10823 L 3159,10673"/>
 <path fill="none" stroke="rgb(0,0,0)" stroke-linejoin="round" d="M 3159,10823 L 3159,10673"/>
 <path fill="none" stroke="rgb(0,0,0)" stroke-linejoin="round" d="M 3279,10823 L 3279,10673"/>
 <path fill="none" stroke="rgb(0,0,0)" stroke-linejoin="round" d="M 3279,10823 L 3279,10673"/>
 <path fill="none" stroke="rgb(0,0,0)" stroke-linejoin="round" d="M 3400,10823 L 3400,10673"/>
 <path fill="none" stroke="rgb(0,0,0)" stroke-linejoin="round" d="M 3400,10823 L 3400,10673"/>
 <path fill="none" stroke="rgb(0,0,0)" stroke-linejoin="round" d="M 3521,10823 L 3521,10673"/>
 <path fill="none" stroke="rgb(0,0,0)" stroke-linejoin="round" d="M 3521,10823 L 3521,10673"/>
 <path fill="none" stroke="rgb(0,0,0)" stroke-linejoin="round" d="M 3641,10823 L 3641,10673"/>
 <path fill="none" stroke="rgb(0,0,0)" stroke-linejoin="round" d="M 3641,10823 L 3641,10673"/>
 <path fill="none" stroke="rgb(0,0,0)" stroke-linejoin="round" d="M 3762,10823 L 3762,10673"/>
 <path fill="none" stroke="rgb(0,0,0)" stroke-linejoin="round" d="M 3762,10823 L 3762,10673"/>
 <path fill="none" stroke="rgb(0,0,0)" stroke-linejoin="round" d="M 3882,10823 L 3882,10673"/>
 <path fill="none" stroke="rgb(0,0,0)" stroke-linejoin="round" d="M 3882,10823 L 3882,10673"/>
 <path fill="none" stroke="rgb(0,0,0)" stroke-linejoin="round" d="M 4003,10823 L 4003,10673"/>
 <path fill="none" stroke="rgb(0,0,0)" stroke-linejoin="round" d="M 4003,10823 L 4003,10673"/>
 <path fill="none" stroke="rgb(0,0,0)" stroke-linejoin="round" d="M 4124,10823 L 4124,10673"/>
 <path fill="none" stroke="rgb(0,0,0)" stroke-linejoin="round" d="M 4124,10823 L 4124,10673"/>
 <path fill="none" stroke="rgb(0,0,0)" stroke-linejoin="round" d="M 4244,10823 L 4244,10673"/>
 <path fill="none" stroke="rgb(0,0,0)" stroke-linejoin="round" d="M 4244,10823 L 4244,10673"/>
 <path fill="none" stroke="rgb(0,0,0)" stroke-linejoin="round" d="M 4365,10823 L 4365,10673"/>
 <path fill="none" stroke="rgb(0,0,0)" stroke-linejoin="round" d="M 4365,10823 L 4365,10673"/>
 <path fill="none" stroke="rgb(0,0,0)" stroke-linejoin="round" d="M 4486,10823 L 4486,10673"/>
 <path fill="none" stroke="rgb(0,0,0)" stroke-linejoin="round" d="M 4486,10823 L 4486,10673"/>
 <path fill="none" stroke="rgb(0,0,0)" stroke-linejoin="round" d="M 4606,10823 L 4606,10673"/>
 <path fill="none" stroke="rgb(0,0,0)" stroke-linejoin="round" d="M 4606,10823 L 4606,10673"/>
 <path fill="none" stroke="rgb(0,0,0)" stroke-linejoin="round" d="M 4727,10823 L 4727,10673"/>
 <path fill="none" stroke="rgb(0,0,0)" stroke-linejoin="round" d="M 4727,10823 L 4727,10673"/>
 <path fill="none" stroke="rgb(0,0,0)" stroke-linejoin="round" d="M 4848,10823 L 4848,10673"/>
 <path fill="none" stroke="rgb(0,0,0)" stroke-linejoin="round" d="M 4848,10823 L 4848,10673"/>
 <path fill="none" stroke="rgb(0,0,0)" stroke-linejoin="round" d="M 4968,10823 L 4968,10673"/>
 <path fill="none" stroke="rgb(0,0,0)" stroke-linejoin="round" d="M 4968,10823 L 4968,10673"/>
 <path fill="none" stroke="rgb(0,0,0)" stroke-linejoin="round" d="M 5089,10823 L 5089,10673"/>
 <path fill="none" stroke="rgb(0,0,0)" stroke-linejoin="round" d="M 5089,10823 L 5089,10673"/>
 <path fill="none" stroke="rgb(0,0,0)" stroke-linejoin="round" d="M 5209,10823 L 5209,10673"/>
 <path fill="none" stroke="rgb(0,0,0)" stroke-linejoin="round" d="M 5209,10823 L 5209,10673"/>
 <path fill="none" stroke="rgb(0,0,0)" stroke-linejoin="round" d="M 5330,10823 L 5330,10673"/>
 <path fill="none" stroke="rgb(0,0,0)" stroke-linejoin="round" d="M 5330,10823 L 5330,10673"/>
 <path fill="none" stroke="rgb(0,0,0)" stroke-linejoin="round" d="M 5451,10823 L 5451,10673"/>
 <path fill="none" stroke="rgb(0,0,0)" stroke-linejoin="round" d="M 5451,10823 L 5451,10673"/>
 <path fill="none" stroke="rgb(0,0,0)" stroke-linejoin="round" d="M 5571,10823 L 5571,10673"/>
 <path fill="none" stroke="rgb(0,0,0)" stroke-linejoin="round" d="M 5571,10823 L 5571,10673"/>
 <path fill="none" stroke="rgb(0,0,0)" stroke-linejoin="round" d="M 5692,10823 L 5692,10673"/>
 <path fill="none" stroke="rgb(0,0,0)" stroke-linejoin="round" d="M 5692,10823 L 5692,10673"/>
 <path fill="none" stroke="rgb(0,0,0)" stroke-linejoin="round" d="M 5813,10823 L 5813,10673"/>
 <path fill="none" stroke="rgb(0,0,0)" stroke-linejoin="round" d="M 5813,10823 L 5813,10673"/>
 <path fill="none" stroke="rgb(0,0,0)" stroke-linejoin="round" d="M 5933,10823 L 5933,10673"/>
 <path fill="none" stroke="rgb(0,0,0)" stroke-linejoin="round" d="M 5933,10823 L 5933,10673"/>
 <path fill="none" stroke="rgb(0,0,0)" stroke-linejoin="round" d="M 6054,10823 L 6054,10673"/>
 <path fill="none" stroke="rgb(0,0,0)" stroke-linejoin="round" d="M 6054,10823 L 6054,10673"/>
 <path fill="none" stroke="rgb(0,0,0)" stroke-linejoin="round" d="M 6175,10823 L 6175,10673"/>
 <path fill="none" stroke="rgb(0,0,0)" stroke-linejoin="round" d="M 6175,10823 L 6175,10673"/>
 <path fill="none" stroke="rgb(0,0,0)" stroke-linejoin="round" d="M 6295,10823 L 6295,10673"/>
 <path fill="none" stroke="rgb(0,0,0)" stroke-linejoin="round" d="M 6295,10823 L 6295,10673"/>
 <path fill="none" stroke="rgb(0,0,0)" stroke-linejoin="round" d="M 6416,10823 L 6416,10673"/>
 <path fill="none" stroke="rgb(0,0,0)" stroke-linejoin="round" d="M 6416,10823 L 6416,10673"/>
 <path fill="none" stroke="rgb(0,0,0)" stroke-linejoin="round" d="M 6536,10823 L 6536,10673"/>
 <path fill="none" stroke="rgb(0,0,0)" stroke-linejoin="round" d="M 6536,10823 L 6536,10673"/>
 <path fill="none" stroke="rgb(0,0,0)" stroke-linejoin="round" d="M 6657,10823 L 6657,10673"/>
 <path fill="none" stroke="rgb(0,0,0)" stroke-linejoin="round" d="M 6657,10823 L 6657,10673"/>
 <path fill="none" stroke="rgb(0,0,0)" stroke-linejoin="round" d="M 6778,10823 L 6778,10673"/>
 <path fill="none" stroke="rgb(0,0,0)" stroke-linejoin="round" d="M 6778,10823 L 6778,10673"/>
 <path fill="none" stroke="rgb(0,0,0)" stroke-linejoin="round" d="M 6898,10823 L 6898,10673"/>
 <path fill="none" stroke="rgb(0,0,0)" stroke-linejoin="round" d="M 6898,10823 L 6898,10673"/>
 <path fill="none" stroke="rgb(0,0,0)" stroke-linejoin="round" d="M 7019,10823 L 7019,10673"/>
 <path fill="none" stroke="rgb(0,0,0)" stroke-linejoin="round" d="M 7019,10823 L 7019,10673"/>
 <path fill="none" stroke="rgb(0,0,0)" stroke-linejoin="round" d="M 7140,10823 L 7140,10673"/>
 <path fill="none" stroke="rgb(0,0,0)" stroke-linejoin="round" d="M 7140,10823 L 7140,10673"/>
 <path fill="none" stroke="rgb(0,0,0)" stroke-linejoin="round" d="M 7260,10823 L 7260,10673"/>
 <path fill="none" stroke="rgb(0,0,0)" stroke-linejoin="round" d="M 7260,10823 L 7260,10673"/>
 <path fill="none" stroke="rgb(0,0,0)" stroke-linejoin="round" d="M 7381,10823 L 7381,10673"/>
 <path fill="none" stroke="rgb(0,0,0)" stroke-linejoin="round" d="M 7381,10823 L 7381,10673"/>
 <path fill="none" stroke="rgb(0,0,0)" stroke-linejoin="round" d="M 7502,10823 L 7502,10673"/>
 <path fill="none" stroke="rgb(0,0,0)" stroke-linejoin="round" d="M 7502,10823 L 7502,10673"/>
 <path fill="none" stroke="rgb(0,0,0)" stroke-linejoin="round" d="M 7622,10823 L 7622,10673"/>
 <path fill="none" stroke="rgb(0,0,0)" stroke-linejoin="round" d="M 7622,10823 L 7622,10673"/>
 <path fill="none" stroke="rgb(0,0,0)" stroke-linejoin="round" d="M 7743,10823 L 7743,10673"/>
 <path fill="none" stroke="rgb(0,0,0)" stroke-linejoin="round" d="M 7743,10823 L 7743,10673"/>
 <path fill="none" stroke="rgb(0,0,0)" stroke-linejoin="round" d="M 7863,10823 L 7863,10673"/>
 <path fill="none" stroke="rgb(0,0,0)" stroke-linejoin="round" d="M 7863,10823 L 7863,10673"/>
 <path fill="none" stroke="rgb(0,0,0)" stroke-linejoin="round" d="M 7984,10823 L 7984,10673"/>
 <path fill="none" stroke="rgb(0,0,0)" stroke-linejoin="round" d="M 7984,10823 L 7984,10673"/>
 <path fill="none" stroke="rgb(0,0,0)" stroke-linejoin="round" d="M 8105,10823 L 8105,10673"/>
 <path fill="none" stroke="rgb(0,0,0)" stroke-linejoin="round" d="M 8105,10823 L 8105,10673"/>
 <path fill="none" stroke="rgb(0,0,0)" stroke-linejoin="round" d="M 8225,10823 L 8225,10673"/>
 <path fill="none" stroke="rgb(0,0,0)" stroke-linejoin="round" d="M 8225,10823 L 8225,10673"/>
 <path fill="none" stroke="rgb(0,0,0)" stroke-linejoin="round" d="M 8345,10823 L 8345,10673"/>
 <path fill="none" stroke="rgb(0,0,0)" stroke-linejoin="round" d="M 8345,10823 L 8345,10673"/>
 <path fill="none" stroke="rgb(0,0,0)" stroke-linejoin="round" d="M 8466,10823 L 8466,10673"/>
 <path fill="none" stroke="rgb(0,0,0)" stroke-linejoin="round" d="M 8466,10823 L 8466,10673"/>
 <path fill="none" stroke="rgb(0,0,0)" stroke-linejoin="round" d="M 8586,10823 L 8586,10673"/>
 <path fill="none" stroke="rgb(0,0,0)" stroke-linejoin="round" d="M 8586,10823 L 8586,10673"/>
 <path fill="none" stroke="rgb(0,0,0)" stroke-linejoin="round" d="M 8707,10823 L 8707,10673"/>
 <path fill="none" stroke="rgb(0,0,0)" stroke-linejoin="round" d="M 8707,10823 L 8707,10673"/>
 <path fill="none" stroke="rgb(0,0,0)" stroke-linejoin="round" d="M 8828,10823 L 8828,10673"/>
 <path fill="none" stroke="rgb(0,0,0)" stroke-linejoin="round" d="M 8828,10823 L 8828,10673"/>
 <path fill="none" stroke="rgb(0,0,0)" stroke-linejoin="round" d="M 8948,10823 L 8948,10673"/>
 <path fill="none" stroke="rgb(0,0,0)" stroke-linejoin="round" d="M 8948,10823 L 8948,10673"/>
 <path fill="none" stroke="rgb(0,0,0)" stroke-linejoin="round" d="M 9069,10823 L 9069,10673"/>
 <path fill="none" stroke="rgb(0,0,0)" stroke-linejoin="round" d="M 9069,10823 L 9069,10673"/>
 <path fill="none" stroke="rgb(0,0,0)" stroke-linejoin="round" d="M 9189,10823 L 9189,10673"/>
 <path fill="none" stroke="rgb(0,0,0)" stroke-linejoin="round" d="M 9189,10823 L 9189,10673"/>
 <path fill="none" stroke="rgb(0,0,0)" stroke-linejoin="round" d="M 9310,10823 L 9310,10673"/>
 <path fill="none" stroke="rgb(0,0,0)" stroke-linejoin="round" d="M 9310,10823 L 9310,10673"/>
 <path fill="none" stroke="rgb(0,0,0)" stroke-linejoin="round" d="M 9431,10823 L 9431,10673"/>
 <path fill="none" stroke="rgb(0,0,0)" stroke-linejoin="round" d="M 9431,10823 L 9431,10673"/>
 <path fill="none" stroke="rgb(0,0,0)" stroke-linejoin="round" d="M 9551,10823 L 9551,10673"/>
 <path fill="none" stroke="rgb(0,0,0)" stroke-linejoin="round" d="M 9551,10823 L 9551,10673"/>
 <path fill="none" stroke="rgb(0,0,0)" stroke-linejoin="round" d="M 9672,10823 L 9672,10673"/>
 <path fill="none" stroke="rgb(0,0,0)" stroke-linejoin="round" d="M 9672,10823 L 9672,10673"/>
 <path fill="none" stroke="rgb(0,0,0)" stroke-linejoin="round" d="M 9793,10823 L 9793,10673"/>
 <path fill="none" stroke="rgb(0,0,0)" stroke-linejoin="round" d="M 9793,10823 L 9793,10673"/>
 <path fill="none" stroke="rgb(0,0,0)" stroke-linejoin="round" d="M 9913,10823 L 9913,10673"/>
 <path fill="none" stroke="rgb(0,0,0)" stroke-linejoin="round" d="M 9913,10823 L 9913,10673"/>
 <path fill="none" stroke="rgb(0,0,0)" stroke-linejoin="round" d="M 10034,10823 L 10034,10673"/>
 <path fill="none" stroke="rgb(0,0,0)" stroke-linejoin="round" d="M 10034,10823 L 10034,10673"/>
 <path fill="none" stroke="rgb(0,0,0)" stroke-linejoin="round" d="M 10155,10823 L 10155,10673"/>
 <path fill="none" stroke="rgb(0,0,0)" stroke-linejoin="round" d="M 10155,10823 L 10155,10673"/>
 <path fill="none" stroke="rgb(0,0,0)" stroke-linejoin="round" d="M 10275,10823 L 10275,10673"/>
 <path fill="none" stroke="rgb(0,0,0)" stroke-linejoin="round" d="M 10275,10823 L 10275,10673"/>
 <path fill="none" stroke="rgb(0,0,0)" stroke-linejoin="round" d="M 10396,10823 L 10396,10673"/>
 <path fill="none" stroke="rgb(0,0,0)" stroke-linejoin="round" d="M 10396,10823 L 10396,10673"/>
 <path fill="none" stroke="rgb(0,0,0)" stroke-linejoin="round" d="M 10516,10823 L 10516,10673"/>
 <path fill="none" stroke="rgb(0,0,0)" stroke-linejoin="round" d="M 10516,10823 L 10516,10673"/>
 <path fill="none" stroke="rgb(0,0,0)" stroke-linejoin="round" d="M 10637,10823 L 10637,10673"/>
 <path fill="none" stroke="rgb(0,0,0)" stroke-linejoin="round" d="M 10637,10823 L 10637,10673"/>
 <path fill="none" stroke="rgb(0,0,0)" stroke-linejoin="round" d="M 10758,10823 L 10758,10673"/>
 <path fill="none" stroke="rgb(0,0,0)" stroke-linejoin="round" d="M 10758,10823 L 10758,10673"/>
 <path fill="none" stroke="rgb(0,0,0)" stroke-linejoin="round" d="M 10878,10823 L 10878,10673"/>
 <path fill="none" stroke="rgb(0,0,0)" stroke-linejoin="round" d="M 10878,10823 L 10878,10673"/>
 <path fill="none" stroke="rgb(0,0,0)" stroke-linejoin="round" d="M 10999,10823 L 10999,10673"/>
 <path fill="none" stroke="rgb(0,0,0)" stroke-linejoin="round" d="M 10999,10823 L 10999,10673"/>
 <path fill="none" stroke="rgb(0,0,0)" stroke-linejoin="round" d="M 11120,10823 L 11120,10673"/>
 <path fill="none" stroke="rgb(0,0,0)" stroke-linejoin="round" d="M 11120,10823 L 11120,10673"/>
 <path fill="none" stroke="rgb(0,0,0)" stroke-linejoin="round" d="M 11240,10823 L 11240,10673"/>
 <path fill="none" stroke="rgb(0,0,0)" stroke-linejoin="round" d="M 11240,10823 L 11240,10673"/>
 <path fill="none" stroke="rgb(0,0,0)" stroke-linejoin="round" d="M 11361,10823 L 11361,10673"/>
 <path fill="none" stroke="rgb(0,0,0)" stroke-linejoin="round" d="M 11361,10823 L 11361,10673"/>
 <path fill="none" stroke="rgb(0,0,0)" stroke-linejoin="round" d="M 11482,10823 L 11482,10673"/>
 <path fill="none" stroke="rgb(0,0,0)" stroke-linejoin="round" d="M 11482,10823 L 11482,10673"/>
 <path fill="none" stroke="rgb(0,0,0)" stroke-linejoin="round" d="M 11602,10823 L 11602,10673"/>
 <path fill="none" stroke="rgb(0,0,0)" stroke-linejoin="round" d="M 11602,10823 L 11602,10673"/>
 <path fill="none" stroke="rgb(0,0,0)" stroke-linejoin="round" d="M 11723,10823 L 11723,10673"/>
 <path fill="none" stroke="rgb(0,0,0)" stroke-linejoin="round" d="M 11723,10823 L 11723,10673"/>
 <path fill="none" stroke="rgb(0,0,0)" stroke-linejoin="round" d="M 11843,10823 L 11843,10673"/>
 <path fill="none" stroke="rgb(0,0,0)" stroke-linejoin="round" d="M 11843,10823 L 11843,10673"/>
 <path fill="none" stroke="rgb(0,0,0)" stroke-linejoin="round" d="M 11964,10823 L 11964,10673"/>
 <path fill="none" stroke="rgb(0,0,0)" stroke-linejoin="round" d="M 11964,10823 L 11964,10673"/>
 <path fill="none" stroke="rgb(0,0,0)" stroke-linejoin="round" d="M 12085,10823 L 12085,10673"/>
 <path fill="none" stroke="rgb(0,0,0)" stroke-linejoin="round" d="M 12085,10823 L 12085,10673"/>
 <path fill="none" stroke="rgb(0,0,0)" stroke-linejoin="round" d="M 12205,10823 L 12205,10673"/>
 <path fill="none" stroke="rgb(0,0,0)" stroke-linejoin="round" d="M 12205,10823 L 12205,10673"/>
 <path fill="none" stroke="rgb(0,0,0)" stroke-linejoin="round" d="M 12326,10823 L 12326,10673"/>
 <path fill="none" stroke="rgb(0,0,0)" stroke-linejoin="round" d="M 12326,10823 L 12326,10673"/>
 <path fill="none" stroke="rgb(0,0,0)" stroke-linejoin="round" d="M 12447,10823 L 12447,10673"/>
 <path fill="none" stroke="rgb(0,0,0)" stroke-linejoin="round" d="M 12447,10823 L 12447,10673"/>
 <path fill="none" stroke="rgb(0,0,0)" stroke-linejoin="round" d="M 12567,10823 L 12567,10673"/>
 <path fill="none" stroke="rgb(0,0,0)" stroke-linejoin="round" d="M 12567,10823 L 12567,10673"/>
 <path fill="none" stroke="rgb(0,0,0)" stroke-linejoin="round" d="M 12688,10823 L 12688,10673"/>
 <path fill="none" stroke="rgb(0,0,0)" stroke-linejoin="round" d="M 12688,10823 L 12688,10673"/>
 <path fill="none" stroke="rgb(0,0,0)" stroke-linejoin="round" d="M 12809,10823 L 12809,10673"/>
 <path fill="none" stroke="rgb(0,0,0)" stroke-linejoin="round" d="M 12809,10823 L 12809,10673"/>
 <path fill="none" stroke="rgb(0,0,0)" stroke-linejoin="round" d="M 12929,10823 L 12929,10673"/>
 <path fill="none" stroke="rgb(0,0,0)" stroke-linejoin="round" d="M 12929,10823 L 12929,10673"/>
 <path fill="none" stroke="rgb(0,0,0)" stroke-linejoin="round" d="M 13050,10823 L 13050,10673"/>
 <path fill="none" stroke="rgb(0,0,0)" stroke-linejoin="round" d="M 13050,10823 L 13050,10673"/>
 <path fill="none" stroke="rgb(0,0,0)" stroke-linejoin="round" d="M 13170,10823 L 13170,10673"/>
 <path fill="none" stroke="rgb(0,0,0)" stroke-linejoin="round" d="M 13170,10823 L 13170,10673"/>
 <path fill="none" stroke="rgb(0,0,0)" stroke-linejoin="round" d="M 13291,10823 L 13291,10673"/>
 <path fill="none" stroke="rgb(0,0,0)" stroke-linejoin="round" d="M 13291,10823 L 13291,10673"/>
 <path fill="none" stroke="rgb(0,0,0)" stroke-linejoin="round" d="M 13412,10823 L 13412,10673"/>
 <path fill="none" stroke="rgb(0,0,0)" stroke-linejoin="round" d="M 13412,10823 L 13412,10673"/>
 <path fill="none" stroke="rgb(0,0,0)" stroke-linejoin="round" d="M 13532,10823 L 13532,10673"/>
 <path fill="none" stroke="rgb(0,0,0)" stroke-linejoin="round" d="M 13532,10823 L 13532,10673"/>
 <path fill="none" stroke="rgb(0,0,0)" stroke-linejoin="round" d="M 13653,10823 L 13653,10673"/>
 <path fill="none" stroke="rgb(0,0,0)" stroke-linejoin="round" d="M 13653,10823 L 13653,10673"/>
 <path fill="none" stroke="rgb(0,0,0)" stroke-linejoin="round" d="M 13774,10823 L 13774,10673"/>
 <path fill="none" stroke="rgb(0,0,0)" stroke-linejoin="round" d="M 13774,10823 L 13774,10673"/>
 <path fill="none" stroke="rgb(0,0,0)" stroke-linejoin="round" d="M 13894,10823 L 13894,10673"/>
 <path fill="none" stroke="rgb(0,0,0)" stroke-linejoin="round" d="M 13894,10823 L 13894,10673"/>
 <path fill="none" stroke="rgb(0,0,0)" stroke-linejoin="round" d="M 14015,10823 L 14015,10673"/>
 <path fill="none" stroke="rgb(0,0,0)" stroke-linejoin="round" d="M 14015,10823 L 14015,10673"/>
 <path fill="none" stroke="rgb(0,0,0)" stroke-linejoin="round" d="M 14136,10823 L 14136,10673"/>
 <path fill="none" stroke="rgb(0,0,0)" stroke-linejoin="round" d="M 14136,10823 L 14136,10673"/>
 <path fill="none" stroke="rgb(0,0,0)" stroke-linejoin="round" d="M 14256,10823 L 14256,10673"/>
 <path fill="none" stroke="rgb(0,0,0)" stroke-linejoin="round" d="M 14256,10823 L 14256,10673"/>
 <path fill="none" stroke="rgb(0,0,0)" stroke-linejoin="round" d="M 14377,10823 L 14377,10673"/>
 <path fill="none" stroke="rgb(0,0,0)" stroke-linejoin="round" d="M 14377,10823 L 14377,10673"/>
 <path fill="none" stroke="rgb(0,0,0)" stroke-linejoin="round" d="M 14497,10823 L 14497,10673"/>
 <path fill="none" stroke="rgb(0,0,0)" stroke-linejoin="round" d="M 14497,10823 L 14497,10673"/>
 <path fill="none" stroke="rgb(0,0,0)" stroke-linejoin="round" d="M 14618,10823 L 14618,10673"/>
 <path fill="none" stroke="rgb(0,0,0)" stroke-linejoin="round" d="M 14618,10823 L 14618,10673"/>
 <path fill="none" stroke="rgb(0,0,0)" stroke-linejoin="round" d="M 14739,10823 L 14739,10673"/>
 <path fill="none" stroke="rgb(0,0,0)" stroke-linejoin="round" d="M 14739,10823 L 14739,10673"/>
 <path fill="none" stroke="rgb(0,0,0)" stroke-linejoin="round" d="M 14859,10823 L 14859,10673"/>
 <path fill="none" stroke="rgb(0,0,0)" stroke-linejoin="round" d="M 14859,10823 L 14859,10673"/>
 <path fill="none" stroke="rgb(0,0,0)" stroke-linejoin="round" d="M 14980,10823 L 14980,10673"/>
 <path fill="none" stroke="rgb(0,0,0)" stroke-linejoin="round" d="M 14980,10823 L 14980,10673"/>
 <path fill="none" stroke="rgb(0,0,0)" stroke-linejoin="round" d="M 15101,10823 L 15101,10673"/>
 <path fill="none" stroke="rgb(0,0,0)" stroke-linejoin="round" d="M 15101,10823 L 15101,10673"/>
 <path fill="none" stroke="rgb(0,0,0)" stroke-linejoin="round" d="M 15221,10823 L 15221,10673"/>
 <path fill="none" stroke="rgb(0,0,0)" stroke-linejoin="round" d="M 15221,10823 L 15221,10673"/>
 <path fill="none" stroke="rgb(0,0,0)" stroke-linejoin="round" d="M 15342,10823 L 15342,10673"/>
 <path fill="none" stroke="rgb(0,0,0)" stroke-linejoin="round" d="M 15342,10823 L 15342,10673"/>
 <path fill="none" stroke="rgb(0,0,0)" stroke-linejoin="round" d="M 15463,10823 L 15463,10673"/>
 <path fill="none" stroke="rgb(0,0,0)" stroke-linejoin="round" d="M 15463,10823 L 15463,10673"/>
 <path fill="none" stroke="rgb(0,0,0)" stroke-linejoin="round" d="M 1229,10673 L 15463,10673"/>
 <path fill="none" stroke="rgb(0,0,0)" stroke-linejoin="round" d="M 1079,10673 L 1229,10673"/>
 <path fill="none" stroke="rgb(0,0,0)" stroke-linejoin="round" d="M 1079,10673 L 1229,10673"/>
 <path fill="none" stroke="rgb(0,0,0)" stroke-linejoin="round" d="M 1079,9615 L 1229,9615"/>
 <path fill="none" stroke="rgb(0,0,0)" stroke-linejoin="round" d="M 1079,9615 L 1229,9615"/>
 <path fill="none" stroke="rgb(0,0,0)" stroke-linejoin="round" d="M 1079,8558 L 1229,8558"/>
 <path fill="none" stroke="rgb(0,0,0)" stroke-linejoin="round" d="M 1079,8558 L 1229,8558"/>
 <path fill="none" stroke="rgb(0,0,0)" stroke-linejoin="round" d="M 1079,7500 L 1229,7500"/>
 <path fill="none" stroke="rgb(0,0,0)" stroke-linejoin="round" d="M 1079,7500 L 1229,7500"/>
 <path fill="none" stroke="rgb(0,0,0)" stroke-linejoin="round" d="M 1079,6443 L 1229,6443"/>
 <path fill="none" stroke="rgb(0,0,0)" stroke-linejoin="round" d="M 1079,6443 L 1229,6443"/>
 <path fill="none" stroke="rgb(0,0,0)" stroke-linejoin="round" d="M 1079,5385 L 1229,5385"/>
 <path fill="none" stroke="rgb(0,0,0)" stroke-linejoin="round" d="M 1079,5385 L 1229,5385"/>
 <path fill="none" stroke="rgb(0,0,0)" stroke-linejoin="round" d="M 1079,4327 L 1229,4327"/>
 <path fill="none" stroke="rgb(0,0,0)" stroke-linejoin="round" d="M 1079,4327 L 1229,4327"/>
 <path fill="none" stroke="rgb(0,0,0)" stroke-linejoin="round" d="M 1079,3270 L 1229,3270"/>
 <path fill="none" stroke="rgb(0,0,0)" stroke-linejoin="round" d="M 1079,3270 L 1229,3270"/>
 <path fill="none" stroke="rgb(0,0,0)" stroke-linejoin="round" d="M 1079,2212 L 1229,2212"/>
 <path fill="none" stroke="rgb(0,0,0)" stroke-linejoin="round" d="M 1079,2212 L 1229,2212"/>
 <path fill="none" stroke="rgb(0,0,0)" stroke-linejoin="round" d="M 1079,1155 L 1229,1155"/>
 <path fill="none" stroke="rgb(0,0,0)" stroke-linejoin="round" d="M 1079,1155 L 1229,1155"/>
 <path fill="none" stroke="rgb(0,0,0)" stroke-linejoin="round" d="M 1229,10673 L 1229,1155"/>
 <path fill="none" stroke="rgb(0,0,0)" stroke-linejoin="round" d="M 15613,10673 L 15463,10673"/>
 <path fill="none" stroke="rgb(0,0,0)" stroke-linejoin="round" d="M 15613,10673 L 15463,10673"/>
 <path fill="none" stroke="rgb(0,0,0)" stroke-linejoin="round" d="M 15613,9615 L 15463,9615"/>
 <path fill="none" stroke="rgb(0,0,0)" stroke-linejoin="round" d="M 15613,9615 L 15463,9615"/>
 <path fill="none" stroke="rgb(0,0,0)" stroke-linejoin="round" d="M 15613,8558 L 15463,8558"/>
 <path fill="none" stroke="rgb(0,0,0)" stroke-linejoin="round" d="M 15613,8558 L 15463,8558"/>
 <path fill="none" stroke="rgb(0,0,0)" stroke-linejoin="round" d="M 15613,7500 L 15463,7500"/>
 <path fill="none" stroke="rgb(0,0,0)" stroke-linejoin="round" d="M 15613,7500 L 15463,7500"/>
 <path fill="none" stroke="rgb(0,0,0)" stroke-linejoin="round" d="M 15613,6443 L 15463,6443"/>
 <path fill="none" stroke="rgb(0,0,0)" stroke-linejoin="round" d="M 15613,6443 L 15463,6443"/>
 <path fill="none" stroke="rgb(0,0,0)" stroke-linejoin="round" d="M 15613,5385 L 15463,5385"/>
 <path fill="none" stroke="rgb(0,0,0)" stroke-linejoin="round" d="M 15613,5385 L 15463,5385"/>
 <path fill="none" stroke="rgb(0,0,0)" stroke-linejoin="round" d="M 15613,4327 L 15463,4327"/>
 <path fill="none" stroke="rgb(0,0,0)" stroke-linejoin="round" d="M 15613,4327 L 15463,4327"/>
 <path fill="none" stroke="rgb(0,0,0)" stroke-linejoin="round" d="M 15613,3270 L 15463,3270"/>
 <path fill="none" stroke="rgb(0,0,0)" stroke-linejoin="round" d="M 15613,3270 L 15463,3270"/>
 <path fill="none" stroke="rgb(0,0,0)" stroke-linejoin="round" d="M 15613,2212 L 15463,2212"/>
 <path fill="none" stroke="rgb(0,0,0)" stroke-linejoin="round" d="M 15613,2212 L 15463,2212"/>
 <path fill="none" stroke="rgb(0,0,0)" stroke-linejoin="round" d="M 15613,1155 L 15463,1155"/>
 <path fill="none" stroke="rgb(0,0,0)" stroke-linejoin="round" d="M 15613,1155 L 15463,1155"/>
 <path fill="none" stroke="rgb(0,0,0)" stroke-linejoin="round" d="M 15463,10673 L 15463,1155"/>
 <path fill="none" stroke="rgb(131,202,255)" stroke-width="80" stroke-linejoin="round" d="M 1229,1832 L 1349,1912 1470,1920 1590,1962 1711,2033 1832,2064 1952,2137 2073,2181 2194,2201 2314,2262 2435,2366 2555,2390 2676,2510 2797,2569 2917,2650 3038,2669 3159,2739 3279,2798 3400,2877 3521,2888 3641,2960 3762,3081 3882,3110 4003,3219 4124,3372 4244,3501 4365,3660 4486,3747 4606,3855 4727,3970 4848,4060 4968,4071 5089,4130 5209,4233 5330,4324 5451,4426 5571,4552 5692,4674 5813,4829 5933,4847 6054,4921 6175,5049 6295,5130 6416,5265 6536,5418 6657,5502 6778,5671 6898,5890 7019,5870 7140,6147 7260,6139 7381,6233 7502,6088 7622,6168 7743,6311 7863,6450 7984,6559 8105,6602 8225,6715 8345,6830 8466,6913 8586,7003 8707,7006 8828,7120 8948,7087 9069,7084 9189,7149 9310,7214 9431,7253 9551,7616 9672,7745 9793,7795 9913,7827 10034,8037 10155,8069 10275,8092 10396,8217 10516,8366 10637,8491 10758,8470 10878,8536 10999,8594 11120,8565 11240,9170 11361,9494 11482,9071 11602,9089 11723,9035 11843,9227 11964,9373 12085,9429 12205,9664 12326,9697 12447,9647 12567,9683 12688,9739 12809,9806 12929,9806 13050,9787 13170,9801 13291,9864 13412,9982 13532,9948 13653,9927 13774,9887 13894,9973 14015,10025 14136,10057 14256,10032 14377,10022 14497,10008 14618,10073 14739,10180 14859,10201 14980,10271 15101,10194 15221,10234 15342,10260 15463,10311"/>
 <path fill="none" stroke="rgb(0,204,255)" stroke-width="80" stroke-linejoin="round" d="M 1229,9932 L 1349,9817 1470,9845 1590,9777 1711,9708 1832,9680 1952,9601 2073,9493 2194,9439 2314,9361 2435,9322 2555,9235 2676,9162 2797,9097 2917,9010 3038,8987 3159,8934 3279,8875 3400,8837 3521,8813 3641,8779 3762,8684 3882,8703 4003,8681 4124,8705 4244,8782 4365,8833 4486,8927 4606,8980 4727,9020 4848,9059 4968,9120 5089,9156 5209,9192 5330,9261 5451,9310 5571,9338 5692,9392 5813,9440 5933,9509 6054,9556 6175,9591 6295,9622 6416,9665 6536,9692 6657,9746 6778,9772 6898,9791 7019,9840 7140,9852 7260,9883 7381,9881 7502,9925 7622,9957 7743,10003 7863,10021 7984,10039 8105,10083 8225,10092 8345,10124 8466,10134 8586,10140 8707,10186 8828,10201 8948,10211 9069,10228 9189,10251 9310,10243 9431,10283 9551,10299 9672,10302 9793,10339 9913,10347 10034,10344 10155,10380 10275,10402 10396,10407 10516,10420 10637,10423 10758,10416 10878,10411 10999,10410 11120,10402 11240,10427 11361,10444 11482,10420 11602,10468 11723,10492 11843,10504 11964,10513 12085,10501 12205,10536 12326,10519 12447,10518 12567,10532 12688,10533 12809,10541 12929,10543 13050,10541 13170,10543 13291,10567 13412,10576 13532,10575 13653,10580 13774,10580 13894,10594 14015,10595 14136,10591 14256,10591 14377,10596 14497,10611 14618,10617 14739,10625 14859,10626 14980,10631 15101,10636 15221,10636 15342,10641 15463,10644"/>
 <path fill="none" stroke="rgb(0,132,209)" stroke-width="80" stroke-linejoin="round" d="M 3400,10613 L 3521,10593 3641,10578 3762,10547 3882,10511 4003,10446 4124,10252 4244,10071 4365,9879 4486,9729 4606,9590 4727,9439 4848,9333 4968,9223 5089,9143 5209,8994 5330,8864 5451,8743 5571,8591 5692,8466 5813,8313 5933,8231 6054,8117 6175,8017 6295,7934 6416,7803 6536,7720 6657,7657 6778,7462 6898,7225 7019,7274 7140,7074 7260,7176 7381,6944 7502,7000 7622,6892 7743,6733 7863,6646 7984,6622 8105,6578 8225,6445 8345,6448 8466,6452 8586,6437 8707,6544 8828,6613 8948,6531 9069,6484 9189,6485 9310,6544 9431,6581 9551,6530 9672,6351 9793,6399 9913,6422 10034,6350 10155,6455 10275,6538 10396,6347 10516,6351 10637,6351 10758,6274 10878,6264 10999,6217 11120,6018 11240,6038 11361,5786 11482,5754 11602,6001 11723,5887 11843,5724 11964,5909 12085,5751 12205,5541 12326,5622 12447,5804 12567,6092 12688,6222 12809,6083 12929,6257 13050,6605 13170,6613 13291,6825 13412,7182 13532,7184 13653,6934 13774,7103 13894,7138 14015,7246 14136,7075 14256,7179 14377,7209 14497,7256 14618,7240 14739,7400 14859,7424 14980,7159 15101,7294 15221,7158 15342,7380 15463,7642"/>
 <path fill="none" stroke="rgb(0,102,204)" stroke-width="80" stroke-linejoin="round" d="M 8345,10634 L 8466,10567 8586,10505 8707,10453 8828,10419 8948,10366 9069,10313 9189,10274 9310,10198 9431,10174 9551,9979 9672,9844 9793,9821 9913,9825 10034,9718 10155,9734 10275,9739 10396,9670 10516,9599 10637,9581 10758,9581 10878,9599 10999,9510 11120,9590 11240,9205 11361,9057 11482,9491 11602,9518 11723,9472 11843,9473 11964,9476 12085,9271 12205,9324 12326,9354 12447,9495 12567,9592 12688,9616 12809,9525 12929,9636 13050,9658 13170,9722 13291,9782 13412,9806 13532,9854 13653,9876 13774,9922 13894,9944 14015,9991 14136,9887 14256,9934 14377,10059 14497,10055 14618,10068 14739,10127 14859,10100 14980,10080 15101,10137 15221,10105 15342,10168 15463,10210"/>
 <path fill="none" stroke="rgb(0,69,134)" stroke-width="80" stroke-linejoin="round" d="M 12326,10640 L 12447,10233 12567,10135 12688,10038 12809,9936 12929,9883 13050,9754 13170,9678 13291,9623 13412,9645 13532,9421 13653,9214 13774,9069 13894,8953 14015,9073 14136,8993 14256,8916 14377,8927 14497,8841 14618,8887 14739,8993 14859,8912 14980,8770 15101,8825 15221,8687 15342,8770 15463,8794"/>
 <path fill="none" stroke="rgb(0,102,0)" stroke-width="80" stroke-linejoin="round" d="M 1229,10310 L 1349,10293 1470,10278 1590,10280 1711,10274 1832,10308 1952,10276 2073,10282 2194,10298 2314,10297 2435,10277 2555,10271 2676,10236 2797,10202 2917,10174 3038,10192 3159,10176 3279,10182 3400,10173 3521,10176 3641,10159 3762,10157 3882,10132 4003,10116 4124,10132 4244,10132 4365,10129 4486,10144 4606,10109 4727,10110 4848,10116 4968,10127 5089,10137 5209,10144 5330,10144 5451,10149 5571,10142 5692,10142 5813,10119 5933,10126 6054,10119 6175,10104 6295,10112 6416,10109 6536,10084 6657,10079 6778,10034 6898,9982 7019,10038 7140,10053 7260,10059 7381,9996 7502,10033 7622,10034 7743,10046 7863,10022 7984,10003 8105,9990 8225,9986 8345,9996 8466,9984 8586,10009 8707,10015 8828,10019 8948,10030 9069,10016 9189,10012 9310,10002 9431,10011 9551,10011 9672,9971 9793,9962 9913,9985 10034,9987 10155,9993 10275,10002 10396,10002 10516,10004 10637,10035 10758,10087 10878,10101 10999,10086 11120,10109 11240,10056 11361,10043 11482,10043 11602,10079 11723,10082 11843,10052 11964,10072 12085,10046 12205,10038 12326,10036 12447,10037 12567,10047 12688,10033 12809,10101 12929,10116 13050,10077 13170,10070 13291,10096 13412,10014 13532,10060 13653,10048 13774,10075 13894,10121 14015,10182 14136,10195 14256,10173 14377,10238 14497,10215 14618,10234 14739,10257 14859,10254 14980,10221 15101,10251 15221,10240 15342,10269 15463,10260"/>
 <path fill="none" stroke="rgb(255,211,32)" stroke-width="80" stroke-linejoin="round" d="M 2676,10643 L 2797,10635 2917,10612 3038,10609 3159,10603 3279,10596 3400,10593 3521,10589 3641,10579 3762,10572 3882,10571 4003,10562 4124,10548 4244,10526 4365,10509 4486,10502 4606,10486 4727,10476 4848,10470 4968,10461 5089,10421 5209,10406 5330,10381 5451,10380 5571,10366 5692,10314 5813,10277 5933,10268 6054,10262 6175,10208 6295,10169 6416,10147 6536,10093 6657,10000 6778,10040 6898,10089 7019,9965 7140,9966 7260,9747 7381,9909 7502,9912 7622,9902 7743,9853 7863,9808 7984,9808 8105,9703 8225,9728 8345,9585 8466,9571 8586,9529 8707,9427 8828,9282 8948,9406 9069,9517 9189,9494 9310,9467 9431,9360 9551,9255 9672,9482 9793,9378 9913,9282 10034,9265 10155,9071 10275,8943 10396,9051 10516,8961 10637,8774 10758,8845 10878,8755 10999,8755 11120,8965 11240,8965 11361,8806 11482,8941 11602,8548 11723,8735 11843,8712 11964,8339 12085,8687 12205,8575 12326,8457 12447,8577 12567,8245 12688,8140 12809,8325 12929,8094 13050,7932 13170,7940 13291,7607 13412,7358 13532,7368 13653,7800 13774,7750 13894,7647 14015,7278 14136,7614 14256,7576 14377,7359 14497,7419 14618,7278 14739,6805 14859,6874 14980,7279 15101,7043 15221,7317 15342,6929 15463,6694"/>
 <text class="TextShape"><tspan class="TextParagraph" font-family="Arial, sans-serif" font-size="387px" font-weight="400"><tspan class="TextPosition" x="1046" y="11266"><tspan fill="rgb(0,0,0)" stroke="none">2008</tspan></tspan></tspan></text>
 <text class="TextShape"><tspan class="TextParagraph" font-family="Arial, sans-serif" font-size="387px" font-weight="400"><tspan class="TextPosition" x="2493" y="11266"><tspan fill="rgb(0,0,0)" stroke="none">2009</tspan></tspan></tspan></text>
 <text class="TextShape"><tspan class="TextParagraph" font-family="Arial, sans-serif" font-size="387px" font-weight="400"><tspan class="TextPosition" x="3941" y="11266"><tspan fill="rgb(0,0,0)" stroke="none">2010</tspan></tspan></tspan></text>
 <text class="TextShape"><tspan class="TextParagraph" font-family="Arial, sans-serif" font-size="387px" font-weight="400"><tspan class="TextPosition" x="5389" y="11266"><tspan fill="rgb(0,0,0)" stroke="none">2011</tspan></tspan></tspan></text>
 <text class="TextShape"><tspan class="TextParagraph" font-family="Arial, sans-serif" font-size="387px" font-weight="400"><tspan class="TextPosition" x="6836" y="11266"><tspan fill="rgb(0,0,0)" stroke="none">2012</tspan></tspan></tspan></text>
 <text class="TextShape"><tspan class="TextParagraph" font-family="Arial, sans-serif" font-size="387px" font-weight="400"><tspan class="TextPosition" x="8284" y="11266"><tspan fill="rgb(0,0,0)" stroke="none">2013</tspan></tspan></tspan></text>
 <text class="TextShape"><tspan class="TextParagraph" font-family="Arial, sans-serif" font-size="387px" font-weight="400"><tspan class="TextPosition" x="9732" y="11266"><tspan fill="rgb(0,0,0)" stroke="none">2014</tspan></tspan></tspan></text>
 <text class="TextShape"><tspan class="TextParagraph" font-family="Arial, sans-serif" font-size="387px" font-weight="400"><tspan class="TextPosition" x="11179" y="11266"><tspan fill="rgb(0,0,0)" stroke="none">2015</tspan></tspan></tspan></text>
 <text class="TextShape"><tspan class="TextParagraph" font-family="Arial, sans-serif" font-size="387px" font-weight="400"><tspan class="TextPosition" x="12627" y="11266"><tspan fill="rgb(0,0,0)" stroke="none">2016</tspan></tspan></tspan></text>
 <text class="TextShape"><tspan class="TextParagraph" font-family="Arial, sans-serif" font-size="387px" font-weight="400"><tspan class="TextPosition" x="14074" y="11266"><tspan fill="rgb(0,0,0)" stroke="none">2017</tspan></tspan></tspan></text>
 <text class="TextShape"><tspan class="TextParagraph" font-family="Arial, sans-serif" font-size="387px" font-weight="400"><tspan class="TextPosition" x="423" y="10806"><tspan fill="rgb(0,0,0)" stroke="none">0%</tspan></tspan></tspan></text>
 <text class="TextShape"><tspan class="TextParagraph" font-family="Arial, sans-serif" font-size="387px" font-weight="400"><tspan class="TextPosition" x="212" y="9749"><tspan fill="rgb(0,0,0)" stroke="none">10%</tspan></tspan></tspan></text>
 <text class="TextShape"><tspan class="TextParagraph" font-family="Arial, sans-serif" font-size="387px" font-weight="400"><tspan class="TextPosition" x="212" y="8691"><tspan fill="rgb(0,0,0)" stroke="none">20%</tspan></tspan></tspan></text>
 <text class="TextShape"><tspan class="TextParagraph" font-family="Arial, sans-serif" font-size="387px" font-weight="400"><tspan class="TextPosition" x="212" y="7633"><tspan fill="rgb(0,0,0)" stroke="none">30%</tspan></tspan></tspan></text>
 <text class="TextShape"><tspan class="TextParagraph" font-family="Arial, sans-serif" font-size="387px" font-weight="400"><tspan class="TextPosition" x="212" y="6576"><tspan fill="rgb(0,0,0)" stroke="none">40%</tspan></tspan></tspan></text>
 <text class="TextShape"><tspan class="TextParagraph" font-family="Arial, sans-serif" font-size="387px" font-weight="400"><tspan class="TextPosition" x="212" y="5518"><tspan fill="rgb(0,0,0)" stroke="none">50%</tspan></tspan></tspan></text>
 <text class="TextShape"><tspan class="TextParagraph" font-family="Arial, sans-serif" font-size="387px" font-weight="400"><tspan class="TextPosition" x="212" y="4460"><tspan fill="rgb(0,0,0)" stroke="none">60%</tspan></tspan></tspan></text>
 <text class="TextShape"><tspan class="TextParagraph" font-family="Arial, sans-serif" font-size="387px" font-weight="400"><tspan class="TextPosition" x="212" y="3403"><tspan fill="rgb(0,0,0)" stroke="none">70%</tspan></tspan></tspan></text>
 <text class="TextShape"><tspan class="TextParagraph" font-family="Arial, sans-serif" font-size="387px" font-weight="400"><tspan class="TextPosition" x="212" y="2345"><tspan fill="rgb(0,0,0)" stroke="none">80%</tspan></tspan></tspan></text>
 <text class="TextShape"><tspan class="TextParagraph" font-family="Arial, sans-serif" font-size="387px" font-weight="400"><tspan class="TextPosition" x="212" y="1289"><tspan fill="rgb(0,0,0)" stroke="none">90%</tspan></tspan></tspan></text>
 <text class="TextShape"><tspan class="TextParagraph" font-family="Arial, sans-serif" font-size="387px" font-weight="400"><tspan class="TextPosition" x="15713" y="10806"><tspan fill="rgb(0,0,0)" stroke="none">0%</tspan></tspan></tspan></text>
 <text class="TextShape"><tspan class="TextParagraph" font-family="Arial, sans-serif" font-size="387px" font-weight="400"><tspan class="TextPosition" x="15713" y="9749"><tspan fill="rgb(0,0,0)" stroke="none">10%</tspan></tspan></tspan></text>
 <text class="TextShape"><tspan class="TextParagraph" font-family="Arial, sans-serif" font-size="387px" font-weight="400"><tspan class="TextPosition" x="15713" y="8691"><tspan fill="rgb(0,0,0)" stroke="none">20%</tspan></tspan></tspan></text>
 <text class="TextShape"><tspan class="TextParagraph" font-family="Arial, sans-serif" font-size="387px" font-weight="400"><tspan class="TextPosition" x="15713" y="7633"><tspan fill="rgb(0,0,0)" stroke="none">30%</tspan></tspan></tspan></text>
 <text class="TextShape"><tspan class="TextParagraph" font-family="Arial, sans-serif" font-size="387px" font-weight="400"><tspan class="TextPosition" x="15713" y="6576"><tspan fill="rgb(0,0,0)" stroke="none">40%</tspan></tspan></tspan></text>
 <text class="TextShape"><tspan class="TextParagraph" font-family="Arial, sans-serif" font-size="387px" font-weight="400"><tspan class="TextPosition" x="15713" y="5518"><tspan fill="rgb(0,0,0)" stroke="none">50%</tspan></tspan></tspan></text>
 <text class="TextShape"><tspan class="TextParagraph" font-family="Arial, sans-serif" font-size="387px" font-weight="400"><tspan class="TextPosition" x="15713" y="4460"><tspan fill="rgb(0,0,0)" stroke="none">60%</tspan></tspan></tspan></text>
 <text class="TextShape"><tspan class="TextParagraph" font-family="Arial, sans-serif" font-size="387px" font-weight="400"><tspan class="TextPosition" x="15713" y="3403"><tspan fill="rgb(0,0,0)" stroke="none">70%</tspan></tspan></tspan></text>
 <text class="TextShape"><tspan class="TextParagraph" font-family="Arial, sans-serif" font-size="387px" font-weight="400"><tspan class="TextPosition" x="15713" y="2345"><tspan fill="rgb(0,0,0)" stroke="none">80%</tspan></tspan></tspan></text>
 <text class="TextShape"><tspan class="TextParagraph" font-family="Arial, sans-serif" font-size="387px" font-weight="400"><tspan class="TextPosition" x="15713" y="1289"><tspan fill="rgb(0,0,0)" stroke="none">90%</tspan></tspan></tspan></text>
 <text class="TextShape"><tspan class="TextParagraph" font-family="Arial, sans-serif" font-size="634px" font-weight="700"><tspan class="TextPosition" x="3490" y="746"><tspan fill="rgb(0,0,0)" stroke="none">Utilización de sistemas operativos</tspan></tspan></tspan></text>
 <path fill="none" stroke="rgb(131,202,255)" stroke-width="80" stroke-linejoin="round" d="M 1077,11850 L 1877,11850"/>
 <path fill="none" stroke="rgb(0,204,255)" stroke-width="80" stroke-linejoin="round" d="M 3294,11850 L 4094,11850"/>
 <path fill="none" stroke="rgb(0,132,209)" stroke-width="80" stroke-linejoin="round" d="M 5855,11850 L 6655,11850"/>
 <path fill="none" stroke="rgb(0,102,204)" stroke-width="80" stroke-linejoin="round" d="M 7755,11850 L 8554,11850"/>
 <path fill="none" stroke="rgb(0,69,134)" stroke-width="80" stroke-linejoin="round" d="M 9654,11850 L 10454,11850"/>
 <path fill="none" stroke="rgb(0,102,0)" stroke-width="80" stroke-linejoin="round" d="M 11766,11850 L 12566,11850"/>
 <path fill="none" stroke="rgb(255,211,32)" stroke-width="80" stroke-linejoin="round" d="M 13428,11850 L 14228,11850"/>
 <text class="TextShape"><tspan class="TextParagraph" font-family="Arial, sans-serif" font-size="387px" font-weight="400"><tspan class="TextPosition" x="1977" y="11982"><tspan fill="rgb(0,0,0)" stroke="none">Win XP</tspan></tspan></tspan></text>
 <text class="TextShape"><tspan class="TextParagraph" font-family="Arial, sans-serif" font-size="387px" font-weight="400"><tspan class="TextPosition" x="4194" y="11982"><tspan fill="rgb(0,0,0)" stroke="none">Win Vista</tspan></tspan></tspan></text>
 <text class="TextShape"><tspan class="TextParagraph" font-family="Arial, sans-serif" font-size="387px" font-weight="400"><tspan class="TextPosition" x="6755" y="11982"><tspan fill="rgb(0,0,0)" stroke="none">Win 7</tspan></tspan></tspan></text>
 <text class="TextShape"><tspan class="TextParagraph" font-family="Arial, sans-serif" font-size="387px" font-weight="400"><tspan class="TextPosition" x="8654" y="11982"><tspan fill="rgb(0,0,0)" stroke="none">Win 8</tspan></tspan></tspan></text>
 <text class="TextShape"><tspan class="TextParagraph" font-family="Arial, sans-serif" font-size="387px" font-weight="400"><tspan class="TextPosition" x="10554" y="11982"><tspan fill="rgb(0,0,0)" stroke="none">Win 10</tspan></tspan></tspan></text>
 <text class="TextShape"><tspan class="TextParagraph" font-family="Arial, sans-serif" font-size="387px" font-weight="400"><tspan class="TextPosition" x="12666" y="11982"><tspan fill="rgb(0,0,0)" stroke="none">Mac</tspan></tspan></tspan></text>
 <text class="TextShape"><tspan class="TextParagraph" font-family="Arial, sans-serif" font-size="387px" font-weight="400"><tspan class="TextPosition" x="14328" y="11982"><tspan fill="rgb(0,0,0)" stroke="none">Móviles</tspan></tspan></tspan></text>
</svg>
