<?xml version="1.0" encoding="UTF-8"?>
<!DOCTYPE svg PUBLIC "-//W3C//DTD SVG 1.1//EN" "http://www.w3.org/Graphics/SVG/1.1/DTD/svg11.dtd">
<svg width="164mm" height="123mm" viewBox="0 0 16400 12300" version="1.1" xmlns="http://www.w3.org/2000/svg" stroke-width="28.222" stroke-linejoin="round" xml:space="preserve">
 <path fill="rgb(255,255,255)" stroke="none" d="M 8197,12255 L 0,12255 0,0 16393,0 16393,12255 8197,12255 Z"/>
 <path fill="none" stroke="rgb(179,179,179)" stroke-linejoin="round" d="M 8236,10818 L 1184,10818 1184,1092 15288,1092 15288,10818 8236,10818 Z"/>
 <path fill="none" stroke="rgb(0,0,0)" stroke-width="20" stroke-linejoin="round" d="M 15288,10817 L 1184,10817"/>
 <path fill="none" stroke="rgb(0,0,0)" stroke-width="20" stroke-linejoin="round" d="M 15288,9195 L 1184,9195"/>
 <path fill="none" stroke="rgb(0,0,0)" stroke-width="20" stroke-linejoin="round" d="M 15288,7574 L 1184,7574"/>
 <path fill="none" stroke="rgb(0,0,0)" stroke-width="20" stroke-linejoin="round" d="M 15288,5954 L 1184,5954"/>
 <path fill="none" stroke="rgb(0,0,0)" stroke-width="20" stroke-linejoin="round" d="M 15288,4333 L 1184,4333"/>
 <path fill="none" stroke="rgb(0,0,0)" stroke-width="20" stroke-linejoin="round" d="M 15288,2712 L 1184,2712"/>
 <path fill="none" stroke="rgb(0,0,0)" stroke-width="20" stroke-linejoin="round" d="M 15288,1090 L 1184,1090"/>
 <path fill="none" stroke="rgb(0,0,0)" stroke-width="30" stroke-linejoin="round" d="M 1184,10967 L 1184,10817"/>
 <path fill="none" stroke="rgb(0,0,0)" stroke-width="30" stroke-linejoin="round" d="M 1184,10967 L 1184,10817"/>
 <path fill="none" stroke="rgb(0,0,0)" stroke-width="30" stroke-linejoin="round" d="M 1304,10967 L 1304,10817"/>
 <path fill="none" stroke="rgb(0,0,0)" stroke-width="30" stroke-linejoin="round" d="M 1304,10967 L 1304,10817"/>
 <path fill="none" stroke="rgb(0,0,0)" stroke-width="30" stroke-linejoin="round" d="M 1425,10967 L 1425,10817"/>
 <path fill="none" stroke="rgb(0,0,0)" stroke-width="30" stroke-linejoin="round" d="M 1425,10967 L 1425,10817"/>
 <path fill="none" stroke="rgb(0,0,0)" stroke-width="30" stroke-linejoin="round" d="M 1545,10967 L 1545,10817"/>
 <path fill="none" stroke="rgb(0,0,0)" stroke-width="30" stroke-linejoin="round" d="M 1545,10967 L 1545,10817"/>
 <path fill="none" stroke="rgb(0,0,0)" stroke-width="30" stroke-linejoin="round" d="M 1666,10967 L 1666,10817"/>
 <path fill="none" stroke="rgb(0,0,0)" stroke-width="30" stroke-linejoin="round" d="M 1666,10967 L 1666,10817"/>
 <path fill="none" stroke="rgb(0,0,0)" stroke-width="30" stroke-linejoin="round" d="M 1786,10967 L 1786,10817"/>
 <path fill="none" stroke="rgb(0,0,0)" stroke-width="30" stroke-linejoin="round" d="M 1786,10967 L 1786,10817"/>
 <path fill="none" stroke="rgb(0,0,0)" stroke-width="30" stroke-linejoin="round" d="M 1907,10967 L 1907,10817"/>
 <path fill="none" stroke="rgb(0,0,0)" stroke-width="30" stroke-linejoin="round" d="M 1907,10967 L 1907,10817"/>
 <path fill="none" stroke="rgb(0,0,0)" stroke-width="30" stroke-linejoin="round" d="M 2027,10967 L 2027,10817"/>
 <path fill="none" stroke="rgb(0,0,0)" stroke-width="30" stroke-linejoin="round" d="M 2027,10967 L 2027,10817"/>
 <path fill="none" stroke="rgb(0,0,0)" stroke-width="30" stroke-linejoin="round" d="M 2148,10967 L 2148,10817"/>
 <path fill="none" stroke="rgb(0,0,0)" stroke-width="30" stroke-linejoin="round" d="M 2148,10967 L 2148,10817"/>
 <path fill="none" stroke="rgb(0,0,0)" stroke-width="30" stroke-linejoin="round" d="M 2269,10967 L 2269,10817"/>
 <path fill="none" stroke="rgb(0,0,0)" stroke-width="30" stroke-linejoin="round" d="M 2269,10967 L 2269,10817"/>
 <path fill="none" stroke="rgb(0,0,0)" stroke-width="30" stroke-linejoin="round" d="M 2389,10967 L 2389,10817"/>
 <path fill="none" stroke="rgb(0,0,0)" stroke-width="30" stroke-linejoin="round" d="M 2389,10967 L 2389,10817"/>
 <path fill="none" stroke="rgb(0,0,0)" stroke-width="30" stroke-linejoin="round" d="M 2510,10967 L 2510,10817"/>
 <path fill="none" stroke="rgb(0,0,0)" stroke-width="30" stroke-linejoin="round" d="M 2510,10967 L 2510,10817"/>
 <path fill="none" stroke="rgb(0,0,0)" stroke-width="30" stroke-linejoin="round" d="M 2630,10967 L 2630,10817"/>
 <path fill="none" stroke="rgb(0,0,0)" stroke-width="30" stroke-linejoin="round" d="M 2630,10967 L 2630,10817"/>
 <path fill="none" stroke="rgb(0,0,0)" stroke-width="30" stroke-linejoin="round" d="M 2751,10967 L 2751,10817"/>
 <path fill="none" stroke="rgb(0,0,0)" stroke-width="30" stroke-linejoin="round" d="M 2751,10967 L 2751,10817"/>
 <path fill="none" stroke="rgb(0,0,0)" stroke-width="30" stroke-linejoin="round" d="M 2871,10967 L 2871,10817"/>
 <path fill="none" stroke="rgb(0,0,0)" stroke-width="30" stroke-linejoin="round" d="M 2871,10967 L 2871,10817"/>
 <path fill="none" stroke="rgb(0,0,0)" stroke-width="30" stroke-linejoin="round" d="M 2992,10967 L 2992,10817"/>
 <path fill="none" stroke="rgb(0,0,0)" stroke-width="30" stroke-linejoin="round" d="M 2992,10967 L 2992,10817"/>
 <path fill="none" stroke="rgb(0,0,0)" stroke-width="30" stroke-linejoin="round" d="M 3112,10967 L 3112,10817"/>
 <path fill="none" stroke="rgb(0,0,0)" stroke-width="30" stroke-linejoin="round" d="M 3112,10967 L 3112,10817"/>
 <path fill="none" stroke="rgb(0,0,0)" stroke-width="30" stroke-linejoin="round" d="M 3233,10967 L 3233,10817"/>
 <path fill="none" stroke="rgb(0,0,0)" stroke-width="30" stroke-linejoin="round" d="M 3233,10967 L 3233,10817"/>
 <path fill="none" stroke="rgb(0,0,0)" stroke-width="30" stroke-linejoin="round" d="M 3354,10967 L 3354,10817"/>
 <path fill="none" stroke="rgb(0,0,0)" stroke-width="30" stroke-linejoin="round" d="M 3354,10967 L 3354,10817"/>
 <path fill="none" stroke="rgb(0,0,0)" stroke-width="30" stroke-linejoin="round" d="M 3474,10967 L 3474,10817"/>
 <path fill="none" stroke="rgb(0,0,0)" stroke-width="30" stroke-linejoin="round" d="M 3474,10967 L 3474,10817"/>
 <path fill="none" stroke="rgb(0,0,0)" stroke-width="30" stroke-linejoin="round" d="M 3595,10967 L 3595,10817"/>
 <path fill="none" stroke="rgb(0,0,0)" stroke-width="30" stroke-linejoin="round" d="M 3595,10967 L 3595,10817"/>
 <path fill="none" stroke="rgb(0,0,0)" stroke-width="30" stroke-linejoin="round" d="M 3715,10967 L 3715,10817"/>
 <path fill="none" stroke="rgb(0,0,0)" stroke-width="30" stroke-linejoin="round" d="M 3715,10967 L 3715,10817"/>
 <path fill="none" stroke="rgb(0,0,0)" stroke-width="30" stroke-linejoin="round" d="M 3836,10967 L 3836,10817"/>
 <path fill="none" stroke="rgb(0,0,0)" stroke-width="30" stroke-linejoin="round" d="M 3836,10967 L 3836,10817"/>
 <path fill="none" stroke="rgb(0,0,0)" stroke-width="30" stroke-linejoin="round" d="M 3956,10967 L 3956,10817"/>
 <path fill="none" stroke="rgb(0,0,0)" stroke-width="30" stroke-linejoin="round" d="M 3956,10967 L 3956,10817"/>
 <path fill="none" stroke="rgb(0,0,0)" stroke-width="30" stroke-linejoin="round" d="M 4077,10967 L 4077,10817"/>
 <path fill="none" stroke="rgb(0,0,0)" stroke-width="30" stroke-linejoin="round" d="M 4077,10967 L 4077,10817"/>
 <path fill="none" stroke="rgb(0,0,0)" stroke-width="30" stroke-linejoin="round" d="M 4197,10967 L 4197,10817"/>
 <path fill="none" stroke="rgb(0,0,0)" stroke-width="30" stroke-linejoin="round" d="M 4197,10967 L 4197,10817"/>
 <path fill="none" stroke="rgb(0,0,0)" stroke-width="30" stroke-linejoin="round" d="M 4318,10967 L 4318,10817"/>
 <path fill="none" stroke="rgb(0,0,0)" stroke-width="30" stroke-linejoin="round" d="M 4318,10967 L 4318,10817"/>
 <path fill="none" stroke="rgb(0,0,0)" stroke-width="30" stroke-linejoin="round" d="M 4439,10967 L 4439,10817"/>
 <path fill="none" stroke="rgb(0,0,0)" stroke-width="30" stroke-linejoin="round" d="M 4439,10967 L 4439,10817"/>
 <path fill="none" stroke="rgb(0,0,0)" stroke-width="30" stroke-linejoin="round" d="M 4559,10967 L 4559,10817"/>
 <path fill="none" stroke="rgb(0,0,0)" stroke-width="30" stroke-linejoin="round" d="M 4559,10967 L 4559,10817"/>
 <path fill="none" stroke="rgb(0,0,0)" stroke-width="30" stroke-linejoin="round" d="M 4680,10967 L 4680,10817"/>
 <path fill="none" stroke="rgb(0,0,0)" stroke-width="30" stroke-linejoin="round" d="M 4680,10967 L 4680,10817"/>
 <path fill="none" stroke="rgb(0,0,0)" stroke-width="30" stroke-linejoin="round" d="M 4800,10967 L 4800,10817"/>
 <path fill="none" stroke="rgb(0,0,0)" stroke-width="30" stroke-linejoin="round" d="M 4800,10967 L 4800,10817"/>
 <path fill="none" stroke="rgb(0,0,0)" stroke-width="30" stroke-linejoin="round" d="M 4921,10967 L 4921,10817"/>
 <path fill="none" stroke="rgb(0,0,0)" stroke-width="30" stroke-linejoin="round" d="M 4921,10967 L 4921,10817"/>
 <path fill="none" stroke="rgb(0,0,0)" stroke-width="30" stroke-linejoin="round" d="M 5041,10967 L 5041,10817"/>
 <path fill="none" stroke="rgb(0,0,0)" stroke-width="30" stroke-linejoin="round" d="M 5041,10967 L 5041,10817"/>
 <path fill="none" stroke="rgb(0,0,0)" stroke-width="30" stroke-linejoin="round" d="M 5162,10967 L 5162,10817"/>
 <path fill="none" stroke="rgb(0,0,0)" stroke-width="30" stroke-linejoin="round" d="M 5162,10967 L 5162,10817"/>
 <path fill="none" stroke="rgb(0,0,0)" stroke-width="30" stroke-linejoin="round" d="M 5282,10967 L 5282,10817"/>
 <path fill="none" stroke="rgb(0,0,0)" stroke-width="30" stroke-linejoin="round" d="M 5282,10967 L 5282,10817"/>
 <path fill="none" stroke="rgb(0,0,0)" stroke-width="30" stroke-linejoin="round" d="M 5403,10967 L 5403,10817"/>
 <path fill="none" stroke="rgb(0,0,0)" stroke-width="30" stroke-linejoin="round" d="M 5403,10967 L 5403,10817"/>
 <path fill="none" stroke="rgb(0,0,0)" stroke-width="30" stroke-linejoin="round" d="M 5524,10967 L 5524,10817"/>
 <path fill="none" stroke="rgb(0,0,0)" stroke-width="30" stroke-linejoin="round" d="M 5524,10967 L 5524,10817"/>
 <path fill="none" stroke="rgb(0,0,0)" stroke-width="30" stroke-linejoin="round" d="M 5644,10967 L 5644,10817"/>
 <path fill="none" stroke="rgb(0,0,0)" stroke-width="30" stroke-linejoin="round" d="M 5644,10967 L 5644,10817"/>
 <path fill="none" stroke="rgb(0,0,0)" stroke-width="30" stroke-linejoin="round" d="M 5765,10967 L 5765,10817"/>
 <path fill="none" stroke="rgb(0,0,0)" stroke-width="30" stroke-linejoin="round" d="M 5765,10967 L 5765,10817"/>
 <path fill="none" stroke="rgb(0,0,0)" stroke-width="30" stroke-linejoin="round" d="M 5885,10967 L 5885,10817"/>
 <path fill="none" stroke="rgb(0,0,0)" stroke-width="30" stroke-linejoin="round" d="M 5885,10967 L 5885,10817"/>
 <path fill="none" stroke="rgb(0,0,0)" stroke-width="30" stroke-linejoin="round" d="M 6006,10967 L 6006,10817"/>
 <path fill="none" stroke="rgb(0,0,0)" stroke-width="30" stroke-linejoin="round" d="M 6006,10967 L 6006,10817"/>
 <path fill="none" stroke="rgb(0,0,0)" stroke-width="30" stroke-linejoin="round" d="M 6126,10967 L 6126,10817"/>
 <path fill="none" stroke="rgb(0,0,0)" stroke-width="30" stroke-linejoin="round" d="M 6126,10967 L 6126,10817"/>
 <path fill="none" stroke="rgb(0,0,0)" stroke-width="30" stroke-linejoin="round" d="M 6247,10967 L 6247,10817"/>
 <path fill="none" stroke="rgb(0,0,0)" stroke-width="30" stroke-linejoin="round" d="M 6247,10967 L 6247,10817"/>
 <path fill="none" stroke="rgb(0,0,0)" stroke-width="30" stroke-linejoin="round" d="M 6367,10967 L 6367,10817"/>
 <path fill="none" stroke="rgb(0,0,0)" stroke-width="30" stroke-linejoin="round" d="M 6367,10967 L 6367,10817"/>
 <path fill="none" stroke="rgb(0,0,0)" stroke-width="30" stroke-linejoin="round" d="M 6488,10967 L 6488,10817"/>
 <path fill="none" stroke="rgb(0,0,0)" stroke-width="30" stroke-linejoin="round" d="M 6488,10967 L 6488,10817"/>
 <path fill="none" stroke="rgb(0,0,0)" stroke-width="30" stroke-linejoin="round" d="M 6609,10967 L 6609,10817"/>
 <path fill="none" stroke="rgb(0,0,0)" stroke-width="30" stroke-linejoin="round" d="M 6609,10967 L 6609,10817"/>
 <path fill="none" stroke="rgb(0,0,0)" stroke-width="30" stroke-linejoin="round" d="M 6729,10967 L 6729,10817"/>
 <path fill="none" stroke="rgb(0,0,0)" stroke-width="30" stroke-linejoin="round" d="M 6729,10967 L 6729,10817"/>
 <path fill="none" stroke="rgb(0,0,0)" stroke-width="30" stroke-linejoin="round" d="M 6850,10967 L 6850,10817"/>
 <path fill="none" stroke="rgb(0,0,0)" stroke-width="30" stroke-linejoin="round" d="M 6850,10967 L 6850,10817"/>
 <path fill="none" stroke="rgb(0,0,0)" stroke-width="30" stroke-linejoin="round" d="M 6970,10967 L 6970,10817"/>
 <path fill="none" stroke="rgb(0,0,0)" stroke-width="30" stroke-linejoin="round" d="M 6970,10967 L 6970,10817"/>
 <path fill="none" stroke="rgb(0,0,0)" stroke-width="30" stroke-linejoin="round" d="M 7091,10967 L 7091,10817"/>
 <path fill="none" stroke="rgb(0,0,0)" stroke-width="30" stroke-linejoin="round" d="M 7091,10967 L 7091,10817"/>
 <path fill="none" stroke="rgb(0,0,0)" stroke-width="30" stroke-linejoin="round" d="M 7211,10967 L 7211,10817"/>
 <path fill="none" stroke="rgb(0,0,0)" stroke-width="30" stroke-linejoin="round" d="M 7211,10967 L 7211,10817"/>
 <path fill="none" stroke="rgb(0,0,0)" stroke-width="30" stroke-linejoin="round" d="M 7332,10967 L 7332,10817"/>
 <path fill="none" stroke="rgb(0,0,0)" stroke-width="30" stroke-linejoin="round" d="M 7332,10967 L 7332,10817"/>
 <path fill="none" stroke="rgb(0,0,0)" stroke-width="30" stroke-linejoin="round" d="M 7452,10967 L 7452,10817"/>
 <path fill="none" stroke="rgb(0,0,0)" stroke-width="30" stroke-linejoin="round" d="M 7452,10967 L 7452,10817"/>
 <path fill="none" stroke="rgb(0,0,0)" stroke-width="30" stroke-linejoin="round" d="M 7573,10967 L 7573,10817"/>
 <path fill="none" stroke="rgb(0,0,0)" stroke-width="30" stroke-linejoin="round" d="M 7573,10967 L 7573,10817"/>
 <path fill="none" stroke="rgb(0,0,0)" stroke-width="30" stroke-linejoin="round" d="M 7694,10967 L 7694,10817"/>
 <path fill="none" stroke="rgb(0,0,0)" stroke-width="30" stroke-linejoin="round" d="M 7694,10967 L 7694,10817"/>
 <path fill="none" stroke="rgb(0,0,0)" stroke-width="30" stroke-linejoin="round" d="M 7814,10967 L 7814,10817"/>
 <path fill="none" stroke="rgb(0,0,0)" stroke-width="30" stroke-linejoin="round" d="M 7814,10967 L 7814,10817"/>
 <path fill="none" stroke="rgb(0,0,0)" stroke-width="30" stroke-linejoin="round" d="M 7935,10967 L 7935,10817"/>
 <path fill="none" stroke="rgb(0,0,0)" stroke-width="30" stroke-linejoin="round" d="M 7935,10967 L 7935,10817"/>
 <path fill="none" stroke="rgb(0,0,0)" stroke-width="30" stroke-linejoin="round" d="M 8055,10967 L 8055,10817"/>
 <path fill="none" stroke="rgb(0,0,0)" stroke-width="30" stroke-linejoin="round" d="M 8055,10967 L 8055,10817"/>
 <path fill="none" stroke="rgb(0,0,0)" stroke-width="30" stroke-linejoin="round" d="M 8176,10967 L 8176,10817"/>
 <path fill="none" stroke="rgb(0,0,0)" stroke-width="30" stroke-linejoin="round" d="M 8176,10967 L 8176,10817"/>
 <path fill="none" stroke="rgb(0,0,0)" stroke-width="30" stroke-linejoin="round" d="M 8295,10967 L 8295,10817"/>
 <path fill="none" stroke="rgb(0,0,0)" stroke-width="30" stroke-linejoin="round" d="M 8295,10967 L 8295,10817"/>
 <path fill="none" stroke="rgb(0,0,0)" stroke-width="30" stroke-linejoin="round" d="M 8416,10967 L 8416,10817"/>
 <path fill="none" stroke="rgb(0,0,0)" stroke-width="30" stroke-linejoin="round" d="M 8416,10967 L 8416,10817"/>
 <path fill="none" stroke="rgb(0,0,0)" stroke-width="30" stroke-linejoin="round" d="M 8536,10967 L 8536,10817"/>
 <path fill="none" stroke="rgb(0,0,0)" stroke-width="30" stroke-linejoin="round" d="M 8536,10967 L 8536,10817"/>
 <path fill="none" stroke="rgb(0,0,0)" stroke-width="30" stroke-linejoin="round" d="M 8657,10967 L 8657,10817"/>
 <path fill="none" stroke="rgb(0,0,0)" stroke-width="30" stroke-linejoin="round" d="M 8657,10967 L 8657,10817"/>
 <path fill="none" stroke="rgb(0,0,0)" stroke-width="30" stroke-linejoin="round" d="M 8778,10967 L 8778,10817"/>
 <path fill="none" stroke="rgb(0,0,0)" stroke-width="30" stroke-linejoin="round" d="M 8778,10967 L 8778,10817"/>
 <path fill="none" stroke="rgb(0,0,0)" stroke-width="30" stroke-linejoin="round" d="M 8898,10967 L 8898,10817"/>
 <path fill="none" stroke="rgb(0,0,0)" stroke-width="30" stroke-linejoin="round" d="M 8898,10967 L 8898,10817"/>
 <path fill="none" stroke="rgb(0,0,0)" stroke-width="30" stroke-linejoin="round" d="M 9019,10967 L 9019,10817"/>
 <path fill="none" stroke="rgb(0,0,0)" stroke-width="30" stroke-linejoin="round" d="M 9019,10967 L 9019,10817"/>
 <path fill="none" stroke="rgb(0,0,0)" stroke-width="30" stroke-linejoin="round" d="M 9139,10967 L 9139,10817"/>
 <path fill="none" stroke="rgb(0,0,0)" stroke-width="30" stroke-linejoin="round" d="M 9139,10967 L 9139,10817"/>
 <path fill="none" stroke="rgb(0,0,0)" stroke-width="30" stroke-linejoin="round" d="M 9260,10967 L 9260,10817"/>
 <path fill="none" stroke="rgb(0,0,0)" stroke-width="30" stroke-linejoin="round" d="M 9260,10967 L 9260,10817"/>
 <path fill="none" stroke="rgb(0,0,0)" stroke-width="30" stroke-linejoin="round" d="M 9380,10967 L 9380,10817"/>
 <path fill="none" stroke="rgb(0,0,0)" stroke-width="30" stroke-linejoin="round" d="M 9380,10967 L 9380,10817"/>
 <path fill="none" stroke="rgb(0,0,0)" stroke-width="30" stroke-linejoin="round" d="M 9501,10967 L 9501,10817"/>
 <path fill="none" stroke="rgb(0,0,0)" stroke-width="30" stroke-linejoin="round" d="M 9501,10967 L 9501,10817"/>
 <path fill="none" stroke="rgb(0,0,0)" stroke-width="30" stroke-linejoin="round" d="M 9621,10967 L 9621,10817"/>
 <path fill="none" stroke="rgb(0,0,0)" stroke-width="30" stroke-linejoin="round" d="M 9621,10967 L 9621,10817"/>
 <path fill="none" stroke="rgb(0,0,0)" stroke-width="30" stroke-linejoin="round" d="M 9742,10967 L 9742,10817"/>
 <path fill="none" stroke="rgb(0,0,0)" stroke-width="30" stroke-linejoin="round" d="M 9742,10967 L 9742,10817"/>
 <path fill="none" stroke="rgb(0,0,0)" stroke-width="30" stroke-linejoin="round" d="M 9863,10967 L 9863,10817"/>
 <path fill="none" stroke="rgb(0,0,0)" stroke-width="30" stroke-linejoin="round" d="M 9863,10967 L 9863,10817"/>
 <path fill="none" stroke="rgb(0,0,0)" stroke-width="30" stroke-linejoin="round" d="M 9983,10967 L 9983,10817"/>
 <path fill="none" stroke="rgb(0,0,0)" stroke-width="30" stroke-linejoin="round" d="M 9983,10967 L 9983,10817"/>
 <path fill="none" stroke="rgb(0,0,0)" stroke-width="30" stroke-linejoin="round" d="M 10104,10967 L 10104,10817"/>
 <path fill="none" stroke="rgb(0,0,0)" stroke-width="30" stroke-linejoin="round" d="M 10104,10967 L 10104,10817"/>
 <path fill="none" stroke="rgb(0,0,0)" stroke-width="30" stroke-linejoin="round" d="M 10224,10967 L 10224,10817"/>
 <path fill="none" stroke="rgb(0,0,0)" stroke-width="30" stroke-linejoin="round" d="M 10224,10967 L 10224,10817"/>
 <path fill="none" stroke="rgb(0,0,0)" stroke-width="30" stroke-linejoin="round" d="M 10345,10967 L 10345,10817"/>
 <path fill="none" stroke="rgb(0,0,0)" stroke-width="30" stroke-linejoin="round" d="M 10345,10967 L 10345,10817"/>
 <path fill="none" stroke="rgb(0,0,0)" stroke-width="30" stroke-linejoin="round" d="M 10465,10967 L 10465,10817"/>
 <path fill="none" stroke="rgb(0,0,0)" stroke-width="30" stroke-linejoin="round" d="M 10465,10967 L 10465,10817"/>
 <path fill="none" stroke="rgb(0,0,0)" stroke-width="30" stroke-linejoin="round" d="M 10586,10967 L 10586,10817"/>
 <path fill="none" stroke="rgb(0,0,0)" stroke-width="30" stroke-linejoin="round" d="M 10586,10967 L 10586,10817"/>
 <path fill="none" stroke="rgb(0,0,0)" stroke-width="30" stroke-linejoin="round" d="M 10706,10967 L 10706,10817"/>
 <path fill="none" stroke="rgb(0,0,0)" stroke-width="30" stroke-linejoin="round" d="M 10706,10967 L 10706,10817"/>
 <path fill="none" stroke="rgb(0,0,0)" stroke-width="30" stroke-linejoin="round" d="M 10827,10967 L 10827,10817"/>
 <path fill="none" stroke="rgb(0,0,0)" stroke-width="30" stroke-linejoin="round" d="M 10827,10967 L 10827,10817"/>
 <path fill="none" stroke="rgb(0,0,0)" stroke-width="30" stroke-linejoin="round" d="M 10948,10967 L 10948,10817"/>
 <path fill="none" stroke="rgb(0,0,0)" stroke-width="30" stroke-linejoin="round" d="M 10948,10967 L 10948,10817"/>
 <path fill="none" stroke="rgb(0,0,0)" stroke-width="30" stroke-linejoin="round" d="M 11068,10967 L 11068,10817"/>
 <path fill="none" stroke="rgb(0,0,0)" stroke-width="30" stroke-linejoin="round" d="M 11068,10967 L 11068,10817"/>
 <path fill="none" stroke="rgb(0,0,0)" stroke-width="30" stroke-linejoin="round" d="M 11189,10967 L 11189,10817"/>
 <path fill="none" stroke="rgb(0,0,0)" stroke-width="30" stroke-linejoin="round" d="M 11189,10967 L 11189,10817"/>
 <path fill="none" stroke="rgb(0,0,0)" stroke-width="30" stroke-linejoin="round" d="M 11309,10967 L 11309,10817"/>
 <path fill="none" stroke="rgb(0,0,0)" stroke-width="30" stroke-linejoin="round" d="M 11309,10967 L 11309,10817"/>
 <path fill="none" stroke="rgb(0,0,0)" stroke-width="30" stroke-linejoin="round" d="M 11430,10967 L 11430,10817"/>
 <path fill="none" stroke="rgb(0,0,0)" stroke-width="30" stroke-linejoin="round" d="M 11430,10967 L 11430,10817"/>
 <path fill="none" stroke="rgb(0,0,0)" stroke-width="30" stroke-linejoin="round" d="M 11550,10967 L 11550,10817"/>
 <path fill="none" stroke="rgb(0,0,0)" stroke-width="30" stroke-linejoin="round" d="M 11550,10967 L 11550,10817"/>
 <path fill="none" stroke="rgb(0,0,0)" stroke-width="30" stroke-linejoin="round" d="M 11671,10967 L 11671,10817"/>
 <path fill="none" stroke="rgb(0,0,0)" stroke-width="30" stroke-linejoin="round" d="M 11671,10967 L 11671,10817"/>
 <path fill="none" stroke="rgb(0,0,0)" stroke-width="30" stroke-linejoin="round" d="M 11791,10967 L 11791,10817"/>
 <path fill="none" stroke="rgb(0,0,0)" stroke-width="30" stroke-linejoin="round" d="M 11791,10967 L 11791,10817"/>
 <path fill="none" stroke="rgb(0,0,0)" stroke-width="30" stroke-linejoin="round" d="M 11912,10967 L 11912,10817"/>
 <path fill="none" stroke="rgb(0,0,0)" stroke-width="30" stroke-linejoin="round" d="M 11912,10967 L 11912,10817"/>
 <path fill="none" stroke="rgb(0,0,0)" stroke-width="30" stroke-linejoin="round" d="M 12033,10967 L 12033,10817"/>
 <path fill="none" stroke="rgb(0,0,0)" stroke-width="30" stroke-linejoin="round" d="M 12033,10967 L 12033,10817"/>
 <path fill="none" stroke="rgb(0,0,0)" stroke-width="30" stroke-linejoin="round" d="M 12153,10967 L 12153,10817"/>
 <path fill="none" stroke="rgb(0,0,0)" stroke-width="30" stroke-linejoin="round" d="M 12153,10967 L 12153,10817"/>
 <path fill="none" stroke="rgb(0,0,0)" stroke-width="30" stroke-linejoin="round" d="M 12274,10967 L 12274,10817"/>
 <path fill="none" stroke="rgb(0,0,0)" stroke-width="30" stroke-linejoin="round" d="M 12274,10967 L 12274,10817"/>
 <path fill="none" stroke="rgb(0,0,0)" stroke-width="30" stroke-linejoin="round" d="M 12394,10967 L 12394,10817"/>
 <path fill="none" stroke="rgb(0,0,0)" stroke-width="30" stroke-linejoin="round" d="M 12394,10967 L 12394,10817"/>
 <path fill="none" stroke="rgb(0,0,0)" stroke-width="30" stroke-linejoin="round" d="M 12515,10967 L 12515,10817"/>
 <path fill="none" stroke="rgb(0,0,0)" stroke-width="30" stroke-linejoin="round" d="M 12515,10967 L 12515,10817"/>
 <path fill="none" stroke="rgb(0,0,0)" stroke-width="30" stroke-linejoin="round" d="M 12635,10967 L 12635,10817"/>
 <path fill="none" stroke="rgb(0,0,0)" stroke-width="30" stroke-linejoin="round" d="M 12635,10967 L 12635,10817"/>
 <path fill="none" stroke="rgb(0,0,0)" stroke-width="30" stroke-linejoin="round" d="M 12756,10967 L 12756,10817"/>
 <path fill="none" stroke="rgb(0,0,0)" stroke-width="30" stroke-linejoin="round" d="M 12756,10967 L 12756,10817"/>
 <path fill="none" stroke="rgb(0,0,0)" stroke-width="30" stroke-linejoin="round" d="M 12876,10967 L 12876,10817"/>
 <path fill="none" stroke="rgb(0,0,0)" stroke-width="30" stroke-linejoin="round" d="M 12876,10967 L 12876,10817"/>
 <path fill="none" stroke="rgb(0,0,0)" stroke-width="30" stroke-linejoin="round" d="M 12997,10967 L 12997,10817"/>
 <path fill="none" stroke="rgb(0,0,0)" stroke-width="30" stroke-linejoin="round" d="M 12997,10967 L 12997,10817"/>
 <path fill="none" stroke="rgb(0,0,0)" stroke-width="30" stroke-linejoin="round" d="M 13118,10967 L 13118,10817"/>
 <path fill="none" stroke="rgb(0,0,0)" stroke-width="30" stroke-linejoin="round" d="M 13118,10967 L 13118,10817"/>
 <path fill="none" stroke="rgb(0,0,0)" stroke-width="30" stroke-linejoin="round" d="M 13238,10967 L 13238,10817"/>
 <path fill="none" stroke="rgb(0,0,0)" stroke-width="30" stroke-linejoin="round" d="M 13238,10967 L 13238,10817"/>
 <path fill="none" stroke="rgb(0,0,0)" stroke-width="30" stroke-linejoin="round" d="M 13359,10967 L 13359,10817"/>
 <path fill="none" stroke="rgb(0,0,0)" stroke-width="30" stroke-linejoin="round" d="M 13359,10967 L 13359,10817"/>
 <path fill="none" stroke="rgb(0,0,0)" stroke-width="30" stroke-linejoin="round" d="M 13479,10967 L 13479,10817"/>
 <path fill="none" stroke="rgb(0,0,0)" stroke-width="30" stroke-linejoin="round" d="M 13479,10967 L 13479,10817"/>
 <path fill="none" stroke="rgb(0,0,0)" stroke-width="30" stroke-linejoin="round" d="M 13600,10967 L 13600,10817"/>
 <path fill="none" stroke="rgb(0,0,0)" stroke-width="30" stroke-linejoin="round" d="M 13600,10967 L 13600,10817"/>
 <path fill="none" stroke="rgb(0,0,0)" stroke-width="30" stroke-linejoin="round" d="M 13720,10967 L 13720,10817"/>
 <path fill="none" stroke="rgb(0,0,0)" stroke-width="30" stroke-linejoin="round" d="M 13720,10967 L 13720,10817"/>
 <path fill="none" stroke="rgb(0,0,0)" stroke-width="30" stroke-linejoin="round" d="M 13841,10967 L 13841,10817"/>
 <path fill="none" stroke="rgb(0,0,0)" stroke-width="30" stroke-linejoin="round" d="M 13841,10967 L 13841,10817"/>
 <path fill="none" stroke="rgb(0,0,0)" stroke-width="30" stroke-linejoin="round" d="M 13961,10967 L 13961,10817"/>
 <path fill="none" stroke="rgb(0,0,0)" stroke-width="30" stroke-linejoin="round" d="M 13961,10967 L 13961,10817"/>
 <path fill="none" stroke="rgb(0,0,0)" stroke-width="30" stroke-linejoin="round" d="M 14082,10967 L 14082,10817"/>
 <path fill="none" stroke="rgb(0,0,0)" stroke-width="30" stroke-linejoin="round" d="M 14082,10967 L 14082,10817"/>
 <path fill="none" stroke="rgb(0,0,0)" stroke-width="30" stroke-linejoin="round" d="M 14203,10967 L 14203,10817"/>
 <path fill="none" stroke="rgb(0,0,0)" stroke-width="30" stroke-linejoin="round" d="M 14203,10967 L 14203,10817"/>
 <path fill="none" stroke="rgb(0,0,0)" stroke-width="30" stroke-linejoin="round" d="M 14323,10967 L 14323,10817"/>
 <path fill="none" stroke="rgb(0,0,0)" stroke-width="30" stroke-linejoin="round" d="M 14323,10967 L 14323,10817"/>
 <path fill="none" stroke="rgb(0,0,0)" stroke-width="30" stroke-linejoin="round" d="M 14444,10967 L 14444,10817"/>
 <path fill="none" stroke="rgb(0,0,0)" stroke-width="30" stroke-linejoin="round" d="M 14444,10967 L 14444,10817"/>
 <path fill="none" stroke="rgb(0,0,0)" stroke-width="30" stroke-linejoin="round" d="M 14564,10967 L 14564,10817"/>
 <path fill="none" stroke="rgb(0,0,0)" stroke-width="30" stroke-linejoin="round" d="M 14564,10967 L 14564,10817"/>
 <path fill="none" stroke="rgb(0,0,0)" stroke-width="30" stroke-linejoin="round" d="M 14685,10967 L 14685,10817"/>
 <path fill="none" stroke="rgb(0,0,0)" stroke-width="30" stroke-linejoin="round" d="M 14685,10967 L 14685,10817"/>
 <path fill="none" stroke="rgb(0,0,0)" stroke-width="30" stroke-linejoin="round" d="M 14805,10967 L 14805,10817"/>
 <path fill="none" stroke="rgb(0,0,0)" stroke-width="30" stroke-linejoin="round" d="M 14805,10967 L 14805,10817"/>
 <path fill="none" stroke="rgb(0,0,0)" stroke-width="30" stroke-linejoin="round" d="M 14926,10967 L 14926,10817"/>
 <path fill="none" stroke="rgb(0,0,0)" stroke-width="30" stroke-linejoin="round" d="M 14926,10967 L 14926,10817"/>
 <path fill="none" stroke="rgb(0,0,0)" stroke-width="30" stroke-linejoin="round" d="M 15046,10967 L 15046,10817"/>
 <path fill="none" stroke="rgb(0,0,0)" stroke-width="30" stroke-linejoin="round" d="M 15046,10967 L 15046,10817"/>
 <path fill="none" stroke="rgb(0,0,0)" stroke-width="30" stroke-linejoin="round" d="M 15167,10967 L 15167,10817"/>
 <path fill="none" stroke="rgb(0,0,0)" stroke-width="30" stroke-linejoin="round" d="M 15167,10967 L 15167,10817"/>
 <path fill="none" stroke="rgb(0,0,0)" stroke-width="30" stroke-linejoin="round" d="M 15288,10967 L 15288,10817"/>
 <path fill="none" stroke="rgb(0,0,0)" stroke-width="30" stroke-linejoin="round" d="M 15288,10967 L 15288,10817"/>
 <path fill="none" stroke="rgb(0,0,0)" stroke-width="30" stroke-linejoin="round" d="M 1184,10817 L 15288,10817"/>
 <path fill="none" stroke="rgb(0,0,0)" stroke-width="30" stroke-linejoin="round" d="M 1034,10817 L 1184,10817"/>
 <path fill="none" stroke="rgb(0,0,0)" stroke-width="30" stroke-linejoin="round" d="M 1034,10817 L 1184,10817"/>
 <path fill="none" stroke="rgb(0,0,0)" stroke-width="30" stroke-linejoin="round" d="M 1034,9195 L 1184,9195"/>
 <path fill="none" stroke="rgb(0,0,0)" stroke-width="30" stroke-linejoin="round" d="M 1034,9195 L 1184,9195"/>
 <path fill="none" stroke="rgb(0,0,0)" stroke-width="30" stroke-linejoin="round" d="M 1034,7574 L 1184,7574"/>
 <path fill="none" stroke="rgb(0,0,0)" stroke-width="30" stroke-linejoin="round" d="M 1034,7574 L 1184,7574"/>
 <path fill="none" stroke="rgb(0,0,0)" stroke-width="30" stroke-linejoin="round" d="M 1034,5954 L 1184,5954"/>
 <path fill="none" stroke="rgb(0,0,0)" stroke-width="30" stroke-linejoin="round" d="M 1034,5954 L 1184,5954"/>
 <path fill="none" stroke="rgb(0,0,0)" stroke-width="30" stroke-linejoin="round" d="M 1034,4333 L 1184,4333"/>
 <path fill="none" stroke="rgb(0,0,0)" stroke-width="30" stroke-linejoin="round" d="M 1034,4333 L 1184,4333"/>
 <path fill="none" stroke="rgb(0,0,0)" stroke-width="30" stroke-linejoin="round" d="M 1034,2712 L 1184,2712"/>
 <path fill="none" stroke="rgb(0,0,0)" stroke-width="30" stroke-linejoin="round" d="M 1034,2712 L 1184,2712"/>
 <path fill="none" stroke="rgb(0,0,0)" stroke-width="30" stroke-linejoin="round" d="M 1034,1090 L 1184,1090"/>
 <path fill="none" stroke="rgb(0,0,0)" stroke-width="30" stroke-linejoin="round" d="M 1034,1090 L 1184,1090"/>
 <path fill="none" stroke="rgb(0,0,0)" stroke-width="30" stroke-linejoin="round" d="M 1184,10817 L 1184,1091"/>
 <path fill="none" stroke="rgb(0,0,0)" stroke-width="30" stroke-linejoin="round" d="M 15438,10817 L 15288,10817"/>
 <path fill="none" stroke="rgb(0,0,0)" stroke-width="30" stroke-linejoin="round" d="M 15438,10817 L 15288,10817"/>
 <path fill="none" stroke="rgb(0,0,0)" stroke-width="30" stroke-linejoin="round" d="M 15438,9195 L 15288,9195"/>
 <path fill="none" stroke="rgb(0,0,0)" stroke-width="30" stroke-linejoin="round" d="M 15438,9195 L 15288,9195"/>
 <path fill="none" stroke="rgb(0,0,0)" stroke-width="30" stroke-linejoin="round" d="M 15438,7574 L 15288,7574"/>
 <path fill="none" stroke="rgb(0,0,0)" stroke-width="30" stroke-linejoin="round" d="M 15438,7574 L 15288,7574"/>
 <path fill="none" stroke="rgb(0,0,0)" stroke-width="30" stroke-linejoin="round" d="M 15438,5954 L 15288,5954"/>
 <path fill="none" stroke="rgb(0,0,0)" stroke-width="30" stroke-linejoin="round" d="M 15438,5954 L 15288,5954"/>
 <path fill="none" stroke="rgb(0,0,0)" stroke-width="30" stroke-linejoin="round" d="M 15438,4333 L 15288,4333"/>
 <path fill="none" stroke="rgb(0,0,0)" stroke-width="30" stroke-linejoin="round" d="M 15438,4333 L 15288,4333"/>
 <path fill="none" stroke="rgb(0,0,0)" stroke-width="30" stroke-linejoin="round" d="M 15438,2712 L 15288,2712"/>
 <path fill="none" stroke="rgb(0,0,0)" stroke-width="30" stroke-linejoin="round" d="M 15438,2712 L 15288,2712"/>
 <path fill="none" stroke="rgb(0,0,0)" stroke-width="30" stroke-linejoin="round" d="M 15438,1090 L 15288,1090"/>
 <path fill="none" stroke="rgb(0,0,0)" stroke-width="30" stroke-linejoin="round" d="M 15438,1090 L 15288,1090"/>
 <path fill="none" stroke="rgb(0,0,0)" stroke-width="30" stroke-linejoin="round" d="M 15288,10817 L 15288,1091"/>
 <path fill="none" stroke="rgb(0,69,134)" stroke-width="80" stroke-linejoin="round" d="M 1184,9524 L 1304,9539 1425,9630 1545,9675 1666,9685 1786,9711 1907,9756 2027,9798 2148,9818 2269,9852 2389,9901 2510,9912 2630,9941 2751,9952 2871,9980 2992,9985 3112,9969 3233,9965 3354,9969 3474,9993 3595,9980 3715,9951 3836,9967 3956,9975 4077,9983 4197,9949 4318,9973 4439,9983 4559,9988 4680,9948 4800,9957 4921,9978 5041,9928 5162,9956 5282,9973 5403,9999 5524,10033 5644,9962 5765,10016 5885,9959 6006,10019 6126,9972 6247,9969 6367,9952 6488,9868 6609,9875 6729,9905 6850,9949 6970,9917 7091,9854 7211,9868 7332,9897 7452,9863 7573,9834 7694,9826 7814,9790 7935,9743 8055,9789 8176,9759 8295,9696 8416,9646 8536,9547 8657,9495 8778,9523 8898,9575 9019,9463 9139,9370 9260,9328 9380,9244 9501,8743 9621,8798 9742,8863 9863,8892 9983,8571 10104,8589 10224,8448 10345,8283 10465,8289 10586,8555 10706,8735 10827,8837 10948,8644 11068,8712 11189,8435 11309,8253 11430,8080 11550,7861 11671,7775 11791,7715 11912,7621 12033,7344 12153,7141 12274,6861 12394,6824 12515,6624 12635,6674 12756,6422 12876,6193 12997,5946 13118,6227 13238,5902 13359,5774 13479,5528 13600,5205 13720,4819 13841,4534 13961,4467 14082,4474 14203,4151 14323,3809 14444,3718 14564,4077 14685,3898 14805,3864 14926,3684 15046,3451 15167,3268 15288,3240"/>
 <path fill="none" stroke="rgb(255,66,14)" stroke-width="80" stroke-linejoin="round" d="M 1184,2412 L 1304,2477 1425,2691 1545,2798 1666,2875 1786,2814 1907,3088 2027,3208 2148,3269 2269,3418 2389,3542 2510,3581 2630,3770 2751,3906 2871,4077 2992,4124 3112,4227 3233,4310 3354,4341 3474,4393 3595,4438 3715,4519 3836,4615 3956,4634 4077,4774 4197,4873 4318,5036 4439,5088 4559,5166 4680,5309 4800,5294 4921,5291 5041,5328 5162,5432 5282,5482 5403,5500 5524,5513 5644,5638 5765,5693 5885,5764 6006,5790 6126,5876 6247,5943 6367,5960 6488,5977 6609,6037 6729,6105 6850,6246 6970,6173 7091,6033 7211,6025 7332,6071 7452,6093 7573,5993 7694,6130 7814,6266 7935,6352 8055,6418 8176,6327 8295,6357 8416,6313 8536,6045 8657,6242 8778,6116 8898,6126 9019,6290 9139,6405 9260,6428 9380,6349 9501,6527 9621,6623 9742,6705 9863,6653 9983,6611 10104,6632 10224,6751 10345,6812 10465,6916 10586,7222 10706,7310 10827,7080 10948,7167 11068,7222 11189,7328 11309,7266 11430,7289 11550,7099 11671,7284 11791,7419 11912,7595 12033,7603 12153,7608 12274,7697 12394,7718 12515,7942 12635,7945 12756,7965 12876,7954 12997,8046 13118,8197 13238,8252 13359,8211 13479,8286 13600,8347 13720,8281 13841,8527 13961,8631 14082,8584 14203,8536 14323,8409 14444,8432 14564,8461 14685,8459 14805,8286 14926,8510 15046,8565 15167,8518 15288,8566"/>
 <path fill="none" stroke="rgb(255,211,32)" stroke-width="80" stroke-linejoin="round" d="M 1184,5195 L 1304,5140 1425,4933 1545,4869 1666,4720 1786,4762 1907,4571 2027,4432 2148,4364 2269,4240 2389,4124 2510,4023 2630,3866 2751,3803 2871,3650 2992,3624 3112,3582 3233,3560 3354,3524 3474,3436 3595,3449 3715,3420 3836,3362 3956,3349 4077,3253 4197,3232 4318,3086 4439,3055 4559,3028 4680,2986 4800,3008 4921,3054 5041,3080 5162,3010 5282,2999 5403,2932 5524,2846 5644,2841 5765,2725 5885,2809 6006,2736 6126,2746 6247,2742 6367,2793 6488,2884 6609,2911 6729,2866 6850,2729 6970,2794 7091,2918 7211,2943 7332,2952 7452,3034 7573,3130 7694,3086 7814,3002 7935,3020 8055,2976 8176,2986 8295,3046 8416,3120 8536,3349 8657,3242 8778,3308 8898,3208 9019,3239 9139,3329 9260,3344 9380,3436 9501,3848 9621,3751 9742,3704 9863,3608 9983,3937 10104,3958 10224,4007 10345,4125 10465,4099 10586,3846 10706,3629 10827,3534 10948,3461 11068,3433 11189,3634 11309,3913 11430,4067 11550,4390 11671,4274 11791,4330 11912,4255 12033,4407 12153,4655 12274,4796 12394,4748 12515,4777 12635,4740 12756,4973 12876,5200 12997,5346 13118,5163 13238,5293 13359,5403 13479,5563 13600,5784 13720,6017 13841,6040 13961,6029 14082,5990 14203,6116 14323,6423 14444,6469 14564,6186 14685,6365 14805,6516 14926,6516 15046,6663 15167,6788 15288,6832"/>
 <path fill="none" stroke="rgb(87,157,28)" stroke-width="80" stroke-linejoin="round" d="M 1184,10168 L 1304,10147 1425,10063 1545,9986 1666,10051 1786,10051 1907,9951 2027,9943 2148,9925 2269,9886 2389,9855 2510,9894 2630,9847 2751,9802 2871,9782 2992,9779 3112,9766 3233,9761 3354,9768 3474,9790 3595,9758 3715,9769 3836,9763 3956,9782 4077,9785 4197,9798 4318,9808 4439,9819 4559,9819 4680,9823 4800,9831 4921,9815 5041,9828 5162,9831 5282,9834 5403,9868 5524,9905 5644,9917 5765,9943 5885,9914 6006,9901 6126,9918 6247,9922 6367,9928 6488,9956 6609,9962 6729,9948 6850,9956 6970,9988 7091,10048 7211,10051 7332,10045 7452,10045 7573,10069 7694,10066 7814,10079 7935,10069 8055,10046 8176,10087 8295,10102 8416,10115 8536,10175 8657,10163 8778,10200 8898,10209 9019,10197 9139,10171 9260,10199 9380,10239 9501,10296 9621,10273 9742,10239 9863,10236 9983,10272 10104,10257 10224,10247 10345,10231 10465,10218 10586,10103 10706,10051 10827,10098 10948,10166 11068,10163 11189,10212 11309,10205 11430,10223 11550,10252 11671,10269 11791,10260 11912,10260 12033,10309 12153,10273 12274,10288 12394,10303 12515,10307 12635,10307 12756,10319 12876,10332 12997,10343 13118,10317 13238,10333 13359,10350 13479,10359 13600,10374 13720,10413 13841,10424 13961,10423 14082,10458 14203,10473 14323,10499 14444,10484 14564,10476 14685,10473 14805,10499 14926,10478 15046,10483 15167,10504 15288,10499"/>
 <path fill="none" stroke="rgb(126,0,33)" stroke-width="80" stroke-linejoin="round" d="M 1184,10640 L 1304,10633 1425,10615 1545,10611 1666,10603 1786,10606 1907,10578 2027,10564 2148,10562 2269,10551 2389,10531 2510,10546 2630,10525 2751,10499 2871,10486 2992,10481 3112,10461 3233,10445 3354,10432 3474,10429 3595,10392 3715,10376 3836,10348 3956,10337 4077,10304 4197,10267 4318,10238 4439,10222 4559,10187 4680,10158 4800,10132 4921,10098 5041,10111 5162,10095 5282,10058 5403,10055 5524,10055 5644,10024 5765,10032 5885,10003 6006,9990 6126,9964 6247,9933 6367,9907 6488,9907 6609,9875 6729,9841 6850,9803 6970,9826 7091,9866 7211,9854 7332,9807 7452,9772 7573,9785 7694,9756 7814,9732 7935,9693 8055,9615 8176,9664 8295,9649 8416,9623 8536,9693 8657,9664 8778,9690 8898,9649 9019,9601 9139,9544 9260,9541 9380,9623 9501,9622 9621,9565 9742,9453 9863,9460 9983,9487 10104,9456 10224,9427 10345,9396 10465,9348 10586,9246 10706,9171 10827,9246 10948,9288 11068,9259 11189,9255 11309,9203 11430,9184 11550,9226 11671,9187 11791,9173 11912,9165 12033,9212 12153,9147 12274,9142 12394,9142 12515,9092 12635,9092 12756,9074 12876,9075 12997,9090 13118,8941 13238,8994 13359,9023 13479,9002 13600,9012 13720,9147 13841,9114 13961,9126 14082,9186 14203,9332 14323,9426 14444,9403 14564,9333 14685,9328 14805,9396 14926,9341 15046,9348 15167,9419 15288,9372"/>
 <path fill="none" stroke="rgb(131,202,255)" stroke-width="80" stroke-linejoin="round" d="M 1184,10750 L 1304,10753 1425,10758 1545,10750 1666,10755 1786,10745 1907,10745 2027,10745 2148,10752 2269,10742 2389,10737 2510,10734 2630,10740 2751,10727 2871,10714 2992,10697 3112,10684 3233,10648 3354,10656 3474,10648 3595,10672 3715,10654 3836,10635 3956,10612 4077,10590 4197,10570 4318,10547 4439,10521 4559,10500 4680,10466 4800,10466 4921,10453 5041,10414 5162,10366 5282,10343 5403,10335 5524,10337 5644,10307 5765,10282 5885,10241 6006,10254 6126,10213 6247,10181 6367,10149 6488,10098 6609,10030 6729,10025 6850,10004 6970,9990 7091,9970 7211,9948 7332,9918 7452,9881 7573,9878 7694,9824 7814,9819 7935,9811 8055,9844 8176,9865 8295,9839 8416,9871 8536,9881 8657,9883 8778,9852 8898,9923 9019,9899 9139,9868 9260,9849 9380,9797 9501,9653 9621,9678 9742,9724 9863,9839 9983,9810 10104,9795 10224,9808 10345,9841 10465,9818 10586,9716 10706,9792 10827,9894 10948,9962 11068,9899 11189,9824 11309,9847 11430,9845 11550,9860 11671,9899 11791,9792 11912,9792 12033,9813 12153,9863 12274,9904 12394,9954 12515,9946 12635,9930 12756,9936 12876,9935 12997,9918 13118,9844 13238,9915 13359,9928 13479,9951 13600,9967 13720,10012 13841,10050 13961,10014 14082,9998 14203,10082 14323,10123 14444,10183 14564,10155 14685,10165 14805,10128 14926,10160 15046,10179 15167,10192 15288,10179"/>
 <text class="TextShape"><tspan class="TextParagraph" font-family="Arial, sans-serif" font-size="388px" font-weight="400"><tspan class="TextPosition" x="1001" y="11411"><tspan fill="rgb(0,0,0)" stroke="none">2008</tspan></tspan></tspan></text>
 <text class="TextShape"><tspan class="TextParagraph" font-family="Arial, sans-serif" font-size="388px" font-weight="400"><tspan class="TextPosition" x="2447" y="11411"><tspan fill="rgb(0,0,0)" stroke="none">2009</tspan></tspan></tspan></text>
 <text class="TextShape"><tspan class="TextParagraph" font-family="Arial, sans-serif" font-size="388px" font-weight="400"><tspan class="TextPosition" x="3894" y="11411"><tspan fill="rgb(0,0,0)" stroke="none">2010</tspan></tspan></tspan></text>
 <text class="TextShape"><tspan class="TextParagraph" font-family="Arial, sans-serif" font-size="388px" font-weight="400"><tspan class="TextPosition" x="5341" y="11411"><tspan fill="rgb(0,0,0)" stroke="none">2011</tspan></tspan></tspan></text>
 <text class="TextShape"><tspan class="TextParagraph" font-family="Arial, sans-serif" font-size="388px" font-weight="400"><tspan class="TextPosition" x="6787" y="11411"><tspan fill="rgb(0,0,0)" stroke="none">2012</tspan></tspan></tspan></text>
 <text class="TextShape"><tspan class="TextParagraph" font-family="Arial, sans-serif" font-size="388px" font-weight="400"><tspan class="TextPosition" x="8234" y="11411"><tspan fill="rgb(0,0,0)" stroke="none">2013</tspan></tspan></tspan></text>
 <text class="TextShape"><tspan class="TextParagraph" font-family="Arial, sans-serif" font-size="388px" font-weight="400"><tspan class="TextPosition" x="9681" y="11411"><tspan fill="rgb(0,0,0)" stroke="none">2014</tspan></tspan></tspan></text>
 <text class="TextShape"><tspan class="TextParagraph" font-family="Arial, sans-serif" font-size="388px" font-weight="400"><tspan class="TextPosition" x="11127" y="11411"><tspan fill="rgb(0,0,0)" stroke="none">2015</tspan></tspan></tspan></text>
 <text class="TextShape"><tspan class="TextParagraph" font-family="Arial, sans-serif" font-size="388px" font-weight="400"><tspan class="TextPosition" x="12574" y="11411"><tspan fill="rgb(0,0,0)" stroke="none">2016</tspan></tspan></tspan></text>
 <text class="TextShape"><tspan class="TextParagraph" font-family="Arial, sans-serif" font-size="388px" font-weight="400"><tspan class="TextPosition" x="14021" y="11411"><tspan fill="rgb(0,0,0)" stroke="none">2017</tspan></tspan></tspan></text>
 <text class="TextShape"><tspan class="TextParagraph" font-family="Arial, sans-serif" font-size="388px" font-weight="400"><tspan class="TextPosition" x="378" y="10951"><tspan fill="rgb(0,0,0)" stroke="none">0%</tspan></tspan></tspan></text>
 <text class="TextShape"><tspan class="TextParagraph" font-family="Arial, sans-serif" font-size="388px" font-weight="400"><tspan class="TextPosition" x="167" y="9329"><tspan fill="rgb(0,0,0)" stroke="none">10%</tspan></tspan></tspan></text>
 <text class="TextShape"><tspan class="TextParagraph" font-family="Arial, sans-serif" font-size="388px" font-weight="400"><tspan class="TextPosition" x="167" y="7708"><tspan fill="rgb(0,0,0)" stroke="none">20%</tspan></tspan></tspan></text>
 <text class="TextShape"><tspan class="TextParagraph" font-family="Arial, sans-serif" font-size="388px" font-weight="400"><tspan class="TextPosition" x="167" y="6087"><tspan fill="rgb(0,0,0)" stroke="none">30%</tspan></tspan></tspan></text>
 <text class="TextShape"><tspan class="TextParagraph" font-family="Arial, sans-serif" font-size="388px" font-weight="400"><tspan class="TextPosition" x="167" y="4466"><tspan fill="rgb(0,0,0)" stroke="none">40%</tspan></tspan></tspan></text>
 <text class="TextShape"><tspan class="TextParagraph" font-family="Arial, sans-serif" font-size="388px" font-weight="400"><tspan class="TextPosition" x="167" y="2845"><tspan fill="rgb(0,0,0)" stroke="none">50%</tspan></tspan></tspan></text>
 <text class="TextShape"><tspan class="TextParagraph" font-family="Arial, sans-serif" font-size="388px" font-weight="400"><tspan class="TextPosition" x="167" y="1223"><tspan fill="rgb(0,0,0)" stroke="none">60%</tspan></tspan></tspan></text>
 <text class="TextShape"><tspan class="TextParagraph" font-family="Arial, sans-serif" font-size="388px" font-weight="400"><tspan class="TextPosition" x="15538" y="10951"><tspan fill="rgb(0,0,0)" stroke="none">0%</tspan></tspan></tspan></text>
 <text class="TextShape"><tspan class="TextParagraph" font-family="Arial, sans-serif" font-size="388px" font-weight="400"><tspan class="TextPosition" x="15538" y="9329"><tspan fill="rgb(0,0,0)" stroke="none">10%</tspan></tspan></tspan></text>
 <text class="TextShape"><tspan class="TextParagraph" font-family="Arial, sans-serif" font-size="388px" font-weight="400"><tspan class="TextPosition" x="15538" y="7708"><tspan fill="rgb(0,0,0)" stroke="none">20%</tspan></tspan></tspan></text>
 <text class="TextShape"><tspan class="TextParagraph" font-family="Arial, sans-serif" font-size="388px" font-weight="400"><tspan class="TextPosition" x="15538" y="6087"><tspan fill="rgb(0,0,0)" stroke="none">30%</tspan></tspan></tspan></text>
 <text class="TextShape"><tspan class="TextParagraph" font-family="Arial, sans-serif" font-size="388px" font-weight="400"><tspan class="TextPosition" x="15538" y="4466"><tspan fill="rgb(0,0,0)" stroke="none">40%</tspan></tspan></tspan></text>
 <text class="TextShape"><tspan class="TextParagraph" font-family="Arial, sans-serif" font-size="388px" font-weight="400"><tspan class="TextPosition" x="15538" y="2845"><tspan fill="rgb(0,0,0)" stroke="none">50%</tspan></tspan></tspan></text>
 <text class="TextShape"><tspan class="TextParagraph" font-family="Arial, sans-serif" font-size="388px" font-weight="400"><tspan class="TextPosition" x="15538" y="1223"><tspan fill="rgb(0,0,0)" stroke="none">60%</tspan></tspan></tspan></text>
 <text class="TextShape"><tspan class="TextParagraph" font-family="Liberation Sans, sans-serif" font-size="635px" font-weight="400"><tspan class="TextPosition" x="5645" y="747"><tspan fill="rgb(0,0,0)" stroke="none">Número de píxeles </tspan></tspan></tspan></text>
 <path fill="none" stroke="rgb(0,69,134)" stroke-width="80" stroke-linejoin="round" d="M 1247,11981 L 2047,11981"/>
 <path fill="none" stroke="rgb(255,66,14)" stroke-width="80" stroke-linejoin="round" d="M 3677,11981 L 4477,11981"/>
 <path fill="none" stroke="rgb(255,211,32)" stroke-width="80" stroke-linejoin="round" d="M 6107,11981 L 6907,11981"/>
 <path fill="none" stroke="rgb(87,157,28)" stroke-width="80" stroke-linejoin="round" d="M 8536,11981 L 9336,11981"/>
 <path fill="none" stroke="rgb(126,0,33)" stroke-width="80" stroke-linejoin="round" d="M 10966,11981 L 11766,11981"/>
 <path fill="none" stroke="rgb(131,202,255)" stroke-width="80" stroke-linejoin="round" d="M 13396,11981 L 14196,11981"/>
 <text class="TextShape"><tspan class="TextParagraph" font-family="Arial, sans-serif" font-size="353px" font-weight="400"><tspan class="TextPosition" x="2147" y="12100"><tspan fill="rgb(0,0,0)" stroke="none">0,5 MPx</tspan></tspan></tspan></text>
 <text class="TextShape"><tspan class="TextParagraph" font-family="Arial, sans-serif" font-size="353px" font-weight="400"><tspan class="TextPosition" x="4577" y="12100"><tspan fill="rgb(0,0,0)" stroke="none">1,0 MPx</tspan></tspan></tspan></text>
 <text class="TextShape"><tspan class="TextParagraph" font-family="Arial, sans-serif" font-size="353px" font-weight="400"><tspan class="TextPosition" x="7007" y="12100"><tspan fill="rgb(0,0,0)" stroke="none">1,5 MPx</tspan></tspan></tspan></text>
 <text class="TextShape"><tspan class="TextParagraph" font-family="Arial, sans-serif" font-size="353px" font-weight="400"><tspan class="TextPosition" x="9436" y="12100"><tspan fill="rgb(0,0,0)" stroke="none">2,0 MPx</tspan></tspan></tspan></text>
 <text class="TextShape"><tspan class="TextParagraph" font-family="Arial, sans-serif" font-size="353px" font-weight="400"><tspan class="TextPosition" x="11866" y="12100"><tspan fill="rgb(0,0,0)" stroke="none">2,5 MPx</tspan></tspan></tspan></text>
 <text class="TextShape"><tspan class="TextParagraph" font-family="Arial, sans-serif" font-size="353px" font-weight="400"><tspan class="TextPosition" x="14296" y="12100"><tspan fill="rgb(0,0,0)" stroke="none">Otros</tspan></tspan></tspan></text>
</svg>
