<?xml version="1.0" encoding="UTF-8"?>
<!DOCTYPE svg PUBLIC "-//W3C//DTD SVG 1.1//EN" "http://www.w3.org/Graphics/SVG/1.1/DTD/svg11.dtd">
<svg width="165mm" height="123mm" viewBox="0 0 16500 12300" version="1.1" xmlns="http://www.w3.org/2000/svg" stroke-width="28.222" stroke-linejoin="round" xml:space="preserve">
 <path fill="rgb(255,255,255)" stroke="none" d="M 8257,12324 L 12,12324 12,0 16502,0 16502,12324 8257,12324 Z"/>
 <path fill="none" stroke="rgb(179,179,179)" stroke-linejoin="round" d="M 8207,10702 L 1255,10702 1255,1092 15158,1092 15158,10702 8207,10702 Z"/>
 <path fill="none" stroke="rgb(179,179,179)" stroke-linejoin="round" d="M 15158,10701 L 1255,10701"/>
 <path fill="none" stroke="rgb(179,179,179)" stroke-linejoin="round" d="M 15158,9739 L 1255,9739"/>
 <path fill="none" stroke="rgb(179,179,179)" stroke-linejoin="round" d="M 15158,8778 L 1255,8778"/>
 <path fill="none" stroke="rgb(179,179,179)" stroke-linejoin="round" d="M 15158,7817 L 1255,7817"/>
 <path fill="none" stroke="rgb(179,179,179)" stroke-linejoin="round" d="M 15158,6856 L 1255,6856"/>
 <path fill="none" stroke="rgb(179,179,179)" stroke-linejoin="round" d="M 15158,5896 L 1255,5896"/>
 <path fill="none" stroke="rgb(179,179,179)" stroke-linejoin="round" d="M 15158,4935 L 1255,4935"/>
 <path fill="none" stroke="rgb(179,179,179)" stroke-linejoin="round" d="M 15158,3974 L 1255,3974"/>
 <path fill="none" stroke="rgb(179,179,179)" stroke-linejoin="round" d="M 15158,3013 L 1255,3013"/>
 <path fill="none" stroke="rgb(179,179,179)" stroke-linejoin="round" d="M 15158,2052 L 1255,2052"/>
 <path fill="none" stroke="rgb(179,179,179)" stroke-linejoin="round" d="M 15158,1091 L 1255,1091"/>
 <path fill="none" stroke="rgb(0,0,0)" stroke-width="30" stroke-linejoin="round" d="M 1255,10851 L 1255,10701"/>
 <path fill="none" stroke="rgb(0,0,0)" stroke-width="30" stroke-linejoin="round" d="M 1255,10851 L 1255,10701"/>
 <path fill="none" stroke="rgb(0,0,0)" stroke-width="30" stroke-linejoin="round" d="M 1374,10851 L 1374,10701"/>
 <path fill="none" stroke="rgb(0,0,0)" stroke-width="30" stroke-linejoin="round" d="M 1374,10851 L 1374,10701"/>
 <path fill="none" stroke="rgb(0,0,0)" stroke-width="30" stroke-linejoin="round" d="M 1494,10851 L 1494,10701"/>
 <path fill="none" stroke="rgb(0,0,0)" stroke-width="30" stroke-linejoin="round" d="M 1494,10851 L 1494,10701"/>
 <path fill="none" stroke="rgb(0,0,0)" stroke-width="30" stroke-linejoin="round" d="M 1614,10851 L 1614,10701"/>
 <path fill="none" stroke="rgb(0,0,0)" stroke-width="30" stroke-linejoin="round" d="M 1614,10851 L 1614,10701"/>
 <path fill="none" stroke="rgb(0,0,0)" stroke-width="30" stroke-linejoin="round" d="M 1734,10851 L 1734,10701"/>
 <path fill="none" stroke="rgb(0,0,0)" stroke-width="30" stroke-linejoin="round" d="M 1734,10851 L 1734,10701"/>
 <path fill="none" stroke="rgb(0,0,0)" stroke-width="30" stroke-linejoin="round" d="M 1854,10851 L 1854,10701"/>
 <path fill="none" stroke="rgb(0,0,0)" stroke-width="30" stroke-linejoin="round" d="M 1854,10851 L 1854,10701"/>
 <path fill="none" stroke="rgb(0,0,0)" stroke-width="30" stroke-linejoin="round" d="M 1974,10851 L 1974,10701"/>
 <path fill="none" stroke="rgb(0,0,0)" stroke-width="30" stroke-linejoin="round" d="M 1974,10851 L 1974,10701"/>
 <path fill="none" stroke="rgb(0,0,0)" stroke-width="30" stroke-linejoin="round" d="M 2094,10851 L 2094,10701"/>
 <path fill="none" stroke="rgb(0,0,0)" stroke-width="30" stroke-linejoin="round" d="M 2094,10851 L 2094,10701"/>
 <path fill="none" stroke="rgb(0,0,0)" stroke-width="30" stroke-linejoin="round" d="M 2213,10851 L 2213,10701"/>
 <path fill="none" stroke="rgb(0,0,0)" stroke-width="30" stroke-linejoin="round" d="M 2213,10851 L 2213,10701"/>
 <path fill="none" stroke="rgb(0,0,0)" stroke-width="30" stroke-linejoin="round" d="M 2333,10851 L 2333,10701"/>
 <path fill="none" stroke="rgb(0,0,0)" stroke-width="30" stroke-linejoin="round" d="M 2333,10851 L 2333,10701"/>
 <path fill="none" stroke="rgb(0,0,0)" stroke-width="30" stroke-linejoin="round" d="M 2453,10851 L 2453,10701"/>
 <path fill="none" stroke="rgb(0,0,0)" stroke-width="30" stroke-linejoin="round" d="M 2453,10851 L 2453,10701"/>
 <path fill="none" stroke="rgb(0,0,0)" stroke-width="30" stroke-linejoin="round" d="M 2573,10851 L 2573,10701"/>
 <path fill="none" stroke="rgb(0,0,0)" stroke-width="30" stroke-linejoin="round" d="M 2573,10851 L 2573,10701"/>
 <path fill="none" stroke="rgb(0,0,0)" stroke-width="30" stroke-linejoin="round" d="M 2693,10851 L 2693,10701"/>
 <path fill="none" stroke="rgb(0,0,0)" stroke-width="30" stroke-linejoin="round" d="M 2693,10851 L 2693,10701"/>
 <path fill="none" stroke="rgb(0,0,0)" stroke-width="30" stroke-linejoin="round" d="M 2813,10851 L 2813,10701"/>
 <path fill="none" stroke="rgb(0,0,0)" stroke-width="30" stroke-linejoin="round" d="M 2813,10851 L 2813,10701"/>
 <path fill="none" stroke="rgb(0,0,0)" stroke-width="30" stroke-linejoin="round" d="M 2933,10851 L 2933,10701"/>
 <path fill="none" stroke="rgb(0,0,0)" stroke-width="30" stroke-linejoin="round" d="M 2933,10851 L 2933,10701"/>
 <path fill="none" stroke="rgb(0,0,0)" stroke-width="30" stroke-linejoin="round" d="M 3052,10851 L 3052,10701"/>
 <path fill="none" stroke="rgb(0,0,0)" stroke-width="30" stroke-linejoin="round" d="M 3052,10851 L 3052,10701"/>
 <path fill="none" stroke="rgb(0,0,0)" stroke-width="30" stroke-linejoin="round" d="M 3172,10851 L 3172,10701"/>
 <path fill="none" stroke="rgb(0,0,0)" stroke-width="30" stroke-linejoin="round" d="M 3172,10851 L 3172,10701"/>
 <path fill="none" stroke="rgb(0,0,0)" stroke-width="30" stroke-linejoin="round" d="M 3292,10851 L 3292,10701"/>
 <path fill="none" stroke="rgb(0,0,0)" stroke-width="30" stroke-linejoin="round" d="M 3292,10851 L 3292,10701"/>
 <path fill="none" stroke="rgb(0,0,0)" stroke-width="30" stroke-linejoin="round" d="M 3412,10851 L 3412,10701"/>
 <path fill="none" stroke="rgb(0,0,0)" stroke-width="30" stroke-linejoin="round" d="M 3412,10851 L 3412,10701"/>
 <path fill="none" stroke="rgb(0,0,0)" stroke-width="30" stroke-linejoin="round" d="M 3532,10851 L 3532,10701"/>
 <path fill="none" stroke="rgb(0,0,0)" stroke-width="30" stroke-linejoin="round" d="M 3532,10851 L 3532,10701"/>
 <path fill="none" stroke="rgb(0,0,0)" stroke-width="30" stroke-linejoin="round" d="M 3652,10851 L 3652,10701"/>
 <path fill="none" stroke="rgb(0,0,0)" stroke-width="30" stroke-linejoin="round" d="M 3652,10851 L 3652,10701"/>
 <path fill="none" stroke="rgb(0,0,0)" stroke-width="30" stroke-linejoin="round" d="M 3772,10851 L 3772,10701"/>
 <path fill="none" stroke="rgb(0,0,0)" stroke-width="30" stroke-linejoin="round" d="M 3772,10851 L 3772,10701"/>
 <path fill="none" stroke="rgb(0,0,0)" stroke-width="30" stroke-linejoin="round" d="M 3891,10851 L 3891,10701"/>
 <path fill="none" stroke="rgb(0,0,0)" stroke-width="30" stroke-linejoin="round" d="M 3891,10851 L 3891,10701"/>
 <path fill="none" stroke="rgb(0,0,0)" stroke-width="30" stroke-linejoin="round" d="M 4011,10851 L 4011,10701"/>
 <path fill="none" stroke="rgb(0,0,0)" stroke-width="30" stroke-linejoin="round" d="M 4011,10851 L 4011,10701"/>
 <path fill="none" stroke="rgb(0,0,0)" stroke-width="30" stroke-linejoin="round" d="M 4131,10851 L 4131,10701"/>
 <path fill="none" stroke="rgb(0,0,0)" stroke-width="30" stroke-linejoin="round" d="M 4131,10851 L 4131,10701"/>
 <path fill="none" stroke="rgb(0,0,0)" stroke-width="30" stroke-linejoin="round" d="M 4251,10851 L 4251,10701"/>
 <path fill="none" stroke="rgb(0,0,0)" stroke-width="30" stroke-linejoin="round" d="M 4251,10851 L 4251,10701"/>
 <path fill="none" stroke="rgb(0,0,0)" stroke-width="30" stroke-linejoin="round" d="M 4371,10851 L 4371,10701"/>
 <path fill="none" stroke="rgb(0,0,0)" stroke-width="30" stroke-linejoin="round" d="M 4371,10851 L 4371,10701"/>
 <path fill="none" stroke="rgb(0,0,0)" stroke-width="30" stroke-linejoin="round" d="M 4491,10851 L 4491,10701"/>
 <path fill="none" stroke="rgb(0,0,0)" stroke-width="30" stroke-linejoin="round" d="M 4491,10851 L 4491,10701"/>
 <path fill="none" stroke="rgb(0,0,0)" stroke-width="30" stroke-linejoin="round" d="M 4611,10851 L 4611,10701"/>
 <path fill="none" stroke="rgb(0,0,0)" stroke-width="30" stroke-linejoin="round" d="M 4611,10851 L 4611,10701"/>
 <path fill="none" stroke="rgb(0,0,0)" stroke-width="30" stroke-linejoin="round" d="M 4731,10851 L 4731,10701"/>
 <path fill="none" stroke="rgb(0,0,0)" stroke-width="30" stroke-linejoin="round" d="M 4731,10851 L 4731,10701"/>
 <path fill="none" stroke="rgb(0,0,0)" stroke-width="30" stroke-linejoin="round" d="M 4850,10851 L 4850,10701"/>
 <path fill="none" stroke="rgb(0,0,0)" stroke-width="30" stroke-linejoin="round" d="M 4850,10851 L 4850,10701"/>
 <path fill="none" stroke="rgb(0,0,0)" stroke-width="30" stroke-linejoin="round" d="M 4970,10851 L 4970,10701"/>
 <path fill="none" stroke="rgb(0,0,0)" stroke-width="30" stroke-linejoin="round" d="M 4970,10851 L 4970,10701"/>
 <path fill="none" stroke="rgb(0,0,0)" stroke-width="30" stroke-linejoin="round" d="M 5090,10851 L 5090,10701"/>
 <path fill="none" stroke="rgb(0,0,0)" stroke-width="30" stroke-linejoin="round" d="M 5090,10851 L 5090,10701"/>
 <path fill="none" stroke="rgb(0,0,0)" stroke-width="30" stroke-linejoin="round" d="M 5210,10851 L 5210,10701"/>
 <path fill="none" stroke="rgb(0,0,0)" stroke-width="30" stroke-linejoin="round" d="M 5210,10851 L 5210,10701"/>
 <path fill="none" stroke="rgb(0,0,0)" stroke-width="30" stroke-linejoin="round" d="M 5330,10851 L 5330,10701"/>
 <path fill="none" stroke="rgb(0,0,0)" stroke-width="30" stroke-linejoin="round" d="M 5330,10851 L 5330,10701"/>
 <path fill="none" stroke="rgb(0,0,0)" stroke-width="30" stroke-linejoin="round" d="M 5450,10851 L 5450,10701"/>
 <path fill="none" stroke="rgb(0,0,0)" stroke-width="30" stroke-linejoin="round" d="M 5450,10851 L 5450,10701"/>
 <path fill="none" stroke="rgb(0,0,0)" stroke-width="30" stroke-linejoin="round" d="M 5570,10851 L 5570,10701"/>
 <path fill="none" stroke="rgb(0,0,0)" stroke-width="30" stroke-linejoin="round" d="M 5570,10851 L 5570,10701"/>
 <path fill="none" stroke="rgb(0,0,0)" stroke-width="30" stroke-linejoin="round" d="M 5689,10851 L 5689,10701"/>
 <path fill="none" stroke="rgb(0,0,0)" stroke-width="30" stroke-linejoin="round" d="M 5689,10851 L 5689,10701"/>
 <path fill="none" stroke="rgb(0,0,0)" stroke-width="30" stroke-linejoin="round" d="M 5809,10851 L 5809,10701"/>
 <path fill="none" stroke="rgb(0,0,0)" stroke-width="30" stroke-linejoin="round" d="M 5809,10851 L 5809,10701"/>
 <path fill="none" stroke="rgb(0,0,0)" stroke-width="30" stroke-linejoin="round" d="M 5929,10851 L 5929,10701"/>
 <path fill="none" stroke="rgb(0,0,0)" stroke-width="30" stroke-linejoin="round" d="M 5929,10851 L 5929,10701"/>
 <path fill="none" stroke="rgb(0,0,0)" stroke-width="30" stroke-linejoin="round" d="M 6049,10851 L 6049,10701"/>
 <path fill="none" stroke="rgb(0,0,0)" stroke-width="30" stroke-linejoin="round" d="M 6049,10851 L 6049,10701"/>
 <path fill="none" stroke="rgb(0,0,0)" stroke-width="30" stroke-linejoin="round" d="M 6169,10851 L 6169,10701"/>
 <path fill="none" stroke="rgb(0,0,0)" stroke-width="30" stroke-linejoin="round" d="M 6169,10851 L 6169,10701"/>
 <path fill="none" stroke="rgb(0,0,0)" stroke-width="30" stroke-linejoin="round" d="M 6289,10851 L 6289,10701"/>
 <path fill="none" stroke="rgb(0,0,0)" stroke-width="30" stroke-linejoin="round" d="M 6289,10851 L 6289,10701"/>
 <path fill="none" stroke="rgb(0,0,0)" stroke-width="30" stroke-linejoin="round" d="M 6409,10851 L 6409,10701"/>
 <path fill="none" stroke="rgb(0,0,0)" stroke-width="30" stroke-linejoin="round" d="M 6409,10851 L 6409,10701"/>
 <path fill="none" stroke="rgb(0,0,0)" stroke-width="30" stroke-linejoin="round" d="M 6528,10851 L 6528,10701"/>
 <path fill="none" stroke="rgb(0,0,0)" stroke-width="30" stroke-linejoin="round" d="M 6528,10851 L 6528,10701"/>
 <path fill="none" stroke="rgb(0,0,0)" stroke-width="30" stroke-linejoin="round" d="M 6648,10851 L 6648,10701"/>
 <path fill="none" stroke="rgb(0,0,0)" stroke-width="30" stroke-linejoin="round" d="M 6648,10851 L 6648,10701"/>
 <path fill="none" stroke="rgb(0,0,0)" stroke-width="30" stroke-linejoin="round" d="M 6768,10851 L 6768,10701"/>
 <path fill="none" stroke="rgb(0,0,0)" stroke-width="30" stroke-linejoin="round" d="M 6768,10851 L 6768,10701"/>
 <path fill="none" stroke="rgb(0,0,0)" stroke-width="30" stroke-linejoin="round" d="M 6888,10851 L 6888,10701"/>
 <path fill="none" stroke="rgb(0,0,0)" stroke-width="30" stroke-linejoin="round" d="M 6888,10851 L 6888,10701"/>
 <path fill="none" stroke="rgb(0,0,0)" stroke-width="30" stroke-linejoin="round" d="M 7008,10851 L 7008,10701"/>
 <path fill="none" stroke="rgb(0,0,0)" stroke-width="30" stroke-linejoin="round" d="M 7008,10851 L 7008,10701"/>
 <path fill="none" stroke="rgb(0,0,0)" stroke-width="30" stroke-linejoin="round" d="M 7128,10851 L 7128,10701"/>
 <path fill="none" stroke="rgb(0,0,0)" stroke-width="30" stroke-linejoin="round" d="M 7128,10851 L 7128,10701"/>
 <path fill="none" stroke="rgb(0,0,0)" stroke-width="30" stroke-linejoin="round" d="M 7248,10851 L 7248,10701"/>
 <path fill="none" stroke="rgb(0,0,0)" stroke-width="30" stroke-linejoin="round" d="M 7248,10851 L 7248,10701"/>
 <path fill="none" stroke="rgb(0,0,0)" stroke-width="30" stroke-linejoin="round" d="M 7367,10851 L 7367,10701"/>
 <path fill="none" stroke="rgb(0,0,0)" stroke-width="30" stroke-linejoin="round" d="M 7367,10851 L 7367,10701"/>
 <path fill="none" stroke="rgb(0,0,0)" stroke-width="30" stroke-linejoin="round" d="M 7487,10851 L 7487,10701"/>
 <path fill="none" stroke="rgb(0,0,0)" stroke-width="30" stroke-linejoin="round" d="M 7487,10851 L 7487,10701"/>
 <path fill="none" stroke="rgb(0,0,0)" stroke-width="30" stroke-linejoin="round" d="M 7607,10851 L 7607,10701"/>
 <path fill="none" stroke="rgb(0,0,0)" stroke-width="30" stroke-linejoin="round" d="M 7607,10851 L 7607,10701"/>
 <path fill="none" stroke="rgb(0,0,0)" stroke-width="30" stroke-linejoin="round" d="M 7727,10851 L 7727,10701"/>
 <path fill="none" stroke="rgb(0,0,0)" stroke-width="30" stroke-linejoin="round" d="M 7727,10851 L 7727,10701"/>
 <path fill="none" stroke="rgb(0,0,0)" stroke-width="30" stroke-linejoin="round" d="M 7847,10851 L 7847,10701"/>
 <path fill="none" stroke="rgb(0,0,0)" stroke-width="30" stroke-linejoin="round" d="M 7847,10851 L 7847,10701"/>
 <path fill="none" stroke="rgb(0,0,0)" stroke-width="30" stroke-linejoin="round" d="M 7967,10851 L 7967,10701"/>
 <path fill="none" stroke="rgb(0,0,0)" stroke-width="30" stroke-linejoin="round" d="M 7967,10851 L 7967,10701"/>
 <path fill="none" stroke="rgb(0,0,0)" stroke-width="30" stroke-linejoin="round" d="M 8087,10851 L 8087,10701"/>
 <path fill="none" stroke="rgb(0,0,0)" stroke-width="30" stroke-linejoin="round" d="M 8087,10851 L 8087,10701"/>
 <path fill="none" stroke="rgb(0,0,0)" stroke-width="30" stroke-linejoin="round" d="M 8207,10851 L 8207,10701"/>
 <path fill="none" stroke="rgb(0,0,0)" stroke-width="30" stroke-linejoin="round" d="M 8207,10851 L 8207,10701"/>
 <path fill="none" stroke="rgb(0,0,0)" stroke-width="30" stroke-linejoin="round" d="M 8325,10851 L 8325,10701"/>
 <path fill="none" stroke="rgb(0,0,0)" stroke-width="30" stroke-linejoin="round" d="M 8325,10851 L 8325,10701"/>
 <path fill="none" stroke="rgb(0,0,0)" stroke-width="30" stroke-linejoin="round" d="M 8445,10851 L 8445,10701"/>
 <path fill="none" stroke="rgb(0,0,0)" stroke-width="30" stroke-linejoin="round" d="M 8445,10851 L 8445,10701"/>
 <path fill="none" stroke="rgb(0,0,0)" stroke-width="30" stroke-linejoin="round" d="M 8565,10851 L 8565,10701"/>
 <path fill="none" stroke="rgb(0,0,0)" stroke-width="30" stroke-linejoin="round" d="M 8565,10851 L 8565,10701"/>
 <path fill="none" stroke="rgb(0,0,0)" stroke-width="30" stroke-linejoin="round" d="M 8685,10851 L 8685,10701"/>
 <path fill="none" stroke="rgb(0,0,0)" stroke-width="30" stroke-linejoin="round" d="M 8685,10851 L 8685,10701"/>
 <path fill="none" stroke="rgb(0,0,0)" stroke-width="30" stroke-linejoin="round" d="M 8805,10851 L 8805,10701"/>
 <path fill="none" stroke="rgb(0,0,0)" stroke-width="30" stroke-linejoin="round" d="M 8805,10851 L 8805,10701"/>
 <path fill="none" stroke="rgb(0,0,0)" stroke-width="30" stroke-linejoin="round" d="M 8925,10851 L 8925,10701"/>
 <path fill="none" stroke="rgb(0,0,0)" stroke-width="30" stroke-linejoin="round" d="M 8925,10851 L 8925,10701"/>
 <path fill="none" stroke="rgb(0,0,0)" stroke-width="30" stroke-linejoin="round" d="M 9045,10851 L 9045,10701"/>
 <path fill="none" stroke="rgb(0,0,0)" stroke-width="30" stroke-linejoin="round" d="M 9045,10851 L 9045,10701"/>
 <path fill="none" stroke="rgb(0,0,0)" stroke-width="30" stroke-linejoin="round" d="M 9164,10851 L 9164,10701"/>
 <path fill="none" stroke="rgb(0,0,0)" stroke-width="30" stroke-linejoin="round" d="M 9164,10851 L 9164,10701"/>
 <path fill="none" stroke="rgb(0,0,0)" stroke-width="30" stroke-linejoin="round" d="M 9284,10851 L 9284,10701"/>
 <path fill="none" stroke="rgb(0,0,0)" stroke-width="30" stroke-linejoin="round" d="M 9284,10851 L 9284,10701"/>
 <path fill="none" stroke="rgb(0,0,0)" stroke-width="30" stroke-linejoin="round" d="M 9404,10851 L 9404,10701"/>
 <path fill="none" stroke="rgb(0,0,0)" stroke-width="30" stroke-linejoin="round" d="M 9404,10851 L 9404,10701"/>
 <path fill="none" stroke="rgb(0,0,0)" stroke-width="30" stroke-linejoin="round" d="M 9524,10851 L 9524,10701"/>
 <path fill="none" stroke="rgb(0,0,0)" stroke-width="30" stroke-linejoin="round" d="M 9524,10851 L 9524,10701"/>
 <path fill="none" stroke="rgb(0,0,0)" stroke-width="30" stroke-linejoin="round" d="M 9644,10851 L 9644,10701"/>
 <path fill="none" stroke="rgb(0,0,0)" stroke-width="30" stroke-linejoin="round" d="M 9644,10851 L 9644,10701"/>
 <path fill="none" stroke="rgb(0,0,0)" stroke-width="30" stroke-linejoin="round" d="M 9764,10851 L 9764,10701"/>
 <path fill="none" stroke="rgb(0,0,0)" stroke-width="30" stroke-linejoin="round" d="M 9764,10851 L 9764,10701"/>
 <path fill="none" stroke="rgb(0,0,0)" stroke-width="30" stroke-linejoin="round" d="M 9884,10851 L 9884,10701"/>
 <path fill="none" stroke="rgb(0,0,0)" stroke-width="30" stroke-linejoin="round" d="M 9884,10851 L 9884,10701"/>
 <path fill="none" stroke="rgb(0,0,0)" stroke-width="30" stroke-linejoin="round" d="M 10003,10851 L 10003,10701"/>
 <path fill="none" stroke="rgb(0,0,0)" stroke-width="30" stroke-linejoin="round" d="M 10003,10851 L 10003,10701"/>
 <path fill="none" stroke="rgb(0,0,0)" stroke-width="30" stroke-linejoin="round" d="M 10123,10851 L 10123,10701"/>
 <path fill="none" stroke="rgb(0,0,0)" stroke-width="30" stroke-linejoin="round" d="M 10123,10851 L 10123,10701"/>
 <path fill="none" stroke="rgb(0,0,0)" stroke-width="30" stroke-linejoin="round" d="M 10243,10851 L 10243,10701"/>
 <path fill="none" stroke="rgb(0,0,0)" stroke-width="30" stroke-linejoin="round" d="M 10243,10851 L 10243,10701"/>
 <path fill="none" stroke="rgb(0,0,0)" stroke-width="30" stroke-linejoin="round" d="M 10363,10851 L 10363,10701"/>
 <path fill="none" stroke="rgb(0,0,0)" stroke-width="30" stroke-linejoin="round" d="M 10363,10851 L 10363,10701"/>
 <path fill="none" stroke="rgb(0,0,0)" stroke-width="30" stroke-linejoin="round" d="M 10483,10851 L 10483,10701"/>
 <path fill="none" stroke="rgb(0,0,0)" stroke-width="30" stroke-linejoin="round" d="M 10483,10851 L 10483,10701"/>
 <path fill="none" stroke="rgb(0,0,0)" stroke-width="30" stroke-linejoin="round" d="M 10603,10851 L 10603,10701"/>
 <path fill="none" stroke="rgb(0,0,0)" stroke-width="30" stroke-linejoin="round" d="M 10603,10851 L 10603,10701"/>
 <path fill="none" stroke="rgb(0,0,0)" stroke-width="30" stroke-linejoin="round" d="M 10723,10851 L 10723,10701"/>
 <path fill="none" stroke="rgb(0,0,0)" stroke-width="30" stroke-linejoin="round" d="M 10723,10851 L 10723,10701"/>
 <path fill="none" stroke="rgb(0,0,0)" stroke-width="30" stroke-linejoin="round" d="M 10842,10851 L 10842,10701"/>
 <path fill="none" stroke="rgb(0,0,0)" stroke-width="30" stroke-linejoin="round" d="M 10842,10851 L 10842,10701"/>
 <path fill="none" stroke="rgb(0,0,0)" stroke-width="30" stroke-linejoin="round" d="M 10962,10851 L 10962,10701"/>
 <path fill="none" stroke="rgb(0,0,0)" stroke-width="30" stroke-linejoin="round" d="M 10962,10851 L 10962,10701"/>
 <path fill="none" stroke="rgb(0,0,0)" stroke-width="30" stroke-linejoin="round" d="M 11082,10851 L 11082,10701"/>
 <path fill="none" stroke="rgb(0,0,0)" stroke-width="30" stroke-linejoin="round" d="M 11082,10851 L 11082,10701"/>
 <path fill="none" stroke="rgb(0,0,0)" stroke-width="30" stroke-linejoin="round" d="M 11202,10851 L 11202,10701"/>
 <path fill="none" stroke="rgb(0,0,0)" stroke-width="30" stroke-linejoin="round" d="M 11202,10851 L 11202,10701"/>
 <path fill="none" stroke="rgb(0,0,0)" stroke-width="30" stroke-linejoin="round" d="M 11322,10851 L 11322,10701"/>
 <path fill="none" stroke="rgb(0,0,0)" stroke-width="30" stroke-linejoin="round" d="M 11322,10851 L 11322,10701"/>
 <path fill="none" stroke="rgb(0,0,0)" stroke-width="30" stroke-linejoin="round" d="M 11442,10851 L 11442,10701"/>
 <path fill="none" stroke="rgb(0,0,0)" stroke-width="30" stroke-linejoin="round" d="M 11442,10851 L 11442,10701"/>
 <path fill="none" stroke="rgb(0,0,0)" stroke-width="30" stroke-linejoin="round" d="M 11562,10851 L 11562,10701"/>
 <path fill="none" stroke="rgb(0,0,0)" stroke-width="30" stroke-linejoin="round" d="M 11562,10851 L 11562,10701"/>
 <path fill="none" stroke="rgb(0,0,0)" stroke-width="30" stroke-linejoin="round" d="M 11682,10851 L 11682,10701"/>
 <path fill="none" stroke="rgb(0,0,0)" stroke-width="30" stroke-linejoin="round" d="M 11682,10851 L 11682,10701"/>
 <path fill="none" stroke="rgb(0,0,0)" stroke-width="30" stroke-linejoin="round" d="M 11801,10851 L 11801,10701"/>
 <path fill="none" stroke="rgb(0,0,0)" stroke-width="30" stroke-linejoin="round" d="M 11801,10851 L 11801,10701"/>
 <path fill="none" stroke="rgb(0,0,0)" stroke-width="30" stroke-linejoin="round" d="M 11921,10851 L 11921,10701"/>
 <path fill="none" stroke="rgb(0,0,0)" stroke-width="30" stroke-linejoin="round" d="M 11921,10851 L 11921,10701"/>
 <path fill="none" stroke="rgb(0,0,0)" stroke-width="30" stroke-linejoin="round" d="M 12041,10851 L 12041,10701"/>
 <path fill="none" stroke="rgb(0,0,0)" stroke-width="30" stroke-linejoin="round" d="M 12041,10851 L 12041,10701"/>
 <path fill="none" stroke="rgb(0,0,0)" stroke-width="30" stroke-linejoin="round" d="M 12161,10851 L 12161,10701"/>
 <path fill="none" stroke="rgb(0,0,0)" stroke-width="30" stroke-linejoin="round" d="M 12161,10851 L 12161,10701"/>
 <path fill="none" stroke="rgb(0,0,0)" stroke-width="30" stroke-linejoin="round" d="M 12281,10851 L 12281,10701"/>
 <path fill="none" stroke="rgb(0,0,0)" stroke-width="30" stroke-linejoin="round" d="M 12281,10851 L 12281,10701"/>
 <path fill="none" stroke="rgb(0,0,0)" stroke-width="30" stroke-linejoin="round" d="M 12401,10851 L 12401,10701"/>
 <path fill="none" stroke="rgb(0,0,0)" stroke-width="30" stroke-linejoin="round" d="M 12401,10851 L 12401,10701"/>
 <path fill="none" stroke="rgb(0,0,0)" stroke-width="30" stroke-linejoin="round" d="M 12521,10851 L 12521,10701"/>
 <path fill="none" stroke="rgb(0,0,0)" stroke-width="30" stroke-linejoin="round" d="M 12521,10851 L 12521,10701"/>
 <path fill="none" stroke="rgb(0,0,0)" stroke-width="30" stroke-linejoin="round" d="M 12640,10851 L 12640,10701"/>
 <path fill="none" stroke="rgb(0,0,0)" stroke-width="30" stroke-linejoin="round" d="M 12640,10851 L 12640,10701"/>
 <path fill="none" stroke="rgb(0,0,0)" stroke-width="30" stroke-linejoin="round" d="M 12760,10851 L 12760,10701"/>
 <path fill="none" stroke="rgb(0,0,0)" stroke-width="30" stroke-linejoin="round" d="M 12760,10851 L 12760,10701"/>
 <path fill="none" stroke="rgb(0,0,0)" stroke-width="30" stroke-linejoin="round" d="M 12880,10851 L 12880,10701"/>
 <path fill="none" stroke="rgb(0,0,0)" stroke-width="30" stroke-linejoin="round" d="M 12880,10851 L 12880,10701"/>
 <path fill="none" stroke="rgb(0,0,0)" stroke-width="30" stroke-linejoin="round" d="M 13000,10851 L 13000,10701"/>
 <path fill="none" stroke="rgb(0,0,0)" stroke-width="30" stroke-linejoin="round" d="M 13000,10851 L 13000,10701"/>
 <path fill="none" stroke="rgb(0,0,0)" stroke-width="30" stroke-linejoin="round" d="M 13120,10851 L 13120,10701"/>
 <path fill="none" stroke="rgb(0,0,0)" stroke-width="30" stroke-linejoin="round" d="M 13120,10851 L 13120,10701"/>
 <path fill="none" stroke="rgb(0,0,0)" stroke-width="30" stroke-linejoin="round" d="M 13240,10851 L 13240,10701"/>
 <path fill="none" stroke="rgb(0,0,0)" stroke-width="30" stroke-linejoin="round" d="M 13240,10851 L 13240,10701"/>
 <path fill="none" stroke="rgb(0,0,0)" stroke-width="30" stroke-linejoin="round" d="M 13360,10851 L 13360,10701"/>
 <path fill="none" stroke="rgb(0,0,0)" stroke-width="30" stroke-linejoin="round" d="M 13360,10851 L 13360,10701"/>
 <path fill="none" stroke="rgb(0,0,0)" stroke-width="30" stroke-linejoin="round" d="M 13479,10851 L 13479,10701"/>
 <path fill="none" stroke="rgb(0,0,0)" stroke-width="30" stroke-linejoin="round" d="M 13479,10851 L 13479,10701"/>
 <path fill="none" stroke="rgb(0,0,0)" stroke-width="30" stroke-linejoin="round" d="M 13599,10851 L 13599,10701"/>
 <path fill="none" stroke="rgb(0,0,0)" stroke-width="30" stroke-linejoin="round" d="M 13599,10851 L 13599,10701"/>
 <path fill="none" stroke="rgb(0,0,0)" stroke-width="30" stroke-linejoin="round" d="M 13719,10851 L 13719,10701"/>
 <path fill="none" stroke="rgb(0,0,0)" stroke-width="30" stroke-linejoin="round" d="M 13719,10851 L 13719,10701"/>
 <path fill="none" stroke="rgb(0,0,0)" stroke-width="30" stroke-linejoin="round" d="M 13839,10851 L 13839,10701"/>
 <path fill="none" stroke="rgb(0,0,0)" stroke-width="30" stroke-linejoin="round" d="M 13839,10851 L 13839,10701"/>
 <path fill="none" stroke="rgb(0,0,0)" stroke-width="30" stroke-linejoin="round" d="M 13959,10851 L 13959,10701"/>
 <path fill="none" stroke="rgb(0,0,0)" stroke-width="30" stroke-linejoin="round" d="M 13959,10851 L 13959,10701"/>
 <path fill="none" stroke="rgb(0,0,0)" stroke-width="30" stroke-linejoin="round" d="M 14079,10851 L 14079,10701"/>
 <path fill="none" stroke="rgb(0,0,0)" stroke-width="30" stroke-linejoin="round" d="M 14079,10851 L 14079,10701"/>
 <path fill="none" stroke="rgb(0,0,0)" stroke-width="30" stroke-linejoin="round" d="M 14199,10851 L 14199,10701"/>
 <path fill="none" stroke="rgb(0,0,0)" stroke-width="30" stroke-linejoin="round" d="M 14199,10851 L 14199,10701"/>
 <path fill="none" stroke="rgb(0,0,0)" stroke-width="30" stroke-linejoin="round" d="M 14318,10851 L 14318,10701"/>
 <path fill="none" stroke="rgb(0,0,0)" stroke-width="30" stroke-linejoin="round" d="M 14318,10851 L 14318,10701"/>
 <path fill="none" stroke="rgb(0,0,0)" stroke-width="30" stroke-linejoin="round" d="M 14438,10851 L 14438,10701"/>
 <path fill="none" stroke="rgb(0,0,0)" stroke-width="30" stroke-linejoin="round" d="M 14438,10851 L 14438,10701"/>
 <path fill="none" stroke="rgb(0,0,0)" stroke-width="30" stroke-linejoin="round" d="M 14558,10851 L 14558,10701"/>
 <path fill="none" stroke="rgb(0,0,0)" stroke-width="30" stroke-linejoin="round" d="M 14558,10851 L 14558,10701"/>
 <path fill="none" stroke="rgb(0,0,0)" stroke-width="30" stroke-linejoin="round" d="M 14678,10851 L 14678,10701"/>
 <path fill="none" stroke="rgb(0,0,0)" stroke-width="30" stroke-linejoin="round" d="M 14678,10851 L 14678,10701"/>
 <path fill="none" stroke="rgb(0,0,0)" stroke-width="30" stroke-linejoin="round" d="M 14798,10851 L 14798,10701"/>
 <path fill="none" stroke="rgb(0,0,0)" stroke-width="30" stroke-linejoin="round" d="M 14798,10851 L 14798,10701"/>
 <path fill="none" stroke="rgb(0,0,0)" stroke-width="30" stroke-linejoin="round" d="M 14918,10851 L 14918,10701"/>
 <path fill="none" stroke="rgb(0,0,0)" stroke-width="30" stroke-linejoin="round" d="M 14918,10851 L 14918,10701"/>
 <path fill="none" stroke="rgb(0,0,0)" stroke-width="30" stroke-linejoin="round" d="M 15038,10851 L 15038,10701"/>
 <path fill="none" stroke="rgb(0,0,0)" stroke-width="30" stroke-linejoin="round" d="M 15038,10851 L 15038,10701"/>
 <path fill="none" stroke="rgb(0,0,0)" stroke-width="30" stroke-linejoin="round" d="M 15158,10851 L 15158,10701"/>
 <path fill="none" stroke="rgb(0,0,0)" stroke-width="30" stroke-linejoin="round" d="M 15158,10851 L 15158,10701"/>
 <path fill="none" stroke="rgb(0,0,0)" stroke-width="30" stroke-linejoin="round" d="M 1255,10701 L 15158,10701"/>
 <path fill="none" stroke="rgb(0,0,0)" stroke-width="30" stroke-linejoin="round" d="M 1105,10701 L 1255,10701"/>
 <path fill="none" stroke="rgb(0,0,0)" stroke-width="30" stroke-linejoin="round" d="M 1105,10701 L 1255,10701"/>
 <path fill="none" stroke="rgb(0,0,0)" stroke-width="30" stroke-linejoin="round" d="M 1105,9739 L 1255,9739"/>
 <path fill="none" stroke="rgb(0,0,0)" stroke-width="30" stroke-linejoin="round" d="M 1105,9739 L 1255,9739"/>
 <path fill="none" stroke="rgb(0,0,0)" stroke-width="30" stroke-linejoin="round" d="M 1105,8778 L 1255,8778"/>
 <path fill="none" stroke="rgb(0,0,0)" stroke-width="30" stroke-linejoin="round" d="M 1105,8778 L 1255,8778"/>
 <path fill="none" stroke="rgb(0,0,0)" stroke-width="30" stroke-linejoin="round" d="M 1105,7817 L 1255,7817"/>
 <path fill="none" stroke="rgb(0,0,0)" stroke-width="30" stroke-linejoin="round" d="M 1105,7817 L 1255,7817"/>
 <path fill="none" stroke="rgb(0,0,0)" stroke-width="30" stroke-linejoin="round" d="M 1105,6856 L 1255,6856"/>
 <path fill="none" stroke="rgb(0,0,0)" stroke-width="30" stroke-linejoin="round" d="M 1105,6856 L 1255,6856"/>
 <path fill="none" stroke="rgb(0,0,0)" stroke-width="30" stroke-linejoin="round" d="M 1105,5896 L 1255,5896"/>
 <path fill="none" stroke="rgb(0,0,0)" stroke-width="30" stroke-linejoin="round" d="M 1105,5896 L 1255,5896"/>
 <path fill="none" stroke="rgb(0,0,0)" stroke-width="30" stroke-linejoin="round" d="M 1105,4935 L 1255,4935"/>
 <path fill="none" stroke="rgb(0,0,0)" stroke-width="30" stroke-linejoin="round" d="M 1105,4935 L 1255,4935"/>
 <path fill="none" stroke="rgb(0,0,0)" stroke-width="30" stroke-linejoin="round" d="M 1105,3974 L 1255,3974"/>
 <path fill="none" stroke="rgb(0,0,0)" stroke-width="30" stroke-linejoin="round" d="M 1105,3974 L 1255,3974"/>
 <path fill="none" stroke="rgb(0,0,0)" stroke-width="30" stroke-linejoin="round" d="M 1105,3013 L 1255,3013"/>
 <path fill="none" stroke="rgb(0,0,0)" stroke-width="30" stroke-linejoin="round" d="M 1105,3013 L 1255,3013"/>
 <path fill="none" stroke="rgb(0,0,0)" stroke-width="30" stroke-linejoin="round" d="M 1105,2052 L 1255,2052"/>
 <path fill="none" stroke="rgb(0,0,0)" stroke-width="30" stroke-linejoin="round" d="M 1105,2052 L 1255,2052"/>
 <path fill="none" stroke="rgb(0,0,0)" stroke-width="30" stroke-linejoin="round" d="M 1105,1091 L 1255,1091"/>
 <path fill="none" stroke="rgb(0,0,0)" stroke-width="30" stroke-linejoin="round" d="M 1105,1091 L 1255,1091"/>
 <path fill="none" stroke="rgb(0,0,0)" stroke-width="30" stroke-linejoin="round" d="M 1255,10701 L 1255,1091"/>
 <path fill="none" stroke="rgb(0,0,0)" stroke-width="30" stroke-linejoin="round" d="M 15308,10701 L 15158,10701"/>
 <path fill="none" stroke="rgb(0,0,0)" stroke-width="30" stroke-linejoin="round" d="M 15308,10701 L 15158,10701"/>
 <path fill="none" stroke="rgb(0,0,0)" stroke-width="30" stroke-linejoin="round" d="M 15308,9739 L 15158,9739"/>
 <path fill="none" stroke="rgb(0,0,0)" stroke-width="30" stroke-linejoin="round" d="M 15308,9739 L 15158,9739"/>
 <path fill="none" stroke="rgb(0,0,0)" stroke-width="30" stroke-linejoin="round" d="M 15308,8778 L 15158,8778"/>
 <path fill="none" stroke="rgb(0,0,0)" stroke-width="30" stroke-linejoin="round" d="M 15308,8778 L 15158,8778"/>
 <path fill="none" stroke="rgb(0,0,0)" stroke-width="30" stroke-linejoin="round" d="M 15308,7817 L 15158,7817"/>
 <path fill="none" stroke="rgb(0,0,0)" stroke-width="30" stroke-linejoin="round" d="M 15308,7817 L 15158,7817"/>
 <path fill="none" stroke="rgb(0,0,0)" stroke-width="30" stroke-linejoin="round" d="M 15308,6856 L 15158,6856"/>
 <path fill="none" stroke="rgb(0,0,0)" stroke-width="30" stroke-linejoin="round" d="M 15308,6856 L 15158,6856"/>
 <path fill="none" stroke="rgb(0,0,0)" stroke-width="30" stroke-linejoin="round" d="M 15308,5896 L 15158,5896"/>
 <path fill="none" stroke="rgb(0,0,0)" stroke-width="30" stroke-linejoin="round" d="M 15308,5896 L 15158,5896"/>
 <path fill="none" stroke="rgb(0,0,0)" stroke-width="30" stroke-linejoin="round" d="M 15308,4935 L 15158,4935"/>
 <path fill="none" stroke="rgb(0,0,0)" stroke-width="30" stroke-linejoin="round" d="M 15308,4935 L 15158,4935"/>
 <path fill="none" stroke="rgb(0,0,0)" stroke-width="30" stroke-linejoin="round" d="M 15308,3974 L 15158,3974"/>
 <path fill="none" stroke="rgb(0,0,0)" stroke-width="30" stroke-linejoin="round" d="M 15308,3974 L 15158,3974"/>
 <path fill="none" stroke="rgb(0,0,0)" stroke-width="30" stroke-linejoin="round" d="M 15308,3013 L 15158,3013"/>
 <path fill="none" stroke="rgb(0,0,0)" stroke-width="30" stroke-linejoin="round" d="M 15308,3013 L 15158,3013"/>
 <path fill="none" stroke="rgb(0,0,0)" stroke-width="30" stroke-linejoin="round" d="M 15308,2052 L 15158,2052"/>
 <path fill="none" stroke="rgb(0,0,0)" stroke-width="30" stroke-linejoin="round" d="M 15308,2052 L 15158,2052"/>
 <path fill="none" stroke="rgb(0,0,0)" stroke-width="30" stroke-linejoin="round" d="M 15308,1091 L 15158,1091"/>
 <path fill="none" stroke="rgb(0,0,0)" stroke-width="30" stroke-linejoin="round" d="M 15308,1091 L 15158,1091"/>
 <path fill="none" stroke="rgb(0,0,0)" stroke-width="30" stroke-linejoin="round" d="M 15158,10701 L 15158,1091"/>
 <path fill="rgb(0,69,134)" stroke="none" d="M 1255,9935 L 1374,9943 1494,9997 1614,10024 1734,10030 1854,10045 1974,10072 2094,10097 2213,10108 2333,10129 2453,10157 2573,10164 2693,10182 2813,10188 2933,10205 3052,10207 3172,10198 3292,10196 3412,10198 3532,10212 3652,10205 3772,10187 3891,10197 4011,10202 4131,10206 4251,10186 4371,10201 4491,10206 4611,10209 4731,10185 4850,10191 4970,10204 5090,10174 5210,10190 5330,10201 5450,10216 5570,10236 5689,10194 5809,10226 5929,10192 6049,10228 6169,10200 6289,10198 6409,10188 6528,10138 6648,10142 6768,10160 6888,10186 7008,10167 7128,10130 7248,10138 7367,10156 7487,10135 7607,10118 7727,10113 7847,10092 7967,10064 8087,10091 8207,10074 8325,10036 8445,10007 8565,9948 8685,9917 8805,9934 8925,9964 9045,9898 9164,9843 9284,9818 9404,9768 9524,9471 9644,9504 9764,9542 9884,9560 10003,9369 10123,9380 10243,9296 10363,9198 10483,9202 10603,9360 10723,9466 10842,9527 10962,9413 11082,9453 11202,9289 11322,9181 11442,9078 11562,8948 11682,8897 11801,8862 11921,8806 12041,8642 12161,8522 12281,8355 12401,8333 12521,8215 12640,8245 12760,8095 12880,7959 13000,7812 13120,7980 13240,7786 13360,7711 13479,7564 13599,7373 13719,7144 13839,6975 13959,6936 14079,6940 14199,6748 14318,6546 14438,6492 14558,6704 14678,6599 14798,6578 14918,6472 15038,6333 15158,6225 15158,10701 1255,10701 1255,9935 Z"/>
 <path fill="none" stroke="rgb(0,0,0)" stroke-linejoin="round" d="M 1255,9935 L 1374,9943 1494,9997 1614,10024 1734,10030 1854,10045 1974,10072 2094,10097 2213,10108 2333,10129 2453,10157 2573,10164 2693,10182 2813,10188 2933,10205 3052,10207 3172,10198 3292,10196 3412,10198 3532,10212 3652,10205 3772,10187 3891,10197 4011,10202 4131,10206 4251,10186 4371,10201 4491,10206 4611,10209 4731,10185 4850,10191 4970,10204 5090,10174 5210,10190 5330,10201 5450,10216 5570,10236 5689,10194 5809,10226 5929,10192 6049,10228 6169,10200 6289,10198 6409,10188 6528,10138 6648,10142 6768,10160 6888,10186 7008,10167 7128,10130 7248,10138 7367,10156 7487,10135 7607,10118 7727,10113 7847,10092 7967,10064 8087,10091 8207,10074 8325,10036 8445,10007 8565,9948 8685,9917 8805,9934 8925,9964 9045,9898 9164,9843 9284,9818 9404,9768 9524,9471 9644,9504 9764,9542 9884,9560 10003,9369 10123,9380 10243,9296 10363,9198 10483,9202 10603,9360 10723,9466 10842,9527 10962,9413 11082,9453 11202,9289 11322,9181 11442,9078 11562,8948 11682,8897 11801,8862 11921,8806 12041,8642 12161,8522 12281,8355 12401,8333 12521,8215 12640,8245 12760,8095 12880,7959 13000,7812 13120,7980 13240,7786 13360,7711 13479,7564 13599,7373 13719,7144 13839,6975 13959,6936 14079,6940 14199,6748 14318,6546 14438,6492 14558,6704 14678,6599 14798,6578 14918,6472 15038,6333 15158,6225 15158,10701 1255,10701 1255,9935 Z"/>
 <path fill="rgb(255,66,14)" stroke="none" d="M 1255,4952 L 1374,4999 1494,5180 1614,5270 1734,5322 1854,5301 1974,5490 2094,5587 2213,5635 2333,5743 2453,5845 2573,5875 2693,6005 2813,6092 2933,6208 3052,6239 3172,6291 3292,6338 3412,6358 3532,6403 3652,6423 3772,6453 3891,6520 4011,6536 4131,6624 4251,6662 4371,6773 4491,6810 4611,6859 4731,6920 4850,6917 4970,6927 5090,6920 5210,6997 5330,7038 5450,7064 5570,7092 5689,7123 5809,7188 5929,7196 6049,7247 6169,7270 6289,7308 6409,7309 6528,7268 6648,7308 6768,7366 6888,7477 7008,7414 7128,7293 7248,7297 7367,7341 7487,7335 7607,7258 7727,7335 7847,7394 7967,7417 8087,7484 8207,7413 8325,7392 8445,7337 8565,7118 8685,7205 8805,7146 8925,7183 9045,7215 9164,7228 9284,7217 9404,7119 9524,6928 9644,7018 9764,7105 9884,7092 10003,6876 10123,6899 10243,6886 10363,6824 10483,6890 10603,7229 10723,7388 10842,7312 10962,7249 11082,7322 11202,7220 11322,7076 11442,6987 11562,6745 11682,6803 11801,6847 11921,6896 12041,6737 12161,6620 12281,6506 12401,6497 12521,6511 12640,6543 12760,6404 12880,6262 13000,6170 13120,6426 13240,6266 13360,6166 13479,6065 13599,5910 13719,5642 13839,5619 13959,5641 14079,5617 14199,5397 14318,5119 14438,5079 14558,5309 14678,5202 14798,5079 14918,5105 15038,4999 15158,4863 15158,6225 15038,6333 14918,6472 14798,6578 14678,6599 14558,6704 14438,6492 14318,6546 14199,6748 14079,6940 13959,6936 13839,6975 13719,7144 13599,7373 13479,7564 13360,7711 13240,7786 13120,7980 13000,7812 12880,7959 12760,8095 12640,8245 12521,8215 12401,8333 12281,8355 12161,8522 12041,8642 11921,8806 11801,8862 11682,8897 11562,8948 11442,9078 11322,9181 11202,9289 11082,9453 10962,9413 10842,9527 10723,9466 10603,9360 10483,9202 10363,9198 10243,9296 10123,9380 10003,9369 9884,9560 9764,9542 9644,9504 9524,9471 9404,9768 9284,9818 9164,9843 9045,9898 8925,9964 8805,9934 8685,9917 8565,9948 8445,10007 8325,10036 8207,10074 8087,10091 7967,10064 7847,10092 7727,10113 7607,10118 7487,10135 7367,10156 7248,10138 7128,10130 7008,10167 6888,10186 6768,10160 6648,10142 6528,10138 6409,10188 6289,10198 6169,10200 6049,10228 5929,10192 5809,10226 5689,10194 5570,10236 5450,10216 5330,10201 5210,10190 5090,10174 4970,10204 4850,10191 4731,10185 4611,10209 4491,10206 4371,10201 4251,10186 4131,10206 4011,10202 3891,10197 3772,10187 3652,10205 3532,10212 3412,10198 3292,10196 3172,10198 3052,10207 2933,10205 2813,10188 2693,10182 2573,10164 2453,10157 2333,10129 2213,10108 2094,10097 1974,10072 1854,10045 1734,10030 1614,10024 1494,9997 1374,9943 1255,9935 1255,4952 Z"/>
 <path fill="none" stroke="rgb(0,0,0)" stroke-linejoin="round" d="M 1255,4952 L 1374,4999 1494,5180 1614,5270 1734,5322 1854,5301 1974,5490 2094,5587 2213,5635 2333,5743 2453,5845 2573,5875 2693,6005 2813,6092 2933,6208 3052,6239 3172,6291 3292,6338 3412,6358 3532,6403 3652,6423 3772,6453 3891,6520 4011,6536 4131,6624 4251,6662 4371,6773 4491,6810 4611,6859 4731,6920 4850,6917 4970,6927 5090,6920 5210,6997 5330,7038 5450,7064 5570,7092 5689,7123 5809,7188 5929,7196 6049,7247 6169,7270 6289,7308 6409,7309 6528,7268 6648,7308 6768,7366 6888,7477 7008,7414 7128,7293 7248,7297 7367,7341 7487,7335 7607,7258 7727,7335 7847,7394 7967,7417 8087,7484 8207,7413 8325,7392 8445,7337 8565,7118 8685,7205 8805,7146 8925,7183 9045,7215 9164,7228 9284,7217 9404,7119 9524,6928 9644,7018 9764,7105 9884,7092 10003,6876 10123,6899 10243,6886 10363,6824 10483,6890 10603,7229 10723,7388 10842,7312 10962,7249 11082,7322 11202,7220 11322,7076 11442,6987 11562,6745 11682,6803 11801,6847 11921,6896 12041,6737 12161,6620 12281,6506 12401,6497 12521,6511 12640,6543 12760,6404 12880,6262 13000,6170 13120,6426 13240,6266 13360,6166 13479,6065 13599,5910 13719,5642 13839,5619 13959,5641 14079,5617 14199,5397 14318,5119 14438,5079 14558,5309 14678,5202 14798,5079 14918,5105 15038,4999 15158,4863 15158,6225 15038,6333 14918,6472 14798,6578 14678,6599 14558,6704 14438,6492 14318,6546 14199,6748 14079,6940 13959,6936 13839,6975 13719,7144 13599,7373 13479,7564 13360,7711 13240,7786 13120,7980 13000,7812 12880,7959 12760,8095 12640,8245 12521,8215 12401,8333 12281,8355 12161,8522 12041,8642 11921,8806 11801,8862 11682,8897 11562,8948 11442,9078 11322,9181 11202,9289 11082,9453 10962,9413 10842,9527 10723,9466 10603,9360 10483,9202 10363,9198 10243,9296 10123,9380 10003,9369 9884,9560 9764,9542 9644,9504 9524,9471 9404,9768 9284,9818 9164,9843 9045,9898 8925,9964 8805,9934 8685,9917 8565,9948 8445,10007 8325,10036 8207,10074 8087,10091 7967,10064 7847,10092 7727,10113 7607,10118 7487,10135 7367,10156 7248,10138 7128,10130 7008,10167 6888,10186 6768,10160 6648,10142 6528,10138 6409,10188 6289,10198 6169,10200 6049,10228 5929,10192 5809,10226 5689,10194 5570,10236 5450,10216 5330,10201 5210,10190 5090,10174 4970,10204 4850,10191 4731,10185 4611,10209 4491,10206 4371,10201 4251,10186 4131,10206 4011,10202 3891,10197 3772,10187 3652,10205 3532,10212 3412,10198 3292,10196 3172,10198 3052,10207 2933,10205 2813,10188 2693,10182 2573,10164 2453,10157 2333,10129 2213,10108 2094,10097 1974,10072 1854,10045 1734,10030 1614,10024 1494,9997 1374,9943 1255,9935 1255,4952 Z"/>
 <path fill="rgb(255,211,32)" stroke="none" d="M 1255,1619 L 1374,1634 1494,1691 1614,1744 1734,1708 1854,1711 1974,1787 2094,1801 2213,1808 2333,1844 2453,1877 2573,1847 2693,1883 2813,1933 2933,1960 3052,1976 3172,2003 3292,2036 3412,2035 3532,2029 3652,2055 3772,2069 3891,2101 4011,2109 4131,2140 4251,2166 4371,2191 4491,2209 4611,2242 4731,2277 4850,2288 4970,2326 5090,2333 5210,2370 5330,2403 5450,2390 5570,2367 5689,2396 5809,2391 5929,2449 6049,2457 6169,2486 6289,2522 6409,2552 6528,2566 6648,2622 6768,2653 6888,2683 7008,2659 7128,2611 7248,2630 7367,2679 7487,2721 7607,2701 7727,2752 7847,2762 7967,2795 8087,2836 8207,2771 8325,2786 8445,2774 8565,2692 8685,2715 8805,2696 8925,2672 9045,2722 9164,2790 9284,2787 9404,2745 9524,2797 9644,2829 9764,2889 9884,2819 10003,2798 10123,2834 10243,2849 10363,2858 10483,2908 10603,3097 10723,3127 10842,2994 10962,2889 11082,2945 11202,2963 11322,2984 11442,2986 11562,2935 11682,2925 11801,3002 11921,3007 12041,2938 12161,2968 12281,2938 12401,2899 12521,2931 12640,2941 12760,2941 12880,2933 13000,2927 13120,3075 13240,2992 13360,2957 13479,2950 13599,2926 13719,2796 13839,2787 13959,2802 14079,2755 14199,2610 14318,2515 14438,2501 14558,2564 14678,2563 14798,2529 14918,2555 15038,2537 15158,2474 15158,4863 15038,4999 14918,5105 14798,5079 14678,5202 14558,5309 14438,5079 14318,5119 14199,5397 14079,5617 13959,5641 13839,5619 13719,5642 13599,5910 13479,6065 13360,6166 13240,6266 13120,6426 13000,6170 12880,6262 12760,6404 12640,6543 12521,6511 12401,6497 12281,6506 12161,6620 12041,6737 11921,6896 11801,6847 11682,6803 11562,6745 11442,6987 11322,7076 11202,7220 11082,7322 10962,7249 10842,7312 10723,7388 10603,7229 10483,6890 10363,6824 10243,6886 10123,6899 10003,6876 9884,7092 9764,7105 9644,7018 9524,6928 9404,7119 9284,7217 9164,7228 9045,7215 8925,7183 8805,7146 8685,7205 8565,7118 8445,7337 8325,7392 8207,7413 8087,7484 7967,7417 7847,7394 7727,7335 7607,7258 7487,7335 7367,7341 7248,7297 7128,7293 7008,7414 6888,7477 6768,7366 6648,7308 6528,7268 6409,7309 6289,7308 6169,7270 6049,7247 5929,7196 5809,7188 5689,7123 5570,7092 5450,7064 5330,7038 5210,6997 5090,6920 4970,6927 4850,6917 4731,6920 4611,6859 4491,6810 4371,6773 4251,6662 4131,6624 4011,6536 3891,6520 3772,6453 3652,6423 3532,6403 3412,6358 3292,6338 3172,6291 3052,6239 2933,6208 2813,6092 2693,6005 2573,5875 2453,5845 2333,5743 2213,5635 2094,5587 1974,5490 1854,5301 1734,5322 1614,5270 1494,5180 1374,4999 1255,4952 1255,1619 Z"/>
 <path fill="none" stroke="rgb(0,0,0)" stroke-linejoin="round" d="M 1255,1619 L 1374,1634 1494,1691 1614,1744 1734,1708 1854,1711 1974,1787 2094,1801 2213,1808 2333,1844 2453,1877 2573,1847 2693,1883 2813,1933 2933,1960 3052,1976 3172,2003 3292,2036 3412,2035 3532,2029 3652,2055 3772,2069 3891,2101 4011,2109 4131,2140 4251,2166 4371,2191 4491,2209 4611,2242 4731,2277 4850,2288 4970,2326 5090,2333 5210,2370 5330,2403 5450,2390 5570,2367 5689,2396 5809,2391 5929,2449 6049,2457 6169,2486 6289,2522 6409,2552 6528,2566 6648,2622 6768,2653 6888,2683 7008,2659 7128,2611 7248,2630 7367,2679 7487,2721 7607,2701 7727,2752 7847,2762 7967,2795 8087,2836 8207,2771 8325,2786 8445,2774 8565,2692 8685,2715 8805,2696 8925,2672 9045,2722 9164,2790 9284,2787 9404,2745 9524,2797 9644,2829 9764,2889 9884,2819 10003,2798 10123,2834 10243,2849 10363,2858 10483,2908 10603,3097 10723,3127 10842,2994 10962,2889 11082,2945 11202,2963 11322,2984 11442,2986 11562,2935 11682,2925 11801,3002 11921,3007 12041,2938 12161,2968 12281,2938 12401,2899 12521,2931 12640,2941 12760,2941 12880,2933 13000,2927 13120,3075 13240,2992 13360,2957 13479,2950 13599,2926 13719,2796 13839,2787 13959,2802 14079,2755 14199,2610 14318,2515 14438,2501 14558,2564 14678,2563 14798,2529 14918,2555 15038,2537 15158,2474 15158,4863 15038,4999 14918,5105 14798,5079 14678,5202 14558,5309 14438,5079 14318,5119 14199,5397 14079,5617 13959,5641 13839,5619 13719,5642 13599,5910 13479,6065 13360,6166 13240,6266 13120,6426 13000,6170 12880,6262 12760,6404 12640,6543 12521,6511 12401,6497 12281,6506 12161,6620 12041,6737 11921,6896 11801,6847 11682,6803 11562,6745 11442,6987 11322,7076 11202,7220 11082,7322 10962,7249 10842,7312 10723,7388 10603,7229 10483,6890 10363,6824 10243,6886 10123,6899 10003,6876 9884,7092 9764,7105 9644,7018 9524,6928 9404,7119 9284,7217 9164,7228 9045,7215 8925,7183 8805,7146 8685,7205 8565,7118 8445,7337 8325,7392 8207,7413 8087,7484 7967,7417 7847,7394 7727,7335 7607,7258 7487,7335 7367,7341 7248,7297 7128,7293 7008,7414 6888,7477 6768,7366 6648,7308 6528,7268 6409,7309 6289,7308 6169,7270 6049,7247 5929,7196 5809,7188 5689,7123 5570,7092 5450,7064 5330,7038 5210,6997 5090,6920 4970,6927 4850,6917 4731,6920 4611,6859 4491,6810 4371,6773 4251,6662 4131,6624 4011,6536 3891,6520 3772,6453 3652,6423 3532,6403 3412,6358 3292,6338 3172,6291 3052,6239 2933,6208 2813,6092 2693,6005 2573,5875 2453,5845 2333,5743 2213,5635 2094,5587 1974,5490 1854,5301 1734,5322 1614,5270 1494,5180 1374,4999 1255,4952 1255,1619 Z"/>
 <path fill="rgb(87,157,28)" stroke="none" d="M 1255,1235 L 1374,1237 1494,1244 1614,1252 1734,1254 1854,1258 1974,1274 2094,1283 2213,1280 2333,1292 2453,1307 2573,1300 2693,1309 2813,1332 2933,1347 3052,1361 3172,1380 3292,1411 3412,1413 3532,1420 3652,1428 3772,1448 3891,1476 4011,1496 4131,1529 4251,1562 4371,1593 4491,1618 4611,1651 4731,1688 4850,1704 4970,1732 5090,1747 5210,1785 5330,1821 5450,1828 5570,1827 5689,1862 5809,1873 5929,1914 6049,1914 6169,1954 6289,1991 6409,2026 6528,2055 6648,2115 6768,2138 6888,2173 7008,2168 7128,2155 7248,2177 7367,2222 7487,2264 7607,2258 7727,2307 7847,2325 7967,2352 8087,2379 8207,2338 8325,2362 8445,2358 8565,2311 8685,2327 8805,2330 8925,2312 9045,2355 9164,2407 9284,2421 9404,2402 9524,2489 9644,2507 9764,2547 9884,2474 10003,2475 10123,2502 10243,2512 10363,2511 10483,2553 10603,2674 10723,2673 10842,2569 10962,2503 11082,2558 11202,2604 11322,2622 11442,2634 11562,2600 11682,2600 11801,2672 11921,2677 12041,2637 12161,2646 12281,2624 12401,2595 12521,2629 12640,2639 12760,2646 12880,2646 13000,2647 13120,2779 13240,2705 13360,2680 13479,2679 13599,2664 13719,2557 13839,2554 13959,2569 14079,2543 14199,2406 14318,2326 14438,2304 14558,2362 14678,2359 14798,2341 14918,2354 15038,2339 15158,2289 15158,2474 15038,2537 14918,2555 14798,2529 14678,2563 14558,2564 14438,2501 14318,2515 14199,2610 14079,2755 13959,2802 13839,2787 13719,2796 13599,2926 13479,2950 13360,2957 13240,2992 13120,3075 13000,2927 12880,2933 12760,2941 12640,2941 12521,2931 12401,2899 12281,2938 12161,2968 12041,2938 11921,3007 11801,3002 11682,2925 11562,2935 11442,2986 11322,2984 11202,2963 11082,2945 10962,2889 10842,2994 10723,3127 10603,3097 10483,2908 10363,2858 10243,2849 10123,2834 10003,2798 9884,2819 9764,2889 9644,2829 9524,2797 9404,2745 9284,2787 9164,2790 9045,2722 8925,2672 8805,2696 8685,2715 8565,2692 8445,2774 8325,2786 8207,2771 8087,2836 7967,2795 7847,2762 7727,2752 7607,2701 7487,2721 7367,2679 7248,2630 7128,2611 7008,2659 6888,2683 6768,2653 6648,2622 6528,2566 6409,2552 6289,2522 6169,2486 6049,2457 5929,2449 5809,2391 5689,2396 5570,2367 5450,2390 5330,2403 5210,2370 5090,2333 4970,2326 4850,2288 4731,2277 4611,2242 4491,2209 4371,2191 4251,2166 4131,2140 4011,2109 3891,2101 3772,2069 3652,2055 3532,2029 3412,2035 3292,2036 3172,2003 3052,1976 2933,1960 2813,1933 2693,1883 2573,1847 2453,1877 2333,1844 2213,1808 2094,1801 1974,1787 1854,1711 1734,1708 1614,1744 1494,1691 1374,1634 1255,1619 1255,1235 Z"/>
 <path fill="none" stroke="rgb(0,0,0)" stroke-linejoin="round" d="M 1255,1235 L 1374,1237 1494,1244 1614,1252 1734,1254 1854,1258 1974,1274 2094,1283 2213,1280 2333,1292 2453,1307 2573,1300 2693,1309 2813,1332 2933,1347 3052,1361 3172,1380 3292,1411 3412,1413 3532,1420 3652,1428 3772,1448 3891,1476 4011,1496 4131,1529 4251,1562 4371,1593 4491,1618 4611,1651 4731,1688 4850,1704 4970,1732 5090,1747 5210,1785 5330,1821 5450,1828 5570,1827 5689,1862 5809,1873 5929,1914 6049,1914 6169,1954 6289,1991 6409,2026 6528,2055 6648,2115 6768,2138 6888,2173 7008,2168 7128,2155 7248,2177 7367,2222 7487,2264 7607,2258 7727,2307 7847,2325 7967,2352 8087,2379 8207,2338 8325,2362 8445,2358 8565,2311 8685,2327 8805,2330 8925,2312 9045,2355 9164,2407 9284,2421 9404,2402 9524,2489 9644,2507 9764,2547 9884,2474 10003,2475 10123,2502 10243,2512 10363,2511 10483,2553 10603,2674 10723,2673 10842,2569 10962,2503 11082,2558 11202,2604 11322,2622 11442,2634 11562,2600 11682,2600 11801,2672 11921,2677 12041,2637 12161,2646 12281,2624 12401,2595 12521,2629 12640,2639 12760,2646 12880,2646 13000,2647 13120,2779 13240,2705 13360,2680 13479,2679 13599,2664 13719,2557 13839,2554 13959,2569 14079,2543 14199,2406 14318,2326 14438,2304 14558,2362 14678,2359 14798,2341 14918,2354 15038,2339 15158,2289 15158,2474 15038,2537 14918,2555 14798,2529 14678,2563 14558,2564 14438,2501 14318,2515 14199,2610 14079,2755 13959,2802 13839,2787 13719,2796 13599,2926 13479,2950 13360,2957 13240,2992 13120,3075 13000,2927 12880,2933 12760,2941 12640,2941 12521,2931 12401,2899 12281,2938 12161,2968 12041,2938 11921,3007 11801,3002 11682,2925 11562,2935 11442,2986 11322,2984 11202,2963 11082,2945 10962,2889 10842,2994 10723,3127 10603,3097 10483,2908 10363,2858 10243,2849 10123,2834 10003,2798 9884,2819 9764,2889 9644,2829 9524,2797 9404,2745 9284,2787 9164,2790 9045,2722 8925,2672 8805,2696 8685,2715 8565,2692 8445,2774 8325,2786 8207,2771 8087,2836 7967,2795 7847,2762 7727,2752 7607,2701 7487,2721 7367,2679 7248,2630 7128,2611 7008,2659 6888,2683 6768,2653 6648,2622 6528,2566 6409,2552 6289,2522 6169,2486 6049,2457 5929,2449 5809,2391 5689,2396 5570,2367 5450,2390 5330,2403 5210,2370 5090,2333 4970,2326 4850,2288 4731,2277 4611,2242 4491,2209 4371,2191 4251,2166 4131,2140 4011,2109 3891,2101 3772,2069 3652,2055 3532,2029 3412,2035 3292,2036 3172,2003 3052,1976 2933,1960 2813,1933 2693,1883 2573,1847 2453,1877 2333,1844 2213,1808 2094,1801 1974,1787 1854,1711 1734,1708 1614,1744 1494,1691 1374,1634 1255,1619 1255,1235 Z"/>
 <path fill="rgb(126,0,33)" stroke="none" d="M 1255,1130 L 1374,1128 1494,1125 1614,1130 1734,1127 1854,1133 1974,1133 2094,1133 2213,1129 2333,1135 2453,1138 2573,1140 2693,1136 2813,1143 2933,1151 3052,1162 3172,1169 3292,1190 3412,1186 3532,1190 3652,1176 3772,1187 3891,1198 4011,1212 4131,1225 4251,1237 4371,1250 4491,1265 4611,1278 4731,1298 4850,1298 4970,1306 5090,1329 5210,1358 5330,1371 5450,1376 5570,1375 5689,1392 5809,1408 5929,1432 6049,1424 6169,1448 6289,1467 6409,1486 6528,1516 6648,1557 6768,1560 6888,1572 7008,1581 7128,1592 7248,1606 7367,1623 7487,1645 7607,1647 7727,1679 7847,1682 7967,1686 8087,1667 8207,1655 8325,1670 8445,1651 8565,1645 8685,1644 8805,1662 8925,1620 9045,1634 9164,1653 9284,1664 9404,1695 9524,1781 9644,1765 9764,1738 9884,1670 10003,1687 10123,1696 10243,1688 10363,1669 10483,1683 10603,1743 10723,1698 10842,1637 10962,1597 11082,1634 11202,1679 11322,1665 11442,1666 11562,1658 11682,1634 11801,1698 11921,1698 12041,1685 12161,1656 12281,1632 12401,1602 12521,1607 12640,1616 12760,1612 12880,1613 13000,1623 13120,1667 13240,1625 13360,1617 13479,1604 13599,1594 13719,1567 13839,1545 13959,1566 14079,1576 14199,1526 14318,1502 14438,1466 14558,1483 14678,1477 14798,1499 14918,1480 15038,1468 15158,1461 15158,2289 15038,2339 14918,2354 14798,2341 14678,2359 14558,2362 14438,2304 14318,2326 14199,2406 14079,2543 13959,2569 13839,2554 13719,2557 13599,2664 13479,2679 13360,2680 13240,2705 13120,2779 13000,2647 12880,2646 12760,2646 12640,2639 12521,2629 12401,2595 12281,2624 12161,2646 12041,2637 11921,2677 11801,2672 11682,2600 11562,2600 11442,2634 11322,2622 11202,2604 11082,2558 10962,2503 10842,2569 10723,2673 10603,2674 10483,2553 10363,2511 10243,2512 10123,2502 10003,2475 9884,2474 9764,2547 9644,2507 9524,2489 9404,2402 9284,2421 9164,2407 9045,2355 8925,2312 8805,2330 8685,2327 8565,2311 8445,2358 8325,2362 8207,2338 8087,2379 7967,2352 7847,2325 7727,2307 7607,2258 7487,2264 7367,2222 7248,2177 7128,2155 7008,2168 6888,2173 6768,2138 6648,2115 6528,2055 6409,2026 6289,1991 6169,1954 6049,1914 5929,1914 5809,1873 5689,1862 5570,1827 5450,1828 5330,1821 5210,1785 5090,1747 4970,1732 4850,1704 4731,1688 4611,1651 4491,1618 4371,1593 4251,1562 4131,1529 4011,1496 3891,1476 3772,1448 3652,1428 3532,1420 3412,1413 3292,1411 3172,1380 3052,1361 2933,1347 2813,1332 2693,1309 2573,1300 2453,1307 2333,1292 2213,1280 2094,1283 1974,1274 1854,1258 1734,1254 1614,1252 1494,1244 1374,1237 1255,1235 1255,1130 Z"/>
 <path fill="none" stroke="rgb(0,0,0)" stroke-linejoin="round" d="M 1255,1130 L 1374,1128 1494,1125 1614,1130 1734,1127 1854,1133 1974,1133 2094,1133 2213,1129 2333,1135 2453,1138 2573,1140 2693,1136 2813,1143 2933,1151 3052,1162 3172,1169 3292,1190 3412,1186 3532,1190 3652,1176 3772,1187 3891,1198 4011,1212 4131,1225 4251,1237 4371,1250 4491,1265 4611,1278 4731,1298 4850,1298 4970,1306 5090,1329 5210,1358 5330,1371 5450,1376 5570,1375 5689,1392 5809,1408 5929,1432 6049,1424 6169,1448 6289,1467 6409,1486 6528,1516 6648,1557 6768,1560 6888,1572 7008,1581 7128,1592 7248,1606 7367,1623 7487,1645 7607,1647 7727,1679 7847,1682 7967,1686 8087,1667 8207,1655 8325,1670 8445,1651 8565,1645 8685,1644 8805,1662 8925,1620 9045,1634 9164,1653 9284,1664 9404,1695 9524,1781 9644,1765 9764,1738 9884,1670 10003,1687 10123,1696 10243,1688 10363,1669 10483,1683 10603,1743 10723,1698 10842,1637 10962,1597 11082,1634 11202,1679 11322,1665 11442,1666 11562,1658 11682,1634 11801,1698 11921,1698 12041,1685 12161,1656 12281,1632 12401,1602 12521,1607 12640,1616 12760,1612 12880,1613 13000,1623 13120,1667 13240,1625 13360,1617 13479,1604 13599,1594 13719,1567 13839,1545 13959,1566 14079,1576 14199,1526 14318,1502 14438,1466 14558,1483 14678,1477 14798,1499 14918,1480 15038,1468 15158,1461 15158,2289 15038,2339 14918,2354 14798,2341 14678,2359 14558,2362 14438,2304 14318,2326 14199,2406 14079,2543 13959,2569 13839,2554 13719,2557 13599,2664 13479,2679 13360,2680 13240,2705 13120,2779 13000,2647 12880,2646 12760,2646 12640,2639 12521,2629 12401,2595 12281,2624 12161,2646 12041,2637 11921,2677 11801,2672 11682,2600 11562,2600 11442,2634 11322,2622 11202,2604 11082,2558 10962,2503 10842,2569 10723,2673 10603,2674 10483,2553 10363,2511 10243,2512 10123,2502 10003,2475 9884,2474 9764,2547 9644,2507 9524,2489 9404,2402 9284,2421 9164,2407 9045,2355 8925,2312 8805,2330 8685,2327 8565,2311 8445,2358 8325,2362 8207,2338 8087,2379 7967,2352 7847,2325 7727,2307 7607,2258 7487,2264 7367,2222 7248,2177 7128,2155 7008,2168 6888,2173 6768,2138 6648,2115 6528,2055 6409,2026 6289,1991 6169,1954 6049,1914 5929,1914 5809,1873 5689,1862 5570,1827 5450,1828 5330,1821 5210,1785 5090,1747 4970,1732 4850,1704 4731,1688 4611,1651 4491,1618 4371,1593 4251,1562 4131,1529 4011,1496 3891,1476 3772,1448 3652,1428 3532,1420 3412,1413 3292,1411 3172,1380 3052,1361 2933,1347 2813,1332 2693,1309 2573,1300 2453,1307 2333,1292 2213,1280 2094,1283 1974,1274 1854,1258 1734,1254 1614,1252 1494,1244 1374,1237 1255,1235 1255,1130 Z"/>
 <path fill="rgb(131,202,255)" stroke="none" d="M 1255,1091 L 1374,1091 1494,1091 1614,1091 1734,1091 1854,1091 1974,1091 2094,1091 2213,1091 2333,1091 2453,1091 2573,1091 2693,1091 2813,1091 2933,1091 3052,1091 3172,1091 3292,1091 3412,1091 3532,1091 3652,1091 3772,1091 3891,1091 4011,1091 4131,1091 4251,1091 4371,1091 4491,1091 4611,1091 4731,1091 4850,1091 4970,1091 5090,1091 5210,1091 5330,1091 5450,1091 5570,1091 5689,1091 5809,1091 5929,1091 6049,1091 6169,1091 6289,1091 6409,1091 6528,1091 6648,1091 6768,1091 6888,1091 7008,1091 7128,1091 7248,1091 7367,1091 7487,1091 7607,1091 7727,1091 7847,1091 7967,1091 8087,1091 8207,1091 8325,1091 8445,1091 8565,1091 8685,1091 8805,1091 8925,1091 9045,1091 9164,1091 9284,1091 9404,1091 9524,1091 9644,1091 9764,1091 9884,1091 10003,1091 10123,1091 10243,1091 10363,1091 10483,1091 10603,1091 10723,1091 10842,1091 10962,1091 11082,1091 11202,1091 11322,1091 11442,1091 11562,1091 11682,1091 11801,1091 11921,1091 12041,1091 12161,1091 12281,1091 12401,1091 12521,1091 12640,1091 12760,1091 12880,1091 13000,1091 13120,1091 13240,1091 13360,1091 13479,1091 13599,1091 13719,1091 13839,1091 13959,1091 14079,1091 14199,1091 14318,1091 14438,1091 14558,1091 14678,1091 14798,1091 14918,1091 15038,1091 15158,1091 15158,1461 15038,1468 14918,1480 14798,1499 14678,1477 14558,1483 14438,1466 14318,1502 14199,1526 14079,1576 13959,1566 13839,1545 13719,1567 13599,1594 13479,1604 13360,1617 13240,1625 13120,1667 13000,1623 12880,1613 12760,1612 12640,1616 12521,1607 12401,1602 12281,1632 12161,1656 12041,1685 11921,1698 11801,1698 11682,1634 11562,1658 11442,1666 11322,1665 11202,1679 11082,1634 10962,1597 10842,1637 10723,1698 10603,1743 10483,1683 10363,1669 10243,1688 10123,1696 10003,1687 9884,1670 9764,1738 9644,1765 9524,1781 9404,1695 9284,1664 9164,1653 9045,1634 8925,1620 8805,1662 8685,1644 8565,1645 8445,1651 8325,1670 8207,1655 8087,1667 7967,1686 7847,1682 7727,1679 7607,1647 7487,1645 7367,1623 7248,1606 7128,1592 7008,1581 6888,1572 6768,1560 6648,1557 6528,1516 6409,1486 6289,1467 6169,1448 6049,1424 5929,1432 5809,1408 5689,1392 5570,1375 5450,1376 5330,1371 5210,1358 5090,1329 4970,1306 4850,1298 4731,1298 4611,1278 4491,1265 4371,1250 4251,1237 4131,1225 4011,1212 3891,1198 3772,1187 3652,1176 3532,1190 3412,1186 3292,1190 3172,1169 3052,1162 2933,1151 2813,1143 2693,1136 2573,1140 2453,1138 2333,1135 2213,1129 2094,1133 1974,1133 1854,1133 1734,1127 1614,1130 1494,1125 1374,1128 1255,1130 1255,1091 Z"/>
 <path fill="none" stroke="rgb(0,0,0)" stroke-linejoin="round" d="M 1255,1091 L 1374,1091 1494,1091 1614,1091 1734,1091 1854,1091 1974,1091 2094,1091 2213,1091 2333,1091 2453,1091 2573,1091 2693,1091 2813,1091 2933,1091 3052,1091 3172,1091 3292,1091 3412,1091 3532,1091 3652,1091 3772,1091 3891,1091 4011,1091 4131,1091 4251,1091 4371,1091 4491,1091 4611,1091 4731,1091 4850,1091 4970,1091 5090,1091 5210,1091 5330,1091 5450,1091 5570,1091 5689,1091 5809,1091 5929,1091 6049,1091 6169,1091 6289,1091 6409,1091 6528,1091 6648,1091 6768,1091 6888,1091 7008,1091 7128,1091 7248,1091 7367,1091 7487,1091 7607,1091 7727,1091 7847,1091 7967,1091 8087,1091 8207,1091 8325,1091 8445,1091 8565,1091 8685,1091 8805,1091 8925,1091 9045,1091 9164,1091 9284,1091 9404,1091 9524,1091 9644,1091 9764,1091 9884,1091 10003,1091 10123,1091 10243,1091 10363,1091 10483,1091 10603,1091 10723,1091 10842,1091 10962,1091 11082,1091 11202,1091 11322,1091 11442,1091 11562,1091 11682,1091 11801,1091 11921,1091 12041,1091 12161,1091 12281,1091 12401,1091 12521,1091 12640,1091 12760,1091 12880,1091 13000,1091 13120,1091 13240,1091 13360,1091 13479,1091 13599,1091 13719,1091 13839,1091 13959,1091 14079,1091 14199,1091 14318,1091 14438,1091 14558,1091 14678,1091 14798,1091 14918,1091 15038,1091 15158,1091 15158,1461 15038,1468 14918,1480 14798,1499 14678,1477 14558,1483 14438,1466 14318,1502 14199,1526 14079,1576 13959,1566 13839,1545 13719,1567 13599,1594 13479,1604 13360,1617 13240,1625 13120,1667 13000,1623 12880,1613 12760,1612 12640,1616 12521,1607 12401,1602 12281,1632 12161,1656 12041,1685 11921,1698 11801,1698 11682,1634 11562,1658 11442,1666 11322,1665 11202,1679 11082,1634 10962,1597 10842,1637 10723,1698 10603,1743 10483,1683 10363,1669 10243,1688 10123,1696 10003,1687 9884,1670 9764,1738 9644,1765 9524,1781 9404,1695 9284,1664 9164,1653 9045,1634 8925,1620 8805,1662 8685,1644 8565,1645 8445,1651 8325,1670 8207,1655 8087,1667 7967,1686 7847,1682 7727,1679 7607,1647 7487,1645 7367,1623 7248,1606 7128,1592 7008,1581 6888,1572 6768,1560 6648,1557 6528,1516 6409,1486 6289,1467 6169,1448 6049,1424 5929,1432 5809,1408 5689,1392 5570,1375 5450,1376 5330,1371 5210,1358 5090,1329 4970,1306 4850,1298 4731,1298 4611,1278 4491,1265 4371,1250 4251,1237 4131,1225 4011,1212 3891,1198 3772,1187 3652,1176 3532,1190 3412,1186 3292,1190 3172,1169 3052,1162 2933,1151 2813,1143 2693,1136 2573,1140 2453,1138 2333,1135 2213,1129 2094,1133 1974,1133 1854,1133 1734,1127 1614,1130 1494,1125 1374,1128 1255,1130 1255,1091 Z"/>
 <text class="TextShape"><tspan class="TextParagraph" font-family="Arial, sans-serif" font-size="388px" font-weight="400"><tspan class="TextPosition" x="1070" y="11295"><tspan fill="rgb(0,0,0)" stroke="none">2008</tspan></tspan></tspan></text>
 <text class="TextShape"><tspan class="TextParagraph" font-family="Arial, sans-serif" font-size="388px" font-weight="400"><tspan class="TextPosition" x="2509" y="11295"><tspan fill="rgb(0,0,0)" stroke="none">2009</tspan></tspan></tspan></text>
 <text class="TextShape"><tspan class="TextParagraph" font-family="Arial, sans-serif" font-size="388px" font-weight="400"><tspan class="TextPosition" x="3947" y="11295"><tspan fill="rgb(0,0,0)" stroke="none">2010</tspan></tspan></tspan></text>
 <text class="TextShape"><tspan class="TextParagraph" font-family="Arial, sans-serif" font-size="388px" font-weight="400"><tspan class="TextPosition" x="5385" y="11295"><tspan fill="rgb(0,0,0)" stroke="none">2011</tspan></tspan></tspan></text>
 <text class="TextShape"><tspan class="TextParagraph" font-family="Arial, sans-serif" font-size="388px" font-weight="400"><tspan class="TextPosition" x="6824" y="11295"><tspan fill="rgb(0,0,0)" stroke="none">2012</tspan></tspan></tspan></text>
 <text class="TextShape"><tspan class="TextParagraph" font-family="Arial, sans-serif" font-size="388px" font-weight="400"><tspan class="TextPosition" x="8262" y="11295"><tspan fill="rgb(0,0,0)" stroke="none">2013</tspan></tspan></tspan></text>
 <text class="TextShape"><tspan class="TextParagraph" font-family="Arial, sans-serif" font-size="388px" font-weight="400"><tspan class="TextPosition" x="9700" y="11295"><tspan fill="rgb(0,0,0)" stroke="none">2014</tspan></tspan></tspan></text>
 <text class="TextShape"><tspan class="TextParagraph" font-family="Arial, sans-serif" font-size="388px" font-weight="400"><tspan class="TextPosition" x="11139" y="11295"><tspan fill="rgb(0,0,0)" stroke="none">2015</tspan></tspan></tspan></text>
 <text class="TextShape"><tspan class="TextParagraph" font-family="Arial, sans-serif" font-size="388px" font-weight="400"><tspan class="TextPosition" x="12577" y="11295"><tspan fill="rgb(0,0,0)" stroke="none">2016</tspan></tspan></tspan></text>
 <text class="TextShape"><tspan class="TextParagraph" font-family="Arial, sans-serif" font-size="388px" font-weight="400"><tspan class="TextPosition" x="14015" y="11295"><tspan fill="rgb(0,0,0)" stroke="none">2017</tspan></tspan></tspan></text>
 <text class="TextShape"><tspan class="TextParagraph" font-family="Arial, sans-serif" font-size="388px" font-weight="400"><tspan class="TextPosition" x="449" y="10835"><tspan fill="rgb(0,0,0)" stroke="none">0%</tspan></tspan></tspan></text>
 <text class="TextShape"><tspan class="TextParagraph" font-family="Arial, sans-serif" font-size="388px" font-weight="400"><tspan class="TextPosition" x="238" y="9873"><tspan fill="rgb(0,0,0)" stroke="none">10%</tspan></tspan></tspan></text>
 <text class="TextShape"><tspan class="TextParagraph" font-family="Arial, sans-serif" font-size="388px" font-weight="400"><tspan class="TextPosition" x="238" y="8912"><tspan fill="rgb(0,0,0)" stroke="none">20%</tspan></tspan></tspan></text>
 <text class="TextShape"><tspan class="TextParagraph" font-family="Arial, sans-serif" font-size="388px" font-weight="400"><tspan class="TextPosition" x="238" y="7951"><tspan fill="rgb(0,0,0)" stroke="none">30%</tspan></tspan></tspan></text>
 <text class="TextShape"><tspan class="TextParagraph" font-family="Arial, sans-serif" font-size="388px" font-weight="400"><tspan class="TextPosition" x="238" y="6990"><tspan fill="rgb(0,0,0)" stroke="none">40%</tspan></tspan></tspan></text>
 <text class="TextShape"><tspan class="TextParagraph" font-family="Arial, sans-serif" font-size="388px" font-weight="400"><tspan class="TextPosition" x="238" y="6029"><tspan fill="rgb(0,0,0)" stroke="none">50%</tspan></tspan></tspan></text>
 <text class="TextShape"><tspan class="TextParagraph" font-family="Arial, sans-serif" font-size="388px" font-weight="400"><tspan class="TextPosition" x="238" y="5068"><tspan fill="rgb(0,0,0)" stroke="none">60%</tspan></tspan></tspan></text>
 <text class="TextShape"><tspan class="TextParagraph" font-family="Arial, sans-serif" font-size="388px" font-weight="400"><tspan class="TextPosition" x="238" y="4107"><tspan fill="rgb(0,0,0)" stroke="none">70%</tspan></tspan></tspan></text>
 <text class="TextShape"><tspan class="TextParagraph" font-family="Arial, sans-serif" font-size="388px" font-weight="400"><tspan class="TextPosition" x="238" y="3146"><tspan fill="rgb(0,0,0)" stroke="none">80%</tspan></tspan></tspan></text>
 <text class="TextShape"><tspan class="TextParagraph" font-family="Arial, sans-serif" font-size="388px" font-weight="400"><tspan class="TextPosition" x="238" y="2185"><tspan fill="rgb(0,0,0)" stroke="none">90%</tspan></tspan></tspan></text>
 <text class="TextShape"><tspan class="TextParagraph" font-family="Arial, sans-serif" font-size="388px" font-weight="400"><tspan class="TextPosition" x="26" y="1224"><tspan fill="rgb(0,0,0)" stroke="none">100%</tspan></tspan></tspan></text>
 <text class="TextShape"><tspan class="TextParagraph" font-family="Arial, sans-serif" font-size="388px" font-weight="400"><tspan class="TextPosition" x="15408" y="10835"><tspan fill="rgb(0,0,0)" stroke="none">0%</tspan></tspan></tspan></text>
 <text class="TextShape"><tspan class="TextParagraph" font-family="Arial, sans-serif" font-size="388px" font-weight="400"><tspan class="TextPosition" x="15408" y="9873"><tspan fill="rgb(0,0,0)" stroke="none">10%</tspan></tspan></tspan></text>
 <text class="TextShape"><tspan class="TextParagraph" font-family="Arial, sans-serif" font-size="388px" font-weight="400"><tspan class="TextPosition" x="15408" y="8912"><tspan fill="rgb(0,0,0)" stroke="none">20%</tspan></tspan></tspan></text>
 <text class="TextShape"><tspan class="TextParagraph" font-family="Arial, sans-serif" font-size="388px" font-weight="400"><tspan class="TextPosition" x="15408" y="7951"><tspan fill="rgb(0,0,0)" stroke="none">30%</tspan></tspan></tspan></text>
 <text class="TextShape"><tspan class="TextParagraph" font-family="Arial, sans-serif" font-size="388px" font-weight="400"><tspan class="TextPosition" x="15408" y="6990"><tspan fill="rgb(0,0,0)" stroke="none">40%</tspan></tspan></tspan></text>
 <text class="TextShape"><tspan class="TextParagraph" font-family="Arial, sans-serif" font-size="388px" font-weight="400"><tspan class="TextPosition" x="15408" y="6029"><tspan fill="rgb(0,0,0)" stroke="none">50%</tspan></tspan></tspan></text>
 <text class="TextShape"><tspan class="TextParagraph" font-family="Arial, sans-serif" font-size="388px" font-weight="400"><tspan class="TextPosition" x="15408" y="5068"><tspan fill="rgb(0,0,0)" stroke="none">60%</tspan></tspan></tspan></text>
 <text class="TextShape"><tspan class="TextParagraph" font-family="Arial, sans-serif" font-size="388px" font-weight="400"><tspan class="TextPosition" x="15408" y="4107"><tspan fill="rgb(0,0,0)" stroke="none">70%</tspan></tspan></tspan></text>
 <text class="TextShape"><tspan class="TextParagraph" font-family="Arial, sans-serif" font-size="388px" font-weight="400"><tspan class="TextPosition" x="15408" y="3146"><tspan fill="rgb(0,0,0)" stroke="none">80%</tspan></tspan></tspan></text>
 <text class="TextShape"><tspan class="TextParagraph" font-family="Arial, sans-serif" font-size="388px" font-weight="400"><tspan class="TextPosition" x="15408" y="2185"><tspan fill="rgb(0,0,0)" stroke="none">90%</tspan></tspan></tspan></text>
 <text class="TextShape"><tspan class="TextParagraph" font-family="Arial, sans-serif" font-size="388px" font-weight="400"><tspan class="TextPosition" x="15408" y="1224"><tspan fill="rgb(0,0,0)" stroke="none">100%</tspan></tspan></tspan></text>
 <text class="TextShape"><tspan class="TextParagraph" font-family="Liberation Sans, sans-serif" font-size="635px" font-weight="400"><tspan class="TextPosition" x="5493" y="747"><tspan fill="rgb(0,0,0)" stroke="none">Nmero de pxeles </tspan></tspan></tspan></text>
 <path fill="rgb(0,69,134)" stroke="none" d="M 3179,12156 L 3074,12156 3074,11945 3285,11945 3285,12156 3179,12156 Z"/>
 <path fill="none" stroke="rgb(0,0,0)" stroke-linejoin="round" d="M 3179,12156 L 3074,12156 3074,11945 3285,11945 3285,12156 3179,12156 Z"/>
 <path fill="rgb(255,66,14)" stroke="none" d="M 5020,12156 L 4915,12156 4915,11945 5126,11945 5126,12156 5020,12156 Z"/>
 <path fill="none" stroke="rgb(0,0,0)" stroke-linejoin="round" d="M 5020,12156 L 4915,12156 4915,11945 5126,11945 5126,12156 5020,12156 Z"/>
 <path fill="rgb(255,211,32)" stroke="none" d="M 6861,12156 L 6756,12156 6756,11945 6967,11945 6967,12156 6861,12156 Z"/>
 <path fill="none" stroke="rgb(0,0,0)" stroke-linejoin="round" d="M 6861,12156 L 6756,12156 6756,11945 6967,11945 6967,12156 6861,12156 Z"/>
 <path fill="rgb(87,157,28)" stroke="none" d="M 8702,12156 L 8596,12156 8596,11945 8807,11945 8807,12156 8702,12156 Z"/>
 <path fill="none" stroke="rgb(0,0,0)" stroke-linejoin="round" d="M 8702,12156 L 8596,12156 8596,11945 8807,11945 8807,12156 8702,12156 Z"/>
 <path fill="rgb(126,0,33)" stroke="none" d="M 10543,12156 L 10437,12156 10437,11945 10648,11945 10648,12156 10543,12156 Z"/>
 <path fill="none" stroke="rgb(0,0,0)" stroke-linejoin="round" d="M 10543,12156 L 10437,12156 10437,11945 10648,11945 10648,12156 10543,12156 Z"/>
 <path fill="rgb(131,202,255)" stroke="none" d="M 12384,12156 L 12278,12156 12278,11945 12489,11945 12489,12156 12384,12156 Z"/>
 <path fill="none" stroke="rgb(0,0,0)" stroke-linejoin="round" d="M 12384,12156 L 12278,12156 12278,11945 12489,11945 12489,12156 12384,12156 Z"/>
 <text class="TextShape"><tspan class="TextParagraph" font-family="Arial, sans-serif" font-size="353px" font-weight="400"><tspan class="TextPosition" x="3385" y="12169"><tspan fill="rgb(0,0,0)" stroke="none">0,5 MPx</tspan></tspan></tspan></text>
 <text class="TextShape"><tspan class="TextParagraph" font-family="Arial, sans-serif" font-size="353px" font-weight="400"><tspan class="TextPosition" x="5226" y="12169"><tspan fill="rgb(0,0,0)" stroke="none">1,0 MPx</tspan></tspan></tspan></text>
 <text class="TextShape"><tspan class="TextParagraph" font-family="Arial, sans-serif" font-size="353px" font-weight="400"><tspan class="TextPosition" x="7067" y="12169"><tspan fill="rgb(0,0,0)" stroke="none">1,5 MPx</tspan></tspan></tspan></text>
 <text class="TextShape"><tspan class="TextParagraph" font-family="Arial, sans-serif" font-size="353px" font-weight="400"><tspan class="TextPosition" x="8907" y="12169"><tspan fill="rgb(0,0,0)" stroke="none">2,0 MPx</tspan></tspan></tspan></text>
 <text class="TextShape"><tspan class="TextParagraph" font-family="Arial, sans-serif" font-size="353px" font-weight="400"><tspan class="TextPosition" x="10748" y="12169"><tspan fill="rgb(0,0,0)" stroke="none">2,5 MPx</tspan></tspan></tspan></text>
 <text class="TextShape"><tspan class="TextParagraph" font-family="Arial, sans-serif" font-size="353px" font-weight="400"><tspan class="TextPosition" x="12589" y="12169"><tspan fill="rgb(0,0,0)" stroke="none">Otros</tspan></tspan></tspan></text>
</svg>
