<?xml version="1.0" encoding="UTF-8"?>
<!DOCTYPE svg PUBLIC "-//W3C//DTD SVG 1.1//EN" "http://www.w3.org/Graphics/SVG/1.1/DTD/svg11.dtd">
<svg width="163mm" height="122mm" viewBox="0 0 16300 12200" version="1.1" xmlns="http://www.w3.org/2000/svg" stroke-width="28.222" stroke-linejoin="round" xml:space="preserve">
 <path fill="rgb(255,255,255)" stroke="none" d="M 8184,12221 L 12,12221 12,0 16356,0 16356,12221 8184,12221 Z"/>
 <path fill="none" stroke="rgb(179,179,179)" stroke-linejoin="round" d="M 8119,10762 L 1428,10762 1428,1093 14809,1093 14809,10762 8119,10762 Z"/>
 <path fill="none" stroke="rgb(179,179,179)" stroke-linejoin="round" d="M 14809,10761 L 1428,10761"/>
 <path fill="none" stroke="rgb(179,179,179)" stroke-linejoin="round" d="M 14809,9794 L 1428,9794"/>
 <path fill="none" stroke="rgb(179,179,179)" stroke-linejoin="round" d="M 14809,8827 L 1428,8827"/>
 <path fill="none" stroke="rgb(179,179,179)" stroke-linejoin="round" d="M 14809,7860 L 1428,7860"/>
 <path fill="none" stroke="rgb(179,179,179)" stroke-linejoin="round" d="M 14809,6893 L 1428,6893"/>
 <path fill="none" stroke="rgb(179,179,179)" stroke-linejoin="round" d="M 14809,5927 L 1428,5927"/>
 <path fill="none" stroke="rgb(179,179,179)" stroke-linejoin="round" d="M 14809,4959 L 1428,4959"/>
 <path fill="none" stroke="rgb(179,179,179)" stroke-linejoin="round" d="M 14809,3992 L 1428,3992"/>
 <path fill="none" stroke="rgb(179,179,179)" stroke-linejoin="round" d="M 14809,3026 L 1428,3026"/>
 <path fill="none" stroke="rgb(179,179,179)" stroke-linejoin="round" d="M 14809,2059 L 1428,2059"/>
 <path fill="none" stroke="rgb(179,179,179)" stroke-linejoin="round" d="M 14809,1092 L 1428,1092"/>
 <path fill="none" stroke="rgb(0,0,0)" stroke-width="30" stroke-linejoin="round" d="M 1428,10911 L 1428,10761"/>
 <path fill="none" stroke="rgb(0,0,0)" stroke-width="30" stroke-linejoin="round" d="M 1428,10911 L 1428,10761"/>
 <path fill="none" stroke="rgb(0,0,0)" stroke-width="30" stroke-linejoin="round" d="M 1543,10911 L 1543,10761"/>
 <path fill="none" stroke="rgb(0,0,0)" stroke-width="30" stroke-linejoin="round" d="M 1543,10911 L 1543,10761"/>
 <path fill="none" stroke="rgb(0,0,0)" stroke-width="30" stroke-linejoin="round" d="M 1658,10911 L 1658,10761"/>
 <path fill="none" stroke="rgb(0,0,0)" stroke-width="30" stroke-linejoin="round" d="M 1658,10911 L 1658,10761"/>
 <path fill="none" stroke="rgb(0,0,0)" stroke-width="30" stroke-linejoin="round" d="M 1774,10911 L 1774,10761"/>
 <path fill="none" stroke="rgb(0,0,0)" stroke-width="30" stroke-linejoin="round" d="M 1774,10911 L 1774,10761"/>
 <path fill="none" stroke="rgb(0,0,0)" stroke-width="30" stroke-linejoin="round" d="M 1889,10911 L 1889,10761"/>
 <path fill="none" stroke="rgb(0,0,0)" stroke-width="30" stroke-linejoin="round" d="M 1889,10911 L 1889,10761"/>
 <path fill="none" stroke="rgb(0,0,0)" stroke-width="30" stroke-linejoin="round" d="M 2004,10911 L 2004,10761"/>
 <path fill="none" stroke="rgb(0,0,0)" stroke-width="30" stroke-linejoin="round" d="M 2004,10911 L 2004,10761"/>
 <path fill="none" stroke="rgb(0,0,0)" stroke-width="30" stroke-linejoin="round" d="M 2120,10911 L 2120,10761"/>
 <path fill="none" stroke="rgb(0,0,0)" stroke-width="30" stroke-linejoin="round" d="M 2120,10911 L 2120,10761"/>
 <path fill="none" stroke="rgb(0,0,0)" stroke-width="30" stroke-linejoin="round" d="M 2235,10911 L 2235,10761"/>
 <path fill="none" stroke="rgb(0,0,0)" stroke-width="30" stroke-linejoin="round" d="M 2235,10911 L 2235,10761"/>
 <path fill="none" stroke="rgb(0,0,0)" stroke-width="30" stroke-linejoin="round" d="M 2350,10911 L 2350,10761"/>
 <path fill="none" stroke="rgb(0,0,0)" stroke-width="30" stroke-linejoin="round" d="M 2350,10911 L 2350,10761"/>
 <path fill="none" stroke="rgb(0,0,0)" stroke-width="30" stroke-linejoin="round" d="M 2466,10911 L 2466,10761"/>
 <path fill="none" stroke="rgb(0,0,0)" stroke-width="30" stroke-linejoin="round" d="M 2466,10911 L 2466,10761"/>
 <path fill="none" stroke="rgb(0,0,0)" stroke-width="30" stroke-linejoin="round" d="M 2581,10911 L 2581,10761"/>
 <path fill="none" stroke="rgb(0,0,0)" stroke-width="30" stroke-linejoin="round" d="M 2581,10911 L 2581,10761"/>
 <path fill="none" stroke="rgb(0,0,0)" stroke-width="30" stroke-linejoin="round" d="M 2696,10911 L 2696,10761"/>
 <path fill="none" stroke="rgb(0,0,0)" stroke-width="30" stroke-linejoin="round" d="M 2696,10911 L 2696,10761"/>
 <path fill="none" stroke="rgb(0,0,0)" stroke-width="30" stroke-linejoin="round" d="M 2812,10911 L 2812,10761"/>
 <path fill="none" stroke="rgb(0,0,0)" stroke-width="30" stroke-linejoin="round" d="M 2812,10911 L 2812,10761"/>
 <path fill="none" stroke="rgb(0,0,0)" stroke-width="30" stroke-linejoin="round" d="M 2927,10911 L 2927,10761"/>
 <path fill="none" stroke="rgb(0,0,0)" stroke-width="30" stroke-linejoin="round" d="M 2927,10911 L 2927,10761"/>
 <path fill="none" stroke="rgb(0,0,0)" stroke-width="30" stroke-linejoin="round" d="M 3043,10911 L 3043,10761"/>
 <path fill="none" stroke="rgb(0,0,0)" stroke-width="30" stroke-linejoin="round" d="M 3043,10911 L 3043,10761"/>
 <path fill="none" stroke="rgb(0,0,0)" stroke-width="30" stroke-linejoin="round" d="M 3158,10911 L 3158,10761"/>
 <path fill="none" stroke="rgb(0,0,0)" stroke-width="30" stroke-linejoin="round" d="M 3158,10911 L 3158,10761"/>
 <path fill="none" stroke="rgb(0,0,0)" stroke-width="30" stroke-linejoin="round" d="M 3273,10911 L 3273,10761"/>
 <path fill="none" stroke="rgb(0,0,0)" stroke-width="30" stroke-linejoin="round" d="M 3273,10911 L 3273,10761"/>
 <path fill="none" stroke="rgb(0,0,0)" stroke-width="30" stroke-linejoin="round" d="M 3389,10911 L 3389,10761"/>
 <path fill="none" stroke="rgb(0,0,0)" stroke-width="30" stroke-linejoin="round" d="M 3389,10911 L 3389,10761"/>
 <path fill="none" stroke="rgb(0,0,0)" stroke-width="30" stroke-linejoin="round" d="M 3504,10911 L 3504,10761"/>
 <path fill="none" stroke="rgb(0,0,0)" stroke-width="30" stroke-linejoin="round" d="M 3504,10911 L 3504,10761"/>
 <path fill="none" stroke="rgb(0,0,0)" stroke-width="30" stroke-linejoin="round" d="M 3619,10911 L 3619,10761"/>
 <path fill="none" stroke="rgb(0,0,0)" stroke-width="30" stroke-linejoin="round" d="M 3619,10911 L 3619,10761"/>
 <path fill="none" stroke="rgb(0,0,0)" stroke-width="30" stroke-linejoin="round" d="M 3735,10911 L 3735,10761"/>
 <path fill="none" stroke="rgb(0,0,0)" stroke-width="30" stroke-linejoin="round" d="M 3735,10911 L 3735,10761"/>
 <path fill="none" stroke="rgb(0,0,0)" stroke-width="30" stroke-linejoin="round" d="M 3850,10911 L 3850,10761"/>
 <path fill="none" stroke="rgb(0,0,0)" stroke-width="30" stroke-linejoin="round" d="M 3850,10911 L 3850,10761"/>
 <path fill="none" stroke="rgb(0,0,0)" stroke-width="30" stroke-linejoin="round" d="M 3965,10911 L 3965,10761"/>
 <path fill="none" stroke="rgb(0,0,0)" stroke-width="30" stroke-linejoin="round" d="M 3965,10911 L 3965,10761"/>
 <path fill="none" stroke="rgb(0,0,0)" stroke-width="30" stroke-linejoin="round" d="M 4081,10911 L 4081,10761"/>
 <path fill="none" stroke="rgb(0,0,0)" stroke-width="30" stroke-linejoin="round" d="M 4081,10911 L 4081,10761"/>
 <path fill="none" stroke="rgb(0,0,0)" stroke-width="30" stroke-linejoin="round" d="M 4196,10911 L 4196,10761"/>
 <path fill="none" stroke="rgb(0,0,0)" stroke-width="30" stroke-linejoin="round" d="M 4196,10911 L 4196,10761"/>
 <path fill="none" stroke="rgb(0,0,0)" stroke-width="30" stroke-linejoin="round" d="M 4312,10911 L 4312,10761"/>
 <path fill="none" stroke="rgb(0,0,0)" stroke-width="30" stroke-linejoin="round" d="M 4312,10911 L 4312,10761"/>
 <path fill="none" stroke="rgb(0,0,0)" stroke-width="30" stroke-linejoin="round" d="M 4427,10911 L 4427,10761"/>
 <path fill="none" stroke="rgb(0,0,0)" stroke-width="30" stroke-linejoin="round" d="M 4427,10911 L 4427,10761"/>
 <path fill="none" stroke="rgb(0,0,0)" stroke-width="30" stroke-linejoin="round" d="M 4542,10911 L 4542,10761"/>
 <path fill="none" stroke="rgb(0,0,0)" stroke-width="30" stroke-linejoin="round" d="M 4542,10911 L 4542,10761"/>
 <path fill="none" stroke="rgb(0,0,0)" stroke-width="30" stroke-linejoin="round" d="M 4658,10911 L 4658,10761"/>
 <path fill="none" stroke="rgb(0,0,0)" stroke-width="30" stroke-linejoin="round" d="M 4658,10911 L 4658,10761"/>
 <path fill="none" stroke="rgb(0,0,0)" stroke-width="30" stroke-linejoin="round" d="M 4773,10911 L 4773,10761"/>
 <path fill="none" stroke="rgb(0,0,0)" stroke-width="30" stroke-linejoin="round" d="M 4773,10911 L 4773,10761"/>
 <path fill="none" stroke="rgb(0,0,0)" stroke-width="30" stroke-linejoin="round" d="M 4888,10911 L 4888,10761"/>
 <path fill="none" stroke="rgb(0,0,0)" stroke-width="30" stroke-linejoin="round" d="M 4888,10911 L 4888,10761"/>
 <path fill="none" stroke="rgb(0,0,0)" stroke-width="30" stroke-linejoin="round" d="M 5004,10911 L 5004,10761"/>
 <path fill="none" stroke="rgb(0,0,0)" stroke-width="30" stroke-linejoin="round" d="M 5004,10911 L 5004,10761"/>
 <path fill="none" stroke="rgb(0,0,0)" stroke-width="30" stroke-linejoin="round" d="M 5119,10911 L 5119,10761"/>
 <path fill="none" stroke="rgb(0,0,0)" stroke-width="30" stroke-linejoin="round" d="M 5119,10911 L 5119,10761"/>
 <path fill="none" stroke="rgb(0,0,0)" stroke-width="30" stroke-linejoin="round" d="M 5234,10911 L 5234,10761"/>
 <path fill="none" stroke="rgb(0,0,0)" stroke-width="30" stroke-linejoin="round" d="M 5234,10911 L 5234,10761"/>
 <path fill="none" stroke="rgb(0,0,0)" stroke-width="30" stroke-linejoin="round" d="M 5350,10911 L 5350,10761"/>
 <path fill="none" stroke="rgb(0,0,0)" stroke-width="30" stroke-linejoin="round" d="M 5350,10911 L 5350,10761"/>
 <path fill="none" stroke="rgb(0,0,0)" stroke-width="30" stroke-linejoin="round" d="M 5465,10911 L 5465,10761"/>
 <path fill="none" stroke="rgb(0,0,0)" stroke-width="30" stroke-linejoin="round" d="M 5465,10911 L 5465,10761"/>
 <path fill="none" stroke="rgb(0,0,0)" stroke-width="30" stroke-linejoin="round" d="M 5581,10911 L 5581,10761"/>
 <path fill="none" stroke="rgb(0,0,0)" stroke-width="30" stroke-linejoin="round" d="M 5581,10911 L 5581,10761"/>
 <path fill="none" stroke="rgb(0,0,0)" stroke-width="30" stroke-linejoin="round" d="M 5696,10911 L 5696,10761"/>
 <path fill="none" stroke="rgb(0,0,0)" stroke-width="30" stroke-linejoin="round" d="M 5696,10911 L 5696,10761"/>
 <path fill="none" stroke="rgb(0,0,0)" stroke-width="30" stroke-linejoin="round" d="M 5811,10911 L 5811,10761"/>
 <path fill="none" stroke="rgb(0,0,0)" stroke-width="30" stroke-linejoin="round" d="M 5811,10911 L 5811,10761"/>
 <path fill="none" stroke="rgb(0,0,0)" stroke-width="30" stroke-linejoin="round" d="M 5927,10911 L 5927,10761"/>
 <path fill="none" stroke="rgb(0,0,0)" stroke-width="30" stroke-linejoin="round" d="M 5927,10911 L 5927,10761"/>
 <path fill="none" stroke="rgb(0,0,0)" stroke-width="30" stroke-linejoin="round" d="M 6042,10911 L 6042,10761"/>
 <path fill="none" stroke="rgb(0,0,0)" stroke-width="30" stroke-linejoin="round" d="M 6042,10911 L 6042,10761"/>
 <path fill="none" stroke="rgb(0,0,0)" stroke-width="30" stroke-linejoin="round" d="M 6157,10911 L 6157,10761"/>
 <path fill="none" stroke="rgb(0,0,0)" stroke-width="30" stroke-linejoin="round" d="M 6157,10911 L 6157,10761"/>
 <path fill="none" stroke="rgb(0,0,0)" stroke-width="30" stroke-linejoin="round" d="M 6273,10911 L 6273,10761"/>
 <path fill="none" stroke="rgb(0,0,0)" stroke-width="30" stroke-linejoin="round" d="M 6273,10911 L 6273,10761"/>
 <path fill="none" stroke="rgb(0,0,0)" stroke-width="30" stroke-linejoin="round" d="M 6388,10911 L 6388,10761"/>
 <path fill="none" stroke="rgb(0,0,0)" stroke-width="30" stroke-linejoin="round" d="M 6388,10911 L 6388,10761"/>
 <path fill="none" stroke="rgb(0,0,0)" stroke-width="30" stroke-linejoin="round" d="M 6503,10911 L 6503,10761"/>
 <path fill="none" stroke="rgb(0,0,0)" stroke-width="30" stroke-linejoin="round" d="M 6503,10911 L 6503,10761"/>
 <path fill="none" stroke="rgb(0,0,0)" stroke-width="30" stroke-linejoin="round" d="M 6619,10911 L 6619,10761"/>
 <path fill="none" stroke="rgb(0,0,0)" stroke-width="30" stroke-linejoin="round" d="M 6619,10911 L 6619,10761"/>
 <path fill="none" stroke="rgb(0,0,0)" stroke-width="30" stroke-linejoin="round" d="M 6734,10911 L 6734,10761"/>
 <path fill="none" stroke="rgb(0,0,0)" stroke-width="30" stroke-linejoin="round" d="M 6734,10911 L 6734,10761"/>
 <path fill="none" stroke="rgb(0,0,0)" stroke-width="30" stroke-linejoin="round" d="M 6850,10911 L 6850,10761"/>
 <path fill="none" stroke="rgb(0,0,0)" stroke-width="30" stroke-linejoin="round" d="M 6850,10911 L 6850,10761"/>
 <path fill="none" stroke="rgb(0,0,0)" stroke-width="30" stroke-linejoin="round" d="M 6965,10911 L 6965,10761"/>
 <path fill="none" stroke="rgb(0,0,0)" stroke-width="30" stroke-linejoin="round" d="M 6965,10911 L 6965,10761"/>
 <path fill="none" stroke="rgb(0,0,0)" stroke-width="30" stroke-linejoin="round" d="M 7080,10911 L 7080,10761"/>
 <path fill="none" stroke="rgb(0,0,0)" stroke-width="30" stroke-linejoin="round" d="M 7080,10911 L 7080,10761"/>
 <path fill="none" stroke="rgb(0,0,0)" stroke-width="30" stroke-linejoin="round" d="M 7196,10911 L 7196,10761"/>
 <path fill="none" stroke="rgb(0,0,0)" stroke-width="30" stroke-linejoin="round" d="M 7196,10911 L 7196,10761"/>
 <path fill="none" stroke="rgb(0,0,0)" stroke-width="30" stroke-linejoin="round" d="M 7311,10911 L 7311,10761"/>
 <path fill="none" stroke="rgb(0,0,0)" stroke-width="30" stroke-linejoin="round" d="M 7311,10911 L 7311,10761"/>
 <path fill="none" stroke="rgb(0,0,0)" stroke-width="30" stroke-linejoin="round" d="M 7426,10911 L 7426,10761"/>
 <path fill="none" stroke="rgb(0,0,0)" stroke-width="30" stroke-linejoin="round" d="M 7426,10911 L 7426,10761"/>
 <path fill="none" stroke="rgb(0,0,0)" stroke-width="30" stroke-linejoin="round" d="M 7542,10911 L 7542,10761"/>
 <path fill="none" stroke="rgb(0,0,0)" stroke-width="30" stroke-linejoin="round" d="M 7542,10911 L 7542,10761"/>
 <path fill="none" stroke="rgb(0,0,0)" stroke-width="30" stroke-linejoin="round" d="M 7657,10911 L 7657,10761"/>
 <path fill="none" stroke="rgb(0,0,0)" stroke-width="30" stroke-linejoin="round" d="M 7657,10911 L 7657,10761"/>
 <path fill="none" stroke="rgb(0,0,0)" stroke-width="30" stroke-linejoin="round" d="M 7772,10911 L 7772,10761"/>
 <path fill="none" stroke="rgb(0,0,0)" stroke-width="30" stroke-linejoin="round" d="M 7772,10911 L 7772,10761"/>
 <path fill="none" stroke="rgb(0,0,0)" stroke-width="30" stroke-linejoin="round" d="M 7888,10911 L 7888,10761"/>
 <path fill="none" stroke="rgb(0,0,0)" stroke-width="30" stroke-linejoin="round" d="M 7888,10911 L 7888,10761"/>
 <path fill="none" stroke="rgb(0,0,0)" stroke-width="30" stroke-linejoin="round" d="M 8003,10911 L 8003,10761"/>
 <path fill="none" stroke="rgb(0,0,0)" stroke-width="30" stroke-linejoin="round" d="M 8003,10911 L 8003,10761"/>
 <path fill="none" stroke="rgb(0,0,0)" stroke-width="30" stroke-linejoin="round" d="M 8119,10911 L 8119,10761"/>
 <path fill="none" stroke="rgb(0,0,0)" stroke-width="30" stroke-linejoin="round" d="M 8119,10911 L 8119,10761"/>
 <path fill="none" stroke="rgb(0,0,0)" stroke-width="30" stroke-linejoin="round" d="M 8233,10911 L 8233,10761"/>
 <path fill="none" stroke="rgb(0,0,0)" stroke-width="30" stroke-linejoin="round" d="M 8233,10911 L 8233,10761"/>
 <path fill="none" stroke="rgb(0,0,0)" stroke-width="30" stroke-linejoin="round" d="M 8348,10911 L 8348,10761"/>
 <path fill="none" stroke="rgb(0,0,0)" stroke-width="30" stroke-linejoin="round" d="M 8348,10911 L 8348,10761"/>
 <path fill="none" stroke="rgb(0,0,0)" stroke-width="30" stroke-linejoin="round" d="M 8464,10911 L 8464,10761"/>
 <path fill="none" stroke="rgb(0,0,0)" stroke-width="30" stroke-linejoin="round" d="M 8464,10911 L 8464,10761"/>
 <path fill="none" stroke="rgb(0,0,0)" stroke-width="30" stroke-linejoin="round" d="M 8579,10911 L 8579,10761"/>
 <path fill="none" stroke="rgb(0,0,0)" stroke-width="30" stroke-linejoin="round" d="M 8579,10911 L 8579,10761"/>
 <path fill="none" stroke="rgb(0,0,0)" stroke-width="30" stroke-linejoin="round" d="M 8694,10911 L 8694,10761"/>
 <path fill="none" stroke="rgb(0,0,0)" stroke-width="30" stroke-linejoin="round" d="M 8694,10911 L 8694,10761"/>
 <path fill="none" stroke="rgb(0,0,0)" stroke-width="30" stroke-linejoin="round" d="M 8810,10911 L 8810,10761"/>
 <path fill="none" stroke="rgb(0,0,0)" stroke-width="30" stroke-linejoin="round" d="M 8810,10911 L 8810,10761"/>
 <path fill="none" stroke="rgb(0,0,0)" stroke-width="30" stroke-linejoin="round" d="M 8925,10911 L 8925,10761"/>
 <path fill="none" stroke="rgb(0,0,0)" stroke-width="30" stroke-linejoin="round" d="M 8925,10911 L 8925,10761"/>
 <path fill="none" stroke="rgb(0,0,0)" stroke-width="30" stroke-linejoin="round" d="M 9040,10911 L 9040,10761"/>
 <path fill="none" stroke="rgb(0,0,0)" stroke-width="30" stroke-linejoin="round" d="M 9040,10911 L 9040,10761"/>
 <path fill="none" stroke="rgb(0,0,0)" stroke-width="30" stroke-linejoin="round" d="M 9156,10911 L 9156,10761"/>
 <path fill="none" stroke="rgb(0,0,0)" stroke-width="30" stroke-linejoin="round" d="M 9156,10911 L 9156,10761"/>
 <path fill="none" stroke="rgb(0,0,0)" stroke-width="30" stroke-linejoin="round" d="M 9271,10911 L 9271,10761"/>
 <path fill="none" stroke="rgb(0,0,0)" stroke-width="30" stroke-linejoin="round" d="M 9271,10911 L 9271,10761"/>
 <path fill="none" stroke="rgb(0,0,0)" stroke-width="30" stroke-linejoin="round" d="M 9386,10911 L 9386,10761"/>
 <path fill="none" stroke="rgb(0,0,0)" stroke-width="30" stroke-linejoin="round" d="M 9386,10911 L 9386,10761"/>
 <path fill="none" stroke="rgb(0,0,0)" stroke-width="30" stroke-linejoin="round" d="M 9502,10911 L 9502,10761"/>
 <path fill="none" stroke="rgb(0,0,0)" stroke-width="30" stroke-linejoin="round" d="M 9502,10911 L 9502,10761"/>
 <path fill="none" stroke="rgb(0,0,0)" stroke-width="30" stroke-linejoin="round" d="M 9617,10911 L 9617,10761"/>
 <path fill="none" stroke="rgb(0,0,0)" stroke-width="30" stroke-linejoin="round" d="M 9617,10911 L 9617,10761"/>
 <path fill="none" stroke="rgb(0,0,0)" stroke-width="30" stroke-linejoin="round" d="M 9733,10911 L 9733,10761"/>
 <path fill="none" stroke="rgb(0,0,0)" stroke-width="30" stroke-linejoin="round" d="M 9733,10911 L 9733,10761"/>
 <path fill="none" stroke="rgb(0,0,0)" stroke-width="30" stroke-linejoin="round" d="M 9848,10911 L 9848,10761"/>
 <path fill="none" stroke="rgb(0,0,0)" stroke-width="30" stroke-linejoin="round" d="M 9848,10911 L 9848,10761"/>
 <path fill="none" stroke="rgb(0,0,0)" stroke-width="30" stroke-linejoin="round" d="M 9963,10911 L 9963,10761"/>
 <path fill="none" stroke="rgb(0,0,0)" stroke-width="30" stroke-linejoin="round" d="M 9963,10911 L 9963,10761"/>
 <path fill="none" stroke="rgb(0,0,0)" stroke-width="30" stroke-linejoin="round" d="M 10079,10911 L 10079,10761"/>
 <path fill="none" stroke="rgb(0,0,0)" stroke-width="30" stroke-linejoin="round" d="M 10079,10911 L 10079,10761"/>
 <path fill="none" stroke="rgb(0,0,0)" stroke-width="30" stroke-linejoin="round" d="M 10194,10911 L 10194,10761"/>
 <path fill="none" stroke="rgb(0,0,0)" stroke-width="30" stroke-linejoin="round" d="M 10194,10911 L 10194,10761"/>
 <path fill="none" stroke="rgb(0,0,0)" stroke-width="30" stroke-linejoin="round" d="M 10309,10911 L 10309,10761"/>
 <path fill="none" stroke="rgb(0,0,0)" stroke-width="30" stroke-linejoin="round" d="M 10309,10911 L 10309,10761"/>
 <path fill="none" stroke="rgb(0,0,0)" stroke-width="30" stroke-linejoin="round" d="M 10425,10911 L 10425,10761"/>
 <path fill="none" stroke="rgb(0,0,0)" stroke-width="30" stroke-linejoin="round" d="M 10425,10911 L 10425,10761"/>
 <path fill="none" stroke="rgb(0,0,0)" stroke-width="30" stroke-linejoin="round" d="M 10540,10911 L 10540,10761"/>
 <path fill="none" stroke="rgb(0,0,0)" stroke-width="30" stroke-linejoin="round" d="M 10540,10911 L 10540,10761"/>
 <path fill="none" stroke="rgb(0,0,0)" stroke-width="30" stroke-linejoin="round" d="M 10655,10911 L 10655,10761"/>
 <path fill="none" stroke="rgb(0,0,0)" stroke-width="30" stroke-linejoin="round" d="M 10655,10911 L 10655,10761"/>
 <path fill="none" stroke="rgb(0,0,0)" stroke-width="30" stroke-linejoin="round" d="M 10771,10911 L 10771,10761"/>
 <path fill="none" stroke="rgb(0,0,0)" stroke-width="30" stroke-linejoin="round" d="M 10771,10911 L 10771,10761"/>
 <path fill="none" stroke="rgb(0,0,0)" stroke-width="30" stroke-linejoin="round" d="M 10886,10911 L 10886,10761"/>
 <path fill="none" stroke="rgb(0,0,0)" stroke-width="30" stroke-linejoin="round" d="M 10886,10911 L 10886,10761"/>
 <path fill="none" stroke="rgb(0,0,0)" stroke-width="30" stroke-linejoin="round" d="M 11002,10911 L 11002,10761"/>
 <path fill="none" stroke="rgb(0,0,0)" stroke-width="30" stroke-linejoin="round" d="M 11002,10911 L 11002,10761"/>
 <path fill="none" stroke="rgb(0,0,0)" stroke-width="30" stroke-linejoin="round" d="M 11117,10911 L 11117,10761"/>
 <path fill="none" stroke="rgb(0,0,0)" stroke-width="30" stroke-linejoin="round" d="M 11117,10911 L 11117,10761"/>
 <path fill="none" stroke="rgb(0,0,0)" stroke-width="30" stroke-linejoin="round" d="M 11232,10911 L 11232,10761"/>
 <path fill="none" stroke="rgb(0,0,0)" stroke-width="30" stroke-linejoin="round" d="M 11232,10911 L 11232,10761"/>
 <path fill="none" stroke="rgb(0,0,0)" stroke-width="30" stroke-linejoin="round" d="M 11348,10911 L 11348,10761"/>
 <path fill="none" stroke="rgb(0,0,0)" stroke-width="30" stroke-linejoin="round" d="M 11348,10911 L 11348,10761"/>
 <path fill="none" stroke="rgb(0,0,0)" stroke-width="30" stroke-linejoin="round" d="M 11463,10911 L 11463,10761"/>
 <path fill="none" stroke="rgb(0,0,0)" stroke-width="30" stroke-linejoin="round" d="M 11463,10911 L 11463,10761"/>
 <path fill="none" stroke="rgb(0,0,0)" stroke-width="30" stroke-linejoin="round" d="M 11578,10911 L 11578,10761"/>
 <path fill="none" stroke="rgb(0,0,0)" stroke-width="30" stroke-linejoin="round" d="M 11578,10911 L 11578,10761"/>
 <path fill="none" stroke="rgb(0,0,0)" stroke-width="30" stroke-linejoin="round" d="M 11694,10911 L 11694,10761"/>
 <path fill="none" stroke="rgb(0,0,0)" stroke-width="30" stroke-linejoin="round" d="M 11694,10911 L 11694,10761"/>
 <path fill="none" stroke="rgb(0,0,0)" stroke-width="30" stroke-linejoin="round" d="M 11809,10911 L 11809,10761"/>
 <path fill="none" stroke="rgb(0,0,0)" stroke-width="30" stroke-linejoin="round" d="M 11809,10911 L 11809,10761"/>
 <path fill="none" stroke="rgb(0,0,0)" stroke-width="30" stroke-linejoin="round" d="M 11924,10911 L 11924,10761"/>
 <path fill="none" stroke="rgb(0,0,0)" stroke-width="30" stroke-linejoin="round" d="M 11924,10911 L 11924,10761"/>
 <path fill="none" stroke="rgb(0,0,0)" stroke-width="30" stroke-linejoin="round" d="M 12040,10911 L 12040,10761"/>
 <path fill="none" stroke="rgb(0,0,0)" stroke-width="30" stroke-linejoin="round" d="M 12040,10911 L 12040,10761"/>
 <path fill="none" stroke="rgb(0,0,0)" stroke-width="30" stroke-linejoin="round" d="M 12155,10911 L 12155,10761"/>
 <path fill="none" stroke="rgb(0,0,0)" stroke-width="30" stroke-linejoin="round" d="M 12155,10911 L 12155,10761"/>
 <path fill="none" stroke="rgb(0,0,0)" stroke-width="30" stroke-linejoin="round" d="M 12271,10911 L 12271,10761"/>
 <path fill="none" stroke="rgb(0,0,0)" stroke-width="30" stroke-linejoin="round" d="M 12271,10911 L 12271,10761"/>
 <path fill="none" stroke="rgb(0,0,0)" stroke-width="30" stroke-linejoin="round" d="M 12386,10911 L 12386,10761"/>
 <path fill="none" stroke="rgb(0,0,0)" stroke-width="30" stroke-linejoin="round" d="M 12386,10911 L 12386,10761"/>
 <path fill="none" stroke="rgb(0,0,0)" stroke-width="30" stroke-linejoin="round" d="M 12501,10911 L 12501,10761"/>
 <path fill="none" stroke="rgb(0,0,0)" stroke-width="30" stroke-linejoin="round" d="M 12501,10911 L 12501,10761"/>
 <path fill="none" stroke="rgb(0,0,0)" stroke-width="30" stroke-linejoin="round" d="M 12617,10911 L 12617,10761"/>
 <path fill="none" stroke="rgb(0,0,0)" stroke-width="30" stroke-linejoin="round" d="M 12617,10911 L 12617,10761"/>
 <path fill="none" stroke="rgb(0,0,0)" stroke-width="30" stroke-linejoin="round" d="M 12732,10911 L 12732,10761"/>
 <path fill="none" stroke="rgb(0,0,0)" stroke-width="30" stroke-linejoin="round" d="M 12732,10911 L 12732,10761"/>
 <path fill="none" stroke="rgb(0,0,0)" stroke-width="30" stroke-linejoin="round" d="M 12847,10911 L 12847,10761"/>
 <path fill="none" stroke="rgb(0,0,0)" stroke-width="30" stroke-linejoin="round" d="M 12847,10911 L 12847,10761"/>
 <path fill="none" stroke="rgb(0,0,0)" stroke-width="30" stroke-linejoin="round" d="M 12963,10911 L 12963,10761"/>
 <path fill="none" stroke="rgb(0,0,0)" stroke-width="30" stroke-linejoin="round" d="M 12963,10911 L 12963,10761"/>
 <path fill="none" stroke="rgb(0,0,0)" stroke-width="30" stroke-linejoin="round" d="M 13078,10911 L 13078,10761"/>
 <path fill="none" stroke="rgb(0,0,0)" stroke-width="30" stroke-linejoin="round" d="M 13078,10911 L 13078,10761"/>
 <path fill="none" stroke="rgb(0,0,0)" stroke-width="30" stroke-linejoin="round" d="M 13193,10911 L 13193,10761"/>
 <path fill="none" stroke="rgb(0,0,0)" stroke-width="30" stroke-linejoin="round" d="M 13193,10911 L 13193,10761"/>
 <path fill="none" stroke="rgb(0,0,0)" stroke-width="30" stroke-linejoin="round" d="M 13309,10911 L 13309,10761"/>
 <path fill="none" stroke="rgb(0,0,0)" stroke-width="30" stroke-linejoin="round" d="M 13309,10911 L 13309,10761"/>
 <path fill="none" stroke="rgb(0,0,0)" stroke-width="30" stroke-linejoin="round" d="M 13424,10911 L 13424,10761"/>
 <path fill="none" stroke="rgb(0,0,0)" stroke-width="30" stroke-linejoin="round" d="M 13424,10911 L 13424,10761"/>
 <path fill="none" stroke="rgb(0,0,0)" stroke-width="30" stroke-linejoin="round" d="M 13540,10911 L 13540,10761"/>
 <path fill="none" stroke="rgb(0,0,0)" stroke-width="30" stroke-linejoin="round" d="M 13540,10911 L 13540,10761"/>
 <path fill="none" stroke="rgb(0,0,0)" stroke-width="30" stroke-linejoin="round" d="M 13655,10911 L 13655,10761"/>
 <path fill="none" stroke="rgb(0,0,0)" stroke-width="30" stroke-linejoin="round" d="M 13655,10911 L 13655,10761"/>
 <path fill="none" stroke="rgb(0,0,0)" stroke-width="30" stroke-linejoin="round" d="M 13770,10911 L 13770,10761"/>
 <path fill="none" stroke="rgb(0,0,0)" stroke-width="30" stroke-linejoin="round" d="M 13770,10911 L 13770,10761"/>
 <path fill="none" stroke="rgb(0,0,0)" stroke-width="30" stroke-linejoin="round" d="M 13886,10911 L 13886,10761"/>
 <path fill="none" stroke="rgb(0,0,0)" stroke-width="30" stroke-linejoin="round" d="M 13886,10911 L 13886,10761"/>
 <path fill="none" stroke="rgb(0,0,0)" stroke-width="30" stroke-linejoin="round" d="M 14001,10911 L 14001,10761"/>
 <path fill="none" stroke="rgb(0,0,0)" stroke-width="30" stroke-linejoin="round" d="M 14001,10911 L 14001,10761"/>
 <path fill="none" stroke="rgb(0,0,0)" stroke-width="30" stroke-linejoin="round" d="M 14116,10911 L 14116,10761"/>
 <path fill="none" stroke="rgb(0,0,0)" stroke-width="30" stroke-linejoin="round" d="M 14116,10911 L 14116,10761"/>
 <path fill="none" stroke="rgb(0,0,0)" stroke-width="30" stroke-linejoin="round" d="M 14232,10911 L 14232,10761"/>
 <path fill="none" stroke="rgb(0,0,0)" stroke-width="30" stroke-linejoin="round" d="M 14232,10911 L 14232,10761"/>
 <path fill="none" stroke="rgb(0,0,0)" stroke-width="30" stroke-linejoin="round" d="M 14347,10911 L 14347,10761"/>
 <path fill="none" stroke="rgb(0,0,0)" stroke-width="30" stroke-linejoin="round" d="M 14347,10911 L 14347,10761"/>
 <path fill="none" stroke="rgb(0,0,0)" stroke-width="30" stroke-linejoin="round" d="M 14462,10911 L 14462,10761"/>
 <path fill="none" stroke="rgb(0,0,0)" stroke-width="30" stroke-linejoin="round" d="M 14462,10911 L 14462,10761"/>
 <path fill="none" stroke="rgb(0,0,0)" stroke-width="30" stroke-linejoin="round" d="M 14578,10911 L 14578,10761"/>
 <path fill="none" stroke="rgb(0,0,0)" stroke-width="30" stroke-linejoin="round" d="M 14578,10911 L 14578,10761"/>
 <path fill="none" stroke="rgb(0,0,0)" stroke-width="30" stroke-linejoin="round" d="M 14693,10911 L 14693,10761"/>
 <path fill="none" stroke="rgb(0,0,0)" stroke-width="30" stroke-linejoin="round" d="M 14693,10911 L 14693,10761"/>
 <path fill="none" stroke="rgb(0,0,0)" stroke-width="30" stroke-linejoin="round" d="M 14809,10911 L 14809,10761"/>
 <path fill="none" stroke="rgb(0,0,0)" stroke-width="30" stroke-linejoin="round" d="M 14809,10911 L 14809,10761"/>
 <path fill="none" stroke="rgb(0,0,0)" stroke-width="30" stroke-linejoin="round" d="M 1428,10761 L 14809,10761"/>
 <path fill="none" stroke="rgb(0,0,0)" stroke-width="30" stroke-linejoin="round" d="M 1278,10761 L 1428,10761"/>
 <path fill="none" stroke="rgb(0,0,0)" stroke-width="30" stroke-linejoin="round" d="M 1278,10761 L 1428,10761"/>
 <path fill="none" stroke="rgb(0,0,0)" stroke-width="30" stroke-linejoin="round" d="M 1278,9794 L 1428,9794"/>
 <path fill="none" stroke="rgb(0,0,0)" stroke-width="30" stroke-linejoin="round" d="M 1278,9794 L 1428,9794"/>
 <path fill="none" stroke="rgb(0,0,0)" stroke-width="30" stroke-linejoin="round" d="M 1278,8827 L 1428,8827"/>
 <path fill="none" stroke="rgb(0,0,0)" stroke-width="30" stroke-linejoin="round" d="M 1278,8827 L 1428,8827"/>
 <path fill="none" stroke="rgb(0,0,0)" stroke-width="30" stroke-linejoin="round" d="M 1278,7860 L 1428,7860"/>
 <path fill="none" stroke="rgb(0,0,0)" stroke-width="30" stroke-linejoin="round" d="M 1278,7860 L 1428,7860"/>
 <path fill="none" stroke="rgb(0,0,0)" stroke-width="30" stroke-linejoin="round" d="M 1278,6893 L 1428,6893"/>
 <path fill="none" stroke="rgb(0,0,0)" stroke-width="30" stroke-linejoin="round" d="M 1278,6893 L 1428,6893"/>
 <path fill="none" stroke="rgb(0,0,0)" stroke-width="30" stroke-linejoin="round" d="M 1278,5927 L 1428,5927"/>
 <path fill="none" stroke="rgb(0,0,0)" stroke-width="30" stroke-linejoin="round" d="M 1278,5927 L 1428,5927"/>
 <path fill="none" stroke="rgb(0,0,0)" stroke-width="30" stroke-linejoin="round" d="M 1278,4959 L 1428,4959"/>
 <path fill="none" stroke="rgb(0,0,0)" stroke-width="30" stroke-linejoin="round" d="M 1278,4959 L 1428,4959"/>
 <path fill="none" stroke="rgb(0,0,0)" stroke-width="30" stroke-linejoin="round" d="M 1278,3992 L 1428,3992"/>
 <path fill="none" stroke="rgb(0,0,0)" stroke-width="30" stroke-linejoin="round" d="M 1278,3992 L 1428,3992"/>
 <path fill="none" stroke="rgb(0,0,0)" stroke-width="30" stroke-linejoin="round" d="M 1278,3026 L 1428,3026"/>
 <path fill="none" stroke="rgb(0,0,0)" stroke-width="30" stroke-linejoin="round" d="M 1278,3026 L 1428,3026"/>
 <path fill="none" stroke="rgb(0,0,0)" stroke-width="30" stroke-linejoin="round" d="M 1278,2059 L 1428,2059"/>
 <path fill="none" stroke="rgb(0,0,0)" stroke-width="30" stroke-linejoin="round" d="M 1278,2059 L 1428,2059"/>
 <path fill="none" stroke="rgb(0,0,0)" stroke-width="30" stroke-linejoin="round" d="M 1278,1092 L 1428,1092"/>
 <path fill="none" stroke="rgb(0,0,0)" stroke-width="30" stroke-linejoin="round" d="M 1278,1092 L 1428,1092"/>
 <path fill="none" stroke="rgb(0,0,0)" stroke-width="30" stroke-linejoin="round" d="M 1428,10761 L 1428,1092"/>
 <path fill="none" stroke="rgb(0,0,0)" stroke-width="30" stroke-linejoin="round" d="M 14959,10761 L 14809,10761"/>
 <path fill="none" stroke="rgb(0,0,0)" stroke-width="30" stroke-linejoin="round" d="M 14959,10761 L 14809,10761"/>
 <path fill="none" stroke="rgb(0,0,0)" stroke-width="30" stroke-linejoin="round" d="M 14959,9794 L 14809,9794"/>
 <path fill="none" stroke="rgb(0,0,0)" stroke-width="30" stroke-linejoin="round" d="M 14959,9794 L 14809,9794"/>
 <path fill="none" stroke="rgb(0,0,0)" stroke-width="30" stroke-linejoin="round" d="M 14959,8827 L 14809,8827"/>
 <path fill="none" stroke="rgb(0,0,0)" stroke-width="30" stroke-linejoin="round" d="M 14959,8827 L 14809,8827"/>
 <path fill="none" stroke="rgb(0,0,0)" stroke-width="30" stroke-linejoin="round" d="M 14959,7860 L 14809,7860"/>
 <path fill="none" stroke="rgb(0,0,0)" stroke-width="30" stroke-linejoin="round" d="M 14959,7860 L 14809,7860"/>
 <path fill="none" stroke="rgb(0,0,0)" stroke-width="30" stroke-linejoin="round" d="M 14959,6893 L 14809,6893"/>
 <path fill="none" stroke="rgb(0,0,0)" stroke-width="30" stroke-linejoin="round" d="M 14959,6893 L 14809,6893"/>
 <path fill="none" stroke="rgb(0,0,0)" stroke-width="30" stroke-linejoin="round" d="M 14959,5927 L 14809,5927"/>
 <path fill="none" stroke="rgb(0,0,0)" stroke-width="30" stroke-linejoin="round" d="M 14959,5927 L 14809,5927"/>
 <path fill="none" stroke="rgb(0,0,0)" stroke-width="30" stroke-linejoin="round" d="M 14959,4959 L 14809,4959"/>
 <path fill="none" stroke="rgb(0,0,0)" stroke-width="30" stroke-linejoin="round" d="M 14959,4959 L 14809,4959"/>
 <path fill="none" stroke="rgb(0,0,0)" stroke-width="30" stroke-linejoin="round" d="M 14959,3992 L 14809,3992"/>
 <path fill="none" stroke="rgb(0,0,0)" stroke-width="30" stroke-linejoin="round" d="M 14959,3992 L 14809,3992"/>
 <path fill="none" stroke="rgb(0,0,0)" stroke-width="30" stroke-linejoin="round" d="M 14959,3026 L 14809,3026"/>
 <path fill="none" stroke="rgb(0,0,0)" stroke-width="30" stroke-linejoin="round" d="M 14959,3026 L 14809,3026"/>
 <path fill="none" stroke="rgb(0,0,0)" stroke-width="30" stroke-linejoin="round" d="M 14959,2059 L 14809,2059"/>
 <path fill="none" stroke="rgb(0,0,0)" stroke-width="30" stroke-linejoin="round" d="M 14959,2059 L 14809,2059"/>
 <path fill="none" stroke="rgb(0,0,0)" stroke-width="30" stroke-linejoin="round" d="M 14959,1092 L 14809,1092"/>
 <path fill="none" stroke="rgb(0,0,0)" stroke-width="30" stroke-linejoin="round" d="M 14959,1092 L 14809,1092"/>
 <path fill="none" stroke="rgb(0,0,0)" stroke-width="30" stroke-linejoin="round" d="M 14809,10761 L 14809,1092"/>
 <path fill="rgb(0,69,134)" stroke="none" d="M 1428,9454 L 1543,9499 1658,9450 1774,9420 1889,9489 2004,9466 2120,9448 2235,9463 2350,9459 2466,9445 2581,9434 2696,9445 2812,9476 2927,9476 3043,9493 3158,9488 3273,9497 3389,9496 3504,9505 3619,9512 3735,9520 3850,9552 3965,9530 4081,9556 4196,9575 4312,9585 4427,9597 4542,9582 4658,9586 4773,9580 4888,9554 5004,9527 5119,9558 5234,9565 5350,9559 5465,9588 5581,9611 5696,9642 5811,9694 5927,9660 6042,9622 6157,9648 6273,9643 6388,9669 6503,9740 6619,9722 6734,9708 6850,9712 6965,9742 7080,9790 7196,9801 7311,9803 7426,9849 7542,9895 7657,9880 7772,9894 7888,9903 8003,9913 8119,9939 8233,9947 8348,9979 8464,10063 8579,10042 8694,10039 8810,10047 8925,10031 9040,10015 9156,10048 9271,10073 9386,10111 9502,10109 9617,10095 9733,10112 9848,10153 9963,10146 10079,10138 10194,10151 10309,10131 10425,10093 10540,10061 10655,10046 10771,10085 10886,10063 11002,10109 11117,10145 11232,10160 11348,10200 11463,10200 11578,10202 11694,10210 11809,10231 11924,10237 12040,10257 12155,10272 12271,10271 12386,10274 12501,10319 12617,10354 12732,10371 12847,10350 12963,10371 13078,10394 13193,10398 13309,10405 13424,10422 13540,10417 13655,10427 13770,10438 13886,10457 14001,10486 14116,10496 14232,10483 14347,10486 14462,10493 14578,10489 14693,10500 14809,10519 14809,10761 1428,10761 1428,9454 Z"/>
 <path fill="none" stroke="rgb(0,0,0)" stroke-linejoin="round" d="M 1428,9454 L 1543,9499 1658,9450 1774,9420 1889,9489 2004,9466 2120,9448 2235,9463 2350,9459 2466,9445 2581,9434 2696,9445 2812,9476 2927,9476 3043,9493 3158,9488 3273,9497 3389,9496 3504,9505 3619,9512 3735,9520 3850,9552 3965,9530 4081,9556 4196,9575 4312,9585 4427,9597 4542,9582 4658,9586 4773,9580 4888,9554 5004,9527 5119,9558 5234,9565 5350,9559 5465,9588 5581,9611 5696,9642 5811,9694 5927,9660 6042,9622 6157,9648 6273,9643 6388,9669 6503,9740 6619,9722 6734,9708 6850,9712 6965,9742 7080,9790 7196,9801 7311,9803 7426,9849 7542,9895 7657,9880 7772,9894 7888,9903 8003,9913 8119,9939 8233,9947 8348,9979 8464,10063 8579,10042 8694,10039 8810,10047 8925,10031 9040,10015 9156,10048 9271,10073 9386,10111 9502,10109 9617,10095 9733,10112 9848,10153 9963,10146 10079,10138 10194,10151 10309,10131 10425,10093 10540,10061 10655,10046 10771,10085 10886,10063 11002,10109 11117,10145 11232,10160 11348,10200 11463,10200 11578,10202 11694,10210 11809,10231 11924,10237 12040,10257 12155,10272 12271,10271 12386,10274 12501,10319 12617,10354 12732,10371 12847,10350 12963,10371 13078,10394 13193,10398 13309,10405 13424,10422 13540,10417 13655,10427 13770,10438 13886,10457 14001,10486 14116,10496 14232,10483 14347,10486 14462,10493 14578,10489 14693,10500 14809,10519 14809,10761 1428,10761 1428,9454 Z"/>
 <path fill="rgb(255,66,14)" stroke="none" d="M 1428,3687 L 1543,3793 1658,3927 1774,3993 1889,4124 2004,4074 2120,4255 2235,4373 2350,4428 2466,4537 2581,4630 2696,4679 2812,4862 2927,4973 3043,5131 3158,5165 3273,5242 3389,5317 3504,5378 3619,5462 3735,5535 3850,5639 3965,5707 4081,5773 4196,5912 4312,6016 4427,6214 4542,6254 4658,6352 4773,6431 4888,6422 5004,6428 5119,6520 5234,6629 5350,6664 5465,6727 5581,6754 5696,6856 5811,7017 5927,6990 6042,6988 6157,7074 6273,7101 6388,7169 6503,7293 6619,7346 6734,7378 6850,7511 6965,7479 7080,7420 7196,7465 7311,7532 7426,7596 7542,7595 7657,7675 7772,7798 7888,7845 8003,7887 8119,7868 8233,7952 8348,7968 8464,7891 8579,7973 8694,7878 8810,7935 8925,7981 9040,8001 9156,8023 9271,8026 9386,8214 9502,8256 9617,8324 9733,8341 9848,8386 9963,8385 10079,8431 10194,8482 10309,8494 10425,8511 10540,8482 10655,8314 10771,8473 10886,8530 11002,8607 11117,8651 11232,8668 11348,8588 11463,8588 11578,8807 11694,8881 11809,8920 11924,8950 12040,8976 12155,9008 12271,9101 12386,9108 12501,9159 12617,9173 12732,9230 12847,9263 12963,9325 13078,9273 13193,9324 13309,9385 13424,9383 13540,9469 13655,9525 13770,9489 13886,9561 14001,9516 14116,9541 14232,9543 14347,9535 14462,9504 14578,9570 14693,9595 14809,9565 14809,10519 14693,10500 14578,10489 14462,10493 14347,10486 14232,10483 14116,10496 14001,10486 13886,10457 13770,10438 13655,10427 13540,10417 13424,10422 13309,10405 13193,10398 13078,10394 12963,10371 12847,10350 12732,10371 12617,10354 12501,10319 12386,10274 12271,10271 12155,10272 12040,10257 11924,10237 11809,10231 11694,10210 11578,10202 11463,10200 11348,10200 11232,10160 11117,10145 11002,10109 10886,10063 10771,10085 10655,10046 10540,10061 10425,10093 10309,10131 10194,10151 10079,10138 9963,10146 9848,10153 9733,10112 9617,10095 9502,10109 9386,10111 9271,10073 9156,10048 9040,10015 8925,10031 8810,10047 8694,10039 8579,10042 8464,10063 8348,9979 8233,9947 8119,9939 8003,9913 7888,9903 7772,9894 7657,9880 7542,9895 7426,9849 7311,9803 7196,9801 7080,9790 6965,9742 6850,9712 6734,9708 6619,9722 6503,9740 6388,9669 6273,9643 6157,9648 6042,9622 5927,9660 5811,9694 5696,9642 5581,9611 5465,9588 5350,9559 5234,9565 5119,9558 5004,9527 4888,9554 4773,9580 4658,9586 4542,9582 4427,9597 4312,9585 4196,9575 4081,9556 3965,9530 3850,9552 3735,9520 3619,9512 3504,9505 3389,9496 3273,9497 3158,9488 3043,9493 2927,9476 2812,9476 2696,9445 2581,9434 2466,9445 2350,9459 2235,9463 2120,9448 2004,9466 1889,9489 1774,9420 1658,9450 1543,9499 1428,9454 1428,3687 Z"/>
 <path fill="none" stroke="rgb(0,0,0)" stroke-linejoin="round" d="M 1428,3687 L 1543,3793 1658,3927 1774,3993 1889,4124 2004,4074 2120,4255 2235,4373 2350,4428 2466,4537 2581,4630 2696,4679 2812,4862 2927,4973 3043,5131 3158,5165 3273,5242 3389,5317 3504,5378 3619,5462 3735,5535 3850,5639 3965,5707 4081,5773 4196,5912 4312,6016 4427,6214 4542,6254 4658,6352 4773,6431 4888,6422 5004,6428 5119,6520 5234,6629 5350,6664 5465,6727 5581,6754 5696,6856 5811,7017 5927,6990 6042,6988 6157,7074 6273,7101 6388,7169 6503,7293 6619,7346 6734,7378 6850,7511 6965,7479 7080,7420 7196,7465 7311,7532 7426,7596 7542,7595 7657,7675 7772,7798 7888,7845 8003,7887 8119,7868 8233,7952 8348,7968 8464,7891 8579,7973 8694,7878 8810,7935 8925,7981 9040,8001 9156,8023 9271,8026 9386,8214 9502,8256 9617,8324 9733,8341 9848,8386 9963,8385 10079,8431 10194,8482 10309,8494 10425,8511 10540,8482 10655,8314 10771,8473 10886,8530 11002,8607 11117,8651 11232,8668 11348,8588 11463,8588 11578,8807 11694,8881 11809,8920 11924,8950 12040,8976 12155,9008 12271,9101 12386,9108 12501,9159 12617,9173 12732,9230 12847,9263 12963,9325 13078,9273 13193,9324 13309,9385 13424,9383 13540,9469 13655,9525 13770,9489 13886,9561 14001,9516 14116,9541 14232,9543 14347,9535 14462,9504 14578,9570 14693,9595 14809,9565 14809,10519 14693,10500 14578,10489 14462,10493 14347,10486 14232,10483 14116,10496 14001,10486 13886,10457 13770,10438 13655,10427 13540,10417 13424,10422 13309,10405 13193,10398 13078,10394 12963,10371 12847,10350 12732,10371 12617,10354 12501,10319 12386,10274 12271,10271 12155,10272 12040,10257 11924,10237 11809,10231 11694,10210 11578,10202 11463,10200 11348,10200 11232,10160 11117,10145 11002,10109 10886,10063 10771,10085 10655,10046 10540,10061 10425,10093 10309,10131 10194,10151 10079,10138 9963,10146 9848,10153 9733,10112 9617,10095 9502,10109 9386,10111 9271,10073 9156,10048 9040,10015 8925,10031 8810,10047 8694,10039 8579,10042 8464,10063 8348,9979 8233,9947 8119,9939 8003,9913 7888,9903 7772,9894 7657,9880 7542,9895 7426,9849 7311,9803 7196,9801 7080,9790 6965,9742 6850,9712 6734,9708 6619,9722 6503,9740 6388,9669 6273,9643 6157,9648 6042,9622 5927,9660 5811,9694 5696,9642 5581,9611 5465,9588 5350,9559 5234,9565 5119,9558 5004,9527 4888,9554 4773,9580 4658,9586 4542,9582 4427,9597 4312,9585 4196,9575 4081,9556 3965,9530 3850,9552 3735,9520 3619,9512 3504,9505 3389,9496 3273,9497 3158,9488 3043,9493 2927,9476 2812,9476 2696,9445 2581,9434 2466,9445 2350,9459 2235,9463 2120,9448 2004,9466 1889,9489 1774,9420 1658,9450 1543,9499 1428,9454 1428,3687 Z"/>
 <path fill="rgb(255,211,32)" stroke="none" d="M 1428,1356 L 1543,1364 1658,1360 1774,1367 1889,1370 2004,1371 2120,1377 2235,1384 2350,1386 2466,1396 2581,1401 2696,1418 2812,1436 2927,1470 3043,1513 3158,1551 3273,1589 3389,1647 3504,1681 3619,1734 3735,1776 3850,1862 3965,1934 4081,2012 4196,2114 4312,2248 4427,2441 4542,2552 4658,2673 4773,2778 4888,2849 5004,2925 5119,3039 5234,3165 5350,3242 5465,3345 5581,3414 5696,3520 5811,3688 5927,3715 6042,3760 6157,3840 6273,3899 6388,4009 6503,4121 6619,4211 6734,4252 6850,4356 6965,4401 7080,4454 7196,4528 7311,4584 7426,4674 7542,4705 7657,4800 7772,4899 7888,4912 8003,4961 8119,5005 8233,5147 8348,5192 8464,5223 8579,5340 8694,5404 8810,5426 8925,5453 9040,5477 9156,5571 9271,5621 9386,5840 9502,5876 9617,5910 9733,5960 9848,6041 9963,6073 10079,6142 10194,6198 10309,6241 10425,6247 10540,6226 10655,6179 10771,6362 10886,6531 11002,6643 11117,6696 11232,6752 11348,6726 11463,6726 11578,6878 11694,6988 11809,7010 11924,7098 12040,7174 12155,7224 12271,7372 12386,7376 12501,7438 12617,7508 12732,7594 12847,7611 12963,7732 13078,7696 13193,7780 13309,7901 13424,7975 13540,8162 13655,8224 13770,8245 13886,8334 14001,8343 14116,8362 14232,8356 14347,8373 14462,8348 14578,8445 14693,8489 14809,8493 14809,9565 14693,9595 14578,9570 14462,9504 14347,9535 14232,9543 14116,9541 14001,9516 13886,9561 13770,9489 13655,9525 13540,9469 13424,9383 13309,9385 13193,9324 13078,9273 12963,9325 12847,9263 12732,9230 12617,9173 12501,9159 12386,9108 12271,9101 12155,9008 12040,8976 11924,8950 11809,8920 11694,8881 11578,8807 11463,8588 11348,8588 11232,8668 11117,8651 11002,8607 10886,8530 10771,8473 10655,8314 10540,8482 10425,8511 10309,8494 10194,8482 10079,8431 9963,8385 9848,8386 9733,8341 9617,8324 9502,8256 9386,8214 9271,8026 9156,8023 9040,8001 8925,7981 8810,7935 8694,7878 8579,7973 8464,7891 8348,7968 8233,7952 8119,7868 8003,7887 7888,7845 7772,7798 7657,7675 7542,7595 7426,7596 7311,7532 7196,7465 7080,7420 6965,7479 6850,7511 6734,7378 6619,7346 6503,7293 6388,7169 6273,7101 6157,7074 6042,6988 5927,6990 5811,7017 5696,6856 5581,6754 5465,6727 5350,6664 5234,6629 5119,6520 5004,6428 4888,6422 4773,6431 4658,6352 4542,6254 4427,6214 4312,6016 4196,5912 4081,5773 3965,5707 3850,5639 3735,5535 3619,5462 3504,5378 3389,5317 3273,5242 3158,5165 3043,5131 2927,4973 2812,4862 2696,4679 2581,4630 2466,4537 2350,4428 2235,4373 2120,4255 2004,4074 1889,4124 1774,3993 1658,3927 1543,3793 1428,3687 1428,1356 Z"/>
 <path fill="none" stroke="rgb(0,0,0)" stroke-linejoin="round" d="M 1428,1356 L 1543,1364 1658,1360 1774,1367 1889,1370 2004,1371 2120,1377 2235,1384 2350,1386 2466,1396 2581,1401 2696,1418 2812,1436 2927,1470 3043,1513 3158,1551 3273,1589 3389,1647 3504,1681 3619,1734 3735,1776 3850,1862 3965,1934 4081,2012 4196,2114 4312,2248 4427,2441 4542,2552 4658,2673 4773,2778 4888,2849 5004,2925 5119,3039 5234,3165 5350,3242 5465,3345 5581,3414 5696,3520 5811,3688 5927,3715 6042,3760 6157,3840 6273,3899 6388,4009 6503,4121 6619,4211 6734,4252 6850,4356 6965,4401 7080,4454 7196,4528 7311,4584 7426,4674 7542,4705 7657,4800 7772,4899 7888,4912 8003,4961 8119,5005 8233,5147 8348,5192 8464,5223 8579,5340 8694,5404 8810,5426 8925,5453 9040,5477 9156,5571 9271,5621 9386,5840 9502,5876 9617,5910 9733,5960 9848,6041 9963,6073 10079,6142 10194,6198 10309,6241 10425,6247 10540,6226 10655,6179 10771,6362 10886,6531 11002,6643 11117,6696 11232,6752 11348,6726 11463,6726 11578,6878 11694,6988 11809,7010 11924,7098 12040,7174 12155,7224 12271,7372 12386,7376 12501,7438 12617,7508 12732,7594 12847,7611 12963,7732 13078,7696 13193,7780 13309,7901 13424,7975 13540,8162 13655,8224 13770,8245 13886,8334 14001,8343 14116,8362 14232,8356 14347,8373 14462,8348 14578,8445 14693,8489 14809,8493 14809,9565 14693,9595 14578,9570 14462,9504 14347,9535 14232,9543 14116,9541 14001,9516 13886,9561 13770,9489 13655,9525 13540,9469 13424,9383 13309,9385 13193,9324 13078,9273 12963,9325 12847,9263 12732,9230 12617,9173 12501,9159 12386,9108 12271,9101 12155,9008 12040,8976 11924,8950 11809,8920 11694,8881 11578,8807 11463,8588 11348,8588 11232,8668 11117,8651 11002,8607 10886,8530 10771,8473 10655,8314 10540,8482 10425,8511 10309,8494 10194,8482 10079,8431 9963,8385 9848,8386 9733,8341 9617,8324 9502,8256 9386,8214 9271,8026 9156,8023 9040,8001 8925,7981 8810,7935 8694,7878 8579,7973 8464,7891 8348,7968 8233,7952 8119,7868 8003,7887 7888,7845 7772,7798 7657,7675 7542,7595 7426,7596 7311,7532 7196,7465 7080,7420 6965,7479 6850,7511 6734,7378 6619,7346 6503,7293 6388,7169 6273,7101 6157,7074 6042,6988 5927,6990 5811,7017 5696,6856 5581,6754 5465,6727 5350,6664 5234,6629 5119,6520 5004,6428 4888,6422 4773,6431 4658,6352 4542,6254 4427,6214 4312,6016 4196,5912 4081,5773 3965,5707 3850,5639 3735,5535 3619,5462 3504,5378 3389,5317 3273,5242 3158,5165 3043,5131 2927,4973 2812,4862 2696,4679 2581,4630 2466,4537 2350,4428 2235,4373 2120,4255 2004,4074 1889,4124 1774,3993 1658,3927 1543,3793 1428,3687 1428,1356 Z"/>
 <path fill="rgb(87,157,28)" stroke="none" d="M 1428,1127 L 1543,1125 1658,1121 1774,1125 1889,1123 2004,1128 2120,1128 2235,1128 2350,1124 2466,1130 2581,1132 2696,1136 2812,1131 2927,1139 3043,1142 3158,1149 3273,1152 3389,1164 3504,1171 3619,1179 3735,1172 3850,1182 3965,1193 4081,1206 4196,1215 4312,1222 4427,1233 4542,1248 4658,1258 4773,1275 4888,1274 5004,1281 5119,1305 5234,1330 5350,1342 5465,1347 5581,1345 5696,1362 5811,1373 5927,1397 6042,1390 6157,1411 6273,1428 6388,1446 6503,1476 6619,1515 6734,1513 6850,1518 6965,1529 7080,1549 7196,1559 7311,1571 7426,1592 7542,1594 7657,1623 7772,1625 7888,1619 8003,1599 8119,1591 8233,1605 8348,1583 8464,1580 8579,1577 8694,1600 8810,1554 8925,1562 9040,1579 9156,1592 9271,1625 9386,1707 9502,1689 9617,1651 9733,1587 9848,1600 9963,1606 10079,1597 10194,1576 10309,1583 10425,1630 10540,1574 10655,1558 10771,1531 10886,1560 11002,1586 11117,1589 11232,1585 11348,1576 11463,1576 11578,1625 11694,1629 11809,1619 11924,1596 12040,1574 12155,1555 12271,1550 12386,1560 12501,1548 12617,1558 12732,1576 12847,1619 12963,1619 13078,1614 13193,1628 13309,1648 13424,1645 13540,1660 13655,1696 13770,1701 13886,1723 14001,1675 14116,1627 14232,1613 14347,1597 14462,1631 14578,1633 14693,1650 14809,1663 14809,8493 14693,8489 14578,8445 14462,8348 14347,8373 14232,8356 14116,8362 14001,8343 13886,8334 13770,8245 13655,8224 13540,8162 13424,7975 13309,7901 13193,7780 13078,7696 12963,7732 12847,7611 12732,7594 12617,7508 12501,7438 12386,7376 12271,7372 12155,7224 12040,7174 11924,7098 11809,7010 11694,6988 11578,6878 11463,6726 11348,6726 11232,6752 11117,6696 11002,6643 10886,6531 10771,6362 10655,6179 10540,6226 10425,6247 10309,6241 10194,6198 10079,6142 9963,6073 9848,6041 9733,5960 9617,5910 9502,5876 9386,5840 9271,5621 9156,5571 9040,5477 8925,5453 8810,5426 8694,5404 8579,5340 8464,5223 8348,5192 8233,5147 8119,5005 8003,4961 7888,4912 7772,4899 7657,4800 7542,4705 7426,4674 7311,4584 7196,4528 7080,4454 6965,4401 6850,4356 6734,4252 6619,4211 6503,4121 6388,4009 6273,3899 6157,3840 6042,3760 5927,3715 5811,3688 5696,3520 5581,3414 5465,3345 5350,3242 5234,3165 5119,3039 5004,2925 4888,2849 4773,2778 4658,2673 4542,2552 4427,2441 4312,2248 4196,2114 4081,2012 3965,1934 3850,1862 3735,1776 3619,1734 3504,1681 3389,1647 3273,1589 3158,1551 3043,1513 2927,1470 2812,1436 2696,1418 2581,1401 2466,1396 2350,1386 2235,1384 2120,1377 2004,1371 1889,1370 1774,1367 1658,1360 1543,1364 1428,1356 1428,1127 Z"/>
 <path fill="none" stroke="rgb(0,0,0)" stroke-linejoin="round" d="M 1428,1127 L 1543,1125 1658,1121 1774,1125 1889,1123 2004,1128 2120,1128 2235,1128 2350,1124 2466,1130 2581,1132 2696,1136 2812,1131 2927,1139 3043,1142 3158,1149 3273,1152 3389,1164 3504,1171 3619,1179 3735,1172 3850,1182 3965,1193 4081,1206 4196,1215 4312,1222 4427,1233 4542,1248 4658,1258 4773,1275 4888,1274 5004,1281 5119,1305 5234,1330 5350,1342 5465,1347 5581,1345 5696,1362 5811,1373 5927,1397 6042,1390 6157,1411 6273,1428 6388,1446 6503,1476 6619,1515 6734,1513 6850,1518 6965,1529 7080,1549 7196,1559 7311,1571 7426,1592 7542,1594 7657,1623 7772,1625 7888,1619 8003,1599 8119,1591 8233,1605 8348,1583 8464,1580 8579,1577 8694,1600 8810,1554 8925,1562 9040,1579 9156,1592 9271,1625 9386,1707 9502,1689 9617,1651 9733,1587 9848,1600 9963,1606 10079,1597 10194,1576 10309,1583 10425,1630 10540,1574 10655,1558 10771,1531 10886,1560 11002,1586 11117,1589 11232,1585 11348,1576 11463,1576 11578,1625 11694,1629 11809,1619 11924,1596 12040,1574 12155,1555 12271,1550 12386,1560 12501,1548 12617,1558 12732,1576 12847,1619 12963,1619 13078,1614 13193,1628 13309,1648 13424,1645 13540,1660 13655,1696 13770,1701 13886,1723 14001,1675 14116,1627 14232,1613 14347,1597 14462,1631 14578,1633 14693,1650 14809,1663 14809,8493 14693,8489 14578,8445 14462,8348 14347,8373 14232,8356 14116,8362 14001,8343 13886,8334 13770,8245 13655,8224 13540,8162 13424,7975 13309,7901 13193,7780 13078,7696 12963,7732 12847,7611 12732,7594 12617,7508 12501,7438 12386,7376 12271,7372 12155,7224 12040,7174 11924,7098 11809,7010 11694,6988 11578,6878 11463,6726 11348,6726 11232,6752 11117,6696 11002,6643 10886,6531 10771,6362 10655,6179 10540,6226 10425,6247 10309,6241 10194,6198 10079,6142 9963,6073 9848,6041 9733,5960 9617,5910 9502,5876 9386,5840 9271,5621 9156,5571 9040,5477 8925,5453 8810,5426 8694,5404 8579,5340 8464,5223 8348,5192 8233,5147 8119,5005 8003,4961 7888,4912 7772,4899 7657,4800 7542,4705 7426,4674 7311,4584 7196,4528 7080,4454 6965,4401 6850,4356 6734,4252 6619,4211 6503,4121 6388,4009 6273,3899 6157,3840 6042,3760 5927,3715 5811,3688 5696,3520 5581,3414 5465,3345 5350,3242 5234,3165 5119,3039 5004,2925 4888,2849 4773,2778 4658,2673 4542,2552 4427,2441 4312,2248 4196,2114 4081,2012 3965,1934 3850,1862 3735,1776 3619,1734 3504,1681 3389,1647 3273,1589 3158,1551 3043,1513 2927,1470 2812,1436 2696,1418 2581,1401 2466,1396 2350,1386 2235,1384 2120,1377 2004,1371 1889,1370 1774,1367 1658,1360 1543,1364 1428,1356 1428,1127 Z"/>
 <path fill="rgb(126,0,33)" stroke="none" d="M 1428,1092 L 1543,1092 1658,1092 1774,1092 1889,1092 2004,1092 2120,1092 2235,1092 2350,1092 2466,1092 2581,1092 2696,1092 2812,1092 2927,1092 3043,1092 3158,1092 3273,1092 3389,1092 3504,1092 3619,1092 3735,1092 3850,1092 3965,1092 4081,1092 4196,1092 4312,1092 4427,1092 4542,1092 4658,1092 4773,1092 4888,1092 5004,1092 5119,1092 5234,1092 5350,1092 5465,1092 5581,1092 5696,1092 5811,1092 5927,1092 6042,1092 6157,1092 6273,1092 6388,1092 6503,1092 6619,1092 6734,1092 6850,1092 6965,1092 7080,1092 7196,1092 7311,1092 7426,1092 7542,1092 7657,1092 7772,1092 7888,1092 8003,1092 8119,1092 8233,1092 8348,1092 8464,1092 8579,1092 8694,1092 8810,1092 8925,1092 9040,1092 9156,1092 9271,1092 9386,1092 9502,1092 9617,1092 9733,1092 9848,1092 9963,1092 10079,1092 10194,1092 10309,1092 10425,1092 10540,1092 10655,1092 10771,1092 10886,1092 11002,1092 11117,1092 11232,1092 11348,1092 11463,1092 11578,1092 11694,1092 11809,1092 11924,1092 12040,1092 12155,1092 12271,1092 12386,1092 12501,1092 12617,1092 12732,1092 12847,1092 12963,1092 13078,1092 13193,1092 13309,1092 13424,1092 13540,1092 13655,1092 13770,1092 13886,1092 14001,1092 14116,1092 14232,1092 14347,1092 14462,1092 14578,1092 14693,1092 14809,1092 14809,1663 14693,1650 14578,1633 14462,1631 14347,1597 14232,1613 14116,1627 14001,1675 13886,1723 13770,1701 13655,1696 13540,1660 13424,1645 13309,1648 13193,1628 13078,1614 12963,1619 12847,1619 12732,1576 12617,1558 12501,1548 12386,1560 12271,1550 12155,1555 12040,1574 11924,1596 11809,1619 11694,1629 11578,1625 11463,1576 11348,1576 11232,1585 11117,1589 11002,1586 10886,1560 10771,1531 10655,1558 10540,1574 10425,1630 10309,1583 10194,1576 10079,1597 9963,1606 9848,1600 9733,1587 9617,1651 9502,1689 9386,1707 9271,1625 9156,1592 9040,1579 8925,1562 8810,1554 8694,1600 8579,1577 8464,1580 8348,1583 8233,1605 8119,1591 8003,1599 7888,1619 7772,1625 7657,1623 7542,1594 7426,1592 7311,1571 7196,1559 7080,1549 6965,1529 6850,1518 6734,1513 6619,1515 6503,1476 6388,1446 6273,1428 6157,1411 6042,1390 5927,1397 5811,1373 5696,1362 5581,1345 5465,1347 5350,1342 5234,1330 5119,1305 5004,1281 4888,1274 4773,1275 4658,1258 4542,1248 4427,1233 4312,1222 4196,1215 4081,1206 3965,1193 3850,1182 3735,1172 3619,1179 3504,1171 3389,1164 3273,1152 3158,1149 3043,1142 2927,1139 2812,1131 2696,1136 2581,1132 2466,1130 2350,1124 2235,1128 2120,1128 2004,1128 1889,1123 1774,1125 1658,1121 1543,1125 1428,1127 1428,1092 Z"/>
 <path fill="none" stroke="rgb(0,0,0)" stroke-linejoin="round" d="M 1428,1092 L 1543,1092 1658,1092 1774,1092 1889,1092 2004,1092 2120,1092 2235,1092 2350,1092 2466,1092 2581,1092 2696,1092 2812,1092 2927,1092 3043,1092 3158,1092 3273,1092 3389,1092 3504,1092 3619,1092 3735,1092 3850,1092 3965,1092 4081,1092 4196,1092 4312,1092 4427,1092 4542,1092 4658,1092 4773,1092 4888,1092 5004,1092 5119,1092 5234,1092 5350,1092 5465,1092 5581,1092 5696,1092 5811,1092 5927,1092 6042,1092 6157,1092 6273,1092 6388,1092 6503,1092 6619,1092 6734,1092 6850,1092 6965,1092 7080,1092 7196,1092 7311,1092 7426,1092 7542,1092 7657,1092 7772,1092 7888,1092 8003,1092 8119,1092 8233,1092 8348,1092 8464,1092 8579,1092 8694,1092 8810,1092 8925,1092 9040,1092 9156,1092 9271,1092 9386,1092 9502,1092 9617,1092 9733,1092 9848,1092 9963,1092 10079,1092 10194,1092 10309,1092 10425,1092 10540,1092 10655,1092 10771,1092 10886,1092 11002,1092 11117,1092 11232,1092 11348,1092 11463,1092 11578,1092 11694,1092 11809,1092 11924,1092 12040,1092 12155,1092 12271,1092 12386,1092 12501,1092 12617,1092 12732,1092 12847,1092 12963,1092 13078,1092 13193,1092 13309,1092 13424,1092 13540,1092 13655,1092 13770,1092 13886,1092 14001,1092 14116,1092 14232,1092 14347,1092 14462,1092 14578,1092 14693,1092 14809,1092 14809,1663 14693,1650 14578,1633 14462,1631 14347,1597 14232,1613 14116,1627 14001,1675 13886,1723 13770,1701 13655,1696 13540,1660 13424,1645 13309,1648 13193,1628 13078,1614 12963,1619 12847,1619 12732,1576 12617,1558 12501,1548 12386,1560 12271,1550 12155,1555 12040,1574 11924,1596 11809,1619 11694,1629 11578,1625 11463,1576 11348,1576 11232,1585 11117,1589 11002,1586 10886,1560 10771,1531 10655,1558 10540,1574 10425,1630 10309,1583 10194,1576 10079,1597 9963,1606 9848,1600 9733,1587 9617,1651 9502,1689 9386,1707 9271,1625 9156,1592 9040,1579 8925,1562 8810,1554 8694,1600 8579,1577 8464,1580 8348,1583 8233,1605 8119,1591 8003,1599 7888,1619 7772,1625 7657,1623 7542,1594 7426,1592 7311,1571 7196,1559 7080,1549 6965,1529 6850,1518 6734,1513 6619,1515 6503,1476 6388,1446 6273,1428 6157,1411 6042,1390 5927,1397 5811,1373 5696,1362 5581,1345 5465,1347 5350,1342 5234,1330 5119,1305 5004,1281 4888,1274 4773,1275 4658,1258 4542,1248 4427,1233 4312,1222 4196,1215 4081,1206 3965,1193 3850,1182 3735,1172 3619,1179 3504,1171 3389,1164 3273,1152 3158,1149 3043,1142 2927,1139 2812,1131 2696,1136 2581,1132 2466,1130 2350,1124 2235,1128 2120,1128 2004,1128 1889,1123 1774,1125 1658,1121 1543,1125 1428,1127 1428,1092 Z"/>
 <text class="TextShape"><tspan class="TextParagraph" font-family="Arial, sans-serif" font-size="388px" font-weight="400"><tspan class="TextPosition" x="1234" y="11355"><tspan fill="rgb(0,0,0)" stroke="none">2008</tspan></tspan></tspan></text>
 <text class="TextShape"><tspan class="TextParagraph" font-family="Arial, sans-serif" font-size="388px" font-weight="400"><tspan class="TextPosition" x="2619" y="11355"><tspan fill="rgb(0,0,0)" stroke="none">2009</tspan></tspan></tspan></text>
 <text class="TextShape"><tspan class="TextParagraph" font-family="Arial, sans-serif" font-size="388px" font-weight="400"><tspan class="TextPosition" x="4003" y="11355"><tspan fill="rgb(0,0,0)" stroke="none">2010</tspan></tspan></tspan></text>
 <text class="TextShape"><tspan class="TextParagraph" font-family="Arial, sans-serif" font-size="388px" font-weight="400"><tspan class="TextPosition" x="5387" y="11355"><tspan fill="rgb(0,0,0)" stroke="none">2011</tspan></tspan></tspan></text>
 <text class="TextShape"><tspan class="TextParagraph" font-family="Arial, sans-serif" font-size="388px" font-weight="400"><tspan class="TextPosition" x="6772" y="11355"><tspan fill="rgb(0,0,0)" stroke="none">2012</tspan></tspan></tspan></text>
 <text class="TextShape"><tspan class="TextParagraph" font-family="Arial, sans-serif" font-size="388px" font-weight="400"><tspan class="TextPosition" x="8156" y="11355"><tspan fill="rgb(0,0,0)" stroke="none">2013</tspan></tspan></tspan></text>
 <text class="TextShape"><tspan class="TextParagraph" font-family="Arial, sans-serif" font-size="388px" font-weight="400"><tspan class="TextPosition" x="9540" y="11355"><tspan fill="rgb(0,0,0)" stroke="none">2014</tspan></tspan></tspan></text>
 <text class="TextShape"><tspan class="TextParagraph" font-family="Arial, sans-serif" font-size="388px" font-weight="400"><tspan class="TextPosition" x="10925" y="11355"><tspan fill="rgb(0,0,0)" stroke="none">2015</tspan></tspan></tspan></text>
 <text class="TextShape"><tspan class="TextParagraph" font-family="Arial, sans-serif" font-size="388px" font-weight="400"><tspan class="TextPosition" x="12309" y="11355"><tspan fill="rgb(0,0,0)" stroke="none">2016</tspan></tspan></tspan></text>
 <text class="TextShape"><tspan class="TextParagraph" font-family="Arial, sans-serif" font-size="388px" font-weight="400"><tspan class="TextPosition" x="13693" y="11355"><tspan fill="rgb(0,0,0)" stroke="none">2017</tspan></tspan></tspan></text>
 <text class="TextShape"><tspan class="TextParagraph" font-family="Arial, sans-serif" font-size="388px" font-weight="400"><tspan class="TextPosition" x="622" y="10895"><tspan fill="rgb(0,0,0)" stroke="none">0%</tspan></tspan></tspan></text>
 <text class="TextShape"><tspan class="TextParagraph" font-family="Arial, sans-serif" font-size="388px" font-weight="400"><tspan class="TextPosition" x="411" y="9928"><tspan fill="rgb(0,0,0)" stroke="none">10%</tspan></tspan></tspan></text>
 <text class="TextShape"><tspan class="TextParagraph" font-family="Arial, sans-serif" font-size="388px" font-weight="400"><tspan class="TextPosition" x="411" y="8961"><tspan fill="rgb(0,0,0)" stroke="none">20%</tspan></tspan></tspan></text>
 <text class="TextShape"><tspan class="TextParagraph" font-family="Arial, sans-serif" font-size="388px" font-weight="400"><tspan class="TextPosition" x="411" y="7994"><tspan fill="rgb(0,0,0)" stroke="none">30%</tspan></tspan></tspan></text>
 <text class="TextShape"><tspan class="TextParagraph" font-family="Arial, sans-serif" font-size="388px" font-weight="400"><tspan class="TextPosition" x="411" y="7027"><tspan fill="rgb(0,0,0)" stroke="none">40%</tspan></tspan></tspan></text>
 <text class="TextShape"><tspan class="TextParagraph" font-family="Arial, sans-serif" font-size="388px" font-weight="400"><tspan class="TextPosition" x="411" y="6060"><tspan fill="rgb(0,0,0)" stroke="none">50%</tspan></tspan></tspan></text>
 <text class="TextShape"><tspan class="TextParagraph" font-family="Arial, sans-serif" font-size="388px" font-weight="400"><tspan class="TextPosition" x="411" y="5092"><tspan fill="rgb(0,0,0)" stroke="none">60%</tspan></tspan></tspan></text>
 <text class="TextShape"><tspan class="TextParagraph" font-family="Arial, sans-serif" font-size="388px" font-weight="400"><tspan class="TextPosition" x="411" y="4125"><tspan fill="rgb(0,0,0)" stroke="none">70%</tspan></tspan></tspan></text>
 <text class="TextShape"><tspan class="TextParagraph" font-family="Arial, sans-serif" font-size="388px" font-weight="400"><tspan class="TextPosition" x="411" y="3159"><tspan fill="rgb(0,0,0)" stroke="none">80%</tspan></tspan></tspan></text>
 <text class="TextShape"><tspan class="TextParagraph" font-family="Arial, sans-serif" font-size="388px" font-weight="400"><tspan class="TextPosition" x="411" y="2192"><tspan fill="rgb(0,0,0)" stroke="none">90%</tspan></tspan></tspan></text>
 <text class="TextShape"><tspan class="TextParagraph" font-family="Arial, sans-serif" font-size="388px" font-weight="400"><tspan class="TextPosition" x="199" y="1225"><tspan fill="rgb(0,0,0)" stroke="none">100%</tspan></tspan></tspan></text>
 <text class="TextShape"><tspan class="TextParagraph" font-family="Arial, sans-serif" font-size="388px" font-weight="400"><tspan class="TextPosition" x="15059" y="10895"><tspan fill="rgb(0,0,0)" stroke="none">0%</tspan></tspan></tspan></text>
 <text class="TextShape"><tspan class="TextParagraph" font-family="Arial, sans-serif" font-size="388px" font-weight="400"><tspan class="TextPosition" x="15059" y="9928"><tspan fill="rgb(0,0,0)" stroke="none">10%</tspan></tspan></tspan></text>
 <text class="TextShape"><tspan class="TextParagraph" font-family="Arial, sans-serif" font-size="388px" font-weight="400"><tspan class="TextPosition" x="15059" y="8961"><tspan fill="rgb(0,0,0)" stroke="none">20%</tspan></tspan></tspan></text>
 <text class="TextShape"><tspan class="TextParagraph" font-family="Arial, sans-serif" font-size="388px" font-weight="400"><tspan class="TextPosition" x="15059" y="7994"><tspan fill="rgb(0,0,0)" stroke="none">30%</tspan></tspan></tspan></text>
 <text class="TextShape"><tspan class="TextParagraph" font-family="Arial, sans-serif" font-size="388px" font-weight="400"><tspan class="TextPosition" x="15059" y="7027"><tspan fill="rgb(0,0,0)" stroke="none">40%</tspan></tspan></tspan></text>
 <text class="TextShape"><tspan class="TextParagraph" font-family="Arial, sans-serif" font-size="388px" font-weight="400"><tspan class="TextPosition" x="15059" y="6060"><tspan fill="rgb(0,0,0)" stroke="none">50%</tspan></tspan></tspan></text>
 <text class="TextShape"><tspan class="TextParagraph" font-family="Arial, sans-serif" font-size="388px" font-weight="400"><tspan class="TextPosition" x="15059" y="5092"><tspan fill="rgb(0,0,0)" stroke="none">60%</tspan></tspan></tspan></text>
 <text class="TextShape"><tspan class="TextParagraph" font-family="Arial, sans-serif" font-size="388px" font-weight="400"><tspan class="TextPosition" x="15059" y="4125"><tspan fill="rgb(0,0,0)" stroke="none">70%</tspan></tspan></tspan></text>
 <text class="TextShape"><tspan class="TextParagraph" font-family="Arial, sans-serif" font-size="388px" font-weight="400"><tspan class="TextPosition" x="15059" y="3159"><tspan fill="rgb(0,0,0)" stroke="none">80%</tspan></tspan></tspan></text>
 <text class="TextShape"><tspan class="TextParagraph" font-family="Arial, sans-serif" font-size="388px" font-weight="400"><tspan class="TextPosition" x="15059" y="2192"><tspan fill="rgb(0,0,0)" stroke="none">90%</tspan></tspan></tspan></text>
 <text class="TextShape"><tspan class="TextParagraph" font-family="Arial, sans-serif" font-size="388px" font-weight="400"><tspan class="TextPosition" x="15059" y="1225"><tspan fill="rgb(0,0,0)" stroke="none">100%</tspan></tspan></tspan></text>
 <text class="TextShape"><tspan class="TextParagraph" font-family="Liberation Sans, sans-serif" font-size="635px" font-weight="400"><tspan class="TextPosition" x="4940" y="747"><tspan fill="rgb(0,0,0)" stroke="none">Relacin de aspecto</tspan></tspan></tspan></text>
 <path fill="rgb(0,69,134)" stroke="none" d="M 4882,12019 L 4745,12019 4745,11744 5020,11744 5020,12019 4882,12019 Z"/>
 <path fill="none" stroke="rgb(0,0,0)" stroke-linejoin="round" d="M 4882,12019 L 4745,12019 4745,11744 5020,11744 5020,12019 4882,12019 Z"/>
 <path fill="rgb(255,66,14)" stroke="none" d="M 6170,12019 L 6033,12019 6033,11744 6308,11744 6308,12019 6170,12019 Z"/>
 <path fill="none" stroke="rgb(0,0,0)" stroke-linejoin="round" d="M 6170,12019 L 6033,12019 6033,11744 6308,11744 6308,12019 6170,12019 Z"/>
 <path fill="rgb(255,211,32)" stroke="none" d="M 7458,12019 L 7321,12019 7321,11744 7596,11744 7596,12019 7458,12019 Z"/>
 <path fill="none" stroke="rgb(0,0,0)" stroke-linejoin="round" d="M 7458,12019 L 7321,12019 7321,11744 7596,11744 7596,12019 7458,12019 Z"/>
 <path fill="rgb(87,157,28)" stroke="none" d="M 8746,12019 L 8608,12019 8608,11744 8883,11744 8883,12019 8746,12019 Z"/>
 <path fill="none" stroke="rgb(0,0,0)" stroke-linejoin="round" d="M 8746,12019 L 8608,12019 8608,11744 8883,11744 8883,12019 8746,12019 Z"/>
 <path fill="rgb(126,0,33)" stroke="none" d="M 10272,12019 L 10134,12019 10134,11744 10409,11744 10409,12019 10272,12019 Z"/>
 <path fill="none" stroke="rgb(0,0,0)" stroke-linejoin="round" d="M 10272,12019 L 10134,12019 10134,11744 10409,11744 10409,12019 10272,12019 Z"/>
 <text class="TextShape"><tspan class="TextParagraph" font-family="Arial, sans-serif" font-size="459px" font-weight="400"><tspan class="TextPosition" x="5120" y="12040"><tspan fill="rgb(0,0,0)" stroke="none">5:4</tspan></tspan></tspan></text>
 <text class="TextShape"><tspan class="TextParagraph" font-family="Arial, sans-serif" font-size="459px" font-weight="400"><tspan class="TextPosition" x="6408" y="12040"><tspan fill="rgb(0,0,0)" stroke="none">4:3</tspan></tspan></tspan></text>
 <text class="TextShape"><tspan class="TextParagraph" font-family="Arial, sans-serif" font-size="459px" font-weight="400"><tspan class="TextPosition" x="7696" y="12040"><tspan fill="rgb(0,0,0)" stroke="none">8:5</tspan></tspan></tspan></text>
 <text class="TextShape"><tspan class="TextParagraph" font-family="Arial, sans-serif" font-size="459px" font-weight="400"><tspan class="TextPosition" x="8983" y="12040"><tspan fill="rgb(0,0,0)" stroke="none">16:9</tspan></tspan></tspan></text>
 <text class="TextShape"><tspan class="TextParagraph" font-family="Arial, sans-serif" font-size="459px" font-weight="400"><tspan class="TextPosition" x="10509" y="12040"><tspan fill="rgb(0,0,0)" stroke="none">Otros</tspan></tspan></tspan></text>
</svg>
