<?xml version="1.0" encoding="UTF-8"?>
<!DOCTYPE svg PUBLIC "-//W3C//DTD SVG 1.1//EN" "http://www.w3.org/Graphics/SVG/1.1/DTD/svg11.dtd">
<svg width="165mm" height="123mm" viewBox="0 0 16500 12300" version="1.1" xmlns="http://www.w3.org/2000/svg" stroke-width="28.222" stroke-linejoin="round" xml:space="preserve">
 <path fill="rgb(255,255,255)" stroke="none" d="M 8257,12324 L 12,12324 12,0 16502,0 16502,12324 8257,12324 Z"/>
 <path fill="none" stroke="rgb(179,179,179)" stroke-linejoin="round" d="M 8207,10702 L 1255,10702 1255,1092 15158,1092 15158,10702 8207,10702 Z"/>
 <path fill="none" stroke="rgb(179,179,179)" stroke-linejoin="round" d="M 15158,10701 L 1255,10701"/>
 <path fill="none" stroke="rgb(179,179,179)" stroke-linejoin="round" d="M 15158,9739 L 1255,9739"/>
 <path fill="none" stroke="rgb(179,179,179)" stroke-linejoin="round" d="M 15158,8778 L 1255,8778"/>
 <path fill="none" stroke="rgb(179,179,179)" stroke-linejoin="round" d="M 15158,7817 L 1255,7817"/>
 <path fill="none" stroke="rgb(179,179,179)" stroke-linejoin="round" d="M 15158,6856 L 1255,6856"/>
 <path fill="none" stroke="rgb(179,179,179)" stroke-linejoin="round" d="M 15158,5896 L 1255,5896"/>
 <path fill="none" stroke="rgb(179,179,179)" stroke-linejoin="round" d="M 15158,4935 L 1255,4935"/>
 <path fill="none" stroke="rgb(179,179,179)" stroke-linejoin="round" d="M 15158,3974 L 1255,3974"/>
 <path fill="none" stroke="rgb(179,179,179)" stroke-linejoin="round" d="M 15158,3013 L 1255,3013"/>
 <path fill="none" stroke="rgb(179,179,179)" stroke-linejoin="round" d="M 15158,2052 L 1255,2052"/>
 <path fill="none" stroke="rgb(179,179,179)" stroke-linejoin="round" d="M 15158,1091 L 1255,1091"/>
 <path fill="none" stroke="rgb(0,0,0)" stroke-width="30" stroke-linejoin="round" d="M 1255,10851 L 1255,10701"/>
 <path fill="none" stroke="rgb(0,0,0)" stroke-width="30" stroke-linejoin="round" d="M 1255,10851 L 1255,10701"/>
 <path fill="none" stroke="rgb(0,0,0)" stroke-width="30" stroke-linejoin="round" d="M 1372,10851 L 1372,10701"/>
 <path fill="none" stroke="rgb(0,0,0)" stroke-width="30" stroke-linejoin="round" d="M 1372,10851 L 1372,10701"/>
 <path fill="none" stroke="rgb(0,0,0)" stroke-width="30" stroke-linejoin="round" d="M 1490,10851 L 1490,10701"/>
 <path fill="none" stroke="rgb(0,0,0)" stroke-width="30" stroke-linejoin="round" d="M 1490,10851 L 1490,10701"/>
 <path fill="none" stroke="rgb(0,0,0)" stroke-width="30" stroke-linejoin="round" d="M 1608,10851 L 1608,10701"/>
 <path fill="none" stroke="rgb(0,0,0)" stroke-width="30" stroke-linejoin="round" d="M 1608,10851 L 1608,10701"/>
 <path fill="none" stroke="rgb(0,0,0)" stroke-width="30" stroke-linejoin="round" d="M 1726,10851 L 1726,10701"/>
 <path fill="none" stroke="rgb(0,0,0)" stroke-width="30" stroke-linejoin="round" d="M 1726,10851 L 1726,10701"/>
 <path fill="none" stroke="rgb(0,0,0)" stroke-width="30" stroke-linejoin="round" d="M 1844,10851 L 1844,10701"/>
 <path fill="none" stroke="rgb(0,0,0)" stroke-width="30" stroke-linejoin="round" d="M 1844,10851 L 1844,10701"/>
 <path fill="none" stroke="rgb(0,0,0)" stroke-width="30" stroke-linejoin="round" d="M 1961,10851 L 1961,10701"/>
 <path fill="none" stroke="rgb(0,0,0)" stroke-width="30" stroke-linejoin="round" d="M 1961,10851 L 1961,10701"/>
 <path fill="none" stroke="rgb(0,0,0)" stroke-width="30" stroke-linejoin="round" d="M 2079,10851 L 2079,10701"/>
 <path fill="none" stroke="rgb(0,0,0)" stroke-width="30" stroke-linejoin="round" d="M 2079,10851 L 2079,10701"/>
 <path fill="none" stroke="rgb(0,0,0)" stroke-width="30" stroke-linejoin="round" d="M 2197,10851 L 2197,10701"/>
 <path fill="none" stroke="rgb(0,0,0)" stroke-width="30" stroke-linejoin="round" d="M 2197,10851 L 2197,10701"/>
 <path fill="none" stroke="rgb(0,0,0)" stroke-width="30" stroke-linejoin="round" d="M 2315,10851 L 2315,10701"/>
 <path fill="none" stroke="rgb(0,0,0)" stroke-width="30" stroke-linejoin="round" d="M 2315,10851 L 2315,10701"/>
 <path fill="none" stroke="rgb(0,0,0)" stroke-width="30" stroke-linejoin="round" d="M 2433,10851 L 2433,10701"/>
 <path fill="none" stroke="rgb(0,0,0)" stroke-width="30" stroke-linejoin="round" d="M 2433,10851 L 2433,10701"/>
 <path fill="none" stroke="rgb(0,0,0)" stroke-width="30" stroke-linejoin="round" d="M 2551,10851 L 2551,10701"/>
 <path fill="none" stroke="rgb(0,0,0)" stroke-width="30" stroke-linejoin="round" d="M 2551,10851 L 2551,10701"/>
 <path fill="none" stroke="rgb(0,0,0)" stroke-width="30" stroke-linejoin="round" d="M 2668,10851 L 2668,10701"/>
 <path fill="none" stroke="rgb(0,0,0)" stroke-width="30" stroke-linejoin="round" d="M 2668,10851 L 2668,10701"/>
 <path fill="none" stroke="rgb(0,0,0)" stroke-width="30" stroke-linejoin="round" d="M 2786,10851 L 2786,10701"/>
 <path fill="none" stroke="rgb(0,0,0)" stroke-width="30" stroke-linejoin="round" d="M 2786,10851 L 2786,10701"/>
 <path fill="none" stroke="rgb(0,0,0)" stroke-width="30" stroke-linejoin="round" d="M 2904,10851 L 2904,10701"/>
 <path fill="none" stroke="rgb(0,0,0)" stroke-width="30" stroke-linejoin="round" d="M 2904,10851 L 2904,10701"/>
 <path fill="none" stroke="rgb(0,0,0)" stroke-width="30" stroke-linejoin="round" d="M 3022,10851 L 3022,10701"/>
 <path fill="none" stroke="rgb(0,0,0)" stroke-width="30" stroke-linejoin="round" d="M 3022,10851 L 3022,10701"/>
 <path fill="none" stroke="rgb(0,0,0)" stroke-width="30" stroke-linejoin="round" d="M 3140,10851 L 3140,10701"/>
 <path fill="none" stroke="rgb(0,0,0)" stroke-width="30" stroke-linejoin="round" d="M 3140,10851 L 3140,10701"/>
 <path fill="none" stroke="rgb(0,0,0)" stroke-width="30" stroke-linejoin="round" d="M 3258,10851 L 3258,10701"/>
 <path fill="none" stroke="rgb(0,0,0)" stroke-width="30" stroke-linejoin="round" d="M 3258,10851 L 3258,10701"/>
 <path fill="none" stroke="rgb(0,0,0)" stroke-width="30" stroke-linejoin="round" d="M 3375,10851 L 3375,10701"/>
 <path fill="none" stroke="rgb(0,0,0)" stroke-width="30" stroke-linejoin="round" d="M 3375,10851 L 3375,10701"/>
 <path fill="none" stroke="rgb(0,0,0)" stroke-width="30" stroke-linejoin="round" d="M 3493,10851 L 3493,10701"/>
 <path fill="none" stroke="rgb(0,0,0)" stroke-width="30" stroke-linejoin="round" d="M 3493,10851 L 3493,10701"/>
 <path fill="none" stroke="rgb(0,0,0)" stroke-width="30" stroke-linejoin="round" d="M 3611,10851 L 3611,10701"/>
 <path fill="none" stroke="rgb(0,0,0)" stroke-width="30" stroke-linejoin="round" d="M 3611,10851 L 3611,10701"/>
 <path fill="none" stroke="rgb(0,0,0)" stroke-width="30" stroke-linejoin="round" d="M 3729,10851 L 3729,10701"/>
 <path fill="none" stroke="rgb(0,0,0)" stroke-width="30" stroke-linejoin="round" d="M 3729,10851 L 3729,10701"/>
 <path fill="none" stroke="rgb(0,0,0)" stroke-width="30" stroke-linejoin="round" d="M 3847,10851 L 3847,10701"/>
 <path fill="none" stroke="rgb(0,0,0)" stroke-width="30" stroke-linejoin="round" d="M 3847,10851 L 3847,10701"/>
 <path fill="none" stroke="rgb(0,0,0)" stroke-width="30" stroke-linejoin="round" d="M 3965,10851 L 3965,10701"/>
 <path fill="none" stroke="rgb(0,0,0)" stroke-width="30" stroke-linejoin="round" d="M 3965,10851 L 3965,10701"/>
 <path fill="none" stroke="rgb(0,0,0)" stroke-width="30" stroke-linejoin="round" d="M 4082,10851 L 4082,10701"/>
 <path fill="none" stroke="rgb(0,0,0)" stroke-width="30" stroke-linejoin="round" d="M 4082,10851 L 4082,10701"/>
 <path fill="none" stroke="rgb(0,0,0)" stroke-width="30" stroke-linejoin="round" d="M 4200,10851 L 4200,10701"/>
 <path fill="none" stroke="rgb(0,0,0)" stroke-width="30" stroke-linejoin="round" d="M 4200,10851 L 4200,10701"/>
 <path fill="none" stroke="rgb(0,0,0)" stroke-width="30" stroke-linejoin="round" d="M 4318,10851 L 4318,10701"/>
 <path fill="none" stroke="rgb(0,0,0)" stroke-width="30" stroke-linejoin="round" d="M 4318,10851 L 4318,10701"/>
 <path fill="none" stroke="rgb(0,0,0)" stroke-width="30" stroke-linejoin="round" d="M 4436,10851 L 4436,10701"/>
 <path fill="none" stroke="rgb(0,0,0)" stroke-width="30" stroke-linejoin="round" d="M 4436,10851 L 4436,10701"/>
 <path fill="none" stroke="rgb(0,0,0)" stroke-width="30" stroke-linejoin="round" d="M 4554,10851 L 4554,10701"/>
 <path fill="none" stroke="rgb(0,0,0)" stroke-width="30" stroke-linejoin="round" d="M 4554,10851 L 4554,10701"/>
 <path fill="none" stroke="rgb(0,0,0)" stroke-width="30" stroke-linejoin="round" d="M 4672,10851 L 4672,10701"/>
 <path fill="none" stroke="rgb(0,0,0)" stroke-width="30" stroke-linejoin="round" d="M 4672,10851 L 4672,10701"/>
 <path fill="none" stroke="rgb(0,0,0)" stroke-width="30" stroke-linejoin="round" d="M 4789,10851 L 4789,10701"/>
 <path fill="none" stroke="rgb(0,0,0)" stroke-width="30" stroke-linejoin="round" d="M 4789,10851 L 4789,10701"/>
 <path fill="none" stroke="rgb(0,0,0)" stroke-width="30" stroke-linejoin="round" d="M 4907,10851 L 4907,10701"/>
 <path fill="none" stroke="rgb(0,0,0)" stroke-width="30" stroke-linejoin="round" d="M 4907,10851 L 4907,10701"/>
 <path fill="none" stroke="rgb(0,0,0)" stroke-width="30" stroke-linejoin="round" d="M 5025,10851 L 5025,10701"/>
 <path fill="none" stroke="rgb(0,0,0)" stroke-width="30" stroke-linejoin="round" d="M 5025,10851 L 5025,10701"/>
 <path fill="none" stroke="rgb(0,0,0)" stroke-width="30" stroke-linejoin="round" d="M 5143,10851 L 5143,10701"/>
 <path fill="none" stroke="rgb(0,0,0)" stroke-width="30" stroke-linejoin="round" d="M 5143,10851 L 5143,10701"/>
 <path fill="none" stroke="rgb(0,0,0)" stroke-width="30" stroke-linejoin="round" d="M 5261,10851 L 5261,10701"/>
 <path fill="none" stroke="rgb(0,0,0)" stroke-width="30" stroke-linejoin="round" d="M 5261,10851 L 5261,10701"/>
 <path fill="none" stroke="rgb(0,0,0)" stroke-width="30" stroke-linejoin="round" d="M 5379,10851 L 5379,10701"/>
 <path fill="none" stroke="rgb(0,0,0)" stroke-width="30" stroke-linejoin="round" d="M 5379,10851 L 5379,10701"/>
 <path fill="none" stroke="rgb(0,0,0)" stroke-width="30" stroke-linejoin="round" d="M 5496,10851 L 5496,10701"/>
 <path fill="none" stroke="rgb(0,0,0)" stroke-width="30" stroke-linejoin="round" d="M 5496,10851 L 5496,10701"/>
 <path fill="none" stroke="rgb(0,0,0)" stroke-width="30" stroke-linejoin="round" d="M 5614,10851 L 5614,10701"/>
 <path fill="none" stroke="rgb(0,0,0)" stroke-width="30" stroke-linejoin="round" d="M 5614,10851 L 5614,10701"/>
 <path fill="none" stroke="rgb(0,0,0)" stroke-width="30" stroke-linejoin="round" d="M 5732,10851 L 5732,10701"/>
 <path fill="none" stroke="rgb(0,0,0)" stroke-width="30" stroke-linejoin="round" d="M 5732,10851 L 5732,10701"/>
 <path fill="none" stroke="rgb(0,0,0)" stroke-width="30" stroke-linejoin="round" d="M 5850,10851 L 5850,10701"/>
 <path fill="none" stroke="rgb(0,0,0)" stroke-width="30" stroke-linejoin="round" d="M 5850,10851 L 5850,10701"/>
 <path fill="none" stroke="rgb(0,0,0)" stroke-width="30" stroke-linejoin="round" d="M 5968,10851 L 5968,10701"/>
 <path fill="none" stroke="rgb(0,0,0)" stroke-width="30" stroke-linejoin="round" d="M 5968,10851 L 5968,10701"/>
 <path fill="none" stroke="rgb(0,0,0)" stroke-width="30" stroke-linejoin="round" d="M 6086,10851 L 6086,10701"/>
 <path fill="none" stroke="rgb(0,0,0)" stroke-width="30" stroke-linejoin="round" d="M 6086,10851 L 6086,10701"/>
 <path fill="none" stroke="rgb(0,0,0)" stroke-width="30" stroke-linejoin="round" d="M 6203,10851 L 6203,10701"/>
 <path fill="none" stroke="rgb(0,0,0)" stroke-width="30" stroke-linejoin="round" d="M 6203,10851 L 6203,10701"/>
 <path fill="none" stroke="rgb(0,0,0)" stroke-width="30" stroke-linejoin="round" d="M 6321,10851 L 6321,10701"/>
 <path fill="none" stroke="rgb(0,0,0)" stroke-width="30" stroke-linejoin="round" d="M 6321,10851 L 6321,10701"/>
 <path fill="none" stroke="rgb(0,0,0)" stroke-width="30" stroke-linejoin="round" d="M 6439,10851 L 6439,10701"/>
 <path fill="none" stroke="rgb(0,0,0)" stroke-width="30" stroke-linejoin="round" d="M 6439,10851 L 6439,10701"/>
 <path fill="none" stroke="rgb(0,0,0)" stroke-width="30" stroke-linejoin="round" d="M 6557,10851 L 6557,10701"/>
 <path fill="none" stroke="rgb(0,0,0)" stroke-width="30" stroke-linejoin="round" d="M 6557,10851 L 6557,10701"/>
 <path fill="none" stroke="rgb(0,0,0)" stroke-width="30" stroke-linejoin="round" d="M 6675,10851 L 6675,10701"/>
 <path fill="none" stroke="rgb(0,0,0)" stroke-width="30" stroke-linejoin="round" d="M 6675,10851 L 6675,10701"/>
 <path fill="none" stroke="rgb(0,0,0)" stroke-width="30" stroke-linejoin="round" d="M 6793,10851 L 6793,10701"/>
 <path fill="none" stroke="rgb(0,0,0)" stroke-width="30" stroke-linejoin="round" d="M 6793,10851 L 6793,10701"/>
 <path fill="none" stroke="rgb(0,0,0)" stroke-width="30" stroke-linejoin="round" d="M 6910,10851 L 6910,10701"/>
 <path fill="none" stroke="rgb(0,0,0)" stroke-width="30" stroke-linejoin="round" d="M 6910,10851 L 6910,10701"/>
 <path fill="none" stroke="rgb(0,0,0)" stroke-width="30" stroke-linejoin="round" d="M 7028,10851 L 7028,10701"/>
 <path fill="none" stroke="rgb(0,0,0)" stroke-width="30" stroke-linejoin="round" d="M 7028,10851 L 7028,10701"/>
 <path fill="none" stroke="rgb(0,0,0)" stroke-width="30" stroke-linejoin="round" d="M 7146,10851 L 7146,10701"/>
 <path fill="none" stroke="rgb(0,0,0)" stroke-width="30" stroke-linejoin="round" d="M 7146,10851 L 7146,10701"/>
 <path fill="none" stroke="rgb(0,0,0)" stroke-width="30" stroke-linejoin="round" d="M 7264,10851 L 7264,10701"/>
 <path fill="none" stroke="rgb(0,0,0)" stroke-width="30" stroke-linejoin="round" d="M 7264,10851 L 7264,10701"/>
 <path fill="none" stroke="rgb(0,0,0)" stroke-width="30" stroke-linejoin="round" d="M 7382,10851 L 7382,10701"/>
 <path fill="none" stroke="rgb(0,0,0)" stroke-width="30" stroke-linejoin="round" d="M 7382,10851 L 7382,10701"/>
 <path fill="none" stroke="rgb(0,0,0)" stroke-width="30" stroke-linejoin="round" d="M 7500,10851 L 7500,10701"/>
 <path fill="none" stroke="rgb(0,0,0)" stroke-width="30" stroke-linejoin="round" d="M 7500,10851 L 7500,10701"/>
 <path fill="none" stroke="rgb(0,0,0)" stroke-width="30" stroke-linejoin="round" d="M 7617,10851 L 7617,10701"/>
 <path fill="none" stroke="rgb(0,0,0)" stroke-width="30" stroke-linejoin="round" d="M 7617,10851 L 7617,10701"/>
 <path fill="none" stroke="rgb(0,0,0)" stroke-width="30" stroke-linejoin="round" d="M 7735,10851 L 7735,10701"/>
 <path fill="none" stroke="rgb(0,0,0)" stroke-width="30" stroke-linejoin="round" d="M 7735,10851 L 7735,10701"/>
 <path fill="none" stroke="rgb(0,0,0)" stroke-width="30" stroke-linejoin="round" d="M 7853,10851 L 7853,10701"/>
 <path fill="none" stroke="rgb(0,0,0)" stroke-width="30" stroke-linejoin="round" d="M 7853,10851 L 7853,10701"/>
 <path fill="none" stroke="rgb(0,0,0)" stroke-width="30" stroke-linejoin="round" d="M 7971,10851 L 7971,10701"/>
 <path fill="none" stroke="rgb(0,0,0)" stroke-width="30" stroke-linejoin="round" d="M 7971,10851 L 7971,10701"/>
 <path fill="none" stroke="rgb(0,0,0)" stroke-width="30" stroke-linejoin="round" d="M 8089,10851 L 8089,10701"/>
 <path fill="none" stroke="rgb(0,0,0)" stroke-width="30" stroke-linejoin="round" d="M 8089,10851 L 8089,10701"/>
 <path fill="none" stroke="rgb(0,0,0)" stroke-width="30" stroke-linejoin="round" d="M 8207,10851 L 8207,10701"/>
 <path fill="none" stroke="rgb(0,0,0)" stroke-width="30" stroke-linejoin="round" d="M 8207,10851 L 8207,10701"/>
 <path fill="none" stroke="rgb(0,0,0)" stroke-width="30" stroke-linejoin="round" d="M 8323,10851 L 8323,10701"/>
 <path fill="none" stroke="rgb(0,0,0)" stroke-width="30" stroke-linejoin="round" d="M 8323,10851 L 8323,10701"/>
 <path fill="none" stroke="rgb(0,0,0)" stroke-width="30" stroke-linejoin="round" d="M 8441,10851 L 8441,10701"/>
 <path fill="none" stroke="rgb(0,0,0)" stroke-width="30" stroke-linejoin="round" d="M 8441,10851 L 8441,10701"/>
 <path fill="none" stroke="rgb(0,0,0)" stroke-width="30" stroke-linejoin="round" d="M 8559,10851 L 8559,10701"/>
 <path fill="none" stroke="rgb(0,0,0)" stroke-width="30" stroke-linejoin="round" d="M 8559,10851 L 8559,10701"/>
 <path fill="none" stroke="rgb(0,0,0)" stroke-width="30" stroke-linejoin="round" d="M 8677,10851 L 8677,10701"/>
 <path fill="none" stroke="rgb(0,0,0)" stroke-width="30" stroke-linejoin="round" d="M 8677,10851 L 8677,10701"/>
 <path fill="none" stroke="rgb(0,0,0)" stroke-width="30" stroke-linejoin="round" d="M 8795,10851 L 8795,10701"/>
 <path fill="none" stroke="rgb(0,0,0)" stroke-width="30" stroke-linejoin="round" d="M 8795,10851 L 8795,10701"/>
 <path fill="none" stroke="rgb(0,0,0)" stroke-width="30" stroke-linejoin="round" d="M 8912,10851 L 8912,10701"/>
 <path fill="none" stroke="rgb(0,0,0)" stroke-width="30" stroke-linejoin="round" d="M 8912,10851 L 8912,10701"/>
 <path fill="none" stroke="rgb(0,0,0)" stroke-width="30" stroke-linejoin="round" d="M 9030,10851 L 9030,10701"/>
 <path fill="none" stroke="rgb(0,0,0)" stroke-width="30" stroke-linejoin="round" d="M 9030,10851 L 9030,10701"/>
 <path fill="none" stroke="rgb(0,0,0)" stroke-width="30" stroke-linejoin="round" d="M 9148,10851 L 9148,10701"/>
 <path fill="none" stroke="rgb(0,0,0)" stroke-width="30" stroke-linejoin="round" d="M 9148,10851 L 9148,10701"/>
 <path fill="none" stroke="rgb(0,0,0)" stroke-width="30" stroke-linejoin="round" d="M 9266,10851 L 9266,10701"/>
 <path fill="none" stroke="rgb(0,0,0)" stroke-width="30" stroke-linejoin="round" d="M 9266,10851 L 9266,10701"/>
 <path fill="none" stroke="rgb(0,0,0)" stroke-width="30" stroke-linejoin="round" d="M 9384,10851 L 9384,10701"/>
 <path fill="none" stroke="rgb(0,0,0)" stroke-width="30" stroke-linejoin="round" d="M 9384,10851 L 9384,10701"/>
 <path fill="none" stroke="rgb(0,0,0)" stroke-width="30" stroke-linejoin="round" d="M 9502,10851 L 9502,10701"/>
 <path fill="none" stroke="rgb(0,0,0)" stroke-width="30" stroke-linejoin="round" d="M 9502,10851 L 9502,10701"/>
 <path fill="none" stroke="rgb(0,0,0)" stroke-width="30" stroke-linejoin="round" d="M 9619,10851 L 9619,10701"/>
 <path fill="none" stroke="rgb(0,0,0)" stroke-width="30" stroke-linejoin="round" d="M 9619,10851 L 9619,10701"/>
 <path fill="none" stroke="rgb(0,0,0)" stroke-width="30" stroke-linejoin="round" d="M 9737,10851 L 9737,10701"/>
 <path fill="none" stroke="rgb(0,0,0)" stroke-width="30" stroke-linejoin="round" d="M 9737,10851 L 9737,10701"/>
 <path fill="none" stroke="rgb(0,0,0)" stroke-width="30" stroke-linejoin="round" d="M 9855,10851 L 9855,10701"/>
 <path fill="none" stroke="rgb(0,0,0)" stroke-width="30" stroke-linejoin="round" d="M 9855,10851 L 9855,10701"/>
 <path fill="none" stroke="rgb(0,0,0)" stroke-width="30" stroke-linejoin="round" d="M 9973,10851 L 9973,10701"/>
 <path fill="none" stroke="rgb(0,0,0)" stroke-width="30" stroke-linejoin="round" d="M 9973,10851 L 9973,10701"/>
 <path fill="none" stroke="rgb(0,0,0)" stroke-width="30" stroke-linejoin="round" d="M 10091,10851 L 10091,10701"/>
 <path fill="none" stroke="rgb(0,0,0)" stroke-width="30" stroke-linejoin="round" d="M 10091,10851 L 10091,10701"/>
 <path fill="none" stroke="rgb(0,0,0)" stroke-width="30" stroke-linejoin="round" d="M 10209,10851 L 10209,10701"/>
 <path fill="none" stroke="rgb(0,0,0)" stroke-width="30" stroke-linejoin="round" d="M 10209,10851 L 10209,10701"/>
 <path fill="none" stroke="rgb(0,0,0)" stroke-width="30" stroke-linejoin="round" d="M 10326,10851 L 10326,10701"/>
 <path fill="none" stroke="rgb(0,0,0)" stroke-width="30" stroke-linejoin="round" d="M 10326,10851 L 10326,10701"/>
 <path fill="none" stroke="rgb(0,0,0)" stroke-width="30" stroke-linejoin="round" d="M 10444,10851 L 10444,10701"/>
 <path fill="none" stroke="rgb(0,0,0)" stroke-width="30" stroke-linejoin="round" d="M 10444,10851 L 10444,10701"/>
 <path fill="none" stroke="rgb(0,0,0)" stroke-width="30" stroke-linejoin="round" d="M 10562,10851 L 10562,10701"/>
 <path fill="none" stroke="rgb(0,0,0)" stroke-width="30" stroke-linejoin="round" d="M 10562,10851 L 10562,10701"/>
 <path fill="none" stroke="rgb(0,0,0)" stroke-width="30" stroke-linejoin="round" d="M 10680,10851 L 10680,10701"/>
 <path fill="none" stroke="rgb(0,0,0)" stroke-width="30" stroke-linejoin="round" d="M 10680,10851 L 10680,10701"/>
 <path fill="none" stroke="rgb(0,0,0)" stroke-width="30" stroke-linejoin="round" d="M 10798,10851 L 10798,10701"/>
 <path fill="none" stroke="rgb(0,0,0)" stroke-width="30" stroke-linejoin="round" d="M 10798,10851 L 10798,10701"/>
 <path fill="none" stroke="rgb(0,0,0)" stroke-width="30" stroke-linejoin="round" d="M 10916,10851 L 10916,10701"/>
 <path fill="none" stroke="rgb(0,0,0)" stroke-width="30" stroke-linejoin="round" d="M 10916,10851 L 10916,10701"/>
 <path fill="none" stroke="rgb(0,0,0)" stroke-width="30" stroke-linejoin="round" d="M 11033,10851 L 11033,10701"/>
 <path fill="none" stroke="rgb(0,0,0)" stroke-width="30" stroke-linejoin="round" d="M 11033,10851 L 11033,10701"/>
 <path fill="none" stroke="rgb(0,0,0)" stroke-width="30" stroke-linejoin="round" d="M 11151,10851 L 11151,10701"/>
 <path fill="none" stroke="rgb(0,0,0)" stroke-width="30" stroke-linejoin="round" d="M 11151,10851 L 11151,10701"/>
 <path fill="none" stroke="rgb(0,0,0)" stroke-width="30" stroke-linejoin="round" d="M 11269,10851 L 11269,10701"/>
 <path fill="none" stroke="rgb(0,0,0)" stroke-width="30" stroke-linejoin="round" d="M 11269,10851 L 11269,10701"/>
 <path fill="none" stroke="rgb(0,0,0)" stroke-width="30" stroke-linejoin="round" d="M 11387,10851 L 11387,10701"/>
 <path fill="none" stroke="rgb(0,0,0)" stroke-width="30" stroke-linejoin="round" d="M 11387,10851 L 11387,10701"/>
 <path fill="none" stroke="rgb(0,0,0)" stroke-width="30" stroke-linejoin="round" d="M 11505,10851 L 11505,10701"/>
 <path fill="none" stroke="rgb(0,0,0)" stroke-width="30" stroke-linejoin="round" d="M 11505,10851 L 11505,10701"/>
 <path fill="none" stroke="rgb(0,0,0)" stroke-width="30" stroke-linejoin="round" d="M 11623,10851 L 11623,10701"/>
 <path fill="none" stroke="rgb(0,0,0)" stroke-width="30" stroke-linejoin="round" d="M 11623,10851 L 11623,10701"/>
 <path fill="none" stroke="rgb(0,0,0)" stroke-width="30" stroke-linejoin="round" d="M 11740,10851 L 11740,10701"/>
 <path fill="none" stroke="rgb(0,0,0)" stroke-width="30" stroke-linejoin="round" d="M 11740,10851 L 11740,10701"/>
 <path fill="none" stroke="rgb(0,0,0)" stroke-width="30" stroke-linejoin="round" d="M 11858,10851 L 11858,10701"/>
 <path fill="none" stroke="rgb(0,0,0)" stroke-width="30" stroke-linejoin="round" d="M 11858,10851 L 11858,10701"/>
 <path fill="none" stroke="rgb(0,0,0)" stroke-width="30" stroke-linejoin="round" d="M 11976,10851 L 11976,10701"/>
 <path fill="none" stroke="rgb(0,0,0)" stroke-width="30" stroke-linejoin="round" d="M 11976,10851 L 11976,10701"/>
 <path fill="none" stroke="rgb(0,0,0)" stroke-width="30" stroke-linejoin="round" d="M 12094,10851 L 12094,10701"/>
 <path fill="none" stroke="rgb(0,0,0)" stroke-width="30" stroke-linejoin="round" d="M 12094,10851 L 12094,10701"/>
 <path fill="none" stroke="rgb(0,0,0)" stroke-width="30" stroke-linejoin="round" d="M 12212,10851 L 12212,10701"/>
 <path fill="none" stroke="rgb(0,0,0)" stroke-width="30" stroke-linejoin="round" d="M 12212,10851 L 12212,10701"/>
 <path fill="none" stroke="rgb(0,0,0)" stroke-width="30" stroke-linejoin="round" d="M 12330,10851 L 12330,10701"/>
 <path fill="none" stroke="rgb(0,0,0)" stroke-width="30" stroke-linejoin="round" d="M 12330,10851 L 12330,10701"/>
 <path fill="none" stroke="rgb(0,0,0)" stroke-width="30" stroke-linejoin="round" d="M 12447,10851 L 12447,10701"/>
 <path fill="none" stroke="rgb(0,0,0)" stroke-width="30" stroke-linejoin="round" d="M 12447,10851 L 12447,10701"/>
 <path fill="none" stroke="rgb(0,0,0)" stroke-width="30" stroke-linejoin="round" d="M 12565,10851 L 12565,10701"/>
 <path fill="none" stroke="rgb(0,0,0)" stroke-width="30" stroke-linejoin="round" d="M 12565,10851 L 12565,10701"/>
 <path fill="none" stroke="rgb(0,0,0)" stroke-width="30" stroke-linejoin="round" d="M 12683,10851 L 12683,10701"/>
 <path fill="none" stroke="rgb(0,0,0)" stroke-width="30" stroke-linejoin="round" d="M 12683,10851 L 12683,10701"/>
 <path fill="none" stroke="rgb(0,0,0)" stroke-width="30" stroke-linejoin="round" d="M 12801,10851 L 12801,10701"/>
 <path fill="none" stroke="rgb(0,0,0)" stroke-width="30" stroke-linejoin="round" d="M 12801,10851 L 12801,10701"/>
 <path fill="none" stroke="rgb(0,0,0)" stroke-width="30" stroke-linejoin="round" d="M 12919,10851 L 12919,10701"/>
 <path fill="none" stroke="rgb(0,0,0)" stroke-width="30" stroke-linejoin="round" d="M 12919,10851 L 12919,10701"/>
 <path fill="none" stroke="rgb(0,0,0)" stroke-width="30" stroke-linejoin="round" d="M 13037,10851 L 13037,10701"/>
 <path fill="none" stroke="rgb(0,0,0)" stroke-width="30" stroke-linejoin="round" d="M 13037,10851 L 13037,10701"/>
 <path fill="none" stroke="rgb(0,0,0)" stroke-width="30" stroke-linejoin="round" d="M 13154,10851 L 13154,10701"/>
 <path fill="none" stroke="rgb(0,0,0)" stroke-width="30" stroke-linejoin="round" d="M 13154,10851 L 13154,10701"/>
 <path fill="none" stroke="rgb(0,0,0)" stroke-width="30" stroke-linejoin="round" d="M 13272,10851 L 13272,10701"/>
 <path fill="none" stroke="rgb(0,0,0)" stroke-width="30" stroke-linejoin="round" d="M 13272,10851 L 13272,10701"/>
 <path fill="none" stroke="rgb(0,0,0)" stroke-width="30" stroke-linejoin="round" d="M 13390,10851 L 13390,10701"/>
 <path fill="none" stroke="rgb(0,0,0)" stroke-width="30" stroke-linejoin="round" d="M 13390,10851 L 13390,10701"/>
 <path fill="none" stroke="rgb(0,0,0)" stroke-width="30" stroke-linejoin="round" d="M 13508,10851 L 13508,10701"/>
 <path fill="none" stroke="rgb(0,0,0)" stroke-width="30" stroke-linejoin="round" d="M 13508,10851 L 13508,10701"/>
 <path fill="none" stroke="rgb(0,0,0)" stroke-width="30" stroke-linejoin="round" d="M 13626,10851 L 13626,10701"/>
 <path fill="none" stroke="rgb(0,0,0)" stroke-width="30" stroke-linejoin="round" d="M 13626,10851 L 13626,10701"/>
 <path fill="none" stroke="rgb(0,0,0)" stroke-width="30" stroke-linejoin="round" d="M 13744,10851 L 13744,10701"/>
 <path fill="none" stroke="rgb(0,0,0)" stroke-width="30" stroke-linejoin="round" d="M 13744,10851 L 13744,10701"/>
 <path fill="none" stroke="rgb(0,0,0)" stroke-width="30" stroke-linejoin="round" d="M 13861,10851 L 13861,10701"/>
 <path fill="none" stroke="rgb(0,0,0)" stroke-width="30" stroke-linejoin="round" d="M 13861,10851 L 13861,10701"/>
 <path fill="none" stroke="rgb(0,0,0)" stroke-width="30" stroke-linejoin="round" d="M 13979,10851 L 13979,10701"/>
 <path fill="none" stroke="rgb(0,0,0)" stroke-width="30" stroke-linejoin="round" d="M 13979,10851 L 13979,10701"/>
 <path fill="none" stroke="rgb(0,0,0)" stroke-width="30" stroke-linejoin="round" d="M 14097,10851 L 14097,10701"/>
 <path fill="none" stroke="rgb(0,0,0)" stroke-width="30" stroke-linejoin="round" d="M 14097,10851 L 14097,10701"/>
 <path fill="none" stroke="rgb(0,0,0)" stroke-width="30" stroke-linejoin="round" d="M 14215,10851 L 14215,10701"/>
 <path fill="none" stroke="rgb(0,0,0)" stroke-width="30" stroke-linejoin="round" d="M 14215,10851 L 14215,10701"/>
 <path fill="none" stroke="rgb(0,0,0)" stroke-width="30" stroke-linejoin="round" d="M 14333,10851 L 14333,10701"/>
 <path fill="none" stroke="rgb(0,0,0)" stroke-width="30" stroke-linejoin="round" d="M 14333,10851 L 14333,10701"/>
 <path fill="none" stroke="rgb(0,0,0)" stroke-width="30" stroke-linejoin="round" d="M 14451,10851 L 14451,10701"/>
 <path fill="none" stroke="rgb(0,0,0)" stroke-width="30" stroke-linejoin="round" d="M 14451,10851 L 14451,10701"/>
 <path fill="none" stroke="rgb(0,0,0)" stroke-width="30" stroke-linejoin="round" d="M 14568,10851 L 14568,10701"/>
 <path fill="none" stroke="rgb(0,0,0)" stroke-width="30" stroke-linejoin="round" d="M 14568,10851 L 14568,10701"/>
 <path fill="none" stroke="rgb(0,0,0)" stroke-width="30" stroke-linejoin="round" d="M 14686,10851 L 14686,10701"/>
 <path fill="none" stroke="rgb(0,0,0)" stroke-width="30" stroke-linejoin="round" d="M 14686,10851 L 14686,10701"/>
 <path fill="none" stroke="rgb(0,0,0)" stroke-width="30" stroke-linejoin="round" d="M 14804,10851 L 14804,10701"/>
 <path fill="none" stroke="rgb(0,0,0)" stroke-width="30" stroke-linejoin="round" d="M 14804,10851 L 14804,10701"/>
 <path fill="none" stroke="rgb(0,0,0)" stroke-width="30" stroke-linejoin="round" d="M 14922,10851 L 14922,10701"/>
 <path fill="none" stroke="rgb(0,0,0)" stroke-width="30" stroke-linejoin="round" d="M 14922,10851 L 14922,10701"/>
 <path fill="none" stroke="rgb(0,0,0)" stroke-width="30" stroke-linejoin="round" d="M 15040,10851 L 15040,10701"/>
 <path fill="none" stroke="rgb(0,0,0)" stroke-width="30" stroke-linejoin="round" d="M 15040,10851 L 15040,10701"/>
 <path fill="none" stroke="rgb(0,0,0)" stroke-width="30" stroke-linejoin="round" d="M 15158,10851 L 15158,10701"/>
 <path fill="none" stroke="rgb(0,0,0)" stroke-width="30" stroke-linejoin="round" d="M 15158,10851 L 15158,10701"/>
 <path fill="none" stroke="rgb(0,0,0)" stroke-width="30" stroke-linejoin="round" d="M 1255,10701 L 15158,10701"/>
 <path fill="none" stroke="rgb(0,0,0)" stroke-width="30" stroke-linejoin="round" d="M 1105,10701 L 1255,10701"/>
 <path fill="none" stroke="rgb(0,0,0)" stroke-width="30" stroke-linejoin="round" d="M 1105,10701 L 1255,10701"/>
 <path fill="none" stroke="rgb(0,0,0)" stroke-width="30" stroke-linejoin="round" d="M 1105,9739 L 1255,9739"/>
 <path fill="none" stroke="rgb(0,0,0)" stroke-width="30" stroke-linejoin="round" d="M 1105,9739 L 1255,9739"/>
 <path fill="none" stroke="rgb(0,0,0)" stroke-width="30" stroke-linejoin="round" d="M 1105,8778 L 1255,8778"/>
 <path fill="none" stroke="rgb(0,0,0)" stroke-width="30" stroke-linejoin="round" d="M 1105,8778 L 1255,8778"/>
 <path fill="none" stroke="rgb(0,0,0)" stroke-width="30" stroke-linejoin="round" d="M 1105,7817 L 1255,7817"/>
 <path fill="none" stroke="rgb(0,0,0)" stroke-width="30" stroke-linejoin="round" d="M 1105,7817 L 1255,7817"/>
 <path fill="none" stroke="rgb(0,0,0)" stroke-width="30" stroke-linejoin="round" d="M 1105,6856 L 1255,6856"/>
 <path fill="none" stroke="rgb(0,0,0)" stroke-width="30" stroke-linejoin="round" d="M 1105,6856 L 1255,6856"/>
 <path fill="none" stroke="rgb(0,0,0)" stroke-width="30" stroke-linejoin="round" d="M 1105,5896 L 1255,5896"/>
 <path fill="none" stroke="rgb(0,0,0)" stroke-width="30" stroke-linejoin="round" d="M 1105,5896 L 1255,5896"/>
 <path fill="none" stroke="rgb(0,0,0)" stroke-width="30" stroke-linejoin="round" d="M 1105,4935 L 1255,4935"/>
 <path fill="none" stroke="rgb(0,0,0)" stroke-width="30" stroke-linejoin="round" d="M 1105,4935 L 1255,4935"/>
 <path fill="none" stroke="rgb(0,0,0)" stroke-width="30" stroke-linejoin="round" d="M 1105,3974 L 1255,3974"/>
 <path fill="none" stroke="rgb(0,0,0)" stroke-width="30" stroke-linejoin="round" d="M 1105,3974 L 1255,3974"/>
 <path fill="none" stroke="rgb(0,0,0)" stroke-width="30" stroke-linejoin="round" d="M 1105,3013 L 1255,3013"/>
 <path fill="none" stroke="rgb(0,0,0)" stroke-width="30" stroke-linejoin="round" d="M 1105,3013 L 1255,3013"/>
 <path fill="none" stroke="rgb(0,0,0)" stroke-width="30" stroke-linejoin="round" d="M 1105,2052 L 1255,2052"/>
 <path fill="none" stroke="rgb(0,0,0)" stroke-width="30" stroke-linejoin="round" d="M 1105,2052 L 1255,2052"/>
 <path fill="none" stroke="rgb(0,0,0)" stroke-width="30" stroke-linejoin="round" d="M 1105,1091 L 1255,1091"/>
 <path fill="none" stroke="rgb(0,0,0)" stroke-width="30" stroke-linejoin="round" d="M 1105,1091 L 1255,1091"/>
 <path fill="none" stroke="rgb(0,0,0)" stroke-width="30" stroke-linejoin="round" d="M 1255,10701 L 1255,1091"/>
 <path fill="none" stroke="rgb(0,0,0)" stroke-width="30" stroke-linejoin="round" d="M 15308,10701 L 15158,10701"/>
 <path fill="none" stroke="rgb(0,0,0)" stroke-width="30" stroke-linejoin="round" d="M 15308,10701 L 15158,10701"/>
 <path fill="none" stroke="rgb(0,0,0)" stroke-width="30" stroke-linejoin="round" d="M 15308,9739 L 15158,9739"/>
 <path fill="none" stroke="rgb(0,0,0)" stroke-width="30" stroke-linejoin="round" d="M 15308,9739 L 15158,9739"/>
 <path fill="none" stroke="rgb(0,0,0)" stroke-width="30" stroke-linejoin="round" d="M 15308,8778 L 15158,8778"/>
 <path fill="none" stroke="rgb(0,0,0)" stroke-width="30" stroke-linejoin="round" d="M 15308,8778 L 15158,8778"/>
 <path fill="none" stroke="rgb(0,0,0)" stroke-width="30" stroke-linejoin="round" d="M 15308,7817 L 15158,7817"/>
 <path fill="none" stroke="rgb(0,0,0)" stroke-width="30" stroke-linejoin="round" d="M 15308,7817 L 15158,7817"/>
 <path fill="none" stroke="rgb(0,0,0)" stroke-width="30" stroke-linejoin="round" d="M 15308,6856 L 15158,6856"/>
 <path fill="none" stroke="rgb(0,0,0)" stroke-width="30" stroke-linejoin="round" d="M 15308,6856 L 15158,6856"/>
 <path fill="none" stroke="rgb(0,0,0)" stroke-width="30" stroke-linejoin="round" d="M 15308,5896 L 15158,5896"/>
 <path fill="none" stroke="rgb(0,0,0)" stroke-width="30" stroke-linejoin="round" d="M 15308,5896 L 15158,5896"/>
 <path fill="none" stroke="rgb(0,0,0)" stroke-width="30" stroke-linejoin="round" d="M 15308,4935 L 15158,4935"/>
 <path fill="none" stroke="rgb(0,0,0)" stroke-width="30" stroke-linejoin="round" d="M 15308,4935 L 15158,4935"/>
 <path fill="none" stroke="rgb(0,0,0)" stroke-width="30" stroke-linejoin="round" d="M 15308,3974 L 15158,3974"/>
 <path fill="none" stroke="rgb(0,0,0)" stroke-width="30" stroke-linejoin="round" d="M 15308,3974 L 15158,3974"/>
 <path fill="none" stroke="rgb(0,0,0)" stroke-width="30" stroke-linejoin="round" d="M 15308,3013 L 15158,3013"/>
 <path fill="none" stroke="rgb(0,0,0)" stroke-width="30" stroke-linejoin="round" d="M 15308,3013 L 15158,3013"/>
 <path fill="none" stroke="rgb(0,0,0)" stroke-width="30" stroke-linejoin="round" d="M 15308,2052 L 15158,2052"/>
 <path fill="none" stroke="rgb(0,0,0)" stroke-width="30" stroke-linejoin="round" d="M 15308,2052 L 15158,2052"/>
 <path fill="none" stroke="rgb(0,0,0)" stroke-width="30" stroke-linejoin="round" d="M 15308,1091 L 15158,1091"/>
 <path fill="none" stroke="rgb(0,0,0)" stroke-width="30" stroke-linejoin="round" d="M 15308,1091 L 15158,1091"/>
 <path fill="none" stroke="rgb(0,0,0)" stroke-width="30" stroke-linejoin="round" d="M 15158,10701 L 15158,1091"/>
 <path fill="rgb(0,69,134)" stroke="none" d="M 1255,9935 L 1372,9943 1490,9997 1608,10024 1726,10030 1844,10045 1961,10072 2079,10097 2197,10108 2315,10129 2433,10157 2551,10164 2668,10182 2786,10188 2904,10205 3022,10207 3140,10198 3258,10196 3375,10198 3493,10212 3611,10205 3729,10187 3847,10197 3965,10202 4082,10206 4200,10186 4318,10201 4436,10206 4554,10209 4672,10185 4789,10191 4907,10204 5025,10174 5143,10190 5261,10201 5379,10216 5496,10236 5614,10194 5732,10226 5850,10192 5968,10228 6086,10200 6203,10198 6321,10188 6439,10138 6557,10142 6675,10160 6793,10186 6910,10167 7028,10130 7146,10138 7264,10156 7382,10135 7500,10118 7617,10113 7735,10092 7853,10064 7971,10091 8089,10074 8207,10036 8323,10007 8441,9948 8559,9917 8677,9934 8795,9964 8912,9898 9030,9843 9148,9818 9266,9768 9384,9471 9502,9504 9619,9542 9737,9560 9855,9369 9973,9380 10091,9296 10209,9198 10326,9202 10444,9360 10562,9466 10680,9527 10798,9413 10916,9453 11033,9289 11151,9181 11269,9078 11387,8948 11505,8897 11623,8862 11740,8806 11858,8642 11976,8522 12094,8355 12212,8333 12330,8215 12447,8245 12565,8095 12683,7959 12801,7812 12919,7980 13037,7786 13154,7711 13272,7564 13390,7373 13508,7144 13626,6975 13744,6936 13861,6940 13979,6748 14097,6546 14215,6492 14333,6704 14451,6599 14568,6578 14686,6472 14804,6333 14922,6225 15040,6208 15158,6452 15158,10701 1255,10701 1255,9935 Z"/>
 <path fill="none" stroke="rgb(0,0,0)" stroke-linejoin="round" d="M 1255,9935 L 1372,9943 1490,9997 1608,10024 1726,10030 1844,10045 1961,10072 2079,10097 2197,10108 2315,10129 2433,10157 2551,10164 2668,10182 2786,10188 2904,10205 3022,10207 3140,10198 3258,10196 3375,10198 3493,10212 3611,10205 3729,10187 3847,10197 3965,10202 4082,10206 4200,10186 4318,10201 4436,10206 4554,10209 4672,10185 4789,10191 4907,10204 5025,10174 5143,10190 5261,10201 5379,10216 5496,10236 5614,10194 5732,10226 5850,10192 5968,10228 6086,10200 6203,10198 6321,10188 6439,10138 6557,10142 6675,10160 6793,10186 6910,10167 7028,10130 7146,10138 7264,10156 7382,10135 7500,10118 7617,10113 7735,10092 7853,10064 7971,10091 8089,10074 8207,10036 8323,10007 8441,9948 8559,9917 8677,9934 8795,9964 8912,9898 9030,9843 9148,9818 9266,9768 9384,9471 9502,9504 9619,9542 9737,9560 9855,9369 9973,9380 10091,9296 10209,9198 10326,9202 10444,9360 10562,9466 10680,9527 10798,9413 10916,9453 11033,9289 11151,9181 11269,9078 11387,8948 11505,8897 11623,8862 11740,8806 11858,8642 11976,8522 12094,8355 12212,8333 12330,8215 12447,8245 12565,8095 12683,7959 12801,7812 12919,7980 13037,7786 13154,7711 13272,7564 13390,7373 13508,7144 13626,6975 13744,6936 13861,6940 13979,6748 14097,6546 14215,6492 14333,6704 14451,6599 14568,6578 14686,6472 14804,6333 14922,6225 15040,6208 15158,6452 15158,10701 1255,10701 1255,9935 Z"/>
 <path fill="rgb(255,66,14)" stroke="none" d="M 1255,4952 L 1372,4999 1490,5180 1608,5270 1726,5322 1844,5301 1961,5490 2079,5587 2197,5635 2315,5743 2433,5845 2551,5875 2668,6005 2786,6092 2904,6208 3022,6239 3140,6291 3258,6338 3375,6358 3493,6403 3611,6423 3729,6453 3847,6520 3965,6536 4082,6624 4200,6662 4318,6773 4436,6810 4554,6859 4672,6920 4789,6917 4907,6927 5025,6920 5143,6997 5261,7038 5379,7064 5496,7092 5614,7123 5732,7188 5850,7196 5968,7247 6086,7270 6203,7308 6321,7309 6439,7268 6557,7308 6675,7366 6793,7477 6910,7414 7028,7293 7146,7297 7264,7341 7382,7335 7500,7258 7617,7335 7735,7394 7853,7417 7971,7484 8089,7413 8207,7392 8323,7337 8441,7118 8559,7205 8677,7146 8795,7183 8912,7215 9030,7228 9148,7217 9266,7119 9384,6928 9502,7018 9619,7105 9737,7092 9855,6876 9973,6899 10091,6886 10209,6824 10326,6890 10444,7229 10562,7388 10680,7312 10798,7249 10916,7322 11033,7220 11151,7076 11269,6987 11387,6745 11505,6803 11623,6847 11740,6896 11858,6737 11976,6620 12094,6506 12212,6497 12330,6511 12447,6543 12565,6404 12683,6262 12801,6170 12919,6426 13037,6266 13154,6166 13272,6065 13390,5910 13508,5642 13626,5619 13744,5641 13861,5617 13979,5397 14097,5119 14215,5079 14333,5309 14451,5202 14568,5079 14686,5105 14804,4999 14922,4863 15040,4875 15158,5073 15158,6452 15040,6208 14922,6225 14804,6333 14686,6472 14568,6578 14451,6599 14333,6704 14215,6492 14097,6546 13979,6748 13861,6940 13744,6936 13626,6975 13508,7144 13390,7373 13272,7564 13154,7711 13037,7786 12919,7980 12801,7812 12683,7959 12565,8095 12447,8245 12330,8215 12212,8333 12094,8355 11976,8522 11858,8642 11740,8806 11623,8862 11505,8897 11387,8948 11269,9078 11151,9181 11033,9289 10916,9453 10798,9413 10680,9527 10562,9466 10444,9360 10326,9202 10209,9198 10091,9296 9973,9380 9855,9369 9737,9560 9619,9542 9502,9504 9384,9471 9266,9768 9148,9818 9030,9843 8912,9898 8795,9964 8677,9934 8559,9917 8441,9948 8323,10007 8207,10036 8089,10074 7971,10091 7853,10064 7735,10092 7617,10113 7500,10118 7382,10135 7264,10156 7146,10138 7028,10130 6910,10167 6793,10186 6675,10160 6557,10142 6439,10138 6321,10188 6203,10198 6086,10200 5968,10228 5850,10192 5732,10226 5614,10194 5496,10236 5379,10216 5261,10201 5143,10190 5025,10174 4907,10204 4789,10191 4672,10185 4554,10209 4436,10206 4318,10201 4200,10186 4082,10206 3965,10202 3847,10197 3729,10187 3611,10205 3493,10212 3375,10198 3258,10196 3140,10198 3022,10207 2904,10205 2786,10188 2668,10182 2551,10164 2433,10157 2315,10129 2197,10108 2079,10097 1961,10072 1844,10045 1726,10030 1608,10024 1490,9997 1372,9943 1255,9935 1255,4952 Z"/>
 <path fill="none" stroke="rgb(0,0,0)" stroke-linejoin="round" d="M 1255,4952 L 1372,4999 1490,5180 1608,5270 1726,5322 1844,5301 1961,5490 2079,5587 2197,5635 2315,5743 2433,5845 2551,5875 2668,6005 2786,6092 2904,6208 3022,6239 3140,6291 3258,6338 3375,6358 3493,6403 3611,6423 3729,6453 3847,6520 3965,6536 4082,6624 4200,6662 4318,6773 4436,6810 4554,6859 4672,6920 4789,6917 4907,6927 5025,6920 5143,6997 5261,7038 5379,7064 5496,7092 5614,7123 5732,7188 5850,7196 5968,7247 6086,7270 6203,7308 6321,7309 6439,7268 6557,7308 6675,7366 6793,7477 6910,7414 7028,7293 7146,7297 7264,7341 7382,7335 7500,7258 7617,7335 7735,7394 7853,7417 7971,7484 8089,7413 8207,7392 8323,7337 8441,7118 8559,7205 8677,7146 8795,7183 8912,7215 9030,7228 9148,7217 9266,7119 9384,6928 9502,7018 9619,7105 9737,7092 9855,6876 9973,6899 10091,6886 10209,6824 10326,6890 10444,7229 10562,7388 10680,7312 10798,7249 10916,7322 11033,7220 11151,7076 11269,6987 11387,6745 11505,6803 11623,6847 11740,6896 11858,6737 11976,6620 12094,6506 12212,6497 12330,6511 12447,6543 12565,6404 12683,6262 12801,6170 12919,6426 13037,6266 13154,6166 13272,6065 13390,5910 13508,5642 13626,5619 13744,5641 13861,5617 13979,5397 14097,5119 14215,5079 14333,5309 14451,5202 14568,5079 14686,5105 14804,4999 14922,4863 15040,4875 15158,5073 15158,6452 15040,6208 14922,6225 14804,6333 14686,6472 14568,6578 14451,6599 14333,6704 14215,6492 14097,6546 13979,6748 13861,6940 13744,6936 13626,6975 13508,7144 13390,7373 13272,7564 13154,7711 13037,7786 12919,7980 12801,7812 12683,7959 12565,8095 12447,8245 12330,8215 12212,8333 12094,8355 11976,8522 11858,8642 11740,8806 11623,8862 11505,8897 11387,8948 11269,9078 11151,9181 11033,9289 10916,9453 10798,9413 10680,9527 10562,9466 10444,9360 10326,9202 10209,9198 10091,9296 9973,9380 9855,9369 9737,9560 9619,9542 9502,9504 9384,9471 9266,9768 9148,9818 9030,9843 8912,9898 8795,9964 8677,9934 8559,9917 8441,9948 8323,10007 8207,10036 8089,10074 7971,10091 7853,10064 7735,10092 7617,10113 7500,10118 7382,10135 7264,10156 7146,10138 7028,10130 6910,10167 6793,10186 6675,10160 6557,10142 6439,10138 6321,10188 6203,10198 6086,10200 5968,10228 5850,10192 5732,10226 5614,10194 5496,10236 5379,10216 5261,10201 5143,10190 5025,10174 4907,10204 4789,10191 4672,10185 4554,10209 4436,10206 4318,10201 4200,10186 4082,10206 3965,10202 3847,10197 3729,10187 3611,10205 3493,10212 3375,10198 3258,10196 3140,10198 3022,10207 2904,10205 2786,10188 2668,10182 2551,10164 2433,10157 2315,10129 2197,10108 2079,10097 1961,10072 1844,10045 1726,10030 1608,10024 1490,9997 1372,9943 1255,9935 1255,4952 Z"/>
 <path fill="rgb(255,211,32)" stroke="none" d="M 1255,1619 L 1372,1634 1490,1691 1608,1744 1726,1708 1844,1711 1961,1787 2079,1801 2197,1808 2315,1844 2433,1877 2551,1847 2668,1883 2786,1933 2904,1960 3022,1976 3140,2003 3258,2036 3375,2035 3493,2029 3611,2055 3729,2069 3847,2101 3965,2109 4082,2140 4200,2166 4318,2191 4436,2209 4554,2242 4672,2277 4789,2288 4907,2326 5025,2333 5143,2370 5261,2403 5379,2390 5496,2367 5614,2396 5732,2391 5850,2449 5968,2457 6086,2486 6203,2522 6321,2552 6439,2566 6557,2622 6675,2653 6793,2683 6910,2659 7028,2611 7146,2630 7264,2679 7382,2721 7500,2701 7617,2752 7735,2762 7853,2795 7971,2836 8089,2771 8207,2786 8323,2774 8441,2692 8559,2715 8677,2696 8795,2672 8912,2722 9030,2790 9148,2787 9266,2745 9384,2797 9502,2829 9619,2889 9737,2819 9855,2798 9973,2834 10091,2849 10209,2858 10326,2908 10444,3097 10562,3127 10680,2994 10798,2889 10916,2945 11033,2963 11151,2984 11269,2986 11387,2935 11505,2925 11623,3002 11740,3007 11858,2938 11976,2968 12094,2938 12212,2899 12330,2931 12447,2941 12565,2941 12683,2933 12801,2927 12919,3075 13037,2992 13154,2957 13272,2950 13390,2926 13508,2796 13626,2787 13744,2802 13861,2755 13979,2610 14097,2515 14215,2501 14333,2564 14451,2563 14568,2529 14686,2555 14804,2537 14922,2474 15040,2513 15158,2568 15158,5073 15040,4875 14922,4863 14804,4999 14686,5105 14568,5079 14451,5202 14333,5309 14215,5079 14097,5119 13979,5397 13861,5617 13744,5641 13626,5619 13508,5642 13390,5910 13272,6065 13154,6166 13037,6266 12919,6426 12801,6170 12683,6262 12565,6404 12447,6543 12330,6511 12212,6497 12094,6506 11976,6620 11858,6737 11740,6896 11623,6847 11505,6803 11387,6745 11269,6987 11151,7076 11033,7220 10916,7322 10798,7249 10680,7312 10562,7388 10444,7229 10326,6890 10209,6824 10091,6886 9973,6899 9855,6876 9737,7092 9619,7105 9502,7018 9384,6928 9266,7119 9148,7217 9030,7228 8912,7215 8795,7183 8677,7146 8559,7205 8441,7118 8323,7337 8207,7392 8089,7413 7971,7484 7853,7417 7735,7394 7617,7335 7500,7258 7382,7335 7264,7341 7146,7297 7028,7293 6910,7414 6793,7477 6675,7366 6557,7308 6439,7268 6321,7309 6203,7308 6086,7270 5968,7247 5850,7196 5732,7188 5614,7123 5496,7092 5379,7064 5261,7038 5143,6997 5025,6920 4907,6927 4789,6917 4672,6920 4554,6859 4436,6810 4318,6773 4200,6662 4082,6624 3965,6536 3847,6520 3729,6453 3611,6423 3493,6403 3375,6358 3258,6338 3140,6291 3022,6239 2904,6208 2786,6092 2668,6005 2551,5875 2433,5845 2315,5743 2197,5635 2079,5587 1961,5490 1844,5301 1726,5322 1608,5270 1490,5180 1372,4999 1255,4952 1255,1619 Z"/>
 <path fill="none" stroke="rgb(0,0,0)" stroke-linejoin="round" d="M 1255,1619 L 1372,1634 1490,1691 1608,1744 1726,1708 1844,1711 1961,1787 2079,1801 2197,1808 2315,1844 2433,1877 2551,1847 2668,1883 2786,1933 2904,1960 3022,1976 3140,2003 3258,2036 3375,2035 3493,2029 3611,2055 3729,2069 3847,2101 3965,2109 4082,2140 4200,2166 4318,2191 4436,2209 4554,2242 4672,2277 4789,2288 4907,2326 5025,2333 5143,2370 5261,2403 5379,2390 5496,2367 5614,2396 5732,2391 5850,2449 5968,2457 6086,2486 6203,2522 6321,2552 6439,2566 6557,2622 6675,2653 6793,2683 6910,2659 7028,2611 7146,2630 7264,2679 7382,2721 7500,2701 7617,2752 7735,2762 7853,2795 7971,2836 8089,2771 8207,2786 8323,2774 8441,2692 8559,2715 8677,2696 8795,2672 8912,2722 9030,2790 9148,2787 9266,2745 9384,2797 9502,2829 9619,2889 9737,2819 9855,2798 9973,2834 10091,2849 10209,2858 10326,2908 10444,3097 10562,3127 10680,2994 10798,2889 10916,2945 11033,2963 11151,2984 11269,2986 11387,2935 11505,2925 11623,3002 11740,3007 11858,2938 11976,2968 12094,2938 12212,2899 12330,2931 12447,2941 12565,2941 12683,2933 12801,2927 12919,3075 13037,2992 13154,2957 13272,2950 13390,2926 13508,2796 13626,2787 13744,2802 13861,2755 13979,2610 14097,2515 14215,2501 14333,2564 14451,2563 14568,2529 14686,2555 14804,2537 14922,2474 15040,2513 15158,2568 15158,5073 15040,4875 14922,4863 14804,4999 14686,5105 14568,5079 14451,5202 14333,5309 14215,5079 14097,5119 13979,5397 13861,5617 13744,5641 13626,5619 13508,5642 13390,5910 13272,6065 13154,6166 13037,6266 12919,6426 12801,6170 12683,6262 12565,6404 12447,6543 12330,6511 12212,6497 12094,6506 11976,6620 11858,6737 11740,6896 11623,6847 11505,6803 11387,6745 11269,6987 11151,7076 11033,7220 10916,7322 10798,7249 10680,7312 10562,7388 10444,7229 10326,6890 10209,6824 10091,6886 9973,6899 9855,6876 9737,7092 9619,7105 9502,7018 9384,6928 9266,7119 9148,7217 9030,7228 8912,7215 8795,7183 8677,7146 8559,7205 8441,7118 8323,7337 8207,7392 8089,7413 7971,7484 7853,7417 7735,7394 7617,7335 7500,7258 7382,7335 7264,7341 7146,7297 7028,7293 6910,7414 6793,7477 6675,7366 6557,7308 6439,7268 6321,7309 6203,7308 6086,7270 5968,7247 5850,7196 5732,7188 5614,7123 5496,7092 5379,7064 5261,7038 5143,6997 5025,6920 4907,6927 4789,6917 4672,6920 4554,6859 4436,6810 4318,6773 4200,6662 4082,6624 3965,6536 3847,6520 3729,6453 3611,6423 3493,6403 3375,6358 3258,6338 3140,6291 3022,6239 2904,6208 2786,6092 2668,6005 2551,5875 2433,5845 2315,5743 2197,5635 2079,5587 1961,5490 1844,5301 1726,5322 1608,5270 1490,5180 1372,4999 1255,4952 1255,1619 Z"/>
 <path fill="rgb(87,157,28)" stroke="none" d="M 1255,1235 L 1372,1237 1490,1244 1608,1252 1726,1254 1844,1258 1961,1274 2079,1283 2197,1280 2315,1292 2433,1307 2551,1300 2668,1309 2786,1332 2904,1347 3022,1361 3140,1380 3258,1411 3375,1413 3493,1420 3611,1428 3729,1448 3847,1476 3965,1496 4082,1529 4200,1562 4318,1593 4436,1618 4554,1651 4672,1688 4789,1704 4907,1732 5025,1747 5143,1785 5261,1821 5379,1828 5496,1827 5614,1862 5732,1873 5850,1914 5968,1914 6086,1954 6203,1991 6321,2026 6439,2055 6557,2115 6675,2138 6793,2173 6910,2168 7028,2155 7146,2177 7264,2222 7382,2264 7500,2258 7617,2307 7735,2325 7853,2352 7971,2379 8089,2338 8207,2362 8323,2358 8441,2311 8559,2327 8677,2330 8795,2312 8912,2355 9030,2407 9148,2421 9266,2402 9384,2489 9502,2507 9619,2547 9737,2474 9855,2475 9973,2502 10091,2512 10209,2511 10326,2553 10444,2674 10562,2673 10680,2569 10798,2503 10916,2558 11033,2604 11151,2622 11269,2634 11387,2600 11505,2600 11623,2672 11740,2677 11858,2637 11976,2646 12094,2624 12212,2595 12330,2629 12447,2639 12565,2646 12683,2646 12801,2647 12919,2779 13037,2705 13154,2680 13272,2679 13390,2664 13508,2557 13626,2554 13744,2569 13861,2543 13979,2406 14097,2326 14215,2304 14333,2362 14451,2359 14568,2341 14686,2354 14804,2339 14922,2289 15040,2325 15158,2371 15158,2568 15040,2513 14922,2474 14804,2537 14686,2555 14568,2529 14451,2563 14333,2564 14215,2501 14097,2515 13979,2610 13861,2755 13744,2802 13626,2787 13508,2796 13390,2926 13272,2950 13154,2957 13037,2992 12919,3075 12801,2927 12683,2933 12565,2941 12447,2941 12330,2931 12212,2899 12094,2938 11976,2968 11858,2938 11740,3007 11623,3002 11505,2925 11387,2935 11269,2986 11151,2984 11033,2963 10916,2945 10798,2889 10680,2994 10562,3127 10444,3097 10326,2908 10209,2858 10091,2849 9973,2834 9855,2798 9737,2819 9619,2889 9502,2829 9384,2797 9266,2745 9148,2787 9030,2790 8912,2722 8795,2672 8677,2696 8559,2715 8441,2692 8323,2774 8207,2786 8089,2771 7971,2836 7853,2795 7735,2762 7617,2752 7500,2701 7382,2721 7264,2679 7146,2630 7028,2611 6910,2659 6793,2683 6675,2653 6557,2622 6439,2566 6321,2552 6203,2522 6086,2486 5968,2457 5850,2449 5732,2391 5614,2396 5496,2367 5379,2390 5261,2403 5143,2370 5025,2333 4907,2326 4789,2288 4672,2277 4554,2242 4436,2209 4318,2191 4200,2166 4082,2140 3965,2109 3847,2101 3729,2069 3611,2055 3493,2029 3375,2035 3258,2036 3140,2003 3022,1976 2904,1960 2786,1933 2668,1883 2551,1847 2433,1877 2315,1844 2197,1808 2079,1801 1961,1787 1844,1711 1726,1708 1608,1744 1490,1691 1372,1634 1255,1619 1255,1235 Z"/>
 <path fill="none" stroke="rgb(0,0,0)" stroke-linejoin="round" d="M 1255,1235 L 1372,1237 1490,1244 1608,1252 1726,1254 1844,1258 1961,1274 2079,1283 2197,1280 2315,1292 2433,1307 2551,1300 2668,1309 2786,1332 2904,1347 3022,1361 3140,1380 3258,1411 3375,1413 3493,1420 3611,1428 3729,1448 3847,1476 3965,1496 4082,1529 4200,1562 4318,1593 4436,1618 4554,1651 4672,1688 4789,1704 4907,1732 5025,1747 5143,1785 5261,1821 5379,1828 5496,1827 5614,1862 5732,1873 5850,1914 5968,1914 6086,1954 6203,1991 6321,2026 6439,2055 6557,2115 6675,2138 6793,2173 6910,2168 7028,2155 7146,2177 7264,2222 7382,2264 7500,2258 7617,2307 7735,2325 7853,2352 7971,2379 8089,2338 8207,2362 8323,2358 8441,2311 8559,2327 8677,2330 8795,2312 8912,2355 9030,2407 9148,2421 9266,2402 9384,2489 9502,2507 9619,2547 9737,2474 9855,2475 9973,2502 10091,2512 10209,2511 10326,2553 10444,2674 10562,2673 10680,2569 10798,2503 10916,2558 11033,2604 11151,2622 11269,2634 11387,2600 11505,2600 11623,2672 11740,2677 11858,2637 11976,2646 12094,2624 12212,2595 12330,2629 12447,2639 12565,2646 12683,2646 12801,2647 12919,2779 13037,2705 13154,2680 13272,2679 13390,2664 13508,2557 13626,2554 13744,2569 13861,2543 13979,2406 14097,2326 14215,2304 14333,2362 14451,2359 14568,2341 14686,2354 14804,2339 14922,2289 15040,2325 15158,2371 15158,2568 15040,2513 14922,2474 14804,2537 14686,2555 14568,2529 14451,2563 14333,2564 14215,2501 14097,2515 13979,2610 13861,2755 13744,2802 13626,2787 13508,2796 13390,2926 13272,2950 13154,2957 13037,2992 12919,3075 12801,2927 12683,2933 12565,2941 12447,2941 12330,2931 12212,2899 12094,2938 11976,2968 11858,2938 11740,3007 11623,3002 11505,2925 11387,2935 11269,2986 11151,2984 11033,2963 10916,2945 10798,2889 10680,2994 10562,3127 10444,3097 10326,2908 10209,2858 10091,2849 9973,2834 9855,2798 9737,2819 9619,2889 9502,2829 9384,2797 9266,2745 9148,2787 9030,2790 8912,2722 8795,2672 8677,2696 8559,2715 8441,2692 8323,2774 8207,2786 8089,2771 7971,2836 7853,2795 7735,2762 7617,2752 7500,2701 7382,2721 7264,2679 7146,2630 7028,2611 6910,2659 6793,2683 6675,2653 6557,2622 6439,2566 6321,2552 6203,2522 6086,2486 5968,2457 5850,2449 5732,2391 5614,2396 5496,2367 5379,2390 5261,2403 5143,2370 5025,2333 4907,2326 4789,2288 4672,2277 4554,2242 4436,2209 4318,2191 4200,2166 4082,2140 3965,2109 3847,2101 3729,2069 3611,2055 3493,2029 3375,2035 3258,2036 3140,2003 3022,1976 2904,1960 2786,1933 2668,1883 2551,1847 2433,1877 2315,1844 2197,1808 2079,1801 1961,1787 1844,1711 1726,1708 1608,1744 1490,1691 1372,1634 1255,1619 1255,1235 Z"/>
 <path fill="rgb(126,0,33)" stroke="none" d="M 1255,1130 L 1372,1128 1490,1125 1608,1130 1726,1127 1844,1133 1961,1133 2079,1133 2197,1129 2315,1135 2433,1138 2551,1140 2668,1136 2786,1143 2904,1151 3022,1162 3140,1169 3258,1190 3375,1186 3493,1190 3611,1176 3729,1187 3847,1198 3965,1212 4082,1225 4200,1237 4318,1250 4436,1265 4554,1278 4672,1298 4789,1298 4907,1306 5025,1329 5143,1358 5261,1371 5379,1376 5496,1375 5614,1392 5732,1408 5850,1432 5968,1424 6086,1448 6203,1467 6321,1486 6439,1516 6557,1557 6675,1560 6793,1572 6910,1581 7028,1592 7146,1606 7264,1623 7382,1645 7500,1647 7617,1679 7735,1682 7853,1686 7971,1667 8089,1655 8207,1670 8323,1651 8441,1645 8559,1644 8677,1662 8795,1620 8912,1634 9030,1653 9148,1664 9266,1695 9384,1781 9502,1765 9619,1738 9737,1670 9855,1687 9973,1696 10091,1688 10209,1669 10326,1683 10444,1743 10562,1698 10680,1637 10798,1597 10916,1634 11033,1679 11151,1665 11269,1666 11387,1658 11505,1634 11623,1698 11740,1698 11858,1685 11976,1656 12094,1632 12212,1602 12330,1607 12447,1616 12565,1612 12683,1613 12801,1623 12919,1667 13037,1625 13154,1617 13272,1604 13390,1594 13508,1567 13626,1545 13744,1566 13861,1576 13979,1526 14097,1502 14215,1466 14333,1483 14451,1477 14568,1499 14686,1480 14804,1468 14922,1461 15040,1468 15158,1478 15158,2371 15040,2325 14922,2289 14804,2339 14686,2354 14568,2341 14451,2359 14333,2362 14215,2304 14097,2326 13979,2406 13861,2543 13744,2569 13626,2554 13508,2557 13390,2664 13272,2679 13154,2680 13037,2705 12919,2779 12801,2647 12683,2646 12565,2646 12447,2639 12330,2629 12212,2595 12094,2624 11976,2646 11858,2637 11740,2677 11623,2672 11505,2600 11387,2600 11269,2634 11151,2622 11033,2604 10916,2558 10798,2503 10680,2569 10562,2673 10444,2674 10326,2553 10209,2511 10091,2512 9973,2502 9855,2475 9737,2474 9619,2547 9502,2507 9384,2489 9266,2402 9148,2421 9030,2407 8912,2355 8795,2312 8677,2330 8559,2327 8441,2311 8323,2358 8207,2362 8089,2338 7971,2379 7853,2352 7735,2325 7617,2307 7500,2258 7382,2264 7264,2222 7146,2177 7028,2155 6910,2168 6793,2173 6675,2138 6557,2115 6439,2055 6321,2026 6203,1991 6086,1954 5968,1914 5850,1914 5732,1873 5614,1862 5496,1827 5379,1828 5261,1821 5143,1785 5025,1747 4907,1732 4789,1704 4672,1688 4554,1651 4436,1618 4318,1593 4200,1562 4082,1529 3965,1496 3847,1476 3729,1448 3611,1428 3493,1420 3375,1413 3258,1411 3140,1380 3022,1361 2904,1347 2786,1332 2668,1309 2551,1300 2433,1307 2315,1292 2197,1280 2079,1283 1961,1274 1844,1258 1726,1254 1608,1252 1490,1244 1372,1237 1255,1235 1255,1130 Z"/>
 <path fill="none" stroke="rgb(0,0,0)" stroke-linejoin="round" d="M 1255,1130 L 1372,1128 1490,1125 1608,1130 1726,1127 1844,1133 1961,1133 2079,1133 2197,1129 2315,1135 2433,1138 2551,1140 2668,1136 2786,1143 2904,1151 3022,1162 3140,1169 3258,1190 3375,1186 3493,1190 3611,1176 3729,1187 3847,1198 3965,1212 4082,1225 4200,1237 4318,1250 4436,1265 4554,1278 4672,1298 4789,1298 4907,1306 5025,1329 5143,1358 5261,1371 5379,1376 5496,1375 5614,1392 5732,1408 5850,1432 5968,1424 6086,1448 6203,1467 6321,1486 6439,1516 6557,1557 6675,1560 6793,1572 6910,1581 7028,1592 7146,1606 7264,1623 7382,1645 7500,1647 7617,1679 7735,1682 7853,1686 7971,1667 8089,1655 8207,1670 8323,1651 8441,1645 8559,1644 8677,1662 8795,1620 8912,1634 9030,1653 9148,1664 9266,1695 9384,1781 9502,1765 9619,1738 9737,1670 9855,1687 9973,1696 10091,1688 10209,1669 10326,1683 10444,1743 10562,1698 10680,1637 10798,1597 10916,1634 11033,1679 11151,1665 11269,1666 11387,1658 11505,1634 11623,1698 11740,1698 11858,1685 11976,1656 12094,1632 12212,1602 12330,1607 12447,1616 12565,1612 12683,1613 12801,1623 12919,1667 13037,1625 13154,1617 13272,1604 13390,1594 13508,1567 13626,1545 13744,1566 13861,1576 13979,1526 14097,1502 14215,1466 14333,1483 14451,1477 14568,1499 14686,1480 14804,1468 14922,1461 15040,1468 15158,1478 15158,2371 15040,2325 14922,2289 14804,2339 14686,2354 14568,2341 14451,2359 14333,2362 14215,2304 14097,2326 13979,2406 13861,2543 13744,2569 13626,2554 13508,2557 13390,2664 13272,2679 13154,2680 13037,2705 12919,2779 12801,2647 12683,2646 12565,2646 12447,2639 12330,2629 12212,2595 12094,2624 11976,2646 11858,2637 11740,2677 11623,2672 11505,2600 11387,2600 11269,2634 11151,2622 11033,2604 10916,2558 10798,2503 10680,2569 10562,2673 10444,2674 10326,2553 10209,2511 10091,2512 9973,2502 9855,2475 9737,2474 9619,2547 9502,2507 9384,2489 9266,2402 9148,2421 9030,2407 8912,2355 8795,2312 8677,2330 8559,2327 8441,2311 8323,2358 8207,2362 8089,2338 7971,2379 7853,2352 7735,2325 7617,2307 7500,2258 7382,2264 7264,2222 7146,2177 7028,2155 6910,2168 6793,2173 6675,2138 6557,2115 6439,2055 6321,2026 6203,1991 6086,1954 5968,1914 5850,1914 5732,1873 5614,1862 5496,1827 5379,1828 5261,1821 5143,1785 5025,1747 4907,1732 4789,1704 4672,1688 4554,1651 4436,1618 4318,1593 4200,1562 4082,1529 3965,1496 3847,1476 3729,1448 3611,1428 3493,1420 3375,1413 3258,1411 3140,1380 3022,1361 2904,1347 2786,1332 2668,1309 2551,1300 2433,1307 2315,1292 2197,1280 2079,1283 1961,1274 1844,1258 1726,1254 1608,1252 1490,1244 1372,1237 1255,1235 1255,1130 Z"/>
 <path fill="rgb(131,202,255)" stroke="none" d="M 1255,1091 L 1372,1091 1490,1091 1608,1091 1726,1091 1844,1091 1961,1091 2079,1091 2197,1091 2315,1091 2433,1091 2551,1091 2668,1091 2786,1091 2904,1091 3022,1091 3140,1091 3258,1091 3375,1091 3493,1091 3611,1091 3729,1091 3847,1091 3965,1091 4082,1091 4200,1091 4318,1091 4436,1091 4554,1091 4672,1091 4789,1091 4907,1091 5025,1091 5143,1091 5261,1091 5379,1091 5496,1091 5614,1091 5732,1091 5850,1091 5968,1091 6086,1091 6203,1091 6321,1091 6439,1091 6557,1091 6675,1091 6793,1091 6910,1091 7028,1091 7146,1091 7264,1091 7382,1091 7500,1091 7617,1091 7735,1091 7853,1091 7971,1091 8089,1091 8207,1091 8323,1091 8441,1091 8559,1091 8677,1091 8795,1091 8912,1091 9030,1091 9148,1091 9266,1091 9384,1091 9502,1091 9619,1091 9737,1091 9855,1091 9973,1091 10091,1091 10209,1091 10326,1091 10444,1091 10562,1091 10680,1091 10798,1091 10916,1091 11033,1091 11151,1091 11269,1091 11387,1091 11505,1091 11623,1091 11740,1091 11858,1091 11976,1091 12094,1091 12212,1091 12330,1091 12447,1091 12565,1091 12683,1091 12801,1091 12919,1091 13037,1091 13154,1091 13272,1091 13390,1091 13508,1091 13626,1091 13744,1091 13861,1091 13979,1091 14097,1091 14215,1091 14333,1091 14451,1091 14568,1091 14686,1091 14804,1091 14922,1091 15040,1091 15158,1091 15158,1478 15040,1468 14922,1461 14804,1468 14686,1480 14568,1499 14451,1477 14333,1483 14215,1466 14097,1502 13979,1526 13861,1576 13744,1566 13626,1545 13508,1567 13390,1594 13272,1604 13154,1617 13037,1625 12919,1667 12801,1623 12683,1613 12565,1612 12447,1616 12330,1607 12212,1602 12094,1632 11976,1656 11858,1685 11740,1698 11623,1698 11505,1634 11387,1658 11269,1666 11151,1665 11033,1679 10916,1634 10798,1597 10680,1637 10562,1698 10444,1743 10326,1683 10209,1669 10091,1688 9973,1696 9855,1687 9737,1670 9619,1738 9502,1765 9384,1781 9266,1695 9148,1664 9030,1653 8912,1634 8795,1620 8677,1662 8559,1644 8441,1645 8323,1651 8207,1670 8089,1655 7971,1667 7853,1686 7735,1682 7617,1679 7500,1647 7382,1645 7264,1623 7146,1606 7028,1592 6910,1581 6793,1572 6675,1560 6557,1557 6439,1516 6321,1486 6203,1467 6086,1448 5968,1424 5850,1432 5732,1408 5614,1392 5496,1375 5379,1376 5261,1371 5143,1358 5025,1329 4907,1306 4789,1298 4672,1298 4554,1278 4436,1265 4318,1250 4200,1237 4082,1225 3965,1212 3847,1198 3729,1187 3611,1176 3493,1190 3375,1186 3258,1190 3140,1169 3022,1162 2904,1151 2786,1143 2668,1136 2551,1140 2433,1138 2315,1135 2197,1129 2079,1133 1961,1133 1844,1133 1726,1127 1608,1130 1490,1125 1372,1128 1255,1130 1255,1091 Z"/>
 <path fill="none" stroke="rgb(0,0,0)" stroke-linejoin="round" d="M 1255,1091 L 1372,1091 1490,1091 1608,1091 1726,1091 1844,1091 1961,1091 2079,1091 2197,1091 2315,1091 2433,1091 2551,1091 2668,1091 2786,1091 2904,1091 3022,1091 3140,1091 3258,1091 3375,1091 3493,1091 3611,1091 3729,1091 3847,1091 3965,1091 4082,1091 4200,1091 4318,1091 4436,1091 4554,1091 4672,1091 4789,1091 4907,1091 5025,1091 5143,1091 5261,1091 5379,1091 5496,1091 5614,1091 5732,1091 5850,1091 5968,1091 6086,1091 6203,1091 6321,1091 6439,1091 6557,1091 6675,1091 6793,1091 6910,1091 7028,1091 7146,1091 7264,1091 7382,1091 7500,1091 7617,1091 7735,1091 7853,1091 7971,1091 8089,1091 8207,1091 8323,1091 8441,1091 8559,1091 8677,1091 8795,1091 8912,1091 9030,1091 9148,1091 9266,1091 9384,1091 9502,1091 9619,1091 9737,1091 9855,1091 9973,1091 10091,1091 10209,1091 10326,1091 10444,1091 10562,1091 10680,1091 10798,1091 10916,1091 11033,1091 11151,1091 11269,1091 11387,1091 11505,1091 11623,1091 11740,1091 11858,1091 11976,1091 12094,1091 12212,1091 12330,1091 12447,1091 12565,1091 12683,1091 12801,1091 12919,1091 13037,1091 13154,1091 13272,1091 13390,1091 13508,1091 13626,1091 13744,1091 13861,1091 13979,1091 14097,1091 14215,1091 14333,1091 14451,1091 14568,1091 14686,1091 14804,1091 14922,1091 15040,1091 15158,1091 15158,1478 15040,1468 14922,1461 14804,1468 14686,1480 14568,1499 14451,1477 14333,1483 14215,1466 14097,1502 13979,1526 13861,1576 13744,1566 13626,1545 13508,1567 13390,1594 13272,1604 13154,1617 13037,1625 12919,1667 12801,1623 12683,1613 12565,1612 12447,1616 12330,1607 12212,1602 12094,1632 11976,1656 11858,1685 11740,1698 11623,1698 11505,1634 11387,1658 11269,1666 11151,1665 11033,1679 10916,1634 10798,1597 10680,1637 10562,1698 10444,1743 10326,1683 10209,1669 10091,1688 9973,1696 9855,1687 9737,1670 9619,1738 9502,1765 9384,1781 9266,1695 9148,1664 9030,1653 8912,1634 8795,1620 8677,1662 8559,1644 8441,1645 8323,1651 8207,1670 8089,1655 7971,1667 7853,1686 7735,1682 7617,1679 7500,1647 7382,1645 7264,1623 7146,1606 7028,1592 6910,1581 6793,1572 6675,1560 6557,1557 6439,1516 6321,1486 6203,1467 6086,1448 5968,1424 5850,1432 5732,1408 5614,1392 5496,1375 5379,1376 5261,1371 5143,1358 5025,1329 4907,1306 4789,1298 4672,1298 4554,1278 4436,1265 4318,1250 4200,1237 4082,1225 3965,1212 3847,1198 3729,1187 3611,1176 3493,1190 3375,1186 3258,1190 3140,1169 3022,1162 2904,1151 2786,1143 2668,1136 2551,1140 2433,1138 2315,1135 2197,1129 2079,1133 1961,1133 1844,1133 1726,1127 1608,1130 1490,1125 1372,1128 1255,1130 1255,1091 Z"/>
 <text class="TextShape"><tspan class="TextParagraph" font-family="Arial, sans-serif" font-size="388px" font-weight="400"><tspan class="TextPosition" x="1066" y="11295"><tspan fill="rgb(0,0,0)" stroke="none">2008</tspan></tspan></tspan></text>
 <text class="TextShape"><tspan class="TextParagraph" font-family="Arial, sans-serif" font-size="388px" font-weight="400"><tspan class="TextPosition" x="2480" y="11295"><tspan fill="rgb(0,0,0)" stroke="none">2009</tspan></tspan></tspan></text>
 <text class="TextShape"><tspan class="TextParagraph" font-family="Arial, sans-serif" font-size="388px" font-weight="400"><tspan class="TextPosition" x="3894" y="11295"><tspan fill="rgb(0,0,0)" stroke="none">2010</tspan></tspan></tspan></text>
 <text class="TextShape"><tspan class="TextParagraph" font-family="Arial, sans-serif" font-size="388px" font-weight="400"><tspan class="TextPosition" x="5308" y="11295"><tspan fill="rgb(0,0,0)" stroke="none">2011</tspan></tspan></tspan></text>
 <text class="TextShape"><tspan class="TextParagraph" font-family="Arial, sans-serif" font-size="388px" font-weight="400"><tspan class="TextPosition" x="6722" y="11295"><tspan fill="rgb(0,0,0)" stroke="none">2012</tspan></tspan></tspan></text>
 <text class="TextShape"><tspan class="TextParagraph" font-family="Arial, sans-serif" font-size="388px" font-weight="400"><tspan class="TextPosition" x="8136" y="11295"><tspan fill="rgb(0,0,0)" stroke="none">2013</tspan></tspan></tspan></text>
 <text class="TextShape"><tspan class="TextParagraph" font-family="Arial, sans-serif" font-size="388px" font-weight="400"><tspan class="TextPosition" x="9550" y="11295"><tspan fill="rgb(0,0,0)" stroke="none">2014</tspan></tspan></tspan></text>
 <text class="TextShape"><tspan class="TextParagraph" font-family="Arial, sans-serif" font-size="388px" font-weight="400"><tspan class="TextPosition" x="10964" y="11295"><tspan fill="rgb(0,0,0)" stroke="none">2015</tspan></tspan></tspan></text>
 <text class="TextShape"><tspan class="TextParagraph" font-family="Arial, sans-serif" font-size="388px" font-weight="400"><tspan class="TextPosition" x="12378" y="11295"><tspan fill="rgb(0,0,0)" stroke="none">2016</tspan></tspan></tspan></text>
 <text class="TextShape"><tspan class="TextParagraph" font-family="Arial, sans-serif" font-size="388px" font-weight="400"><tspan class="TextPosition" x="13792" y="11295"><tspan fill="rgb(0,0,0)" stroke="none">2017</tspan></tspan></tspan></text>
 <text class="TextShape"><tspan class="TextParagraph" font-family="Arial, sans-serif" font-size="388px" font-weight="400"><tspan class="TextPosition" x="449" y="10835"><tspan fill="rgb(0,0,0)" stroke="none">0%</tspan></tspan></tspan></text>
 <text class="TextShape"><tspan class="TextParagraph" font-family="Arial, sans-serif" font-size="388px" font-weight="400"><tspan class="TextPosition" x="238" y="9873"><tspan fill="rgb(0,0,0)" stroke="none">10%</tspan></tspan></tspan></text>
 <text class="TextShape"><tspan class="TextParagraph" font-family="Arial, sans-serif" font-size="388px" font-weight="400"><tspan class="TextPosition" x="238" y="8912"><tspan fill="rgb(0,0,0)" stroke="none">20%</tspan></tspan></tspan></text>
 <text class="TextShape"><tspan class="TextParagraph" font-family="Arial, sans-serif" font-size="388px" font-weight="400"><tspan class="TextPosition" x="238" y="7951"><tspan fill="rgb(0,0,0)" stroke="none">30%</tspan></tspan></tspan></text>
 <text class="TextShape"><tspan class="TextParagraph" font-family="Arial, sans-serif" font-size="388px" font-weight="400"><tspan class="TextPosition" x="238" y="6990"><tspan fill="rgb(0,0,0)" stroke="none">40%</tspan></tspan></tspan></text>
 <text class="TextShape"><tspan class="TextParagraph" font-family="Arial, sans-serif" font-size="388px" font-weight="400"><tspan class="TextPosition" x="238" y="6029"><tspan fill="rgb(0,0,0)" stroke="none">50%</tspan></tspan></tspan></text>
 <text class="TextShape"><tspan class="TextParagraph" font-family="Arial, sans-serif" font-size="388px" font-weight="400"><tspan class="TextPosition" x="238" y="5068"><tspan fill="rgb(0,0,0)" stroke="none">60%</tspan></tspan></tspan></text>
 <text class="TextShape"><tspan class="TextParagraph" font-family="Arial, sans-serif" font-size="388px" font-weight="400"><tspan class="TextPosition" x="238" y="4107"><tspan fill="rgb(0,0,0)" stroke="none">70%</tspan></tspan></tspan></text>
 <text class="TextShape"><tspan class="TextParagraph" font-family="Arial, sans-serif" font-size="388px" font-weight="400"><tspan class="TextPosition" x="238" y="3146"><tspan fill="rgb(0,0,0)" stroke="none">80%</tspan></tspan></tspan></text>
 <text class="TextShape"><tspan class="TextParagraph" font-family="Arial, sans-serif" font-size="388px" font-weight="400"><tspan class="TextPosition" x="238" y="2185"><tspan fill="rgb(0,0,0)" stroke="none">90%</tspan></tspan></tspan></text>
 <text class="TextShape"><tspan class="TextParagraph" font-family="Arial, sans-serif" font-size="388px" font-weight="400"><tspan class="TextPosition" x="26" y="1224"><tspan fill="rgb(0,0,0)" stroke="none">100%</tspan></tspan></tspan></text>
 <text class="TextShape"><tspan class="TextParagraph" font-family="Arial, sans-serif" font-size="388px" font-weight="400"><tspan class="TextPosition" x="15408" y="10835"><tspan fill="rgb(0,0,0)" stroke="none">0%</tspan></tspan></tspan></text>
 <text class="TextShape"><tspan class="TextParagraph" font-family="Arial, sans-serif" font-size="388px" font-weight="400"><tspan class="TextPosition" x="15408" y="9873"><tspan fill="rgb(0,0,0)" stroke="none">10%</tspan></tspan></tspan></text>
 <text class="TextShape"><tspan class="TextParagraph" font-family="Arial, sans-serif" font-size="388px" font-weight="400"><tspan class="TextPosition" x="15408" y="8912"><tspan fill="rgb(0,0,0)" stroke="none">20%</tspan></tspan></tspan></text>
 <text class="TextShape"><tspan class="TextParagraph" font-family="Arial, sans-serif" font-size="388px" font-weight="400"><tspan class="TextPosition" x="15408" y="7951"><tspan fill="rgb(0,0,0)" stroke="none">30%</tspan></tspan></tspan></text>
 <text class="TextShape"><tspan class="TextParagraph" font-family="Arial, sans-serif" font-size="388px" font-weight="400"><tspan class="TextPosition" x="15408" y="6990"><tspan fill="rgb(0,0,0)" stroke="none">40%</tspan></tspan></tspan></text>
 <text class="TextShape"><tspan class="TextParagraph" font-family="Arial, sans-serif" font-size="388px" font-weight="400"><tspan class="TextPosition" x="15408" y="6029"><tspan fill="rgb(0,0,0)" stroke="none">50%</tspan></tspan></tspan></text>
 <text class="TextShape"><tspan class="TextParagraph" font-family="Arial, sans-serif" font-size="388px" font-weight="400"><tspan class="TextPosition" x="15408" y="5068"><tspan fill="rgb(0,0,0)" stroke="none">60%</tspan></tspan></tspan></text>
 <text class="TextShape"><tspan class="TextParagraph" font-family="Arial, sans-serif" font-size="388px" font-weight="400"><tspan class="TextPosition" x="15408" y="4107"><tspan fill="rgb(0,0,0)" stroke="none">70%</tspan></tspan></tspan></text>
 <text class="TextShape"><tspan class="TextParagraph" font-family="Arial, sans-serif" font-size="388px" font-weight="400"><tspan class="TextPosition" x="15408" y="3146"><tspan fill="rgb(0,0,0)" stroke="none">80%</tspan></tspan></tspan></text>
 <text class="TextShape"><tspan class="TextParagraph" font-family="Arial, sans-serif" font-size="388px" font-weight="400"><tspan class="TextPosition" x="15408" y="2185"><tspan fill="rgb(0,0,0)" stroke="none">90%</tspan></tspan></tspan></text>
 <text class="TextShape"><tspan class="TextParagraph" font-family="Arial, sans-serif" font-size="388px" font-weight="400"><tspan class="TextPosition" x="15408" y="1224"><tspan fill="rgb(0,0,0)" stroke="none">100%</tspan></tspan></tspan></text>
 <text class="TextShape"><tspan class="TextParagraph" font-family="Liberation Sans, sans-serif" font-size="635px" font-weight="400"><tspan class="TextPosition" x="5495" y="747"><tspan fill="rgb(0,0,0)" stroke="none">Nmero de pxeles </tspan></tspan></tspan></text>
 <path fill="rgb(0,69,134)" stroke="none" d="M 3179,12156 L 3074,12156 3074,11945 3285,11945 3285,12156 3179,12156 Z"/>
 <path fill="none" stroke="rgb(0,0,0)" stroke-linejoin="round" d="M 3179,12156 L 3074,12156 3074,11945 3285,11945 3285,12156 3179,12156 Z"/>
 <path fill="rgb(255,66,14)" stroke="none" d="M 5020,12156 L 4915,12156 4915,11945 5126,11945 5126,12156 5020,12156 Z"/>
 <path fill="none" stroke="rgb(0,0,0)" stroke-linejoin="round" d="M 5020,12156 L 4915,12156 4915,11945 5126,11945 5126,12156 5020,12156 Z"/>
 <path fill="rgb(255,211,32)" stroke="none" d="M 6861,12156 L 6756,12156 6756,11945 6967,11945 6967,12156 6861,12156 Z"/>
 <path fill="none" stroke="rgb(0,0,0)" stroke-linejoin="round" d="M 6861,12156 L 6756,12156 6756,11945 6967,11945 6967,12156 6861,12156 Z"/>
 <path fill="rgb(87,157,28)" stroke="none" d="M 8702,12156 L 8596,12156 8596,11945 8807,11945 8807,12156 8702,12156 Z"/>
 <path fill="none" stroke="rgb(0,0,0)" stroke-linejoin="round" d="M 8702,12156 L 8596,12156 8596,11945 8807,11945 8807,12156 8702,12156 Z"/>
 <path fill="rgb(126,0,33)" stroke="none" d="M 10543,12156 L 10437,12156 10437,11945 10648,11945 10648,12156 10543,12156 Z"/>
 <path fill="none" stroke="rgb(0,0,0)" stroke-linejoin="round" d="M 10543,12156 L 10437,12156 10437,11945 10648,11945 10648,12156 10543,12156 Z"/>
 <path fill="rgb(131,202,255)" stroke="none" d="M 12384,12156 L 12278,12156 12278,11945 12489,11945 12489,12156 12384,12156 Z"/>
 <path fill="none" stroke="rgb(0,0,0)" stroke-linejoin="round" d="M 12384,12156 L 12278,12156 12278,11945 12489,11945 12489,12156 12384,12156 Z"/>
 <text class="TextShape"><tspan class="TextParagraph" font-family="Arial, sans-serif" font-size="353px" font-weight="400"><tspan class="TextPosition" x="3385" y="12169"><tspan fill="rgb(0,0,0)" stroke="none">0,5 MPx</tspan></tspan></tspan></text>
 <text class="TextShape"><tspan class="TextParagraph" font-family="Arial, sans-serif" font-size="353px" font-weight="400"><tspan class="TextPosition" x="5226" y="12169"><tspan fill="rgb(0,0,0)" stroke="none">1,0 MPx</tspan></tspan></tspan></text>
 <text class="TextShape"><tspan class="TextParagraph" font-family="Arial, sans-serif" font-size="353px" font-weight="400"><tspan class="TextPosition" x="7067" y="12169"><tspan fill="rgb(0,0,0)" stroke="none">1,5 MPx</tspan></tspan></tspan></text>
 <text class="TextShape"><tspan class="TextParagraph" font-family="Arial, sans-serif" font-size="353px" font-weight="400"><tspan class="TextPosition" x="8907" y="12169"><tspan fill="rgb(0,0,0)" stroke="none">2,0 MPx</tspan></tspan></tspan></text>
 <text class="TextShape"><tspan class="TextParagraph" font-family="Arial, sans-serif" font-size="353px" font-weight="400"><tspan class="TextPosition" x="10748" y="12169"><tspan fill="rgb(0,0,0)" stroke="none">2,5 MPx</tspan></tspan></tspan></text>
 <text class="TextShape"><tspan class="TextParagraph" font-family="Arial, sans-serif" font-size="353px" font-weight="400"><tspan class="TextPosition" x="12589" y="12169"><tspan fill="rgb(0,0,0)" stroke="none">Otros</tspan></tspan></tspan></text>
</svg>
