<?xml version="1.0" encoding="UTF-8"?>
<!DOCTYPE svg PUBLIC "-//W3C//DTD SVG 1.1//EN" "http://www.w3.org/Graphics/SVG/1.1/DTD/svg11.dtd">
<svg width="165mm" height="123mm" viewBox="0 0 16500 12300" version="1.1" xmlns="http://www.w3.org/2000/svg" stroke-width="28.222" stroke-linejoin="round" xml:space="preserve">
 <path fill="rgb(255,255,255)" stroke="none" d="M 8257,12324 L 12,12324 12,0 16502,0 16502,12324 8257,12324 Z"/>
 <path fill="none" stroke="rgb(179,179,179)" stroke-linejoin="round" d="M 8207,10702 L 1255,10702 1255,1092 15158,1092 15158,10702 8207,10702 Z"/>
 <path fill="none" stroke="rgb(179,179,179)" stroke-linejoin="round" d="M 15158,10701 L 1255,10701"/>
 <path fill="none" stroke="rgb(179,179,179)" stroke-linejoin="round" d="M 15158,9739 L 1255,9739"/>
 <path fill="none" stroke="rgb(179,179,179)" stroke-linejoin="round" d="M 15158,8778 L 1255,8778"/>
 <path fill="none" stroke="rgb(179,179,179)" stroke-linejoin="round" d="M 15158,7817 L 1255,7817"/>
 <path fill="none" stroke="rgb(179,179,179)" stroke-linejoin="round" d="M 15158,6856 L 1255,6856"/>
 <path fill="none" stroke="rgb(179,179,179)" stroke-linejoin="round" d="M 15158,5896 L 1255,5896"/>
 <path fill="none" stroke="rgb(179,179,179)" stroke-linejoin="round" d="M 15158,4935 L 1255,4935"/>
 <path fill="none" stroke="rgb(179,179,179)" stroke-linejoin="round" d="M 15158,3974 L 1255,3974"/>
 <path fill="none" stroke="rgb(179,179,179)" stroke-linejoin="round" d="M 15158,3013 L 1255,3013"/>
 <path fill="none" stroke="rgb(179,179,179)" stroke-linejoin="round" d="M 15158,2052 L 1255,2052"/>
 <path fill="none" stroke="rgb(179,179,179)" stroke-linejoin="round" d="M 15158,1091 L 1255,1091"/>
 <path fill="none" stroke="rgb(0,0,0)" stroke-width="30" stroke-linejoin="round" d="M 1255,10851 L 1255,10701"/>
 <path fill="none" stroke="rgb(0,0,0)" stroke-width="30" stroke-linejoin="round" d="M 1255,10851 L 1255,10701"/>
 <path fill="none" stroke="rgb(0,0,0)" stroke-width="30" stroke-linejoin="round" d="M 1373,10851 L 1373,10701"/>
 <path fill="none" stroke="rgb(0,0,0)" stroke-width="30" stroke-linejoin="round" d="M 1373,10851 L 1373,10701"/>
 <path fill="none" stroke="rgb(0,0,0)" stroke-width="30" stroke-linejoin="round" d="M 1492,10851 L 1492,10701"/>
 <path fill="none" stroke="rgb(0,0,0)" stroke-width="30" stroke-linejoin="round" d="M 1492,10851 L 1492,10701"/>
 <path fill="none" stroke="rgb(0,0,0)" stroke-width="30" stroke-linejoin="round" d="M 1611,10851 L 1611,10701"/>
 <path fill="none" stroke="rgb(0,0,0)" stroke-width="30" stroke-linejoin="round" d="M 1611,10851 L 1611,10701"/>
 <path fill="none" stroke="rgb(0,0,0)" stroke-width="30" stroke-linejoin="round" d="M 1730,10851 L 1730,10701"/>
 <path fill="none" stroke="rgb(0,0,0)" stroke-width="30" stroke-linejoin="round" d="M 1730,10851 L 1730,10701"/>
 <path fill="none" stroke="rgb(0,0,0)" stroke-width="30" stroke-linejoin="round" d="M 1849,10851 L 1849,10701"/>
 <path fill="none" stroke="rgb(0,0,0)" stroke-width="30" stroke-linejoin="round" d="M 1849,10851 L 1849,10701"/>
 <path fill="none" stroke="rgb(0,0,0)" stroke-width="30" stroke-linejoin="round" d="M 1968,10851 L 1968,10701"/>
 <path fill="none" stroke="rgb(0,0,0)" stroke-width="30" stroke-linejoin="round" d="M 1968,10851 L 1968,10701"/>
 <path fill="none" stroke="rgb(0,0,0)" stroke-width="30" stroke-linejoin="round" d="M 2086,10851 L 2086,10701"/>
 <path fill="none" stroke="rgb(0,0,0)" stroke-width="30" stroke-linejoin="round" d="M 2086,10851 L 2086,10701"/>
 <path fill="none" stroke="rgb(0,0,0)" stroke-width="30" stroke-linejoin="round" d="M 2205,10851 L 2205,10701"/>
 <path fill="none" stroke="rgb(0,0,0)" stroke-width="30" stroke-linejoin="round" d="M 2205,10851 L 2205,10701"/>
 <path fill="none" stroke="rgb(0,0,0)" stroke-width="30" stroke-linejoin="round" d="M 2324,10851 L 2324,10701"/>
 <path fill="none" stroke="rgb(0,0,0)" stroke-width="30" stroke-linejoin="round" d="M 2324,10851 L 2324,10701"/>
 <path fill="none" stroke="rgb(0,0,0)" stroke-width="30" stroke-linejoin="round" d="M 2443,10851 L 2443,10701"/>
 <path fill="none" stroke="rgb(0,0,0)" stroke-width="30" stroke-linejoin="round" d="M 2443,10851 L 2443,10701"/>
 <path fill="none" stroke="rgb(0,0,0)" stroke-width="30" stroke-linejoin="round" d="M 2562,10851 L 2562,10701"/>
 <path fill="none" stroke="rgb(0,0,0)" stroke-width="30" stroke-linejoin="round" d="M 2562,10851 L 2562,10701"/>
 <path fill="none" stroke="rgb(0,0,0)" stroke-width="30" stroke-linejoin="round" d="M 2681,10851 L 2681,10701"/>
 <path fill="none" stroke="rgb(0,0,0)" stroke-width="30" stroke-linejoin="round" d="M 2681,10851 L 2681,10701"/>
 <path fill="none" stroke="rgb(0,0,0)" stroke-width="30" stroke-linejoin="round" d="M 2799,10851 L 2799,10701"/>
 <path fill="none" stroke="rgb(0,0,0)" stroke-width="30" stroke-linejoin="round" d="M 2799,10851 L 2799,10701"/>
 <path fill="none" stroke="rgb(0,0,0)" stroke-width="30" stroke-linejoin="round" d="M 2918,10851 L 2918,10701"/>
 <path fill="none" stroke="rgb(0,0,0)" stroke-width="30" stroke-linejoin="round" d="M 2918,10851 L 2918,10701"/>
 <path fill="none" stroke="rgb(0,0,0)" stroke-width="30" stroke-linejoin="round" d="M 3037,10851 L 3037,10701"/>
 <path fill="none" stroke="rgb(0,0,0)" stroke-width="30" stroke-linejoin="round" d="M 3037,10851 L 3037,10701"/>
 <path fill="none" stroke="rgb(0,0,0)" stroke-width="30" stroke-linejoin="round" d="M 3156,10851 L 3156,10701"/>
 <path fill="none" stroke="rgb(0,0,0)" stroke-width="30" stroke-linejoin="round" d="M 3156,10851 L 3156,10701"/>
 <path fill="none" stroke="rgb(0,0,0)" stroke-width="30" stroke-linejoin="round" d="M 3275,10851 L 3275,10701"/>
 <path fill="none" stroke="rgb(0,0,0)" stroke-width="30" stroke-linejoin="round" d="M 3275,10851 L 3275,10701"/>
 <path fill="none" stroke="rgb(0,0,0)" stroke-width="30" stroke-linejoin="round" d="M 3394,10851 L 3394,10701"/>
 <path fill="none" stroke="rgb(0,0,0)" stroke-width="30" stroke-linejoin="round" d="M 3394,10851 L 3394,10701"/>
 <path fill="none" stroke="rgb(0,0,0)" stroke-width="30" stroke-linejoin="round" d="M 3512,10851 L 3512,10701"/>
 <path fill="none" stroke="rgb(0,0,0)" stroke-width="30" stroke-linejoin="round" d="M 3512,10851 L 3512,10701"/>
 <path fill="none" stroke="rgb(0,0,0)" stroke-width="30" stroke-linejoin="round" d="M 3631,10851 L 3631,10701"/>
 <path fill="none" stroke="rgb(0,0,0)" stroke-width="30" stroke-linejoin="round" d="M 3631,10851 L 3631,10701"/>
 <path fill="none" stroke="rgb(0,0,0)" stroke-width="30" stroke-linejoin="round" d="M 3750,10851 L 3750,10701"/>
 <path fill="none" stroke="rgb(0,0,0)" stroke-width="30" stroke-linejoin="round" d="M 3750,10851 L 3750,10701"/>
 <path fill="none" stroke="rgb(0,0,0)" stroke-width="30" stroke-linejoin="round" d="M 3869,10851 L 3869,10701"/>
 <path fill="none" stroke="rgb(0,0,0)" stroke-width="30" stroke-linejoin="round" d="M 3869,10851 L 3869,10701"/>
 <path fill="none" stroke="rgb(0,0,0)" stroke-width="30" stroke-linejoin="round" d="M 3988,10851 L 3988,10701"/>
 <path fill="none" stroke="rgb(0,0,0)" stroke-width="30" stroke-linejoin="round" d="M 3988,10851 L 3988,10701"/>
 <path fill="none" stroke="rgb(0,0,0)" stroke-width="30" stroke-linejoin="round" d="M 4107,10851 L 4107,10701"/>
 <path fill="none" stroke="rgb(0,0,0)" stroke-width="30" stroke-linejoin="round" d="M 4107,10851 L 4107,10701"/>
 <path fill="none" stroke="rgb(0,0,0)" stroke-width="30" stroke-linejoin="round" d="M 4225,10851 L 4225,10701"/>
 <path fill="none" stroke="rgb(0,0,0)" stroke-width="30" stroke-linejoin="round" d="M 4225,10851 L 4225,10701"/>
 <path fill="none" stroke="rgb(0,0,0)" stroke-width="30" stroke-linejoin="round" d="M 4344,10851 L 4344,10701"/>
 <path fill="none" stroke="rgb(0,0,0)" stroke-width="30" stroke-linejoin="round" d="M 4344,10851 L 4344,10701"/>
 <path fill="none" stroke="rgb(0,0,0)" stroke-width="30" stroke-linejoin="round" d="M 4463,10851 L 4463,10701"/>
 <path fill="none" stroke="rgb(0,0,0)" stroke-width="30" stroke-linejoin="round" d="M 4463,10851 L 4463,10701"/>
 <path fill="none" stroke="rgb(0,0,0)" stroke-width="30" stroke-linejoin="round" d="M 4582,10851 L 4582,10701"/>
 <path fill="none" stroke="rgb(0,0,0)" stroke-width="30" stroke-linejoin="round" d="M 4582,10851 L 4582,10701"/>
 <path fill="none" stroke="rgb(0,0,0)" stroke-width="30" stroke-linejoin="round" d="M 4701,10851 L 4701,10701"/>
 <path fill="none" stroke="rgb(0,0,0)" stroke-width="30" stroke-linejoin="round" d="M 4701,10851 L 4701,10701"/>
 <path fill="none" stroke="rgb(0,0,0)" stroke-width="30" stroke-linejoin="round" d="M 4820,10851 L 4820,10701"/>
 <path fill="none" stroke="rgb(0,0,0)" stroke-width="30" stroke-linejoin="round" d="M 4820,10851 L 4820,10701"/>
 <path fill="none" stroke="rgb(0,0,0)" stroke-width="30" stroke-linejoin="round" d="M 4938,10851 L 4938,10701"/>
 <path fill="none" stroke="rgb(0,0,0)" stroke-width="30" stroke-linejoin="round" d="M 4938,10851 L 4938,10701"/>
 <path fill="none" stroke="rgb(0,0,0)" stroke-width="30" stroke-linejoin="round" d="M 5057,10851 L 5057,10701"/>
 <path fill="none" stroke="rgb(0,0,0)" stroke-width="30" stroke-linejoin="round" d="M 5057,10851 L 5057,10701"/>
 <path fill="none" stroke="rgb(0,0,0)" stroke-width="30" stroke-linejoin="round" d="M 5176,10851 L 5176,10701"/>
 <path fill="none" stroke="rgb(0,0,0)" stroke-width="30" stroke-linejoin="round" d="M 5176,10851 L 5176,10701"/>
 <path fill="none" stroke="rgb(0,0,0)" stroke-width="30" stroke-linejoin="round" d="M 5295,10851 L 5295,10701"/>
 <path fill="none" stroke="rgb(0,0,0)" stroke-width="30" stroke-linejoin="round" d="M 5295,10851 L 5295,10701"/>
 <path fill="none" stroke="rgb(0,0,0)" stroke-width="30" stroke-linejoin="round" d="M 5414,10851 L 5414,10701"/>
 <path fill="none" stroke="rgb(0,0,0)" stroke-width="30" stroke-linejoin="round" d="M 5414,10851 L 5414,10701"/>
 <path fill="none" stroke="rgb(0,0,0)" stroke-width="30" stroke-linejoin="round" d="M 5533,10851 L 5533,10701"/>
 <path fill="none" stroke="rgb(0,0,0)" stroke-width="30" stroke-linejoin="round" d="M 5533,10851 L 5533,10701"/>
 <path fill="none" stroke="rgb(0,0,0)" stroke-width="30" stroke-linejoin="round" d="M 5651,10851 L 5651,10701"/>
 <path fill="none" stroke="rgb(0,0,0)" stroke-width="30" stroke-linejoin="round" d="M 5651,10851 L 5651,10701"/>
 <path fill="none" stroke="rgb(0,0,0)" stroke-width="30" stroke-linejoin="round" d="M 5770,10851 L 5770,10701"/>
 <path fill="none" stroke="rgb(0,0,0)" stroke-width="30" stroke-linejoin="round" d="M 5770,10851 L 5770,10701"/>
 <path fill="none" stroke="rgb(0,0,0)" stroke-width="30" stroke-linejoin="round" d="M 5889,10851 L 5889,10701"/>
 <path fill="none" stroke="rgb(0,0,0)" stroke-width="30" stroke-linejoin="round" d="M 5889,10851 L 5889,10701"/>
 <path fill="none" stroke="rgb(0,0,0)" stroke-width="30" stroke-linejoin="round" d="M 6008,10851 L 6008,10701"/>
 <path fill="none" stroke="rgb(0,0,0)" stroke-width="30" stroke-linejoin="round" d="M 6008,10851 L 6008,10701"/>
 <path fill="none" stroke="rgb(0,0,0)" stroke-width="30" stroke-linejoin="round" d="M 6127,10851 L 6127,10701"/>
 <path fill="none" stroke="rgb(0,0,0)" stroke-width="30" stroke-linejoin="round" d="M 6127,10851 L 6127,10701"/>
 <path fill="none" stroke="rgb(0,0,0)" stroke-width="30" stroke-linejoin="round" d="M 6246,10851 L 6246,10701"/>
 <path fill="none" stroke="rgb(0,0,0)" stroke-width="30" stroke-linejoin="round" d="M 6246,10851 L 6246,10701"/>
 <path fill="none" stroke="rgb(0,0,0)" stroke-width="30" stroke-linejoin="round" d="M 6365,10851 L 6365,10701"/>
 <path fill="none" stroke="rgb(0,0,0)" stroke-width="30" stroke-linejoin="round" d="M 6365,10851 L 6365,10701"/>
 <path fill="none" stroke="rgb(0,0,0)" stroke-width="30" stroke-linejoin="round" d="M 6483,10851 L 6483,10701"/>
 <path fill="none" stroke="rgb(0,0,0)" stroke-width="30" stroke-linejoin="round" d="M 6483,10851 L 6483,10701"/>
 <path fill="none" stroke="rgb(0,0,0)" stroke-width="30" stroke-linejoin="round" d="M 6602,10851 L 6602,10701"/>
 <path fill="none" stroke="rgb(0,0,0)" stroke-width="30" stroke-linejoin="round" d="M 6602,10851 L 6602,10701"/>
 <path fill="none" stroke="rgb(0,0,0)" stroke-width="30" stroke-linejoin="round" d="M 6721,10851 L 6721,10701"/>
 <path fill="none" stroke="rgb(0,0,0)" stroke-width="30" stroke-linejoin="round" d="M 6721,10851 L 6721,10701"/>
 <path fill="none" stroke="rgb(0,0,0)" stroke-width="30" stroke-linejoin="round" d="M 6840,10851 L 6840,10701"/>
 <path fill="none" stroke="rgb(0,0,0)" stroke-width="30" stroke-linejoin="round" d="M 6840,10851 L 6840,10701"/>
 <path fill="none" stroke="rgb(0,0,0)" stroke-width="30" stroke-linejoin="round" d="M 6959,10851 L 6959,10701"/>
 <path fill="none" stroke="rgb(0,0,0)" stroke-width="30" stroke-linejoin="round" d="M 6959,10851 L 6959,10701"/>
 <path fill="none" stroke="rgb(0,0,0)" stroke-width="30" stroke-linejoin="round" d="M 7078,10851 L 7078,10701"/>
 <path fill="none" stroke="rgb(0,0,0)" stroke-width="30" stroke-linejoin="round" d="M 7078,10851 L 7078,10701"/>
 <path fill="none" stroke="rgb(0,0,0)" stroke-width="30" stroke-linejoin="round" d="M 7196,10851 L 7196,10701"/>
 <path fill="none" stroke="rgb(0,0,0)" stroke-width="30" stroke-linejoin="round" d="M 7196,10851 L 7196,10701"/>
 <path fill="none" stroke="rgb(0,0,0)" stroke-width="30" stroke-linejoin="round" d="M 7315,10851 L 7315,10701"/>
 <path fill="none" stroke="rgb(0,0,0)" stroke-width="30" stroke-linejoin="round" d="M 7315,10851 L 7315,10701"/>
 <path fill="none" stroke="rgb(0,0,0)" stroke-width="30" stroke-linejoin="round" d="M 7434,10851 L 7434,10701"/>
 <path fill="none" stroke="rgb(0,0,0)" stroke-width="30" stroke-linejoin="round" d="M 7434,10851 L 7434,10701"/>
 <path fill="none" stroke="rgb(0,0,0)" stroke-width="30" stroke-linejoin="round" d="M 7553,10851 L 7553,10701"/>
 <path fill="none" stroke="rgb(0,0,0)" stroke-width="30" stroke-linejoin="round" d="M 7553,10851 L 7553,10701"/>
 <path fill="none" stroke="rgb(0,0,0)" stroke-width="30" stroke-linejoin="round" d="M 7672,10851 L 7672,10701"/>
 <path fill="none" stroke="rgb(0,0,0)" stroke-width="30" stroke-linejoin="round" d="M 7672,10851 L 7672,10701"/>
 <path fill="none" stroke="rgb(0,0,0)" stroke-width="30" stroke-linejoin="round" d="M 7791,10851 L 7791,10701"/>
 <path fill="none" stroke="rgb(0,0,0)" stroke-width="30" stroke-linejoin="round" d="M 7791,10851 L 7791,10701"/>
 <path fill="none" stroke="rgb(0,0,0)" stroke-width="30" stroke-linejoin="round" d="M 7909,10851 L 7909,10701"/>
 <path fill="none" stroke="rgb(0,0,0)" stroke-width="30" stroke-linejoin="round" d="M 7909,10851 L 7909,10701"/>
 <path fill="none" stroke="rgb(0,0,0)" stroke-width="30" stroke-linejoin="round" d="M 8028,10851 L 8028,10701"/>
 <path fill="none" stroke="rgb(0,0,0)" stroke-width="30" stroke-linejoin="round" d="M 8028,10851 L 8028,10701"/>
 <path fill="none" stroke="rgb(0,0,0)" stroke-width="30" stroke-linejoin="round" d="M 8147,10851 L 8147,10701"/>
 <path fill="none" stroke="rgb(0,0,0)" stroke-width="30" stroke-linejoin="round" d="M 8147,10851 L 8147,10701"/>
 <path fill="none" stroke="rgb(0,0,0)" stroke-width="30" stroke-linejoin="round" d="M 8265,10851 L 8265,10701"/>
 <path fill="none" stroke="rgb(0,0,0)" stroke-width="30" stroke-linejoin="round" d="M 8265,10851 L 8265,10701"/>
 <path fill="none" stroke="rgb(0,0,0)" stroke-width="30" stroke-linejoin="round" d="M 8384,10851 L 8384,10701"/>
 <path fill="none" stroke="rgb(0,0,0)" stroke-width="30" stroke-linejoin="round" d="M 8384,10851 L 8384,10701"/>
 <path fill="none" stroke="rgb(0,0,0)" stroke-width="30" stroke-linejoin="round" d="M 8503,10851 L 8503,10701"/>
 <path fill="none" stroke="rgb(0,0,0)" stroke-width="30" stroke-linejoin="round" d="M 8503,10851 L 8503,10701"/>
 <path fill="none" stroke="rgb(0,0,0)" stroke-width="30" stroke-linejoin="round" d="M 8621,10851 L 8621,10701"/>
 <path fill="none" stroke="rgb(0,0,0)" stroke-width="30" stroke-linejoin="round" d="M 8621,10851 L 8621,10701"/>
 <path fill="none" stroke="rgb(0,0,0)" stroke-width="30" stroke-linejoin="round" d="M 8740,10851 L 8740,10701"/>
 <path fill="none" stroke="rgb(0,0,0)" stroke-width="30" stroke-linejoin="round" d="M 8740,10851 L 8740,10701"/>
 <path fill="none" stroke="rgb(0,0,0)" stroke-width="30" stroke-linejoin="round" d="M 8859,10851 L 8859,10701"/>
 <path fill="none" stroke="rgb(0,0,0)" stroke-width="30" stroke-linejoin="round" d="M 8859,10851 L 8859,10701"/>
 <path fill="none" stroke="rgb(0,0,0)" stroke-width="30" stroke-linejoin="round" d="M 8978,10851 L 8978,10701"/>
 <path fill="none" stroke="rgb(0,0,0)" stroke-width="30" stroke-linejoin="round" d="M 8978,10851 L 8978,10701"/>
 <path fill="none" stroke="rgb(0,0,0)" stroke-width="30" stroke-linejoin="round" d="M 9097,10851 L 9097,10701"/>
 <path fill="none" stroke="rgb(0,0,0)" stroke-width="30" stroke-linejoin="round" d="M 9097,10851 L 9097,10701"/>
 <path fill="none" stroke="rgb(0,0,0)" stroke-width="30" stroke-linejoin="round" d="M 9216,10851 L 9216,10701"/>
 <path fill="none" stroke="rgb(0,0,0)" stroke-width="30" stroke-linejoin="round" d="M 9216,10851 L 9216,10701"/>
 <path fill="none" stroke="rgb(0,0,0)" stroke-width="30" stroke-linejoin="round" d="M 9334,10851 L 9334,10701"/>
 <path fill="none" stroke="rgb(0,0,0)" stroke-width="30" stroke-linejoin="round" d="M 9334,10851 L 9334,10701"/>
 <path fill="none" stroke="rgb(0,0,0)" stroke-width="30" stroke-linejoin="round" d="M 9453,10851 L 9453,10701"/>
 <path fill="none" stroke="rgb(0,0,0)" stroke-width="30" stroke-linejoin="round" d="M 9453,10851 L 9453,10701"/>
 <path fill="none" stroke="rgb(0,0,0)" stroke-width="30" stroke-linejoin="round" d="M 9572,10851 L 9572,10701"/>
 <path fill="none" stroke="rgb(0,0,0)" stroke-width="30" stroke-linejoin="round" d="M 9572,10851 L 9572,10701"/>
 <path fill="none" stroke="rgb(0,0,0)" stroke-width="30" stroke-linejoin="round" d="M 9691,10851 L 9691,10701"/>
 <path fill="none" stroke="rgb(0,0,0)" stroke-width="30" stroke-linejoin="round" d="M 9691,10851 L 9691,10701"/>
 <path fill="none" stroke="rgb(0,0,0)" stroke-width="30" stroke-linejoin="round" d="M 9810,10851 L 9810,10701"/>
 <path fill="none" stroke="rgb(0,0,0)" stroke-width="30" stroke-linejoin="round" d="M 9810,10851 L 9810,10701"/>
 <path fill="none" stroke="rgb(0,0,0)" stroke-width="30" stroke-linejoin="round" d="M 9929,10851 L 9929,10701"/>
 <path fill="none" stroke="rgb(0,0,0)" stroke-width="30" stroke-linejoin="round" d="M 9929,10851 L 9929,10701"/>
 <path fill="none" stroke="rgb(0,0,0)" stroke-width="30" stroke-linejoin="round" d="M 10047,10851 L 10047,10701"/>
 <path fill="none" stroke="rgb(0,0,0)" stroke-width="30" stroke-linejoin="round" d="M 10047,10851 L 10047,10701"/>
 <path fill="none" stroke="rgb(0,0,0)" stroke-width="30" stroke-linejoin="round" d="M 10166,10851 L 10166,10701"/>
 <path fill="none" stroke="rgb(0,0,0)" stroke-width="30" stroke-linejoin="round" d="M 10166,10851 L 10166,10701"/>
 <path fill="none" stroke="rgb(0,0,0)" stroke-width="30" stroke-linejoin="round" d="M 10285,10851 L 10285,10701"/>
 <path fill="none" stroke="rgb(0,0,0)" stroke-width="30" stroke-linejoin="round" d="M 10285,10851 L 10285,10701"/>
 <path fill="none" stroke="rgb(0,0,0)" stroke-width="30" stroke-linejoin="round" d="M 10404,10851 L 10404,10701"/>
 <path fill="none" stroke="rgb(0,0,0)" stroke-width="30" stroke-linejoin="round" d="M 10404,10851 L 10404,10701"/>
 <path fill="none" stroke="rgb(0,0,0)" stroke-width="30" stroke-linejoin="round" d="M 10523,10851 L 10523,10701"/>
 <path fill="none" stroke="rgb(0,0,0)" stroke-width="30" stroke-linejoin="round" d="M 10523,10851 L 10523,10701"/>
 <path fill="none" stroke="rgb(0,0,0)" stroke-width="30" stroke-linejoin="round" d="M 10642,10851 L 10642,10701"/>
 <path fill="none" stroke="rgb(0,0,0)" stroke-width="30" stroke-linejoin="round" d="M 10642,10851 L 10642,10701"/>
 <path fill="none" stroke="rgb(0,0,0)" stroke-width="30" stroke-linejoin="round" d="M 10761,10851 L 10761,10701"/>
 <path fill="none" stroke="rgb(0,0,0)" stroke-width="30" stroke-linejoin="round" d="M 10761,10851 L 10761,10701"/>
 <path fill="none" stroke="rgb(0,0,0)" stroke-width="30" stroke-linejoin="round" d="M 10879,10851 L 10879,10701"/>
 <path fill="none" stroke="rgb(0,0,0)" stroke-width="30" stroke-linejoin="round" d="M 10879,10851 L 10879,10701"/>
 <path fill="none" stroke="rgb(0,0,0)" stroke-width="30" stroke-linejoin="round" d="M 10998,10851 L 10998,10701"/>
 <path fill="none" stroke="rgb(0,0,0)" stroke-width="30" stroke-linejoin="round" d="M 10998,10851 L 10998,10701"/>
 <path fill="none" stroke="rgb(0,0,0)" stroke-width="30" stroke-linejoin="round" d="M 11117,10851 L 11117,10701"/>
 <path fill="none" stroke="rgb(0,0,0)" stroke-width="30" stroke-linejoin="round" d="M 11117,10851 L 11117,10701"/>
 <path fill="none" stroke="rgb(0,0,0)" stroke-width="30" stroke-linejoin="round" d="M 11236,10851 L 11236,10701"/>
 <path fill="none" stroke="rgb(0,0,0)" stroke-width="30" stroke-linejoin="round" d="M 11236,10851 L 11236,10701"/>
 <path fill="none" stroke="rgb(0,0,0)" stroke-width="30" stroke-linejoin="round" d="M 11355,10851 L 11355,10701"/>
 <path fill="none" stroke="rgb(0,0,0)" stroke-width="30" stroke-linejoin="round" d="M 11355,10851 L 11355,10701"/>
 <path fill="none" stroke="rgb(0,0,0)" stroke-width="30" stroke-linejoin="round" d="M 11474,10851 L 11474,10701"/>
 <path fill="none" stroke="rgb(0,0,0)" stroke-width="30" stroke-linejoin="round" d="M 11474,10851 L 11474,10701"/>
 <path fill="none" stroke="rgb(0,0,0)" stroke-width="30" stroke-linejoin="round" d="M 11592,10851 L 11592,10701"/>
 <path fill="none" stroke="rgb(0,0,0)" stroke-width="30" stroke-linejoin="round" d="M 11592,10851 L 11592,10701"/>
 <path fill="none" stroke="rgb(0,0,0)" stroke-width="30" stroke-linejoin="round" d="M 11711,10851 L 11711,10701"/>
 <path fill="none" stroke="rgb(0,0,0)" stroke-width="30" stroke-linejoin="round" d="M 11711,10851 L 11711,10701"/>
 <path fill="none" stroke="rgb(0,0,0)" stroke-width="30" stroke-linejoin="round" d="M 11830,10851 L 11830,10701"/>
 <path fill="none" stroke="rgb(0,0,0)" stroke-width="30" stroke-linejoin="round" d="M 11830,10851 L 11830,10701"/>
 <path fill="none" stroke="rgb(0,0,0)" stroke-width="30" stroke-linejoin="round" d="M 11949,10851 L 11949,10701"/>
 <path fill="none" stroke="rgb(0,0,0)" stroke-width="30" stroke-linejoin="round" d="M 11949,10851 L 11949,10701"/>
 <path fill="none" stroke="rgb(0,0,0)" stroke-width="30" stroke-linejoin="round" d="M 12068,10851 L 12068,10701"/>
 <path fill="none" stroke="rgb(0,0,0)" stroke-width="30" stroke-linejoin="round" d="M 12068,10851 L 12068,10701"/>
 <path fill="none" stroke="rgb(0,0,0)" stroke-width="30" stroke-linejoin="round" d="M 12187,10851 L 12187,10701"/>
 <path fill="none" stroke="rgb(0,0,0)" stroke-width="30" stroke-linejoin="round" d="M 12187,10851 L 12187,10701"/>
 <path fill="none" stroke="rgb(0,0,0)" stroke-width="30" stroke-linejoin="round" d="M 12305,10851 L 12305,10701"/>
 <path fill="none" stroke="rgb(0,0,0)" stroke-width="30" stroke-linejoin="round" d="M 12305,10851 L 12305,10701"/>
 <path fill="none" stroke="rgb(0,0,0)" stroke-width="30" stroke-linejoin="round" d="M 12424,10851 L 12424,10701"/>
 <path fill="none" stroke="rgb(0,0,0)" stroke-width="30" stroke-linejoin="round" d="M 12424,10851 L 12424,10701"/>
 <path fill="none" stroke="rgb(0,0,0)" stroke-width="30" stroke-linejoin="round" d="M 12543,10851 L 12543,10701"/>
 <path fill="none" stroke="rgb(0,0,0)" stroke-width="30" stroke-linejoin="round" d="M 12543,10851 L 12543,10701"/>
 <path fill="none" stroke="rgb(0,0,0)" stroke-width="30" stroke-linejoin="round" d="M 12662,10851 L 12662,10701"/>
 <path fill="none" stroke="rgb(0,0,0)" stroke-width="30" stroke-linejoin="round" d="M 12662,10851 L 12662,10701"/>
 <path fill="none" stroke="rgb(0,0,0)" stroke-width="30" stroke-linejoin="round" d="M 12781,10851 L 12781,10701"/>
 <path fill="none" stroke="rgb(0,0,0)" stroke-width="30" stroke-linejoin="round" d="M 12781,10851 L 12781,10701"/>
 <path fill="none" stroke="rgb(0,0,0)" stroke-width="30" stroke-linejoin="round" d="M 12900,10851 L 12900,10701"/>
 <path fill="none" stroke="rgb(0,0,0)" stroke-width="30" stroke-linejoin="round" d="M 12900,10851 L 12900,10701"/>
 <path fill="none" stroke="rgb(0,0,0)" stroke-width="30" stroke-linejoin="round" d="M 13018,10851 L 13018,10701"/>
 <path fill="none" stroke="rgb(0,0,0)" stroke-width="30" stroke-linejoin="round" d="M 13018,10851 L 13018,10701"/>
 <path fill="none" stroke="rgb(0,0,0)" stroke-width="30" stroke-linejoin="round" d="M 13137,10851 L 13137,10701"/>
 <path fill="none" stroke="rgb(0,0,0)" stroke-width="30" stroke-linejoin="round" d="M 13137,10851 L 13137,10701"/>
 <path fill="none" stroke="rgb(0,0,0)" stroke-width="30" stroke-linejoin="round" d="M 13256,10851 L 13256,10701"/>
 <path fill="none" stroke="rgb(0,0,0)" stroke-width="30" stroke-linejoin="round" d="M 13256,10851 L 13256,10701"/>
 <path fill="none" stroke="rgb(0,0,0)" stroke-width="30" stroke-linejoin="round" d="M 13375,10851 L 13375,10701"/>
 <path fill="none" stroke="rgb(0,0,0)" stroke-width="30" stroke-linejoin="round" d="M 13375,10851 L 13375,10701"/>
 <path fill="none" stroke="rgb(0,0,0)" stroke-width="30" stroke-linejoin="round" d="M 13494,10851 L 13494,10701"/>
 <path fill="none" stroke="rgb(0,0,0)" stroke-width="30" stroke-linejoin="round" d="M 13494,10851 L 13494,10701"/>
 <path fill="none" stroke="rgb(0,0,0)" stroke-width="30" stroke-linejoin="round" d="M 13613,10851 L 13613,10701"/>
 <path fill="none" stroke="rgb(0,0,0)" stroke-width="30" stroke-linejoin="round" d="M 13613,10851 L 13613,10701"/>
 <path fill="none" stroke="rgb(0,0,0)" stroke-width="30" stroke-linejoin="round" d="M 13731,10851 L 13731,10701"/>
 <path fill="none" stroke="rgb(0,0,0)" stroke-width="30" stroke-linejoin="round" d="M 13731,10851 L 13731,10701"/>
 <path fill="none" stroke="rgb(0,0,0)" stroke-width="30" stroke-linejoin="round" d="M 13850,10851 L 13850,10701"/>
 <path fill="none" stroke="rgb(0,0,0)" stroke-width="30" stroke-linejoin="round" d="M 13850,10851 L 13850,10701"/>
 <path fill="none" stroke="rgb(0,0,0)" stroke-width="30" stroke-linejoin="round" d="M 13969,10851 L 13969,10701"/>
 <path fill="none" stroke="rgb(0,0,0)" stroke-width="30" stroke-linejoin="round" d="M 13969,10851 L 13969,10701"/>
 <path fill="none" stroke="rgb(0,0,0)" stroke-width="30" stroke-linejoin="round" d="M 14088,10851 L 14088,10701"/>
 <path fill="none" stroke="rgb(0,0,0)" stroke-width="30" stroke-linejoin="round" d="M 14088,10851 L 14088,10701"/>
 <path fill="none" stroke="rgb(0,0,0)" stroke-width="30" stroke-linejoin="round" d="M 14207,10851 L 14207,10701"/>
 <path fill="none" stroke="rgb(0,0,0)" stroke-width="30" stroke-linejoin="round" d="M 14207,10851 L 14207,10701"/>
 <path fill="none" stroke="rgb(0,0,0)" stroke-width="30" stroke-linejoin="round" d="M 14326,10851 L 14326,10701"/>
 <path fill="none" stroke="rgb(0,0,0)" stroke-width="30" stroke-linejoin="round" d="M 14326,10851 L 14326,10701"/>
 <path fill="none" stroke="rgb(0,0,0)" stroke-width="30" stroke-linejoin="round" d="M 14444,10851 L 14444,10701"/>
 <path fill="none" stroke="rgb(0,0,0)" stroke-width="30" stroke-linejoin="round" d="M 14444,10851 L 14444,10701"/>
 <path fill="none" stroke="rgb(0,0,0)" stroke-width="30" stroke-linejoin="round" d="M 14563,10851 L 14563,10701"/>
 <path fill="none" stroke="rgb(0,0,0)" stroke-width="30" stroke-linejoin="round" d="M 14563,10851 L 14563,10701"/>
 <path fill="none" stroke="rgb(0,0,0)" stroke-width="30" stroke-linejoin="round" d="M 14682,10851 L 14682,10701"/>
 <path fill="none" stroke="rgb(0,0,0)" stroke-width="30" stroke-linejoin="round" d="M 14682,10851 L 14682,10701"/>
 <path fill="none" stroke="rgb(0,0,0)" stroke-width="30" stroke-linejoin="round" d="M 14801,10851 L 14801,10701"/>
 <path fill="none" stroke="rgb(0,0,0)" stroke-width="30" stroke-linejoin="round" d="M 14801,10851 L 14801,10701"/>
 <path fill="none" stroke="rgb(0,0,0)" stroke-width="30" stroke-linejoin="round" d="M 14920,10851 L 14920,10701"/>
 <path fill="none" stroke="rgb(0,0,0)" stroke-width="30" stroke-linejoin="round" d="M 14920,10851 L 14920,10701"/>
 <path fill="none" stroke="rgb(0,0,0)" stroke-width="30" stroke-linejoin="round" d="M 15039,10851 L 15039,10701"/>
 <path fill="none" stroke="rgb(0,0,0)" stroke-width="30" stroke-linejoin="round" d="M 15039,10851 L 15039,10701"/>
 <path fill="none" stroke="rgb(0,0,0)" stroke-width="30" stroke-linejoin="round" d="M 15158,10851 L 15158,10701"/>
 <path fill="none" stroke="rgb(0,0,0)" stroke-width="30" stroke-linejoin="round" d="M 15158,10851 L 15158,10701"/>
 <path fill="none" stroke="rgb(0,0,0)" stroke-width="30" stroke-linejoin="round" d="M 1255,10701 L 15158,10701"/>
 <path fill="none" stroke="rgb(0,0,0)" stroke-width="30" stroke-linejoin="round" d="M 1105,10701 L 1255,10701"/>
 <path fill="none" stroke="rgb(0,0,0)" stroke-width="30" stroke-linejoin="round" d="M 1105,10701 L 1255,10701"/>
 <path fill="none" stroke="rgb(0,0,0)" stroke-width="30" stroke-linejoin="round" d="M 1105,9739 L 1255,9739"/>
 <path fill="none" stroke="rgb(0,0,0)" stroke-width="30" stroke-linejoin="round" d="M 1105,9739 L 1255,9739"/>
 <path fill="none" stroke="rgb(0,0,0)" stroke-width="30" stroke-linejoin="round" d="M 1105,8778 L 1255,8778"/>
 <path fill="none" stroke="rgb(0,0,0)" stroke-width="30" stroke-linejoin="round" d="M 1105,8778 L 1255,8778"/>
 <path fill="none" stroke="rgb(0,0,0)" stroke-width="30" stroke-linejoin="round" d="M 1105,7817 L 1255,7817"/>
 <path fill="none" stroke="rgb(0,0,0)" stroke-width="30" stroke-linejoin="round" d="M 1105,7817 L 1255,7817"/>
 <path fill="none" stroke="rgb(0,0,0)" stroke-width="30" stroke-linejoin="round" d="M 1105,6856 L 1255,6856"/>
 <path fill="none" stroke="rgb(0,0,0)" stroke-width="30" stroke-linejoin="round" d="M 1105,6856 L 1255,6856"/>
 <path fill="none" stroke="rgb(0,0,0)" stroke-width="30" stroke-linejoin="round" d="M 1105,5896 L 1255,5896"/>
 <path fill="none" stroke="rgb(0,0,0)" stroke-width="30" stroke-linejoin="round" d="M 1105,5896 L 1255,5896"/>
 <path fill="none" stroke="rgb(0,0,0)" stroke-width="30" stroke-linejoin="round" d="M 1105,4935 L 1255,4935"/>
 <path fill="none" stroke="rgb(0,0,0)" stroke-width="30" stroke-linejoin="round" d="M 1105,4935 L 1255,4935"/>
 <path fill="none" stroke="rgb(0,0,0)" stroke-width="30" stroke-linejoin="round" d="M 1105,3974 L 1255,3974"/>
 <path fill="none" stroke="rgb(0,0,0)" stroke-width="30" stroke-linejoin="round" d="M 1105,3974 L 1255,3974"/>
 <path fill="none" stroke="rgb(0,0,0)" stroke-width="30" stroke-linejoin="round" d="M 1105,3013 L 1255,3013"/>
 <path fill="none" stroke="rgb(0,0,0)" stroke-width="30" stroke-linejoin="round" d="M 1105,3013 L 1255,3013"/>
 <path fill="none" stroke="rgb(0,0,0)" stroke-width="30" stroke-linejoin="round" d="M 1105,2052 L 1255,2052"/>
 <path fill="none" stroke="rgb(0,0,0)" stroke-width="30" stroke-linejoin="round" d="M 1105,2052 L 1255,2052"/>
 <path fill="none" stroke="rgb(0,0,0)" stroke-width="30" stroke-linejoin="round" d="M 1105,1091 L 1255,1091"/>
 <path fill="none" stroke="rgb(0,0,0)" stroke-width="30" stroke-linejoin="round" d="M 1105,1091 L 1255,1091"/>
 <path fill="none" stroke="rgb(0,0,0)" stroke-width="30" stroke-linejoin="round" d="M 1255,10701 L 1255,1091"/>
 <path fill="none" stroke="rgb(0,0,0)" stroke-width="30" stroke-linejoin="round" d="M 15308,10701 L 15158,10701"/>
 <path fill="none" stroke="rgb(0,0,0)" stroke-width="30" stroke-linejoin="round" d="M 15308,10701 L 15158,10701"/>
 <path fill="none" stroke="rgb(0,0,0)" stroke-width="30" stroke-linejoin="round" d="M 15308,9739 L 15158,9739"/>
 <path fill="none" stroke="rgb(0,0,0)" stroke-width="30" stroke-linejoin="round" d="M 15308,9739 L 15158,9739"/>
 <path fill="none" stroke="rgb(0,0,0)" stroke-width="30" stroke-linejoin="round" d="M 15308,8778 L 15158,8778"/>
 <path fill="none" stroke="rgb(0,0,0)" stroke-width="30" stroke-linejoin="round" d="M 15308,8778 L 15158,8778"/>
 <path fill="none" stroke="rgb(0,0,0)" stroke-width="30" stroke-linejoin="round" d="M 15308,7817 L 15158,7817"/>
 <path fill="none" stroke="rgb(0,0,0)" stroke-width="30" stroke-linejoin="round" d="M 15308,7817 L 15158,7817"/>
 <path fill="none" stroke="rgb(0,0,0)" stroke-width="30" stroke-linejoin="round" d="M 15308,6856 L 15158,6856"/>
 <path fill="none" stroke="rgb(0,0,0)" stroke-width="30" stroke-linejoin="round" d="M 15308,6856 L 15158,6856"/>
 <path fill="none" stroke="rgb(0,0,0)" stroke-width="30" stroke-linejoin="round" d="M 15308,5896 L 15158,5896"/>
 <path fill="none" stroke="rgb(0,0,0)" stroke-width="30" stroke-linejoin="round" d="M 15308,5896 L 15158,5896"/>
 <path fill="none" stroke="rgb(0,0,0)" stroke-width="30" stroke-linejoin="round" d="M 15308,4935 L 15158,4935"/>
 <path fill="none" stroke="rgb(0,0,0)" stroke-width="30" stroke-linejoin="round" d="M 15308,4935 L 15158,4935"/>
 <path fill="none" stroke="rgb(0,0,0)" stroke-width="30" stroke-linejoin="round" d="M 15308,3974 L 15158,3974"/>
 <path fill="none" stroke="rgb(0,0,0)" stroke-width="30" stroke-linejoin="round" d="M 15308,3974 L 15158,3974"/>
 <path fill="none" stroke="rgb(0,0,0)" stroke-width="30" stroke-linejoin="round" d="M 15308,3013 L 15158,3013"/>
 <path fill="none" stroke="rgb(0,0,0)" stroke-width="30" stroke-linejoin="round" d="M 15308,3013 L 15158,3013"/>
 <path fill="none" stroke="rgb(0,0,0)" stroke-width="30" stroke-linejoin="round" d="M 15308,2052 L 15158,2052"/>
 <path fill="none" stroke="rgb(0,0,0)" stroke-width="30" stroke-linejoin="round" d="M 15308,2052 L 15158,2052"/>
 <path fill="none" stroke="rgb(0,0,0)" stroke-width="30" stroke-linejoin="round" d="M 15308,1091 L 15158,1091"/>
 <path fill="none" stroke="rgb(0,0,0)" stroke-width="30" stroke-linejoin="round" d="M 15308,1091 L 15158,1091"/>
 <path fill="none" stroke="rgb(0,0,0)" stroke-width="30" stroke-linejoin="round" d="M 15158,10701 L 15158,1091"/>
 <path fill="rgb(0,69,134)" stroke="none" d="M 1255,9935 L 1373,9943 1492,9997 1611,10024 1730,10030 1849,10045 1968,10072 2086,10097 2205,10108 2324,10129 2443,10157 2562,10164 2681,10182 2799,10188 2918,10205 3037,10207 3156,10198 3275,10196 3394,10198 3512,10212 3631,10205 3750,10187 3869,10197 3988,10202 4107,10206 4225,10186 4344,10201 4463,10206 4582,10209 4701,10185 4820,10191 4938,10204 5057,10174 5176,10190 5295,10201 5414,10216 5533,10236 5651,10194 5770,10226 5889,10192 6008,10228 6127,10200 6246,10198 6365,10188 6483,10138 6602,10142 6721,10160 6840,10186 6959,10167 7078,10130 7196,10138 7315,10156 7434,10135 7553,10118 7672,10113 7791,10092 7909,10064 8028,10091 8147,10074 8265,10036 8384,10007 8503,9948 8621,9917 8740,9934 8859,9964 8978,9898 9097,9843 9216,9818 9334,9768 9453,9471 9572,9504 9691,9542 9810,9560 9929,9369 10047,9380 10166,9296 10285,9198 10404,9202 10523,9360 10642,9466 10761,9527 10879,9413 10998,9453 11117,9289 11236,9181 11355,9078 11474,8948 11592,8897 11711,8862 11830,8806 11949,8642 12068,8522 12187,8355 12305,8333 12424,8215 12543,8245 12662,8095 12781,7959 12900,7812 13018,7980 13137,7786 13256,7711 13375,7564 13494,7373 13613,7144 13731,6975 13850,6936 13969,6940 14088,6748 14207,6546 14326,6492 14444,6704 14563,6599 14682,6578 14801,6472 14920,6333 15039,6225 15158,6208 15158,10701 1255,10701 1255,9935 Z"/>
 <path fill="none" stroke="rgb(0,0,0)" stroke-linejoin="round" d="M 1255,9935 L 1373,9943 1492,9997 1611,10024 1730,10030 1849,10045 1968,10072 2086,10097 2205,10108 2324,10129 2443,10157 2562,10164 2681,10182 2799,10188 2918,10205 3037,10207 3156,10198 3275,10196 3394,10198 3512,10212 3631,10205 3750,10187 3869,10197 3988,10202 4107,10206 4225,10186 4344,10201 4463,10206 4582,10209 4701,10185 4820,10191 4938,10204 5057,10174 5176,10190 5295,10201 5414,10216 5533,10236 5651,10194 5770,10226 5889,10192 6008,10228 6127,10200 6246,10198 6365,10188 6483,10138 6602,10142 6721,10160 6840,10186 6959,10167 7078,10130 7196,10138 7315,10156 7434,10135 7553,10118 7672,10113 7791,10092 7909,10064 8028,10091 8147,10074 8265,10036 8384,10007 8503,9948 8621,9917 8740,9934 8859,9964 8978,9898 9097,9843 9216,9818 9334,9768 9453,9471 9572,9504 9691,9542 9810,9560 9929,9369 10047,9380 10166,9296 10285,9198 10404,9202 10523,9360 10642,9466 10761,9527 10879,9413 10998,9453 11117,9289 11236,9181 11355,9078 11474,8948 11592,8897 11711,8862 11830,8806 11949,8642 12068,8522 12187,8355 12305,8333 12424,8215 12543,8245 12662,8095 12781,7959 12900,7812 13018,7980 13137,7786 13256,7711 13375,7564 13494,7373 13613,7144 13731,6975 13850,6936 13969,6940 14088,6748 14207,6546 14326,6492 14444,6704 14563,6599 14682,6578 14801,6472 14920,6333 15039,6225 15158,6208 15158,10701 1255,10701 1255,9935 Z"/>
 <path fill="rgb(255,66,14)" stroke="none" d="M 1255,4952 L 1373,4999 1492,5180 1611,5270 1730,5322 1849,5301 1968,5490 2086,5587 2205,5635 2324,5743 2443,5845 2562,5875 2681,6005 2799,6092 2918,6208 3037,6239 3156,6291 3275,6338 3394,6358 3512,6403 3631,6423 3750,6453 3869,6520 3988,6536 4107,6624 4225,6662 4344,6773 4463,6810 4582,6859 4701,6920 4820,6917 4938,6927 5057,6920 5176,6997 5295,7038 5414,7064 5533,7092 5651,7123 5770,7188 5889,7196 6008,7247 6127,7270 6246,7308 6365,7309 6483,7268 6602,7308 6721,7366 6840,7477 6959,7414 7078,7293 7196,7297 7315,7341 7434,7335 7553,7258 7672,7335 7791,7394 7909,7417 8028,7484 8147,7413 8265,7392 8384,7337 8503,7118 8621,7205 8740,7146 8859,7183 8978,7215 9097,7228 9216,7217 9334,7119 9453,6928 9572,7018 9691,7105 9810,7092 9929,6876 10047,6899 10166,6886 10285,6824 10404,6890 10523,7229 10642,7388 10761,7312 10879,7249 10998,7322 11117,7220 11236,7076 11355,6987 11474,6745 11592,6803 11711,6847 11830,6896 11949,6737 12068,6620 12187,6506 12305,6497 12424,6511 12543,6543 12662,6404 12781,6262 12900,6170 13018,6426 13137,6266 13256,6166 13375,6065 13494,5910 13613,5642 13731,5619 13850,5641 13969,5617 14088,5397 14207,5119 14326,5079 14444,5309 14563,5202 14682,5079 14801,5105 14920,4999 15039,4863 15158,4875 15158,6208 15039,6225 14920,6333 14801,6472 14682,6578 14563,6599 14444,6704 14326,6492 14207,6546 14088,6748 13969,6940 13850,6936 13731,6975 13613,7144 13494,7373 13375,7564 13256,7711 13137,7786 13018,7980 12900,7812 12781,7959 12662,8095 12543,8245 12424,8215 12305,8333 12187,8355 12068,8522 11949,8642 11830,8806 11711,8862 11592,8897 11474,8948 11355,9078 11236,9181 11117,9289 10998,9453 10879,9413 10761,9527 10642,9466 10523,9360 10404,9202 10285,9198 10166,9296 10047,9380 9929,9369 9810,9560 9691,9542 9572,9504 9453,9471 9334,9768 9216,9818 9097,9843 8978,9898 8859,9964 8740,9934 8621,9917 8503,9948 8384,10007 8265,10036 8147,10074 8028,10091 7909,10064 7791,10092 7672,10113 7553,10118 7434,10135 7315,10156 7196,10138 7078,10130 6959,10167 6840,10186 6721,10160 6602,10142 6483,10138 6365,10188 6246,10198 6127,10200 6008,10228 5889,10192 5770,10226 5651,10194 5533,10236 5414,10216 5295,10201 5176,10190 5057,10174 4938,10204 4820,10191 4701,10185 4582,10209 4463,10206 4344,10201 4225,10186 4107,10206 3988,10202 3869,10197 3750,10187 3631,10205 3512,10212 3394,10198 3275,10196 3156,10198 3037,10207 2918,10205 2799,10188 2681,10182 2562,10164 2443,10157 2324,10129 2205,10108 2086,10097 1968,10072 1849,10045 1730,10030 1611,10024 1492,9997 1373,9943 1255,9935 1255,4952 Z"/>
 <path fill="none" stroke="rgb(0,0,0)" stroke-linejoin="round" d="M 1255,4952 L 1373,4999 1492,5180 1611,5270 1730,5322 1849,5301 1968,5490 2086,5587 2205,5635 2324,5743 2443,5845 2562,5875 2681,6005 2799,6092 2918,6208 3037,6239 3156,6291 3275,6338 3394,6358 3512,6403 3631,6423 3750,6453 3869,6520 3988,6536 4107,6624 4225,6662 4344,6773 4463,6810 4582,6859 4701,6920 4820,6917 4938,6927 5057,6920 5176,6997 5295,7038 5414,7064 5533,7092 5651,7123 5770,7188 5889,7196 6008,7247 6127,7270 6246,7308 6365,7309 6483,7268 6602,7308 6721,7366 6840,7477 6959,7414 7078,7293 7196,7297 7315,7341 7434,7335 7553,7258 7672,7335 7791,7394 7909,7417 8028,7484 8147,7413 8265,7392 8384,7337 8503,7118 8621,7205 8740,7146 8859,7183 8978,7215 9097,7228 9216,7217 9334,7119 9453,6928 9572,7018 9691,7105 9810,7092 9929,6876 10047,6899 10166,6886 10285,6824 10404,6890 10523,7229 10642,7388 10761,7312 10879,7249 10998,7322 11117,7220 11236,7076 11355,6987 11474,6745 11592,6803 11711,6847 11830,6896 11949,6737 12068,6620 12187,6506 12305,6497 12424,6511 12543,6543 12662,6404 12781,6262 12900,6170 13018,6426 13137,6266 13256,6166 13375,6065 13494,5910 13613,5642 13731,5619 13850,5641 13969,5617 14088,5397 14207,5119 14326,5079 14444,5309 14563,5202 14682,5079 14801,5105 14920,4999 15039,4863 15158,4875 15158,6208 15039,6225 14920,6333 14801,6472 14682,6578 14563,6599 14444,6704 14326,6492 14207,6546 14088,6748 13969,6940 13850,6936 13731,6975 13613,7144 13494,7373 13375,7564 13256,7711 13137,7786 13018,7980 12900,7812 12781,7959 12662,8095 12543,8245 12424,8215 12305,8333 12187,8355 12068,8522 11949,8642 11830,8806 11711,8862 11592,8897 11474,8948 11355,9078 11236,9181 11117,9289 10998,9453 10879,9413 10761,9527 10642,9466 10523,9360 10404,9202 10285,9198 10166,9296 10047,9380 9929,9369 9810,9560 9691,9542 9572,9504 9453,9471 9334,9768 9216,9818 9097,9843 8978,9898 8859,9964 8740,9934 8621,9917 8503,9948 8384,10007 8265,10036 8147,10074 8028,10091 7909,10064 7791,10092 7672,10113 7553,10118 7434,10135 7315,10156 7196,10138 7078,10130 6959,10167 6840,10186 6721,10160 6602,10142 6483,10138 6365,10188 6246,10198 6127,10200 6008,10228 5889,10192 5770,10226 5651,10194 5533,10236 5414,10216 5295,10201 5176,10190 5057,10174 4938,10204 4820,10191 4701,10185 4582,10209 4463,10206 4344,10201 4225,10186 4107,10206 3988,10202 3869,10197 3750,10187 3631,10205 3512,10212 3394,10198 3275,10196 3156,10198 3037,10207 2918,10205 2799,10188 2681,10182 2562,10164 2443,10157 2324,10129 2205,10108 2086,10097 1968,10072 1849,10045 1730,10030 1611,10024 1492,9997 1373,9943 1255,9935 1255,4952 Z"/>
 <path fill="rgb(255,211,32)" stroke="none" d="M 1255,1619 L 1373,1634 1492,1691 1611,1744 1730,1708 1849,1711 1968,1787 2086,1801 2205,1808 2324,1844 2443,1877 2562,1847 2681,1883 2799,1933 2918,1960 3037,1976 3156,2003 3275,2036 3394,2035 3512,2029 3631,2055 3750,2069 3869,2101 3988,2109 4107,2140 4225,2166 4344,2191 4463,2209 4582,2242 4701,2277 4820,2288 4938,2326 5057,2333 5176,2370 5295,2403 5414,2390 5533,2367 5651,2396 5770,2391 5889,2449 6008,2457 6127,2486 6246,2522 6365,2552 6483,2566 6602,2622 6721,2653 6840,2683 6959,2659 7078,2611 7196,2630 7315,2679 7434,2721 7553,2701 7672,2752 7791,2762 7909,2795 8028,2836 8147,2771 8265,2786 8384,2774 8503,2692 8621,2715 8740,2696 8859,2672 8978,2722 9097,2790 9216,2787 9334,2745 9453,2797 9572,2829 9691,2889 9810,2819 9929,2798 10047,2834 10166,2849 10285,2858 10404,2908 10523,3097 10642,3127 10761,2994 10879,2889 10998,2945 11117,2963 11236,2984 11355,2986 11474,2935 11592,2925 11711,3002 11830,3007 11949,2938 12068,2968 12187,2938 12305,2899 12424,2931 12543,2941 12662,2941 12781,2933 12900,2927 13018,3075 13137,2992 13256,2957 13375,2950 13494,2926 13613,2796 13731,2787 13850,2802 13969,2755 14088,2610 14207,2515 14326,2501 14444,2564 14563,2563 14682,2529 14801,2555 14920,2537 15039,2474 15158,2513 15158,4875 15039,4863 14920,4999 14801,5105 14682,5079 14563,5202 14444,5309 14326,5079 14207,5119 14088,5397 13969,5617 13850,5641 13731,5619 13613,5642 13494,5910 13375,6065 13256,6166 13137,6266 13018,6426 12900,6170 12781,6262 12662,6404 12543,6543 12424,6511 12305,6497 12187,6506 12068,6620 11949,6737 11830,6896 11711,6847 11592,6803 11474,6745 11355,6987 11236,7076 11117,7220 10998,7322 10879,7249 10761,7312 10642,7388 10523,7229 10404,6890 10285,6824 10166,6886 10047,6899 9929,6876 9810,7092 9691,7105 9572,7018 9453,6928 9334,7119 9216,7217 9097,7228 8978,7215 8859,7183 8740,7146 8621,7205 8503,7118 8384,7337 8265,7392 8147,7413 8028,7484 7909,7417 7791,7394 7672,7335 7553,7258 7434,7335 7315,7341 7196,7297 7078,7293 6959,7414 6840,7477 6721,7366 6602,7308 6483,7268 6365,7309 6246,7308 6127,7270 6008,7247 5889,7196 5770,7188 5651,7123 5533,7092 5414,7064 5295,7038 5176,6997 5057,6920 4938,6927 4820,6917 4701,6920 4582,6859 4463,6810 4344,6773 4225,6662 4107,6624 3988,6536 3869,6520 3750,6453 3631,6423 3512,6403 3394,6358 3275,6338 3156,6291 3037,6239 2918,6208 2799,6092 2681,6005 2562,5875 2443,5845 2324,5743 2205,5635 2086,5587 1968,5490 1849,5301 1730,5322 1611,5270 1492,5180 1373,4999 1255,4952 1255,1619 Z"/>
 <path fill="none" stroke="rgb(0,0,0)" stroke-linejoin="round" d="M 1255,1619 L 1373,1634 1492,1691 1611,1744 1730,1708 1849,1711 1968,1787 2086,1801 2205,1808 2324,1844 2443,1877 2562,1847 2681,1883 2799,1933 2918,1960 3037,1976 3156,2003 3275,2036 3394,2035 3512,2029 3631,2055 3750,2069 3869,2101 3988,2109 4107,2140 4225,2166 4344,2191 4463,2209 4582,2242 4701,2277 4820,2288 4938,2326 5057,2333 5176,2370 5295,2403 5414,2390 5533,2367 5651,2396 5770,2391 5889,2449 6008,2457 6127,2486 6246,2522 6365,2552 6483,2566 6602,2622 6721,2653 6840,2683 6959,2659 7078,2611 7196,2630 7315,2679 7434,2721 7553,2701 7672,2752 7791,2762 7909,2795 8028,2836 8147,2771 8265,2786 8384,2774 8503,2692 8621,2715 8740,2696 8859,2672 8978,2722 9097,2790 9216,2787 9334,2745 9453,2797 9572,2829 9691,2889 9810,2819 9929,2798 10047,2834 10166,2849 10285,2858 10404,2908 10523,3097 10642,3127 10761,2994 10879,2889 10998,2945 11117,2963 11236,2984 11355,2986 11474,2935 11592,2925 11711,3002 11830,3007 11949,2938 12068,2968 12187,2938 12305,2899 12424,2931 12543,2941 12662,2941 12781,2933 12900,2927 13018,3075 13137,2992 13256,2957 13375,2950 13494,2926 13613,2796 13731,2787 13850,2802 13969,2755 14088,2610 14207,2515 14326,2501 14444,2564 14563,2563 14682,2529 14801,2555 14920,2537 15039,2474 15158,2513 15158,4875 15039,4863 14920,4999 14801,5105 14682,5079 14563,5202 14444,5309 14326,5079 14207,5119 14088,5397 13969,5617 13850,5641 13731,5619 13613,5642 13494,5910 13375,6065 13256,6166 13137,6266 13018,6426 12900,6170 12781,6262 12662,6404 12543,6543 12424,6511 12305,6497 12187,6506 12068,6620 11949,6737 11830,6896 11711,6847 11592,6803 11474,6745 11355,6987 11236,7076 11117,7220 10998,7322 10879,7249 10761,7312 10642,7388 10523,7229 10404,6890 10285,6824 10166,6886 10047,6899 9929,6876 9810,7092 9691,7105 9572,7018 9453,6928 9334,7119 9216,7217 9097,7228 8978,7215 8859,7183 8740,7146 8621,7205 8503,7118 8384,7337 8265,7392 8147,7413 8028,7484 7909,7417 7791,7394 7672,7335 7553,7258 7434,7335 7315,7341 7196,7297 7078,7293 6959,7414 6840,7477 6721,7366 6602,7308 6483,7268 6365,7309 6246,7308 6127,7270 6008,7247 5889,7196 5770,7188 5651,7123 5533,7092 5414,7064 5295,7038 5176,6997 5057,6920 4938,6927 4820,6917 4701,6920 4582,6859 4463,6810 4344,6773 4225,6662 4107,6624 3988,6536 3869,6520 3750,6453 3631,6423 3512,6403 3394,6358 3275,6338 3156,6291 3037,6239 2918,6208 2799,6092 2681,6005 2562,5875 2443,5845 2324,5743 2205,5635 2086,5587 1968,5490 1849,5301 1730,5322 1611,5270 1492,5180 1373,4999 1255,4952 1255,1619 Z"/>
 <path fill="rgb(87,157,28)" stroke="none" d="M 1255,1235 L 1373,1237 1492,1244 1611,1252 1730,1254 1849,1258 1968,1274 2086,1283 2205,1280 2324,1292 2443,1307 2562,1300 2681,1309 2799,1332 2918,1347 3037,1361 3156,1380 3275,1411 3394,1413 3512,1420 3631,1428 3750,1448 3869,1476 3988,1496 4107,1529 4225,1562 4344,1593 4463,1618 4582,1651 4701,1688 4820,1704 4938,1732 5057,1747 5176,1785 5295,1821 5414,1828 5533,1827 5651,1862 5770,1873 5889,1914 6008,1914 6127,1954 6246,1991 6365,2026 6483,2055 6602,2115 6721,2138 6840,2173 6959,2168 7078,2155 7196,2177 7315,2222 7434,2264 7553,2258 7672,2307 7791,2325 7909,2352 8028,2379 8147,2338 8265,2362 8384,2358 8503,2311 8621,2327 8740,2330 8859,2312 8978,2355 9097,2407 9216,2421 9334,2402 9453,2489 9572,2507 9691,2547 9810,2474 9929,2475 10047,2502 10166,2512 10285,2511 10404,2553 10523,2674 10642,2673 10761,2569 10879,2503 10998,2558 11117,2604 11236,2622 11355,2634 11474,2600 11592,2600 11711,2672 11830,2677 11949,2637 12068,2646 12187,2624 12305,2595 12424,2629 12543,2639 12662,2646 12781,2646 12900,2647 13018,2779 13137,2705 13256,2680 13375,2679 13494,2664 13613,2557 13731,2554 13850,2569 13969,2543 14088,2406 14207,2326 14326,2304 14444,2362 14563,2359 14682,2341 14801,2354 14920,2339 15039,2289 15158,2325 15158,2513 15039,2474 14920,2537 14801,2555 14682,2529 14563,2563 14444,2564 14326,2501 14207,2515 14088,2610 13969,2755 13850,2802 13731,2787 13613,2796 13494,2926 13375,2950 13256,2957 13137,2992 13018,3075 12900,2927 12781,2933 12662,2941 12543,2941 12424,2931 12305,2899 12187,2938 12068,2968 11949,2938 11830,3007 11711,3002 11592,2925 11474,2935 11355,2986 11236,2984 11117,2963 10998,2945 10879,2889 10761,2994 10642,3127 10523,3097 10404,2908 10285,2858 10166,2849 10047,2834 9929,2798 9810,2819 9691,2889 9572,2829 9453,2797 9334,2745 9216,2787 9097,2790 8978,2722 8859,2672 8740,2696 8621,2715 8503,2692 8384,2774 8265,2786 8147,2771 8028,2836 7909,2795 7791,2762 7672,2752 7553,2701 7434,2721 7315,2679 7196,2630 7078,2611 6959,2659 6840,2683 6721,2653 6602,2622 6483,2566 6365,2552 6246,2522 6127,2486 6008,2457 5889,2449 5770,2391 5651,2396 5533,2367 5414,2390 5295,2403 5176,2370 5057,2333 4938,2326 4820,2288 4701,2277 4582,2242 4463,2209 4344,2191 4225,2166 4107,2140 3988,2109 3869,2101 3750,2069 3631,2055 3512,2029 3394,2035 3275,2036 3156,2003 3037,1976 2918,1960 2799,1933 2681,1883 2562,1847 2443,1877 2324,1844 2205,1808 2086,1801 1968,1787 1849,1711 1730,1708 1611,1744 1492,1691 1373,1634 1255,1619 1255,1235 Z"/>
 <path fill="none" stroke="rgb(0,0,0)" stroke-linejoin="round" d="M 1255,1235 L 1373,1237 1492,1244 1611,1252 1730,1254 1849,1258 1968,1274 2086,1283 2205,1280 2324,1292 2443,1307 2562,1300 2681,1309 2799,1332 2918,1347 3037,1361 3156,1380 3275,1411 3394,1413 3512,1420 3631,1428 3750,1448 3869,1476 3988,1496 4107,1529 4225,1562 4344,1593 4463,1618 4582,1651 4701,1688 4820,1704 4938,1732 5057,1747 5176,1785 5295,1821 5414,1828 5533,1827 5651,1862 5770,1873 5889,1914 6008,1914 6127,1954 6246,1991 6365,2026 6483,2055 6602,2115 6721,2138 6840,2173 6959,2168 7078,2155 7196,2177 7315,2222 7434,2264 7553,2258 7672,2307 7791,2325 7909,2352 8028,2379 8147,2338 8265,2362 8384,2358 8503,2311 8621,2327 8740,2330 8859,2312 8978,2355 9097,2407 9216,2421 9334,2402 9453,2489 9572,2507 9691,2547 9810,2474 9929,2475 10047,2502 10166,2512 10285,2511 10404,2553 10523,2674 10642,2673 10761,2569 10879,2503 10998,2558 11117,2604 11236,2622 11355,2634 11474,2600 11592,2600 11711,2672 11830,2677 11949,2637 12068,2646 12187,2624 12305,2595 12424,2629 12543,2639 12662,2646 12781,2646 12900,2647 13018,2779 13137,2705 13256,2680 13375,2679 13494,2664 13613,2557 13731,2554 13850,2569 13969,2543 14088,2406 14207,2326 14326,2304 14444,2362 14563,2359 14682,2341 14801,2354 14920,2339 15039,2289 15158,2325 15158,2513 15039,2474 14920,2537 14801,2555 14682,2529 14563,2563 14444,2564 14326,2501 14207,2515 14088,2610 13969,2755 13850,2802 13731,2787 13613,2796 13494,2926 13375,2950 13256,2957 13137,2992 13018,3075 12900,2927 12781,2933 12662,2941 12543,2941 12424,2931 12305,2899 12187,2938 12068,2968 11949,2938 11830,3007 11711,3002 11592,2925 11474,2935 11355,2986 11236,2984 11117,2963 10998,2945 10879,2889 10761,2994 10642,3127 10523,3097 10404,2908 10285,2858 10166,2849 10047,2834 9929,2798 9810,2819 9691,2889 9572,2829 9453,2797 9334,2745 9216,2787 9097,2790 8978,2722 8859,2672 8740,2696 8621,2715 8503,2692 8384,2774 8265,2786 8147,2771 8028,2836 7909,2795 7791,2762 7672,2752 7553,2701 7434,2721 7315,2679 7196,2630 7078,2611 6959,2659 6840,2683 6721,2653 6602,2622 6483,2566 6365,2552 6246,2522 6127,2486 6008,2457 5889,2449 5770,2391 5651,2396 5533,2367 5414,2390 5295,2403 5176,2370 5057,2333 4938,2326 4820,2288 4701,2277 4582,2242 4463,2209 4344,2191 4225,2166 4107,2140 3988,2109 3869,2101 3750,2069 3631,2055 3512,2029 3394,2035 3275,2036 3156,2003 3037,1976 2918,1960 2799,1933 2681,1883 2562,1847 2443,1877 2324,1844 2205,1808 2086,1801 1968,1787 1849,1711 1730,1708 1611,1744 1492,1691 1373,1634 1255,1619 1255,1235 Z"/>
 <path fill="rgb(126,0,33)" stroke="none" d="M 1255,1130 L 1373,1128 1492,1125 1611,1130 1730,1127 1849,1133 1968,1133 2086,1133 2205,1129 2324,1135 2443,1138 2562,1140 2681,1136 2799,1143 2918,1151 3037,1162 3156,1169 3275,1190 3394,1186 3512,1190 3631,1176 3750,1187 3869,1198 3988,1212 4107,1225 4225,1237 4344,1250 4463,1265 4582,1278 4701,1298 4820,1298 4938,1306 5057,1329 5176,1358 5295,1371 5414,1376 5533,1375 5651,1392 5770,1408 5889,1432 6008,1424 6127,1448 6246,1467 6365,1486 6483,1516 6602,1557 6721,1560 6840,1572 6959,1581 7078,1592 7196,1606 7315,1623 7434,1645 7553,1647 7672,1679 7791,1682 7909,1686 8028,1667 8147,1655 8265,1670 8384,1651 8503,1645 8621,1644 8740,1662 8859,1620 8978,1634 9097,1653 9216,1664 9334,1695 9453,1781 9572,1765 9691,1738 9810,1670 9929,1687 10047,1696 10166,1688 10285,1669 10404,1683 10523,1743 10642,1698 10761,1637 10879,1597 10998,1634 11117,1679 11236,1665 11355,1666 11474,1658 11592,1634 11711,1698 11830,1698 11949,1685 12068,1656 12187,1632 12305,1602 12424,1607 12543,1616 12662,1612 12781,1613 12900,1623 13018,1667 13137,1625 13256,1617 13375,1604 13494,1594 13613,1567 13731,1545 13850,1566 13969,1576 14088,1526 14207,1502 14326,1466 14444,1483 14563,1477 14682,1499 14801,1480 14920,1468 15039,1461 15158,1468 15158,2325 15039,2289 14920,2339 14801,2354 14682,2341 14563,2359 14444,2362 14326,2304 14207,2326 14088,2406 13969,2543 13850,2569 13731,2554 13613,2557 13494,2664 13375,2679 13256,2680 13137,2705 13018,2779 12900,2647 12781,2646 12662,2646 12543,2639 12424,2629 12305,2595 12187,2624 12068,2646 11949,2637 11830,2677 11711,2672 11592,2600 11474,2600 11355,2634 11236,2622 11117,2604 10998,2558 10879,2503 10761,2569 10642,2673 10523,2674 10404,2553 10285,2511 10166,2512 10047,2502 9929,2475 9810,2474 9691,2547 9572,2507 9453,2489 9334,2402 9216,2421 9097,2407 8978,2355 8859,2312 8740,2330 8621,2327 8503,2311 8384,2358 8265,2362 8147,2338 8028,2379 7909,2352 7791,2325 7672,2307 7553,2258 7434,2264 7315,2222 7196,2177 7078,2155 6959,2168 6840,2173 6721,2138 6602,2115 6483,2055 6365,2026 6246,1991 6127,1954 6008,1914 5889,1914 5770,1873 5651,1862 5533,1827 5414,1828 5295,1821 5176,1785 5057,1747 4938,1732 4820,1704 4701,1688 4582,1651 4463,1618 4344,1593 4225,1562 4107,1529 3988,1496 3869,1476 3750,1448 3631,1428 3512,1420 3394,1413 3275,1411 3156,1380 3037,1361 2918,1347 2799,1332 2681,1309 2562,1300 2443,1307 2324,1292 2205,1280 2086,1283 1968,1274 1849,1258 1730,1254 1611,1252 1492,1244 1373,1237 1255,1235 1255,1130 Z"/>
 <path fill="none" stroke="rgb(0,0,0)" stroke-linejoin="round" d="M 1255,1130 L 1373,1128 1492,1125 1611,1130 1730,1127 1849,1133 1968,1133 2086,1133 2205,1129 2324,1135 2443,1138 2562,1140 2681,1136 2799,1143 2918,1151 3037,1162 3156,1169 3275,1190 3394,1186 3512,1190 3631,1176 3750,1187 3869,1198 3988,1212 4107,1225 4225,1237 4344,1250 4463,1265 4582,1278 4701,1298 4820,1298 4938,1306 5057,1329 5176,1358 5295,1371 5414,1376 5533,1375 5651,1392 5770,1408 5889,1432 6008,1424 6127,1448 6246,1467 6365,1486 6483,1516 6602,1557 6721,1560 6840,1572 6959,1581 7078,1592 7196,1606 7315,1623 7434,1645 7553,1647 7672,1679 7791,1682 7909,1686 8028,1667 8147,1655 8265,1670 8384,1651 8503,1645 8621,1644 8740,1662 8859,1620 8978,1634 9097,1653 9216,1664 9334,1695 9453,1781 9572,1765 9691,1738 9810,1670 9929,1687 10047,1696 10166,1688 10285,1669 10404,1683 10523,1743 10642,1698 10761,1637 10879,1597 10998,1634 11117,1679 11236,1665 11355,1666 11474,1658 11592,1634 11711,1698 11830,1698 11949,1685 12068,1656 12187,1632 12305,1602 12424,1607 12543,1616 12662,1612 12781,1613 12900,1623 13018,1667 13137,1625 13256,1617 13375,1604 13494,1594 13613,1567 13731,1545 13850,1566 13969,1576 14088,1526 14207,1502 14326,1466 14444,1483 14563,1477 14682,1499 14801,1480 14920,1468 15039,1461 15158,1468 15158,2325 15039,2289 14920,2339 14801,2354 14682,2341 14563,2359 14444,2362 14326,2304 14207,2326 14088,2406 13969,2543 13850,2569 13731,2554 13613,2557 13494,2664 13375,2679 13256,2680 13137,2705 13018,2779 12900,2647 12781,2646 12662,2646 12543,2639 12424,2629 12305,2595 12187,2624 12068,2646 11949,2637 11830,2677 11711,2672 11592,2600 11474,2600 11355,2634 11236,2622 11117,2604 10998,2558 10879,2503 10761,2569 10642,2673 10523,2674 10404,2553 10285,2511 10166,2512 10047,2502 9929,2475 9810,2474 9691,2547 9572,2507 9453,2489 9334,2402 9216,2421 9097,2407 8978,2355 8859,2312 8740,2330 8621,2327 8503,2311 8384,2358 8265,2362 8147,2338 8028,2379 7909,2352 7791,2325 7672,2307 7553,2258 7434,2264 7315,2222 7196,2177 7078,2155 6959,2168 6840,2173 6721,2138 6602,2115 6483,2055 6365,2026 6246,1991 6127,1954 6008,1914 5889,1914 5770,1873 5651,1862 5533,1827 5414,1828 5295,1821 5176,1785 5057,1747 4938,1732 4820,1704 4701,1688 4582,1651 4463,1618 4344,1593 4225,1562 4107,1529 3988,1496 3869,1476 3750,1448 3631,1428 3512,1420 3394,1413 3275,1411 3156,1380 3037,1361 2918,1347 2799,1332 2681,1309 2562,1300 2443,1307 2324,1292 2205,1280 2086,1283 1968,1274 1849,1258 1730,1254 1611,1252 1492,1244 1373,1237 1255,1235 1255,1130 Z"/>
 <path fill="rgb(131,202,255)" stroke="none" d="M 1255,1091 L 1373,1091 1492,1091 1611,1091 1730,1091 1849,1091 1968,1091 2086,1091 2205,1091 2324,1091 2443,1091 2562,1091 2681,1091 2799,1091 2918,1091 3037,1091 3156,1091 3275,1091 3394,1091 3512,1091 3631,1091 3750,1091 3869,1091 3988,1091 4107,1091 4225,1091 4344,1091 4463,1091 4582,1091 4701,1091 4820,1091 4938,1091 5057,1091 5176,1091 5295,1091 5414,1091 5533,1091 5651,1091 5770,1091 5889,1091 6008,1091 6127,1091 6246,1091 6365,1091 6483,1091 6602,1091 6721,1091 6840,1091 6959,1091 7078,1091 7196,1091 7315,1091 7434,1091 7553,1091 7672,1091 7791,1091 7909,1091 8028,1091 8147,1091 8265,1091 8384,1091 8503,1091 8621,1091 8740,1091 8859,1091 8978,1091 9097,1091 9216,1091 9334,1091 9453,1091 9572,1091 9691,1091 9810,1091 9929,1091 10047,1091 10166,1091 10285,1091 10404,1091 10523,1091 10642,1091 10761,1091 10879,1091 10998,1091 11117,1091 11236,1091 11355,1091 11474,1091 11592,1091 11711,1091 11830,1091 11949,1091 12068,1091 12187,1091 12305,1091 12424,1091 12543,1091 12662,1091 12781,1091 12900,1091 13018,1091 13137,1091 13256,1091 13375,1091 13494,1091 13613,1091 13731,1091 13850,1091 13969,1091 14088,1091 14207,1091 14326,1091 14444,1091 14563,1091 14682,1091 14801,1091 14920,1091 15039,1091 15158,1091 15158,1468 15039,1461 14920,1468 14801,1480 14682,1499 14563,1477 14444,1483 14326,1466 14207,1502 14088,1526 13969,1576 13850,1566 13731,1545 13613,1567 13494,1594 13375,1604 13256,1617 13137,1625 13018,1667 12900,1623 12781,1613 12662,1612 12543,1616 12424,1607 12305,1602 12187,1632 12068,1656 11949,1685 11830,1698 11711,1698 11592,1634 11474,1658 11355,1666 11236,1665 11117,1679 10998,1634 10879,1597 10761,1637 10642,1698 10523,1743 10404,1683 10285,1669 10166,1688 10047,1696 9929,1687 9810,1670 9691,1738 9572,1765 9453,1781 9334,1695 9216,1664 9097,1653 8978,1634 8859,1620 8740,1662 8621,1644 8503,1645 8384,1651 8265,1670 8147,1655 8028,1667 7909,1686 7791,1682 7672,1679 7553,1647 7434,1645 7315,1623 7196,1606 7078,1592 6959,1581 6840,1572 6721,1560 6602,1557 6483,1516 6365,1486 6246,1467 6127,1448 6008,1424 5889,1432 5770,1408 5651,1392 5533,1375 5414,1376 5295,1371 5176,1358 5057,1329 4938,1306 4820,1298 4701,1298 4582,1278 4463,1265 4344,1250 4225,1237 4107,1225 3988,1212 3869,1198 3750,1187 3631,1176 3512,1190 3394,1186 3275,1190 3156,1169 3037,1162 2918,1151 2799,1143 2681,1136 2562,1140 2443,1138 2324,1135 2205,1129 2086,1133 1968,1133 1849,1133 1730,1127 1611,1130 1492,1125 1373,1128 1255,1130 1255,1091 Z"/>
 <path fill="none" stroke="rgb(0,0,0)" stroke-linejoin="round" d="M 1255,1091 L 1373,1091 1492,1091 1611,1091 1730,1091 1849,1091 1968,1091 2086,1091 2205,1091 2324,1091 2443,1091 2562,1091 2681,1091 2799,1091 2918,1091 3037,1091 3156,1091 3275,1091 3394,1091 3512,1091 3631,1091 3750,1091 3869,1091 3988,1091 4107,1091 4225,1091 4344,1091 4463,1091 4582,1091 4701,1091 4820,1091 4938,1091 5057,1091 5176,1091 5295,1091 5414,1091 5533,1091 5651,1091 5770,1091 5889,1091 6008,1091 6127,1091 6246,1091 6365,1091 6483,1091 6602,1091 6721,1091 6840,1091 6959,1091 7078,1091 7196,1091 7315,1091 7434,1091 7553,1091 7672,1091 7791,1091 7909,1091 8028,1091 8147,1091 8265,1091 8384,1091 8503,1091 8621,1091 8740,1091 8859,1091 8978,1091 9097,1091 9216,1091 9334,1091 9453,1091 9572,1091 9691,1091 9810,1091 9929,1091 10047,1091 10166,1091 10285,1091 10404,1091 10523,1091 10642,1091 10761,1091 10879,1091 10998,1091 11117,1091 11236,1091 11355,1091 11474,1091 11592,1091 11711,1091 11830,1091 11949,1091 12068,1091 12187,1091 12305,1091 12424,1091 12543,1091 12662,1091 12781,1091 12900,1091 13018,1091 13137,1091 13256,1091 13375,1091 13494,1091 13613,1091 13731,1091 13850,1091 13969,1091 14088,1091 14207,1091 14326,1091 14444,1091 14563,1091 14682,1091 14801,1091 14920,1091 15039,1091 15158,1091 15158,1468 15039,1461 14920,1468 14801,1480 14682,1499 14563,1477 14444,1483 14326,1466 14207,1502 14088,1526 13969,1576 13850,1566 13731,1545 13613,1567 13494,1594 13375,1604 13256,1617 13137,1625 13018,1667 12900,1623 12781,1613 12662,1612 12543,1616 12424,1607 12305,1602 12187,1632 12068,1656 11949,1685 11830,1698 11711,1698 11592,1634 11474,1658 11355,1666 11236,1665 11117,1679 10998,1634 10879,1597 10761,1637 10642,1698 10523,1743 10404,1683 10285,1669 10166,1688 10047,1696 9929,1687 9810,1670 9691,1738 9572,1765 9453,1781 9334,1695 9216,1664 9097,1653 8978,1634 8859,1620 8740,1662 8621,1644 8503,1645 8384,1651 8265,1670 8147,1655 8028,1667 7909,1686 7791,1682 7672,1679 7553,1647 7434,1645 7315,1623 7196,1606 7078,1592 6959,1581 6840,1572 6721,1560 6602,1557 6483,1516 6365,1486 6246,1467 6127,1448 6008,1424 5889,1432 5770,1408 5651,1392 5533,1375 5414,1376 5295,1371 5176,1358 5057,1329 4938,1306 4820,1298 4701,1298 4582,1278 4463,1265 4344,1250 4225,1237 4107,1225 3988,1212 3869,1198 3750,1187 3631,1176 3512,1190 3394,1186 3275,1190 3156,1169 3037,1162 2918,1151 2799,1143 2681,1136 2562,1140 2443,1138 2324,1135 2205,1129 2086,1133 1968,1133 1849,1133 1730,1127 1611,1130 1492,1125 1373,1128 1255,1130 1255,1091 Z"/>
 <text class="TextShape"><tspan class="TextParagraph" font-family="Arial, sans-serif" font-size="388px" font-weight="400"><tspan class="TextPosition" x="1068" y="11295"><tspan fill="rgb(0,0,0)" stroke="none">2008</tspan></tspan></tspan></text>
 <text class="TextShape"><tspan class="TextParagraph" font-family="Arial, sans-serif" font-size="388px" font-weight="400"><tspan class="TextPosition" x="2494" y="11295"><tspan fill="rgb(0,0,0)" stroke="none">2009</tspan></tspan></tspan></text>
 <text class="TextShape"><tspan class="TextParagraph" font-family="Arial, sans-serif" font-size="388px" font-weight="400"><tspan class="TextPosition" x="3920" y="11295"><tspan fill="rgb(0,0,0)" stroke="none">2010</tspan></tspan></tspan></text>
 <text class="TextShape"><tspan class="TextParagraph" font-family="Arial, sans-serif" font-size="388px" font-weight="400"><tspan class="TextPosition" x="5346" y="11295"><tspan fill="rgb(0,0,0)" stroke="none">2011</tspan></tspan></tspan></text>
 <text class="TextShape"><tspan class="TextParagraph" font-family="Arial, sans-serif" font-size="388px" font-weight="400"><tspan class="TextPosition" x="6772" y="11295"><tspan fill="rgb(0,0,0)" stroke="none">2012</tspan></tspan></tspan></text>
 <text class="TextShape"><tspan class="TextParagraph" font-family="Arial, sans-serif" font-size="388px" font-weight="400"><tspan class="TextPosition" x="8198" y="11295"><tspan fill="rgb(0,0,0)" stroke="none">2013</tspan></tspan></tspan></text>
 <text class="TextShape"><tspan class="TextParagraph" font-family="Arial, sans-serif" font-size="388px" font-weight="400"><tspan class="TextPosition" x="9624" y="11295"><tspan fill="rgb(0,0,0)" stroke="none">2014</tspan></tspan></tspan></text>
 <text class="TextShape"><tspan class="TextParagraph" font-family="Arial, sans-serif" font-size="388px" font-weight="400"><tspan class="TextPosition" x="11051" y="11295"><tspan fill="rgb(0,0,0)" stroke="none">2015</tspan></tspan></tspan></text>
 <text class="TextShape"><tspan class="TextParagraph" font-family="Arial, sans-serif" font-size="388px" font-weight="400"><tspan class="TextPosition" x="12477" y="11295"><tspan fill="rgb(0,0,0)" stroke="none">2016</tspan></tspan></tspan></text>
 <text class="TextShape"><tspan class="TextParagraph" font-family="Arial, sans-serif" font-size="388px" font-weight="400"><tspan class="TextPosition" x="13903" y="11295"><tspan fill="rgb(0,0,0)" stroke="none">2017</tspan></tspan></tspan></text>
 <text class="TextShape"><tspan class="TextParagraph" font-family="Arial, sans-serif" font-size="388px" font-weight="400"><tspan class="TextPosition" x="449" y="10835"><tspan fill="rgb(0,0,0)" stroke="none">0%</tspan></tspan></tspan></text>
 <text class="TextShape"><tspan class="TextParagraph" font-family="Arial, sans-serif" font-size="388px" font-weight="400"><tspan class="TextPosition" x="238" y="9873"><tspan fill="rgb(0,0,0)" stroke="none">10%</tspan></tspan></tspan></text>
 <text class="TextShape"><tspan class="TextParagraph" font-family="Arial, sans-serif" font-size="388px" font-weight="400"><tspan class="TextPosition" x="238" y="8912"><tspan fill="rgb(0,0,0)" stroke="none">20%</tspan></tspan></tspan></text>
 <text class="TextShape"><tspan class="TextParagraph" font-family="Arial, sans-serif" font-size="388px" font-weight="400"><tspan class="TextPosition" x="238" y="7951"><tspan fill="rgb(0,0,0)" stroke="none">30%</tspan></tspan></tspan></text>
 <text class="TextShape"><tspan class="TextParagraph" font-family="Arial, sans-serif" font-size="388px" font-weight="400"><tspan class="TextPosition" x="238" y="6990"><tspan fill="rgb(0,0,0)" stroke="none">40%</tspan></tspan></tspan></text>
 <text class="TextShape"><tspan class="TextParagraph" font-family="Arial, sans-serif" font-size="388px" font-weight="400"><tspan class="TextPosition" x="238" y="6029"><tspan fill="rgb(0,0,0)" stroke="none">50%</tspan></tspan></tspan></text>
 <text class="TextShape"><tspan class="TextParagraph" font-family="Arial, sans-serif" font-size="388px" font-weight="400"><tspan class="TextPosition" x="238" y="5068"><tspan fill="rgb(0,0,0)" stroke="none">60%</tspan></tspan></tspan></text>
 <text class="TextShape"><tspan class="TextParagraph" font-family="Arial, sans-serif" font-size="388px" font-weight="400"><tspan class="TextPosition" x="238" y="4107"><tspan fill="rgb(0,0,0)" stroke="none">70%</tspan></tspan></tspan></text>
 <text class="TextShape"><tspan class="TextParagraph" font-family="Arial, sans-serif" font-size="388px" font-weight="400"><tspan class="TextPosition" x="238" y="3146"><tspan fill="rgb(0,0,0)" stroke="none">80%</tspan></tspan></tspan></text>
 <text class="TextShape"><tspan class="TextParagraph" font-family="Arial, sans-serif" font-size="388px" font-weight="400"><tspan class="TextPosition" x="238" y="2185"><tspan fill="rgb(0,0,0)" stroke="none">90%</tspan></tspan></tspan></text>
 <text class="TextShape"><tspan class="TextParagraph" font-family="Arial, sans-serif" font-size="388px" font-weight="400"><tspan class="TextPosition" x="26" y="1224"><tspan fill="rgb(0,0,0)" stroke="none">100%</tspan></tspan></tspan></text>
 <text class="TextShape"><tspan class="TextParagraph" font-family="Arial, sans-serif" font-size="388px" font-weight="400"><tspan class="TextPosition" x="15408" y="10835"><tspan fill="rgb(0,0,0)" stroke="none">0%</tspan></tspan></tspan></text>
 <text class="TextShape"><tspan class="TextParagraph" font-family="Arial, sans-serif" font-size="388px" font-weight="400"><tspan class="TextPosition" x="15408" y="9873"><tspan fill="rgb(0,0,0)" stroke="none">10%</tspan></tspan></tspan></text>
 <text class="TextShape"><tspan class="TextParagraph" font-family="Arial, sans-serif" font-size="388px" font-weight="400"><tspan class="TextPosition" x="15408" y="8912"><tspan fill="rgb(0,0,0)" stroke="none">20%</tspan></tspan></tspan></text>
 <text class="TextShape"><tspan class="TextParagraph" font-family="Arial, sans-serif" font-size="388px" font-weight="400"><tspan class="TextPosition" x="15408" y="7951"><tspan fill="rgb(0,0,0)" stroke="none">30%</tspan></tspan></tspan></text>
 <text class="TextShape"><tspan class="TextParagraph" font-family="Arial, sans-serif" font-size="388px" font-weight="400"><tspan class="TextPosition" x="15408" y="6990"><tspan fill="rgb(0,0,0)" stroke="none">40%</tspan></tspan></tspan></text>
 <text class="TextShape"><tspan class="TextParagraph" font-family="Arial, sans-serif" font-size="388px" font-weight="400"><tspan class="TextPosition" x="15408" y="6029"><tspan fill="rgb(0,0,0)" stroke="none">50%</tspan></tspan></tspan></text>
 <text class="TextShape"><tspan class="TextParagraph" font-family="Arial, sans-serif" font-size="388px" font-weight="400"><tspan class="TextPosition" x="15408" y="5068"><tspan fill="rgb(0,0,0)" stroke="none">60%</tspan></tspan></tspan></text>
 <text class="TextShape"><tspan class="TextParagraph" font-family="Arial, sans-serif" font-size="388px" font-weight="400"><tspan class="TextPosition" x="15408" y="4107"><tspan fill="rgb(0,0,0)" stroke="none">70%</tspan></tspan></tspan></text>
 <text class="TextShape"><tspan class="TextParagraph" font-family="Arial, sans-serif" font-size="388px" font-weight="400"><tspan class="TextPosition" x="15408" y="3146"><tspan fill="rgb(0,0,0)" stroke="none">80%</tspan></tspan></tspan></text>
 <text class="TextShape"><tspan class="TextParagraph" font-family="Arial, sans-serif" font-size="388px" font-weight="400"><tspan class="TextPosition" x="15408" y="2185"><tspan fill="rgb(0,0,0)" stroke="none">90%</tspan></tspan></tspan></text>
 <text class="TextShape"><tspan class="TextParagraph" font-family="Arial, sans-serif" font-size="388px" font-weight="400"><tspan class="TextPosition" x="15408" y="1224"><tspan fill="rgb(0,0,0)" stroke="none">100%</tspan></tspan></tspan></text>
 <text class="TextShape"><tspan class="TextParagraph" font-family="Liberation Sans, sans-serif" font-size="635px" font-weight="400"><tspan class="TextPosition" x="5494" y="747"><tspan fill="rgb(0,0,0)" stroke="none">Nmero de pxeles </tspan></tspan></tspan></text>
 <path fill="rgb(0,69,134)" stroke="none" d="M 3179,12156 L 3074,12156 3074,11945 3285,11945 3285,12156 3179,12156 Z"/>
 <path fill="none" stroke="rgb(0,0,0)" stroke-linejoin="round" d="M 3179,12156 L 3074,12156 3074,11945 3285,11945 3285,12156 3179,12156 Z"/>
 <path fill="rgb(255,66,14)" stroke="none" d="M 5020,12156 L 4915,12156 4915,11945 5126,11945 5126,12156 5020,12156 Z"/>
 <path fill="none" stroke="rgb(0,0,0)" stroke-linejoin="round" d="M 5020,12156 L 4915,12156 4915,11945 5126,11945 5126,12156 5020,12156 Z"/>
 <path fill="rgb(255,211,32)" stroke="none" d="M 6861,12156 L 6756,12156 6756,11945 6967,11945 6967,12156 6861,12156 Z"/>
 <path fill="none" stroke="rgb(0,0,0)" stroke-linejoin="round" d="M 6861,12156 L 6756,12156 6756,11945 6967,11945 6967,12156 6861,12156 Z"/>
 <path fill="rgb(87,157,28)" stroke="none" d="M 8702,12156 L 8596,12156 8596,11945 8807,11945 8807,12156 8702,12156 Z"/>
 <path fill="none" stroke="rgb(0,0,0)" stroke-linejoin="round" d="M 8702,12156 L 8596,12156 8596,11945 8807,11945 8807,12156 8702,12156 Z"/>
 <path fill="rgb(126,0,33)" stroke="none" d="M 10543,12156 L 10437,12156 10437,11945 10648,11945 10648,12156 10543,12156 Z"/>
 <path fill="none" stroke="rgb(0,0,0)" stroke-linejoin="round" d="M 10543,12156 L 10437,12156 10437,11945 10648,11945 10648,12156 10543,12156 Z"/>
 <path fill="rgb(131,202,255)" stroke="none" d="M 12384,12156 L 12278,12156 12278,11945 12489,11945 12489,12156 12384,12156 Z"/>
 <path fill="none" stroke="rgb(0,0,0)" stroke-linejoin="round" d="M 12384,12156 L 12278,12156 12278,11945 12489,11945 12489,12156 12384,12156 Z"/>
 <text class="TextShape"><tspan class="TextParagraph" font-family="Arial, sans-serif" font-size="353px" font-weight="400"><tspan class="TextPosition" x="3385" y="12169"><tspan fill="rgb(0,0,0)" stroke="none">0,5 MPx</tspan></tspan></tspan></text>
 <text class="TextShape"><tspan class="TextParagraph" font-family="Arial, sans-serif" font-size="353px" font-weight="400"><tspan class="TextPosition" x="5226" y="12169"><tspan fill="rgb(0,0,0)" stroke="none">1,0 MPx</tspan></tspan></tspan></text>
 <text class="TextShape"><tspan class="TextParagraph" font-family="Arial, sans-serif" font-size="353px" font-weight="400"><tspan class="TextPosition" x="7067" y="12169"><tspan fill="rgb(0,0,0)" stroke="none">1,5 MPx</tspan></tspan></tspan></text>
 <text class="TextShape"><tspan class="TextParagraph" font-family="Arial, sans-serif" font-size="353px" font-weight="400"><tspan class="TextPosition" x="8907" y="12169"><tspan fill="rgb(0,0,0)" stroke="none">2,0 MPx</tspan></tspan></tspan></text>
 <text class="TextShape"><tspan class="TextParagraph" font-family="Arial, sans-serif" font-size="353px" font-weight="400"><tspan class="TextPosition" x="10748" y="12169"><tspan fill="rgb(0,0,0)" stroke="none">2,5 MPx</tspan></tspan></tspan></text>
 <text class="TextShape"><tspan class="TextParagraph" font-family="Arial, sans-serif" font-size="353px" font-weight="400"><tspan class="TextPosition" x="12589" y="12169"><tspan fill="rgb(0,0,0)" stroke="none">Otros</tspan></tspan></tspan></text>
</svg>
