<?xml version="1.0" encoding="UTF-8"?>
<!DOCTYPE svg PUBLIC "-//W3C//DTD SVG 1.1//EN" "http://www.w3.org/Graphics/SVG/1.1/DTD/svg11.dtd">
<svg width="165mm" height="123mm" viewBox="0 0 16500 12300" version="1.1" xmlns="http://www.w3.org/2000/svg" stroke-width="28.222" stroke-linejoin="round" xml:space="preserve">
 <path fill="rgb(255,255,255)" stroke="none" d="M 8256,12341 L 24,12341 24,0 16487,0 16487,12341 8256,12341 Z"/>
 <path fill="none" stroke="rgb(179,179,179)" stroke-linejoin="round" d="M 8231,10559 L 1371,10559 1371,931 15090,931 15090,10559 8231,10559 Z"/>
 <path fill="none" stroke="rgb(179,179,179)" stroke-linejoin="round" d="M 15090,10558 L 1371,10558"/>
 <path fill="none" stroke="rgb(179,179,179)" stroke-linejoin="round" d="M 15090,9595 L 1371,9595"/>
 <path fill="none" stroke="rgb(179,179,179)" stroke-linejoin="round" d="M 15090,8632 L 1371,8632"/>
 <path fill="none" stroke="rgb(179,179,179)" stroke-linejoin="round" d="M 15090,7669 L 1371,7669"/>
 <path fill="none" stroke="rgb(179,179,179)" stroke-linejoin="round" d="M 15090,6706 L 1371,6706"/>
 <path fill="none" stroke="rgb(179,179,179)" stroke-linejoin="round" d="M 15090,5744 L 1371,5744"/>
 <path fill="none" stroke="rgb(179,179,179)" stroke-linejoin="round" d="M 15090,4781 L 1371,4781"/>
 <path fill="none" stroke="rgb(179,179,179)" stroke-linejoin="round" d="M 15090,3818 L 1371,3818"/>
 <path fill="none" stroke="rgb(179,179,179)" stroke-linejoin="round" d="M 15090,2855 L 1371,2855"/>
 <path fill="none" stroke="rgb(179,179,179)" stroke-linejoin="round" d="M 15090,1892 L 1371,1892"/>
 <path fill="none" stroke="rgb(179,179,179)" stroke-linejoin="round" d="M 15090,930 L 1371,930"/>
 <path fill="none" stroke="rgb(0,0,0)" stroke-linejoin="round" d="M 1371,10708 L 1371,10558"/>
 <path fill="none" stroke="rgb(0,0,0)" stroke-linejoin="round" d="M 1371,10708 L 1371,10558"/>
 <path fill="none" stroke="rgb(0,0,0)" stroke-linejoin="round" d="M 1492,10708 L 1492,10558"/>
 <path fill="none" stroke="rgb(0,0,0)" stroke-linejoin="round" d="M 1492,10708 L 1492,10558"/>
 <path fill="none" stroke="rgb(0,0,0)" stroke-linejoin="round" d="M 1613,10708 L 1613,10558"/>
 <path fill="none" stroke="rgb(0,0,0)" stroke-linejoin="round" d="M 1613,10708 L 1613,10558"/>
 <path fill="none" stroke="rgb(0,0,0)" stroke-linejoin="round" d="M 1735,10708 L 1735,10558"/>
 <path fill="none" stroke="rgb(0,0,0)" stroke-linejoin="round" d="M 1735,10708 L 1735,10558"/>
 <path fill="none" stroke="rgb(0,0,0)" stroke-linejoin="round" d="M 1856,10708 L 1856,10558"/>
 <path fill="none" stroke="rgb(0,0,0)" stroke-linejoin="round" d="M 1856,10708 L 1856,10558"/>
 <path fill="none" stroke="rgb(0,0,0)" stroke-linejoin="round" d="M 1978,10708 L 1978,10558"/>
 <path fill="none" stroke="rgb(0,0,0)" stroke-linejoin="round" d="M 1978,10708 L 1978,10558"/>
 <path fill="none" stroke="rgb(0,0,0)" stroke-linejoin="round" d="M 2099,10708 L 2099,10558"/>
 <path fill="none" stroke="rgb(0,0,0)" stroke-linejoin="round" d="M 2099,10708 L 2099,10558"/>
 <path fill="none" stroke="rgb(0,0,0)" stroke-linejoin="round" d="M 2220,10708 L 2220,10558"/>
 <path fill="none" stroke="rgb(0,0,0)" stroke-linejoin="round" d="M 2220,10708 L 2220,10558"/>
 <path fill="none" stroke="rgb(0,0,0)" stroke-linejoin="round" d="M 2342,10708 L 2342,10558"/>
 <path fill="none" stroke="rgb(0,0,0)" stroke-linejoin="round" d="M 2342,10708 L 2342,10558"/>
 <path fill="none" stroke="rgb(0,0,0)" stroke-linejoin="round" d="M 2463,10708 L 2463,10558"/>
 <path fill="none" stroke="rgb(0,0,0)" stroke-linejoin="round" d="M 2463,10708 L 2463,10558"/>
 <path fill="none" stroke="rgb(0,0,0)" stroke-linejoin="round" d="M 2585,10708 L 2585,10558"/>
 <path fill="none" stroke="rgb(0,0,0)" stroke-linejoin="round" d="M 2585,10708 L 2585,10558"/>
 <path fill="none" stroke="rgb(0,0,0)" stroke-linejoin="round" d="M 2706,10708 L 2706,10558"/>
 <path fill="none" stroke="rgb(0,0,0)" stroke-linejoin="round" d="M 2706,10708 L 2706,10558"/>
 <path fill="none" stroke="rgb(0,0,0)" stroke-linejoin="round" d="M 2827,10708 L 2827,10558"/>
 <path fill="none" stroke="rgb(0,0,0)" stroke-linejoin="round" d="M 2827,10708 L 2827,10558"/>
 <path fill="none" stroke="rgb(0,0,0)" stroke-linejoin="round" d="M 2949,10708 L 2949,10558"/>
 <path fill="none" stroke="rgb(0,0,0)" stroke-linejoin="round" d="M 2949,10708 L 2949,10558"/>
 <path fill="none" stroke="rgb(0,0,0)" stroke-linejoin="round" d="M 3070,10708 L 3070,10558"/>
 <path fill="none" stroke="rgb(0,0,0)" stroke-linejoin="round" d="M 3070,10708 L 3070,10558"/>
 <path fill="none" stroke="rgb(0,0,0)" stroke-linejoin="round" d="M 3192,10708 L 3192,10558"/>
 <path fill="none" stroke="rgb(0,0,0)" stroke-linejoin="round" d="M 3192,10708 L 3192,10558"/>
 <path fill="none" stroke="rgb(0,0,0)" stroke-linejoin="round" d="M 3313,10708 L 3313,10558"/>
 <path fill="none" stroke="rgb(0,0,0)" stroke-linejoin="round" d="M 3313,10708 L 3313,10558"/>
 <path fill="none" stroke="rgb(0,0,0)" stroke-linejoin="round" d="M 3435,10708 L 3435,10558"/>
 <path fill="none" stroke="rgb(0,0,0)" stroke-linejoin="round" d="M 3435,10708 L 3435,10558"/>
 <path fill="none" stroke="rgb(0,0,0)" stroke-linejoin="round" d="M 3556,10708 L 3556,10558"/>
 <path fill="none" stroke="rgb(0,0,0)" stroke-linejoin="round" d="M 3556,10708 L 3556,10558"/>
 <path fill="none" stroke="rgb(0,0,0)" stroke-linejoin="round" d="M 3677,10708 L 3677,10558"/>
 <path fill="none" stroke="rgb(0,0,0)" stroke-linejoin="round" d="M 3677,10708 L 3677,10558"/>
 <path fill="none" stroke="rgb(0,0,0)" stroke-linejoin="round" d="M 3799,10708 L 3799,10558"/>
 <path fill="none" stroke="rgb(0,0,0)" stroke-linejoin="round" d="M 3799,10708 L 3799,10558"/>
 <path fill="none" stroke="rgb(0,0,0)" stroke-linejoin="round" d="M 3920,10708 L 3920,10558"/>
 <path fill="none" stroke="rgb(0,0,0)" stroke-linejoin="round" d="M 3920,10708 L 3920,10558"/>
 <path fill="none" stroke="rgb(0,0,0)" stroke-linejoin="round" d="M 4042,10708 L 4042,10558"/>
 <path fill="none" stroke="rgb(0,0,0)" stroke-linejoin="round" d="M 4042,10708 L 4042,10558"/>
 <path fill="none" stroke="rgb(0,0,0)" stroke-linejoin="round" d="M 4163,10708 L 4163,10558"/>
 <path fill="none" stroke="rgb(0,0,0)" stroke-linejoin="round" d="M 4163,10708 L 4163,10558"/>
 <path fill="none" stroke="rgb(0,0,0)" stroke-linejoin="round" d="M 4284,10708 L 4284,10558"/>
 <path fill="none" stroke="rgb(0,0,0)" stroke-linejoin="round" d="M 4284,10708 L 4284,10558"/>
 <path fill="none" stroke="rgb(0,0,0)" stroke-linejoin="round" d="M 4406,10708 L 4406,10558"/>
 <path fill="none" stroke="rgb(0,0,0)" stroke-linejoin="round" d="M 4406,10708 L 4406,10558"/>
 <path fill="none" stroke="rgb(0,0,0)" stroke-linejoin="round" d="M 4527,10708 L 4527,10558"/>
 <path fill="none" stroke="rgb(0,0,0)" stroke-linejoin="round" d="M 4527,10708 L 4527,10558"/>
 <path fill="none" stroke="rgb(0,0,0)" stroke-linejoin="round" d="M 4649,10708 L 4649,10558"/>
 <path fill="none" stroke="rgb(0,0,0)" stroke-linejoin="round" d="M 4649,10708 L 4649,10558"/>
 <path fill="none" stroke="rgb(0,0,0)" stroke-linejoin="round" d="M 4770,10708 L 4770,10558"/>
 <path fill="none" stroke="rgb(0,0,0)" stroke-linejoin="round" d="M 4770,10708 L 4770,10558"/>
 <path fill="none" stroke="rgb(0,0,0)" stroke-linejoin="round" d="M 4892,10708 L 4892,10558"/>
 <path fill="none" stroke="rgb(0,0,0)" stroke-linejoin="round" d="M 4892,10708 L 4892,10558"/>
 <path fill="none" stroke="rgb(0,0,0)" stroke-linejoin="round" d="M 5013,10708 L 5013,10558"/>
 <path fill="none" stroke="rgb(0,0,0)" stroke-linejoin="round" d="M 5013,10708 L 5013,10558"/>
 <path fill="none" stroke="rgb(0,0,0)" stroke-linejoin="round" d="M 5134,10708 L 5134,10558"/>
 <path fill="none" stroke="rgb(0,0,0)" stroke-linejoin="round" d="M 5134,10708 L 5134,10558"/>
 <path fill="none" stroke="rgb(0,0,0)" stroke-linejoin="round" d="M 5256,10708 L 5256,10558"/>
 <path fill="none" stroke="rgb(0,0,0)" stroke-linejoin="round" d="M 5256,10708 L 5256,10558"/>
 <path fill="none" stroke="rgb(0,0,0)" stroke-linejoin="round" d="M 5377,10708 L 5377,10558"/>
 <path fill="none" stroke="rgb(0,0,0)" stroke-linejoin="round" d="M 5377,10708 L 5377,10558"/>
 <path fill="none" stroke="rgb(0,0,0)" stroke-linejoin="round" d="M 5499,10708 L 5499,10558"/>
 <path fill="none" stroke="rgb(0,0,0)" stroke-linejoin="round" d="M 5499,10708 L 5499,10558"/>
 <path fill="none" stroke="rgb(0,0,0)" stroke-linejoin="round" d="M 5620,10708 L 5620,10558"/>
 <path fill="none" stroke="rgb(0,0,0)" stroke-linejoin="round" d="M 5620,10708 L 5620,10558"/>
 <path fill="none" stroke="rgb(0,0,0)" stroke-linejoin="round" d="M 5741,10708 L 5741,10558"/>
 <path fill="none" stroke="rgb(0,0,0)" stroke-linejoin="round" d="M 5741,10708 L 5741,10558"/>
 <path fill="none" stroke="rgb(0,0,0)" stroke-linejoin="round" d="M 5863,10708 L 5863,10558"/>
 <path fill="none" stroke="rgb(0,0,0)" stroke-linejoin="round" d="M 5863,10708 L 5863,10558"/>
 <path fill="none" stroke="rgb(0,0,0)" stroke-linejoin="round" d="M 5984,10708 L 5984,10558"/>
 <path fill="none" stroke="rgb(0,0,0)" stroke-linejoin="round" d="M 5984,10708 L 5984,10558"/>
 <path fill="none" stroke="rgb(0,0,0)" stroke-linejoin="round" d="M 6106,10708 L 6106,10558"/>
 <path fill="none" stroke="rgb(0,0,0)" stroke-linejoin="round" d="M 6106,10708 L 6106,10558"/>
 <path fill="none" stroke="rgb(0,0,0)" stroke-linejoin="round" d="M 6227,10708 L 6227,10558"/>
 <path fill="none" stroke="rgb(0,0,0)" stroke-linejoin="round" d="M 6227,10708 L 6227,10558"/>
 <path fill="none" stroke="rgb(0,0,0)" stroke-linejoin="round" d="M 6349,10708 L 6349,10558"/>
 <path fill="none" stroke="rgb(0,0,0)" stroke-linejoin="round" d="M 6349,10708 L 6349,10558"/>
 <path fill="none" stroke="rgb(0,0,0)" stroke-linejoin="round" d="M 6470,10708 L 6470,10558"/>
 <path fill="none" stroke="rgb(0,0,0)" stroke-linejoin="round" d="M 6470,10708 L 6470,10558"/>
 <path fill="none" stroke="rgb(0,0,0)" stroke-linejoin="round" d="M 6591,10708 L 6591,10558"/>
 <path fill="none" stroke="rgb(0,0,0)" stroke-linejoin="round" d="M 6591,10708 L 6591,10558"/>
 <path fill="none" stroke="rgb(0,0,0)" stroke-linejoin="round" d="M 6713,10708 L 6713,10558"/>
 <path fill="none" stroke="rgb(0,0,0)" stroke-linejoin="round" d="M 6713,10708 L 6713,10558"/>
 <path fill="none" stroke="rgb(0,0,0)" stroke-linejoin="round" d="M 6834,10708 L 6834,10558"/>
 <path fill="none" stroke="rgb(0,0,0)" stroke-linejoin="round" d="M 6834,10708 L 6834,10558"/>
 <path fill="none" stroke="rgb(0,0,0)" stroke-linejoin="round" d="M 6956,10708 L 6956,10558"/>
 <path fill="none" stroke="rgb(0,0,0)" stroke-linejoin="round" d="M 6956,10708 L 6956,10558"/>
 <path fill="none" stroke="rgb(0,0,0)" stroke-linejoin="round" d="M 7077,10708 L 7077,10558"/>
 <path fill="none" stroke="rgb(0,0,0)" stroke-linejoin="round" d="M 7077,10708 L 7077,10558"/>
 <path fill="none" stroke="rgb(0,0,0)" stroke-linejoin="round" d="M 7198,10708 L 7198,10558"/>
 <path fill="none" stroke="rgb(0,0,0)" stroke-linejoin="round" d="M 7198,10708 L 7198,10558"/>
 <path fill="none" stroke="rgb(0,0,0)" stroke-linejoin="round" d="M 7320,10708 L 7320,10558"/>
 <path fill="none" stroke="rgb(0,0,0)" stroke-linejoin="round" d="M 7320,10708 L 7320,10558"/>
 <path fill="none" stroke="rgb(0,0,0)" stroke-linejoin="round" d="M 7441,10708 L 7441,10558"/>
 <path fill="none" stroke="rgb(0,0,0)" stroke-linejoin="round" d="M 7441,10708 L 7441,10558"/>
 <path fill="none" stroke="rgb(0,0,0)" stroke-linejoin="round" d="M 7563,10708 L 7563,10558"/>
 <path fill="none" stroke="rgb(0,0,0)" stroke-linejoin="round" d="M 7563,10708 L 7563,10558"/>
 <path fill="none" stroke="rgb(0,0,0)" stroke-linejoin="round" d="M 7684,10708 L 7684,10558"/>
 <path fill="none" stroke="rgb(0,0,0)" stroke-linejoin="round" d="M 7684,10708 L 7684,10558"/>
 <path fill="none" stroke="rgb(0,0,0)" stroke-linejoin="round" d="M 7806,10708 L 7806,10558"/>
 <path fill="none" stroke="rgb(0,0,0)" stroke-linejoin="round" d="M 7806,10708 L 7806,10558"/>
 <path fill="none" stroke="rgb(0,0,0)" stroke-linejoin="round" d="M 7927,10708 L 7927,10558"/>
 <path fill="none" stroke="rgb(0,0,0)" stroke-linejoin="round" d="M 7927,10708 L 7927,10558"/>
 <path fill="none" stroke="rgb(0,0,0)" stroke-linejoin="round" d="M 8048,10708 L 8048,10558"/>
 <path fill="none" stroke="rgb(0,0,0)" stroke-linejoin="round" d="M 8048,10708 L 8048,10558"/>
 <path fill="none" stroke="rgb(0,0,0)" stroke-linejoin="round" d="M 8170,10708 L 8170,10558"/>
 <path fill="none" stroke="rgb(0,0,0)" stroke-linejoin="round" d="M 8170,10708 L 8170,10558"/>
 <path fill="none" stroke="rgb(0,0,0)" stroke-linejoin="round" d="M 8290,10708 L 8290,10558"/>
 <path fill="none" stroke="rgb(0,0,0)" stroke-linejoin="round" d="M 8290,10708 L 8290,10558"/>
 <path fill="none" stroke="rgb(0,0,0)" stroke-linejoin="round" d="M 8412,10708 L 8412,10558"/>
 <path fill="none" stroke="rgb(0,0,0)" stroke-linejoin="round" d="M 8412,10708 L 8412,10558"/>
 <path fill="none" stroke="rgb(0,0,0)" stroke-linejoin="round" d="M 8533,10708 L 8533,10558"/>
 <path fill="none" stroke="rgb(0,0,0)" stroke-linejoin="round" d="M 8533,10708 L 8533,10558"/>
 <path fill="none" stroke="rgb(0,0,0)" stroke-linejoin="round" d="M 8654,10708 L 8654,10558"/>
 <path fill="none" stroke="rgb(0,0,0)" stroke-linejoin="round" d="M 8654,10708 L 8654,10558"/>
 <path fill="none" stroke="rgb(0,0,0)" stroke-linejoin="round" d="M 8776,10708 L 8776,10558"/>
 <path fill="none" stroke="rgb(0,0,0)" stroke-linejoin="round" d="M 8776,10708 L 8776,10558"/>
 <path fill="none" stroke="rgb(0,0,0)" stroke-linejoin="round" d="M 8897,10708 L 8897,10558"/>
 <path fill="none" stroke="rgb(0,0,0)" stroke-linejoin="round" d="M 8897,10708 L 8897,10558"/>
 <path fill="none" stroke="rgb(0,0,0)" stroke-linejoin="round" d="M 9019,10708 L 9019,10558"/>
 <path fill="none" stroke="rgb(0,0,0)" stroke-linejoin="round" d="M 9019,10708 L 9019,10558"/>
 <path fill="none" stroke="rgb(0,0,0)" stroke-linejoin="round" d="M 9140,10708 L 9140,10558"/>
 <path fill="none" stroke="rgb(0,0,0)" stroke-linejoin="round" d="M 9140,10708 L 9140,10558"/>
 <path fill="none" stroke="rgb(0,0,0)" stroke-linejoin="round" d="M 9262,10708 L 9262,10558"/>
 <path fill="none" stroke="rgb(0,0,0)" stroke-linejoin="round" d="M 9262,10708 L 9262,10558"/>
 <path fill="none" stroke="rgb(0,0,0)" stroke-linejoin="round" d="M 9383,10708 L 9383,10558"/>
 <path fill="none" stroke="rgb(0,0,0)" stroke-linejoin="round" d="M 9383,10708 L 9383,10558"/>
 <path fill="none" stroke="rgb(0,0,0)" stroke-linejoin="round" d="M 9504,10708 L 9504,10558"/>
 <path fill="none" stroke="rgb(0,0,0)" stroke-linejoin="round" d="M 9504,10708 L 9504,10558"/>
 <path fill="none" stroke="rgb(0,0,0)" stroke-linejoin="round" d="M 9626,10708 L 9626,10558"/>
 <path fill="none" stroke="rgb(0,0,0)" stroke-linejoin="round" d="M 9626,10708 L 9626,10558"/>
 <path fill="none" stroke="rgb(0,0,0)" stroke-linejoin="round" d="M 9747,10708 L 9747,10558"/>
 <path fill="none" stroke="rgb(0,0,0)" stroke-linejoin="round" d="M 9747,10708 L 9747,10558"/>
 <path fill="none" stroke="rgb(0,0,0)" stroke-linejoin="round" d="M 9869,10708 L 9869,10558"/>
 <path fill="none" stroke="rgb(0,0,0)" stroke-linejoin="round" d="M 9869,10708 L 9869,10558"/>
 <path fill="none" stroke="rgb(0,0,0)" stroke-linejoin="round" d="M 9990,10708 L 9990,10558"/>
 <path fill="none" stroke="rgb(0,0,0)" stroke-linejoin="round" d="M 9990,10708 L 9990,10558"/>
 <path fill="none" stroke="rgb(0,0,0)" stroke-linejoin="round" d="M 10111,10708 L 10111,10558"/>
 <path fill="none" stroke="rgb(0,0,0)" stroke-linejoin="round" d="M 10111,10708 L 10111,10558"/>
 <path fill="none" stroke="rgb(0,0,0)" stroke-linejoin="round" d="M 10233,10708 L 10233,10558"/>
 <path fill="none" stroke="rgb(0,0,0)" stroke-linejoin="round" d="M 10233,10708 L 10233,10558"/>
 <path fill="none" stroke="rgb(0,0,0)" stroke-linejoin="round" d="M 10354,10708 L 10354,10558"/>
 <path fill="none" stroke="rgb(0,0,0)" stroke-linejoin="round" d="M 10354,10708 L 10354,10558"/>
 <path fill="none" stroke="rgb(0,0,0)" stroke-linejoin="round" d="M 10476,10708 L 10476,10558"/>
 <path fill="none" stroke="rgb(0,0,0)" stroke-linejoin="round" d="M 10476,10708 L 10476,10558"/>
 <path fill="none" stroke="rgb(0,0,0)" stroke-linejoin="round" d="M 10597,10708 L 10597,10558"/>
 <path fill="none" stroke="rgb(0,0,0)" stroke-linejoin="round" d="M 10597,10708 L 10597,10558"/>
 <path fill="none" stroke="rgb(0,0,0)" stroke-linejoin="round" d="M 10719,10708 L 10719,10558"/>
 <path fill="none" stroke="rgb(0,0,0)" stroke-linejoin="round" d="M 10719,10708 L 10719,10558"/>
 <path fill="none" stroke="rgb(0,0,0)" stroke-linejoin="round" d="M 10840,10708 L 10840,10558"/>
 <path fill="none" stroke="rgb(0,0,0)" stroke-linejoin="round" d="M 10840,10708 L 10840,10558"/>
 <path fill="none" stroke="rgb(0,0,0)" stroke-linejoin="round" d="M 10961,10708 L 10961,10558"/>
 <path fill="none" stroke="rgb(0,0,0)" stroke-linejoin="round" d="M 10961,10708 L 10961,10558"/>
 <path fill="none" stroke="rgb(0,0,0)" stroke-linejoin="round" d="M 11083,10708 L 11083,10558"/>
 <path fill="none" stroke="rgb(0,0,0)" stroke-linejoin="round" d="M 11083,10708 L 11083,10558"/>
 <path fill="none" stroke="rgb(0,0,0)" stroke-linejoin="round" d="M 11204,10708 L 11204,10558"/>
 <path fill="none" stroke="rgb(0,0,0)" stroke-linejoin="round" d="M 11204,10708 L 11204,10558"/>
 <path fill="none" stroke="rgb(0,0,0)" stroke-linejoin="round" d="M 11326,10708 L 11326,10558"/>
 <path fill="none" stroke="rgb(0,0,0)" stroke-linejoin="round" d="M 11326,10708 L 11326,10558"/>
 <path fill="none" stroke="rgb(0,0,0)" stroke-linejoin="round" d="M 11447,10708 L 11447,10558"/>
 <path fill="none" stroke="rgb(0,0,0)" stroke-linejoin="round" d="M 11447,10708 L 11447,10558"/>
 <path fill="none" stroke="rgb(0,0,0)" stroke-linejoin="round" d="M 11568,10708 L 11568,10558"/>
 <path fill="none" stroke="rgb(0,0,0)" stroke-linejoin="round" d="M 11568,10708 L 11568,10558"/>
 <path fill="none" stroke="rgb(0,0,0)" stroke-linejoin="round" d="M 11690,10708 L 11690,10558"/>
 <path fill="none" stroke="rgb(0,0,0)" stroke-linejoin="round" d="M 11690,10708 L 11690,10558"/>
 <path fill="none" stroke="rgb(0,0,0)" stroke-linejoin="round" d="M 11811,10708 L 11811,10558"/>
 <path fill="none" stroke="rgb(0,0,0)" stroke-linejoin="round" d="M 11811,10708 L 11811,10558"/>
 <path fill="none" stroke="rgb(0,0,0)" stroke-linejoin="round" d="M 11933,10708 L 11933,10558"/>
 <path fill="none" stroke="rgb(0,0,0)" stroke-linejoin="round" d="M 11933,10708 L 11933,10558"/>
 <path fill="none" stroke="rgb(0,0,0)" stroke-linejoin="round" d="M 12054,10708 L 12054,10558"/>
 <path fill="none" stroke="rgb(0,0,0)" stroke-linejoin="round" d="M 12054,10708 L 12054,10558"/>
 <path fill="none" stroke="rgb(0,0,0)" stroke-linejoin="round" d="M 12176,10708 L 12176,10558"/>
 <path fill="none" stroke="rgb(0,0,0)" stroke-linejoin="round" d="M 12176,10708 L 12176,10558"/>
 <path fill="none" stroke="rgb(0,0,0)" stroke-linejoin="round" d="M 12297,10708 L 12297,10558"/>
 <path fill="none" stroke="rgb(0,0,0)" stroke-linejoin="round" d="M 12297,10708 L 12297,10558"/>
 <path fill="none" stroke="rgb(0,0,0)" stroke-linejoin="round" d="M 12418,10708 L 12418,10558"/>
 <path fill="none" stroke="rgb(0,0,0)" stroke-linejoin="round" d="M 12418,10708 L 12418,10558"/>
 <path fill="none" stroke="rgb(0,0,0)" stroke-linejoin="round" d="M 12540,10708 L 12540,10558"/>
 <path fill="none" stroke="rgb(0,0,0)" stroke-linejoin="round" d="M 12540,10708 L 12540,10558"/>
 <path fill="none" stroke="rgb(0,0,0)" stroke-linejoin="round" d="M 12661,10708 L 12661,10558"/>
 <path fill="none" stroke="rgb(0,0,0)" stroke-linejoin="round" d="M 12661,10708 L 12661,10558"/>
 <path fill="none" stroke="rgb(0,0,0)" stroke-linejoin="round" d="M 12783,10708 L 12783,10558"/>
 <path fill="none" stroke="rgb(0,0,0)" stroke-linejoin="round" d="M 12783,10708 L 12783,10558"/>
 <path fill="none" stroke="rgb(0,0,0)" stroke-linejoin="round" d="M 12904,10708 L 12904,10558"/>
 <path fill="none" stroke="rgb(0,0,0)" stroke-linejoin="round" d="M 12904,10708 L 12904,10558"/>
 <path fill="none" stroke="rgb(0,0,0)" stroke-linejoin="round" d="M 13025,10708 L 13025,10558"/>
 <path fill="none" stroke="rgb(0,0,0)" stroke-linejoin="round" d="M 13025,10708 L 13025,10558"/>
 <path fill="none" stroke="rgb(0,0,0)" stroke-linejoin="round" d="M 13147,10708 L 13147,10558"/>
 <path fill="none" stroke="rgb(0,0,0)" stroke-linejoin="round" d="M 13147,10708 L 13147,10558"/>
 <path fill="none" stroke="rgb(0,0,0)" stroke-linejoin="round" d="M 13268,10708 L 13268,10558"/>
 <path fill="none" stroke="rgb(0,0,0)" stroke-linejoin="round" d="M 13268,10708 L 13268,10558"/>
 <path fill="none" stroke="rgb(0,0,0)" stroke-linejoin="round" d="M 13390,10708 L 13390,10558"/>
 <path fill="none" stroke="rgb(0,0,0)" stroke-linejoin="round" d="M 13390,10708 L 13390,10558"/>
 <path fill="none" stroke="rgb(0,0,0)" stroke-linejoin="round" d="M 13511,10708 L 13511,10558"/>
 <path fill="none" stroke="rgb(0,0,0)" stroke-linejoin="round" d="M 13511,10708 L 13511,10558"/>
 <path fill="none" stroke="rgb(0,0,0)" stroke-linejoin="round" d="M 13633,10708 L 13633,10558"/>
 <path fill="none" stroke="rgb(0,0,0)" stroke-linejoin="round" d="M 13633,10708 L 13633,10558"/>
 <path fill="none" stroke="rgb(0,0,0)" stroke-linejoin="round" d="M 13754,10708 L 13754,10558"/>
 <path fill="none" stroke="rgb(0,0,0)" stroke-linejoin="round" d="M 13754,10708 L 13754,10558"/>
 <path fill="none" stroke="rgb(0,0,0)" stroke-linejoin="round" d="M 13875,10708 L 13875,10558"/>
 <path fill="none" stroke="rgb(0,0,0)" stroke-linejoin="round" d="M 13875,10708 L 13875,10558"/>
 <path fill="none" stroke="rgb(0,0,0)" stroke-linejoin="round" d="M 13997,10708 L 13997,10558"/>
 <path fill="none" stroke="rgb(0,0,0)" stroke-linejoin="round" d="M 13997,10708 L 13997,10558"/>
 <path fill="none" stroke="rgb(0,0,0)" stroke-linejoin="round" d="M 14118,10708 L 14118,10558"/>
 <path fill="none" stroke="rgb(0,0,0)" stroke-linejoin="round" d="M 14118,10708 L 14118,10558"/>
 <path fill="none" stroke="rgb(0,0,0)" stroke-linejoin="round" d="M 14240,10708 L 14240,10558"/>
 <path fill="none" stroke="rgb(0,0,0)" stroke-linejoin="round" d="M 14240,10708 L 14240,10558"/>
 <path fill="none" stroke="rgb(0,0,0)" stroke-linejoin="round" d="M 14361,10708 L 14361,10558"/>
 <path fill="none" stroke="rgb(0,0,0)" stroke-linejoin="round" d="M 14361,10708 L 14361,10558"/>
 <path fill="none" stroke="rgb(0,0,0)" stroke-linejoin="round" d="M 14482,10708 L 14482,10558"/>
 <path fill="none" stroke="rgb(0,0,0)" stroke-linejoin="round" d="M 14482,10708 L 14482,10558"/>
 <path fill="none" stroke="rgb(0,0,0)" stroke-linejoin="round" d="M 14604,10708 L 14604,10558"/>
 <path fill="none" stroke="rgb(0,0,0)" stroke-linejoin="round" d="M 14604,10708 L 14604,10558"/>
 <path fill="none" stroke="rgb(0,0,0)" stroke-linejoin="round" d="M 14725,10708 L 14725,10558"/>
 <path fill="none" stroke="rgb(0,0,0)" stroke-linejoin="round" d="M 14725,10708 L 14725,10558"/>
 <path fill="none" stroke="rgb(0,0,0)" stroke-linejoin="round" d="M 14847,10708 L 14847,10558"/>
 <path fill="none" stroke="rgb(0,0,0)" stroke-linejoin="round" d="M 14847,10708 L 14847,10558"/>
 <path fill="none" stroke="rgb(0,0,0)" stroke-linejoin="round" d="M 14968,10708 L 14968,10558"/>
 <path fill="none" stroke="rgb(0,0,0)" stroke-linejoin="round" d="M 14968,10708 L 14968,10558"/>
 <path fill="none" stroke="rgb(0,0,0)" stroke-linejoin="round" d="M 15090,10708 L 15090,10558"/>
 <path fill="none" stroke="rgb(0,0,0)" stroke-linejoin="round" d="M 15090,10708 L 15090,10558"/>
 <path fill="none" stroke="rgb(0,0,0)" stroke-linejoin="round" d="M 1371,10558 L 15090,10558"/>
 <path fill="none" stroke="rgb(0,0,0)" stroke-linejoin="round" d="M 1221,10558 L 1371,10558"/>
 <path fill="none" stroke="rgb(0,0,0)" stroke-linejoin="round" d="M 1221,10558 L 1371,10558"/>
 <path fill="none" stroke="rgb(0,0,0)" stroke-linejoin="round" d="M 1221,9595 L 1371,9595"/>
 <path fill="none" stroke="rgb(0,0,0)" stroke-linejoin="round" d="M 1221,9595 L 1371,9595"/>
 <path fill="none" stroke="rgb(0,0,0)" stroke-linejoin="round" d="M 1221,8632 L 1371,8632"/>
 <path fill="none" stroke="rgb(0,0,0)" stroke-linejoin="round" d="M 1221,8632 L 1371,8632"/>
 <path fill="none" stroke="rgb(0,0,0)" stroke-linejoin="round" d="M 1221,7669 L 1371,7669"/>
 <path fill="none" stroke="rgb(0,0,0)" stroke-linejoin="round" d="M 1221,7669 L 1371,7669"/>
 <path fill="none" stroke="rgb(0,0,0)" stroke-linejoin="round" d="M 1221,6706 L 1371,6706"/>
 <path fill="none" stroke="rgb(0,0,0)" stroke-linejoin="round" d="M 1221,6706 L 1371,6706"/>
 <path fill="none" stroke="rgb(0,0,0)" stroke-linejoin="round" d="M 1221,5744 L 1371,5744"/>
 <path fill="none" stroke="rgb(0,0,0)" stroke-linejoin="round" d="M 1221,5744 L 1371,5744"/>
 <path fill="none" stroke="rgb(0,0,0)" stroke-linejoin="round" d="M 1221,4781 L 1371,4781"/>
 <path fill="none" stroke="rgb(0,0,0)" stroke-linejoin="round" d="M 1221,4781 L 1371,4781"/>
 <path fill="none" stroke="rgb(0,0,0)" stroke-linejoin="round" d="M 1221,3818 L 1371,3818"/>
 <path fill="none" stroke="rgb(0,0,0)" stroke-linejoin="round" d="M 1221,3818 L 1371,3818"/>
 <path fill="none" stroke="rgb(0,0,0)" stroke-linejoin="round" d="M 1221,2855 L 1371,2855"/>
 <path fill="none" stroke="rgb(0,0,0)" stroke-linejoin="round" d="M 1221,2855 L 1371,2855"/>
 <path fill="none" stroke="rgb(0,0,0)" stroke-linejoin="round" d="M 1221,1892 L 1371,1892"/>
 <path fill="none" stroke="rgb(0,0,0)" stroke-linejoin="round" d="M 1221,1892 L 1371,1892"/>
 <path fill="none" stroke="rgb(0,0,0)" stroke-linejoin="round" d="M 1221,930 L 1371,930"/>
 <path fill="none" stroke="rgb(0,0,0)" stroke-linejoin="round" d="M 1221,930 L 1371,930"/>
 <path fill="none" stroke="rgb(0,0,0)" stroke-linejoin="round" d="M 1371,10558 L 1371,930"/>
 <path fill="none" stroke="rgb(0,0,0)" stroke-linejoin="round" d="M 15240,10558 L 15090,10558"/>
 <path fill="none" stroke="rgb(0,0,0)" stroke-linejoin="round" d="M 15240,10558 L 15090,10558"/>
 <path fill="none" stroke="rgb(0,0,0)" stroke-linejoin="round" d="M 15240,9595 L 15090,9595"/>
 <path fill="none" stroke="rgb(0,0,0)" stroke-linejoin="round" d="M 15240,9595 L 15090,9595"/>
 <path fill="none" stroke="rgb(0,0,0)" stroke-linejoin="round" d="M 15240,8632 L 15090,8632"/>
 <path fill="none" stroke="rgb(0,0,0)" stroke-linejoin="round" d="M 15240,8632 L 15090,8632"/>
 <path fill="none" stroke="rgb(0,0,0)" stroke-linejoin="round" d="M 15240,7669 L 15090,7669"/>
 <path fill="none" stroke="rgb(0,0,0)" stroke-linejoin="round" d="M 15240,7669 L 15090,7669"/>
 <path fill="none" stroke="rgb(0,0,0)" stroke-linejoin="round" d="M 15240,6706 L 15090,6706"/>
 <path fill="none" stroke="rgb(0,0,0)" stroke-linejoin="round" d="M 15240,6706 L 15090,6706"/>
 <path fill="none" stroke="rgb(0,0,0)" stroke-linejoin="round" d="M 15240,5744 L 15090,5744"/>
 <path fill="none" stroke="rgb(0,0,0)" stroke-linejoin="round" d="M 15240,5744 L 15090,5744"/>
 <path fill="none" stroke="rgb(0,0,0)" stroke-linejoin="round" d="M 15240,4781 L 15090,4781"/>
 <path fill="none" stroke="rgb(0,0,0)" stroke-linejoin="round" d="M 15240,4781 L 15090,4781"/>
 <path fill="none" stroke="rgb(0,0,0)" stroke-linejoin="round" d="M 15240,3818 L 15090,3818"/>
 <path fill="none" stroke="rgb(0,0,0)" stroke-linejoin="round" d="M 15240,3818 L 15090,3818"/>
 <path fill="none" stroke="rgb(0,0,0)" stroke-linejoin="round" d="M 15240,2855 L 15090,2855"/>
 <path fill="none" stroke="rgb(0,0,0)" stroke-linejoin="round" d="M 15240,2855 L 15090,2855"/>
 <path fill="none" stroke="rgb(0,0,0)" stroke-linejoin="round" d="M 15240,1892 L 15090,1892"/>
 <path fill="none" stroke="rgb(0,0,0)" stroke-linejoin="round" d="M 15240,1892 L 15090,1892"/>
 <path fill="none" stroke="rgb(0,0,0)" stroke-linejoin="round" d="M 15240,930 L 15090,930"/>
 <path fill="none" stroke="rgb(0,0,0)" stroke-linejoin="round" d="M 15240,930 L 15090,930"/>
 <path fill="none" stroke="rgb(0,0,0)" stroke-linejoin="round" d="M 15090,10558 L 15090,930"/>
 <path fill="rgb(0,69,134)" stroke="none" d="M 1371,10435 L 1492,10447 1613,10457 1735,10467 1856,10468 1978,10438 2099,10470 2220,10491 2342,10498 2463,10502 2585,10506 2706,10510 2827,10558 2949,10558 3070,10558 3192,10558 3313,10558 3435,10558 3556,10558 3677,10558 3799,10558 3920,10558 4042,10558 4163,10558 4284,10558 4406,10558 4527,10558 4649,10558 4770,10558 4892,10558 5013,10558 5134,10558 5256,10558 5377,10558 5499,10558 5620,10558 5741,10558 5863,10558 5984,10558 6106,10558 6227,10558 6349,10558 6470,10558 6591,10558 6713,10558 6834,10558 6956,10558 7077,10558 7198,10558 7320,10558 7441,10558 7563,10558 7684,10558 7806,10558 7927,10558 8048,10558 8170,10558 8290,10558 8412,10558 8533,10558 8654,10558 8776,10558 8897,10558 9019,10558 9140,10558 9262,10558 9383,10558 9504,10558 9626,10558 9747,10558 9869,10558 9990,10558 10111,10558 10233,10558 10354,10558 10476,10558 10597,10558 10719,10558 10840,10558 10961,10558 11083,10558 11204,10558 11326,10558 11447,10558 11568,10558 11690,10558 11811,10558 11933,10558 12054,10558 12176,10558 12297,10558 12418,10558 12540,10558 12661,10558 12783,10558 12904,10558 13025,10558 13147,10558 13268,10558 13390,10558 13511,10558 13633,10558 13754,10558 13875,10558 13997,10558 14118,10558 14240,10558 14361,10558 14482,10558 14604,10558 14725,10558 14847,10558 14968,10558 15090,10558 15090,10558 1371,10558 1371,10435 Z"/>
 <path fill="none" stroke="rgb(0,0,0)" stroke-linejoin="round" d="M 1371,10435 L 1492,10447 1613,10457 1735,10467 1856,10468 1978,10438 2099,10470 2220,10491 2342,10498 2463,10502 2585,10506 2706,10510 2827,10558 2949,10558 3070,10558 3192,10558 3313,10558 3435,10558 3556,10558 3677,10558 3799,10558 3920,10558 4042,10558 4163,10558 4284,10558 4406,10558 4527,10558 4649,10558 4770,10558 4892,10558 5013,10558 5134,10558 5256,10558 5377,10558 5499,10558 5620,10558 5741,10558 5863,10558 5984,10558 6106,10558 6227,10558 6349,10558 6470,10558 6591,10558 6713,10558 6834,10558 6956,10558 7077,10558 7198,10558 7320,10558 7441,10558 7563,10558 7684,10558 7806,10558 7927,10558 8048,10558 8170,10558 8290,10558 8412,10558 8533,10558 8654,10558 8776,10558 8897,10558 9019,10558 9140,10558 9262,10558 9383,10558 9504,10558 9626,10558 9747,10558 9869,10558 9990,10558 10111,10558 10233,10558 10354,10558 10476,10558 10597,10558 10719,10558 10840,10558 10961,10558 11083,10558 11204,10558 11326,10558 11447,10558 11568,10558 11690,10558 11811,10558 11933,10558 12054,10558 12176,10558 12297,10558 12418,10558 12540,10558 12661,10558 12783,10558 12904,10558 13025,10558 13147,10558 13268,10558 13390,10558 13511,10558 13633,10558 13754,10558 13875,10558 13997,10558 14118,10558 14240,10558 14361,10558 14482,10558 14604,10558 14725,10558 14847,10558 14968,10558 15090,10558 15090,10558 1371,10558 1371,10435 Z"/>
 <path fill="rgb(51,153,102)" stroke="none" d="M 1371,10069 L 1492,10124 1613,10109 1735,10136 1856,10142 1978,10112 2099,10159 2220,10213 2342,10230 2463,10249 2585,10214 2706,10269 2827,10317 2949,10369 3070,10404 3192,10408 3313,10415 3435,10424 3556,10435 3677,10443 3799,10452 3920,10457 4042,10466 4163,10473 4284,10482 4406,10488 4527,10491 4649,10454 4770,10483 4892,10493 5013,10496 5134,10504 5256,10504 5377,10509 5499,10507 5620,10485 5741,10506 5863,10506 5984,10519 6106,10514 6227,10518 6349,10525 6470,10518 6591,10513 6713,10497 6834,10525 6956,10558 7077,10558 7198,10558 7320,10558 7441,10558 7563,10558 7684,10558 7806,10558 7927,10558 8048,10558 8170,10558 8290,10558 8412,10558 8533,10558 8654,10558 8776,10558 8897,10558 9019,10558 9140,10558 9262,10558 9383,10558 9504,10558 9626,10558 9747,10558 9869,10558 9990,10558 10111,10558 10233,10558 10354,10558 10476,10558 10597,10558 10719,10558 10840,10558 10961,10558 11083,10558 11204,10558 11326,10558 11447,10558 11568,10558 11690,10558 11811,10558 11933,10558 12054,10558 12176,10558 12297,10558 12418,10558 12540,10558 12661,10558 12783,10558 12904,10558 13025,10558 13147,10558 13268,10558 13390,10558 13511,10558 13633,10558 13754,10558 13875,10558 13997,10558 14118,10558 14240,10558 14361,10558 14482,10558 14604,10558 14725,10558 14847,10558 14968,10558 15090,10558 15090,10558 14968,10558 14847,10558 14725,10558 14604,10558 14482,10558 14361,10558 14240,10558 14118,10558 13997,10558 13875,10558 13754,10558 13633,10558 13511,10558 13390,10558 13268,10558 13147,10558 13025,10558 12904,10558 12783,10558 12661,10558 12540,10558 12418,10558 12297,10558 12176,10558 12054,10558 11933,10558 11811,10558 11690,10558 11568,10558 11447,10558 11326,10558 11204,10558 11083,10558 10961,10558 10840,10558 10719,10558 10597,10558 10476,10558 10354,10558 10233,10558 10111,10558 9990,10558 9869,10558 9747,10558 9626,10558 9504,10558 9383,10558 9262,10558 9140,10558 9019,10558 8897,10558 8776,10558 8654,10558 8533,10558 8412,10558 8290,10558 8170,10558 8048,10558 7927,10558 7806,10558 7684,10558 7563,10558 7441,10558 7320,10558 7198,10558 7077,10558 6956,10558 6834,10558 6713,10558 6591,10558 6470,10558 6349,10558 6227,10558 6106,10558 5984,10558 5863,10558 5741,10558 5620,10558 5499,10558 5377,10558 5256,10558 5134,10558 5013,10558 4892,10558 4770,10558 4649,10558 4527,10558 4406,10558 4284,10558 4163,10558 4042,10558 3920,10558 3799,10558 3677,10558 3556,10558 3435,10558 3313,10558 3192,10558 3070,10558 2949,10558 2827,10558 2706,10510 2585,10506 2463,10502 2342,10498 2220,10491 2099,10470 1978,10438 1856,10468 1735,10467 1613,10457 1492,10447 1371,10435 1371,10069 Z"/>
 <path fill="none" stroke="rgb(0,0,0)" stroke-linejoin="round" d="M 1371,10069 L 1492,10124 1613,10109 1735,10136 1856,10142 1978,10112 2099,10159 2220,10213 2342,10230 2463,10249 2585,10214 2706,10269 2827,10317 2949,10369 3070,10404 3192,10408 3313,10415 3435,10424 3556,10435 3677,10443 3799,10452 3920,10457 4042,10466 4163,10473 4284,10482 4406,10488 4527,10491 4649,10454 4770,10483 4892,10493 5013,10496 5134,10504 5256,10504 5377,10509 5499,10507 5620,10485 5741,10506 5863,10506 5984,10519 6106,10514 6227,10518 6349,10525 6470,10518 6591,10513 6713,10497 6834,10525 6956,10558 7077,10558 7198,10558 7320,10558 7441,10558 7563,10558 7684,10558 7806,10558 7927,10558 8048,10558 8170,10558 8290,10558 8412,10558 8533,10558 8654,10558 8776,10558 8897,10558 9019,10558 9140,10558 9262,10558 9383,10558 9504,10558 9626,10558 9747,10558 9869,10558 9990,10558 10111,10558 10233,10558 10354,10558 10476,10558 10597,10558 10719,10558 10840,10558 10961,10558 11083,10558 11204,10558 11326,10558 11447,10558 11568,10558 11690,10558 11811,10558 11933,10558 12054,10558 12176,10558 12297,10558 12418,10558 12540,10558 12661,10558 12783,10558 12904,10558 13025,10558 13147,10558 13268,10558 13390,10558 13511,10558 13633,10558 13754,10558 13875,10558 13997,10558 14118,10558 14240,10558 14361,10558 14482,10558 14604,10558 14725,10558 14847,10558 14968,10558 15090,10558 15090,10558 14968,10558 14847,10558 14725,10558 14604,10558 14482,10558 14361,10558 14240,10558 14118,10558 13997,10558 13875,10558 13754,10558 13633,10558 13511,10558 13390,10558 13268,10558 13147,10558 13025,10558 12904,10558 12783,10558 12661,10558 12540,10558 12418,10558 12297,10558 12176,10558 12054,10558 11933,10558 11811,10558 11690,10558 11568,10558 11447,10558 11326,10558 11204,10558 11083,10558 10961,10558 10840,10558 10719,10558 10597,10558 10476,10558 10354,10558 10233,10558 10111,10558 9990,10558 9869,10558 9747,10558 9626,10558 9504,10558 9383,10558 9262,10558 9140,10558 9019,10558 8897,10558 8776,10558 8654,10558 8533,10558 8412,10558 8290,10558 8170,10558 8048,10558 7927,10558 7806,10558 7684,10558 7563,10558 7441,10558 7320,10558 7198,10558 7077,10558 6956,10558 6834,10558 6713,10558 6591,10558 6470,10558 6349,10558 6227,10558 6106,10558 5984,10558 5863,10558 5741,10558 5620,10558 5499,10558 5377,10558 5256,10558 5134,10558 5013,10558 4892,10558 4770,10558 4649,10558 4527,10558 4406,10558 4284,10558 4163,10558 4042,10558 3920,10558 3799,10558 3677,10558 3556,10558 3435,10558 3313,10558 3192,10558 3070,10558 2949,10558 2827,10558 2706,10510 2585,10506 2463,10502 2342,10498 2220,10491 2099,10470 1978,10438 1856,10468 1735,10467 1613,10457 1492,10447 1371,10435 1371,10069 Z"/>
 <path fill="rgb(131,202,255)" stroke="none" d="M 1371,2020 L 1492,2149 1613,2140 1735,2205 1856,2278 1978,2275 2099,2388 2220,2482 2342,2517 2463,2592 2585,2651 2706,2728 2827,2886 2949,2991 3070,3101 3192,3122 3313,3192 3435,3254 3556,3338 3677,3355 3799,3430 3920,3546 4042,3581 4163,3687 4284,3836 4406,3960 4527,4107 4649,4148 4770,4278 4892,4391 5013,4476 5134,4493 5256,4547 5377,4647 5499,4728 5620,4798 5741,4933 5863,5046 5984,5199 6106,5211 6227,5282 6349,5405 6470,5472 6591,5591 6713,5713 6834,5818 6956,6005 7077,6202 7198,6184 7320,6437 7441,6430 7563,6515 7684,6384 7806,6456 7927,6586 8048,6713 8170,6813 8290,6851 8412,6954 8533,7058 8654,7135 8776,7217 8897,7219 9019,7323 9140,7292 9262,7290 9383,7349 9504,7408 9626,7443 9747,7775 9869,7892 9990,7938 10111,7967 10233,8158 10354,8187 10476,8208 10597,8321 10719,8458 10840,8571 10961,8552 11083,8612 11204,8677 11326,8638 11447,9189 11568,9484 11690,9099 11811,9115 11933,9066 12054,9242 12176,9374 12297,9425 12418,9640 12540,9669 12661,9624 12783,9657 12904,9708 13025,9769 13147,9769 13268,9751 13390,9764 13511,9821 13633,9928 13754,9897 13875,9879 13997,9842 14118,9920 14240,9969 14361,9998 14482,9975 14604,9965 14725,9953 14847,10012 14968,10109 15090,10128 15090,10558 14968,10558 14847,10558 14725,10558 14604,10558 14482,10558 14361,10558 14240,10558 14118,10558 13997,10558 13875,10558 13754,10558 13633,10558 13511,10558 13390,10558 13268,10558 13147,10558 13025,10558 12904,10558 12783,10558 12661,10558 12540,10558 12418,10558 12297,10558 12176,10558 12054,10558 11933,10558 11811,10558 11690,10558 11568,10558 11447,10558 11326,10558 11204,10558 11083,10558 10961,10558 10840,10558 10719,10558 10597,10558 10476,10558 10354,10558 10233,10558 10111,10558 9990,10558 9869,10558 9747,10558 9626,10558 9504,10558 9383,10558 9262,10558 9140,10558 9019,10558 8897,10558 8776,10558 8654,10558 8533,10558 8412,10558 8290,10558 8170,10558 8048,10558 7927,10558 7806,10558 7684,10558 7563,10558 7441,10558 7320,10558 7198,10558 7077,10558 6956,10558 6834,10525 6713,10497 6591,10513 6470,10518 6349,10525 6227,10518 6106,10514 5984,10519 5863,10506 5741,10506 5620,10485 5499,10507 5377,10509 5256,10504 5134,10504 5013,10496 4892,10493 4770,10483 4649,10454 4527,10491 4406,10488 4284,10482 4163,10473 4042,10466 3920,10457 3799,10452 3677,10443 3556,10435 3435,10424 3313,10415 3192,10408 3070,10404 2949,10369 2827,10317 2706,10269 2585,10214 2463,10249 2342,10230 2220,10213 2099,10159 1978,10112 1856,10142 1735,10136 1613,10109 1492,10124 1371,10069 1371,2020 Z"/>
 <path fill="rgb(0,204,255)" stroke="none" d="M 1371,1345 L 1492,1370 1613,1386 1735,1390 1856,1399 1978,1371 2099,1413 2220,1407 2342,1394 2463,1398 2585,1422 2706,1420 2827,1511 2949,1556 3070,1587 3192,1587 3313,1609 3435,1617 3556,1666 3677,1662 3799,1707 3920,1735 4042,1788 4163,1874 4284,2046 4406,2239 4527,2433 4649,2559 4770,2736 4892,2886 5013,3006 5134,3080 5256,3166 5377,3299 5499,3443 5620,3558 5741,3718 5863,3880 5984,4076 6106,4150 6227,4265 6349,4421 6470,4516 6591,4674 6713,4821 6834,4975 6956,5185 7077,5401 7198,5427 7320,5690 7441,5712 7563,5795 7684,5704 7806,5805 7927,5978 8048,6122 8170,6236 8290,6315 8412,6425 8533,6559 8654,6645 8776,6732 8897,6777 9019,6894 9140,6872 9262,6885 9383,6966 9504,7017 9626,7088 9747,7435 9869,7554 9990,7634 10111,7670 10233,7859 10354,7920 10476,7961 10597,8079 10719,8227 10840,8344 10961,8319 11083,8373 11204,8439 11326,8391 11447,8965 11568,9275 11690,8869 11811,8930 11933,8902 12054,9089 12176,9229 12297,9269 12418,9516 12540,9530 12661,9484 12783,9529 12904,9581 13025,9649 13147,9651 13268,9632 13390,9647 13511,9726 13633,9840 13754,9809 13875,9795 13997,9758 14118,9849 14240,9898 14361,9923 14482,9901 14604,9896 14725,9898 14847,9962 14968,10065 15090,10086 15090,10128 14968,10109 14847,10012 14725,9953 14604,9965 14482,9975 14361,9998 14240,9969 14118,9920 13997,9842 13875,9879 13754,9897 13633,9928 13511,9821 13390,9764 13268,9751 13147,9769 13025,9769 12904,9708 12783,9657 12661,9624 12540,9669 12418,9640 12297,9425 12176,9374 12054,9242 11933,9066 11811,9115 11690,9099 11568,9484 11447,9189 11326,8638 11204,8677 11083,8612 10961,8552 10840,8571 10719,8458 10597,8321 10476,8208 10354,8187 10233,8158 10111,7967 9990,7938 9869,7892 9747,7775 9626,7443 9504,7408 9383,7349 9262,7290 9140,7292 9019,7323 8897,7219 8776,7217 8654,7135 8533,7058 8412,6954 8290,6851 8170,6813 8048,6713 7927,6586 7806,6456 7684,6384 7563,6515 7441,6430 7320,6437 7198,6184 7077,6202 6956,6005 6834,5818 6713,5713 6591,5591 6470,5472 6349,5405 6227,5282 6106,5211 5984,5199 5863,5046 5741,4933 5620,4798 5499,4728 5377,4647 5256,4547 5134,4493 5013,4476 4892,4391 4770,4278 4649,4148 4527,4107 4406,3960 4284,3836 4163,3687 4042,3581 3920,3546 3799,3430 3677,3355 3556,3338 3435,3254 3313,3192 3192,3122 3070,3101 2949,2991 2827,2886 2706,2728 2585,2651 2463,2592 2342,2517 2220,2482 2099,2388 1978,2275 1856,2278 1735,2205 1613,2140 1492,2149 1371,2020 1371,1345 Z"/>
 <path fill="none" stroke="rgb(0,0,0)" stroke-linejoin="round" d="M 1371,1345 L 1492,1370 1613,1386 1735,1390 1856,1399 1978,1371 2099,1413 2220,1407 2342,1394 2463,1398 2585,1422 2706,1420 2827,1511 2949,1556 3070,1587 3192,1587 3313,1609 3435,1617 3556,1666 3677,1662 3799,1707 3920,1735 4042,1788 4163,1874 4284,2046 4406,2239 4527,2433 4649,2559 4770,2736 4892,2886 5013,3006 5134,3080 5256,3166 5377,3299 5499,3443 5620,3558 5741,3718 5863,3880 5984,4076 6106,4150 6227,4265 6349,4421 6470,4516 6591,4674 6713,4821 6834,4975 6956,5185 7077,5401 7198,5427 7320,5690 7441,5712 7563,5795 7684,5704 7806,5805 7927,5978 8048,6122 8170,6236 8290,6315 8412,6425 8533,6559 8654,6645 8776,6732 8897,6777 9019,6894 9140,6872 9262,6885 9383,6966 9504,7017 9626,7088 9747,7435 9869,7554 9990,7634 10111,7670 10233,7859 10354,7920 10476,7961 10597,8079 10719,8227 10840,8344 10961,8319 11083,8373 11204,8439 11326,8391 11447,8965 11568,9275 11690,8869 11811,8930 11933,8902 12054,9089 12176,9229 12297,9269 12418,9516 12540,9530 12661,9484 12783,9529 12904,9581 13025,9649 13147,9651 13268,9632 13390,9647 13511,9726 13633,9840 13754,9809 13875,9795 13997,9758 14118,9849 14240,9898 14361,9923 14482,9901 14604,9896 14725,9898 14847,9962 14968,10065 15090,10086 15090,10128 14968,10109 14847,10012 14725,9953 14604,9965 14482,9975 14361,9998 14240,9969 14118,9920 13997,9842 13875,9879 13754,9897 13633,9928 13511,9821 13390,9764 13268,9751 13147,9769 13025,9769 12904,9708 12783,9657 12661,9624 12540,9669 12418,9640 12297,9425 12176,9374 12054,9242 11933,9066 11811,9115 11690,9099 11568,9484 11447,9189 11326,8638 11204,8677 11083,8612 10961,8552 10840,8571 10719,8458 10597,8321 10476,8208 10354,8187 10233,8158 10111,7967 9990,7938 9869,7892 9747,7775 9626,7443 9504,7408 9383,7349 9262,7290 9140,7292 9019,7323 8897,7219 8776,7217 8654,7135 8533,7058 8412,6954 8290,6851 8170,6813 8048,6713 7927,6586 7806,6456 7684,6384 7563,6515 7441,6430 7320,6437 7198,6184 7077,6202 6956,6005 6834,5818 6713,5713 6591,5591 6470,5472 6349,5405 6227,5282 6106,5211 5984,5199 5863,5046 5741,4933 5620,4798 5499,4728 5377,4647 5256,4547 5134,4493 5013,4476 4892,4391 4770,4278 4649,4148 4527,4107 4406,3960 4284,3836 4163,3687 4042,3581 3920,3546 3799,3430 3677,3355 3556,3338 3435,3254 3313,3192 3192,3122 3070,3101 2949,2991 2827,2886 2706,2728 2585,2651 2463,2592 2342,2517 2220,2482 2099,2388 1978,2275 1856,2278 1735,2205 1613,2140 1492,2149 1371,2020 1371,1345 Z"/>
 <path fill="rgb(0,102,204)" stroke="none" d="M 1371,1345 L 1492,1370 1613,1386 1735,1390 1856,1399 1978,1371 2099,1413 2220,1407 2342,1394 2463,1398 2585,1422 2706,1420 2827,1511 2949,1556 3070,1587 3192,1587 3313,1609 3435,1587 3556,1612 3677,1590 3799,1621 3920,1622 4042,1642 4163,1667 4284,1662 4406,1692 4527,1709 4649,1700 4770,1751 4892,1762 5013,1786 5134,1760 5256,1774 5377,1771 5499,1796 5620,1802 5741,1822 5863,1870 5984,1928 6106,1928 6227,1938 6349,2003 6470,2023 6591,2062 6713,2132 6834,2229 6956,2261 7077,2262 7198,2331 7320,2414 7441,2528 7563,2401 7684,2360 7806,2363 7927,2391 8048,2456 8170,2549 8290,2588 8412,2577 8533,2714 8654,2803 8776,2877 8897,3019 9019,3199 9140,3102 9262,3072 9383,3155 9504,3259 9626,3364 9747,3665 9869,3619 9990,3744 10111,3800 10233,3924 10354,4082 10476,4197 10597,4142 10719,4293 10840,4409 10961,4314 11083,4360 11204,4410 11326,4155 11447,4747 11568,4827 11690,4391 11811,4677 11933,4545 12054,4584 12176,4892 12297,4790 12418,4844 12540,4933 12661,5053 12783,5360 12904,5530 13025,5472 13147,5631 13268,5929 13390,5951 13511,6222 13633,6662 13754,6633 13875,6391 13997,6508 14118,6630 14240,6778 14361,6647 14482,6719 14604,6742 14725,6787 14847,6837 14968,7086 15090,7128 15090,10086 14968,10065 14847,9962 14725,9898 14604,9896 14482,9901 14361,9923 14240,9898 14118,9849 13997,9758 13875,9795 13754,9809 13633,9840 13511,9726 13390,9647 13268,9632 13147,9651 13025,9649 12904,9581 12783,9529 12661,9484 12540,9530 12418,9516 12297,9269 12176,9229 12054,9089 11933,8902 11811,8930 11690,8869 11568,9275 11447,8965 11326,8391 11204,8439 11083,8373 10961,8319 10840,8344 10719,8227 10597,8079 10476,7961 10354,7920 10233,7859 10111,7670 9990,7634 9869,7554 9747,7435 9626,7088 9504,7017 9383,6966 9262,6885 9140,6872 9019,6894 8897,6777 8776,6732 8654,6645 8533,6559 8412,6425 8290,6315 8170,6236 8048,6122 7927,5978 7806,5805 7684,5704 7563,5795 7441,5712 7320,5690 7198,5427 7077,5401 6956,5185 6834,4975 6713,4821 6591,4674 6470,4516 6349,4421 6227,4265 6106,4150 5984,4076 5863,3880 5741,3718 5620,3558 5499,3443 5377,3299 5256,3166 5134,3080 5013,3006 4892,2886 4770,2736 4649,2559 4527,2433 4406,2239 4284,2046 4163,1874 4042,1788 3920,1735 3799,1707 3677,1662 3556,1666 3435,1617 3313,1609 3192,1587 3070,1587 2949,1556 2827,1511 2706,1420 2585,1422 2463,1398 2342,1394 2220,1407 2099,1413 1978,1371 1856,1399 1735,1390 1613,1386 1492,1370 1371,1345 Z"/>
 <path fill="none" stroke="rgb(0,0,0)" stroke-linejoin="round" d="M 1371,1345 L 1492,1370 1613,1386 1735,1390 1856,1399 1978,1371 2099,1413 2220,1407 2342,1394 2463,1398 2585,1422 2706,1420 2827,1511 2949,1556 3070,1587 3192,1587 3313,1609 3435,1587 3556,1612 3677,1590 3799,1621 3920,1622 4042,1642 4163,1667 4284,1662 4406,1692 4527,1709 4649,1700 4770,1751 4892,1762 5013,1786 5134,1760 5256,1774 5377,1771 5499,1796 5620,1802 5741,1822 5863,1870 5984,1928 6106,1928 6227,1938 6349,2003 6470,2023 6591,2062 6713,2132 6834,2229 6956,2261 7077,2262 7198,2331 7320,2414 7441,2528 7563,2401 7684,2360 7806,2363 7927,2391 8048,2456 8170,2549 8290,2588 8412,2577 8533,2714 8654,2803 8776,2877 8897,3019 9019,3199 9140,3102 9262,3072 9383,3155 9504,3259 9626,3364 9747,3665 9869,3619 9990,3744 10111,3800 10233,3924 10354,4082 10476,4197 10597,4142 10719,4293 10840,4409 10961,4314 11083,4360 11204,4410 11326,4155 11447,4747 11568,4827 11690,4391 11811,4677 11933,4545 12054,4584 12176,4892 12297,4790 12418,4844 12540,4933 12661,5053 12783,5360 12904,5530 13025,5472 13147,5631 13268,5929 13390,5951 13511,6222 13633,6662 13754,6633 13875,6391 13997,6508 14118,6630 14240,6778 14361,6647 14482,6719 14604,6742 14725,6787 14847,6837 14968,7086 15090,7128 15090,10086 14968,10065 14847,9962 14725,9898 14604,9896 14482,9901 14361,9923 14240,9898 14118,9849 13997,9758 13875,9795 13754,9809 13633,9840 13511,9726 13390,9647 13268,9632 13147,9651 13025,9649 12904,9581 12783,9529 12661,9484 12540,9530 12418,9516 12297,9269 12176,9229 12054,9089 11933,8902 11811,8930 11690,8869 11568,9275 11447,8965 11326,8391 11204,8439 11083,8373 10961,8319 10840,8344 10719,8227 10597,8079 10476,7961 10354,7920 10233,7859 10111,7670 9990,7634 9869,7554 9747,7435 9626,7088 9504,7017 9383,6966 9262,6885 9140,6872 9019,6894 8897,6777 8776,6732 8654,6645 8533,6559 8412,6425 8290,6315 8170,6236 8048,6122 7927,5978 7806,5805 7684,5704 7563,5795 7441,5712 7320,5690 7198,5427 7077,5401 6956,5185 6834,4975 6713,4821 6591,4674 6470,4516 6349,4421 6227,4265 6106,4150 5984,4076 5863,3880 5741,3718 5620,3558 5499,3443 5377,3299 5256,3166 5134,3080 5013,3006 4892,2886 4770,2736 4649,2559 4527,2433 4406,2239 4284,2046 4163,1874 4042,1788 3920,1735 3799,1707 3677,1662 3556,1666 3435,1617 3313,1609 3192,1587 3070,1587 2949,1556 2827,1511 2706,1420 2585,1422 2463,1398 2342,1394 2220,1407 2099,1413 1978,1371 1856,1399 1735,1390 1613,1386 1492,1370 1371,1345 Z"/>
 <path fill="rgb(0,132,209)" stroke="none" d="M 1371,1345 L 1492,1370 1613,1386 1735,1390 1856,1399 1978,1371 2099,1413 2220,1407 2342,1394 2463,1398 2585,1422 2706,1420 2827,1511 2949,1556 3070,1587 3192,1587 3313,1609 3435,1587 3556,1612 3677,1590 3799,1621 3920,1622 4042,1642 4163,1667 4284,1662 4406,1692 4527,1709 4649,1700 4770,1751 4892,1762 5013,1786 5134,1760 5256,1774 5377,1771 5499,1796 5620,1802 5741,1822 5863,1870 5984,1928 6106,1928 6227,1938 6349,2003 6470,2023 6591,2062 6713,2132 6834,2229 6956,2261 7077,2262 7198,2331 7320,2414 7441,2528 7563,2401 7684,2360 7806,2363 7927,2391 8048,2456 8170,2549 8290,2588 8412,2577 8533,2679 8654,2708 8776,2724 8897,2820 9019,2967 9140,2822 9262,2745 9383,2792 9504,2826 9626,2911 9747,3033 9869,2865 9990,2968 10111,3028 10233,3055 10354,3227 10476,3347 10597,3229 10719,3316 10840,3416 10961,3321 11083,3382 11204,3357 11326,3170 11447,3411 11568,3355 11690,3315 11811,3625 11933,3452 12054,3491 12176,3803 12297,3514 12418,3616 12540,3732 12661,3981 12783,4377 12904,4568 13025,4427 13147,4688 13268,5005 13390,5086 13511,5412 13633,5874 13754,5888 13875,5667 13997,5825 14118,5968 14240,6158 14361,5933 14482,6048 14604,6183 14725,6225 14847,6287 14968,6589 15090,6607 15090,7128 14968,7086 14847,6837 14725,6787 14604,6742 14482,6719 14361,6647 14240,6778 14118,6630 13997,6508 13875,6391 13754,6633 13633,6662 13511,6222 13390,5951 13268,5929 13147,5631 13025,5472 12904,5530 12783,5360 12661,5053 12540,4933 12418,4844 12297,4790 12176,4892 12054,4584 11933,4545 11811,4677 11690,4391 11568,4827 11447,4747 11326,4155 11204,4410 11083,4360 10961,4314 10840,4409 10719,4293 10597,4142 10476,4197 10354,4082 10233,3924 10111,3800 9990,3744 9869,3619 9747,3665 9626,3364 9504,3259 9383,3155 9262,3072 9140,3102 9019,3199 8897,3019 8776,2877 8654,2803 8533,2714 8412,2577 8290,2588 8170,2549 8048,2456 7927,2391 7806,2363 7684,2360 7563,2401 7441,2528 7320,2414 7198,2331 7077,2262 6956,2261 6834,2229 6713,2132 6591,2062 6470,2023 6349,2003 6227,1938 6106,1928 5984,1928 5863,1870 5741,1822 5620,1802 5499,1796 5377,1771 5256,1774 5134,1760 5013,1786 4892,1762 4770,1751 4649,1700 4527,1709 4406,1692 4284,1662 4163,1667 4042,1642 3920,1622 3799,1621 3677,1590 3556,1612 3435,1587 3313,1609 3192,1587 3070,1587 2949,1556 2827,1511 2706,1420 2585,1422 2463,1398 2342,1394 2220,1407 2099,1413 1978,1371 1856,1399 1735,1390 1613,1386 1492,1370 1371,1345 Z"/>
 <path fill="none" stroke="rgb(0,0,0)" stroke-linejoin="round" d="M 1371,1345 L 1492,1370 1613,1386 1735,1390 1856,1399 1978,1371 2099,1413 2220,1407 2342,1394 2463,1398 2585,1422 2706,1420 2827,1511 2949,1556 3070,1587 3192,1587 3313,1609 3435,1587 3556,1612 3677,1590 3799,1621 3920,1622 4042,1642 4163,1667 4284,1662 4406,1692 4527,1709 4649,1700 4770,1751 4892,1762 5013,1786 5134,1760 5256,1774 5377,1771 5499,1796 5620,1802 5741,1822 5863,1870 5984,1928 6106,1928 6227,1938 6349,2003 6470,2023 6591,2062 6713,2132 6834,2229 6956,2261 7077,2262 7198,2331 7320,2414 7441,2528 7563,2401 7684,2360 7806,2363 7927,2391 8048,2456 8170,2549 8290,2588 8412,2577 8533,2679 8654,2708 8776,2724 8897,2820 9019,2967 9140,2822 9262,2745 9383,2792 9504,2826 9626,2911 9747,3033 9869,2865 9990,2968 10111,3028 10233,3055 10354,3227 10476,3347 10597,3229 10719,3316 10840,3416 10961,3321 11083,3382 11204,3357 11326,3170 11447,3411 11568,3355 11690,3315 11811,3625 11933,3452 12054,3491 12176,3803 12297,3514 12418,3616 12540,3732 12661,3981 12783,4377 12904,4568 13025,4427 13147,4688 13268,5005 13390,5086 13511,5412 13633,5874 13754,5888 13875,5667 13997,5825 14118,5968 14240,6158 14361,5933 14482,6048 14604,6183 14725,6225 14847,6287 14968,6589 15090,6607 15090,7128 14968,7086 14847,6837 14725,6787 14604,6742 14482,6719 14361,6647 14240,6778 14118,6630 13997,6508 13875,6391 13754,6633 13633,6662 13511,6222 13390,5951 13268,5929 13147,5631 13025,5472 12904,5530 12783,5360 12661,5053 12540,4933 12418,4844 12297,4790 12176,4892 12054,4584 11933,4545 11811,4677 11690,4391 11568,4827 11447,4747 11326,4155 11204,4410 11083,4360 10961,4314 10840,4409 10719,4293 10597,4142 10476,4197 10354,4082 10233,3924 10111,3800 9990,3744 9869,3619 9747,3665 9626,3364 9504,3259 9383,3155 9262,3072 9140,3102 9019,3199 8897,3019 8776,2877 8654,2803 8533,2714 8412,2577 8290,2588 8170,2549 8048,2456 7927,2391 7806,2363 7684,2360 7563,2401 7441,2528 7320,2414 7198,2331 7077,2262 6956,2261 6834,2229 6713,2132 6591,2062 6470,2023 6349,2003 6227,1938 6106,1928 5984,1928 5863,1870 5741,1822 5620,1802 5499,1796 5377,1771 5256,1774 5134,1760 5013,1786 4892,1762 4770,1751 4649,1700 4527,1709 4406,1692 4284,1662 4163,1667 4042,1642 3920,1622 3799,1621 3677,1590 3556,1612 3435,1587 3313,1609 3192,1587 3070,1587 2949,1556 2827,1511 2706,1420 2585,1422 2463,1398 2342,1394 2220,1407 2099,1413 1978,1371 1856,1399 1735,1390 1613,1386 1492,1370 1371,1345 Z"/>
 <path fill="rgb(0,69,134)" stroke="none" d="M 1371,1345 L 1492,1370 1613,1386 1735,1390 1856,1399 1978,1371 2099,1413 2220,1407 2342,1394 2463,1398 2585,1422 2706,1420 2827,1511 2949,1556 3070,1587 3192,1587 3313,1609 3435,1587 3556,1612 3677,1590 3799,1621 3920,1622 4042,1642 4163,1667 4284,1662 4406,1692 4527,1709 4649,1700 4770,1751 4892,1762 5013,1786 5134,1760 5256,1774 5377,1771 5499,1796 5620,1802 5741,1822 5863,1870 5984,1928 6106,1928 6227,1938 6349,2003 6470,2023 6591,2062 6713,2132 6834,2229 6956,2261 7077,2262 7198,2331 7320,2414 7441,2528 7563,2401 7684,2360 7806,2363 7927,2391 8048,2456 8170,2549 8290,2588 8412,2577 8533,2679 8654,2708 8776,2724 8897,2820 9019,2967 9140,2822 9262,2745 9383,2792 9504,2826 9626,2911 9747,3033 9869,2865 9990,2968 10111,3028 10233,3055 10354,3227 10476,3347 10597,3229 10719,3316 10840,3416 10961,3321 11083,3382 11204,3357 11326,3170 11447,3411 11568,3355 11690,3315 11811,3625 11933,3452 12054,3491 12176,3803 12297,3514 12418,3616 12540,3703 12661,3580 12783,3887 12904,3991 13025,3756 13147,3969 13268,4169 13390,4180 13511,4456 13633,4939 13754,4748 13875,4339 13997,4365 14118,4402 14240,4701 14361,4403 14482,4448 14604,4595 14725,4558 14847,4661 14968,5061 15090,5005 15090,6607 14968,6589 14847,6287 14725,6225 14604,6183 14482,6048 14361,5933 14240,6158 14118,5968 13997,5825 13875,5667 13754,5888 13633,5874 13511,5412 13390,5086 13268,5005 13147,4688 13025,4427 12904,4568 12783,4377 12661,3981 12540,3732 12418,3616 12297,3514 12176,3803 12054,3491 11933,3452 11811,3625 11690,3315 11568,3355 11447,3411 11326,3170 11204,3357 11083,3382 10961,3321 10840,3416 10719,3316 10597,3229 10476,3347 10354,3227 10233,3055 10111,3028 9990,2968 9869,2865 9747,3033 9626,2911 9504,2826 9383,2792 9262,2745 9140,2822 9019,2967 8897,2820 8776,2724 8654,2708 8533,2679 8412,2577 8290,2588 8170,2549 8048,2456 7927,2391 7806,2363 7684,2360 7563,2401 7441,2528 7320,2414 7198,2331 7077,2262 6956,2261 6834,2229 6713,2132 6591,2062 6470,2023 6349,2003 6227,1938 6106,1928 5984,1928 5863,1870 5741,1822 5620,1802 5499,1796 5377,1771 5256,1774 5134,1760 5013,1786 4892,1762 4770,1751 4649,1700 4527,1709 4406,1692 4284,1662 4163,1667 4042,1642 3920,1622 3799,1621 3677,1590 3556,1612 3435,1587 3313,1609 3192,1587 3070,1587 2949,1556 2827,1511 2706,1420 2585,1422 2463,1398 2342,1394 2220,1407 2099,1413 1978,1371 1856,1399 1735,1390 1613,1386 1492,1370 1371,1345 Z"/>
 <path fill="none" stroke="rgb(0,0,0)" stroke-linejoin="round" d="M 1371,1345 L 1492,1370 1613,1386 1735,1390 1856,1399 1978,1371 2099,1413 2220,1407 2342,1394 2463,1398 2585,1422 2706,1420 2827,1511 2949,1556 3070,1587 3192,1587 3313,1609 3435,1587 3556,1612 3677,1590 3799,1621 3920,1622 4042,1642 4163,1667 4284,1662 4406,1692 4527,1709 4649,1700 4770,1751 4892,1762 5013,1786 5134,1760 5256,1774 5377,1771 5499,1796 5620,1802 5741,1822 5863,1870 5984,1928 6106,1928 6227,1938 6349,2003 6470,2023 6591,2062 6713,2132 6834,2229 6956,2261 7077,2262 7198,2331 7320,2414 7441,2528 7563,2401 7684,2360 7806,2363 7927,2391 8048,2456 8170,2549 8290,2588 8412,2577 8533,2679 8654,2708 8776,2724 8897,2820 9019,2967 9140,2822 9262,2745 9383,2792 9504,2826 9626,2911 9747,3033 9869,2865 9990,2968 10111,3028 10233,3055 10354,3227 10476,3347 10597,3229 10719,3316 10840,3416 10961,3321 11083,3382 11204,3357 11326,3170 11447,3411 11568,3355 11690,3315 11811,3625 11933,3452 12054,3491 12176,3803 12297,3514 12418,3616 12540,3703 12661,3580 12783,3887 12904,3991 13025,3756 13147,3969 13268,4169 13390,4180 13511,4456 13633,4939 13754,4748 13875,4339 13997,4365 14118,4402 14240,4701 14361,4403 14482,4448 14604,4595 14725,4558 14847,4661 14968,5061 15090,5005 15090,6607 14968,6589 14847,6287 14725,6225 14604,6183 14482,6048 14361,5933 14240,6158 14118,5968 13997,5825 13875,5667 13754,5888 13633,5874 13511,5412 13390,5086 13268,5005 13147,4688 13025,4427 12904,4568 12783,4377 12661,3981 12540,3732 12418,3616 12297,3514 12176,3803 12054,3491 11933,3452 11811,3625 11690,3315 11568,3355 11447,3411 11326,3170 11204,3357 11083,3382 10961,3321 10840,3416 10719,3316 10597,3229 10476,3347 10354,3227 10233,3055 10111,3028 9990,2968 9869,2865 9747,3033 9626,2911 9504,2826 9383,2792 9262,2745 9140,2822 9019,2967 8897,2820 8776,2724 8654,2708 8533,2679 8412,2577 8290,2588 8170,2549 8048,2456 7927,2391 7806,2363 7684,2360 7563,2401 7441,2528 7320,2414 7198,2331 7077,2262 6956,2261 6834,2229 6713,2132 6591,2062 6470,2023 6349,2003 6227,1938 6106,1928 5984,1928 5863,1870 5741,1822 5620,1802 5499,1796 5377,1771 5256,1774 5134,1760 5013,1786 4892,1762 4770,1751 4649,1700 4527,1709 4406,1692 4284,1662 4163,1667 4042,1642 3920,1622 3799,1621 3677,1590 3556,1612 3435,1587 3313,1609 3192,1587 3070,1587 2949,1556 2827,1511 2706,1420 2585,1422 2463,1398 2342,1394 2220,1407 2099,1413 1978,1371 1856,1399 1735,1390 1613,1386 1492,1370 1371,1345 Z"/>
 <path fill="rgb(0,102,0)" stroke="none" d="M 1371,1015 L 1492,1024 1613,1027 1735,1033 1856,1036 1978,1039 2099,1052 2220,1052 2342,1053 2463,1057 2585,1061 2706,1054 2827,1113 2949,1128 3070,1134 3192,1150 3313,1158 3435,1140 3556,1158 3677,1138 3799,1154 3920,1153 4042,1150 4163,1161 4284,1170 4406,1200 4527,1215 4649,1218 4770,1238 4892,1250 5013,1280 5134,1264 5256,1287 5377,1290 5499,1315 5620,1325 5741,1340 5863,1388 5984,1424 6106,1430 6227,1434 6349,1486 6470,1513 6591,1549 6713,1597 6834,1688 6956,1681 7077,1632 7198,1754 7320,1850 7441,1970 7563,1784 7684,1778 7806,1782 7927,1821 8048,1864 8170,1940 8290,1967 8412,1951 8533,2063 8654,2081 8776,2120 8897,2221 9019,2373 9140,2238 9262,2147 9383,2191 9504,2216 9626,2309 9747,2431 9869,2226 9990,2321 10111,2401 10233,2431 10354,2608 10476,2736 10597,2617 10719,2708 10840,2835 10961,2788 11083,2862 11204,2827 11326,2657 11447,2850 11568,2782 11690,2741 11811,3085 11933,2915 12054,2927 12176,3256 12297,2944 12418,3039 12540,3123 12661,3002 12783,3318 12904,3409 13025,3236 13147,3462 13268,3627 13390,3632 13511,3932 13633,4340 13754,4191 13875,3771 13997,3821 14118,3900 14240,4254 14361,3968 14482,3993 14604,4199 14725,4142 14847,4262 14968,4683 15090,4624 15090,5005 14968,5061 14847,4661 14725,4558 14604,4595 14482,4448 14361,4403 14240,4701 14118,4402 13997,4365 13875,4339 13754,4748 13633,4939 13511,4456 13390,4180 13268,4169 13147,3969 13025,3756 12904,3991 12783,3887 12661,3580 12540,3703 12418,3616 12297,3514 12176,3803 12054,3491 11933,3452 11811,3625 11690,3315 11568,3355 11447,3411 11326,3170 11204,3357 11083,3382 10961,3321 10840,3416 10719,3316 10597,3229 10476,3347 10354,3227 10233,3055 10111,3028 9990,2968 9869,2865 9747,3033 9626,2911 9504,2826 9383,2792 9262,2745 9140,2822 9019,2967 8897,2820 8776,2724 8654,2708 8533,2679 8412,2577 8290,2588 8170,2549 8048,2456 7927,2391 7806,2363 7684,2360 7563,2401 7441,2528 7320,2414 7198,2331 7077,2262 6956,2261 6834,2229 6713,2132 6591,2062 6470,2023 6349,2003 6227,1938 6106,1928 5984,1928 5863,1870 5741,1822 5620,1802 5499,1796 5377,1771 5256,1774 5134,1760 5013,1786 4892,1762 4770,1751 4649,1700 4527,1709 4406,1692 4284,1662 4163,1667 4042,1642 3920,1622 3799,1621 3677,1590 3556,1612 3435,1587 3313,1609 3192,1587 3070,1587 2949,1556 2827,1511 2706,1420 2585,1422 2463,1398 2342,1394 2220,1407 2099,1413 1978,1371 1856,1399 1735,1390 1613,1386 1492,1370 1371,1345 1371,1015 Z"/>
 <path fill="none" stroke="rgb(0,0,0)" stroke-linejoin="round" d="M 1371,1015 L 1492,1024 1613,1027 1735,1033 1856,1036 1978,1039 2099,1052 2220,1052 2342,1053 2463,1057 2585,1061 2706,1054 2827,1113 2949,1128 3070,1134 3192,1150 3313,1158 3435,1140 3556,1158 3677,1138 3799,1154 3920,1153 4042,1150 4163,1161 4284,1170 4406,1200 4527,1215 4649,1218 4770,1238 4892,1250 5013,1280 5134,1264 5256,1287 5377,1290 5499,1315 5620,1325 5741,1340 5863,1388 5984,1424 6106,1430 6227,1434 6349,1486 6470,1513 6591,1549 6713,1597 6834,1688 6956,1681 7077,1632 7198,1754 7320,1850 7441,1970 7563,1784 7684,1778 7806,1782 7927,1821 8048,1864 8170,1940 8290,1967 8412,1951 8533,2063 8654,2081 8776,2120 8897,2221 9019,2373 9140,2238 9262,2147 9383,2191 9504,2216 9626,2309 9747,2431 9869,2226 9990,2321 10111,2401 10233,2431 10354,2608 10476,2736 10597,2617 10719,2708 10840,2835 10961,2788 11083,2862 11204,2827 11326,2657 11447,2850 11568,2782 11690,2741 11811,3085 11933,2915 12054,2927 12176,3256 12297,2944 12418,3039 12540,3123 12661,3002 12783,3318 12904,3409 13025,3236 13147,3462 13268,3627 13390,3632 13511,3932 13633,4340 13754,4191 13875,3771 13997,3821 14118,3900 14240,4254 14361,3968 14482,3993 14604,4199 14725,4142 14847,4262 14968,4683 15090,4624 15090,5005 14968,5061 14847,4661 14725,4558 14604,4595 14482,4448 14361,4403 14240,4701 14118,4402 13997,4365 13875,4339 13754,4748 13633,4939 13511,4456 13390,4180 13268,4169 13147,3969 13025,3756 12904,3991 12783,3887 12661,3580 12540,3703 12418,3616 12297,3514 12176,3803 12054,3491 11933,3452 11811,3625 11690,3315 11568,3355 11447,3411 11326,3170 11204,3357 11083,3382 10961,3321 10840,3416 10719,3316 10597,3229 10476,3347 10354,3227 10233,3055 10111,3028 9990,2968 9869,2865 9747,3033 9626,2911 9504,2826 9383,2792 9262,2745 9140,2822 9019,2967 8897,2820 8776,2724 8654,2708 8533,2679 8412,2577 8290,2588 8170,2549 8048,2456 7927,2391 7806,2363 7684,2360 7563,2401 7441,2528 7320,2414 7198,2331 7077,2262 6956,2261 6834,2229 6713,2132 6591,2062 6470,2023 6349,2003 6227,1938 6106,1928 5984,1928 5863,1870 5741,1822 5620,1802 5499,1796 5377,1771 5256,1774 5134,1760 5013,1786 4892,1762 4770,1751 4649,1700 4527,1709 4406,1692 4284,1662 4163,1667 4042,1642 3920,1622 3799,1621 3677,1590 3556,1612 3435,1587 3313,1609 3192,1587 3070,1587 2949,1556 2827,1511 2706,1420 2585,1422 2463,1398 2342,1394 2220,1407 2099,1413 1978,1371 1856,1399 1735,1390 1613,1386 1492,1370 1371,1345 1371,1015 Z"/>
 <path fill="rgb(255,211,32)" stroke="none" d="M 1371,1015 L 1492,1024 1613,1027 1735,1033 1856,1036 1978,1039 2099,1052 2220,1052 2342,1053 2463,1057 2585,1061 2706,1054 2827,1086 2949,1094 3070,1079 3192,1092 3313,1094 3435,1071 3556,1085 3677,1062 3799,1069 3920,1061 4042,1058 4163,1060 4284,1058 4406,1067 4527,1066 4649,1063 4770,1068 4892,1072 5013,1096 5134,1071 5256,1058 5377,1047 5499,1049 5620,1059 5741,1060 5863,1061 5984,1064 6106,1061 6227,1060 6349,1063 6470,1055 6591,1070 6713,1069 6834,1076 6956,1105 7077,1101 7198,1110 7320,1207 7441,1127 7563,1089 7684,1085 7806,1080 7927,1074 8048,1077 8170,1153 8290,1084 8412,1091 8533,1073 8654,1079 8776,1078 8897,1087 9019,1107 9140,1084 9262,1095 9383,1118 9504,1118 9626,1113 9747,1140 9869,1141 9990,1141 10111,1136 10233,1149 10354,1149 10476,1161 10597,1141 10719,1149 10840,1107 10961,1124 11083,1116 11204,1092 11326,1102 11447,1296 11568,1083 11690,1165 11811,1150 11933,1151 12054,1142 12176,1131 12297,1136 12418,1129 12540,1106 12661,1094 12783,1108 12904,1100 13025,1099 13147,1114 13268,1131 13390,1143 13511,1139 13633,1321 13754,1182 13875,1154 13997,1159 14118,1144 14240,1162 14361,1183 14482,1174 14604,1182 14725,1180 14847,1171 14968,1161 15090,1165 15090,4624 14968,4683 14847,4262 14725,4142 14604,4199 14482,3993 14361,3968 14240,4254 14118,3900 13997,3821 13875,3771 13754,4191 13633,4340 13511,3932 13390,3632 13268,3627 13147,3462 13025,3236 12904,3409 12783,3318 12661,3002 12540,3123 12418,3039 12297,2944 12176,3256 12054,2927 11933,2915 11811,3085 11690,2741 11568,2782 11447,2850 11326,2657 11204,2827 11083,2862 10961,2788 10840,2835 10719,2708 10597,2617 10476,2736 10354,2608 10233,2431 10111,2401 9990,2321 9869,2226 9747,2431 9626,2309 9504,2216 9383,2191 9262,2147 9140,2238 9019,2373 8897,2221 8776,2120 8654,2081 8533,2063 8412,1951 8290,1967 8170,1940 8048,1864 7927,1821 7806,1782 7684,1778 7563,1784 7441,1970 7320,1850 7198,1754 7077,1632 6956,1681 6834,1688 6713,1597 6591,1549 6470,1513 6349,1486 6227,1434 6106,1430 5984,1424 5863,1388 5741,1340 5620,1325 5499,1315 5377,1290 5256,1287 5134,1264 5013,1280 4892,1250 4770,1238 4649,1218 4527,1215 4406,1200 4284,1170 4163,1161 4042,1150 3920,1153 3799,1154 3677,1138 3556,1158 3435,1140 3313,1158 3192,1150 3070,1134 2949,1128 2827,1113 2706,1054 2585,1061 2463,1057 2342,1053 2220,1052 2099,1052 1978,1039 1856,1036 1735,1033 1613,1027 1492,1024 1371,1015 Z"/>
 <path fill="none" stroke="rgb(0,0,0)" stroke-linejoin="round" d="M 1371,1015 L 1492,1024 1613,1027 1735,1033 1856,1036 1978,1039 2099,1052 2220,1052 2342,1053 2463,1057 2585,1061 2706,1054 2827,1086 2949,1094 3070,1079 3192,1092 3313,1094 3435,1071 3556,1085 3677,1062 3799,1069 3920,1061 4042,1058 4163,1060 4284,1058 4406,1067 4527,1066 4649,1063 4770,1068 4892,1072 5013,1096 5134,1071 5256,1058 5377,1047 5499,1049 5620,1059 5741,1060 5863,1061 5984,1064 6106,1061 6227,1060 6349,1063 6470,1055 6591,1070 6713,1069 6834,1076 6956,1105 7077,1101 7198,1110 7320,1207 7441,1127 7563,1089 7684,1085 7806,1080 7927,1074 8048,1077 8170,1153 8290,1084 8412,1091 8533,1073 8654,1079 8776,1078 8897,1087 9019,1107 9140,1084 9262,1095 9383,1118 9504,1118 9626,1113 9747,1140 9869,1141 9990,1141 10111,1136 10233,1149 10354,1149 10476,1161 10597,1141 10719,1149 10840,1107 10961,1124 11083,1116 11204,1092 11326,1102 11447,1296 11568,1083 11690,1165 11811,1150 11933,1151 12054,1142 12176,1131 12297,1136 12418,1129 12540,1106 12661,1094 12783,1108 12904,1100 13025,1099 13147,1114 13268,1131 13390,1143 13511,1139 13633,1321 13754,1182 13875,1154 13997,1159 14118,1144 14240,1162 14361,1183 14482,1174 14604,1182 14725,1180 14847,1171 14968,1161 15090,1165 15090,4624 14968,4683 14847,4262 14725,4142 14604,4199 14482,3993 14361,3968 14240,4254 14118,3900 13997,3821 13875,3771 13754,4191 13633,4340 13511,3932 13390,3632 13268,3627 13147,3462 13025,3236 12904,3409 12783,3318 12661,3002 12540,3123 12418,3039 12297,2944 12176,3256 12054,2927 11933,2915 11811,3085 11690,2741 11568,2782 11447,2850 11326,2657 11204,2827 11083,2862 10961,2788 10840,2835 10719,2708 10597,2617 10476,2736 10354,2608 10233,2431 10111,2401 9990,2321 9869,2226 9747,2431 9626,2309 9504,2216 9383,2191 9262,2147 9140,2238 9019,2373 8897,2221 8776,2120 8654,2081 8533,2063 8412,1951 8290,1967 8170,1940 8048,1864 7927,1821 7806,1782 7684,1778 7563,1784 7441,1970 7320,1850 7198,1754 7077,1632 6956,1681 6834,1688 6713,1597 6591,1549 6470,1513 6349,1486 6227,1434 6106,1430 5984,1424 5863,1388 5741,1340 5620,1325 5499,1315 5377,1290 5256,1287 5134,1264 5013,1280 4892,1250 4770,1238 4649,1218 4527,1215 4406,1200 4284,1170 4163,1161 4042,1150 3920,1153 3799,1154 3677,1138 3556,1158 3435,1140 3313,1158 3192,1150 3070,1134 2949,1128 2827,1113 2706,1054 2585,1061 2463,1057 2342,1053 2220,1052 2099,1052 1978,1039 1856,1036 1735,1033 1613,1027 1492,1024 1371,1015 Z"/>
 <path fill="rgb(255,51,51)" stroke="none" d="M 1371,952 L 1492,956 1613,956 1735,960 1856,965 1978,965 2099,965 2220,967 2342,972 2463,978 2585,978 2706,979 2827,998 2949,999 3070,991 3192,997 3313,996 3435,967 3556,971 3677,965 3799,968 3920,971 4042,966 4163,968 4284,960 4406,969 4527,968 4649,969 4770,969 4892,971 5013,987 5134,968 5256,968 5377,965 5499,967 5620,976 5741,971 5863,969 5984,973 6106,973 6227,968 6349,973 6470,967 6591,979 6713,981 6834,980 6956,1005 7077,993 7198,993 7320,1082 7441,991 7563,986 7684,998 7806,993 7927,983 8048,985 8170,1064 8290,988 8412,994 8533,973 8654,972 8776,977 8897,985 9019,1007 9140,986 9262,992 9383,1010 9504,1010 9626,1009 9747,1014 9869,1001 9990,1006 10111,1006 10233,1006 10354,1020 10476,1043 10597,1021 10719,1024 10840,980 10961,986 11083,985 11204,960 11326,971 11447,1183 11568,984 11690,1058 11811,1049 11933,1032 12054,1026 12176,1018 12297,1014 12418,1006 12540,979 12661,969 12783,979 12904,986 13025,978 13147,994 13268,1010 13390,1018 13511,1019 13633,1219 13754,1065 13875,1014 13997,998 14118,1001 14240,1018 14361,1035 14482,1018 14604,1038 14725,1030 14847,1039 14968,1033 15090,1038 15090,1165 14968,1161 14847,1171 14725,1180 14604,1182 14482,1174 14361,1183 14240,1162 14118,1144 13997,1159 13875,1154 13754,1182 13633,1321 13511,1139 13390,1143 13268,1131 13147,1114 13025,1099 12904,1100 12783,1108 12661,1094 12540,1106 12418,1129 12297,1136 12176,1131 12054,1142 11933,1151 11811,1150 11690,1165 11568,1083 11447,1296 11326,1102 11204,1092 11083,1116 10961,1124 10840,1107 10719,1149 10597,1141 10476,1161 10354,1149 10233,1149 10111,1136 9990,1141 9869,1141 9747,1140 9626,1113 9504,1118 9383,1118 9262,1095 9140,1084 9019,1107 8897,1087 8776,1078 8654,1079 8533,1073 8412,1091 8290,1084 8170,1153 8048,1077 7927,1074 7806,1080 7684,1085 7563,1089 7441,1127 7320,1207 7198,1110 7077,1101 6956,1105 6834,1076 6713,1069 6591,1070 6470,1055 6349,1063 6227,1060 6106,1061 5984,1064 5863,1061 5741,1060 5620,1059 5499,1049 5377,1047 5256,1058 5134,1071 5013,1096 4892,1072 4770,1068 4649,1063 4527,1066 4406,1067 4284,1058 4163,1060 4042,1058 3920,1061 3799,1069 3677,1062 3556,1085 3435,1071 3313,1094 3192,1092 3070,1079 2949,1094 2827,1086 2706,1054 2585,1061 2463,1057 2342,1053 2220,1052 2099,1052 1978,1039 1856,1036 1735,1033 1613,1027 1492,1024 1371,1015 1371,952 Z"/>
 <path fill="none" stroke="rgb(0,0,0)" stroke-linejoin="round" d="M 1371,952 L 1492,956 1613,956 1735,960 1856,965 1978,965 2099,965 2220,967 2342,972 2463,978 2585,978 2706,979 2827,998 2949,999 3070,991 3192,997 3313,996 3435,967 3556,971 3677,965 3799,968 3920,971 4042,966 4163,968 4284,960 4406,969 4527,968 4649,969 4770,969 4892,971 5013,987 5134,968 5256,968 5377,965 5499,967 5620,976 5741,971 5863,969 5984,973 6106,973 6227,968 6349,973 6470,967 6591,979 6713,981 6834,980 6956,1005 7077,993 7198,993 7320,1082 7441,991 7563,986 7684,998 7806,993 7927,983 8048,985 8170,1064 8290,988 8412,994 8533,973 8654,972 8776,977 8897,985 9019,1007 9140,986 9262,992 9383,1010 9504,1010 9626,1009 9747,1014 9869,1001 9990,1006 10111,1006 10233,1006 10354,1020 10476,1043 10597,1021 10719,1024 10840,980 10961,986 11083,985 11204,960 11326,971 11447,1183 11568,984 11690,1058 11811,1049 11933,1032 12054,1026 12176,1018 12297,1014 12418,1006 12540,979 12661,969 12783,979 12904,986 13025,978 13147,994 13268,1010 13390,1018 13511,1019 13633,1219 13754,1065 13875,1014 13997,998 14118,1001 14240,1018 14361,1035 14482,1018 14604,1038 14725,1030 14847,1039 14968,1033 15090,1038 15090,1165 14968,1161 14847,1171 14725,1180 14604,1182 14482,1174 14361,1183 14240,1162 14118,1144 13997,1159 13875,1154 13754,1182 13633,1321 13511,1139 13390,1143 13268,1131 13147,1114 13025,1099 12904,1100 12783,1108 12661,1094 12540,1106 12418,1129 12297,1136 12176,1131 12054,1142 11933,1151 11811,1150 11690,1165 11568,1083 11447,1296 11326,1102 11204,1092 11083,1116 10961,1124 10840,1107 10719,1149 10597,1141 10476,1161 10354,1149 10233,1149 10111,1136 9990,1141 9869,1141 9747,1140 9626,1113 9504,1118 9383,1118 9262,1095 9140,1084 9019,1107 8897,1087 8776,1078 8654,1079 8533,1073 8412,1091 8290,1084 8170,1153 8048,1077 7927,1074 7806,1080 7684,1085 7563,1089 7441,1127 7320,1207 7198,1110 7077,1101 6956,1105 6834,1076 6713,1069 6591,1070 6470,1055 6349,1063 6227,1060 6106,1061 5984,1064 5863,1061 5741,1060 5620,1059 5499,1049 5377,1047 5256,1058 5134,1071 5013,1096 4892,1072 4770,1068 4649,1063 4527,1066 4406,1067 4284,1058 4163,1060 4042,1058 3920,1061 3799,1069 3677,1062 3556,1085 3435,1071 3313,1094 3192,1092 3070,1079 2949,1094 2827,1086 2706,1054 2585,1061 2463,1057 2342,1053 2220,1052 2099,1052 1978,1039 1856,1036 1735,1033 1613,1027 1492,1024 1371,1015 1371,952 Z"/>
 <path fill="rgb(255,255,255)" stroke="none" d="M 1371,930 L 1492,930 1613,930 1735,930 1978,930 2220,930 2342,930 2463,930 2585,930 2706,930 2827,930 2949,930 3070,930 3192,930 3313,930 3435,930 3556,930 3677,930 3799,930 3920,930 4042,930 4163,930 4284,930 4406,930 4527,930 4649,930 4770,930 4892,930 5013,930 5134,930 5256,930 5377,930 5499,930 5741,930 5863,930 5984,930 6106,930 6227,930 6349,930 6470,930 6713,930 6834,930 6956,930 7077,930 7198,930 7320,930 7441,930 7563,930 7684,930 7806,930 7927,930 8048,930 8170,930 8231,930 8412,930 8533,930 8654,930 8776,930 9019,930 9140,930 9322,930 9383,930 9504,930 9869,930 9990,930 10111,930 10314,930 10354,930 10476,930 10597,930 10719,930 10840,930 10961,930 11083,930 11123,930 11326,930 11447,930 11690,930 11811,930 11933,930 12054,930 12176,930 12297,930 12418,930 12540,930 12742,930 12783,930 12904,930 13147,930 13268,930 13390,930 13511,930 13633,930 13835,930 13875,930 13997,930 14118,930 14240,930 14685,930 14725,930 14766,930 15090,930 15090,1038 14968,1033 14847,1039 14725,1030 14604,1038 14482,1018 14361,1035 14240,1018 14118,1001 13997,998 13875,1014 13754,1065 13633,1219 13511,1019 13390,1018 13268,1010 13147,994 13025,978 12904,986 12783,979 12661,969 12540,979 12418,1006 12297,1014 12176,1018 12054,1026 11933,1032 11811,1049 11690,1058 11568,984 11447,1183 11326,971 11204,960 11083,985 10961,986 10840,980 10719,1024 10597,1021 10476,1043 10354,1020 10233,1006 10111,1006 9990,1006 9869,1001 9747,1014 9626,1009 9504,1010 9383,1010 9262,992 9140,986 9019,1007 8897,985 8776,977 8654,972 8533,973 8412,994 8290,988 8170,1064 8048,985 7927,983 7806,993 7684,998 7563,986 7441,991 7320,1082 7198,993 7077,993 6956,1005 6834,980 6713,981 6591,979 6470,967 6349,973 6227,968 6106,973 5984,973 5863,969 5741,971 5620,976 5499,967 5377,965 5256,968 5134,968 5013,987 4892,971 4770,969 4649,969 4527,968 4406,969 4284,960 4163,968 4042,966 3920,971 3799,968 3677,965 3556,971 3435,967 3313,996 3192,997 3070,991 2949,999 2827,998 2706,979 2585,978 2463,978 2342,972 2220,967 2099,965 1978,965 1856,965 1735,960 1613,956 1492,956 1371,952 1371,930 Z"/>
 <text class="TextShape"><tspan class="TextParagraph" font-family="Arial, sans-serif" font-size="388px" font-weight="400"><tspan class="TextPosition" x="1189" y="11152"><tspan fill="rgb(0,0,0)" stroke="none">2008</tspan></tspan></tspan></text>
 <text class="TextShape"><tspan class="TextParagraph" font-family="Arial, sans-serif" font-size="388px" font-weight="400"><tspan class="TextPosition" x="2646" y="11152"><tspan fill="rgb(0,0,0)" stroke="none">2009</tspan></tspan></tspan></text>
 <text class="TextShape"><tspan class="TextParagraph" font-family="Arial, sans-serif" font-size="388px" font-weight="400"><tspan class="TextPosition" x="4103" y="11152"><tspan fill="rgb(0,0,0)" stroke="none">2010</tspan></tspan></tspan></text>
 <text class="TextShape"><tspan class="TextParagraph" font-family="Arial, sans-serif" font-size="388px" font-weight="400"><tspan class="TextPosition" x="5574" y="11152"><tspan fill="rgb(0,0,0)" stroke="none">2011</tspan></tspan></tspan></text>
 <text class="TextShape"><tspan class="TextParagraph" font-family="Arial, sans-serif" font-size="388px" font-weight="400"><tspan class="TextPosition" x="7017" y="11152"><tspan fill="rgb(0,0,0)" stroke="none">2012</tspan></tspan></tspan></text>
 <text class="TextShape"><tspan class="TextParagraph" font-family="Arial, sans-serif" font-size="388px" font-weight="400"><tspan class="TextPosition" x="8474" y="11152"><tspan fill="rgb(0,0,0)" stroke="none">2013</tspan></tspan></tspan></text>
 <text class="TextShape"><tspan class="TextParagraph" font-family="Arial, sans-serif" font-size="388px" font-weight="400"><tspan class="TextPosition" x="9931" y="11152"><tspan fill="rgb(0,0,0)" stroke="none">2014</tspan></tspan></tspan></text>
 <text class="TextShape"><tspan class="TextParagraph" font-family="Arial, sans-serif" font-size="388px" font-weight="400"><tspan class="TextPosition" x="11388" y="11152"><tspan fill="rgb(0,0,0)" stroke="none">2015</tspan></tspan></tspan></text>
 <text class="TextShape"><tspan class="TextParagraph" font-family="Arial, sans-serif" font-size="388px" font-weight="400"><tspan class="TextPosition" x="12845" y="11152"><tspan fill="rgb(0,0,0)" stroke="none">2016</tspan></tspan></tspan></text>
 <text class="TextShape"><tspan class="TextParagraph" font-family="Arial, sans-serif" font-size="388px" font-weight="400"><tspan class="TextPosition" x="14302" y="11152"><tspan fill="rgb(0,0,0)" stroke="none">2017</tspan></tspan></tspan></text>
 <text class="TextShape"><tspan class="TextParagraph" font-family="Arial, sans-serif" font-size="388px" font-weight="400"><tspan class="TextPosition" x="565" y="10692"><tspan fill="rgb(0,0,0)" stroke="none">0%</tspan></tspan></tspan></text>
 <text class="TextShape"><tspan class="TextParagraph" font-family="Arial, sans-serif" font-size="388px" font-weight="400"><tspan class="TextPosition" x="354" y="9729"><tspan fill="rgb(0,0,0)" stroke="none">10%</tspan></tspan></tspan></text>
 <text class="TextShape"><tspan class="TextParagraph" font-family="Arial, sans-serif" font-size="388px" font-weight="400"><tspan class="TextPosition" x="354" y="8766"><tspan fill="rgb(0,0,0)" stroke="none">20%</tspan></tspan></tspan></text>
 <text class="TextShape"><tspan class="TextParagraph" font-family="Arial, sans-serif" font-size="388px" font-weight="400"><tspan class="TextPosition" x="354" y="7803"><tspan fill="rgb(0,0,0)" stroke="none">30%</tspan></tspan></tspan></text>
 <text class="TextShape"><tspan class="TextParagraph" font-family="Arial, sans-serif" font-size="388px" font-weight="400"><tspan class="TextPosition" x="354" y="6840"><tspan fill="rgb(0,0,0)" stroke="none">40%</tspan></tspan></tspan></text>
 <text class="TextShape"><tspan class="TextParagraph" font-family="Arial, sans-serif" font-size="388px" font-weight="400"><tspan class="TextPosition" x="354" y="5877"><tspan fill="rgb(0,0,0)" stroke="none">50%</tspan></tspan></tspan></text>
 <text class="TextShape"><tspan class="TextParagraph" font-family="Arial, sans-serif" font-size="388px" font-weight="400"><tspan class="TextPosition" x="354" y="4914"><tspan fill="rgb(0,0,0)" stroke="none">60%</tspan></tspan></tspan></text>
 <text class="TextShape"><tspan class="TextParagraph" font-family="Arial, sans-serif" font-size="388px" font-weight="400"><tspan class="TextPosition" x="354" y="3951"><tspan fill="rgb(0,0,0)" stroke="none">70%</tspan></tspan></tspan></text>
 <text class="TextShape"><tspan class="TextParagraph" font-family="Arial, sans-serif" font-size="388px" font-weight="400"><tspan class="TextPosition" x="354" y="2988"><tspan fill="rgb(0,0,0)" stroke="none">80%</tspan></tspan></tspan></text>
 <text class="TextShape"><tspan class="TextParagraph" font-family="Arial, sans-serif" font-size="388px" font-weight="400"><tspan class="TextPosition" x="354" y="2025"><tspan fill="rgb(0,0,0)" stroke="none">90%</tspan></tspan></tspan></text>
 <text class="TextShape"><tspan class="TextParagraph" font-family="Arial, sans-serif" font-size="388px" font-weight="400"><tspan class="TextPosition" x="142" y="1063"><tspan fill="rgb(0,0,0)" stroke="none">100%</tspan></tspan></tspan></text>
 <text class="TextShape"><tspan class="TextParagraph" font-family="Arial, sans-serif" font-size="388px" font-weight="400"><tspan class="TextPosition" x="15340" y="10692"><tspan fill="rgb(0,0,0)" stroke="none">0%</tspan></tspan></tspan></text>
 <text class="TextShape"><tspan class="TextParagraph" font-family="Arial, sans-serif" font-size="388px" font-weight="400"><tspan class="TextPosition" x="15340" y="9729"><tspan fill="rgb(0,0,0)" stroke="none">10%</tspan></tspan></tspan></text>
 <text class="TextShape"><tspan class="TextParagraph" font-family="Arial, sans-serif" font-size="388px" font-weight="400"><tspan class="TextPosition" x="15340" y="8766"><tspan fill="rgb(0,0,0)" stroke="none">20%</tspan></tspan></tspan></text>
 <text class="TextShape"><tspan class="TextParagraph" font-family="Arial, sans-serif" font-size="388px" font-weight="400"><tspan class="TextPosition" x="15340" y="7803"><tspan fill="rgb(0,0,0)" stroke="none">30%</tspan></tspan></tspan></text>
 <text class="TextShape"><tspan class="TextParagraph" font-family="Arial, sans-serif" font-size="388px" font-weight="400"><tspan class="TextPosition" x="15340" y="6840"><tspan fill="rgb(0,0,0)" stroke="none">40%</tspan></tspan></tspan></text>
 <text class="TextShape"><tspan class="TextParagraph" font-family="Arial, sans-serif" font-size="388px" font-weight="400"><tspan class="TextPosition" x="15340" y="5877"><tspan fill="rgb(0,0,0)" stroke="none">50%</tspan></tspan></tspan></text>
 <text class="TextShape"><tspan class="TextParagraph" font-family="Arial, sans-serif" font-size="388px" font-weight="400"><tspan class="TextPosition" x="15340" y="4914"><tspan fill="rgb(0,0,0)" stroke="none">60%</tspan></tspan></tspan></text>
 <text class="TextShape"><tspan class="TextParagraph" font-family="Arial, sans-serif" font-size="388px" font-weight="400"><tspan class="TextPosition" x="15340" y="3951"><tspan fill="rgb(0,0,0)" stroke="none">70%</tspan></tspan></tspan></text>
 <text class="TextShape"><tspan class="TextParagraph" font-family="Arial, sans-serif" font-size="388px" font-weight="400"><tspan class="TextPosition" x="15340" y="2988"><tspan fill="rgb(0,0,0)" stroke="none">80%</tspan></tspan></tspan></text>
 <text class="TextShape"><tspan class="TextParagraph" font-family="Arial, sans-serif" font-size="388px" font-weight="400"><tspan class="TextPosition" x="15340" y="2025"><tspan fill="rgb(0,0,0)" stroke="none">90%</tspan></tspan></tspan></text>
 <text class="TextShape"><tspan class="TextParagraph" font-family="Arial, sans-serif" font-size="388px" font-weight="400"><tspan class="TextPosition" x="15340" y="1063"><tspan fill="rgb(0,0,0)" stroke="none">100%</tspan></tspan></tspan></text>
 <text class="TextShape"><tspan class="TextParagraph" font-family="Arial, sans-serif" font-size="635px" font-weight="700"><tspan class="TextPosition" x="3371" y="747"><tspan fill="rgb(0,0,0)" stroke="none">Utilizacin de sistemas operativos</tspan></tspan></tspan></text>
 <path fill="rgb(0,69,134)" stroke="none" d="M 10750,12057 L 10644,12057 10644,11846 10855,11846 10855,12057 10750,12057 Z"/>
 <path fill="none" stroke="rgb(0,0,0)" stroke-linejoin="round" d="M 10750,12057 L 10644,12057 10644,11846 10855,11846 10855,12057 10750,12057 Z"/>
 <path fill="rgb(51,153,102)" stroke="none" d="M 9112,12057 L 9006,12057 9006,11846 9217,11846 9217,12057 9112,12057 Z"/>
 <path fill="none" stroke="rgb(0,0,0)" stroke-linejoin="round" d="M 9112,12057 L 9006,12057 9006,11846 9217,11846 9217,12057 9112,12057 Z"/>
 <path fill="rgb(131,202,255)" stroke="none" d="M 7421,12057 L 7316,12057 7316,11846 7527,11846 7527,12057 7421,12057 Z"/>
 <path fill="rgb(0,204,255)" stroke="none" d="M 5466,12057 L 5361,12057 5361,11846 5572,11846 5572,12057 5466,12057 Z"/>
 <path fill="none" stroke="rgb(0,0,0)" stroke-linejoin="round" d="M 5466,12057 L 5361,12057 5361,11846 5572,11846 5572,12057 5466,12057 Z"/>
 <path fill="rgb(0,102,204)" stroke="none" d="M 4093,12057 L 3988,12057 3988,11846 4199,11846 4199,12057 4093,12057 Z"/>
 <path fill="none" stroke="rgb(0,0,0)" stroke-linejoin="round" d="M 4093,12057 L 3988,12057 3988,11846 4199,11846 4199,12057 4093,12057 Z"/>
 <path fill="rgb(0,132,209)" stroke="none" d="M 12361,11498 L 12255,11498 12255,11287 12466,11287 12466,11498 12361,11498 Z"/>
 <path fill="none" stroke="rgb(0,0,0)" stroke-linejoin="round" d="M 12361,11498 L 12255,11498 12255,11287 12466,11287 12466,11498 12361,11498 Z"/>
 <path fill="rgb(0,69,134)" stroke="none" d="M 10750,11498 L 10644,11498 10644,11287 10855,11287 10855,11498 10750,11498 Z"/>
 <path fill="none" stroke="rgb(0,0,0)" stroke-linejoin="round" d="M 10750,11498 L 10644,11498 10644,11287 10855,11287 10855,11498 10750,11498 Z"/>
 <path fill="rgb(0,102,0)" stroke="none" d="M 9112,11498 L 9006,11498 9006,11287 9217,11287 9217,11498 9112,11498 Z"/>
 <path fill="none" stroke="rgb(0,0,0)" stroke-linejoin="round" d="M 9112,11498 L 9006,11498 9006,11287 9217,11287 9217,11498 9112,11498 Z"/>
 <path fill="rgb(255,211,32)" stroke="none" d="M 7421,11498 L 7316,11498 7316,11287 7527,11287 7527,11498 7421,11498 Z"/>
 <path fill="none" stroke="rgb(0,0,0)" stroke-linejoin="round" d="M 7421,11498 L 7316,11498 7316,11287 7527,11287 7527,11498 7421,11498 Z"/>
 <path fill="rgb(255,51,51)" stroke="none" d="M 5466,11498 L 5361,11498 5361,11287 5572,11287 5572,11498 5466,11498 Z"/>
 <path fill="none" stroke="rgb(0,0,0)" stroke-linejoin="round" d="M 5466,11498 L 5361,11498 5361,11287 5572,11287 5572,11498 5466,11498 Z"/>
 <path fill="rgb(255,255,255)" stroke="none" d="M 4093,11498 L 3988,11498 3988,11287 4199,11287 4199,11498 4093,11498 Z"/>
 <text class="TextShape"><tspan class="TextParagraph" font-family="Arial, sans-serif" font-size="353px" font-weight="400"><tspan class="TextPosition" x="4299" y="11511"><tspan fill="rgb(0,0,0)" stroke="none">Otros</tspan></tspan></tspan></text>
 <text class="TextShape"><tspan class="TextParagraph" font-family="Arial, sans-serif" font-size="353px" font-weight="400"><tspan class="TextPosition" x="5672" y="11511"><tspan fill="rgb(0,0,0)" stroke="none">Linux</tspan></tspan></tspan></text>
 <text class="TextShape"><tspan class="TextParagraph" font-family="Arial, sans-serif" font-size="353px" font-weight="400"><tspan class="TextPosition" x="7627" y="11511"><tspan fill="rgb(0,0,0)" stroke="none">Mviles</tspan></tspan></tspan></text>
 <text class="TextShape"><tspan class="TextParagraph" font-family="Arial, sans-serif" font-size="353px" font-weight="400"><tspan class="TextPosition" x="9317" y="11511"><tspan fill="rgb(0,0,0)" stroke="none">Mac</tspan></tspan></tspan></text>
 <text class="TextShape"><tspan class="TextParagraph" font-family="Arial, sans-serif" font-size="353px" font-weight="400"><tspan class="TextPosition" x="10955" y="11511"><tspan fill="rgb(0,0,0)" stroke="none">Win 10</tspan></tspan></tspan></text>
 <text class="TextShape"><tspan class="TextParagraph" font-family="Arial, sans-serif" font-size="353px" font-weight="400"><tspan class="TextPosition" x="12566" y="11511"><tspan fill="rgb(0,0,0)" stroke="none">Win 8</tspan></tspan></tspan></text>
 <text class="TextShape"><tspan class="TextParagraph" font-family="Arial, sans-serif" font-size="353px" font-weight="400"><tspan class="TextPosition" x="4299" y="12070"><tspan fill="rgb(0,0,0)" stroke="none">Win 7</tspan></tspan></tspan></text>
 <text class="TextShape"><tspan class="TextParagraph" font-family="Arial, sans-serif" font-size="353px" font-weight="400"><tspan class="TextPosition" x="5672" y="12070"><tspan fill="rgb(0,0,0)" stroke="none">Win Vista</tspan></tspan></tspan></text>
 <text class="TextShape"><tspan class="TextParagraph" font-family="Arial, sans-serif" font-size="353px" font-weight="400"><tspan class="TextPosition" x="7627" y="12070"><tspan fill="rgb(0,0,0)" stroke="none">Win XP</tspan></tspan></tspan></text>
 <text class="TextShape"><tspan class="TextParagraph" font-family="Arial, sans-serif" font-size="353px" font-weight="400"><tspan class="TextPosition" x="9317" y="12070"><tspan fill="rgb(0,0,0)" stroke="none">Win NT</tspan></tspan></tspan></text>
 <text class="TextShape"><tspan class="TextParagraph" font-family="Arial, sans-serif" font-size="353px" font-weight="400"><tspan class="TextPosition" x="10955" y="12070"><tspan fill="rgb(0,0,0)" stroke="none">Win 9X</tspan></tspan></tspan></text>
</svg>
