<?xml version="1.0" encoding="UTF-8"?>
<!DOCTYPE svg PUBLIC "-//W3C//DTD SVG 1.1//EN" "http://www.w3.org/Graphics/SVG/1.1/DTD/svg11.dtd">
<svg width="165mm" height="123mm" viewBox="0 0 16500 12300" version="1.1" xmlns="http://www.w3.org/2000/svg" stroke-width="28.222" stroke-linejoin="round" xml:space="preserve">
 <path fill="rgb(255,255,255)" stroke="none" d="M 8256,12341 L 24,12341 24,0 16487,0 16487,12341 8256,12341 Z"/>
 <path fill="none" stroke="rgb(179,179,179)" stroke-linejoin="round" d="M 8231,10559 L 1371,10559 1371,931 15090,931 15090,10559 8231,10559 Z"/>
 <path fill="none" stroke="rgb(179,179,179)" stroke-linejoin="round" d="M 15090,10558 L 1371,10558"/>
 <path fill="none" stroke="rgb(179,179,179)" stroke-linejoin="round" d="M 15090,9595 L 1371,9595"/>
 <path fill="none" stroke="rgb(179,179,179)" stroke-linejoin="round" d="M 15090,8632 L 1371,8632"/>
 <path fill="none" stroke="rgb(179,179,179)" stroke-linejoin="round" d="M 15090,7669 L 1371,7669"/>
 <path fill="none" stroke="rgb(179,179,179)" stroke-linejoin="round" d="M 15090,6706 L 1371,6706"/>
 <path fill="none" stroke="rgb(179,179,179)" stroke-linejoin="round" d="M 15090,5744 L 1371,5744"/>
 <path fill="none" stroke="rgb(179,179,179)" stroke-linejoin="round" d="M 15090,4781 L 1371,4781"/>
 <path fill="none" stroke="rgb(179,179,179)" stroke-linejoin="round" d="M 15090,3818 L 1371,3818"/>
 <path fill="none" stroke="rgb(179,179,179)" stroke-linejoin="round" d="M 15090,2855 L 1371,2855"/>
 <path fill="none" stroke="rgb(179,179,179)" stroke-linejoin="round" d="M 15090,1892 L 1371,1892"/>
 <path fill="none" stroke="rgb(179,179,179)" stroke-linejoin="round" d="M 15090,930 L 1371,930"/>
 <path fill="none" stroke="rgb(0,0,0)" stroke-linejoin="round" d="M 1371,10708 L 1371,10558"/>
 <path fill="none" stroke="rgb(0,0,0)" stroke-linejoin="round" d="M 1371,10708 L 1371,10558"/>
 <path fill="none" stroke="rgb(0,0,0)" stroke-linejoin="round" d="M 1487,10708 L 1487,10558"/>
 <path fill="none" stroke="rgb(0,0,0)" stroke-linejoin="round" d="M 1487,10708 L 1487,10558"/>
 <path fill="none" stroke="rgb(0,0,0)" stroke-linejoin="round" d="M 1603,10708 L 1603,10558"/>
 <path fill="none" stroke="rgb(0,0,0)" stroke-linejoin="round" d="M 1603,10708 L 1603,10558"/>
 <path fill="none" stroke="rgb(0,0,0)" stroke-linejoin="round" d="M 1719,10708 L 1719,10558"/>
 <path fill="none" stroke="rgb(0,0,0)" stroke-linejoin="round" d="M 1719,10708 L 1719,10558"/>
 <path fill="none" stroke="rgb(0,0,0)" stroke-linejoin="round" d="M 1836,10708 L 1836,10558"/>
 <path fill="none" stroke="rgb(0,0,0)" stroke-linejoin="round" d="M 1836,10708 L 1836,10558"/>
 <path fill="none" stroke="rgb(0,0,0)" stroke-linejoin="round" d="M 1952,10708 L 1952,10558"/>
 <path fill="none" stroke="rgb(0,0,0)" stroke-linejoin="round" d="M 1952,10708 L 1952,10558"/>
 <path fill="none" stroke="rgb(0,0,0)" stroke-linejoin="round" d="M 2068,10708 L 2068,10558"/>
 <path fill="none" stroke="rgb(0,0,0)" stroke-linejoin="round" d="M 2068,10708 L 2068,10558"/>
 <path fill="none" stroke="rgb(0,0,0)" stroke-linejoin="round" d="M 2184,10708 L 2184,10558"/>
 <path fill="none" stroke="rgb(0,0,0)" stroke-linejoin="round" d="M 2184,10708 L 2184,10558"/>
 <path fill="none" stroke="rgb(0,0,0)" stroke-linejoin="round" d="M 2301,10708 L 2301,10558"/>
 <path fill="none" stroke="rgb(0,0,0)" stroke-linejoin="round" d="M 2301,10708 L 2301,10558"/>
 <path fill="none" stroke="rgb(0,0,0)" stroke-linejoin="round" d="M 2417,10708 L 2417,10558"/>
 <path fill="none" stroke="rgb(0,0,0)" stroke-linejoin="round" d="M 2417,10708 L 2417,10558"/>
 <path fill="none" stroke="rgb(0,0,0)" stroke-linejoin="round" d="M 2533,10708 L 2533,10558"/>
 <path fill="none" stroke="rgb(0,0,0)" stroke-linejoin="round" d="M 2533,10708 L 2533,10558"/>
 <path fill="none" stroke="rgb(0,0,0)" stroke-linejoin="round" d="M 2649,10708 L 2649,10558"/>
 <path fill="none" stroke="rgb(0,0,0)" stroke-linejoin="round" d="M 2649,10708 L 2649,10558"/>
 <path fill="none" stroke="rgb(0,0,0)" stroke-linejoin="round" d="M 2766,10708 L 2766,10558"/>
 <path fill="none" stroke="rgb(0,0,0)" stroke-linejoin="round" d="M 2766,10708 L 2766,10558"/>
 <path fill="none" stroke="rgb(0,0,0)" stroke-linejoin="round" d="M 2882,10708 L 2882,10558"/>
 <path fill="none" stroke="rgb(0,0,0)" stroke-linejoin="round" d="M 2882,10708 L 2882,10558"/>
 <path fill="none" stroke="rgb(0,0,0)" stroke-linejoin="round" d="M 2998,10708 L 2998,10558"/>
 <path fill="none" stroke="rgb(0,0,0)" stroke-linejoin="round" d="M 2998,10708 L 2998,10558"/>
 <path fill="none" stroke="rgb(0,0,0)" stroke-linejoin="round" d="M 3115,10708 L 3115,10558"/>
 <path fill="none" stroke="rgb(0,0,0)" stroke-linejoin="round" d="M 3115,10708 L 3115,10558"/>
 <path fill="none" stroke="rgb(0,0,0)" stroke-linejoin="round" d="M 3231,10708 L 3231,10558"/>
 <path fill="none" stroke="rgb(0,0,0)" stroke-linejoin="round" d="M 3231,10708 L 3231,10558"/>
 <path fill="none" stroke="rgb(0,0,0)" stroke-linejoin="round" d="M 3347,10708 L 3347,10558"/>
 <path fill="none" stroke="rgb(0,0,0)" stroke-linejoin="round" d="M 3347,10708 L 3347,10558"/>
 <path fill="none" stroke="rgb(0,0,0)" stroke-linejoin="round" d="M 3463,10708 L 3463,10558"/>
 <path fill="none" stroke="rgb(0,0,0)" stroke-linejoin="round" d="M 3463,10708 L 3463,10558"/>
 <path fill="none" stroke="rgb(0,0,0)" stroke-linejoin="round" d="M 3580,10708 L 3580,10558"/>
 <path fill="none" stroke="rgb(0,0,0)" stroke-linejoin="round" d="M 3580,10708 L 3580,10558"/>
 <path fill="none" stroke="rgb(0,0,0)" stroke-linejoin="round" d="M 3696,10708 L 3696,10558"/>
 <path fill="none" stroke="rgb(0,0,0)" stroke-linejoin="round" d="M 3696,10708 L 3696,10558"/>
 <path fill="none" stroke="rgb(0,0,0)" stroke-linejoin="round" d="M 3812,10708 L 3812,10558"/>
 <path fill="none" stroke="rgb(0,0,0)" stroke-linejoin="round" d="M 3812,10708 L 3812,10558"/>
 <path fill="none" stroke="rgb(0,0,0)" stroke-linejoin="round" d="M 3928,10708 L 3928,10558"/>
 <path fill="none" stroke="rgb(0,0,0)" stroke-linejoin="round" d="M 3928,10708 L 3928,10558"/>
 <path fill="none" stroke="rgb(0,0,0)" stroke-linejoin="round" d="M 4045,10708 L 4045,10558"/>
 <path fill="none" stroke="rgb(0,0,0)" stroke-linejoin="round" d="M 4045,10708 L 4045,10558"/>
 <path fill="none" stroke="rgb(0,0,0)" stroke-linejoin="round" d="M 4161,10708 L 4161,10558"/>
 <path fill="none" stroke="rgb(0,0,0)" stroke-linejoin="round" d="M 4161,10708 L 4161,10558"/>
 <path fill="none" stroke="rgb(0,0,0)" stroke-linejoin="round" d="M 4277,10708 L 4277,10558"/>
 <path fill="none" stroke="rgb(0,0,0)" stroke-linejoin="round" d="M 4277,10708 L 4277,10558"/>
 <path fill="none" stroke="rgb(0,0,0)" stroke-linejoin="round" d="M 4394,10708 L 4394,10558"/>
 <path fill="none" stroke="rgb(0,0,0)" stroke-linejoin="round" d="M 4394,10708 L 4394,10558"/>
 <path fill="none" stroke="rgb(0,0,0)" stroke-linejoin="round" d="M 4510,10708 L 4510,10558"/>
 <path fill="none" stroke="rgb(0,0,0)" stroke-linejoin="round" d="M 4510,10708 L 4510,10558"/>
 <path fill="none" stroke="rgb(0,0,0)" stroke-linejoin="round" d="M 4626,10708 L 4626,10558"/>
 <path fill="none" stroke="rgb(0,0,0)" stroke-linejoin="round" d="M 4626,10708 L 4626,10558"/>
 <path fill="none" stroke="rgb(0,0,0)" stroke-linejoin="round" d="M 4742,10708 L 4742,10558"/>
 <path fill="none" stroke="rgb(0,0,0)" stroke-linejoin="round" d="M 4742,10708 L 4742,10558"/>
 <path fill="none" stroke="rgb(0,0,0)" stroke-linejoin="round" d="M 4859,10708 L 4859,10558"/>
 <path fill="none" stroke="rgb(0,0,0)" stroke-linejoin="round" d="M 4859,10708 L 4859,10558"/>
 <path fill="none" stroke="rgb(0,0,0)" stroke-linejoin="round" d="M 4975,10708 L 4975,10558"/>
 <path fill="none" stroke="rgb(0,0,0)" stroke-linejoin="round" d="M 4975,10708 L 4975,10558"/>
 <path fill="none" stroke="rgb(0,0,0)" stroke-linejoin="round" d="M 5091,10708 L 5091,10558"/>
 <path fill="none" stroke="rgb(0,0,0)" stroke-linejoin="round" d="M 5091,10708 L 5091,10558"/>
 <path fill="none" stroke="rgb(0,0,0)" stroke-linejoin="round" d="M 5207,10708 L 5207,10558"/>
 <path fill="none" stroke="rgb(0,0,0)" stroke-linejoin="round" d="M 5207,10708 L 5207,10558"/>
 <path fill="none" stroke="rgb(0,0,0)" stroke-linejoin="round" d="M 5324,10708 L 5324,10558"/>
 <path fill="none" stroke="rgb(0,0,0)" stroke-linejoin="round" d="M 5324,10708 L 5324,10558"/>
 <path fill="none" stroke="rgb(0,0,0)" stroke-linejoin="round" d="M 5440,10708 L 5440,10558"/>
 <path fill="none" stroke="rgb(0,0,0)" stroke-linejoin="round" d="M 5440,10708 L 5440,10558"/>
 <path fill="none" stroke="rgb(0,0,0)" stroke-linejoin="round" d="M 5556,10708 L 5556,10558"/>
 <path fill="none" stroke="rgb(0,0,0)" stroke-linejoin="round" d="M 5556,10708 L 5556,10558"/>
 <path fill="none" stroke="rgb(0,0,0)" stroke-linejoin="round" d="M 5673,10708 L 5673,10558"/>
 <path fill="none" stroke="rgb(0,0,0)" stroke-linejoin="round" d="M 5673,10708 L 5673,10558"/>
 <path fill="none" stroke="rgb(0,0,0)" stroke-linejoin="round" d="M 5789,10708 L 5789,10558"/>
 <path fill="none" stroke="rgb(0,0,0)" stroke-linejoin="round" d="M 5789,10708 L 5789,10558"/>
 <path fill="none" stroke="rgb(0,0,0)" stroke-linejoin="round" d="M 5905,10708 L 5905,10558"/>
 <path fill="none" stroke="rgb(0,0,0)" stroke-linejoin="round" d="M 5905,10708 L 5905,10558"/>
 <path fill="none" stroke="rgb(0,0,0)" stroke-linejoin="round" d="M 6021,10708 L 6021,10558"/>
 <path fill="none" stroke="rgb(0,0,0)" stroke-linejoin="round" d="M 6021,10708 L 6021,10558"/>
 <path fill="none" stroke="rgb(0,0,0)" stroke-linejoin="round" d="M 6138,10708 L 6138,10558"/>
 <path fill="none" stroke="rgb(0,0,0)" stroke-linejoin="round" d="M 6138,10708 L 6138,10558"/>
 <path fill="none" stroke="rgb(0,0,0)" stroke-linejoin="round" d="M 6254,10708 L 6254,10558"/>
 <path fill="none" stroke="rgb(0,0,0)" stroke-linejoin="round" d="M 6254,10708 L 6254,10558"/>
 <path fill="none" stroke="rgb(0,0,0)" stroke-linejoin="round" d="M 6370,10708 L 6370,10558"/>
 <path fill="none" stroke="rgb(0,0,0)" stroke-linejoin="round" d="M 6370,10708 L 6370,10558"/>
 <path fill="none" stroke="rgb(0,0,0)" stroke-linejoin="round" d="M 6486,10708 L 6486,10558"/>
 <path fill="none" stroke="rgb(0,0,0)" stroke-linejoin="round" d="M 6486,10708 L 6486,10558"/>
 <path fill="none" stroke="rgb(0,0,0)" stroke-linejoin="round" d="M 6603,10708 L 6603,10558"/>
 <path fill="none" stroke="rgb(0,0,0)" stroke-linejoin="round" d="M 6603,10708 L 6603,10558"/>
 <path fill="none" stroke="rgb(0,0,0)" stroke-linejoin="round" d="M 6719,10708 L 6719,10558"/>
 <path fill="none" stroke="rgb(0,0,0)" stroke-linejoin="round" d="M 6719,10708 L 6719,10558"/>
 <path fill="none" stroke="rgb(0,0,0)" stroke-linejoin="round" d="M 6835,10708 L 6835,10558"/>
 <path fill="none" stroke="rgb(0,0,0)" stroke-linejoin="round" d="M 6835,10708 L 6835,10558"/>
 <path fill="none" stroke="rgb(0,0,0)" stroke-linejoin="round" d="M 6952,10708 L 6952,10558"/>
 <path fill="none" stroke="rgb(0,0,0)" stroke-linejoin="round" d="M 6952,10708 L 6952,10558"/>
 <path fill="none" stroke="rgb(0,0,0)" stroke-linejoin="round" d="M 7068,10708 L 7068,10558"/>
 <path fill="none" stroke="rgb(0,0,0)" stroke-linejoin="round" d="M 7068,10708 L 7068,10558"/>
 <path fill="none" stroke="rgb(0,0,0)" stroke-linejoin="round" d="M 7184,10708 L 7184,10558"/>
 <path fill="none" stroke="rgb(0,0,0)" stroke-linejoin="round" d="M 7184,10708 L 7184,10558"/>
 <path fill="none" stroke="rgb(0,0,0)" stroke-linejoin="round" d="M 7300,10708 L 7300,10558"/>
 <path fill="none" stroke="rgb(0,0,0)" stroke-linejoin="round" d="M 7300,10708 L 7300,10558"/>
 <path fill="none" stroke="rgb(0,0,0)" stroke-linejoin="round" d="M 7417,10708 L 7417,10558"/>
 <path fill="none" stroke="rgb(0,0,0)" stroke-linejoin="round" d="M 7417,10708 L 7417,10558"/>
 <path fill="none" stroke="rgb(0,0,0)" stroke-linejoin="round" d="M 7533,10708 L 7533,10558"/>
 <path fill="none" stroke="rgb(0,0,0)" stroke-linejoin="round" d="M 7533,10708 L 7533,10558"/>
 <path fill="none" stroke="rgb(0,0,0)" stroke-linejoin="round" d="M 7649,10708 L 7649,10558"/>
 <path fill="none" stroke="rgb(0,0,0)" stroke-linejoin="round" d="M 7649,10708 L 7649,10558"/>
 <path fill="none" stroke="rgb(0,0,0)" stroke-linejoin="round" d="M 7765,10708 L 7765,10558"/>
 <path fill="none" stroke="rgb(0,0,0)" stroke-linejoin="round" d="M 7765,10708 L 7765,10558"/>
 <path fill="none" stroke="rgb(0,0,0)" stroke-linejoin="round" d="M 7882,10708 L 7882,10558"/>
 <path fill="none" stroke="rgb(0,0,0)" stroke-linejoin="round" d="M 7882,10708 L 7882,10558"/>
 <path fill="none" stroke="rgb(0,0,0)" stroke-linejoin="round" d="M 7998,10708 L 7998,10558"/>
 <path fill="none" stroke="rgb(0,0,0)" stroke-linejoin="round" d="M 7998,10708 L 7998,10558"/>
 <path fill="none" stroke="rgb(0,0,0)" stroke-linejoin="round" d="M 8114,10708 L 8114,10558"/>
 <path fill="none" stroke="rgb(0,0,0)" stroke-linejoin="round" d="M 8114,10708 L 8114,10558"/>
 <path fill="none" stroke="rgb(0,0,0)" stroke-linejoin="round" d="M 8231,10708 L 8231,10558"/>
 <path fill="none" stroke="rgb(0,0,0)" stroke-linejoin="round" d="M 8231,10708 L 8231,10558"/>
 <path fill="none" stroke="rgb(0,0,0)" stroke-linejoin="round" d="M 8346,10708 L 8346,10558"/>
 <path fill="none" stroke="rgb(0,0,0)" stroke-linejoin="round" d="M 8346,10708 L 8346,10558"/>
 <path fill="none" stroke="rgb(0,0,0)" stroke-linejoin="round" d="M 8462,10708 L 8462,10558"/>
 <path fill="none" stroke="rgb(0,0,0)" stroke-linejoin="round" d="M 8462,10708 L 8462,10558"/>
 <path fill="none" stroke="rgb(0,0,0)" stroke-linejoin="round" d="M 8578,10708 L 8578,10558"/>
 <path fill="none" stroke="rgb(0,0,0)" stroke-linejoin="round" d="M 8578,10708 L 8578,10558"/>
 <path fill="none" stroke="rgb(0,0,0)" stroke-linejoin="round" d="M 8695,10708 L 8695,10558"/>
 <path fill="none" stroke="rgb(0,0,0)" stroke-linejoin="round" d="M 8695,10708 L 8695,10558"/>
 <path fill="none" stroke="rgb(0,0,0)" stroke-linejoin="round" d="M 8811,10708 L 8811,10558"/>
 <path fill="none" stroke="rgb(0,0,0)" stroke-linejoin="round" d="M 8811,10708 L 8811,10558"/>
 <path fill="none" stroke="rgb(0,0,0)" stroke-linejoin="round" d="M 8927,10708 L 8927,10558"/>
 <path fill="none" stroke="rgb(0,0,0)" stroke-linejoin="round" d="M 8927,10708 L 8927,10558"/>
 <path fill="none" stroke="rgb(0,0,0)" stroke-linejoin="round" d="M 9043,10708 L 9043,10558"/>
 <path fill="none" stroke="rgb(0,0,0)" stroke-linejoin="round" d="M 9043,10708 L 9043,10558"/>
 <path fill="none" stroke="rgb(0,0,0)" stroke-linejoin="round" d="M 9160,10708 L 9160,10558"/>
 <path fill="none" stroke="rgb(0,0,0)" stroke-linejoin="round" d="M 9160,10708 L 9160,10558"/>
 <path fill="none" stroke="rgb(0,0,0)" stroke-linejoin="round" d="M 9276,10708 L 9276,10558"/>
 <path fill="none" stroke="rgb(0,0,0)" stroke-linejoin="round" d="M 9276,10708 L 9276,10558"/>
 <path fill="none" stroke="rgb(0,0,0)" stroke-linejoin="round" d="M 9392,10708 L 9392,10558"/>
 <path fill="none" stroke="rgb(0,0,0)" stroke-linejoin="round" d="M 9392,10708 L 9392,10558"/>
 <path fill="none" stroke="rgb(0,0,0)" stroke-linejoin="round" d="M 9508,10708 L 9508,10558"/>
 <path fill="none" stroke="rgb(0,0,0)" stroke-linejoin="round" d="M 9508,10708 L 9508,10558"/>
 <path fill="none" stroke="rgb(0,0,0)" stroke-linejoin="round" d="M 9625,10708 L 9625,10558"/>
 <path fill="none" stroke="rgb(0,0,0)" stroke-linejoin="round" d="M 9625,10708 L 9625,10558"/>
 <path fill="none" stroke="rgb(0,0,0)" stroke-linejoin="round" d="M 9741,10708 L 9741,10558"/>
 <path fill="none" stroke="rgb(0,0,0)" stroke-linejoin="round" d="M 9741,10708 L 9741,10558"/>
 <path fill="none" stroke="rgb(0,0,0)" stroke-linejoin="round" d="M 9857,10708 L 9857,10558"/>
 <path fill="none" stroke="rgb(0,0,0)" stroke-linejoin="round" d="M 9857,10708 L 9857,10558"/>
 <path fill="none" stroke="rgb(0,0,0)" stroke-linejoin="round" d="M 9974,10708 L 9974,10558"/>
 <path fill="none" stroke="rgb(0,0,0)" stroke-linejoin="round" d="M 9974,10708 L 9974,10558"/>
 <path fill="none" stroke="rgb(0,0,0)" stroke-linejoin="round" d="M 10090,10708 L 10090,10558"/>
 <path fill="none" stroke="rgb(0,0,0)" stroke-linejoin="round" d="M 10090,10708 L 10090,10558"/>
 <path fill="none" stroke="rgb(0,0,0)" stroke-linejoin="round" d="M 10206,10708 L 10206,10558"/>
 <path fill="none" stroke="rgb(0,0,0)" stroke-linejoin="round" d="M 10206,10708 L 10206,10558"/>
 <path fill="none" stroke="rgb(0,0,0)" stroke-linejoin="round" d="M 10322,10708 L 10322,10558"/>
 <path fill="none" stroke="rgb(0,0,0)" stroke-linejoin="round" d="M 10322,10708 L 10322,10558"/>
 <path fill="none" stroke="rgb(0,0,0)" stroke-linejoin="round" d="M 10439,10708 L 10439,10558"/>
 <path fill="none" stroke="rgb(0,0,0)" stroke-linejoin="round" d="M 10439,10708 L 10439,10558"/>
 <path fill="none" stroke="rgb(0,0,0)" stroke-linejoin="round" d="M 10555,10708 L 10555,10558"/>
 <path fill="none" stroke="rgb(0,0,0)" stroke-linejoin="round" d="M 10555,10708 L 10555,10558"/>
 <path fill="none" stroke="rgb(0,0,0)" stroke-linejoin="round" d="M 10671,10708 L 10671,10558"/>
 <path fill="none" stroke="rgb(0,0,0)" stroke-linejoin="round" d="M 10671,10708 L 10671,10558"/>
 <path fill="none" stroke="rgb(0,0,0)" stroke-linejoin="round" d="M 10787,10708 L 10787,10558"/>
 <path fill="none" stroke="rgb(0,0,0)" stroke-linejoin="round" d="M 10787,10708 L 10787,10558"/>
 <path fill="none" stroke="rgb(0,0,0)" stroke-linejoin="round" d="M 10904,10708 L 10904,10558"/>
 <path fill="none" stroke="rgb(0,0,0)" stroke-linejoin="round" d="M 10904,10708 L 10904,10558"/>
 <path fill="none" stroke="rgb(0,0,0)" stroke-linejoin="round" d="M 11020,10708 L 11020,10558"/>
 <path fill="none" stroke="rgb(0,0,0)" stroke-linejoin="round" d="M 11020,10708 L 11020,10558"/>
 <path fill="none" stroke="rgb(0,0,0)" stroke-linejoin="round" d="M 11136,10708 L 11136,10558"/>
 <path fill="none" stroke="rgb(0,0,0)" stroke-linejoin="round" d="M 11136,10708 L 11136,10558"/>
 <path fill="none" stroke="rgb(0,0,0)" stroke-linejoin="round" d="M 11253,10708 L 11253,10558"/>
 <path fill="none" stroke="rgb(0,0,0)" stroke-linejoin="round" d="M 11253,10708 L 11253,10558"/>
 <path fill="none" stroke="rgb(0,0,0)" stroke-linejoin="round" d="M 11369,10708 L 11369,10558"/>
 <path fill="none" stroke="rgb(0,0,0)" stroke-linejoin="round" d="M 11369,10708 L 11369,10558"/>
 <path fill="none" stroke="rgb(0,0,0)" stroke-linejoin="round" d="M 11485,10708 L 11485,10558"/>
 <path fill="none" stroke="rgb(0,0,0)" stroke-linejoin="round" d="M 11485,10708 L 11485,10558"/>
 <path fill="none" stroke="rgb(0,0,0)" stroke-linejoin="round" d="M 11601,10708 L 11601,10558"/>
 <path fill="none" stroke="rgb(0,0,0)" stroke-linejoin="round" d="M 11601,10708 L 11601,10558"/>
 <path fill="none" stroke="rgb(0,0,0)" stroke-linejoin="round" d="M 11718,10708 L 11718,10558"/>
 <path fill="none" stroke="rgb(0,0,0)" stroke-linejoin="round" d="M 11718,10708 L 11718,10558"/>
 <path fill="none" stroke="rgb(0,0,0)" stroke-linejoin="round" d="M 11834,10708 L 11834,10558"/>
 <path fill="none" stroke="rgb(0,0,0)" stroke-linejoin="round" d="M 11834,10708 L 11834,10558"/>
 <path fill="none" stroke="rgb(0,0,0)" stroke-linejoin="round" d="M 11950,10708 L 11950,10558"/>
 <path fill="none" stroke="rgb(0,0,0)" stroke-linejoin="round" d="M 11950,10708 L 11950,10558"/>
 <path fill="none" stroke="rgb(0,0,0)" stroke-linejoin="round" d="M 12066,10708 L 12066,10558"/>
 <path fill="none" stroke="rgb(0,0,0)" stroke-linejoin="round" d="M 12066,10708 L 12066,10558"/>
 <path fill="none" stroke="rgb(0,0,0)" stroke-linejoin="round" d="M 12183,10708 L 12183,10558"/>
 <path fill="none" stroke="rgb(0,0,0)" stroke-linejoin="round" d="M 12183,10708 L 12183,10558"/>
 <path fill="none" stroke="rgb(0,0,0)" stroke-linejoin="round" d="M 12299,10708 L 12299,10558"/>
 <path fill="none" stroke="rgb(0,0,0)" stroke-linejoin="round" d="M 12299,10708 L 12299,10558"/>
 <path fill="none" stroke="rgb(0,0,0)" stroke-linejoin="round" d="M 12415,10708 L 12415,10558"/>
 <path fill="none" stroke="rgb(0,0,0)" stroke-linejoin="round" d="M 12415,10708 L 12415,10558"/>
 <path fill="none" stroke="rgb(0,0,0)" stroke-linejoin="round" d="M 12532,10708 L 12532,10558"/>
 <path fill="none" stroke="rgb(0,0,0)" stroke-linejoin="round" d="M 12532,10708 L 12532,10558"/>
 <path fill="none" stroke="rgb(0,0,0)" stroke-linejoin="round" d="M 12648,10708 L 12648,10558"/>
 <path fill="none" stroke="rgb(0,0,0)" stroke-linejoin="round" d="M 12648,10708 L 12648,10558"/>
 <path fill="none" stroke="rgb(0,0,0)" stroke-linejoin="round" d="M 12764,10708 L 12764,10558"/>
 <path fill="none" stroke="rgb(0,0,0)" stroke-linejoin="round" d="M 12764,10708 L 12764,10558"/>
 <path fill="none" stroke="rgb(0,0,0)" stroke-linejoin="round" d="M 12880,10708 L 12880,10558"/>
 <path fill="none" stroke="rgb(0,0,0)" stroke-linejoin="round" d="M 12880,10708 L 12880,10558"/>
 <path fill="none" stroke="rgb(0,0,0)" stroke-linejoin="round" d="M 12997,10708 L 12997,10558"/>
 <path fill="none" stroke="rgb(0,0,0)" stroke-linejoin="round" d="M 12997,10708 L 12997,10558"/>
 <path fill="none" stroke="rgb(0,0,0)" stroke-linejoin="round" d="M 13113,10708 L 13113,10558"/>
 <path fill="none" stroke="rgb(0,0,0)" stroke-linejoin="round" d="M 13113,10708 L 13113,10558"/>
 <path fill="none" stroke="rgb(0,0,0)" stroke-linejoin="round" d="M 13229,10708 L 13229,10558"/>
 <path fill="none" stroke="rgb(0,0,0)" stroke-linejoin="round" d="M 13229,10708 L 13229,10558"/>
 <path fill="none" stroke="rgb(0,0,0)" stroke-linejoin="round" d="M 13345,10708 L 13345,10558"/>
 <path fill="none" stroke="rgb(0,0,0)" stroke-linejoin="round" d="M 13345,10708 L 13345,10558"/>
 <path fill="none" stroke="rgb(0,0,0)" stroke-linejoin="round" d="M 13462,10708 L 13462,10558"/>
 <path fill="none" stroke="rgb(0,0,0)" stroke-linejoin="round" d="M 13462,10708 L 13462,10558"/>
 <path fill="none" stroke="rgb(0,0,0)" stroke-linejoin="round" d="M 13578,10708 L 13578,10558"/>
 <path fill="none" stroke="rgb(0,0,0)" stroke-linejoin="round" d="M 13578,10708 L 13578,10558"/>
 <path fill="none" stroke="rgb(0,0,0)" stroke-linejoin="round" d="M 13694,10708 L 13694,10558"/>
 <path fill="none" stroke="rgb(0,0,0)" stroke-linejoin="round" d="M 13694,10708 L 13694,10558"/>
 <path fill="none" stroke="rgb(0,0,0)" stroke-linejoin="round" d="M 13811,10708 L 13811,10558"/>
 <path fill="none" stroke="rgb(0,0,0)" stroke-linejoin="round" d="M 13811,10708 L 13811,10558"/>
 <path fill="none" stroke="rgb(0,0,0)" stroke-linejoin="round" d="M 13927,10708 L 13927,10558"/>
 <path fill="none" stroke="rgb(0,0,0)" stroke-linejoin="round" d="M 13927,10708 L 13927,10558"/>
 <path fill="none" stroke="rgb(0,0,0)" stroke-linejoin="round" d="M 14043,10708 L 14043,10558"/>
 <path fill="none" stroke="rgb(0,0,0)" stroke-linejoin="round" d="M 14043,10708 L 14043,10558"/>
 <path fill="none" stroke="rgb(0,0,0)" stroke-linejoin="round" d="M 14159,10708 L 14159,10558"/>
 <path fill="none" stroke="rgb(0,0,0)" stroke-linejoin="round" d="M 14159,10708 L 14159,10558"/>
 <path fill="none" stroke="rgb(0,0,0)" stroke-linejoin="round" d="M 14276,10708 L 14276,10558"/>
 <path fill="none" stroke="rgb(0,0,0)" stroke-linejoin="round" d="M 14276,10708 L 14276,10558"/>
 <path fill="none" stroke="rgb(0,0,0)" stroke-linejoin="round" d="M 14392,10708 L 14392,10558"/>
 <path fill="none" stroke="rgb(0,0,0)" stroke-linejoin="round" d="M 14392,10708 L 14392,10558"/>
 <path fill="none" stroke="rgb(0,0,0)" stroke-linejoin="round" d="M 14508,10708 L 14508,10558"/>
 <path fill="none" stroke="rgb(0,0,0)" stroke-linejoin="round" d="M 14508,10708 L 14508,10558"/>
 <path fill="none" stroke="rgb(0,0,0)" stroke-linejoin="round" d="M 14624,10708 L 14624,10558"/>
 <path fill="none" stroke="rgb(0,0,0)" stroke-linejoin="round" d="M 14624,10708 L 14624,10558"/>
 <path fill="none" stroke="rgb(0,0,0)" stroke-linejoin="round" d="M 14741,10708 L 14741,10558"/>
 <path fill="none" stroke="rgb(0,0,0)" stroke-linejoin="round" d="M 14741,10708 L 14741,10558"/>
 <path fill="none" stroke="rgb(0,0,0)" stroke-linejoin="round" d="M 14857,10708 L 14857,10558"/>
 <path fill="none" stroke="rgb(0,0,0)" stroke-linejoin="round" d="M 14857,10708 L 14857,10558"/>
 <path fill="none" stroke="rgb(0,0,0)" stroke-linejoin="round" d="M 14973,10708 L 14973,10558"/>
 <path fill="none" stroke="rgb(0,0,0)" stroke-linejoin="round" d="M 14973,10708 L 14973,10558"/>
 <path fill="none" stroke="rgb(0,0,0)" stroke-linejoin="round" d="M 15090,10708 L 15090,10558"/>
 <path fill="none" stroke="rgb(0,0,0)" stroke-linejoin="round" d="M 15090,10708 L 15090,10558"/>
 <path fill="none" stroke="rgb(0,0,0)" stroke-linejoin="round" d="M 1371,10558 L 15090,10558"/>
 <path fill="none" stroke="rgb(0,0,0)" stroke-linejoin="round" d="M 1221,10558 L 1371,10558"/>
 <path fill="none" stroke="rgb(0,0,0)" stroke-linejoin="round" d="M 1221,10558 L 1371,10558"/>
 <path fill="none" stroke="rgb(0,0,0)" stroke-linejoin="round" d="M 1221,9595 L 1371,9595"/>
 <path fill="none" stroke="rgb(0,0,0)" stroke-linejoin="round" d="M 1221,9595 L 1371,9595"/>
 <path fill="none" stroke="rgb(0,0,0)" stroke-linejoin="round" d="M 1221,8632 L 1371,8632"/>
 <path fill="none" stroke="rgb(0,0,0)" stroke-linejoin="round" d="M 1221,8632 L 1371,8632"/>
 <path fill="none" stroke="rgb(0,0,0)" stroke-linejoin="round" d="M 1221,7669 L 1371,7669"/>
 <path fill="none" stroke="rgb(0,0,0)" stroke-linejoin="round" d="M 1221,7669 L 1371,7669"/>
 <path fill="none" stroke="rgb(0,0,0)" stroke-linejoin="round" d="M 1221,6706 L 1371,6706"/>
 <path fill="none" stroke="rgb(0,0,0)" stroke-linejoin="round" d="M 1221,6706 L 1371,6706"/>
 <path fill="none" stroke="rgb(0,0,0)" stroke-linejoin="round" d="M 1221,5744 L 1371,5744"/>
 <path fill="none" stroke="rgb(0,0,0)" stroke-linejoin="round" d="M 1221,5744 L 1371,5744"/>
 <path fill="none" stroke="rgb(0,0,0)" stroke-linejoin="round" d="M 1221,4781 L 1371,4781"/>
 <path fill="none" stroke="rgb(0,0,0)" stroke-linejoin="round" d="M 1221,4781 L 1371,4781"/>
 <path fill="none" stroke="rgb(0,0,0)" stroke-linejoin="round" d="M 1221,3818 L 1371,3818"/>
 <path fill="none" stroke="rgb(0,0,0)" stroke-linejoin="round" d="M 1221,3818 L 1371,3818"/>
 <path fill="none" stroke="rgb(0,0,0)" stroke-linejoin="round" d="M 1221,2855 L 1371,2855"/>
 <path fill="none" stroke="rgb(0,0,0)" stroke-linejoin="round" d="M 1221,2855 L 1371,2855"/>
 <path fill="none" stroke="rgb(0,0,0)" stroke-linejoin="round" d="M 1221,1892 L 1371,1892"/>
 <path fill="none" stroke="rgb(0,0,0)" stroke-linejoin="round" d="M 1221,1892 L 1371,1892"/>
 <path fill="none" stroke="rgb(0,0,0)" stroke-linejoin="round" d="M 1221,930 L 1371,930"/>
 <path fill="none" stroke="rgb(0,0,0)" stroke-linejoin="round" d="M 1221,930 L 1371,930"/>
 <path fill="none" stroke="rgb(0,0,0)" stroke-linejoin="round" d="M 1371,10558 L 1371,930"/>
 <path fill="none" stroke="rgb(0,0,0)" stroke-linejoin="round" d="M 15240,10558 L 15090,10558"/>
 <path fill="none" stroke="rgb(0,0,0)" stroke-linejoin="round" d="M 15240,10558 L 15090,10558"/>
 <path fill="none" stroke="rgb(0,0,0)" stroke-linejoin="round" d="M 15240,9595 L 15090,9595"/>
 <path fill="none" stroke="rgb(0,0,0)" stroke-linejoin="round" d="M 15240,9595 L 15090,9595"/>
 <path fill="none" stroke="rgb(0,0,0)" stroke-linejoin="round" d="M 15240,8632 L 15090,8632"/>
 <path fill="none" stroke="rgb(0,0,0)" stroke-linejoin="round" d="M 15240,8632 L 15090,8632"/>
 <path fill="none" stroke="rgb(0,0,0)" stroke-linejoin="round" d="M 15240,7669 L 15090,7669"/>
 <path fill="none" stroke="rgb(0,0,0)" stroke-linejoin="round" d="M 15240,7669 L 15090,7669"/>
 <path fill="none" stroke="rgb(0,0,0)" stroke-linejoin="round" d="M 15240,6706 L 15090,6706"/>
 <path fill="none" stroke="rgb(0,0,0)" stroke-linejoin="round" d="M 15240,6706 L 15090,6706"/>
 <path fill="none" stroke="rgb(0,0,0)" stroke-linejoin="round" d="M 15240,5744 L 15090,5744"/>
 <path fill="none" stroke="rgb(0,0,0)" stroke-linejoin="round" d="M 15240,5744 L 15090,5744"/>
 <path fill="none" stroke="rgb(0,0,0)" stroke-linejoin="round" d="M 15240,4781 L 15090,4781"/>
 <path fill="none" stroke="rgb(0,0,0)" stroke-linejoin="round" d="M 15240,4781 L 15090,4781"/>
 <path fill="none" stroke="rgb(0,0,0)" stroke-linejoin="round" d="M 15240,3818 L 15090,3818"/>
 <path fill="none" stroke="rgb(0,0,0)" stroke-linejoin="round" d="M 15240,3818 L 15090,3818"/>
 <path fill="none" stroke="rgb(0,0,0)" stroke-linejoin="round" d="M 15240,2855 L 15090,2855"/>
 <path fill="none" stroke="rgb(0,0,0)" stroke-linejoin="round" d="M 15240,2855 L 15090,2855"/>
 <path fill="none" stroke="rgb(0,0,0)" stroke-linejoin="round" d="M 15240,1892 L 15090,1892"/>
 <path fill="none" stroke="rgb(0,0,0)" stroke-linejoin="round" d="M 15240,1892 L 15090,1892"/>
 <path fill="none" stroke="rgb(0,0,0)" stroke-linejoin="round" d="M 15240,930 L 15090,930"/>
 <path fill="none" stroke="rgb(0,0,0)" stroke-linejoin="round" d="M 15240,930 L 15090,930"/>
 <path fill="none" stroke="rgb(0,0,0)" stroke-linejoin="round" d="M 15090,10558 L 15090,930"/>
 <path fill="rgb(0,69,134)" stroke="none" d="M 1371,10435 L 1487,10447 1603,10457 1719,10467 1836,10468 1952,10438 2068,10470 2184,10491 2301,10498 2417,10502 2533,10506 2649,10510 2766,10558 2882,10558 2998,10558 3115,10558 3231,10558 3347,10558 3463,10558 3580,10558 3696,10558 3812,10558 3928,10558 4045,10558 4161,10558 4277,10558 4394,10558 4510,10558 4626,10558 4742,10558 4859,10558 4975,10558 5091,10558 5207,10558 5324,10558 5440,10558 5556,10558 5673,10558 5789,10558 5905,10558 6021,10558 6138,10558 6254,10558 6370,10558 6486,10558 6603,10558 6719,10558 6835,10558 6952,10558 7068,10558 7184,10558 7300,10558 7417,10558 7533,10558 7649,10558 7765,10558 7882,10558 7998,10558 8114,10558 8231,10558 8346,10558 8462,10558 8578,10558 8695,10558 8811,10558 8927,10558 9043,10558 9160,10558 9276,10558 9392,10558 9508,10558 9625,10558 9741,10558 9857,10558 9974,10558 10090,10558 10206,10558 10322,10558 10439,10558 10555,10558 10671,10558 10787,10558 10904,10558 11020,10558 11136,10558 11253,10558 11369,10558 11485,10558 11601,10558 11718,10558 11834,10558 11950,10558 12066,10558 12183,10558 12299,10558 12415,10558 12532,10558 12648,10558 12764,10558 12880,10558 12997,10558 13113,10558 13229,10558 13345,10558 13462,10558 13578,10558 13694,10558 13811,10558 13927,10558 14043,10558 14159,10558 14276,10558 14392,10558 14508,10558 14624,10558 14741,10558 14857,10558 14973,10558 15090,10558 15090,10558 1371,10558 1371,10435 Z"/>
 <path fill="none" stroke="rgb(0,0,0)" stroke-linejoin="round" d="M 1371,10435 L 1487,10447 1603,10457 1719,10467 1836,10468 1952,10438 2068,10470 2184,10491 2301,10498 2417,10502 2533,10506 2649,10510 2766,10558 2882,10558 2998,10558 3115,10558 3231,10558 3347,10558 3463,10558 3580,10558 3696,10558 3812,10558 3928,10558 4045,10558 4161,10558 4277,10558 4394,10558 4510,10558 4626,10558 4742,10558 4859,10558 4975,10558 5091,10558 5207,10558 5324,10558 5440,10558 5556,10558 5673,10558 5789,10558 5905,10558 6021,10558 6138,10558 6254,10558 6370,10558 6486,10558 6603,10558 6719,10558 6835,10558 6952,10558 7068,10558 7184,10558 7300,10558 7417,10558 7533,10558 7649,10558 7765,10558 7882,10558 7998,10558 8114,10558 8231,10558 8346,10558 8462,10558 8578,10558 8695,10558 8811,10558 8927,10558 9043,10558 9160,10558 9276,10558 9392,10558 9508,10558 9625,10558 9741,10558 9857,10558 9974,10558 10090,10558 10206,10558 10322,10558 10439,10558 10555,10558 10671,10558 10787,10558 10904,10558 11020,10558 11136,10558 11253,10558 11369,10558 11485,10558 11601,10558 11718,10558 11834,10558 11950,10558 12066,10558 12183,10558 12299,10558 12415,10558 12532,10558 12648,10558 12764,10558 12880,10558 12997,10558 13113,10558 13229,10558 13345,10558 13462,10558 13578,10558 13694,10558 13811,10558 13927,10558 14043,10558 14159,10558 14276,10558 14392,10558 14508,10558 14624,10558 14741,10558 14857,10558 14973,10558 15090,10558 15090,10558 1371,10558 1371,10435 Z"/>
 <path fill="rgb(51,153,102)" stroke="none" d="M 1371,10069 L 1487,10124 1603,10109 1719,10136 1836,10142 1952,10112 2068,10159 2184,10213 2301,10230 2417,10249 2533,10214 2649,10269 2766,10317 2882,10369 2998,10404 3115,10408 3231,10415 3347,10424 3463,10435 3580,10443 3696,10452 3812,10457 3928,10466 4045,10473 4161,10482 4277,10488 4394,10491 4510,10454 4626,10483 4742,10493 4859,10496 4975,10504 5091,10504 5207,10509 5324,10507 5440,10485 5556,10506 5673,10506 5789,10519 5905,10514 6021,10518 6138,10525 6254,10518 6370,10513 6486,10497 6603,10525 6719,10558 6835,10558 6952,10558 7068,10558 7184,10558 7300,10558 7417,10558 7533,10558 7649,10558 7765,10558 7882,10558 7998,10558 8114,10558 8231,10558 8346,10558 8462,10558 8578,10558 8695,10558 8811,10558 8927,10558 9043,10558 9160,10558 9276,10558 9392,10558 9508,10558 9625,10558 9741,10558 9857,10558 9974,10558 10090,10558 10206,10558 10322,10558 10439,10558 10555,10558 10671,10558 10787,10558 10904,10558 11020,10558 11136,10558 11253,10558 11369,10558 11485,10558 11601,10558 11718,10558 11834,10558 11950,10558 12066,10558 12183,10558 12299,10558 12415,10558 12532,10558 12648,10558 12764,10558 12880,10558 12997,10558 13113,10558 13229,10558 13345,10558 13462,10558 13578,10558 13694,10558 13811,10558 13927,10558 14043,10558 14159,10558 14276,10558 14392,10558 14508,10558 14624,10558 14741,10558 14857,10558 14973,10558 15090,10558 15090,10558 14973,10558 14857,10558 14741,10558 14624,10558 14508,10558 14392,10558 14276,10558 14159,10558 14043,10558 13927,10558 13811,10558 13694,10558 13578,10558 13462,10558 13345,10558 13229,10558 13113,10558 12997,10558 12880,10558 12764,10558 12648,10558 12532,10558 12415,10558 12299,10558 12183,10558 12066,10558 11950,10558 11834,10558 11718,10558 11601,10558 11485,10558 11369,10558 11253,10558 11136,10558 11020,10558 10904,10558 10787,10558 10671,10558 10555,10558 10439,10558 10322,10558 10206,10558 10090,10558 9974,10558 9857,10558 9741,10558 9625,10558 9508,10558 9392,10558 9276,10558 9160,10558 9043,10558 8927,10558 8811,10558 8695,10558 8578,10558 8462,10558 8346,10558 8231,10558 8114,10558 7998,10558 7882,10558 7765,10558 7649,10558 7533,10558 7417,10558 7300,10558 7184,10558 7068,10558 6952,10558 6835,10558 6719,10558 6603,10558 6486,10558 6370,10558 6254,10558 6138,10558 6021,10558 5905,10558 5789,10558 5673,10558 5556,10558 5440,10558 5324,10558 5207,10558 5091,10558 4975,10558 4859,10558 4742,10558 4626,10558 4510,10558 4394,10558 4277,10558 4161,10558 4045,10558 3928,10558 3812,10558 3696,10558 3580,10558 3463,10558 3347,10558 3231,10558 3115,10558 2998,10558 2882,10558 2766,10558 2649,10510 2533,10506 2417,10502 2301,10498 2184,10491 2068,10470 1952,10438 1836,10468 1719,10467 1603,10457 1487,10447 1371,10435 1371,10069 Z"/>
 <path fill="none" stroke="rgb(0,0,0)" stroke-linejoin="round" d="M 1371,10069 L 1487,10124 1603,10109 1719,10136 1836,10142 1952,10112 2068,10159 2184,10213 2301,10230 2417,10249 2533,10214 2649,10269 2766,10317 2882,10369 2998,10404 3115,10408 3231,10415 3347,10424 3463,10435 3580,10443 3696,10452 3812,10457 3928,10466 4045,10473 4161,10482 4277,10488 4394,10491 4510,10454 4626,10483 4742,10493 4859,10496 4975,10504 5091,10504 5207,10509 5324,10507 5440,10485 5556,10506 5673,10506 5789,10519 5905,10514 6021,10518 6138,10525 6254,10518 6370,10513 6486,10497 6603,10525 6719,10558 6835,10558 6952,10558 7068,10558 7184,10558 7300,10558 7417,10558 7533,10558 7649,10558 7765,10558 7882,10558 7998,10558 8114,10558 8231,10558 8346,10558 8462,10558 8578,10558 8695,10558 8811,10558 8927,10558 9043,10558 9160,10558 9276,10558 9392,10558 9508,10558 9625,10558 9741,10558 9857,10558 9974,10558 10090,10558 10206,10558 10322,10558 10439,10558 10555,10558 10671,10558 10787,10558 10904,10558 11020,10558 11136,10558 11253,10558 11369,10558 11485,10558 11601,10558 11718,10558 11834,10558 11950,10558 12066,10558 12183,10558 12299,10558 12415,10558 12532,10558 12648,10558 12764,10558 12880,10558 12997,10558 13113,10558 13229,10558 13345,10558 13462,10558 13578,10558 13694,10558 13811,10558 13927,10558 14043,10558 14159,10558 14276,10558 14392,10558 14508,10558 14624,10558 14741,10558 14857,10558 14973,10558 15090,10558 15090,10558 14973,10558 14857,10558 14741,10558 14624,10558 14508,10558 14392,10558 14276,10558 14159,10558 14043,10558 13927,10558 13811,10558 13694,10558 13578,10558 13462,10558 13345,10558 13229,10558 13113,10558 12997,10558 12880,10558 12764,10558 12648,10558 12532,10558 12415,10558 12299,10558 12183,10558 12066,10558 11950,10558 11834,10558 11718,10558 11601,10558 11485,10558 11369,10558 11253,10558 11136,10558 11020,10558 10904,10558 10787,10558 10671,10558 10555,10558 10439,10558 10322,10558 10206,10558 10090,10558 9974,10558 9857,10558 9741,10558 9625,10558 9508,10558 9392,10558 9276,10558 9160,10558 9043,10558 8927,10558 8811,10558 8695,10558 8578,10558 8462,10558 8346,10558 8231,10558 8114,10558 7998,10558 7882,10558 7765,10558 7649,10558 7533,10558 7417,10558 7300,10558 7184,10558 7068,10558 6952,10558 6835,10558 6719,10558 6603,10558 6486,10558 6370,10558 6254,10558 6138,10558 6021,10558 5905,10558 5789,10558 5673,10558 5556,10558 5440,10558 5324,10558 5207,10558 5091,10558 4975,10558 4859,10558 4742,10558 4626,10558 4510,10558 4394,10558 4277,10558 4161,10558 4045,10558 3928,10558 3812,10558 3696,10558 3580,10558 3463,10558 3347,10558 3231,10558 3115,10558 2998,10558 2882,10558 2766,10558 2649,10510 2533,10506 2417,10502 2301,10498 2184,10491 2068,10470 1952,10438 1836,10468 1719,10467 1603,10457 1487,10447 1371,10435 1371,10069 Z"/>
 <path fill="rgb(131,202,255)" stroke="none" d="M 1371,2020 L 1487,2149 1603,2140 1719,2205 1836,2278 1952,2275 2068,2388 2184,2482 2301,2517 2417,2592 2533,2651 2649,2728 2766,2886 2882,2991 2998,3101 3115,3122 3231,3192 3347,3254 3463,3338 3580,3355 3696,3430 3812,3546 3928,3581 4045,3687 4161,3836 4277,3960 4394,4107 4510,4148 4626,4278 4742,4391 4859,4476 4975,4493 5091,4547 5207,4647 5324,4728 5440,4798 5556,4933 5673,5046 5789,5199 5905,5211 6021,5282 6138,5405 6254,5472 6370,5591 6486,5713 6603,5818 6719,6005 6835,6202 6952,6184 7068,6437 7184,6430 7300,6515 7417,6384 7533,6456 7649,6586 7765,6713 7882,6813 7998,6851 8114,6954 8231,7058 8346,7135 8462,7217 8578,7219 8695,7323 8811,7292 8927,7290 9043,7349 9160,7408 9276,7443 9392,7775 9508,7892 9625,7938 9741,7967 9857,8158 9974,8187 10090,8208 10206,8321 10322,8458 10439,8571 10555,8552 10671,8612 10787,8677 10904,8638 11020,9189 11136,9484 11253,9099 11369,9115 11485,9066 11601,9242 11718,9374 11834,9425 11950,9640 12066,9669 12183,9624 12299,9657 12415,9708 12532,9769 12648,9769 12764,9751 12880,9764 12997,9821 13113,9928 13229,9897 13345,9879 13462,9842 13578,9920 13694,9969 13811,9998 13927,9975 14043,9965 14159,9953 14276,10012 14392,10109 14508,10128 14624,10192 14741,10122 14857,10158 14973,10182 15090,10229 15090,10558 14973,10558 14857,10558 14741,10558 14624,10558 14508,10558 14392,10558 14276,10558 14159,10558 14043,10558 13927,10558 13811,10558 13694,10558 13578,10558 13462,10558 13345,10558 13229,10558 13113,10558 12997,10558 12880,10558 12764,10558 12648,10558 12532,10558 12415,10558 12299,10558 12183,10558 12066,10558 11950,10558 11834,10558 11718,10558 11601,10558 11485,10558 11369,10558 11253,10558 11136,10558 11020,10558 10904,10558 10787,10558 10671,10558 10555,10558 10439,10558 10322,10558 10206,10558 10090,10558 9974,10558 9857,10558 9741,10558 9625,10558 9508,10558 9392,10558 9276,10558 9160,10558 9043,10558 8927,10558 8811,10558 8695,10558 8578,10558 8462,10558 8346,10558 8231,10558 8114,10558 7998,10558 7882,10558 7765,10558 7649,10558 7533,10558 7417,10558 7300,10558 7184,10558 7068,10558 6952,10558 6835,10558 6719,10558 6603,10525 6486,10497 6370,10513 6254,10518 6138,10525 6021,10518 5905,10514 5789,10519 5673,10506 5556,10506 5440,10485 5324,10507 5207,10509 5091,10504 4975,10504 4859,10496 4742,10493 4626,10483 4510,10454 4394,10491 4277,10488 4161,10482 4045,10473 3928,10466 3812,10457 3696,10452 3580,10443 3463,10435 3347,10424 3231,10415 3115,10408 2998,10404 2882,10369 2766,10317 2649,10269 2533,10214 2417,10249 2301,10230 2184,10213 2068,10159 1952,10112 1836,10142 1719,10136 1603,10109 1487,10124 1371,10069 1371,2020 Z"/>
 <path fill="rgb(0,204,255)" stroke="none" d="M 1371,1345 L 1487,1370 1603,1386 1719,1390 1836,1399 1952,1371 2068,1413 2184,1407 2301,1394 2417,1398 2533,1422 2649,1420 2766,1511 2882,1556 2998,1587 3115,1587 3231,1609 3347,1617 3463,1666 3580,1662 3696,1707 3812,1735 3928,1788 4045,1874 4161,2046 4277,2239 4394,2433 4510,2559 4626,2736 4742,2886 4859,3006 4975,3080 5091,3166 5207,3299 5324,3443 5440,3558 5556,3718 5673,3880 5789,4076 5905,4150 6021,4265 6138,4421 6254,4516 6370,4674 6486,4821 6603,4975 6719,5185 6835,5401 6952,5427 7068,5690 7184,5712 7300,5795 7417,5704 7533,5805 7649,5978 7765,6122 7882,6236 7998,6315 8114,6425 8231,6559 8346,6645 8462,6732 8578,6777 8695,6894 8811,6872 8927,6885 9043,6966 9160,7017 9276,7088 9392,7435 9508,7554 9625,7634 9741,7670 9857,7859 9974,7920 10090,7961 10206,8079 10322,8227 10439,8344 10555,8319 10671,8373 10787,8439 10904,8391 11020,8965 11136,9275 11253,8869 11369,8930 11485,8902 11601,9089 11718,9229 11834,9269 11950,9516 12066,9530 12183,9484 12299,9529 12415,9581 12532,9649 12648,9651 12764,9632 12880,9647 12997,9726 13113,9840 13229,9809 13345,9795 13462,9758 13578,9849 13694,9898 13811,9923 13927,9901 14043,9896 14159,9898 14276,9962 14392,10065 14508,10086 14624,10154 14741,10089 14857,10125 14973,10153 15090,10203 15090,10229 14973,10182 14857,10158 14741,10122 14624,10192 14508,10128 14392,10109 14276,10012 14159,9953 14043,9965 13927,9975 13811,9998 13694,9969 13578,9920 13462,9842 13345,9879 13229,9897 13113,9928 12997,9821 12880,9764 12764,9751 12648,9769 12532,9769 12415,9708 12299,9657 12183,9624 12066,9669 11950,9640 11834,9425 11718,9374 11601,9242 11485,9066 11369,9115 11253,9099 11136,9484 11020,9189 10904,8638 10787,8677 10671,8612 10555,8552 10439,8571 10322,8458 10206,8321 10090,8208 9974,8187 9857,8158 9741,7967 9625,7938 9508,7892 9392,7775 9276,7443 9160,7408 9043,7349 8927,7290 8811,7292 8695,7323 8578,7219 8462,7217 8346,7135 8231,7058 8114,6954 7998,6851 7882,6813 7765,6713 7649,6586 7533,6456 7417,6384 7300,6515 7184,6430 7068,6437 6952,6184 6835,6202 6719,6005 6603,5818 6486,5713 6370,5591 6254,5472 6138,5405 6021,5282 5905,5211 5789,5199 5673,5046 5556,4933 5440,4798 5324,4728 5207,4647 5091,4547 4975,4493 4859,4476 4742,4391 4626,4278 4510,4148 4394,4107 4277,3960 4161,3836 4045,3687 3928,3581 3812,3546 3696,3430 3580,3355 3463,3338 3347,3254 3231,3192 3115,3122 2998,3101 2882,2991 2766,2886 2649,2728 2533,2651 2417,2592 2301,2517 2184,2482 2068,2388 1952,2275 1836,2278 1719,2205 1603,2140 1487,2149 1371,2020 1371,1345 Z"/>
 <path fill="none" stroke="rgb(0,0,0)" stroke-linejoin="round" d="M 1371,1345 L 1487,1370 1603,1386 1719,1390 1836,1399 1952,1371 2068,1413 2184,1407 2301,1394 2417,1398 2533,1422 2649,1420 2766,1511 2882,1556 2998,1587 3115,1587 3231,1609 3347,1617 3463,1666 3580,1662 3696,1707 3812,1735 3928,1788 4045,1874 4161,2046 4277,2239 4394,2433 4510,2559 4626,2736 4742,2886 4859,3006 4975,3080 5091,3166 5207,3299 5324,3443 5440,3558 5556,3718 5673,3880 5789,4076 5905,4150 6021,4265 6138,4421 6254,4516 6370,4674 6486,4821 6603,4975 6719,5185 6835,5401 6952,5427 7068,5690 7184,5712 7300,5795 7417,5704 7533,5805 7649,5978 7765,6122 7882,6236 7998,6315 8114,6425 8231,6559 8346,6645 8462,6732 8578,6777 8695,6894 8811,6872 8927,6885 9043,6966 9160,7017 9276,7088 9392,7435 9508,7554 9625,7634 9741,7670 9857,7859 9974,7920 10090,7961 10206,8079 10322,8227 10439,8344 10555,8319 10671,8373 10787,8439 10904,8391 11020,8965 11136,9275 11253,8869 11369,8930 11485,8902 11601,9089 11718,9229 11834,9269 11950,9516 12066,9530 12183,9484 12299,9529 12415,9581 12532,9649 12648,9651 12764,9632 12880,9647 12997,9726 13113,9840 13229,9809 13345,9795 13462,9758 13578,9849 13694,9898 13811,9923 13927,9901 14043,9896 14159,9898 14276,9962 14392,10065 14508,10086 14624,10154 14741,10089 14857,10125 14973,10153 15090,10203 15090,10229 14973,10182 14857,10158 14741,10122 14624,10192 14508,10128 14392,10109 14276,10012 14159,9953 14043,9965 13927,9975 13811,9998 13694,9969 13578,9920 13462,9842 13345,9879 13229,9897 13113,9928 12997,9821 12880,9764 12764,9751 12648,9769 12532,9769 12415,9708 12299,9657 12183,9624 12066,9669 11950,9640 11834,9425 11718,9374 11601,9242 11485,9066 11369,9115 11253,9099 11136,9484 11020,9189 10904,8638 10787,8677 10671,8612 10555,8552 10439,8571 10322,8458 10206,8321 10090,8208 9974,8187 9857,8158 9741,7967 9625,7938 9508,7892 9392,7775 9276,7443 9160,7408 9043,7349 8927,7290 8811,7292 8695,7323 8578,7219 8462,7217 8346,7135 8231,7058 8114,6954 7998,6851 7882,6813 7765,6713 7649,6586 7533,6456 7417,6384 7300,6515 7184,6430 7068,6437 6952,6184 6835,6202 6719,6005 6603,5818 6486,5713 6370,5591 6254,5472 6138,5405 6021,5282 5905,5211 5789,5199 5673,5046 5556,4933 5440,4798 5324,4728 5207,4647 5091,4547 4975,4493 4859,4476 4742,4391 4626,4278 4510,4148 4394,4107 4277,3960 4161,3836 4045,3687 3928,3581 3812,3546 3696,3430 3580,3355 3463,3338 3347,3254 3231,3192 3115,3122 2998,3101 2882,2991 2766,2886 2649,2728 2533,2651 2417,2592 2301,2517 2184,2482 2068,2388 1952,2275 1836,2278 1719,2205 1603,2140 1487,2149 1371,2020 1371,1345 Z"/>
 <path fill="rgb(0,102,204)" stroke="none" d="M 1371,1345 L 1487,1370 1603,1386 1719,1390 1836,1399 1952,1371 2068,1413 2184,1407 2301,1394 2417,1398 2533,1422 2649,1420 2766,1511 2882,1556 2998,1587 3115,1587 3231,1609 3347,1587 3463,1612 3580,1590 3696,1621 3812,1622 3928,1642 4045,1667 4161,1662 4277,1692 4394,1709 4510,1700 4626,1751 4742,1762 4859,1786 4975,1760 5091,1774 5207,1771 5324,1796 5440,1802 5556,1822 5673,1870 5789,1928 5905,1928 6021,1938 6138,2003 6254,2023 6370,2062 6486,2132 6603,2229 6719,2261 6835,2262 6952,2331 7068,2414 7184,2528 7300,2401 7417,2360 7533,2363 7649,2391 7765,2456 7882,2549 7998,2588 8114,2577 8231,2714 8346,2803 8462,2877 8578,3019 8695,3199 8811,3102 8927,3072 9043,3155 9160,3259 9276,3364 9392,3665 9508,3619 9625,3744 9741,3800 9857,3924 9974,4082 10090,4197 10206,4142 10322,4293 10439,4409 10555,4314 10671,4360 10787,4410 10904,4155 11020,4747 11136,4827 11253,4391 11369,4677 11485,4545 11601,4584 11718,4892 11834,4790 11950,4844 12066,4933 12183,5053 12299,5360 12415,5530 12532,5472 12648,5631 12764,5929 12880,5951 12997,6222 13113,6662 13229,6633 13345,6391 13462,6508 13578,6630 13694,6778 13811,6647 13927,6719 14043,6742 14159,6787 14276,6837 14392,7086 14508,7128 14624,6955 14741,7012 14857,6925 14973,7155 15090,7444 15090,10203 14973,10153 14857,10125 14741,10089 14624,10154 14508,10086 14392,10065 14276,9962 14159,9898 14043,9896 13927,9901 13811,9923 13694,9898 13578,9849 13462,9758 13345,9795 13229,9809 13113,9840 12997,9726 12880,9647 12764,9632 12648,9651 12532,9649 12415,9581 12299,9529 12183,9484 12066,9530 11950,9516 11834,9269 11718,9229 11601,9089 11485,8902 11369,8930 11253,8869 11136,9275 11020,8965 10904,8391 10787,8439 10671,8373 10555,8319 10439,8344 10322,8227 10206,8079 10090,7961 9974,7920 9857,7859 9741,7670 9625,7634 9508,7554 9392,7435 9276,7088 9160,7017 9043,6966 8927,6885 8811,6872 8695,6894 8578,6777 8462,6732 8346,6645 8231,6559 8114,6425 7998,6315 7882,6236 7765,6122 7649,5978 7533,5805 7417,5704 7300,5795 7184,5712 7068,5690 6952,5427 6835,5401 6719,5185 6603,4975 6486,4821 6370,4674 6254,4516 6138,4421 6021,4265 5905,4150 5789,4076 5673,3880 5556,3718 5440,3558 5324,3443 5207,3299 5091,3166 4975,3080 4859,3006 4742,2886 4626,2736 4510,2559 4394,2433 4277,2239 4161,2046 4045,1874 3928,1788 3812,1735 3696,1707 3580,1662 3463,1666 3347,1617 3231,1609 3115,1587 2998,1587 2882,1556 2766,1511 2649,1420 2533,1422 2417,1398 2301,1394 2184,1407 2068,1413 1952,1371 1836,1399 1719,1390 1603,1386 1487,1370 1371,1345 Z"/>
 <path fill="none" stroke="rgb(0,0,0)" stroke-linejoin="round" d="M 1371,1345 L 1487,1370 1603,1386 1719,1390 1836,1399 1952,1371 2068,1413 2184,1407 2301,1394 2417,1398 2533,1422 2649,1420 2766,1511 2882,1556 2998,1587 3115,1587 3231,1609 3347,1587 3463,1612 3580,1590 3696,1621 3812,1622 3928,1642 4045,1667 4161,1662 4277,1692 4394,1709 4510,1700 4626,1751 4742,1762 4859,1786 4975,1760 5091,1774 5207,1771 5324,1796 5440,1802 5556,1822 5673,1870 5789,1928 5905,1928 6021,1938 6138,2003 6254,2023 6370,2062 6486,2132 6603,2229 6719,2261 6835,2262 6952,2331 7068,2414 7184,2528 7300,2401 7417,2360 7533,2363 7649,2391 7765,2456 7882,2549 7998,2588 8114,2577 8231,2714 8346,2803 8462,2877 8578,3019 8695,3199 8811,3102 8927,3072 9043,3155 9160,3259 9276,3364 9392,3665 9508,3619 9625,3744 9741,3800 9857,3924 9974,4082 10090,4197 10206,4142 10322,4293 10439,4409 10555,4314 10671,4360 10787,4410 10904,4155 11020,4747 11136,4827 11253,4391 11369,4677 11485,4545 11601,4584 11718,4892 11834,4790 11950,4844 12066,4933 12183,5053 12299,5360 12415,5530 12532,5472 12648,5631 12764,5929 12880,5951 12997,6222 13113,6662 13229,6633 13345,6391 13462,6508 13578,6630 13694,6778 13811,6647 13927,6719 14043,6742 14159,6787 14276,6837 14392,7086 14508,7128 14624,6955 14741,7012 14857,6925 14973,7155 15090,7444 15090,10203 14973,10153 14857,10125 14741,10089 14624,10154 14508,10086 14392,10065 14276,9962 14159,9898 14043,9896 13927,9901 13811,9923 13694,9898 13578,9849 13462,9758 13345,9795 13229,9809 13113,9840 12997,9726 12880,9647 12764,9632 12648,9651 12532,9649 12415,9581 12299,9529 12183,9484 12066,9530 11950,9516 11834,9269 11718,9229 11601,9089 11485,8902 11369,8930 11253,8869 11136,9275 11020,8965 10904,8391 10787,8439 10671,8373 10555,8319 10439,8344 10322,8227 10206,8079 10090,7961 9974,7920 9857,7859 9741,7670 9625,7634 9508,7554 9392,7435 9276,7088 9160,7017 9043,6966 8927,6885 8811,6872 8695,6894 8578,6777 8462,6732 8346,6645 8231,6559 8114,6425 7998,6315 7882,6236 7765,6122 7649,5978 7533,5805 7417,5704 7300,5795 7184,5712 7068,5690 6952,5427 6835,5401 6719,5185 6603,4975 6486,4821 6370,4674 6254,4516 6138,4421 6021,4265 5905,4150 5789,4076 5673,3880 5556,3718 5440,3558 5324,3443 5207,3299 5091,3166 4975,3080 4859,3006 4742,2886 4626,2736 4510,2559 4394,2433 4277,2239 4161,2046 4045,1874 3928,1788 3812,1735 3696,1707 3580,1662 3463,1666 3347,1617 3231,1609 3115,1587 2998,1587 2882,1556 2766,1511 2649,1420 2533,1422 2417,1398 2301,1394 2184,1407 2068,1413 1952,1371 1836,1399 1719,1390 1603,1386 1487,1370 1371,1345 Z"/>
 <path fill="rgb(0,132,209)" stroke="none" d="M 1371,1345 L 1487,1370 1603,1386 1719,1390 1836,1399 1952,1371 2068,1413 2184,1407 2301,1394 2417,1398 2533,1422 2649,1420 2766,1511 2882,1556 2998,1587 3115,1587 3231,1609 3347,1587 3463,1612 3580,1590 3696,1621 3812,1622 3928,1642 4045,1667 4161,1662 4277,1692 4394,1709 4510,1700 4626,1751 4742,1762 4859,1786 4975,1760 5091,1774 5207,1771 5324,1796 5440,1802 5556,1822 5673,1870 5789,1928 5905,1928 6021,1938 6138,2003 6254,2023 6370,2062 6486,2132 6603,2229 6719,2261 6835,2262 6952,2331 7068,2414 7184,2528 7300,2401 7417,2360 7533,2363 7649,2391 7765,2456 7882,2549 7998,2588 8114,2577 8231,2679 8346,2708 8462,2724 8578,2820 8695,2967 8811,2822 8927,2745 9043,2792 9160,2826 9276,2911 9392,3033 9508,2865 9625,2968 9741,3028 9857,3055 9974,3227 10090,3347 10206,3229 10322,3316 10439,3416 10555,3321 10671,3382 10787,3357 10904,3170 11020,3411 11136,3355 11253,3315 11369,3625 11485,3452 11601,3491 11718,3803 11834,3514 11950,3616 12066,3732 12183,3981 12299,4377 12415,4568 12532,4427 12648,4688 12764,5005 12880,5086 12997,5412 13113,5874 13229,5888 13345,5667 13462,5825 13578,5968 13694,6158 13811,5933 13927,6048 14043,6183 14159,6225 14276,6287 14392,6589 14508,6607 14624,6416 14741,6524 14857,6408 14973,6696 15090,7022 15090,7444 14973,7155 14857,6925 14741,7012 14624,6955 14508,7128 14392,7086 14276,6837 14159,6787 14043,6742 13927,6719 13811,6647 13694,6778 13578,6630 13462,6508 13345,6391 13229,6633 13113,6662 12997,6222 12880,5951 12764,5929 12648,5631 12532,5472 12415,5530 12299,5360 12183,5053 12066,4933 11950,4844 11834,4790 11718,4892 11601,4584 11485,4545 11369,4677 11253,4391 11136,4827 11020,4747 10904,4155 10787,4410 10671,4360 10555,4314 10439,4409 10322,4293 10206,4142 10090,4197 9974,4082 9857,3924 9741,3800 9625,3744 9508,3619 9392,3665 9276,3364 9160,3259 9043,3155 8927,3072 8811,3102 8695,3199 8578,3019 8462,2877 8346,2803 8231,2714 8114,2577 7998,2588 7882,2549 7765,2456 7649,2391 7533,2363 7417,2360 7300,2401 7184,2528 7068,2414 6952,2331 6835,2262 6719,2261 6603,2229 6486,2132 6370,2062 6254,2023 6138,2003 6021,1938 5905,1928 5789,1928 5673,1870 5556,1822 5440,1802 5324,1796 5207,1771 5091,1774 4975,1760 4859,1786 4742,1762 4626,1751 4510,1700 4394,1709 4277,1692 4161,1662 4045,1667 3928,1642 3812,1622 3696,1621 3580,1590 3463,1612 3347,1587 3231,1609 3115,1587 2998,1587 2882,1556 2766,1511 2649,1420 2533,1422 2417,1398 2301,1394 2184,1407 2068,1413 1952,1371 1836,1399 1719,1390 1603,1386 1487,1370 1371,1345 Z"/>
 <path fill="none" stroke="rgb(0,0,0)" stroke-linejoin="round" d="M 1371,1345 L 1487,1370 1603,1386 1719,1390 1836,1399 1952,1371 2068,1413 2184,1407 2301,1394 2417,1398 2533,1422 2649,1420 2766,1511 2882,1556 2998,1587 3115,1587 3231,1609 3347,1587 3463,1612 3580,1590 3696,1621 3812,1622 3928,1642 4045,1667 4161,1662 4277,1692 4394,1709 4510,1700 4626,1751 4742,1762 4859,1786 4975,1760 5091,1774 5207,1771 5324,1796 5440,1802 5556,1822 5673,1870 5789,1928 5905,1928 6021,1938 6138,2003 6254,2023 6370,2062 6486,2132 6603,2229 6719,2261 6835,2262 6952,2331 7068,2414 7184,2528 7300,2401 7417,2360 7533,2363 7649,2391 7765,2456 7882,2549 7998,2588 8114,2577 8231,2679 8346,2708 8462,2724 8578,2820 8695,2967 8811,2822 8927,2745 9043,2792 9160,2826 9276,2911 9392,3033 9508,2865 9625,2968 9741,3028 9857,3055 9974,3227 10090,3347 10206,3229 10322,3316 10439,3416 10555,3321 10671,3382 10787,3357 10904,3170 11020,3411 11136,3355 11253,3315 11369,3625 11485,3452 11601,3491 11718,3803 11834,3514 11950,3616 12066,3732 12183,3981 12299,4377 12415,4568 12532,4427 12648,4688 12764,5005 12880,5086 12997,5412 13113,5874 13229,5888 13345,5667 13462,5825 13578,5968 13694,6158 13811,5933 13927,6048 14043,6183 14159,6225 14276,6287 14392,6589 14508,6607 14624,6416 14741,6524 14857,6408 14973,6696 15090,7022 15090,7444 14973,7155 14857,6925 14741,7012 14624,6955 14508,7128 14392,7086 14276,6837 14159,6787 14043,6742 13927,6719 13811,6647 13694,6778 13578,6630 13462,6508 13345,6391 13229,6633 13113,6662 12997,6222 12880,5951 12764,5929 12648,5631 12532,5472 12415,5530 12299,5360 12183,5053 12066,4933 11950,4844 11834,4790 11718,4892 11601,4584 11485,4545 11369,4677 11253,4391 11136,4827 11020,4747 10904,4155 10787,4410 10671,4360 10555,4314 10439,4409 10322,4293 10206,4142 10090,4197 9974,4082 9857,3924 9741,3800 9625,3744 9508,3619 9392,3665 9276,3364 9160,3259 9043,3155 8927,3072 8811,3102 8695,3199 8578,3019 8462,2877 8346,2803 8231,2714 8114,2577 7998,2588 7882,2549 7765,2456 7649,2391 7533,2363 7417,2360 7300,2401 7184,2528 7068,2414 6952,2331 6835,2262 6719,2261 6603,2229 6486,2132 6370,2062 6254,2023 6138,2003 6021,1938 5905,1928 5789,1928 5673,1870 5556,1822 5440,1802 5324,1796 5207,1771 5091,1774 4975,1760 4859,1786 4742,1762 4626,1751 4510,1700 4394,1709 4277,1692 4161,1662 4045,1667 3928,1642 3812,1622 3696,1621 3580,1590 3463,1612 3347,1587 3231,1609 3115,1587 2998,1587 2882,1556 2766,1511 2649,1420 2533,1422 2417,1398 2301,1394 2184,1407 2068,1413 1952,1371 1836,1399 1719,1390 1603,1386 1487,1370 1371,1345 Z"/>
 <path fill="rgb(0,69,134)" stroke="none" d="M 1371,1345 L 1487,1370 1603,1386 1719,1390 1836,1399 1952,1371 2068,1413 2184,1407 2301,1394 2417,1398 2533,1422 2649,1420 2766,1511 2882,1556 2998,1587 3115,1587 3231,1609 3347,1587 3463,1612 3580,1590 3696,1621 3812,1622 3928,1642 4045,1667 4161,1662 4277,1692 4394,1709 4510,1700 4626,1751 4742,1762 4859,1786 4975,1760 5091,1774 5207,1771 5324,1796 5440,1802 5556,1822 5673,1870 5789,1928 5905,1928 6021,1938 6138,2003 6254,2023 6370,2062 6486,2132 6603,2229 6719,2261 6835,2262 6952,2331 7068,2414 7184,2528 7300,2401 7417,2360 7533,2363 7649,2391 7765,2456 7882,2549 7998,2588 8114,2577 8231,2679 8346,2708 8462,2724 8578,2820 8695,2967 8811,2822 8927,2745 9043,2792 9160,2826 9276,2911 9392,3033 9508,2865 9625,2968 9741,3028 9857,3055 9974,3227 10090,3347 10206,3229 10322,3316 10439,3416 10555,3321 10671,3382 10787,3357 10904,3170 11020,3411 11136,3355 11253,3315 11369,3625 11485,3452 11601,3491 11718,3803 11834,3514 11950,3616 12066,3703 12183,3580 12299,3887 12415,3991 12532,3756 12648,3969 12764,4169 12880,4180 12997,4456 13113,4939 13229,4748 13345,4339 13462,4365 13578,4402 13694,4701 13811,4403 13927,4448 14043,4595 14159,4558 14276,4661 14392,5061 14508,5005 14624,4685 14741,4843 14857,4602 14973,4964 15090,5313 15090,7022 14973,6696 14857,6408 14741,6524 14624,6416 14508,6607 14392,6589 14276,6287 14159,6225 14043,6183 13927,6048 13811,5933 13694,6158 13578,5968 13462,5825 13345,5667 13229,5888 13113,5874 12997,5412 12880,5086 12764,5005 12648,4688 12532,4427 12415,4568 12299,4377 12183,3981 12066,3732 11950,3616 11834,3514 11718,3803 11601,3491 11485,3452 11369,3625 11253,3315 11136,3355 11020,3411 10904,3170 10787,3357 10671,3382 10555,3321 10439,3416 10322,3316 10206,3229 10090,3347 9974,3227 9857,3055 9741,3028 9625,2968 9508,2865 9392,3033 9276,2911 9160,2826 9043,2792 8927,2745 8811,2822 8695,2967 8578,2820 8462,2724 8346,2708 8231,2679 8114,2577 7998,2588 7882,2549 7765,2456 7649,2391 7533,2363 7417,2360 7300,2401 7184,2528 7068,2414 6952,2331 6835,2262 6719,2261 6603,2229 6486,2132 6370,2062 6254,2023 6138,2003 6021,1938 5905,1928 5789,1928 5673,1870 5556,1822 5440,1802 5324,1796 5207,1771 5091,1774 4975,1760 4859,1786 4742,1762 4626,1751 4510,1700 4394,1709 4277,1692 4161,1662 4045,1667 3928,1642 3812,1622 3696,1621 3580,1590 3463,1612 3347,1587 3231,1609 3115,1587 2998,1587 2882,1556 2766,1511 2649,1420 2533,1422 2417,1398 2301,1394 2184,1407 2068,1413 1952,1371 1836,1399 1719,1390 1603,1386 1487,1370 1371,1345 Z"/>
 <path fill="none" stroke="rgb(0,0,0)" stroke-linejoin="round" d="M 1371,1345 L 1487,1370 1603,1386 1719,1390 1836,1399 1952,1371 2068,1413 2184,1407 2301,1394 2417,1398 2533,1422 2649,1420 2766,1511 2882,1556 2998,1587 3115,1587 3231,1609 3347,1587 3463,1612 3580,1590 3696,1621 3812,1622 3928,1642 4045,1667 4161,1662 4277,1692 4394,1709 4510,1700 4626,1751 4742,1762 4859,1786 4975,1760 5091,1774 5207,1771 5324,1796 5440,1802 5556,1822 5673,1870 5789,1928 5905,1928 6021,1938 6138,2003 6254,2023 6370,2062 6486,2132 6603,2229 6719,2261 6835,2262 6952,2331 7068,2414 7184,2528 7300,2401 7417,2360 7533,2363 7649,2391 7765,2456 7882,2549 7998,2588 8114,2577 8231,2679 8346,2708 8462,2724 8578,2820 8695,2967 8811,2822 8927,2745 9043,2792 9160,2826 9276,2911 9392,3033 9508,2865 9625,2968 9741,3028 9857,3055 9974,3227 10090,3347 10206,3229 10322,3316 10439,3416 10555,3321 10671,3382 10787,3357 10904,3170 11020,3411 11136,3355 11253,3315 11369,3625 11485,3452 11601,3491 11718,3803 11834,3514 11950,3616 12066,3703 12183,3580 12299,3887 12415,3991 12532,3756 12648,3969 12764,4169 12880,4180 12997,4456 13113,4939 13229,4748 13345,4339 13462,4365 13578,4402 13694,4701 13811,4403 13927,4448 14043,4595 14159,4558 14276,4661 14392,5061 14508,5005 14624,4685 14741,4843 14857,4602 14973,4964 15090,5313 15090,7022 14973,6696 14857,6408 14741,6524 14624,6416 14508,6607 14392,6589 14276,6287 14159,6225 14043,6183 13927,6048 13811,5933 13694,6158 13578,5968 13462,5825 13345,5667 13229,5888 13113,5874 12997,5412 12880,5086 12764,5005 12648,4688 12532,4427 12415,4568 12299,4377 12183,3981 12066,3732 11950,3616 11834,3514 11718,3803 11601,3491 11485,3452 11369,3625 11253,3315 11136,3355 11020,3411 10904,3170 10787,3357 10671,3382 10555,3321 10439,3416 10322,3316 10206,3229 10090,3347 9974,3227 9857,3055 9741,3028 9625,2968 9508,2865 9392,3033 9276,2911 9160,2826 9043,2792 8927,2745 8811,2822 8695,2967 8578,2820 8462,2724 8346,2708 8231,2679 8114,2577 7998,2588 7882,2549 7765,2456 7649,2391 7533,2363 7417,2360 7300,2401 7184,2528 7068,2414 6952,2331 6835,2262 6719,2261 6603,2229 6486,2132 6370,2062 6254,2023 6138,2003 6021,1938 5905,1928 5789,1928 5673,1870 5556,1822 5440,1802 5324,1796 5207,1771 5091,1774 4975,1760 4859,1786 4742,1762 4626,1751 4510,1700 4394,1709 4277,1692 4161,1662 4045,1667 3928,1642 3812,1622 3696,1621 3580,1590 3463,1612 3347,1587 3231,1609 3115,1587 2998,1587 2882,1556 2766,1511 2649,1420 2533,1422 2417,1398 2301,1394 2184,1407 2068,1413 1952,1371 1836,1399 1719,1390 1603,1386 1487,1370 1371,1345 Z"/>
 <path fill="rgb(0,102,0)" stroke="none" d="M 1371,1015 L 1487,1024 1603,1027 1719,1033 1836,1036 1952,1039 2068,1052 2184,1052 2301,1053 2417,1057 2533,1061 2649,1054 2766,1113 2882,1128 2998,1134 3115,1150 3231,1158 3347,1140 3463,1158 3580,1138 3696,1154 3812,1153 3928,1150 4045,1161 4161,1170 4277,1200 4394,1215 4510,1218 4626,1238 4742,1250 4859,1280 4975,1264 5091,1287 5207,1290 5324,1315 5440,1325 5556,1340 5673,1388 5789,1424 5905,1430 6021,1434 6138,1486 6254,1513 6370,1549 6486,1597 6603,1688 6719,1681 6835,1632 6952,1754 7068,1850 7184,1970 7300,1784 7417,1778 7533,1782 7649,1821 7765,1864 7882,1940 7998,1967 8114,1951 8231,2063 8346,2081 8462,2120 8578,2221 8695,2373 8811,2238 8927,2147 9043,2191 9160,2216 9276,2309 9392,2431 9508,2226 9625,2321 9741,2401 9857,2431 9974,2608 10090,2736 10206,2617 10322,2708 10439,2835 10555,2788 10671,2862 10787,2827 10904,2657 11020,2850 11136,2782 11253,2741 11369,3085 11485,2915 11601,2927 11718,3256 11834,2944 11950,3039 12066,3123 12183,3002 12299,3318 12415,3409 12532,3236 12648,3462 12764,3627 12880,3632 12997,3932 13113,4340 13229,4191 13345,3771 13462,3821 13578,3900 13694,4254 13811,3968 13927,3993 14043,4199 14159,4142 14276,4262 14392,4683 14508,4624 14624,4274 14741,4459 14857,4208 14973,4597 15090,4938 15090,5313 14973,4964 14857,4602 14741,4843 14624,4685 14508,5005 14392,5061 14276,4661 14159,4558 14043,4595 13927,4448 13811,4403 13694,4701 13578,4402 13462,4365 13345,4339 13229,4748 13113,4939 12997,4456 12880,4180 12764,4169 12648,3969 12532,3756 12415,3991 12299,3887 12183,3580 12066,3703 11950,3616 11834,3514 11718,3803 11601,3491 11485,3452 11369,3625 11253,3315 11136,3355 11020,3411 10904,3170 10787,3357 10671,3382 10555,3321 10439,3416 10322,3316 10206,3229 10090,3347 9974,3227 9857,3055 9741,3028 9625,2968 9508,2865 9392,3033 9276,2911 9160,2826 9043,2792 8927,2745 8811,2822 8695,2967 8578,2820 8462,2724 8346,2708 8231,2679 8114,2577 7998,2588 7882,2549 7765,2456 7649,2391 7533,2363 7417,2360 7300,2401 7184,2528 7068,2414 6952,2331 6835,2262 6719,2261 6603,2229 6486,2132 6370,2062 6254,2023 6138,2003 6021,1938 5905,1928 5789,1928 5673,1870 5556,1822 5440,1802 5324,1796 5207,1771 5091,1774 4975,1760 4859,1786 4742,1762 4626,1751 4510,1700 4394,1709 4277,1692 4161,1662 4045,1667 3928,1642 3812,1622 3696,1621 3580,1590 3463,1612 3347,1587 3231,1609 3115,1587 2998,1587 2882,1556 2766,1511 2649,1420 2533,1422 2417,1398 2301,1394 2184,1407 2068,1413 1952,1371 1836,1399 1719,1390 1603,1386 1487,1370 1371,1345 1371,1015 Z"/>
 <path fill="none" stroke="rgb(0,0,0)" stroke-linejoin="round" d="M 1371,1015 L 1487,1024 1603,1027 1719,1033 1836,1036 1952,1039 2068,1052 2184,1052 2301,1053 2417,1057 2533,1061 2649,1054 2766,1113 2882,1128 2998,1134 3115,1150 3231,1158 3347,1140 3463,1158 3580,1138 3696,1154 3812,1153 3928,1150 4045,1161 4161,1170 4277,1200 4394,1215 4510,1218 4626,1238 4742,1250 4859,1280 4975,1264 5091,1287 5207,1290 5324,1315 5440,1325 5556,1340 5673,1388 5789,1424 5905,1430 6021,1434 6138,1486 6254,1513 6370,1549 6486,1597 6603,1688 6719,1681 6835,1632 6952,1754 7068,1850 7184,1970 7300,1784 7417,1778 7533,1782 7649,1821 7765,1864 7882,1940 7998,1967 8114,1951 8231,2063 8346,2081 8462,2120 8578,2221 8695,2373 8811,2238 8927,2147 9043,2191 9160,2216 9276,2309 9392,2431 9508,2226 9625,2321 9741,2401 9857,2431 9974,2608 10090,2736 10206,2617 10322,2708 10439,2835 10555,2788 10671,2862 10787,2827 10904,2657 11020,2850 11136,2782 11253,2741 11369,3085 11485,2915 11601,2927 11718,3256 11834,2944 11950,3039 12066,3123 12183,3002 12299,3318 12415,3409 12532,3236 12648,3462 12764,3627 12880,3632 12997,3932 13113,4340 13229,4191 13345,3771 13462,3821 13578,3900 13694,4254 13811,3968 13927,3993 14043,4199 14159,4142 14276,4262 14392,4683 14508,4624 14624,4274 14741,4459 14857,4208 14973,4597 15090,4938 15090,5313 14973,4964 14857,4602 14741,4843 14624,4685 14508,5005 14392,5061 14276,4661 14159,4558 14043,4595 13927,4448 13811,4403 13694,4701 13578,4402 13462,4365 13345,4339 13229,4748 13113,4939 12997,4456 12880,4180 12764,4169 12648,3969 12532,3756 12415,3991 12299,3887 12183,3580 12066,3703 11950,3616 11834,3514 11718,3803 11601,3491 11485,3452 11369,3625 11253,3315 11136,3355 11020,3411 10904,3170 10787,3357 10671,3382 10555,3321 10439,3416 10322,3316 10206,3229 10090,3347 9974,3227 9857,3055 9741,3028 9625,2968 9508,2865 9392,3033 9276,2911 9160,2826 9043,2792 8927,2745 8811,2822 8695,2967 8578,2820 8462,2724 8346,2708 8231,2679 8114,2577 7998,2588 7882,2549 7765,2456 7649,2391 7533,2363 7417,2360 7300,2401 7184,2528 7068,2414 6952,2331 6835,2262 6719,2261 6603,2229 6486,2132 6370,2062 6254,2023 6138,2003 6021,1938 5905,1928 5789,1928 5673,1870 5556,1822 5440,1802 5324,1796 5207,1771 5091,1774 4975,1760 4859,1786 4742,1762 4626,1751 4510,1700 4394,1709 4277,1692 4161,1662 4045,1667 3928,1642 3812,1622 3696,1621 3580,1590 3463,1612 3347,1587 3231,1609 3115,1587 2998,1587 2882,1556 2766,1511 2649,1420 2533,1422 2417,1398 2301,1394 2184,1407 2068,1413 1952,1371 1836,1399 1719,1390 1603,1386 1487,1370 1371,1345 1371,1015 Z"/>
 <path fill="rgb(255,211,32)" stroke="none" d="M 1371,1015 L 1487,1024 1603,1027 1719,1033 1836,1036 1952,1039 2068,1052 2184,1052 2301,1053 2417,1057 2533,1061 2649,1054 2766,1086 2882,1094 2998,1079 3115,1092 3231,1094 3347,1071 3463,1085 3580,1062 3696,1069 3812,1061 3928,1058 4045,1060 4161,1058 4277,1067 4394,1066 4510,1063 4626,1068 4742,1072 4859,1096 4975,1071 5091,1058 5207,1047 5324,1049 5440,1059 5556,1060 5673,1061 5789,1064 5905,1061 6021,1060 6138,1063 6254,1055 6370,1070 6486,1069 6603,1076 6719,1105 6835,1101 6952,1110 7068,1207 7184,1127 7300,1089 7417,1085 7533,1080 7649,1074 7765,1077 7882,1153 7998,1084 8114,1091 8231,1073 8346,1079 8462,1078 8578,1087 8695,1107 8811,1084 8927,1095 9043,1118 9160,1118 9276,1113 9392,1140 9508,1141 9625,1141 9741,1136 9857,1149 9974,1149 10090,1161 10206,1141 10322,1149 10439,1107 10555,1124 10671,1116 10787,1092 10904,1102 11020,1296 11136,1083 11253,1165 11369,1150 11485,1151 11601,1142 11718,1131 11834,1136 11950,1129 12066,1106 12183,1094 12299,1108 12415,1100 12532,1099 12648,1114 12764,1131 12880,1143 12997,1139 13113,1321 13229,1182 13345,1154 13462,1159 13578,1144 13694,1162 13811,1183 13927,1174 14043,1182 14159,1180 14276,1171 14392,1161 14508,1165 14624,1183 14741,1155 14857,1153 14973,1189 15090,1315 15090,4938 14973,4597 14857,4208 14741,4459 14624,4274 14508,4624 14392,4683 14276,4262 14159,4142 14043,4199 13927,3993 13811,3968 13694,4254 13578,3900 13462,3821 13345,3771 13229,4191 13113,4340 12997,3932 12880,3632 12764,3627 12648,3462 12532,3236 12415,3409 12299,3318 12183,3002 12066,3123 11950,3039 11834,2944 11718,3256 11601,2927 11485,2915 11369,3085 11253,2741 11136,2782 11020,2850 10904,2657 10787,2827 10671,2862 10555,2788 10439,2835 10322,2708 10206,2617 10090,2736 9974,2608 9857,2431 9741,2401 9625,2321 9508,2226 9392,2431 9276,2309 9160,2216 9043,2191 8927,2147 8811,2238 8695,2373 8578,2221 8462,2120 8346,2081 8231,2063 8114,1951 7998,1967 7882,1940 7765,1864 7649,1821 7533,1782 7417,1778 7300,1784 7184,1970 7068,1850 6952,1754 6835,1632 6719,1681 6603,1688 6486,1597 6370,1549 6254,1513 6138,1486 6021,1434 5905,1430 5789,1424 5673,1388 5556,1340 5440,1325 5324,1315 5207,1290 5091,1287 4975,1264 4859,1280 4742,1250 4626,1238 4510,1218 4394,1215 4277,1200 4161,1170 4045,1161 3928,1150 3812,1153 3696,1154 3580,1138 3463,1158 3347,1140 3231,1158 3115,1150 2998,1134 2882,1128 2766,1113 2649,1054 2533,1061 2417,1057 2301,1053 2184,1052 2068,1052 1952,1039 1836,1036 1719,1033 1603,1027 1487,1024 1371,1015 Z"/>
 <path fill="none" stroke="rgb(0,0,0)" stroke-linejoin="round" d="M 1371,1015 L 1487,1024 1603,1027 1719,1033 1836,1036 1952,1039 2068,1052 2184,1052 2301,1053 2417,1057 2533,1061 2649,1054 2766,1086 2882,1094 2998,1079 3115,1092 3231,1094 3347,1071 3463,1085 3580,1062 3696,1069 3812,1061 3928,1058 4045,1060 4161,1058 4277,1067 4394,1066 4510,1063 4626,1068 4742,1072 4859,1096 4975,1071 5091,1058 5207,1047 5324,1049 5440,1059 5556,1060 5673,1061 5789,1064 5905,1061 6021,1060 6138,1063 6254,1055 6370,1070 6486,1069 6603,1076 6719,1105 6835,1101 6952,1110 7068,1207 7184,1127 7300,1089 7417,1085 7533,1080 7649,1074 7765,1077 7882,1153 7998,1084 8114,1091 8231,1073 8346,1079 8462,1078 8578,1087 8695,1107 8811,1084 8927,1095 9043,1118 9160,1118 9276,1113 9392,1140 9508,1141 9625,1141 9741,1136 9857,1149 9974,1149 10090,1161 10206,1141 10322,1149 10439,1107 10555,1124 10671,1116 10787,1092 10904,1102 11020,1296 11136,1083 11253,1165 11369,1150 11485,1151 11601,1142 11718,1131 11834,1136 11950,1129 12066,1106 12183,1094 12299,1108 12415,1100 12532,1099 12648,1114 12764,1131 12880,1143 12997,1139 13113,1321 13229,1182 13345,1154 13462,1159 13578,1144 13694,1162 13811,1183 13927,1174 14043,1182 14159,1180 14276,1171 14392,1161 14508,1165 14624,1183 14741,1155 14857,1153 14973,1189 15090,1315 15090,4938 14973,4597 14857,4208 14741,4459 14624,4274 14508,4624 14392,4683 14276,4262 14159,4142 14043,4199 13927,3993 13811,3968 13694,4254 13578,3900 13462,3821 13345,3771 13229,4191 13113,4340 12997,3932 12880,3632 12764,3627 12648,3462 12532,3236 12415,3409 12299,3318 12183,3002 12066,3123 11950,3039 11834,2944 11718,3256 11601,2927 11485,2915 11369,3085 11253,2741 11136,2782 11020,2850 10904,2657 10787,2827 10671,2862 10555,2788 10439,2835 10322,2708 10206,2617 10090,2736 9974,2608 9857,2431 9741,2401 9625,2321 9508,2226 9392,2431 9276,2309 9160,2216 9043,2191 8927,2147 8811,2238 8695,2373 8578,2221 8462,2120 8346,2081 8231,2063 8114,1951 7998,1967 7882,1940 7765,1864 7649,1821 7533,1782 7417,1778 7300,1784 7184,1970 7068,1850 6952,1754 6835,1632 6719,1681 6603,1688 6486,1597 6370,1549 6254,1513 6138,1486 6021,1434 5905,1430 5789,1424 5673,1388 5556,1340 5440,1325 5324,1315 5207,1290 5091,1287 4975,1264 4859,1280 4742,1250 4626,1238 4510,1218 4394,1215 4277,1200 4161,1170 4045,1161 3928,1150 3812,1153 3696,1154 3580,1138 3463,1158 3347,1140 3231,1158 3115,1150 2998,1134 2882,1128 2766,1113 2649,1054 2533,1061 2417,1057 2301,1053 2184,1052 2068,1052 1952,1039 1836,1036 1719,1033 1603,1027 1487,1024 1371,1015 Z"/>
 <path fill="rgb(255,51,51)" stroke="none" d="M 1371,952 L 1487,956 1603,956 1719,960 1836,965 1952,965 2068,965 2184,967 2301,972 2417,978 2533,978 2649,979 2766,998 2882,999 2998,991 3115,997 3231,996 3347,967 3463,971 3580,965 3696,968 3812,971 3928,966 4045,968 4161,960 4277,969 4394,968 4510,969 4626,969 4742,971 4859,987 4975,968 5091,968 5207,965 5324,967 5440,976 5556,971 5673,969 5789,973 5905,973 6021,968 6138,973 6254,967 6370,979 6486,981 6603,980 6719,1005 6835,993 6952,993 7068,1082 7184,991 7300,986 7417,998 7533,993 7649,983 7765,985 7882,1064 7998,988 8114,994 8231,973 8346,972 8462,977 8578,985 8695,1007 8811,986 8927,992 9043,1010 9160,1010 9276,1009 9392,1014 9508,1001 9625,1006 9741,1006 9857,1006 9974,1020 10090,1043 10206,1021 10322,1024 10439,980 10555,986 10671,985 10787,960 10904,971 11020,1183 11136,984 11253,1058 11369,1049 11485,1032 11601,1026 11718,1018 11834,1014 11950,1006 12066,979 12183,969 12299,979 12415,986 12532,978 12648,994 12764,1010 12880,1018 12997,1019 13113,1219 13229,1065 13345,1014 13462,998 13578,1001 13694,1018 13811,1035 13927,1018 14043,1038 14159,1030 14276,1039 14392,1033 14508,1038 14624,1054 14741,1007 14857,987 14973,981 15090,1026 15090,1315 14973,1189 14857,1153 14741,1155 14624,1183 14508,1165 14392,1161 14276,1171 14159,1180 14043,1182 13927,1174 13811,1183 13694,1162 13578,1144 13462,1159 13345,1154 13229,1182 13113,1321 12997,1139 12880,1143 12764,1131 12648,1114 12532,1099 12415,1100 12299,1108 12183,1094 12066,1106 11950,1129 11834,1136 11718,1131 11601,1142 11485,1151 11369,1150 11253,1165 11136,1083 11020,1296 10904,1102 10787,1092 10671,1116 10555,1124 10439,1107 10322,1149 10206,1141 10090,1161 9974,1149 9857,1149 9741,1136 9625,1141 9508,1141 9392,1140 9276,1113 9160,1118 9043,1118 8927,1095 8811,1084 8695,1107 8578,1087 8462,1078 8346,1079 8231,1073 8114,1091 7998,1084 7882,1153 7765,1077 7649,1074 7533,1080 7417,1085 7300,1089 7184,1127 7068,1207 6952,1110 6835,1101 6719,1105 6603,1076 6486,1069 6370,1070 6254,1055 6138,1063 6021,1060 5905,1061 5789,1064 5673,1061 5556,1060 5440,1059 5324,1049 5207,1047 5091,1058 4975,1071 4859,1096 4742,1072 4626,1068 4510,1063 4394,1066 4277,1067 4161,1058 4045,1060 3928,1058 3812,1061 3696,1069 3580,1062 3463,1085 3347,1071 3231,1094 3115,1092 2998,1079 2882,1094 2766,1086 2649,1054 2533,1061 2417,1057 2301,1053 2184,1052 2068,1052 1952,1039 1836,1036 1719,1033 1603,1027 1487,1024 1371,1015 1371,952 Z"/>
 <path fill="none" stroke="rgb(0,0,0)" stroke-linejoin="round" d="M 1371,952 L 1487,956 1603,956 1719,960 1836,965 1952,965 2068,965 2184,967 2301,972 2417,978 2533,978 2649,979 2766,998 2882,999 2998,991 3115,997 3231,996 3347,967 3463,971 3580,965 3696,968 3812,971 3928,966 4045,968 4161,960 4277,969 4394,968 4510,969 4626,969 4742,971 4859,987 4975,968 5091,968 5207,965 5324,967 5440,976 5556,971 5673,969 5789,973 5905,973 6021,968 6138,973 6254,967 6370,979 6486,981 6603,980 6719,1005 6835,993 6952,993 7068,1082 7184,991 7300,986 7417,998 7533,993 7649,983 7765,985 7882,1064 7998,988 8114,994 8231,973 8346,972 8462,977 8578,985 8695,1007 8811,986 8927,992 9043,1010 9160,1010 9276,1009 9392,1014 9508,1001 9625,1006 9741,1006 9857,1006 9974,1020 10090,1043 10206,1021 10322,1024 10439,980 10555,986 10671,985 10787,960 10904,971 11020,1183 11136,984 11253,1058 11369,1049 11485,1032 11601,1026 11718,1018 11834,1014 11950,1006 12066,979 12183,969 12299,979 12415,986 12532,978 12648,994 12764,1010 12880,1018 12997,1019 13113,1219 13229,1065 13345,1014 13462,998 13578,1001 13694,1018 13811,1035 13927,1018 14043,1038 14159,1030 14276,1039 14392,1033 14508,1038 14624,1054 14741,1007 14857,987 14973,981 15090,1026 15090,1315 14973,1189 14857,1153 14741,1155 14624,1183 14508,1165 14392,1161 14276,1171 14159,1180 14043,1182 13927,1174 13811,1183 13694,1162 13578,1144 13462,1159 13345,1154 13229,1182 13113,1321 12997,1139 12880,1143 12764,1131 12648,1114 12532,1099 12415,1100 12299,1108 12183,1094 12066,1106 11950,1129 11834,1136 11718,1131 11601,1142 11485,1151 11369,1150 11253,1165 11136,1083 11020,1296 10904,1102 10787,1092 10671,1116 10555,1124 10439,1107 10322,1149 10206,1141 10090,1161 9974,1149 9857,1149 9741,1136 9625,1141 9508,1141 9392,1140 9276,1113 9160,1118 9043,1118 8927,1095 8811,1084 8695,1107 8578,1087 8462,1078 8346,1079 8231,1073 8114,1091 7998,1084 7882,1153 7765,1077 7649,1074 7533,1080 7417,1085 7300,1089 7184,1127 7068,1207 6952,1110 6835,1101 6719,1105 6603,1076 6486,1069 6370,1070 6254,1055 6138,1063 6021,1060 5905,1061 5789,1064 5673,1061 5556,1060 5440,1059 5324,1049 5207,1047 5091,1058 4975,1071 4859,1096 4742,1072 4626,1068 4510,1063 4394,1066 4277,1067 4161,1058 4045,1060 3928,1058 3812,1061 3696,1069 3580,1062 3463,1085 3347,1071 3231,1094 3115,1092 2998,1079 2882,1094 2766,1086 2649,1054 2533,1061 2417,1057 2301,1053 2184,1052 2068,1052 1952,1039 1836,1036 1719,1033 1603,1027 1487,1024 1371,1015 1371,952 Z"/>
 <path fill="rgb(255,255,255)" stroke="none" d="M 1371,930 L 1487,930 1603,930 1719,930 1952,930 2184,930 2301,930 2417,930 2533,930 2649,930 2766,930 2882,930 2998,930 3115,930 3231,930 3347,930 3463,930 3580,930 3812,930 3928,930 4045,930 4161,930 4277,930 4394,930 4510,930 4626,930 4742,930 4859,930 4975,930 5091,930 5207,930 5324,930 5556,930 5673,930 5789,930 5905,930 6021,930 6138,930 6254,930 6486,930 6603,930 6719,930 6835,930 6952,930 7184,930 7300,930 7417,930 7649,930 7765,930 7882,930 7998,930 8114,930 8346,930 8462,930 8695,930 8811,930 9043,930 9276,930 9392,930 9625,930 9741,930 9857,930 9974,930 10090,930 10206,930 10322,930 10439,930 10671,930 10904,930 11253,930 11369,930 11485,930 11601,930 11718,930 11834,930 12299,930 12415,930 12532,930 12764,930 12880,930 12997,930 13229,930 13345,930 13462,930 13578,930 13694,930 13811,930 13927,930 14159,930 14276,930 14392,930 14508,930 14624,930 14741,930 14857,930 14973,930 15090,930 15090,1026 14973,981 14857,987 14741,1007 14624,1054 14508,1038 14392,1033 14276,1039 14159,1030 14043,1038 13927,1018 13811,1035 13694,1018 13578,1001 13462,998 13345,1014 13229,1065 13113,1219 12997,1019 12880,1018 12764,1010 12648,994 12532,978 12415,986 12299,979 12183,969 12066,979 11950,1006 11834,1014 11718,1018 11601,1026 11485,1032 11369,1049 11253,1058 11136,984 11020,1183 10904,971 10787,960 10671,985 10555,986 10439,980 10322,1024 10206,1021 10090,1043 9974,1020 9857,1006 9741,1006 9625,1006 9508,1001 9392,1014 9276,1009 9160,1010 9043,1010 8927,992 8811,986 8695,1007 8578,985 8462,977 8346,972 8231,973 8114,994 7998,988 7882,1064 7765,985 7649,983 7533,993 7417,998 7300,986 7184,991 7068,1082 6952,993 6835,993 6719,1005 6603,980 6486,981 6370,979 6254,967 6138,973 6021,968 5905,973 5789,973 5673,969 5556,971 5440,976 5324,967 5207,965 5091,968 4975,968 4859,987 4742,971 4626,969 4510,969 4394,968 4277,969 4161,960 4045,968 3928,966 3812,971 3696,968 3580,965 3463,971 3347,967 3231,996 3115,997 2998,991 2882,999 2766,998 2649,979 2533,978 2417,978 2301,972 2184,967 2068,965 1952,965 1836,965 1719,960 1603,956 1487,956 1371,952 1371,930 Z"/>
 <text class="TextShape"><tspan class="TextParagraph" font-family="Arial, sans-serif" font-size="388px" font-weight="400"><tspan class="TextPosition" x="1179" y="11152"><tspan fill="rgb(0,0,0)" stroke="none">2008</tspan></tspan></tspan></text>
 <text class="TextShape"><tspan class="TextParagraph" font-family="Arial, sans-serif" font-size="388px" font-weight="400"><tspan class="TextPosition" x="2574" y="11152"><tspan fill="rgb(0,0,0)" stroke="none">2009</tspan></tspan></tspan></text>
 <text class="TextShape"><tspan class="TextParagraph" font-family="Arial, sans-serif" font-size="388px" font-weight="400"><tspan class="TextPosition" x="3970" y="11152"><tspan fill="rgb(0,0,0)" stroke="none">2010</tspan></tspan></tspan></text>
 <text class="TextShape"><tspan class="TextParagraph" font-family="Arial, sans-serif" font-size="388px" font-weight="400"><tspan class="TextPosition" x="5365" y="11152"><tspan fill="rgb(0,0,0)" stroke="none">2011</tspan></tspan></tspan></text>
 <text class="TextShape"><tspan class="TextParagraph" font-family="Arial, sans-serif" font-size="388px" font-weight="400"><tspan class="TextPosition" x="6760" y="11152"><tspan fill="rgb(0,0,0)" stroke="none">2012</tspan></tspan></tspan></text>
 <text class="TextShape"><tspan class="TextParagraph" font-family="Arial, sans-serif" font-size="388px" font-weight="400"><tspan class="TextPosition" x="8155" y="11152"><tspan fill="rgb(0,0,0)" stroke="none">2013</tspan></tspan></tspan></text>
 <text class="TextShape"><tspan class="TextParagraph" font-family="Arial, sans-serif" font-size="388px" font-weight="400"><tspan class="TextPosition" x="9551" y="11152"><tspan fill="rgb(0,0,0)" stroke="none">2014</tspan></tspan></tspan></text>
 <text class="TextShape"><tspan class="TextParagraph" font-family="Arial, sans-serif" font-size="388px" font-weight="400"><tspan class="TextPosition" x="10946" y="11152"><tspan fill="rgb(0,0,0)" stroke="none">2015</tspan></tspan></tspan></text>
 <text class="TextShape"><tspan class="TextParagraph" font-family="Arial, sans-serif" font-size="388px" font-weight="400"><tspan class="TextPosition" x="12341" y="11152"><tspan fill="rgb(0,0,0)" stroke="none">2016</tspan></tspan></tspan></text>
 <text class="TextShape"><tspan class="TextParagraph" font-family="Arial, sans-serif" font-size="388px" font-weight="400"><tspan class="TextPosition" x="13736" y="11152"><tspan fill="rgb(0,0,0)" stroke="none">2017</tspan></tspan></tspan></text>
 <text class="TextShape"><tspan class="TextParagraph" font-family="Arial, sans-serif" font-size="388px" font-weight="400"><tspan class="TextPosition" x="565" y="10692"><tspan fill="rgb(0,0,0)" stroke="none">0%</tspan></tspan></tspan></text>
 <text class="TextShape"><tspan class="TextParagraph" font-family="Arial, sans-serif" font-size="388px" font-weight="400"><tspan class="TextPosition" x="354" y="9729"><tspan fill="rgb(0,0,0)" stroke="none">10%</tspan></tspan></tspan></text>
 <text class="TextShape"><tspan class="TextParagraph" font-family="Arial, sans-serif" font-size="388px" font-weight="400"><tspan class="TextPosition" x="354" y="8766"><tspan fill="rgb(0,0,0)" stroke="none">20%</tspan></tspan></tspan></text>
 <text class="TextShape"><tspan class="TextParagraph" font-family="Arial, sans-serif" font-size="388px" font-weight="400"><tspan class="TextPosition" x="354" y="7803"><tspan fill="rgb(0,0,0)" stroke="none">30%</tspan></tspan></tspan></text>
 <text class="TextShape"><tspan class="TextParagraph" font-family="Arial, sans-serif" font-size="388px" font-weight="400"><tspan class="TextPosition" x="354" y="6840"><tspan fill="rgb(0,0,0)" stroke="none">40%</tspan></tspan></tspan></text>
 <text class="TextShape"><tspan class="TextParagraph" font-family="Arial, sans-serif" font-size="388px" font-weight="400"><tspan class="TextPosition" x="354" y="5877"><tspan fill="rgb(0,0,0)" stroke="none">50%</tspan></tspan></tspan></text>
 <text class="TextShape"><tspan class="TextParagraph" font-family="Arial, sans-serif" font-size="388px" font-weight="400"><tspan class="TextPosition" x="354" y="4914"><tspan fill="rgb(0,0,0)" stroke="none">60%</tspan></tspan></tspan></text>
 <text class="TextShape"><tspan class="TextParagraph" font-family="Arial, sans-serif" font-size="388px" font-weight="400"><tspan class="TextPosition" x="354" y="3951"><tspan fill="rgb(0,0,0)" stroke="none">70%</tspan></tspan></tspan></text>
 <text class="TextShape"><tspan class="TextParagraph" font-family="Arial, sans-serif" font-size="388px" font-weight="400"><tspan class="TextPosition" x="354" y="2988"><tspan fill="rgb(0,0,0)" stroke="none">80%</tspan></tspan></tspan></text>
 <text class="TextShape"><tspan class="TextParagraph" font-family="Arial, sans-serif" font-size="388px" font-weight="400"><tspan class="TextPosition" x="354" y="2025"><tspan fill="rgb(0,0,0)" stroke="none">90%</tspan></tspan></tspan></text>
 <text class="TextShape"><tspan class="TextParagraph" font-family="Arial, sans-serif" font-size="388px" font-weight="400"><tspan class="TextPosition" x="142" y="1063"><tspan fill="rgb(0,0,0)" stroke="none">100%</tspan></tspan></tspan></text>
 <text class="TextShape"><tspan class="TextParagraph" font-family="Arial, sans-serif" font-size="388px" font-weight="400"><tspan class="TextPosition" x="15340" y="10692"><tspan fill="rgb(0,0,0)" stroke="none">0%</tspan></tspan></tspan></text>
 <text class="TextShape"><tspan class="TextParagraph" font-family="Arial, sans-serif" font-size="388px" font-weight="400"><tspan class="TextPosition" x="15340" y="9729"><tspan fill="rgb(0,0,0)" stroke="none">10%</tspan></tspan></tspan></text>
 <text class="TextShape"><tspan class="TextParagraph" font-family="Arial, sans-serif" font-size="388px" font-weight="400"><tspan class="TextPosition" x="15340" y="8766"><tspan fill="rgb(0,0,0)" stroke="none">20%</tspan></tspan></tspan></text>
 <text class="TextShape"><tspan class="TextParagraph" font-family="Arial, sans-serif" font-size="388px" font-weight="400"><tspan class="TextPosition" x="15340" y="7803"><tspan fill="rgb(0,0,0)" stroke="none">30%</tspan></tspan></tspan></text>
 <text class="TextShape"><tspan class="TextParagraph" font-family="Arial, sans-serif" font-size="388px" font-weight="400"><tspan class="TextPosition" x="15340" y="6840"><tspan fill="rgb(0,0,0)" stroke="none">40%</tspan></tspan></tspan></text>
 <text class="TextShape"><tspan class="TextParagraph" font-family="Arial, sans-serif" font-size="388px" font-weight="400"><tspan class="TextPosition" x="15340" y="5877"><tspan fill="rgb(0,0,0)" stroke="none">50%</tspan></tspan></tspan></text>
 <text class="TextShape"><tspan class="TextParagraph" font-family="Arial, sans-serif" font-size="388px" font-weight="400"><tspan class="TextPosition" x="15340" y="4914"><tspan fill="rgb(0,0,0)" stroke="none">60%</tspan></tspan></tspan></text>
 <text class="TextShape"><tspan class="TextParagraph" font-family="Arial, sans-serif" font-size="388px" font-weight="400"><tspan class="TextPosition" x="15340" y="3951"><tspan fill="rgb(0,0,0)" stroke="none">70%</tspan></tspan></tspan></text>
 <text class="TextShape"><tspan class="TextParagraph" font-family="Arial, sans-serif" font-size="388px" font-weight="400"><tspan class="TextPosition" x="15340" y="2988"><tspan fill="rgb(0,0,0)" stroke="none">80%</tspan></tspan></tspan></text>
 <text class="TextShape"><tspan class="TextParagraph" font-family="Arial, sans-serif" font-size="388px" font-weight="400"><tspan class="TextPosition" x="15340" y="2025"><tspan fill="rgb(0,0,0)" stroke="none">90%</tspan></tspan></tspan></text>
 <text class="TextShape"><tspan class="TextParagraph" font-family="Arial, sans-serif" font-size="388px" font-weight="400"><tspan class="TextPosition" x="15340" y="1063"><tspan fill="rgb(0,0,0)" stroke="none">100%</tspan></tspan></tspan></text>
 <text class="TextShape"><tspan class="TextParagraph" font-family="Arial, sans-serif" font-size="635px" font-weight="700"><tspan class="TextPosition" x="3376" y="747"><tspan fill="rgb(0,0,0)" stroke="none">Utilizacin de sistemas operativos</tspan></tspan></tspan></text>
 <path fill="rgb(0,69,134)" stroke="none" d="M 10757,12057 L 10651,12057 10651,11846 10862,11846 10862,12057 10757,12057 Z"/>
 <path fill="none" stroke="rgb(0,0,0)" stroke-linejoin="round" d="M 10757,12057 L 10651,12057 10651,11846 10862,11846 10862,12057 10757,12057 Z"/>
 <path fill="rgb(51,153,102)" stroke="none" d="M 9123,12057 L 9017,12057 9017,11846 9228,11846 9228,12057 9123,12057 Z"/>
 <path fill="none" stroke="rgb(0,0,0)" stroke-linejoin="round" d="M 9123,12057 L 9017,12057 9017,11846 9228,11846 9228,12057 9123,12057 Z"/>
 <path fill="rgb(131,202,255)" stroke="none" d="M 7436,12057 L 7331,12057 7331,11846 7542,11846 7542,12057 7436,12057 Z"/>
 <path fill="rgb(0,204,255)" stroke="none" d="M 5458,12057 L 5353,12057 5353,11846 5564,11846 5564,12057 5458,12057 Z"/>
 <path fill="none" stroke="rgb(0,0,0)" stroke-linejoin="round" d="M 5458,12057 L 5353,12057 5353,11846 5564,11846 5564,12057 5458,12057 Z"/>
 <path fill="rgb(0,102,204)" stroke="none" d="M 4089,12057 L 3984,12057 3984,11846 4195,11846 4195,12057 4089,12057 Z"/>
 <path fill="none" stroke="rgb(0,0,0)" stroke-linejoin="round" d="M 4089,12057 L 3984,12057 3984,11846 4195,11846 4195,12057 4089,12057 Z"/>
 <path fill="rgb(0,132,209)" stroke="none" d="M 12364,11498 L 12258,11498 12258,11287 12469,11287 12469,11498 12364,11498 Z"/>
 <path fill="none" stroke="rgb(0,0,0)" stroke-linejoin="round" d="M 12364,11498 L 12258,11498 12258,11287 12469,11287 12469,11498 12364,11498 Z"/>
 <path fill="rgb(0,69,134)" stroke="none" d="M 10757,11498 L 10651,11498 10651,11287 10862,11287 10862,11498 10757,11498 Z"/>
 <path fill="none" stroke="rgb(0,0,0)" stroke-linejoin="round" d="M 10757,11498 L 10651,11498 10651,11287 10862,11287 10862,11498 10757,11498 Z"/>
 <path fill="rgb(0,102,0)" stroke="none" d="M 9123,11498 L 9017,11498 9017,11287 9228,11287 9228,11498 9123,11498 Z"/>
 <path fill="none" stroke="rgb(0,0,0)" stroke-linejoin="round" d="M 9123,11498 L 9017,11498 9017,11287 9228,11287 9228,11498 9123,11498 Z"/>
 <path fill="rgb(255,211,32)" stroke="none" d="M 7436,11498 L 7331,11498 7331,11287 7542,11287 7542,11498 7436,11498 Z"/>
 <path fill="none" stroke="rgb(0,0,0)" stroke-linejoin="round" d="M 7436,11498 L 7331,11498 7331,11287 7542,11287 7542,11498 7436,11498 Z"/>
 <path fill="rgb(255,51,51)" stroke="none" d="M 5458,11498 L 5353,11498 5353,11287 5564,11287 5564,11498 5458,11498 Z"/>
 <path fill="none" stroke="rgb(0,0,0)" stroke-linejoin="round" d="M 5458,11498 L 5353,11498 5353,11287 5564,11287 5564,11498 5458,11498 Z"/>
 <path fill="rgb(255,255,255)" stroke="none" d="M 4089,11498 L 3984,11498 3984,11287 4195,11287 4195,11498 4089,11498 Z"/>
 <text class="TextShape"><tspan class="TextParagraph" font-family="Arial, sans-serif" font-size="353px" font-weight="400"><tspan class="TextPosition" x="4295" y="11511"><tspan fill="rgb(0,0,0)" stroke="none">Otros</tspan></tspan></tspan></text>
 <text class="TextShape"><tspan class="TextParagraph" font-family="Arial, sans-serif" font-size="353px" font-weight="400"><tspan class="TextPosition" x="5664" y="11511"><tspan fill="rgb(0,0,0)" stroke="none">Linux</tspan></tspan></tspan></text>
 <text class="TextShape"><tspan class="TextParagraph" font-family="Arial, sans-serif" font-size="353px" font-weight="400"><tspan class="TextPosition" x="7642" y="11511"><tspan fill="rgb(0,0,0)" stroke="none">Mviles</tspan></tspan></tspan></text>
 <text class="TextShape"><tspan class="TextParagraph" font-family="Arial, sans-serif" font-size="353px" font-weight="400"><tspan class="TextPosition" x="9328" y="11511"><tspan fill="rgb(0,0,0)" stroke="none">Mac</tspan></tspan></tspan></text>
 <text class="TextShape"><tspan class="TextParagraph" font-family="Arial, sans-serif" font-size="353px" font-weight="400"><tspan class="TextPosition" x="10962" y="11511"><tspan fill="rgb(0,0,0)" stroke="none">Win 10</tspan></tspan></tspan></text>
 <text class="TextShape"><tspan class="TextParagraph" font-family="Arial, sans-serif" font-size="353px" font-weight="400"><tspan class="TextPosition" x="12569" y="11511"><tspan fill="rgb(0,0,0)" stroke="none">Win 8</tspan></tspan></tspan></text>
 <text class="TextShape"><tspan class="TextParagraph" font-family="Arial, sans-serif" font-size="353px" font-weight="400"><tspan class="TextPosition" x="4295" y="12070"><tspan fill="rgb(0,0,0)" stroke="none">Win 7</tspan></tspan></tspan></text>
 <text class="TextShape"><tspan class="TextParagraph" font-family="Arial, sans-serif" font-size="353px" font-weight="400"><tspan class="TextPosition" x="5664" y="12070"><tspan fill="rgb(0,0,0)" stroke="none">Win Vista</tspan></tspan></tspan></text>
 <text class="TextShape"><tspan class="TextParagraph" font-family="Arial, sans-serif" font-size="353px" font-weight="400"><tspan class="TextPosition" x="7642" y="12070"><tspan fill="rgb(0,0,0)" stroke="none">Win XP</tspan></tspan></tspan></text>
 <text class="TextShape"><tspan class="TextParagraph" font-family="Arial, sans-serif" font-size="353px" font-weight="400"><tspan class="TextPosition" x="9328" y="12070"><tspan fill="rgb(0,0,0)" stroke="none">Win NT</tspan></tspan></tspan></text>
 <text class="TextShape"><tspan class="TextParagraph" font-family="Arial, sans-serif" font-size="353px" font-weight="400"><tspan class="TextPosition" x="10962" y="12070"><tspan fill="rgb(0,0,0)" stroke="none">Win 9X</tspan></tspan></tspan></text>
</svg>
