<?xml version="1.0" encoding="UTF-8"?>
<!DOCTYPE svg PUBLIC "-//W3C//DTD SVG 1.1//EN" "http://www.w3.org/Graphics/SVG/1.1/DTD/svg11.dtd">
<svg width="164mm" height="123mm" viewBox="0 0 16400 12300" version="1.1" xmlns="http://www.w3.org/2000/svg" stroke-width="28.222" stroke-linejoin="round" xml:space="preserve">
 <path fill="rgb(255,255,255)" stroke="none" d="M 8197,12262 L 0,12262 0,0 16393,0 16393,12262 8197,12262 Z"/>
 <path fill="none" stroke="rgb(0,0,0)" stroke-linejoin="round" d="M 8179,10812 L 1167,10812 1167,1093 15190,1093 15190,10812 8179,10812 Z"/>
 <path fill="none" stroke="rgb(0,0,0)" stroke-width="20" stroke-linejoin="round" d="M 15190,10811 L 1167,10811"/>
 <path fill="none" stroke="rgb(0,0,0)" stroke-width="20" stroke-linejoin="round" d="M 15190,9515 L 1167,9515"/>
 <path fill="none" stroke="rgb(0,0,0)" stroke-width="20" stroke-linejoin="round" d="M 15190,8219 L 1167,8219"/>
 <path fill="none" stroke="rgb(0,0,0)" stroke-width="20" stroke-linejoin="round" d="M 15190,6923 L 1167,6923"/>
 <path fill="none" stroke="rgb(0,0,0)" stroke-width="20" stroke-linejoin="round" d="M 15190,5628 L 1167,5628"/>
 <path fill="none" stroke="rgb(0,0,0)" stroke-width="20" stroke-linejoin="round" d="M 15190,4332 L 1167,4332"/>
 <path fill="none" stroke="rgb(0,0,0)" stroke-width="20" stroke-linejoin="round" d="M 15190,3035 L 1167,3035"/>
 <path fill="none" stroke="rgb(0,0,0)" stroke-width="20" stroke-linejoin="round" d="M 15190,1740 L 1167,1740"/>
 <path fill="none" stroke="rgb(0,0,0)" stroke-width="30" stroke-linejoin="round" d="M 1167,10961 L 1167,10811"/>
 <path fill="none" stroke="rgb(0,0,0)" stroke-width="30" stroke-linejoin="round" d="M 1167,10961 L 1167,10811"/>
 <path fill="none" stroke="rgb(0,0,0)" stroke-width="30" stroke-linejoin="round" d="M 1287,10961 L 1287,10811"/>
 <path fill="none" stroke="rgb(0,0,0)" stroke-width="30" stroke-linejoin="round" d="M 1287,10961 L 1287,10811"/>
 <path fill="none" stroke="rgb(0,0,0)" stroke-width="30" stroke-linejoin="round" d="M 1408,10961 L 1408,10811"/>
 <path fill="none" stroke="rgb(0,0,0)" stroke-width="30" stroke-linejoin="round" d="M 1408,10961 L 1408,10811"/>
 <path fill="none" stroke="rgb(0,0,0)" stroke-width="30" stroke-linejoin="round" d="M 1529,10961 L 1529,10811"/>
 <path fill="none" stroke="rgb(0,0,0)" stroke-width="30" stroke-linejoin="round" d="M 1529,10961 L 1529,10811"/>
 <path fill="none" stroke="rgb(0,0,0)" stroke-width="30" stroke-linejoin="round" d="M 1650,10961 L 1650,10811"/>
 <path fill="none" stroke="rgb(0,0,0)" stroke-width="30" stroke-linejoin="round" d="M 1650,10961 L 1650,10811"/>
 <path fill="none" stroke="rgb(0,0,0)" stroke-width="30" stroke-linejoin="round" d="M 1771,10961 L 1771,10811"/>
 <path fill="none" stroke="rgb(0,0,0)" stroke-width="30" stroke-linejoin="round" d="M 1771,10961 L 1771,10811"/>
 <path fill="none" stroke="rgb(0,0,0)" stroke-width="30" stroke-linejoin="round" d="M 1892,10961 L 1892,10811"/>
 <path fill="none" stroke="rgb(0,0,0)" stroke-width="30" stroke-linejoin="round" d="M 1892,10961 L 1892,10811"/>
 <path fill="none" stroke="rgb(0,0,0)" stroke-width="30" stroke-linejoin="round" d="M 2013,10961 L 2013,10811"/>
 <path fill="none" stroke="rgb(0,0,0)" stroke-width="30" stroke-linejoin="round" d="M 2013,10961 L 2013,10811"/>
 <path fill="none" stroke="rgb(0,0,0)" stroke-width="30" stroke-linejoin="round" d="M 2134,10961 L 2134,10811"/>
 <path fill="none" stroke="rgb(0,0,0)" stroke-width="30" stroke-linejoin="round" d="M 2134,10961 L 2134,10811"/>
 <path fill="none" stroke="rgb(0,0,0)" stroke-width="30" stroke-linejoin="round" d="M 2255,10961 L 2255,10811"/>
 <path fill="none" stroke="rgb(0,0,0)" stroke-width="30" stroke-linejoin="round" d="M 2255,10961 L 2255,10811"/>
 <path fill="none" stroke="rgb(0,0,0)" stroke-width="30" stroke-linejoin="round" d="M 2375,10961 L 2375,10811"/>
 <path fill="none" stroke="rgb(0,0,0)" stroke-width="30" stroke-linejoin="round" d="M 2375,10961 L 2375,10811"/>
 <path fill="none" stroke="rgb(0,0,0)" stroke-width="30" stroke-linejoin="round" d="M 2496,10961 L 2496,10811"/>
 <path fill="none" stroke="rgb(0,0,0)" stroke-width="30" stroke-linejoin="round" d="M 2496,10961 L 2496,10811"/>
 <path fill="none" stroke="rgb(0,0,0)" stroke-width="30" stroke-linejoin="round" d="M 2617,10961 L 2617,10811"/>
 <path fill="none" stroke="rgb(0,0,0)" stroke-width="30" stroke-linejoin="round" d="M 2617,10961 L 2617,10811"/>
 <path fill="none" stroke="rgb(0,0,0)" stroke-width="30" stroke-linejoin="round" d="M 2738,10961 L 2738,10811"/>
 <path fill="none" stroke="rgb(0,0,0)" stroke-width="30" stroke-linejoin="round" d="M 2738,10961 L 2738,10811"/>
 <path fill="none" stroke="rgb(0,0,0)" stroke-width="30" stroke-linejoin="round" d="M 2859,10961 L 2859,10811"/>
 <path fill="none" stroke="rgb(0,0,0)" stroke-width="30" stroke-linejoin="round" d="M 2859,10961 L 2859,10811"/>
 <path fill="none" stroke="rgb(0,0,0)" stroke-width="30" stroke-linejoin="round" d="M 2980,10961 L 2980,10811"/>
 <path fill="none" stroke="rgb(0,0,0)" stroke-width="30" stroke-linejoin="round" d="M 2980,10961 L 2980,10811"/>
 <path fill="none" stroke="rgb(0,0,0)" stroke-width="30" stroke-linejoin="round" d="M 3101,10961 L 3101,10811"/>
 <path fill="none" stroke="rgb(0,0,0)" stroke-width="30" stroke-linejoin="round" d="M 3101,10961 L 3101,10811"/>
 <path fill="none" stroke="rgb(0,0,0)" stroke-width="30" stroke-linejoin="round" d="M 3222,10961 L 3222,10811"/>
 <path fill="none" stroke="rgb(0,0,0)" stroke-width="30" stroke-linejoin="round" d="M 3222,10961 L 3222,10811"/>
 <path fill="none" stroke="rgb(0,0,0)" stroke-width="30" stroke-linejoin="round" d="M 3343,10961 L 3343,10811"/>
 <path fill="none" stroke="rgb(0,0,0)" stroke-width="30" stroke-linejoin="round" d="M 3343,10961 L 3343,10811"/>
 <path fill="none" stroke="rgb(0,0,0)" stroke-width="30" stroke-linejoin="round" d="M 3464,10961 L 3464,10811"/>
 <path fill="none" stroke="rgb(0,0,0)" stroke-width="30" stroke-linejoin="round" d="M 3464,10961 L 3464,10811"/>
 <path fill="none" stroke="rgb(0,0,0)" stroke-width="30" stroke-linejoin="round" d="M 3584,10961 L 3584,10811"/>
 <path fill="none" stroke="rgb(0,0,0)" stroke-width="30" stroke-linejoin="round" d="M 3584,10961 L 3584,10811"/>
 <path fill="none" stroke="rgb(0,0,0)" stroke-width="30" stroke-linejoin="round" d="M 3705,10961 L 3705,10811"/>
 <path fill="none" stroke="rgb(0,0,0)" stroke-width="30" stroke-linejoin="round" d="M 3705,10961 L 3705,10811"/>
 <path fill="none" stroke="rgb(0,0,0)" stroke-width="30" stroke-linejoin="round" d="M 3826,10961 L 3826,10811"/>
 <path fill="none" stroke="rgb(0,0,0)" stroke-width="30" stroke-linejoin="round" d="M 3826,10961 L 3826,10811"/>
 <path fill="none" stroke="rgb(0,0,0)" stroke-width="30" stroke-linejoin="round" d="M 3947,10961 L 3947,10811"/>
 <path fill="none" stroke="rgb(0,0,0)" stroke-width="30" stroke-linejoin="round" d="M 3947,10961 L 3947,10811"/>
 <path fill="none" stroke="rgb(0,0,0)" stroke-width="30" stroke-linejoin="round" d="M 4068,10961 L 4068,10811"/>
 <path fill="none" stroke="rgb(0,0,0)" stroke-width="30" stroke-linejoin="round" d="M 4068,10961 L 4068,10811"/>
 <path fill="none" stroke="rgb(0,0,0)" stroke-width="30" stroke-linejoin="round" d="M 4189,10961 L 4189,10811"/>
 <path fill="none" stroke="rgb(0,0,0)" stroke-width="30" stroke-linejoin="round" d="M 4189,10961 L 4189,10811"/>
 <path fill="none" stroke="rgb(0,0,0)" stroke-width="30" stroke-linejoin="round" d="M 4310,10961 L 4310,10811"/>
 <path fill="none" stroke="rgb(0,0,0)" stroke-width="30" stroke-linejoin="round" d="M 4310,10961 L 4310,10811"/>
 <path fill="none" stroke="rgb(0,0,0)" stroke-width="30" stroke-linejoin="round" d="M 4431,10961 L 4431,10811"/>
 <path fill="none" stroke="rgb(0,0,0)" stroke-width="30" stroke-linejoin="round" d="M 4431,10961 L 4431,10811"/>
 <path fill="none" stroke="rgb(0,0,0)" stroke-width="30" stroke-linejoin="round" d="M 4552,10961 L 4552,10811"/>
 <path fill="none" stroke="rgb(0,0,0)" stroke-width="30" stroke-linejoin="round" d="M 4552,10961 L 4552,10811"/>
 <path fill="none" stroke="rgb(0,0,0)" stroke-width="30" stroke-linejoin="round" d="M 4673,10961 L 4673,10811"/>
 <path fill="none" stroke="rgb(0,0,0)" stroke-width="30" stroke-linejoin="round" d="M 4673,10961 L 4673,10811"/>
 <path fill="none" stroke="rgb(0,0,0)" stroke-width="30" stroke-linejoin="round" d="M 4793,10961 L 4793,10811"/>
 <path fill="none" stroke="rgb(0,0,0)" stroke-width="30" stroke-linejoin="round" d="M 4793,10961 L 4793,10811"/>
 <path fill="none" stroke="rgb(0,0,0)" stroke-width="30" stroke-linejoin="round" d="M 4914,10961 L 4914,10811"/>
 <path fill="none" stroke="rgb(0,0,0)" stroke-width="30" stroke-linejoin="round" d="M 4914,10961 L 4914,10811"/>
 <path fill="none" stroke="rgb(0,0,0)" stroke-width="30" stroke-linejoin="round" d="M 5035,10961 L 5035,10811"/>
 <path fill="none" stroke="rgb(0,0,0)" stroke-width="30" stroke-linejoin="round" d="M 5035,10961 L 5035,10811"/>
 <path fill="none" stroke="rgb(0,0,0)" stroke-width="30" stroke-linejoin="round" d="M 5156,10961 L 5156,10811"/>
 <path fill="none" stroke="rgb(0,0,0)" stroke-width="30" stroke-linejoin="round" d="M 5156,10961 L 5156,10811"/>
 <path fill="none" stroke="rgb(0,0,0)" stroke-width="30" stroke-linejoin="round" d="M 5277,10961 L 5277,10811"/>
 <path fill="none" stroke="rgb(0,0,0)" stroke-width="30" stroke-linejoin="round" d="M 5277,10961 L 5277,10811"/>
 <path fill="none" stroke="rgb(0,0,0)" stroke-width="30" stroke-linejoin="round" d="M 5398,10961 L 5398,10811"/>
 <path fill="none" stroke="rgb(0,0,0)" stroke-width="30" stroke-linejoin="round" d="M 5398,10961 L 5398,10811"/>
 <path fill="none" stroke="rgb(0,0,0)" stroke-width="30" stroke-linejoin="round" d="M 5519,10961 L 5519,10811"/>
 <path fill="none" stroke="rgb(0,0,0)" stroke-width="30" stroke-linejoin="round" d="M 5519,10961 L 5519,10811"/>
 <path fill="none" stroke="rgb(0,0,0)" stroke-width="30" stroke-linejoin="round" d="M 5640,10961 L 5640,10811"/>
 <path fill="none" stroke="rgb(0,0,0)" stroke-width="30" stroke-linejoin="round" d="M 5640,10961 L 5640,10811"/>
 <path fill="none" stroke="rgb(0,0,0)" stroke-width="30" stroke-linejoin="round" d="M 5761,10961 L 5761,10811"/>
 <path fill="none" stroke="rgb(0,0,0)" stroke-width="30" stroke-linejoin="round" d="M 5761,10961 L 5761,10811"/>
 <path fill="none" stroke="rgb(0,0,0)" stroke-width="30" stroke-linejoin="round" d="M 5881,10961 L 5881,10811"/>
 <path fill="none" stroke="rgb(0,0,0)" stroke-width="30" stroke-linejoin="round" d="M 5881,10961 L 5881,10811"/>
 <path fill="none" stroke="rgb(0,0,0)" stroke-width="30" stroke-linejoin="round" d="M 6002,10961 L 6002,10811"/>
 <path fill="none" stroke="rgb(0,0,0)" stroke-width="30" stroke-linejoin="round" d="M 6002,10961 L 6002,10811"/>
 <path fill="none" stroke="rgb(0,0,0)" stroke-width="30" stroke-linejoin="round" d="M 6123,10961 L 6123,10811"/>
 <path fill="none" stroke="rgb(0,0,0)" stroke-width="30" stroke-linejoin="round" d="M 6123,10961 L 6123,10811"/>
 <path fill="none" stroke="rgb(0,0,0)" stroke-width="30" stroke-linejoin="round" d="M 6244,10961 L 6244,10811"/>
 <path fill="none" stroke="rgb(0,0,0)" stroke-width="30" stroke-linejoin="round" d="M 6244,10961 L 6244,10811"/>
 <path fill="none" stroke="rgb(0,0,0)" stroke-width="30" stroke-linejoin="round" d="M 6365,10961 L 6365,10811"/>
 <path fill="none" stroke="rgb(0,0,0)" stroke-width="30" stroke-linejoin="round" d="M 6365,10961 L 6365,10811"/>
 <path fill="none" stroke="rgb(0,0,0)" stroke-width="30" stroke-linejoin="round" d="M 6486,10961 L 6486,10811"/>
 <path fill="none" stroke="rgb(0,0,0)" stroke-width="30" stroke-linejoin="round" d="M 6486,10961 L 6486,10811"/>
 <path fill="none" stroke="rgb(0,0,0)" stroke-width="30" stroke-linejoin="round" d="M 6607,10961 L 6607,10811"/>
 <path fill="none" stroke="rgb(0,0,0)" stroke-width="30" stroke-linejoin="round" d="M 6607,10961 L 6607,10811"/>
 <path fill="none" stroke="rgb(0,0,0)" stroke-width="30" stroke-linejoin="round" d="M 6728,10961 L 6728,10811"/>
 <path fill="none" stroke="rgb(0,0,0)" stroke-width="30" stroke-linejoin="round" d="M 6728,10961 L 6728,10811"/>
 <path fill="none" stroke="rgb(0,0,0)" stroke-width="30" stroke-linejoin="round" d="M 6849,10961 L 6849,10811"/>
 <path fill="none" stroke="rgb(0,0,0)" stroke-width="30" stroke-linejoin="round" d="M 6849,10961 L 6849,10811"/>
 <path fill="none" stroke="rgb(0,0,0)" stroke-width="30" stroke-linejoin="round" d="M 6970,10961 L 6970,10811"/>
 <path fill="none" stroke="rgb(0,0,0)" stroke-width="30" stroke-linejoin="round" d="M 6970,10961 L 6970,10811"/>
 <path fill="none" stroke="rgb(0,0,0)" stroke-width="30" stroke-linejoin="round" d="M 7090,10961 L 7090,10811"/>
 <path fill="none" stroke="rgb(0,0,0)" stroke-width="30" stroke-linejoin="round" d="M 7090,10961 L 7090,10811"/>
 <path fill="none" stroke="rgb(0,0,0)" stroke-width="30" stroke-linejoin="round" d="M 7211,10961 L 7211,10811"/>
 <path fill="none" stroke="rgb(0,0,0)" stroke-width="30" stroke-linejoin="round" d="M 7211,10961 L 7211,10811"/>
 <path fill="none" stroke="rgb(0,0,0)" stroke-width="30" stroke-linejoin="round" d="M 7332,10961 L 7332,10811"/>
 <path fill="none" stroke="rgb(0,0,0)" stroke-width="30" stroke-linejoin="round" d="M 7332,10961 L 7332,10811"/>
 <path fill="none" stroke="rgb(0,0,0)" stroke-width="30" stroke-linejoin="round" d="M 7453,10961 L 7453,10811"/>
 <path fill="none" stroke="rgb(0,0,0)" stroke-width="30" stroke-linejoin="round" d="M 7453,10961 L 7453,10811"/>
 <path fill="none" stroke="rgb(0,0,0)" stroke-width="30" stroke-linejoin="round" d="M 7574,10961 L 7574,10811"/>
 <path fill="none" stroke="rgb(0,0,0)" stroke-width="30" stroke-linejoin="round" d="M 7574,10961 L 7574,10811"/>
 <path fill="none" stroke="rgb(0,0,0)" stroke-width="30" stroke-linejoin="round" d="M 7695,10961 L 7695,10811"/>
 <path fill="none" stroke="rgb(0,0,0)" stroke-width="30" stroke-linejoin="round" d="M 7695,10961 L 7695,10811"/>
 <path fill="none" stroke="rgb(0,0,0)" stroke-width="30" stroke-linejoin="round" d="M 7816,10961 L 7816,10811"/>
 <path fill="none" stroke="rgb(0,0,0)" stroke-width="30" stroke-linejoin="round" d="M 7816,10961 L 7816,10811"/>
 <path fill="none" stroke="rgb(0,0,0)" stroke-width="30" stroke-linejoin="round" d="M 7937,10961 L 7937,10811"/>
 <path fill="none" stroke="rgb(0,0,0)" stroke-width="30" stroke-linejoin="round" d="M 7937,10961 L 7937,10811"/>
 <path fill="none" stroke="rgb(0,0,0)" stroke-width="30" stroke-linejoin="round" d="M 8058,10961 L 8058,10811"/>
 <path fill="none" stroke="rgb(0,0,0)" stroke-width="30" stroke-linejoin="round" d="M 8058,10961 L 8058,10811"/>
 <path fill="none" stroke="rgb(0,0,0)" stroke-width="30" stroke-linejoin="round" d="M 8179,10961 L 8179,10811"/>
 <path fill="none" stroke="rgb(0,0,0)" stroke-width="30" stroke-linejoin="round" d="M 8179,10961 L 8179,10811"/>
 <path fill="none" stroke="rgb(0,0,0)" stroke-width="30" stroke-linejoin="round" d="M 8298,10961 L 8298,10811"/>
 <path fill="none" stroke="rgb(0,0,0)" stroke-width="30" stroke-linejoin="round" d="M 8298,10961 L 8298,10811"/>
 <path fill="none" stroke="rgb(0,0,0)" stroke-width="30" stroke-linejoin="round" d="M 8419,10961 L 8419,10811"/>
 <path fill="none" stroke="rgb(0,0,0)" stroke-width="30" stroke-linejoin="round" d="M 8419,10961 L 8419,10811"/>
 <path fill="none" stroke="rgb(0,0,0)" stroke-width="30" stroke-linejoin="round" d="M 8540,10961 L 8540,10811"/>
 <path fill="none" stroke="rgb(0,0,0)" stroke-width="30" stroke-linejoin="round" d="M 8540,10961 L 8540,10811"/>
 <path fill="none" stroke="rgb(0,0,0)" stroke-width="30" stroke-linejoin="round" d="M 8661,10961 L 8661,10811"/>
 <path fill="none" stroke="rgb(0,0,0)" stroke-width="30" stroke-linejoin="round" d="M 8661,10961 L 8661,10811"/>
 <path fill="none" stroke="rgb(0,0,0)" stroke-width="30" stroke-linejoin="round" d="M 8782,10961 L 8782,10811"/>
 <path fill="none" stroke="rgb(0,0,0)" stroke-width="30" stroke-linejoin="round" d="M 8782,10961 L 8782,10811"/>
 <path fill="none" stroke="rgb(0,0,0)" stroke-width="30" stroke-linejoin="round" d="M 8903,10961 L 8903,10811"/>
 <path fill="none" stroke="rgb(0,0,0)" stroke-width="30" stroke-linejoin="round" d="M 8903,10961 L 8903,10811"/>
 <path fill="none" stroke="rgb(0,0,0)" stroke-width="30" stroke-linejoin="round" d="M 9024,10961 L 9024,10811"/>
 <path fill="none" stroke="rgb(0,0,0)" stroke-width="30" stroke-linejoin="round" d="M 9024,10961 L 9024,10811"/>
 <path fill="none" stroke="rgb(0,0,0)" stroke-width="30" stroke-linejoin="round" d="M 9145,10961 L 9145,10811"/>
 <path fill="none" stroke="rgb(0,0,0)" stroke-width="30" stroke-linejoin="round" d="M 9145,10961 L 9145,10811"/>
 <path fill="none" stroke="rgb(0,0,0)" stroke-width="30" stroke-linejoin="round" d="M 9266,10961 L 9266,10811"/>
 <path fill="none" stroke="rgb(0,0,0)" stroke-width="30" stroke-linejoin="round" d="M 9266,10961 L 9266,10811"/>
 <path fill="none" stroke="rgb(0,0,0)" stroke-width="30" stroke-linejoin="round" d="M 9386,10961 L 9386,10811"/>
 <path fill="none" stroke="rgb(0,0,0)" stroke-width="30" stroke-linejoin="round" d="M 9386,10961 L 9386,10811"/>
 <path fill="none" stroke="rgb(0,0,0)" stroke-width="30" stroke-linejoin="round" d="M 9507,10961 L 9507,10811"/>
 <path fill="none" stroke="rgb(0,0,0)" stroke-width="30" stroke-linejoin="round" d="M 9507,10961 L 9507,10811"/>
 <path fill="none" stroke="rgb(0,0,0)" stroke-width="30" stroke-linejoin="round" d="M 9628,10961 L 9628,10811"/>
 <path fill="none" stroke="rgb(0,0,0)" stroke-width="30" stroke-linejoin="round" d="M 9628,10961 L 9628,10811"/>
 <path fill="none" stroke="rgb(0,0,0)" stroke-width="30" stroke-linejoin="round" d="M 9749,10961 L 9749,10811"/>
 <path fill="none" stroke="rgb(0,0,0)" stroke-width="30" stroke-linejoin="round" d="M 9749,10961 L 9749,10811"/>
 <path fill="none" stroke="rgb(0,0,0)" stroke-width="30" stroke-linejoin="round" d="M 9870,10961 L 9870,10811"/>
 <path fill="none" stroke="rgb(0,0,0)" stroke-width="30" stroke-linejoin="round" d="M 9870,10961 L 9870,10811"/>
 <path fill="none" stroke="rgb(0,0,0)" stroke-width="30" stroke-linejoin="round" d="M 9991,10961 L 9991,10811"/>
 <path fill="none" stroke="rgb(0,0,0)" stroke-width="30" stroke-linejoin="round" d="M 9991,10961 L 9991,10811"/>
 <path fill="none" stroke="rgb(0,0,0)" stroke-width="30" stroke-linejoin="round" d="M 10112,10961 L 10112,10811"/>
 <path fill="none" stroke="rgb(0,0,0)" stroke-width="30" stroke-linejoin="round" d="M 10112,10961 L 10112,10811"/>
 <path fill="none" stroke="rgb(0,0,0)" stroke-width="30" stroke-linejoin="round" d="M 10233,10961 L 10233,10811"/>
 <path fill="none" stroke="rgb(0,0,0)" stroke-width="30" stroke-linejoin="round" d="M 10233,10961 L 10233,10811"/>
 <path fill="none" stroke="rgb(0,0,0)" stroke-width="30" stroke-linejoin="round" d="M 10354,10961 L 10354,10811"/>
 <path fill="none" stroke="rgb(0,0,0)" stroke-width="30" stroke-linejoin="round" d="M 10354,10961 L 10354,10811"/>
 <path fill="none" stroke="rgb(0,0,0)" stroke-width="30" stroke-linejoin="round" d="M 10475,10961 L 10475,10811"/>
 <path fill="none" stroke="rgb(0,0,0)" stroke-width="30" stroke-linejoin="round" d="M 10475,10961 L 10475,10811"/>
 <path fill="none" stroke="rgb(0,0,0)" stroke-width="30" stroke-linejoin="round" d="M 10595,10961 L 10595,10811"/>
 <path fill="none" stroke="rgb(0,0,0)" stroke-width="30" stroke-linejoin="round" d="M 10595,10961 L 10595,10811"/>
 <path fill="none" stroke="rgb(0,0,0)" stroke-width="30" stroke-linejoin="round" d="M 10716,10961 L 10716,10811"/>
 <path fill="none" stroke="rgb(0,0,0)" stroke-width="30" stroke-linejoin="round" d="M 10716,10961 L 10716,10811"/>
 <path fill="none" stroke="rgb(0,0,0)" stroke-width="30" stroke-linejoin="round" d="M 10837,10961 L 10837,10811"/>
 <path fill="none" stroke="rgb(0,0,0)" stroke-width="30" stroke-linejoin="round" d="M 10837,10961 L 10837,10811"/>
 <path fill="none" stroke="rgb(0,0,0)" stroke-width="30" stroke-linejoin="round" d="M 10958,10961 L 10958,10811"/>
 <path fill="none" stroke="rgb(0,0,0)" stroke-width="30" stroke-linejoin="round" d="M 10958,10961 L 10958,10811"/>
 <path fill="none" stroke="rgb(0,0,0)" stroke-width="30" stroke-linejoin="round" d="M 11079,10961 L 11079,10811"/>
 <path fill="none" stroke="rgb(0,0,0)" stroke-width="30" stroke-linejoin="round" d="M 11079,10961 L 11079,10811"/>
 <path fill="none" stroke="rgb(0,0,0)" stroke-width="30" stroke-linejoin="round" d="M 11200,10961 L 11200,10811"/>
 <path fill="none" stroke="rgb(0,0,0)" stroke-width="30" stroke-linejoin="round" d="M 11200,10961 L 11200,10811"/>
 <path fill="none" stroke="rgb(0,0,0)" stroke-width="30" stroke-linejoin="round" d="M 11321,10961 L 11321,10811"/>
 <path fill="none" stroke="rgb(0,0,0)" stroke-width="30" stroke-linejoin="round" d="M 11321,10961 L 11321,10811"/>
 <path fill="none" stroke="rgb(0,0,0)" stroke-width="30" stroke-linejoin="round" d="M 11442,10961 L 11442,10811"/>
 <path fill="none" stroke="rgb(0,0,0)" stroke-width="30" stroke-linejoin="round" d="M 11442,10961 L 11442,10811"/>
 <path fill="none" stroke="rgb(0,0,0)" stroke-width="30" stroke-linejoin="round" d="M 11563,10961 L 11563,10811"/>
 <path fill="none" stroke="rgb(0,0,0)" stroke-width="30" stroke-linejoin="round" d="M 11563,10961 L 11563,10811"/>
 <path fill="none" stroke="rgb(0,0,0)" stroke-width="30" stroke-linejoin="round" d="M 11684,10961 L 11684,10811"/>
 <path fill="none" stroke="rgb(0,0,0)" stroke-width="30" stroke-linejoin="round" d="M 11684,10961 L 11684,10811"/>
 <path fill="none" stroke="rgb(0,0,0)" stroke-width="30" stroke-linejoin="round" d="M 11804,10961 L 11804,10811"/>
 <path fill="none" stroke="rgb(0,0,0)" stroke-width="30" stroke-linejoin="round" d="M 11804,10961 L 11804,10811"/>
 <path fill="none" stroke="rgb(0,0,0)" stroke-width="30" stroke-linejoin="round" d="M 11925,10961 L 11925,10811"/>
 <path fill="none" stroke="rgb(0,0,0)" stroke-width="30" stroke-linejoin="round" d="M 11925,10961 L 11925,10811"/>
 <path fill="none" stroke="rgb(0,0,0)" stroke-width="30" stroke-linejoin="round" d="M 12046,10961 L 12046,10811"/>
 <path fill="none" stroke="rgb(0,0,0)" stroke-width="30" stroke-linejoin="round" d="M 12046,10961 L 12046,10811"/>
 <path fill="none" stroke="rgb(0,0,0)" stroke-width="30" stroke-linejoin="round" d="M 12167,10961 L 12167,10811"/>
 <path fill="none" stroke="rgb(0,0,0)" stroke-width="30" stroke-linejoin="round" d="M 12167,10961 L 12167,10811"/>
 <path fill="none" stroke="rgb(0,0,0)" stroke-width="30" stroke-linejoin="round" d="M 12288,10961 L 12288,10811"/>
 <path fill="none" stroke="rgb(0,0,0)" stroke-width="30" stroke-linejoin="round" d="M 12288,10961 L 12288,10811"/>
 <path fill="none" stroke="rgb(0,0,0)" stroke-width="30" stroke-linejoin="round" d="M 12409,10961 L 12409,10811"/>
 <path fill="none" stroke="rgb(0,0,0)" stroke-width="30" stroke-linejoin="round" d="M 12409,10961 L 12409,10811"/>
 <path fill="none" stroke="rgb(0,0,0)" stroke-width="30" stroke-linejoin="round" d="M 12530,10961 L 12530,10811"/>
 <path fill="none" stroke="rgb(0,0,0)" stroke-width="30" stroke-linejoin="round" d="M 12530,10961 L 12530,10811"/>
 <path fill="none" stroke="rgb(0,0,0)" stroke-width="30" stroke-linejoin="round" d="M 12651,10961 L 12651,10811"/>
 <path fill="none" stroke="rgb(0,0,0)" stroke-width="30" stroke-linejoin="round" d="M 12651,10961 L 12651,10811"/>
 <path fill="none" stroke="rgb(0,0,0)" stroke-width="30" stroke-linejoin="round" d="M 12772,10961 L 12772,10811"/>
 <path fill="none" stroke="rgb(0,0,0)" stroke-width="30" stroke-linejoin="round" d="M 12772,10961 L 12772,10811"/>
 <path fill="none" stroke="rgb(0,0,0)" stroke-width="30" stroke-linejoin="round" d="M 12892,10961 L 12892,10811"/>
 <path fill="none" stroke="rgb(0,0,0)" stroke-width="30" stroke-linejoin="round" d="M 12892,10961 L 12892,10811"/>
 <path fill="none" stroke="rgb(0,0,0)" stroke-width="30" stroke-linejoin="round" d="M 13013,10961 L 13013,10811"/>
 <path fill="none" stroke="rgb(0,0,0)" stroke-width="30" stroke-linejoin="round" d="M 13013,10961 L 13013,10811"/>
 <path fill="none" stroke="rgb(0,0,0)" stroke-width="30" stroke-linejoin="round" d="M 13134,10961 L 13134,10811"/>
 <path fill="none" stroke="rgb(0,0,0)" stroke-width="30" stroke-linejoin="round" d="M 13134,10961 L 13134,10811"/>
 <path fill="none" stroke="rgb(0,0,0)" stroke-width="30" stroke-linejoin="round" d="M 13255,10961 L 13255,10811"/>
 <path fill="none" stroke="rgb(0,0,0)" stroke-width="30" stroke-linejoin="round" d="M 13255,10961 L 13255,10811"/>
 <path fill="none" stroke="rgb(0,0,0)" stroke-width="30" stroke-linejoin="round" d="M 13376,10961 L 13376,10811"/>
 <path fill="none" stroke="rgb(0,0,0)" stroke-width="30" stroke-linejoin="round" d="M 13376,10961 L 13376,10811"/>
 <path fill="none" stroke="rgb(0,0,0)" stroke-width="30" stroke-linejoin="round" d="M 13497,10961 L 13497,10811"/>
 <path fill="none" stroke="rgb(0,0,0)" stroke-width="30" stroke-linejoin="round" d="M 13497,10961 L 13497,10811"/>
 <path fill="none" stroke="rgb(0,0,0)" stroke-width="30" stroke-linejoin="round" d="M 13618,10961 L 13618,10811"/>
 <path fill="none" stroke="rgb(0,0,0)" stroke-width="30" stroke-linejoin="round" d="M 13618,10961 L 13618,10811"/>
 <path fill="none" stroke="rgb(0,0,0)" stroke-width="30" stroke-linejoin="round" d="M 13739,10961 L 13739,10811"/>
 <path fill="none" stroke="rgb(0,0,0)" stroke-width="30" stroke-linejoin="round" d="M 13739,10961 L 13739,10811"/>
 <path fill="none" stroke="rgb(0,0,0)" stroke-width="30" stroke-linejoin="round" d="M 13860,10961 L 13860,10811"/>
 <path fill="none" stroke="rgb(0,0,0)" stroke-width="30" stroke-linejoin="round" d="M 13860,10961 L 13860,10811"/>
 <path fill="none" stroke="rgb(0,0,0)" stroke-width="30" stroke-linejoin="round" d="M 13981,10961 L 13981,10811"/>
 <path fill="none" stroke="rgb(0,0,0)" stroke-width="30" stroke-linejoin="round" d="M 13981,10961 L 13981,10811"/>
 <path fill="none" stroke="rgb(0,0,0)" stroke-width="30" stroke-linejoin="round" d="M 14101,10961 L 14101,10811"/>
 <path fill="none" stroke="rgb(0,0,0)" stroke-width="30" stroke-linejoin="round" d="M 14101,10961 L 14101,10811"/>
 <path fill="none" stroke="rgb(0,0,0)" stroke-width="30" stroke-linejoin="round" d="M 14222,10961 L 14222,10811"/>
 <path fill="none" stroke="rgb(0,0,0)" stroke-width="30" stroke-linejoin="round" d="M 14222,10961 L 14222,10811"/>
 <path fill="none" stroke="rgb(0,0,0)" stroke-width="30" stroke-linejoin="round" d="M 14343,10961 L 14343,10811"/>
 <path fill="none" stroke="rgb(0,0,0)" stroke-width="30" stroke-linejoin="round" d="M 14343,10961 L 14343,10811"/>
 <path fill="none" stroke="rgb(0,0,0)" stroke-width="30" stroke-linejoin="round" d="M 14464,10961 L 14464,10811"/>
 <path fill="none" stroke="rgb(0,0,0)" stroke-width="30" stroke-linejoin="round" d="M 14464,10961 L 14464,10811"/>
 <path fill="none" stroke="rgb(0,0,0)" stroke-width="30" stroke-linejoin="round" d="M 14585,10961 L 14585,10811"/>
 <path fill="none" stroke="rgb(0,0,0)" stroke-width="30" stroke-linejoin="round" d="M 14585,10961 L 14585,10811"/>
 <path fill="none" stroke="rgb(0,0,0)" stroke-width="30" stroke-linejoin="round" d="M 14706,10961 L 14706,10811"/>
 <path fill="none" stroke="rgb(0,0,0)" stroke-width="30" stroke-linejoin="round" d="M 14706,10961 L 14706,10811"/>
 <path fill="none" stroke="rgb(0,0,0)" stroke-width="30" stroke-linejoin="round" d="M 14827,10961 L 14827,10811"/>
 <path fill="none" stroke="rgb(0,0,0)" stroke-width="30" stroke-linejoin="round" d="M 14827,10961 L 14827,10811"/>
 <path fill="none" stroke="rgb(0,0,0)" stroke-width="30" stroke-linejoin="round" d="M 14948,10961 L 14948,10811"/>
 <path fill="none" stroke="rgb(0,0,0)" stroke-width="30" stroke-linejoin="round" d="M 14948,10961 L 14948,10811"/>
 <path fill="none" stroke="rgb(0,0,0)" stroke-width="30" stroke-linejoin="round" d="M 15069,10961 L 15069,10811"/>
 <path fill="none" stroke="rgb(0,0,0)" stroke-width="30" stroke-linejoin="round" d="M 15069,10961 L 15069,10811"/>
 <path fill="none" stroke="rgb(0,0,0)" stroke-width="30" stroke-linejoin="round" d="M 15190,10961 L 15190,10811"/>
 <path fill="none" stroke="rgb(0,0,0)" stroke-width="30" stroke-linejoin="round" d="M 15190,10961 L 15190,10811"/>
 <path fill="none" stroke="rgb(0,0,0)" stroke-width="30" stroke-linejoin="round" d="M 1167,10811 L 15190,10811"/>
 <path fill="none" stroke="rgb(0,0,0)" stroke-width="30" stroke-linejoin="round" d="M 1017,10811 L 1167,10811"/>
 <path fill="none" stroke="rgb(0,0,0)" stroke-width="30" stroke-linejoin="round" d="M 1017,10811 L 1167,10811"/>
 <path fill="none" stroke="rgb(0,0,0)" stroke-width="30" stroke-linejoin="round" d="M 1017,9515 L 1167,9515"/>
 <path fill="none" stroke="rgb(0,0,0)" stroke-width="30" stroke-linejoin="round" d="M 1017,9515 L 1167,9515"/>
 <path fill="none" stroke="rgb(0,0,0)" stroke-width="30" stroke-linejoin="round" d="M 1017,8219 L 1167,8219"/>
 <path fill="none" stroke="rgb(0,0,0)" stroke-width="30" stroke-linejoin="round" d="M 1017,8219 L 1167,8219"/>
 <path fill="none" stroke="rgb(0,0,0)" stroke-width="30" stroke-linejoin="round" d="M 1017,6923 L 1167,6923"/>
 <path fill="none" stroke="rgb(0,0,0)" stroke-width="30" stroke-linejoin="round" d="M 1017,6923 L 1167,6923"/>
 <path fill="none" stroke="rgb(0,0,0)" stroke-width="30" stroke-linejoin="round" d="M 1017,5628 L 1167,5628"/>
 <path fill="none" stroke="rgb(0,0,0)" stroke-width="30" stroke-linejoin="round" d="M 1017,5628 L 1167,5628"/>
 <path fill="none" stroke="rgb(0,0,0)" stroke-width="30" stroke-linejoin="round" d="M 1017,4332 L 1167,4332"/>
 <path fill="none" stroke="rgb(0,0,0)" stroke-width="30" stroke-linejoin="round" d="M 1017,4332 L 1167,4332"/>
 <path fill="none" stroke="rgb(0,0,0)" stroke-width="30" stroke-linejoin="round" d="M 1017,3036 L 1167,3036"/>
 <path fill="none" stroke="rgb(0,0,0)" stroke-width="30" stroke-linejoin="round" d="M 1017,3036 L 1167,3036"/>
 <path fill="none" stroke="rgb(0,0,0)" stroke-width="30" stroke-linejoin="round" d="M 1017,1740 L 1167,1740"/>
 <path fill="none" stroke="rgb(0,0,0)" stroke-width="30" stroke-linejoin="round" d="M 1017,1740 L 1167,1740"/>
 <path fill="none" stroke="rgb(0,0,0)" stroke-width="30" stroke-linejoin="round" d="M 1167,10811 L 1167,1092"/>
 <path fill="none" stroke="rgb(0,0,0)" stroke-width="30" stroke-linejoin="round" d="M 15340,10811 L 15190,10811"/>
 <path fill="none" stroke="rgb(0,0,0)" stroke-width="30" stroke-linejoin="round" d="M 15340,10811 L 15190,10811"/>
 <path fill="none" stroke="rgb(0,0,0)" stroke-width="30" stroke-linejoin="round" d="M 15340,9515 L 15190,9515"/>
 <path fill="none" stroke="rgb(0,0,0)" stroke-width="30" stroke-linejoin="round" d="M 15340,9515 L 15190,9515"/>
 <path fill="none" stroke="rgb(0,0,0)" stroke-width="30" stroke-linejoin="round" d="M 15340,8219 L 15190,8219"/>
 <path fill="none" stroke="rgb(0,0,0)" stroke-width="30" stroke-linejoin="round" d="M 15340,8219 L 15190,8219"/>
 <path fill="none" stroke="rgb(0,0,0)" stroke-width="30" stroke-linejoin="round" d="M 15340,6923 L 15190,6923"/>
 <path fill="none" stroke="rgb(0,0,0)" stroke-width="30" stroke-linejoin="round" d="M 15340,6923 L 15190,6923"/>
 <path fill="none" stroke="rgb(0,0,0)" stroke-width="30" stroke-linejoin="round" d="M 15340,5628 L 15190,5628"/>
 <path fill="none" stroke="rgb(0,0,0)" stroke-width="30" stroke-linejoin="round" d="M 15340,5628 L 15190,5628"/>
 <path fill="none" stroke="rgb(0,0,0)" stroke-width="30" stroke-linejoin="round" d="M 15340,4332 L 15190,4332"/>
 <path fill="none" stroke="rgb(0,0,0)" stroke-width="30" stroke-linejoin="round" d="M 15340,4332 L 15190,4332"/>
 <path fill="none" stroke="rgb(0,0,0)" stroke-width="30" stroke-linejoin="round" d="M 15340,3036 L 15190,3036"/>
 <path fill="none" stroke="rgb(0,0,0)" stroke-width="30" stroke-linejoin="round" d="M 15340,3036 L 15190,3036"/>
 <path fill="none" stroke="rgb(0,0,0)" stroke-width="30" stroke-linejoin="round" d="M 15340,1740 L 15190,1740"/>
 <path fill="none" stroke="rgb(0,0,0)" stroke-width="30" stroke-linejoin="round" d="M 15340,1740 L 15190,1740"/>
 <path fill="none" stroke="rgb(0,0,0)" stroke-width="30" stroke-linejoin="round" d="M 15190,10811 L 15190,1092"/>
 <path fill="none" stroke="rgb(0,69,134)" stroke-width="88" stroke-linejoin="round" d="M 1167,9060 L 1287,9119 1408,9054 1529,9014 1650,9106 1771,9075 1892,9052 2013,9071 2134,9066 2255,9048 2375,9032 2496,9048 2617,9089 2738,9089 2859,9111 2980,9105 3101,9117 3222,9115 3343,9128 3464,9137 3584,9148 3705,9191 3826,9162 3947,9196 4068,9222 4189,9235 4310,9251 4431,9231 4552,9236 4673,9228 4793,9193 4914,9157 5035,9198 5156,9209 5277,9200 5398,9238 5519,9270 5640,9311 5761,9381 5881,9336 6002,9285 6123,9320 6244,9312 6365,9347 6486,9443 6607,9419 6728,9400 6849,9406 6970,9446 7090,9509 7211,9525 7332,9527 7453,9588 7574,9651 7695,9630 7816,9649 7937,9661 8058,9675 8179,9709 8298,9721 8419,9763 8540,9876 8661,9848 8782,9844 8903,9854 9024,9833 9145,9811 9266,9855 9386,9889 9507,9940 9628,9937 9749,9919 9870,9941 9991,9997 10112,9988 10233,9976 10354,9994 10475,9967 10595,9916 10716,9873 10837,9853 10958,9905 11079,9876 11200,9937 11321,9986 11442,10006 11563,10059 11684,10059 11804,10061 11925,10073 12046,10100 12167,10109 12288,10135 12409,10156 12530,10155 12651,10159 12772,10218 12892,10266 13013,10288 13134,10261 13255,10288 13376,10319 13497,10325 13618,10334 13739,10357 13860,10350 13981,10363 14101,10378 14222,10404 14343,10442 14464,10455 14585,10439 14706,10442 14827,10452 14948,10446 15069,10462 15190,10487"/>
 <path fill="none" stroke="rgb(255,66,14)" stroke-width="88" stroke-linejoin="round" d="M 1167,3081 L 1287,3164 1408,3407 1529,3537 1650,3620 1771,3584 1892,3849 2013,3989 2134,4067 2255,4232 2375,4372 2496,4422 2617,4626 2738,4775 2859,4964 2980,5016 3101,5108 3222,5210 3343,5279 3464,5383 3584,5469 3705,5567 3826,5686 3947,5740 4068,5901 4189,6028 4310,6276 4431,6351 4552,6477 4673,6591 4793,6613 4914,6658 5035,6740 5156,6876 5277,6932 5398,6977 5519,6982 5640,7077 5761,7223 5881,7232 6002,7280 6123,7361 6244,7405 6365,7460 6486,7530 6607,7626 6728,7687 6849,7861 6970,7778 7090,7634 7211,7679 7332,7766 7453,7792 7574,7727 7695,7856 7816,8001 7937,8053 8058,8094 8179,8036 8298,8137 8419,8115 8540,7900 8661,8037 8782,7914 8903,7980 9024,8063 9145,8111 9266,8097 9386,8067 9507,8269 9628,8327 9749,8436 9870,8438 9991,8441 10112,8449 10233,8523 10354,8574 10475,8616 10595,8690 10716,8694 10837,8489 10958,8650 11079,8755 11200,8798 11321,8808 11442,8811 11563,8650 11684,8650 11804,8942 11925,9029 12046,9054 12167,9086 12288,9095 12409,9117 12530,9242 12651,9248 12772,9257 12892,9227 13013,9281 13134,9353 13255,9408 13376,9308 13497,9371 13618,9445 13739,9417 13860,9539 13981,9601 14101,9539 14222,9610 14343,9511 14464,9531 14585,9551 14706,9537 14827,9486 14948,9579 15069,9597 15190,9533"/>
 <path fill="none" stroke="rgb(255,211,32)" stroke-width="88" stroke-linejoin="round" d="M 1167,7687 L 1287,7555 1408,7371 1529,7291 1650,7119 1771,7188 1892,6954 2013,6803 2134,6735 2255,6601 2375,6483 2496,6440 2617,6219 2738,6116 2859,5963 2980,5968 3101,5915 3222,5892 3343,5857 3464,5814 3584,5774 3705,5749 3826,5755 3947,5771 4068,5721 4189,5761 4310,5755 4431,5848 4552,5879 4673,5914 4793,6021 4914,6115 5035,6144 5156,6166 5277,6223 5398,6276 5519,6333 5640,6338 5761,6347 5881,6420 6002,6483 6123,6474 6244,6517 6365,6574 6486,6558 6607,6608 6728,6619 6849,6580 6970,6683 7090,6834 7211,6873 7332,6859 7453,6893 7574,6937 7695,6956 7816,6924 7937,6878 8058,6889 8179,6972 8298,7050 8419,7088 8540,7234 8661,7280 8782,7494 8903,7446 9024,7420 9145,7427 9266,7523 9386,7586 9507,7628 9628,7620 9749,7574 9870,7618 9991,7666 10112,7710 10233,7743 10354,7749 10475,7791 10595,7775 10716,7787 10837,7949 10958,7981 11079,8132 11200,8178 11321,8190 11442,8243 11563,8316 11684,8316 11804,8225 11925,8274 12046,8251 12167,8329 12288,8395 12409,8419 12530,8493 12651,8489 12772,8504 12892,8579 13013,8618 13134,8597 13255,8676 13376,8697 13497,8742 13618,8821 13739,8924 13860,9060 13981,9067 14101,9144 14222,9166 14343,9238 14464,9231 14585,9219 14706,9253 14827,9260 14948,9302 15069,9328 15190,9373"/>
 <path fill="none" stroke="rgb(87,157,28)" stroke-width="88" stroke-linejoin="round" d="M 1167,10503 L 1287,10490 1408,10490 1529,10487 1650,10480 1771,10485 1892,10477 2013,10468 2134,10459 2255,10454 2375,10450 2496,10432 2617,10402 2738,10367 2859,10313 2980,10271 3101,10226 3222,10164 3343,10126 3464,10067 3584,10001 3705,9899 3826,9818 3947,9730 4068,9607 4189,9435 4310,9191 4431,9063 4552,8914 4673,8797 4793,8701 4914,8607 5035,8487 5156,8352 5277,8264 5398,8133 5519,8037 5640,7919 5761,7708 5881,7704 6002,7634 6123,7555 6244,7499 6365,7376 6486,7266 6607,7197 6728,7140 6849,7007 6970,6961 7090,6917 7211,6830 7332,6772 7453,6680 7574,6641 7695,6553 7816,6424 7937,6398 8058,6304 8179,6236 8298,6064 8419,5975 8540,5928 8661,5769 8782,5713 8903,5622 9024,5598 9145,5587 9266,5480 9386,5456 9507,5271 9628,5200 9749,5104 9870,4950 9991,4860 10112,4825 10233,4719 10354,4615 10475,4567 10595,4623 10716,4575 10837,4617 10958,4335 11079,4147 11200,4032 11321,3965 11442,3884 11563,3908 11684,3908 11804,3770 11925,3628 12046,3585 12167,3436 12288,3305 12409,3212 12530,3007 12651,3015 12772,2916 12892,2836 13013,2745 13134,2779 13255,2618 13376,2658 13497,2565 13618,2429 13739,2327 13860,2096 13981,2061 14101,2039 14222,1949 14343,1873 14464,1784 14585,1773 14706,1729 14827,1808 14948,1681 15069,1645 15190,1657"/>
 <path fill="none" stroke="rgb(126,0,33)" stroke-width="88" stroke-linejoin="round" d="M 1167,10763 L 1287,10765 1408,10770 1529,10765 1650,10768 1771,10761 1892,10761 2013,10761 2134,10766 2255,10759 2375,10756 2496,10751 2617,10757 2738,10747 2859,10743 2980,10734 3101,10729 3222,10713 3343,10704 3464,10694 3584,10703 3705,10689 3826,10674 3947,10658 4068,10645 4189,10636 4310,10621 4431,10601 4552,10588 4673,10564 4793,10566 4914,10556 5035,10524 5156,10490 5277,10475 5398,10468 5519,10471 5640,10448 5761,10433 5881,10401 6002,10410 6123,10383 6244,10359 6365,10335 6486,10295 6607,10243 6728,10245 6849,10239 6970,10225 7090,10197 7211,10185 7332,10168 7453,10139 7574,10137 7695,10098 7816,10095 7937,10103 8058,10130 8179,10140 8298,10122 8419,10152 8540,10156 8661,10160 8782,10129 8903,10191 9024,10179 9145,10157 9266,10139 9386,10095 9507,9986 9628,10010 9749,10060 9870,10147 9991,10129 10112,10121 10233,10133 10354,10161 10475,10152 10595,10089 10716,10164 10837,10186 10958,10222 11079,10183 11200,10148 11321,10144 11442,10150 11563,10161 11684,10161 11804,10095 11925,10090 12046,10103 12167,10134 12288,10164 12409,10190 12530,10196 12651,10183 12772,10199 12892,10186 13013,10161 13134,10104 13255,10103 13376,10111 13497,10091 13618,10065 13739,10069 13860,10048 13981,10000 14101,9994 14222,9964 14343,10029 14464,10093 14585,10112 14706,10133 14827,10087 14948,10085 15069,10061 15190,10045"/>
 <text class="TextShape"><tspan class="TextParagraph" font-family="Arial, sans-serif" font-size="388px" font-weight="400"><tspan class="TextPosition" x="984" y="11405"><tspan fill="rgb(0,0,0)" stroke="none">2008</tspan></tspan></tspan></text>
 <text class="TextShape"><tspan class="TextParagraph" font-family="Arial, sans-serif" font-size="388px" font-weight="400"><tspan class="TextPosition" x="2435" y="11405"><tspan fill="rgb(0,0,0)" stroke="none">2009</tspan></tspan></tspan></text>
 <text class="TextShape"><tspan class="TextParagraph" font-family="Arial, sans-serif" font-size="388px" font-weight="400"><tspan class="TextPosition" x="3886" y="11405"><tspan fill="rgb(0,0,0)" stroke="none">2010</tspan></tspan></tspan></text>
 <text class="TextShape"><tspan class="TextParagraph" font-family="Arial, sans-serif" font-size="388px" font-weight="400"><tspan class="TextPosition" x="5337" y="11405"><tspan fill="rgb(0,0,0)" stroke="none">2011</tspan></tspan></tspan></text>
 <text class="TextShape"><tspan class="TextParagraph" font-family="Arial, sans-serif" font-size="388px" font-weight="400"><tspan class="TextPosition" x="6787" y="11405"><tspan fill="rgb(0,0,0)" stroke="none">2012</tspan></tspan></tspan></text>
 <text class="TextShape"><tspan class="TextParagraph" font-family="Arial, sans-serif" font-size="388px" font-weight="400"><tspan class="TextPosition" x="8238" y="11405"><tspan fill="rgb(0,0,0)" stroke="none">2013</tspan></tspan></tspan></text>
 <text class="TextShape"><tspan class="TextParagraph" font-family="Arial, sans-serif" font-size="388px" font-weight="400"><tspan class="TextPosition" x="9689" y="11405"><tspan fill="rgb(0,0,0)" stroke="none">2014</tspan></tspan></tspan></text>
 <text class="TextShape"><tspan class="TextParagraph" font-family="Arial, sans-serif" font-size="388px" font-weight="400"><tspan class="TextPosition" x="11140" y="11405"><tspan fill="rgb(0,0,0)" stroke="none">2015</tspan></tspan></tspan></text>
 <text class="TextShape"><tspan class="TextParagraph" font-family="Arial, sans-serif" font-size="388px" font-weight="400"><tspan class="TextPosition" x="12590" y="11405"><tspan fill="rgb(0,0,0)" stroke="none">2016</tspan></tspan></tspan></text>
 <text class="TextShape"><tspan class="TextParagraph" font-family="Arial, sans-serif" font-size="388px" font-weight="400"><tspan class="TextPosition" x="14041" y="11405"><tspan fill="rgb(0,0,0)" stroke="none">2017</tspan></tspan></tspan></text>
 <text class="TextShape"><tspan class="TextParagraph" font-family="Arial, sans-serif" font-size="388px" font-weight="400"><tspan class="TextPosition" x="361" y="10945"><tspan fill="rgb(0,0,0)" stroke="none">0%</tspan></tspan></tspan></text>
 <text class="TextShape"><tspan class="TextParagraph" font-family="Arial, sans-serif" font-size="388px" font-weight="400"><tspan class="TextPosition" x="150" y="9649"><tspan fill="rgb(0,0,0)" stroke="none">10%</tspan></tspan></tspan></text>
 <text class="TextShape"><tspan class="TextParagraph" font-family="Arial, sans-serif" font-size="388px" font-weight="400"><tspan class="TextPosition" x="150" y="8353"><tspan fill="rgb(0,0,0)" stroke="none">20%</tspan></tspan></tspan></text>
 <text class="TextShape"><tspan class="TextParagraph" font-family="Arial, sans-serif" font-size="388px" font-weight="400"><tspan class="TextPosition" x="150" y="7057"><tspan fill="rgb(0,0,0)" stroke="none">30%</tspan></tspan></tspan></text>
 <text class="TextShape"><tspan class="TextParagraph" font-family="Arial, sans-serif" font-size="388px" font-weight="400"><tspan class="TextPosition" x="150" y="5761"><tspan fill="rgb(0,0,0)" stroke="none">40%</tspan></tspan></tspan></text>
 <text class="TextShape"><tspan class="TextParagraph" font-family="Arial, sans-serif" font-size="388px" font-weight="400"><tspan class="TextPosition" x="150" y="4465"><tspan fill="rgb(0,0,0)" stroke="none">50%</tspan></tspan></tspan></text>
 <text class="TextShape"><tspan class="TextParagraph" font-family="Arial, sans-serif" font-size="388px" font-weight="400"><tspan class="TextPosition" x="150" y="3169"><tspan fill="rgb(0,0,0)" stroke="none">60%</tspan></tspan></tspan></text>
 <text class="TextShape"><tspan class="TextParagraph" font-family="Arial, sans-serif" font-size="388px" font-weight="400"><tspan class="TextPosition" x="150" y="1873"><tspan fill="rgb(0,0,0)" stroke="none">70%</tspan></tspan></tspan></text>
 <text class="TextShape"><tspan class="TextParagraph" font-family="Arial, sans-serif" font-size="388px" font-weight="400"><tspan class="TextPosition" x="15440" y="10945"><tspan fill="rgb(0,0,0)" stroke="none">0%</tspan></tspan></tspan></text>
 <text class="TextShape"><tspan class="TextParagraph" font-family="Arial, sans-serif" font-size="388px" font-weight="400"><tspan class="TextPosition" x="15440" y="9649"><tspan fill="rgb(0,0,0)" stroke="none">10%</tspan></tspan></tspan></text>
 <text class="TextShape"><tspan class="TextParagraph" font-family="Arial, sans-serif" font-size="388px" font-weight="400"><tspan class="TextPosition" x="15440" y="8353"><tspan fill="rgb(0,0,0)" stroke="none">20%</tspan></tspan></tspan></text>
 <text class="TextShape"><tspan class="TextParagraph" font-family="Arial, sans-serif" font-size="388px" font-weight="400"><tspan class="TextPosition" x="15440" y="7057"><tspan fill="rgb(0,0,0)" stroke="none">30%</tspan></tspan></tspan></text>
 <text class="TextShape"><tspan class="TextParagraph" font-family="Arial, sans-serif" font-size="388px" font-weight="400"><tspan class="TextPosition" x="15440" y="5761"><tspan fill="rgb(0,0,0)" stroke="none">40%</tspan></tspan></tspan></text>
 <text class="TextShape"><tspan class="TextParagraph" font-family="Arial, sans-serif" font-size="388px" font-weight="400"><tspan class="TextPosition" x="15440" y="4465"><tspan fill="rgb(0,0,0)" stroke="none">50%</tspan></tspan></tspan></text>
 <text class="TextShape"><tspan class="TextParagraph" font-family="Arial, sans-serif" font-size="388px" font-weight="400"><tspan class="TextPosition" x="15440" y="3169"><tspan fill="rgb(0,0,0)" stroke="none">60%</tspan></tspan></tspan></text>
 <text class="TextShape"><tspan class="TextParagraph" font-family="Arial, sans-serif" font-size="388px" font-weight="400"><tspan class="TextPosition" x="15440" y="1873"><tspan fill="rgb(0,0,0)" stroke="none">70%</tspan></tspan></tspan></text>
 <text class="TextShape"><tspan class="TextParagraph" font-family="Liberation Sans, sans-serif" font-size="635px" font-weight="400"><tspan class="TextPosition" x="5525" y="747"><tspan fill="rgb(0,0,0)" stroke="none">Relación de aspecto</tspan></tspan></tspan></text>
 <path fill="none" stroke="rgb(0,69,134)" stroke-width="88" stroke-linejoin="round" d="M 3445,11922 L 4245,11922"/>
 <path fill="none" stroke="rgb(255,66,14)" stroke-width="88" stroke-linejoin="round" d="M 5258,11922 L 6058,11922"/>
 <path fill="none" stroke="rgb(255,211,32)" stroke-width="88" stroke-linejoin="round" d="M 7071,11922 L 7871,11922"/>
 <path fill="none" stroke="rgb(87,157,28)" stroke-width="88" stroke-linejoin="round" d="M 8883,11922 L 9683,11922"/>
 <path fill="none" stroke="rgb(126,0,33)" stroke-width="88" stroke-linejoin="round" d="M 10934,11922 L 11734,11922"/>
 <text class="TextShape"><tspan class="TextParagraph" font-family="Arial, sans-serif" font-size="459px" font-weight="400"><tspan class="TextPosition" x="4345" y="12081"><tspan fill="rgb(0,0,0)" stroke="none">5:4</tspan></tspan></tspan></text>
 <text class="TextShape"><tspan class="TextParagraph" font-family="Arial, sans-serif" font-size="459px" font-weight="400"><tspan class="TextPosition" x="6158" y="12081"><tspan fill="rgb(0,0,0)" stroke="none">4:3</tspan></tspan></tspan></text>
 <text class="TextShape"><tspan class="TextParagraph" font-family="Arial, sans-serif" font-size="459px" font-weight="400"><tspan class="TextPosition" x="7971" y="12081"><tspan fill="rgb(0,0,0)" stroke="none">8:5</tspan></tspan></tspan></text>
 <text class="TextShape"><tspan class="TextParagraph" font-family="Arial, sans-serif" font-size="459px" font-weight="400"><tspan class="TextPosition" x="9783" y="12081"><tspan fill="rgb(0,0,0)" stroke="none">16:9</tspan></tspan></tspan></text>
 <text class="TextShape"><tspan class="TextParagraph" font-family="Arial, sans-serif" font-size="459px" font-weight="400"><tspan class="TextPosition" x="11834" y="12081"><tspan fill="rgb(0,0,0)" stroke="none">Otros</tspan></tspan></tspan></text>
</svg>
