<?xml version="1.0" encoding="UTF-8"?>
<!DOCTYPE svg PUBLIC "-//W3C//DTD SVG 1.1//EN" "http://www.w3.org/Graphics/SVG/1.1/DTD/svg11.dtd">
<svg width="165mm" height="123mm" viewBox="0 0 16500 12300" version="1.1" xmlns="http://www.w3.org/2000/svg" stroke-width="28.222" stroke-linejoin="round" xml:space="preserve">
 <path fill="rgb(255,255,255)" stroke="none" d="M 8257,12324 L 12,12324 12,0 16502,0 16502,12324 8257,12324 Z"/>
 <path fill="none" stroke="rgb(179,179,179)" stroke-linejoin="round" d="M 8207,10702 L 1255,10702 1255,1092 15158,1092 15158,10702 8207,10702 Z"/>
 <path fill="none" stroke="rgb(179,179,179)" stroke-linejoin="round" d="M 15158,10701 L 1255,10701"/>
 <path fill="none" stroke="rgb(179,179,179)" stroke-linejoin="round" d="M 15158,9739 L 1255,9739"/>
 <path fill="none" stroke="rgb(179,179,179)" stroke-linejoin="round" d="M 15158,8778 L 1255,8778"/>
 <path fill="none" stroke="rgb(179,179,179)" stroke-linejoin="round" d="M 15158,7817 L 1255,7817"/>
 <path fill="none" stroke="rgb(179,179,179)" stroke-linejoin="round" d="M 15158,6856 L 1255,6856"/>
 <path fill="none" stroke="rgb(179,179,179)" stroke-linejoin="round" d="M 15158,5896 L 1255,5896"/>
 <path fill="none" stroke="rgb(179,179,179)" stroke-linejoin="round" d="M 15158,4935 L 1255,4935"/>
 <path fill="none" stroke="rgb(179,179,179)" stroke-linejoin="round" d="M 15158,3974 L 1255,3974"/>
 <path fill="none" stroke="rgb(179,179,179)" stroke-linejoin="round" d="M 15158,3013 L 1255,3013"/>
 <path fill="none" stroke="rgb(179,179,179)" stroke-linejoin="round" d="M 15158,2052 L 1255,2052"/>
 <path fill="none" stroke="rgb(179,179,179)" stroke-linejoin="round" d="M 15158,1091 L 1255,1091"/>
 <path fill="none" stroke="rgb(0,0,0)" stroke-width="30" stroke-linejoin="round" d="M 1255,10851 L 1255,10701"/>
 <path fill="none" stroke="rgb(0,0,0)" stroke-width="30" stroke-linejoin="round" d="M 1255,10851 L 1255,10701"/>
 <path fill="none" stroke="rgb(0,0,0)" stroke-width="30" stroke-linejoin="round" d="M 1379,10851 L 1379,10701"/>
 <path fill="none" stroke="rgb(0,0,0)" stroke-width="30" stroke-linejoin="round" d="M 1379,10851 L 1379,10701"/>
 <path fill="none" stroke="rgb(0,0,0)" stroke-width="30" stroke-linejoin="round" d="M 1503,10851 L 1503,10701"/>
 <path fill="none" stroke="rgb(0,0,0)" stroke-width="30" stroke-linejoin="round" d="M 1503,10851 L 1503,10701"/>
 <path fill="none" stroke="rgb(0,0,0)" stroke-width="30" stroke-linejoin="round" d="M 1627,10851 L 1627,10701"/>
 <path fill="none" stroke="rgb(0,0,0)" stroke-width="30" stroke-linejoin="round" d="M 1627,10851 L 1627,10701"/>
 <path fill="none" stroke="rgb(0,0,0)" stroke-width="30" stroke-linejoin="round" d="M 1751,10851 L 1751,10701"/>
 <path fill="none" stroke="rgb(0,0,0)" stroke-width="30" stroke-linejoin="round" d="M 1751,10851 L 1751,10701"/>
 <path fill="none" stroke="rgb(0,0,0)" stroke-width="30" stroke-linejoin="round" d="M 1875,10851 L 1875,10701"/>
 <path fill="none" stroke="rgb(0,0,0)" stroke-width="30" stroke-linejoin="round" d="M 1875,10851 L 1875,10701"/>
 <path fill="none" stroke="rgb(0,0,0)" stroke-width="30" stroke-linejoin="round" d="M 1999,10851 L 1999,10701"/>
 <path fill="none" stroke="rgb(0,0,0)" stroke-width="30" stroke-linejoin="round" d="M 1999,10851 L 1999,10701"/>
 <path fill="none" stroke="rgb(0,0,0)" stroke-width="30" stroke-linejoin="round" d="M 2124,10851 L 2124,10701"/>
 <path fill="none" stroke="rgb(0,0,0)" stroke-width="30" stroke-linejoin="round" d="M 2124,10851 L 2124,10701"/>
 <path fill="none" stroke="rgb(0,0,0)" stroke-width="30" stroke-linejoin="round" d="M 2248,10851 L 2248,10701"/>
 <path fill="none" stroke="rgb(0,0,0)" stroke-width="30" stroke-linejoin="round" d="M 2248,10851 L 2248,10701"/>
 <path fill="none" stroke="rgb(0,0,0)" stroke-width="30" stroke-linejoin="round" d="M 2372,10851 L 2372,10701"/>
 <path fill="none" stroke="rgb(0,0,0)" stroke-width="30" stroke-linejoin="round" d="M 2372,10851 L 2372,10701"/>
 <path fill="none" stroke="rgb(0,0,0)" stroke-width="30" stroke-linejoin="round" d="M 2496,10851 L 2496,10701"/>
 <path fill="none" stroke="rgb(0,0,0)" stroke-width="30" stroke-linejoin="round" d="M 2496,10851 L 2496,10701"/>
 <path fill="none" stroke="rgb(0,0,0)" stroke-width="30" stroke-linejoin="round" d="M 2620,10851 L 2620,10701"/>
 <path fill="none" stroke="rgb(0,0,0)" stroke-width="30" stroke-linejoin="round" d="M 2620,10851 L 2620,10701"/>
 <path fill="none" stroke="rgb(0,0,0)" stroke-width="30" stroke-linejoin="round" d="M 2744,10851 L 2744,10701"/>
 <path fill="none" stroke="rgb(0,0,0)" stroke-width="30" stroke-linejoin="round" d="M 2744,10851 L 2744,10701"/>
 <path fill="none" stroke="rgb(0,0,0)" stroke-width="30" stroke-linejoin="round" d="M 2868,10851 L 2868,10701"/>
 <path fill="none" stroke="rgb(0,0,0)" stroke-width="30" stroke-linejoin="round" d="M 2868,10851 L 2868,10701"/>
 <path fill="none" stroke="rgb(0,0,0)" stroke-width="30" stroke-linejoin="round" d="M 2993,10851 L 2993,10701"/>
 <path fill="none" stroke="rgb(0,0,0)" stroke-width="30" stroke-linejoin="round" d="M 2993,10851 L 2993,10701"/>
 <path fill="none" stroke="rgb(0,0,0)" stroke-width="30" stroke-linejoin="round" d="M 3117,10851 L 3117,10701"/>
 <path fill="none" stroke="rgb(0,0,0)" stroke-width="30" stroke-linejoin="round" d="M 3117,10851 L 3117,10701"/>
 <path fill="none" stroke="rgb(0,0,0)" stroke-width="30" stroke-linejoin="round" d="M 3241,10851 L 3241,10701"/>
 <path fill="none" stroke="rgb(0,0,0)" stroke-width="30" stroke-linejoin="round" d="M 3241,10851 L 3241,10701"/>
 <path fill="none" stroke="rgb(0,0,0)" stroke-width="30" stroke-linejoin="round" d="M 3365,10851 L 3365,10701"/>
 <path fill="none" stroke="rgb(0,0,0)" stroke-width="30" stroke-linejoin="round" d="M 3365,10851 L 3365,10701"/>
 <path fill="none" stroke="rgb(0,0,0)" stroke-width="30" stroke-linejoin="round" d="M 3489,10851 L 3489,10701"/>
 <path fill="none" stroke="rgb(0,0,0)" stroke-width="30" stroke-linejoin="round" d="M 3489,10851 L 3489,10701"/>
 <path fill="none" stroke="rgb(0,0,0)" stroke-width="30" stroke-linejoin="round" d="M 3613,10851 L 3613,10701"/>
 <path fill="none" stroke="rgb(0,0,0)" stroke-width="30" stroke-linejoin="round" d="M 3613,10851 L 3613,10701"/>
 <path fill="none" stroke="rgb(0,0,0)" stroke-width="30" stroke-linejoin="round" d="M 3737,10851 L 3737,10701"/>
 <path fill="none" stroke="rgb(0,0,0)" stroke-width="30" stroke-linejoin="round" d="M 3737,10851 L 3737,10701"/>
 <path fill="none" stroke="rgb(0,0,0)" stroke-width="30" stroke-linejoin="round" d="M 3862,10851 L 3862,10701"/>
 <path fill="none" stroke="rgb(0,0,0)" stroke-width="30" stroke-linejoin="round" d="M 3862,10851 L 3862,10701"/>
 <path fill="none" stroke="rgb(0,0,0)" stroke-width="30" stroke-linejoin="round" d="M 3986,10851 L 3986,10701"/>
 <path fill="none" stroke="rgb(0,0,0)" stroke-width="30" stroke-linejoin="round" d="M 3986,10851 L 3986,10701"/>
 <path fill="none" stroke="rgb(0,0,0)" stroke-width="30" stroke-linejoin="round" d="M 4110,10851 L 4110,10701"/>
 <path fill="none" stroke="rgb(0,0,0)" stroke-width="30" stroke-linejoin="round" d="M 4110,10851 L 4110,10701"/>
 <path fill="none" stroke="rgb(0,0,0)" stroke-width="30" stroke-linejoin="round" d="M 4234,10851 L 4234,10701"/>
 <path fill="none" stroke="rgb(0,0,0)" stroke-width="30" stroke-linejoin="round" d="M 4234,10851 L 4234,10701"/>
 <path fill="none" stroke="rgb(0,0,0)" stroke-width="30" stroke-linejoin="round" d="M 4358,10851 L 4358,10701"/>
 <path fill="none" stroke="rgb(0,0,0)" stroke-width="30" stroke-linejoin="round" d="M 4358,10851 L 4358,10701"/>
 <path fill="none" stroke="rgb(0,0,0)" stroke-width="30" stroke-linejoin="round" d="M 4482,10851 L 4482,10701"/>
 <path fill="none" stroke="rgb(0,0,0)" stroke-width="30" stroke-linejoin="round" d="M 4482,10851 L 4482,10701"/>
 <path fill="none" stroke="rgb(0,0,0)" stroke-width="30" stroke-linejoin="round" d="M 4606,10851 L 4606,10701"/>
 <path fill="none" stroke="rgb(0,0,0)" stroke-width="30" stroke-linejoin="round" d="M 4606,10851 L 4606,10701"/>
 <path fill="none" stroke="rgb(0,0,0)" stroke-width="30" stroke-linejoin="round" d="M 4731,10851 L 4731,10701"/>
 <path fill="none" stroke="rgb(0,0,0)" stroke-width="30" stroke-linejoin="round" d="M 4731,10851 L 4731,10701"/>
 <path fill="none" stroke="rgb(0,0,0)" stroke-width="30" stroke-linejoin="round" d="M 4855,10851 L 4855,10701"/>
 <path fill="none" stroke="rgb(0,0,0)" stroke-width="30" stroke-linejoin="round" d="M 4855,10851 L 4855,10701"/>
 <path fill="none" stroke="rgb(0,0,0)" stroke-width="30" stroke-linejoin="round" d="M 4979,10851 L 4979,10701"/>
 <path fill="none" stroke="rgb(0,0,0)" stroke-width="30" stroke-linejoin="round" d="M 4979,10851 L 4979,10701"/>
 <path fill="none" stroke="rgb(0,0,0)" stroke-width="30" stroke-linejoin="round" d="M 5103,10851 L 5103,10701"/>
 <path fill="none" stroke="rgb(0,0,0)" stroke-width="30" stroke-linejoin="round" d="M 5103,10851 L 5103,10701"/>
 <path fill="none" stroke="rgb(0,0,0)" stroke-width="30" stroke-linejoin="round" d="M 5227,10851 L 5227,10701"/>
 <path fill="none" stroke="rgb(0,0,0)" stroke-width="30" stroke-linejoin="round" d="M 5227,10851 L 5227,10701"/>
 <path fill="none" stroke="rgb(0,0,0)" stroke-width="30" stroke-linejoin="round" d="M 5351,10851 L 5351,10701"/>
 <path fill="none" stroke="rgb(0,0,0)" stroke-width="30" stroke-linejoin="round" d="M 5351,10851 L 5351,10701"/>
 <path fill="none" stroke="rgb(0,0,0)" stroke-width="30" stroke-linejoin="round" d="M 5475,10851 L 5475,10701"/>
 <path fill="none" stroke="rgb(0,0,0)" stroke-width="30" stroke-linejoin="round" d="M 5475,10851 L 5475,10701"/>
 <path fill="none" stroke="rgb(0,0,0)" stroke-width="30" stroke-linejoin="round" d="M 5600,10851 L 5600,10701"/>
 <path fill="none" stroke="rgb(0,0,0)" stroke-width="30" stroke-linejoin="round" d="M 5600,10851 L 5600,10701"/>
 <path fill="none" stroke="rgb(0,0,0)" stroke-width="30" stroke-linejoin="round" d="M 5724,10851 L 5724,10701"/>
 <path fill="none" stroke="rgb(0,0,0)" stroke-width="30" stroke-linejoin="round" d="M 5724,10851 L 5724,10701"/>
 <path fill="none" stroke="rgb(0,0,0)" stroke-width="30" stroke-linejoin="round" d="M 5848,10851 L 5848,10701"/>
 <path fill="none" stroke="rgb(0,0,0)" stroke-width="30" stroke-linejoin="round" d="M 5848,10851 L 5848,10701"/>
 <path fill="none" stroke="rgb(0,0,0)" stroke-width="30" stroke-linejoin="round" d="M 5972,10851 L 5972,10701"/>
 <path fill="none" stroke="rgb(0,0,0)" stroke-width="30" stroke-linejoin="round" d="M 5972,10851 L 5972,10701"/>
 <path fill="none" stroke="rgb(0,0,0)" stroke-width="30" stroke-linejoin="round" d="M 6096,10851 L 6096,10701"/>
 <path fill="none" stroke="rgb(0,0,0)" stroke-width="30" stroke-linejoin="round" d="M 6096,10851 L 6096,10701"/>
 <path fill="none" stroke="rgb(0,0,0)" stroke-width="30" stroke-linejoin="round" d="M 6220,10851 L 6220,10701"/>
 <path fill="none" stroke="rgb(0,0,0)" stroke-width="30" stroke-linejoin="round" d="M 6220,10851 L 6220,10701"/>
 <path fill="none" stroke="rgb(0,0,0)" stroke-width="30" stroke-linejoin="round" d="M 6344,10851 L 6344,10701"/>
 <path fill="none" stroke="rgb(0,0,0)" stroke-width="30" stroke-linejoin="round" d="M 6344,10851 L 6344,10701"/>
 <path fill="none" stroke="rgb(0,0,0)" stroke-width="30" stroke-linejoin="round" d="M 6469,10851 L 6469,10701"/>
 <path fill="none" stroke="rgb(0,0,0)" stroke-width="30" stroke-linejoin="round" d="M 6469,10851 L 6469,10701"/>
 <path fill="none" stroke="rgb(0,0,0)" stroke-width="30" stroke-linejoin="round" d="M 6593,10851 L 6593,10701"/>
 <path fill="none" stroke="rgb(0,0,0)" stroke-width="30" stroke-linejoin="round" d="M 6593,10851 L 6593,10701"/>
 <path fill="none" stroke="rgb(0,0,0)" stroke-width="30" stroke-linejoin="round" d="M 6717,10851 L 6717,10701"/>
 <path fill="none" stroke="rgb(0,0,0)" stroke-width="30" stroke-linejoin="round" d="M 6717,10851 L 6717,10701"/>
 <path fill="none" stroke="rgb(0,0,0)" stroke-width="30" stroke-linejoin="round" d="M 6841,10851 L 6841,10701"/>
 <path fill="none" stroke="rgb(0,0,0)" stroke-width="30" stroke-linejoin="round" d="M 6841,10851 L 6841,10701"/>
 <path fill="none" stroke="rgb(0,0,0)" stroke-width="30" stroke-linejoin="round" d="M 6965,10851 L 6965,10701"/>
 <path fill="none" stroke="rgb(0,0,0)" stroke-width="30" stroke-linejoin="round" d="M 6965,10851 L 6965,10701"/>
 <path fill="none" stroke="rgb(0,0,0)" stroke-width="30" stroke-linejoin="round" d="M 7089,10851 L 7089,10701"/>
 <path fill="none" stroke="rgb(0,0,0)" stroke-width="30" stroke-linejoin="round" d="M 7089,10851 L 7089,10701"/>
 <path fill="none" stroke="rgb(0,0,0)" stroke-width="30" stroke-linejoin="round" d="M 7213,10851 L 7213,10701"/>
 <path fill="none" stroke="rgb(0,0,0)" stroke-width="30" stroke-linejoin="round" d="M 7213,10851 L 7213,10701"/>
 <path fill="none" stroke="rgb(0,0,0)" stroke-width="30" stroke-linejoin="round" d="M 7338,10851 L 7338,10701"/>
 <path fill="none" stroke="rgb(0,0,0)" stroke-width="30" stroke-linejoin="round" d="M 7338,10851 L 7338,10701"/>
 <path fill="none" stroke="rgb(0,0,0)" stroke-width="30" stroke-linejoin="round" d="M 7462,10851 L 7462,10701"/>
 <path fill="none" stroke="rgb(0,0,0)" stroke-width="30" stroke-linejoin="round" d="M 7462,10851 L 7462,10701"/>
 <path fill="none" stroke="rgb(0,0,0)" stroke-width="30" stroke-linejoin="round" d="M 7586,10851 L 7586,10701"/>
 <path fill="none" stroke="rgb(0,0,0)" stroke-width="30" stroke-linejoin="round" d="M 7586,10851 L 7586,10701"/>
 <path fill="none" stroke="rgb(0,0,0)" stroke-width="30" stroke-linejoin="round" d="M 7710,10851 L 7710,10701"/>
 <path fill="none" stroke="rgb(0,0,0)" stroke-width="30" stroke-linejoin="round" d="M 7710,10851 L 7710,10701"/>
 <path fill="none" stroke="rgb(0,0,0)" stroke-width="30" stroke-linejoin="round" d="M 7834,10851 L 7834,10701"/>
 <path fill="none" stroke="rgb(0,0,0)" stroke-width="30" stroke-linejoin="round" d="M 7834,10851 L 7834,10701"/>
 <path fill="none" stroke="rgb(0,0,0)" stroke-width="30" stroke-linejoin="round" d="M 7958,10851 L 7958,10701"/>
 <path fill="none" stroke="rgb(0,0,0)" stroke-width="30" stroke-linejoin="round" d="M 7958,10851 L 7958,10701"/>
 <path fill="none" stroke="rgb(0,0,0)" stroke-width="30" stroke-linejoin="round" d="M 8082,10851 L 8082,10701"/>
 <path fill="none" stroke="rgb(0,0,0)" stroke-width="30" stroke-linejoin="round" d="M 8082,10851 L 8082,10701"/>
 <path fill="none" stroke="rgb(0,0,0)" stroke-width="30" stroke-linejoin="round" d="M 8207,10851 L 8207,10701"/>
 <path fill="none" stroke="rgb(0,0,0)" stroke-width="30" stroke-linejoin="round" d="M 8207,10851 L 8207,10701"/>
 <path fill="none" stroke="rgb(0,0,0)" stroke-width="30" stroke-linejoin="round" d="M 8330,10851 L 8330,10701"/>
 <path fill="none" stroke="rgb(0,0,0)" stroke-width="30" stroke-linejoin="round" d="M 8330,10851 L 8330,10701"/>
 <path fill="none" stroke="rgb(0,0,0)" stroke-width="30" stroke-linejoin="round" d="M 8454,10851 L 8454,10701"/>
 <path fill="none" stroke="rgb(0,0,0)" stroke-width="30" stroke-linejoin="round" d="M 8454,10851 L 8454,10701"/>
 <path fill="none" stroke="rgb(0,0,0)" stroke-width="30" stroke-linejoin="round" d="M 8578,10851 L 8578,10701"/>
 <path fill="none" stroke="rgb(0,0,0)" stroke-width="30" stroke-linejoin="round" d="M 8578,10851 L 8578,10701"/>
 <path fill="none" stroke="rgb(0,0,0)" stroke-width="30" stroke-linejoin="round" d="M 8702,10851 L 8702,10701"/>
 <path fill="none" stroke="rgb(0,0,0)" stroke-width="30" stroke-linejoin="round" d="M 8702,10851 L 8702,10701"/>
 <path fill="none" stroke="rgb(0,0,0)" stroke-width="30" stroke-linejoin="round" d="M 8826,10851 L 8826,10701"/>
 <path fill="none" stroke="rgb(0,0,0)" stroke-width="30" stroke-linejoin="round" d="M 8826,10851 L 8826,10701"/>
 <path fill="none" stroke="rgb(0,0,0)" stroke-width="30" stroke-linejoin="round" d="M 8950,10851 L 8950,10701"/>
 <path fill="none" stroke="rgb(0,0,0)" stroke-width="30" stroke-linejoin="round" d="M 8950,10851 L 8950,10701"/>
 <path fill="none" stroke="rgb(0,0,0)" stroke-width="30" stroke-linejoin="round" d="M 9075,10851 L 9075,10701"/>
 <path fill="none" stroke="rgb(0,0,0)" stroke-width="30" stroke-linejoin="round" d="M 9075,10851 L 9075,10701"/>
 <path fill="none" stroke="rgb(0,0,0)" stroke-width="30" stroke-linejoin="round" d="M 9199,10851 L 9199,10701"/>
 <path fill="none" stroke="rgb(0,0,0)" stroke-width="30" stroke-linejoin="round" d="M 9199,10851 L 9199,10701"/>
 <path fill="none" stroke="rgb(0,0,0)" stroke-width="30" stroke-linejoin="round" d="M 9323,10851 L 9323,10701"/>
 <path fill="none" stroke="rgb(0,0,0)" stroke-width="30" stroke-linejoin="round" d="M 9323,10851 L 9323,10701"/>
 <path fill="none" stroke="rgb(0,0,0)" stroke-width="30" stroke-linejoin="round" d="M 9447,10851 L 9447,10701"/>
 <path fill="none" stroke="rgb(0,0,0)" stroke-width="30" stroke-linejoin="round" d="M 9447,10851 L 9447,10701"/>
 <path fill="none" stroke="rgb(0,0,0)" stroke-width="30" stroke-linejoin="round" d="M 9571,10851 L 9571,10701"/>
 <path fill="none" stroke="rgb(0,0,0)" stroke-width="30" stroke-linejoin="round" d="M 9571,10851 L 9571,10701"/>
 <path fill="none" stroke="rgb(0,0,0)" stroke-width="30" stroke-linejoin="round" d="M 9695,10851 L 9695,10701"/>
 <path fill="none" stroke="rgb(0,0,0)" stroke-width="30" stroke-linejoin="round" d="M 9695,10851 L 9695,10701"/>
 <path fill="none" stroke="rgb(0,0,0)" stroke-width="30" stroke-linejoin="round" d="M 9819,10851 L 9819,10701"/>
 <path fill="none" stroke="rgb(0,0,0)" stroke-width="30" stroke-linejoin="round" d="M 9819,10851 L 9819,10701"/>
 <path fill="none" stroke="rgb(0,0,0)" stroke-width="30" stroke-linejoin="round" d="M 9944,10851 L 9944,10701"/>
 <path fill="none" stroke="rgb(0,0,0)" stroke-width="30" stroke-linejoin="round" d="M 9944,10851 L 9944,10701"/>
 <path fill="none" stroke="rgb(0,0,0)" stroke-width="30" stroke-linejoin="round" d="M 10068,10851 L 10068,10701"/>
 <path fill="none" stroke="rgb(0,0,0)" stroke-width="30" stroke-linejoin="round" d="M 10068,10851 L 10068,10701"/>
 <path fill="none" stroke="rgb(0,0,0)" stroke-width="30" stroke-linejoin="round" d="M 10192,10851 L 10192,10701"/>
 <path fill="none" stroke="rgb(0,0,0)" stroke-width="30" stroke-linejoin="round" d="M 10192,10851 L 10192,10701"/>
 <path fill="none" stroke="rgb(0,0,0)" stroke-width="30" stroke-linejoin="round" d="M 10316,10851 L 10316,10701"/>
 <path fill="none" stroke="rgb(0,0,0)" stroke-width="30" stroke-linejoin="round" d="M 10316,10851 L 10316,10701"/>
 <path fill="none" stroke="rgb(0,0,0)" stroke-width="30" stroke-linejoin="round" d="M 10440,10851 L 10440,10701"/>
 <path fill="none" stroke="rgb(0,0,0)" stroke-width="30" stroke-linejoin="round" d="M 10440,10851 L 10440,10701"/>
 <path fill="none" stroke="rgb(0,0,0)" stroke-width="30" stroke-linejoin="round" d="M 10564,10851 L 10564,10701"/>
 <path fill="none" stroke="rgb(0,0,0)" stroke-width="30" stroke-linejoin="round" d="M 10564,10851 L 10564,10701"/>
 <path fill="none" stroke="rgb(0,0,0)" stroke-width="30" stroke-linejoin="round" d="M 10688,10851 L 10688,10701"/>
 <path fill="none" stroke="rgb(0,0,0)" stroke-width="30" stroke-linejoin="round" d="M 10688,10851 L 10688,10701"/>
 <path fill="none" stroke="rgb(0,0,0)" stroke-width="30" stroke-linejoin="round" d="M 10813,10851 L 10813,10701"/>
 <path fill="none" stroke="rgb(0,0,0)" stroke-width="30" stroke-linejoin="round" d="M 10813,10851 L 10813,10701"/>
 <path fill="none" stroke="rgb(0,0,0)" stroke-width="30" stroke-linejoin="round" d="M 10937,10851 L 10937,10701"/>
 <path fill="none" stroke="rgb(0,0,0)" stroke-width="30" stroke-linejoin="round" d="M 10937,10851 L 10937,10701"/>
 <path fill="none" stroke="rgb(0,0,0)" stroke-width="30" stroke-linejoin="round" d="M 11061,10851 L 11061,10701"/>
 <path fill="none" stroke="rgb(0,0,0)" stroke-width="30" stroke-linejoin="round" d="M 11061,10851 L 11061,10701"/>
 <path fill="none" stroke="rgb(0,0,0)" stroke-width="30" stroke-linejoin="round" d="M 11185,10851 L 11185,10701"/>
 <path fill="none" stroke="rgb(0,0,0)" stroke-width="30" stroke-linejoin="round" d="M 11185,10851 L 11185,10701"/>
 <path fill="none" stroke="rgb(0,0,0)" stroke-width="30" stroke-linejoin="round" d="M 11309,10851 L 11309,10701"/>
 <path fill="none" stroke="rgb(0,0,0)" stroke-width="30" stroke-linejoin="round" d="M 11309,10851 L 11309,10701"/>
 <path fill="none" stroke="rgb(0,0,0)" stroke-width="30" stroke-linejoin="round" d="M 11433,10851 L 11433,10701"/>
 <path fill="none" stroke="rgb(0,0,0)" stroke-width="30" stroke-linejoin="round" d="M 11433,10851 L 11433,10701"/>
 <path fill="none" stroke="rgb(0,0,0)" stroke-width="30" stroke-linejoin="round" d="M 11557,10851 L 11557,10701"/>
 <path fill="none" stroke="rgb(0,0,0)" stroke-width="30" stroke-linejoin="round" d="M 11557,10851 L 11557,10701"/>
 <path fill="none" stroke="rgb(0,0,0)" stroke-width="30" stroke-linejoin="round" d="M 11682,10851 L 11682,10701"/>
 <path fill="none" stroke="rgb(0,0,0)" stroke-width="30" stroke-linejoin="round" d="M 11682,10851 L 11682,10701"/>
 <path fill="none" stroke="rgb(0,0,0)" stroke-width="30" stroke-linejoin="round" d="M 11806,10851 L 11806,10701"/>
 <path fill="none" stroke="rgb(0,0,0)" stroke-width="30" stroke-linejoin="round" d="M 11806,10851 L 11806,10701"/>
 <path fill="none" stroke="rgb(0,0,0)" stroke-width="30" stroke-linejoin="round" d="M 11930,10851 L 11930,10701"/>
 <path fill="none" stroke="rgb(0,0,0)" stroke-width="30" stroke-linejoin="round" d="M 11930,10851 L 11930,10701"/>
 <path fill="none" stroke="rgb(0,0,0)" stroke-width="30" stroke-linejoin="round" d="M 12054,10851 L 12054,10701"/>
 <path fill="none" stroke="rgb(0,0,0)" stroke-width="30" stroke-linejoin="round" d="M 12054,10851 L 12054,10701"/>
 <path fill="none" stroke="rgb(0,0,0)" stroke-width="30" stroke-linejoin="round" d="M 12178,10851 L 12178,10701"/>
 <path fill="none" stroke="rgb(0,0,0)" stroke-width="30" stroke-linejoin="round" d="M 12178,10851 L 12178,10701"/>
 <path fill="none" stroke="rgb(0,0,0)" stroke-width="30" stroke-linejoin="round" d="M 12302,10851 L 12302,10701"/>
 <path fill="none" stroke="rgb(0,0,0)" stroke-width="30" stroke-linejoin="round" d="M 12302,10851 L 12302,10701"/>
 <path fill="none" stroke="rgb(0,0,0)" stroke-width="30" stroke-linejoin="round" d="M 12426,10851 L 12426,10701"/>
 <path fill="none" stroke="rgb(0,0,0)" stroke-width="30" stroke-linejoin="round" d="M 12426,10851 L 12426,10701"/>
 <path fill="none" stroke="rgb(0,0,0)" stroke-width="30" stroke-linejoin="round" d="M 12551,10851 L 12551,10701"/>
 <path fill="none" stroke="rgb(0,0,0)" stroke-width="30" stroke-linejoin="round" d="M 12551,10851 L 12551,10701"/>
 <path fill="none" stroke="rgb(0,0,0)" stroke-width="30" stroke-linejoin="round" d="M 12675,10851 L 12675,10701"/>
 <path fill="none" stroke="rgb(0,0,0)" stroke-width="30" stroke-linejoin="round" d="M 12675,10851 L 12675,10701"/>
 <path fill="none" stroke="rgb(0,0,0)" stroke-width="30" stroke-linejoin="round" d="M 12799,10851 L 12799,10701"/>
 <path fill="none" stroke="rgb(0,0,0)" stroke-width="30" stroke-linejoin="round" d="M 12799,10851 L 12799,10701"/>
 <path fill="none" stroke="rgb(0,0,0)" stroke-width="30" stroke-linejoin="round" d="M 12923,10851 L 12923,10701"/>
 <path fill="none" stroke="rgb(0,0,0)" stroke-width="30" stroke-linejoin="round" d="M 12923,10851 L 12923,10701"/>
 <path fill="none" stroke="rgb(0,0,0)" stroke-width="30" stroke-linejoin="round" d="M 13047,10851 L 13047,10701"/>
 <path fill="none" stroke="rgb(0,0,0)" stroke-width="30" stroke-linejoin="round" d="M 13047,10851 L 13047,10701"/>
 <path fill="none" stroke="rgb(0,0,0)" stroke-width="30" stroke-linejoin="round" d="M 13171,10851 L 13171,10701"/>
 <path fill="none" stroke="rgb(0,0,0)" stroke-width="30" stroke-linejoin="round" d="M 13171,10851 L 13171,10701"/>
 <path fill="none" stroke="rgb(0,0,0)" stroke-width="30" stroke-linejoin="round" d="M 13295,10851 L 13295,10701"/>
 <path fill="none" stroke="rgb(0,0,0)" stroke-width="30" stroke-linejoin="round" d="M 13295,10851 L 13295,10701"/>
 <path fill="none" stroke="rgb(0,0,0)" stroke-width="30" stroke-linejoin="round" d="M 13420,10851 L 13420,10701"/>
 <path fill="none" stroke="rgb(0,0,0)" stroke-width="30" stroke-linejoin="round" d="M 13420,10851 L 13420,10701"/>
 <path fill="none" stroke="rgb(0,0,0)" stroke-width="30" stroke-linejoin="round" d="M 13544,10851 L 13544,10701"/>
 <path fill="none" stroke="rgb(0,0,0)" stroke-width="30" stroke-linejoin="round" d="M 13544,10851 L 13544,10701"/>
 <path fill="none" stroke="rgb(0,0,0)" stroke-width="30" stroke-linejoin="round" d="M 13668,10851 L 13668,10701"/>
 <path fill="none" stroke="rgb(0,0,0)" stroke-width="30" stroke-linejoin="round" d="M 13668,10851 L 13668,10701"/>
 <path fill="none" stroke="rgb(0,0,0)" stroke-width="30" stroke-linejoin="round" d="M 13792,10851 L 13792,10701"/>
 <path fill="none" stroke="rgb(0,0,0)" stroke-width="30" stroke-linejoin="round" d="M 13792,10851 L 13792,10701"/>
 <path fill="none" stroke="rgb(0,0,0)" stroke-width="30" stroke-linejoin="round" d="M 13916,10851 L 13916,10701"/>
 <path fill="none" stroke="rgb(0,0,0)" stroke-width="30" stroke-linejoin="round" d="M 13916,10851 L 13916,10701"/>
 <path fill="none" stroke="rgb(0,0,0)" stroke-width="30" stroke-linejoin="round" d="M 14040,10851 L 14040,10701"/>
 <path fill="none" stroke="rgb(0,0,0)" stroke-width="30" stroke-linejoin="round" d="M 14040,10851 L 14040,10701"/>
 <path fill="none" stroke="rgb(0,0,0)" stroke-width="30" stroke-linejoin="round" d="M 14164,10851 L 14164,10701"/>
 <path fill="none" stroke="rgb(0,0,0)" stroke-width="30" stroke-linejoin="round" d="M 14164,10851 L 14164,10701"/>
 <path fill="none" stroke="rgb(0,0,0)" stroke-width="30" stroke-linejoin="round" d="M 14289,10851 L 14289,10701"/>
 <path fill="none" stroke="rgb(0,0,0)" stroke-width="30" stroke-linejoin="round" d="M 14289,10851 L 14289,10701"/>
 <path fill="none" stroke="rgb(0,0,0)" stroke-width="30" stroke-linejoin="round" d="M 14413,10851 L 14413,10701"/>
 <path fill="none" stroke="rgb(0,0,0)" stroke-width="30" stroke-linejoin="round" d="M 14413,10851 L 14413,10701"/>
 <path fill="none" stroke="rgb(0,0,0)" stroke-width="30" stroke-linejoin="round" d="M 14537,10851 L 14537,10701"/>
 <path fill="none" stroke="rgb(0,0,0)" stroke-width="30" stroke-linejoin="round" d="M 14537,10851 L 14537,10701"/>
 <path fill="none" stroke="rgb(0,0,0)" stroke-width="30" stroke-linejoin="round" d="M 14661,10851 L 14661,10701"/>
 <path fill="none" stroke="rgb(0,0,0)" stroke-width="30" stroke-linejoin="round" d="M 14661,10851 L 14661,10701"/>
 <path fill="none" stroke="rgb(0,0,0)" stroke-width="30" stroke-linejoin="round" d="M 14785,10851 L 14785,10701"/>
 <path fill="none" stroke="rgb(0,0,0)" stroke-width="30" stroke-linejoin="round" d="M 14785,10851 L 14785,10701"/>
 <path fill="none" stroke="rgb(0,0,0)" stroke-width="30" stroke-linejoin="round" d="M 14909,10851 L 14909,10701"/>
 <path fill="none" stroke="rgb(0,0,0)" stroke-width="30" stroke-linejoin="round" d="M 14909,10851 L 14909,10701"/>
 <path fill="none" stroke="rgb(0,0,0)" stroke-width="30" stroke-linejoin="round" d="M 15033,10851 L 15033,10701"/>
 <path fill="none" stroke="rgb(0,0,0)" stroke-width="30" stroke-linejoin="round" d="M 15033,10851 L 15033,10701"/>
 <path fill="none" stroke="rgb(0,0,0)" stroke-width="30" stroke-linejoin="round" d="M 15158,10851 L 15158,10701"/>
 <path fill="none" stroke="rgb(0,0,0)" stroke-width="30" stroke-linejoin="round" d="M 15158,10851 L 15158,10701"/>
 <path fill="none" stroke="rgb(0,0,0)" stroke-width="30" stroke-linejoin="round" d="M 1255,10701 L 15158,10701"/>
 <path fill="none" stroke="rgb(0,0,0)" stroke-width="30" stroke-linejoin="round" d="M 1105,10701 L 1255,10701"/>
 <path fill="none" stroke="rgb(0,0,0)" stroke-width="30" stroke-linejoin="round" d="M 1105,10701 L 1255,10701"/>
 <path fill="none" stroke="rgb(0,0,0)" stroke-width="30" stroke-linejoin="round" d="M 1105,9739 L 1255,9739"/>
 <path fill="none" stroke="rgb(0,0,0)" stroke-width="30" stroke-linejoin="round" d="M 1105,9739 L 1255,9739"/>
 <path fill="none" stroke="rgb(0,0,0)" stroke-width="30" stroke-linejoin="round" d="M 1105,8778 L 1255,8778"/>
 <path fill="none" stroke="rgb(0,0,0)" stroke-width="30" stroke-linejoin="round" d="M 1105,8778 L 1255,8778"/>
 <path fill="none" stroke="rgb(0,0,0)" stroke-width="30" stroke-linejoin="round" d="M 1105,7817 L 1255,7817"/>
 <path fill="none" stroke="rgb(0,0,0)" stroke-width="30" stroke-linejoin="round" d="M 1105,7817 L 1255,7817"/>
 <path fill="none" stroke="rgb(0,0,0)" stroke-width="30" stroke-linejoin="round" d="M 1105,6856 L 1255,6856"/>
 <path fill="none" stroke="rgb(0,0,0)" stroke-width="30" stroke-linejoin="round" d="M 1105,6856 L 1255,6856"/>
 <path fill="none" stroke="rgb(0,0,0)" stroke-width="30" stroke-linejoin="round" d="M 1105,5896 L 1255,5896"/>
 <path fill="none" stroke="rgb(0,0,0)" stroke-width="30" stroke-linejoin="round" d="M 1105,5896 L 1255,5896"/>
 <path fill="none" stroke="rgb(0,0,0)" stroke-width="30" stroke-linejoin="round" d="M 1105,4935 L 1255,4935"/>
 <path fill="none" stroke="rgb(0,0,0)" stroke-width="30" stroke-linejoin="round" d="M 1105,4935 L 1255,4935"/>
 <path fill="none" stroke="rgb(0,0,0)" stroke-width="30" stroke-linejoin="round" d="M 1105,3974 L 1255,3974"/>
 <path fill="none" stroke="rgb(0,0,0)" stroke-width="30" stroke-linejoin="round" d="M 1105,3974 L 1255,3974"/>
 <path fill="none" stroke="rgb(0,0,0)" stroke-width="30" stroke-linejoin="round" d="M 1105,3013 L 1255,3013"/>
 <path fill="none" stroke="rgb(0,0,0)" stroke-width="30" stroke-linejoin="round" d="M 1105,3013 L 1255,3013"/>
 <path fill="none" stroke="rgb(0,0,0)" stroke-width="30" stroke-linejoin="round" d="M 1105,2052 L 1255,2052"/>
 <path fill="none" stroke="rgb(0,0,0)" stroke-width="30" stroke-linejoin="round" d="M 1105,2052 L 1255,2052"/>
 <path fill="none" stroke="rgb(0,0,0)" stroke-width="30" stroke-linejoin="round" d="M 1105,1091 L 1255,1091"/>
 <path fill="none" stroke="rgb(0,0,0)" stroke-width="30" stroke-linejoin="round" d="M 1105,1091 L 1255,1091"/>
 <path fill="none" stroke="rgb(0,0,0)" stroke-width="30" stroke-linejoin="round" d="M 1255,10701 L 1255,1091"/>
 <path fill="none" stroke="rgb(0,0,0)" stroke-width="30" stroke-linejoin="round" d="M 15308,10701 L 15158,10701"/>
 <path fill="none" stroke="rgb(0,0,0)" stroke-width="30" stroke-linejoin="round" d="M 15308,10701 L 15158,10701"/>
 <path fill="none" stroke="rgb(0,0,0)" stroke-width="30" stroke-linejoin="round" d="M 15308,9739 L 15158,9739"/>
 <path fill="none" stroke="rgb(0,0,0)" stroke-width="30" stroke-linejoin="round" d="M 15308,9739 L 15158,9739"/>
 <path fill="none" stroke="rgb(0,0,0)" stroke-width="30" stroke-linejoin="round" d="M 15308,8778 L 15158,8778"/>
 <path fill="none" stroke="rgb(0,0,0)" stroke-width="30" stroke-linejoin="round" d="M 15308,8778 L 15158,8778"/>
 <path fill="none" stroke="rgb(0,0,0)" stroke-width="30" stroke-linejoin="round" d="M 15308,7817 L 15158,7817"/>
 <path fill="none" stroke="rgb(0,0,0)" stroke-width="30" stroke-linejoin="round" d="M 15308,7817 L 15158,7817"/>
 <path fill="none" stroke="rgb(0,0,0)" stroke-width="30" stroke-linejoin="round" d="M 15308,6856 L 15158,6856"/>
 <path fill="none" stroke="rgb(0,0,0)" stroke-width="30" stroke-linejoin="round" d="M 15308,6856 L 15158,6856"/>
 <path fill="none" stroke="rgb(0,0,0)" stroke-width="30" stroke-linejoin="round" d="M 15308,5896 L 15158,5896"/>
 <path fill="none" stroke="rgb(0,0,0)" stroke-width="30" stroke-linejoin="round" d="M 15308,5896 L 15158,5896"/>
 <path fill="none" stroke="rgb(0,0,0)" stroke-width="30" stroke-linejoin="round" d="M 15308,4935 L 15158,4935"/>
 <path fill="none" stroke="rgb(0,0,0)" stroke-width="30" stroke-linejoin="round" d="M 15308,4935 L 15158,4935"/>
 <path fill="none" stroke="rgb(0,0,0)" stroke-width="30" stroke-linejoin="round" d="M 15308,3974 L 15158,3974"/>
 <path fill="none" stroke="rgb(0,0,0)" stroke-width="30" stroke-linejoin="round" d="M 15308,3974 L 15158,3974"/>
 <path fill="none" stroke="rgb(0,0,0)" stroke-width="30" stroke-linejoin="round" d="M 15308,3013 L 15158,3013"/>
 <path fill="none" stroke="rgb(0,0,0)" stroke-width="30" stroke-linejoin="round" d="M 15308,3013 L 15158,3013"/>
 <path fill="none" stroke="rgb(0,0,0)" stroke-width="30" stroke-linejoin="round" d="M 15308,2052 L 15158,2052"/>
 <path fill="none" stroke="rgb(0,0,0)" stroke-width="30" stroke-linejoin="round" d="M 15308,2052 L 15158,2052"/>
 <path fill="none" stroke="rgb(0,0,0)" stroke-width="30" stroke-linejoin="round" d="M 15308,1091 L 15158,1091"/>
 <path fill="none" stroke="rgb(0,0,0)" stroke-width="30" stroke-linejoin="round" d="M 15308,1091 L 15158,1091"/>
 <path fill="none" stroke="rgb(0,0,0)" stroke-width="30" stroke-linejoin="round" d="M 15158,10701 L 15158,1091"/>
 <path fill="rgb(0,69,134)" stroke="none" d="M 1255,9935 L 1379,9943 1503,9997 1627,10024 1751,10030 1875,10045 1999,10072 2124,10097 2248,10108 2372,10129 2496,10157 2620,10164 2744,10182 2868,10188 2993,10205 3117,10207 3241,10198 3365,10196 3489,10198 3613,10212 3737,10205 3862,10187 3986,10197 4110,10202 4234,10206 4358,10186 4482,10201 4606,10206 4731,10209 4855,10185 4979,10191 5103,10204 5227,10174 5351,10190 5475,10201 5600,10216 5724,10236 5848,10194 5972,10226 6096,10192 6220,10228 6344,10200 6469,10198 6593,10188 6717,10138 6841,10142 6965,10160 7089,10186 7213,10167 7338,10130 7462,10138 7586,10156 7710,10135 7834,10118 7958,10113 8082,10092 8207,10064 8330,10091 8454,10074 8578,10036 8702,10007 8826,9948 8950,9917 9075,9934 9199,9964 9323,9898 9447,9843 9571,9818 9695,9768 9819,9471 9944,9504 10068,9542 10192,9560 10316,9369 10440,9380 10564,9296 10688,9198 10813,9202 10937,9360 11061,9466 11185,9527 11309,9413 11433,9453 11557,9289 11682,9181 11806,9078 11930,8948 12054,8897 12178,8862 12302,8806 12426,8642 12551,8522 12675,8355 12799,8333 12923,8215 13047,8245 13171,8095 13295,7959 13420,7812 13544,7980 13668,7786 13792,7711 13916,7564 14040,7373 14164,7144 14289,6975 14413,6936 14537,6940 14661,6748 14785,6546 14909,6492 15033,6704 15158,6599 15158,10701 1255,10701 1255,9935 Z"/>
 <path fill="none" stroke="rgb(0,0,0)" stroke-linejoin="round" d="M 1255,9935 L 1379,9943 1503,9997 1627,10024 1751,10030 1875,10045 1999,10072 2124,10097 2248,10108 2372,10129 2496,10157 2620,10164 2744,10182 2868,10188 2993,10205 3117,10207 3241,10198 3365,10196 3489,10198 3613,10212 3737,10205 3862,10187 3986,10197 4110,10202 4234,10206 4358,10186 4482,10201 4606,10206 4731,10209 4855,10185 4979,10191 5103,10204 5227,10174 5351,10190 5475,10201 5600,10216 5724,10236 5848,10194 5972,10226 6096,10192 6220,10228 6344,10200 6469,10198 6593,10188 6717,10138 6841,10142 6965,10160 7089,10186 7213,10167 7338,10130 7462,10138 7586,10156 7710,10135 7834,10118 7958,10113 8082,10092 8207,10064 8330,10091 8454,10074 8578,10036 8702,10007 8826,9948 8950,9917 9075,9934 9199,9964 9323,9898 9447,9843 9571,9818 9695,9768 9819,9471 9944,9504 10068,9542 10192,9560 10316,9369 10440,9380 10564,9296 10688,9198 10813,9202 10937,9360 11061,9466 11185,9527 11309,9413 11433,9453 11557,9289 11682,9181 11806,9078 11930,8948 12054,8897 12178,8862 12302,8806 12426,8642 12551,8522 12675,8355 12799,8333 12923,8215 13047,8245 13171,8095 13295,7959 13420,7812 13544,7980 13668,7786 13792,7711 13916,7564 14040,7373 14164,7144 14289,6975 14413,6936 14537,6940 14661,6748 14785,6546 14909,6492 15033,6704 15158,6599 15158,10701 1255,10701 1255,9935 Z"/>
 <path fill="rgb(255,66,14)" stroke="none" d="M 1255,4952 L 1379,4999 1503,5180 1627,5270 1751,5322 1875,5301 1999,5490 2124,5587 2248,5635 2372,5743 2496,5845 2620,5875 2744,6005 2868,6092 2993,6208 3117,6239 3241,6291 3365,6338 3489,6358 3613,6403 3737,6423 3862,6453 3986,6520 4110,6536 4234,6624 4358,6662 4482,6773 4606,6810 4731,6859 4855,6920 4979,6917 5103,6927 5227,6920 5351,6997 5475,7038 5600,7064 5724,7092 5848,7123 5972,7188 6096,7196 6220,7247 6344,7270 6469,7308 6593,7309 6717,7268 6841,7308 6965,7366 7089,7477 7213,7414 7338,7293 7462,7297 7586,7341 7710,7335 7834,7258 7958,7335 8082,7394 8207,7417 8330,7484 8454,7413 8578,7392 8702,7337 8826,7118 8950,7205 9075,7146 9199,7183 9323,7215 9447,7228 9571,7217 9695,7119 9819,6928 9944,7018 10068,7105 10192,7092 10316,6876 10440,6899 10564,6886 10688,6824 10813,6890 10937,7229 11061,7388 11185,7312 11309,7249 11433,7322 11557,7220 11682,7076 11806,6987 11930,6745 12054,6803 12178,6847 12302,6896 12426,6737 12551,6620 12675,6506 12799,6497 12923,6511 13047,6543 13171,6404 13295,6262 13420,6170 13544,6426 13668,6266 13792,6166 13916,6065 14040,5910 14164,5642 14289,5619 14413,5641 14537,5617 14661,5397 14785,5119 14909,5079 15033,5309 15158,5202 15158,6599 15033,6704 14909,6492 14785,6546 14661,6748 14537,6940 14413,6936 14289,6975 14164,7144 14040,7373 13916,7564 13792,7711 13668,7786 13544,7980 13420,7812 13295,7959 13171,8095 13047,8245 12923,8215 12799,8333 12675,8355 12551,8522 12426,8642 12302,8806 12178,8862 12054,8897 11930,8948 11806,9078 11682,9181 11557,9289 11433,9453 11309,9413 11185,9527 11061,9466 10937,9360 10813,9202 10688,9198 10564,9296 10440,9380 10316,9369 10192,9560 10068,9542 9944,9504 9819,9471 9695,9768 9571,9818 9447,9843 9323,9898 9199,9964 9075,9934 8950,9917 8826,9948 8702,10007 8578,10036 8454,10074 8330,10091 8207,10064 8082,10092 7958,10113 7834,10118 7710,10135 7586,10156 7462,10138 7338,10130 7213,10167 7089,10186 6965,10160 6841,10142 6717,10138 6593,10188 6469,10198 6344,10200 6220,10228 6096,10192 5972,10226 5848,10194 5724,10236 5600,10216 5475,10201 5351,10190 5227,10174 5103,10204 4979,10191 4855,10185 4731,10209 4606,10206 4482,10201 4358,10186 4234,10206 4110,10202 3986,10197 3862,10187 3737,10205 3613,10212 3489,10198 3365,10196 3241,10198 3117,10207 2993,10205 2868,10188 2744,10182 2620,10164 2496,10157 2372,10129 2248,10108 2124,10097 1999,10072 1875,10045 1751,10030 1627,10024 1503,9997 1379,9943 1255,9935 1255,4952 Z"/>
 <path fill="none" stroke="rgb(0,0,0)" stroke-linejoin="round" d="M 1255,4952 L 1379,4999 1503,5180 1627,5270 1751,5322 1875,5301 1999,5490 2124,5587 2248,5635 2372,5743 2496,5845 2620,5875 2744,6005 2868,6092 2993,6208 3117,6239 3241,6291 3365,6338 3489,6358 3613,6403 3737,6423 3862,6453 3986,6520 4110,6536 4234,6624 4358,6662 4482,6773 4606,6810 4731,6859 4855,6920 4979,6917 5103,6927 5227,6920 5351,6997 5475,7038 5600,7064 5724,7092 5848,7123 5972,7188 6096,7196 6220,7247 6344,7270 6469,7308 6593,7309 6717,7268 6841,7308 6965,7366 7089,7477 7213,7414 7338,7293 7462,7297 7586,7341 7710,7335 7834,7258 7958,7335 8082,7394 8207,7417 8330,7484 8454,7413 8578,7392 8702,7337 8826,7118 8950,7205 9075,7146 9199,7183 9323,7215 9447,7228 9571,7217 9695,7119 9819,6928 9944,7018 10068,7105 10192,7092 10316,6876 10440,6899 10564,6886 10688,6824 10813,6890 10937,7229 11061,7388 11185,7312 11309,7249 11433,7322 11557,7220 11682,7076 11806,6987 11930,6745 12054,6803 12178,6847 12302,6896 12426,6737 12551,6620 12675,6506 12799,6497 12923,6511 13047,6543 13171,6404 13295,6262 13420,6170 13544,6426 13668,6266 13792,6166 13916,6065 14040,5910 14164,5642 14289,5619 14413,5641 14537,5617 14661,5397 14785,5119 14909,5079 15033,5309 15158,5202 15158,6599 15033,6704 14909,6492 14785,6546 14661,6748 14537,6940 14413,6936 14289,6975 14164,7144 14040,7373 13916,7564 13792,7711 13668,7786 13544,7980 13420,7812 13295,7959 13171,8095 13047,8245 12923,8215 12799,8333 12675,8355 12551,8522 12426,8642 12302,8806 12178,8862 12054,8897 11930,8948 11806,9078 11682,9181 11557,9289 11433,9453 11309,9413 11185,9527 11061,9466 10937,9360 10813,9202 10688,9198 10564,9296 10440,9380 10316,9369 10192,9560 10068,9542 9944,9504 9819,9471 9695,9768 9571,9818 9447,9843 9323,9898 9199,9964 9075,9934 8950,9917 8826,9948 8702,10007 8578,10036 8454,10074 8330,10091 8207,10064 8082,10092 7958,10113 7834,10118 7710,10135 7586,10156 7462,10138 7338,10130 7213,10167 7089,10186 6965,10160 6841,10142 6717,10138 6593,10188 6469,10198 6344,10200 6220,10228 6096,10192 5972,10226 5848,10194 5724,10236 5600,10216 5475,10201 5351,10190 5227,10174 5103,10204 4979,10191 4855,10185 4731,10209 4606,10206 4482,10201 4358,10186 4234,10206 4110,10202 3986,10197 3862,10187 3737,10205 3613,10212 3489,10198 3365,10196 3241,10198 3117,10207 2993,10205 2868,10188 2744,10182 2620,10164 2496,10157 2372,10129 2248,10108 2124,10097 1999,10072 1875,10045 1751,10030 1627,10024 1503,9997 1379,9943 1255,9935 1255,4952 Z"/>
 <path fill="rgb(255,211,32)" stroke="none" d="M 1255,1619 L 1379,1634 1503,1691 1627,1744 1751,1708 1875,1711 1999,1787 2124,1801 2248,1808 2372,1844 2496,1877 2620,1847 2744,1883 2868,1933 2993,1960 3117,1976 3241,2003 3365,2036 3489,2035 3613,2029 3737,2055 3862,2069 3986,2101 4110,2109 4234,2140 4358,2166 4482,2191 4606,2209 4731,2242 4855,2277 4979,2288 5103,2326 5227,2333 5351,2370 5475,2403 5600,2390 5724,2367 5848,2396 5972,2391 6096,2449 6220,2457 6344,2486 6469,2522 6593,2552 6717,2566 6841,2622 6965,2653 7089,2683 7213,2659 7338,2611 7462,2630 7586,2679 7710,2721 7834,2701 7958,2752 8082,2762 8207,2795 8330,2836 8454,2771 8578,2786 8702,2774 8826,2692 8950,2715 9075,2696 9199,2672 9323,2722 9447,2790 9571,2787 9695,2745 9819,2797 9944,2829 10068,2889 10192,2819 10316,2798 10440,2834 10564,2849 10688,2858 10813,2908 10937,3097 11061,3127 11185,2994 11309,2889 11433,2945 11557,2963 11682,2984 11806,2986 11930,2935 12054,2925 12178,3002 12302,3007 12426,2938 12551,2968 12675,2938 12799,2899 12923,2931 13047,2941 13171,2941 13295,2933 13420,2927 13544,3075 13668,2992 13792,2957 13916,2950 14040,2926 14164,2796 14289,2787 14413,2802 14537,2755 14661,2610 14785,2515 14909,2501 15033,2564 15158,2563 15158,5202 15033,5309 14909,5079 14785,5119 14661,5397 14537,5617 14413,5641 14289,5619 14164,5642 14040,5910 13916,6065 13792,6166 13668,6266 13544,6426 13420,6170 13295,6262 13171,6404 13047,6543 12923,6511 12799,6497 12675,6506 12551,6620 12426,6737 12302,6896 12178,6847 12054,6803 11930,6745 11806,6987 11682,7076 11557,7220 11433,7322 11309,7249 11185,7312 11061,7388 10937,7229 10813,6890 10688,6824 10564,6886 10440,6899 10316,6876 10192,7092 10068,7105 9944,7018 9819,6928 9695,7119 9571,7217 9447,7228 9323,7215 9199,7183 9075,7146 8950,7205 8826,7118 8702,7337 8578,7392 8454,7413 8330,7484 8207,7417 8082,7394 7958,7335 7834,7258 7710,7335 7586,7341 7462,7297 7338,7293 7213,7414 7089,7477 6965,7366 6841,7308 6717,7268 6593,7309 6469,7308 6344,7270 6220,7247 6096,7196 5972,7188 5848,7123 5724,7092 5600,7064 5475,7038 5351,6997 5227,6920 5103,6927 4979,6917 4855,6920 4731,6859 4606,6810 4482,6773 4358,6662 4234,6624 4110,6536 3986,6520 3862,6453 3737,6423 3613,6403 3489,6358 3365,6338 3241,6291 3117,6239 2993,6208 2868,6092 2744,6005 2620,5875 2496,5845 2372,5743 2248,5635 2124,5587 1999,5490 1875,5301 1751,5322 1627,5270 1503,5180 1379,4999 1255,4952 1255,1619 Z"/>
 <path fill="none" stroke="rgb(0,0,0)" stroke-linejoin="round" d="M 1255,1619 L 1379,1634 1503,1691 1627,1744 1751,1708 1875,1711 1999,1787 2124,1801 2248,1808 2372,1844 2496,1877 2620,1847 2744,1883 2868,1933 2993,1960 3117,1976 3241,2003 3365,2036 3489,2035 3613,2029 3737,2055 3862,2069 3986,2101 4110,2109 4234,2140 4358,2166 4482,2191 4606,2209 4731,2242 4855,2277 4979,2288 5103,2326 5227,2333 5351,2370 5475,2403 5600,2390 5724,2367 5848,2396 5972,2391 6096,2449 6220,2457 6344,2486 6469,2522 6593,2552 6717,2566 6841,2622 6965,2653 7089,2683 7213,2659 7338,2611 7462,2630 7586,2679 7710,2721 7834,2701 7958,2752 8082,2762 8207,2795 8330,2836 8454,2771 8578,2786 8702,2774 8826,2692 8950,2715 9075,2696 9199,2672 9323,2722 9447,2790 9571,2787 9695,2745 9819,2797 9944,2829 10068,2889 10192,2819 10316,2798 10440,2834 10564,2849 10688,2858 10813,2908 10937,3097 11061,3127 11185,2994 11309,2889 11433,2945 11557,2963 11682,2984 11806,2986 11930,2935 12054,2925 12178,3002 12302,3007 12426,2938 12551,2968 12675,2938 12799,2899 12923,2931 13047,2941 13171,2941 13295,2933 13420,2927 13544,3075 13668,2992 13792,2957 13916,2950 14040,2926 14164,2796 14289,2787 14413,2802 14537,2755 14661,2610 14785,2515 14909,2501 15033,2564 15158,2563 15158,5202 15033,5309 14909,5079 14785,5119 14661,5397 14537,5617 14413,5641 14289,5619 14164,5642 14040,5910 13916,6065 13792,6166 13668,6266 13544,6426 13420,6170 13295,6262 13171,6404 13047,6543 12923,6511 12799,6497 12675,6506 12551,6620 12426,6737 12302,6896 12178,6847 12054,6803 11930,6745 11806,6987 11682,7076 11557,7220 11433,7322 11309,7249 11185,7312 11061,7388 10937,7229 10813,6890 10688,6824 10564,6886 10440,6899 10316,6876 10192,7092 10068,7105 9944,7018 9819,6928 9695,7119 9571,7217 9447,7228 9323,7215 9199,7183 9075,7146 8950,7205 8826,7118 8702,7337 8578,7392 8454,7413 8330,7484 8207,7417 8082,7394 7958,7335 7834,7258 7710,7335 7586,7341 7462,7297 7338,7293 7213,7414 7089,7477 6965,7366 6841,7308 6717,7268 6593,7309 6469,7308 6344,7270 6220,7247 6096,7196 5972,7188 5848,7123 5724,7092 5600,7064 5475,7038 5351,6997 5227,6920 5103,6927 4979,6917 4855,6920 4731,6859 4606,6810 4482,6773 4358,6662 4234,6624 4110,6536 3986,6520 3862,6453 3737,6423 3613,6403 3489,6358 3365,6338 3241,6291 3117,6239 2993,6208 2868,6092 2744,6005 2620,5875 2496,5845 2372,5743 2248,5635 2124,5587 1999,5490 1875,5301 1751,5322 1627,5270 1503,5180 1379,4999 1255,4952 1255,1619 Z"/>
 <path fill="rgb(87,157,28)" stroke="none" d="M 1255,1235 L 1379,1237 1503,1244 1627,1252 1751,1254 1875,1258 1999,1274 2124,1283 2248,1280 2372,1292 2496,1307 2620,1300 2744,1309 2868,1332 2993,1347 3117,1361 3241,1380 3365,1411 3489,1413 3613,1420 3737,1428 3862,1448 3986,1476 4110,1496 4234,1529 4358,1562 4482,1593 4606,1618 4731,1651 4855,1688 4979,1704 5103,1732 5227,1747 5351,1785 5475,1821 5600,1828 5724,1827 5848,1862 5972,1873 6096,1914 6220,1914 6344,1954 6469,1991 6593,2026 6717,2055 6841,2115 6965,2138 7089,2173 7213,2168 7338,2155 7462,2177 7586,2222 7710,2264 7834,2258 7958,2307 8082,2325 8207,2352 8330,2379 8454,2338 8578,2362 8702,2358 8826,2311 8950,2327 9075,2330 9199,2312 9323,2355 9447,2407 9571,2421 9695,2402 9819,2489 9944,2507 10068,2547 10192,2474 10316,2475 10440,2502 10564,2512 10688,2511 10813,2553 10937,2674 11061,2673 11185,2569 11309,2503 11433,2558 11557,2604 11682,2622 11806,2634 11930,2600 12054,2600 12178,2672 12302,2677 12426,2637 12551,2646 12675,2624 12799,2595 12923,2629 13047,2639 13171,2646 13295,2646 13420,2647 13544,2779 13668,2705 13792,2680 13916,2679 14040,2664 14164,2557 14289,2554 14413,2569 14537,2543 14661,2406 14785,2326 14909,2304 15033,2362 15158,2359 15158,2563 15033,2564 14909,2501 14785,2515 14661,2610 14537,2755 14413,2802 14289,2787 14164,2796 14040,2926 13916,2950 13792,2957 13668,2992 13544,3075 13420,2927 13295,2933 13171,2941 13047,2941 12923,2931 12799,2899 12675,2938 12551,2968 12426,2938 12302,3007 12178,3002 12054,2925 11930,2935 11806,2986 11682,2984 11557,2963 11433,2945 11309,2889 11185,2994 11061,3127 10937,3097 10813,2908 10688,2858 10564,2849 10440,2834 10316,2798 10192,2819 10068,2889 9944,2829 9819,2797 9695,2745 9571,2787 9447,2790 9323,2722 9199,2672 9075,2696 8950,2715 8826,2692 8702,2774 8578,2786 8454,2771 8330,2836 8207,2795 8082,2762 7958,2752 7834,2701 7710,2721 7586,2679 7462,2630 7338,2611 7213,2659 7089,2683 6965,2653 6841,2622 6717,2566 6593,2552 6469,2522 6344,2486 6220,2457 6096,2449 5972,2391 5848,2396 5724,2367 5600,2390 5475,2403 5351,2370 5227,2333 5103,2326 4979,2288 4855,2277 4731,2242 4606,2209 4482,2191 4358,2166 4234,2140 4110,2109 3986,2101 3862,2069 3737,2055 3613,2029 3489,2035 3365,2036 3241,2003 3117,1976 2993,1960 2868,1933 2744,1883 2620,1847 2496,1877 2372,1844 2248,1808 2124,1801 1999,1787 1875,1711 1751,1708 1627,1744 1503,1691 1379,1634 1255,1619 1255,1235 Z"/>
 <path fill="none" stroke="rgb(0,0,0)" stroke-linejoin="round" d="M 1255,1235 L 1379,1237 1503,1244 1627,1252 1751,1254 1875,1258 1999,1274 2124,1283 2248,1280 2372,1292 2496,1307 2620,1300 2744,1309 2868,1332 2993,1347 3117,1361 3241,1380 3365,1411 3489,1413 3613,1420 3737,1428 3862,1448 3986,1476 4110,1496 4234,1529 4358,1562 4482,1593 4606,1618 4731,1651 4855,1688 4979,1704 5103,1732 5227,1747 5351,1785 5475,1821 5600,1828 5724,1827 5848,1862 5972,1873 6096,1914 6220,1914 6344,1954 6469,1991 6593,2026 6717,2055 6841,2115 6965,2138 7089,2173 7213,2168 7338,2155 7462,2177 7586,2222 7710,2264 7834,2258 7958,2307 8082,2325 8207,2352 8330,2379 8454,2338 8578,2362 8702,2358 8826,2311 8950,2327 9075,2330 9199,2312 9323,2355 9447,2407 9571,2421 9695,2402 9819,2489 9944,2507 10068,2547 10192,2474 10316,2475 10440,2502 10564,2512 10688,2511 10813,2553 10937,2674 11061,2673 11185,2569 11309,2503 11433,2558 11557,2604 11682,2622 11806,2634 11930,2600 12054,2600 12178,2672 12302,2677 12426,2637 12551,2646 12675,2624 12799,2595 12923,2629 13047,2639 13171,2646 13295,2646 13420,2647 13544,2779 13668,2705 13792,2680 13916,2679 14040,2664 14164,2557 14289,2554 14413,2569 14537,2543 14661,2406 14785,2326 14909,2304 15033,2362 15158,2359 15158,2563 15033,2564 14909,2501 14785,2515 14661,2610 14537,2755 14413,2802 14289,2787 14164,2796 14040,2926 13916,2950 13792,2957 13668,2992 13544,3075 13420,2927 13295,2933 13171,2941 13047,2941 12923,2931 12799,2899 12675,2938 12551,2968 12426,2938 12302,3007 12178,3002 12054,2925 11930,2935 11806,2986 11682,2984 11557,2963 11433,2945 11309,2889 11185,2994 11061,3127 10937,3097 10813,2908 10688,2858 10564,2849 10440,2834 10316,2798 10192,2819 10068,2889 9944,2829 9819,2797 9695,2745 9571,2787 9447,2790 9323,2722 9199,2672 9075,2696 8950,2715 8826,2692 8702,2774 8578,2786 8454,2771 8330,2836 8207,2795 8082,2762 7958,2752 7834,2701 7710,2721 7586,2679 7462,2630 7338,2611 7213,2659 7089,2683 6965,2653 6841,2622 6717,2566 6593,2552 6469,2522 6344,2486 6220,2457 6096,2449 5972,2391 5848,2396 5724,2367 5600,2390 5475,2403 5351,2370 5227,2333 5103,2326 4979,2288 4855,2277 4731,2242 4606,2209 4482,2191 4358,2166 4234,2140 4110,2109 3986,2101 3862,2069 3737,2055 3613,2029 3489,2035 3365,2036 3241,2003 3117,1976 2993,1960 2868,1933 2744,1883 2620,1847 2496,1877 2372,1844 2248,1808 2124,1801 1999,1787 1875,1711 1751,1708 1627,1744 1503,1691 1379,1634 1255,1619 1255,1235 Z"/>
 <path fill="rgb(126,0,33)" stroke="none" d="M 1255,1130 L 1379,1128 1503,1125 1627,1130 1751,1127 1875,1133 1999,1133 2124,1133 2248,1129 2372,1135 2496,1138 2620,1140 2744,1136 2868,1143 2993,1151 3117,1162 3241,1169 3365,1190 3489,1186 3613,1190 3737,1176 3862,1187 3986,1198 4110,1212 4234,1225 4358,1237 4482,1250 4606,1265 4731,1278 4855,1298 4979,1298 5103,1306 5227,1329 5351,1358 5475,1371 5600,1376 5724,1375 5848,1392 5972,1408 6096,1432 6220,1424 6344,1448 6469,1467 6593,1486 6717,1516 6841,1557 6965,1560 7089,1572 7213,1581 7338,1592 7462,1606 7586,1623 7710,1645 7834,1647 7958,1679 8082,1682 8207,1686 8330,1667 8454,1655 8578,1670 8702,1651 8826,1645 8950,1644 9075,1662 9199,1620 9323,1634 9447,1653 9571,1664 9695,1695 9819,1781 9944,1765 10068,1738 10192,1670 10316,1687 10440,1696 10564,1688 10688,1669 10813,1683 10937,1743 11061,1698 11185,1637 11309,1597 11433,1634 11557,1679 11682,1665 11806,1666 11930,1658 12054,1634 12178,1698 12302,1698 12426,1685 12551,1656 12675,1632 12799,1602 12923,1607 13047,1616 13171,1612 13295,1613 13420,1623 13544,1667 13668,1625 13792,1617 13916,1604 14040,1594 14164,1567 14289,1545 14413,1566 14537,1576 14661,1526 14785,1502 14909,1466 15033,1483 15158,1477 15158,2359 15033,2362 14909,2304 14785,2326 14661,2406 14537,2543 14413,2569 14289,2554 14164,2557 14040,2664 13916,2679 13792,2680 13668,2705 13544,2779 13420,2647 13295,2646 13171,2646 13047,2639 12923,2629 12799,2595 12675,2624 12551,2646 12426,2637 12302,2677 12178,2672 12054,2600 11930,2600 11806,2634 11682,2622 11557,2604 11433,2558 11309,2503 11185,2569 11061,2673 10937,2674 10813,2553 10688,2511 10564,2512 10440,2502 10316,2475 10192,2474 10068,2547 9944,2507 9819,2489 9695,2402 9571,2421 9447,2407 9323,2355 9199,2312 9075,2330 8950,2327 8826,2311 8702,2358 8578,2362 8454,2338 8330,2379 8207,2352 8082,2325 7958,2307 7834,2258 7710,2264 7586,2222 7462,2177 7338,2155 7213,2168 7089,2173 6965,2138 6841,2115 6717,2055 6593,2026 6469,1991 6344,1954 6220,1914 6096,1914 5972,1873 5848,1862 5724,1827 5600,1828 5475,1821 5351,1785 5227,1747 5103,1732 4979,1704 4855,1688 4731,1651 4606,1618 4482,1593 4358,1562 4234,1529 4110,1496 3986,1476 3862,1448 3737,1428 3613,1420 3489,1413 3365,1411 3241,1380 3117,1361 2993,1347 2868,1332 2744,1309 2620,1300 2496,1307 2372,1292 2248,1280 2124,1283 1999,1274 1875,1258 1751,1254 1627,1252 1503,1244 1379,1237 1255,1235 1255,1130 Z"/>
 <path fill="none" stroke="rgb(0,0,0)" stroke-linejoin="round" d="M 1255,1130 L 1379,1128 1503,1125 1627,1130 1751,1127 1875,1133 1999,1133 2124,1133 2248,1129 2372,1135 2496,1138 2620,1140 2744,1136 2868,1143 2993,1151 3117,1162 3241,1169 3365,1190 3489,1186 3613,1190 3737,1176 3862,1187 3986,1198 4110,1212 4234,1225 4358,1237 4482,1250 4606,1265 4731,1278 4855,1298 4979,1298 5103,1306 5227,1329 5351,1358 5475,1371 5600,1376 5724,1375 5848,1392 5972,1408 6096,1432 6220,1424 6344,1448 6469,1467 6593,1486 6717,1516 6841,1557 6965,1560 7089,1572 7213,1581 7338,1592 7462,1606 7586,1623 7710,1645 7834,1647 7958,1679 8082,1682 8207,1686 8330,1667 8454,1655 8578,1670 8702,1651 8826,1645 8950,1644 9075,1662 9199,1620 9323,1634 9447,1653 9571,1664 9695,1695 9819,1781 9944,1765 10068,1738 10192,1670 10316,1687 10440,1696 10564,1688 10688,1669 10813,1683 10937,1743 11061,1698 11185,1637 11309,1597 11433,1634 11557,1679 11682,1665 11806,1666 11930,1658 12054,1634 12178,1698 12302,1698 12426,1685 12551,1656 12675,1632 12799,1602 12923,1607 13047,1616 13171,1612 13295,1613 13420,1623 13544,1667 13668,1625 13792,1617 13916,1604 14040,1594 14164,1567 14289,1545 14413,1566 14537,1576 14661,1526 14785,1502 14909,1466 15033,1483 15158,1477 15158,2359 15033,2362 14909,2304 14785,2326 14661,2406 14537,2543 14413,2569 14289,2554 14164,2557 14040,2664 13916,2679 13792,2680 13668,2705 13544,2779 13420,2647 13295,2646 13171,2646 13047,2639 12923,2629 12799,2595 12675,2624 12551,2646 12426,2637 12302,2677 12178,2672 12054,2600 11930,2600 11806,2634 11682,2622 11557,2604 11433,2558 11309,2503 11185,2569 11061,2673 10937,2674 10813,2553 10688,2511 10564,2512 10440,2502 10316,2475 10192,2474 10068,2547 9944,2507 9819,2489 9695,2402 9571,2421 9447,2407 9323,2355 9199,2312 9075,2330 8950,2327 8826,2311 8702,2358 8578,2362 8454,2338 8330,2379 8207,2352 8082,2325 7958,2307 7834,2258 7710,2264 7586,2222 7462,2177 7338,2155 7213,2168 7089,2173 6965,2138 6841,2115 6717,2055 6593,2026 6469,1991 6344,1954 6220,1914 6096,1914 5972,1873 5848,1862 5724,1827 5600,1828 5475,1821 5351,1785 5227,1747 5103,1732 4979,1704 4855,1688 4731,1651 4606,1618 4482,1593 4358,1562 4234,1529 4110,1496 3986,1476 3862,1448 3737,1428 3613,1420 3489,1413 3365,1411 3241,1380 3117,1361 2993,1347 2868,1332 2744,1309 2620,1300 2496,1307 2372,1292 2248,1280 2124,1283 1999,1274 1875,1258 1751,1254 1627,1252 1503,1244 1379,1237 1255,1235 1255,1130 Z"/>
 <path fill="rgb(131,202,255)" stroke="none" d="M 1255,1091 L 1379,1091 1503,1091 1627,1091 1751,1091 1875,1091 1999,1091 2124,1091 2248,1091 2372,1091 2496,1091 2620,1091 2744,1091 2868,1091 2993,1091 3117,1091 3241,1091 3365,1091 3489,1091 3613,1091 3737,1091 3862,1091 3986,1091 4110,1091 4234,1091 4358,1091 4482,1091 4606,1091 4731,1091 4855,1091 4979,1091 5103,1091 5227,1091 5351,1091 5475,1091 5600,1091 5724,1091 5848,1091 5972,1091 6096,1091 6220,1091 6344,1091 6469,1091 6593,1091 6717,1091 6841,1091 6965,1091 7089,1091 7213,1091 7338,1091 7462,1091 7586,1091 7710,1091 7834,1091 7958,1091 8082,1091 8207,1091 8330,1091 8454,1091 8578,1091 8702,1091 8826,1091 8950,1091 9075,1091 9199,1091 9323,1091 9447,1091 9571,1091 9695,1091 9819,1091 9944,1091 10068,1091 10192,1091 10316,1091 10440,1091 10564,1091 10688,1091 10813,1091 10937,1091 11061,1091 11185,1091 11309,1091 11433,1091 11557,1091 11682,1091 11806,1091 11930,1091 12054,1091 12178,1091 12302,1091 12426,1091 12551,1091 12675,1091 12799,1091 12923,1091 13047,1091 13171,1091 13295,1091 13420,1091 13544,1091 13668,1091 13792,1091 13916,1091 14040,1091 14164,1091 14289,1091 14413,1091 14537,1091 14661,1091 14785,1091 14909,1091 15033,1091 15158,1091 15158,1477 15033,1483 14909,1466 14785,1502 14661,1526 14537,1576 14413,1566 14289,1545 14164,1567 14040,1594 13916,1604 13792,1617 13668,1625 13544,1667 13420,1623 13295,1613 13171,1612 13047,1616 12923,1607 12799,1602 12675,1632 12551,1656 12426,1685 12302,1698 12178,1698 12054,1634 11930,1658 11806,1666 11682,1665 11557,1679 11433,1634 11309,1597 11185,1637 11061,1698 10937,1743 10813,1683 10688,1669 10564,1688 10440,1696 10316,1687 10192,1670 10068,1738 9944,1765 9819,1781 9695,1695 9571,1664 9447,1653 9323,1634 9199,1620 9075,1662 8950,1644 8826,1645 8702,1651 8578,1670 8454,1655 8330,1667 8207,1686 8082,1682 7958,1679 7834,1647 7710,1645 7586,1623 7462,1606 7338,1592 7213,1581 7089,1572 6965,1560 6841,1557 6717,1516 6593,1486 6469,1467 6344,1448 6220,1424 6096,1432 5972,1408 5848,1392 5724,1375 5600,1376 5475,1371 5351,1358 5227,1329 5103,1306 4979,1298 4855,1298 4731,1278 4606,1265 4482,1250 4358,1237 4234,1225 4110,1212 3986,1198 3862,1187 3737,1176 3613,1190 3489,1186 3365,1190 3241,1169 3117,1162 2993,1151 2868,1143 2744,1136 2620,1140 2496,1138 2372,1135 2248,1129 2124,1133 1999,1133 1875,1133 1751,1127 1627,1130 1503,1125 1379,1128 1255,1130 1255,1091 Z"/>
 <path fill="none" stroke="rgb(0,0,0)" stroke-linejoin="round" d="M 1255,1091 L 1379,1091 1503,1091 1627,1091 1751,1091 1875,1091 1999,1091 2124,1091 2248,1091 2372,1091 2496,1091 2620,1091 2744,1091 2868,1091 2993,1091 3117,1091 3241,1091 3365,1091 3489,1091 3613,1091 3737,1091 3862,1091 3986,1091 4110,1091 4234,1091 4358,1091 4482,1091 4606,1091 4731,1091 4855,1091 4979,1091 5103,1091 5227,1091 5351,1091 5475,1091 5600,1091 5724,1091 5848,1091 5972,1091 6096,1091 6220,1091 6344,1091 6469,1091 6593,1091 6717,1091 6841,1091 6965,1091 7089,1091 7213,1091 7338,1091 7462,1091 7586,1091 7710,1091 7834,1091 7958,1091 8082,1091 8207,1091 8330,1091 8454,1091 8578,1091 8702,1091 8826,1091 8950,1091 9075,1091 9199,1091 9323,1091 9447,1091 9571,1091 9695,1091 9819,1091 9944,1091 10068,1091 10192,1091 10316,1091 10440,1091 10564,1091 10688,1091 10813,1091 10937,1091 11061,1091 11185,1091 11309,1091 11433,1091 11557,1091 11682,1091 11806,1091 11930,1091 12054,1091 12178,1091 12302,1091 12426,1091 12551,1091 12675,1091 12799,1091 12923,1091 13047,1091 13171,1091 13295,1091 13420,1091 13544,1091 13668,1091 13792,1091 13916,1091 14040,1091 14164,1091 14289,1091 14413,1091 14537,1091 14661,1091 14785,1091 14909,1091 15033,1091 15158,1091 15158,1477 15033,1483 14909,1466 14785,1502 14661,1526 14537,1576 14413,1566 14289,1545 14164,1567 14040,1594 13916,1604 13792,1617 13668,1625 13544,1667 13420,1623 13295,1613 13171,1612 13047,1616 12923,1607 12799,1602 12675,1632 12551,1656 12426,1685 12302,1698 12178,1698 12054,1634 11930,1658 11806,1666 11682,1665 11557,1679 11433,1634 11309,1597 11185,1637 11061,1698 10937,1743 10813,1683 10688,1669 10564,1688 10440,1696 10316,1687 10192,1670 10068,1738 9944,1765 9819,1781 9695,1695 9571,1664 9447,1653 9323,1634 9199,1620 9075,1662 8950,1644 8826,1645 8702,1651 8578,1670 8454,1655 8330,1667 8207,1686 8082,1682 7958,1679 7834,1647 7710,1645 7586,1623 7462,1606 7338,1592 7213,1581 7089,1572 6965,1560 6841,1557 6717,1516 6593,1486 6469,1467 6344,1448 6220,1424 6096,1432 5972,1408 5848,1392 5724,1375 5600,1376 5475,1371 5351,1358 5227,1329 5103,1306 4979,1298 4855,1298 4731,1278 4606,1265 4482,1250 4358,1237 4234,1225 4110,1212 3986,1198 3862,1187 3737,1176 3613,1190 3489,1186 3365,1190 3241,1169 3117,1162 2993,1151 2868,1143 2744,1136 2620,1140 2496,1138 2372,1135 2248,1129 2124,1133 1999,1133 1875,1133 1751,1127 1627,1130 1503,1125 1379,1128 1255,1130 1255,1091 Z"/>
 <text class="TextShape"><tspan class="TextParagraph" font-family="Arial, sans-serif" font-size="388px" font-weight="400"><tspan class="TextPosition" x="1079" y="11295"><tspan fill="rgb(0,0,0)" stroke="none">2008</tspan></tspan></tspan></text>
 <text class="TextShape"><tspan class="TextParagraph" font-family="Arial, sans-serif" font-size="388px" font-weight="400"><tspan class="TextPosition" x="2569" y="11295"><tspan fill="rgb(0,0,0)" stroke="none">2009</tspan></tspan></tspan></text>
 <text class="TextShape"><tspan class="TextParagraph" font-family="Arial, sans-serif" font-size="388px" font-weight="400"><tspan class="TextPosition" x="4058" y="11295"><tspan fill="rgb(0,0,0)" stroke="none">2010</tspan></tspan></tspan></text>
 <text class="TextShape"><tspan class="TextParagraph" font-family="Arial, sans-serif" font-size="388px" font-weight="400"><tspan class="TextPosition" x="5562" y="11295"><tspan fill="rgb(0,0,0)" stroke="none">2011</tspan></tspan></tspan></text>
 <text class="TextShape"><tspan class="TextParagraph" font-family="Arial, sans-serif" font-size="388px" font-weight="400"><tspan class="TextPosition" x="7038" y="11295"><tspan fill="rgb(0,0,0)" stroke="none">2012</tspan></tspan></tspan></text>
 <text class="TextShape"><tspan class="TextParagraph" font-family="Arial, sans-serif" font-size="388px" font-weight="400"><tspan class="TextPosition" x="8527" y="11295"><tspan fill="rgb(0,0,0)" stroke="none">2013</tspan></tspan></tspan></text>
 <text class="TextShape"><tspan class="TextParagraph" font-family="Arial, sans-serif" font-size="388px" font-weight="400"><tspan class="TextPosition" x="10017" y="11295"><tspan fill="rgb(0,0,0)" stroke="none">2014</tspan></tspan></tspan></text>
 <text class="TextShape"><tspan class="TextParagraph" font-family="Arial, sans-serif" font-size="388px" font-weight="400"><tspan class="TextPosition" x="11507" y="11295"><tspan fill="rgb(0,0,0)" stroke="none">2015</tspan></tspan></tspan></text>
 <text class="TextShape"><tspan class="TextParagraph" font-family="Arial, sans-serif" font-size="388px" font-weight="400"><tspan class="TextPosition" x="12997" y="11295"><tspan fill="rgb(0,0,0)" stroke="none">2016</tspan></tspan></tspan></text>
 <text class="TextShape"><tspan class="TextParagraph" font-family="Arial, sans-serif" font-size="388px" font-weight="400"><tspan class="TextPosition" x="14486" y="11295"><tspan fill="rgb(0,0,0)" stroke="none">2017</tspan></tspan></tspan></text>
 <text class="TextShape"><tspan class="TextParagraph" font-family="Arial, sans-serif" font-size="388px" font-weight="400"><tspan class="TextPosition" x="449" y="10835"><tspan fill="rgb(0,0,0)" stroke="none">0%</tspan></tspan></tspan></text>
 <text class="TextShape"><tspan class="TextParagraph" font-family="Arial, sans-serif" font-size="388px" font-weight="400"><tspan class="TextPosition" x="238" y="9873"><tspan fill="rgb(0,0,0)" stroke="none">10%</tspan></tspan></tspan></text>
 <text class="TextShape"><tspan class="TextParagraph" font-family="Arial, sans-serif" font-size="388px" font-weight="400"><tspan class="TextPosition" x="238" y="8912"><tspan fill="rgb(0,0,0)" stroke="none">20%</tspan></tspan></tspan></text>
 <text class="TextShape"><tspan class="TextParagraph" font-family="Arial, sans-serif" font-size="388px" font-weight="400"><tspan class="TextPosition" x="238" y="7951"><tspan fill="rgb(0,0,0)" stroke="none">30%</tspan></tspan></tspan></text>
 <text class="TextShape"><tspan class="TextParagraph" font-family="Arial, sans-serif" font-size="388px" font-weight="400"><tspan class="TextPosition" x="238" y="6990"><tspan fill="rgb(0,0,0)" stroke="none">40%</tspan></tspan></tspan></text>
 <text class="TextShape"><tspan class="TextParagraph" font-family="Arial, sans-serif" font-size="388px" font-weight="400"><tspan class="TextPosition" x="238" y="6029"><tspan fill="rgb(0,0,0)" stroke="none">50%</tspan></tspan></tspan></text>
 <text class="TextShape"><tspan class="TextParagraph" font-family="Arial, sans-serif" font-size="388px" font-weight="400"><tspan class="TextPosition" x="238" y="5068"><tspan fill="rgb(0,0,0)" stroke="none">60%</tspan></tspan></tspan></text>
 <text class="TextShape"><tspan class="TextParagraph" font-family="Arial, sans-serif" font-size="388px" font-weight="400"><tspan class="TextPosition" x="238" y="4107"><tspan fill="rgb(0,0,0)" stroke="none">70%</tspan></tspan></tspan></text>
 <text class="TextShape"><tspan class="TextParagraph" font-family="Arial, sans-serif" font-size="388px" font-weight="400"><tspan class="TextPosition" x="238" y="3146"><tspan fill="rgb(0,0,0)" stroke="none">80%</tspan></tspan></tspan></text>
 <text class="TextShape"><tspan class="TextParagraph" font-family="Arial, sans-serif" font-size="388px" font-weight="400"><tspan class="TextPosition" x="238" y="2185"><tspan fill="rgb(0,0,0)" stroke="none">90%</tspan></tspan></tspan></text>
 <text class="TextShape"><tspan class="TextParagraph" font-family="Arial, sans-serif" font-size="388px" font-weight="400"><tspan class="TextPosition" x="26" y="1224"><tspan fill="rgb(0,0,0)" stroke="none">100%</tspan></tspan></tspan></text>
 <text class="TextShape"><tspan class="TextParagraph" font-family="Arial, sans-serif" font-size="388px" font-weight="400"><tspan class="TextPosition" x="15408" y="10835"><tspan fill="rgb(0,0,0)" stroke="none">0%</tspan></tspan></tspan></text>
 <text class="TextShape"><tspan class="TextParagraph" font-family="Arial, sans-serif" font-size="388px" font-weight="400"><tspan class="TextPosition" x="15408" y="9873"><tspan fill="rgb(0,0,0)" stroke="none">10%</tspan></tspan></tspan></text>
 <text class="TextShape"><tspan class="TextParagraph" font-family="Arial, sans-serif" font-size="388px" font-weight="400"><tspan class="TextPosition" x="15408" y="8912"><tspan fill="rgb(0,0,0)" stroke="none">20%</tspan></tspan></tspan></text>
 <text class="TextShape"><tspan class="TextParagraph" font-family="Arial, sans-serif" font-size="388px" font-weight="400"><tspan class="TextPosition" x="15408" y="7951"><tspan fill="rgb(0,0,0)" stroke="none">30%</tspan></tspan></tspan></text>
 <text class="TextShape"><tspan class="TextParagraph" font-family="Arial, sans-serif" font-size="388px" font-weight="400"><tspan class="TextPosition" x="15408" y="6990"><tspan fill="rgb(0,0,0)" stroke="none">40%</tspan></tspan></tspan></text>
 <text class="TextShape"><tspan class="TextParagraph" font-family="Arial, sans-serif" font-size="388px" font-weight="400"><tspan class="TextPosition" x="15408" y="6029"><tspan fill="rgb(0,0,0)" stroke="none">50%</tspan></tspan></tspan></text>
 <text class="TextShape"><tspan class="TextParagraph" font-family="Arial, sans-serif" font-size="388px" font-weight="400"><tspan class="TextPosition" x="15408" y="5068"><tspan fill="rgb(0,0,0)" stroke="none">60%</tspan></tspan></tspan></text>
 <text class="TextShape"><tspan class="TextParagraph" font-family="Arial, sans-serif" font-size="388px" font-weight="400"><tspan class="TextPosition" x="15408" y="4107"><tspan fill="rgb(0,0,0)" stroke="none">70%</tspan></tspan></tspan></text>
 <text class="TextShape"><tspan class="TextParagraph" font-family="Arial, sans-serif" font-size="388px" font-weight="400"><tspan class="TextPosition" x="15408" y="3146"><tspan fill="rgb(0,0,0)" stroke="none">80%</tspan></tspan></tspan></text>
 <text class="TextShape"><tspan class="TextParagraph" font-family="Arial, sans-serif" font-size="388px" font-weight="400"><tspan class="TextPosition" x="15408" y="2185"><tspan fill="rgb(0,0,0)" stroke="none">90%</tspan></tspan></tspan></text>
 <text class="TextShape"><tspan class="TextParagraph" font-family="Arial, sans-serif" font-size="388px" font-weight="400"><tspan class="TextPosition" x="15408" y="1224"><tspan fill="rgb(0,0,0)" stroke="none">100%</tspan></tspan></tspan></text>
 <text class="TextShape"><tspan class="TextParagraph" font-family="Liberation Sans, sans-serif" font-size="635px" font-weight="400"><tspan class="TextPosition" x="5489" y="747"><tspan fill="rgb(0,0,0)" stroke="none">Nmero de pxeles </tspan></tspan></tspan></text>
 <path fill="rgb(0,69,134)" stroke="none" d="M 3179,11972 L 3074,11972 3074,11761 3285,11761 3285,11972 3179,11972 Z"/>
 <path fill="none" stroke="rgb(0,0,0)" stroke-linejoin="round" d="M 3179,11972 L 3074,11972 3074,11761 3285,11761 3285,11972 3179,11972 Z"/>
 <path fill="rgb(255,66,14)" stroke="none" d="M 5020,11972 L 4915,11972 4915,11761 5126,11761 5126,11972 5020,11972 Z"/>
 <path fill="none" stroke="rgb(0,0,0)" stroke-linejoin="round" d="M 5020,11972 L 4915,11972 4915,11761 5126,11761 5126,11972 5020,11972 Z"/>
 <path fill="rgb(255,211,32)" stroke="none" d="M 6861,11972 L 6756,11972 6756,11761 6967,11761 6967,11972 6861,11972 Z"/>
 <path fill="none" stroke="rgb(0,0,0)" stroke-linejoin="round" d="M 6861,11972 L 6756,11972 6756,11761 6967,11761 6967,11972 6861,11972 Z"/>
 <path fill="rgb(87,157,28)" stroke="none" d="M 8702,11972 L 8596,11972 8596,11761 8807,11761 8807,11972 8702,11972 Z"/>
 <path fill="none" stroke="rgb(0,0,0)" stroke-linejoin="round" d="M 8702,11972 L 8596,11972 8596,11761 8807,11761 8807,11972 8702,11972 Z"/>
 <path fill="rgb(126,0,33)" stroke="none" d="M 10543,11972 L 10437,11972 10437,11761 10648,11761 10648,11972 10543,11972 Z"/>
 <path fill="none" stroke="rgb(0,0,0)" stroke-linejoin="round" d="M 10543,11972 L 10437,11972 10437,11761 10648,11761 10648,11972 10543,11972 Z"/>
 <path fill="rgb(131,202,255)" stroke="none" d="M 12384,11972 L 12278,11972 12278,11761 12489,11761 12489,11972 12384,11972 Z"/>
 <path fill="none" stroke="rgb(0,0,0)" stroke-linejoin="round" d="M 12384,11972 L 12278,11972 12278,11761 12489,11761 12489,11972 12384,11972 Z"/>
 <text class="TextShape"><tspan class="TextParagraph" font-family="Arial, sans-serif" font-size="353px" font-weight="400"><tspan class="TextPosition" x="3385" y="11985"><tspan fill="rgb(0,0,0)" stroke="none">0,5 MPx</tspan></tspan></tspan></text>
 <text class="TextShape"><tspan class="TextParagraph" font-family="Arial, sans-serif" font-size="353px" font-weight="400"><tspan class="TextPosition" x="5226" y="11985"><tspan fill="rgb(0,0,0)" stroke="none">1,0 MPx</tspan></tspan></tspan></text>
 <text class="TextShape"><tspan class="TextParagraph" font-family="Arial, sans-serif" font-size="353px" font-weight="400"><tspan class="TextPosition" x="7067" y="11985"><tspan fill="rgb(0,0,0)" stroke="none">1,5 MPx</tspan></tspan></tspan></text>
 <text class="TextShape"><tspan class="TextParagraph" font-family="Arial, sans-serif" font-size="353px" font-weight="400"><tspan class="TextPosition" x="8907" y="11985"><tspan fill="rgb(0,0,0)" stroke="none">2,0 MPx</tspan></tspan></tspan></text>
 <text class="TextShape"><tspan class="TextParagraph" font-family="Arial, sans-serif" font-size="353px" font-weight="400"><tspan class="TextPosition" x="10748" y="11985"><tspan fill="rgb(0,0,0)" stroke="none">2,5 MPx</tspan></tspan></tspan></text>
 <text class="TextShape"><tspan class="TextParagraph" font-family="Arial, sans-serif" font-size="353px" font-weight="400"><tspan class="TextPosition" x="12589" y="11985"><tspan fill="rgb(0,0,0)" stroke="none">Otros</tspan></tspan></tspan></text>
</svg>
