<?xml version="1.0" encoding="UTF-8"?>
<!DOCTYPE svg PUBLIC "-//W3C//DTD SVG 1.1//EN" "http://www.w3.org/Graphics/SVG/1.1/DTD/svg11.dtd">
<svg width="163mm" height="122mm" viewBox="0 0 16300 12200" version="1.1" xmlns="http://www.w3.org/2000/svg" stroke-width="28.222" stroke-linejoin="round" xml:space="preserve">
 <path fill="rgb(255,255,255)" stroke="none" d="M 8184,12221 L 12,12221 12,0 16356,0 16356,12221 8184,12221 Z"/>
 <path fill="none" stroke="rgb(179,179,179)" stroke-linejoin="round" d="M 8119,10762 L 1428,10762 1428,1093 14809,1093 14809,10762 8119,10762 Z"/>
 <path fill="none" stroke="rgb(179,179,179)" stroke-linejoin="round" d="M 14809,10761 L 1428,10761"/>
 <path fill="none" stroke="rgb(179,179,179)" stroke-linejoin="round" d="M 14809,9794 L 1428,9794"/>
 <path fill="none" stroke="rgb(179,179,179)" stroke-linejoin="round" d="M 14809,8827 L 1428,8827"/>
 <path fill="none" stroke="rgb(179,179,179)" stroke-linejoin="round" d="M 14809,7860 L 1428,7860"/>
 <path fill="none" stroke="rgb(179,179,179)" stroke-linejoin="round" d="M 14809,6893 L 1428,6893"/>
 <path fill="none" stroke="rgb(179,179,179)" stroke-linejoin="round" d="M 14809,5927 L 1428,5927"/>
 <path fill="none" stroke="rgb(179,179,179)" stroke-linejoin="round" d="M 14809,4959 L 1428,4959"/>
 <path fill="none" stroke="rgb(179,179,179)" stroke-linejoin="round" d="M 14809,3992 L 1428,3992"/>
 <path fill="none" stroke="rgb(179,179,179)" stroke-linejoin="round" d="M 14809,3026 L 1428,3026"/>
 <path fill="none" stroke="rgb(179,179,179)" stroke-linejoin="round" d="M 14809,2059 L 1428,2059"/>
 <path fill="none" stroke="rgb(179,179,179)" stroke-linejoin="round" d="M 14809,1092 L 1428,1092"/>
 <path fill="none" stroke="rgb(0,0,0)" stroke-width="30" stroke-linejoin="round" d="M 1428,10911 L 1428,10761"/>
 <path fill="none" stroke="rgb(0,0,0)" stroke-width="30" stroke-linejoin="round" d="M 1428,10911 L 1428,10761"/>
 <path fill="none" stroke="rgb(0,0,0)" stroke-width="30" stroke-linejoin="round" d="M 1547,10911 L 1547,10761"/>
 <path fill="none" stroke="rgb(0,0,0)" stroke-width="30" stroke-linejoin="round" d="M 1547,10911 L 1547,10761"/>
 <path fill="none" stroke="rgb(0,0,0)" stroke-width="30" stroke-linejoin="round" d="M 1666,10911 L 1666,10761"/>
 <path fill="none" stroke="rgb(0,0,0)" stroke-width="30" stroke-linejoin="round" d="M 1666,10911 L 1666,10761"/>
 <path fill="none" stroke="rgb(0,0,0)" stroke-width="30" stroke-linejoin="round" d="M 1786,10911 L 1786,10761"/>
 <path fill="none" stroke="rgb(0,0,0)" stroke-width="30" stroke-linejoin="round" d="M 1786,10911 L 1786,10761"/>
 <path fill="none" stroke="rgb(0,0,0)" stroke-width="30" stroke-linejoin="round" d="M 1905,10911 L 1905,10761"/>
 <path fill="none" stroke="rgb(0,0,0)" stroke-width="30" stroke-linejoin="round" d="M 1905,10911 L 1905,10761"/>
 <path fill="none" stroke="rgb(0,0,0)" stroke-width="30" stroke-linejoin="round" d="M 2025,10911 L 2025,10761"/>
 <path fill="none" stroke="rgb(0,0,0)" stroke-width="30" stroke-linejoin="round" d="M 2025,10911 L 2025,10761"/>
 <path fill="none" stroke="rgb(0,0,0)" stroke-width="30" stroke-linejoin="round" d="M 2144,10911 L 2144,10761"/>
 <path fill="none" stroke="rgb(0,0,0)" stroke-width="30" stroke-linejoin="round" d="M 2144,10911 L 2144,10761"/>
 <path fill="none" stroke="rgb(0,0,0)" stroke-width="30" stroke-linejoin="round" d="M 2264,10911 L 2264,10761"/>
 <path fill="none" stroke="rgb(0,0,0)" stroke-width="30" stroke-linejoin="round" d="M 2264,10911 L 2264,10761"/>
 <path fill="none" stroke="rgb(0,0,0)" stroke-width="30" stroke-linejoin="round" d="M 2383,10911 L 2383,10761"/>
 <path fill="none" stroke="rgb(0,0,0)" stroke-width="30" stroke-linejoin="round" d="M 2383,10911 L 2383,10761"/>
 <path fill="none" stroke="rgb(0,0,0)" stroke-width="30" stroke-linejoin="round" d="M 2503,10911 L 2503,10761"/>
 <path fill="none" stroke="rgb(0,0,0)" stroke-width="30" stroke-linejoin="round" d="M 2503,10911 L 2503,10761"/>
 <path fill="none" stroke="rgb(0,0,0)" stroke-width="30" stroke-linejoin="round" d="M 2622,10911 L 2622,10761"/>
 <path fill="none" stroke="rgb(0,0,0)" stroke-width="30" stroke-linejoin="round" d="M 2622,10911 L 2622,10761"/>
 <path fill="none" stroke="rgb(0,0,0)" stroke-width="30" stroke-linejoin="round" d="M 2742,10911 L 2742,10761"/>
 <path fill="none" stroke="rgb(0,0,0)" stroke-width="30" stroke-linejoin="round" d="M 2742,10911 L 2742,10761"/>
 <path fill="none" stroke="rgb(0,0,0)" stroke-width="30" stroke-linejoin="round" d="M 2861,10911 L 2861,10761"/>
 <path fill="none" stroke="rgb(0,0,0)" stroke-width="30" stroke-linejoin="round" d="M 2861,10911 L 2861,10761"/>
 <path fill="none" stroke="rgb(0,0,0)" stroke-width="30" stroke-linejoin="round" d="M 2981,10911 L 2981,10761"/>
 <path fill="none" stroke="rgb(0,0,0)" stroke-width="30" stroke-linejoin="round" d="M 2981,10911 L 2981,10761"/>
 <path fill="none" stroke="rgb(0,0,0)" stroke-width="30" stroke-linejoin="round" d="M 3100,10911 L 3100,10761"/>
 <path fill="none" stroke="rgb(0,0,0)" stroke-width="30" stroke-linejoin="round" d="M 3100,10911 L 3100,10761"/>
 <path fill="none" stroke="rgb(0,0,0)" stroke-width="30" stroke-linejoin="round" d="M 3220,10911 L 3220,10761"/>
 <path fill="none" stroke="rgb(0,0,0)" stroke-width="30" stroke-linejoin="round" d="M 3220,10911 L 3220,10761"/>
 <path fill="none" stroke="rgb(0,0,0)" stroke-width="30" stroke-linejoin="round" d="M 3339,10911 L 3339,10761"/>
 <path fill="none" stroke="rgb(0,0,0)" stroke-width="30" stroke-linejoin="round" d="M 3339,10911 L 3339,10761"/>
 <path fill="none" stroke="rgb(0,0,0)" stroke-width="30" stroke-linejoin="round" d="M 3459,10911 L 3459,10761"/>
 <path fill="none" stroke="rgb(0,0,0)" stroke-width="30" stroke-linejoin="round" d="M 3459,10911 L 3459,10761"/>
 <path fill="none" stroke="rgb(0,0,0)" stroke-width="30" stroke-linejoin="round" d="M 3578,10911 L 3578,10761"/>
 <path fill="none" stroke="rgb(0,0,0)" stroke-width="30" stroke-linejoin="round" d="M 3578,10911 L 3578,10761"/>
 <path fill="none" stroke="rgb(0,0,0)" stroke-width="30" stroke-linejoin="round" d="M 3698,10911 L 3698,10761"/>
 <path fill="none" stroke="rgb(0,0,0)" stroke-width="30" stroke-linejoin="round" d="M 3698,10911 L 3698,10761"/>
 <path fill="none" stroke="rgb(0,0,0)" stroke-width="30" stroke-linejoin="round" d="M 3817,10911 L 3817,10761"/>
 <path fill="none" stroke="rgb(0,0,0)" stroke-width="30" stroke-linejoin="round" d="M 3817,10911 L 3817,10761"/>
 <path fill="none" stroke="rgb(0,0,0)" stroke-width="30" stroke-linejoin="round" d="M 3937,10911 L 3937,10761"/>
 <path fill="none" stroke="rgb(0,0,0)" stroke-width="30" stroke-linejoin="round" d="M 3937,10911 L 3937,10761"/>
 <path fill="none" stroke="rgb(0,0,0)" stroke-width="30" stroke-linejoin="round" d="M 4056,10911 L 4056,10761"/>
 <path fill="none" stroke="rgb(0,0,0)" stroke-width="30" stroke-linejoin="round" d="M 4056,10911 L 4056,10761"/>
 <path fill="none" stroke="rgb(0,0,0)" stroke-width="30" stroke-linejoin="round" d="M 4176,10911 L 4176,10761"/>
 <path fill="none" stroke="rgb(0,0,0)" stroke-width="30" stroke-linejoin="round" d="M 4176,10911 L 4176,10761"/>
 <path fill="none" stroke="rgb(0,0,0)" stroke-width="30" stroke-linejoin="round" d="M 4295,10911 L 4295,10761"/>
 <path fill="none" stroke="rgb(0,0,0)" stroke-width="30" stroke-linejoin="round" d="M 4295,10911 L 4295,10761"/>
 <path fill="none" stroke="rgb(0,0,0)" stroke-width="30" stroke-linejoin="round" d="M 4415,10911 L 4415,10761"/>
 <path fill="none" stroke="rgb(0,0,0)" stroke-width="30" stroke-linejoin="round" d="M 4415,10911 L 4415,10761"/>
 <path fill="none" stroke="rgb(0,0,0)" stroke-width="30" stroke-linejoin="round" d="M 4534,10911 L 4534,10761"/>
 <path fill="none" stroke="rgb(0,0,0)" stroke-width="30" stroke-linejoin="round" d="M 4534,10911 L 4534,10761"/>
 <path fill="none" stroke="rgb(0,0,0)" stroke-width="30" stroke-linejoin="round" d="M 4654,10911 L 4654,10761"/>
 <path fill="none" stroke="rgb(0,0,0)" stroke-width="30" stroke-linejoin="round" d="M 4654,10911 L 4654,10761"/>
 <path fill="none" stroke="rgb(0,0,0)" stroke-width="30" stroke-linejoin="round" d="M 4773,10911 L 4773,10761"/>
 <path fill="none" stroke="rgb(0,0,0)" stroke-width="30" stroke-linejoin="round" d="M 4773,10911 L 4773,10761"/>
 <path fill="none" stroke="rgb(0,0,0)" stroke-width="30" stroke-linejoin="round" d="M 4892,10911 L 4892,10761"/>
 <path fill="none" stroke="rgb(0,0,0)" stroke-width="30" stroke-linejoin="round" d="M 4892,10911 L 4892,10761"/>
 <path fill="none" stroke="rgb(0,0,0)" stroke-width="30" stroke-linejoin="round" d="M 5012,10911 L 5012,10761"/>
 <path fill="none" stroke="rgb(0,0,0)" stroke-width="30" stroke-linejoin="round" d="M 5012,10911 L 5012,10761"/>
 <path fill="none" stroke="rgb(0,0,0)" stroke-width="30" stroke-linejoin="round" d="M 5131,10911 L 5131,10761"/>
 <path fill="none" stroke="rgb(0,0,0)" stroke-width="30" stroke-linejoin="round" d="M 5131,10911 L 5131,10761"/>
 <path fill="none" stroke="rgb(0,0,0)" stroke-width="30" stroke-linejoin="round" d="M 5251,10911 L 5251,10761"/>
 <path fill="none" stroke="rgb(0,0,0)" stroke-width="30" stroke-linejoin="round" d="M 5251,10911 L 5251,10761"/>
 <path fill="none" stroke="rgb(0,0,0)" stroke-width="30" stroke-linejoin="round" d="M 5370,10911 L 5370,10761"/>
 <path fill="none" stroke="rgb(0,0,0)" stroke-width="30" stroke-linejoin="round" d="M 5370,10911 L 5370,10761"/>
 <path fill="none" stroke="rgb(0,0,0)" stroke-width="30" stroke-linejoin="round" d="M 5490,10911 L 5490,10761"/>
 <path fill="none" stroke="rgb(0,0,0)" stroke-width="30" stroke-linejoin="round" d="M 5490,10911 L 5490,10761"/>
 <path fill="none" stroke="rgb(0,0,0)" stroke-width="30" stroke-linejoin="round" d="M 5609,10911 L 5609,10761"/>
 <path fill="none" stroke="rgb(0,0,0)" stroke-width="30" stroke-linejoin="round" d="M 5609,10911 L 5609,10761"/>
 <path fill="none" stroke="rgb(0,0,0)" stroke-width="30" stroke-linejoin="round" d="M 5729,10911 L 5729,10761"/>
 <path fill="none" stroke="rgb(0,0,0)" stroke-width="30" stroke-linejoin="round" d="M 5729,10911 L 5729,10761"/>
 <path fill="none" stroke="rgb(0,0,0)" stroke-width="30" stroke-linejoin="round" d="M 5848,10911 L 5848,10761"/>
 <path fill="none" stroke="rgb(0,0,0)" stroke-width="30" stroke-linejoin="round" d="M 5848,10911 L 5848,10761"/>
 <path fill="none" stroke="rgb(0,0,0)" stroke-width="30" stroke-linejoin="round" d="M 5968,10911 L 5968,10761"/>
 <path fill="none" stroke="rgb(0,0,0)" stroke-width="30" stroke-linejoin="round" d="M 5968,10911 L 5968,10761"/>
 <path fill="none" stroke="rgb(0,0,0)" stroke-width="30" stroke-linejoin="round" d="M 6087,10911 L 6087,10761"/>
 <path fill="none" stroke="rgb(0,0,0)" stroke-width="30" stroke-linejoin="round" d="M 6087,10911 L 6087,10761"/>
 <path fill="none" stroke="rgb(0,0,0)" stroke-width="30" stroke-linejoin="round" d="M 6207,10911 L 6207,10761"/>
 <path fill="none" stroke="rgb(0,0,0)" stroke-width="30" stroke-linejoin="round" d="M 6207,10911 L 6207,10761"/>
 <path fill="none" stroke="rgb(0,0,0)" stroke-width="30" stroke-linejoin="round" d="M 6326,10911 L 6326,10761"/>
 <path fill="none" stroke="rgb(0,0,0)" stroke-width="30" stroke-linejoin="round" d="M 6326,10911 L 6326,10761"/>
 <path fill="none" stroke="rgb(0,0,0)" stroke-width="30" stroke-linejoin="round" d="M 6446,10911 L 6446,10761"/>
 <path fill="none" stroke="rgb(0,0,0)" stroke-width="30" stroke-linejoin="round" d="M 6446,10911 L 6446,10761"/>
 <path fill="none" stroke="rgb(0,0,0)" stroke-width="30" stroke-linejoin="round" d="M 6565,10911 L 6565,10761"/>
 <path fill="none" stroke="rgb(0,0,0)" stroke-width="30" stroke-linejoin="round" d="M 6565,10911 L 6565,10761"/>
 <path fill="none" stroke="rgb(0,0,0)" stroke-width="30" stroke-linejoin="round" d="M 6685,10911 L 6685,10761"/>
 <path fill="none" stroke="rgb(0,0,0)" stroke-width="30" stroke-linejoin="round" d="M 6685,10911 L 6685,10761"/>
 <path fill="none" stroke="rgb(0,0,0)" stroke-width="30" stroke-linejoin="round" d="M 6804,10911 L 6804,10761"/>
 <path fill="none" stroke="rgb(0,0,0)" stroke-width="30" stroke-linejoin="round" d="M 6804,10911 L 6804,10761"/>
 <path fill="none" stroke="rgb(0,0,0)" stroke-width="30" stroke-linejoin="round" d="M 6924,10911 L 6924,10761"/>
 <path fill="none" stroke="rgb(0,0,0)" stroke-width="30" stroke-linejoin="round" d="M 6924,10911 L 6924,10761"/>
 <path fill="none" stroke="rgb(0,0,0)" stroke-width="30" stroke-linejoin="round" d="M 7043,10911 L 7043,10761"/>
 <path fill="none" stroke="rgb(0,0,0)" stroke-width="30" stroke-linejoin="round" d="M 7043,10911 L 7043,10761"/>
 <path fill="none" stroke="rgb(0,0,0)" stroke-width="30" stroke-linejoin="round" d="M 7163,10911 L 7163,10761"/>
 <path fill="none" stroke="rgb(0,0,0)" stroke-width="30" stroke-linejoin="round" d="M 7163,10911 L 7163,10761"/>
 <path fill="none" stroke="rgb(0,0,0)" stroke-width="30" stroke-linejoin="round" d="M 7282,10911 L 7282,10761"/>
 <path fill="none" stroke="rgb(0,0,0)" stroke-width="30" stroke-linejoin="round" d="M 7282,10911 L 7282,10761"/>
 <path fill="none" stroke="rgb(0,0,0)" stroke-width="30" stroke-linejoin="round" d="M 7402,10911 L 7402,10761"/>
 <path fill="none" stroke="rgb(0,0,0)" stroke-width="30" stroke-linejoin="round" d="M 7402,10911 L 7402,10761"/>
 <path fill="none" stroke="rgb(0,0,0)" stroke-width="30" stroke-linejoin="round" d="M 7521,10911 L 7521,10761"/>
 <path fill="none" stroke="rgb(0,0,0)" stroke-width="30" stroke-linejoin="round" d="M 7521,10911 L 7521,10761"/>
 <path fill="none" stroke="rgb(0,0,0)" stroke-width="30" stroke-linejoin="round" d="M 7641,10911 L 7641,10761"/>
 <path fill="none" stroke="rgb(0,0,0)" stroke-width="30" stroke-linejoin="round" d="M 7641,10911 L 7641,10761"/>
 <path fill="none" stroke="rgb(0,0,0)" stroke-width="30" stroke-linejoin="round" d="M 7760,10911 L 7760,10761"/>
 <path fill="none" stroke="rgb(0,0,0)" stroke-width="30" stroke-linejoin="round" d="M 7760,10911 L 7760,10761"/>
 <path fill="none" stroke="rgb(0,0,0)" stroke-width="30" stroke-linejoin="round" d="M 7880,10911 L 7880,10761"/>
 <path fill="none" stroke="rgb(0,0,0)" stroke-width="30" stroke-linejoin="round" d="M 7880,10911 L 7880,10761"/>
 <path fill="none" stroke="rgb(0,0,0)" stroke-width="30" stroke-linejoin="round" d="M 7999,10911 L 7999,10761"/>
 <path fill="none" stroke="rgb(0,0,0)" stroke-width="30" stroke-linejoin="round" d="M 7999,10911 L 7999,10761"/>
 <path fill="none" stroke="rgb(0,0,0)" stroke-width="30" stroke-linejoin="round" d="M 8119,10911 L 8119,10761"/>
 <path fill="none" stroke="rgb(0,0,0)" stroke-width="30" stroke-linejoin="round" d="M 8119,10911 L 8119,10761"/>
 <path fill="none" stroke="rgb(0,0,0)" stroke-width="30" stroke-linejoin="round" d="M 8237,10911 L 8237,10761"/>
 <path fill="none" stroke="rgb(0,0,0)" stroke-width="30" stroke-linejoin="round" d="M 8237,10911 L 8237,10761"/>
 <path fill="none" stroke="rgb(0,0,0)" stroke-width="30" stroke-linejoin="round" d="M 8356,10911 L 8356,10761"/>
 <path fill="none" stroke="rgb(0,0,0)" stroke-width="30" stroke-linejoin="round" d="M 8356,10911 L 8356,10761"/>
 <path fill="none" stroke="rgb(0,0,0)" stroke-width="30" stroke-linejoin="round" d="M 8476,10911 L 8476,10761"/>
 <path fill="none" stroke="rgb(0,0,0)" stroke-width="30" stroke-linejoin="round" d="M 8476,10911 L 8476,10761"/>
 <path fill="none" stroke="rgb(0,0,0)" stroke-width="30" stroke-linejoin="round" d="M 8595,10911 L 8595,10761"/>
 <path fill="none" stroke="rgb(0,0,0)" stroke-width="30" stroke-linejoin="round" d="M 8595,10911 L 8595,10761"/>
 <path fill="none" stroke="rgb(0,0,0)" stroke-width="30" stroke-linejoin="round" d="M 8715,10911 L 8715,10761"/>
 <path fill="none" stroke="rgb(0,0,0)" stroke-width="30" stroke-linejoin="round" d="M 8715,10911 L 8715,10761"/>
 <path fill="none" stroke="rgb(0,0,0)" stroke-width="30" stroke-linejoin="round" d="M 8834,10911 L 8834,10761"/>
 <path fill="none" stroke="rgb(0,0,0)" stroke-width="30" stroke-linejoin="round" d="M 8834,10911 L 8834,10761"/>
 <path fill="none" stroke="rgb(0,0,0)" stroke-width="30" stroke-linejoin="round" d="M 8954,10911 L 8954,10761"/>
 <path fill="none" stroke="rgb(0,0,0)" stroke-width="30" stroke-linejoin="round" d="M 8954,10911 L 8954,10761"/>
 <path fill="none" stroke="rgb(0,0,0)" stroke-width="30" stroke-linejoin="round" d="M 9073,10911 L 9073,10761"/>
 <path fill="none" stroke="rgb(0,0,0)" stroke-width="30" stroke-linejoin="round" d="M 9073,10911 L 9073,10761"/>
 <path fill="none" stroke="rgb(0,0,0)" stroke-width="30" stroke-linejoin="round" d="M 9193,10911 L 9193,10761"/>
 <path fill="none" stroke="rgb(0,0,0)" stroke-width="30" stroke-linejoin="round" d="M 9193,10911 L 9193,10761"/>
 <path fill="none" stroke="rgb(0,0,0)" stroke-width="30" stroke-linejoin="round" d="M 9312,10911 L 9312,10761"/>
 <path fill="none" stroke="rgb(0,0,0)" stroke-width="30" stroke-linejoin="round" d="M 9312,10911 L 9312,10761"/>
 <path fill="none" stroke="rgb(0,0,0)" stroke-width="30" stroke-linejoin="round" d="M 9432,10911 L 9432,10761"/>
 <path fill="none" stroke="rgb(0,0,0)" stroke-width="30" stroke-linejoin="round" d="M 9432,10911 L 9432,10761"/>
 <path fill="none" stroke="rgb(0,0,0)" stroke-width="30" stroke-linejoin="round" d="M 9551,10911 L 9551,10761"/>
 <path fill="none" stroke="rgb(0,0,0)" stroke-width="30" stroke-linejoin="round" d="M 9551,10911 L 9551,10761"/>
 <path fill="none" stroke="rgb(0,0,0)" stroke-width="30" stroke-linejoin="round" d="M 9671,10911 L 9671,10761"/>
 <path fill="none" stroke="rgb(0,0,0)" stroke-width="30" stroke-linejoin="round" d="M 9671,10911 L 9671,10761"/>
 <path fill="none" stroke="rgb(0,0,0)" stroke-width="30" stroke-linejoin="round" d="M 9790,10911 L 9790,10761"/>
 <path fill="none" stroke="rgb(0,0,0)" stroke-width="30" stroke-linejoin="round" d="M 9790,10911 L 9790,10761"/>
 <path fill="none" stroke="rgb(0,0,0)" stroke-width="30" stroke-linejoin="round" d="M 9910,10911 L 9910,10761"/>
 <path fill="none" stroke="rgb(0,0,0)" stroke-width="30" stroke-linejoin="round" d="M 9910,10911 L 9910,10761"/>
 <path fill="none" stroke="rgb(0,0,0)" stroke-width="30" stroke-linejoin="round" d="M 10029,10911 L 10029,10761"/>
 <path fill="none" stroke="rgb(0,0,0)" stroke-width="30" stroke-linejoin="round" d="M 10029,10911 L 10029,10761"/>
 <path fill="none" stroke="rgb(0,0,0)" stroke-width="30" stroke-linejoin="round" d="M 10149,10911 L 10149,10761"/>
 <path fill="none" stroke="rgb(0,0,0)" stroke-width="30" stroke-linejoin="round" d="M 10149,10911 L 10149,10761"/>
 <path fill="none" stroke="rgb(0,0,0)" stroke-width="30" stroke-linejoin="round" d="M 10268,10911 L 10268,10761"/>
 <path fill="none" stroke="rgb(0,0,0)" stroke-width="30" stroke-linejoin="round" d="M 10268,10911 L 10268,10761"/>
 <path fill="none" stroke="rgb(0,0,0)" stroke-width="30" stroke-linejoin="round" d="M 10388,10911 L 10388,10761"/>
 <path fill="none" stroke="rgb(0,0,0)" stroke-width="30" stroke-linejoin="round" d="M 10388,10911 L 10388,10761"/>
 <path fill="none" stroke="rgb(0,0,0)" stroke-width="30" stroke-linejoin="round" d="M 10507,10911 L 10507,10761"/>
 <path fill="none" stroke="rgb(0,0,0)" stroke-width="30" stroke-linejoin="round" d="M 10507,10911 L 10507,10761"/>
 <path fill="none" stroke="rgb(0,0,0)" stroke-width="30" stroke-linejoin="round" d="M 10627,10911 L 10627,10761"/>
 <path fill="none" stroke="rgb(0,0,0)" stroke-width="30" stroke-linejoin="round" d="M 10627,10911 L 10627,10761"/>
 <path fill="none" stroke="rgb(0,0,0)" stroke-width="30" stroke-linejoin="round" d="M 10746,10911 L 10746,10761"/>
 <path fill="none" stroke="rgb(0,0,0)" stroke-width="30" stroke-linejoin="round" d="M 10746,10911 L 10746,10761"/>
 <path fill="none" stroke="rgb(0,0,0)" stroke-width="30" stroke-linejoin="round" d="M 10866,10911 L 10866,10761"/>
 <path fill="none" stroke="rgb(0,0,0)" stroke-width="30" stroke-linejoin="round" d="M 10866,10911 L 10866,10761"/>
 <path fill="none" stroke="rgb(0,0,0)" stroke-width="30" stroke-linejoin="round" d="M 10985,10911 L 10985,10761"/>
 <path fill="none" stroke="rgb(0,0,0)" stroke-width="30" stroke-linejoin="round" d="M 10985,10911 L 10985,10761"/>
 <path fill="none" stroke="rgb(0,0,0)" stroke-width="30" stroke-linejoin="round" d="M 11105,10911 L 11105,10761"/>
 <path fill="none" stroke="rgb(0,0,0)" stroke-width="30" stroke-linejoin="round" d="M 11105,10911 L 11105,10761"/>
 <path fill="none" stroke="rgb(0,0,0)" stroke-width="30" stroke-linejoin="round" d="M 11224,10911 L 11224,10761"/>
 <path fill="none" stroke="rgb(0,0,0)" stroke-width="30" stroke-linejoin="round" d="M 11224,10911 L 11224,10761"/>
 <path fill="none" stroke="rgb(0,0,0)" stroke-width="30" stroke-linejoin="round" d="M 11344,10911 L 11344,10761"/>
 <path fill="none" stroke="rgb(0,0,0)" stroke-width="30" stroke-linejoin="round" d="M 11344,10911 L 11344,10761"/>
 <path fill="none" stroke="rgb(0,0,0)" stroke-width="30" stroke-linejoin="round" d="M 11463,10911 L 11463,10761"/>
 <path fill="none" stroke="rgb(0,0,0)" stroke-width="30" stroke-linejoin="round" d="M 11463,10911 L 11463,10761"/>
 <path fill="none" stroke="rgb(0,0,0)" stroke-width="30" stroke-linejoin="round" d="M 11582,10911 L 11582,10761"/>
 <path fill="none" stroke="rgb(0,0,0)" stroke-width="30" stroke-linejoin="round" d="M 11582,10911 L 11582,10761"/>
 <path fill="none" stroke="rgb(0,0,0)" stroke-width="30" stroke-linejoin="round" d="M 11702,10911 L 11702,10761"/>
 <path fill="none" stroke="rgb(0,0,0)" stroke-width="30" stroke-linejoin="round" d="M 11702,10911 L 11702,10761"/>
 <path fill="none" stroke="rgb(0,0,0)" stroke-width="30" stroke-linejoin="round" d="M 11821,10911 L 11821,10761"/>
 <path fill="none" stroke="rgb(0,0,0)" stroke-width="30" stroke-linejoin="round" d="M 11821,10911 L 11821,10761"/>
 <path fill="none" stroke="rgb(0,0,0)" stroke-width="30" stroke-linejoin="round" d="M 11941,10911 L 11941,10761"/>
 <path fill="none" stroke="rgb(0,0,0)" stroke-width="30" stroke-linejoin="round" d="M 11941,10911 L 11941,10761"/>
 <path fill="none" stroke="rgb(0,0,0)" stroke-width="30" stroke-linejoin="round" d="M 12060,10911 L 12060,10761"/>
 <path fill="none" stroke="rgb(0,0,0)" stroke-width="30" stroke-linejoin="round" d="M 12060,10911 L 12060,10761"/>
 <path fill="none" stroke="rgb(0,0,0)" stroke-width="30" stroke-linejoin="round" d="M 12180,10911 L 12180,10761"/>
 <path fill="none" stroke="rgb(0,0,0)" stroke-width="30" stroke-linejoin="round" d="M 12180,10911 L 12180,10761"/>
 <path fill="none" stroke="rgb(0,0,0)" stroke-width="30" stroke-linejoin="round" d="M 12299,10911 L 12299,10761"/>
 <path fill="none" stroke="rgb(0,0,0)" stroke-width="30" stroke-linejoin="round" d="M 12299,10911 L 12299,10761"/>
 <path fill="none" stroke="rgb(0,0,0)" stroke-width="30" stroke-linejoin="round" d="M 12419,10911 L 12419,10761"/>
 <path fill="none" stroke="rgb(0,0,0)" stroke-width="30" stroke-linejoin="round" d="M 12419,10911 L 12419,10761"/>
 <path fill="none" stroke="rgb(0,0,0)" stroke-width="30" stroke-linejoin="round" d="M 12538,10911 L 12538,10761"/>
 <path fill="none" stroke="rgb(0,0,0)" stroke-width="30" stroke-linejoin="round" d="M 12538,10911 L 12538,10761"/>
 <path fill="none" stroke="rgb(0,0,0)" stroke-width="30" stroke-linejoin="round" d="M 12658,10911 L 12658,10761"/>
 <path fill="none" stroke="rgb(0,0,0)" stroke-width="30" stroke-linejoin="round" d="M 12658,10911 L 12658,10761"/>
 <path fill="none" stroke="rgb(0,0,0)" stroke-width="30" stroke-linejoin="round" d="M 12777,10911 L 12777,10761"/>
 <path fill="none" stroke="rgb(0,0,0)" stroke-width="30" stroke-linejoin="round" d="M 12777,10911 L 12777,10761"/>
 <path fill="none" stroke="rgb(0,0,0)" stroke-width="30" stroke-linejoin="round" d="M 12897,10911 L 12897,10761"/>
 <path fill="none" stroke="rgb(0,0,0)" stroke-width="30" stroke-linejoin="round" d="M 12897,10911 L 12897,10761"/>
 <path fill="none" stroke="rgb(0,0,0)" stroke-width="30" stroke-linejoin="round" d="M 13016,10911 L 13016,10761"/>
 <path fill="none" stroke="rgb(0,0,0)" stroke-width="30" stroke-linejoin="round" d="M 13016,10911 L 13016,10761"/>
 <path fill="none" stroke="rgb(0,0,0)" stroke-width="30" stroke-linejoin="round" d="M 13136,10911 L 13136,10761"/>
 <path fill="none" stroke="rgb(0,0,0)" stroke-width="30" stroke-linejoin="round" d="M 13136,10911 L 13136,10761"/>
 <path fill="none" stroke="rgb(0,0,0)" stroke-width="30" stroke-linejoin="round" d="M 13255,10911 L 13255,10761"/>
 <path fill="none" stroke="rgb(0,0,0)" stroke-width="30" stroke-linejoin="round" d="M 13255,10911 L 13255,10761"/>
 <path fill="none" stroke="rgb(0,0,0)" stroke-width="30" stroke-linejoin="round" d="M 13375,10911 L 13375,10761"/>
 <path fill="none" stroke="rgb(0,0,0)" stroke-width="30" stroke-linejoin="round" d="M 13375,10911 L 13375,10761"/>
 <path fill="none" stroke="rgb(0,0,0)" stroke-width="30" stroke-linejoin="round" d="M 13494,10911 L 13494,10761"/>
 <path fill="none" stroke="rgb(0,0,0)" stroke-width="30" stroke-linejoin="round" d="M 13494,10911 L 13494,10761"/>
 <path fill="none" stroke="rgb(0,0,0)" stroke-width="30" stroke-linejoin="round" d="M 13614,10911 L 13614,10761"/>
 <path fill="none" stroke="rgb(0,0,0)" stroke-width="30" stroke-linejoin="round" d="M 13614,10911 L 13614,10761"/>
 <path fill="none" stroke="rgb(0,0,0)" stroke-width="30" stroke-linejoin="round" d="M 13733,10911 L 13733,10761"/>
 <path fill="none" stroke="rgb(0,0,0)" stroke-width="30" stroke-linejoin="round" d="M 13733,10911 L 13733,10761"/>
 <path fill="none" stroke="rgb(0,0,0)" stroke-width="30" stroke-linejoin="round" d="M 13853,10911 L 13853,10761"/>
 <path fill="none" stroke="rgb(0,0,0)" stroke-width="30" stroke-linejoin="round" d="M 13853,10911 L 13853,10761"/>
 <path fill="none" stroke="rgb(0,0,0)" stroke-width="30" stroke-linejoin="round" d="M 13972,10911 L 13972,10761"/>
 <path fill="none" stroke="rgb(0,0,0)" stroke-width="30" stroke-linejoin="round" d="M 13972,10911 L 13972,10761"/>
 <path fill="none" stroke="rgb(0,0,0)" stroke-width="30" stroke-linejoin="round" d="M 14092,10911 L 14092,10761"/>
 <path fill="none" stroke="rgb(0,0,0)" stroke-width="30" stroke-linejoin="round" d="M 14092,10911 L 14092,10761"/>
 <path fill="none" stroke="rgb(0,0,0)" stroke-width="30" stroke-linejoin="round" d="M 14211,10911 L 14211,10761"/>
 <path fill="none" stroke="rgb(0,0,0)" stroke-width="30" stroke-linejoin="round" d="M 14211,10911 L 14211,10761"/>
 <path fill="none" stroke="rgb(0,0,0)" stroke-width="30" stroke-linejoin="round" d="M 14331,10911 L 14331,10761"/>
 <path fill="none" stroke="rgb(0,0,0)" stroke-width="30" stroke-linejoin="round" d="M 14331,10911 L 14331,10761"/>
 <path fill="none" stroke="rgb(0,0,0)" stroke-width="30" stroke-linejoin="round" d="M 14450,10911 L 14450,10761"/>
 <path fill="none" stroke="rgb(0,0,0)" stroke-width="30" stroke-linejoin="round" d="M 14450,10911 L 14450,10761"/>
 <path fill="none" stroke="rgb(0,0,0)" stroke-width="30" stroke-linejoin="round" d="M 14570,10911 L 14570,10761"/>
 <path fill="none" stroke="rgb(0,0,0)" stroke-width="30" stroke-linejoin="round" d="M 14570,10911 L 14570,10761"/>
 <path fill="none" stroke="rgb(0,0,0)" stroke-width="30" stroke-linejoin="round" d="M 14689,10911 L 14689,10761"/>
 <path fill="none" stroke="rgb(0,0,0)" stroke-width="30" stroke-linejoin="round" d="M 14689,10911 L 14689,10761"/>
 <path fill="none" stroke="rgb(0,0,0)" stroke-width="30" stroke-linejoin="round" d="M 14809,10911 L 14809,10761"/>
 <path fill="none" stroke="rgb(0,0,0)" stroke-width="30" stroke-linejoin="round" d="M 14809,10911 L 14809,10761"/>
 <path fill="none" stroke="rgb(0,0,0)" stroke-width="30" stroke-linejoin="round" d="M 1428,10761 L 14809,10761"/>
 <path fill="none" stroke="rgb(0,0,0)" stroke-width="30" stroke-linejoin="round" d="M 1278,10761 L 1428,10761"/>
 <path fill="none" stroke="rgb(0,0,0)" stroke-width="30" stroke-linejoin="round" d="M 1278,10761 L 1428,10761"/>
 <path fill="none" stroke="rgb(0,0,0)" stroke-width="30" stroke-linejoin="round" d="M 1278,9794 L 1428,9794"/>
 <path fill="none" stroke="rgb(0,0,0)" stroke-width="30" stroke-linejoin="round" d="M 1278,9794 L 1428,9794"/>
 <path fill="none" stroke="rgb(0,0,0)" stroke-width="30" stroke-linejoin="round" d="M 1278,8827 L 1428,8827"/>
 <path fill="none" stroke="rgb(0,0,0)" stroke-width="30" stroke-linejoin="round" d="M 1278,8827 L 1428,8827"/>
 <path fill="none" stroke="rgb(0,0,0)" stroke-width="30" stroke-linejoin="round" d="M 1278,7860 L 1428,7860"/>
 <path fill="none" stroke="rgb(0,0,0)" stroke-width="30" stroke-linejoin="round" d="M 1278,7860 L 1428,7860"/>
 <path fill="none" stroke="rgb(0,0,0)" stroke-width="30" stroke-linejoin="round" d="M 1278,6893 L 1428,6893"/>
 <path fill="none" stroke="rgb(0,0,0)" stroke-width="30" stroke-linejoin="round" d="M 1278,6893 L 1428,6893"/>
 <path fill="none" stroke="rgb(0,0,0)" stroke-width="30" stroke-linejoin="round" d="M 1278,5927 L 1428,5927"/>
 <path fill="none" stroke="rgb(0,0,0)" stroke-width="30" stroke-linejoin="round" d="M 1278,5927 L 1428,5927"/>
 <path fill="none" stroke="rgb(0,0,0)" stroke-width="30" stroke-linejoin="round" d="M 1278,4959 L 1428,4959"/>
 <path fill="none" stroke="rgb(0,0,0)" stroke-width="30" stroke-linejoin="round" d="M 1278,4959 L 1428,4959"/>
 <path fill="none" stroke="rgb(0,0,0)" stroke-width="30" stroke-linejoin="round" d="M 1278,3992 L 1428,3992"/>
 <path fill="none" stroke="rgb(0,0,0)" stroke-width="30" stroke-linejoin="round" d="M 1278,3992 L 1428,3992"/>
 <path fill="none" stroke="rgb(0,0,0)" stroke-width="30" stroke-linejoin="round" d="M 1278,3026 L 1428,3026"/>
 <path fill="none" stroke="rgb(0,0,0)" stroke-width="30" stroke-linejoin="round" d="M 1278,3026 L 1428,3026"/>
 <path fill="none" stroke="rgb(0,0,0)" stroke-width="30" stroke-linejoin="round" d="M 1278,2059 L 1428,2059"/>
 <path fill="none" stroke="rgb(0,0,0)" stroke-width="30" stroke-linejoin="round" d="M 1278,2059 L 1428,2059"/>
 <path fill="none" stroke="rgb(0,0,0)" stroke-width="30" stroke-linejoin="round" d="M 1278,1092 L 1428,1092"/>
 <path fill="none" stroke="rgb(0,0,0)" stroke-width="30" stroke-linejoin="round" d="M 1278,1092 L 1428,1092"/>
 <path fill="none" stroke="rgb(0,0,0)" stroke-width="30" stroke-linejoin="round" d="M 1428,10761 L 1428,1092"/>
 <path fill="none" stroke="rgb(0,0,0)" stroke-width="30" stroke-linejoin="round" d="M 14959,10761 L 14809,10761"/>
 <path fill="none" stroke="rgb(0,0,0)" stroke-width="30" stroke-linejoin="round" d="M 14959,10761 L 14809,10761"/>
 <path fill="none" stroke="rgb(0,0,0)" stroke-width="30" stroke-linejoin="round" d="M 14959,9794 L 14809,9794"/>
 <path fill="none" stroke="rgb(0,0,0)" stroke-width="30" stroke-linejoin="round" d="M 14959,9794 L 14809,9794"/>
 <path fill="none" stroke="rgb(0,0,0)" stroke-width="30" stroke-linejoin="round" d="M 14959,8827 L 14809,8827"/>
 <path fill="none" stroke="rgb(0,0,0)" stroke-width="30" stroke-linejoin="round" d="M 14959,8827 L 14809,8827"/>
 <path fill="none" stroke="rgb(0,0,0)" stroke-width="30" stroke-linejoin="round" d="M 14959,7860 L 14809,7860"/>
 <path fill="none" stroke="rgb(0,0,0)" stroke-width="30" stroke-linejoin="round" d="M 14959,7860 L 14809,7860"/>
 <path fill="none" stroke="rgb(0,0,0)" stroke-width="30" stroke-linejoin="round" d="M 14959,6893 L 14809,6893"/>
 <path fill="none" stroke="rgb(0,0,0)" stroke-width="30" stroke-linejoin="round" d="M 14959,6893 L 14809,6893"/>
 <path fill="none" stroke="rgb(0,0,0)" stroke-width="30" stroke-linejoin="round" d="M 14959,5927 L 14809,5927"/>
 <path fill="none" stroke="rgb(0,0,0)" stroke-width="30" stroke-linejoin="round" d="M 14959,5927 L 14809,5927"/>
 <path fill="none" stroke="rgb(0,0,0)" stroke-width="30" stroke-linejoin="round" d="M 14959,4959 L 14809,4959"/>
 <path fill="none" stroke="rgb(0,0,0)" stroke-width="30" stroke-linejoin="round" d="M 14959,4959 L 14809,4959"/>
 <path fill="none" stroke="rgb(0,0,0)" stroke-width="30" stroke-linejoin="round" d="M 14959,3992 L 14809,3992"/>
 <path fill="none" stroke="rgb(0,0,0)" stroke-width="30" stroke-linejoin="round" d="M 14959,3992 L 14809,3992"/>
 <path fill="none" stroke="rgb(0,0,0)" stroke-width="30" stroke-linejoin="round" d="M 14959,3026 L 14809,3026"/>
 <path fill="none" stroke="rgb(0,0,0)" stroke-width="30" stroke-linejoin="round" d="M 14959,3026 L 14809,3026"/>
 <path fill="none" stroke="rgb(0,0,0)" stroke-width="30" stroke-linejoin="round" d="M 14959,2059 L 14809,2059"/>
 <path fill="none" stroke="rgb(0,0,0)" stroke-width="30" stroke-linejoin="round" d="M 14959,2059 L 14809,2059"/>
 <path fill="none" stroke="rgb(0,0,0)" stroke-width="30" stroke-linejoin="round" d="M 14959,1092 L 14809,1092"/>
 <path fill="none" stroke="rgb(0,0,0)" stroke-width="30" stroke-linejoin="round" d="M 14959,1092 L 14809,1092"/>
 <path fill="none" stroke="rgb(0,0,0)" stroke-width="30" stroke-linejoin="round" d="M 14809,10761 L 14809,1092"/>
 <path fill="rgb(0,69,134)" stroke="none" d="M 1428,9454 L 1547,9499 1666,9450 1786,9420 1905,9489 2025,9466 2144,9448 2264,9463 2383,9459 2503,9445 2622,9434 2742,9445 2861,9476 2981,9476 3100,9493 3220,9488 3339,9497 3459,9496 3578,9505 3698,9512 3817,9520 3937,9552 4056,9530 4176,9556 4295,9575 4415,9585 4534,9597 4654,9582 4773,9586 4892,9580 5012,9554 5131,9527 5251,9558 5370,9565 5490,9559 5609,9588 5729,9611 5848,9642 5968,9694 6087,9660 6207,9622 6326,9648 6446,9643 6565,9669 6685,9740 6804,9722 6924,9708 7043,9712 7163,9742 7282,9790 7402,9801 7521,9803 7641,9849 7760,9895 7880,9880 7999,9894 8119,9903 8237,9913 8356,9939 8476,9947 8595,9979 8715,10063 8834,10042 8954,10039 9073,10047 9193,10031 9312,10015 9432,10048 9551,10073 9671,10111 9790,10109 9910,10095 10029,10112 10149,10153 10268,10146 10388,10138 10507,10151 10627,10131 10746,10093 10866,10061 10985,10046 11105,10085 11224,10063 11344,10109 11463,10145 11582,10160 11702,10200 11821,10200 11941,10202 12060,10210 12180,10231 12299,10237 12419,10257 12538,10272 12658,10271 12777,10274 12897,10319 13016,10354 13136,10371 13255,10350 13375,10371 13494,10394 13614,10398 13733,10405 13853,10422 13972,10417 14092,10427 14211,10438 14331,10457 14450,10486 14570,10496 14689,10483 14809,10486 14809,10761 1428,10761 1428,9454 Z"/>
 <path fill="none" stroke="rgb(0,0,0)" stroke-linejoin="round" d="M 1428,9454 L 1547,9499 1666,9450 1786,9420 1905,9489 2025,9466 2144,9448 2264,9463 2383,9459 2503,9445 2622,9434 2742,9445 2861,9476 2981,9476 3100,9493 3220,9488 3339,9497 3459,9496 3578,9505 3698,9512 3817,9520 3937,9552 4056,9530 4176,9556 4295,9575 4415,9585 4534,9597 4654,9582 4773,9586 4892,9580 5012,9554 5131,9527 5251,9558 5370,9565 5490,9559 5609,9588 5729,9611 5848,9642 5968,9694 6087,9660 6207,9622 6326,9648 6446,9643 6565,9669 6685,9740 6804,9722 6924,9708 7043,9712 7163,9742 7282,9790 7402,9801 7521,9803 7641,9849 7760,9895 7880,9880 7999,9894 8119,9903 8237,9913 8356,9939 8476,9947 8595,9979 8715,10063 8834,10042 8954,10039 9073,10047 9193,10031 9312,10015 9432,10048 9551,10073 9671,10111 9790,10109 9910,10095 10029,10112 10149,10153 10268,10146 10388,10138 10507,10151 10627,10131 10746,10093 10866,10061 10985,10046 11105,10085 11224,10063 11344,10109 11463,10145 11582,10160 11702,10200 11821,10200 11941,10202 12060,10210 12180,10231 12299,10237 12419,10257 12538,10272 12658,10271 12777,10274 12897,10319 13016,10354 13136,10371 13255,10350 13375,10371 13494,10394 13614,10398 13733,10405 13853,10422 13972,10417 14092,10427 14211,10438 14331,10457 14450,10486 14570,10496 14689,10483 14809,10486 14809,10761 1428,10761 1428,9454 Z"/>
 <path fill="rgb(255,66,14)" stroke="none" d="M 1428,3687 L 1547,3793 1666,3927 1786,3993 1905,4124 2025,4074 2144,4255 2264,4373 2383,4428 2503,4537 2622,4630 2742,4679 2861,4862 2981,4973 3100,5131 3220,5165 3339,5242 3459,5317 3578,5378 3698,5462 3817,5535 3937,5639 4056,5707 4176,5773 4295,5912 4415,6016 4534,6214 4654,6254 4773,6352 4892,6431 5012,6422 5131,6428 5251,6520 5370,6629 5490,6664 5609,6727 5729,6754 5848,6856 5968,7017 6087,6990 6207,6988 6326,7074 6446,7101 6565,7169 6685,7293 6804,7346 6924,7378 7043,7511 7163,7479 7282,7420 7402,7465 7521,7532 7641,7596 7760,7595 7880,7675 7999,7798 8119,7845 8237,7887 8356,7868 8476,7952 8595,7968 8715,7891 8834,7973 8954,7878 9073,7935 9193,7981 9312,8001 9432,8023 9551,8026 9671,8214 9790,8256 9910,8324 10029,8341 10149,8386 10268,8385 10388,8431 10507,8482 10627,8494 10746,8511 10866,8482 10985,8314 11105,8473 11224,8530 11344,8607 11463,8651 11582,8668 11702,8588 11821,8588 11941,8807 12060,8881 12180,8920 12299,8950 12419,8976 12538,9008 12658,9101 12777,9108 12897,9159 13016,9173 13136,9230 13255,9263 13375,9325 13494,9273 13614,9324 13733,9385 13853,9383 13972,9469 14092,9525 14211,9489 14331,9561 14450,9516 14570,9541 14689,9543 14809,9535 14809,10486 14689,10483 14570,10496 14450,10486 14331,10457 14211,10438 14092,10427 13972,10417 13853,10422 13733,10405 13614,10398 13494,10394 13375,10371 13255,10350 13136,10371 13016,10354 12897,10319 12777,10274 12658,10271 12538,10272 12419,10257 12299,10237 12180,10231 12060,10210 11941,10202 11821,10200 11702,10200 11582,10160 11463,10145 11344,10109 11224,10063 11105,10085 10985,10046 10866,10061 10746,10093 10627,10131 10507,10151 10388,10138 10268,10146 10149,10153 10029,10112 9910,10095 9790,10109 9671,10111 9551,10073 9432,10048 9312,10015 9193,10031 9073,10047 8954,10039 8834,10042 8715,10063 8595,9979 8476,9947 8356,9939 8237,9913 8119,9903 7999,9894 7880,9880 7760,9895 7641,9849 7521,9803 7402,9801 7282,9790 7163,9742 7043,9712 6924,9708 6804,9722 6685,9740 6565,9669 6446,9643 6326,9648 6207,9622 6087,9660 5968,9694 5848,9642 5729,9611 5609,9588 5490,9559 5370,9565 5251,9558 5131,9527 5012,9554 4892,9580 4773,9586 4654,9582 4534,9597 4415,9585 4295,9575 4176,9556 4056,9530 3937,9552 3817,9520 3698,9512 3578,9505 3459,9496 3339,9497 3220,9488 3100,9493 2981,9476 2861,9476 2742,9445 2622,9434 2503,9445 2383,9459 2264,9463 2144,9448 2025,9466 1905,9489 1786,9420 1666,9450 1547,9499 1428,9454 1428,3687 Z"/>
 <path fill="none" stroke="rgb(0,0,0)" stroke-linejoin="round" d="M 1428,3687 L 1547,3793 1666,3927 1786,3993 1905,4124 2025,4074 2144,4255 2264,4373 2383,4428 2503,4537 2622,4630 2742,4679 2861,4862 2981,4973 3100,5131 3220,5165 3339,5242 3459,5317 3578,5378 3698,5462 3817,5535 3937,5639 4056,5707 4176,5773 4295,5912 4415,6016 4534,6214 4654,6254 4773,6352 4892,6431 5012,6422 5131,6428 5251,6520 5370,6629 5490,6664 5609,6727 5729,6754 5848,6856 5968,7017 6087,6990 6207,6988 6326,7074 6446,7101 6565,7169 6685,7293 6804,7346 6924,7378 7043,7511 7163,7479 7282,7420 7402,7465 7521,7532 7641,7596 7760,7595 7880,7675 7999,7798 8119,7845 8237,7887 8356,7868 8476,7952 8595,7968 8715,7891 8834,7973 8954,7878 9073,7935 9193,7981 9312,8001 9432,8023 9551,8026 9671,8214 9790,8256 9910,8324 10029,8341 10149,8386 10268,8385 10388,8431 10507,8482 10627,8494 10746,8511 10866,8482 10985,8314 11105,8473 11224,8530 11344,8607 11463,8651 11582,8668 11702,8588 11821,8588 11941,8807 12060,8881 12180,8920 12299,8950 12419,8976 12538,9008 12658,9101 12777,9108 12897,9159 13016,9173 13136,9230 13255,9263 13375,9325 13494,9273 13614,9324 13733,9385 13853,9383 13972,9469 14092,9525 14211,9489 14331,9561 14450,9516 14570,9541 14689,9543 14809,9535 14809,10486 14689,10483 14570,10496 14450,10486 14331,10457 14211,10438 14092,10427 13972,10417 13853,10422 13733,10405 13614,10398 13494,10394 13375,10371 13255,10350 13136,10371 13016,10354 12897,10319 12777,10274 12658,10271 12538,10272 12419,10257 12299,10237 12180,10231 12060,10210 11941,10202 11821,10200 11702,10200 11582,10160 11463,10145 11344,10109 11224,10063 11105,10085 10985,10046 10866,10061 10746,10093 10627,10131 10507,10151 10388,10138 10268,10146 10149,10153 10029,10112 9910,10095 9790,10109 9671,10111 9551,10073 9432,10048 9312,10015 9193,10031 9073,10047 8954,10039 8834,10042 8715,10063 8595,9979 8476,9947 8356,9939 8237,9913 8119,9903 7999,9894 7880,9880 7760,9895 7641,9849 7521,9803 7402,9801 7282,9790 7163,9742 7043,9712 6924,9708 6804,9722 6685,9740 6565,9669 6446,9643 6326,9648 6207,9622 6087,9660 5968,9694 5848,9642 5729,9611 5609,9588 5490,9559 5370,9565 5251,9558 5131,9527 5012,9554 4892,9580 4773,9586 4654,9582 4534,9597 4415,9585 4295,9575 4176,9556 4056,9530 3937,9552 3817,9520 3698,9512 3578,9505 3459,9496 3339,9497 3220,9488 3100,9493 2981,9476 2861,9476 2742,9445 2622,9434 2503,9445 2383,9459 2264,9463 2144,9448 2025,9466 1905,9489 1786,9420 1666,9450 1547,9499 1428,9454 1428,3687 Z"/>
 <path fill="rgb(255,211,32)" stroke="none" d="M 1428,1356 L 1547,1364 1666,1360 1786,1367 1905,1370 2025,1371 2144,1377 2264,1384 2383,1386 2503,1396 2622,1401 2742,1418 2861,1436 2981,1470 3100,1513 3220,1551 3339,1589 3459,1647 3578,1681 3698,1734 3817,1776 3937,1862 4056,1934 4176,2012 4295,2114 4415,2248 4534,2441 4654,2552 4773,2673 4892,2778 5012,2849 5131,2925 5251,3039 5370,3165 5490,3242 5609,3345 5729,3414 5848,3520 5968,3688 6087,3715 6207,3760 6326,3840 6446,3899 6565,4009 6685,4121 6804,4211 6924,4252 7043,4356 7163,4401 7282,4454 7402,4528 7521,4584 7641,4674 7760,4705 7880,4800 7999,4899 8119,4912 8237,4961 8356,5005 8476,5147 8595,5192 8715,5223 8834,5340 8954,5404 9073,5426 9193,5453 9312,5477 9432,5571 9551,5621 9671,5840 9790,5876 9910,5910 10029,5960 10149,6041 10268,6073 10388,6142 10507,6198 10627,6241 10746,6247 10866,6226 10985,6179 11105,6362 11224,6531 11344,6643 11463,6696 11582,6752 11702,6726 11821,6726 11941,6878 12060,6988 12180,7010 12299,7098 12419,7174 12538,7224 12658,7372 12777,7376 12897,7438 13016,7508 13136,7594 13255,7611 13375,7732 13494,7696 13614,7780 13733,7901 13853,7975 13972,8162 14092,8224 14211,8245 14331,8334 14450,8343 14570,8362 14689,8356 14809,8373 14809,9535 14689,9543 14570,9541 14450,9516 14331,9561 14211,9489 14092,9525 13972,9469 13853,9383 13733,9385 13614,9324 13494,9273 13375,9325 13255,9263 13136,9230 13016,9173 12897,9159 12777,9108 12658,9101 12538,9008 12419,8976 12299,8950 12180,8920 12060,8881 11941,8807 11821,8588 11702,8588 11582,8668 11463,8651 11344,8607 11224,8530 11105,8473 10985,8314 10866,8482 10746,8511 10627,8494 10507,8482 10388,8431 10268,8385 10149,8386 10029,8341 9910,8324 9790,8256 9671,8214 9551,8026 9432,8023 9312,8001 9193,7981 9073,7935 8954,7878 8834,7973 8715,7891 8595,7968 8476,7952 8356,7868 8237,7887 8119,7845 7999,7798 7880,7675 7760,7595 7641,7596 7521,7532 7402,7465 7282,7420 7163,7479 7043,7511 6924,7378 6804,7346 6685,7293 6565,7169 6446,7101 6326,7074 6207,6988 6087,6990 5968,7017 5848,6856 5729,6754 5609,6727 5490,6664 5370,6629 5251,6520 5131,6428 5012,6422 4892,6431 4773,6352 4654,6254 4534,6214 4415,6016 4295,5912 4176,5773 4056,5707 3937,5639 3817,5535 3698,5462 3578,5378 3459,5317 3339,5242 3220,5165 3100,5131 2981,4973 2861,4862 2742,4679 2622,4630 2503,4537 2383,4428 2264,4373 2144,4255 2025,4074 1905,4124 1786,3993 1666,3927 1547,3793 1428,3687 1428,1356 Z"/>
 <path fill="none" stroke="rgb(0,0,0)" stroke-linejoin="round" d="M 1428,1356 L 1547,1364 1666,1360 1786,1367 1905,1370 2025,1371 2144,1377 2264,1384 2383,1386 2503,1396 2622,1401 2742,1418 2861,1436 2981,1470 3100,1513 3220,1551 3339,1589 3459,1647 3578,1681 3698,1734 3817,1776 3937,1862 4056,1934 4176,2012 4295,2114 4415,2248 4534,2441 4654,2552 4773,2673 4892,2778 5012,2849 5131,2925 5251,3039 5370,3165 5490,3242 5609,3345 5729,3414 5848,3520 5968,3688 6087,3715 6207,3760 6326,3840 6446,3899 6565,4009 6685,4121 6804,4211 6924,4252 7043,4356 7163,4401 7282,4454 7402,4528 7521,4584 7641,4674 7760,4705 7880,4800 7999,4899 8119,4912 8237,4961 8356,5005 8476,5147 8595,5192 8715,5223 8834,5340 8954,5404 9073,5426 9193,5453 9312,5477 9432,5571 9551,5621 9671,5840 9790,5876 9910,5910 10029,5960 10149,6041 10268,6073 10388,6142 10507,6198 10627,6241 10746,6247 10866,6226 10985,6179 11105,6362 11224,6531 11344,6643 11463,6696 11582,6752 11702,6726 11821,6726 11941,6878 12060,6988 12180,7010 12299,7098 12419,7174 12538,7224 12658,7372 12777,7376 12897,7438 13016,7508 13136,7594 13255,7611 13375,7732 13494,7696 13614,7780 13733,7901 13853,7975 13972,8162 14092,8224 14211,8245 14331,8334 14450,8343 14570,8362 14689,8356 14809,8373 14809,9535 14689,9543 14570,9541 14450,9516 14331,9561 14211,9489 14092,9525 13972,9469 13853,9383 13733,9385 13614,9324 13494,9273 13375,9325 13255,9263 13136,9230 13016,9173 12897,9159 12777,9108 12658,9101 12538,9008 12419,8976 12299,8950 12180,8920 12060,8881 11941,8807 11821,8588 11702,8588 11582,8668 11463,8651 11344,8607 11224,8530 11105,8473 10985,8314 10866,8482 10746,8511 10627,8494 10507,8482 10388,8431 10268,8385 10149,8386 10029,8341 9910,8324 9790,8256 9671,8214 9551,8026 9432,8023 9312,8001 9193,7981 9073,7935 8954,7878 8834,7973 8715,7891 8595,7968 8476,7952 8356,7868 8237,7887 8119,7845 7999,7798 7880,7675 7760,7595 7641,7596 7521,7532 7402,7465 7282,7420 7163,7479 7043,7511 6924,7378 6804,7346 6685,7293 6565,7169 6446,7101 6326,7074 6207,6988 6087,6990 5968,7017 5848,6856 5729,6754 5609,6727 5490,6664 5370,6629 5251,6520 5131,6428 5012,6422 4892,6431 4773,6352 4654,6254 4534,6214 4415,6016 4295,5912 4176,5773 4056,5707 3937,5639 3817,5535 3698,5462 3578,5378 3459,5317 3339,5242 3220,5165 3100,5131 2981,4973 2861,4862 2742,4679 2622,4630 2503,4537 2383,4428 2264,4373 2144,4255 2025,4074 1905,4124 1786,3993 1666,3927 1547,3793 1428,3687 1428,1356 Z"/>
 <path fill="rgb(87,157,28)" stroke="none" d="M 1428,1127 L 1547,1125 1666,1121 1786,1125 1905,1123 2025,1128 2144,1128 2264,1128 2383,1124 2503,1130 2622,1132 2742,1136 2861,1131 2981,1139 3100,1142 3220,1149 3339,1152 3459,1164 3578,1171 3698,1179 3817,1172 3937,1182 4056,1193 4176,1206 4295,1215 4415,1222 4534,1233 4654,1248 4773,1258 4892,1275 5012,1274 5131,1281 5251,1305 5370,1330 5490,1342 5609,1347 5729,1345 5848,1362 5968,1373 6087,1397 6207,1390 6326,1411 6446,1428 6565,1446 6685,1476 6804,1515 6924,1513 7043,1518 7163,1529 7282,1549 7402,1559 7521,1571 7641,1592 7760,1594 7880,1623 7999,1625 8119,1619 8237,1599 8356,1591 8476,1605 8595,1583 8715,1580 8834,1577 8954,1600 9073,1554 9193,1562 9312,1579 9432,1592 9551,1625 9671,1707 9790,1689 9910,1651 10029,1587 10149,1600 10268,1606 10388,1597 10507,1576 10627,1583 10746,1630 10866,1574 10985,1558 11105,1531 11224,1560 11344,1586 11463,1589 11582,1585 11702,1576 11821,1576 11941,1625 12060,1629 12180,1619 12299,1596 12419,1574 12538,1555 12658,1550 12777,1560 12897,1548 13016,1558 13136,1576 13255,1619 13375,1619 13494,1614 13614,1628 13733,1648 13853,1645 13972,1660 14092,1696 14211,1701 14331,1723 14450,1675 14570,1627 14689,1613 14809,1597 14809,8373 14689,8356 14570,8362 14450,8343 14331,8334 14211,8245 14092,8224 13972,8162 13853,7975 13733,7901 13614,7780 13494,7696 13375,7732 13255,7611 13136,7594 13016,7508 12897,7438 12777,7376 12658,7372 12538,7224 12419,7174 12299,7098 12180,7010 12060,6988 11941,6878 11821,6726 11702,6726 11582,6752 11463,6696 11344,6643 11224,6531 11105,6362 10985,6179 10866,6226 10746,6247 10627,6241 10507,6198 10388,6142 10268,6073 10149,6041 10029,5960 9910,5910 9790,5876 9671,5840 9551,5621 9432,5571 9312,5477 9193,5453 9073,5426 8954,5404 8834,5340 8715,5223 8595,5192 8476,5147 8356,5005 8237,4961 8119,4912 7999,4899 7880,4800 7760,4705 7641,4674 7521,4584 7402,4528 7282,4454 7163,4401 7043,4356 6924,4252 6804,4211 6685,4121 6565,4009 6446,3899 6326,3840 6207,3760 6087,3715 5968,3688 5848,3520 5729,3414 5609,3345 5490,3242 5370,3165 5251,3039 5131,2925 5012,2849 4892,2778 4773,2673 4654,2552 4534,2441 4415,2248 4295,2114 4176,2012 4056,1934 3937,1862 3817,1776 3698,1734 3578,1681 3459,1647 3339,1589 3220,1551 3100,1513 2981,1470 2861,1436 2742,1418 2622,1401 2503,1396 2383,1386 2264,1384 2144,1377 2025,1371 1905,1370 1786,1367 1666,1360 1547,1364 1428,1356 1428,1127 Z"/>
 <path fill="none" stroke="rgb(0,0,0)" stroke-linejoin="round" d="M 1428,1127 L 1547,1125 1666,1121 1786,1125 1905,1123 2025,1128 2144,1128 2264,1128 2383,1124 2503,1130 2622,1132 2742,1136 2861,1131 2981,1139 3100,1142 3220,1149 3339,1152 3459,1164 3578,1171 3698,1179 3817,1172 3937,1182 4056,1193 4176,1206 4295,1215 4415,1222 4534,1233 4654,1248 4773,1258 4892,1275 5012,1274 5131,1281 5251,1305 5370,1330 5490,1342 5609,1347 5729,1345 5848,1362 5968,1373 6087,1397 6207,1390 6326,1411 6446,1428 6565,1446 6685,1476 6804,1515 6924,1513 7043,1518 7163,1529 7282,1549 7402,1559 7521,1571 7641,1592 7760,1594 7880,1623 7999,1625 8119,1619 8237,1599 8356,1591 8476,1605 8595,1583 8715,1580 8834,1577 8954,1600 9073,1554 9193,1562 9312,1579 9432,1592 9551,1625 9671,1707 9790,1689 9910,1651 10029,1587 10149,1600 10268,1606 10388,1597 10507,1576 10627,1583 10746,1630 10866,1574 10985,1558 11105,1531 11224,1560 11344,1586 11463,1589 11582,1585 11702,1576 11821,1576 11941,1625 12060,1629 12180,1619 12299,1596 12419,1574 12538,1555 12658,1550 12777,1560 12897,1548 13016,1558 13136,1576 13255,1619 13375,1619 13494,1614 13614,1628 13733,1648 13853,1645 13972,1660 14092,1696 14211,1701 14331,1723 14450,1675 14570,1627 14689,1613 14809,1597 14809,8373 14689,8356 14570,8362 14450,8343 14331,8334 14211,8245 14092,8224 13972,8162 13853,7975 13733,7901 13614,7780 13494,7696 13375,7732 13255,7611 13136,7594 13016,7508 12897,7438 12777,7376 12658,7372 12538,7224 12419,7174 12299,7098 12180,7010 12060,6988 11941,6878 11821,6726 11702,6726 11582,6752 11463,6696 11344,6643 11224,6531 11105,6362 10985,6179 10866,6226 10746,6247 10627,6241 10507,6198 10388,6142 10268,6073 10149,6041 10029,5960 9910,5910 9790,5876 9671,5840 9551,5621 9432,5571 9312,5477 9193,5453 9073,5426 8954,5404 8834,5340 8715,5223 8595,5192 8476,5147 8356,5005 8237,4961 8119,4912 7999,4899 7880,4800 7760,4705 7641,4674 7521,4584 7402,4528 7282,4454 7163,4401 7043,4356 6924,4252 6804,4211 6685,4121 6565,4009 6446,3899 6326,3840 6207,3760 6087,3715 5968,3688 5848,3520 5729,3414 5609,3345 5490,3242 5370,3165 5251,3039 5131,2925 5012,2849 4892,2778 4773,2673 4654,2552 4534,2441 4415,2248 4295,2114 4176,2012 4056,1934 3937,1862 3817,1776 3698,1734 3578,1681 3459,1647 3339,1589 3220,1551 3100,1513 2981,1470 2861,1436 2742,1418 2622,1401 2503,1396 2383,1386 2264,1384 2144,1377 2025,1371 1905,1370 1786,1367 1666,1360 1547,1364 1428,1356 1428,1127 Z"/>
 <path fill="rgb(126,0,33)" stroke="none" d="M 1428,1092 L 1547,1092 1666,1092 1786,1092 1905,1092 2025,1092 2144,1092 2264,1092 2383,1092 2503,1092 2622,1092 2742,1092 2861,1092 2981,1092 3100,1092 3220,1092 3339,1092 3459,1092 3578,1092 3698,1092 3817,1092 3937,1092 4056,1092 4176,1092 4295,1092 4415,1092 4534,1092 4654,1092 4773,1092 4892,1092 5012,1092 5131,1092 5251,1092 5370,1092 5490,1092 5609,1092 5729,1092 5848,1092 5968,1092 6087,1092 6207,1092 6326,1092 6446,1092 6565,1092 6685,1092 6804,1092 6924,1092 7043,1092 7163,1092 7282,1092 7402,1092 7521,1092 7641,1092 7760,1092 7880,1092 7999,1092 8119,1092 8237,1092 8356,1092 8476,1092 8595,1092 8715,1092 8834,1092 8954,1092 9073,1092 9193,1092 9312,1092 9432,1092 9551,1092 9671,1092 9790,1092 9910,1092 10029,1092 10149,1092 10268,1092 10388,1092 10507,1092 10627,1092 10746,1092 10866,1092 10985,1092 11105,1092 11224,1092 11344,1092 11463,1092 11582,1092 11702,1092 11821,1092 11941,1092 12060,1092 12180,1092 12299,1092 12419,1092 12538,1092 12658,1092 12777,1092 12897,1092 13016,1092 13136,1092 13255,1092 13375,1092 13494,1092 13614,1092 13733,1092 13853,1092 13972,1092 14092,1092 14211,1092 14331,1092 14450,1092 14570,1092 14689,1092 14809,1092 14809,1597 14689,1613 14570,1627 14450,1675 14331,1723 14211,1701 14092,1696 13972,1660 13853,1645 13733,1648 13614,1628 13494,1614 13375,1619 13255,1619 13136,1576 13016,1558 12897,1548 12777,1560 12658,1550 12538,1555 12419,1574 12299,1596 12180,1619 12060,1629 11941,1625 11821,1576 11702,1576 11582,1585 11463,1589 11344,1586 11224,1560 11105,1531 10985,1558 10866,1574 10746,1630 10627,1583 10507,1576 10388,1597 10268,1606 10149,1600 10029,1587 9910,1651 9790,1689 9671,1707 9551,1625 9432,1592 9312,1579 9193,1562 9073,1554 8954,1600 8834,1577 8715,1580 8595,1583 8476,1605 8356,1591 8237,1599 8119,1619 7999,1625 7880,1623 7760,1594 7641,1592 7521,1571 7402,1559 7282,1549 7163,1529 7043,1518 6924,1513 6804,1515 6685,1476 6565,1446 6446,1428 6326,1411 6207,1390 6087,1397 5968,1373 5848,1362 5729,1345 5609,1347 5490,1342 5370,1330 5251,1305 5131,1281 5012,1274 4892,1275 4773,1258 4654,1248 4534,1233 4415,1222 4295,1215 4176,1206 4056,1193 3937,1182 3817,1172 3698,1179 3578,1171 3459,1164 3339,1152 3220,1149 3100,1142 2981,1139 2861,1131 2742,1136 2622,1132 2503,1130 2383,1124 2264,1128 2144,1128 2025,1128 1905,1123 1786,1125 1666,1121 1547,1125 1428,1127 1428,1092 Z"/>
 <path fill="none" stroke="rgb(0,0,0)" stroke-linejoin="round" d="M 1428,1092 L 1547,1092 1666,1092 1786,1092 1905,1092 2025,1092 2144,1092 2264,1092 2383,1092 2503,1092 2622,1092 2742,1092 2861,1092 2981,1092 3100,1092 3220,1092 3339,1092 3459,1092 3578,1092 3698,1092 3817,1092 3937,1092 4056,1092 4176,1092 4295,1092 4415,1092 4534,1092 4654,1092 4773,1092 4892,1092 5012,1092 5131,1092 5251,1092 5370,1092 5490,1092 5609,1092 5729,1092 5848,1092 5968,1092 6087,1092 6207,1092 6326,1092 6446,1092 6565,1092 6685,1092 6804,1092 6924,1092 7043,1092 7163,1092 7282,1092 7402,1092 7521,1092 7641,1092 7760,1092 7880,1092 7999,1092 8119,1092 8237,1092 8356,1092 8476,1092 8595,1092 8715,1092 8834,1092 8954,1092 9073,1092 9193,1092 9312,1092 9432,1092 9551,1092 9671,1092 9790,1092 9910,1092 10029,1092 10149,1092 10268,1092 10388,1092 10507,1092 10627,1092 10746,1092 10866,1092 10985,1092 11105,1092 11224,1092 11344,1092 11463,1092 11582,1092 11702,1092 11821,1092 11941,1092 12060,1092 12180,1092 12299,1092 12419,1092 12538,1092 12658,1092 12777,1092 12897,1092 13016,1092 13136,1092 13255,1092 13375,1092 13494,1092 13614,1092 13733,1092 13853,1092 13972,1092 14092,1092 14211,1092 14331,1092 14450,1092 14570,1092 14689,1092 14809,1092 14809,1597 14689,1613 14570,1627 14450,1675 14331,1723 14211,1701 14092,1696 13972,1660 13853,1645 13733,1648 13614,1628 13494,1614 13375,1619 13255,1619 13136,1576 13016,1558 12897,1548 12777,1560 12658,1550 12538,1555 12419,1574 12299,1596 12180,1619 12060,1629 11941,1625 11821,1576 11702,1576 11582,1585 11463,1589 11344,1586 11224,1560 11105,1531 10985,1558 10866,1574 10746,1630 10627,1583 10507,1576 10388,1597 10268,1606 10149,1600 10029,1587 9910,1651 9790,1689 9671,1707 9551,1625 9432,1592 9312,1579 9193,1562 9073,1554 8954,1600 8834,1577 8715,1580 8595,1583 8476,1605 8356,1591 8237,1599 8119,1619 7999,1625 7880,1623 7760,1594 7641,1592 7521,1571 7402,1559 7282,1549 7163,1529 7043,1518 6924,1513 6804,1515 6685,1476 6565,1446 6446,1428 6326,1411 6207,1390 6087,1397 5968,1373 5848,1362 5729,1345 5609,1347 5490,1342 5370,1330 5251,1305 5131,1281 5012,1274 4892,1275 4773,1258 4654,1248 4534,1233 4415,1222 4295,1215 4176,1206 4056,1193 3937,1182 3817,1172 3698,1179 3578,1171 3459,1164 3339,1152 3220,1149 3100,1142 2981,1139 2861,1131 2742,1136 2622,1132 2503,1130 2383,1124 2264,1128 2144,1128 2025,1128 1905,1123 1786,1125 1666,1121 1547,1125 1428,1127 1428,1092 Z"/>
 <text class="TextShape"><tspan class="TextParagraph" font-family="Arial, sans-serif" font-size="388px" font-weight="400"><tspan class="TextPosition" x="1242" y="11355"><tspan fill="rgb(0,0,0)" stroke="none">2008</tspan></tspan></tspan></text>
 <text class="TextShape"><tspan class="TextParagraph" font-family="Arial, sans-serif" font-size="388px" font-weight="400"><tspan class="TextPosition" x="2676" y="11355"><tspan fill="rgb(0,0,0)" stroke="none">2009</tspan></tspan></tspan></text>
 <text class="TextShape"><tspan class="TextParagraph" font-family="Arial, sans-serif" font-size="388px" font-weight="400"><tspan class="TextPosition" x="4110" y="11355"><tspan fill="rgb(0,0,0)" stroke="none">2010</tspan></tspan></tspan></text>
 <text class="TextShape"><tspan class="TextParagraph" font-family="Arial, sans-serif" font-size="388px" font-weight="400"><tspan class="TextPosition" x="5558" y="11355"><tspan fill="rgb(0,0,0)" stroke="none">2011</tspan></tspan></tspan></text>
 <text class="TextShape"><tspan class="TextParagraph" font-family="Arial, sans-serif" font-size="388px" font-weight="400"><tspan class="TextPosition" x="6978" y="11355"><tspan fill="rgb(0,0,0)" stroke="none">2012</tspan></tspan></tspan></text>
 <text class="TextShape"><tspan class="TextParagraph" font-family="Arial, sans-serif" font-size="388px" font-weight="400"><tspan class="TextPosition" x="8411" y="11355"><tspan fill="rgb(0,0,0)" stroke="none">2013</tspan></tspan></tspan></text>
 <text class="TextShape"><tspan class="TextParagraph" font-family="Arial, sans-serif" font-size="388px" font-weight="400"><tspan class="TextPosition" x="9845" y="11355"><tspan fill="rgb(0,0,0)" stroke="none">2014</tspan></tspan></tspan></text>
 <text class="TextShape"><tspan class="TextParagraph" font-family="Arial, sans-serif" font-size="388px" font-weight="400"><tspan class="TextPosition" x="11279" y="11355"><tspan fill="rgb(0,0,0)" stroke="none">2015</tspan></tspan></tspan></text>
 <text class="TextShape"><tspan class="TextParagraph" font-family="Arial, sans-serif" font-size="388px" font-weight="400"><tspan class="TextPosition" x="12713" y="11355"><tspan fill="rgb(0,0,0)" stroke="none">2016</tspan></tspan></tspan></text>
 <text class="TextShape"><tspan class="TextParagraph" font-family="Arial, sans-serif" font-size="388px" font-weight="400"><tspan class="TextPosition" x="14147" y="11355"><tspan fill="rgb(0,0,0)" stroke="none">2017</tspan></tspan></tspan></text>
 <text class="TextShape"><tspan class="TextParagraph" font-family="Arial, sans-serif" font-size="388px" font-weight="400"><tspan class="TextPosition" x="622" y="10895"><tspan fill="rgb(0,0,0)" stroke="none">0%</tspan></tspan></tspan></text>
 <text class="TextShape"><tspan class="TextParagraph" font-family="Arial, sans-serif" font-size="388px" font-weight="400"><tspan class="TextPosition" x="411" y="9928"><tspan fill="rgb(0,0,0)" stroke="none">10%</tspan></tspan></tspan></text>
 <text class="TextShape"><tspan class="TextParagraph" font-family="Arial, sans-serif" font-size="388px" font-weight="400"><tspan class="TextPosition" x="411" y="8961"><tspan fill="rgb(0,0,0)" stroke="none">20%</tspan></tspan></tspan></text>
 <text class="TextShape"><tspan class="TextParagraph" font-family="Arial, sans-serif" font-size="388px" font-weight="400"><tspan class="TextPosition" x="411" y="7994"><tspan fill="rgb(0,0,0)" stroke="none">30%</tspan></tspan></tspan></text>
 <text class="TextShape"><tspan class="TextParagraph" font-family="Arial, sans-serif" font-size="388px" font-weight="400"><tspan class="TextPosition" x="411" y="7027"><tspan fill="rgb(0,0,0)" stroke="none">40%</tspan></tspan></tspan></text>
 <text class="TextShape"><tspan class="TextParagraph" font-family="Arial, sans-serif" font-size="388px" font-weight="400"><tspan class="TextPosition" x="411" y="6060"><tspan fill="rgb(0,0,0)" stroke="none">50%</tspan></tspan></tspan></text>
 <text class="TextShape"><tspan class="TextParagraph" font-family="Arial, sans-serif" font-size="388px" font-weight="400"><tspan class="TextPosition" x="411" y="5092"><tspan fill="rgb(0,0,0)" stroke="none">60%</tspan></tspan></tspan></text>
 <text class="TextShape"><tspan class="TextParagraph" font-family="Arial, sans-serif" font-size="388px" font-weight="400"><tspan class="TextPosition" x="411" y="4125"><tspan fill="rgb(0,0,0)" stroke="none">70%</tspan></tspan></tspan></text>
 <text class="TextShape"><tspan class="TextParagraph" font-family="Arial, sans-serif" font-size="388px" font-weight="400"><tspan class="TextPosition" x="411" y="3159"><tspan fill="rgb(0,0,0)" stroke="none">80%</tspan></tspan></tspan></text>
 <text class="TextShape"><tspan class="TextParagraph" font-family="Arial, sans-serif" font-size="388px" font-weight="400"><tspan class="TextPosition" x="411" y="2192"><tspan fill="rgb(0,0,0)" stroke="none">90%</tspan></tspan></tspan></text>
 <text class="TextShape"><tspan class="TextParagraph" font-family="Arial, sans-serif" font-size="388px" font-weight="400"><tspan class="TextPosition" x="199" y="1225"><tspan fill="rgb(0,0,0)" stroke="none">100%</tspan></tspan></tspan></text>
 <text class="TextShape"><tspan class="TextParagraph" font-family="Arial, sans-serif" font-size="388px" font-weight="400"><tspan class="TextPosition" x="15059" y="10895"><tspan fill="rgb(0,0,0)" stroke="none">0%</tspan></tspan></tspan></text>
 <text class="TextShape"><tspan class="TextParagraph" font-family="Arial, sans-serif" font-size="388px" font-weight="400"><tspan class="TextPosition" x="15059" y="9928"><tspan fill="rgb(0,0,0)" stroke="none">10%</tspan></tspan></tspan></text>
 <text class="TextShape"><tspan class="TextParagraph" font-family="Arial, sans-serif" font-size="388px" font-weight="400"><tspan class="TextPosition" x="15059" y="8961"><tspan fill="rgb(0,0,0)" stroke="none">20%</tspan></tspan></tspan></text>
 <text class="TextShape"><tspan class="TextParagraph" font-family="Arial, sans-serif" font-size="388px" font-weight="400"><tspan class="TextPosition" x="15059" y="7994"><tspan fill="rgb(0,0,0)" stroke="none">30%</tspan></tspan></tspan></text>
 <text class="TextShape"><tspan class="TextParagraph" font-family="Arial, sans-serif" font-size="388px" font-weight="400"><tspan class="TextPosition" x="15059" y="7027"><tspan fill="rgb(0,0,0)" stroke="none">40%</tspan></tspan></tspan></text>
 <text class="TextShape"><tspan class="TextParagraph" font-family="Arial, sans-serif" font-size="388px" font-weight="400"><tspan class="TextPosition" x="15059" y="6060"><tspan fill="rgb(0,0,0)" stroke="none">50%</tspan></tspan></tspan></text>
 <text class="TextShape"><tspan class="TextParagraph" font-family="Arial, sans-serif" font-size="388px" font-weight="400"><tspan class="TextPosition" x="15059" y="5092"><tspan fill="rgb(0,0,0)" stroke="none">60%</tspan></tspan></tspan></text>
 <text class="TextShape"><tspan class="TextParagraph" font-family="Arial, sans-serif" font-size="388px" font-weight="400"><tspan class="TextPosition" x="15059" y="4125"><tspan fill="rgb(0,0,0)" stroke="none">70%</tspan></tspan></tspan></text>
 <text class="TextShape"><tspan class="TextParagraph" font-family="Arial, sans-serif" font-size="388px" font-weight="400"><tspan class="TextPosition" x="15059" y="3159"><tspan fill="rgb(0,0,0)" stroke="none">80%</tspan></tspan></tspan></text>
 <text class="TextShape"><tspan class="TextParagraph" font-family="Arial, sans-serif" font-size="388px" font-weight="400"><tspan class="TextPosition" x="15059" y="2192"><tspan fill="rgb(0,0,0)" stroke="none">90%</tspan></tspan></tspan></text>
 <text class="TextShape"><tspan class="TextParagraph" font-family="Arial, sans-serif" font-size="388px" font-weight="400"><tspan class="TextPosition" x="15059" y="1225"><tspan fill="rgb(0,0,0)" stroke="none">100%</tspan></tspan></tspan></text>
 <text class="TextShape"><tspan class="TextParagraph" font-family="Liberation Sans, sans-serif" font-size="635px" font-weight="400"><tspan class="TextPosition" x="4935" y="747"><tspan fill="rgb(0,0,0)" stroke="none">Relacin de aspecto</tspan></tspan></tspan></text>
 <path fill="rgb(0,69,134)" stroke="none" d="M 4882,11835 L 4745,11835 4745,11560 5020,11560 5020,11835 4882,11835 Z"/>
 <path fill="none" stroke="rgb(0,0,0)" stroke-linejoin="round" d="M 4882,11835 L 4745,11835 4745,11560 5020,11560 5020,11835 4882,11835 Z"/>
 <path fill="rgb(255,66,14)" stroke="none" d="M 6170,11835 L 6033,11835 6033,11560 6308,11560 6308,11835 6170,11835 Z"/>
 <path fill="none" stroke="rgb(0,0,0)" stroke-linejoin="round" d="M 6170,11835 L 6033,11835 6033,11560 6308,11560 6308,11835 6170,11835 Z"/>
 <path fill="rgb(255,211,32)" stroke="none" d="M 7458,11835 L 7321,11835 7321,11560 7596,11560 7596,11835 7458,11835 Z"/>
 <path fill="none" stroke="rgb(0,0,0)" stroke-linejoin="round" d="M 7458,11835 L 7321,11835 7321,11560 7596,11560 7596,11835 7458,11835 Z"/>
 <path fill="rgb(87,157,28)" stroke="none" d="M 8746,11835 L 8608,11835 8608,11560 8883,11560 8883,11835 8746,11835 Z"/>
 <path fill="none" stroke="rgb(0,0,0)" stroke-linejoin="round" d="M 8746,11835 L 8608,11835 8608,11560 8883,11560 8883,11835 8746,11835 Z"/>
 <path fill="rgb(126,0,33)" stroke="none" d="M 10272,11835 L 10134,11835 10134,11560 10409,11560 10409,11835 10272,11835 Z"/>
 <path fill="none" stroke="rgb(0,0,0)" stroke-linejoin="round" d="M 10272,11835 L 10134,11835 10134,11560 10409,11560 10409,11835 10272,11835 Z"/>
 <text class="TextShape"><tspan class="TextParagraph" font-family="Arial, sans-serif" font-size="459px" font-weight="400"><tspan class="TextPosition" x="5120" y="11856"><tspan fill="rgb(0,0,0)" stroke="none">5:4</tspan></tspan></tspan></text>
 <text class="TextShape"><tspan class="TextParagraph" font-family="Arial, sans-serif" font-size="459px" font-weight="400"><tspan class="TextPosition" x="6408" y="11856"><tspan fill="rgb(0,0,0)" stroke="none">4:3</tspan></tspan></tspan></text>
 <text class="TextShape"><tspan class="TextParagraph" font-family="Arial, sans-serif" font-size="459px" font-weight="400"><tspan class="TextPosition" x="7696" y="11856"><tspan fill="rgb(0,0,0)" stroke="none">8:5</tspan></tspan></tspan></text>
 <text class="TextShape"><tspan class="TextParagraph" font-family="Arial, sans-serif" font-size="459px" font-weight="400"><tspan class="TextPosition" x="8983" y="11856"><tspan fill="rgb(0,0,0)" stroke="none">16:9</tspan></tspan></tspan></text>
 <text class="TextShape"><tspan class="TextParagraph" font-family="Arial, sans-serif" font-size="459px" font-weight="400"><tspan class="TextPosition" x="10509" y="11856"><tspan fill="rgb(0,0,0)" stroke="none">Otros</tspan></tspan></tspan></text>
</svg>
