<?xml version="1.0" encoding="UTF-8"?>
<!DOCTYPE svg PUBLIC "-//W3C//DTD SVG 1.1//EN" "http://www.w3.org/Graphics/SVG/1.1/DTD/svg11.dtd">
<svg width="165mm" height="123mm" viewBox="0 0 16500 12300" version="1.1" xmlns="http://www.w3.org/2000/svg" stroke-width="28.222" stroke-linejoin="round" xml:space="preserve">
 <path fill="rgb(255,255,255)" stroke="none" d="M 8256,12341 L 24,12341 24,0 16487,0 16487,12341 8256,12341 Z"/>
 <path fill="none" stroke="rgb(179,179,179)" stroke-linejoin="round" d="M 8231,10559 L 1371,10559 1371,931 15090,931 15090,10559 8231,10559 Z"/>
 <path fill="none" stroke="rgb(179,179,179)" stroke-linejoin="round" d="M 15090,10558 L 1371,10558"/>
 <path fill="none" stroke="rgb(179,179,179)" stroke-linejoin="round" d="M 15090,9595 L 1371,9595"/>
 <path fill="none" stroke="rgb(179,179,179)" stroke-linejoin="round" d="M 15090,8632 L 1371,8632"/>
 <path fill="none" stroke="rgb(179,179,179)" stroke-linejoin="round" d="M 15090,7669 L 1371,7669"/>
 <path fill="none" stroke="rgb(179,179,179)" stroke-linejoin="round" d="M 15090,6706 L 1371,6706"/>
 <path fill="none" stroke="rgb(179,179,179)" stroke-linejoin="round" d="M 15090,5744 L 1371,5744"/>
 <path fill="none" stroke="rgb(179,179,179)" stroke-linejoin="round" d="M 15090,4781 L 1371,4781"/>
 <path fill="none" stroke="rgb(179,179,179)" stroke-linejoin="round" d="M 15090,3818 L 1371,3818"/>
 <path fill="none" stroke="rgb(179,179,179)" stroke-linejoin="round" d="M 15090,2855 L 1371,2855"/>
 <path fill="none" stroke="rgb(179,179,179)" stroke-linejoin="round" d="M 15090,1892 L 1371,1892"/>
 <path fill="none" stroke="rgb(179,179,179)" stroke-linejoin="round" d="M 15090,930 L 1371,930"/>
 <path fill="none" stroke="rgb(0,0,0)" stroke-linejoin="round" d="M 1371,10708 L 1371,10558"/>
 <path fill="none" stroke="rgb(0,0,0)" stroke-linejoin="round" d="M 1371,10708 L 1371,10558"/>
 <path fill="none" stroke="rgb(0,0,0)" stroke-linejoin="round" d="M 1491,10708 L 1491,10558"/>
 <path fill="none" stroke="rgb(0,0,0)" stroke-linejoin="round" d="M 1491,10708 L 1491,10558"/>
 <path fill="none" stroke="rgb(0,0,0)" stroke-linejoin="round" d="M 1611,10708 L 1611,10558"/>
 <path fill="none" stroke="rgb(0,0,0)" stroke-linejoin="round" d="M 1611,10708 L 1611,10558"/>
 <path fill="none" stroke="rgb(0,0,0)" stroke-linejoin="round" d="M 1732,10708 L 1732,10558"/>
 <path fill="none" stroke="rgb(0,0,0)" stroke-linejoin="round" d="M 1732,10708 L 1732,10558"/>
 <path fill="none" stroke="rgb(0,0,0)" stroke-linejoin="round" d="M 1852,10708 L 1852,10558"/>
 <path fill="none" stroke="rgb(0,0,0)" stroke-linejoin="round" d="M 1852,10708 L 1852,10558"/>
 <path fill="none" stroke="rgb(0,0,0)" stroke-linejoin="round" d="M 1972,10708 L 1972,10558"/>
 <path fill="none" stroke="rgb(0,0,0)" stroke-linejoin="round" d="M 1972,10708 L 1972,10558"/>
 <path fill="none" stroke="rgb(0,0,0)" stroke-linejoin="round" d="M 2093,10708 L 2093,10558"/>
 <path fill="none" stroke="rgb(0,0,0)" stroke-linejoin="round" d="M 2093,10708 L 2093,10558"/>
 <path fill="none" stroke="rgb(0,0,0)" stroke-linejoin="round" d="M 2213,10708 L 2213,10558"/>
 <path fill="none" stroke="rgb(0,0,0)" stroke-linejoin="round" d="M 2213,10708 L 2213,10558"/>
 <path fill="none" stroke="rgb(0,0,0)" stroke-linejoin="round" d="M 2333,10708 L 2333,10558"/>
 <path fill="none" stroke="rgb(0,0,0)" stroke-linejoin="round" d="M 2333,10708 L 2333,10558"/>
 <path fill="none" stroke="rgb(0,0,0)" stroke-linejoin="round" d="M 2454,10708 L 2454,10558"/>
 <path fill="none" stroke="rgb(0,0,0)" stroke-linejoin="round" d="M 2454,10708 L 2454,10558"/>
 <path fill="none" stroke="rgb(0,0,0)" stroke-linejoin="round" d="M 2574,10708 L 2574,10558"/>
 <path fill="none" stroke="rgb(0,0,0)" stroke-linejoin="round" d="M 2574,10708 L 2574,10558"/>
 <path fill="none" stroke="rgb(0,0,0)" stroke-linejoin="round" d="M 2694,10708 L 2694,10558"/>
 <path fill="none" stroke="rgb(0,0,0)" stroke-linejoin="round" d="M 2694,10708 L 2694,10558"/>
 <path fill="none" stroke="rgb(0,0,0)" stroke-linejoin="round" d="M 2815,10708 L 2815,10558"/>
 <path fill="none" stroke="rgb(0,0,0)" stroke-linejoin="round" d="M 2815,10708 L 2815,10558"/>
 <path fill="none" stroke="rgb(0,0,0)" stroke-linejoin="round" d="M 2935,10708 L 2935,10558"/>
 <path fill="none" stroke="rgb(0,0,0)" stroke-linejoin="round" d="M 2935,10708 L 2935,10558"/>
 <path fill="none" stroke="rgb(0,0,0)" stroke-linejoin="round" d="M 3055,10708 L 3055,10558"/>
 <path fill="none" stroke="rgb(0,0,0)" stroke-linejoin="round" d="M 3055,10708 L 3055,10558"/>
 <path fill="none" stroke="rgb(0,0,0)" stroke-linejoin="round" d="M 3176,10708 L 3176,10558"/>
 <path fill="none" stroke="rgb(0,0,0)" stroke-linejoin="round" d="M 3176,10708 L 3176,10558"/>
 <path fill="none" stroke="rgb(0,0,0)" stroke-linejoin="round" d="M 3296,10708 L 3296,10558"/>
 <path fill="none" stroke="rgb(0,0,0)" stroke-linejoin="round" d="M 3296,10708 L 3296,10558"/>
 <path fill="none" stroke="rgb(0,0,0)" stroke-linejoin="round" d="M 3416,10708 L 3416,10558"/>
 <path fill="none" stroke="rgb(0,0,0)" stroke-linejoin="round" d="M 3416,10708 L 3416,10558"/>
 <path fill="none" stroke="rgb(0,0,0)" stroke-linejoin="round" d="M 3537,10708 L 3537,10558"/>
 <path fill="none" stroke="rgb(0,0,0)" stroke-linejoin="round" d="M 3537,10708 L 3537,10558"/>
 <path fill="none" stroke="rgb(0,0,0)" stroke-linejoin="round" d="M 3657,10708 L 3657,10558"/>
 <path fill="none" stroke="rgb(0,0,0)" stroke-linejoin="round" d="M 3657,10708 L 3657,10558"/>
 <path fill="none" stroke="rgb(0,0,0)" stroke-linejoin="round" d="M 3778,10708 L 3778,10558"/>
 <path fill="none" stroke="rgb(0,0,0)" stroke-linejoin="round" d="M 3778,10708 L 3778,10558"/>
 <path fill="none" stroke="rgb(0,0,0)" stroke-linejoin="round" d="M 3898,10708 L 3898,10558"/>
 <path fill="none" stroke="rgb(0,0,0)" stroke-linejoin="round" d="M 3898,10708 L 3898,10558"/>
 <path fill="none" stroke="rgb(0,0,0)" stroke-linejoin="round" d="M 4018,10708 L 4018,10558"/>
 <path fill="none" stroke="rgb(0,0,0)" stroke-linejoin="round" d="M 4018,10708 L 4018,10558"/>
 <path fill="none" stroke="rgb(0,0,0)" stroke-linejoin="round" d="M 4139,10708 L 4139,10558"/>
 <path fill="none" stroke="rgb(0,0,0)" stroke-linejoin="round" d="M 4139,10708 L 4139,10558"/>
 <path fill="none" stroke="rgb(0,0,0)" stroke-linejoin="round" d="M 4259,10708 L 4259,10558"/>
 <path fill="none" stroke="rgb(0,0,0)" stroke-linejoin="round" d="M 4259,10708 L 4259,10558"/>
 <path fill="none" stroke="rgb(0,0,0)" stroke-linejoin="round" d="M 4379,10708 L 4379,10558"/>
 <path fill="none" stroke="rgb(0,0,0)" stroke-linejoin="round" d="M 4379,10708 L 4379,10558"/>
 <path fill="none" stroke="rgb(0,0,0)" stroke-linejoin="round" d="M 4500,10708 L 4500,10558"/>
 <path fill="none" stroke="rgb(0,0,0)" stroke-linejoin="round" d="M 4500,10708 L 4500,10558"/>
 <path fill="none" stroke="rgb(0,0,0)" stroke-linejoin="round" d="M 4620,10708 L 4620,10558"/>
 <path fill="none" stroke="rgb(0,0,0)" stroke-linejoin="round" d="M 4620,10708 L 4620,10558"/>
 <path fill="none" stroke="rgb(0,0,0)" stroke-linejoin="round" d="M 4740,10708 L 4740,10558"/>
 <path fill="none" stroke="rgb(0,0,0)" stroke-linejoin="round" d="M 4740,10708 L 4740,10558"/>
 <path fill="none" stroke="rgb(0,0,0)" stroke-linejoin="round" d="M 4861,10708 L 4861,10558"/>
 <path fill="none" stroke="rgb(0,0,0)" stroke-linejoin="round" d="M 4861,10708 L 4861,10558"/>
 <path fill="none" stroke="rgb(0,0,0)" stroke-linejoin="round" d="M 4981,10708 L 4981,10558"/>
 <path fill="none" stroke="rgb(0,0,0)" stroke-linejoin="round" d="M 4981,10708 L 4981,10558"/>
 <path fill="none" stroke="rgb(0,0,0)" stroke-linejoin="round" d="M 5101,10708 L 5101,10558"/>
 <path fill="none" stroke="rgb(0,0,0)" stroke-linejoin="round" d="M 5101,10708 L 5101,10558"/>
 <path fill="none" stroke="rgb(0,0,0)" stroke-linejoin="round" d="M 5222,10708 L 5222,10558"/>
 <path fill="none" stroke="rgb(0,0,0)" stroke-linejoin="round" d="M 5222,10708 L 5222,10558"/>
 <path fill="none" stroke="rgb(0,0,0)" stroke-linejoin="round" d="M 5342,10708 L 5342,10558"/>
 <path fill="none" stroke="rgb(0,0,0)" stroke-linejoin="round" d="M 5342,10708 L 5342,10558"/>
 <path fill="none" stroke="rgb(0,0,0)" stroke-linejoin="round" d="M 5462,10708 L 5462,10558"/>
 <path fill="none" stroke="rgb(0,0,0)" stroke-linejoin="round" d="M 5462,10708 L 5462,10558"/>
 <path fill="none" stroke="rgb(0,0,0)" stroke-linejoin="round" d="M 5583,10708 L 5583,10558"/>
 <path fill="none" stroke="rgb(0,0,0)" stroke-linejoin="round" d="M 5583,10708 L 5583,10558"/>
 <path fill="none" stroke="rgb(0,0,0)" stroke-linejoin="round" d="M 5703,10708 L 5703,10558"/>
 <path fill="none" stroke="rgb(0,0,0)" stroke-linejoin="round" d="M 5703,10708 L 5703,10558"/>
 <path fill="none" stroke="rgb(0,0,0)" stroke-linejoin="round" d="M 5823,10708 L 5823,10558"/>
 <path fill="none" stroke="rgb(0,0,0)" stroke-linejoin="round" d="M 5823,10708 L 5823,10558"/>
 <path fill="none" stroke="rgb(0,0,0)" stroke-linejoin="round" d="M 5944,10708 L 5944,10558"/>
 <path fill="none" stroke="rgb(0,0,0)" stroke-linejoin="round" d="M 5944,10708 L 5944,10558"/>
 <path fill="none" stroke="rgb(0,0,0)" stroke-linejoin="round" d="M 6064,10708 L 6064,10558"/>
 <path fill="none" stroke="rgb(0,0,0)" stroke-linejoin="round" d="M 6064,10708 L 6064,10558"/>
 <path fill="none" stroke="rgb(0,0,0)" stroke-linejoin="round" d="M 6185,10708 L 6185,10558"/>
 <path fill="none" stroke="rgb(0,0,0)" stroke-linejoin="round" d="M 6185,10708 L 6185,10558"/>
 <path fill="none" stroke="rgb(0,0,0)" stroke-linejoin="round" d="M 6305,10708 L 6305,10558"/>
 <path fill="none" stroke="rgb(0,0,0)" stroke-linejoin="round" d="M 6305,10708 L 6305,10558"/>
 <path fill="none" stroke="rgb(0,0,0)" stroke-linejoin="round" d="M 6425,10708 L 6425,10558"/>
 <path fill="none" stroke="rgb(0,0,0)" stroke-linejoin="round" d="M 6425,10708 L 6425,10558"/>
 <path fill="none" stroke="rgb(0,0,0)" stroke-linejoin="round" d="M 6546,10708 L 6546,10558"/>
 <path fill="none" stroke="rgb(0,0,0)" stroke-linejoin="round" d="M 6546,10708 L 6546,10558"/>
 <path fill="none" stroke="rgb(0,0,0)" stroke-linejoin="round" d="M 6666,10708 L 6666,10558"/>
 <path fill="none" stroke="rgb(0,0,0)" stroke-linejoin="round" d="M 6666,10708 L 6666,10558"/>
 <path fill="none" stroke="rgb(0,0,0)" stroke-linejoin="round" d="M 6786,10708 L 6786,10558"/>
 <path fill="none" stroke="rgb(0,0,0)" stroke-linejoin="round" d="M 6786,10708 L 6786,10558"/>
 <path fill="none" stroke="rgb(0,0,0)" stroke-linejoin="round" d="M 6907,10708 L 6907,10558"/>
 <path fill="none" stroke="rgb(0,0,0)" stroke-linejoin="round" d="M 6907,10708 L 6907,10558"/>
 <path fill="none" stroke="rgb(0,0,0)" stroke-linejoin="round" d="M 7027,10708 L 7027,10558"/>
 <path fill="none" stroke="rgb(0,0,0)" stroke-linejoin="round" d="M 7027,10708 L 7027,10558"/>
 <path fill="none" stroke="rgb(0,0,0)" stroke-linejoin="round" d="M 7147,10708 L 7147,10558"/>
 <path fill="none" stroke="rgb(0,0,0)" stroke-linejoin="round" d="M 7147,10708 L 7147,10558"/>
 <path fill="none" stroke="rgb(0,0,0)" stroke-linejoin="round" d="M 7268,10708 L 7268,10558"/>
 <path fill="none" stroke="rgb(0,0,0)" stroke-linejoin="round" d="M 7268,10708 L 7268,10558"/>
 <path fill="none" stroke="rgb(0,0,0)" stroke-linejoin="round" d="M 7388,10708 L 7388,10558"/>
 <path fill="none" stroke="rgb(0,0,0)" stroke-linejoin="round" d="M 7388,10708 L 7388,10558"/>
 <path fill="none" stroke="rgb(0,0,0)" stroke-linejoin="round" d="M 7508,10708 L 7508,10558"/>
 <path fill="none" stroke="rgb(0,0,0)" stroke-linejoin="round" d="M 7508,10708 L 7508,10558"/>
 <path fill="none" stroke="rgb(0,0,0)" stroke-linejoin="round" d="M 7629,10708 L 7629,10558"/>
 <path fill="none" stroke="rgb(0,0,0)" stroke-linejoin="round" d="M 7629,10708 L 7629,10558"/>
 <path fill="none" stroke="rgb(0,0,0)" stroke-linejoin="round" d="M 7749,10708 L 7749,10558"/>
 <path fill="none" stroke="rgb(0,0,0)" stroke-linejoin="round" d="M 7749,10708 L 7749,10558"/>
 <path fill="none" stroke="rgb(0,0,0)" stroke-linejoin="round" d="M 7869,10708 L 7869,10558"/>
 <path fill="none" stroke="rgb(0,0,0)" stroke-linejoin="round" d="M 7869,10708 L 7869,10558"/>
 <path fill="none" stroke="rgb(0,0,0)" stroke-linejoin="round" d="M 7990,10708 L 7990,10558"/>
 <path fill="none" stroke="rgb(0,0,0)" stroke-linejoin="round" d="M 7990,10708 L 7990,10558"/>
 <path fill="none" stroke="rgb(0,0,0)" stroke-linejoin="round" d="M 8110,10708 L 8110,10558"/>
 <path fill="none" stroke="rgb(0,0,0)" stroke-linejoin="round" d="M 8110,10708 L 8110,10558"/>
 <path fill="none" stroke="rgb(0,0,0)" stroke-linejoin="round" d="M 8231,10708 L 8231,10558"/>
 <path fill="none" stroke="rgb(0,0,0)" stroke-linejoin="round" d="M 8231,10708 L 8231,10558"/>
 <path fill="none" stroke="rgb(0,0,0)" stroke-linejoin="round" d="M 8350,10708 L 8350,10558"/>
 <path fill="none" stroke="rgb(0,0,0)" stroke-linejoin="round" d="M 8350,10708 L 8350,10558"/>
 <path fill="none" stroke="rgb(0,0,0)" stroke-linejoin="round" d="M 8470,10708 L 8470,10558"/>
 <path fill="none" stroke="rgb(0,0,0)" stroke-linejoin="round" d="M 8470,10708 L 8470,10558"/>
 <path fill="none" stroke="rgb(0,0,0)" stroke-linejoin="round" d="M 8591,10708 L 8591,10558"/>
 <path fill="none" stroke="rgb(0,0,0)" stroke-linejoin="round" d="M 8591,10708 L 8591,10558"/>
 <path fill="none" stroke="rgb(0,0,0)" stroke-linejoin="round" d="M 8711,10708 L 8711,10558"/>
 <path fill="none" stroke="rgb(0,0,0)" stroke-linejoin="round" d="M 8711,10708 L 8711,10558"/>
 <path fill="none" stroke="rgb(0,0,0)" stroke-linejoin="round" d="M 8831,10708 L 8831,10558"/>
 <path fill="none" stroke="rgb(0,0,0)" stroke-linejoin="round" d="M 8831,10708 L 8831,10558"/>
 <path fill="none" stroke="rgb(0,0,0)" stroke-linejoin="round" d="M 8952,10708 L 8952,10558"/>
 <path fill="none" stroke="rgb(0,0,0)" stroke-linejoin="round" d="M 8952,10708 L 8952,10558"/>
 <path fill="none" stroke="rgb(0,0,0)" stroke-linejoin="round" d="M 9072,10708 L 9072,10558"/>
 <path fill="none" stroke="rgb(0,0,0)" stroke-linejoin="round" d="M 9072,10708 L 9072,10558"/>
 <path fill="none" stroke="rgb(0,0,0)" stroke-linejoin="round" d="M 9192,10708 L 9192,10558"/>
 <path fill="none" stroke="rgb(0,0,0)" stroke-linejoin="round" d="M 9192,10708 L 9192,10558"/>
 <path fill="none" stroke="rgb(0,0,0)" stroke-linejoin="round" d="M 9313,10708 L 9313,10558"/>
 <path fill="none" stroke="rgb(0,0,0)" stroke-linejoin="round" d="M 9313,10708 L 9313,10558"/>
 <path fill="none" stroke="rgb(0,0,0)" stroke-linejoin="round" d="M 9433,10708 L 9433,10558"/>
 <path fill="none" stroke="rgb(0,0,0)" stroke-linejoin="round" d="M 9433,10708 L 9433,10558"/>
 <path fill="none" stroke="rgb(0,0,0)" stroke-linejoin="round" d="M 9553,10708 L 9553,10558"/>
 <path fill="none" stroke="rgb(0,0,0)" stroke-linejoin="round" d="M 9553,10708 L 9553,10558"/>
 <path fill="none" stroke="rgb(0,0,0)" stroke-linejoin="round" d="M 9674,10708 L 9674,10558"/>
 <path fill="none" stroke="rgb(0,0,0)" stroke-linejoin="round" d="M 9674,10708 L 9674,10558"/>
 <path fill="none" stroke="rgb(0,0,0)" stroke-linejoin="round" d="M 9794,10708 L 9794,10558"/>
 <path fill="none" stroke="rgb(0,0,0)" stroke-linejoin="round" d="M 9794,10708 L 9794,10558"/>
 <path fill="none" stroke="rgb(0,0,0)" stroke-linejoin="round" d="M 9914,10708 L 9914,10558"/>
 <path fill="none" stroke="rgb(0,0,0)" stroke-linejoin="round" d="M 9914,10708 L 9914,10558"/>
 <path fill="none" stroke="rgb(0,0,0)" stroke-linejoin="round" d="M 10035,10708 L 10035,10558"/>
 <path fill="none" stroke="rgb(0,0,0)" stroke-linejoin="round" d="M 10035,10708 L 10035,10558"/>
 <path fill="none" stroke="rgb(0,0,0)" stroke-linejoin="round" d="M 10155,10708 L 10155,10558"/>
 <path fill="none" stroke="rgb(0,0,0)" stroke-linejoin="round" d="M 10155,10708 L 10155,10558"/>
 <path fill="none" stroke="rgb(0,0,0)" stroke-linejoin="round" d="M 10275,10708 L 10275,10558"/>
 <path fill="none" stroke="rgb(0,0,0)" stroke-linejoin="round" d="M 10275,10708 L 10275,10558"/>
 <path fill="none" stroke="rgb(0,0,0)" stroke-linejoin="round" d="M 10396,10708 L 10396,10558"/>
 <path fill="none" stroke="rgb(0,0,0)" stroke-linejoin="round" d="M 10396,10708 L 10396,10558"/>
 <path fill="none" stroke="rgb(0,0,0)" stroke-linejoin="round" d="M 10516,10708 L 10516,10558"/>
 <path fill="none" stroke="rgb(0,0,0)" stroke-linejoin="round" d="M 10516,10708 L 10516,10558"/>
 <path fill="none" stroke="rgb(0,0,0)" stroke-linejoin="round" d="M 10637,10708 L 10637,10558"/>
 <path fill="none" stroke="rgb(0,0,0)" stroke-linejoin="round" d="M 10637,10708 L 10637,10558"/>
 <path fill="none" stroke="rgb(0,0,0)" stroke-linejoin="round" d="M 10757,10708 L 10757,10558"/>
 <path fill="none" stroke="rgb(0,0,0)" stroke-linejoin="round" d="M 10757,10708 L 10757,10558"/>
 <path fill="none" stroke="rgb(0,0,0)" stroke-linejoin="round" d="M 10877,10708 L 10877,10558"/>
 <path fill="none" stroke="rgb(0,0,0)" stroke-linejoin="round" d="M 10877,10708 L 10877,10558"/>
 <path fill="none" stroke="rgb(0,0,0)" stroke-linejoin="round" d="M 10998,10708 L 10998,10558"/>
 <path fill="none" stroke="rgb(0,0,0)" stroke-linejoin="round" d="M 10998,10708 L 10998,10558"/>
 <path fill="none" stroke="rgb(0,0,0)" stroke-linejoin="round" d="M 11118,10708 L 11118,10558"/>
 <path fill="none" stroke="rgb(0,0,0)" stroke-linejoin="round" d="M 11118,10708 L 11118,10558"/>
 <path fill="none" stroke="rgb(0,0,0)" stroke-linejoin="round" d="M 11238,10708 L 11238,10558"/>
 <path fill="none" stroke="rgb(0,0,0)" stroke-linejoin="round" d="M 11238,10708 L 11238,10558"/>
 <path fill="none" stroke="rgb(0,0,0)" stroke-linejoin="round" d="M 11359,10708 L 11359,10558"/>
 <path fill="none" stroke="rgb(0,0,0)" stroke-linejoin="round" d="M 11359,10708 L 11359,10558"/>
 <path fill="none" stroke="rgb(0,0,0)" stroke-linejoin="round" d="M 11479,10708 L 11479,10558"/>
 <path fill="none" stroke="rgb(0,0,0)" stroke-linejoin="round" d="M 11479,10708 L 11479,10558"/>
 <path fill="none" stroke="rgb(0,0,0)" stroke-linejoin="round" d="M 11599,10708 L 11599,10558"/>
 <path fill="none" stroke="rgb(0,0,0)" stroke-linejoin="round" d="M 11599,10708 L 11599,10558"/>
 <path fill="none" stroke="rgb(0,0,0)" stroke-linejoin="round" d="M 11720,10708 L 11720,10558"/>
 <path fill="none" stroke="rgb(0,0,0)" stroke-linejoin="round" d="M 11720,10708 L 11720,10558"/>
 <path fill="none" stroke="rgb(0,0,0)" stroke-linejoin="round" d="M 11840,10708 L 11840,10558"/>
 <path fill="none" stroke="rgb(0,0,0)" stroke-linejoin="round" d="M 11840,10708 L 11840,10558"/>
 <path fill="none" stroke="rgb(0,0,0)" stroke-linejoin="round" d="M 11960,10708 L 11960,10558"/>
 <path fill="none" stroke="rgb(0,0,0)" stroke-linejoin="round" d="M 11960,10708 L 11960,10558"/>
 <path fill="none" stroke="rgb(0,0,0)" stroke-linejoin="round" d="M 12081,10708 L 12081,10558"/>
 <path fill="none" stroke="rgb(0,0,0)" stroke-linejoin="round" d="M 12081,10708 L 12081,10558"/>
 <path fill="none" stroke="rgb(0,0,0)" stroke-linejoin="round" d="M 12201,10708 L 12201,10558"/>
 <path fill="none" stroke="rgb(0,0,0)" stroke-linejoin="round" d="M 12201,10708 L 12201,10558"/>
 <path fill="none" stroke="rgb(0,0,0)" stroke-linejoin="round" d="M 12321,10708 L 12321,10558"/>
 <path fill="none" stroke="rgb(0,0,0)" stroke-linejoin="round" d="M 12321,10708 L 12321,10558"/>
 <path fill="none" stroke="rgb(0,0,0)" stroke-linejoin="round" d="M 12442,10708 L 12442,10558"/>
 <path fill="none" stroke="rgb(0,0,0)" stroke-linejoin="round" d="M 12442,10708 L 12442,10558"/>
 <path fill="none" stroke="rgb(0,0,0)" stroke-linejoin="round" d="M 12562,10708 L 12562,10558"/>
 <path fill="none" stroke="rgb(0,0,0)" stroke-linejoin="round" d="M 12562,10708 L 12562,10558"/>
 <path fill="none" stroke="rgb(0,0,0)" stroke-linejoin="round" d="M 12682,10708 L 12682,10558"/>
 <path fill="none" stroke="rgb(0,0,0)" stroke-linejoin="round" d="M 12682,10708 L 12682,10558"/>
 <path fill="none" stroke="rgb(0,0,0)" stroke-linejoin="round" d="M 12803,10708 L 12803,10558"/>
 <path fill="none" stroke="rgb(0,0,0)" stroke-linejoin="round" d="M 12803,10708 L 12803,10558"/>
 <path fill="none" stroke="rgb(0,0,0)" stroke-linejoin="round" d="M 12923,10708 L 12923,10558"/>
 <path fill="none" stroke="rgb(0,0,0)" stroke-linejoin="round" d="M 12923,10708 L 12923,10558"/>
 <path fill="none" stroke="rgb(0,0,0)" stroke-linejoin="round" d="M 13044,10708 L 13044,10558"/>
 <path fill="none" stroke="rgb(0,0,0)" stroke-linejoin="round" d="M 13044,10708 L 13044,10558"/>
 <path fill="none" stroke="rgb(0,0,0)" stroke-linejoin="round" d="M 13164,10708 L 13164,10558"/>
 <path fill="none" stroke="rgb(0,0,0)" stroke-linejoin="round" d="M 13164,10708 L 13164,10558"/>
 <path fill="none" stroke="rgb(0,0,0)" stroke-linejoin="round" d="M 13284,10708 L 13284,10558"/>
 <path fill="none" stroke="rgb(0,0,0)" stroke-linejoin="round" d="M 13284,10708 L 13284,10558"/>
 <path fill="none" stroke="rgb(0,0,0)" stroke-linejoin="round" d="M 13405,10708 L 13405,10558"/>
 <path fill="none" stroke="rgb(0,0,0)" stroke-linejoin="round" d="M 13405,10708 L 13405,10558"/>
 <path fill="none" stroke="rgb(0,0,0)" stroke-linejoin="round" d="M 13525,10708 L 13525,10558"/>
 <path fill="none" stroke="rgb(0,0,0)" stroke-linejoin="round" d="M 13525,10708 L 13525,10558"/>
 <path fill="none" stroke="rgb(0,0,0)" stroke-linejoin="round" d="M 13645,10708 L 13645,10558"/>
 <path fill="none" stroke="rgb(0,0,0)" stroke-linejoin="round" d="M 13645,10708 L 13645,10558"/>
 <path fill="none" stroke="rgb(0,0,0)" stroke-linejoin="round" d="M 13766,10708 L 13766,10558"/>
 <path fill="none" stroke="rgb(0,0,0)" stroke-linejoin="round" d="M 13766,10708 L 13766,10558"/>
 <path fill="none" stroke="rgb(0,0,0)" stroke-linejoin="round" d="M 13886,10708 L 13886,10558"/>
 <path fill="none" stroke="rgb(0,0,0)" stroke-linejoin="round" d="M 13886,10708 L 13886,10558"/>
 <path fill="none" stroke="rgb(0,0,0)" stroke-linejoin="round" d="M 14006,10708 L 14006,10558"/>
 <path fill="none" stroke="rgb(0,0,0)" stroke-linejoin="round" d="M 14006,10708 L 14006,10558"/>
 <path fill="none" stroke="rgb(0,0,0)" stroke-linejoin="round" d="M 14127,10708 L 14127,10558"/>
 <path fill="none" stroke="rgb(0,0,0)" stroke-linejoin="round" d="M 14127,10708 L 14127,10558"/>
 <path fill="none" stroke="rgb(0,0,0)" stroke-linejoin="round" d="M 14247,10708 L 14247,10558"/>
 <path fill="none" stroke="rgb(0,0,0)" stroke-linejoin="round" d="M 14247,10708 L 14247,10558"/>
 <path fill="none" stroke="rgb(0,0,0)" stroke-linejoin="round" d="M 14367,10708 L 14367,10558"/>
 <path fill="none" stroke="rgb(0,0,0)" stroke-linejoin="round" d="M 14367,10708 L 14367,10558"/>
 <path fill="none" stroke="rgb(0,0,0)" stroke-linejoin="round" d="M 14488,10708 L 14488,10558"/>
 <path fill="none" stroke="rgb(0,0,0)" stroke-linejoin="round" d="M 14488,10708 L 14488,10558"/>
 <path fill="none" stroke="rgb(0,0,0)" stroke-linejoin="round" d="M 14608,10708 L 14608,10558"/>
 <path fill="none" stroke="rgb(0,0,0)" stroke-linejoin="round" d="M 14608,10708 L 14608,10558"/>
 <path fill="none" stroke="rgb(0,0,0)" stroke-linejoin="round" d="M 14728,10708 L 14728,10558"/>
 <path fill="none" stroke="rgb(0,0,0)" stroke-linejoin="round" d="M 14728,10708 L 14728,10558"/>
 <path fill="none" stroke="rgb(0,0,0)" stroke-linejoin="round" d="M 14849,10708 L 14849,10558"/>
 <path fill="none" stroke="rgb(0,0,0)" stroke-linejoin="round" d="M 14849,10708 L 14849,10558"/>
 <path fill="none" stroke="rgb(0,0,0)" stroke-linejoin="round" d="M 14969,10708 L 14969,10558"/>
 <path fill="none" stroke="rgb(0,0,0)" stroke-linejoin="round" d="M 14969,10708 L 14969,10558"/>
 <path fill="none" stroke="rgb(0,0,0)" stroke-linejoin="round" d="M 15090,10708 L 15090,10558"/>
 <path fill="none" stroke="rgb(0,0,0)" stroke-linejoin="round" d="M 15090,10708 L 15090,10558"/>
 <path fill="none" stroke="rgb(0,0,0)" stroke-linejoin="round" d="M 1371,10558 L 15090,10558"/>
 <path fill="none" stroke="rgb(0,0,0)" stroke-linejoin="round" d="M 1221,10558 L 1371,10558"/>
 <path fill="none" stroke="rgb(0,0,0)" stroke-linejoin="round" d="M 1221,10558 L 1371,10558"/>
 <path fill="none" stroke="rgb(0,0,0)" stroke-linejoin="round" d="M 1221,9595 L 1371,9595"/>
 <path fill="none" stroke="rgb(0,0,0)" stroke-linejoin="round" d="M 1221,9595 L 1371,9595"/>
 <path fill="none" stroke="rgb(0,0,0)" stroke-linejoin="round" d="M 1221,8632 L 1371,8632"/>
 <path fill="none" stroke="rgb(0,0,0)" stroke-linejoin="round" d="M 1221,8632 L 1371,8632"/>
 <path fill="none" stroke="rgb(0,0,0)" stroke-linejoin="round" d="M 1221,7669 L 1371,7669"/>
 <path fill="none" stroke="rgb(0,0,0)" stroke-linejoin="round" d="M 1221,7669 L 1371,7669"/>
 <path fill="none" stroke="rgb(0,0,0)" stroke-linejoin="round" d="M 1221,6706 L 1371,6706"/>
 <path fill="none" stroke="rgb(0,0,0)" stroke-linejoin="round" d="M 1221,6706 L 1371,6706"/>
 <path fill="none" stroke="rgb(0,0,0)" stroke-linejoin="round" d="M 1221,5744 L 1371,5744"/>
 <path fill="none" stroke="rgb(0,0,0)" stroke-linejoin="round" d="M 1221,5744 L 1371,5744"/>
 <path fill="none" stroke="rgb(0,0,0)" stroke-linejoin="round" d="M 1221,4781 L 1371,4781"/>
 <path fill="none" stroke="rgb(0,0,0)" stroke-linejoin="round" d="M 1221,4781 L 1371,4781"/>
 <path fill="none" stroke="rgb(0,0,0)" stroke-linejoin="round" d="M 1221,3818 L 1371,3818"/>
 <path fill="none" stroke="rgb(0,0,0)" stroke-linejoin="round" d="M 1221,3818 L 1371,3818"/>
 <path fill="none" stroke="rgb(0,0,0)" stroke-linejoin="round" d="M 1221,2855 L 1371,2855"/>
 <path fill="none" stroke="rgb(0,0,0)" stroke-linejoin="round" d="M 1221,2855 L 1371,2855"/>
 <path fill="none" stroke="rgb(0,0,0)" stroke-linejoin="round" d="M 1221,1892 L 1371,1892"/>
 <path fill="none" stroke="rgb(0,0,0)" stroke-linejoin="round" d="M 1221,1892 L 1371,1892"/>
 <path fill="none" stroke="rgb(0,0,0)" stroke-linejoin="round" d="M 1221,930 L 1371,930"/>
 <path fill="none" stroke="rgb(0,0,0)" stroke-linejoin="round" d="M 1221,930 L 1371,930"/>
 <path fill="none" stroke="rgb(0,0,0)" stroke-linejoin="round" d="M 1371,10558 L 1371,930"/>
 <path fill="none" stroke="rgb(0,0,0)" stroke-linejoin="round" d="M 15240,10558 L 15090,10558"/>
 <path fill="none" stroke="rgb(0,0,0)" stroke-linejoin="round" d="M 15240,10558 L 15090,10558"/>
 <path fill="none" stroke="rgb(0,0,0)" stroke-linejoin="round" d="M 15240,9595 L 15090,9595"/>
 <path fill="none" stroke="rgb(0,0,0)" stroke-linejoin="round" d="M 15240,9595 L 15090,9595"/>
 <path fill="none" stroke="rgb(0,0,0)" stroke-linejoin="round" d="M 15240,8632 L 15090,8632"/>
 <path fill="none" stroke="rgb(0,0,0)" stroke-linejoin="round" d="M 15240,8632 L 15090,8632"/>
 <path fill="none" stroke="rgb(0,0,0)" stroke-linejoin="round" d="M 15240,7669 L 15090,7669"/>
 <path fill="none" stroke="rgb(0,0,0)" stroke-linejoin="round" d="M 15240,7669 L 15090,7669"/>
 <path fill="none" stroke="rgb(0,0,0)" stroke-linejoin="round" d="M 15240,6706 L 15090,6706"/>
 <path fill="none" stroke="rgb(0,0,0)" stroke-linejoin="round" d="M 15240,6706 L 15090,6706"/>
 <path fill="none" stroke="rgb(0,0,0)" stroke-linejoin="round" d="M 15240,5744 L 15090,5744"/>
 <path fill="none" stroke="rgb(0,0,0)" stroke-linejoin="round" d="M 15240,5744 L 15090,5744"/>
 <path fill="none" stroke="rgb(0,0,0)" stroke-linejoin="round" d="M 15240,4781 L 15090,4781"/>
 <path fill="none" stroke="rgb(0,0,0)" stroke-linejoin="round" d="M 15240,4781 L 15090,4781"/>
 <path fill="none" stroke="rgb(0,0,0)" stroke-linejoin="round" d="M 15240,3818 L 15090,3818"/>
 <path fill="none" stroke="rgb(0,0,0)" stroke-linejoin="round" d="M 15240,3818 L 15090,3818"/>
 <path fill="none" stroke="rgb(0,0,0)" stroke-linejoin="round" d="M 15240,2855 L 15090,2855"/>
 <path fill="none" stroke="rgb(0,0,0)" stroke-linejoin="round" d="M 15240,2855 L 15090,2855"/>
 <path fill="none" stroke="rgb(0,0,0)" stroke-linejoin="round" d="M 15240,1892 L 15090,1892"/>
 <path fill="none" stroke="rgb(0,0,0)" stroke-linejoin="round" d="M 15240,1892 L 15090,1892"/>
 <path fill="none" stroke="rgb(0,0,0)" stroke-linejoin="round" d="M 15240,930 L 15090,930"/>
 <path fill="none" stroke="rgb(0,0,0)" stroke-linejoin="round" d="M 15240,930 L 15090,930"/>
 <path fill="none" stroke="rgb(0,0,0)" stroke-linejoin="round" d="M 15090,10558 L 15090,930"/>
 <path fill="rgb(0,69,134)" stroke="none" d="M 1371,10435 L 1491,10447 1611,10457 1732,10467 1852,10468 1972,10438 2093,10470 2213,10491 2333,10498 2454,10502 2574,10506 2694,10510 2815,10558 2935,10558 3055,10558 3176,10558 3296,10558 3416,10558 3537,10558 3657,10558 3778,10558 3898,10558 4018,10558 4139,10558 4259,10558 4379,10558 4500,10558 4620,10558 4740,10558 4861,10558 4981,10558 5101,10558 5222,10558 5342,10558 5462,10558 5583,10558 5703,10558 5823,10558 5944,10558 6064,10558 6185,10558 6305,10558 6425,10558 6546,10558 6666,10558 6786,10558 6907,10558 7027,10558 7147,10558 7268,10558 7388,10558 7508,10558 7629,10558 7749,10558 7869,10558 7990,10558 8110,10558 8231,10558 8350,10558 8470,10558 8591,10558 8711,10558 8831,10558 8952,10558 9072,10558 9192,10558 9313,10558 9433,10558 9553,10558 9674,10558 9794,10558 9914,10558 10035,10558 10155,10558 10275,10558 10396,10558 10516,10558 10637,10558 10757,10558 10877,10558 10998,10558 11118,10558 11238,10558 11359,10558 11479,10558 11599,10558 11720,10558 11840,10558 11960,10558 12081,10558 12201,10558 12321,10558 12442,10558 12562,10558 12682,10558 12803,10558 12923,10558 13044,10558 13164,10558 13284,10558 13405,10558 13525,10558 13645,10558 13766,10558 13886,10558 14006,10558 14127,10558 14247,10558 14367,10558 14488,10558 14608,10558 14728,10558 14849,10558 14969,10558 15090,10558 15090,10558 1371,10558 1371,10435 Z"/>
 <path fill="none" stroke="rgb(0,0,0)" stroke-linejoin="round" d="M 1371,10435 L 1491,10447 1611,10457 1732,10467 1852,10468 1972,10438 2093,10470 2213,10491 2333,10498 2454,10502 2574,10506 2694,10510 2815,10558 2935,10558 3055,10558 3176,10558 3296,10558 3416,10558 3537,10558 3657,10558 3778,10558 3898,10558 4018,10558 4139,10558 4259,10558 4379,10558 4500,10558 4620,10558 4740,10558 4861,10558 4981,10558 5101,10558 5222,10558 5342,10558 5462,10558 5583,10558 5703,10558 5823,10558 5944,10558 6064,10558 6185,10558 6305,10558 6425,10558 6546,10558 6666,10558 6786,10558 6907,10558 7027,10558 7147,10558 7268,10558 7388,10558 7508,10558 7629,10558 7749,10558 7869,10558 7990,10558 8110,10558 8231,10558 8350,10558 8470,10558 8591,10558 8711,10558 8831,10558 8952,10558 9072,10558 9192,10558 9313,10558 9433,10558 9553,10558 9674,10558 9794,10558 9914,10558 10035,10558 10155,10558 10275,10558 10396,10558 10516,10558 10637,10558 10757,10558 10877,10558 10998,10558 11118,10558 11238,10558 11359,10558 11479,10558 11599,10558 11720,10558 11840,10558 11960,10558 12081,10558 12201,10558 12321,10558 12442,10558 12562,10558 12682,10558 12803,10558 12923,10558 13044,10558 13164,10558 13284,10558 13405,10558 13525,10558 13645,10558 13766,10558 13886,10558 14006,10558 14127,10558 14247,10558 14367,10558 14488,10558 14608,10558 14728,10558 14849,10558 14969,10558 15090,10558 15090,10558 1371,10558 1371,10435 Z"/>
 <path fill="rgb(51,153,102)" stroke="none" d="M 1371,10069 L 1491,10124 1611,10109 1732,10136 1852,10142 1972,10112 2093,10159 2213,10213 2333,10230 2454,10249 2574,10214 2694,10269 2815,10317 2935,10369 3055,10404 3176,10408 3296,10415 3416,10424 3537,10435 3657,10443 3778,10452 3898,10457 4018,10466 4139,10473 4259,10482 4379,10488 4500,10491 4620,10454 4740,10483 4861,10493 4981,10496 5101,10504 5222,10504 5342,10509 5462,10507 5583,10485 5703,10506 5823,10506 5944,10519 6064,10514 6185,10518 6305,10525 6425,10518 6546,10513 6666,10497 6786,10525 6907,10558 7027,10558 7147,10558 7268,10558 7388,10558 7508,10558 7629,10558 7749,10558 7869,10558 7990,10558 8110,10558 8231,10558 8350,10558 8470,10558 8591,10558 8711,10558 8831,10558 8952,10558 9072,10558 9192,10558 9313,10558 9433,10558 9553,10558 9674,10558 9794,10558 9914,10558 10035,10558 10155,10558 10275,10558 10396,10558 10516,10558 10637,10558 10757,10558 10877,10558 10998,10558 11118,10558 11238,10558 11359,10558 11479,10558 11599,10558 11720,10558 11840,10558 11960,10558 12081,10558 12201,10558 12321,10558 12442,10558 12562,10558 12682,10558 12803,10558 12923,10558 13044,10558 13164,10558 13284,10558 13405,10558 13525,10558 13645,10558 13766,10558 13886,10558 14006,10558 14127,10558 14247,10558 14367,10558 14488,10558 14608,10558 14728,10558 14849,10558 14969,10558 15090,10558 15090,10558 14969,10558 14849,10558 14728,10558 14608,10558 14488,10558 14367,10558 14247,10558 14127,10558 14006,10558 13886,10558 13766,10558 13645,10558 13525,10558 13405,10558 13284,10558 13164,10558 13044,10558 12923,10558 12803,10558 12682,10558 12562,10558 12442,10558 12321,10558 12201,10558 12081,10558 11960,10558 11840,10558 11720,10558 11599,10558 11479,10558 11359,10558 11238,10558 11118,10558 10998,10558 10877,10558 10757,10558 10637,10558 10516,10558 10396,10558 10275,10558 10155,10558 10035,10558 9914,10558 9794,10558 9674,10558 9553,10558 9433,10558 9313,10558 9192,10558 9072,10558 8952,10558 8831,10558 8711,10558 8591,10558 8470,10558 8350,10558 8231,10558 8110,10558 7990,10558 7869,10558 7749,10558 7629,10558 7508,10558 7388,10558 7268,10558 7147,10558 7027,10558 6907,10558 6786,10558 6666,10558 6546,10558 6425,10558 6305,10558 6185,10558 6064,10558 5944,10558 5823,10558 5703,10558 5583,10558 5462,10558 5342,10558 5222,10558 5101,10558 4981,10558 4861,10558 4740,10558 4620,10558 4500,10558 4379,10558 4259,10558 4139,10558 4018,10558 3898,10558 3778,10558 3657,10558 3537,10558 3416,10558 3296,10558 3176,10558 3055,10558 2935,10558 2815,10558 2694,10510 2574,10506 2454,10502 2333,10498 2213,10491 2093,10470 1972,10438 1852,10468 1732,10467 1611,10457 1491,10447 1371,10435 1371,10069 Z"/>
 <path fill="none" stroke="rgb(0,0,0)" stroke-linejoin="round" d="M 1371,10069 L 1491,10124 1611,10109 1732,10136 1852,10142 1972,10112 2093,10159 2213,10213 2333,10230 2454,10249 2574,10214 2694,10269 2815,10317 2935,10369 3055,10404 3176,10408 3296,10415 3416,10424 3537,10435 3657,10443 3778,10452 3898,10457 4018,10466 4139,10473 4259,10482 4379,10488 4500,10491 4620,10454 4740,10483 4861,10493 4981,10496 5101,10504 5222,10504 5342,10509 5462,10507 5583,10485 5703,10506 5823,10506 5944,10519 6064,10514 6185,10518 6305,10525 6425,10518 6546,10513 6666,10497 6786,10525 6907,10558 7027,10558 7147,10558 7268,10558 7388,10558 7508,10558 7629,10558 7749,10558 7869,10558 7990,10558 8110,10558 8231,10558 8350,10558 8470,10558 8591,10558 8711,10558 8831,10558 8952,10558 9072,10558 9192,10558 9313,10558 9433,10558 9553,10558 9674,10558 9794,10558 9914,10558 10035,10558 10155,10558 10275,10558 10396,10558 10516,10558 10637,10558 10757,10558 10877,10558 10998,10558 11118,10558 11238,10558 11359,10558 11479,10558 11599,10558 11720,10558 11840,10558 11960,10558 12081,10558 12201,10558 12321,10558 12442,10558 12562,10558 12682,10558 12803,10558 12923,10558 13044,10558 13164,10558 13284,10558 13405,10558 13525,10558 13645,10558 13766,10558 13886,10558 14006,10558 14127,10558 14247,10558 14367,10558 14488,10558 14608,10558 14728,10558 14849,10558 14969,10558 15090,10558 15090,10558 14969,10558 14849,10558 14728,10558 14608,10558 14488,10558 14367,10558 14247,10558 14127,10558 14006,10558 13886,10558 13766,10558 13645,10558 13525,10558 13405,10558 13284,10558 13164,10558 13044,10558 12923,10558 12803,10558 12682,10558 12562,10558 12442,10558 12321,10558 12201,10558 12081,10558 11960,10558 11840,10558 11720,10558 11599,10558 11479,10558 11359,10558 11238,10558 11118,10558 10998,10558 10877,10558 10757,10558 10637,10558 10516,10558 10396,10558 10275,10558 10155,10558 10035,10558 9914,10558 9794,10558 9674,10558 9553,10558 9433,10558 9313,10558 9192,10558 9072,10558 8952,10558 8831,10558 8711,10558 8591,10558 8470,10558 8350,10558 8231,10558 8110,10558 7990,10558 7869,10558 7749,10558 7629,10558 7508,10558 7388,10558 7268,10558 7147,10558 7027,10558 6907,10558 6786,10558 6666,10558 6546,10558 6425,10558 6305,10558 6185,10558 6064,10558 5944,10558 5823,10558 5703,10558 5583,10558 5462,10558 5342,10558 5222,10558 5101,10558 4981,10558 4861,10558 4740,10558 4620,10558 4500,10558 4379,10558 4259,10558 4139,10558 4018,10558 3898,10558 3778,10558 3657,10558 3537,10558 3416,10558 3296,10558 3176,10558 3055,10558 2935,10558 2815,10558 2694,10510 2574,10506 2454,10502 2333,10498 2213,10491 2093,10470 1972,10438 1852,10468 1732,10467 1611,10457 1491,10447 1371,10435 1371,10069 Z"/>
 <path fill="rgb(131,202,255)" stroke="none" d="M 1371,2020 L 1491,2149 1611,2140 1732,2205 1852,2278 1972,2275 2093,2388 2213,2482 2333,2517 2454,2592 2574,2651 2694,2728 2815,2886 2935,2991 3055,3101 3176,3122 3296,3192 3416,3254 3537,3338 3657,3355 3778,3430 3898,3546 4018,3581 4139,3687 4259,3836 4379,3960 4500,4107 4620,4148 4740,4278 4861,4391 4981,4476 5101,4493 5222,4547 5342,4647 5462,4728 5583,4798 5703,4933 5823,5046 5944,5199 6064,5211 6185,5282 6305,5405 6425,5472 6546,5591 6666,5713 6786,5818 6907,6005 7027,6202 7147,6184 7268,6437 7388,6430 7508,6515 7629,6384 7749,6456 7869,6586 7990,6713 8110,6813 8231,6851 8350,6954 8470,7058 8591,7135 8711,7217 8831,7219 8952,7323 9072,7292 9192,7290 9313,7349 9433,7408 9553,7443 9674,7775 9794,7892 9914,7938 10035,7967 10155,8158 10275,8187 10396,8208 10516,8321 10637,8458 10757,8571 10877,8552 10998,8612 11118,8677 11238,8638 11359,9189 11479,9484 11599,9099 11720,9115 11840,9066 11960,9242 12081,9374 12201,9425 12321,9640 12442,9669 12562,9624 12682,9657 12803,9708 12923,9769 13044,9769 13164,9751 13284,9764 13405,9821 13525,9928 13645,9897 13766,9879 13886,9842 14006,9920 14127,9969 14247,9998 14367,9975 14488,9965 14608,9953 14728,10012 14849,10109 14969,10128 15090,10192 15090,10558 14969,10558 14849,10558 14728,10558 14608,10558 14488,10558 14367,10558 14247,10558 14127,10558 14006,10558 13886,10558 13766,10558 13645,10558 13525,10558 13405,10558 13284,10558 13164,10558 13044,10558 12923,10558 12803,10558 12682,10558 12562,10558 12442,10558 12321,10558 12201,10558 12081,10558 11960,10558 11840,10558 11720,10558 11599,10558 11479,10558 11359,10558 11238,10558 11118,10558 10998,10558 10877,10558 10757,10558 10637,10558 10516,10558 10396,10558 10275,10558 10155,10558 10035,10558 9914,10558 9794,10558 9674,10558 9553,10558 9433,10558 9313,10558 9192,10558 9072,10558 8952,10558 8831,10558 8711,10558 8591,10558 8470,10558 8350,10558 8231,10558 8110,10558 7990,10558 7869,10558 7749,10558 7629,10558 7508,10558 7388,10558 7268,10558 7147,10558 7027,10558 6907,10558 6786,10525 6666,10497 6546,10513 6425,10518 6305,10525 6185,10518 6064,10514 5944,10519 5823,10506 5703,10506 5583,10485 5462,10507 5342,10509 5222,10504 5101,10504 4981,10496 4861,10493 4740,10483 4620,10454 4500,10491 4379,10488 4259,10482 4139,10473 4018,10466 3898,10457 3778,10452 3657,10443 3537,10435 3416,10424 3296,10415 3176,10408 3055,10404 2935,10369 2815,10317 2694,10269 2574,10214 2454,10249 2333,10230 2213,10213 2093,10159 1972,10112 1852,10142 1732,10136 1611,10109 1491,10124 1371,10069 1371,2020 Z"/>
 <path fill="rgb(0,204,255)" stroke="none" d="M 1371,1345 L 1491,1370 1611,1386 1732,1390 1852,1399 1972,1371 2093,1413 2213,1407 2333,1394 2454,1398 2574,1422 2694,1420 2815,1511 2935,1556 3055,1587 3176,1587 3296,1609 3416,1617 3537,1666 3657,1662 3778,1707 3898,1735 4018,1788 4139,1874 4259,2046 4379,2239 4500,2433 4620,2559 4740,2736 4861,2886 4981,3006 5101,3080 5222,3166 5342,3299 5462,3443 5583,3558 5703,3718 5823,3880 5944,4076 6064,4150 6185,4265 6305,4421 6425,4516 6546,4674 6666,4821 6786,4975 6907,5185 7027,5401 7147,5427 7268,5690 7388,5712 7508,5795 7629,5704 7749,5805 7869,5978 7990,6122 8110,6236 8231,6315 8350,6425 8470,6559 8591,6645 8711,6732 8831,6777 8952,6894 9072,6872 9192,6885 9313,6966 9433,7017 9553,7088 9674,7435 9794,7554 9914,7634 10035,7670 10155,7859 10275,7920 10396,7961 10516,8079 10637,8227 10757,8344 10877,8319 10998,8373 11118,8439 11238,8391 11359,8965 11479,9275 11599,8869 11720,8930 11840,8902 11960,9089 12081,9229 12201,9269 12321,9516 12442,9530 12562,9484 12682,9529 12803,9581 12923,9649 13044,9651 13164,9632 13284,9647 13405,9726 13525,9840 13645,9809 13766,9795 13886,9758 14006,9849 14127,9898 14247,9923 14367,9901 14488,9896 14608,9898 14728,9962 14849,10065 14969,10086 15090,10154 15090,10192 14969,10128 14849,10109 14728,10012 14608,9953 14488,9965 14367,9975 14247,9998 14127,9969 14006,9920 13886,9842 13766,9879 13645,9897 13525,9928 13405,9821 13284,9764 13164,9751 13044,9769 12923,9769 12803,9708 12682,9657 12562,9624 12442,9669 12321,9640 12201,9425 12081,9374 11960,9242 11840,9066 11720,9115 11599,9099 11479,9484 11359,9189 11238,8638 11118,8677 10998,8612 10877,8552 10757,8571 10637,8458 10516,8321 10396,8208 10275,8187 10155,8158 10035,7967 9914,7938 9794,7892 9674,7775 9553,7443 9433,7408 9313,7349 9192,7290 9072,7292 8952,7323 8831,7219 8711,7217 8591,7135 8470,7058 8350,6954 8231,6851 8110,6813 7990,6713 7869,6586 7749,6456 7629,6384 7508,6515 7388,6430 7268,6437 7147,6184 7027,6202 6907,6005 6786,5818 6666,5713 6546,5591 6425,5472 6305,5405 6185,5282 6064,5211 5944,5199 5823,5046 5703,4933 5583,4798 5462,4728 5342,4647 5222,4547 5101,4493 4981,4476 4861,4391 4740,4278 4620,4148 4500,4107 4379,3960 4259,3836 4139,3687 4018,3581 3898,3546 3778,3430 3657,3355 3537,3338 3416,3254 3296,3192 3176,3122 3055,3101 2935,2991 2815,2886 2694,2728 2574,2651 2454,2592 2333,2517 2213,2482 2093,2388 1972,2275 1852,2278 1732,2205 1611,2140 1491,2149 1371,2020 1371,1345 Z"/>
 <path fill="none" stroke="rgb(0,0,0)" stroke-linejoin="round" d="M 1371,1345 L 1491,1370 1611,1386 1732,1390 1852,1399 1972,1371 2093,1413 2213,1407 2333,1394 2454,1398 2574,1422 2694,1420 2815,1511 2935,1556 3055,1587 3176,1587 3296,1609 3416,1617 3537,1666 3657,1662 3778,1707 3898,1735 4018,1788 4139,1874 4259,2046 4379,2239 4500,2433 4620,2559 4740,2736 4861,2886 4981,3006 5101,3080 5222,3166 5342,3299 5462,3443 5583,3558 5703,3718 5823,3880 5944,4076 6064,4150 6185,4265 6305,4421 6425,4516 6546,4674 6666,4821 6786,4975 6907,5185 7027,5401 7147,5427 7268,5690 7388,5712 7508,5795 7629,5704 7749,5805 7869,5978 7990,6122 8110,6236 8231,6315 8350,6425 8470,6559 8591,6645 8711,6732 8831,6777 8952,6894 9072,6872 9192,6885 9313,6966 9433,7017 9553,7088 9674,7435 9794,7554 9914,7634 10035,7670 10155,7859 10275,7920 10396,7961 10516,8079 10637,8227 10757,8344 10877,8319 10998,8373 11118,8439 11238,8391 11359,8965 11479,9275 11599,8869 11720,8930 11840,8902 11960,9089 12081,9229 12201,9269 12321,9516 12442,9530 12562,9484 12682,9529 12803,9581 12923,9649 13044,9651 13164,9632 13284,9647 13405,9726 13525,9840 13645,9809 13766,9795 13886,9758 14006,9849 14127,9898 14247,9923 14367,9901 14488,9896 14608,9898 14728,9962 14849,10065 14969,10086 15090,10154 15090,10192 14969,10128 14849,10109 14728,10012 14608,9953 14488,9965 14367,9975 14247,9998 14127,9969 14006,9920 13886,9842 13766,9879 13645,9897 13525,9928 13405,9821 13284,9764 13164,9751 13044,9769 12923,9769 12803,9708 12682,9657 12562,9624 12442,9669 12321,9640 12201,9425 12081,9374 11960,9242 11840,9066 11720,9115 11599,9099 11479,9484 11359,9189 11238,8638 11118,8677 10998,8612 10877,8552 10757,8571 10637,8458 10516,8321 10396,8208 10275,8187 10155,8158 10035,7967 9914,7938 9794,7892 9674,7775 9553,7443 9433,7408 9313,7349 9192,7290 9072,7292 8952,7323 8831,7219 8711,7217 8591,7135 8470,7058 8350,6954 8231,6851 8110,6813 7990,6713 7869,6586 7749,6456 7629,6384 7508,6515 7388,6430 7268,6437 7147,6184 7027,6202 6907,6005 6786,5818 6666,5713 6546,5591 6425,5472 6305,5405 6185,5282 6064,5211 5944,5199 5823,5046 5703,4933 5583,4798 5462,4728 5342,4647 5222,4547 5101,4493 4981,4476 4861,4391 4740,4278 4620,4148 4500,4107 4379,3960 4259,3836 4139,3687 4018,3581 3898,3546 3778,3430 3657,3355 3537,3338 3416,3254 3296,3192 3176,3122 3055,3101 2935,2991 2815,2886 2694,2728 2574,2651 2454,2592 2333,2517 2213,2482 2093,2388 1972,2275 1852,2278 1732,2205 1611,2140 1491,2149 1371,2020 1371,1345 Z"/>
 <path fill="rgb(0,102,204)" stroke="none" d="M 1371,1345 L 1491,1370 1611,1386 1732,1390 1852,1399 1972,1371 2093,1413 2213,1407 2333,1394 2454,1398 2574,1422 2694,1420 2815,1511 2935,1556 3055,1587 3176,1587 3296,1609 3416,1587 3537,1612 3657,1590 3778,1621 3898,1622 4018,1642 4139,1667 4259,1662 4379,1692 4500,1709 4620,1700 4740,1751 4861,1762 4981,1786 5101,1760 5222,1774 5342,1771 5462,1796 5583,1802 5703,1822 5823,1870 5944,1928 6064,1928 6185,1938 6305,2003 6425,2023 6546,2062 6666,2132 6786,2229 6907,2261 7027,2262 7147,2331 7268,2414 7388,2528 7508,2401 7629,2360 7749,2363 7869,2391 7990,2456 8110,2549 8231,2588 8350,2577 8470,2714 8591,2803 8711,2877 8831,3019 8952,3199 9072,3102 9192,3072 9313,3155 9433,3259 9553,3364 9674,3665 9794,3619 9914,3744 10035,3800 10155,3924 10275,4082 10396,4197 10516,4142 10637,4293 10757,4409 10877,4314 10998,4360 11118,4410 11238,4155 11359,4747 11479,4827 11599,4391 11720,4677 11840,4545 11960,4584 12081,4892 12201,4790 12321,4844 12442,4933 12562,5053 12682,5360 12803,5530 12923,5472 13044,5631 13164,5929 13284,5951 13405,6222 13525,6662 13645,6633 13766,6391 13886,6508 14006,6630 14127,6778 14247,6647 14367,6719 14488,6742 14608,6787 14728,6837 14849,7086 14969,7128 15090,6955 15090,10154 14969,10086 14849,10065 14728,9962 14608,9898 14488,9896 14367,9901 14247,9923 14127,9898 14006,9849 13886,9758 13766,9795 13645,9809 13525,9840 13405,9726 13284,9647 13164,9632 13044,9651 12923,9649 12803,9581 12682,9529 12562,9484 12442,9530 12321,9516 12201,9269 12081,9229 11960,9089 11840,8902 11720,8930 11599,8869 11479,9275 11359,8965 11238,8391 11118,8439 10998,8373 10877,8319 10757,8344 10637,8227 10516,8079 10396,7961 10275,7920 10155,7859 10035,7670 9914,7634 9794,7554 9674,7435 9553,7088 9433,7017 9313,6966 9192,6885 9072,6872 8952,6894 8831,6777 8711,6732 8591,6645 8470,6559 8350,6425 8231,6315 8110,6236 7990,6122 7869,5978 7749,5805 7629,5704 7508,5795 7388,5712 7268,5690 7147,5427 7027,5401 6907,5185 6786,4975 6666,4821 6546,4674 6425,4516 6305,4421 6185,4265 6064,4150 5944,4076 5823,3880 5703,3718 5583,3558 5462,3443 5342,3299 5222,3166 5101,3080 4981,3006 4861,2886 4740,2736 4620,2559 4500,2433 4379,2239 4259,2046 4139,1874 4018,1788 3898,1735 3778,1707 3657,1662 3537,1666 3416,1617 3296,1609 3176,1587 3055,1587 2935,1556 2815,1511 2694,1420 2574,1422 2454,1398 2333,1394 2213,1407 2093,1413 1972,1371 1852,1399 1732,1390 1611,1386 1491,1370 1371,1345 Z"/>
 <path fill="none" stroke="rgb(0,0,0)" stroke-linejoin="round" d="M 1371,1345 L 1491,1370 1611,1386 1732,1390 1852,1399 1972,1371 2093,1413 2213,1407 2333,1394 2454,1398 2574,1422 2694,1420 2815,1511 2935,1556 3055,1587 3176,1587 3296,1609 3416,1587 3537,1612 3657,1590 3778,1621 3898,1622 4018,1642 4139,1667 4259,1662 4379,1692 4500,1709 4620,1700 4740,1751 4861,1762 4981,1786 5101,1760 5222,1774 5342,1771 5462,1796 5583,1802 5703,1822 5823,1870 5944,1928 6064,1928 6185,1938 6305,2003 6425,2023 6546,2062 6666,2132 6786,2229 6907,2261 7027,2262 7147,2331 7268,2414 7388,2528 7508,2401 7629,2360 7749,2363 7869,2391 7990,2456 8110,2549 8231,2588 8350,2577 8470,2714 8591,2803 8711,2877 8831,3019 8952,3199 9072,3102 9192,3072 9313,3155 9433,3259 9553,3364 9674,3665 9794,3619 9914,3744 10035,3800 10155,3924 10275,4082 10396,4197 10516,4142 10637,4293 10757,4409 10877,4314 10998,4360 11118,4410 11238,4155 11359,4747 11479,4827 11599,4391 11720,4677 11840,4545 11960,4584 12081,4892 12201,4790 12321,4844 12442,4933 12562,5053 12682,5360 12803,5530 12923,5472 13044,5631 13164,5929 13284,5951 13405,6222 13525,6662 13645,6633 13766,6391 13886,6508 14006,6630 14127,6778 14247,6647 14367,6719 14488,6742 14608,6787 14728,6837 14849,7086 14969,7128 15090,6955 15090,10154 14969,10086 14849,10065 14728,9962 14608,9898 14488,9896 14367,9901 14247,9923 14127,9898 14006,9849 13886,9758 13766,9795 13645,9809 13525,9840 13405,9726 13284,9647 13164,9632 13044,9651 12923,9649 12803,9581 12682,9529 12562,9484 12442,9530 12321,9516 12201,9269 12081,9229 11960,9089 11840,8902 11720,8930 11599,8869 11479,9275 11359,8965 11238,8391 11118,8439 10998,8373 10877,8319 10757,8344 10637,8227 10516,8079 10396,7961 10275,7920 10155,7859 10035,7670 9914,7634 9794,7554 9674,7435 9553,7088 9433,7017 9313,6966 9192,6885 9072,6872 8952,6894 8831,6777 8711,6732 8591,6645 8470,6559 8350,6425 8231,6315 8110,6236 7990,6122 7869,5978 7749,5805 7629,5704 7508,5795 7388,5712 7268,5690 7147,5427 7027,5401 6907,5185 6786,4975 6666,4821 6546,4674 6425,4516 6305,4421 6185,4265 6064,4150 5944,4076 5823,3880 5703,3718 5583,3558 5462,3443 5342,3299 5222,3166 5101,3080 4981,3006 4861,2886 4740,2736 4620,2559 4500,2433 4379,2239 4259,2046 4139,1874 4018,1788 3898,1735 3778,1707 3657,1662 3537,1666 3416,1617 3296,1609 3176,1587 3055,1587 2935,1556 2815,1511 2694,1420 2574,1422 2454,1398 2333,1394 2213,1407 2093,1413 1972,1371 1852,1399 1732,1390 1611,1386 1491,1370 1371,1345 Z"/>
 <path fill="rgb(0,132,209)" stroke="none" d="M 1371,1345 L 1491,1370 1611,1386 1732,1390 1852,1399 1972,1371 2093,1413 2213,1407 2333,1394 2454,1398 2574,1422 2694,1420 2815,1511 2935,1556 3055,1587 3176,1587 3296,1609 3416,1587 3537,1612 3657,1590 3778,1621 3898,1622 4018,1642 4139,1667 4259,1662 4379,1692 4500,1709 4620,1700 4740,1751 4861,1762 4981,1786 5101,1760 5222,1774 5342,1771 5462,1796 5583,1802 5703,1822 5823,1870 5944,1928 6064,1928 6185,1938 6305,2003 6425,2023 6546,2062 6666,2132 6786,2229 6907,2261 7027,2262 7147,2331 7268,2414 7388,2528 7508,2401 7629,2360 7749,2363 7869,2391 7990,2456 8110,2549 8231,2588 8350,2577 8470,2679 8591,2708 8711,2724 8831,2820 8952,2967 9072,2822 9192,2745 9313,2792 9433,2826 9553,2911 9674,3033 9794,2865 9914,2968 10035,3028 10155,3055 10275,3227 10396,3347 10516,3229 10637,3316 10757,3416 10877,3321 10998,3382 11118,3357 11238,3170 11359,3411 11479,3355 11599,3315 11720,3625 11840,3452 11960,3491 12081,3803 12201,3514 12321,3616 12442,3732 12562,3981 12682,4377 12803,4568 12923,4427 13044,4688 13164,5005 13284,5086 13405,5412 13525,5874 13645,5888 13766,5667 13886,5825 14006,5968 14127,6158 14247,5933 14367,6048 14488,6183 14608,6225 14728,6287 14849,6589 14969,6607 15090,6416 15090,6955 14969,7128 14849,7086 14728,6837 14608,6787 14488,6742 14367,6719 14247,6647 14127,6778 14006,6630 13886,6508 13766,6391 13645,6633 13525,6662 13405,6222 13284,5951 13164,5929 13044,5631 12923,5472 12803,5530 12682,5360 12562,5053 12442,4933 12321,4844 12201,4790 12081,4892 11960,4584 11840,4545 11720,4677 11599,4391 11479,4827 11359,4747 11238,4155 11118,4410 10998,4360 10877,4314 10757,4409 10637,4293 10516,4142 10396,4197 10275,4082 10155,3924 10035,3800 9914,3744 9794,3619 9674,3665 9553,3364 9433,3259 9313,3155 9192,3072 9072,3102 8952,3199 8831,3019 8711,2877 8591,2803 8470,2714 8350,2577 8231,2588 8110,2549 7990,2456 7869,2391 7749,2363 7629,2360 7508,2401 7388,2528 7268,2414 7147,2331 7027,2262 6907,2261 6786,2229 6666,2132 6546,2062 6425,2023 6305,2003 6185,1938 6064,1928 5944,1928 5823,1870 5703,1822 5583,1802 5462,1796 5342,1771 5222,1774 5101,1760 4981,1786 4861,1762 4740,1751 4620,1700 4500,1709 4379,1692 4259,1662 4139,1667 4018,1642 3898,1622 3778,1621 3657,1590 3537,1612 3416,1587 3296,1609 3176,1587 3055,1587 2935,1556 2815,1511 2694,1420 2574,1422 2454,1398 2333,1394 2213,1407 2093,1413 1972,1371 1852,1399 1732,1390 1611,1386 1491,1370 1371,1345 Z"/>
 <path fill="none" stroke="rgb(0,0,0)" stroke-linejoin="round" d="M 1371,1345 L 1491,1370 1611,1386 1732,1390 1852,1399 1972,1371 2093,1413 2213,1407 2333,1394 2454,1398 2574,1422 2694,1420 2815,1511 2935,1556 3055,1587 3176,1587 3296,1609 3416,1587 3537,1612 3657,1590 3778,1621 3898,1622 4018,1642 4139,1667 4259,1662 4379,1692 4500,1709 4620,1700 4740,1751 4861,1762 4981,1786 5101,1760 5222,1774 5342,1771 5462,1796 5583,1802 5703,1822 5823,1870 5944,1928 6064,1928 6185,1938 6305,2003 6425,2023 6546,2062 6666,2132 6786,2229 6907,2261 7027,2262 7147,2331 7268,2414 7388,2528 7508,2401 7629,2360 7749,2363 7869,2391 7990,2456 8110,2549 8231,2588 8350,2577 8470,2679 8591,2708 8711,2724 8831,2820 8952,2967 9072,2822 9192,2745 9313,2792 9433,2826 9553,2911 9674,3033 9794,2865 9914,2968 10035,3028 10155,3055 10275,3227 10396,3347 10516,3229 10637,3316 10757,3416 10877,3321 10998,3382 11118,3357 11238,3170 11359,3411 11479,3355 11599,3315 11720,3625 11840,3452 11960,3491 12081,3803 12201,3514 12321,3616 12442,3732 12562,3981 12682,4377 12803,4568 12923,4427 13044,4688 13164,5005 13284,5086 13405,5412 13525,5874 13645,5888 13766,5667 13886,5825 14006,5968 14127,6158 14247,5933 14367,6048 14488,6183 14608,6225 14728,6287 14849,6589 14969,6607 15090,6416 15090,6955 14969,7128 14849,7086 14728,6837 14608,6787 14488,6742 14367,6719 14247,6647 14127,6778 14006,6630 13886,6508 13766,6391 13645,6633 13525,6662 13405,6222 13284,5951 13164,5929 13044,5631 12923,5472 12803,5530 12682,5360 12562,5053 12442,4933 12321,4844 12201,4790 12081,4892 11960,4584 11840,4545 11720,4677 11599,4391 11479,4827 11359,4747 11238,4155 11118,4410 10998,4360 10877,4314 10757,4409 10637,4293 10516,4142 10396,4197 10275,4082 10155,3924 10035,3800 9914,3744 9794,3619 9674,3665 9553,3364 9433,3259 9313,3155 9192,3072 9072,3102 8952,3199 8831,3019 8711,2877 8591,2803 8470,2714 8350,2577 8231,2588 8110,2549 7990,2456 7869,2391 7749,2363 7629,2360 7508,2401 7388,2528 7268,2414 7147,2331 7027,2262 6907,2261 6786,2229 6666,2132 6546,2062 6425,2023 6305,2003 6185,1938 6064,1928 5944,1928 5823,1870 5703,1822 5583,1802 5462,1796 5342,1771 5222,1774 5101,1760 4981,1786 4861,1762 4740,1751 4620,1700 4500,1709 4379,1692 4259,1662 4139,1667 4018,1642 3898,1622 3778,1621 3657,1590 3537,1612 3416,1587 3296,1609 3176,1587 3055,1587 2935,1556 2815,1511 2694,1420 2574,1422 2454,1398 2333,1394 2213,1407 2093,1413 1972,1371 1852,1399 1732,1390 1611,1386 1491,1370 1371,1345 Z"/>
 <path fill="rgb(0,69,134)" stroke="none" d="M 1371,1345 L 1491,1370 1611,1386 1732,1390 1852,1399 1972,1371 2093,1413 2213,1407 2333,1394 2454,1398 2574,1422 2694,1420 2815,1511 2935,1556 3055,1587 3176,1587 3296,1609 3416,1587 3537,1612 3657,1590 3778,1621 3898,1622 4018,1642 4139,1667 4259,1662 4379,1692 4500,1709 4620,1700 4740,1751 4861,1762 4981,1786 5101,1760 5222,1774 5342,1771 5462,1796 5583,1802 5703,1822 5823,1870 5944,1928 6064,1928 6185,1938 6305,2003 6425,2023 6546,2062 6666,2132 6786,2229 6907,2261 7027,2262 7147,2331 7268,2414 7388,2528 7508,2401 7629,2360 7749,2363 7869,2391 7990,2456 8110,2549 8231,2588 8350,2577 8470,2679 8591,2708 8711,2724 8831,2820 8952,2967 9072,2822 9192,2745 9313,2792 9433,2826 9553,2911 9674,3033 9794,2865 9914,2968 10035,3028 10155,3055 10275,3227 10396,3347 10516,3229 10637,3316 10757,3416 10877,3321 10998,3382 11118,3357 11238,3170 11359,3411 11479,3355 11599,3315 11720,3625 11840,3452 11960,3491 12081,3803 12201,3514 12321,3616 12442,3703 12562,3580 12682,3887 12803,3991 12923,3756 13044,3969 13164,4169 13284,4180 13405,4456 13525,4939 13645,4748 13766,4339 13886,4365 14006,4402 14127,4701 14247,4403 14367,4448 14488,4595 14608,4558 14728,4661 14849,5061 14969,5005 15090,4685 15090,6416 14969,6607 14849,6589 14728,6287 14608,6225 14488,6183 14367,6048 14247,5933 14127,6158 14006,5968 13886,5825 13766,5667 13645,5888 13525,5874 13405,5412 13284,5086 13164,5005 13044,4688 12923,4427 12803,4568 12682,4377 12562,3981 12442,3732 12321,3616 12201,3514 12081,3803 11960,3491 11840,3452 11720,3625 11599,3315 11479,3355 11359,3411 11238,3170 11118,3357 10998,3382 10877,3321 10757,3416 10637,3316 10516,3229 10396,3347 10275,3227 10155,3055 10035,3028 9914,2968 9794,2865 9674,3033 9553,2911 9433,2826 9313,2792 9192,2745 9072,2822 8952,2967 8831,2820 8711,2724 8591,2708 8470,2679 8350,2577 8231,2588 8110,2549 7990,2456 7869,2391 7749,2363 7629,2360 7508,2401 7388,2528 7268,2414 7147,2331 7027,2262 6907,2261 6786,2229 6666,2132 6546,2062 6425,2023 6305,2003 6185,1938 6064,1928 5944,1928 5823,1870 5703,1822 5583,1802 5462,1796 5342,1771 5222,1774 5101,1760 4981,1786 4861,1762 4740,1751 4620,1700 4500,1709 4379,1692 4259,1662 4139,1667 4018,1642 3898,1622 3778,1621 3657,1590 3537,1612 3416,1587 3296,1609 3176,1587 3055,1587 2935,1556 2815,1511 2694,1420 2574,1422 2454,1398 2333,1394 2213,1407 2093,1413 1972,1371 1852,1399 1732,1390 1611,1386 1491,1370 1371,1345 Z"/>
 <path fill="none" stroke="rgb(0,0,0)" stroke-linejoin="round" d="M 1371,1345 L 1491,1370 1611,1386 1732,1390 1852,1399 1972,1371 2093,1413 2213,1407 2333,1394 2454,1398 2574,1422 2694,1420 2815,1511 2935,1556 3055,1587 3176,1587 3296,1609 3416,1587 3537,1612 3657,1590 3778,1621 3898,1622 4018,1642 4139,1667 4259,1662 4379,1692 4500,1709 4620,1700 4740,1751 4861,1762 4981,1786 5101,1760 5222,1774 5342,1771 5462,1796 5583,1802 5703,1822 5823,1870 5944,1928 6064,1928 6185,1938 6305,2003 6425,2023 6546,2062 6666,2132 6786,2229 6907,2261 7027,2262 7147,2331 7268,2414 7388,2528 7508,2401 7629,2360 7749,2363 7869,2391 7990,2456 8110,2549 8231,2588 8350,2577 8470,2679 8591,2708 8711,2724 8831,2820 8952,2967 9072,2822 9192,2745 9313,2792 9433,2826 9553,2911 9674,3033 9794,2865 9914,2968 10035,3028 10155,3055 10275,3227 10396,3347 10516,3229 10637,3316 10757,3416 10877,3321 10998,3382 11118,3357 11238,3170 11359,3411 11479,3355 11599,3315 11720,3625 11840,3452 11960,3491 12081,3803 12201,3514 12321,3616 12442,3703 12562,3580 12682,3887 12803,3991 12923,3756 13044,3969 13164,4169 13284,4180 13405,4456 13525,4939 13645,4748 13766,4339 13886,4365 14006,4402 14127,4701 14247,4403 14367,4448 14488,4595 14608,4558 14728,4661 14849,5061 14969,5005 15090,4685 15090,6416 14969,6607 14849,6589 14728,6287 14608,6225 14488,6183 14367,6048 14247,5933 14127,6158 14006,5968 13886,5825 13766,5667 13645,5888 13525,5874 13405,5412 13284,5086 13164,5005 13044,4688 12923,4427 12803,4568 12682,4377 12562,3981 12442,3732 12321,3616 12201,3514 12081,3803 11960,3491 11840,3452 11720,3625 11599,3315 11479,3355 11359,3411 11238,3170 11118,3357 10998,3382 10877,3321 10757,3416 10637,3316 10516,3229 10396,3347 10275,3227 10155,3055 10035,3028 9914,2968 9794,2865 9674,3033 9553,2911 9433,2826 9313,2792 9192,2745 9072,2822 8952,2967 8831,2820 8711,2724 8591,2708 8470,2679 8350,2577 8231,2588 8110,2549 7990,2456 7869,2391 7749,2363 7629,2360 7508,2401 7388,2528 7268,2414 7147,2331 7027,2262 6907,2261 6786,2229 6666,2132 6546,2062 6425,2023 6305,2003 6185,1938 6064,1928 5944,1928 5823,1870 5703,1822 5583,1802 5462,1796 5342,1771 5222,1774 5101,1760 4981,1786 4861,1762 4740,1751 4620,1700 4500,1709 4379,1692 4259,1662 4139,1667 4018,1642 3898,1622 3778,1621 3657,1590 3537,1612 3416,1587 3296,1609 3176,1587 3055,1587 2935,1556 2815,1511 2694,1420 2574,1422 2454,1398 2333,1394 2213,1407 2093,1413 1972,1371 1852,1399 1732,1390 1611,1386 1491,1370 1371,1345 Z"/>
 <path fill="rgb(0,102,0)" stroke="none" d="M 1371,1015 L 1491,1024 1611,1027 1732,1033 1852,1036 1972,1039 2093,1052 2213,1052 2333,1053 2454,1057 2574,1061 2694,1054 2815,1113 2935,1128 3055,1134 3176,1150 3296,1158 3416,1140 3537,1158 3657,1138 3778,1154 3898,1153 4018,1150 4139,1161 4259,1170 4379,1200 4500,1215 4620,1218 4740,1238 4861,1250 4981,1280 5101,1264 5222,1287 5342,1290 5462,1315 5583,1325 5703,1340 5823,1388 5944,1424 6064,1430 6185,1434 6305,1486 6425,1513 6546,1549 6666,1597 6786,1688 6907,1681 7027,1632 7147,1754 7268,1850 7388,1970 7508,1784 7629,1778 7749,1782 7869,1821 7990,1864 8110,1940 8231,1967 8350,1951 8470,2063 8591,2081 8711,2120 8831,2221 8952,2373 9072,2238 9192,2147 9313,2191 9433,2216 9553,2309 9674,2431 9794,2226 9914,2321 10035,2401 10155,2431 10275,2608 10396,2736 10516,2617 10637,2708 10757,2835 10877,2788 10998,2862 11118,2827 11238,2657 11359,2850 11479,2782 11599,2741 11720,3085 11840,2915 11960,2927 12081,3256 12201,2944 12321,3039 12442,3123 12562,3002 12682,3318 12803,3409 12923,3236 13044,3462 13164,3627 13284,3632 13405,3932 13525,4340 13645,4191 13766,3771 13886,3821 14006,3900 14127,4254 14247,3968 14367,3993 14488,4199 14608,4142 14728,4262 14849,4683 14969,4624 15090,4274 15090,4685 14969,5005 14849,5061 14728,4661 14608,4558 14488,4595 14367,4448 14247,4403 14127,4701 14006,4402 13886,4365 13766,4339 13645,4748 13525,4939 13405,4456 13284,4180 13164,4169 13044,3969 12923,3756 12803,3991 12682,3887 12562,3580 12442,3703 12321,3616 12201,3514 12081,3803 11960,3491 11840,3452 11720,3625 11599,3315 11479,3355 11359,3411 11238,3170 11118,3357 10998,3382 10877,3321 10757,3416 10637,3316 10516,3229 10396,3347 10275,3227 10155,3055 10035,3028 9914,2968 9794,2865 9674,3033 9553,2911 9433,2826 9313,2792 9192,2745 9072,2822 8952,2967 8831,2820 8711,2724 8591,2708 8470,2679 8350,2577 8231,2588 8110,2549 7990,2456 7869,2391 7749,2363 7629,2360 7508,2401 7388,2528 7268,2414 7147,2331 7027,2262 6907,2261 6786,2229 6666,2132 6546,2062 6425,2023 6305,2003 6185,1938 6064,1928 5944,1928 5823,1870 5703,1822 5583,1802 5462,1796 5342,1771 5222,1774 5101,1760 4981,1786 4861,1762 4740,1751 4620,1700 4500,1709 4379,1692 4259,1662 4139,1667 4018,1642 3898,1622 3778,1621 3657,1590 3537,1612 3416,1587 3296,1609 3176,1587 3055,1587 2935,1556 2815,1511 2694,1420 2574,1422 2454,1398 2333,1394 2213,1407 2093,1413 1972,1371 1852,1399 1732,1390 1611,1386 1491,1370 1371,1345 1371,1015 Z"/>
 <path fill="none" stroke="rgb(0,0,0)" stroke-linejoin="round" d="M 1371,1015 L 1491,1024 1611,1027 1732,1033 1852,1036 1972,1039 2093,1052 2213,1052 2333,1053 2454,1057 2574,1061 2694,1054 2815,1113 2935,1128 3055,1134 3176,1150 3296,1158 3416,1140 3537,1158 3657,1138 3778,1154 3898,1153 4018,1150 4139,1161 4259,1170 4379,1200 4500,1215 4620,1218 4740,1238 4861,1250 4981,1280 5101,1264 5222,1287 5342,1290 5462,1315 5583,1325 5703,1340 5823,1388 5944,1424 6064,1430 6185,1434 6305,1486 6425,1513 6546,1549 6666,1597 6786,1688 6907,1681 7027,1632 7147,1754 7268,1850 7388,1970 7508,1784 7629,1778 7749,1782 7869,1821 7990,1864 8110,1940 8231,1967 8350,1951 8470,2063 8591,2081 8711,2120 8831,2221 8952,2373 9072,2238 9192,2147 9313,2191 9433,2216 9553,2309 9674,2431 9794,2226 9914,2321 10035,2401 10155,2431 10275,2608 10396,2736 10516,2617 10637,2708 10757,2835 10877,2788 10998,2862 11118,2827 11238,2657 11359,2850 11479,2782 11599,2741 11720,3085 11840,2915 11960,2927 12081,3256 12201,2944 12321,3039 12442,3123 12562,3002 12682,3318 12803,3409 12923,3236 13044,3462 13164,3627 13284,3632 13405,3932 13525,4340 13645,4191 13766,3771 13886,3821 14006,3900 14127,4254 14247,3968 14367,3993 14488,4199 14608,4142 14728,4262 14849,4683 14969,4624 15090,4274 15090,4685 14969,5005 14849,5061 14728,4661 14608,4558 14488,4595 14367,4448 14247,4403 14127,4701 14006,4402 13886,4365 13766,4339 13645,4748 13525,4939 13405,4456 13284,4180 13164,4169 13044,3969 12923,3756 12803,3991 12682,3887 12562,3580 12442,3703 12321,3616 12201,3514 12081,3803 11960,3491 11840,3452 11720,3625 11599,3315 11479,3355 11359,3411 11238,3170 11118,3357 10998,3382 10877,3321 10757,3416 10637,3316 10516,3229 10396,3347 10275,3227 10155,3055 10035,3028 9914,2968 9794,2865 9674,3033 9553,2911 9433,2826 9313,2792 9192,2745 9072,2822 8952,2967 8831,2820 8711,2724 8591,2708 8470,2679 8350,2577 8231,2588 8110,2549 7990,2456 7869,2391 7749,2363 7629,2360 7508,2401 7388,2528 7268,2414 7147,2331 7027,2262 6907,2261 6786,2229 6666,2132 6546,2062 6425,2023 6305,2003 6185,1938 6064,1928 5944,1928 5823,1870 5703,1822 5583,1802 5462,1796 5342,1771 5222,1774 5101,1760 4981,1786 4861,1762 4740,1751 4620,1700 4500,1709 4379,1692 4259,1662 4139,1667 4018,1642 3898,1622 3778,1621 3657,1590 3537,1612 3416,1587 3296,1609 3176,1587 3055,1587 2935,1556 2815,1511 2694,1420 2574,1422 2454,1398 2333,1394 2213,1407 2093,1413 1972,1371 1852,1399 1732,1390 1611,1386 1491,1370 1371,1345 1371,1015 Z"/>
 <path fill="rgb(255,211,32)" stroke="none" d="M 1371,1015 L 1491,1024 1611,1027 1732,1033 1852,1036 1972,1039 2093,1052 2213,1052 2333,1053 2454,1057 2574,1061 2694,1054 2815,1086 2935,1094 3055,1079 3176,1092 3296,1094 3416,1071 3537,1085 3657,1062 3778,1069 3898,1061 4018,1058 4139,1060 4259,1058 4379,1067 4500,1066 4620,1063 4740,1068 4861,1072 4981,1096 5101,1071 5222,1058 5342,1047 5462,1049 5583,1059 5703,1060 5823,1061 5944,1064 6064,1061 6185,1060 6305,1063 6425,1055 6546,1070 6666,1069 6786,1076 6907,1105 7027,1101 7147,1110 7268,1207 7388,1127 7508,1089 7629,1085 7749,1080 7869,1074 7990,1077 8110,1153 8231,1084 8350,1091 8470,1073 8591,1079 8711,1078 8831,1087 8952,1107 9072,1084 9192,1095 9313,1118 9433,1118 9553,1113 9674,1140 9794,1141 9914,1141 10035,1136 10155,1149 10275,1149 10396,1161 10516,1141 10637,1149 10757,1107 10877,1124 10998,1116 11118,1092 11238,1102 11359,1296 11479,1083 11599,1165 11720,1150 11840,1151 11960,1142 12081,1131 12201,1136 12321,1129 12442,1106 12562,1094 12682,1108 12803,1100 12923,1099 13044,1114 13164,1131 13284,1143 13405,1139 13525,1321 13645,1182 13766,1154 13886,1159 14006,1144 14127,1162 14247,1183 14367,1174 14488,1182 14608,1180 14728,1171 14849,1161 14969,1165 15090,1183 15090,4274 14969,4624 14849,4683 14728,4262 14608,4142 14488,4199 14367,3993 14247,3968 14127,4254 14006,3900 13886,3821 13766,3771 13645,4191 13525,4340 13405,3932 13284,3632 13164,3627 13044,3462 12923,3236 12803,3409 12682,3318 12562,3002 12442,3123 12321,3039 12201,2944 12081,3256 11960,2927 11840,2915 11720,3085 11599,2741 11479,2782 11359,2850 11238,2657 11118,2827 10998,2862 10877,2788 10757,2835 10637,2708 10516,2617 10396,2736 10275,2608 10155,2431 10035,2401 9914,2321 9794,2226 9674,2431 9553,2309 9433,2216 9313,2191 9192,2147 9072,2238 8952,2373 8831,2221 8711,2120 8591,2081 8470,2063 8350,1951 8231,1967 8110,1940 7990,1864 7869,1821 7749,1782 7629,1778 7508,1784 7388,1970 7268,1850 7147,1754 7027,1632 6907,1681 6786,1688 6666,1597 6546,1549 6425,1513 6305,1486 6185,1434 6064,1430 5944,1424 5823,1388 5703,1340 5583,1325 5462,1315 5342,1290 5222,1287 5101,1264 4981,1280 4861,1250 4740,1238 4620,1218 4500,1215 4379,1200 4259,1170 4139,1161 4018,1150 3898,1153 3778,1154 3657,1138 3537,1158 3416,1140 3296,1158 3176,1150 3055,1134 2935,1128 2815,1113 2694,1054 2574,1061 2454,1057 2333,1053 2213,1052 2093,1052 1972,1039 1852,1036 1732,1033 1611,1027 1491,1024 1371,1015 Z"/>
 <path fill="none" stroke="rgb(0,0,0)" stroke-linejoin="round" d="M 1371,1015 L 1491,1024 1611,1027 1732,1033 1852,1036 1972,1039 2093,1052 2213,1052 2333,1053 2454,1057 2574,1061 2694,1054 2815,1086 2935,1094 3055,1079 3176,1092 3296,1094 3416,1071 3537,1085 3657,1062 3778,1069 3898,1061 4018,1058 4139,1060 4259,1058 4379,1067 4500,1066 4620,1063 4740,1068 4861,1072 4981,1096 5101,1071 5222,1058 5342,1047 5462,1049 5583,1059 5703,1060 5823,1061 5944,1064 6064,1061 6185,1060 6305,1063 6425,1055 6546,1070 6666,1069 6786,1076 6907,1105 7027,1101 7147,1110 7268,1207 7388,1127 7508,1089 7629,1085 7749,1080 7869,1074 7990,1077 8110,1153 8231,1084 8350,1091 8470,1073 8591,1079 8711,1078 8831,1087 8952,1107 9072,1084 9192,1095 9313,1118 9433,1118 9553,1113 9674,1140 9794,1141 9914,1141 10035,1136 10155,1149 10275,1149 10396,1161 10516,1141 10637,1149 10757,1107 10877,1124 10998,1116 11118,1092 11238,1102 11359,1296 11479,1083 11599,1165 11720,1150 11840,1151 11960,1142 12081,1131 12201,1136 12321,1129 12442,1106 12562,1094 12682,1108 12803,1100 12923,1099 13044,1114 13164,1131 13284,1143 13405,1139 13525,1321 13645,1182 13766,1154 13886,1159 14006,1144 14127,1162 14247,1183 14367,1174 14488,1182 14608,1180 14728,1171 14849,1161 14969,1165 15090,1183 15090,4274 14969,4624 14849,4683 14728,4262 14608,4142 14488,4199 14367,3993 14247,3968 14127,4254 14006,3900 13886,3821 13766,3771 13645,4191 13525,4340 13405,3932 13284,3632 13164,3627 13044,3462 12923,3236 12803,3409 12682,3318 12562,3002 12442,3123 12321,3039 12201,2944 12081,3256 11960,2927 11840,2915 11720,3085 11599,2741 11479,2782 11359,2850 11238,2657 11118,2827 10998,2862 10877,2788 10757,2835 10637,2708 10516,2617 10396,2736 10275,2608 10155,2431 10035,2401 9914,2321 9794,2226 9674,2431 9553,2309 9433,2216 9313,2191 9192,2147 9072,2238 8952,2373 8831,2221 8711,2120 8591,2081 8470,2063 8350,1951 8231,1967 8110,1940 7990,1864 7869,1821 7749,1782 7629,1778 7508,1784 7388,1970 7268,1850 7147,1754 7027,1632 6907,1681 6786,1688 6666,1597 6546,1549 6425,1513 6305,1486 6185,1434 6064,1430 5944,1424 5823,1388 5703,1340 5583,1325 5462,1315 5342,1290 5222,1287 5101,1264 4981,1280 4861,1250 4740,1238 4620,1218 4500,1215 4379,1200 4259,1170 4139,1161 4018,1150 3898,1153 3778,1154 3657,1138 3537,1158 3416,1140 3296,1158 3176,1150 3055,1134 2935,1128 2815,1113 2694,1054 2574,1061 2454,1057 2333,1053 2213,1052 2093,1052 1972,1039 1852,1036 1732,1033 1611,1027 1491,1024 1371,1015 Z"/>
 <path fill="rgb(255,51,51)" stroke="none" d="M 1371,952 L 1491,956 1611,956 1732,960 1852,965 1972,965 2093,965 2213,967 2333,972 2454,978 2574,978 2694,979 2815,998 2935,999 3055,991 3176,997 3296,996 3416,967 3537,971 3657,965 3778,968 3898,971 4018,966 4139,968 4259,960 4379,969 4500,968 4620,969 4740,969 4861,971 4981,987 5101,968 5222,968 5342,965 5462,967 5583,976 5703,971 5823,969 5944,973 6064,973 6185,968 6305,973 6425,967 6546,979 6666,981 6786,980 6907,1005 7027,993 7147,993 7268,1082 7388,991 7508,986 7629,998 7749,993 7869,983 7990,985 8110,1064 8231,988 8350,994 8470,973 8591,972 8711,977 8831,985 8952,1007 9072,986 9192,992 9313,1010 9433,1010 9553,1009 9674,1014 9794,1001 9914,1006 10035,1006 10155,1006 10275,1020 10396,1043 10516,1021 10637,1024 10757,980 10877,986 10998,985 11118,960 11238,971 11359,1183 11479,984 11599,1058 11720,1049 11840,1032 11960,1026 12081,1018 12201,1014 12321,1006 12442,979 12562,969 12682,979 12803,986 12923,978 13044,994 13164,1010 13284,1018 13405,1019 13525,1219 13645,1065 13766,1014 13886,998 14006,1001 14127,1018 14247,1035 14367,1018 14488,1038 14608,1030 14728,1039 14849,1033 14969,1038 15090,1054 15090,1183 14969,1165 14849,1161 14728,1171 14608,1180 14488,1182 14367,1174 14247,1183 14127,1162 14006,1144 13886,1159 13766,1154 13645,1182 13525,1321 13405,1139 13284,1143 13164,1131 13044,1114 12923,1099 12803,1100 12682,1108 12562,1094 12442,1106 12321,1129 12201,1136 12081,1131 11960,1142 11840,1151 11720,1150 11599,1165 11479,1083 11359,1296 11238,1102 11118,1092 10998,1116 10877,1124 10757,1107 10637,1149 10516,1141 10396,1161 10275,1149 10155,1149 10035,1136 9914,1141 9794,1141 9674,1140 9553,1113 9433,1118 9313,1118 9192,1095 9072,1084 8952,1107 8831,1087 8711,1078 8591,1079 8470,1073 8350,1091 8231,1084 8110,1153 7990,1077 7869,1074 7749,1080 7629,1085 7508,1089 7388,1127 7268,1207 7147,1110 7027,1101 6907,1105 6786,1076 6666,1069 6546,1070 6425,1055 6305,1063 6185,1060 6064,1061 5944,1064 5823,1061 5703,1060 5583,1059 5462,1049 5342,1047 5222,1058 5101,1071 4981,1096 4861,1072 4740,1068 4620,1063 4500,1066 4379,1067 4259,1058 4139,1060 4018,1058 3898,1061 3778,1069 3657,1062 3537,1085 3416,1071 3296,1094 3176,1092 3055,1079 2935,1094 2815,1086 2694,1054 2574,1061 2454,1057 2333,1053 2213,1052 2093,1052 1972,1039 1852,1036 1732,1033 1611,1027 1491,1024 1371,1015 1371,952 Z"/>
 <path fill="none" stroke="rgb(0,0,0)" stroke-linejoin="round" d="M 1371,952 L 1491,956 1611,956 1732,960 1852,965 1972,965 2093,965 2213,967 2333,972 2454,978 2574,978 2694,979 2815,998 2935,999 3055,991 3176,997 3296,996 3416,967 3537,971 3657,965 3778,968 3898,971 4018,966 4139,968 4259,960 4379,969 4500,968 4620,969 4740,969 4861,971 4981,987 5101,968 5222,968 5342,965 5462,967 5583,976 5703,971 5823,969 5944,973 6064,973 6185,968 6305,973 6425,967 6546,979 6666,981 6786,980 6907,1005 7027,993 7147,993 7268,1082 7388,991 7508,986 7629,998 7749,993 7869,983 7990,985 8110,1064 8231,988 8350,994 8470,973 8591,972 8711,977 8831,985 8952,1007 9072,986 9192,992 9313,1010 9433,1010 9553,1009 9674,1014 9794,1001 9914,1006 10035,1006 10155,1006 10275,1020 10396,1043 10516,1021 10637,1024 10757,980 10877,986 10998,985 11118,960 11238,971 11359,1183 11479,984 11599,1058 11720,1049 11840,1032 11960,1026 12081,1018 12201,1014 12321,1006 12442,979 12562,969 12682,979 12803,986 12923,978 13044,994 13164,1010 13284,1018 13405,1019 13525,1219 13645,1065 13766,1014 13886,998 14006,1001 14127,1018 14247,1035 14367,1018 14488,1038 14608,1030 14728,1039 14849,1033 14969,1038 15090,1054 15090,1183 14969,1165 14849,1161 14728,1171 14608,1180 14488,1182 14367,1174 14247,1183 14127,1162 14006,1144 13886,1159 13766,1154 13645,1182 13525,1321 13405,1139 13284,1143 13164,1131 13044,1114 12923,1099 12803,1100 12682,1108 12562,1094 12442,1106 12321,1129 12201,1136 12081,1131 11960,1142 11840,1151 11720,1150 11599,1165 11479,1083 11359,1296 11238,1102 11118,1092 10998,1116 10877,1124 10757,1107 10637,1149 10516,1141 10396,1161 10275,1149 10155,1149 10035,1136 9914,1141 9794,1141 9674,1140 9553,1113 9433,1118 9313,1118 9192,1095 9072,1084 8952,1107 8831,1087 8711,1078 8591,1079 8470,1073 8350,1091 8231,1084 8110,1153 7990,1077 7869,1074 7749,1080 7629,1085 7508,1089 7388,1127 7268,1207 7147,1110 7027,1101 6907,1105 6786,1076 6666,1069 6546,1070 6425,1055 6305,1063 6185,1060 6064,1061 5944,1064 5823,1061 5703,1060 5583,1059 5462,1049 5342,1047 5222,1058 5101,1071 4981,1096 4861,1072 4740,1068 4620,1063 4500,1066 4379,1067 4259,1058 4139,1060 4018,1058 3898,1061 3778,1069 3657,1062 3537,1085 3416,1071 3296,1094 3176,1092 3055,1079 2935,1094 2815,1086 2694,1054 2574,1061 2454,1057 2333,1053 2213,1052 2093,1052 1972,1039 1852,1036 1732,1033 1611,1027 1491,1024 1371,1015 1371,952 Z"/>
 <path fill="rgb(255,255,255)" stroke="none" d="M 1371,930 L 1491,930 1611,930 1732,930 1972,930 2213,930 2333,930 2454,930 2574,930 2694,930 2815,930 2935,930 3055,930 3176,930 3296,930 3416,930 3537,930 3657,930 3778,930 3898,930 4018,930 4139,930 4259,930 4379,930 4500,930 4620,930 4740,930 4861,930 4981,930 5101,930 5222,930 5342,930 5462,930 5703,930 5823,930 5944,930 6064,930 6185,930 6305,930 6425,930 6666,930 6786,930 6907,930 7027,930 7147,930 7268,930 7388,930 7508,930 7629,930 7749,930 7869,930 7990,930 8110,930 8170,930 8350,930 8470,930 8591,930 8711,930 8952,930 9072,930 9252,930 9313,930 9433,930 9794,930 9914,930 10035,930 10235,930 10275,930 10396,930 10516,930 10637,930 10757,930 10877,930 10998,930 11038,930 11238,930 11359,930 11599,930 11720,930 11840,930 11960,930 12081,930 12201,930 12321,930 12442,930 12642,930 12682,930 12803,930 13044,930 13164,930 13284,930 13405,930 13525,930 13726,930 13766,930 13886,930 14006,930 14127,930 14568,930 14608,930 14648,930 14969,930 15090,930 15090,1054 14969,1038 14849,1033 14728,1039 14608,1030 14488,1038 14367,1018 14247,1035 14127,1018 14006,1001 13886,998 13766,1014 13645,1065 13525,1219 13405,1019 13284,1018 13164,1010 13044,994 12923,978 12803,986 12682,979 12562,969 12442,979 12321,1006 12201,1014 12081,1018 11960,1026 11840,1032 11720,1049 11599,1058 11479,984 11359,1183 11238,971 11118,960 10998,985 10877,986 10757,980 10637,1024 10516,1021 10396,1043 10275,1020 10155,1006 10035,1006 9914,1006 9794,1001 9674,1014 9553,1009 9433,1010 9313,1010 9192,992 9072,986 8952,1007 8831,985 8711,977 8591,972 8470,973 8350,994 8231,988 8110,1064 7990,985 7869,983 7749,993 7629,998 7508,986 7388,991 7268,1082 7147,993 7027,993 6907,1005 6786,980 6666,981 6546,979 6425,967 6305,973 6185,968 6064,973 5944,973 5823,969 5703,971 5583,976 5462,967 5342,965 5222,968 5101,968 4981,987 4861,971 4740,969 4620,969 4500,968 4379,969 4259,960 4139,968 4018,966 3898,971 3778,968 3657,965 3537,971 3416,967 3296,996 3176,997 3055,991 2935,999 2815,998 2694,979 2574,978 2454,978 2333,972 2213,967 2093,965 1972,965 1852,965 1732,960 1611,956 1491,956 1371,952 1371,930 Z"/>
 <text class="TextShape"><tspan class="TextParagraph" font-family="Arial, sans-serif" font-size="388px" font-weight="400"><tspan class="TextPosition" x="1187" y="11152"><tspan fill="rgb(0,0,0)" stroke="none">2008</tspan></tspan></tspan></text>
 <text class="TextShape"><tspan class="TextParagraph" font-family="Arial, sans-serif" font-size="388px" font-weight="400"><tspan class="TextPosition" x="2631" y="11152"><tspan fill="rgb(0,0,0)" stroke="none">2009</tspan></tspan></tspan></text>
 <text class="TextShape"><tspan class="TextParagraph" font-family="Arial, sans-serif" font-size="388px" font-weight="400"><tspan class="TextPosition" x="4076" y="11152"><tspan fill="rgb(0,0,0)" stroke="none">2010</tspan></tspan></tspan></text>
 <text class="TextShape"><tspan class="TextParagraph" font-family="Arial, sans-serif" font-size="388px" font-weight="400"><tspan class="TextPosition" x="5534" y="11152"><tspan fill="rgb(0,0,0)" stroke="none">2011</tspan></tspan></tspan></text>
 <text class="TextShape"><tspan class="TextParagraph" font-family="Arial, sans-serif" font-size="388px" font-weight="400"><tspan class="TextPosition" x="6964" y="11152"><tspan fill="rgb(0,0,0)" stroke="none">2012</tspan></tspan></tspan></text>
 <text class="TextShape"><tspan class="TextParagraph" font-family="Arial, sans-serif" font-size="388px" font-weight="400"><tspan class="TextPosition" x="8408" y="11152"><tspan fill="rgb(0,0,0)" stroke="none">2013</tspan></tspan></tspan></text>
 <text class="TextShape"><tspan class="TextParagraph" font-family="Arial, sans-serif" font-size="388px" font-weight="400"><tspan class="TextPosition" x="9852" y="11152"><tspan fill="rgb(0,0,0)" stroke="none">2014</tspan></tspan></tspan></text>
 <text class="TextShape"><tspan class="TextParagraph" font-family="Arial, sans-serif" font-size="388px" font-weight="400"><tspan class="TextPosition" x="11297" y="11152"><tspan fill="rgb(0,0,0)" stroke="none">2015</tspan></tspan></tspan></text>
 <text class="TextShape"><tspan class="TextParagraph" font-family="Arial, sans-serif" font-size="388px" font-weight="400"><tspan class="TextPosition" x="12741" y="11152"><tspan fill="rgb(0,0,0)" stroke="none">2016</tspan></tspan></tspan></text>
 <text class="TextShape"><tspan class="TextParagraph" font-family="Arial, sans-serif" font-size="388px" font-weight="400"><tspan class="TextPosition" x="14185" y="11152"><tspan fill="rgb(0,0,0)" stroke="none">2017</tspan></tspan></tspan></text>
 <text class="TextShape"><tspan class="TextParagraph" font-family="Arial, sans-serif" font-size="388px" font-weight="400"><tspan class="TextPosition" x="565" y="10692"><tspan fill="rgb(0,0,0)" stroke="none">0%</tspan></tspan></tspan></text>
 <text class="TextShape"><tspan class="TextParagraph" font-family="Arial, sans-serif" font-size="388px" font-weight="400"><tspan class="TextPosition" x="354" y="9729"><tspan fill="rgb(0,0,0)" stroke="none">10%</tspan></tspan></tspan></text>
 <text class="TextShape"><tspan class="TextParagraph" font-family="Arial, sans-serif" font-size="388px" font-weight="400"><tspan class="TextPosition" x="354" y="8766"><tspan fill="rgb(0,0,0)" stroke="none">20%</tspan></tspan></tspan></text>
 <text class="TextShape"><tspan class="TextParagraph" font-family="Arial, sans-serif" font-size="388px" font-weight="400"><tspan class="TextPosition" x="354" y="7803"><tspan fill="rgb(0,0,0)" stroke="none">30%</tspan></tspan></tspan></text>
 <text class="TextShape"><tspan class="TextParagraph" font-family="Arial, sans-serif" font-size="388px" font-weight="400"><tspan class="TextPosition" x="354" y="6840"><tspan fill="rgb(0,0,0)" stroke="none">40%</tspan></tspan></tspan></text>
 <text class="TextShape"><tspan class="TextParagraph" font-family="Arial, sans-serif" font-size="388px" font-weight="400"><tspan class="TextPosition" x="354" y="5877"><tspan fill="rgb(0,0,0)" stroke="none">50%</tspan></tspan></tspan></text>
 <text class="TextShape"><tspan class="TextParagraph" font-family="Arial, sans-serif" font-size="388px" font-weight="400"><tspan class="TextPosition" x="354" y="4914"><tspan fill="rgb(0,0,0)" stroke="none">60%</tspan></tspan></tspan></text>
 <text class="TextShape"><tspan class="TextParagraph" font-family="Arial, sans-serif" font-size="388px" font-weight="400"><tspan class="TextPosition" x="354" y="3951"><tspan fill="rgb(0,0,0)" stroke="none">70%</tspan></tspan></tspan></text>
 <text class="TextShape"><tspan class="TextParagraph" font-family="Arial, sans-serif" font-size="388px" font-weight="400"><tspan class="TextPosition" x="354" y="2988"><tspan fill="rgb(0,0,0)" stroke="none">80%</tspan></tspan></tspan></text>
 <text class="TextShape"><tspan class="TextParagraph" font-family="Arial, sans-serif" font-size="388px" font-weight="400"><tspan class="TextPosition" x="354" y="2025"><tspan fill="rgb(0,0,0)" stroke="none">90%</tspan></tspan></tspan></text>
 <text class="TextShape"><tspan class="TextParagraph" font-family="Arial, sans-serif" font-size="388px" font-weight="400"><tspan class="TextPosition" x="142" y="1063"><tspan fill="rgb(0,0,0)" stroke="none">100%</tspan></tspan></tspan></text>
 <text class="TextShape"><tspan class="TextParagraph" font-family="Arial, sans-serif" font-size="388px" font-weight="400"><tspan class="TextPosition" x="15340" y="10692"><tspan fill="rgb(0,0,0)" stroke="none">0%</tspan></tspan></tspan></text>
 <text class="TextShape"><tspan class="TextParagraph" font-family="Arial, sans-serif" font-size="388px" font-weight="400"><tspan class="TextPosition" x="15340" y="9729"><tspan fill="rgb(0,0,0)" stroke="none">10%</tspan></tspan></tspan></text>
 <text class="TextShape"><tspan class="TextParagraph" font-family="Arial, sans-serif" font-size="388px" font-weight="400"><tspan class="TextPosition" x="15340" y="8766"><tspan fill="rgb(0,0,0)" stroke="none">20%</tspan></tspan></tspan></text>
 <text class="TextShape"><tspan class="TextParagraph" font-family="Arial, sans-serif" font-size="388px" font-weight="400"><tspan class="TextPosition" x="15340" y="7803"><tspan fill="rgb(0,0,0)" stroke="none">30%</tspan></tspan></tspan></text>
 <text class="TextShape"><tspan class="TextParagraph" font-family="Arial, sans-serif" font-size="388px" font-weight="400"><tspan class="TextPosition" x="15340" y="6840"><tspan fill="rgb(0,0,0)" stroke="none">40%</tspan></tspan></tspan></text>
 <text class="TextShape"><tspan class="TextParagraph" font-family="Arial, sans-serif" font-size="388px" font-weight="400"><tspan class="TextPosition" x="15340" y="5877"><tspan fill="rgb(0,0,0)" stroke="none">50%</tspan></tspan></tspan></text>
 <text class="TextShape"><tspan class="TextParagraph" font-family="Arial, sans-serif" font-size="388px" font-weight="400"><tspan class="TextPosition" x="15340" y="4914"><tspan fill="rgb(0,0,0)" stroke="none">60%</tspan></tspan></tspan></text>
 <text class="TextShape"><tspan class="TextParagraph" font-family="Arial, sans-serif" font-size="388px" font-weight="400"><tspan class="TextPosition" x="15340" y="3951"><tspan fill="rgb(0,0,0)" stroke="none">70%</tspan></tspan></tspan></text>
 <text class="TextShape"><tspan class="TextParagraph" font-family="Arial, sans-serif" font-size="388px" font-weight="400"><tspan class="TextPosition" x="15340" y="2988"><tspan fill="rgb(0,0,0)" stroke="none">80%</tspan></tspan></tspan></text>
 <text class="TextShape"><tspan class="TextParagraph" font-family="Arial, sans-serif" font-size="388px" font-weight="400"><tspan class="TextPosition" x="15340" y="2025"><tspan fill="rgb(0,0,0)" stroke="none">90%</tspan></tspan></tspan></text>
 <text class="TextShape"><tspan class="TextParagraph" font-family="Arial, sans-serif" font-size="388px" font-weight="400"><tspan class="TextPosition" x="15340" y="1063"><tspan fill="rgb(0,0,0)" stroke="none">100%</tspan></tspan></tspan></text>
 <text class="TextShape"><tspan class="TextParagraph" font-family="Arial, sans-serif" font-size="635px" font-weight="700"><tspan class="TextPosition" x="3372" y="747"><tspan fill="rgb(0,0,0)" stroke="none">Utilizacin de sistemas operativos</tspan></tspan></tspan></text>
 <path fill="rgb(0,69,134)" stroke="none" d="M 10750,12057 L 10644,12057 10644,11846 10855,11846 10855,12057 10750,12057 Z"/>
 <path fill="none" stroke="rgb(0,0,0)" stroke-linejoin="round" d="M 10750,12057 L 10644,12057 10644,11846 10855,11846 10855,12057 10750,12057 Z"/>
 <path fill="rgb(51,153,102)" stroke="none" d="M 9112,12057 L 9006,12057 9006,11846 9217,11846 9217,12057 9112,12057 Z"/>
 <path fill="none" stroke="rgb(0,0,0)" stroke-linejoin="round" d="M 9112,12057 L 9006,12057 9006,11846 9217,11846 9217,12057 9112,12057 Z"/>
 <path fill="rgb(131,202,255)" stroke="none" d="M 7421,12057 L 7316,12057 7316,11846 7527,11846 7527,12057 7421,12057 Z"/>
 <path fill="rgb(0,204,255)" stroke="none" d="M 5466,12057 L 5361,12057 5361,11846 5572,11846 5572,12057 5466,12057 Z"/>
 <path fill="none" stroke="rgb(0,0,0)" stroke-linejoin="round" d="M 5466,12057 L 5361,12057 5361,11846 5572,11846 5572,12057 5466,12057 Z"/>
 <path fill="rgb(0,102,204)" stroke="none" d="M 4093,12057 L 3988,12057 3988,11846 4199,11846 4199,12057 4093,12057 Z"/>
 <path fill="none" stroke="rgb(0,0,0)" stroke-linejoin="round" d="M 4093,12057 L 3988,12057 3988,11846 4199,11846 4199,12057 4093,12057 Z"/>
 <path fill="rgb(0,132,209)" stroke="none" d="M 12361,11498 L 12255,11498 12255,11287 12466,11287 12466,11498 12361,11498 Z"/>
 <path fill="none" stroke="rgb(0,0,0)" stroke-linejoin="round" d="M 12361,11498 L 12255,11498 12255,11287 12466,11287 12466,11498 12361,11498 Z"/>
 <path fill="rgb(0,69,134)" stroke="none" d="M 10750,11498 L 10644,11498 10644,11287 10855,11287 10855,11498 10750,11498 Z"/>
 <path fill="none" stroke="rgb(0,0,0)" stroke-linejoin="round" d="M 10750,11498 L 10644,11498 10644,11287 10855,11287 10855,11498 10750,11498 Z"/>
 <path fill="rgb(0,102,0)" stroke="none" d="M 9112,11498 L 9006,11498 9006,11287 9217,11287 9217,11498 9112,11498 Z"/>
 <path fill="none" stroke="rgb(0,0,0)" stroke-linejoin="round" d="M 9112,11498 L 9006,11498 9006,11287 9217,11287 9217,11498 9112,11498 Z"/>
 <path fill="rgb(255,211,32)" stroke="none" d="M 7421,11498 L 7316,11498 7316,11287 7527,11287 7527,11498 7421,11498 Z"/>
 <path fill="none" stroke="rgb(0,0,0)" stroke-linejoin="round" d="M 7421,11498 L 7316,11498 7316,11287 7527,11287 7527,11498 7421,11498 Z"/>
 <path fill="rgb(255,51,51)" stroke="none" d="M 5466,11498 L 5361,11498 5361,11287 5572,11287 5572,11498 5466,11498 Z"/>
 <path fill="none" stroke="rgb(0,0,0)" stroke-linejoin="round" d="M 5466,11498 L 5361,11498 5361,11287 5572,11287 5572,11498 5466,11498 Z"/>
 <path fill="rgb(255,255,255)" stroke="none" d="M 4093,11498 L 3988,11498 3988,11287 4199,11287 4199,11498 4093,11498 Z"/>
 <text class="TextShape"><tspan class="TextParagraph" font-family="Arial, sans-serif" font-size="353px" font-weight="400"><tspan class="TextPosition" x="4299" y="11511"><tspan fill="rgb(0,0,0)" stroke="none">Otros</tspan></tspan></tspan></text>
 <text class="TextShape"><tspan class="TextParagraph" font-family="Arial, sans-serif" font-size="353px" font-weight="400"><tspan class="TextPosition" x="5672" y="11511"><tspan fill="rgb(0,0,0)" stroke="none">Linux</tspan></tspan></tspan></text>
 <text class="TextShape"><tspan class="TextParagraph" font-family="Arial, sans-serif" font-size="353px" font-weight="400"><tspan class="TextPosition" x="7627" y="11511"><tspan fill="rgb(0,0,0)" stroke="none">Mviles</tspan></tspan></tspan></text>
 <text class="TextShape"><tspan class="TextParagraph" font-family="Arial, sans-serif" font-size="353px" font-weight="400"><tspan class="TextPosition" x="9317" y="11511"><tspan fill="rgb(0,0,0)" stroke="none">Mac</tspan></tspan></tspan></text>
 <text class="TextShape"><tspan class="TextParagraph" font-family="Arial, sans-serif" font-size="353px" font-weight="400"><tspan class="TextPosition" x="10955" y="11511"><tspan fill="rgb(0,0,0)" stroke="none">Win 10</tspan></tspan></tspan></text>
 <text class="TextShape"><tspan class="TextParagraph" font-family="Arial, sans-serif" font-size="353px" font-weight="400"><tspan class="TextPosition" x="12566" y="11511"><tspan fill="rgb(0,0,0)" stroke="none">Win 8</tspan></tspan></tspan></text>
 <text class="TextShape"><tspan class="TextParagraph" font-family="Arial, sans-serif" font-size="353px" font-weight="400"><tspan class="TextPosition" x="4299" y="12070"><tspan fill="rgb(0,0,0)" stroke="none">Win 7</tspan></tspan></tspan></text>
 <text class="TextShape"><tspan class="TextParagraph" font-family="Arial, sans-serif" font-size="353px" font-weight="400"><tspan class="TextPosition" x="5672" y="12070"><tspan fill="rgb(0,0,0)" stroke="none">Win Vista</tspan></tspan></tspan></text>
 <text class="TextShape"><tspan class="TextParagraph" font-family="Arial, sans-serif" font-size="353px" font-weight="400"><tspan class="TextPosition" x="7627" y="12070"><tspan fill="rgb(0,0,0)" stroke="none">Win XP</tspan></tspan></tspan></text>
 <text class="TextShape"><tspan class="TextParagraph" font-family="Arial, sans-serif" font-size="353px" font-weight="400"><tspan class="TextPosition" x="9317" y="12070"><tspan fill="rgb(0,0,0)" stroke="none">Win NT</tspan></tspan></tspan></text>
 <text class="TextShape"><tspan class="TextParagraph" font-family="Arial, sans-serif" font-size="353px" font-weight="400"><tspan class="TextPosition" x="10955" y="12070"><tspan fill="rgb(0,0,0)" stroke="none">Win 9X</tspan></tspan></tspan></text>
</svg>
