<?xml version="1.0" encoding="UTF-8"?>
<!DOCTYPE svg PUBLIC "-//W3C//DTD SVG 1.1//EN" "http://www.w3.org/Graphics/SVG/1.1/DTD/svg11.dtd">
<svg width="159mm" height="119mm" viewBox="0 0 15900 11900" version="1.1" xmlns="http://www.w3.org/2000/svg" stroke-width="28.222" stroke-linejoin="round" xml:space="preserve">
 <path fill="rgb(255,255,255)" stroke="none" d="M 7925,11930 L 0,11930 0,0 15850,0 15850,11930 7925,11930 Z"/>
 <path fill="none" stroke="rgb(0,0,0)" stroke-width="50" stroke-linejoin="round" d="M 7985,10699 L 1366,10699 1366,1096 14604,1096 14604,10699 7985,10699 Z"/>
 <path fill="none" stroke="rgb(179,179,179)" stroke-linejoin="round" d="M 14604,10698 L 1366,10698"/>
 <path fill="none" stroke="rgb(179,179,179)" stroke-linejoin="round" d="M 14604,9737 L 1366,9737"/>
 <path fill="none" stroke="rgb(179,179,179)" stroke-linejoin="round" d="M 14604,8777 L 1366,8777"/>
 <path fill="none" stroke="rgb(179,179,179)" stroke-linejoin="round" d="M 14604,7816 L 1366,7816"/>
 <path fill="none" stroke="rgb(179,179,179)" stroke-linejoin="round" d="M 14604,6856 L 1366,6856"/>
 <path fill="none" stroke="rgb(179,179,179)" stroke-linejoin="round" d="M 14604,5897 L 1366,5897"/>
 <path fill="none" stroke="rgb(179,179,179)" stroke-linejoin="round" d="M 14604,4936 L 1366,4936"/>
 <path fill="none" stroke="rgb(179,179,179)" stroke-linejoin="round" d="M 14604,3976 L 1366,3976"/>
 <path fill="none" stroke="rgb(179,179,179)" stroke-linejoin="round" d="M 14604,3015 L 1366,3015"/>
 <path fill="none" stroke="rgb(179,179,179)" stroke-linejoin="round" d="M 14604,2055 L 1366,2055"/>
 <path fill="none" stroke="rgb(179,179,179)" stroke-linejoin="round" d="M 14604,1095 L 1366,1095"/>
 <path fill="none" stroke="rgb(0,0,0)" stroke-width="30" stroke-linejoin="round" d="M 1366,10848 L 1366,10698"/>
 <path fill="none" stroke="rgb(0,0,0)" stroke-width="30" stroke-linejoin="round" d="M 1366,10848 L 1366,10698"/>
 <path fill="none" stroke="rgb(0,0,0)" stroke-width="30" stroke-linejoin="round" d="M 1481,10848 L 1481,10698"/>
 <path fill="none" stroke="rgb(0,0,0)" stroke-width="30" stroke-linejoin="round" d="M 1481,10848 L 1481,10698"/>
 <path fill="none" stroke="rgb(0,0,0)" stroke-width="30" stroke-linejoin="round" d="M 1596,10848 L 1596,10698"/>
 <path fill="none" stroke="rgb(0,0,0)" stroke-width="30" stroke-linejoin="round" d="M 1596,10848 L 1596,10698"/>
 <path fill="none" stroke="rgb(0,0,0)" stroke-width="30" stroke-linejoin="round" d="M 1711,10848 L 1711,10698"/>
 <path fill="none" stroke="rgb(0,0,0)" stroke-width="30" stroke-linejoin="round" d="M 1711,10848 L 1711,10698"/>
 <path fill="none" stroke="rgb(0,0,0)" stroke-width="30" stroke-linejoin="round" d="M 1826,10848 L 1826,10698"/>
 <path fill="none" stroke="rgb(0,0,0)" stroke-width="30" stroke-linejoin="round" d="M 1826,10848 L 1826,10698"/>
 <path fill="none" stroke="rgb(0,0,0)" stroke-width="30" stroke-linejoin="round" d="M 1941,10848 L 1941,10698"/>
 <path fill="none" stroke="rgb(0,0,0)" stroke-width="30" stroke-linejoin="round" d="M 1941,10848 L 1941,10698"/>
 <path fill="none" stroke="rgb(0,0,0)" stroke-width="30" stroke-linejoin="round" d="M 2056,10848 L 2056,10698"/>
 <path fill="none" stroke="rgb(0,0,0)" stroke-width="30" stroke-linejoin="round" d="M 2056,10848 L 2056,10698"/>
 <path fill="none" stroke="rgb(0,0,0)" stroke-width="30" stroke-linejoin="round" d="M 2171,10848 L 2171,10698"/>
 <path fill="none" stroke="rgb(0,0,0)" stroke-width="30" stroke-linejoin="round" d="M 2171,10848 L 2171,10698"/>
 <path fill="none" stroke="rgb(0,0,0)" stroke-width="30" stroke-linejoin="round" d="M 2286,10848 L 2286,10698"/>
 <path fill="none" stroke="rgb(0,0,0)" stroke-width="30" stroke-linejoin="round" d="M 2286,10848 L 2286,10698"/>
 <path fill="none" stroke="rgb(0,0,0)" stroke-width="30" stroke-linejoin="round" d="M 2402,10848 L 2402,10698"/>
 <path fill="none" stroke="rgb(0,0,0)" stroke-width="30" stroke-linejoin="round" d="M 2402,10848 L 2402,10698"/>
 <path fill="none" stroke="rgb(0,0,0)" stroke-width="30" stroke-linejoin="round" d="M 2517,10848 L 2517,10698"/>
 <path fill="none" stroke="rgb(0,0,0)" stroke-width="30" stroke-linejoin="round" d="M 2517,10848 L 2517,10698"/>
 <path fill="none" stroke="rgb(0,0,0)" stroke-width="30" stroke-linejoin="round" d="M 2632,10848 L 2632,10698"/>
 <path fill="none" stroke="rgb(0,0,0)" stroke-width="30" stroke-linejoin="round" d="M 2632,10848 L 2632,10698"/>
 <path fill="none" stroke="rgb(0,0,0)" stroke-width="30" stroke-linejoin="round" d="M 2747,10848 L 2747,10698"/>
 <path fill="none" stroke="rgb(0,0,0)" stroke-width="30" stroke-linejoin="round" d="M 2747,10848 L 2747,10698"/>
 <path fill="none" stroke="rgb(0,0,0)" stroke-width="30" stroke-linejoin="round" d="M 2862,10848 L 2862,10698"/>
 <path fill="none" stroke="rgb(0,0,0)" stroke-width="30" stroke-linejoin="round" d="M 2862,10848 L 2862,10698"/>
 <path fill="none" stroke="rgb(0,0,0)" stroke-width="30" stroke-linejoin="round" d="M 2977,10848 L 2977,10698"/>
 <path fill="none" stroke="rgb(0,0,0)" stroke-width="30" stroke-linejoin="round" d="M 2977,10848 L 2977,10698"/>
 <path fill="none" stroke="rgb(0,0,0)" stroke-width="30" stroke-linejoin="round" d="M 3092,10848 L 3092,10698"/>
 <path fill="none" stroke="rgb(0,0,0)" stroke-width="30" stroke-linejoin="round" d="M 3092,10848 L 3092,10698"/>
 <path fill="none" stroke="rgb(0,0,0)" stroke-width="30" stroke-linejoin="round" d="M 3207,10848 L 3207,10698"/>
 <path fill="none" stroke="rgb(0,0,0)" stroke-width="30" stroke-linejoin="round" d="M 3207,10848 L 3207,10698"/>
 <path fill="none" stroke="rgb(0,0,0)" stroke-width="30" stroke-linejoin="round" d="M 3323,10848 L 3323,10698"/>
 <path fill="none" stroke="rgb(0,0,0)" stroke-width="30" stroke-linejoin="round" d="M 3323,10848 L 3323,10698"/>
 <path fill="none" stroke="rgb(0,0,0)" stroke-width="30" stroke-linejoin="round" d="M 3438,10848 L 3438,10698"/>
 <path fill="none" stroke="rgb(0,0,0)" stroke-width="30" stroke-linejoin="round" d="M 3438,10848 L 3438,10698"/>
 <path fill="none" stroke="rgb(0,0,0)" stroke-width="30" stroke-linejoin="round" d="M 3553,10848 L 3553,10698"/>
 <path fill="none" stroke="rgb(0,0,0)" stroke-width="30" stroke-linejoin="round" d="M 3553,10848 L 3553,10698"/>
 <path fill="none" stroke="rgb(0,0,0)" stroke-width="30" stroke-linejoin="round" d="M 3668,10848 L 3668,10698"/>
 <path fill="none" stroke="rgb(0,0,0)" stroke-width="30" stroke-linejoin="round" d="M 3668,10848 L 3668,10698"/>
 <path fill="none" stroke="rgb(0,0,0)" stroke-width="30" stroke-linejoin="round" d="M 3783,10848 L 3783,10698"/>
 <path fill="none" stroke="rgb(0,0,0)" stroke-width="30" stroke-linejoin="round" d="M 3783,10848 L 3783,10698"/>
 <path fill="none" stroke="rgb(0,0,0)" stroke-width="30" stroke-linejoin="round" d="M 3898,10848 L 3898,10698"/>
 <path fill="none" stroke="rgb(0,0,0)" stroke-width="30" stroke-linejoin="round" d="M 3898,10848 L 3898,10698"/>
 <path fill="none" stroke="rgb(0,0,0)" stroke-width="30" stroke-linejoin="round" d="M 4013,10848 L 4013,10698"/>
 <path fill="none" stroke="rgb(0,0,0)" stroke-width="30" stroke-linejoin="round" d="M 4013,10848 L 4013,10698"/>
 <path fill="none" stroke="rgb(0,0,0)" stroke-width="30" stroke-linejoin="round" d="M 4128,10848 L 4128,10698"/>
 <path fill="none" stroke="rgb(0,0,0)" stroke-width="30" stroke-linejoin="round" d="M 4128,10848 L 4128,10698"/>
 <path fill="none" stroke="rgb(0,0,0)" stroke-width="30" stroke-linejoin="round" d="M 4244,10848 L 4244,10698"/>
 <path fill="none" stroke="rgb(0,0,0)" stroke-width="30" stroke-linejoin="round" d="M 4244,10848 L 4244,10698"/>
 <path fill="none" stroke="rgb(0,0,0)" stroke-width="30" stroke-linejoin="round" d="M 4359,10848 L 4359,10698"/>
 <path fill="none" stroke="rgb(0,0,0)" stroke-width="30" stroke-linejoin="round" d="M 4359,10848 L 4359,10698"/>
 <path fill="none" stroke="rgb(0,0,0)" stroke-width="30" stroke-linejoin="round" d="M 4474,10848 L 4474,10698"/>
 <path fill="none" stroke="rgb(0,0,0)" stroke-width="30" stroke-linejoin="round" d="M 4474,10848 L 4474,10698"/>
 <path fill="none" stroke="rgb(0,0,0)" stroke-width="30" stroke-linejoin="round" d="M 4589,10848 L 4589,10698"/>
 <path fill="none" stroke="rgb(0,0,0)" stroke-width="30" stroke-linejoin="round" d="M 4589,10848 L 4589,10698"/>
 <path fill="none" stroke="rgb(0,0,0)" stroke-width="30" stroke-linejoin="round" d="M 4704,10848 L 4704,10698"/>
 <path fill="none" stroke="rgb(0,0,0)" stroke-width="30" stroke-linejoin="round" d="M 4704,10848 L 4704,10698"/>
 <path fill="none" stroke="rgb(0,0,0)" stroke-width="30" stroke-linejoin="round" d="M 4819,10848 L 4819,10698"/>
 <path fill="none" stroke="rgb(0,0,0)" stroke-width="30" stroke-linejoin="round" d="M 4819,10848 L 4819,10698"/>
 <path fill="none" stroke="rgb(0,0,0)" stroke-width="30" stroke-linejoin="round" d="M 4934,10848 L 4934,10698"/>
 <path fill="none" stroke="rgb(0,0,0)" stroke-width="30" stroke-linejoin="round" d="M 4934,10848 L 4934,10698"/>
 <path fill="none" stroke="rgb(0,0,0)" stroke-width="30" stroke-linejoin="round" d="M 5049,10848 L 5049,10698"/>
 <path fill="none" stroke="rgb(0,0,0)" stroke-width="30" stroke-linejoin="round" d="M 5049,10848 L 5049,10698"/>
 <path fill="none" stroke="rgb(0,0,0)" stroke-width="30" stroke-linejoin="round" d="M 5165,10848 L 5165,10698"/>
 <path fill="none" stroke="rgb(0,0,0)" stroke-width="30" stroke-linejoin="round" d="M 5165,10848 L 5165,10698"/>
 <path fill="none" stroke="rgb(0,0,0)" stroke-width="30" stroke-linejoin="round" d="M 5280,10848 L 5280,10698"/>
 <path fill="none" stroke="rgb(0,0,0)" stroke-width="30" stroke-linejoin="round" d="M 5280,10848 L 5280,10698"/>
 <path fill="none" stroke="rgb(0,0,0)" stroke-width="30" stroke-linejoin="round" d="M 5395,10848 L 5395,10698"/>
 <path fill="none" stroke="rgb(0,0,0)" stroke-width="30" stroke-linejoin="round" d="M 5395,10848 L 5395,10698"/>
 <path fill="none" stroke="rgb(0,0,0)" stroke-width="30" stroke-linejoin="round" d="M 5510,10848 L 5510,10698"/>
 <path fill="none" stroke="rgb(0,0,0)" stroke-width="30" stroke-linejoin="round" d="M 5510,10848 L 5510,10698"/>
 <path fill="none" stroke="rgb(0,0,0)" stroke-width="30" stroke-linejoin="round" d="M 5625,10848 L 5625,10698"/>
 <path fill="none" stroke="rgb(0,0,0)" stroke-width="30" stroke-linejoin="round" d="M 5625,10848 L 5625,10698"/>
 <path fill="none" stroke="rgb(0,0,0)" stroke-width="30" stroke-linejoin="round" d="M 5740,10848 L 5740,10698"/>
 <path fill="none" stroke="rgb(0,0,0)" stroke-width="30" stroke-linejoin="round" d="M 5740,10848 L 5740,10698"/>
 <path fill="none" stroke="rgb(0,0,0)" stroke-width="30" stroke-linejoin="round" d="M 5855,10848 L 5855,10698"/>
 <path fill="none" stroke="rgb(0,0,0)" stroke-width="30" stroke-linejoin="round" d="M 5855,10848 L 5855,10698"/>
 <path fill="none" stroke="rgb(0,0,0)" stroke-width="30" stroke-linejoin="round" d="M 5970,10848 L 5970,10698"/>
 <path fill="none" stroke="rgb(0,0,0)" stroke-width="30" stroke-linejoin="round" d="M 5970,10848 L 5970,10698"/>
 <path fill="none" stroke="rgb(0,0,0)" stroke-width="30" stroke-linejoin="round" d="M 6085,10848 L 6085,10698"/>
 <path fill="none" stroke="rgb(0,0,0)" stroke-width="30" stroke-linejoin="round" d="M 6085,10848 L 6085,10698"/>
 <path fill="none" stroke="rgb(0,0,0)" stroke-width="30" stroke-linejoin="round" d="M 6201,10848 L 6201,10698"/>
 <path fill="none" stroke="rgb(0,0,0)" stroke-width="30" stroke-linejoin="round" d="M 6201,10848 L 6201,10698"/>
 <path fill="none" stroke="rgb(0,0,0)" stroke-width="30" stroke-linejoin="round" d="M 6316,10848 L 6316,10698"/>
 <path fill="none" stroke="rgb(0,0,0)" stroke-width="30" stroke-linejoin="round" d="M 6316,10848 L 6316,10698"/>
 <path fill="none" stroke="rgb(0,0,0)" stroke-width="30" stroke-linejoin="round" d="M 6431,10848 L 6431,10698"/>
 <path fill="none" stroke="rgb(0,0,0)" stroke-width="30" stroke-linejoin="round" d="M 6431,10848 L 6431,10698"/>
 <path fill="none" stroke="rgb(0,0,0)" stroke-width="30" stroke-linejoin="round" d="M 6546,10848 L 6546,10698"/>
 <path fill="none" stroke="rgb(0,0,0)" stroke-width="30" stroke-linejoin="round" d="M 6546,10848 L 6546,10698"/>
 <path fill="none" stroke="rgb(0,0,0)" stroke-width="30" stroke-linejoin="round" d="M 6661,10848 L 6661,10698"/>
 <path fill="none" stroke="rgb(0,0,0)" stroke-width="30" stroke-linejoin="round" d="M 6661,10848 L 6661,10698"/>
 <path fill="none" stroke="rgb(0,0,0)" stroke-width="30" stroke-linejoin="round" d="M 6776,10848 L 6776,10698"/>
 <path fill="none" stroke="rgb(0,0,0)" stroke-width="30" stroke-linejoin="round" d="M 6776,10848 L 6776,10698"/>
 <path fill="none" stroke="rgb(0,0,0)" stroke-width="30" stroke-linejoin="round" d="M 6891,10848 L 6891,10698"/>
 <path fill="none" stroke="rgb(0,0,0)" stroke-width="30" stroke-linejoin="round" d="M 6891,10848 L 6891,10698"/>
 <path fill="none" stroke="rgb(0,0,0)" stroke-width="30" stroke-linejoin="round" d="M 7006,10848 L 7006,10698"/>
 <path fill="none" stroke="rgb(0,0,0)" stroke-width="30" stroke-linejoin="round" d="M 7006,10848 L 7006,10698"/>
 <path fill="none" stroke="rgb(0,0,0)" stroke-width="30" stroke-linejoin="round" d="M 7122,10848 L 7122,10698"/>
 <path fill="none" stroke="rgb(0,0,0)" stroke-width="30" stroke-linejoin="round" d="M 7122,10848 L 7122,10698"/>
 <path fill="none" stroke="rgb(0,0,0)" stroke-width="30" stroke-linejoin="round" d="M 7237,10848 L 7237,10698"/>
 <path fill="none" stroke="rgb(0,0,0)" stroke-width="30" stroke-linejoin="round" d="M 7237,10848 L 7237,10698"/>
 <path fill="none" stroke="rgb(0,0,0)" stroke-width="30" stroke-linejoin="round" d="M 7352,10848 L 7352,10698"/>
 <path fill="none" stroke="rgb(0,0,0)" stroke-width="30" stroke-linejoin="round" d="M 7352,10848 L 7352,10698"/>
 <path fill="none" stroke="rgb(0,0,0)" stroke-width="30" stroke-linejoin="round" d="M 7467,10848 L 7467,10698"/>
 <path fill="none" stroke="rgb(0,0,0)" stroke-width="30" stroke-linejoin="round" d="M 7467,10848 L 7467,10698"/>
 <path fill="none" stroke="rgb(0,0,0)" stroke-width="30" stroke-linejoin="round" d="M 7582,10848 L 7582,10698"/>
 <path fill="none" stroke="rgb(0,0,0)" stroke-width="30" stroke-linejoin="round" d="M 7582,10848 L 7582,10698"/>
 <path fill="none" stroke="rgb(0,0,0)" stroke-width="30" stroke-linejoin="round" d="M 7697,10848 L 7697,10698"/>
 <path fill="none" stroke="rgb(0,0,0)" stroke-width="30" stroke-linejoin="round" d="M 7697,10848 L 7697,10698"/>
 <path fill="none" stroke="rgb(0,0,0)" stroke-width="30" stroke-linejoin="round" d="M 7812,10848 L 7812,10698"/>
 <path fill="none" stroke="rgb(0,0,0)" stroke-width="30" stroke-linejoin="round" d="M 7812,10848 L 7812,10698"/>
 <path fill="none" stroke="rgb(0,0,0)" stroke-width="30" stroke-linejoin="round" d="M 7926,10848 L 7926,10698"/>
 <path fill="none" stroke="rgb(0,0,0)" stroke-width="30" stroke-linejoin="round" d="M 7926,10848 L 7926,10698"/>
 <path fill="none" stroke="rgb(0,0,0)" stroke-width="30" stroke-linejoin="round" d="M 8042,10848 L 8042,10698"/>
 <path fill="none" stroke="rgb(0,0,0)" stroke-width="30" stroke-linejoin="round" d="M 8042,10848 L 8042,10698"/>
 <path fill="none" stroke="rgb(0,0,0)" stroke-width="30" stroke-linejoin="round" d="M 8157,10848 L 8157,10698"/>
 <path fill="none" stroke="rgb(0,0,0)" stroke-width="30" stroke-linejoin="round" d="M 8157,10848 L 8157,10698"/>
 <path fill="none" stroke="rgb(0,0,0)" stroke-width="30" stroke-linejoin="round" d="M 8272,10848 L 8272,10698"/>
 <path fill="none" stroke="rgb(0,0,0)" stroke-width="30" stroke-linejoin="round" d="M 8272,10848 L 8272,10698"/>
 <path fill="none" stroke="rgb(0,0,0)" stroke-width="30" stroke-linejoin="round" d="M 8387,10848 L 8387,10698"/>
 <path fill="none" stroke="rgb(0,0,0)" stroke-width="30" stroke-linejoin="round" d="M 8387,10848 L 8387,10698"/>
 <path fill="none" stroke="rgb(0,0,0)" stroke-width="30" stroke-linejoin="round" d="M 8502,10848 L 8502,10698"/>
 <path fill="none" stroke="rgb(0,0,0)" stroke-width="30" stroke-linejoin="round" d="M 8502,10848 L 8502,10698"/>
 <path fill="none" stroke="rgb(0,0,0)" stroke-width="30" stroke-linejoin="round" d="M 8617,10848 L 8617,10698"/>
 <path fill="none" stroke="rgb(0,0,0)" stroke-width="30" stroke-linejoin="round" d="M 8617,10848 L 8617,10698"/>
 <path fill="none" stroke="rgb(0,0,0)" stroke-width="30" stroke-linejoin="round" d="M 8732,10848 L 8732,10698"/>
 <path fill="none" stroke="rgb(0,0,0)" stroke-width="30" stroke-linejoin="round" d="M 8732,10848 L 8732,10698"/>
 <path fill="none" stroke="rgb(0,0,0)" stroke-width="30" stroke-linejoin="round" d="M 8847,10848 L 8847,10698"/>
 <path fill="none" stroke="rgb(0,0,0)" stroke-width="30" stroke-linejoin="round" d="M 8847,10848 L 8847,10698"/>
 <path fill="none" stroke="rgb(0,0,0)" stroke-width="30" stroke-linejoin="round" d="M 8963,10848 L 8963,10698"/>
 <path fill="none" stroke="rgb(0,0,0)" stroke-width="30" stroke-linejoin="round" d="M 8963,10848 L 8963,10698"/>
 <path fill="none" stroke="rgb(0,0,0)" stroke-width="30" stroke-linejoin="round" d="M 9078,10848 L 9078,10698"/>
 <path fill="none" stroke="rgb(0,0,0)" stroke-width="30" stroke-linejoin="round" d="M 9078,10848 L 9078,10698"/>
 <path fill="none" stroke="rgb(0,0,0)" stroke-width="30" stroke-linejoin="round" d="M 9193,10848 L 9193,10698"/>
 <path fill="none" stroke="rgb(0,0,0)" stroke-width="30" stroke-linejoin="round" d="M 9193,10848 L 9193,10698"/>
 <path fill="none" stroke="rgb(0,0,0)" stroke-width="30" stroke-linejoin="round" d="M 9308,10848 L 9308,10698"/>
 <path fill="none" stroke="rgb(0,0,0)" stroke-width="30" stroke-linejoin="round" d="M 9308,10848 L 9308,10698"/>
 <path fill="none" stroke="rgb(0,0,0)" stroke-width="30" stroke-linejoin="round" d="M 9423,10848 L 9423,10698"/>
 <path fill="none" stroke="rgb(0,0,0)" stroke-width="30" stroke-linejoin="round" d="M 9423,10848 L 9423,10698"/>
 <path fill="none" stroke="rgb(0,0,0)" stroke-width="30" stroke-linejoin="round" d="M 9538,10848 L 9538,10698"/>
 <path fill="none" stroke="rgb(0,0,0)" stroke-width="30" stroke-linejoin="round" d="M 9538,10848 L 9538,10698"/>
 <path fill="none" stroke="rgb(0,0,0)" stroke-width="30" stroke-linejoin="round" d="M 9653,10848 L 9653,10698"/>
 <path fill="none" stroke="rgb(0,0,0)" stroke-width="30" stroke-linejoin="round" d="M 9653,10848 L 9653,10698"/>
 <path fill="none" stroke="rgb(0,0,0)" stroke-width="30" stroke-linejoin="round" d="M 9768,10848 L 9768,10698"/>
 <path fill="none" stroke="rgb(0,0,0)" stroke-width="30" stroke-linejoin="round" d="M 9768,10848 L 9768,10698"/>
 <path fill="none" stroke="rgb(0,0,0)" stroke-width="30" stroke-linejoin="round" d="M 9884,10848 L 9884,10698"/>
 <path fill="none" stroke="rgb(0,0,0)" stroke-width="30" stroke-linejoin="round" d="M 9884,10848 L 9884,10698"/>
 <path fill="none" stroke="rgb(0,0,0)" stroke-width="30" stroke-linejoin="round" d="M 9999,10848 L 9999,10698"/>
 <path fill="none" stroke="rgb(0,0,0)" stroke-width="30" stroke-linejoin="round" d="M 9999,10848 L 9999,10698"/>
 <path fill="none" stroke="rgb(0,0,0)" stroke-width="30" stroke-linejoin="round" d="M 10114,10848 L 10114,10698"/>
 <path fill="none" stroke="rgb(0,0,0)" stroke-width="30" stroke-linejoin="round" d="M 10114,10848 L 10114,10698"/>
 <path fill="none" stroke="rgb(0,0,0)" stroke-width="30" stroke-linejoin="round" d="M 10229,10848 L 10229,10698"/>
 <path fill="none" stroke="rgb(0,0,0)" stroke-width="30" stroke-linejoin="round" d="M 10229,10848 L 10229,10698"/>
 <path fill="none" stroke="rgb(0,0,0)" stroke-width="30" stroke-linejoin="round" d="M 10344,10848 L 10344,10698"/>
 <path fill="none" stroke="rgb(0,0,0)" stroke-width="30" stroke-linejoin="round" d="M 10344,10848 L 10344,10698"/>
 <path fill="none" stroke="rgb(0,0,0)" stroke-width="30" stroke-linejoin="round" d="M 10459,10848 L 10459,10698"/>
 <path fill="none" stroke="rgb(0,0,0)" stroke-width="30" stroke-linejoin="round" d="M 10459,10848 L 10459,10698"/>
 <path fill="none" stroke="rgb(0,0,0)" stroke-width="30" stroke-linejoin="round" d="M 10574,10848 L 10574,10698"/>
 <path fill="none" stroke="rgb(0,0,0)" stroke-width="30" stroke-linejoin="round" d="M 10574,10848 L 10574,10698"/>
 <path fill="none" stroke="rgb(0,0,0)" stroke-width="30" stroke-linejoin="round" d="M 10689,10848 L 10689,10698"/>
 <path fill="none" stroke="rgb(0,0,0)" stroke-width="30" stroke-linejoin="round" d="M 10689,10848 L 10689,10698"/>
 <path fill="none" stroke="rgb(0,0,0)" stroke-width="30" stroke-linejoin="round" d="M 10804,10848 L 10804,10698"/>
 <path fill="none" stroke="rgb(0,0,0)" stroke-width="30" stroke-linejoin="round" d="M 10804,10848 L 10804,10698"/>
 <path fill="none" stroke="rgb(0,0,0)" stroke-width="30" stroke-linejoin="round" d="M 10920,10848 L 10920,10698"/>
 <path fill="none" stroke="rgb(0,0,0)" stroke-width="30" stroke-linejoin="round" d="M 10920,10848 L 10920,10698"/>
 <path fill="none" stroke="rgb(0,0,0)" stroke-width="30" stroke-linejoin="round" d="M 11035,10848 L 11035,10698"/>
 <path fill="none" stroke="rgb(0,0,0)" stroke-width="30" stroke-linejoin="round" d="M 11035,10848 L 11035,10698"/>
 <path fill="none" stroke="rgb(0,0,0)" stroke-width="30" stroke-linejoin="round" d="M 11150,10848 L 11150,10698"/>
 <path fill="none" stroke="rgb(0,0,0)" stroke-width="30" stroke-linejoin="round" d="M 11150,10848 L 11150,10698"/>
 <path fill="none" stroke="rgb(0,0,0)" stroke-width="30" stroke-linejoin="round" d="M 11265,10848 L 11265,10698"/>
 <path fill="none" stroke="rgb(0,0,0)" stroke-width="30" stroke-linejoin="round" d="M 11265,10848 L 11265,10698"/>
 <path fill="none" stroke="rgb(0,0,0)" stroke-width="30" stroke-linejoin="round" d="M 11380,10848 L 11380,10698"/>
 <path fill="none" stroke="rgb(0,0,0)" stroke-width="30" stroke-linejoin="round" d="M 11380,10848 L 11380,10698"/>
 <path fill="none" stroke="rgb(0,0,0)" stroke-width="30" stroke-linejoin="round" d="M 11495,10848 L 11495,10698"/>
 <path fill="none" stroke="rgb(0,0,0)" stroke-width="30" stroke-linejoin="round" d="M 11495,10848 L 11495,10698"/>
 <path fill="none" stroke="rgb(0,0,0)" stroke-width="30" stroke-linejoin="round" d="M 11610,10848 L 11610,10698"/>
 <path fill="none" stroke="rgb(0,0,0)" stroke-width="30" stroke-linejoin="round" d="M 11610,10848 L 11610,10698"/>
 <path fill="none" stroke="rgb(0,0,0)" stroke-width="30" stroke-linejoin="round" d="M 11725,10848 L 11725,10698"/>
 <path fill="none" stroke="rgb(0,0,0)" stroke-width="30" stroke-linejoin="round" d="M 11725,10848 L 11725,10698"/>
 <path fill="none" stroke="rgb(0,0,0)" stroke-width="30" stroke-linejoin="round" d="M 11841,10848 L 11841,10698"/>
 <path fill="none" stroke="rgb(0,0,0)" stroke-width="30" stroke-linejoin="round" d="M 11841,10848 L 11841,10698"/>
 <path fill="none" stroke="rgb(0,0,0)" stroke-width="30" stroke-linejoin="round" d="M 11956,10848 L 11956,10698"/>
 <path fill="none" stroke="rgb(0,0,0)" stroke-width="30" stroke-linejoin="round" d="M 11956,10848 L 11956,10698"/>
 <path fill="none" stroke="rgb(0,0,0)" stroke-width="30" stroke-linejoin="round" d="M 12071,10848 L 12071,10698"/>
 <path fill="none" stroke="rgb(0,0,0)" stroke-width="30" stroke-linejoin="round" d="M 12071,10848 L 12071,10698"/>
 <path fill="none" stroke="rgb(0,0,0)" stroke-width="30" stroke-linejoin="round" d="M 12186,10848 L 12186,10698"/>
 <path fill="none" stroke="rgb(0,0,0)" stroke-width="30" stroke-linejoin="round" d="M 12186,10848 L 12186,10698"/>
 <path fill="none" stroke="rgb(0,0,0)" stroke-width="30" stroke-linejoin="round" d="M 12301,10848 L 12301,10698"/>
 <path fill="none" stroke="rgb(0,0,0)" stroke-width="30" stroke-linejoin="round" d="M 12301,10848 L 12301,10698"/>
 <path fill="none" stroke="rgb(0,0,0)" stroke-width="30" stroke-linejoin="round" d="M 12416,10848 L 12416,10698"/>
 <path fill="none" stroke="rgb(0,0,0)" stroke-width="30" stroke-linejoin="round" d="M 12416,10848 L 12416,10698"/>
 <path fill="none" stroke="rgb(0,0,0)" stroke-width="30" stroke-linejoin="round" d="M 12531,10848 L 12531,10698"/>
 <path fill="none" stroke="rgb(0,0,0)" stroke-width="30" stroke-linejoin="round" d="M 12531,10848 L 12531,10698"/>
 <path fill="none" stroke="rgb(0,0,0)" stroke-width="30" stroke-linejoin="round" d="M 12646,10848 L 12646,10698"/>
 <path fill="none" stroke="rgb(0,0,0)" stroke-width="30" stroke-linejoin="round" d="M 12646,10848 L 12646,10698"/>
 <path fill="none" stroke="rgb(0,0,0)" stroke-width="30" stroke-linejoin="round" d="M 12762,10848 L 12762,10698"/>
 <path fill="none" stroke="rgb(0,0,0)" stroke-width="30" stroke-linejoin="round" d="M 12762,10848 L 12762,10698"/>
 <path fill="none" stroke="rgb(0,0,0)" stroke-width="30" stroke-linejoin="round" d="M 12877,10848 L 12877,10698"/>
 <path fill="none" stroke="rgb(0,0,0)" stroke-width="30" stroke-linejoin="round" d="M 12877,10848 L 12877,10698"/>
 <path fill="none" stroke="rgb(0,0,0)" stroke-width="30" stroke-linejoin="round" d="M 12992,10848 L 12992,10698"/>
 <path fill="none" stroke="rgb(0,0,0)" stroke-width="30" stroke-linejoin="round" d="M 12992,10848 L 12992,10698"/>
 <path fill="none" stroke="rgb(0,0,0)" stroke-width="30" stroke-linejoin="round" d="M 13107,10848 L 13107,10698"/>
 <path fill="none" stroke="rgb(0,0,0)" stroke-width="30" stroke-linejoin="round" d="M 13107,10848 L 13107,10698"/>
 <path fill="none" stroke="rgb(0,0,0)" stroke-width="30" stroke-linejoin="round" d="M 13222,10848 L 13222,10698"/>
 <path fill="none" stroke="rgb(0,0,0)" stroke-width="30" stroke-linejoin="round" d="M 13222,10848 L 13222,10698"/>
 <path fill="none" stroke="rgb(0,0,0)" stroke-width="30" stroke-linejoin="round" d="M 13337,10848 L 13337,10698"/>
 <path fill="none" stroke="rgb(0,0,0)" stroke-width="30" stroke-linejoin="round" d="M 13337,10848 L 13337,10698"/>
 <path fill="none" stroke="rgb(0,0,0)" stroke-width="30" stroke-linejoin="round" d="M 13452,10848 L 13452,10698"/>
 <path fill="none" stroke="rgb(0,0,0)" stroke-width="30" stroke-linejoin="round" d="M 13452,10848 L 13452,10698"/>
 <path fill="none" stroke="rgb(0,0,0)" stroke-width="30" stroke-linejoin="round" d="M 13567,10848 L 13567,10698"/>
 <path fill="none" stroke="rgb(0,0,0)" stroke-width="30" stroke-linejoin="round" d="M 13567,10848 L 13567,10698"/>
 <path fill="none" stroke="rgb(0,0,0)" stroke-width="30" stroke-linejoin="round" d="M 13683,10848 L 13683,10698"/>
 <path fill="none" stroke="rgb(0,0,0)" stroke-width="30" stroke-linejoin="round" d="M 13683,10848 L 13683,10698"/>
 <path fill="none" stroke="rgb(0,0,0)" stroke-width="30" stroke-linejoin="round" d="M 13798,10848 L 13798,10698"/>
 <path fill="none" stroke="rgb(0,0,0)" stroke-width="30" stroke-linejoin="round" d="M 13798,10848 L 13798,10698"/>
 <path fill="none" stroke="rgb(0,0,0)" stroke-width="30" stroke-linejoin="round" d="M 13913,10848 L 13913,10698"/>
 <path fill="none" stroke="rgb(0,0,0)" stroke-width="30" stroke-linejoin="round" d="M 13913,10848 L 13913,10698"/>
 <path fill="none" stroke="rgb(0,0,0)" stroke-width="30" stroke-linejoin="round" d="M 14028,10848 L 14028,10698"/>
 <path fill="none" stroke="rgb(0,0,0)" stroke-width="30" stroke-linejoin="round" d="M 14028,10848 L 14028,10698"/>
 <path fill="none" stroke="rgb(0,0,0)" stroke-width="30" stroke-linejoin="round" d="M 14143,10848 L 14143,10698"/>
 <path fill="none" stroke="rgb(0,0,0)" stroke-width="30" stroke-linejoin="round" d="M 14143,10848 L 14143,10698"/>
 <path fill="none" stroke="rgb(0,0,0)" stroke-width="30" stroke-linejoin="round" d="M 14258,10848 L 14258,10698"/>
 <path fill="none" stroke="rgb(0,0,0)" stroke-width="30" stroke-linejoin="round" d="M 14258,10848 L 14258,10698"/>
 <path fill="none" stroke="rgb(0,0,0)" stroke-width="30" stroke-linejoin="round" d="M 14373,10848 L 14373,10698"/>
 <path fill="none" stroke="rgb(0,0,0)" stroke-width="30" stroke-linejoin="round" d="M 14373,10848 L 14373,10698"/>
 <path fill="none" stroke="rgb(0,0,0)" stroke-width="30" stroke-linejoin="round" d="M 14488,10848 L 14488,10698"/>
 <path fill="none" stroke="rgb(0,0,0)" stroke-width="30" stroke-linejoin="round" d="M 14488,10848 L 14488,10698"/>
 <path fill="none" stroke="rgb(0,0,0)" stroke-width="30" stroke-linejoin="round" d="M 14604,10848 L 14604,10698"/>
 <path fill="none" stroke="rgb(0,0,0)" stroke-width="30" stroke-linejoin="round" d="M 14604,10848 L 14604,10698"/>
 <path fill="none" stroke="rgb(0,0,0)" stroke-width="30" stroke-linejoin="round" d="M 1366,10698 L 14604,10698"/>
 <path fill="none" stroke="rgb(0,0,0)" stroke-width="30" stroke-linejoin="round" d="M 1216,10698 L 1516,10698"/>
 <path fill="none" stroke="rgb(0,0,0)" stroke-width="30" stroke-linejoin="round" d="M 1216,10698 L 1516,10698"/>
 <path fill="none" stroke="rgb(0,0,0)" stroke-width="30" stroke-linejoin="round" d="M 1216,9737 L 1516,9737"/>
 <path fill="none" stroke="rgb(0,0,0)" stroke-width="30" stroke-linejoin="round" d="M 1216,9737 L 1516,9737"/>
 <path fill="none" stroke="rgb(0,0,0)" stroke-width="30" stroke-linejoin="round" d="M 1216,8777 L 1516,8777"/>
 <path fill="none" stroke="rgb(0,0,0)" stroke-width="30" stroke-linejoin="round" d="M 1216,8777 L 1516,8777"/>
 <path fill="none" stroke="rgb(0,0,0)" stroke-width="30" stroke-linejoin="round" d="M 1216,7816 L 1516,7816"/>
 <path fill="none" stroke="rgb(0,0,0)" stroke-width="30" stroke-linejoin="round" d="M 1216,7816 L 1516,7816"/>
 <path fill="none" stroke="rgb(0,0,0)" stroke-width="30" stroke-linejoin="round" d="M 1216,6856 L 1516,6856"/>
 <path fill="none" stroke="rgb(0,0,0)" stroke-width="30" stroke-linejoin="round" d="M 1216,6856 L 1516,6856"/>
 <path fill="none" stroke="rgb(0,0,0)" stroke-width="30" stroke-linejoin="round" d="M 1216,5897 L 1516,5897"/>
 <path fill="none" stroke="rgb(0,0,0)" stroke-width="30" stroke-linejoin="round" d="M 1216,5897 L 1516,5897"/>
 <path fill="none" stroke="rgb(0,0,0)" stroke-width="30" stroke-linejoin="round" d="M 1216,4936 L 1516,4936"/>
 <path fill="none" stroke="rgb(0,0,0)" stroke-width="30" stroke-linejoin="round" d="M 1216,4936 L 1516,4936"/>
 <path fill="none" stroke="rgb(0,0,0)" stroke-width="30" stroke-linejoin="round" d="M 1216,3976 L 1516,3976"/>
 <path fill="none" stroke="rgb(0,0,0)" stroke-width="30" stroke-linejoin="round" d="M 1216,3976 L 1516,3976"/>
 <path fill="none" stroke="rgb(0,0,0)" stroke-width="30" stroke-linejoin="round" d="M 1216,3015 L 1516,3015"/>
 <path fill="none" stroke="rgb(0,0,0)" stroke-width="30" stroke-linejoin="round" d="M 1216,3015 L 1516,3015"/>
 <path fill="none" stroke="rgb(0,0,0)" stroke-width="30" stroke-linejoin="round" d="M 1216,2055 L 1516,2055"/>
 <path fill="none" stroke="rgb(0,0,0)" stroke-width="30" stroke-linejoin="round" d="M 1216,2055 L 1516,2055"/>
 <path fill="none" stroke="rgb(0,0,0)" stroke-width="30" stroke-linejoin="round" d="M 1216,1095 L 1516,1095"/>
 <path fill="none" stroke="rgb(0,0,0)" stroke-width="30" stroke-linejoin="round" d="M 1216,1095 L 1516,1095"/>
 <path fill="none" stroke="rgb(0,0,0)" stroke-width="30" stroke-linejoin="round" d="M 1366,10698 L 1366,1095"/>
 <path fill="none" stroke="rgb(0,0,0)" stroke-width="30" stroke-linejoin="round" d="M 14754,10698 L 14604,10698"/>
 <path fill="none" stroke="rgb(0,0,0)" stroke-width="30" stroke-linejoin="round" d="M 14754,10698 L 14604,10698"/>
 <path fill="none" stroke="rgb(0,0,0)" stroke-width="30" stroke-linejoin="round" d="M 14754,9737 L 14604,9737"/>
 <path fill="none" stroke="rgb(0,0,0)" stroke-width="30" stroke-linejoin="round" d="M 14754,9737 L 14604,9737"/>
 <path fill="none" stroke="rgb(0,0,0)" stroke-width="30" stroke-linejoin="round" d="M 14754,8777 L 14604,8777"/>
 <path fill="none" stroke="rgb(0,0,0)" stroke-width="30" stroke-linejoin="round" d="M 14754,8777 L 14604,8777"/>
 <path fill="none" stroke="rgb(0,0,0)" stroke-width="30" stroke-linejoin="round" d="M 14754,7816 L 14604,7816"/>
 <path fill="none" stroke="rgb(0,0,0)" stroke-width="30" stroke-linejoin="round" d="M 14754,7816 L 14604,7816"/>
 <path fill="none" stroke="rgb(0,0,0)" stroke-width="30" stroke-linejoin="round" d="M 14754,6856 L 14604,6856"/>
 <path fill="none" stroke="rgb(0,0,0)" stroke-width="30" stroke-linejoin="round" d="M 14754,6856 L 14604,6856"/>
 <path fill="none" stroke="rgb(0,0,0)" stroke-width="30" stroke-linejoin="round" d="M 14754,5897 L 14604,5897"/>
 <path fill="none" stroke="rgb(0,0,0)" stroke-width="30" stroke-linejoin="round" d="M 14754,5897 L 14604,5897"/>
 <path fill="none" stroke="rgb(0,0,0)" stroke-width="30" stroke-linejoin="round" d="M 14754,4936 L 14604,4936"/>
 <path fill="none" stroke="rgb(0,0,0)" stroke-width="30" stroke-linejoin="round" d="M 14754,4936 L 14604,4936"/>
 <path fill="none" stroke="rgb(0,0,0)" stroke-width="30" stroke-linejoin="round" d="M 14754,3976 L 14604,3976"/>
 <path fill="none" stroke="rgb(0,0,0)" stroke-width="30" stroke-linejoin="round" d="M 14754,3976 L 14604,3976"/>
 <path fill="none" stroke="rgb(0,0,0)" stroke-width="30" stroke-linejoin="round" d="M 14754,3015 L 14604,3015"/>
 <path fill="none" stroke="rgb(0,0,0)" stroke-width="30" stroke-linejoin="round" d="M 14754,3015 L 14604,3015"/>
 <path fill="none" stroke="rgb(0,0,0)" stroke-width="30" stroke-linejoin="round" d="M 14754,2055 L 14604,2055"/>
 <path fill="none" stroke="rgb(0,0,0)" stroke-width="30" stroke-linejoin="round" d="M 14754,2055 L 14604,2055"/>
 <path fill="none" stroke="rgb(0,0,0)" stroke-width="30" stroke-linejoin="round" d="M 14754,1095 L 14604,1095"/>
 <path fill="none" stroke="rgb(0,0,0)" stroke-width="30" stroke-linejoin="round" d="M 14754,1095 L 14604,1095"/>
 <path fill="none" stroke="rgb(0,0,0)" stroke-width="30" stroke-linejoin="round" d="M 14604,10698 L 14604,1095"/>
 <path fill="rgb(255,211,32)" stroke="none" d="M 1366,10698 L 1481,10698 1596,10698 1711,10698 1826,10698 1941,10698 2056,10698 2171,10698 2286,10698 2402,10698 2517,10592 2632,10601 2747,10590 2862,10564 2977,10551 3092,10550 3207,10544 3323,10526 3438,10490 3553,10469 3668,10452 3783,10427 3898,10395 4013,10356 4128,10322 4244,10258 4359,10203 4474,10161 4589,10112 4704,10054 4819,10030 4934,10009 5049,10016 5165,9985 5280,9936 5395,9897 5510,9818 5625,9748 5740,9680 5855,9655 5970,9597 6085,9570 6201,9512 6316,9461 6431,9443 6546,9227 6661,9165 6776,9019 6891,8995 7006,8916 7122,8936 7237,8946 7352,8983 7467,8945 7582,8859 7697,8898 7812,8946 7926,8888 8042,8923 8157,8897 8272,9017 8387,9001 8502,9052 8617,9118 8732,9135 8847,9123 8963,9179 9078,9055 9193,8995 9308,9097 9423,9103 9538,9127 9653,9074 9768,8982 9884,8950 9999,8869 10114,8815 10229,8893 10344,8736 10459,8591 10574,8507 10689,8596 10804,8556 10920,8482 11035,8460 11150,8349 11265,8166 11380,8120 11495,8088 11610,7843 11725,7900 11841,7815 11956,7751 12071,7612 12186,7504 12301,7412 12416,7335 12531,7258 12646,7042 12762,6930 12877,6643 12992,6439 13107,5855 13222,5916 13337,5755 13452,5510 13567,5413 13683,5443 13798,5371 13913,5388 14028,5316 14143,5191 14258,5295 14373,5236 14488,5126 14604,5126 14604,10698 1366,10698 Z"/>
 <path fill="none" stroke="rgb(0,0,0)" stroke-linejoin="round" d="M 1366,10698 L 1481,10698 1596,10698 1711,10698 1826,10698 1941,10698 2056,10698 2171,10698 2286,10698 2402,10698 2517,10592 2632,10601 2747,10590 2862,10564 2977,10551 3092,10550 3207,10544 3323,10526 3438,10490 3553,10469 3668,10452 3783,10427 3898,10395 4013,10356 4128,10322 4244,10258 4359,10203 4474,10161 4589,10112 4704,10054 4819,10030 4934,10009 5049,10016 5165,9985 5280,9936 5395,9897 5510,9818 5625,9748 5740,9680 5855,9655 5970,9597 6085,9570 6201,9512 6316,9461 6431,9443 6546,9227 6661,9165 6776,9019 6891,8995 7006,8916 7122,8936 7237,8946 7352,8983 7467,8945 7582,8859 7697,8898 7812,8946 7926,8888 8042,8923 8157,8897 8272,9017 8387,9001 8502,9052 8617,9118 8732,9135 8847,9123 8963,9179 9078,9055 9193,8995 9308,9097 9423,9103 9538,9127 9653,9074 9768,8982 9884,8950 9999,8869 10114,8815 10229,8893 10344,8736 10459,8591 10574,8507 10689,8596 10804,8556 10920,8482 11035,8460 11150,8349 11265,8166 11380,8120 11495,8088 11610,7843 11725,7900 11841,7815 11956,7751 12071,7612 12186,7504 12301,7412 12416,7335 12531,7258 12646,7042 12762,6930 12877,6643 12992,6439 13107,5855 13222,5916 13337,5755 13452,5510 13567,5413 13683,5443 13798,5371 13913,5388 14028,5316 14143,5191 14258,5295 14373,5236 14488,5126 14604,5126 14604,10698 1366,10698 Z"/>
 <path fill="rgb(0,69,134)" stroke="none" d="M 1366,3062 L 1481,3127 1596,3182 1711,3225 1826,3263 1941,3242 2056,3404 2171,3459 2286,3446 2402,3481 2517,3468 2632,3529 2747,3714 2862,3794 2977,3858 3092,3903 3207,3970 3323,4018 3438,3952 3553,3912 3668,3960 3783,4005 3898,4094 4013,4155 4128,4221 4244,4247 4359,4242 4474,4261 4589,4300 4704,4309 4819,4311 4934,4228 5049,4196 5165,4203 5280,4227 5395,4227 5510,4221 5625,4280 5740,4317 5855,4217 5970,4242 6085,4293 6201,4315 6316,4319 6431,4394 6546,4288 6661,4280 6776,4275 6891,4312 7006,4349 7122,4329 7237,4278 7352,4230 7467,4167 7582,4113 7697,4179 7812,4281 7926,4249 8042,4273 8157,4262 8272,4332 8387,4336 8502,4410 8617,4495 8732,4510 8847,4377 8963,4438 9078,4306 9193,4261 9308,4345 9423,4211 9538,4259 9653,4243 9768,4203 9884,4243 9999,4240 10114,4126 10229,4264 10344,4157 10459,3962 10574,3946 10689,3948 10804,3852 10920,3817 11035,3803 11150,3637 11265,3729 11380,3636 11495,3675 11610,3685 11725,3613 11841,3658 11956,3680 12071,3574 12186,3674 12301,3672 12416,3560 12531,3674 12646,3680 12762,3721 12877,3656 12992,3642 13107,3270 13222,3314 13337,3301 13452,3246 13567,3396 13683,3497 13798,3544 13913,3659 14028,3655 14143,3592 14258,3805 14373,3740 14488,3528 14604,3671 14604,5126 14488,5126 14373,5236 14258,5295 14143,5191 14028,5316 13913,5388 13798,5371 13683,5443 13567,5413 13452,5510 13337,5755 13222,5916 13107,5855 12992,6439 12877,6643 12762,6930 12646,7042 12531,7258 12416,7335 12301,7412 12186,7504 12071,7612 11956,7751 11841,7815 11725,7900 11610,7843 11495,8088 11380,8120 11265,8166 11150,8349 11035,8460 10920,8482 10804,8556 10689,8596 10574,8507 10459,8591 10344,8736 10229,8893 10114,8815 9999,8869 9884,8950 9768,8982 9653,9074 9538,9127 9423,9103 9308,9097 9193,8995 9078,9055 8963,9179 8847,9123 8732,9135 8617,9118 8502,9052 8387,9001 8272,9017 8157,8897 8042,8923 7926,8888 7812,8946 7697,8898 7582,8859 7467,8945 7352,8983 7237,8946 7122,8936 7006,8916 6891,8995 6776,9019 6661,9165 6546,9227 6431,9443 6316,9461 6201,9512 6085,9570 5970,9597 5855,9655 5740,9680 5625,9748 5510,9818 5395,9897 5280,9936 5165,9985 5049,10016 4934,10009 4819,10030 4704,10054 4589,10112 4474,10161 4359,10203 4244,10258 4128,10322 4013,10356 3898,10395 3783,10427 3668,10452 3553,10469 3438,10490 3323,10526 3207,10544 3092,10550 2977,10551 2862,10564 2747,10590 2632,10601 2517,10592 2402,10698 2286,10698 2171,10698 2056,10698 1941,10698 1826,10698 1711,10698 1596,10698 1481,10698 1366,10698 1366,3062 Z"/>
 <path fill="none" stroke="rgb(0,0,0)" stroke-linejoin="round" d="M 1366,3062 L 1481,3127 1596,3182 1711,3225 1826,3263 1941,3242 2056,3404 2171,3459 2286,3446 2402,3481 2517,3468 2632,3529 2747,3714 2862,3794 2977,3858 3092,3903 3207,3970 3323,4018 3438,3952 3553,3912 3668,3960 3783,4005 3898,4094 4013,4155 4128,4221 4244,4247 4359,4242 4474,4261 4589,4300 4704,4309 4819,4311 4934,4228 5049,4196 5165,4203 5280,4227 5395,4227 5510,4221 5625,4280 5740,4317 5855,4217 5970,4242 6085,4293 6201,4315 6316,4319 6431,4394 6546,4288 6661,4280 6776,4275 6891,4312 7006,4349 7122,4329 7237,4278 7352,4230 7467,4167 7582,4113 7697,4179 7812,4281 7926,4249 8042,4273 8157,4262 8272,4332 8387,4336 8502,4410 8617,4495 8732,4510 8847,4377 8963,4438 9078,4306 9193,4261 9308,4345 9423,4211 9538,4259 9653,4243 9768,4203 9884,4243 9999,4240 10114,4126 10229,4264 10344,4157 10459,3962 10574,3946 10689,3948 10804,3852 10920,3817 11035,3803 11150,3637 11265,3729 11380,3636 11495,3675 11610,3685 11725,3613 11841,3658 11956,3680 12071,3574 12186,3674 12301,3672 12416,3560 12531,3674 12646,3680 12762,3721 12877,3656 12992,3642 13107,3270 13222,3314 13337,3301 13452,3246 13567,3396 13683,3497 13798,3544 13913,3659 14028,3655 14143,3592 14258,3805 14373,3740 14488,3528 14604,3671 14604,5126 14488,5126 14373,5236 14258,5295 14143,5191 14028,5316 13913,5388 13798,5371 13683,5443 13567,5413 13452,5510 13337,5755 13222,5916 13107,5855 12992,6439 12877,6643 12762,6930 12646,7042 12531,7258 12416,7335 12301,7412 12186,7504 12071,7612 11956,7751 11841,7815 11725,7900 11610,7843 11495,8088 11380,8120 11265,8166 11150,8349 11035,8460 10920,8482 10804,8556 10689,8596 10574,8507 10459,8591 10344,8736 10229,8893 10114,8815 9999,8869 9884,8950 9768,8982 9653,9074 9538,9127 9423,9103 9308,9097 9193,8995 9078,9055 8963,9179 8847,9123 8732,9135 8617,9118 8502,9052 8387,9001 8272,9017 8157,8897 8042,8923 7926,8888 7812,8946 7697,8898 7582,8859 7467,8945 7352,8983 7237,8946 7122,8936 7006,8916 6891,8995 6776,9019 6661,9165 6546,9227 6431,9443 6316,9461 6201,9512 6085,9570 5970,9597 5855,9655 5740,9680 5625,9748 5510,9818 5395,9897 5280,9936 5165,9985 5049,10016 4934,10009 4819,10030 4704,10054 4589,10112 4474,10161 4359,10203 4244,10258 4128,10322 4013,10356 3898,10395 3783,10427 3668,10452 3553,10469 3438,10490 3323,10526 3207,10544 3092,10550 2977,10551 2862,10564 2747,10590 2632,10601 2517,10592 2402,10698 2286,10698 2171,10698 2056,10698 1941,10698 1826,10698 1711,10698 1596,10698 1481,10698 1366,10698 1366,3062 Z"/>
 <path fill="rgb(87,157,28)" stroke="none" d="M 1366,2841 L 1481,2890 1596,2931 1711,2972 1826,3005 1941,2996 2056,3130 2171,3195 2286,3193 2402,3223 2517,3199 2632,3255 2747,3420 2862,3470 2977,3512 3092,3574 3207,3622 3323,3683 3438,3600 3553,3551 3668,3576 3783,3620 3898,3691 4013,3740 4128,3811 4244,3828 4359,3818 4474,3840 4589,3860 4704,3862 4819,3865 4934,3770 5049,3721 5165,3719 5280,3739 5395,3733 5510,3704 5625,3733 5740,3729 5855,3625 5970,3626 6085,3626 6201,3637 6316,3628 6431,3648 6546,3562 6661,3515 6776,3461 6891,3518 7006,3521 7122,3443 7237,3392 7352,3376 7467,3298 7582,3240 7697,3254 7812,3350 7926,3224 8042,3269 8157,3241 8272,3278 8387,3269 8502,3280 8617,3365 8732,3378 8847,3312 8963,3348 9078,3220 9193,3125 9308,3187 9423,3154 9538,3128 9653,3065 9768,3032 9884,2989 9999,2963 10114,2892 10229,2981 10344,2887 10459,2806 10574,2798 10689,2780 10804,2795 10920,2710 11035,2591 11150,2569 11265,2539 11380,2525 11495,2558 11610,2496 11725,2543 11841,2508 11956,2473 12071,2430 12186,2459 12301,2388 12416,2520 12531,2554 12646,2559 12762,2600 12877,2482 12992,2543 13107,2331 13222,2326 13337,2299 13452,2262 13567,2406 13683,2579 13798,2620 13913,2604 14028,2530 14143,2512 14258,2482 14373,2499 14488,2543 14604,2397 14604,3671 14488,3528 14373,3740 14258,3805 14143,3592 14028,3655 13913,3659 13798,3544 13683,3497 13567,3396 13452,3246 13337,3301 13222,3314 13107,3270 12992,3642 12877,3656 12762,3721 12646,3680 12531,3674 12416,3560 12301,3672 12186,3674 12071,3574 11956,3680 11841,3658 11725,3613 11610,3685 11495,3675 11380,3636 11265,3729 11150,3637 11035,3803 10920,3817 10804,3852 10689,3948 10574,3946 10459,3962 10344,4157 10229,4264 10114,4126 9999,4240 9884,4243 9768,4203 9653,4243 9538,4259 9423,4211 9308,4345 9193,4261 9078,4306 8963,4438 8847,4377 8732,4510 8617,4495 8502,4410 8387,4336 8272,4332 8157,4262 8042,4273 7926,4249 7812,4281 7697,4179 7582,4113 7467,4167 7352,4230 7237,4278 7122,4329 7006,4349 6891,4312 6776,4275 6661,4280 6546,4288 6431,4394 6316,4319 6201,4315 6085,4293 5970,4242 5855,4217 5740,4317 5625,4280 5510,4221 5395,4227 5280,4227 5165,4203 5049,4196 4934,4228 4819,4311 4704,4309 4589,4300 4474,4261 4359,4242 4244,4247 4128,4221 4013,4155 3898,4094 3783,4005 3668,3960 3553,3912 3438,3952 3323,4018 3207,3970 3092,3903 2977,3858 2862,3794 2747,3714 2632,3529 2517,3468 2402,3481 2286,3446 2171,3459 2056,3404 1941,3242 1826,3263 1711,3225 1596,3182 1481,3127 1366,3062 1366,2841 Z"/>
 <path fill="none" stroke="rgb(0,0,0)" stroke-linejoin="round" d="M 1366,2841 L 1481,2890 1596,2931 1711,2972 1826,3005 1941,2996 2056,3130 2171,3195 2286,3193 2402,3223 2517,3199 2632,3255 2747,3420 2862,3470 2977,3512 3092,3574 3207,3622 3323,3683 3438,3600 3553,3551 3668,3576 3783,3620 3898,3691 4013,3740 4128,3811 4244,3828 4359,3818 4474,3840 4589,3860 4704,3862 4819,3865 4934,3770 5049,3721 5165,3719 5280,3739 5395,3733 5510,3704 5625,3733 5740,3729 5855,3625 5970,3626 6085,3626 6201,3637 6316,3628 6431,3648 6546,3562 6661,3515 6776,3461 6891,3518 7006,3521 7122,3443 7237,3392 7352,3376 7467,3298 7582,3240 7697,3254 7812,3350 7926,3224 8042,3269 8157,3241 8272,3278 8387,3269 8502,3280 8617,3365 8732,3378 8847,3312 8963,3348 9078,3220 9193,3125 9308,3187 9423,3154 9538,3128 9653,3065 9768,3032 9884,2989 9999,2963 10114,2892 10229,2981 10344,2887 10459,2806 10574,2798 10689,2780 10804,2795 10920,2710 11035,2591 11150,2569 11265,2539 11380,2525 11495,2558 11610,2496 11725,2543 11841,2508 11956,2473 12071,2430 12186,2459 12301,2388 12416,2520 12531,2554 12646,2559 12762,2600 12877,2482 12992,2543 13107,2331 13222,2326 13337,2299 13452,2262 13567,2406 13683,2579 13798,2620 13913,2604 14028,2530 14143,2512 14258,2482 14373,2499 14488,2543 14604,2397 14604,3671 14488,3528 14373,3740 14258,3805 14143,3592 14028,3655 13913,3659 13798,3544 13683,3497 13567,3396 13452,3246 13337,3301 13222,3314 13107,3270 12992,3642 12877,3656 12762,3721 12646,3680 12531,3674 12416,3560 12301,3672 12186,3674 12071,3574 11956,3680 11841,3658 11725,3613 11610,3685 11495,3675 11380,3636 11265,3729 11150,3637 11035,3803 10920,3817 10804,3852 10689,3948 10574,3946 10459,3962 10344,4157 10229,4264 10114,4126 9999,4240 9884,4243 9768,4203 9653,4243 9538,4259 9423,4211 9308,4345 9193,4261 9078,4306 8963,4438 8847,4377 8732,4510 8617,4495 8502,4410 8387,4336 8272,4332 8157,4262 8042,4273 7926,4249 7812,4281 7697,4179 7582,4113 7467,4167 7352,4230 7237,4278 7122,4329 7006,4349 6891,4312 6776,4275 6661,4280 6546,4288 6431,4394 6316,4319 6201,4315 6085,4293 5970,4242 5855,4217 5740,4317 5625,4280 5510,4221 5395,4227 5280,4227 5165,4203 5049,4196 4934,4228 4819,4311 4704,4309 4589,4300 4474,4261 4359,4242 4244,4247 4128,4221 4013,4155 3898,4094 3783,4005 3668,3960 3553,3912 3438,3952 3323,4018 3207,3970 3092,3903 2977,3858 2862,3794 2747,3714 2632,3529 2517,3468 2402,3481 2286,3446 2171,3459 2056,3404 1941,3242 1826,3263 1711,3225 1596,3182 1481,3127 1366,3062 1366,2841 Z"/>
 <path fill="rgb(255,66,14)" stroke="none" d="M 1366,1349 L 1481,1323 1596,1335 1711,1339 1826,1343 1941,1346 2056,1367 2171,1373 2286,1370 2402,1373 2517,1362 2632,1370 2747,1378 2862,1384 2977,1386 3092,1403 3207,1382 3323,1391 3438,1412 3553,1399 3668,1415 3783,1408 3898,1405 4013,1423 4128,1433 4244,1458 4359,1465 4474,1508 4589,1498 4704,1494 4819,1525 4934,1490 5049,1528 5165,1523 5280,1544 5395,1553 5510,1523 5625,1549 5740,1551 5855,1543 5970,1539 6085,1555 6201,1565 6316,1552 6431,1592 6546,1546 6661,1500 6776,1432 6891,1547 7006,1603 7122,1627 7237,1542 7352,1556 7467,1515 7582,1498 7697,1495 7812,1614 7926,1491 8042,1529 8157,1535 8272,1539 8387,1589 8502,1608 8617,1706 8732,1714 8847,1600 8963,1624 9078,1643 9193,1626 9308,1677 9423,1641 9538,1625 9653,1597 9768,1578 9884,1602 9999,1630 10114,1582 10229,1701 10344,1649 10459,1683 10574,1719 10689,1675 10804,1783 10920,1749 11035,1635 11150,1724 11265,1710 11380,1704 11495,1727 11610,1718 11725,1724 11841,1670 11956,1670 12071,1635 12186,1725 12301,1670 12416,1741 12531,1803 12646,1882 12762,1906 12877,1897 12992,2040 13107,1876 13222,1896 13337,1857 13452,1832 13567,1911 13683,1924 13798,1938 13913,1905 14028,1841 14143,1854 14258,1871 14373,1869 14488,1876 14604,1731 14604,2397 14488,2543 14373,2499 14258,2482 14143,2512 14028,2530 13913,2604 13798,2620 13683,2579 13567,2406 13452,2262 13337,2299 13222,2326 13107,2331 12992,2543 12877,2482 12762,2600 12646,2559 12531,2554 12416,2520 12301,2388 12186,2459 12071,2430 11956,2473 11841,2508 11725,2543 11610,2496 11495,2558 11380,2525 11265,2539 11150,2569 11035,2591 10920,2710 10804,2795 10689,2780 10574,2798 10459,2806 10344,2887 10229,2981 10114,2892 9999,2963 9884,2989 9768,3032 9653,3065 9538,3128 9423,3154 9308,3187 9193,3125 9078,3220 8963,3348 8847,3312 8732,3378 8617,3365 8502,3280 8387,3269 8272,3278 8157,3241 8042,3269 7926,3224 7812,3350 7697,3254 7582,3240 7467,3298 7352,3376 7237,3392 7122,3443 7006,3521 6891,3518 6776,3461 6661,3515 6546,3562 6431,3648 6316,3628 6201,3637 6085,3626 5970,3626 5855,3625 5740,3729 5625,3733 5510,3704 5395,3733 5280,3739 5165,3719 5049,3721 4934,3770 4819,3865 4704,3862 4589,3860 4474,3840 4359,3818 4244,3828 4128,3811 4013,3740 3898,3691 3783,3620 3668,3576 3553,3551 3438,3600 3323,3683 3207,3622 3092,3574 2977,3512 2862,3470 2747,3420 2632,3255 2517,3199 2402,3223 2286,3193 2171,3195 2056,3130 1941,2996 1826,3005 1711,2972 1596,2931 1481,2890 1366,2841 1366,1349 Z"/>
 <path fill="none" stroke="rgb(0,0,0)" stroke-linejoin="round" d="M 1366,1349 L 1481,1323 1596,1335 1711,1339 1826,1343 1941,1346 2056,1367 2171,1373 2286,1370 2402,1373 2517,1362 2632,1370 2747,1378 2862,1384 2977,1386 3092,1403 3207,1382 3323,1391 3438,1412 3553,1399 3668,1415 3783,1408 3898,1405 4013,1423 4128,1433 4244,1458 4359,1465 4474,1508 4589,1498 4704,1494 4819,1525 4934,1490 5049,1528 5165,1523 5280,1544 5395,1553 5510,1523 5625,1549 5740,1551 5855,1543 5970,1539 6085,1555 6201,1565 6316,1552 6431,1592 6546,1546 6661,1500 6776,1432 6891,1547 7006,1603 7122,1627 7237,1542 7352,1556 7467,1515 7582,1498 7697,1495 7812,1614 7926,1491 8042,1529 8157,1535 8272,1539 8387,1589 8502,1608 8617,1706 8732,1714 8847,1600 8963,1624 9078,1643 9193,1626 9308,1677 9423,1641 9538,1625 9653,1597 9768,1578 9884,1602 9999,1630 10114,1582 10229,1701 10344,1649 10459,1683 10574,1719 10689,1675 10804,1783 10920,1749 11035,1635 11150,1724 11265,1710 11380,1704 11495,1727 11610,1718 11725,1724 11841,1670 11956,1670 12071,1635 12186,1725 12301,1670 12416,1741 12531,1803 12646,1882 12762,1906 12877,1897 12992,2040 13107,1876 13222,1896 13337,1857 13452,1832 13567,1911 13683,1924 13798,1938 13913,1905 14028,1841 14143,1854 14258,1871 14373,1869 14488,1876 14604,1731 14604,2397 14488,2543 14373,2499 14258,2482 14143,2512 14028,2530 13913,2604 13798,2620 13683,2579 13567,2406 13452,2262 13337,2299 13222,2326 13107,2331 12992,2543 12877,2482 12762,2600 12646,2559 12531,2554 12416,2520 12301,2388 12186,2459 12071,2430 11956,2473 11841,2508 11725,2543 11610,2496 11495,2558 11380,2525 11265,2539 11150,2569 11035,2591 10920,2710 10804,2795 10689,2780 10574,2798 10459,2806 10344,2887 10229,2981 10114,2892 9999,2963 9884,2989 9768,3032 9653,3065 9538,3128 9423,3154 9308,3187 9193,3125 9078,3220 8963,3348 8847,3312 8732,3378 8617,3365 8502,3280 8387,3269 8272,3278 8157,3241 8042,3269 7926,3224 7812,3350 7697,3254 7582,3240 7467,3298 7352,3376 7237,3392 7122,3443 7006,3521 6891,3518 6776,3461 6661,3515 6546,3562 6431,3648 6316,3628 6201,3637 6085,3626 5970,3626 5855,3625 5740,3729 5625,3733 5510,3704 5395,3733 5280,3739 5165,3719 5049,3721 4934,3770 4819,3865 4704,3862 4589,3860 4474,3840 4359,3818 4244,3828 4128,3811 4013,3740 3898,3691 3783,3620 3668,3576 3553,3551 3438,3600 3323,3683 3207,3622 3092,3574 2977,3512 2862,3470 2747,3420 2632,3255 2517,3199 2402,3223 2286,3193 2171,3195 2056,3130 1941,2996 1826,3005 1711,2972 1596,2931 1481,2890 1366,2841 1366,1349 Z"/>
 <path fill="rgb(126,0,33)" stroke="none" d="M 1366,1153 L 1481,1156 1596,1146 1711,1144 1826,1148 1941,1153 2056,1160 2171,1153 2286,1151 2402,1150 2517,1150 2632,1147 2747,1148 2862,1152 2977,1151 3092,1172 3207,1158 3323,1172 3438,1192 3553,1189 3668,1206 3783,1192 3898,1174 4013,1190 4128,1173 4244,1181 4359,1187 4474,1227 4589,1201 4704,1203 4819,1228 4934,1215 5049,1226 5165,1217 5280,1227 5395,1253 5510,1228 5625,1245 5740,1255 5855,1240 5970,1242 6085,1256 6201,1274 6316,1281 6431,1337 6546,1274 6661,1241 6776,1221 6891,1284 7006,1301 7122,1320 7237,1288 7352,1323 7467,1291 7582,1270 7697,1273 7812,1411 7926,1284 8042,1311 8157,1318 8272,1329 8387,1334 8502,1350 8617,1395 8732,1475 8847,1354 8963,1367 9078,1398 9193,1400 9308,1447 9423,1442 9538,1445 9653,1437 9768,1430 9884,1448 9999,1479 10114,1452 10229,1501 10344,1461 10459,1497 10574,1515 10689,1477 10804,1623 10920,1580 11035,1454 11150,1528 11265,1520 11380,1507 11495,1525 11610,1530 11725,1504 11841,1463 11956,1484 12071,1466 12186,1546 12301,1494 12416,1563 12531,1593 12646,1629 12762,1641 12877,1659 12992,1797 13107,1689 13222,1678 13337,1673 13452,1642 13567,1712 13683,1752 13798,1766 13913,1725 14028,1697 14143,1708 14258,1714 14373,1733 14488,1703 14604,1623 14604,1731 14488,1876 14373,1869 14258,1871 14143,1854 14028,1841 13913,1905 13798,1938 13683,1924 13567,1911 13452,1832 13337,1857 13222,1896 13107,1876 12992,2040 12877,1897 12762,1906 12646,1882 12531,1803 12416,1741 12301,1670 12186,1725 12071,1635 11956,1670 11841,1670 11725,1724 11610,1718 11495,1727 11380,1704 11265,1710 11150,1724 11035,1635 10920,1749 10804,1783 10689,1675 10574,1719 10459,1683 10344,1649 10229,1701 10114,1582 9999,1630 9884,1602 9768,1578 9653,1597 9538,1625 9423,1641 9308,1677 9193,1626 9078,1643 8963,1624 8847,1600 8732,1714 8617,1706 8502,1608 8387,1589 8272,1539 8157,1535 8042,1529 7926,1491 7812,1614 7697,1495 7582,1498 7467,1515 7352,1556 7237,1542 7122,1627 7006,1603 6891,1547 6776,1432 6661,1500 6546,1546 6431,1592 6316,1552 6201,1565 6085,1555 5970,1539 5855,1543 5740,1551 5625,1549 5510,1523 5395,1553 5280,1544 5165,1523 5049,1528 4934,1490 4819,1525 4704,1494 4589,1498 4474,1508 4359,1465 4244,1458 4128,1433 4013,1423 3898,1405 3783,1408 3668,1415 3553,1399 3438,1412 3323,1391 3207,1382 3092,1403 2977,1386 2862,1384 2747,1378 2632,1370 2517,1362 2402,1373 2286,1370 2171,1373 2056,1367 1941,1346 1826,1343 1711,1339 1596,1335 1481,1323 1366,1349 1366,1153 Z"/>
 <path fill="none" stroke="rgb(0,0,0)" stroke-linejoin="round" d="M 1366,1153 L 1481,1156 1596,1146 1711,1144 1826,1148 1941,1153 2056,1160 2171,1153 2286,1151 2402,1150 2517,1150 2632,1147 2747,1148 2862,1152 2977,1151 3092,1172 3207,1158 3323,1172 3438,1192 3553,1189 3668,1206 3783,1192 3898,1174 4013,1190 4128,1173 4244,1181 4359,1187 4474,1227 4589,1201 4704,1203 4819,1228 4934,1215 5049,1226 5165,1217 5280,1227 5395,1253 5510,1228 5625,1245 5740,1255 5855,1240 5970,1242 6085,1256 6201,1274 6316,1281 6431,1337 6546,1274 6661,1241 6776,1221 6891,1284 7006,1301 7122,1320 7237,1288 7352,1323 7467,1291 7582,1270 7697,1273 7812,1411 7926,1284 8042,1311 8157,1318 8272,1329 8387,1334 8502,1350 8617,1395 8732,1475 8847,1354 8963,1367 9078,1398 9193,1400 9308,1447 9423,1442 9538,1445 9653,1437 9768,1430 9884,1448 9999,1479 10114,1452 10229,1501 10344,1461 10459,1497 10574,1515 10689,1477 10804,1623 10920,1580 11035,1454 11150,1528 11265,1520 11380,1507 11495,1525 11610,1530 11725,1504 11841,1463 11956,1484 12071,1466 12186,1546 12301,1494 12416,1563 12531,1593 12646,1629 12762,1641 12877,1659 12992,1797 13107,1689 13222,1678 13337,1673 13452,1642 13567,1712 13683,1752 13798,1766 13913,1725 14028,1697 14143,1708 14258,1714 14373,1733 14488,1703 14604,1623 14604,1731 14488,1876 14373,1869 14258,1871 14143,1854 14028,1841 13913,1905 13798,1938 13683,1924 13567,1911 13452,1832 13337,1857 13222,1896 13107,1876 12992,2040 12877,1897 12762,1906 12646,1882 12531,1803 12416,1741 12301,1670 12186,1725 12071,1635 11956,1670 11841,1670 11725,1724 11610,1718 11495,1727 11380,1704 11265,1710 11150,1724 11035,1635 10920,1749 10804,1783 10689,1675 10574,1719 10459,1683 10344,1649 10229,1701 10114,1582 9999,1630 9884,1602 9768,1578 9653,1597 9538,1625 9423,1641 9308,1677 9193,1626 9078,1643 8963,1624 8847,1600 8732,1714 8617,1706 8502,1608 8387,1589 8272,1539 8157,1535 8042,1529 7926,1491 7812,1614 7697,1495 7582,1498 7467,1515 7352,1556 7237,1542 7122,1627 7006,1603 6891,1547 6776,1432 6661,1500 6546,1546 6431,1592 6316,1552 6201,1565 6085,1555 5970,1539 5855,1543 5740,1551 5625,1549 5510,1523 5395,1553 5280,1544 5165,1523 5049,1528 4934,1490 4819,1525 4704,1494 4589,1498 4474,1508 4359,1465 4244,1458 4128,1433 4013,1423 3898,1405 3783,1408 3668,1415 3553,1399 3438,1412 3323,1391 3207,1382 3092,1403 2977,1386 2862,1384 2747,1378 2632,1370 2517,1362 2402,1373 2286,1370 2171,1373 2056,1367 1941,1346 1826,1343 1711,1339 1596,1335 1481,1323 1366,1349 1366,1153 Z"/>
 <path fill="rgb(131,202,255)" stroke="none" d="M 1366,1095 L 1481,1095 1596,1095 1711,1095 1826,1095 1941,1095 2056,1095 2171,1095 2286,1095 2402,1095 2517,1095 2632,1095 2747,1095 2862,1095 2977,1095 3092,1095 3207,1095 3323,1095 3438,1095 3553,1095 3668,1095 3783,1095 3898,1095 4128,1095 4244,1095 4359,1095 4474,1095 4589,1095 4819,1095 5049,1095 5165,1095 5280,1095 5395,1095 5510,1095 5625,1095 5740,1095 5855,1095 5970,1095 6085,1095 6201,1095 6316,1095 6431,1095 6661,1095 6776,1095 6891,1095 7006,1095 7122,1095 7237,1095 7544,1095 7582,1095 7697,1095 8003,1095 8042,1095 8157,1095 8272,1095 8387,1095 8502,1095 8732,1095 8847,1095 8963,1095 9078,1095 9193,1095 9308,1095 9423,1095 9538,1095 9653,1095 9768,1095 9884,1095 9999,1095 10114,1095 10229,1095 10344,1095 10459,1095 10574,1095 10689,1095 10804,1095 10843,1095 11035,1095 11150,1095 11265,1095 11380,1095 11495,1095 11610,1095 11841,1095 11956,1095 12071,1095 12186,1095 12301,1095 12416,1095 12531,1095 12646,1095 12762,1095 12877,1095 12992,1095 13107,1095 13222,1095 13337,1095 13452,1095 13567,1095 13683,1095 13798,1095 13913,1095 14028,1095 14143,1095 14258,1095 14373,1095 14488,1095 14604,1095 14604,1623 14488,1703 14373,1733 14258,1714 14143,1708 14028,1697 13913,1725 13798,1766 13683,1752 13567,1712 13452,1642 13337,1673 13222,1678 13107,1689 12992,1797 12877,1659 12762,1641 12646,1629 12531,1593 12416,1563 12301,1494 12186,1546 12071,1466 11956,1484 11841,1463 11725,1504 11610,1530 11495,1525 11380,1507 11265,1520 11150,1528 11035,1454 10920,1580 10804,1623 10689,1477 10574,1515 10459,1497 10344,1461 10229,1501 10114,1452 9999,1479 9884,1448 9768,1430 9653,1437 9538,1445 9423,1442 9308,1447 9193,1400 9078,1398 8963,1367 8847,1354 8732,1475 8617,1395 8502,1350 8387,1334 8272,1329 8157,1318 8042,1311 7926,1284 7812,1411 7697,1273 7582,1270 7467,1291 7352,1323 7237,1288 7122,1320 7006,1301 6891,1284 6776,1221 6661,1241 6546,1274 6431,1337 6316,1281 6201,1274 6085,1256 5970,1242 5855,1240 5740,1255 5625,1245 5510,1228 5395,1253 5280,1227 5165,1217 5049,1226 4934,1215 4819,1228 4704,1203 4589,1201 4474,1227 4359,1187 4244,1181 4128,1173 4013,1190 3898,1174 3783,1192 3668,1206 3553,1189 3438,1192 3323,1172 3207,1158 3092,1172 2977,1151 2862,1152 2747,1148 2632,1147 2517,1150 2402,1150 2286,1151 2171,1153 2056,1160 1941,1153 1826,1148 1711,1144 1596,1146 1481,1156 1366,1153 1366,1095 Z"/>
 <path fill="none" stroke="rgb(0,0,0)" stroke-linejoin="round" d="M 1366,1095 L 1481,1095 1596,1095 1711,1095 1826,1095 1941,1095 2056,1095 2171,1095 2286,1095 2402,1095 2517,1095 2632,1095 2747,1095 2862,1095 2977,1095 3092,1095 3207,1095 3323,1095 3438,1095 3553,1095 3668,1095 3783,1095 3898,1095 4128,1095 4244,1095 4359,1095 4474,1095 4589,1095 4819,1095 5049,1095 5165,1095 5280,1095 5395,1095 5510,1095 5625,1095 5740,1095 5855,1095 5970,1095 6085,1095 6201,1095 6316,1095 6431,1095 6661,1095 6776,1095 6891,1095 7006,1095 7122,1095 7237,1095 7544,1095 7582,1095 7697,1095 8003,1095 8042,1095 8157,1095 8272,1095 8387,1095 8502,1095 8732,1095 8847,1095 8963,1095 9078,1095 9193,1095 9308,1095 9423,1095 9538,1095 9653,1095 9768,1095 9884,1095 9999,1095 10114,1095 10229,1095 10344,1095 10459,1095 10574,1095 10689,1095 10804,1095 10843,1095 11035,1095 11150,1095 11265,1095 11380,1095 11495,1095 11610,1095 11841,1095 11956,1095 12071,1095 12186,1095 12301,1095 12416,1095 12531,1095 12646,1095 12762,1095 12877,1095 12992,1095 13107,1095 13222,1095 13337,1095 13452,1095 13567,1095 13683,1095 13798,1095 13913,1095 14028,1095 14143,1095 14258,1095 14373,1095 14488,1095 14604,1095 14604,1623 14488,1703 14373,1733 14258,1714 14143,1708 14028,1697 13913,1725 13798,1766 13683,1752 13567,1712 13452,1642 13337,1673 13222,1678 13107,1689 12992,1797 12877,1659 12762,1641 12646,1629 12531,1593 12416,1563 12301,1494 12186,1546 12071,1466 11956,1484 11841,1463 11725,1504 11610,1530 11495,1525 11380,1507 11265,1520 11150,1528 11035,1454 10920,1580 10804,1623 10689,1477 10574,1515 10459,1497 10344,1461 10229,1501 10114,1452 9999,1479 9884,1448 9768,1430 9653,1437 9538,1445 9423,1442 9308,1447 9193,1400 9078,1398 8963,1367 8847,1354 8732,1475 8617,1395 8502,1350 8387,1334 8272,1329 8157,1318 8042,1311 7926,1284 7812,1411 7697,1273 7582,1270 7467,1291 7352,1323 7237,1288 7122,1320 7006,1301 6891,1284 6776,1221 6661,1241 6546,1274 6431,1337 6316,1281 6201,1274 6085,1256 5970,1242 5855,1240 5740,1255 5625,1245 5510,1228 5395,1253 5280,1227 5165,1217 5049,1226 4934,1215 4819,1228 4704,1203 4589,1201 4474,1227 4359,1187 4244,1181 4128,1173 4013,1190 3898,1174 3783,1192 3668,1206 3553,1189 3438,1192 3323,1172 3207,1158 3092,1172 2977,1151 2862,1152 2747,1148 2632,1147 2517,1150 2402,1150 2286,1151 2171,1153 2056,1160 1941,1153 1826,1148 1711,1144 1596,1146 1481,1156 1366,1153 1366,1095 Z"/>
 <text class="TextShape"><tspan class="TextParagraph" font-family="Liberation Sans, sans-serif" font-size="388px" font-weight="700"><tspan class="TextPosition" x="1172" y="11292"><tspan fill="rgb(0,0,0)" stroke="none">2008</tspan></tspan></tspan></text>
 <text class="TextShape"><tspan class="TextParagraph" font-family="Liberation Sans, sans-serif" font-size="388px" font-weight="700"><tspan class="TextPosition" x="2553" y="11292"><tspan fill="rgb(0,0,0)" stroke="none">2009</tspan></tspan></tspan></text>
 <text class="TextShape"><tspan class="TextParagraph" font-family="Liberation Sans, sans-serif" font-size="388px" font-weight="700"><tspan class="TextPosition" x="3935" y="11292"><tspan fill="rgb(0,0,0)" stroke="none">2010</tspan></tspan></tspan></text>
 <text class="TextShape"><tspan class="TextParagraph" font-family="Liberation Sans, sans-serif" font-size="388px" font-weight="700"><tspan class="TextPosition" x="5316" y="11292"><tspan fill="rgb(0,0,0)" stroke="none">2011</tspan></tspan></tspan></text>
 <text class="TextShape"><tspan class="TextParagraph" font-family="Liberation Sans, sans-serif" font-size="388px" font-weight="700"><tspan class="TextPosition" x="6698" y="11292"><tspan fill="rgb(0,0,0)" stroke="none">2012</tspan></tspan></tspan></text>
 <text class="TextShape"><tspan class="TextParagraph" font-family="Liberation Sans, sans-serif" font-size="388px" font-weight="700"><tspan class="TextPosition" x="8079" y="11292"><tspan fill="rgb(0,0,0)" stroke="none">2013</tspan></tspan></tspan></text>
 <text class="TextShape"><tspan class="TextParagraph" font-family="Liberation Sans, sans-serif" font-size="388px" font-weight="700"><tspan class="TextPosition" x="9461" y="11292"><tspan fill="rgb(0,0,0)" stroke="none">2014</tspan></tspan></tspan></text>
 <text class="TextShape"><tspan class="TextParagraph" font-family="Liberation Sans, sans-serif" font-size="388px" font-weight="700"><tspan class="TextPosition" x="10842" y="11292"><tspan fill="rgb(0,0,0)" stroke="none">2015</tspan></tspan></tspan></text>
 <text class="TextShape"><tspan class="TextParagraph" font-family="Liberation Sans, sans-serif" font-size="388px" font-weight="700"><tspan class="TextPosition" x="12223" y="11292"><tspan fill="rgb(0,0,0)" stroke="none">2016</tspan></tspan></tspan></text>
 <text class="TextShape"><tspan class="TextParagraph" font-family="Liberation Sans, sans-serif" font-size="388px" font-weight="700"><tspan class="TextPosition" x="13605" y="11292"><tspan fill="rgb(0,0,0)" stroke="none">2017</tspan></tspan></tspan></text>
 <text class="TextShape"><tspan class="TextParagraph" font-family="Liberation Sans, sans-serif" font-size="388px" font-weight="700"><tspan class="TextPosition" x="560" y="10832"><tspan fill="rgb(0,0,0)" stroke="none">0%</tspan></tspan></tspan></text>
 <text class="TextShape"><tspan class="TextParagraph" font-family="Liberation Sans, sans-serif" font-size="388px" font-weight="700"><tspan class="TextPosition" x="349" y="9871"><tspan fill="rgb(0,0,0)" stroke="none">10%</tspan></tspan></tspan></text>
 <text class="TextShape"><tspan class="TextParagraph" font-family="Liberation Sans, sans-serif" font-size="388px" font-weight="700"><tspan class="TextPosition" x="349" y="8911"><tspan fill="rgb(0,0,0)" stroke="none">20%</tspan></tspan></tspan></text>
 <text class="TextShape"><tspan class="TextParagraph" font-family="Liberation Sans, sans-serif" font-size="388px" font-weight="700"><tspan class="TextPosition" x="349" y="7950"><tspan fill="rgb(0,0,0)" stroke="none">30%</tspan></tspan></tspan></text>
 <text class="TextShape"><tspan class="TextParagraph" font-family="Liberation Sans, sans-serif" font-size="388px" font-weight="700"><tspan class="TextPosition" x="349" y="6990"><tspan fill="rgb(0,0,0)" stroke="none">40%</tspan></tspan></tspan></text>
 <text class="TextShape"><tspan class="TextParagraph" font-family="Liberation Sans, sans-serif" font-size="388px" font-weight="700"><tspan class="TextPosition" x="349" y="6030"><tspan fill="rgb(0,0,0)" stroke="none">50%</tspan></tspan></tspan></text>
 <text class="TextShape"><tspan class="TextParagraph" font-family="Liberation Sans, sans-serif" font-size="388px" font-weight="700"><tspan class="TextPosition" x="349" y="5069"><tspan fill="rgb(0,0,0)" stroke="none">60%</tspan></tspan></tspan></text>
 <text class="TextShape"><tspan class="TextParagraph" font-family="Liberation Sans, sans-serif" font-size="388px" font-weight="700"><tspan class="TextPosition" x="349" y="4109"><tspan fill="rgb(0,0,0)" stroke="none">70%</tspan></tspan></tspan></text>
 <text class="TextShape"><tspan class="TextParagraph" font-family="Liberation Sans, sans-serif" font-size="388px" font-weight="700"><tspan class="TextPosition" x="349" y="3148"><tspan fill="rgb(0,0,0)" stroke="none">80%</tspan></tspan></tspan></text>
 <text class="TextShape"><tspan class="TextParagraph" font-family="Liberation Sans, sans-serif" font-size="388px" font-weight="700"><tspan class="TextPosition" x="349" y="2188"><tspan fill="rgb(0,0,0)" stroke="none">90%</tspan></tspan></tspan></text>
 <text class="TextShape"><tspan class="TextParagraph" font-family="Liberation Sans, sans-serif" font-size="388px" font-weight="700"><tspan class="TextPosition" x="137" y="1228"><tspan fill="rgb(0,0,0)" stroke="none">100%</tspan></tspan></tspan></text>
 <text class="TextShape"><tspan class="TextParagraph" font-family="Liberation Sans, sans-serif" font-size="388px" font-weight="700"><tspan class="TextPosition" x="14854" y="10832"><tspan fill="rgb(0,0,0)" stroke="none">0%</tspan></tspan></tspan></text>
 <text class="TextShape"><tspan class="TextParagraph" font-family="Liberation Sans, sans-serif" font-size="388px" font-weight="700"><tspan class="TextPosition" x="14854" y="9871"><tspan fill="rgb(0,0,0)" stroke="none">10%</tspan></tspan></tspan></text>
 <text class="TextShape"><tspan class="TextParagraph" font-family="Liberation Sans, sans-serif" font-size="388px" font-weight="700"><tspan class="TextPosition" x="14854" y="8911"><tspan fill="rgb(0,0,0)" stroke="none">20%</tspan></tspan></tspan></text>
 <text class="TextShape"><tspan class="TextParagraph" font-family="Liberation Sans, sans-serif" font-size="388px" font-weight="700"><tspan class="TextPosition" x="14854" y="7950"><tspan fill="rgb(0,0,0)" stroke="none">30%</tspan></tspan></tspan></text>
 <text class="TextShape"><tspan class="TextParagraph" font-family="Liberation Sans, sans-serif" font-size="388px" font-weight="700"><tspan class="TextPosition" x="14854" y="6990"><tspan fill="rgb(0,0,0)" stroke="none">40%</tspan></tspan></tspan></text>
 <text class="TextShape"><tspan class="TextParagraph" font-family="Liberation Sans, sans-serif" font-size="388px" font-weight="700"><tspan class="TextPosition" x="14854" y="6030"><tspan fill="rgb(0,0,0)" stroke="none">50%</tspan></tspan></tspan></text>
 <text class="TextShape"><tspan class="TextParagraph" font-family="Liberation Sans, sans-serif" font-size="388px" font-weight="700"><tspan class="TextPosition" x="14854" y="5069"><tspan fill="rgb(0,0,0)" stroke="none">60%</tspan></tspan></tspan></text>
 <text class="TextShape"><tspan class="TextParagraph" font-family="Liberation Sans, sans-serif" font-size="388px" font-weight="700"><tspan class="TextPosition" x="14854" y="4109"><tspan fill="rgb(0,0,0)" stroke="none">70%</tspan></tspan></tspan></text>
 <text class="TextShape"><tspan class="TextParagraph" font-family="Liberation Sans, sans-serif" font-size="388px" font-weight="700"><tspan class="TextPosition" x="14854" y="3148"><tspan fill="rgb(0,0,0)" stroke="none">80%</tspan></tspan></tspan></text>
 <text class="TextShape"><tspan class="TextParagraph" font-family="Liberation Sans, sans-serif" font-size="388px" font-weight="700"><tspan class="TextPosition" x="14854" y="2188"><tspan fill="rgb(0,0,0)" stroke="none">90%</tspan></tspan></tspan></text>
 <text class="TextShape"><tspan class="TextParagraph" font-family="Liberation Sans, sans-serif" font-size="388px" font-weight="700"><tspan class="TextPosition" x="14854" y="1228"><tspan fill="rgb(0,0,0)" stroke="none">100%</tspan></tspan></tspan></text>
 <text class="TextShape"><tspan class="TextParagraph" font-family="Arial, sans-serif" font-size="635px" font-weight="400"><tspan class="TextPosition" x="4303" y="759"><tspan fill="rgb(0,0,0)" stroke="none">Utilizacin de navegadores</tspan></tspan></tspan></text>
 <path fill="rgb(255,211,32)" stroke="none" d="M 10787,11722 L 10681,11722 10681,11511 10892,11511 10892,11722 10787,11722 Z"/>
 <path fill="none" stroke="rgb(0,0,0)" stroke-linejoin="round" d="M 10787,11722 L 10681,11722 10681,11511 10892,11511 10892,11722 10787,11722 Z"/>
 <path fill="rgb(0,69,134)" stroke="none" d="M 9880,11722 L 9774,11722 9774,11511 9985,11511 9985,11722 9880,11722 Z"/>
 <path fill="none" stroke="rgb(0,0,0)" stroke-linejoin="round" d="M 9880,11722 L 9774,11722 9774,11511 9985,11511 9985,11722 9880,11722 Z"/>
 <path fill="rgb(87,157,28)" stroke="none" d="M 8364,11722 L 8258,11722 8258,11511 8469,11511 8469,11722 8364,11722 Z"/>
 <path fill="none" stroke="rgb(0,0,0)" stroke-linejoin="round" d="M 8364,11722 L 8258,11722 8258,11511 8469,11511 8469,11722 8364,11722 Z"/>
 <path fill="rgb(255,66,14)" stroke="none" d="M 6663,11722 L 6558,11722 6558,11511 6769,11511 6769,11722 6663,11722 Z"/>
 <path fill="none" stroke="rgb(0,0,0)" stroke-linejoin="round" d="M 6663,11722 L 6558,11722 6558,11511 6769,11511 6769,11722 6663,11722 Z"/>
 <path fill="rgb(126,0,33)" stroke="none" d="M 5121,11722 L 5016,11722 5016,11511 5227,11511 5227,11722 5121,11722 Z"/>
 <path fill="none" stroke="rgb(0,0,0)" stroke-linejoin="round" d="M 5121,11722 L 5016,11722 5016,11511 5227,11511 5227,11722 5121,11722 Z"/>
 <path fill="rgb(131,202,255)" stroke="none" d="M 3658,11722 L 3553,11722 3553,11511 3764,11511 3764,11722 3658,11722 Z"/>
 <path fill="none" stroke="rgb(0,0,0)" stroke-linejoin="round" d="M 3658,11722 L 3553,11722 3553,11511 3764,11511 3764,11722 3658,11722 Z"/>
 <text class="TextShape"><tspan class="TextParagraph" font-family="Arial, sans-serif" font-size="353px" font-weight="700"><tspan class="TextPosition" x="3864" y="11735"><tspan fill="rgb(0,0,0)" stroke="none">Otros</tspan></tspan></tspan></text>
 <text class="TextShape"><tspan class="TextParagraph" font-family="Arial, sans-serif" font-size="353px" font-weight="700"><tspan class="TextPosition" x="5327" y="11735"><tspan fill="rgb(0,0,0)" stroke="none">Opera</tspan></tspan></tspan></text>
 <text class="TextShape"><tspan class="TextParagraph" font-family="Arial, sans-serif" font-size="353px" font-weight="700"><tspan class="TextPosition" x="6869" y="11735"><tspan fill="rgb(0,0,0)" stroke="none">Firefox</tspan></tspan></tspan></text>
 <text class="TextShape"><tspan class="TextParagraph" font-family="Arial, sans-serif" font-size="353px" font-weight="700"><tspan class="TextPosition" x="8569" y="11735"><tspan fill="rgb(0,0,0)" stroke="none">Safari</tspan></tspan></tspan></text>
 <text class="TextShape"><tspan class="TextParagraph" font-family="Arial, sans-serif" font-size="353px" font-weight="700"><tspan class="TextPosition" x="10085" y="11735"><tspan fill="rgb(0,0,0)" stroke="none">IE</tspan></tspan></tspan></text>
 <text class="TextShape"><tspan class="TextParagraph" font-family="Arial, sans-serif" font-size="353px" font-weight="700"><tspan class="TextPosition" x="10992" y="11735"><tspan fill="rgb(0,0,0)" stroke="none">Chrome</tspan></tspan></tspan></text>
</svg>
