<?xml version="1.0" encoding="UTF-8"?>
<!DOCTYPE svg PUBLIC "-//W3C//DTD SVG 1.1//EN" "http://www.w3.org/Graphics/SVG/1.1/DTD/svg11.dtd">
<svg width="165mm" height="123mm" viewBox="0 0 16500 12300" version="1.1" xmlns="http://www.w3.org/2000/svg" stroke-width="28.222" stroke-linejoin="round" xml:space="preserve">
 <path fill="rgb(255,255,255)" stroke="none" d="M 8257,12324 L 12,12324 12,0 16502,0 16502,12324 8257,12324 Z"/>
 <path fill="none" stroke="rgb(179,179,179)" stroke-linejoin="round" d="M 8207,10702 L 1255,10702 1255,1092 15158,1092 15158,10702 8207,10702 Z"/>
 <path fill="none" stroke="rgb(179,179,179)" stroke-linejoin="round" d="M 15158,10701 L 1255,10701"/>
 <path fill="none" stroke="rgb(179,179,179)" stroke-linejoin="round" d="M 15158,9739 L 1255,9739"/>
 <path fill="none" stroke="rgb(179,179,179)" stroke-linejoin="round" d="M 15158,8778 L 1255,8778"/>
 <path fill="none" stroke="rgb(179,179,179)" stroke-linejoin="round" d="M 15158,7817 L 1255,7817"/>
 <path fill="none" stroke="rgb(179,179,179)" stroke-linejoin="round" d="M 15158,6856 L 1255,6856"/>
 <path fill="none" stroke="rgb(179,179,179)" stroke-linejoin="round" d="M 15158,5896 L 1255,5896"/>
 <path fill="none" stroke="rgb(179,179,179)" stroke-linejoin="round" d="M 15158,4935 L 1255,4935"/>
 <path fill="none" stroke="rgb(179,179,179)" stroke-linejoin="round" d="M 15158,3974 L 1255,3974"/>
 <path fill="none" stroke="rgb(179,179,179)" stroke-linejoin="round" d="M 15158,3013 L 1255,3013"/>
 <path fill="none" stroke="rgb(179,179,179)" stroke-linejoin="round" d="M 15158,2052 L 1255,2052"/>
 <path fill="none" stroke="rgb(179,179,179)" stroke-linejoin="round" d="M 15158,1091 L 1255,1091"/>
 <path fill="none" stroke="rgb(0,0,0)" stroke-width="30" stroke-linejoin="round" d="M 1255,10851 L 1255,10701"/>
 <path fill="none" stroke="rgb(0,0,0)" stroke-width="30" stroke-linejoin="round" d="M 1255,10851 L 1255,10701"/>
 <path fill="none" stroke="rgb(0,0,0)" stroke-width="30" stroke-linejoin="round" d="M 1378,10851 L 1378,10701"/>
 <path fill="none" stroke="rgb(0,0,0)" stroke-width="30" stroke-linejoin="round" d="M 1378,10851 L 1378,10701"/>
 <path fill="none" stroke="rgb(0,0,0)" stroke-width="30" stroke-linejoin="round" d="M 1501,10851 L 1501,10701"/>
 <path fill="none" stroke="rgb(0,0,0)" stroke-width="30" stroke-linejoin="round" d="M 1501,10851 L 1501,10701"/>
 <path fill="none" stroke="rgb(0,0,0)" stroke-width="30" stroke-linejoin="round" d="M 1624,10851 L 1624,10701"/>
 <path fill="none" stroke="rgb(0,0,0)" stroke-width="30" stroke-linejoin="round" d="M 1624,10851 L 1624,10701"/>
 <path fill="none" stroke="rgb(0,0,0)" stroke-width="30" stroke-linejoin="round" d="M 1747,10851 L 1747,10701"/>
 <path fill="none" stroke="rgb(0,0,0)" stroke-width="30" stroke-linejoin="round" d="M 1747,10851 L 1747,10701"/>
 <path fill="none" stroke="rgb(0,0,0)" stroke-width="30" stroke-linejoin="round" d="M 1870,10851 L 1870,10701"/>
 <path fill="none" stroke="rgb(0,0,0)" stroke-width="30" stroke-linejoin="round" d="M 1870,10851 L 1870,10701"/>
 <path fill="none" stroke="rgb(0,0,0)" stroke-width="30" stroke-linejoin="round" d="M 1993,10851 L 1993,10701"/>
 <path fill="none" stroke="rgb(0,0,0)" stroke-width="30" stroke-linejoin="round" d="M 1993,10851 L 1993,10701"/>
 <path fill="none" stroke="rgb(0,0,0)" stroke-width="30" stroke-linejoin="round" d="M 2116,10851 L 2116,10701"/>
 <path fill="none" stroke="rgb(0,0,0)" stroke-width="30" stroke-linejoin="round" d="M 2116,10851 L 2116,10701"/>
 <path fill="none" stroke="rgb(0,0,0)" stroke-width="30" stroke-linejoin="round" d="M 2239,10851 L 2239,10701"/>
 <path fill="none" stroke="rgb(0,0,0)" stroke-width="30" stroke-linejoin="round" d="M 2239,10851 L 2239,10701"/>
 <path fill="none" stroke="rgb(0,0,0)" stroke-width="30" stroke-linejoin="round" d="M 2362,10851 L 2362,10701"/>
 <path fill="none" stroke="rgb(0,0,0)" stroke-width="30" stroke-linejoin="round" d="M 2362,10851 L 2362,10701"/>
 <path fill="none" stroke="rgb(0,0,0)" stroke-width="30" stroke-linejoin="round" d="M 2485,10851 L 2485,10701"/>
 <path fill="none" stroke="rgb(0,0,0)" stroke-width="30" stroke-linejoin="round" d="M 2485,10851 L 2485,10701"/>
 <path fill="none" stroke="rgb(0,0,0)" stroke-width="30" stroke-linejoin="round" d="M 2608,10851 L 2608,10701"/>
 <path fill="none" stroke="rgb(0,0,0)" stroke-width="30" stroke-linejoin="round" d="M 2608,10851 L 2608,10701"/>
 <path fill="none" stroke="rgb(0,0,0)" stroke-width="30" stroke-linejoin="round" d="M 2731,10851 L 2731,10701"/>
 <path fill="none" stroke="rgb(0,0,0)" stroke-width="30" stroke-linejoin="round" d="M 2731,10851 L 2731,10701"/>
 <path fill="none" stroke="rgb(0,0,0)" stroke-width="30" stroke-linejoin="round" d="M 2854,10851 L 2854,10701"/>
 <path fill="none" stroke="rgb(0,0,0)" stroke-width="30" stroke-linejoin="round" d="M 2854,10851 L 2854,10701"/>
 <path fill="none" stroke="rgb(0,0,0)" stroke-width="30" stroke-linejoin="round" d="M 2977,10851 L 2977,10701"/>
 <path fill="none" stroke="rgb(0,0,0)" stroke-width="30" stroke-linejoin="round" d="M 2977,10851 L 2977,10701"/>
 <path fill="none" stroke="rgb(0,0,0)" stroke-width="30" stroke-linejoin="round" d="M 3100,10851 L 3100,10701"/>
 <path fill="none" stroke="rgb(0,0,0)" stroke-width="30" stroke-linejoin="round" d="M 3100,10851 L 3100,10701"/>
 <path fill="none" stroke="rgb(0,0,0)" stroke-width="30" stroke-linejoin="round" d="M 3223,10851 L 3223,10701"/>
 <path fill="none" stroke="rgb(0,0,0)" stroke-width="30" stroke-linejoin="round" d="M 3223,10851 L 3223,10701"/>
 <path fill="none" stroke="rgb(0,0,0)" stroke-width="30" stroke-linejoin="round" d="M 3346,10851 L 3346,10701"/>
 <path fill="none" stroke="rgb(0,0,0)" stroke-width="30" stroke-linejoin="round" d="M 3346,10851 L 3346,10701"/>
 <path fill="none" stroke="rgb(0,0,0)" stroke-width="30" stroke-linejoin="round" d="M 3469,10851 L 3469,10701"/>
 <path fill="none" stroke="rgb(0,0,0)" stroke-width="30" stroke-linejoin="round" d="M 3469,10851 L 3469,10701"/>
 <path fill="none" stroke="rgb(0,0,0)" stroke-width="30" stroke-linejoin="round" d="M 3592,10851 L 3592,10701"/>
 <path fill="none" stroke="rgb(0,0,0)" stroke-width="30" stroke-linejoin="round" d="M 3592,10851 L 3592,10701"/>
 <path fill="none" stroke="rgb(0,0,0)" stroke-width="30" stroke-linejoin="round" d="M 3715,10851 L 3715,10701"/>
 <path fill="none" stroke="rgb(0,0,0)" stroke-width="30" stroke-linejoin="round" d="M 3715,10851 L 3715,10701"/>
 <path fill="none" stroke="rgb(0,0,0)" stroke-width="30" stroke-linejoin="round" d="M 3838,10851 L 3838,10701"/>
 <path fill="none" stroke="rgb(0,0,0)" stroke-width="30" stroke-linejoin="round" d="M 3838,10851 L 3838,10701"/>
 <path fill="none" stroke="rgb(0,0,0)" stroke-width="30" stroke-linejoin="round" d="M 3961,10851 L 3961,10701"/>
 <path fill="none" stroke="rgb(0,0,0)" stroke-width="30" stroke-linejoin="round" d="M 3961,10851 L 3961,10701"/>
 <path fill="none" stroke="rgb(0,0,0)" stroke-width="30" stroke-linejoin="round" d="M 4085,10851 L 4085,10701"/>
 <path fill="none" stroke="rgb(0,0,0)" stroke-width="30" stroke-linejoin="round" d="M 4085,10851 L 4085,10701"/>
 <path fill="none" stroke="rgb(0,0,0)" stroke-width="30" stroke-linejoin="round" d="M 4208,10851 L 4208,10701"/>
 <path fill="none" stroke="rgb(0,0,0)" stroke-width="30" stroke-linejoin="round" d="M 4208,10851 L 4208,10701"/>
 <path fill="none" stroke="rgb(0,0,0)" stroke-width="30" stroke-linejoin="round" d="M 4331,10851 L 4331,10701"/>
 <path fill="none" stroke="rgb(0,0,0)" stroke-width="30" stroke-linejoin="round" d="M 4331,10851 L 4331,10701"/>
 <path fill="none" stroke="rgb(0,0,0)" stroke-width="30" stroke-linejoin="round" d="M 4454,10851 L 4454,10701"/>
 <path fill="none" stroke="rgb(0,0,0)" stroke-width="30" stroke-linejoin="round" d="M 4454,10851 L 4454,10701"/>
 <path fill="none" stroke="rgb(0,0,0)" stroke-width="30" stroke-linejoin="round" d="M 4577,10851 L 4577,10701"/>
 <path fill="none" stroke="rgb(0,0,0)" stroke-width="30" stroke-linejoin="round" d="M 4577,10851 L 4577,10701"/>
 <path fill="none" stroke="rgb(0,0,0)" stroke-width="30" stroke-linejoin="round" d="M 4700,10851 L 4700,10701"/>
 <path fill="none" stroke="rgb(0,0,0)" stroke-width="30" stroke-linejoin="round" d="M 4700,10851 L 4700,10701"/>
 <path fill="none" stroke="rgb(0,0,0)" stroke-width="30" stroke-linejoin="round" d="M 4823,10851 L 4823,10701"/>
 <path fill="none" stroke="rgb(0,0,0)" stroke-width="30" stroke-linejoin="round" d="M 4823,10851 L 4823,10701"/>
 <path fill="none" stroke="rgb(0,0,0)" stroke-width="30" stroke-linejoin="round" d="M 4946,10851 L 4946,10701"/>
 <path fill="none" stroke="rgb(0,0,0)" stroke-width="30" stroke-linejoin="round" d="M 4946,10851 L 4946,10701"/>
 <path fill="none" stroke="rgb(0,0,0)" stroke-width="30" stroke-linejoin="round" d="M 5069,10851 L 5069,10701"/>
 <path fill="none" stroke="rgb(0,0,0)" stroke-width="30" stroke-linejoin="round" d="M 5069,10851 L 5069,10701"/>
 <path fill="none" stroke="rgb(0,0,0)" stroke-width="30" stroke-linejoin="round" d="M 5192,10851 L 5192,10701"/>
 <path fill="none" stroke="rgb(0,0,0)" stroke-width="30" stroke-linejoin="round" d="M 5192,10851 L 5192,10701"/>
 <path fill="none" stroke="rgb(0,0,0)" stroke-width="30" stroke-linejoin="round" d="M 5315,10851 L 5315,10701"/>
 <path fill="none" stroke="rgb(0,0,0)" stroke-width="30" stroke-linejoin="round" d="M 5315,10851 L 5315,10701"/>
 <path fill="none" stroke="rgb(0,0,0)" stroke-width="30" stroke-linejoin="round" d="M 5438,10851 L 5438,10701"/>
 <path fill="none" stroke="rgb(0,0,0)" stroke-width="30" stroke-linejoin="round" d="M 5438,10851 L 5438,10701"/>
 <path fill="none" stroke="rgb(0,0,0)" stroke-width="30" stroke-linejoin="round" d="M 5561,10851 L 5561,10701"/>
 <path fill="none" stroke="rgb(0,0,0)" stroke-width="30" stroke-linejoin="round" d="M 5561,10851 L 5561,10701"/>
 <path fill="none" stroke="rgb(0,0,0)" stroke-width="30" stroke-linejoin="round" d="M 5684,10851 L 5684,10701"/>
 <path fill="none" stroke="rgb(0,0,0)" stroke-width="30" stroke-linejoin="round" d="M 5684,10851 L 5684,10701"/>
 <path fill="none" stroke="rgb(0,0,0)" stroke-width="30" stroke-linejoin="round" d="M 5807,10851 L 5807,10701"/>
 <path fill="none" stroke="rgb(0,0,0)" stroke-width="30" stroke-linejoin="round" d="M 5807,10851 L 5807,10701"/>
 <path fill="none" stroke="rgb(0,0,0)" stroke-width="30" stroke-linejoin="round" d="M 5930,10851 L 5930,10701"/>
 <path fill="none" stroke="rgb(0,0,0)" stroke-width="30" stroke-linejoin="round" d="M 5930,10851 L 5930,10701"/>
 <path fill="none" stroke="rgb(0,0,0)" stroke-width="30" stroke-linejoin="round" d="M 6053,10851 L 6053,10701"/>
 <path fill="none" stroke="rgb(0,0,0)" stroke-width="30" stroke-linejoin="round" d="M 6053,10851 L 6053,10701"/>
 <path fill="none" stroke="rgb(0,0,0)" stroke-width="30" stroke-linejoin="round" d="M 6176,10851 L 6176,10701"/>
 <path fill="none" stroke="rgb(0,0,0)" stroke-width="30" stroke-linejoin="round" d="M 6176,10851 L 6176,10701"/>
 <path fill="none" stroke="rgb(0,0,0)" stroke-width="30" stroke-linejoin="round" d="M 6299,10851 L 6299,10701"/>
 <path fill="none" stroke="rgb(0,0,0)" stroke-width="30" stroke-linejoin="round" d="M 6299,10851 L 6299,10701"/>
 <path fill="none" stroke="rgb(0,0,0)" stroke-width="30" stroke-linejoin="round" d="M 6422,10851 L 6422,10701"/>
 <path fill="none" stroke="rgb(0,0,0)" stroke-width="30" stroke-linejoin="round" d="M 6422,10851 L 6422,10701"/>
 <path fill="none" stroke="rgb(0,0,0)" stroke-width="30" stroke-linejoin="round" d="M 6545,10851 L 6545,10701"/>
 <path fill="none" stroke="rgb(0,0,0)" stroke-width="30" stroke-linejoin="round" d="M 6545,10851 L 6545,10701"/>
 <path fill="none" stroke="rgb(0,0,0)" stroke-width="30" stroke-linejoin="round" d="M 6668,10851 L 6668,10701"/>
 <path fill="none" stroke="rgb(0,0,0)" stroke-width="30" stroke-linejoin="round" d="M 6668,10851 L 6668,10701"/>
 <path fill="none" stroke="rgb(0,0,0)" stroke-width="30" stroke-linejoin="round" d="M 6791,10851 L 6791,10701"/>
 <path fill="none" stroke="rgb(0,0,0)" stroke-width="30" stroke-linejoin="round" d="M 6791,10851 L 6791,10701"/>
 <path fill="none" stroke="rgb(0,0,0)" stroke-width="30" stroke-linejoin="round" d="M 6915,10851 L 6915,10701"/>
 <path fill="none" stroke="rgb(0,0,0)" stroke-width="30" stroke-linejoin="round" d="M 6915,10851 L 6915,10701"/>
 <path fill="none" stroke="rgb(0,0,0)" stroke-width="30" stroke-linejoin="round" d="M 7038,10851 L 7038,10701"/>
 <path fill="none" stroke="rgb(0,0,0)" stroke-width="30" stroke-linejoin="round" d="M 7038,10851 L 7038,10701"/>
 <path fill="none" stroke="rgb(0,0,0)" stroke-width="30" stroke-linejoin="round" d="M 7161,10851 L 7161,10701"/>
 <path fill="none" stroke="rgb(0,0,0)" stroke-width="30" stroke-linejoin="round" d="M 7161,10851 L 7161,10701"/>
 <path fill="none" stroke="rgb(0,0,0)" stroke-width="30" stroke-linejoin="round" d="M 7284,10851 L 7284,10701"/>
 <path fill="none" stroke="rgb(0,0,0)" stroke-width="30" stroke-linejoin="round" d="M 7284,10851 L 7284,10701"/>
 <path fill="none" stroke="rgb(0,0,0)" stroke-width="30" stroke-linejoin="round" d="M 7407,10851 L 7407,10701"/>
 <path fill="none" stroke="rgb(0,0,0)" stroke-width="30" stroke-linejoin="round" d="M 7407,10851 L 7407,10701"/>
 <path fill="none" stroke="rgb(0,0,0)" stroke-width="30" stroke-linejoin="round" d="M 7530,10851 L 7530,10701"/>
 <path fill="none" stroke="rgb(0,0,0)" stroke-width="30" stroke-linejoin="round" d="M 7530,10851 L 7530,10701"/>
 <path fill="none" stroke="rgb(0,0,0)" stroke-width="30" stroke-linejoin="round" d="M 7653,10851 L 7653,10701"/>
 <path fill="none" stroke="rgb(0,0,0)" stroke-width="30" stroke-linejoin="round" d="M 7653,10851 L 7653,10701"/>
 <path fill="none" stroke="rgb(0,0,0)" stroke-width="30" stroke-linejoin="round" d="M 7776,10851 L 7776,10701"/>
 <path fill="none" stroke="rgb(0,0,0)" stroke-width="30" stroke-linejoin="round" d="M 7776,10851 L 7776,10701"/>
 <path fill="none" stroke="rgb(0,0,0)" stroke-width="30" stroke-linejoin="round" d="M 7899,10851 L 7899,10701"/>
 <path fill="none" stroke="rgb(0,0,0)" stroke-width="30" stroke-linejoin="round" d="M 7899,10851 L 7899,10701"/>
 <path fill="none" stroke="rgb(0,0,0)" stroke-width="30" stroke-linejoin="round" d="M 8022,10851 L 8022,10701"/>
 <path fill="none" stroke="rgb(0,0,0)" stroke-width="30" stroke-linejoin="round" d="M 8022,10851 L 8022,10701"/>
 <path fill="none" stroke="rgb(0,0,0)" stroke-width="30" stroke-linejoin="round" d="M 8145,10851 L 8145,10701"/>
 <path fill="none" stroke="rgb(0,0,0)" stroke-width="30" stroke-linejoin="round" d="M 8145,10851 L 8145,10701"/>
 <path fill="none" stroke="rgb(0,0,0)" stroke-width="30" stroke-linejoin="round" d="M 8267,10851 L 8267,10701"/>
 <path fill="none" stroke="rgb(0,0,0)" stroke-width="30" stroke-linejoin="round" d="M 8267,10851 L 8267,10701"/>
 <path fill="none" stroke="rgb(0,0,0)" stroke-width="30" stroke-linejoin="round" d="M 8390,10851 L 8390,10701"/>
 <path fill="none" stroke="rgb(0,0,0)" stroke-width="30" stroke-linejoin="round" d="M 8390,10851 L 8390,10701"/>
 <path fill="none" stroke="rgb(0,0,0)" stroke-width="30" stroke-linejoin="round" d="M 8513,10851 L 8513,10701"/>
 <path fill="none" stroke="rgb(0,0,0)" stroke-width="30" stroke-linejoin="round" d="M 8513,10851 L 8513,10701"/>
 <path fill="none" stroke="rgb(0,0,0)" stroke-width="30" stroke-linejoin="round" d="M 8636,10851 L 8636,10701"/>
 <path fill="none" stroke="rgb(0,0,0)" stroke-width="30" stroke-linejoin="round" d="M 8636,10851 L 8636,10701"/>
 <path fill="none" stroke="rgb(0,0,0)" stroke-width="30" stroke-linejoin="round" d="M 8759,10851 L 8759,10701"/>
 <path fill="none" stroke="rgb(0,0,0)" stroke-width="30" stroke-linejoin="round" d="M 8759,10851 L 8759,10701"/>
 <path fill="none" stroke="rgb(0,0,0)" stroke-width="30" stroke-linejoin="round" d="M 8882,10851 L 8882,10701"/>
 <path fill="none" stroke="rgb(0,0,0)" stroke-width="30" stroke-linejoin="round" d="M 8882,10851 L 8882,10701"/>
 <path fill="none" stroke="rgb(0,0,0)" stroke-width="30" stroke-linejoin="round" d="M 9005,10851 L 9005,10701"/>
 <path fill="none" stroke="rgb(0,0,0)" stroke-width="30" stroke-linejoin="round" d="M 9005,10851 L 9005,10701"/>
 <path fill="none" stroke="rgb(0,0,0)" stroke-width="30" stroke-linejoin="round" d="M 9128,10851 L 9128,10701"/>
 <path fill="none" stroke="rgb(0,0,0)" stroke-width="30" stroke-linejoin="round" d="M 9128,10851 L 9128,10701"/>
 <path fill="none" stroke="rgb(0,0,0)" stroke-width="30" stroke-linejoin="round" d="M 9251,10851 L 9251,10701"/>
 <path fill="none" stroke="rgb(0,0,0)" stroke-width="30" stroke-linejoin="round" d="M 9251,10851 L 9251,10701"/>
 <path fill="none" stroke="rgb(0,0,0)" stroke-width="30" stroke-linejoin="round" d="M 9374,10851 L 9374,10701"/>
 <path fill="none" stroke="rgb(0,0,0)" stroke-width="30" stroke-linejoin="round" d="M 9374,10851 L 9374,10701"/>
 <path fill="none" stroke="rgb(0,0,0)" stroke-width="30" stroke-linejoin="round" d="M 9497,10851 L 9497,10701"/>
 <path fill="none" stroke="rgb(0,0,0)" stroke-width="30" stroke-linejoin="round" d="M 9497,10851 L 9497,10701"/>
 <path fill="none" stroke="rgb(0,0,0)" stroke-width="30" stroke-linejoin="round" d="M 9621,10851 L 9621,10701"/>
 <path fill="none" stroke="rgb(0,0,0)" stroke-width="30" stroke-linejoin="round" d="M 9621,10851 L 9621,10701"/>
 <path fill="none" stroke="rgb(0,0,0)" stroke-width="30" stroke-linejoin="round" d="M 9744,10851 L 9744,10701"/>
 <path fill="none" stroke="rgb(0,0,0)" stroke-width="30" stroke-linejoin="round" d="M 9744,10851 L 9744,10701"/>
 <path fill="none" stroke="rgb(0,0,0)" stroke-width="30" stroke-linejoin="round" d="M 9867,10851 L 9867,10701"/>
 <path fill="none" stroke="rgb(0,0,0)" stroke-width="30" stroke-linejoin="round" d="M 9867,10851 L 9867,10701"/>
 <path fill="none" stroke="rgb(0,0,0)" stroke-width="30" stroke-linejoin="round" d="M 9990,10851 L 9990,10701"/>
 <path fill="none" stroke="rgb(0,0,0)" stroke-width="30" stroke-linejoin="round" d="M 9990,10851 L 9990,10701"/>
 <path fill="none" stroke="rgb(0,0,0)" stroke-width="30" stroke-linejoin="round" d="M 10113,10851 L 10113,10701"/>
 <path fill="none" stroke="rgb(0,0,0)" stroke-width="30" stroke-linejoin="round" d="M 10113,10851 L 10113,10701"/>
 <path fill="none" stroke="rgb(0,0,0)" stroke-width="30" stroke-linejoin="round" d="M 10236,10851 L 10236,10701"/>
 <path fill="none" stroke="rgb(0,0,0)" stroke-width="30" stroke-linejoin="round" d="M 10236,10851 L 10236,10701"/>
 <path fill="none" stroke="rgb(0,0,0)" stroke-width="30" stroke-linejoin="round" d="M 10359,10851 L 10359,10701"/>
 <path fill="none" stroke="rgb(0,0,0)" stroke-width="30" stroke-linejoin="round" d="M 10359,10851 L 10359,10701"/>
 <path fill="none" stroke="rgb(0,0,0)" stroke-width="30" stroke-linejoin="round" d="M 10482,10851 L 10482,10701"/>
 <path fill="none" stroke="rgb(0,0,0)" stroke-width="30" stroke-linejoin="round" d="M 10482,10851 L 10482,10701"/>
 <path fill="none" stroke="rgb(0,0,0)" stroke-width="30" stroke-linejoin="round" d="M 10605,10851 L 10605,10701"/>
 <path fill="none" stroke="rgb(0,0,0)" stroke-width="30" stroke-linejoin="round" d="M 10605,10851 L 10605,10701"/>
 <path fill="none" stroke="rgb(0,0,0)" stroke-width="30" stroke-linejoin="round" d="M 10728,10851 L 10728,10701"/>
 <path fill="none" stroke="rgb(0,0,0)" stroke-width="30" stroke-linejoin="round" d="M 10728,10851 L 10728,10701"/>
 <path fill="none" stroke="rgb(0,0,0)" stroke-width="30" stroke-linejoin="round" d="M 10851,10851 L 10851,10701"/>
 <path fill="none" stroke="rgb(0,0,0)" stroke-width="30" stroke-linejoin="round" d="M 10851,10851 L 10851,10701"/>
 <path fill="none" stroke="rgb(0,0,0)" stroke-width="30" stroke-linejoin="round" d="M 10974,10851 L 10974,10701"/>
 <path fill="none" stroke="rgb(0,0,0)" stroke-width="30" stroke-linejoin="round" d="M 10974,10851 L 10974,10701"/>
 <path fill="none" stroke="rgb(0,0,0)" stroke-width="30" stroke-linejoin="round" d="M 11097,10851 L 11097,10701"/>
 <path fill="none" stroke="rgb(0,0,0)" stroke-width="30" stroke-linejoin="round" d="M 11097,10851 L 11097,10701"/>
 <path fill="none" stroke="rgb(0,0,0)" stroke-width="30" stroke-linejoin="round" d="M 11220,10851 L 11220,10701"/>
 <path fill="none" stroke="rgb(0,0,0)" stroke-width="30" stroke-linejoin="round" d="M 11220,10851 L 11220,10701"/>
 <path fill="none" stroke="rgb(0,0,0)" stroke-width="30" stroke-linejoin="round" d="M 11343,10851 L 11343,10701"/>
 <path fill="none" stroke="rgb(0,0,0)" stroke-width="30" stroke-linejoin="round" d="M 11343,10851 L 11343,10701"/>
 <path fill="none" stroke="rgb(0,0,0)" stroke-width="30" stroke-linejoin="round" d="M 11466,10851 L 11466,10701"/>
 <path fill="none" stroke="rgb(0,0,0)" stroke-width="30" stroke-linejoin="round" d="M 11466,10851 L 11466,10701"/>
 <path fill="none" stroke="rgb(0,0,0)" stroke-width="30" stroke-linejoin="round" d="M 11589,10851 L 11589,10701"/>
 <path fill="none" stroke="rgb(0,0,0)" stroke-width="30" stroke-linejoin="round" d="M 11589,10851 L 11589,10701"/>
 <path fill="none" stroke="rgb(0,0,0)" stroke-width="30" stroke-linejoin="round" d="M 11712,10851 L 11712,10701"/>
 <path fill="none" stroke="rgb(0,0,0)" stroke-width="30" stroke-linejoin="round" d="M 11712,10851 L 11712,10701"/>
 <path fill="none" stroke="rgb(0,0,0)" stroke-width="30" stroke-linejoin="round" d="M 11835,10851 L 11835,10701"/>
 <path fill="none" stroke="rgb(0,0,0)" stroke-width="30" stroke-linejoin="round" d="M 11835,10851 L 11835,10701"/>
 <path fill="none" stroke="rgb(0,0,0)" stroke-width="30" stroke-linejoin="round" d="M 11958,10851 L 11958,10701"/>
 <path fill="none" stroke="rgb(0,0,0)" stroke-width="30" stroke-linejoin="round" d="M 11958,10851 L 11958,10701"/>
 <path fill="none" stroke="rgb(0,0,0)" stroke-width="30" stroke-linejoin="round" d="M 12081,10851 L 12081,10701"/>
 <path fill="none" stroke="rgb(0,0,0)" stroke-width="30" stroke-linejoin="round" d="M 12081,10851 L 12081,10701"/>
 <path fill="none" stroke="rgb(0,0,0)" stroke-width="30" stroke-linejoin="round" d="M 12204,10851 L 12204,10701"/>
 <path fill="none" stroke="rgb(0,0,0)" stroke-width="30" stroke-linejoin="round" d="M 12204,10851 L 12204,10701"/>
 <path fill="none" stroke="rgb(0,0,0)" stroke-width="30" stroke-linejoin="round" d="M 12327,10851 L 12327,10701"/>
 <path fill="none" stroke="rgb(0,0,0)" stroke-width="30" stroke-linejoin="round" d="M 12327,10851 L 12327,10701"/>
 <path fill="none" stroke="rgb(0,0,0)" stroke-width="30" stroke-linejoin="round" d="M 12451,10851 L 12451,10701"/>
 <path fill="none" stroke="rgb(0,0,0)" stroke-width="30" stroke-linejoin="round" d="M 12451,10851 L 12451,10701"/>
 <path fill="none" stroke="rgb(0,0,0)" stroke-width="30" stroke-linejoin="round" d="M 12574,10851 L 12574,10701"/>
 <path fill="none" stroke="rgb(0,0,0)" stroke-width="30" stroke-linejoin="round" d="M 12574,10851 L 12574,10701"/>
 <path fill="none" stroke="rgb(0,0,0)" stroke-width="30" stroke-linejoin="round" d="M 12697,10851 L 12697,10701"/>
 <path fill="none" stroke="rgb(0,0,0)" stroke-width="30" stroke-linejoin="round" d="M 12697,10851 L 12697,10701"/>
 <path fill="none" stroke="rgb(0,0,0)" stroke-width="30" stroke-linejoin="round" d="M 12820,10851 L 12820,10701"/>
 <path fill="none" stroke="rgb(0,0,0)" stroke-width="30" stroke-linejoin="round" d="M 12820,10851 L 12820,10701"/>
 <path fill="none" stroke="rgb(0,0,0)" stroke-width="30" stroke-linejoin="round" d="M 12943,10851 L 12943,10701"/>
 <path fill="none" stroke="rgb(0,0,0)" stroke-width="30" stroke-linejoin="round" d="M 12943,10851 L 12943,10701"/>
 <path fill="none" stroke="rgb(0,0,0)" stroke-width="30" stroke-linejoin="round" d="M 13066,10851 L 13066,10701"/>
 <path fill="none" stroke="rgb(0,0,0)" stroke-width="30" stroke-linejoin="round" d="M 13066,10851 L 13066,10701"/>
 <path fill="none" stroke="rgb(0,0,0)" stroke-width="30" stroke-linejoin="round" d="M 13189,10851 L 13189,10701"/>
 <path fill="none" stroke="rgb(0,0,0)" stroke-width="30" stroke-linejoin="round" d="M 13189,10851 L 13189,10701"/>
 <path fill="none" stroke="rgb(0,0,0)" stroke-width="30" stroke-linejoin="round" d="M 13312,10851 L 13312,10701"/>
 <path fill="none" stroke="rgb(0,0,0)" stroke-width="30" stroke-linejoin="round" d="M 13312,10851 L 13312,10701"/>
 <path fill="none" stroke="rgb(0,0,0)" stroke-width="30" stroke-linejoin="round" d="M 13435,10851 L 13435,10701"/>
 <path fill="none" stroke="rgb(0,0,0)" stroke-width="30" stroke-linejoin="round" d="M 13435,10851 L 13435,10701"/>
 <path fill="none" stroke="rgb(0,0,0)" stroke-width="30" stroke-linejoin="round" d="M 13558,10851 L 13558,10701"/>
 <path fill="none" stroke="rgb(0,0,0)" stroke-width="30" stroke-linejoin="round" d="M 13558,10851 L 13558,10701"/>
 <path fill="none" stroke="rgb(0,0,0)" stroke-width="30" stroke-linejoin="round" d="M 13681,10851 L 13681,10701"/>
 <path fill="none" stroke="rgb(0,0,0)" stroke-width="30" stroke-linejoin="round" d="M 13681,10851 L 13681,10701"/>
 <path fill="none" stroke="rgb(0,0,0)" stroke-width="30" stroke-linejoin="round" d="M 13804,10851 L 13804,10701"/>
 <path fill="none" stroke="rgb(0,0,0)" stroke-width="30" stroke-linejoin="round" d="M 13804,10851 L 13804,10701"/>
 <path fill="none" stroke="rgb(0,0,0)" stroke-width="30" stroke-linejoin="round" d="M 13927,10851 L 13927,10701"/>
 <path fill="none" stroke="rgb(0,0,0)" stroke-width="30" stroke-linejoin="round" d="M 13927,10851 L 13927,10701"/>
 <path fill="none" stroke="rgb(0,0,0)" stroke-width="30" stroke-linejoin="round" d="M 14050,10851 L 14050,10701"/>
 <path fill="none" stroke="rgb(0,0,0)" stroke-width="30" stroke-linejoin="round" d="M 14050,10851 L 14050,10701"/>
 <path fill="none" stroke="rgb(0,0,0)" stroke-width="30" stroke-linejoin="round" d="M 14173,10851 L 14173,10701"/>
 <path fill="none" stroke="rgb(0,0,0)" stroke-width="30" stroke-linejoin="round" d="M 14173,10851 L 14173,10701"/>
 <path fill="none" stroke="rgb(0,0,0)" stroke-width="30" stroke-linejoin="round" d="M 14296,10851 L 14296,10701"/>
 <path fill="none" stroke="rgb(0,0,0)" stroke-width="30" stroke-linejoin="round" d="M 14296,10851 L 14296,10701"/>
 <path fill="none" stroke="rgb(0,0,0)" stroke-width="30" stroke-linejoin="round" d="M 14419,10851 L 14419,10701"/>
 <path fill="none" stroke="rgb(0,0,0)" stroke-width="30" stroke-linejoin="round" d="M 14419,10851 L 14419,10701"/>
 <path fill="none" stroke="rgb(0,0,0)" stroke-width="30" stroke-linejoin="round" d="M 14542,10851 L 14542,10701"/>
 <path fill="none" stroke="rgb(0,0,0)" stroke-width="30" stroke-linejoin="round" d="M 14542,10851 L 14542,10701"/>
 <path fill="none" stroke="rgb(0,0,0)" stroke-width="30" stroke-linejoin="round" d="M 14665,10851 L 14665,10701"/>
 <path fill="none" stroke="rgb(0,0,0)" stroke-width="30" stroke-linejoin="round" d="M 14665,10851 L 14665,10701"/>
 <path fill="none" stroke="rgb(0,0,0)" stroke-width="30" stroke-linejoin="round" d="M 14788,10851 L 14788,10701"/>
 <path fill="none" stroke="rgb(0,0,0)" stroke-width="30" stroke-linejoin="round" d="M 14788,10851 L 14788,10701"/>
 <path fill="none" stroke="rgb(0,0,0)" stroke-width="30" stroke-linejoin="round" d="M 14911,10851 L 14911,10701"/>
 <path fill="none" stroke="rgb(0,0,0)" stroke-width="30" stroke-linejoin="round" d="M 14911,10851 L 14911,10701"/>
 <path fill="none" stroke="rgb(0,0,0)" stroke-width="30" stroke-linejoin="round" d="M 15034,10851 L 15034,10701"/>
 <path fill="none" stroke="rgb(0,0,0)" stroke-width="30" stroke-linejoin="round" d="M 15034,10851 L 15034,10701"/>
 <path fill="none" stroke="rgb(0,0,0)" stroke-width="30" stroke-linejoin="round" d="M 15158,10851 L 15158,10701"/>
 <path fill="none" stroke="rgb(0,0,0)" stroke-width="30" stroke-linejoin="round" d="M 15158,10851 L 15158,10701"/>
 <path fill="none" stroke="rgb(0,0,0)" stroke-width="30" stroke-linejoin="round" d="M 1255,10701 L 15158,10701"/>
 <path fill="none" stroke="rgb(0,0,0)" stroke-width="30" stroke-linejoin="round" d="M 1105,10701 L 1255,10701"/>
 <path fill="none" stroke="rgb(0,0,0)" stroke-width="30" stroke-linejoin="round" d="M 1105,10701 L 1255,10701"/>
 <path fill="none" stroke="rgb(0,0,0)" stroke-width="30" stroke-linejoin="round" d="M 1105,9739 L 1255,9739"/>
 <path fill="none" stroke="rgb(0,0,0)" stroke-width="30" stroke-linejoin="round" d="M 1105,9739 L 1255,9739"/>
 <path fill="none" stroke="rgb(0,0,0)" stroke-width="30" stroke-linejoin="round" d="M 1105,8778 L 1255,8778"/>
 <path fill="none" stroke="rgb(0,0,0)" stroke-width="30" stroke-linejoin="round" d="M 1105,8778 L 1255,8778"/>
 <path fill="none" stroke="rgb(0,0,0)" stroke-width="30" stroke-linejoin="round" d="M 1105,7817 L 1255,7817"/>
 <path fill="none" stroke="rgb(0,0,0)" stroke-width="30" stroke-linejoin="round" d="M 1105,7817 L 1255,7817"/>
 <path fill="none" stroke="rgb(0,0,0)" stroke-width="30" stroke-linejoin="round" d="M 1105,6856 L 1255,6856"/>
 <path fill="none" stroke="rgb(0,0,0)" stroke-width="30" stroke-linejoin="round" d="M 1105,6856 L 1255,6856"/>
 <path fill="none" stroke="rgb(0,0,0)" stroke-width="30" stroke-linejoin="round" d="M 1105,5896 L 1255,5896"/>
 <path fill="none" stroke="rgb(0,0,0)" stroke-width="30" stroke-linejoin="round" d="M 1105,5896 L 1255,5896"/>
 <path fill="none" stroke="rgb(0,0,0)" stroke-width="30" stroke-linejoin="round" d="M 1105,4935 L 1255,4935"/>
 <path fill="none" stroke="rgb(0,0,0)" stroke-width="30" stroke-linejoin="round" d="M 1105,4935 L 1255,4935"/>
 <path fill="none" stroke="rgb(0,0,0)" stroke-width="30" stroke-linejoin="round" d="M 1105,3974 L 1255,3974"/>
 <path fill="none" stroke="rgb(0,0,0)" stroke-width="30" stroke-linejoin="round" d="M 1105,3974 L 1255,3974"/>
 <path fill="none" stroke="rgb(0,0,0)" stroke-width="30" stroke-linejoin="round" d="M 1105,3013 L 1255,3013"/>
 <path fill="none" stroke="rgb(0,0,0)" stroke-width="30" stroke-linejoin="round" d="M 1105,3013 L 1255,3013"/>
 <path fill="none" stroke="rgb(0,0,0)" stroke-width="30" stroke-linejoin="round" d="M 1105,2052 L 1255,2052"/>
 <path fill="none" stroke="rgb(0,0,0)" stroke-width="30" stroke-linejoin="round" d="M 1105,2052 L 1255,2052"/>
 <path fill="none" stroke="rgb(0,0,0)" stroke-width="30" stroke-linejoin="round" d="M 1105,1091 L 1255,1091"/>
 <path fill="none" stroke="rgb(0,0,0)" stroke-width="30" stroke-linejoin="round" d="M 1105,1091 L 1255,1091"/>
 <path fill="none" stroke="rgb(0,0,0)" stroke-width="30" stroke-linejoin="round" d="M 1255,10701 L 1255,1091"/>
 <path fill="none" stroke="rgb(0,0,0)" stroke-width="30" stroke-linejoin="round" d="M 15308,10701 L 15158,10701"/>
 <path fill="none" stroke="rgb(0,0,0)" stroke-width="30" stroke-linejoin="round" d="M 15308,10701 L 15158,10701"/>
 <path fill="none" stroke="rgb(0,0,0)" stroke-width="30" stroke-linejoin="round" d="M 15308,9739 L 15158,9739"/>
 <path fill="none" stroke="rgb(0,0,0)" stroke-width="30" stroke-linejoin="round" d="M 15308,9739 L 15158,9739"/>
 <path fill="none" stroke="rgb(0,0,0)" stroke-width="30" stroke-linejoin="round" d="M 15308,8778 L 15158,8778"/>
 <path fill="none" stroke="rgb(0,0,0)" stroke-width="30" stroke-linejoin="round" d="M 15308,8778 L 15158,8778"/>
 <path fill="none" stroke="rgb(0,0,0)" stroke-width="30" stroke-linejoin="round" d="M 15308,7817 L 15158,7817"/>
 <path fill="none" stroke="rgb(0,0,0)" stroke-width="30" stroke-linejoin="round" d="M 15308,7817 L 15158,7817"/>
 <path fill="none" stroke="rgb(0,0,0)" stroke-width="30" stroke-linejoin="round" d="M 15308,6856 L 15158,6856"/>
 <path fill="none" stroke="rgb(0,0,0)" stroke-width="30" stroke-linejoin="round" d="M 15308,6856 L 15158,6856"/>
 <path fill="none" stroke="rgb(0,0,0)" stroke-width="30" stroke-linejoin="round" d="M 15308,5896 L 15158,5896"/>
 <path fill="none" stroke="rgb(0,0,0)" stroke-width="30" stroke-linejoin="round" d="M 15308,5896 L 15158,5896"/>
 <path fill="none" stroke="rgb(0,0,0)" stroke-width="30" stroke-linejoin="round" d="M 15308,4935 L 15158,4935"/>
 <path fill="none" stroke="rgb(0,0,0)" stroke-width="30" stroke-linejoin="round" d="M 15308,4935 L 15158,4935"/>
 <path fill="none" stroke="rgb(0,0,0)" stroke-width="30" stroke-linejoin="round" d="M 15308,3974 L 15158,3974"/>
 <path fill="none" stroke="rgb(0,0,0)" stroke-width="30" stroke-linejoin="round" d="M 15308,3974 L 15158,3974"/>
 <path fill="none" stroke="rgb(0,0,0)" stroke-width="30" stroke-linejoin="round" d="M 15308,3013 L 15158,3013"/>
 <path fill="none" stroke="rgb(0,0,0)" stroke-width="30" stroke-linejoin="round" d="M 15308,3013 L 15158,3013"/>
 <path fill="none" stroke="rgb(0,0,0)" stroke-width="30" stroke-linejoin="round" d="M 15308,2052 L 15158,2052"/>
 <path fill="none" stroke="rgb(0,0,0)" stroke-width="30" stroke-linejoin="round" d="M 15308,2052 L 15158,2052"/>
 <path fill="none" stroke="rgb(0,0,0)" stroke-width="30" stroke-linejoin="round" d="M 15308,1091 L 15158,1091"/>
 <path fill="none" stroke="rgb(0,0,0)" stroke-width="30" stroke-linejoin="round" d="M 15308,1091 L 15158,1091"/>
 <path fill="none" stroke="rgb(0,0,0)" stroke-width="30" stroke-linejoin="round" d="M 15158,10701 L 15158,1091"/>
 <path fill="rgb(0,69,134)" stroke="none" d="M 1255,9935 L 1378,9943 1501,9997 1624,10024 1747,10030 1870,10045 1993,10072 2116,10097 2239,10108 2362,10129 2485,10157 2608,10164 2731,10182 2854,10188 2977,10205 3100,10207 3223,10198 3346,10196 3469,10198 3592,10212 3715,10205 3838,10187 3961,10197 4085,10202 4208,10206 4331,10186 4454,10201 4577,10206 4700,10209 4823,10185 4946,10191 5069,10204 5192,10174 5315,10190 5438,10201 5561,10216 5684,10236 5807,10194 5930,10226 6053,10192 6176,10228 6299,10200 6422,10198 6545,10188 6668,10138 6791,10142 6915,10160 7038,10186 7161,10167 7284,10130 7407,10138 7530,10156 7653,10135 7776,10118 7899,10113 8022,10092 8145,10064 8267,10091 8390,10074 8513,10036 8636,10007 8759,9948 8882,9917 9005,9934 9128,9964 9251,9898 9374,9843 9497,9818 9621,9768 9744,9471 9867,9504 9990,9542 10113,9560 10236,9369 10359,9380 10482,9296 10605,9198 10728,9202 10851,9360 10974,9466 11097,9527 11220,9413 11343,9453 11466,9289 11589,9181 11712,9078 11835,8948 11958,8897 12081,8862 12204,8806 12327,8642 12451,8522 12574,8355 12697,8333 12820,8215 12943,8245 13066,8095 13189,7959 13312,7812 13435,7980 13558,7786 13681,7711 13804,7564 13927,7373 14050,7144 14173,6975 14296,6936 14419,6940 14542,6748 14665,6546 14788,6492 14911,6704 15034,6599 15158,6578 15158,10701 1255,10701 1255,9935 Z"/>
 <path fill="none" stroke="rgb(0,0,0)" stroke-linejoin="round" d="M 1255,9935 L 1378,9943 1501,9997 1624,10024 1747,10030 1870,10045 1993,10072 2116,10097 2239,10108 2362,10129 2485,10157 2608,10164 2731,10182 2854,10188 2977,10205 3100,10207 3223,10198 3346,10196 3469,10198 3592,10212 3715,10205 3838,10187 3961,10197 4085,10202 4208,10206 4331,10186 4454,10201 4577,10206 4700,10209 4823,10185 4946,10191 5069,10204 5192,10174 5315,10190 5438,10201 5561,10216 5684,10236 5807,10194 5930,10226 6053,10192 6176,10228 6299,10200 6422,10198 6545,10188 6668,10138 6791,10142 6915,10160 7038,10186 7161,10167 7284,10130 7407,10138 7530,10156 7653,10135 7776,10118 7899,10113 8022,10092 8145,10064 8267,10091 8390,10074 8513,10036 8636,10007 8759,9948 8882,9917 9005,9934 9128,9964 9251,9898 9374,9843 9497,9818 9621,9768 9744,9471 9867,9504 9990,9542 10113,9560 10236,9369 10359,9380 10482,9296 10605,9198 10728,9202 10851,9360 10974,9466 11097,9527 11220,9413 11343,9453 11466,9289 11589,9181 11712,9078 11835,8948 11958,8897 12081,8862 12204,8806 12327,8642 12451,8522 12574,8355 12697,8333 12820,8215 12943,8245 13066,8095 13189,7959 13312,7812 13435,7980 13558,7786 13681,7711 13804,7564 13927,7373 14050,7144 14173,6975 14296,6936 14419,6940 14542,6748 14665,6546 14788,6492 14911,6704 15034,6599 15158,6578 15158,10701 1255,10701 1255,9935 Z"/>
 <path fill="rgb(255,66,14)" stroke="none" d="M 1255,4952 L 1378,4999 1501,5180 1624,5270 1747,5322 1870,5301 1993,5490 2116,5587 2239,5635 2362,5743 2485,5845 2608,5875 2731,6005 2854,6092 2977,6208 3100,6239 3223,6291 3346,6338 3469,6358 3592,6403 3715,6423 3838,6453 3961,6520 4085,6536 4208,6624 4331,6662 4454,6773 4577,6810 4700,6859 4823,6920 4946,6917 5069,6927 5192,6920 5315,6997 5438,7038 5561,7064 5684,7092 5807,7123 5930,7188 6053,7196 6176,7247 6299,7270 6422,7308 6545,7309 6668,7268 6791,7308 6915,7366 7038,7477 7161,7414 7284,7293 7407,7297 7530,7341 7653,7335 7776,7258 7899,7335 8022,7394 8145,7417 8267,7484 8390,7413 8513,7392 8636,7337 8759,7118 8882,7205 9005,7146 9128,7183 9251,7215 9374,7228 9497,7217 9621,7119 9744,6928 9867,7018 9990,7105 10113,7092 10236,6876 10359,6899 10482,6886 10605,6824 10728,6890 10851,7229 10974,7388 11097,7312 11220,7249 11343,7322 11466,7220 11589,7076 11712,6987 11835,6745 11958,6803 12081,6847 12204,6896 12327,6737 12451,6620 12574,6506 12697,6497 12820,6511 12943,6543 13066,6404 13189,6262 13312,6170 13435,6426 13558,6266 13681,6166 13804,6065 13927,5910 14050,5642 14173,5619 14296,5641 14419,5617 14542,5397 14665,5119 14788,5079 14911,5309 15034,5202 15158,5079 15158,6578 15034,6599 14911,6704 14788,6492 14665,6546 14542,6748 14419,6940 14296,6936 14173,6975 14050,7144 13927,7373 13804,7564 13681,7711 13558,7786 13435,7980 13312,7812 13189,7959 13066,8095 12943,8245 12820,8215 12697,8333 12574,8355 12451,8522 12327,8642 12204,8806 12081,8862 11958,8897 11835,8948 11712,9078 11589,9181 11466,9289 11343,9453 11220,9413 11097,9527 10974,9466 10851,9360 10728,9202 10605,9198 10482,9296 10359,9380 10236,9369 10113,9560 9990,9542 9867,9504 9744,9471 9621,9768 9497,9818 9374,9843 9251,9898 9128,9964 9005,9934 8882,9917 8759,9948 8636,10007 8513,10036 8390,10074 8267,10091 8145,10064 8022,10092 7899,10113 7776,10118 7653,10135 7530,10156 7407,10138 7284,10130 7161,10167 7038,10186 6915,10160 6791,10142 6668,10138 6545,10188 6422,10198 6299,10200 6176,10228 6053,10192 5930,10226 5807,10194 5684,10236 5561,10216 5438,10201 5315,10190 5192,10174 5069,10204 4946,10191 4823,10185 4700,10209 4577,10206 4454,10201 4331,10186 4208,10206 4085,10202 3961,10197 3838,10187 3715,10205 3592,10212 3469,10198 3346,10196 3223,10198 3100,10207 2977,10205 2854,10188 2731,10182 2608,10164 2485,10157 2362,10129 2239,10108 2116,10097 1993,10072 1870,10045 1747,10030 1624,10024 1501,9997 1378,9943 1255,9935 1255,4952 Z"/>
 <path fill="none" stroke="rgb(0,0,0)" stroke-linejoin="round" d="M 1255,4952 L 1378,4999 1501,5180 1624,5270 1747,5322 1870,5301 1993,5490 2116,5587 2239,5635 2362,5743 2485,5845 2608,5875 2731,6005 2854,6092 2977,6208 3100,6239 3223,6291 3346,6338 3469,6358 3592,6403 3715,6423 3838,6453 3961,6520 4085,6536 4208,6624 4331,6662 4454,6773 4577,6810 4700,6859 4823,6920 4946,6917 5069,6927 5192,6920 5315,6997 5438,7038 5561,7064 5684,7092 5807,7123 5930,7188 6053,7196 6176,7247 6299,7270 6422,7308 6545,7309 6668,7268 6791,7308 6915,7366 7038,7477 7161,7414 7284,7293 7407,7297 7530,7341 7653,7335 7776,7258 7899,7335 8022,7394 8145,7417 8267,7484 8390,7413 8513,7392 8636,7337 8759,7118 8882,7205 9005,7146 9128,7183 9251,7215 9374,7228 9497,7217 9621,7119 9744,6928 9867,7018 9990,7105 10113,7092 10236,6876 10359,6899 10482,6886 10605,6824 10728,6890 10851,7229 10974,7388 11097,7312 11220,7249 11343,7322 11466,7220 11589,7076 11712,6987 11835,6745 11958,6803 12081,6847 12204,6896 12327,6737 12451,6620 12574,6506 12697,6497 12820,6511 12943,6543 13066,6404 13189,6262 13312,6170 13435,6426 13558,6266 13681,6166 13804,6065 13927,5910 14050,5642 14173,5619 14296,5641 14419,5617 14542,5397 14665,5119 14788,5079 14911,5309 15034,5202 15158,5079 15158,6578 15034,6599 14911,6704 14788,6492 14665,6546 14542,6748 14419,6940 14296,6936 14173,6975 14050,7144 13927,7373 13804,7564 13681,7711 13558,7786 13435,7980 13312,7812 13189,7959 13066,8095 12943,8245 12820,8215 12697,8333 12574,8355 12451,8522 12327,8642 12204,8806 12081,8862 11958,8897 11835,8948 11712,9078 11589,9181 11466,9289 11343,9453 11220,9413 11097,9527 10974,9466 10851,9360 10728,9202 10605,9198 10482,9296 10359,9380 10236,9369 10113,9560 9990,9542 9867,9504 9744,9471 9621,9768 9497,9818 9374,9843 9251,9898 9128,9964 9005,9934 8882,9917 8759,9948 8636,10007 8513,10036 8390,10074 8267,10091 8145,10064 8022,10092 7899,10113 7776,10118 7653,10135 7530,10156 7407,10138 7284,10130 7161,10167 7038,10186 6915,10160 6791,10142 6668,10138 6545,10188 6422,10198 6299,10200 6176,10228 6053,10192 5930,10226 5807,10194 5684,10236 5561,10216 5438,10201 5315,10190 5192,10174 5069,10204 4946,10191 4823,10185 4700,10209 4577,10206 4454,10201 4331,10186 4208,10206 4085,10202 3961,10197 3838,10187 3715,10205 3592,10212 3469,10198 3346,10196 3223,10198 3100,10207 2977,10205 2854,10188 2731,10182 2608,10164 2485,10157 2362,10129 2239,10108 2116,10097 1993,10072 1870,10045 1747,10030 1624,10024 1501,9997 1378,9943 1255,9935 1255,4952 Z"/>
 <path fill="rgb(255,211,32)" stroke="none" d="M 1255,1619 L 1378,1634 1501,1691 1624,1744 1747,1708 1870,1711 1993,1787 2116,1801 2239,1808 2362,1844 2485,1877 2608,1847 2731,1883 2854,1933 2977,1960 3100,1976 3223,2003 3346,2036 3469,2035 3592,2029 3715,2055 3838,2069 3961,2101 4085,2109 4208,2140 4331,2166 4454,2191 4577,2209 4700,2242 4823,2277 4946,2288 5069,2326 5192,2333 5315,2370 5438,2403 5561,2390 5684,2367 5807,2396 5930,2391 6053,2449 6176,2457 6299,2486 6422,2522 6545,2552 6668,2566 6791,2622 6915,2653 7038,2683 7161,2659 7284,2611 7407,2630 7530,2679 7653,2721 7776,2701 7899,2752 8022,2762 8145,2795 8267,2836 8390,2771 8513,2786 8636,2774 8759,2692 8882,2715 9005,2696 9128,2672 9251,2722 9374,2790 9497,2787 9621,2745 9744,2797 9867,2829 9990,2889 10113,2819 10236,2798 10359,2834 10482,2849 10605,2858 10728,2908 10851,3097 10974,3127 11097,2994 11220,2889 11343,2945 11466,2963 11589,2984 11712,2986 11835,2935 11958,2925 12081,3002 12204,3007 12327,2938 12451,2968 12574,2938 12697,2899 12820,2931 12943,2941 13066,2941 13189,2933 13312,2927 13435,3075 13558,2992 13681,2957 13804,2950 13927,2926 14050,2796 14173,2787 14296,2802 14419,2755 14542,2610 14665,2515 14788,2501 14911,2564 15034,2563 15158,2529 15158,5079 15034,5202 14911,5309 14788,5079 14665,5119 14542,5397 14419,5617 14296,5641 14173,5619 14050,5642 13927,5910 13804,6065 13681,6166 13558,6266 13435,6426 13312,6170 13189,6262 13066,6404 12943,6543 12820,6511 12697,6497 12574,6506 12451,6620 12327,6737 12204,6896 12081,6847 11958,6803 11835,6745 11712,6987 11589,7076 11466,7220 11343,7322 11220,7249 11097,7312 10974,7388 10851,7229 10728,6890 10605,6824 10482,6886 10359,6899 10236,6876 10113,7092 9990,7105 9867,7018 9744,6928 9621,7119 9497,7217 9374,7228 9251,7215 9128,7183 9005,7146 8882,7205 8759,7118 8636,7337 8513,7392 8390,7413 8267,7484 8145,7417 8022,7394 7899,7335 7776,7258 7653,7335 7530,7341 7407,7297 7284,7293 7161,7414 7038,7477 6915,7366 6791,7308 6668,7268 6545,7309 6422,7308 6299,7270 6176,7247 6053,7196 5930,7188 5807,7123 5684,7092 5561,7064 5438,7038 5315,6997 5192,6920 5069,6927 4946,6917 4823,6920 4700,6859 4577,6810 4454,6773 4331,6662 4208,6624 4085,6536 3961,6520 3838,6453 3715,6423 3592,6403 3469,6358 3346,6338 3223,6291 3100,6239 2977,6208 2854,6092 2731,6005 2608,5875 2485,5845 2362,5743 2239,5635 2116,5587 1993,5490 1870,5301 1747,5322 1624,5270 1501,5180 1378,4999 1255,4952 1255,1619 Z"/>
 <path fill="none" stroke="rgb(0,0,0)" stroke-linejoin="round" d="M 1255,1619 L 1378,1634 1501,1691 1624,1744 1747,1708 1870,1711 1993,1787 2116,1801 2239,1808 2362,1844 2485,1877 2608,1847 2731,1883 2854,1933 2977,1960 3100,1976 3223,2003 3346,2036 3469,2035 3592,2029 3715,2055 3838,2069 3961,2101 4085,2109 4208,2140 4331,2166 4454,2191 4577,2209 4700,2242 4823,2277 4946,2288 5069,2326 5192,2333 5315,2370 5438,2403 5561,2390 5684,2367 5807,2396 5930,2391 6053,2449 6176,2457 6299,2486 6422,2522 6545,2552 6668,2566 6791,2622 6915,2653 7038,2683 7161,2659 7284,2611 7407,2630 7530,2679 7653,2721 7776,2701 7899,2752 8022,2762 8145,2795 8267,2836 8390,2771 8513,2786 8636,2774 8759,2692 8882,2715 9005,2696 9128,2672 9251,2722 9374,2790 9497,2787 9621,2745 9744,2797 9867,2829 9990,2889 10113,2819 10236,2798 10359,2834 10482,2849 10605,2858 10728,2908 10851,3097 10974,3127 11097,2994 11220,2889 11343,2945 11466,2963 11589,2984 11712,2986 11835,2935 11958,2925 12081,3002 12204,3007 12327,2938 12451,2968 12574,2938 12697,2899 12820,2931 12943,2941 13066,2941 13189,2933 13312,2927 13435,3075 13558,2992 13681,2957 13804,2950 13927,2926 14050,2796 14173,2787 14296,2802 14419,2755 14542,2610 14665,2515 14788,2501 14911,2564 15034,2563 15158,2529 15158,5079 15034,5202 14911,5309 14788,5079 14665,5119 14542,5397 14419,5617 14296,5641 14173,5619 14050,5642 13927,5910 13804,6065 13681,6166 13558,6266 13435,6426 13312,6170 13189,6262 13066,6404 12943,6543 12820,6511 12697,6497 12574,6506 12451,6620 12327,6737 12204,6896 12081,6847 11958,6803 11835,6745 11712,6987 11589,7076 11466,7220 11343,7322 11220,7249 11097,7312 10974,7388 10851,7229 10728,6890 10605,6824 10482,6886 10359,6899 10236,6876 10113,7092 9990,7105 9867,7018 9744,6928 9621,7119 9497,7217 9374,7228 9251,7215 9128,7183 9005,7146 8882,7205 8759,7118 8636,7337 8513,7392 8390,7413 8267,7484 8145,7417 8022,7394 7899,7335 7776,7258 7653,7335 7530,7341 7407,7297 7284,7293 7161,7414 7038,7477 6915,7366 6791,7308 6668,7268 6545,7309 6422,7308 6299,7270 6176,7247 6053,7196 5930,7188 5807,7123 5684,7092 5561,7064 5438,7038 5315,6997 5192,6920 5069,6927 4946,6917 4823,6920 4700,6859 4577,6810 4454,6773 4331,6662 4208,6624 4085,6536 3961,6520 3838,6453 3715,6423 3592,6403 3469,6358 3346,6338 3223,6291 3100,6239 2977,6208 2854,6092 2731,6005 2608,5875 2485,5845 2362,5743 2239,5635 2116,5587 1993,5490 1870,5301 1747,5322 1624,5270 1501,5180 1378,4999 1255,4952 1255,1619 Z"/>
 <path fill="rgb(87,157,28)" stroke="none" d="M 1255,1235 L 1378,1237 1501,1244 1624,1252 1747,1254 1870,1258 1993,1274 2116,1283 2239,1280 2362,1292 2485,1307 2608,1300 2731,1309 2854,1332 2977,1347 3100,1361 3223,1380 3346,1411 3469,1413 3592,1420 3715,1428 3838,1448 3961,1476 4085,1496 4208,1529 4331,1562 4454,1593 4577,1618 4700,1651 4823,1688 4946,1704 5069,1732 5192,1747 5315,1785 5438,1821 5561,1828 5684,1827 5807,1862 5930,1873 6053,1914 6176,1914 6299,1954 6422,1991 6545,2026 6668,2055 6791,2115 6915,2138 7038,2173 7161,2168 7284,2155 7407,2177 7530,2222 7653,2264 7776,2258 7899,2307 8022,2325 8145,2352 8267,2379 8390,2338 8513,2362 8636,2358 8759,2311 8882,2327 9005,2330 9128,2312 9251,2355 9374,2407 9497,2421 9621,2402 9744,2489 9867,2507 9990,2547 10113,2474 10236,2475 10359,2502 10482,2512 10605,2511 10728,2553 10851,2674 10974,2673 11097,2569 11220,2503 11343,2558 11466,2604 11589,2622 11712,2634 11835,2600 11958,2600 12081,2672 12204,2677 12327,2637 12451,2646 12574,2624 12697,2595 12820,2629 12943,2639 13066,2646 13189,2646 13312,2647 13435,2779 13558,2705 13681,2680 13804,2679 13927,2664 14050,2557 14173,2554 14296,2569 14419,2543 14542,2406 14665,2326 14788,2304 14911,2362 15034,2359 15158,2341 15158,2529 15034,2563 14911,2564 14788,2501 14665,2515 14542,2610 14419,2755 14296,2802 14173,2787 14050,2796 13927,2926 13804,2950 13681,2957 13558,2992 13435,3075 13312,2927 13189,2933 13066,2941 12943,2941 12820,2931 12697,2899 12574,2938 12451,2968 12327,2938 12204,3007 12081,3002 11958,2925 11835,2935 11712,2986 11589,2984 11466,2963 11343,2945 11220,2889 11097,2994 10974,3127 10851,3097 10728,2908 10605,2858 10482,2849 10359,2834 10236,2798 10113,2819 9990,2889 9867,2829 9744,2797 9621,2745 9497,2787 9374,2790 9251,2722 9128,2672 9005,2696 8882,2715 8759,2692 8636,2774 8513,2786 8390,2771 8267,2836 8145,2795 8022,2762 7899,2752 7776,2701 7653,2721 7530,2679 7407,2630 7284,2611 7161,2659 7038,2683 6915,2653 6791,2622 6668,2566 6545,2552 6422,2522 6299,2486 6176,2457 6053,2449 5930,2391 5807,2396 5684,2367 5561,2390 5438,2403 5315,2370 5192,2333 5069,2326 4946,2288 4823,2277 4700,2242 4577,2209 4454,2191 4331,2166 4208,2140 4085,2109 3961,2101 3838,2069 3715,2055 3592,2029 3469,2035 3346,2036 3223,2003 3100,1976 2977,1960 2854,1933 2731,1883 2608,1847 2485,1877 2362,1844 2239,1808 2116,1801 1993,1787 1870,1711 1747,1708 1624,1744 1501,1691 1378,1634 1255,1619 1255,1235 Z"/>
 <path fill="none" stroke="rgb(0,0,0)" stroke-linejoin="round" d="M 1255,1235 L 1378,1237 1501,1244 1624,1252 1747,1254 1870,1258 1993,1274 2116,1283 2239,1280 2362,1292 2485,1307 2608,1300 2731,1309 2854,1332 2977,1347 3100,1361 3223,1380 3346,1411 3469,1413 3592,1420 3715,1428 3838,1448 3961,1476 4085,1496 4208,1529 4331,1562 4454,1593 4577,1618 4700,1651 4823,1688 4946,1704 5069,1732 5192,1747 5315,1785 5438,1821 5561,1828 5684,1827 5807,1862 5930,1873 6053,1914 6176,1914 6299,1954 6422,1991 6545,2026 6668,2055 6791,2115 6915,2138 7038,2173 7161,2168 7284,2155 7407,2177 7530,2222 7653,2264 7776,2258 7899,2307 8022,2325 8145,2352 8267,2379 8390,2338 8513,2362 8636,2358 8759,2311 8882,2327 9005,2330 9128,2312 9251,2355 9374,2407 9497,2421 9621,2402 9744,2489 9867,2507 9990,2547 10113,2474 10236,2475 10359,2502 10482,2512 10605,2511 10728,2553 10851,2674 10974,2673 11097,2569 11220,2503 11343,2558 11466,2604 11589,2622 11712,2634 11835,2600 11958,2600 12081,2672 12204,2677 12327,2637 12451,2646 12574,2624 12697,2595 12820,2629 12943,2639 13066,2646 13189,2646 13312,2647 13435,2779 13558,2705 13681,2680 13804,2679 13927,2664 14050,2557 14173,2554 14296,2569 14419,2543 14542,2406 14665,2326 14788,2304 14911,2362 15034,2359 15158,2341 15158,2529 15034,2563 14911,2564 14788,2501 14665,2515 14542,2610 14419,2755 14296,2802 14173,2787 14050,2796 13927,2926 13804,2950 13681,2957 13558,2992 13435,3075 13312,2927 13189,2933 13066,2941 12943,2941 12820,2931 12697,2899 12574,2938 12451,2968 12327,2938 12204,3007 12081,3002 11958,2925 11835,2935 11712,2986 11589,2984 11466,2963 11343,2945 11220,2889 11097,2994 10974,3127 10851,3097 10728,2908 10605,2858 10482,2849 10359,2834 10236,2798 10113,2819 9990,2889 9867,2829 9744,2797 9621,2745 9497,2787 9374,2790 9251,2722 9128,2672 9005,2696 8882,2715 8759,2692 8636,2774 8513,2786 8390,2771 8267,2836 8145,2795 8022,2762 7899,2752 7776,2701 7653,2721 7530,2679 7407,2630 7284,2611 7161,2659 7038,2683 6915,2653 6791,2622 6668,2566 6545,2552 6422,2522 6299,2486 6176,2457 6053,2449 5930,2391 5807,2396 5684,2367 5561,2390 5438,2403 5315,2370 5192,2333 5069,2326 4946,2288 4823,2277 4700,2242 4577,2209 4454,2191 4331,2166 4208,2140 4085,2109 3961,2101 3838,2069 3715,2055 3592,2029 3469,2035 3346,2036 3223,2003 3100,1976 2977,1960 2854,1933 2731,1883 2608,1847 2485,1877 2362,1844 2239,1808 2116,1801 1993,1787 1870,1711 1747,1708 1624,1744 1501,1691 1378,1634 1255,1619 1255,1235 Z"/>
 <path fill="rgb(126,0,33)" stroke="none" d="M 1255,1130 L 1378,1128 1501,1125 1624,1130 1747,1127 1870,1133 1993,1133 2116,1133 2239,1129 2362,1135 2485,1138 2608,1140 2731,1136 2854,1143 2977,1151 3100,1162 3223,1169 3346,1190 3469,1186 3592,1190 3715,1176 3838,1187 3961,1198 4085,1212 4208,1225 4331,1237 4454,1250 4577,1265 4700,1278 4823,1298 4946,1298 5069,1306 5192,1329 5315,1358 5438,1371 5561,1376 5684,1375 5807,1392 5930,1408 6053,1432 6176,1424 6299,1448 6422,1467 6545,1486 6668,1516 6791,1557 6915,1560 7038,1572 7161,1581 7284,1592 7407,1606 7530,1623 7653,1645 7776,1647 7899,1679 8022,1682 8145,1686 8267,1667 8390,1655 8513,1670 8636,1651 8759,1645 8882,1644 9005,1662 9128,1620 9251,1634 9374,1653 9497,1664 9621,1695 9744,1781 9867,1765 9990,1738 10113,1670 10236,1687 10359,1696 10482,1688 10605,1669 10728,1683 10851,1743 10974,1698 11097,1637 11220,1597 11343,1634 11466,1679 11589,1665 11712,1666 11835,1658 11958,1634 12081,1698 12204,1698 12327,1685 12451,1656 12574,1632 12697,1602 12820,1607 12943,1616 13066,1612 13189,1613 13312,1623 13435,1667 13558,1625 13681,1617 13804,1604 13927,1594 14050,1567 14173,1545 14296,1566 14419,1576 14542,1526 14665,1502 14788,1466 14911,1483 15034,1477 15158,1499 15158,2341 15034,2359 14911,2362 14788,2304 14665,2326 14542,2406 14419,2543 14296,2569 14173,2554 14050,2557 13927,2664 13804,2679 13681,2680 13558,2705 13435,2779 13312,2647 13189,2646 13066,2646 12943,2639 12820,2629 12697,2595 12574,2624 12451,2646 12327,2637 12204,2677 12081,2672 11958,2600 11835,2600 11712,2634 11589,2622 11466,2604 11343,2558 11220,2503 11097,2569 10974,2673 10851,2674 10728,2553 10605,2511 10482,2512 10359,2502 10236,2475 10113,2474 9990,2547 9867,2507 9744,2489 9621,2402 9497,2421 9374,2407 9251,2355 9128,2312 9005,2330 8882,2327 8759,2311 8636,2358 8513,2362 8390,2338 8267,2379 8145,2352 8022,2325 7899,2307 7776,2258 7653,2264 7530,2222 7407,2177 7284,2155 7161,2168 7038,2173 6915,2138 6791,2115 6668,2055 6545,2026 6422,1991 6299,1954 6176,1914 6053,1914 5930,1873 5807,1862 5684,1827 5561,1828 5438,1821 5315,1785 5192,1747 5069,1732 4946,1704 4823,1688 4700,1651 4577,1618 4454,1593 4331,1562 4208,1529 4085,1496 3961,1476 3838,1448 3715,1428 3592,1420 3469,1413 3346,1411 3223,1380 3100,1361 2977,1347 2854,1332 2731,1309 2608,1300 2485,1307 2362,1292 2239,1280 2116,1283 1993,1274 1870,1258 1747,1254 1624,1252 1501,1244 1378,1237 1255,1235 1255,1130 Z"/>
 <path fill="none" stroke="rgb(0,0,0)" stroke-linejoin="round" d="M 1255,1130 L 1378,1128 1501,1125 1624,1130 1747,1127 1870,1133 1993,1133 2116,1133 2239,1129 2362,1135 2485,1138 2608,1140 2731,1136 2854,1143 2977,1151 3100,1162 3223,1169 3346,1190 3469,1186 3592,1190 3715,1176 3838,1187 3961,1198 4085,1212 4208,1225 4331,1237 4454,1250 4577,1265 4700,1278 4823,1298 4946,1298 5069,1306 5192,1329 5315,1358 5438,1371 5561,1376 5684,1375 5807,1392 5930,1408 6053,1432 6176,1424 6299,1448 6422,1467 6545,1486 6668,1516 6791,1557 6915,1560 7038,1572 7161,1581 7284,1592 7407,1606 7530,1623 7653,1645 7776,1647 7899,1679 8022,1682 8145,1686 8267,1667 8390,1655 8513,1670 8636,1651 8759,1645 8882,1644 9005,1662 9128,1620 9251,1634 9374,1653 9497,1664 9621,1695 9744,1781 9867,1765 9990,1738 10113,1670 10236,1687 10359,1696 10482,1688 10605,1669 10728,1683 10851,1743 10974,1698 11097,1637 11220,1597 11343,1634 11466,1679 11589,1665 11712,1666 11835,1658 11958,1634 12081,1698 12204,1698 12327,1685 12451,1656 12574,1632 12697,1602 12820,1607 12943,1616 13066,1612 13189,1613 13312,1623 13435,1667 13558,1625 13681,1617 13804,1604 13927,1594 14050,1567 14173,1545 14296,1566 14419,1576 14542,1526 14665,1502 14788,1466 14911,1483 15034,1477 15158,1499 15158,2341 15034,2359 14911,2362 14788,2304 14665,2326 14542,2406 14419,2543 14296,2569 14173,2554 14050,2557 13927,2664 13804,2679 13681,2680 13558,2705 13435,2779 13312,2647 13189,2646 13066,2646 12943,2639 12820,2629 12697,2595 12574,2624 12451,2646 12327,2637 12204,2677 12081,2672 11958,2600 11835,2600 11712,2634 11589,2622 11466,2604 11343,2558 11220,2503 11097,2569 10974,2673 10851,2674 10728,2553 10605,2511 10482,2512 10359,2502 10236,2475 10113,2474 9990,2547 9867,2507 9744,2489 9621,2402 9497,2421 9374,2407 9251,2355 9128,2312 9005,2330 8882,2327 8759,2311 8636,2358 8513,2362 8390,2338 8267,2379 8145,2352 8022,2325 7899,2307 7776,2258 7653,2264 7530,2222 7407,2177 7284,2155 7161,2168 7038,2173 6915,2138 6791,2115 6668,2055 6545,2026 6422,1991 6299,1954 6176,1914 6053,1914 5930,1873 5807,1862 5684,1827 5561,1828 5438,1821 5315,1785 5192,1747 5069,1732 4946,1704 4823,1688 4700,1651 4577,1618 4454,1593 4331,1562 4208,1529 4085,1496 3961,1476 3838,1448 3715,1428 3592,1420 3469,1413 3346,1411 3223,1380 3100,1361 2977,1347 2854,1332 2731,1309 2608,1300 2485,1307 2362,1292 2239,1280 2116,1283 1993,1274 1870,1258 1747,1254 1624,1252 1501,1244 1378,1237 1255,1235 1255,1130 Z"/>
 <path fill="rgb(131,202,255)" stroke="none" d="M 1255,1091 L 1378,1091 1501,1091 1624,1091 1747,1091 1870,1091 1993,1091 2116,1091 2239,1091 2362,1091 2485,1091 2608,1091 2731,1091 2854,1091 2977,1091 3100,1091 3223,1091 3346,1091 3469,1091 3592,1091 3715,1091 3838,1091 3961,1091 4085,1091 4208,1091 4331,1091 4454,1091 4577,1091 4700,1091 4823,1091 4946,1091 5069,1091 5192,1091 5315,1091 5438,1091 5561,1091 5684,1091 5807,1091 5930,1091 6053,1091 6176,1091 6299,1091 6422,1091 6545,1091 6668,1091 6791,1091 6915,1091 7038,1091 7161,1091 7284,1091 7407,1091 7530,1091 7653,1091 7776,1091 7899,1091 8022,1091 8145,1091 8267,1091 8390,1091 8513,1091 8636,1091 8759,1091 8882,1091 9005,1091 9128,1091 9251,1091 9374,1091 9497,1091 9621,1091 9744,1091 9867,1091 9990,1091 10113,1091 10236,1091 10359,1091 10482,1091 10605,1091 10728,1091 10851,1091 10974,1091 11097,1091 11220,1091 11343,1091 11466,1091 11589,1091 11712,1091 11835,1091 11958,1091 12081,1091 12204,1091 12327,1091 12451,1091 12574,1091 12697,1091 12820,1091 12943,1091 13066,1091 13189,1091 13312,1091 13435,1091 13558,1091 13681,1091 13804,1091 13927,1091 14050,1091 14173,1091 14296,1091 14419,1091 14542,1091 14665,1091 14788,1091 14911,1091 15034,1091 15158,1091 15158,1499 15034,1477 14911,1483 14788,1466 14665,1502 14542,1526 14419,1576 14296,1566 14173,1545 14050,1567 13927,1594 13804,1604 13681,1617 13558,1625 13435,1667 13312,1623 13189,1613 13066,1612 12943,1616 12820,1607 12697,1602 12574,1632 12451,1656 12327,1685 12204,1698 12081,1698 11958,1634 11835,1658 11712,1666 11589,1665 11466,1679 11343,1634 11220,1597 11097,1637 10974,1698 10851,1743 10728,1683 10605,1669 10482,1688 10359,1696 10236,1687 10113,1670 9990,1738 9867,1765 9744,1781 9621,1695 9497,1664 9374,1653 9251,1634 9128,1620 9005,1662 8882,1644 8759,1645 8636,1651 8513,1670 8390,1655 8267,1667 8145,1686 8022,1682 7899,1679 7776,1647 7653,1645 7530,1623 7407,1606 7284,1592 7161,1581 7038,1572 6915,1560 6791,1557 6668,1516 6545,1486 6422,1467 6299,1448 6176,1424 6053,1432 5930,1408 5807,1392 5684,1375 5561,1376 5438,1371 5315,1358 5192,1329 5069,1306 4946,1298 4823,1298 4700,1278 4577,1265 4454,1250 4331,1237 4208,1225 4085,1212 3961,1198 3838,1187 3715,1176 3592,1190 3469,1186 3346,1190 3223,1169 3100,1162 2977,1151 2854,1143 2731,1136 2608,1140 2485,1138 2362,1135 2239,1129 2116,1133 1993,1133 1870,1133 1747,1127 1624,1130 1501,1125 1378,1128 1255,1130 1255,1091 Z"/>
 <path fill="none" stroke="rgb(0,0,0)" stroke-linejoin="round" d="M 1255,1091 L 1378,1091 1501,1091 1624,1091 1747,1091 1870,1091 1993,1091 2116,1091 2239,1091 2362,1091 2485,1091 2608,1091 2731,1091 2854,1091 2977,1091 3100,1091 3223,1091 3346,1091 3469,1091 3592,1091 3715,1091 3838,1091 3961,1091 4085,1091 4208,1091 4331,1091 4454,1091 4577,1091 4700,1091 4823,1091 4946,1091 5069,1091 5192,1091 5315,1091 5438,1091 5561,1091 5684,1091 5807,1091 5930,1091 6053,1091 6176,1091 6299,1091 6422,1091 6545,1091 6668,1091 6791,1091 6915,1091 7038,1091 7161,1091 7284,1091 7407,1091 7530,1091 7653,1091 7776,1091 7899,1091 8022,1091 8145,1091 8267,1091 8390,1091 8513,1091 8636,1091 8759,1091 8882,1091 9005,1091 9128,1091 9251,1091 9374,1091 9497,1091 9621,1091 9744,1091 9867,1091 9990,1091 10113,1091 10236,1091 10359,1091 10482,1091 10605,1091 10728,1091 10851,1091 10974,1091 11097,1091 11220,1091 11343,1091 11466,1091 11589,1091 11712,1091 11835,1091 11958,1091 12081,1091 12204,1091 12327,1091 12451,1091 12574,1091 12697,1091 12820,1091 12943,1091 13066,1091 13189,1091 13312,1091 13435,1091 13558,1091 13681,1091 13804,1091 13927,1091 14050,1091 14173,1091 14296,1091 14419,1091 14542,1091 14665,1091 14788,1091 14911,1091 15034,1091 15158,1091 15158,1499 15034,1477 14911,1483 14788,1466 14665,1502 14542,1526 14419,1576 14296,1566 14173,1545 14050,1567 13927,1594 13804,1604 13681,1617 13558,1625 13435,1667 13312,1623 13189,1613 13066,1612 12943,1616 12820,1607 12697,1602 12574,1632 12451,1656 12327,1685 12204,1698 12081,1698 11958,1634 11835,1658 11712,1666 11589,1665 11466,1679 11343,1634 11220,1597 11097,1637 10974,1698 10851,1743 10728,1683 10605,1669 10482,1688 10359,1696 10236,1687 10113,1670 9990,1738 9867,1765 9744,1781 9621,1695 9497,1664 9374,1653 9251,1634 9128,1620 9005,1662 8882,1644 8759,1645 8636,1651 8513,1670 8390,1655 8267,1667 8145,1686 8022,1682 7899,1679 7776,1647 7653,1645 7530,1623 7407,1606 7284,1592 7161,1581 7038,1572 6915,1560 6791,1557 6668,1516 6545,1486 6422,1467 6299,1448 6176,1424 6053,1432 5930,1408 5807,1392 5684,1375 5561,1376 5438,1371 5315,1358 5192,1329 5069,1306 4946,1298 4823,1298 4700,1278 4577,1265 4454,1250 4331,1237 4208,1225 4085,1212 3961,1198 3838,1187 3715,1176 3592,1190 3469,1186 3346,1190 3223,1169 3100,1162 2977,1151 2854,1143 2731,1136 2608,1140 2485,1138 2362,1135 2239,1129 2116,1133 1993,1133 1870,1133 1747,1127 1624,1130 1501,1125 1378,1128 1255,1130 1255,1091 Z"/>
 <text class="TextShape"><tspan class="TextParagraph" font-family="Arial, sans-serif" font-size="388px" font-weight="400"><tspan class="TextPosition" x="1077" y="11295"><tspan fill="rgb(0,0,0)" stroke="none">2008</tspan></tspan></tspan></text>
 <text class="TextShape"><tspan class="TextParagraph" font-family="Arial, sans-serif" font-size="388px" font-weight="400"><tspan class="TextPosition" x="2553" y="11295"><tspan fill="rgb(0,0,0)" stroke="none">2009</tspan></tspan></tspan></text>
 <text class="TextShape"><tspan class="TextParagraph" font-family="Arial, sans-serif" font-size="388px" font-weight="400"><tspan class="TextPosition" x="4030" y="11295"><tspan fill="rgb(0,0,0)" stroke="none">2010</tspan></tspan></tspan></text>
 <text class="TextShape"><tspan class="TextParagraph" font-family="Arial, sans-serif" font-size="388px" font-weight="400"><tspan class="TextPosition" x="5520" y="11295"><tspan fill="rgb(0,0,0)" stroke="none">2011</tspan></tspan></tspan></text>
 <text class="TextShape"><tspan class="TextParagraph" font-family="Arial, sans-serif" font-size="388px" font-weight="400"><tspan class="TextPosition" x="6983" y="11295"><tspan fill="rgb(0,0,0)" stroke="none">2012</tspan></tspan></tspan></text>
 <text class="TextShape"><tspan class="TextParagraph" font-family="Arial, sans-serif" font-size="388px" font-weight="400"><tspan class="TextPosition" x="8459" y="11295"><tspan fill="rgb(0,0,0)" stroke="none">2013</tspan></tspan></tspan></text>
 <text class="TextShape"><tspan class="TextParagraph" font-family="Arial, sans-serif" font-size="388px" font-weight="400"><tspan class="TextPosition" x="9936" y="11295"><tspan fill="rgb(0,0,0)" stroke="none">2014</tspan></tspan></tspan></text>
 <text class="TextShape"><tspan class="TextParagraph" font-family="Arial, sans-serif" font-size="388px" font-weight="400"><tspan class="TextPosition" x="11412" y="11295"><tspan fill="rgb(0,0,0)" stroke="none">2015</tspan></tspan></tspan></text>
 <text class="TextShape"><tspan class="TextParagraph" font-family="Arial, sans-serif" font-size="388px" font-weight="400"><tspan class="TextPosition" x="12889" y="11295"><tspan fill="rgb(0,0,0)" stroke="none">2016</tspan></tspan></tspan></text>
 <text class="TextShape"><tspan class="TextParagraph" font-family="Arial, sans-serif" font-size="388px" font-weight="400"><tspan class="TextPosition" x="14365" y="11295"><tspan fill="rgb(0,0,0)" stroke="none">2017</tspan></tspan></tspan></text>
 <text class="TextShape"><tspan class="TextParagraph" font-family="Arial, sans-serif" font-size="388px" font-weight="400"><tspan class="TextPosition" x="449" y="10835"><tspan fill="rgb(0,0,0)" stroke="none">0%</tspan></tspan></tspan></text>
 <text class="TextShape"><tspan class="TextParagraph" font-family="Arial, sans-serif" font-size="388px" font-weight="400"><tspan class="TextPosition" x="238" y="9873"><tspan fill="rgb(0,0,0)" stroke="none">10%</tspan></tspan></tspan></text>
 <text class="TextShape"><tspan class="TextParagraph" font-family="Arial, sans-serif" font-size="388px" font-weight="400"><tspan class="TextPosition" x="238" y="8912"><tspan fill="rgb(0,0,0)" stroke="none">20%</tspan></tspan></tspan></text>
 <text class="TextShape"><tspan class="TextParagraph" font-family="Arial, sans-serif" font-size="388px" font-weight="400"><tspan class="TextPosition" x="238" y="7951"><tspan fill="rgb(0,0,0)" stroke="none">30%</tspan></tspan></tspan></text>
 <text class="TextShape"><tspan class="TextParagraph" font-family="Arial, sans-serif" font-size="388px" font-weight="400"><tspan class="TextPosition" x="238" y="6990"><tspan fill="rgb(0,0,0)" stroke="none">40%</tspan></tspan></tspan></text>
 <text class="TextShape"><tspan class="TextParagraph" font-family="Arial, sans-serif" font-size="388px" font-weight="400"><tspan class="TextPosition" x="238" y="6029"><tspan fill="rgb(0,0,0)" stroke="none">50%</tspan></tspan></tspan></text>
 <text class="TextShape"><tspan class="TextParagraph" font-family="Arial, sans-serif" font-size="388px" font-weight="400"><tspan class="TextPosition" x="238" y="5068"><tspan fill="rgb(0,0,0)" stroke="none">60%</tspan></tspan></tspan></text>
 <text class="TextShape"><tspan class="TextParagraph" font-family="Arial, sans-serif" font-size="388px" font-weight="400"><tspan class="TextPosition" x="238" y="4107"><tspan fill="rgb(0,0,0)" stroke="none">70%</tspan></tspan></tspan></text>
 <text class="TextShape"><tspan class="TextParagraph" font-family="Arial, sans-serif" font-size="388px" font-weight="400"><tspan class="TextPosition" x="238" y="3146"><tspan fill="rgb(0,0,0)" stroke="none">80%</tspan></tspan></tspan></text>
 <text class="TextShape"><tspan class="TextParagraph" font-family="Arial, sans-serif" font-size="388px" font-weight="400"><tspan class="TextPosition" x="238" y="2185"><tspan fill="rgb(0,0,0)" stroke="none">90%</tspan></tspan></tspan></text>
 <text class="TextShape"><tspan class="TextParagraph" font-family="Arial, sans-serif" font-size="388px" font-weight="400"><tspan class="TextPosition" x="26" y="1224"><tspan fill="rgb(0,0,0)" stroke="none">100%</tspan></tspan></tspan></text>
 <text class="TextShape"><tspan class="TextParagraph" font-family="Arial, sans-serif" font-size="388px" font-weight="400"><tspan class="TextPosition" x="15408" y="10835"><tspan fill="rgb(0,0,0)" stroke="none">0%</tspan></tspan></tspan></text>
 <text class="TextShape"><tspan class="TextParagraph" font-family="Arial, sans-serif" font-size="388px" font-weight="400"><tspan class="TextPosition" x="15408" y="9873"><tspan fill="rgb(0,0,0)" stroke="none">10%</tspan></tspan></tspan></text>
 <text class="TextShape"><tspan class="TextParagraph" font-family="Arial, sans-serif" font-size="388px" font-weight="400"><tspan class="TextPosition" x="15408" y="8912"><tspan fill="rgb(0,0,0)" stroke="none">20%</tspan></tspan></tspan></text>
 <text class="TextShape"><tspan class="TextParagraph" font-family="Arial, sans-serif" font-size="388px" font-weight="400"><tspan class="TextPosition" x="15408" y="7951"><tspan fill="rgb(0,0,0)" stroke="none">30%</tspan></tspan></tspan></text>
 <text class="TextShape"><tspan class="TextParagraph" font-family="Arial, sans-serif" font-size="388px" font-weight="400"><tspan class="TextPosition" x="15408" y="6990"><tspan fill="rgb(0,0,0)" stroke="none">40%</tspan></tspan></tspan></text>
 <text class="TextShape"><tspan class="TextParagraph" font-family="Arial, sans-serif" font-size="388px" font-weight="400"><tspan class="TextPosition" x="15408" y="6029"><tspan fill="rgb(0,0,0)" stroke="none">50%</tspan></tspan></tspan></text>
 <text class="TextShape"><tspan class="TextParagraph" font-family="Arial, sans-serif" font-size="388px" font-weight="400"><tspan class="TextPosition" x="15408" y="5068"><tspan fill="rgb(0,0,0)" stroke="none">60%</tspan></tspan></tspan></text>
 <text class="TextShape"><tspan class="TextParagraph" font-family="Arial, sans-serif" font-size="388px" font-weight="400"><tspan class="TextPosition" x="15408" y="4107"><tspan fill="rgb(0,0,0)" stroke="none">70%</tspan></tspan></tspan></text>
 <text class="TextShape"><tspan class="TextParagraph" font-family="Arial, sans-serif" font-size="388px" font-weight="400"><tspan class="TextPosition" x="15408" y="3146"><tspan fill="rgb(0,0,0)" stroke="none">80%</tspan></tspan></tspan></text>
 <text class="TextShape"><tspan class="TextParagraph" font-family="Arial, sans-serif" font-size="388px" font-weight="400"><tspan class="TextPosition" x="15408" y="2185"><tspan fill="rgb(0,0,0)" stroke="none">90%</tspan></tspan></tspan></text>
 <text class="TextShape"><tspan class="TextParagraph" font-family="Arial, sans-serif" font-size="388px" font-weight="400"><tspan class="TextPosition" x="15408" y="1224"><tspan fill="rgb(0,0,0)" stroke="none">100%</tspan></tspan></tspan></text>
 <text class="TextShape"><tspan class="TextParagraph" font-family="Liberation Sans, sans-serif" font-size="635px" font-weight="400"><tspan class="TextPosition" x="5490" y="747"><tspan fill="rgb(0,0,0)" stroke="none">Nmero de pxeles </tspan></tspan></tspan></text>
 <path fill="rgb(0,69,134)" stroke="none" d="M 3179,11972 L 3074,11972 3074,11761 3285,11761 3285,11972 3179,11972 Z"/>
 <path fill="none" stroke="rgb(0,0,0)" stroke-linejoin="round" d="M 3179,11972 L 3074,11972 3074,11761 3285,11761 3285,11972 3179,11972 Z"/>
 <path fill="rgb(255,66,14)" stroke="none" d="M 5020,11972 L 4915,11972 4915,11761 5126,11761 5126,11972 5020,11972 Z"/>
 <path fill="none" stroke="rgb(0,0,0)" stroke-linejoin="round" d="M 5020,11972 L 4915,11972 4915,11761 5126,11761 5126,11972 5020,11972 Z"/>
 <path fill="rgb(255,211,32)" stroke="none" d="M 6861,11972 L 6756,11972 6756,11761 6967,11761 6967,11972 6861,11972 Z"/>
 <path fill="none" stroke="rgb(0,0,0)" stroke-linejoin="round" d="M 6861,11972 L 6756,11972 6756,11761 6967,11761 6967,11972 6861,11972 Z"/>
 <path fill="rgb(87,157,28)" stroke="none" d="M 8702,11972 L 8596,11972 8596,11761 8807,11761 8807,11972 8702,11972 Z"/>
 <path fill="none" stroke="rgb(0,0,0)" stroke-linejoin="round" d="M 8702,11972 L 8596,11972 8596,11761 8807,11761 8807,11972 8702,11972 Z"/>
 <path fill="rgb(126,0,33)" stroke="none" d="M 10543,11972 L 10437,11972 10437,11761 10648,11761 10648,11972 10543,11972 Z"/>
 <path fill="none" stroke="rgb(0,0,0)" stroke-linejoin="round" d="M 10543,11972 L 10437,11972 10437,11761 10648,11761 10648,11972 10543,11972 Z"/>
 <path fill="rgb(131,202,255)" stroke="none" d="M 12384,11972 L 12278,11972 12278,11761 12489,11761 12489,11972 12384,11972 Z"/>
 <path fill="none" stroke="rgb(0,0,0)" stroke-linejoin="round" d="M 12384,11972 L 12278,11972 12278,11761 12489,11761 12489,11972 12384,11972 Z"/>
 <text class="TextShape"><tspan class="TextParagraph" font-family="Arial, sans-serif" font-size="353px" font-weight="400"><tspan class="TextPosition" x="3385" y="11985"><tspan fill="rgb(0,0,0)" stroke="none">0,5 MPx</tspan></tspan></tspan></text>
 <text class="TextShape"><tspan class="TextParagraph" font-family="Arial, sans-serif" font-size="353px" font-weight="400"><tspan class="TextPosition" x="5226" y="11985"><tspan fill="rgb(0,0,0)" stroke="none">1,0 MPx</tspan></tspan></tspan></text>
 <text class="TextShape"><tspan class="TextParagraph" font-family="Arial, sans-serif" font-size="353px" font-weight="400"><tspan class="TextPosition" x="7067" y="11985"><tspan fill="rgb(0,0,0)" stroke="none">1,5 MPx</tspan></tspan></tspan></text>
 <text class="TextShape"><tspan class="TextParagraph" font-family="Arial, sans-serif" font-size="353px" font-weight="400"><tspan class="TextPosition" x="8907" y="11985"><tspan fill="rgb(0,0,0)" stroke="none">2,0 MPx</tspan></tspan></tspan></text>
 <text class="TextShape"><tspan class="TextParagraph" font-family="Arial, sans-serif" font-size="353px" font-weight="400"><tspan class="TextPosition" x="10748" y="11985"><tspan fill="rgb(0,0,0)" stroke="none">2,5 MPx</tspan></tspan></tspan></text>
 <text class="TextShape"><tspan class="TextParagraph" font-family="Arial, sans-serif" font-size="353px" font-weight="400"><tspan class="TextPosition" x="12589" y="11985"><tspan fill="rgb(0,0,0)" stroke="none">Otros</tspan></tspan></tspan></text>
</svg>
