<?xml version="1.0" encoding="UTF-8"?>
<!DOCTYPE svg PUBLIC "-//W3C//DTD SVG 1.1//EN" "http://www.w3.org/Graphics/SVG/1.1/DTD/svg11.dtd">
<svg width="164mm" height="123mm" viewBox="0 0 16400 12300" version="1.1" xmlns="http://www.w3.org/2000/svg" stroke-width="28.222" stroke-linejoin="round" xml:space="preserve">
 <path fill="rgb(255,255,255)" stroke="none" d="M 8197,12262 L 0,12262 0,0 16393,0 16393,12262 8197,12262 Z"/>
 <path fill="none" stroke="rgb(179,179,179)" stroke-linejoin="round" d="M 8179,10812 L 1167,10812 1167,1093 15190,1093 15190,10812 8179,10812 Z"/>
 <path fill="none" stroke="rgb(0,0,0)" stroke-width="20" stroke-linejoin="round" d="M 15190,10811 L 1167,10811"/>
 <path fill="none" stroke="rgb(0,0,0)" stroke-width="20" stroke-linejoin="round" d="M 15190,9422 L 1167,9422"/>
 <path fill="none" stroke="rgb(0,0,0)" stroke-width="20" stroke-linejoin="round" d="M 15190,8033 L 1167,8033"/>
 <path fill="none" stroke="rgb(0,0,0)" stroke-width="20" stroke-linejoin="round" d="M 15190,6645 L 1167,6645"/>
 <path fill="none" stroke="rgb(0,0,0)" stroke-width="20" stroke-linejoin="round" d="M 15190,5257 L 1167,5257"/>
 <path fill="none" stroke="rgb(0,0,0)" stroke-width="20" stroke-linejoin="round" d="M 15190,3869 L 1167,3869"/>
 <path fill="none" stroke="rgb(0,0,0)" stroke-width="20" stroke-linejoin="round" d="M 15190,2480 L 1167,2480"/>
 <path fill="none" stroke="rgb(0,0,0)" stroke-width="20" stroke-linejoin="round" d="M 15190,1092 L 1167,1092"/>
 <path fill="none" stroke="rgb(0,0,0)" stroke-width="30" stroke-linejoin="round" d="M 1167,10961 L 1167,10811"/>
 <path fill="none" stroke="rgb(0,0,0)" stroke-width="30" stroke-linejoin="round" d="M 1167,10961 L 1167,10811"/>
 <path fill="none" stroke="rgb(0,0,0)" stroke-width="30" stroke-linejoin="round" d="M 1292,10961 L 1292,10811"/>
 <path fill="none" stroke="rgb(0,0,0)" stroke-width="30" stroke-linejoin="round" d="M 1292,10961 L 1292,10811"/>
 <path fill="none" stroke="rgb(0,0,0)" stroke-width="30" stroke-linejoin="round" d="M 1417,10961 L 1417,10811"/>
 <path fill="none" stroke="rgb(0,0,0)" stroke-width="30" stroke-linejoin="round" d="M 1417,10961 L 1417,10811"/>
 <path fill="none" stroke="rgb(0,0,0)" stroke-width="30" stroke-linejoin="round" d="M 1542,10961 L 1542,10811"/>
 <path fill="none" stroke="rgb(0,0,0)" stroke-width="30" stroke-linejoin="round" d="M 1542,10961 L 1542,10811"/>
 <path fill="none" stroke="rgb(0,0,0)" stroke-width="30" stroke-linejoin="round" d="M 1667,10961 L 1667,10811"/>
 <path fill="none" stroke="rgb(0,0,0)" stroke-width="30" stroke-linejoin="round" d="M 1667,10961 L 1667,10811"/>
 <path fill="none" stroke="rgb(0,0,0)" stroke-width="30" stroke-linejoin="round" d="M 1793,10961 L 1793,10811"/>
 <path fill="none" stroke="rgb(0,0,0)" stroke-width="30" stroke-linejoin="round" d="M 1793,10961 L 1793,10811"/>
 <path fill="none" stroke="rgb(0,0,0)" stroke-width="30" stroke-linejoin="round" d="M 1918,10961 L 1918,10811"/>
 <path fill="none" stroke="rgb(0,0,0)" stroke-width="30" stroke-linejoin="round" d="M 1918,10961 L 1918,10811"/>
 <path fill="none" stroke="rgb(0,0,0)" stroke-width="30" stroke-linejoin="round" d="M 2043,10961 L 2043,10811"/>
 <path fill="none" stroke="rgb(0,0,0)" stroke-width="30" stroke-linejoin="round" d="M 2043,10961 L 2043,10811"/>
 <path fill="none" stroke="rgb(0,0,0)" stroke-width="30" stroke-linejoin="round" d="M 2168,10961 L 2168,10811"/>
 <path fill="none" stroke="rgb(0,0,0)" stroke-width="30" stroke-linejoin="round" d="M 2168,10961 L 2168,10811"/>
 <path fill="none" stroke="rgb(0,0,0)" stroke-width="30" stroke-linejoin="round" d="M 2293,10961 L 2293,10811"/>
 <path fill="none" stroke="rgb(0,0,0)" stroke-width="30" stroke-linejoin="round" d="M 2293,10961 L 2293,10811"/>
 <path fill="none" stroke="rgb(0,0,0)" stroke-width="30" stroke-linejoin="round" d="M 2419,10961 L 2419,10811"/>
 <path fill="none" stroke="rgb(0,0,0)" stroke-width="30" stroke-linejoin="round" d="M 2419,10961 L 2419,10811"/>
 <path fill="none" stroke="rgb(0,0,0)" stroke-width="30" stroke-linejoin="round" d="M 2544,10961 L 2544,10811"/>
 <path fill="none" stroke="rgb(0,0,0)" stroke-width="30" stroke-linejoin="round" d="M 2544,10961 L 2544,10811"/>
 <path fill="none" stroke="rgb(0,0,0)" stroke-width="30" stroke-linejoin="round" d="M 2669,10961 L 2669,10811"/>
 <path fill="none" stroke="rgb(0,0,0)" stroke-width="30" stroke-linejoin="round" d="M 2669,10961 L 2669,10811"/>
 <path fill="none" stroke="rgb(0,0,0)" stroke-width="30" stroke-linejoin="round" d="M 2794,10961 L 2794,10811"/>
 <path fill="none" stroke="rgb(0,0,0)" stroke-width="30" stroke-linejoin="round" d="M 2794,10961 L 2794,10811"/>
 <path fill="none" stroke="rgb(0,0,0)" stroke-width="30" stroke-linejoin="round" d="M 2920,10961 L 2920,10811"/>
 <path fill="none" stroke="rgb(0,0,0)" stroke-width="30" stroke-linejoin="round" d="M 2920,10961 L 2920,10811"/>
 <path fill="none" stroke="rgb(0,0,0)" stroke-width="30" stroke-linejoin="round" d="M 3045,10961 L 3045,10811"/>
 <path fill="none" stroke="rgb(0,0,0)" stroke-width="30" stroke-linejoin="round" d="M 3045,10961 L 3045,10811"/>
 <path fill="none" stroke="rgb(0,0,0)" stroke-width="30" stroke-linejoin="round" d="M 3170,10961 L 3170,10811"/>
 <path fill="none" stroke="rgb(0,0,0)" stroke-width="30" stroke-linejoin="round" d="M 3170,10961 L 3170,10811"/>
 <path fill="none" stroke="rgb(0,0,0)" stroke-width="30" stroke-linejoin="round" d="M 3295,10961 L 3295,10811"/>
 <path fill="none" stroke="rgb(0,0,0)" stroke-width="30" stroke-linejoin="round" d="M 3295,10961 L 3295,10811"/>
 <path fill="none" stroke="rgb(0,0,0)" stroke-width="30" stroke-linejoin="round" d="M 3420,10961 L 3420,10811"/>
 <path fill="none" stroke="rgb(0,0,0)" stroke-width="30" stroke-linejoin="round" d="M 3420,10961 L 3420,10811"/>
 <path fill="none" stroke="rgb(0,0,0)" stroke-width="30" stroke-linejoin="round" d="M 3546,10961 L 3546,10811"/>
 <path fill="none" stroke="rgb(0,0,0)" stroke-width="30" stroke-linejoin="round" d="M 3546,10961 L 3546,10811"/>
 <path fill="none" stroke="rgb(0,0,0)" stroke-width="30" stroke-linejoin="round" d="M 3671,10961 L 3671,10811"/>
 <path fill="none" stroke="rgb(0,0,0)" stroke-width="30" stroke-linejoin="round" d="M 3671,10961 L 3671,10811"/>
 <path fill="none" stroke="rgb(0,0,0)" stroke-width="30" stroke-linejoin="round" d="M 3796,10961 L 3796,10811"/>
 <path fill="none" stroke="rgb(0,0,0)" stroke-width="30" stroke-linejoin="round" d="M 3796,10961 L 3796,10811"/>
 <path fill="none" stroke="rgb(0,0,0)" stroke-width="30" stroke-linejoin="round" d="M 3921,10961 L 3921,10811"/>
 <path fill="none" stroke="rgb(0,0,0)" stroke-width="30" stroke-linejoin="round" d="M 3921,10961 L 3921,10811"/>
 <path fill="none" stroke="rgb(0,0,0)" stroke-width="30" stroke-linejoin="round" d="M 4046,10961 L 4046,10811"/>
 <path fill="none" stroke="rgb(0,0,0)" stroke-width="30" stroke-linejoin="round" d="M 4046,10961 L 4046,10811"/>
 <path fill="none" stroke="rgb(0,0,0)" stroke-width="30" stroke-linejoin="round" d="M 4172,10961 L 4172,10811"/>
 <path fill="none" stroke="rgb(0,0,0)" stroke-width="30" stroke-linejoin="round" d="M 4172,10961 L 4172,10811"/>
 <path fill="none" stroke="rgb(0,0,0)" stroke-width="30" stroke-linejoin="round" d="M 4297,10961 L 4297,10811"/>
 <path fill="none" stroke="rgb(0,0,0)" stroke-width="30" stroke-linejoin="round" d="M 4297,10961 L 4297,10811"/>
 <path fill="none" stroke="rgb(0,0,0)" stroke-width="30" stroke-linejoin="round" d="M 4422,10961 L 4422,10811"/>
 <path fill="none" stroke="rgb(0,0,0)" stroke-width="30" stroke-linejoin="round" d="M 4422,10961 L 4422,10811"/>
 <path fill="none" stroke="rgb(0,0,0)" stroke-width="30" stroke-linejoin="round" d="M 4547,10961 L 4547,10811"/>
 <path fill="none" stroke="rgb(0,0,0)" stroke-width="30" stroke-linejoin="round" d="M 4547,10961 L 4547,10811"/>
 <path fill="none" stroke="rgb(0,0,0)" stroke-width="30" stroke-linejoin="round" d="M 4673,10961 L 4673,10811"/>
 <path fill="none" stroke="rgb(0,0,0)" stroke-width="30" stroke-linejoin="round" d="M 4673,10961 L 4673,10811"/>
 <path fill="none" stroke="rgb(0,0,0)" stroke-width="30" stroke-linejoin="round" d="M 4798,10961 L 4798,10811"/>
 <path fill="none" stroke="rgb(0,0,0)" stroke-width="30" stroke-linejoin="round" d="M 4798,10961 L 4798,10811"/>
 <path fill="none" stroke="rgb(0,0,0)" stroke-width="30" stroke-linejoin="round" d="M 4923,10961 L 4923,10811"/>
 <path fill="none" stroke="rgb(0,0,0)" stroke-width="30" stroke-linejoin="round" d="M 4923,10961 L 4923,10811"/>
 <path fill="none" stroke="rgb(0,0,0)" stroke-width="30" stroke-linejoin="round" d="M 5048,10961 L 5048,10811"/>
 <path fill="none" stroke="rgb(0,0,0)" stroke-width="30" stroke-linejoin="round" d="M 5048,10961 L 5048,10811"/>
 <path fill="none" stroke="rgb(0,0,0)" stroke-width="30" stroke-linejoin="round" d="M 5173,10961 L 5173,10811"/>
 <path fill="none" stroke="rgb(0,0,0)" stroke-width="30" stroke-linejoin="round" d="M 5173,10961 L 5173,10811"/>
 <path fill="none" stroke="rgb(0,0,0)" stroke-width="30" stroke-linejoin="round" d="M 5299,10961 L 5299,10811"/>
 <path fill="none" stroke="rgb(0,0,0)" stroke-width="30" stroke-linejoin="round" d="M 5299,10961 L 5299,10811"/>
 <path fill="none" stroke="rgb(0,0,0)" stroke-width="30" stroke-linejoin="round" d="M 5424,10961 L 5424,10811"/>
 <path fill="none" stroke="rgb(0,0,0)" stroke-width="30" stroke-linejoin="round" d="M 5424,10961 L 5424,10811"/>
 <path fill="none" stroke="rgb(0,0,0)" stroke-width="30" stroke-linejoin="round" d="M 5549,10961 L 5549,10811"/>
 <path fill="none" stroke="rgb(0,0,0)" stroke-width="30" stroke-linejoin="round" d="M 5549,10961 L 5549,10811"/>
 <path fill="none" stroke="rgb(0,0,0)" stroke-width="30" stroke-linejoin="round" d="M 5674,10961 L 5674,10811"/>
 <path fill="none" stroke="rgb(0,0,0)" stroke-width="30" stroke-linejoin="round" d="M 5674,10961 L 5674,10811"/>
 <path fill="none" stroke="rgb(0,0,0)" stroke-width="30" stroke-linejoin="round" d="M 5799,10961 L 5799,10811"/>
 <path fill="none" stroke="rgb(0,0,0)" stroke-width="30" stroke-linejoin="round" d="M 5799,10961 L 5799,10811"/>
 <path fill="none" stroke="rgb(0,0,0)" stroke-width="30" stroke-linejoin="round" d="M 5925,10961 L 5925,10811"/>
 <path fill="none" stroke="rgb(0,0,0)" stroke-width="30" stroke-linejoin="round" d="M 5925,10961 L 5925,10811"/>
 <path fill="none" stroke="rgb(0,0,0)" stroke-width="30" stroke-linejoin="round" d="M 6050,10961 L 6050,10811"/>
 <path fill="none" stroke="rgb(0,0,0)" stroke-width="30" stroke-linejoin="round" d="M 6050,10961 L 6050,10811"/>
 <path fill="none" stroke="rgb(0,0,0)" stroke-width="30" stroke-linejoin="round" d="M 6175,10961 L 6175,10811"/>
 <path fill="none" stroke="rgb(0,0,0)" stroke-width="30" stroke-linejoin="round" d="M 6175,10961 L 6175,10811"/>
 <path fill="none" stroke="rgb(0,0,0)" stroke-width="30" stroke-linejoin="round" d="M 6300,10961 L 6300,10811"/>
 <path fill="none" stroke="rgb(0,0,0)" stroke-width="30" stroke-linejoin="round" d="M 6300,10961 L 6300,10811"/>
 <path fill="none" stroke="rgb(0,0,0)" stroke-width="30" stroke-linejoin="round" d="M 6426,10961 L 6426,10811"/>
 <path fill="none" stroke="rgb(0,0,0)" stroke-width="30" stroke-linejoin="round" d="M 6426,10961 L 6426,10811"/>
 <path fill="none" stroke="rgb(0,0,0)" stroke-width="30" stroke-linejoin="round" d="M 6551,10961 L 6551,10811"/>
 <path fill="none" stroke="rgb(0,0,0)" stroke-width="30" stroke-linejoin="round" d="M 6551,10961 L 6551,10811"/>
 <path fill="none" stroke="rgb(0,0,0)" stroke-width="30" stroke-linejoin="round" d="M 6676,10961 L 6676,10811"/>
 <path fill="none" stroke="rgb(0,0,0)" stroke-width="30" stroke-linejoin="round" d="M 6676,10961 L 6676,10811"/>
 <path fill="none" stroke="rgb(0,0,0)" stroke-width="30" stroke-linejoin="round" d="M 6801,10961 L 6801,10811"/>
 <path fill="none" stroke="rgb(0,0,0)" stroke-width="30" stroke-linejoin="round" d="M 6801,10961 L 6801,10811"/>
 <path fill="none" stroke="rgb(0,0,0)" stroke-width="30" stroke-linejoin="round" d="M 6926,10961 L 6926,10811"/>
 <path fill="none" stroke="rgb(0,0,0)" stroke-width="30" stroke-linejoin="round" d="M 6926,10961 L 6926,10811"/>
 <path fill="none" stroke="rgb(0,0,0)" stroke-width="30" stroke-linejoin="round" d="M 7052,10961 L 7052,10811"/>
 <path fill="none" stroke="rgb(0,0,0)" stroke-width="30" stroke-linejoin="round" d="M 7052,10961 L 7052,10811"/>
 <path fill="none" stroke="rgb(0,0,0)" stroke-width="30" stroke-linejoin="round" d="M 7177,10961 L 7177,10811"/>
 <path fill="none" stroke="rgb(0,0,0)" stroke-width="30" stroke-linejoin="round" d="M 7177,10961 L 7177,10811"/>
 <path fill="none" stroke="rgb(0,0,0)" stroke-width="30" stroke-linejoin="round" d="M 7302,10961 L 7302,10811"/>
 <path fill="none" stroke="rgb(0,0,0)" stroke-width="30" stroke-linejoin="round" d="M 7302,10961 L 7302,10811"/>
 <path fill="none" stroke="rgb(0,0,0)" stroke-width="30" stroke-linejoin="round" d="M 7427,10961 L 7427,10811"/>
 <path fill="none" stroke="rgb(0,0,0)" stroke-width="30" stroke-linejoin="round" d="M 7427,10961 L 7427,10811"/>
 <path fill="none" stroke="rgb(0,0,0)" stroke-width="30" stroke-linejoin="round" d="M 7552,10961 L 7552,10811"/>
 <path fill="none" stroke="rgb(0,0,0)" stroke-width="30" stroke-linejoin="round" d="M 7552,10961 L 7552,10811"/>
 <path fill="none" stroke="rgb(0,0,0)" stroke-width="30" stroke-linejoin="round" d="M 7678,10961 L 7678,10811"/>
 <path fill="none" stroke="rgb(0,0,0)" stroke-width="30" stroke-linejoin="round" d="M 7678,10961 L 7678,10811"/>
 <path fill="none" stroke="rgb(0,0,0)" stroke-width="30" stroke-linejoin="round" d="M 7803,10961 L 7803,10811"/>
 <path fill="none" stroke="rgb(0,0,0)" stroke-width="30" stroke-linejoin="round" d="M 7803,10961 L 7803,10811"/>
 <path fill="none" stroke="rgb(0,0,0)" stroke-width="30" stroke-linejoin="round" d="M 7928,10961 L 7928,10811"/>
 <path fill="none" stroke="rgb(0,0,0)" stroke-width="30" stroke-linejoin="round" d="M 7928,10961 L 7928,10811"/>
 <path fill="none" stroke="rgb(0,0,0)" stroke-width="30" stroke-linejoin="round" d="M 8053,10961 L 8053,10811"/>
 <path fill="none" stroke="rgb(0,0,0)" stroke-width="30" stroke-linejoin="round" d="M 8053,10961 L 8053,10811"/>
 <path fill="none" stroke="rgb(0,0,0)" stroke-width="30" stroke-linejoin="round" d="M 8179,10961 L 8179,10811"/>
 <path fill="none" stroke="rgb(0,0,0)" stroke-width="30" stroke-linejoin="round" d="M 8179,10961 L 8179,10811"/>
 <path fill="none" stroke="rgb(0,0,0)" stroke-width="30" stroke-linejoin="round" d="M 8303,10961 L 8303,10811"/>
 <path fill="none" stroke="rgb(0,0,0)" stroke-width="30" stroke-linejoin="round" d="M 8303,10961 L 8303,10811"/>
 <path fill="none" stroke="rgb(0,0,0)" stroke-width="30" stroke-linejoin="round" d="M 8428,10961 L 8428,10811"/>
 <path fill="none" stroke="rgb(0,0,0)" stroke-width="30" stroke-linejoin="round" d="M 8428,10961 L 8428,10811"/>
 <path fill="none" stroke="rgb(0,0,0)" stroke-width="30" stroke-linejoin="round" d="M 8553,10961 L 8553,10811"/>
 <path fill="none" stroke="rgb(0,0,0)" stroke-width="30" stroke-linejoin="round" d="M 8553,10961 L 8553,10811"/>
 <path fill="none" stroke="rgb(0,0,0)" stroke-width="30" stroke-linejoin="round" d="M 8678,10961 L 8678,10811"/>
 <path fill="none" stroke="rgb(0,0,0)" stroke-width="30" stroke-linejoin="round" d="M 8678,10961 L 8678,10811"/>
 <path fill="none" stroke="rgb(0,0,0)" stroke-width="30" stroke-linejoin="round" d="M 8804,10961 L 8804,10811"/>
 <path fill="none" stroke="rgb(0,0,0)" stroke-width="30" stroke-linejoin="round" d="M 8804,10961 L 8804,10811"/>
 <path fill="none" stroke="rgb(0,0,0)" stroke-width="30" stroke-linejoin="round" d="M 8929,10961 L 8929,10811"/>
 <path fill="none" stroke="rgb(0,0,0)" stroke-width="30" stroke-linejoin="round" d="M 8929,10961 L 8929,10811"/>
 <path fill="none" stroke="rgb(0,0,0)" stroke-width="30" stroke-linejoin="round" d="M 9054,10961 L 9054,10811"/>
 <path fill="none" stroke="rgb(0,0,0)" stroke-width="30" stroke-linejoin="round" d="M 9054,10961 L 9054,10811"/>
 <path fill="none" stroke="rgb(0,0,0)" stroke-width="30" stroke-linejoin="round" d="M 9179,10961 L 9179,10811"/>
 <path fill="none" stroke="rgb(0,0,0)" stroke-width="30" stroke-linejoin="round" d="M 9179,10961 L 9179,10811"/>
 <path fill="none" stroke="rgb(0,0,0)" stroke-width="30" stroke-linejoin="round" d="M 9304,10961 L 9304,10811"/>
 <path fill="none" stroke="rgb(0,0,0)" stroke-width="30" stroke-linejoin="round" d="M 9304,10961 L 9304,10811"/>
 <path fill="none" stroke="rgb(0,0,0)" stroke-width="30" stroke-linejoin="round" d="M 9430,10961 L 9430,10811"/>
 <path fill="none" stroke="rgb(0,0,0)" stroke-width="30" stroke-linejoin="round" d="M 9430,10961 L 9430,10811"/>
 <path fill="none" stroke="rgb(0,0,0)" stroke-width="30" stroke-linejoin="round" d="M 9555,10961 L 9555,10811"/>
 <path fill="none" stroke="rgb(0,0,0)" stroke-width="30" stroke-linejoin="round" d="M 9555,10961 L 9555,10811"/>
 <path fill="none" stroke="rgb(0,0,0)" stroke-width="30" stroke-linejoin="round" d="M 9680,10961 L 9680,10811"/>
 <path fill="none" stroke="rgb(0,0,0)" stroke-width="30" stroke-linejoin="round" d="M 9680,10961 L 9680,10811"/>
 <path fill="none" stroke="rgb(0,0,0)" stroke-width="30" stroke-linejoin="round" d="M 9805,10961 L 9805,10811"/>
 <path fill="none" stroke="rgb(0,0,0)" stroke-width="30" stroke-linejoin="round" d="M 9805,10961 L 9805,10811"/>
 <path fill="none" stroke="rgb(0,0,0)" stroke-width="30" stroke-linejoin="round" d="M 9931,10961 L 9931,10811"/>
 <path fill="none" stroke="rgb(0,0,0)" stroke-width="30" stroke-linejoin="round" d="M 9931,10961 L 9931,10811"/>
 <path fill="none" stroke="rgb(0,0,0)" stroke-width="30" stroke-linejoin="round" d="M 10056,10961 L 10056,10811"/>
 <path fill="none" stroke="rgb(0,0,0)" stroke-width="30" stroke-linejoin="round" d="M 10056,10961 L 10056,10811"/>
 <path fill="none" stroke="rgb(0,0,0)" stroke-width="30" stroke-linejoin="round" d="M 10181,10961 L 10181,10811"/>
 <path fill="none" stroke="rgb(0,0,0)" stroke-width="30" stroke-linejoin="round" d="M 10181,10961 L 10181,10811"/>
 <path fill="none" stroke="rgb(0,0,0)" stroke-width="30" stroke-linejoin="round" d="M 10306,10961 L 10306,10811"/>
 <path fill="none" stroke="rgb(0,0,0)" stroke-width="30" stroke-linejoin="round" d="M 10306,10961 L 10306,10811"/>
 <path fill="none" stroke="rgb(0,0,0)" stroke-width="30" stroke-linejoin="round" d="M 10431,10961 L 10431,10811"/>
 <path fill="none" stroke="rgb(0,0,0)" stroke-width="30" stroke-linejoin="round" d="M 10431,10961 L 10431,10811"/>
 <path fill="none" stroke="rgb(0,0,0)" stroke-width="30" stroke-linejoin="round" d="M 10557,10961 L 10557,10811"/>
 <path fill="none" stroke="rgb(0,0,0)" stroke-width="30" stroke-linejoin="round" d="M 10557,10961 L 10557,10811"/>
 <path fill="none" stroke="rgb(0,0,0)" stroke-width="30" stroke-linejoin="round" d="M 10682,10961 L 10682,10811"/>
 <path fill="none" stroke="rgb(0,0,0)" stroke-width="30" stroke-linejoin="round" d="M 10682,10961 L 10682,10811"/>
 <path fill="none" stroke="rgb(0,0,0)" stroke-width="30" stroke-linejoin="round" d="M 10807,10961 L 10807,10811"/>
 <path fill="none" stroke="rgb(0,0,0)" stroke-width="30" stroke-linejoin="round" d="M 10807,10961 L 10807,10811"/>
 <path fill="none" stroke="rgb(0,0,0)" stroke-width="30" stroke-linejoin="round" d="M 10932,10961 L 10932,10811"/>
 <path fill="none" stroke="rgb(0,0,0)" stroke-width="30" stroke-linejoin="round" d="M 10932,10961 L 10932,10811"/>
 <path fill="none" stroke="rgb(0,0,0)" stroke-width="30" stroke-linejoin="round" d="M 11057,10961 L 11057,10811"/>
 <path fill="none" stroke="rgb(0,0,0)" stroke-width="30" stroke-linejoin="round" d="M 11057,10961 L 11057,10811"/>
 <path fill="none" stroke="rgb(0,0,0)" stroke-width="30" stroke-linejoin="round" d="M 11183,10961 L 11183,10811"/>
 <path fill="none" stroke="rgb(0,0,0)" stroke-width="30" stroke-linejoin="round" d="M 11183,10961 L 11183,10811"/>
 <path fill="none" stroke="rgb(0,0,0)" stroke-width="30" stroke-linejoin="round" d="M 11308,10961 L 11308,10811"/>
 <path fill="none" stroke="rgb(0,0,0)" stroke-width="30" stroke-linejoin="round" d="M 11308,10961 L 11308,10811"/>
 <path fill="none" stroke="rgb(0,0,0)" stroke-width="30" stroke-linejoin="round" d="M 11433,10961 L 11433,10811"/>
 <path fill="none" stroke="rgb(0,0,0)" stroke-width="30" stroke-linejoin="round" d="M 11433,10961 L 11433,10811"/>
 <path fill="none" stroke="rgb(0,0,0)" stroke-width="30" stroke-linejoin="round" d="M 11558,10961 L 11558,10811"/>
 <path fill="none" stroke="rgb(0,0,0)" stroke-width="30" stroke-linejoin="round" d="M 11558,10961 L 11558,10811"/>
 <path fill="none" stroke="rgb(0,0,0)" stroke-width="30" stroke-linejoin="round" d="M 11684,10961 L 11684,10811"/>
 <path fill="none" stroke="rgb(0,0,0)" stroke-width="30" stroke-linejoin="round" d="M 11684,10961 L 11684,10811"/>
 <path fill="none" stroke="rgb(0,0,0)" stroke-width="30" stroke-linejoin="round" d="M 11809,10961 L 11809,10811"/>
 <path fill="none" stroke="rgb(0,0,0)" stroke-width="30" stroke-linejoin="round" d="M 11809,10961 L 11809,10811"/>
 <path fill="none" stroke="rgb(0,0,0)" stroke-width="30" stroke-linejoin="round" d="M 11934,10961 L 11934,10811"/>
 <path fill="none" stroke="rgb(0,0,0)" stroke-width="30" stroke-linejoin="round" d="M 11934,10961 L 11934,10811"/>
 <path fill="none" stroke="rgb(0,0,0)" stroke-width="30" stroke-linejoin="round" d="M 12059,10961 L 12059,10811"/>
 <path fill="none" stroke="rgb(0,0,0)" stroke-width="30" stroke-linejoin="round" d="M 12059,10961 L 12059,10811"/>
 <path fill="none" stroke="rgb(0,0,0)" stroke-width="30" stroke-linejoin="round" d="M 12184,10961 L 12184,10811"/>
 <path fill="none" stroke="rgb(0,0,0)" stroke-width="30" stroke-linejoin="round" d="M 12184,10961 L 12184,10811"/>
 <path fill="none" stroke="rgb(0,0,0)" stroke-width="30" stroke-linejoin="round" d="M 12310,10961 L 12310,10811"/>
 <path fill="none" stroke="rgb(0,0,0)" stroke-width="30" stroke-linejoin="round" d="M 12310,10961 L 12310,10811"/>
 <path fill="none" stroke="rgb(0,0,0)" stroke-width="30" stroke-linejoin="round" d="M 12435,10961 L 12435,10811"/>
 <path fill="none" stroke="rgb(0,0,0)" stroke-width="30" stroke-linejoin="round" d="M 12435,10961 L 12435,10811"/>
 <path fill="none" stroke="rgb(0,0,0)" stroke-width="30" stroke-linejoin="round" d="M 12560,10961 L 12560,10811"/>
 <path fill="none" stroke="rgb(0,0,0)" stroke-width="30" stroke-linejoin="round" d="M 12560,10961 L 12560,10811"/>
 <path fill="none" stroke="rgb(0,0,0)" stroke-width="30" stroke-linejoin="round" d="M 12685,10961 L 12685,10811"/>
 <path fill="none" stroke="rgb(0,0,0)" stroke-width="30" stroke-linejoin="round" d="M 12685,10961 L 12685,10811"/>
 <path fill="none" stroke="rgb(0,0,0)" stroke-width="30" stroke-linejoin="round" d="M 12810,10961 L 12810,10811"/>
 <path fill="none" stroke="rgb(0,0,0)" stroke-width="30" stroke-linejoin="round" d="M 12810,10961 L 12810,10811"/>
 <path fill="none" stroke="rgb(0,0,0)" stroke-width="30" stroke-linejoin="round" d="M 12936,10961 L 12936,10811"/>
 <path fill="none" stroke="rgb(0,0,0)" stroke-width="30" stroke-linejoin="round" d="M 12936,10961 L 12936,10811"/>
 <path fill="none" stroke="rgb(0,0,0)" stroke-width="30" stroke-linejoin="round" d="M 13061,10961 L 13061,10811"/>
 <path fill="none" stroke="rgb(0,0,0)" stroke-width="30" stroke-linejoin="round" d="M 13061,10961 L 13061,10811"/>
 <path fill="none" stroke="rgb(0,0,0)" stroke-width="30" stroke-linejoin="round" d="M 13186,10961 L 13186,10811"/>
 <path fill="none" stroke="rgb(0,0,0)" stroke-width="30" stroke-linejoin="round" d="M 13186,10961 L 13186,10811"/>
 <path fill="none" stroke="rgb(0,0,0)" stroke-width="30" stroke-linejoin="round" d="M 13311,10961 L 13311,10811"/>
 <path fill="none" stroke="rgb(0,0,0)" stroke-width="30" stroke-linejoin="round" d="M 13311,10961 L 13311,10811"/>
 <path fill="none" stroke="rgb(0,0,0)" stroke-width="30" stroke-linejoin="round" d="M 13437,10961 L 13437,10811"/>
 <path fill="none" stroke="rgb(0,0,0)" stroke-width="30" stroke-linejoin="round" d="M 13437,10961 L 13437,10811"/>
 <path fill="none" stroke="rgb(0,0,0)" stroke-width="30" stroke-linejoin="round" d="M 13562,10961 L 13562,10811"/>
 <path fill="none" stroke="rgb(0,0,0)" stroke-width="30" stroke-linejoin="round" d="M 13562,10961 L 13562,10811"/>
 <path fill="none" stroke="rgb(0,0,0)" stroke-width="30" stroke-linejoin="round" d="M 13687,10961 L 13687,10811"/>
 <path fill="none" stroke="rgb(0,0,0)" stroke-width="30" stroke-linejoin="round" d="M 13687,10961 L 13687,10811"/>
 <path fill="none" stroke="rgb(0,0,0)" stroke-width="30" stroke-linejoin="round" d="M 13812,10961 L 13812,10811"/>
 <path fill="none" stroke="rgb(0,0,0)" stroke-width="30" stroke-linejoin="round" d="M 13812,10961 L 13812,10811"/>
 <path fill="none" stroke="rgb(0,0,0)" stroke-width="30" stroke-linejoin="round" d="M 13937,10961 L 13937,10811"/>
 <path fill="none" stroke="rgb(0,0,0)" stroke-width="30" stroke-linejoin="round" d="M 13937,10961 L 13937,10811"/>
 <path fill="none" stroke="rgb(0,0,0)" stroke-width="30" stroke-linejoin="round" d="M 14063,10961 L 14063,10811"/>
 <path fill="none" stroke="rgb(0,0,0)" stroke-width="30" stroke-linejoin="round" d="M 14063,10961 L 14063,10811"/>
 <path fill="none" stroke="rgb(0,0,0)" stroke-width="30" stroke-linejoin="round" d="M 14188,10961 L 14188,10811"/>
 <path fill="none" stroke="rgb(0,0,0)" stroke-width="30" stroke-linejoin="round" d="M 14188,10961 L 14188,10811"/>
 <path fill="none" stroke="rgb(0,0,0)" stroke-width="30" stroke-linejoin="round" d="M 14313,10961 L 14313,10811"/>
 <path fill="none" stroke="rgb(0,0,0)" stroke-width="30" stroke-linejoin="round" d="M 14313,10961 L 14313,10811"/>
 <path fill="none" stroke="rgb(0,0,0)" stroke-width="30" stroke-linejoin="round" d="M 14438,10961 L 14438,10811"/>
 <path fill="none" stroke="rgb(0,0,0)" stroke-width="30" stroke-linejoin="round" d="M 14438,10961 L 14438,10811"/>
 <path fill="none" stroke="rgb(0,0,0)" stroke-width="30" stroke-linejoin="round" d="M 14563,10961 L 14563,10811"/>
 <path fill="none" stroke="rgb(0,0,0)" stroke-width="30" stroke-linejoin="round" d="M 14563,10961 L 14563,10811"/>
 <path fill="none" stroke="rgb(0,0,0)" stroke-width="30" stroke-linejoin="round" d="M 14689,10961 L 14689,10811"/>
 <path fill="none" stroke="rgb(0,0,0)" stroke-width="30" stroke-linejoin="round" d="M 14689,10961 L 14689,10811"/>
 <path fill="none" stroke="rgb(0,0,0)" stroke-width="30" stroke-linejoin="round" d="M 14814,10961 L 14814,10811"/>
 <path fill="none" stroke="rgb(0,0,0)" stroke-width="30" stroke-linejoin="round" d="M 14814,10961 L 14814,10811"/>
 <path fill="none" stroke="rgb(0,0,0)" stroke-width="30" stroke-linejoin="round" d="M 14939,10961 L 14939,10811"/>
 <path fill="none" stroke="rgb(0,0,0)" stroke-width="30" stroke-linejoin="round" d="M 14939,10961 L 14939,10811"/>
 <path fill="none" stroke="rgb(0,0,0)" stroke-width="30" stroke-linejoin="round" d="M 15064,10961 L 15064,10811"/>
 <path fill="none" stroke="rgb(0,0,0)" stroke-width="30" stroke-linejoin="round" d="M 15064,10961 L 15064,10811"/>
 <path fill="none" stroke="rgb(0,0,0)" stroke-width="30" stroke-linejoin="round" d="M 15190,10961 L 15190,10811"/>
 <path fill="none" stroke="rgb(0,0,0)" stroke-width="30" stroke-linejoin="round" d="M 15190,10961 L 15190,10811"/>
 <path fill="none" stroke="rgb(0,0,0)" stroke-width="30" stroke-linejoin="round" d="M 1167,10811 L 15190,10811"/>
 <path fill="none" stroke="rgb(0,0,0)" stroke-width="30" stroke-linejoin="round" d="M 1017,10811 L 1167,10811"/>
 <path fill="none" stroke="rgb(0,0,0)" stroke-width="30" stroke-linejoin="round" d="M 1017,10811 L 1167,10811"/>
 <path fill="none" stroke="rgb(0,0,0)" stroke-width="30" stroke-linejoin="round" d="M 1017,9422 L 1167,9422"/>
 <path fill="none" stroke="rgb(0,0,0)" stroke-width="30" stroke-linejoin="round" d="M 1017,9422 L 1167,9422"/>
 <path fill="none" stroke="rgb(0,0,0)" stroke-width="30" stroke-linejoin="round" d="M 1017,8033 L 1167,8033"/>
 <path fill="none" stroke="rgb(0,0,0)" stroke-width="30" stroke-linejoin="round" d="M 1017,8033 L 1167,8033"/>
 <path fill="none" stroke="rgb(0,0,0)" stroke-width="30" stroke-linejoin="round" d="M 1017,6645 L 1167,6645"/>
 <path fill="none" stroke="rgb(0,0,0)" stroke-width="30" stroke-linejoin="round" d="M 1017,6645 L 1167,6645"/>
 <path fill="none" stroke="rgb(0,0,0)" stroke-width="30" stroke-linejoin="round" d="M 1017,5257 L 1167,5257"/>
 <path fill="none" stroke="rgb(0,0,0)" stroke-width="30" stroke-linejoin="round" d="M 1017,5257 L 1167,5257"/>
 <path fill="none" stroke="rgb(0,0,0)" stroke-width="30" stroke-linejoin="round" d="M 1017,3869 L 1167,3869"/>
 <path fill="none" stroke="rgb(0,0,0)" stroke-width="30" stroke-linejoin="round" d="M 1017,3869 L 1167,3869"/>
 <path fill="none" stroke="rgb(0,0,0)" stroke-width="30" stroke-linejoin="round" d="M 1017,2480 L 1167,2480"/>
 <path fill="none" stroke="rgb(0,0,0)" stroke-width="30" stroke-linejoin="round" d="M 1017,2480 L 1167,2480"/>
 <path fill="none" stroke="rgb(0,0,0)" stroke-width="30" stroke-linejoin="round" d="M 1017,1092 L 1167,1092"/>
 <path fill="none" stroke="rgb(0,0,0)" stroke-width="30" stroke-linejoin="round" d="M 1017,1092 L 1167,1092"/>
 <path fill="none" stroke="rgb(0,0,0)" stroke-width="30" stroke-linejoin="round" d="M 1167,10811 L 1167,1092"/>
 <path fill="none" stroke="rgb(0,0,0)" stroke-width="30" stroke-linejoin="round" d="M 15340,10811 L 15190,10811"/>
 <path fill="none" stroke="rgb(0,0,0)" stroke-width="30" stroke-linejoin="round" d="M 15340,10811 L 15190,10811"/>
 <path fill="none" stroke="rgb(0,0,0)" stroke-width="30" stroke-linejoin="round" d="M 15340,9422 L 15190,9422"/>
 <path fill="none" stroke="rgb(0,0,0)" stroke-width="30" stroke-linejoin="round" d="M 15340,9422 L 15190,9422"/>
 <path fill="none" stroke="rgb(0,0,0)" stroke-width="30" stroke-linejoin="round" d="M 15340,8033 L 15190,8033"/>
 <path fill="none" stroke="rgb(0,0,0)" stroke-width="30" stroke-linejoin="round" d="M 15340,8033 L 15190,8033"/>
 <path fill="none" stroke="rgb(0,0,0)" stroke-width="30" stroke-linejoin="round" d="M 15340,6645 L 15190,6645"/>
 <path fill="none" stroke="rgb(0,0,0)" stroke-width="30" stroke-linejoin="round" d="M 15340,6645 L 15190,6645"/>
 <path fill="none" stroke="rgb(0,0,0)" stroke-width="30" stroke-linejoin="round" d="M 15340,5257 L 15190,5257"/>
 <path fill="none" stroke="rgb(0,0,0)" stroke-width="30" stroke-linejoin="round" d="M 15340,5257 L 15190,5257"/>
 <path fill="none" stroke="rgb(0,0,0)" stroke-width="30" stroke-linejoin="round" d="M 15340,3869 L 15190,3869"/>
 <path fill="none" stroke="rgb(0,0,0)" stroke-width="30" stroke-linejoin="round" d="M 15340,3869 L 15190,3869"/>
 <path fill="none" stroke="rgb(0,0,0)" stroke-width="30" stroke-linejoin="round" d="M 15340,2480 L 15190,2480"/>
 <path fill="none" stroke="rgb(0,0,0)" stroke-width="30" stroke-linejoin="round" d="M 15340,2480 L 15190,2480"/>
 <path fill="none" stroke="rgb(0,0,0)" stroke-width="30" stroke-linejoin="round" d="M 15340,1092 L 15190,1092"/>
 <path fill="none" stroke="rgb(0,0,0)" stroke-width="30" stroke-linejoin="round" d="M 15340,1092 L 15190,1092"/>
 <path fill="none" stroke="rgb(0,0,0)" stroke-width="30" stroke-linejoin="round" d="M 15190,10811 L 15190,1092"/>
 <path fill="none" stroke="rgb(0,69,134)" stroke-width="88" stroke-linejoin="round" d="M 1167,8935 L 1292,8998 1417,8929 1542,8886 1667,8985 1793,8951 1918,8926 2043,8947 2168,8941 2293,8922 2419,8905 2544,8922 2669,8966 2794,8966 2920,8990 3045,8983 3170,8996 3295,8994 3420,9008 3546,9018 3671,9029 3796,9075 3921,9044 4046,9080 4172,9108 4297,9122 4422,9140 4547,9118 4673,9123 4798,9115 4923,9078 5048,9039 5173,9083 5299,9094 5424,9085 5549,9126 5674,9159 5799,9204 5925,9279 6050,9230 6175,9176 6300,9214 6426,9205 6551,9243 6676,9346 6801,9319 6926,9300 7052,9305 7177,9348 7302,9416 7427,9433 7552,9436 7678,9501 7803,9568 7928,9546 8053,9566 8179,9579 8303,9594 8428,9630 8553,9643 8678,9689 8804,9809 8929,9779 9054,9775 9179,9786 9304,9764 9430,9740 9555,9787 9680,9823 9805,9877 9931,9875 10056,9855 10181,9879 10306,9938 10431,9929 10557,9916 10682,9936 10807,9907 10932,9852 11057,9807 11183,9784 11308,9840 11433,9809 11558,9875 11684,9927 11809,9948 11934,10005 12059,10005 12184,10008 12310,10020 12435,10050 12560,10059 12685,10087 12810,10109 12936,10108 13061,10112 13186,10176 13311,10227 13437,10251 13562,10222 13687,10251 13812,10284 13937,10290 14063,10300 14188,10325 14313,10318 14438,10331 14563,10347 14689,10374 14814,10416 14939,10430 15064,10412 15190,10416"/>
 <path fill="none" stroke="rgb(255,66,14)" stroke-width="88" stroke-linejoin="round" d="M 1167,2529 L 1292,2618 1417,2879 1542,3017 1667,3106 1793,3067 1918,3352 2043,3502 2168,3585 2293,3762 2419,3912 2544,3966 2669,4184 2794,4344 2920,4546 3045,4602 3170,4700 3295,4810 3420,4884 3546,4995 3671,5088 3796,5192 3921,5320 4046,5378 4172,5550 4297,5686 4422,5953 4547,6033 4673,6167 4798,6289 4923,6313 5048,6362 5173,6449 5299,6595 5424,6655 5549,6703 5674,6709 5799,6810 5925,6967 6050,6977 6175,7028 6300,7114 6426,7161 6551,7221 6676,7296 6801,7399 6926,7464 7052,7650 7177,7561 7302,7407 7427,7456 7552,7549 7678,7577 7803,7507 7928,7645 8053,7800 8179,7856 8303,7900 8428,7838 8553,7946 8678,7922 8804,7692 8929,7839 9054,7707 9179,7778 9304,7867 9430,7918 9555,7903 9680,7871 9805,8088 9931,8150 10056,8267 10181,8268 10306,8272 10431,8281 10557,8360 10682,8414 10807,8460 10932,8539 11057,8543 11183,8324 11308,8496 11433,8608 11558,8654 11684,8665 11809,8668 11934,8496 12059,8496 12184,8808 12310,8901 12435,8929 12560,8962 12685,8972 12810,8996 12936,9130 13061,9136 13186,9146 13311,9114 13437,9172 13562,9248 13687,9308 13812,9201 13937,9268 14063,9347 14188,9318 14313,9448 14438,9515 14563,9448 14689,9525 14814,9418 14939,9440 15064,9461 15190,9446"/>
 <path fill="none" stroke="rgb(255,211,32)" stroke-width="88" stroke-linejoin="round" d="M 1167,7464 L 1292,7322 1417,7125 1542,7039 1667,6856 1793,6929 1918,6678 2043,6517 2168,6443 2293,6300 2419,6174 2544,6129 2669,5892 2794,5781 2920,5617 3045,5622 3170,5565 3295,5540 3420,5503 3546,5457 3671,5414 3796,5388 3921,5393 4046,5411 4172,5357 4297,5400 4422,5393 4547,5493 4673,5527 4798,5564 4923,5679 5048,5779 5173,5811 5299,5835 5424,5896 5549,5953 5674,6014 5799,6020 5925,6029 6050,6107 6175,6174 6300,6164 6426,6210 6551,6271 6676,6255 6801,6307 6926,6320 7052,6278 7177,6388 7302,6550 7427,6592 7552,6577 7678,6613 7803,6660 7928,6681 8053,6646 8179,6598 8303,6609 8428,6698 8553,6781 8678,6823 8804,6978 8929,7028 9054,7257 9179,7206 9304,7178 9430,7185 9555,7288 9680,7356 9805,7400 9931,7392 10056,7343 10181,7390 10306,7442 10431,7489 10557,7524 10682,7531 10807,7575 10932,7558 11057,7571 11183,7745 11308,7779 11433,7940 11558,7990 11684,8003 11809,8060 11934,8138 12059,8138 12184,8040 12310,8093 12435,8068 12560,8151 12685,8222 12810,8249 12936,8328 13061,8324 13186,8339 13311,8419 13437,8461 13562,8439 13687,8524 13812,8546 13937,8594 14063,8679 14188,8789 14313,8935 14438,8943 14563,9025 14689,9048 14814,9126 14939,9118 15064,9105 15190,9141"/>
 <path fill="none" stroke="rgb(87,157,28)" stroke-width="88" stroke-linejoin="round" d="M 1167,10481 L 1292,10468 1417,10468 1542,10463 1667,10456 1793,10462 1918,10454 2043,10444 2168,10434 2293,10429 2419,10424 2544,10405 2669,10373 2794,10336 2920,10277 3045,10233 3170,10184 3295,10118 3420,10077 3546,10013 3671,9943 3796,9834 3921,9747 4046,9652 4172,9521 4297,9337 4422,9075 4547,8939 4673,8779 4798,8653 4923,8550 5048,8450 5173,8321 5299,8176 5424,8082 5549,7942 5674,7839 5799,7713 5925,7486 6050,7482 6175,7407 6300,7322 6426,7263 6551,7131 6676,7013 6801,6939 6926,6878 7052,6735 7177,6686 7302,6639 7427,6546 7552,6484 7678,6385 7803,6343 7928,6249 8053,6111 8179,6083 8303,5983 8428,5910 8553,5725 8678,5629 8804,5579 8929,5409 9054,5349 9179,5252 9304,5225 9430,5214 9555,5099 9680,5074 9805,4875 9931,4799 10056,4696 10181,4531 10306,4435 10431,4398 10557,4284 10682,4173 10807,4121 10932,4181 11057,4130 11183,4174 11308,3873 11433,3671 11558,3548 11684,3476 11809,3390 11934,3415 12059,3415 12184,3267 12310,3115 12435,3069 12560,2909 12685,2769 12810,2669 12936,2450 13061,2458 13186,2352 13311,2266 13437,2169 13562,2205 13687,2033 13812,2076 13937,1976 14063,1830 14188,1721 14313,1473 14438,1436 14563,1412 14689,1316 14814,1235 14939,1139 15064,1128 15160,1092"/>
 <path fill="none" stroke="rgb(126,0,33)" stroke-width="88" stroke-linejoin="round" d="M 1167,10759 L 1292,10762 1417,10767 1542,10762 1667,10765 1793,10758 1918,10758 2043,10758 2168,10763 2293,10755 2419,10752 2544,10747 2669,10754 2794,10742 2920,10738 3045,10729 3170,10723 3295,10706 3420,10697 3546,10686 3671,10695 3796,10680 3921,10665 4046,10647 4172,10633 4297,10623 4422,10608 4547,10586 4673,10572 4798,10547 4923,10548 5048,10538 5173,10504 5299,10468 5424,10451 5549,10444 5674,10447 5799,10422 5925,10406 6050,10372 6175,10381 6300,10352 6426,10327 6551,10301 6676,10258 6801,10202 6926,10205 7052,10198 7177,10183 7302,10154 7427,10140 7552,10122 7678,10091 7803,10088 7928,10047 8053,10044 8179,10052 8303,10081 8428,10093 8553,10073 8678,10105 8804,10109 8929,10113 9054,10080 9179,10147 9304,10134 9430,10111 9555,10091 9680,10044 9805,9927 9931,9952 10056,10007 10181,10100 10306,10080 10431,10072 10557,10084 10682,10115 10807,10105 10932,10037 11057,10118 11183,10141 11308,10180 11433,10138 11558,10101 11684,10097 11809,10102 11934,10115 12059,10115 12184,10044 12310,10038 12435,10052 12560,10086 12685,10118 12810,10145 12936,10152 13061,10138 13186,10155 13311,10141 13437,10115 13562,10054 13687,10052 13812,10061 13937,10040 14063,10012 14188,10016 14313,9994 14438,9943 14563,9936 14689,9904 14814,9973 14939,10041 15064,10062 15190,10084"/>
 <text class="TextShape"><tspan class="TextParagraph" font-family="Arial, sans-serif" font-size="388px" font-weight="400"><tspan class="TextPosition" x="993" y="11405"><tspan fill="rgb(0,0,0)" stroke="none">2008</tspan></tspan></tspan></text>
 <text class="TextShape"><tspan class="TextParagraph" font-family="Arial, sans-serif" font-size="388px" font-weight="400"><tspan class="TextPosition" x="2496" y="11405"><tspan fill="rgb(0,0,0)" stroke="none">2009</tspan></tspan></tspan></text>
 <text class="TextShape"><tspan class="TextParagraph" font-family="Arial, sans-serif" font-size="388px" font-weight="400"><tspan class="TextPosition" x="3998" y="11405"><tspan fill="rgb(0,0,0)" stroke="none">2010</tspan></tspan></tspan></text>
 <text class="TextShape"><tspan class="TextParagraph" font-family="Arial, sans-serif" font-size="388px" font-weight="400"><tspan class="TextPosition" x="5515" y="11405"><tspan fill="rgb(0,0,0)" stroke="none">2011</tspan></tspan></tspan></text>
 <text class="TextShape"><tspan class="TextParagraph" font-family="Arial, sans-serif" font-size="388px" font-weight="400"><tspan class="TextPosition" x="7003" y="11405"><tspan fill="rgb(0,0,0)" stroke="none">2012</tspan></tspan></tspan></text>
 <text class="TextShape"><tspan class="TextParagraph" font-family="Arial, sans-serif" font-size="388px" font-weight="400"><tspan class="TextPosition" x="8506" y="11405"><tspan fill="rgb(0,0,0)" stroke="none">2013</tspan></tspan></tspan></text>
 <text class="TextShape"><tspan class="TextParagraph" font-family="Arial, sans-serif" font-size="388px" font-weight="400"><tspan class="TextPosition" x="10008" y="11405"><tspan fill="rgb(0,0,0)" stroke="none">2014</tspan></tspan></tspan></text>
 <text class="TextShape"><tspan class="TextParagraph" font-family="Arial, sans-serif" font-size="388px" font-weight="400"><tspan class="TextPosition" x="11511" y="11405"><tspan fill="rgb(0,0,0)" stroke="none">2015</tspan></tspan></tspan></text>
 <text class="TextShape"><tspan class="TextParagraph" font-family="Arial, sans-serif" font-size="388px" font-weight="400"><tspan class="TextPosition" x="13014" y="11405"><tspan fill="rgb(0,0,0)" stroke="none">2016</tspan></tspan></tspan></text>
 <text class="TextShape"><tspan class="TextParagraph" font-family="Arial, sans-serif" font-size="388px" font-weight="400"><tspan class="TextPosition" x="14516" y="11405"><tspan fill="rgb(0,0,0)" stroke="none">2017</tspan></tspan></tspan></text>
 <text class="TextShape"><tspan class="TextParagraph" font-family="Arial, sans-serif" font-size="388px" font-weight="400"><tspan class="TextPosition" x="361" y="10945"><tspan fill="rgb(0,0,0)" stroke="none">0%</tspan></tspan></tspan></text>
 <text class="TextShape"><tspan class="TextParagraph" font-family="Arial, sans-serif" font-size="388px" font-weight="400"><tspan class="TextPosition" x="150" y="9556"><tspan fill="rgb(0,0,0)" stroke="none">10%</tspan></tspan></tspan></text>
 <text class="TextShape"><tspan class="TextParagraph" font-family="Arial, sans-serif" font-size="388px" font-weight="400"><tspan class="TextPosition" x="150" y="8167"><tspan fill="rgb(0,0,0)" stroke="none">20%</tspan></tspan></tspan></text>
 <text class="TextShape"><tspan class="TextParagraph" font-family="Arial, sans-serif" font-size="388px" font-weight="400"><tspan class="TextPosition" x="150" y="6779"><tspan fill="rgb(0,0,0)" stroke="none">30%</tspan></tspan></tspan></text>
 <text class="TextShape"><tspan class="TextParagraph" font-family="Arial, sans-serif" font-size="388px" font-weight="400"><tspan class="TextPosition" x="150" y="5390"><tspan fill="rgb(0,0,0)" stroke="none">40%</tspan></tspan></tspan></text>
 <text class="TextShape"><tspan class="TextParagraph" font-family="Arial, sans-serif" font-size="388px" font-weight="400"><tspan class="TextPosition" x="150" y="4002"><tspan fill="rgb(0,0,0)" stroke="none">50%</tspan></tspan></tspan></text>
 <text class="TextShape"><tspan class="TextParagraph" font-family="Arial, sans-serif" font-size="388px" font-weight="400"><tspan class="TextPosition" x="150" y="2613"><tspan fill="rgb(0,0,0)" stroke="none">60%</tspan></tspan></tspan></text>
 <text class="TextShape"><tspan class="TextParagraph" font-family="Arial, sans-serif" font-size="388px" font-weight="400"><tspan class="TextPosition" x="150" y="1225"><tspan fill="rgb(0,0,0)" stroke="none">70%</tspan></tspan></tspan></text>
 <text class="TextShape"><tspan class="TextParagraph" font-family="Arial, sans-serif" font-size="388px" font-weight="400"><tspan class="TextPosition" x="15440" y="10945"><tspan fill="rgb(0,0,0)" stroke="none">0%</tspan></tspan></tspan></text>
 <text class="TextShape"><tspan class="TextParagraph" font-family="Arial, sans-serif" font-size="388px" font-weight="400"><tspan class="TextPosition" x="15440" y="9556"><tspan fill="rgb(0,0,0)" stroke="none">10%</tspan></tspan></tspan></text>
 <text class="TextShape"><tspan class="TextParagraph" font-family="Arial, sans-serif" font-size="388px" font-weight="400"><tspan class="TextPosition" x="15440" y="8167"><tspan fill="rgb(0,0,0)" stroke="none">20%</tspan></tspan></tspan></text>
 <text class="TextShape"><tspan class="TextParagraph" font-family="Arial, sans-serif" font-size="388px" font-weight="400"><tspan class="TextPosition" x="15440" y="6779"><tspan fill="rgb(0,0,0)" stroke="none">30%</tspan></tspan></tspan></text>
 <text class="TextShape"><tspan class="TextParagraph" font-family="Arial, sans-serif" font-size="388px" font-weight="400"><tspan class="TextPosition" x="15440" y="5390"><tspan fill="rgb(0,0,0)" stroke="none">40%</tspan></tspan></tspan></text>
 <text class="TextShape"><tspan class="TextParagraph" font-family="Arial, sans-serif" font-size="388px" font-weight="400"><tspan class="TextPosition" x="15440" y="4002"><tspan fill="rgb(0,0,0)" stroke="none">50%</tspan></tspan></tspan></text>
 <text class="TextShape"><tspan class="TextParagraph" font-family="Arial, sans-serif" font-size="388px" font-weight="400"><tspan class="TextPosition" x="15440" y="2613"><tspan fill="rgb(0,0,0)" stroke="none">60%</tspan></tspan></tspan></text>
 <text class="TextShape"><tspan class="TextParagraph" font-family="Arial, sans-serif" font-size="388px" font-weight="400"><tspan class="TextPosition" x="15440" y="1225"><tspan fill="rgb(0,0,0)" stroke="none">70%</tspan></tspan></tspan></text>
 <text class="TextShape"><tspan class="TextParagraph" font-family="Liberation Sans, sans-serif" font-size="635px" font-weight="400"><tspan class="TextPosition" x="5520" y="747"><tspan fill="rgb(0,0,0)" stroke="none">Relación de aspecto</tspan></tspan></tspan></text>
 <path fill="none" stroke="rgb(0,69,134)" stroke-width="88" stroke-linejoin="round" d="M 3445,11738 L 4245,11738"/>
 <path fill="none" stroke="rgb(255,66,14)" stroke-width="88" stroke-linejoin="round" d="M 5258,11738 L 6058,11738"/>
 <path fill="none" stroke="rgb(255,211,32)" stroke-width="88" stroke-linejoin="round" d="M 7071,11738 L 7871,11738"/>
 <path fill="none" stroke="rgb(87,157,28)" stroke-width="88" stroke-linejoin="round" d="M 8883,11738 L 9683,11738"/>
 <path fill="none" stroke="rgb(126,0,33)" stroke-width="88" stroke-linejoin="round" d="M 10934,11738 L 11734,11738"/>
 <text class="TextShape"><tspan class="TextParagraph" font-family="Arial, sans-serif" font-size="459px" font-weight="400"><tspan class="TextPosition" x="4345" y="11897"><tspan fill="rgb(0,0,0)" stroke="none">5:4</tspan></tspan></tspan></text>
 <text class="TextShape"><tspan class="TextParagraph" font-family="Arial, sans-serif" font-size="459px" font-weight="400"><tspan class="TextPosition" x="6158" y="11897"><tspan fill="rgb(0,0,0)" stroke="none">4:3</tspan></tspan></tspan></text>
 <text class="TextShape"><tspan class="TextParagraph" font-family="Arial, sans-serif" font-size="459px" font-weight="400"><tspan class="TextPosition" x="7971" y="11897"><tspan fill="rgb(0,0,0)" stroke="none">8:5</tspan></tspan></tspan></text>
 <text class="TextShape"><tspan class="TextParagraph" font-family="Arial, sans-serif" font-size="459px" font-weight="400"><tspan class="TextPosition" x="9783" y="11897"><tspan fill="rgb(0,0,0)" stroke="none">16:9</tspan></tspan></tspan></text>
 <text class="TextShape"><tspan class="TextParagraph" font-family="Arial, sans-serif" font-size="459px" font-weight="400"><tspan class="TextPosition" x="11834" y="11897"><tspan fill="rgb(0,0,0)" stroke="none">Otros</tspan></tspan></tspan></text>
</svg>
