<?xml version="1.0" encoding="UTF-8" standalone="no"?>
<!-- Created with Inkscape (http://www.inkscape.org/) -->

<svg
   xmlns:dc="http://purl.org/dc/elements/1.1/"
   xmlns:cc="http://creativecommons.org/ns#"
   xmlns:rdf="http://www.w3.org/1999/02/22-rdf-syntax-ns#"
   xmlns:svg="http://www.w3.org/2000/svg"
   xmlns="http://www.w3.org/2000/svg"
   xmlns:sodipodi="http://sodipodi.sourceforge.net/DTD/sodipodi-0.dtd"
   xmlns:inkscape="http://www.inkscape.org/namespaces/inkscape"
   width="106.26969"
   height="150"
   id="svg4835"
   version="1.1"
   inkscape:version="0.48.5 r10040"
   sodipodi:docname="Documento nuevo 2">
  <defs
     id="defs4837" />
  <sodipodi:namedview
     id="base"
     pagecolor="#ffffff"
     bordercolor="#666666"
     borderopacity="1.0"
     inkscape:pageopacity="0.0"
     inkscape:pageshadow="2"
     inkscape:zoom="0.35"
     inkscape:cx="-94.57676"
     inkscape:cy="147.14286"
     inkscape:document-units="px"
     inkscape:current-layer="layer1"
     showgrid="false"
     fit-margin-top="0"
     fit-margin-left="0"
     fit-margin-right="0"
     fit-margin-bottom="0"
     inkscape:window-width="1280"
     inkscape:window-height="962"
     inkscape:window-x="-8"
     inkscape:window-y="-8"
     inkscape:window-maximized="1" />
  <metadata
     id="metadata4840">
    <rdf:RDF>
      <cc:Work
         rdf:about="">
        <dc:format>image/svg+xml</dc:format>
        <dc:type
           rdf:resource="http://purl.org/dc/dcmitype/StillImage" />
        <dc:title></dc:title>
      </cc:Work>
    </rdf:RDF>
  </metadata>
  <g
     inkscape:label="Capa 1"
     inkscape:groupmode="layer"
     id="layer1"
     transform="translate(-444.57676,-529.50505)">
    <polygon
       transform="matrix(0.29296866,0,0,0.29296866,422.71163,529.50509)"
       style="fill:#e44d26"
       points="437.367,100.62 404.321,470.819 255.778,512 107.644,470.877 74.633,100.62 "
       id="polygon6"
       inkscape:export-filename="C:\Users\BLJ\Documents\_MCLibre.org\Varios\logotipos 2013\html5_50.png"
       inkscape:export-xdpi="45"
       inkscape:export-ydpi="45" />
    <polygon
       transform="matrix(0.29296866,0,0,0.29296866,422.71163,529.50509)"
       style="fill:#f16529"
       points="404.27,130.894 256,130.894 256,480.523 376.03,447.246 "
       id="polygon8"
       inkscape:export-filename="C:\Users\BLJ\Documents\_MCLibre.org\Varios\logotipos 2013\html5_50.png"
       inkscape:export-xdpi="45"
       inkscape:export-ydpi="45" />
    <polygon
       transform="matrix(0.29296866,0,0,0.29296866,422.71163,529.50509)"
       style="fill:#ebebeb"
       points="191.76,221.716 256,221.716 256,176.305 255.843,176.305 142.132,176.305 143.219,188.488 154.38,313.627 256,313.627 256,268.217 195.91,268.217 "
       id="polygon10"
       inkscape:export-filename="C:\Users\BLJ\Documents\_MCLibre.org\Varios\logotipos 2013\html5_50.png"
       inkscape:export-xdpi="45"
       inkscape:export-ydpi="45" />
    <polygon
       transform="matrix(0.29296866,0,0,0.29296866,422.71163,529.50509)"
       style="fill:#ebebeb"
       points="177.419,336.333 156.409,336.333 162.771,407.634 255.791,433.457 256,433.399 256,386.153 255.801,386.206 205.227,372.55 201.994,336.333 "
       id="polygon12"
       inkscape:export-filename="C:\Users\BLJ\Documents\_MCLibre.org\Varios\logotipos 2013\html5_50.png"
       inkscape:export-xdpi="45"
       inkscape:export-ydpi="45" />
    <path
       inkscape:connector-curvature="0"
       d="m 454.46417,529.50505 h 6.76082 v 6.67965 h 6.18458 v -6.67965 h 6.76112 v 20.22779 h -6.76083 v -6.77354 h -6.18457 v 6.77354 h -6.76085 v -20.22779 z"
       id="path14"
       inkscape:export-filename="C:\Users\BLJ\Documents\_MCLibre.org\Varios\logotipos 2013\html5_50.png"
       inkscape:export-xdpi="45"
       inkscape:export-ydpi="45" />
    <path
       inkscape:connector-curvature="0"
       d="m 483.06141,536.2129 h -5.95195 v -6.70785 h 18.66797 v 6.70785 h -5.95459 v 13.51994 h -6.76115 V 536.2129 z"
       id="path16"
       inkscape:export-filename="C:\Users\BLJ\Documents\_MCLibre.org\Varios\logotipos 2013\html5_50.png"
       inkscape:export-xdpi="45"
       inkscape:export-ydpi="45" />
    <path
       inkscape:connector-curvature="0"
       d="m 498.74021,529.50505 h 7.0497 l 4.33652,7.10745 4.33215,-7.10745 h 7.05233 v 20.22779 h -6.733 v -10.02599 l -4.65148,7.19204 h -0.1164 l -4.6547,-7.19204 v 10.02599 h -6.61522 v -20.22779 z"
       id="path18"
       inkscape:export-filename="C:\Users\BLJ\Documents\_MCLibre.org\Varios\logotipos 2013\html5_50.png"
       inkscape:export-xdpi="45"
       inkscape:export-ydpi="45" />
    <path
       inkscape:connector-curvature="0"
       d="m 524.87565,529.50505 h 6.7629 v 13.5417 h 9.5077 v 6.68609 h -16.2706 v -20.22779 z"
       id="path20"
       inkscape:export-filename="C:\Users\BLJ\Documents\_MCLibre.org\Varios\logotipos 2013\html5_50.png"
       inkscape:export-xdpi="45"
       inkscape:export-ydpi="45" />
    <polygon
       transform="matrix(0.29296866,0,0,0.29296866,422.71163,529.50509)"
       style="fill:#ffffff"
       points="255.843,268.217 255.843,313.627 311.761,313.627 306.49,372.521 255.843,386.191 255.843,433.435 348.937,407.634 349.62,399.962 360.291,280.411 361.399,268.217 349.162,268.217 "
       id="polygon22"
       inkscape:export-filename="C:\Users\BLJ\Documents\_MCLibre.org\Varios\logotipos 2013\html5_50.png"
       inkscape:export-xdpi="45"
       inkscape:export-ydpi="45" />
    <polygon
       transform="matrix(0.29296866,0,0,0.29296866,422.71163,529.50509)"
       style="fill:#ffffff"
       points="255.843,221.605 255.843,221.716 365.385,221.716 365.385,221.716 365.531,221.716 366.442,211.509 368.511,188.488 369.597,176.305 255.843,176.305 255.843,204.509 "
       id="polygon24"
       inkscape:export-filename="C:\Users\BLJ\Documents\_MCLibre.org\Varios\logotipos 2013\html5_50.png"
       inkscape:export-xdpi="45"
       inkscape:export-ydpi="45" />
  </g>
</svg>
