<svg xmlns="http://www.w3.org/2000/svg" width="48" height="47.46" viewBox="0 0 48 47.460235">
  <g stroke-width=".64">
      <path d="M40.06 14.2l-1.9-1.97-1.23 1.2 1.92 1.95-1.8 1.78-2.97-3-1.22 1.18 2.96 3.02-1.32 1.3-1.92-1.97-1.22 1.2L35 22.5 48 9.7 38.46 0 25.3 12.92l1.67 1.67L38.43 3.32l6.22 6.34-2.05 2-2.95-3-1.22 1.18 2.95 3.02m-23.4 22.98l-2.23-2.27-1.22 1.17 2.23 2.27-1.8 1.78-3.27-3.33-1.25 1.2L13.72 40l-1.32 1.3-2.2-2.28-1.23 1.2 2.23 2.26-1.63 1.6-6.22-6.33 13.87-13.6-1.68-1.68L0 37.72l9.54 9.72 15.55-15.2-3.94-4-1.22 1.2 2.23 2.27-1.68 1.65-3.28-3.33-1.22 1.2 3.28 3.33m.07-25.34l-6.4-6.4-7.5 7.5 6.4 6.4 19.82 19.83 12.2 5.35-4.58-12.7zm-8.75 3.5l-2.35-2.37 4.72-4.72L15.33 8zm28.54 26.06l-6.83-3-.9-.9 4.06.25-.68-2.8 2.95.55.05-3.82.65.66L41 36.9z"/>
  </g>
</svg>
