<?xml version="1.0" encoding="UTF-8" standalone="no"?>
<!DOCTYPE svg PUBLIC "-//W3C//DTD SVG 1.1//EN" "http://www.w3.org/Graphics/SVG/1.1/DTD/svg11.dtd">
<svg xmlns="http://www.w3.org/2000/svg" xmlns:xlink="http://www.w3.org/1999/xlink" width="48" height="48" viewBox="1 1 48 48">
  <defs>
    <circle id="d" cx="96" cy="96" r="88"/>
    <linearGradient id="r" x1="110.87" x2="52.54" y1="164.5" y2="130.33" xlink:href="#a" gradientUnits="userSpaceOnUse"/>
    <linearGradient id="n" x1="29.34" x2="81.84" y1="75.02" y2="44.35" xlink:href="#b" gradientUnits="userSpaceOnUse"/>
    <linearGradient id="k" x1="121.86" x2="136.55" y1="49.8" y2="114.13" xlink:href="#c" gradientUnits="userSpaceOnUse"/>
    <linearGradient id="j" x1="121.86" x2="136.55" y1="49.8" y2="114.13" xlink:href="#c" gradientUnits="userSpaceOnUse"/>
    <linearGradient id="g" x1="110.87" x2="52.54" y1="164.5" y2="130.33" xlink:href="#a" gradientUnits="userSpaceOnUse"/>
    <linearGradient id="f" x1="29.34" x2="81.84" y1="75.02" y2="44.35" xlink:href="#b" gradientUnits="userSpaceOnUse"/>
  </defs>
  <clipPath id="e">
    <use width="176" height="176" xlink:href="#d" overflow="visible"/>
  </clipPath>
  <g transform="translate(-1.182 -1.182) scale(.27273)" clip-path="url(#e)">
    <path fill="#db4437" d="M21.97 8v108h39.4L96 56h88V8z"/>
    <linearGradient id="b" x1="29.34" x2="81.84" y1="75.02" y2="44.35" gradientUnits="userSpaceOnUse">
      <stop offset="0" stop-color="#a52714" stop-opacity=".6"/>
      <stop offset=".66" stop-color="#a52714" stop-opacity="0"/>
    </linearGradient>
    <path fill="url(#f)" d="M21.97 8v108h39.4L96 56h88V8z"/>
  </g>
  <path fill="#3e2723" fill-opacity=".15" d="M62.3 115.65l-39.8-68.3-.58 1 39.54 67.8z" transform="translate(-1.182 -1.182) scale(.27273)" clip-path="url(#e)"/>
  <g transform="translate(-1.182 -1.182) scale(.27273)" clip-path="url(#e)">
    <path fill="#0f9d58" d="M8 184h83.77l38.88-38.88V116h-69.3L8 24.48z"/>
    <linearGradient id="a" x1="110.87" x2="52.54" y1="164.5" y2="130.33" gradientUnits="userSpaceOnUse">
      <stop offset="0" stop-color="#055524" stop-opacity=".4"/>
      <stop offset=".33" stop-color="#055524" stop-opacity="0"/>
    </linearGradient>
    <path fill="url(#g)" d="M8 184h83.77l38.88-38.88V116h-69.3L8 24.48z"/>
  </g>
  <path fill="#263238" fill-opacity=".15" d="M129.84 117.33l-.83-.48L90.67 184h1.15l38.1-66.64z" transform="translate(-1.182 -1.182) scale(.27273)" clip-path="url(#e)"/>
  <g transform="translate(-1.182 -1.182) scale(.27273)" clip-path="url(#e)">
    <defs>
      <path id="h" d="M8 184h83.77l38.88-38.88V116h-69.3L8 24.48z"/>
    </defs>
    <clipPath id="i">
      <use width="176" height="176" xlink:href="#h" overflow="visible"/>
    </clipPath>
    <g clip-path="url(#i)">
      <path fill="#ffcd40" d="M96 56l34.65 60-38.88 68H184V56z"/>
      <linearGradient id="c" x1="121.86" x2="136.55" y1="49.8" y2="114.13" gradientUnits="userSpaceOnUse">
        <stop offset="0" stop-color="#ea6100" stop-opacity=".3"/>
        <stop offset=".66" stop-color="#ea6100" stop-opacity="0"/>
      </linearGradient>
      <path fill="url(#j)" d="M96 56l34.65 60-38.88 68H184V56z"/>
    </g>
  </g>
  <g transform="translate(-1.182 -1.182) scale(.27273)" clip-path="url(#e)">
    <path fill="#ffcd40" d="M96 56l34.65 60-38.88 68H184V56z"/>
    <path fill="url(#k)" d="M96 56l34.65 60-38.88 68H184V56z"/>
  </g>
  <g transform="translate(-1.182 -1.182) scale(.27273)" clip-path="url(#e)">
    <defs>
      <path id="l" d="M96 56l34.65 60-38.88 68H184V56z"/>
    </defs>
    <clipPath id="m">
      <use width="176" height="176" xlink:href="#l" overflow="visible"/>
    </clipPath>
    <g clip-path="url(#m)">
      <path fill="#db4437" d="M21.97 8v108h39.4L96 56h88V8z"/>
      <path fill="url(#n)" d="M21.97 8v108h39.4L96 56h88V8z"/>
    </g>
  </g>
  <radialGradient id="o" cx="668.18" cy="55.95" r="84.08" gradientUnits="userSpaceOnUse" gradientTransform="translate(-576)">
    <stop offset="0" stop-color="#3e2723" stop-opacity=".2"/>
    <stop offset="1" stop-color="#3e2723" stop-opacity="0"/>
  </radialGradient>
  <path fill="url(#o)" d="M96 56v20.95L174.4 56z" transform="translate(-1.182 -1.182) scale(.27273)" clip-path="url(#e)"/>
  <g transform="translate(-1.182 -1.182) scale(.27273)" clip-path="url(#e)">
    <defs>
      <path id="p" d="M21.97 8v40.34L61.37 116 96 56h88V8z"/>
    </defs>
    <clipPath id="q">
      <use width="176" height="176" xlink:href="#p" overflow="visible"/>
    </clipPath>
    <g clip-path="url(#q)">
      <path fill="#0f9d58" d="M8 184h83.77l38.88-38.88V116h-69.3L8 24.48z"/>
      <path fill="url(#r)" d="M8 184h83.77l38.88-38.88V116h-69.3L8 24.48z"/>
    </g>
  </g>
  <radialGradient id="s" cx="597.88" cy="48.52" r="78.04" gradientUnits="userSpaceOnUse" gradientTransform="translate(-576)">
    <stop offset="0" stop-color="#3e2723" stop-opacity=".2"/>
    <stop offset="1" stop-color="#3e2723" stop-opacity="0"/>
  </radialGradient>
  <path fill="url(#s)" d="M21.97 48.45l57.25 57.24L61.36 116z" transform="translate(-1.182 -1.182) scale(.27273)" clip-path="url(#e)"/>
  <radialGradient id="t" cx="671.84" cy="96.14" r="87.87" gradientUnits="userSpaceOnUse" gradientTransform="translate(-576)">
    <stop offset="0" stop-color="#263238" stop-opacity=".2"/>
    <stop offset="1" stop-color="#263238" stop-opacity="0"/>
  </radialGradient>
  <path fill="url(#t)" d="M91.83 183.9l20.96-78.2 17.8 10.3z" transform="translate(-1.182 -1.182) scale(.27273)" clip-path="url(#e)"/>
  <g transform="translate(-1.182 -1.182) scale(.27273)" clip-path="url(#e)">
    <circle cx="96" cy="96" r="40" fill="#f1f1f1"/>
    <circle cx="96" cy="96" r="32" fill="#4285f4"/>
  </g>
  <g transform="translate(-1.182 -1.182) scale(.27273)" clip-path="url(#e)">
    <path fill="#3e2723" fill-opacity=".2" d="M96 55c-22.1 0-40 17.9-40 40v1c0-22.1 17.9-40 40-40h88v-1H96z"/>
    <path fill="#fff" fill-opacity=".1" d="M130.6 116c-6.92 11.94-19.8 20-34.6 20s-27.7-8.06-34.6-20h-.05L8 24.48v1L61.36 117h.04c6.92 11.94 19.8 20 34.6 20s27.7-8.05 34.6-20h.06v-1h-.06z"/>
    <path fill="#3e2723" d="M97 56c-.17 0-.33.02-.5.03C118.36 56.3 136 74.08 136 96c0 21.92-17.64 39.7-39.5 39.97.17 0 .33.03.5.03 22.1 0 40-17.9 40-40s-17.9-40-40-40z" opacity=".1"/>
    <path fill="#fff" fill-opacity=".2" d="M131 117.33c3.4-5.88 5.37-12.68 5.37-19.96 0-4.22-.66-8.28-1.87-12.1.95 3.43 1.5 7.02 1.5 10.74 0 7.3-1.97 14.1-5.37 20l.02.05-38.88 68h1.16l38.1-66.63-.03-.04z"/>
  </g>
  <g transform="translate(-1.182 -1.182) scale(.27273)" clip-path="url(#e)">
    <path fill="#fff" fill-opacity=".2" d="M96 9c48.43 0 87.72 39.13 88 87.5V96c0-48.6-39.4-88-88-88S8 47.4 8 96v.5C8.3 48.13 47.58 9 96 9z"/>
    <path fill="#3e2723" fill-opacity=".15" d="M96 183c48.43 0 87.72-39.13 88-87.5v.5c0 48.6-39.4 88-88 88S8 144.6 8 96v-.5c.3 48.37 39.58 87.5 88 87.5z"/>
  </g>
  <radialGradient id="u" cx="34.29" cy="32.01" r="176.75" gradientUnits="userSpaceOnUse" gradientTransform="translate(-7 -7)">
    <stop offset="0" stop-color="#fff" stop-opacity=".1"/>
    <stop offset="1" stop-color="#fff" stop-opacity="0"/>
  </radialGradient>
  <circle cx="89" cy="89" r="88" fill="url(#u)" transform="translate(.727 .727) scale(.27273)"/>
</svg>
