<svg xmlns="http://www.w3.org/2000/svg" width="80.24" height="48" viewBox="1 1 80.24 48"><defs><linearGradient id="c" x2="1" gradientTransform="translate(-93.12 -67.3) scale(231.62705)" gradientUnits="userSpaceOnUse"><stop offset="0" stop-color="#db3328"/><stop offset="1" stop-color="#e53d30"/></linearGradient><linearGradient id="e" x2="1" gradientTransform="rotate(60 -6.85 -119.22) scale(189.86532)" gradientUnits="userSpaceOnUse"><stop offset="0" stop-color="#32a651"/><stop offset="1" stop-color="#279847"/></linearGradient><clipPath id="a"><path d="M8.57 96Z"/></clipPath><clipPath id="b"><path d="M8.57 96Z"/></clipPath><circle id="d" cx="96" cy="96" r="88"/></defs><path fill="#ff0" stroke="#000" stroke-width=".86" d="M61.7 34.63a9.38 9.38 0 0 1-.52-1.85c-.1-.7-.16-1.36-.16-1.97 0-.9.1-1.8.3-2.6a9.51 9.51 0 0 1 2.28-4.2c.57-.6 1.24-1.3 2-1.9.8-.6 1.5-1.3 2.1-1.8.6-.6 1.13-1.2 1.56-1.75.42-.6.74-1.2.95-1.82a5.66 5.66 0 0 0 .1-3.9 4.4 4.4 0 0 0-1-1.43c-.4-.4-.9-.76-1.6-1-.6-.24-1.3-.36-2-.36-1.6 0-3.3.34-5.1 1.04-1.7.67-3.4 1.7-5 3.1V4.4c1.66-.98 3.4-1.7 5.37-2.2 1.9-.5 3.9-.73 5.97-.73 1.97 0 3.8.22 5.5.67 1.7.43 3.16 1.1 4.4 2.05 1.2.9 2.2 2.1 2.9 3.6.7 1.4 1.06 3.1 1.06 5.2 0 1.3-.16 2.4-.46 3.5-.3 1-.7 2-1.3 2.9-.55.9-1.3 1.8-2.1 2.7-.87.8-1.84 1.7-2.94 2.6-.75.6-1.4 1.2-1.98 1.7a7.41 7.41 0 0 0-1.4 1.6 5.95 5.95 0 0 0-1.15 3.59c0 .5.06 1.06.2 1.6.14.5.3.96.56 1.32h-8.4m4.6 13.94c-1.7 0-3.1-.5-4.23-1.5a5.1 5.1 0 0 1-1.7-3.76c0-1.5.6-2.73 1.7-3.73a6.2 6.2 0 0 1 4.24-1.5c1.68 0 3.06.5 4.16 1.5 1.1.96 1.6 2.2 1.6 3.7a5 5 0 0 1-1.6 3.76 6 6 0 0 1-4.2 1.5" font-family="Gisha" font-size="41.88" font-weight="bold" letter-spacing="0" overflow="visible" style="line-height:125%;-inkscape-font-specification:'Gisha Bold'" word-spacing="0"/><g style="stroke-width:10.6664"><g style="stroke-width:10.6664"><g clip-path="url(#a)" opacity=".5" style="stroke-width:113.771" transform="matrix(.37499 0 0 -.37499 1 49)"><g style="stroke-width:10.6664"><path fill="#d663ff" d="M0 0Z" style="stroke-width:113.771" transform="translate(8.58 96)"/></g></g><g clip-path="url(#b)" opacity=".5" style="stroke-width:113.771" transform="matrix(.37499 0 0 -.37499 1 49)"><g style="stroke-width:10.6664"><path fill="#9963ff" d="M0 0Z" style="stroke-width:113.771" transform="translate(8.58 96)"/></g></g></g><path fill="#fbbf12" d="m51.77 28.7 110.85 64-110.85 192c141.38 0 255.99-114.61 255.99-256 0-46.64-12.54-90.33-34.33-128H51.76Z" style="stroke-width:40.3128" transform="translate(20.15 22.3) scale(.09375)"/><path fill="url(#a)" d="M51.77-227.29c-94.76 0-177.42 51.52-221.68 128.03L-59.1 92.71l110.86-64v-128h221.66c-44.27-76.5-126.93-128-221.66-128Z" style="fill:url(#c);stroke-width:40.3128" transform="translate(20.15 22.3) scale(.09375)"/><path fill="url(#d)" d="M-204.23 28.7c0 141.39 114.61 256 256 256l110.85-192-110.85-64-110.86 64L-169.9-99.26A254.7 254.7 0 0 0-204.23 28.7" style="fill:url(#e);stroke-width:40.3128" transform="translate(20.15 22.3) scale(.09375)"/><path fill="#fff" d="M179.76 28.7c0 70.7-57.3 128-128 128-70.69 0-128-57.3-128-128 0-70.68 57.31-128 128-128 70.7 0 128 57.32 128 128" style="stroke-width:40.3128" transform="translate(20.15 22.3) scale(.09375)"/><path fill="#1a73e8" d="M155.76 28.7c0 57.44-46.56 104-104 104-57.43 0-104-46.56-104-104 0-57.43 46.57-104 104-104 57.44 0 104 46.57 104 104" style="stroke-width:40.3128" transform="translate(20.15 22.3) scale(.09375)"/></g></svg>