<?xml version="1.0" encoding="UTF-8" standalone="no"?>
<!DOCTYPE svg PUBLIC "-//W3C//DTD SVG 1.1//EN" "http://www.w3.org/Graphics/SVG/1.1/DTD/svg11.dtd">
<svg xmlns="http://www.w3.org/2000/svg" width="28" height="32" viewBox="0 0 42.32394 48">
  <path fill="#1572b6" d="M3.85 43.2L0 0h42.32l-3.85 43.2L21.14 48l-17.3-4.8zm0 0"/>
  <path fill="#33a9dc" d="M21.16 44.33l14-3.9 3.3-36.9h-17.3v40.8zm0 0"/>
  <path fill="#fff" fill-rule="evenodd" d="M21.15 32.9L27 31.4l.3-2.38 5.3-.02-.6 6.58-10.86 2.86z"/>
  <path fill="#ebebeb" fill-rule="evenodd" d="M21.16 24.4H14.6l.72 7 5.84 1.48v5.56L10.1 35.42 8.95 19.1l12.22.04z"/>
  <path fill="#fff" fill-rule="evenodd" d="M21.16 8.4l13.1 1.3-1.3 14.67-11.8.02v-5.3l7.12.02.5-5.58-7.6-.66z"/>
  <path fill="#ebebeb" fill-rule="evenodd" d="M8.62 16l-.6-6.58 13.15-1v4.5l-7.37.76.3 2.25z"/>
</svg>
