<?xml version="1.0" encoding="UTF-8" standalone="no"?>
<!DOCTYPE svg PUBLIC "-//W3C//DTD SVG 1.1//EN" "http://www.w3.org/Graphics/SVG/1.1/DTD/svg11.dtd">
<svg xmlns="http://www.w3.org/2000/svg" width="80.02" height="48.1" xmlns:xlink="http://www.w3.org/1999/xlink" viewBox="0 0 80.034973 48.102781" overflow="visible">
  <title>
    Firefox Logo
  </title>
  <desc>
    Firefox logo in SVG, authored by Jon Hicks, made in Adobe Illustrator (file format cleaned up and slightly modified by Doug Schepers)
  </desc>
  <radialGradient id="a" cx="64.6" cy="7.2" r="104.2" fx="64.6" fy="7.2" gradientUnits="userSpaceOnUse">
    <stop offset="0" stop-color="#67c5d5"/>
    <stop offset=".2" stop-color="#66c2d3"/>
    <stop offset=".3" stop-color="#62b9ce"/>
    <stop offset=".4" stop-color="#5ca8c6"/>
    <stop offset=".5" stop-color="#5392ba"/>
    <stop offset=".6" stop-color="#4874aa"/>
    <stop offset=".7" stop-color="#3a5097"/>
    <stop offset=".7" stop-color="#2a2781"/>
    <stop offset=".8" stop-color="#1b006d"/>
    <stop offset="1" stop-color="#596aad"/>
  </radialGradient>
  <radialGradient id="b" cx="64.6" cy="14.2" r="52.2" fx="64.6" fy="14.2" gradientUnits="userSpaceOnUse" gradientTransform="matrix(.4 0 0 .4 3.3 .5)">
    <stop offset="0" stop-color="#0f80bc"/>
    <stop offset=".3" stop-color="#0a5f9e"/>
    <stop offset="1" stop-color="#00145a"/>
  </radialGradient>
  <radialGradient id="c" cx="64.6" cy="14.2" r="52.2" fx="64.6" fy="14.2" gradientUnits="userSpaceOnUse" gradientTransform="matrix(.4 0 0 .4 3.3 .5)">
    <stop offset="0" stop-color="#0f80bc"/>
    <stop offset=".3" stop-color="#0a5f9e"/>
    <stop offset="1" stop-color="#00145a"/>
  </radialGradient>
  <radialGradient id="d" cx="64.5" cy="14.2" r="52.2" fx="64.5" fy="14.2" gradientUnits="userSpaceOnUse" gradientTransform="matrix(.4 0 0 .4 3.3 .5)">
    <stop offset="0" stop-color="#0f80bc"/>
    <stop offset=".3" stop-color="#0a5f9e"/>
    <stop offset="1" stop-color="#00145a"/>
  </radialGradient>
  <radialGradient id="e" cx="65.4" cy="19.1" r="57.4" fx="65.4" fy="19.1" gradientUnits="userSpaceOnUse" gradientTransform="matrix(.4 0 0 .4 3.3 .5)">
    <stop offset="0" stop-color="#0f80bc"/>
    <stop offset=".3" stop-color="#0b629b"/>
    <stop offset=".8" stop-color="#031747"/>
    <stop offset="1" stop-color="#00022f"/>
  </radialGradient>
  <radialGradient id="f" cx="64.6" cy="14.2" r="52.2" fx="64.6" fy="14.2" gradientUnits="userSpaceOnUse" gradientTransform="matrix(.4 0 0 .4 3.3 .5)">
    <stop offset="0" stop-color="#0f80bc"/>
    <stop offset=".3" stop-color="#0a5f9e"/>
    <stop offset="1" stop-color="#00145a"/>
  </radialGradient>
  <radialGradient id="g" cx="64.6" cy="14.2" r="52.2" fx="64.6" fy="14.2" gradientUnits="userSpaceOnUse" gradientTransform="matrix(.4 0 0 .4 3.3 .5)">
    <stop offset="0" stop-color="#0f80bc"/>
    <stop offset=".3" stop-color="#0a5f9e"/>
    <stop offset="1" stop-color="#00145a"/>
  </radialGradient>
  <defs>
    <ellipse id="ag" cx="63.8" cy="59.4" rx="58.2" ry="58.3"/>
    <radialGradient id="ah" cx="64.6" cy="7.2" r="104.2" fx="64.6" fy="7.2" xlink:href="#a" gradientUnits="userSpaceOnUse"/>
    <radialGradient id="ai" cx="64.6" cy="14.2" r="52.2" fx="64.6" fy="14.2" xlink:href="#b" gradientUnits="userSpaceOnUse" gradientTransform="matrix(.4 0 0 .4 3.3 .5)"/>
    <radialGradient id="aj" cx="64.6" cy="14.2" r="52.2" fx="64.6" fy="14.2" xlink:href="#c" gradientUnits="userSpaceOnUse" gradientTransform="matrix(.4 0 0 .4 3.3 .5)"/>
    <radialGradient id="ak" cx="64.5" cy="14.2" r="52.2" fx="64.5" fy="14.2" xlink:href="#d" gradientUnits="userSpaceOnUse" gradientTransform="matrix(.4 0 0 .4 3.3 .5)"/>
    <radialGradient id="al" cx="65.4" cy="19.1" r="57.4" fx="65.4" fy="19.1" xlink:href="#e" gradientUnits="userSpaceOnUse" gradientTransform="matrix(.4 0 0 .4 3.3 .5)"/>
    <radialGradient id="am" cx="64.6" cy="14.2" r="52.2" fx="64.6" fy="14.2" xlink:href="#f" gradientUnits="userSpaceOnUse" gradientTransform="matrix(.4 0 0 .4 3.3 .5)"/>
    <radialGradient id="an" cx="64.6" cy="14.2" r="52.2" fx="64.6" fy="14.2" xlink:href="#g" gradientUnits="userSpaceOnUse" gradientTransform="matrix(.4 0 0 .4 3.3 .5)"/>
    <linearGradient id="ao" x1="76.4" x2="93.2" y1="16.6" y2="18" xlink:href="#h" gradientUnits="userSpaceOnUse"/>
    <linearGradient id="aq" x1="38.5" x2="29.2" y1="19.1" y2="32.8" xlink:href="#i" gradientUnits="userSpaceOnUse"/>
    <linearGradient id="ar" x1="62.7" x2="62.7" y1="34.5" y2="11.9" xlink:href="#j" gradientUnits="userSpaceOnUse"/>
    <linearGradient id="at" x1="64.5" x2="78.5" y1="56.3" y2="48.1" xlink:href="#k" gradientUnits="userSpaceOnUse"/>
    <linearGradient id="au" x1="41.8" x2="52.7" y1="37" y2="37.9" xlink:href="#l" gradientUnits="userSpaceOnUse"/>
    <linearGradient id="av" x1="24.5" x2="63.6" y1="34" y2="38.9" xlink:href="#m" gradientUnits="userSpaceOnUse"/>
    <linearGradient id="aw" x1="48.7" x2="51.9" y1="44.3" y2="42.9" xlink:href="#n" gradientUnits="userSpaceOnUse"/>
    <linearGradient id="ax" x1="38.8" x2="91.3" y1="82.6" y2="84.7" xlink:href="#o" gradientUnits="userSpaceOnUse"/>
    <linearGradient id="ay" x1="51.3" x2="78.7" y1="74.4" y2="84.2" xlink:href="#p" gradientUnits="userSpaceOnUse"/>
    <linearGradient id="az" x1="6.1" x2="32.8" y1="87.1" y2="87.1" xlink:href="#q" gradientUnits="userSpaceOnUse" gradientTransform="rotate(2.8 27.6 95.6)"/>
    <linearGradient id="aA" x1="209.7" x2="224.3" y1="-130.7" y2="-85.6" xlink:href="#r" gradientUnits="userSpaceOnUse" gradientTransform="rotate(6.8 -1627.4 -1650.2)"/>
    <linearGradient id="aB" x1="12.5" x2="12.5" y1="61.1" y2="111.5" xlink:href="#s" gradientUnits="userSpaceOnUse" gradientTransform="rotate(2.6 17.2 71.8)"/>
    <linearGradient id="aC" x1="18.3" x2="12.9" y1="30.8" y2="16.8" xlink:href="#t" gradientUnits="userSpaceOnUse"/>
    <linearGradient id="aD" x1="41.7" x2="54.8" y1="34.1" y2="16.9" xlink:href="#u" gradientUnits="userSpaceOnUse"/>
    <linearGradient id="aE" x1="34.8" x2="48.1" y1="57.5" y2="84.1" xlink:href="#v" gradientUnits="userSpaceOnUse"/>
    <linearGradient id="aF" x1="54.8" x2="58.1" y1="41.3" y2="44.3" xlink:href="#w" gradientUnits="userSpaceOnUse"/>
    <linearGradient id="aG" x1="35.5" x2="50.7" y1="48.4" y2="63.9" xlink:href="#x" gradientUnits="userSpaceOnUse"/>
    <linearGradient id="aH" x1="847.5" x2="847.5" y1="-1065" y2="-1008" xlink:href="#y" gradientUnits="userSpaceOnUse" gradientTransform="rotate(14.7 -3854 -3747.1)"/>
    <linearGradient id="aI" x1="15.9" x2="-3.4" y1="36.4" y2="67.8" xlink:href="#z" gradientUnits="userSpaceOnUse" gradientTransform="matrix(1 -.1 .1 1.2 -3.8 -4.9)"/>
    <linearGradient id="aJ" x1="80.9" x2="60.4" y1="67.8" y2="71.8" xlink:href="#A" gradientUnits="userSpaceOnUse"/>
    <linearGradient id="aK" x1="-411.3" x2="-411.3" y1="427.6" y2="475.3" xlink:href="#B" gradientUnits="userSpaceOnUse" gradientTransform="rotate(7.3 2864.4 3601.5)"/>
    <linearGradient id="aL" x1="-414.4" x2="-414.4" y1="422.7" y2="470.4" xlink:href="#C" gradientUnits="userSpaceOnUse" gradientTransform="rotate(21.2 832.2 1379)"/>
    <linearGradient id="aM" x1="13.8" x2=".6" y1="55.8" y2="75.7" xlink:href="#D" gradientUnits="userSpaceOnUse" gradientTransform="rotate(-35.9 17.1 54.3)"/>
    <linearGradient id="aN" x1="21" x2="7.8" y1="49.3" y2="69.2" xlink:href="#E" gradientUnits="userSpaceOnUse" gradientTransform="rotate(-35.9 17.1 54.3)"/>
    <linearGradient id="aO" x1="12.3" x2="6.5" y1="37.9" y2="48.7" xlink:href="#F" gradientUnits="userSpaceOnUse"/>
    <linearGradient id="aP" x1="11.7" x2="5.9" y1="44.5" y2="55.3" xlink:href="#G" gradientUnits="userSpaceOnUse"/>
    <linearGradient id="aQ" x1="18.3" x2="12.7" y1="39.9" y2="53.8" xlink:href="#H" gradientUnits="userSpaceOnUse"/>
    <linearGradient id="aR" x1="20.4" x2="7.2" y1="33.1" y2="53" xlink:href="#I" gradientUnits="userSpaceOnUse"/>
    <linearGradient id="aS" x1="21.3" x2="9.2" y1="37.1" y2="55.3" xlink:href="#J" gradientUnits="userSpaceOnUse"/>
    <linearGradient id="aT" x1="60.3" x2="61.2" y1="34.3" y2="36" xlink:href="#K" gradientUnits="userSpaceOnUse"/>
    <linearGradient id="aU" x1="22.6" x2="22.6" y1="28.5" y2="23.2" xlink:href="#L" gradientUnits="userSpaceOnUse"/>
    <linearGradient id="aV" x1="23" x2="34" y1="34.8" y2="21.9" xlink:href="#M" gradientUnits="userSpaceOnUse" gradientTransform="rotate(2.3 34 24.3)"/>
    <linearGradient id="aW" x1="15.5" x2="9.7" y1="33.5" y2="44.4" xlink:href="#N" gradientUnits="userSpaceOnUse"/>
    <linearGradient id="aX" x1="16.3" x2="27.1" y1="35.8" y2="23.3" xlink:href="#O" gradientUnits="userSpaceOnUse" gradientTransform="rotate(6 21.6 35.3)"/>
    <linearGradient id="aY" x1="13.4" x2="26.3" y1="22.9" y2="24.6" xlink:href="#P" gradientUnits="userSpaceOnUse" gradientTransform="rotate(5.2 27.1 24.7)"/>
    <linearGradient id="aZ" x1="7" x2="25.2" y1="23.1" y2="25.6" xlink:href="#Q" gradientUnits="userSpaceOnUse"/>
    <linearGradient id="ba" x1="15.9" x2="27.7" y1="22.2" y2="23.9" xlink:href="#R" gradientUnits="userSpaceOnUse" gradientTransform="rotate(5.2 27.1 24.7)"/>
    <linearGradient id="bb" x1="15.2" x2="4.5" y1="26.9" y2="25.8" xlink:href="#S" gradientUnits="userSpaceOnUse"/>
    <linearGradient id="bc" x1="10.9" x2="25.7" y1="37.1" y2="19.8" xlink:href="#T" gradientUnits="userSpaceOnUse" gradientTransform="rotate(6 21.6 35.3)"/>
    <linearGradient id="bd" x1="88.3" x2="117.3" y1="117.4" y2="72.7" xlink:href="#U" gradientUnits="userSpaceOnUse" gradientTransform="matrix(.4 0 0 .4 3.3 .5)"/>
    <linearGradient id="be" x1="105.2" x2="86.2" y1="22.7" y2="14.4" xlink:href="#V" gradientUnits="userSpaceOnUse" gradientTransform="matrix(.4 0 0 .4 3.3 .5)"/>
    <linearGradient id="bf" x1="117.9" x2="91.4" y1="41.7" y2="17.1" xlink:href="#W" gradientUnits="userSpaceOnUse" gradientTransform="matrix(.4 0 0 .4 3.3 .5)"/>
    <linearGradient id="bg" x1="1.1" x2="-10" y1="145.4" y2="134" xlink:href="#X" gradientUnits="userSpaceOnUse" gradientTransform="matrix(.4 0 0 .4 41.2 -37.3)"/>
    <linearGradient id="bh" x1="113.4" x2="119.7" y1="55.8" y2="34.3" xlink:href="#Y" gradientUnits="userSpaceOnUse" gradientTransform="matrix(.4 0 0 .4 3.3 .5)"/>
    <linearGradient id="bi" x1="-52" x2="-52.2" y1="212.8" y2="196.4" xlink:href="#Z" gradientUnits="userSpaceOnUse" gradientTransform="matrix(.4 0 0 .4 58.7 -55.6)"/>
    <linearGradient id="bj" x1="-172.7" x2="-161.5" y1="332.1" y2="309.9" xlink:href="#aa" gradientUnits="userSpaceOnUse" gradientTransform="matrix(.4 0 0 .4 96.1 -97.4)"/>
    <linearGradient id="bk" x1="99.2" x2="100.7" y1="87.7" y2="63.2" xlink:href="#ab" gradientUnits="userSpaceOnUse" gradientTransform="matrix(.4 0 0 .4 -.7 5.5)"/>
    <linearGradient id="bl" x1="58.4" x2="105.9" y1="113.9" y2="85.5" xlink:href="#ac" gradientUnits="userSpaceOnUse" gradientTransform="matrix(.4 0 0 .4 3.3 .5)"/>
    <linearGradient id="bm" x1="54.2" x2="102.9" y1="93.6" y2="100.2" xlink:href="#ad" gradientUnits="userSpaceOnUse" gradientTransform="matrix(.4 0 0 .4 7.1 -1.8)"/>
    <linearGradient id="bn" x1="39" x2="95.5" y1="89.9" y2="107.6" xlink:href="#ae" gradientUnits="userSpaceOnUse" gradientTransform="matrix(.4 0 0 .4 8.5 -1.7)"/>
    <linearGradient id="bo" x1="-601.5" x2="-574.6" y1="629" y2="680.4" xlink:href="#af" gradientUnits="userSpaceOnUse" gradientTransform="matrix(.4 0 0 .4 186.4 -235)"/>
  </defs>
  <clipPath id="ap">
    <use width="132.72" height="127.22" xlink:href="#ag"/>
  </clipPath>
  <linearGradient id="h" x1="76.4" x2="93.2" y1="16.6" y2="18" gradientUnits="userSpaceOnUse">
    <stop offset="0" stop-color="#0f80bc"/>
    <stop offset=".3" stop-color="#0a5f9e"/>
    <stop offset="1" stop-color="#00145a"/>
  </linearGradient>
  <linearGradient id="i" x1="38.5" x2="29.2" y1="19.1" y2="32.8" gradientUnits="userSpaceOnUse">
    <stop offset="0" stop-color="#0f80bc"/>
    <stop offset=".3" stop-color="#0a5f9e"/>
    <stop offset="1" stop-color="#00145a"/>
  </linearGradient>
  <linearGradient id="j" x1="62.7" x2="62.7" y1="34.5" y2="11.9" gradientUnits="userSpaceOnUse">
    <stop offset="0" stop-opacity="0"/>
    <stop offset=".7" stop-color="#c4e0e3" stop-opacity=".2"/>
    <stop offset=".8" stop-color="#c4e0e3"/>
    <stop offset=".8" stop-color="#cde5e8"/>
    <stop offset=".9" stop-color="#e8f4f7"/>
    <stop offset="1" stop-color="#f2fafc"/>
  </linearGradient>
  <filter id="as" width="1.5" height="1.5" x="-.25" y="-.25" color-interpolation-filters="sRGB">
    <feGaussianBlur result="blur" stdDeviation="1.5" in="SourceAlpha"/>
    <feOffset result="shift" in="blur" dy="1" dx="1"/>
    <feMerge>
      <feMergeNode in="shift"/>
      <feMergeNode in="SourceGraphic"/>
    </feMerge>
  </filter>
  <linearGradient id="U" x1="88.3" x2="117.3" y1="117.4" y2="72.7" gradientUnits="userSpaceOnUse" gradientTransform="matrix(.4 0 0 .4 3.3 .5)">
    <stop offset="0" stop-color="#de5c01"/>
    <stop offset=".7" stop-color="#fefd00"/>
    <stop offset=".8" stop-color="#fefe26"/>
    <stop offset=".8" stop-color="#fffe54"/>
    <stop offset=".9" stop-color="#ffff76"/>
    <stop offset=".9" stop-color="#ffff8b"/>
    <stop offset="1" stop-color="#ffff92"/>
  </linearGradient>
  <linearGradient id="V" x1="105.2" x2="86.2" y1="22.7" y2="14.4" gradientUnits="userSpaceOnUse" gradientTransform="matrix(.4 0 0 .4 3.3 .5)">
    <stop offset="0" stop-color="#f79a09"/>
    <stop offset=".7" stop-color="#fefd00"/>
    <stop offset=".8" stop-color="#fefe26"/>
    <stop offset=".8" stop-color="#fffe54"/>
    <stop offset=".9" stop-color="#ffff76"/>
    <stop offset=".9" stop-color="#ffff8b"/>
    <stop offset="1" stop-color="#ffff92"/>
  </linearGradient>
  <linearGradient id="W" x1="117.9" x2="91.4" y1="41.7" y2="17.1" gradientUnits="userSpaceOnUse" gradientTransform="matrix(.4 0 0 .4 3.3 .5)">
    <stop offset="0" stop-color="#de5c01"/>
    <stop offset=".7" stop-color="#fefd00"/>
    <stop offset=".8" stop-color="#fefe26"/>
    <stop offset=".8" stop-color="#fffe54"/>
    <stop offset=".9" stop-color="#ffff76"/>
    <stop offset=".9" stop-color="#ffff8b"/>
    <stop offset="1" stop-color="#ffff92"/>
  </linearGradient>
  <linearGradient id="X" x1="1.1" x2="-10" y1="145.4" y2="134" gradientUnits="userSpaceOnUse" gradientTransform="matrix(.4 0 0 .4 41.2 -37.3)">
    <stop offset="0" stop-color="#f79a09"/>
    <stop offset=".7" stop-color="#fefd00"/>
    <stop offset=".8" stop-color="#fefe26"/>
    <stop offset=".8" stop-color="#fffe54"/>
    <stop offset=".9" stop-color="#ffff76"/>
    <stop offset=".9" stop-color="#ffff8b"/>
    <stop offset="1" stop-color="#ffff92"/>
  </linearGradient>
  <linearGradient id="Y" x1="113.4" x2="119.7" y1="55.8" y2="34.3" gradientUnits="userSpaceOnUse" gradientTransform="matrix(.4 0 0 .4 3.3 .5)">
    <stop offset="0" stop-color="#f79a09"/>
    <stop offset=".7" stop-color="#fefd00"/>
    <stop offset=".8" stop-color="#fefe26"/>
    <stop offset=".8" stop-color="#fffe54"/>
    <stop offset=".9" stop-color="#ffff76"/>
    <stop offset=".9" stop-color="#ffff8b"/>
    <stop offset="1" stop-color="#ffff92"/>
  </linearGradient>
  <linearGradient id="Z" x1="-52" x2="-52.2" y1="212.8" y2="196.4" gradientUnits="userSpaceOnUse" gradientTransform="matrix(.4 0 0 .4 58.7 -55.6)">
    <stop offset="0" stop-color="#f79a09"/>
    <stop offset=".7" stop-color="#fefd00"/>
    <stop offset=".8" stop-color="#fefe26"/>
    <stop offset=".8" stop-color="#fffe54"/>
    <stop offset=".9" stop-color="#ffff76"/>
    <stop offset=".9" stop-color="#ffff8b"/>
    <stop offset="1" stop-color="#ffff92"/>
  </linearGradient>
  <linearGradient id="aa" x1="-172.7" x2="-161.5" y1="332.1" y2="309.9" gradientUnits="userSpaceOnUse" gradientTransform="matrix(.4 0 0 .4 96.1 -97.4)">
    <stop offset="0" stop-color="#f79a09"/>
    <stop offset=".7" stop-color="#fefd00"/>
    <stop offset=".8" stop-color="#fefe26"/>
    <stop offset=".8" stop-color="#fffe54"/>
    <stop offset=".9" stop-color="#ffff76"/>
    <stop offset=".9" stop-color="#ffff8b"/>
    <stop offset="1" stop-color="#ffff92"/>
  </linearGradient>
  <linearGradient id="ab" x1="99.2" x2="100.7" y1="87.7" y2="63.2" gradientUnits="userSpaceOnUse" gradientTransform="matrix(.4 0 0 .4 -.7 5.5)">
    <stop offset="0" stop-color="#de5c01"/>
    <stop offset=".7" stop-color="#fefd00"/>
    <stop offset=".8" stop-color="#fefe26"/>
    <stop offset=".8" stop-color="#fffe54"/>
    <stop offset=".9" stop-color="#ffff76"/>
    <stop offset=".9" stop-color="#ffff8b"/>
    <stop offset="1" stop-color="#ffff92"/>
  </linearGradient>
  <linearGradient id="ac" x1="58.4" x2="105.9" y1="113.9" y2="85.5" gradientUnits="userSpaceOnUse" gradientTransform="matrix(.4 0 0 .4 3.3 .5)">
    <stop offset="0" stop-color="#b9120d"/>
    <stop offset=".1" stop-color="#bb180d"/>
    <stop offset=".2" stop-color="#c0290c"/>
    <stop offset=".3" stop-color="#c8450a"/>
    <stop offset=".4" stop-color="#d36c08"/>
    <stop offset=".6" stop-color="#e29e05"/>
    <stop offset=".7" stop-color="#f4da02"/>
    <stop offset=".8" stop-color="#fefd00"/>
    <stop offset=".8" stop-color="#fefd07"/>
    <stop offset=".8" stop-color="#fefd1b"/>
    <stop offset=".9" stop-color="#fefe3c"/>
    <stop offset=".9" stop-color="#fffe69"/>
    <stop offset="1" stop-color="#ffffa3"/>
    <stop offset="1" stop-color="#ffffc7"/>
  </linearGradient>
  <linearGradient id="ad" x1="54.2" x2="102.9" y1="93.6" y2="100.2" gradientUnits="userSpaceOnUse" gradientTransform="matrix(.4 0 0 .4 7.1 -1.8)">
    <stop offset=".1" stop-color="#de7210"/>
    <stop offset="1" stop-color="#f6c08f"/>
  </linearGradient>
  <linearGradient id="ae" x1="39" x2="95.5" y1="89.9" y2="107.6" gradientUnits="userSpaceOnUse" gradientTransform="matrix(.4 0 0 .4 8.5 -1.7)">
    <stop offset=".1" stop-color="#de7210"/>
    <stop offset="1" stop-color="#f6c08f"/>
  </linearGradient>
  <linearGradient id="af" x1="-601.5" x2="-574.6" y1="629" y2="680.4" gradientUnits="userSpaceOnUse" gradientTransform="matrix(.4 0 0 .4 186.4 -235)">
    <stop offset=".1" stop-color="#de7210"/>
    <stop offset="1" stop-color="#f6c08f"/>
  </linearGradient>
  <ellipse cx="63.8" cy="59.4" fill="#110070" rx="59.3" ry="59.4" transform="matrix(.4 0 0 .4 3.3 .5)"/>
  <ellipse cx="63.8" cy="59.4" fill="url(#ah)" rx="58.2" ry="58.3" transform="matrix(.4 0 0 .4 3.3 .5)"/>
  <path fill="url(#ai)" d="M23.53 33.04c0-.1-.36-.44-.54-.5-.4-.08-.8.35-.8-.38-.8.3-.8 0-.8 0s-.8 0-.8.6c-.4.28-1.1 1.3-.8.24.3-1.1-.4-.07-.4.44-.4.25-.4.3-.4-.8-.7-.15-.7-1.1-.7-1.17-.4-.36 0-.73 0-.73l.7-.36v-.73s.4-1.1.4-.36c0 .7.4 0 .4-.4v-.8c-.4-1.1 0-1.1 0-.4.3 0 .3.3.3.3.3 0 .7.3.7.3.4-.4.7 0 .7 0s.2 0 0 .7c0 .7.7.3.5 0 .3 0 .8.3 1.1.7.2.3-.4 1.1 0 1.1.3.3.1 1.1.1 1.1s1.1.3.4.7v.4s.3.3.7.3c.2-.1.2.3.2.3s.1.6.6.7c.4 0 .7.9.3 1-.6 0-.6 0-.8.3-.1.4-.9.4-1.2 0-.4.2-1.1 0-1-.4-.4.2-.8-.4-.4-.5.1-.4-.4-.6-.4-.4-.2.3-1 .7-.74 0 0 0 .35-.4.35 0 0 .2 0 0 0 0z"/>
  <path fill="url(#aj)" d="M41.06 16.5c.1.07.36.07.47 0 .1 0 .1-.1.22-.15.1 0 .5.18.37.58-.22 0-.3.37-.3.37s-.25.07-.36 0h-.36c-.1 0-.55-.22-.1-.22.46 0 0-.22-.23-.22-.22 0 0-.18.18-.15-.14-.2-.07-.4.1-.2z"/>
  <path fill="url(#ak)" d="M39.5 17.4c-.12.15 0 .52.18.48l.36-.07s.15.3 0 .3c-.1.1-.44.1 0 .3.47.2.62.2.66 0 0 0 .18-.3.25-.3.07-.1-.22-.2 0-.3.1-.1 0-.5 0-.5s-.25 0-.36.2c-.2.2-.3 0-.4 0l-.1.2-.1-.2s-.5 0-.6.1z"/>
  <path fill="url(#al)" d="M36.2 17.7s.12-.22.1 0c-.1.18.35.36.53.14.37-.62-.73-.9-1.1-.62-.35.3-.72-.36-.35-.43.36-.1.36-.9 0-.9.36-.2-.37-.9-.73-1-.37-.7-1.1-1.1-1.46-.9-.4.2-.4.1-1.1-.2-.8-.4-1.1.7-.4 1.1.3.4 0 1.2 0 1.1l-.4.3c-.8.1-.8-.5-1.1-.7l-.7.4v-.6s-1.5-.8-1.9-.6c-.8.2-.8 1.5-.4 1.6.4 0-.7.3.4 1.8 1.1 1.1 1.8 1.1 1.8 1.1l.4-.4c.3.4-.7.8-.7 1.5 0 .4 0 1.8.7 1.8.1-.8 1.2-.4.7 0-.5.3-.2.7-.2.7s0 1.1.9.7c-.3 0-.8-.4-1 .4 0 .3-1-.4-1.5 0-.7.3-1.5 1.1-1.1 1.4.4-.4.7.7 0 .7-.7-.4-.7 0-.7 0s-.8.7 0 1.1c-.4 0-.8.4-.8 1.1 0 0-.4 0-.4.7-1.1 0-1.1.4.3 0-.7.4.4.4 1 .4.3-.2 1.8.4.7.4-1 0-.7.3.5.3s1.1.36 1.2.36c.2 0 1.1.7.8 1.1 0 .3.8.5 1.3.2 0 .3 1.4 0 1.8-.6 1.5.33 1.5 0 1.1-.1-.7-.1-2.2-1.1-.7-.6 1.4.36 0-.36-.4-.7-1-.37-1.1-1.1-1.1-1.1s.6-.37.2-1.1c.8-.3.3-.6.3-.7 0-.4.5-.75.7-.75 0 0 .2 0 0 0-.3 0-.1.48.1.5.7.2.7-.9 0-1.1-.5-.34 0-.8.4-.34.3.3 1.1-.1.7-.8.5.4.7-.7.6-1.2.7-.5.6-1.5 0-1.82 0 0-.4-.1-.4-.33.3 0 .7-.1.7 0 .4.24 1.1-.34 1.1-1.1.4.25.7-1.06.4-1.64.7-1.1.6-1.4.4-1.1-.6.5-1.9 1.2-.8.2 1.1-1.1-.4-.34-.8-.3-.6.77-1.1.4-1.1.4s0-.6-.7-.6c.4-.83-.28-.5-.4-.7-.2-.4-.37-.86-.2-1.1z"/>
  <path fill="url(#am)" d="M25.2 9.03c-.14.36.45.9.74.72l.65-.54s.4.4.2.7c-.2.2-.9.5.1.4.7 0 1.1-.3 1.1-.5v-1c0-.3-.8-.3-.8-.7 0-.3-.4-.9-.4-.9s-.4.3-.8.8c0 .4-.7.2-.7.2v.4l-.4-.4s-1.1.4-1.1.7z"/>
  <path fill="url(#an)" d="M26.9 27.06c-.12.1 0 .48.17.48l.73-.1s.36.24 0 .35c0 0-.37 0 0 .1.73.1.73.1.73 0s.36-.4.36-.4c.3-.2 0-.3 0-.4.3-.1 0-.5 0-.5l-.4.3c0 .3 0 0-.4 0v.3s-.4 0-.4.3z"/>
  <path fill="url(#ao)" d="M65 1c-1 .2.7 3.5.7 3.5s0 2.2.3 2.3c.4 0 2.8.8 4 2.4 1.4 1.6.8 2.4-.3 2-1-.5-.8 1-.8 1s3 1 0 1 1 1.7 1 2c-1 0-1 1-1 1s-2 .3-1 1c6 2.7-1 2-1 2l-1 1 1 2.3 1 1 3-1.2c1 0 3-1.8 3-1.8s1 .5 0-.5 1.5-.5 2 .2l4 2c.3 0 .4 0 .5.2 1 .6-.7 1.6-.6 2.6.2 1 1 2.7 2.2 2.5-.8-1 1.2-1 1 0-.2 1 0 1 0 1s0 1.6 2 .8c0 .4 0 1.4 1 1.4 0 0-.4.5.6 1 0 1.6.3 1.7 1-1 0 1.2 1-.4 1-1.2 0-.8 1.2-2.5 1-1-1 1.5 4.2 2 5 .3.2-2 2.2-2.8 2.3-3 0-.4-4.5-.8-4-.6.5.2 1.5-1 1-2 1 .2 1-2.3 0-3 1-2.3 1-2.4 0-2 0 1.3-2.7 3-1 1 1.5-2.4-.7-.4-1.5 0-.7 1.4-2 1.2-2 1.2s0-1-1.4-.6c0-1.6 0-1-1-1.2l-.2-1c1 .5 2 1 2 0 0-.4 2 .8 2 .5h3l3-2C85 1 65 1 65 1z" transform="matrix(.4 0 0 .4 3.3 .5)" clip-path="url(#ap)"/>
  <path fill="url(#aq)" d="M38.8 6c-10.6 5-18.6 14.7-18.6 14.7s1 2.2 1.3 2c.3 0-2.4 5.6-.4 6 2 .3 8-3.6 7-3.3-1 .4 1-2 1-2s3-1.4 1 0c-2 1.6 2 .3 2 .6l1 1s-1 1.6 1 1c6-2 1 1.8 1 1.8V29l3 .5h1l2-3.2c1-.7 1-3.3 1-3.3s1 0 0-.5c-1-.4 1-1.6 2-1.4l4-1h1c1 0 1 2 2 3s3 2 3 1c0 0 1-2 1-1 0 2 1 1 1 1l2-4s3-3 2-5 1-3 1-3c-1 0-1 1-1 0 0 0-2 1-2-2s-1 0-1 1c1 2 5-6 5-6l5-2S52 0 39 6z" transform="matrix(.4 0 0 .4 3.3 .5)" clip-path="url(#ap)"/>
  <ellipse cx="62.7" cy="23.3" fill="url(#ar)" rx="30.8" ry="20" transform="matrix(.4 0 0 .4 3.3 .5)" opacity=".5"/>
  <g transform="matrix(.4 0 0 .4 3.3 .5)" filter="url(#as)">
    <linearGradient id="k" x1="64.5" x2="78.5" y1="56.3" y2="48.1" gradientUnits="userSpaceOnUse">
      <stop offset="0" stop-color="#df731b"/>
      <stop offset=".5" stop-color="#df731b"/>
      <stop offset=".7" stop-color="#ec8811"/>
      <stop offset=".9" stop-color="#f4950b"/>
      <stop offset="1" stop-color="#f79a09"/>
    </linearGradient>
    <path fill="url(#at)" d="M125.3 43l-1.4 9.2s-2-17-5-23.2c-4-9.7-6-9.7-6-9.7 2 6.6 2 10 2 10S111 17 99 13c-14-4.6-21-3-21-3 0 .2 14.6 2.7 17.2 6.3 0 0-6.2 0-12.4 1.7-.3 0 22.8 3 27.5 26 0 0-2.5-5.3-5.6-6.2 2 6.3 1.5 18-.5 24-.2.8-.5-3.2-4.3-5 1 9-1 23-7 26.8-1 .3 4-14 1-8.4-18 27.3-39 11-48 5.3C54 82 61 81 65 78c4.3-3 6.8-5 9-4.5s4-1.8 2-3.8c-1.7-2-6-4.8-11.7-3.3-4 1-9.2 5.6-17 1-6.5-4-6.5-7-6.5-9s2-5.2 5-4.7 1.7-1.3 4.8 0c1 .4 0-4-1.3-7 2.4-5 10-6.4 10.6-6.8 1-1 0-2 1-3 0-1 0-4-8-4-4 0-7-5-8-6 0-2 0-3 1-5 0-2 1-3 1-3v-1c1-2 3-3 4-4s-11 0-16 7h-5c-3 0-5 0-7 1h-1c-2-2-7-7-7-13 0 0-7 6-6 21 0 8-3 6-4 11-1 2 1 4 1 4l2-2s-11 20 3 45c14 23 35 32 57 30 4 0 7-1 11-2 51-12 45-74 45-74z"/>
    <linearGradient id="l" x1="41.8" x2="52.7" y1="37" y2="37.9" gradientUnits="userSpaceOnUse">
      <stop offset="0" stop-color="#941403"/>
      <stop offset=".9" stop-color="#e85c0a"/>
    </linearGradient>
    <path fill="url(#au)" d="M45.5 27.6s2.2 6 7 6c9.6 0 9.8 0 9.8 1.3.2 3-1.5 4-2.2 5 0 0-9 5-10 7 0 1-10-14-10-14l6-6z"/>
    <linearGradient id="m" x1="24.5" x2="63.6" y1="34" y2="38.9" gradientUnits="userSpaceOnUse">
      <stop offset="0" stop-color="#941403"/>
      <stop offset=".1" stop-color="#a32104"/>
      <stop offset=".5" stop-color="#c84107"/>
      <stop offset=".8" stop-color="#df5509"/>
      <stop offset="1" stop-color="#e85c0a"/>
    </linearGradient>
    <path fill="url(#av)" d="M50.5 34s3 4 .8 5.6c-3 2 4 2.3 6.4 1 2.4-1.3 4-3.5 4-3.8 0-.3 1-3-4-2-3.4.5-4.6.7-7.2-.7z"/>
    <linearGradient id="n" x1="48.7" x2="51.9" y1="44.3" y2="42.9" gradientUnits="userSpaceOnUse">
      <stop offset="0" stop-color="#f2c8a9"/>
      <stop offset="1" stop-color="#ffc"/>
    </linearGradient>
    <path fill="url(#aw)" d="M60 40c.6-.4 1.8-1 2.2-3-.3 0-.4-.2-.7 0-7 7.2-7.2 2-11 3-3.5 1-4.3 2.4-4.4 2.5 0 0 1 0 1 .2 1 .5 2 2 3 3.6 1 .8 1 1.2 1 1 1-1.6 10-6.8 10-7.3z"/>
    <linearGradient id="o" x1="38.8" x2="91.3" y1="82.6" y2="84.7" gradientUnits="userSpaceOnUse">
      <stop offset="0" stop-color="#b30000"/>
      <stop offset="1" stop-color="#df731b"/>
    </linearGradient>
    <path fill="url(#ax)" d="M8.2 45.8c-1.4 3-10.6 18.4 4.3 44C27 114.8 52.3 123 78 117.5c7.3-1.6 15.8-7.3 21.2-11.5-3.5-8.8-1.4-8.5-3.3-7.3-21 12.8-38 .2-50-1.5-47-6-38-51.5-38-51.5z"/>
    <linearGradient id="p" x1="51.3" x2="78.7" y1="74.4" y2="84.2" gradientUnits="userSpaceOnUse">
      <stop offset="0" stop-color="#941403"/>
      <stop offset="1" stop-color="#df731b"/>
    </linearGradient>
    <path fill="url(#ay)" d="M47.2 81c4.4 1.3 14 0 18.2-3 2.8-2 5-3.6 6.7-4.3-3-2-3 1-9 2.5-13 3-20-3.7-20-3.7 1 5.4 5 8 6 9l-1-.5z"/>
    <linearGradient id="q" x1="6.1" x2="32.8" y1="87.1" y2="87.1" gradientUnits="userSpaceOnUse" gradientTransform="rotate(2.8 27.6 95.6)">
      <stop offset=".1" stop-color="#b30000"/>
      <stop offset="1" stop-color="#de5c01"/>
    </linearGradient>
    <path fill="url(#az)" d="M32.3 105.8S21 92.8 17.7 78.5c-4.7-4.5-8-8.2-10.2-11 1.2 10.3 6.5 26.3 24.8 38.3z"/>
    <linearGradient id="r" x1="209.7" x2="224.3" y1="-130.7" y2="-85.6" gradientUnits="userSpaceOnUse" gradientTransform="rotate(6.8 -1627.4 -1650.2)">
      <stop offset=".1" stop-color="#de7210"/>
      <stop offset="1" stop-color="#f6c08f"/>
    </linearGradient>
    <path fill="url(#aA)" d="M22.8 94s-8-11-5-20.7c2.7-8.6-.5-3.5-2.4-1.6-2 1.8-2.8-5.5-2.8-6.3 0 0-3.7 17.5 10.2 28.7z"/>
    <linearGradient id="s" x1="12.5" x2="12.5" y1="61.1" y2="111.5" gradientUnits="userSpaceOnUse" gradientTransform="rotate(2.6 17.2 71.8)">
      <stop offset=".1" stop-color="#de7210"/>
      <stop offset="1" stop-color="#f6c08f"/>
    </linearGradient>
    <path fill="url(#aB)" d="M11 84.3s-1.7-22.8 4-26c9-5 .8-4-2-2.5-2.5 1.4-2.3-8-2-9 .5-.8-9.2 9 0 37.5z"/>
    <path fill="#a40000" d="M50.6 17.2l-7 7.3s0 9.3.3 12c0 1 3 7.6 1 6-2-1.4-1-1.4-1-.7 0 0-6-11 5-24.6z"/>
    <linearGradient id="t" x1="18.3" x2="12.9" y1="30.8" y2="16.8" gradientUnits="userSpaceOnUse">
      <stop offset="0" stop-color="#941403"/>
      <stop offset=".5" stop-color="#e85c0a"/>
      <stop offset="1" stop-color="#f9bd5f"/>
    </linearGradient>
    <path fill="url(#aC)" d="M16.6 11.6s-7.6 6-6 22c5.7-5.4 14-9.4 14-9.4-1.3-.8-7.7-6-8-12.6z"/>
    <linearGradient id="u" x1="41.7" x2="54.8" y1="34.1" y2="16.9" gradientUnits="userSpaceOnUse">
      <stop offset=".2" stop-color="#de7210"/>
      <stop offset=".8" stop-color="#f9bd5f"/>
      <stop offset="1" stop-color="#fffccf"/>
    </linearGradient>
    <path fill="url(#aD)" d="M35.3 29l11.4 14.3C43.4 29.3 46 21 54 16.5c1.3-.7-17 .2-18.7 12.6z"/>
    <linearGradient id="v" x1="34.8" x2="48.1" y1="57.5" y2="84.1" gradientUnits="userSpaceOnUse">
      <stop offset="0" stop-color="#941403"/>
      <stop offset=".5" stop-color="#e35100"/>
      <stop offset="1" stop-color="#df731b"/>
    </linearGradient>
    <path fill="url(#aE)" d="M27.3 64.2c2-12.3 19-10.5 19-10.5-.8.6-3.7 1-4.5 3.3-2.8 7.7-.2 24.5 17 31.6 2 .8-34.4-6.3-31.5-24.4z"/>
    <linearGradient id="w" x1="54.8" x2="58.1" y1="41.3" y2="44.3" gradientUnits="userSpaceOnUse">
      <stop offset="0" stop-color="#eea272"/>
      <stop offset=".2" stop-color="#efa777"/>
      <stop offset=".4" stop-color="#f2b585"/>
      <stop offset=".6" stop-color="#f6cd9c"/>
      <stop offset=".9" stop-color="#fceebb"/>
      <stop offset="1" stop-color="#ffc"/>
    </linearGradient>
    <path fill="url(#aF)" d="M62 37.3c-.3.4-1 1.3-3 3-3.6 2.8-5.2 2-7.8 2.7-1.2.2-2.4 1-3.2 1.7l1 1.6c.6.8 1 1.2 1 1 .5-1.6 9.5-6.8 10-7.3.6-.3 1.6-1 2-2.7z"/>
    <linearGradient id="x" x1="35.5" x2="50.7" y1="48.4" y2="63.9" gradientUnits="userSpaceOnUse">
      <stop offset=".2" stop-color="#df731b"/>
      <stop offset=".8" stop-color="#f9bd5f"/>
      <stop offset="1" stop-color="#fffccf"/>
    </linearGradient>
    <path fill="url(#aG)" d="M51 56c.2-2.7 0-9-2.7-11.7-2-2-2.5-4.5-2.8-7.2C23 46 20 57 22.2 56c18-3 23-3.2 29 0z"/>
    <linearGradient id="y" x1="847.5" x2="847.5" y1="-1065" y2="-1008" gradientUnits="userSpaceOnUse" gradientTransform="rotate(14.7 -3854 -3747.1)">
      <stop offset=".1" stop-color="#de7210"/>
      <stop offset="1" stop-color="#f6c08f"/>
    </linearGradient>
    <path fill="url(#aH)" d="M3.4 71.2S5 51 15 43.6c8-5.8 2-3.6-1-3.6-3.3.4-5 2.4-4.4 1.6 0 0-7.5 6-6 29.6z"/>
    <linearGradient id="z" x1="15.9" x2="-3.4" y1="36.4" y2="67.8" gradientUnits="userSpaceOnUse" gradientTransform="matrix(1 -.1 .1 1.2 -3.8 -4.9)">
      <stop offset=".1" stop-color="#de7210"/>
      <stop offset="1" stop-color="#f2c06e"/>
    </linearGradient>
    <path fill="url(#aI)" d="M2.3 55.7s5.5-17.2 16.4-17c7.3 0 1.5-6.2-.7-7.2-2.3-1-2.8-1-3.4-.4-.8 1-8 1-12.3 25z"/>
    <linearGradient id="A" x1="80.9" x2="60.4" y1="67.8" y2="71.8" gradientUnits="userSpaceOnUse">
      <stop offset="0" stop-color="#fffaee"/>
      <stop offset=".3" stop-color="#f5f89b"/>
      <stop offset=".3" stop-color="#f3ed91"/>
      <stop offset=".5" stop-color="#ecc267"/>
      <stop offset=".6" stop-color="#e6a046"/>
      <stop offset=".8" stop-color="#e2872e"/>
      <stop offset=".9" stop-color="#e07820"/>
      <stop offset="1" stop-color="#df731b"/>
    </linearGradient>
    <path fill="url(#aJ)" d="M76.2 72.5c.8-.8.2-4-5-5.8-4.6-1.7-12 2.6-14 3.5 0 0 8.2-1.6 11.3-1 4.2.7 5.7 5.3 7.7 3.3z"/>
    <linearGradient id="B" x1="-411.3" x2="-411.3" y1="427.6" y2="475.3" gradientUnits="userSpaceOnUse" gradientTransform="rotate(7.3 2864.4 3601.5)">
      <stop offset=".1" stop-color="#de7210"/>
      <stop offset="1" stop-color="#f2c06e"/>
    </linearGradient>
    <path fill="url(#aK)" d="M10.3 66.8s-1-17 6.7-24c6-5.8 1-3.4-1.4-2.8-2.7.5-4 2.4-3.5 1.7h1c0-.2-5 6-2 25z"/>
    <linearGradient id="C" x1="-414.4" x2="-414.4" y1="422.7" y2="470.4" gradientUnits="userSpaceOnUse" gradientTransform="rotate(21.2 832.2 1379)">
      <stop offset=".1" stop-color="#de7210"/>
      <stop offset="1" stop-color="#f2c06e"/>
    </linearGradient>
    <path fill="url(#aL)" d="M4.5 61.5s3.2-16.7 12.3-21.8c7-4 1.8-3-.7-3s-4 1.3-3 .8c0-.2-7 4.3-8 24z"/>
    <linearGradient id="D" x1="13.8" x2=".6" y1="55.8" y2="75.7" gradientUnits="userSpaceOnUse" gradientTransform="rotate(-35.9 17.1 54.3)">
      <stop offset=".1" stop-color="#de7210"/>
      <stop offset="1" stop-color="#f2c072"/>
    </linearGradient>
    <path fill="url(#aM)" d="M15.3 68.3s-1.7-10 2-15c3-4 .4-2-1-1.5-1.5.6-2 1.8-1.8 1.3.2 0-6.5 5 .8 16z"/>
    <linearGradient id="E" x1="21" x2="7.8" y1="49.3" y2="69.2" gradientUnits="userSpaceOnUse" gradientTransform="rotate(-35.9 17.1 54.3)">
      <stop offset=".1" stop-color="#de7210"/>
      <stop offset="1" stop-color="#f2c072"/>
    </linearGradient>
    <path fill="url(#aN)" d="M17.3 58.8s-1.7-10 2-15c3-4 .4-2-1-1.5-1.5.6-2 1.8-1.8 1.3.2-.4-6.5 4.8.8 15.2z"/>
    <linearGradient id="F" x1="12.3" x2="6.5" y1="37.9" y2="48.7" gradientUnits="userSpaceOnUse">
      <stop offset=".1" stop-color="#de7210"/>
      <stop offset="1" stop-color="#eed8a5"/>
    </linearGradient>
    <path fill="url(#aO)" d="M6.7 45s4-8.4 9.5-10c4.4-1.3 1.4-1.3 0-1.6-1.3-.4-2.4.2-2 0 .4-.2-7.3 0-7.5 11.6z"/>
    <linearGradient id="G" x1="11.7" x2="5.9" y1="44.5" y2="55.3" gradientUnits="userSpaceOnUse">
      <stop offset=".1" stop-color="#de7210"/>
      <stop offset="1" stop-color="#eed8a5"/>
    </linearGradient>
    <path fill="url(#aP)" d="M6 51.6s4.2-8.3 9.7-10c4.3-1.3 1.3-1.3 0-1.6-1.4-.4-2.5.2-2 0 .3-.2-7.4 0-7.6 11.6z"/>
    <linearGradient id="H" x1="18.3" x2="12.7" y1="39.9" y2="53.8" gradientUnits="userSpaceOnUse">
      <stop offset=".1" stop-color="#de7210"/>
      <stop offset="1" stop-color="#f2c072"/>
    </linearGradient>
    <path fill="url(#aQ)" d="M9 49.8S16.4 35 26 32c7.6-2.2 2.3-2.2 0-2.7-2.5-.6-4.4.4-3.7 0 .7-.4-13 0-13.2 20.5z"/>
    <linearGradient id="I" x1="20.4" x2="7.2" y1="33.1" y2="53" gradientUnits="userSpaceOnUse">
      <stop offset=".1" stop-color="#de7210"/>
      <stop offset="1" stop-color="#f2c072"/>
    </linearGradient>
    <path fill="url(#aR)" d="M14 41.8s4.5-9 10.5-11c4.7-1.4 1.5-1.4 0-1.7-1.5 0-2.7 1-2.3 0 .4 0-8 0-8.2 13z"/>
    <linearGradient id="J" x1="21.3" x2="9.2" y1="37.1" y2="55.3" gradientUnits="userSpaceOnUse">
      <stop offset=".1" stop-color="#de7210"/>
      <stop offset="1" stop-color="#f2c072"/>
    </linearGradient>
    <path fill="url(#aS)" d="M15.5 45s4-8.3 9.5-10c4.4-1.2 1.4-1.2 0-1.6-1.4-.3-2.4.3-2 0 .3 0-7.4 0-7.5 11.7z"/>
    <linearGradient id="K" x1="60.3" x2="61.2" y1="34.3" y2="36" gradientUnits="userSpaceOnUse">
      <stop offset="0" stop-color="#8b8b89"/>
      <stop offset="1" stop-color="#120500"/>
    </linearGradient>
    <path fill="url(#aT)" d="M62.3 35c0-1 0-1.3-4.3-1.4.5.3 1.3.7 2.2 1.4 1.2 1 1.4 2 1.5 3.3.4-.8.7-2 .6-3.4z"/>
    <linearGradient id="L" x1="22.6" x2="22.6" y1="28.5" y2="23.2" gradientUnits="userSpaceOnUse">
      <stop offset=".1" stop-color="#de7210"/>
      <stop offset="1" stop-color="#f6c08f"/>
    </linearGradient>
    <path fill="url(#aU)" d="M37.8 23.2L34.2 29s-14.5-2.2-26.8 9.7c-1 1 8-21 30.4-15.5z"/>
    <linearGradient id="M" x1="23" x2="34" y1="34.8" y2="21.9" gradientUnits="userSpaceOnUse" gradientTransform="rotate(2.3 34 24.3)">
      <stop offset=".1" stop-color="#de7210"/>
      <stop offset="1" stop-color="#f6c08f"/>
    </linearGradient>
    <path fill="url(#aV)" d="M24.8 33.6s3.8-7 9-9.3c-2.7 0-8.5 2-9 9.3z"/>
    <linearGradient id="N" x1="15.5" x2="9.7" y1="33.5" y2="44.4" gradientUnits="userSpaceOnUse">
      <stop offset=".1" stop-color="#de7210"/>
      <stop offset="1" stop-color="#eed8a5"/>
    </linearGradient>
    <path fill="url(#aW)" d="M10 40.6s4-8.3 9.4-10c4.4-1.3 1.4-1.3 0-1.6-1.3-.3-2.4.2-2 0 .4-.2-7.3 0-7.5 11.6z"/>
    <linearGradient id="O" x1="16.3" x2="27.1" y1="35.8" y2="23.3" gradientUnits="userSpaceOnUse" gradientTransform="rotate(6 21.6 35.3)">
      <stop offset=".1" stop-color="#de7210"/>
      <stop offset="1" stop-color="#f6c08f"/>
    </linearGradient>
    <path fill="url(#aX)" d="M18.5 34.7s4.2-6.7 9.2-8.5c-2.5 0-8.3 1.5-9.2 8.5z"/>
    <linearGradient id="P" x1="13.4" x2="26.3" y1="22.9" y2="24.6" gradientUnits="userSpaceOnUse" gradientTransform="rotate(5.2 27.1 24.7)">
      <stop offset=".1" stop-color="#de7210"/>
      <stop offset="1" stop-color="#f6c08f"/>
    </linearGradient>
    <path fill="url(#aY)" d="M25.7 23.2s-3.2 1.4-8.8-1l5 2.6 3-1.6z"/>
    <linearGradient id="Q" x1="7" x2="25.2" y1="23.1" y2="25.6" gradientUnits="userSpaceOnUse">
      <stop offset=".1" stop-color="#de7210"/>
      <stop offset="1" stop-color="#f6c08f"/>
    </linearGradient>
    <path fill="url(#aZ)" d="M24.2 24s-4.3 1.7-12.4-.7l7 2.8 5.4-2z"/>
    <linearGradient id="R" x1="15.9" x2="27.7" y1="22.2" y2="23.9" gradientUnits="userSpaceOnUse" gradientTransform="rotate(5.2 27.1 24.7)">
      <stop offset=".1" stop-color="#de7210"/>
      <stop offset="1" stop-color="#f6c08f"/>
    </linearGradient>
    <path fill="url(#ba)" d="M27.3 22.8s-2.8.8-8-1.2l5 2.5 3-1z"/>
    <linearGradient id="S" x1="15.2" x2="4.5" y1="26.9" y2="25.8" gradientUnits="userSpaceOnUse">
      <stop offset=".1" stop-color="#de7210"/>
      <stop offset="1" stop-color="#f6c08f"/>
    </linearGradient>
    <path fill="url(#bb)" d="M18.5 26s-2 1.7-7.4 1.8h5l3-1.8z"/>
    <linearGradient id="T" x1="10.9" x2="25.7" y1="37.1" y2="19.8" gradientUnits="userSpaceOnUse" gradientTransform="rotate(6 21.6 35.3)">
      <stop offset=".1" stop-color="#de7210"/>
      <stop offset="1" stop-color="#f6c08f"/>
    </linearGradient>
    <path fill="url(#bc)" d="M13.4 35s7.2-9.4 13-11.6c-3 0-12 3.2-13 11.5z"/>
  </g>
  <path fill="url(#bd)" d="M48.6 18.97s.3 6.27-8.45 15.02c-.98.9-6.27 5.9-6.1 7.4.1.5 13.86-2.1 14.6-22.5z"/>
  <path fill="url(#be)" d="M31.62 4.1c10.57.84 12.6 8.4 12.6 7.95 0-7.36-10-7.9-12.6-7.9z"/>
  <path fill="url(#bf)" d="M34.83 7.02s7.3 1.46 9.4 9.26c.26 1.02-.9-6.3-.55-5.62.37.73-2.9-3.42-8.85-3.64z"/>
  <path fill="url(#bg)" d="M37.78 6.84s6.56 1.38 6.67 11.84c0 7.4 1.1 2.77 2.2 1.1.97-1.46.35-3.18.28-3.18 0 0-.48-1.34-.15-.72l-.44-.48c.08 0-.25-7.47-8.56-8.56z"/>
  <path fill="url(#bh)" d="M45.25 8.26s2.33 6.2-.18 9.22c-.84 1.02-.9 6.2.07 5.68 1.02-.47.8 2.74.66 3.1.07 0 4.95-7.9-.6-18z"/>
  <path fill="url(#bi)" d="M41.9 14.75s1.46 4.37-.07 7.5l1.23 2.63c.8-2.12 1.94-6.64-1.16-10.13z"/>
  <path fill="url(#bj)" d="M44.52 14.24s1.02 6.92-2.7 13.2c.08 1.44-.18 2.76-.54 3.8l.73.38-.3.36-.7.3v.36c.4-.22.8-.37.8-.66.8-.36 1.5-.58 1.5-.62l-.3.18c0 .1-.4.1-.4.1 2.9-2.6 7-8.48 2.6-17.4zm-4.37 18.43c-.3.2-.5.37-.58.5 0 .12.18 0 .58-.17v-.36z"/>
  <path fill="url(#bk)" d="M39.93 21.6s2.92 8.38-6.45 16.2c-.55.5 3.83.27 4.2.08 1.08-.5 2.47-3.9 2.3-3.5-.16.74 4.36-5.82 0-12.75z"/>
  <path fill="url(#bl)" d="M44.05 26.92s-1.82 10.86-14.03 11.66c-4.74.36-11.66-.73-11.08 1.1.22.57 1.1 2.9 3.17 3.5 5.6 1.45 20.5.97 22-16.26z"/>
  <path fill="url(#bm)" d="M33.85 35.08s-7.5 1.75-12.4-2.37c-4.37-3.7-2.18-.6-1.6 1 .62 1.8-2.9.8-3.4.4-.5 0 8.25 5.5 17.4 1.5z"/>
  <path fill="url(#bn)" d="M29 39.2s-8.9-1.75-11.8-7.76c-2.38-5.22-1.76-1.46-1.83.3-.15 1.8-2.66-.63-3-1.1-.06.07 4.6 7.35 16.63 8.56z"/>
  <path fill="url(#bo)" d="M19.23 38.43s-4.26-3.28-6.2-7.83c-1.6-.6-3.74-1.82-3.78-2.08.65 3.53 4.3 7.65 9.98 9.9z"/>
  <path fill="#ff0" stroke="#000" stroke-width=".86" d="M60.72 33.63c-.2-.55-.38-1.16-.5-1.84-.1-.7-.16-1.4-.16-2 0-1 .1-1.9.28-2.7.2-.8.48-1.6.86-2.3.38-.7.86-1.4 1.43-2.1.57-.7 1.24-1.3 2-2 .8-.7 1.5-1.3 2.1-1.9.62-.6 1.13-1.2 1.56-1.8.4-.6.7-1.2.9-1.8.2-.7.3-1.4.3-2.1 0-.7-.1-1.3-.4-1.9-.3-.6-.6-1.1-1-1.5-.5-.4-1-.7-1.6-1-.6-.3-1.3-.4-2.1-.4-1.7 0-3.4.3-5.2 1-1.8.7-3.5 1.7-5.1 3.1V3.3c1.6-.98 3.4-1.7 5.3-2.2 1.9-.5 3.9-.73 6-.73 1.9 0 3.8.25 5.5.7 1.7.4 3.1 1.1 4.4 2.04 1.3 1 2.2 2.2 2.9 3.6.7 1.5 1 3.2 1 5.2 0 1.3-.1 2.5-.4 3.6-.3 1-.7 2-1.3 2.9-.6.9-1.3 1.8-2.1 2.7-.9.8-1.9 1.7-3 2.6l-2 1.7c-.6.6-1 1.1-1.4 1.6-.4.5-.7 1.1-.8 1.7-.2.6-.3 1.3-.3 2 0 .5 0 1 .2 1.6s.3 1 .5 1.4h-8.3m4.7 14c-1.7 0-3.1-.5-4.2-1.5-1.2-1-1.7-2.3-1.7-3.7 0-1.5.5-2.7 1.7-3.7 1.1-1 2.5-1.5 4.2-1.5 1.7 0 3 .5 4.1 1.5s1.8 2 1.8 3.5-.6 2.8-1.7 3.8-2.5 1.5-4.2 1.5" style="line-height:125%;-inkscape-font-specification:Gisha Bold" font-size="41.88" font-weight="bold" letter-spacing="0" word-spacing="0" font-family="Gisha"/>
</svg>

