<?xml version="1.0" encoding="UTF-8" standalone="no"?>
<!DOCTYPE svg PUBLIC "-//W3C//DTD SVG 1.1//EN" "http://www.w3.org/Graphics/SVG/1.1/DTD/svg11.dtd">
<svg xmlns="http://www.w3.org/2000/svg" width="28" height="32" viewBox="0 0 42.32394 48">
  <path fill="#1572b6" d="M3.85 43.2L0 0h42.32l-3.85 43.2L21.14 48l-17.3-4.8zm0 0"/>
  <path fill="#33a9dc" d="M21.16 44.33l14-3.9 3.3-36.9h-17.3v40.8zm0 0"/>
  <g fill="none">
    <path fill="#fff" d="M21.16 19.18h7l.5-5.42h-7.5v-5.3h13.3l-.14 1.42-1.3 14.6H21.16v-5.3zm0 0"/>
    <path fill="#ebebeb" d="M21.2 32.94h-.03l-5.9-1.58-.38-4.23H9.54l.75 8.32 10.86 3h.02v-5.5zm0 0"/>
    <path fill="#fff" d="M27.72 24.26l-.63 7.1-5.94 1.6v5.5l10.86-3 .08-.9.93-10.3H27.7zm0 0"/>
    <path fill="#ebebeb" d="M21.18 8.46v5.3H8.38l-.1-1.2-.25-2.68-.12-1.42h13.3zm-.02 10.72v5.3h-5.82l-.1-1.2L15 20.6l-.15-1.4h6.3zm0 0"/>
  </g>
</svg>
