<?xml version="1.0" encoding="UTF-8" standalone="no"?>
<!DOCTYPE svg PUBLIC "-//W3C//DTD SVG 1.1//EN" "http://www.w3.org/Graphics/SVG/1.1/DTD/svg11.dtd">
<svg xmlns="http://www.w3.org/2000/svg" width="72" height="48">
  <path d="M13.96 28.5c0 1.16.18 2.2.53 3.15.3.93.8 1.76 1.4 2.5.6.72 1.3 1.34 2.2 1.87.8.52 1.7.95 2.7 1.3.9.34 1.9.6 2.9.76 1 .16 2 .25 3 .25 1.3 0 2.4-.1 3.6-.3 1.1-.2 2.2-.5 3.3-.84 1-.4 2.1-.8 3.1-1.3s2.1-1 3.2-1.6v10.2c-1.2.6-2.4 1.1-3.6 1.5-1.2.4-2.4.8-3.7 1.1-1.2.3-2.47.5-3.74.6s-2.57.2-3.9.2c-1.8 0-3.56-.2-5.24-.7-1.66-.4-3.23-1-4.7-1.8-1.47-.8-2.8-1.7-4.03-2.8-1.2-1.1-2.2-2.3-3.1-3.7-.85-1.4-1.5-2.9-2-4.6-.5-1.66-.77-3.4-.77-5.2 0-2 .3-3.88.8-5.68.6-1.8 1.37-3.4 2.4-4.9 1-1.5 2.23-2.85 3.7-4 1.45-1.17 3.1-2.13 4.92-2.86-1 1-1.78 2.15-2.3 3.53-.6 1.32-.95 2.7-1.1 4.1h17.1c0-1.76-.18-3.26-.5-4.5-.37-1.3-.9-2.4-1.7-3.26-.8-.86-1.8-1.5-3-1.93C24.22 9.2 22.73 9 21 9c-2.06 0-4.1.3-6.18.9-2.1.6-4 1.42-5.9 2.5-1.9 1.1-3.6 2.4-5.15 3.88C2.34 18 1 19.7-.06 21.4c.2-2.02.7-3.97 1.3-5.82C1.87 13.7 2.7 12 3.7 10.4c1-1.6 2.17-3 3.5-4.3 1.33-1.3 2.8-2.4 4.43-3.3C13.28 1.9 15 1.2 16.88.7c1.86-.45 3.86-.7 5.96-.7 1.23 0 2.45.1 3.67.33 1.3.23 2.5.53 3.6.92 2.3.8 4.4 1.9 6.2 3.3 1.8 1.45 3.3 3.05 4.6 4.9 1.3 1.86 2.2 3.9 2.9 6.14.7 2.2 1 4.5 1 6.9v5.9z" style="fill:#0078d7;stroke-width:1"/>
  <path d="M52.46 33.67c-.22-.55-.4-1.17-.52-1.85-.1-.7-.16-1.36-.16-1.97 0-.9.1-1.8.3-2.6.18-.8.47-1.5.85-2.2.38-.7.86-1.4 1.43-2 .57-.6 1.24-1.3 2-1.9.8-.6 1.5-1.3 2.1-1.8.6-.6 1.13-1.2 1.56-1.75.42-.6.74-1.2.95-1.82.3-.6.4-1.3.4-2.1 0-.6-.1-1.2-.3-1.8-.2-.52-.6-1-1-1.43-.4-.4-.9-.75-1.6-1-.6-.23-1.3-.35-2-.35-1.6 0-3.3.34-5.1 1.04-1.7.67-3.4 1.7-5 3.1v-9.8c1.66-.97 3.4-1.7 5.37-2.2 1.9-.5 3.9-.72 5.97-.72 2 0 3.8.22 5.5.67 1.7.4 3.2 1.1 4.4 2 1.2.9 2.2 2.1 2.9 3.6.7 1.4 1.1 3.1 1.1 5.2 0 1.3-.1 2.4-.4 3.5-.3 1-.7 2-1.3 2.9-.5.9-1.3 1.8-2.1 2.7-.8.8-1.8 1.7-2.9 2.6l-2 1.7c-.5.5-1 1-1.4 1.6-.4.5-.6 1-.8 1.6-.2.5-.3 1.2-.3 1.9 0 .5.1 1 .2 1.6.2.5.3.9.6 1.3h-8.4m4.6 13.9c-1.7 0-3.1-.5-4.2-1.5-1.1-1.1-1.7-2.3-1.7-3.8s.6-2.8 1.7-3.8c1.2-1 2.6-1.5 4.3-1.5 1.7 0 3.08.5 4.18 1.5 1.1.95 1.6 2.2 1.6 3.7s-.6 2.76-1.6 3.75c-1.1 1-2.5 1.5-4.2 1.5" style="font-weight:bold;font-size:41.88000107px;line-height:125%;font-family:Gisha;-inkscape-font-specification:'Gisha Bold';letter-spacing:0;word-spacing:0;overflow:visible;fill:#ffff00;stroke:#000000;stroke-width:0.86000001" font-size="41.88" font-weight="bold" letter-spacing="0" word-spacing="0" overflow="visible"/>
</svg>
