<?xml version="1.0" encoding="UTF-8" standalone="no"?>
<!DOCTYPE svg PUBLIC "-//W3C//DTD SVG 1.1//EN" "http://www.w3.org/Graphics/SVG/1.1/DTD/svg11.dtd">
<svg xmlns="http://www.w3.org/2000/svg" width="80.01" height="48">
  <path fill="#1ebbee" d="M48.88 25.12c0-3.86-1-7.5-2.75-10.64C53.6-2.42 38.13.05 37.26.22c-3.27.64-6.3 1.67-9.1 2.98-.4-.03-.83-.04-1.25-.04-10.4 0-19.1 7.28-21.4 17.04 5.5-6.17 9.4-8.66 11.7-9.66l-1.1 1-.3.33-.7.68-.4.4-.6.63-.4.44-.5.6-.4.45-.5.58-.4.48-.43.55-.4.5-.45.53-.4.6-.37.5-.42.6-.3.4c-.9 1.2-1.7 2.3-2.4 3.4L6 24l-.02.05-.52.85-.02.03L4.2 27.1c-1.97 3.58-2.93 6.08-2.97 6.23-6.25 22.34 13.25 12.9 15.97 11.5 2.93 1.44 6.22 2.26 9.7 2.26 9.56 0 17.7-6.1 20.7-14.7H36.08c-1.7 2.9-5 4.8-8.77 4.8-5.5 0-10-4.2-10-9.4h31.4c.2-.9.2-1.9.2-2.88zm-4.1-21.6c1.9 1.27 3.4 3.27.8 10.02-2.5-4.02-6.26-7.17-10.73-8.9 2.03-.98 7.07-3.06 9.92-1.13zM4.58 44.77c-1.55-1.58-1.8-5.43 1.57-12.44 1.72 4.94 5.14 9.07 9.57 11.7-2.2 1.2-8.04 3.93-11.15.74zM17.2 21.94c.18-5.03 4.55-9.05 9.93-9.05 5.37 0 9.75 4 9.92 9H17.23z"/>
  <path fill="#ff0" stroke="#000" stroke-width=".86" d="M60.7 33.63c-.22-.55-.4-1.17-.52-1.85-.1-.7-.16-1.36-.16-1.97 0-.9.1-1.8.3-2.6.18-.8.47-1.5.85-2.2.38-.7.86-1.4 1.43-2 .57-.62 1.24-1.3 2-1.9.8-.66 1.5-1.3 2.1-1.86.6-.6 1.13-1.2 1.56-1.77.42-.6.74-1.2.95-1.82.3-.6.4-1.3.4-2.1 0-.6-.1-1.22-.3-1.8-.2-.54-.5-1.03-1-1.44-.4-.4-.9-.75-1.6-1-.6-.23-1.3-.35-2-.35-1.63 0-3.34.34-5.12 1.04-1.8.67-3.47 1.7-5.06 3.1V3.4c1.6-.98 3.4-1.7 5.3-2.2 1.9-.55 3.9-.77 5.96-.77 1.97 0 3.8.22 5.5.67 1.7.43 3.16 1.1 4.4 2.05 1.28.93 2.27 2.13 2.97 3.6.7 1.44 1.1 3.18 1.1 5.2 0 1.3-.14 2.48-.44 3.55-.3 1.02-.73 2-1.3 2.94-.57.93-1.3 1.83-2.13 2.7-.84.85-1.8 1.73-2.9 2.64-.7.6-1.4 1.18-1.95 1.7-.53.54-1 1.07-1.4 1.6-.34.5-.62 1.06-.8 1.66-.2.57-.3 1.23-.3 1.97 0 .5 0 1.1.13 1.6.15.5.34 1 .57 1.4h-8.4m4.6 14c-1.7 0-3.1-.5-4.22-1.5-1.1-1.03-1.66-2.3-1.66-3.72 0-1.5.56-2.73 1.68-3.73 1.14-1 2.55-1.5 4.24-1.5 1.64 0 3.02.5 4.13 1.5 1.1.97 1.64 2.2 1.64 3.7s-.55 2.8-1.63 3.78c-1.1 1-2.5 1.5-4.2 1.5" style="line-height:125%;-inkscape-font-specification:Gisha Bold" font-size="41.88" font-weight="bold" letter-spacing="0" word-spacing="0" overflow="visible" font-family="Gisha"/>
</svg>
