<svg xmlns="http://www.w3.org/2000/svg" width="64" height="64">
  <path fill-rule="evenodd" d="M10.6 12h42.8l-2 49.2c0 2-1.5 2.6-2.3 2.6L15 64c-1.7 0-2.4-1.5-2.4-3.2z"/>
  <path fill="#fff" fill-rule="evenodd" d="M15 16.5h8l.7 42.2h-7zM49 16.5h-8l-.8 42.2h7.1z"/>
  <path fill="none" stroke="#000" d="M27.3 58.7h9.4M36 58.7l-7.9-.1"/>
  <path fill="#fff" fill-rule="evenodd" d="M27.2 16.5h9.5l-.8 42.2h-7.8z"/>
  <path fill-rule="evenodd" d="M55.3 7.4C55.3 9 54.2 10 53 10H11.4c-1.1 0-2.7-.5-2.7-2.7s1.5-2.5 2.7-2.5H53c1.6 0 2.4 1.3 2.4 2.7zM26.1 4.8h-2.3S26.3 0 32.5 0c6.3 0 9.1 4.7 9.1 4.7h-3.3s-1-2.5-5.6-2.4c-4.6.1-5.4 2.4-5.4 2.4z"/>
</svg>
