<?xml version="1.0" encoding="UTF-8" standalone="no"?>
<!DOCTYPE svg PUBLIC "-//W3C//DTD SVG 1.1//EN" "http://www.w3.org/Graphics/SVG/1.1/DTD/svg11.dtd">
<svg xmlns="http://www.w3.org/2000/svg" width="32" height="32" viewBox="0 0 260 260">
  <style id="style6"/>
  <defs id="defs10">
    <linearGradient id="default-lg" x2="1" y2="1">
      <stop id="stop13" offset="0" stop-color="#f99d1c"/>
      <stop id="stop15" offset=".17" stop-color="#d02e27"/>
      <stop id="stop17" offset=".34" stop-color="#dc4e3e"/>
      <stop id="stop19" offset=".5" stop-color="#58152a"/>
      <stop id="stop21" offset=".67" stop-color="#694d9f"/>
      <stop id="stop23" offset=".83" stop-color="#263c82"/>
      <stop id="stop25" offset="1" stop-color="#30b4c5"/>
    </linearGradient>
  </defs>
  <svg id="logo" width="260" height="260" x="8" y="8" viewBox="-5 -5 265 265" overflow="visible">
    <path id="outline" fill="#f1ecd7" stroke="#f1ecd7" stroke-width="10" d="M66 33v98.5l32.76-32.93a33 33 0 0 1 46.57.1L178 131.5V33a33 33 0 1 1 66 0v178a33 33 45 0 1-56.33 23.43L122 168.67l-65.67 65.76A33 33 45 0 1 0 211V33a33 33 45 1 1 66 0z"/>
    <path id="strut-1" fill="#f99d1c" d="M66 33v178a33 33 0 1 1-66 0V33a33 33 45 1 1 66 0zM33 19a14 14 0 1 0 0 28 14 14 0 1 0 0-28zm0 178a14 14 0 1 0 0 28 14 14 0 1 0 0-28z"/>
    <path id="strut-2" fill="#dc4e3e" d="M9.67 187.67l89.1-89.1a33 33 0 1 1 46.66 46.67l-89.1 89.2a33.03 33.03 45 1 1-46.66-46.77zM33 197a14 14 0 1 0 0 28 14 14 0 1 0 0-28zm89-89a14 14 0 1 0 0 28 14 14 0 1 0 0-28z"/>
    <path id="strut-3" fill="#694d9f" d="M145.33 98.67l89.1 89.1a33.03 33.03 0 1 1-46.76 46.66l-89-89a33.03 33.03 45 1 1 46.66-46.76zM122 108a14 14 0 1 0 0 28 14 14 0 1 0 0-28zm89 89a14 14 0 1 0 0 28 14 14 0 1 0 0-28z"/>
    <path id="strut-4" fill="#30b4c5" d="M178 211V33a33 33 0 1 1 66 0v178a33 33 45 1 1-66 0zm33-192a14 14 0 1 0 0 28 14 14 0 1 0 0-28zm0 178a14 14 0 1 0 0 28 14 14 0 1 0 0-28z"/>
    <path id="join-1" fill="#d02e27" d="M66 131.5V211a33 33 45 1 1-56.33-23.33zM33 197a14 14 0 1 0 0 28 14 14 0 1 0 0-28z"/>
    <path id="join-2" fill="#58152a" d="M122 168.67l-23.33-23.34a33 33 45 1 1 46.76 0zm0-60.67a14 14 0 1 0 0 28 14 14 0 1 0 0-28z"/>
    <path id="join-3" fill="#263c82" d="M178 131.5V211a33 33 45 1 0 56.43-23.33zm33 65.5a14 14 0 1 1 0 28 14 14 0 1 1 0-28z"/>
  </svg>
</svg>
