<?xml version="1.0" encoding="UTF-8" standalone="no"?>
<!DOCTYPE svg PUBLIC "-//W3C//DTD SVG 1.1//EN" "http://www.w3.org/Graphics/SVG/1.1/DTD/svg11.dtd">
<svg xmlns="http://www.w3.org/2000/svg" width="66" height="48">
  <path d="M13.96 28.5c0 1.16.18 2.2.53 3.15.3.93.8 1.76 1.4 2.5.6.72 1.3 1.34 2.2 1.87.8.52 1.7.95 2.7 1.3.9.34 1.9.6 2.9.76 1 .16 2 .25 3 .25 1.3 0 2.4-.1 3.6-.3 1.1-.2 2.2-.5 3.3-.84 1-.4 2.1-.8 3.1-1.3s2.1-1 3.2-1.6v10.2c-1.2.6-2.4 1.1-3.6 1.5-1.2.4-2.4.8-3.68 1.1-1.2.3-2.46.5-3.73.6s-2.57.2-3.9.2c-1.8 0-3.56-.2-5.24-.7-1.66-.4-3.23-1-4.7-1.8-1.47-.8-2.8-1.7-4.03-2.8-1.2-1.1-2.22-2.3-3.1-3.7-.85-1.4-1.52-2.9-2-4.6-.5-1.63-.77-3.37-.77-5.2 0-1.98.3-3.85.8-5.65.6-1.8 1.37-3.4 2.4-4.9 1-1.5 2.23-2.85 3.7-4 1.45-1.17 3.1-2.13 4.92-2.86-1 1-1.78 2.15-2.3 3.53-.6 1.32-.95 2.7-1.1 4.1h17.1c0-1.76-.18-3.26-.5-4.5-.37-1.3-.9-2.4-1.7-3.26-.8-.86-1.8-1.5-3-1.93C24.22 9.2 22.73 9 21 9c-2.06 0-4.1.3-6.18.9-2.1.6-4 1.42-5.9 2.5-1.9 1.1-3.6 2.4-5.15 3.88C2.34 18 1 19.7-.06 21.4c.2-2.02.7-3.97 1.3-5.82C1.87 13.7 2.7 12 3.7 10.4c1-1.6 2.17-3 3.5-4.3 1.33-1.3 2.8-2.4 4.43-3.3C13.28 1.9 15 1.2 16.88.7c1.86-.45 3.86-.7 5.96-.7 1.23 0 2.45.1 3.67.33 1.3.23 2.5.53 3.6.92 2.3.8 4.4 1.9 6.2 3.3 1.8 1.45 3.3 3.05 4.6 4.9 1.3 1.86 2.2 3.9 2.9 6.14.7 2.2 1 4.5 1 6.9v5.9z" style="fill:#0078d7;stroke-width:1"/>
  <g style="fill:#ff0000">
    <path d="M65.88 42.65a5.35 5.35 0 1 1-10.7 0 5.35 5.35 0 1 1 10.7 0z"/>
    <path d="M60.45 0c-3.02.05-5.43 2.53-5.4 5.54l.87 22.95c.07 1.9.44 3.5 2.14 4.5 1.7 1 3.24 1 4.94 0 1.7-1 2.07-2.6 2.14-4.5l.86-23c.02-1.5-.56-2.9-1.6-4-1.05-1-2.47-1.6-3.95-1.6z" style="fill-rule:evenodd"/>
  </g>
</svg>
