<svg xmlns="http://www.w3.org/2000/svg" width="66" height="48" viewBox="1 1 66 48"><defs><linearGradient id="c" x2="1" gradientTransform="translate(-93.12 -67.3) scale(231.62705)" gradientUnits="userSpaceOnUse"><stop offset="0" stop-color="#db3328"/><stop offset="1" stop-color="#e53d30"/></linearGradient><linearGradient id="e" x2="1" gradientTransform="rotate(60 -6.85 -119.22) scale(189.86532)" gradientUnits="userSpaceOnUse"><stop offset="0" stop-color="#32a651"/><stop offset="1" stop-color="#279847"/></linearGradient><clipPath id="a"><path d="M8.57 96Z"/></clipPath><clipPath id="b"><path d="M8.57 96Z"/></clipPath><circle id="d" cx="96" cy="96" r="88"/></defs><g style="stroke-width:10.6664"><g style="stroke-width:10.6664"><g clip-path="url(#a)" opacity=".5" style="stroke-width:113.771" transform="matrix(.375 0 0 -.375 1 49)"><g style="stroke-width:10.6664"><path fill="#d663ff" d="M0 0Z" style="stroke-width:113.771" transform="translate(8.58 96)"/></g></g><g clip-path="url(#b)" opacity=".5" style="stroke-width:113.771" transform="matrix(.375 0 0 -.375 1 49)"><g style="stroke-width:10.6664"><path fill="#9963ff" d="M0 0Z" style="stroke-width:113.771" transform="translate(8.58 96)"/></g></g></g><path fill="#fbbf12" d="m51.77 28.7 110.85 64-110.85 192c141.38 0 255.99-114.61 255.99-256 0-46.64-12.54-90.33-34.33-128H51.76Z" style="stroke-width:40.3128" transform="translate(20.15 22.3) scale(.09375)"/><path fill="url(#a)" d="M51.77-227.29c-94.76 0-177.42 51.52-221.68 128.03L-59.1 92.71l110.86-64v-128h221.66c-44.27-76.5-126.93-128-221.66-128Z" style="fill:url(#c);stroke-width:40.3128" transform="translate(20.15 22.3) scale(.09375)"/><path fill="url(#d)" d="M-204.23 28.7c0 141.39 114.61 256 256 256l110.85-192-110.85-64-110.86 64L-169.9-99.26A254.7 254.7 0 0 0-204.23 28.7" style="fill:url(#e);stroke-width:40.3128" transform="translate(20.15 22.3) scale(.09375)"/><path fill="#fff" d="M179.76 28.7c0 70.7-57.3 128-128 128-70.69 0-128-57.3-128-128 0-70.68 57.31-128 128-128 70.7 0 128 57.32 128 128" style="stroke-width:40.3128" transform="translate(20.15 22.3) scale(.09375)"/><path fill="#1a73e8" d="M155.76 28.7c0 57.44-46.56 104-104 104-57.43 0-104-46.56-104-104 0-57.43 46.57-104 104-104 57.44 0 104 46.57 104 104" style="stroke-width:40.3128" transform="translate(20.15 22.3) scale(.09375)"/></g><g fill="red"><path d="M66.88 43.65a5.35 5.35 0 1 1-10.7 0 5.35 5.35 0 1 1 10.7 0z"/><path fill-rule="evenodd" d="M61.45 1a5.5 5.5 0 0 0-5.4 5.54l.87 22.95c.07 1.93.44 3.5 2.14 4.5 1.7 1 3.24 1 4.94 0 1.7-1 2.07-2.57 2.14-4.5l.86-23a5.5 5.5 0 0 0-1.6-3.95A5.64 5.64 0 0 0 61.45.98z"/></g></svg>