<?xml version="1.0" encoding="UTF-8" standalone="no"?>
<!DOCTYPE svg PUBLIC "-//W3C//DTD SVG 1.1//EN" "http://www.w3.org/Graphics/SVG/1.1/DTD/svg11.dtd">
<svg xmlns="http://www.w3.org/2000/svg" width="28" height="32" viewBox="0 0 42.323963 47.999999">
  <path fill="#e44d26" d="M3.85 43.2L0 0h42.32l-3.85 43.2L21.14 48"/>
  <path fill="#f16529" d="M35.17 40.44l3.3-36.9h-17.3v40.8"/>
  <path fill="#ebebeb" d="M21.14 8.83H7.88L8 10.25l1.3 14.6h11.86v-5.3h-7l-.5-5.42h7.5v-5.3M9.54 27.5l.74 8.32 10.86 3.02h.02V33.3h-.02l-5.9-1.6-.38-4.22H12"/>
  <path fill="#fff" d="M21.14 38.83l10.87-3 .1-.9 1.25-13.95.13-1.42H21.13v5.3h6.54l-.62 6.87-5.9 1.6m12.78-19.2l.12-1.2.24-2.68.1-1.42H21.14v5.3h12.8"/>
</svg>
